<svg version="1.1" xmlns="http://www.w3.org/2000/svg" xmlns:xlink="http://www.w3.org/1999/xlink" width="164.00618" height="232.02968" viewBox="0,0,164.00618,232.02968"><g transform="translate(-146.16304,-32.12656)"><g data-paper-data="{&quot;isPaintingLayer&quot;:true}" fill="#000000" fill-rule="nonzero" stroke="none" stroke-width="0.5" stroke-linecap="butt" stroke-linejoin="miter" stroke-miterlimit="10" stroke-dasharray="" stroke-dashoffset="0" style="mix-blend-mode: normal"><path d="M165.19443,63.65623c0,2.35497 -0.65246,4.05748 -1.59583,5.2883c-0.73678,7.19695 -0.40417,12.68249 -0.40417,21.7117c0,11.33333 0,22.66667 0,34c0,28.33333 0,56.66667 0,85c0,0 0,8.5 -8.5,8.5c-8.5,0 -8.5,-8.5 -8.5,-8.5c0,-28.33333 0,-56.66667 0,-85c0,-11.33333 0,-22.66667 0,-34c0,-10.74312 -0.3203,-18.16223 1.08543,-28.20208l9.41457,-7.29792c0,0 8.5,0 8.5,8.5z"/><path d="M302.84289,32.23418c8.42206,1.14846 7.27359,9.57052 7.27359,9.57052l-0.70308,5.15589c-3.00063,21.94764 -4.06774,43.91701 -4.91853,66.04745c-1.82754,47.53699 -1.30045,95.07899 -1.30045,142.6482c0,0 0,8.5 -8.5,8.5c-8.5,0 -8.5,-8.5 -8.5,-8.5c0,-47.78729 -0.52453,-95.5465 1.31301,-143.30156c0.87283,-22.68366 2.00154,-45.19238 5.06186,-67.69101l0.70308,-5.15589c0,0 1.14846,-8.42206 9.57052,-7.27359z"/></g></g></svg>