<svg version="1.1" xmlns="http://www.w3.org/2000/svg" xmlns:xlink="http://www.w3.org/1999/xlink" width="143.17558" height="138.24978" viewBox="0,0,143.17558,138.24978"><g transform="translate(-160.01273,-67.01882)"><g data-paper-data="{&quot;isPaintingLayer&quot;:true}" fill="#000000" fill-rule="nonzero" stroke="none" stroke-width="0.5" stroke-linecap="butt" stroke-linejoin="miter" stroke-miterlimit="10" stroke-dasharray="" stroke-dashoffset="0" style="mix-blend-mode: normal"><path d="M162.68402,191.66664c-5.2565,-5.2565 -1.31868,-10.513 -0.24811,-11.74898c2.99682,-8.42791 0.75852,-18.29068 0.75852,-27.26143c0,-0.01796 0,-34.00841 0.00001,-34.01583c0.01147,-4.33341 -0.36342,-8.68929 0.07943,-13.00003c0.60381,-5.87762 2.03327,-11.64088 3.0499,-17.46132c0,0 1.47718,-8.37066 9.84784,-6.89348c8.37066,1.47718 6.89348,9.84784 6.89348,9.84784c-0.95293,5.34044 -2.29636,10.62576 -2.8588,16.02132c-0.39804,3.81842 -0.01028,7.67822 -0.01187,11.51733c-0.00471,11.32806 0.00001,22.65612 0.00001,33.98417c0,4.70588 0,24 0,24c-0.01091,1.53662 0.1964,3.11109 -0.15337,4.60741c-0.53067,2.27022 -1.63638,4.36627 -2.45458,6.54941l-2.88164,3.85359c0,0 -6.01041,6.01041 -12.02082,0z"/><path d="M297.38236,204.72004c-8.06381,2.68794 -10.75174,-5.37587 -10.75174,-5.37587l-2.07005,-6.22006c-6.72354,-24.50284 -14.2298,-48.94074 -20.16812,-73.6438c-1.93361,-8.04372 -2.7889,-16.30935 -4.09095,-24.47911c-0.86889,-5.45186 -1.38505,-11.0883 -3.49913,-16.18814c0,0 -3.15682,-7.89205 4.73523,-11.04887c7.89205,-3.15682 11.04887,4.73523 11.04887,4.73523c5.37398,13.78047 4.94743,29.02071 8.40992,43.33274c5.87091,24.26716 13.24423,48.27153 19.83188,72.3562l1.92995,5.77994c0,0 2.68794,8.06381 -5.37587,10.75174z"/></g></g></svg>