<svg version="1.1" xmlns="http://www.w3.org/2000/svg" xmlns:xlink="http://www.w3.org/1999/xlink" width="56.28567" height="46.3253" viewBox="0,0,56.28567,46.3253"><defs><linearGradient x1="115.85083" y1="-271.52039" x2="116.45631" y2="-316.68405" gradientUnits="userSpaceOnUse" id="color-1"><stop offset="0" stop-color="#ee2a7b"/><stop offset="1" stop-color="#811150"/></linearGradient></defs><g transform="translate(-212.31305,-156.93451)"><g data-paper-data="{&quot;isPaintingLayer&quot;:true}" fill="url(#color-1)" fill-rule="nonzero" stroke="#ffffff" stroke-width="1.15823" stroke-linecap="butt" stroke-linejoin="miter" stroke-miterlimit="10" stroke-dasharray="" stroke-dashoffset="0" style="mix-blend-mode: normal"><path d="M229.81295,175.01607c0,0 22.92358,0.29757 33.33465,0.43716c2.72705,0.03665 4.9081,2.27731 4.87155,5.00406c-0.03655,2.72716 -2.2768,4.90761 -5.00396,4.87105c-8.72862,-0.117 -33.30786,-0.43638 -33.30786,-0.43638c0,0 1.62774,1.69218 9.13825,9.40632c1.90266,1.95439 1.86077,5.08041 -0.09361,6.98257c-1.95528,1.90215 -5.08081,1.86076 -6.98297,-0.09362c-6.09009,-6.25461 -17.47717,-17.95265 -17.47717,-17.95265c-1.90216,-1.95428 -1.86026,-5.0808 0.09361,-6.98257c0,0 10.09382,-9.8272 17.80846,-17.33769c1.9553,-1.90355 5.08132,-1.86166 6.98307,0.09362c1.90267,1.95389 1.86076,5.08081 -0.0936,6.98157c-6.25564,6.09188 -9.27042,9.02656 -9.27042,9.02656z" data-paper-data="{&quot;index&quot;:null}"/></g></g></svg>