<svg version="1.1" xmlns="http://www.w3.org/2000/svg" xmlns:xlink="http://www.w3.org/1999/xlink" width="192" height="254" viewBox="0,0,192,254"><g transform="translate(-134.29688,-52.12891)"><g data-paper-data="{&quot;isPaintingLayer&quot;:true}" fill-rule="nonzero" stroke-linecap="butt" stroke-linejoin="miter" stroke-miterlimit="10" stroke-dasharray="" stroke-dashoffset="0" style="mix-blend-mode: normal"><path d="M134.29688,306.12891v-254h192v254z" fill="#00e6ff" stroke="#000000" stroke-width="0"/><text transform="translate(143.29688,103.12891) scale(0.4293,0.5)" font-size="40" xml:space="preserve" fill="#000000" fill-rule="nonzero" stroke="none" stroke-width="1" stroke-linecap="butt" stroke-linejoin="miter" stroke-miterlimit="10" stroke-dasharray="" stroke-dashoffset="0" font-family="Sans Serif" font-weight="normal" text-anchor="start" style="mix-blend-mode: normal"><tspan x="0" dy="0">intel core i7</tspan><tspan x="0" dy="46.150000000000006px">Video Card:GTX 4543</tspan></text><path d="M171.79688,171.12891c0,-1.38071 1.11929,-2.5 2.5,-2.5c1.38071,0 2.5,1.11929 2.5,2.5c0,1.38071 -1.11929,2.5 -2.5,2.5c-1.38071,0 -2.5,-1.11929 -2.5,-2.5z" fill="#000000" stroke="none" stroke-width="0.5"/><path d="M253.79688,166.12891c0,-1.38071 1.11929,-2.5 2.5,-2.5c1.38071,0 2.5,1.11929 2.5,2.5c0,1.38071 -1.11929,2.5 -2.5,2.5c-1.38071,0 -2.5,-1.11929 -2.5,-2.5z" fill="#000000" stroke="none" stroke-width="0.5"/><path d="M278.29688,166.62891c2.5,0 2.5,2.5 2.5,2.5l-0.12829,1.79057c-1.16661,3.49982 -2.73303,6.66042 -4.027,10.0768c-0.53346,1.40845 -0.46175,3.03479 -1.16921,4.36438c-1.27954,2.40474 -3.61658,3.13116 -5.59053,4.70161c-0.82349,0.65516 -1.37063,1.64799 -2.27064,2.19327c-0.90154,0.54621 -2.09607,0.45776 -3,1c-0.8351,0.50095 -1.2087,1.61913 -2.08258,2.04887c-4.4487,2.1877 -9.07211,1.52854 -13.66762,2.26002c-2.51943,0.40103 -4.58323,2.24338 -6.90152,3.30822c-7.97876,2.61544 -16.27126,2.75626 -24.66261,2.75626c-4.96168,0 -10.41033,0.50882 -15.34934,-0.03218c-1.6548,-0.18126 -3.24049,-0.81516 -4.89701,-0.97999c-1.70961,-0.17011 -3.44935,0.19316 -5.15411,-0.02011c-1.04594,-0.13085 -1.96025,-0.82671 -3,-1c-2.31564,-0.38594 -4.87213,-0.18247 -6.91387,-1.34109c-0.87046,-0.49396 -1.31462,-1.54346 -2.14745,-2.09852c-1.22915,-0.8192 -2.75588,-1.1296 -3.96634,-1.97616c-1.22831,-0.85904 -2.00332,-2.28583 -3.27111,-3.08547c-1.27943,-0.80698 -2.8195,-1.09686 -4.22925,-1.64528c0,0 -2.32119,-0.92848 -1.39272,-3.24967c0.92848,-2.32119 3.24967,-1.39272 3.24967,-1.39272c1.68517,0.68954 3.50798,1.10925 5.05552,2.06862c1.33203,0.82578 2.15939,2.30303 3.44413,3.20062c1.23314,0.86155 2.78212,1.18923 4.03366,2.02384c0.73622,0.49096 1.11063,1.41918 1.85255,1.90148c1.87575,1.21935 2.953,0.30339 5.08613,0.65891c1.03975,0.17329 1.95403,0.86937 3,1c1.60286,0.20018 3.23836,-0.17849 4.84589,-0.02011c1.66059,0.16361 3.25068,0.79418 4.9088,0.98117c9.58199,1.08059 20.05115,0.08469 29.49552,-0.96116c2.74957,-0.30448 5.5546,-0.54721 8.17356,-1.4382c2.53977,-1.17097 4.86059,-3.0262 7.61165,-3.5295c3.90423,-0.71427 8.55085,0.19028 12.33238,-1.73998c0.81217,-0.41457 1.13555,-1.4819 1.91742,-1.95113c2.45244,-1.4718 7.79436,-3.14403 9.13883,-6.10512c0.51393,-1.1319 0.39841,-2.47012 0.83079,-3.63562c1.25244,-3.37603 2.82354,-6.47481 3.973,-9.9232l-0.12829,-0.20943c0,0 0,-2.5 2.5,-2.5z" fill="#000000" stroke="none" stroke-width="0.5"/><text transform="translate(141.29688,251.12891) scale(0.5,0.5)" font-size="40" xml:space="preserve" fill="#000000" fill-rule="nonzero" stroke="none" stroke-width="1" stroke-linecap="butt" stroke-linejoin="miter" stroke-miterlimit="10" stroke-dasharray="" stroke-dashoffset="0" font-family="Sans Serif" font-weight="normal" text-anchor="start" style="mix-blend-mode: normal"><tspan x="0" dy="0">click me</tspan></text></g></g></svg>