<svg version="1.1" xmlns="http://www.w3.org/2000/svg" xmlns:xlink="http://www.w3.org/1999/xlink" width="174.81921" height="469.89407" viewBox="0,0,174.81921,469.89407"><defs><linearGradient x1="233.52362" y1="-0.22609" x2="233.60106" y2="96.23366" gradientUnits="userSpaceOnUse" id="color-1"><stop offset="0" stop-color="#cedee0" stop-opacity="0"/><stop offset="1" stop-color="#cedee0" stop-opacity="0.19676"/></linearGradient><linearGradient x1="263.99045" y1="248.02205" x2="263.99045" y2="408.74927" gradientUnits="userSpaceOnUse" id="color-2"><stop offset="0" stop-color="#ffffff" stop-opacity="0.26046"/><stop offset="1" stop-color="#ffffff" stop-opacity="0"/></linearGradient><linearGradient x1="215.50349" y1="252.75048" x2="215.50349" y2="413.47767" gradientUnits="userSpaceOnUse" id="color-3"><stop offset="0" stop-color="#ffffff" stop-opacity="0.26046"/><stop offset="1" stop-color="#ffffff" stop-opacity="0"/></linearGradient></defs><g transform="translate(-143.18346,54.58587)"><g data-paper-data="{&quot;isPaintingLayer&quot;:true}" fill-rule="nonzero" stroke-linejoin="miter" stroke-miterlimit="10" stroke-dasharray="" stroke-dashoffset="0" style="mix-blend-mode: normal"><g data-paper-data="{&quot;index&quot;:null}" stroke="#3a2f41" stroke-width="2" stroke-linecap="butt"><path d="M154.81761,11.83579l4.71378,-15.21114l9.15389,6.52388l-6.82032,-10.901l19.83412,-20.85201c0,0 2.57922,20.78753 9.83452,39.8022c2.81643,4.26934 -8.20697,10.96592 -8.20697,10.96592z" fill="#3a2f41"/><path d="M190.22098,18.91805c-2.37029,-1.85832 3.11098,-24.27153 7.0677,-29.04988c1.60042,-1.93275 17.44483,16.54278 15.41022,18.99989c-3.95672,4.77834 -18.96317,12.80555 -21.33345,10.94726z" data-paper-data="{&quot;index&quot;:null}" fill="#8c9ca0"/><path d="M191.15376,19.14906c1.97339,2.20501 -8.14119,18.2345 -12.92043,21.67678c-2.45758,1.77009 -19.51939,-15.82136 -17.58627,-17.2137c4.77923,-3.44228 27.58048,-7.73277 29.55387,-5.52775z" fill="#e1e2db"/><path d="M196.33784,14.86012c1.87112,3.21946 0.91916,7.2642 -2.12629,9.03419c-3.04542,1.76999 -7.03111,0.59494 -8.90223,-2.62453c-1.87112,-3.21946 -0.91916,-7.2642 2.12629,-9.03419c3.04542,-1.76999 7.03111,-0.59494 8.90223,2.62453z" fill="#e1e2db"/></g><path d="M286.37398,89.95607l-22.74675,-2.50621l-0.05815,-12.29223c0,0 -1.49046,12.48449 -1.99375,12.3465c-6.43625,-0.51023 -12.80735,-0.91861 -18.9004,-1.24543c-25.59688,-1.37298 -46.2869,-1.30675 -46.2869,-1.30675c0,0 -7.93159,-14.07703 -7.94218,-27.26935c-0.0074,-9.21902 1.04565,-27.43201 14.06103,-41.62399c10.49696,-11.4459 28.92482,-15.01527 32.74749,-15.17371c3.05663,-0.1267 15.97283,4.60287 23.63072,11.80393c12.74716,11.9868 27.04177,39.0146 27.04177,39.0146z" fill="#3a2f41" stroke="none" stroke-width="0" stroke-linecap="butt"/><g stroke-linecap="butt"><path d="M272.66274,55.09641c0.00656,8.1681 1.88217,15.45363 -3.94917,20.73078c-5.66863,5.1299 -18.39619,6.90949 -31.38737,7.1965c-12.93021,0.28568 -25.91306,-2.63075 -31.62551,-7.96432c-5.77912,-5.39576 -4.67309,-11.80463 -4.67958,-19.90547c-0.01293,-16.10829 10.86933,-36.57809 40.93105,-35.7139c19.77478,0.56846 30.69768,19.5481 30.71061,35.6564z" fill="#e1e2db" stroke="none" stroke-width="0"/><path d="M272.66274,55.09641c0.01293,16.10829 -14.61364,5.98946 -30.83662,6.1303c-16.21973,0.14081 -40.79211,10.0355 -40.80504,-6.07279c-0.01293,-16.10829 10.86933,-36.57809 40.93105,-35.7139c19.77478,0.56846 30.69768,19.5481 30.71061,35.6564z" fill="#b8c1c0" stroke="none" stroke-width="0"/><path d="M247.55689,20.12816c16.2236,3.60588 26.32543,19.80642 26.33707,34.32182l0.00051,0.64544c0.00614,7.64082 0.34192,14.82856 -4.7057,20.0036c-5.59373,5.73491 -17.54676,7.61823 -31.40063,7.92432c-9.57087,0.21145 -21.15752,-1.50773 -26.66225,-4.58559c-9.45574,-5.28696 -10.09659,-13.10261 -10.10475,-23.28384c-0.01098,-13.67285 7.82778,-30.48807 28.58247,-34.73167" fill="none" stroke="#3a2f41" stroke-width="2"/></g><path d="M182.65666,80.90067l-10.99825,-8.53452c0,0 -2.65518,-28.40723 9.74073,-46.88189c15.98874,-23.82931 44.21525,-33.09728 72.08621,-26.26461c5.9706,1.46372 21.02678,6.48458 29.86466,16.62669c10.61683,12.18358 14.28663,27.68822 14.28663,27.68822l-5.92609,-0.92577l1.14431,12.25655c0,0 -3.25706,-0.82871 -3.27841,-1.08912c-0.4782,-5.83492 -1.69094,-11.62709 -1.69094,-11.62709c0,0 0.91274,4.73458 0.33365,11.73379c-3.39848,-0.63259 -22.31374,-2.60973 -22.31374,-2.60973l-2.57669,-5.25809l-0.45159,4.92646l-16.43084,-1.50027l-1.76596,-18.52775l-0.23994,18.0378c0,0 -14.70141,-0.12505 -21.81084,0.14159c-0.50146,0.01881 -2.41068,-7.77954 -2.41068,-7.77954c0,0 -0.17235,8.13994 -0.54695,8.14674c-4.42777,0.08027 -10.52979,0.88291 -10.52979,0.88291c0,0 0.11424,41.13477 -0.04795,41.1535c-2.52297,0.29156 -23.95485,-7.53103 -23.92046,-9.22629c0.04969,-2.44901 -1.50409,-16.22907 -1.50409,-16.22907z" fill="#3a2f41" stroke="url(#color-1)" stroke-width="0.5" stroke-linecap="butt"/><path d="M242.39405,12.40804c17.00224,-37.05807 50.45791,-50.79669 50.45791,-50.79669l-13.82963,66.82233" fill="#3a2f41" stroke="#3a2f41" stroke-width="2" stroke-linecap="round"/><path d="M176.54893,37.67325c13.71149,-56.03458 51.88517,-90.22019 51.88517,-90.22019l6.79827,60.67367" fill="#3a2f41" stroke="#3a2f41" stroke-width="2" stroke-linecap="round"/><g stroke="#3a2f41" stroke-linecap="butt"><path d="M207.29286,62.77776c0,0 5.05824,-5.01385 14.21405,-4.96691c9.7006,0.04975 14.82109,6.19063 14.82109,6.19063c0,0 -6.15478,-0.49166 -14.98442,-0.75201c-7.84606,-0.23135 -14.05071,-0.47171 -14.05071,-0.47171z" fill="#e1e2db" stroke-width="1"/><g fill="#3a2f41" stroke-width="0.5"><path d="M220.76582,63.36459l0.0862,-5.40747l4.03043,0.11109l-0.64823,5.34895z"/></g></g><path d="M300.13058,299.34004c0.1431,6.62627 -24.67462,12.09868 -58.51583,12.83976c-33.84122,0.74109 -64.5576,-3.02979 -64.7007,-9.65605c-0.1431,-6.62627 27.34129,-12.59868 61.18249,-13.33976c33.84122,-0.74109 61.89094,3.52979 62.03404,10.15605z" fill="#3a2f41" stroke="none" stroke-width="0" stroke-linecap="butt"/><path d="M242.58922,248.02205l42.80246,11.82158l-14.37164,148.90561z" fill="#3a2f41" stroke="url(#color-2)" stroke-width="0.5" stroke-linecap="butt"/><path d="M213.20229,413.47767l-19.10003,-148.90562l42.80246,-11.82157z" data-paper-data="{&quot;index&quot;:null}" fill="#3a2f41" stroke="url(#color-3)" stroke-width="0.5" stroke-linecap="butt"/><g><path d="M178.42024,300.77709c0,0 3.59725,-38.22115 6.8621,-56.45554c5.04439,-23.76166 20.70477,-73.39855 20.70477,-73.39855l57.76919,-0.94466c0,0 6.36216,14.36512 10.42472,23.35775c1.21592,2.69149 2.22585,4.90171 2.79754,6.10147c6.01036,22.15685 21.40037,98.17513 21.40037,98.17513c0,0 -14.13893,-6.79586 -44.14496,-6.56026c-44.72036,0.35113 -75.81374,9.72465 -75.81374,9.72465z" fill="#e1e2db" stroke="none" stroke-width="0" stroke-linecap="round"/><path d="M182.28106,260.05663c0,0 6.64675,-46.45638 9.32823,-58.47466c3.84371,-17.22733 18.36341,-36.01137 18.36341,-36.01137l51.52723,-1.15737c0,0 6.85699,13.02291 9.0561,18.03775c1.5248,3.47714 2.87306,9.16545 2.87306,9.16545z" fill="#8c9ca0" stroke="none" stroke-width="0" stroke-linecap="butt"/><path d="M261.08964,164.97842c0,0 8.09065,10.70316 14.58369,32.89832c5.869,20.06202 23.03894,99.73604 23.03894,99.73604c0,0 -14.47226,-6.79586 -44.47829,-6.56026c-44.72036,0.35113 -76.14707,10.05798 -76.14707,10.05798c0,0 8.49449,-70.52934 15.3294,-101.16387c3.45585,-15.48935 16.5708,-34.35686 16.5708,-34.35686z" fill="none" stroke="#3a2f41" stroke-width="2.5" stroke-linecap="round"/><path d="M265.59537,173.25844l-25.00711,12.97842l-35.18713,-11.72539" fill="none" stroke="#3a2f41" stroke-width="1.5" stroke-linecap="round"/></g><path d="M237.5773,176.6526c-11.08878,0.03558 -29.18678,-11.84706 -29.18678,-11.84706c0,0 1.48311,-6.189 2.63987,-9.538c1.05377,-3.05082 3.39556,-9.74501 3.39556,-9.74501c0,0 0.67679,-4.7272 -2.06118,-9.71841c-1.7154,-3.12709 -11.21868,-15.77657 -11.23717,-16.21286c-0.00356,-0.08387 1.21686,-4.58138 3.25787,-9.37369c2.36907,-5.56257 11.07389,-14.54374 15.02278,-16.6567c4.30211,-2.30196 10.13988,-3.35049 14.6146,-3.23215c6.83859,0.18084 13.9139,1.50343 20.10283,4.85664c2.33225,1.26363 6.56719,4.66765 6.56719,4.66765c0,0 7.18838,9.37027 10.20429,20.80089c-4.45981,12.24906 -14.51805,17.30857 -14.51805,17.30857l-1.23236,8.33689c0,0 2.45913,6.13601 3.43622,9.19629c0.97382,3.05001 2.41656,9.13468 2.41656,9.13468c0,0 -12.33344,11.9867 -23.42222,12.02228z" fill="#3a2f41" stroke="#8c9ca0" stroke-width="2" stroke-linecap="round"/><g data-paper-data="{&quot;index&quot;:null}" stroke="#3a2f41"><g data-paper-data="{&quot;index&quot;:null}"><g><path d="M314.27482,321.87392l-29.6613,37.84341l-7.6171,-116.44604l32.50886,-1.9775z" fill="#e1e2db" stroke-width="0" stroke-linecap="butt"/><path d="M310.89814,264.82603l-30.98934,27.64905l-2.91237,-49.2038l32.50886,-1.9775z" fill="#8c9ca0" stroke-width="0" stroke-linecap="butt"/><path d="M310.12953,264.87288l-30.70165,17.61222" fill="none" stroke-width="1.5" stroke-linecap="round"/><path d="M311.438,286.97893l-30.1146,20.08135" fill="none" stroke-width="1.5" stroke-linecap="round"/><path d="M281.92207,332.07222l31.24259,-23.37046" fill="none" stroke-width="1.5" stroke-linecap="round"/><path d="M305.26784,241.55159l4.23748,-0.25776l4.76956,80.58012l-30.39844,37.63243l-6.87996,-116.23505l9.29598,-0.56547" fill="none" stroke-width="2" stroke-linecap="butt"/></g><path d="M316.87964,261.5996l-44.8095,2.72574l-3.29224,-55.62167l44.8095,-2.72575z" fill="#e1e2db" stroke-width="0" stroke-linecap="butt"/><path d="M314.17831,215.96129l-43.50104,24.83179l-1.89938,-32.08943l44.80951,-2.72575z" fill="#8c9ca0" stroke-width="0" stroke-linecap="butt"/><path d="M306.67062,251.12772l-26.35853,1.60336l-2.13153,-36.01147l26.35853,-1.60336z" fill="none" stroke-width="1.5" stroke-linecap="butt"/><path d="M304.53909,215.11626l-25.32441,19.07429" fill="none" stroke-width="1.5" stroke-linecap="round"/><path d="M281.1907,252.67772l24.0065,-18.99413" fill="none" stroke-width="1.5" stroke-linecap="round"/><path d="M301.26994,207.05993l12.36542,-0.75217l3.29225,55.62168l-44.80951,2.72574l-3.29224,-55.62167l14.56892,-0.88622" fill="none" stroke-width="2" stroke-linecap="butt"/></g><g data-paper-data="{&quot;index&quot;:null}" stroke-width="2" stroke-linecap="butt"><path d="M267.88499,231.3889l4.01621,-63.1687l-19.72545,-47.41808l6.72472,-18.64274c0,0 10.00695,11.81125 15.50698,19.49342c9.98687,13.94922 39.4679,57.29303 39.4679,57.29303l3.06726,48.49678z" fill="#3a2f41"/><path d="M268.98538,220.2595l-0.04347,-2.60827l47.07981,-1.53058l0.37478,2.66931z" fill="#8ea8ab"/></g></g><g stroke="#3a2f41" stroke-width="2"><g fill="#e1e2db"><path d="M159.6761,251.8133l28.85916,24.09062l-33.10829,-7.43214z" stroke-linecap="round"/><path d="M159.27146,258.53109l21.45506,30.8689l-29.96113,-15.92878z" stroke-linecap="round"/><path d="M165.42093,176.19637l3.79013,4.40299l5.90692,-13.79939l1.99651,11.13287l4.75088,-2.33377c0,0 -4.23802,27.46341 -4.96001,35.96233c-0.46281,5.44799 -0.62122,9.19876 -0.62122,9.19876l17.67733,14.98252l0.79852,31.0548c0,0 -12.29046,-27.636 -17.85019,-23.95519c-1.36267,0.90214 -12.99652,29.08369 -12.99652,29.08369l5.08518,27.37866l-19.87897,-24.45662c0,0 0.64519,-8.27663 2.6806,-18.72948c2.03541,-10.45285 -2.02786,14.51229 -2.18869,16.20322l-5.3758,-12.45306c0,0 3.96398,-15.87501 4.97937,-21.40171c2.96259,-16.12508 16.20598,-62.27068 16.20598,-62.27068z" stroke-linecap="butt"/></g><g stroke-linecap="butt"><path d="M145.06279,217.23252l8.43406,-47.85617c0,0 34.11218,-39.80171 45.58639,-52.55556c6.31914,-7.02386 16.62396,-17.14691 16.62396,-17.14691l1.47398,27.22417l-20.77866,36.48043l-3.02377,63.22398z" fill="#3a2f41"/><path d="M146.56648,208.69406l0.66889,-2.61118l46.61861,6.74953l-0.33285,2.5873z" fill="#8ea8ab"/></g></g><g><path d="M244.75854,89.86884c0,2.46076 -6.36713,7.02458 -9.07174,7.02458c-2.70461,0 -8.91118,-4.08214 -8.91118,-6.54289c0,-2.46076 6.44741,-3.81334 9.15202,-3.81334c2.70461,0 8.8309,0.8709 8.8309,3.33166z" fill="#3a2f41" stroke="none" stroke-width="0" stroke-linecap="butt"/><g fill="#8c9ca0" stroke="#8c9ca0" stroke-width="1.5" stroke-linecap="butt"><path d="M214.55529,106.91436c-0.92924,-0.90966 11.49349,-17.64737 11.49349,-17.64737l9.27725,7.0129l9.82458,-7.82399c0,0 12.54175,16.82128 11.81328,17.74394c-0.40279,0.51018 -4.81158,-1.81984 -10.29796,-3.49276c-5.04691,-1.53893 -11.22298,-2.41317 -11.22298,-2.41317c0,0 -6.53795,1.66997 -11.88674,3.48947c-4.8907,1.66367 -8.61347,3.51027 -9.00093,3.13099z"/></g><path d="M226.05309,91.27375l0.61014,-2.31209l8.79879,-2.66532l9.13596,1.97491l0.96337,2.36026" fill="none" stroke="#8c9ca0" stroke-width="2" stroke-linecap="round"/></g><g fill="#8c9ca0" stroke="#3a2f41" stroke-width="2" stroke-linecap="butt"><path d="M240.16516,112.87138c-0.12893,2.22075 -2.11482,3.91179 -4.43559,3.77705c-2.32077,-0.13474 -4.09761,-2.04424 -3.96868,-4.26499c0.12893,-2.22075 2.11482,-3.91179 4.43559,-3.77705c2.32076,0.13474 4.09761,2.04425 3.96868,4.26499z"/><path d="M240.24443,124.95173c-0.13342,2.29794 -2.20819,4.0466 -4.63414,3.90576c-2.42594,-0.14085 -4.28439,-2.11787 -4.15097,-4.41581c0.13342,-2.29794 2.20818,-4.04659 4.63411,-3.90575c2.42594,0.14085 4.28442,2.11786 4.151,4.4158z"/></g><path d="" fill="#3a2f41" stroke="#8c9ca0" stroke-width="2" stroke-linecap="butt"/><path d="" fill="#3a2f41" stroke="#8c9ca0" stroke-width="2" stroke-linecap="butt"/></g></g></svg>