<svg version="1.1" xmlns="http://www.w3.org/2000/svg" xmlns:xlink="http://www.w3.org/1999/xlink" width="250.40968" height="555.91448" viewBox="0,0,250.40968,555.91448"><g transform="translate(-90.1847,95.94085)"><g data-paper-data="{&quot;isPaintingLayer&quot;:true}" fill-rule="nonzero" stroke-linejoin="miter" stroke-miterlimit="10" stroke-dasharray="" stroke-dashoffset="0" style="mix-blend-mode: normal"><path d="M90.18471,190.0156l53,-41.54204l23.3478,41.08195l49.19423,-40.08195v42.04204l-60.35735,35.42102l-22.45103,-48.78039z" fill="#3a2f41" stroke="none" stroke-width="0" stroke-linecap="butt"/><g><path d="M286.5164,297.54296l-9.41458,-14.72055l7.65465,-6.76592l6.86413,5.75723z" data-paper-data="{&quot;index&quot;:null}" fill="#e1e2db" stroke="#3a2f41" stroke-width="2" stroke-linecap="butt"/><path d="M318.80708,294.50997l-9.53423,-14.70181l7.80131,-6.78888l6.96447,5.74151z" data-paper-data="{&quot;index&quot;:null}" fill="#e1e2db" stroke="#3a2f41" stroke-width="2" stroke-linecap="butt"/><path d="M278.40612,243.8854c0,0 -2.9743,-67.92831 -9.74726,-110.81317c-2.69504,-17.06439 7.24851,-19.26628 10.7884,-18.58213c13.27677,9.3423 44.96109,131.3432 44.96109,131.3432z" fill="#3a2f41" stroke="none" stroke-width="0" stroke-linecap="butt"/><path d="M272.80487,236.0703l-2.03411,-21.1539l26.37958,-8.4959l26.3491,3.04746l1.86899,22.17136z" fill="#e1e2db" stroke="#3a2f41" stroke-width="2" stroke-linecap="butt"/><path d="M270.70086,282.22045c0,0 -7.12305,-5.59114 -8.02982,-16.58337c-0.67135,-8.13837 3.35535,-11.93528 3.35535,-11.93528c0,0 -3.3209,-13.63517 1.59797,-23.38054c4.97283,-8.50595 44.7265,-13.60335 57.20178,-8.61401c2.09245,0.83686 10.41694,7.7573 10.41694,7.7573l4.18206,18.47748l-8.32786,3.05704l4.46526,-0.87976l3.10791,24.99841l-20.25018,11.2691l-14.77699,-1.51048l-14.79784,3.45408z" data-paper-data="{&quot;index&quot;:null}" fill="#e1e2db" stroke="#3a2f41" stroke-width="2" stroke-linecap="butt"/><g><g fill="#e1e2db" stroke="none" stroke-width="0" stroke-linecap="round"><path d="M295.77386,135.60669l3.20872,6.7285l-30.56692,10.24245l-1.80366,-5.8743c0,0 -5.6462,-0.36013 -6.92561,-3.01602c-1.2794,-2.65589 0.03736,-10.12716 -1.34697,-14.15677c-0.81264,-2.36549 -3.09825,-12.36566 -5.06346,-16.38751c-4.38879,-8.98179 8.5879,-34.62411 15.24442,-35.59202c12.149,-1.76655 23.9826,37.63298 23.9826,37.63298c0,0 6.92355,2.36708 7.33671,3.88971c0.45709,1.68451 -4.06584,16.53297 -4.06584,16.53297z"/></g><path d="M269.56628,77.67796c9.26064,0.73852 14.92452,17.19689 14.92452,17.19689l-32.19894,9.58181c0,0 8.01378,-27.51722 17.27442,-26.7787z" fill="#8c9ca0" stroke="none" stroke-width="0" stroke-linecap="butt"/><g fill="none" stroke="#3a2f41" stroke-linecap="round"><path d="M295.77387,135.6067l3.20871,6.7285l-30.56691,10.24245l-1.80366,-5.87429c0,0 -5.64619,-0.36013 -6.92561,-3.01602c-1.2794,-2.65588 0.03737,-10.12717 -1.34696,-14.15676c-0.81264,-2.36549 -3.09827,-12.36566 -5.06347,-16.38749c-4.38879,-8.9818 8.5879,-34.62412 15.24442,-35.59202c12.149,-1.76655 23.9826,37.63296 23.9826,37.63296c0,0 6.92356,2.36707 7.33671,3.88971z" stroke-width="2"/><path d="M295.66282,136.64072l-27.7557,10.09352" stroke-width="2"/><path d="M276.09215,116.86596l0.50376,-3.01162l16.72528,1.43556z" stroke-width="1.5"/></g></g><path d="M266.02591,253.90207c0,0 43.41977,-8.32743 54.5307,-4.64905c8.80122,2.91373 8.8395,20.69483 8.8395,20.69483" fill="none" stroke="#3a2f41" stroke-width="2" stroke-linecap="round"/><path d="M338.6433,248.43937l-32.20573,10.67314l-4.94932,-16.02355l14.72278,-5.29644" fill="#e1e2db" stroke="#3a2f41" stroke-width="2" stroke-linecap="round"/></g><g stroke-linecap="butt"><path d="M231.47311,434.61307l5.13153,-224.22928l32.57017,-37.24204l7.97633,214.0836l52.77673,43.64707l-3.96267,21.57009l-33.52428,3.09685l-48.51874,-17.07676c0,0 -2.67623,-10.46686 -3.67157,-10.52272c-0.99579,-0.0559 -2.47465,8.5146 -2.47465,8.5146z" data-paper-data="{&quot;index&quot;:null}" fill="#3a2f41" stroke="none" stroke-width="0"/><path d="M232.65129,353.61098l44.57354,0.85289l12.3634,13.10495l-5.13974,9.0676l4.78226,10.12721l-7.13071,4.97665l-24.74917,-0.40791l-19.63305,6.05247l-14.1111,-10.47072l5.22987,-10.61912l-5.25171,-10.87808z" data-paper-data="{&quot;index&quot;:null}" fill="#e1e2db" stroke="#3a2f41" stroke-width="2.5"/><path d="M255.50002,441.23334l9.66667,-35.73334l23,10.3077l-8,34.35897z" data-paper-data="{&quot;index&quot;:null}" fill="#e1e2db" stroke="#3a2f41" stroke-width="2.5"/><path d="M261.1642,404.77121l27.3331,-8.72648l22.85293,20.49984l-23.80341,8.52337z" data-paper-data="{&quot;index&quot;:null}" fill="#e1e2db" stroke="#3a2f41" stroke-width="2.5"/></g><g stroke-linecap="butt"><path d="M211.33942,437.56579c0,0 -0.75098,-7.33134 -1.74793,-7.3596c-0.9965,-0.02826 -2.21238,8.50902 -2.21238,8.50902l-52.11913,21.25842l-33.1438,-5.91242l-2.12987,-24.16073l56.2689,-46.37511l25.99839,-212.64876l29.31413,39.85558l-13.79265,223.19684z" fill="#3a2f41" stroke="none" stroke-width="0"/><path d="M231.46952,366.31105l-6.1502,10.39655l4.31589,11.02226l-14.94369,9.24366l-19.05282,-7.68628l-24.69544,-1.68027l-6.68571,-5.56016l5.61911,-9.68793l-4.35691,-9.46867l13.42432,-12.01586l44.48673,2.90836z" fill="#e1e2db" stroke="#3a2f41" stroke-width="2.5"/><path d="M167.83336,453.16667l-5,-33.33333l22.66666,-10.33333l7,35z" fill="#e1e2db" stroke="#3a2f41" stroke-width="2.5"/><path d="M162.4861,425.33334l-23,-10.5l22.5,-18.5l28.5,11z" fill="#e1e2db" stroke="#3a2f41" stroke-width="2.5"/></g><g><path d="M200.10848,181.80695l-0.56733,-17.5h71.48362l-0.56733,17.5l-23.82708,30.43167l-16.8763,-0.43167z" fill="#3a2f41" stroke="none" stroke-width="0" stroke-linecap="butt"/><g><g><path d="M271.73043,168.69077c0,0 -8.79215,7.42991 -20.68386,7.864c-23.18597,0.8464 -50.95202,-7.59948 -50.95202,-7.59948c0,0 -3.94816,-48.83595 -11.16436,-80.77508c1.95618,-4.56894 28.27099,-13.59222 39.85444,-13.54902c12.70861,0.04741 26.08712,0.85443 36.25041,9.98098c11.39371,10.23145 7.75344,20.36323 6.43057,32.36073c-0.52888,4.79648 2.40411,9.89118 2.07831,15.40965c0,0 -0.68341,13.68269 -0.9995,20.01099c-0.28525,5.71096 -0.814,16.29723 -0.814,16.29723z" fill="#e1e2db" stroke="none" stroke-width="0" stroke-linecap="round"/><g stroke="none" stroke-linecap="butt"><g fill="none" stroke-width="1" font-family="sans-serif" font-weight="normal" font-size="12" text-anchor="start"><g><g/></g></g><g><g><g fill="none" stroke-width="1" font-family="sans-serif" font-weight="normal" font-size="12" text-anchor="start"/><path d="M199.73171,94.52775c0,0.39965 -4.71358,3.8348 -3.26235,1.56508c1.33995,-2.0957 7.78977,-9.54422 7.78977,-9.54422c0,0 -3.72256,2.67578 -7.65891,6.09263c-0.64379,0.55881 9.58171,-10.94815 12.18632,-10.94815c2.60461,0 -9.05486,12.06608 -9.05486,12.8347z" fill="#ffffff" stroke-width="0"/></g><path d="M256.1551,81.40522c2.49312,-0.61803 10.53118,5.20158 9.7176,4.81944c-4.97442,-2.33651 -3.66941,-1.24609 -3.66941,-1.24609c0,0 8.80397,5.5992 10.82661,7.28722c2.19065,1.82822 -3.5342,-0.34142 -3.67533,-0.72395c-0.27141,-0.73571 -15.69262,-9.51861 -13.19951,-10.13664z" data-paper-data="{&quot;index&quot;:null}" fill="#ffffff" stroke-width="0"/></g></g><path d="M188.93028,88.18019c1.95618,-4.56894 28.27097,-13.59222 39.85444,-13.54902c19.40213,0.07238 44.12959,10.62068 44.12959,10.62068c0,0 0.0538,20.87976 0.07341,28.49147c0.01311,5.09005 0.03283,12.74075 0.03283,12.74075c0,0 -81.41289,-24.35749 -81.61799,-25.44914c0.43677,-2.93354 -3.66564,-10.06745 -2.47228,-12.85473z" fill="#8c9ca0" stroke="none" stroke-width="0" stroke-linecap="butt"/><g fill="none" stroke="none" stroke-width="1" stroke-linecap="butt" font-family="sans-serif" font-weight="normal" font-size="12" text-anchor="start"><g><g><g/></g></g><g><g><g/></g></g></g><path d="M272.83077,85.03964c0,0 -1.69408,80.0686 -1.53357,80.90104c0,0 -8.3589,10.17991 -20.25062,10.614c-20.06272,0.73238 -51.38526,-8.26614 -51.38526,-8.26614c0,0 -2.66927,-45.86771 -10.73111,-80.10842c1.95618,-4.56894 28.27099,-13.59222 39.85444,-13.54902c15.18769,0.05666 43.72331,9.09137 44.06457,9.42158" fill="none" stroke="#3a2f41" stroke-width="2" stroke-linecap="round"/><g fill="none" stroke="none" stroke-width="1" stroke-linecap="butt" font-family="sans-serif" font-weight="normal" font-size="12" text-anchor="start"><g/></g></g><g fill="none" stroke="none" stroke-width="1" stroke-linecap="butt" font-family="sans-serif" font-weight="normal" font-size="12" text-anchor="start"><g><g><g/></g></g><g><g><g/></g></g></g></g><path d="M206.76367,176.38435l-6.74589,-94.7l14.03679,-5.8l9.95855,99.73334z" fill="#3a2f41" stroke="#3a2f41" stroke-width="1.5" stroke-linecap="butt"/><path d="M259.5519,141.72376c2.46366,-33.67521 -5.28886,-65.22698 -5.28886,-65.22698l18.49337,5.92827c0,0 3.02836,19.03314 2.53281,41.74958c-0.30356,13.9154 -3.46199,29.21292 -4.94759,42.36424c-0.09571,0.84722 -1.11609,1.56097 -1.31861,2.15684c-2.41179,7.09588 -12.15106,-2.52429 -12.15106,-2.52429c0,0 1.40341,-6.999 2.67995,-24.44765z" fill="#3a2f41" stroke="#3a2f41" stroke-width="1.5" stroke-linecap="butt"/><g><path d="M255.6905,92.31478l-17.85845,-8.71534c0,0 10.46374,-6.6646 14.98408,-8.90762c0.98984,-0.49117 1.38969,-0.09179 1.65556,-0.02339c0.6522,0.37091 4.7356,5.08093 4.03643,5.39524z" data-paper-data="{&quot;index&quot;:null}" fill="#8c9ca0" stroke="#3a2f41" stroke-width="4.5" stroke-linecap="round"/><path d="M221.4465,92.9113c0,0 -10.5803,-9.91352 -11.88453,-12.83446c0.09526,-1.43863 3.14368,-7.62946 4.53984,-5.85925c1.44464,0.50341 25.16844,-3.0079 31.13982,-0.61156c5.01882,2.01407 -7.45159,10.03631 -7.45159,10.03631z" fill="#3a2f41" stroke="#3a2f41" stroke-width="4.5" stroke-linecap="round"/><path d="M212.53705,79.61134c0.05326,-1.38729 0.40692,-4.78803 1.21382,-5.06431c1.49377,-0.95842 15.98509,-5.54936 19.53825,-5.93378c2.24789,-0.2432 18.44436,5.35205 19.31012,5.96884c1.49789,0.50599 3.05975,4.51976 3.05975,5.01727" fill="none" stroke="#3a2f41" stroke-width="6.5" stroke-linecap="butt"/><g><path d="M255.6905,92.81478l-17.85845,-9.21534c0,0 10.46376,-6.6646 14.98408,-8.90762c0.98984,-0.49117 1.38969,-0.09179 1.65556,-0.02339c0.6522,0.37091 4.7356,5.08093 4.03643,5.39524z" data-paper-data="{&quot;index&quot;:null}" fill="#8c9ca0" stroke="#12161a" stroke-width="0" stroke-linecap="round"/><path d="M222.19564,92.9113c0,0 -11.32945,-9.91352 -12.6337,-12.83446c0.09526,-1.43863 3.14368,-7.62946 4.53984,-5.85926c2.65882,0.92652 23.68821,9.42475 23.68821,9.42475z" fill="#8c9ca0" stroke="#12161a" stroke-width="0" stroke-linecap="round"/><path d="M212.53705,79.61134c0.05326,-1.38729 0.40692,-4.78803 1.21382,-5.06431c1.49377,-0.95842 15.98509,-5.54935 19.53825,-5.93378c2.24789,-0.2432 18.44436,5.35205 19.31012,5.96884c1.49789,0.50599 3.05975,4.51976 3.05975,5.01727" fill="none" stroke="#8c9ca0" stroke-width="2" stroke-linecap="butt"/></g></g><path d="M198.45805,181.15528v-16h73.6498v16z" fill="#3a2f41" stroke="#8c9ca0" stroke-width="1" stroke-linecap="butt"/><g stroke-width="1.5" stroke-linecap="butt"><path d="M224.50127,182.04144c-0.2745,-0.44367 0.59536,-13.36103 -0.38996,-16.25254c-0.93169,-2.73413 25.722,-3.09574 27.88297,-1.20019c2.61154,2.29079 2.79448,14.83143 0.58495,17.45273c-1.5119,1.79367 -26.99383,1.75224 -28.07796,0z" fill="#e1e2db" stroke="none"/><path d="M224.11128,165.7889c-0.93169,-2.73413 25.722,-3.09574 27.88297,-1.20019c1.19678,1.04978 1.88353,4.25207 2.06375,7.66585c-11.37081,1.3564 -17.96661,0.88087 -29.46327,0.51207c0.0109,-2.97482 -0.08324,-5.80328 -0.48345,-6.97772z" fill="#8c9ca0" stroke="none"/><path d="M224.50127,182.04144c-0.2745,-0.44367 0.59536,-13.36103 -0.38997,-16.25254c-0.93169,-2.73413 25.722,-3.09574 27.88297,-1.20019c2.61155,2.29079 2.79448,14.83143 0.58497,17.45273c-1.5119,1.79367 -26.99383,1.75224 -28.07797,0z" fill="none" stroke="#3a2f41"/><path d="M229.76599,178.61754c-0.17326,-0.28002 0.37577,-8.43301 -0.24614,-10.25803c-0.58805,-1.72568 16.23481,-1.95392 17.59875,-0.75752c1.64831,1.44586 1.76378,9.36107 0.36921,11.01555c-0.95426,1.1321 -17.03755,1.10595 -17.7218,0z" fill="#3a2f41" stroke="#3a2f41"/></g><path d="M202.53046,136.07441v-3.66666h21.66171v3.66666z" fill="#e1e2db" stroke="#3a2f41" stroke-width="1" stroke-linecap="butt"/><path d="M202.53046,143.74109v-3.66666h21.6617v3.66666z" fill="#e1e2db" stroke="#3a2f41" stroke-width="1" stroke-linecap="butt"/></g><g><path d="M131,245.5c0,0 5.54609,-91.53672 44.81227,-131.39405c3.53912,-0.68816 15.89649,2.05996 10.80944,18.56991c-19.22437,62.39251 -9.62171,110.82414 -9.62171,110.82414z" fill="#3a2f41" stroke="#8c9ca0" stroke-width="0.5" stroke-linecap="butt"/><g stroke="#3a2f41" stroke-width="2"><path d="M130.53075,236.23465l-0.79259,-22.23587l25.79648,-6.17284l27.2055,5.28424l0.50713,21.24542z" fill="#e1e2db" stroke-linecap="butt"/><g><path d="M123.60194,279.92404c0,0 -13.30226,-30.4551 3.14448,-52.14511c5.9532,-7.85109 46.03113,-7.91373 57.82116,-1.47002c1.97752,1.08079 9.41581,8.94599 9.41581,8.94599l1.94513,18.84472l-8.63339,2.04045l4.53838,-0.34011l0.09979,25.19067l-21.45121,8.7697l-13.74079,-6.51466l-15.85447,4.91186z" fill="#e1e2db" stroke-linecap="butt"/><path d="M187.64342,251.87495l-0.26863,13.51815" fill="none" stroke-linecap="round"/><path d="M169.8959,297.8715l-7.70995,-15.73534l8.55634,-5.80847l6.22883,6.53226z" fill="#e1e2db" stroke-linecap="butt"/><path d="M137.4741,297.0259l-7.58893,-15.73966l8.40799,-5.80319l6.12734,6.53588z" fill="#e1e2db" stroke-linecap="butt"/></g></g><g><g fill="#e1e2db" stroke="none" stroke-width="0" stroke-linecap="round"><path d="M157.88995,133.59322c0,0 -3.32821,-15.16103 -2.73866,-16.80387c0.53289,-1.48497 7.62271,-3.29416 7.62271,-3.29416c0,0 14.92828,-38.3341 26.8984,-35.60733c6.5585,1.49402 17.45565,28.08679 12.36672,36.69126c-2.27871,3.85289 -5.35207,13.63971 -6.35019,15.93311c-1.70029,3.9068 -0.98163,11.45912 -2.46812,14.00489c-1.48649,2.54577 -7.14345,2.45591 -7.14345,2.45591l-2.26494,5.71232l-29.65594,-12.64l3.73345,-6.45212z"/></g><path d="M203.71066,105.99847l-31.33531,-12.11119c0,0 6.95434,-15.95602 16.24438,-15.95602c9.29004,0 15.09093,28.06721 15.09093,28.06721z" fill="#8c9ca0" stroke="none" stroke-width="0" stroke-linecap="butt"/><g fill="none" stroke="#3a2f41" stroke-linecap="round"><path d="M155.15128,116.78938c0.53289,-1.48498 7.62271,-3.29416 7.62271,-3.29416c0,0 14.92828,-38.33409 26.89839,-35.60732c6.55851,1.49401 17.45565,28.08678 12.36672,36.69126c-2.2787,3.85288 -5.35207,13.6397 -6.35019,15.9331c-1.70029,3.90679 -0.98163,11.45912 -2.46812,14.00488c-1.4865,2.54577 -7.14345,2.45591 -7.14345,2.45591l-2.26494,5.71231l-29.65593,-12.64l3.73345,-6.45212z" stroke-width="2"/><path d="M184.78388,146.90088l-26.86546,-12.26806" stroke-width="2"/><path d="M161.94995,113.53573l16.78647,-0.10141l0.26276,3.04213z" stroke-width="1.5"/></g></g></g><g><path d="M199.5222,75.23871c-22.94628,17.72816 -14,-61.5 -14,-61.5l89,19l-5,43.25c0,0 -35.51607,-27.39206 -70,-0.75z" fill="#504f5c" stroke="#3a2f41" stroke-width="2" stroke-linecap="butt"/><g stroke-linecap="round"><path d="M288.0055,-0.05019c-0.59739,0.0115 4.71526,4.88679 12.50283,69.09183c0.07984,0.40087 -8.77614,7.66129 -8.77614,7.66129l-5.60496,-17.73334l1.70371,20.41461l-25.18955,12.65339l-2.49703,-59.78128" data-paper-data="{&quot;index&quot;:null}" fill="#7c7984" stroke="none" stroke-width="0"/><path d="M289.28529,-0.21685c7.90261,33.5115 11.22303,69.2585 11.22303,69.2585l-8.77615,7.66129l-5.60496,-17.73334l1.70371,20.41461l-25.18955,12.65339l-2.49703,-59.28128" data-paper-data="{&quot;index&quot;:null}" fill="none" stroke="#3a2f41" stroke-width="2"/></g><path d="M197.02374,30.06929h73.33819c0,0 0.63998,6.28258 -0.23839,12.5926c-0.82825,5.94998 -3.17283,11.95207 -3.32806,11.84268c-5.82176,-3.33814 -15.30929,3.52875 -15.30929,3.52875c0,0 -5.55213,-6.06536 -8.17943,-6.05504c-0.67981,0.00267 -1.39635,0.29754 -2.13997,0.37811c-8.94163,0.96881 -21.79931,6.84955 -21.79931,6.84955c0,0 -6.02647,-3.46993 -8.57384,-3.87991z" fill="#3a2f41" stroke="#3a2f41" stroke-width="2" stroke-linecap="butt"/><path d="M223.40574,42.58437c-0.45501,-5.59099 9.95035,-4.56701 9.6,0c-0.34292,4.47017 -4.4,13.4 -4.4,13.4c0,0 -4.74999,-7.87048 -5.2,-13.4z" fill="#e1e2db" stroke="#3a2f41" stroke-width="2" stroke-linecap="butt"/><path d="M246.04989,55.98437c0,0 -4.05708,-8.92983 -4.4,-13.4c-0.35035,-4.56701 10.05501,-5.59099 9.6,0c-0.45001,5.52952 -5.2,13.4 -5.2,13.4z" data-paper-data="{&quot;index&quot;:null}" fill="#e1e2db" stroke="#3a2f41" stroke-width="2" stroke-linecap="butt"/><path d="M232.40574,42.83437c-0.45501,-5.59099 9.95035,-4.56701 9.6,0c-0.34292,4.47017 -4.4,13.4 -4.4,13.4c0,0 -4.74999,-7.87048 -5.2,-13.4z" fill="#e1e2db" stroke="#3a2f41" stroke-width="2" stroke-linecap="butt"/><path d="M267.29989,52.73437c0,0 -4.05708,-8.92983 -4.4,-13.4c-0.35035,-4.56701 10.05501,-5.59099 9.6,0c-0.45001,5.52952 -5.2,13.4 -5.2,13.4z" data-paper-data="{&quot;index&quot;:null}" fill="#e1e2db" stroke="#3a2f41" stroke-width="2" stroke-linecap="butt"/><path d="M263.04988,54.48437c0,0 -4.05708,-8.92983 -4.4,-13.4c-0.35035,-4.56701 10.05501,-5.59099 9.6,0c-0.45001,5.52952 -5.2,13.4 -5.2,13.4z" data-paper-data="{&quot;index&quot;:null}" fill="#e1e2db" stroke="#3a2f41" stroke-width="2" stroke-linecap="butt"/><path d="M255.29989,55.23437c0,0 -4.05708,-8.92983 -4.4,-13.4c-0.35035,-4.56701 10.05501,-5.59099 9.6,0c-0.45001,5.52952 -5.2,13.4 -5.2,13.4z" data-paper-data="{&quot;index&quot;:null}" fill="#e1e2db" stroke="#3a2f41" stroke-width="2" stroke-linecap="butt"/><path d="M207.60572,40.98437c-0.45501,-5.59099 9.95035,-4.567 9.6,0c-0.34292,4.47017 -4.4,13.4 -4.4,13.4c0,0 -4.74999,-7.87048 -5.2,-13.4z" fill="#e1e2db" stroke="#3a2f41" stroke-width="2" stroke-linecap="butt"/><path d="M215.15574,42.33437c-0.45501,-5.59099 9.95035,-4.56701 9.6,0c-0.34292,4.47017 -4.4,13.4 -4.4,13.4c0,0 -4.74999,-7.87048 -5.2,-13.4z" fill="#e1e2db" stroke="#3a2f41" stroke-width="2" stroke-linecap="butt"/><g><g><path d="M236.81603,-36.74567l-15.3162,-40.4764c1.82854,-0.46672 3.5944,-2.11295 4.70917,-3.01489c0.60152,-0.48669 1.47885,-0.59611 2.17327,-0.93229c1.40403,1.82525 3.52957,3.05484 7.20113,3.05484c0.45306,0 0.89987,-0.04774 1.3397,-0.13618l15.27464,40.45624z" fill="#7c7984" stroke="#3a2f41" stroke-width="2" stroke-linecap="round"/><path d="M234.01442,-43.74811l-7.80036,-20.06067l18.73805,6.47476l7.9321,20.77781z" fill="#504f5c" stroke="none" stroke-width="0" stroke-linecap="butt"/><path d="M221.49983,-77.22207l15.3162,40.4764" fill="none" stroke="#3a2f41" stroke-width="2" stroke-linecap="round"/><path d="M236.92311,-78.25058l15.27465,40.45624" fill="none" stroke="#3a2f41" stroke-width="2" stroke-linecap="round"/></g><path d="" fill="#3a2f41" stroke="#3a2f41" stroke-width="2" stroke-linecap="round"/></g><path d="M273.78264,39.29559c-0.86391,1.21423 -5.09427,7.97015 -6.58546,8.54884c-1.50227,0.58299 -0.26925,-5.01389 -2.19293,-4.50325c-8.92587,2.36936 -21.22527,2.63118 -26.10727,2.24252c-0.57263,-0.04559 -8.1127,-1.66175 -8.1127,-1.66175l-6.87641,3.03347l-5.46755,-4.54759l-7.34131,2.47168l-1.18247,9.23962c0,0 -12.88165,-11.29164 -13.18861,-13.63656c-0.34554,-2.63971 -2.3617,-23.04307 2.17371,-34.00649c4.89013,-11.82084 18.5623,-18.16008 33.11381,-17.21499c9.74013,0.6326 27.9735,0.74331 36.02134,12.66937c4.94902,7.33392 5.74583,37.36513 5.74583,37.36513z" fill="#7c7984" stroke="#3a2f41" stroke-width="2" stroke-linecap="butt"/><path d="M194.58336,36.33333v-35.5l75,-0.5l3.5,36z" fill="#504f5c" stroke="none" stroke-width="0" stroke-linecap="butt"/><path d="M247.89805,36.80769l-0.32338,-19.16031l4.52733,-23.12173l-0.08085,23.04089z" fill="#3a2f41" stroke="none" stroke-width="0" stroke-linecap="butt"/><path d="M230.56472,34.47436l-0.32338,-19.16031l4.52733,-23.12173l-0.08085,23.04089z" fill="#3a2f41" stroke="none" stroke-width="0" stroke-linecap="butt"/><path d="M238.89805,40.14102l-0.32338,-19.16031l4.52733,-23.12173l-0.08085,23.04089z" fill="#3a2f41" stroke="none" stroke-width="0" stroke-linecap="butt"/><g><g><path d="M192.74187,-36.86825l-15.10112,-13.90194l18.48478,-1.95974l8.33382,7.65526z" fill="#8c9ca0" stroke="none" stroke-width="0" stroke-linecap="butt"/><path d="M169.59555,-78.63447l34.42617,33.43814c0,0 23.25807,-11.65735 26.37849,-11.28895c7.75921,0.91608 15.16673,4.25093 25.01059,7.79907c5.86923,2.11552 12.2823,4.95137 21.04212,5.61619c24.48289,1.8581 27.26958,-0.78753 27.26958,-0.78753c0,0 7.26319,23.05195 -10.22682,35.03582c10.72359,8.37071 11.64651,21.27892 11.64651,21.27892c0,0 -8.21976,-2.56775 -15.36991,-2.217c-3.60893,0.17704 -6.94538,1.84283 -8.81486,3.44565c-8.60406,7.37677 -20.23762,8.27479 -20.23762,8.27479l2.95716,-9.50258c0,0 -2.02106,2.69573 -8.3741,7.93863c-5.18106,4.27572 -9.66138,5.21156 -9.66138,5.21156c0,0 4.20347,-12.69216 2.55653,-20.5766c-2.21086,13.16761 -6.07344,20.32703 -6.07344,20.32703c0,0 -17.71191,-1.07847 -30.7357,-15.78033c0.6532,4.20174 1.29079,7.91994 1.29079,7.91994c0,0 -3.69129,-0.93173 -5.39997,-2.02108c-4.0614,-2.58929 -6.09318,-5.44599 -6.09318,-5.44599l-0.97254,84.08935l-19.63334,-5.43098l-1.58644,-38.14876l-5.23546,36.00529c0,0 -24.03207,-22.64312 -24.00891,-22.93113c2.24458,-27.91279 17.72789,-76.35354 17.0812,-76.30212c-5.03116,0.40007 -8.23023,-7.50086 -8.23023,-7.50086c0,0 7.24673,1.61968 17.67356,-5.37774c10.25555,-6.88248 16.12295,-11.48538 16.12295,-11.48538l-33.08489,-30.86598l-7.15348,-15.86168z" fill="#7c7984" stroke="#3a2f41" stroke-width="2" stroke-linecap="round"/><path d="M161.91295,-64.97833l1.12788,-4.10321l5.13814,0.18373l-0.34464,-5.66488l3.60297,-1.07174" fill="none" stroke="#3a2f41" stroke-width="2" stroke-linecap="round"/></g><path d="M160.0489,-80.9625l-0.65794,3.85824h-3.50897l-2.41242,-5.57303z" fill="#3a2f41" stroke="#3a2f41" stroke-width="2" stroke-linecap="round"/></g><path d="M216.48354,-9.04632c0,0 -12.8247,-1.88294 -13.23433,-3.08242c-2.16374,-6.3358 -3.56649,-12.83608 -4.40877,-19.24784c4.5328,-0.93274 13.21977,-12.47437 14.46799,-16.42659c3.03938,9.55426 6.77665,19.1794 11.22048,26.97941c0.31251,0.54854 -8.04536,11.77744 -8.04536,11.77744z" data-paper-data="{&quot;index&quot;:null}" fill="#3a2f41" stroke="#3a2f41" stroke-width="2" stroke-linecap="butt"/><path d="M258.71754,-10.85259c0,0 -8.35786,-11.22892 -8.04536,-11.77744c14.25468,-25.02045 21.23917,-68.82076 21.23917,-68.82076c0,0 12.36537,41.42641 0.04052,77.5158c-0.40963,1.1995 -13.23433,3.08242 -13.23433,3.08242z" fill="#3a2f41" stroke="#3a2f41" stroke-width="2" stroke-linecap="butt"/><path d="M235.20793,34.36232c0,0 -18.68034,6.95565 -34.84104,-4.19716z" data-paper-data="{&quot;index&quot;:null}" fill="#3a2f41" stroke="#3a2f41" stroke-width="1" stroke-linecap="butt"/><g data-paper-data="{&quot;index&quot;:null}" fill="none" stroke="#3a2f41" stroke-width="2" stroke-linecap="round"><path d="M272.21937,30.21209l-0.72258,6.9954l-26.48033,0.96038l-0.62253,-6.97817"/><path d="M236.31159,30.8195l-0.47754,6.99541l-33.01379,0.10299l-0.68063,-6.97817"/><path d="M236.94054,35.08399h7.50078"/></g><path d="M210.56472,43.14103l-0.32338,-10.70142l4.52733,-12.91396l-0.08085,12.8688z" fill="#3a2f41" stroke="none" stroke-width="0" stroke-linecap="butt"/><path d="M223.56472,45.47436l-0.32338,-10.70142l-4.6472,-6.60751l2.8412,-3.97312l0.41472,4.73547l5.83777,5.8z" fill="#3a2f41" stroke="none" stroke-width="0" stroke-linecap="butt"/><path d="M270.01529,41.77627c0,0 19.14137,1.52445 19.08958,2.38048c-0.05178,0.85603 -0.15282,2.25204 -6.18689,1.74708c-4.06574,-0.34022 -12.95448,-3.27152 -12.90269,-4.12755z" data-paper-data="{&quot;index&quot;:null}" fill="#3a2f41" stroke="#3a2f41" stroke-width="1" stroke-linecap="butt"/><path d="M271.62502,29.04921c0,0 -2.92383,6.05273 -10.40535,6.91285c-6.65031,0.76456 -13.84465,-1.16285 -13.84465,-1.16285z" fill="#e1e2db" stroke="#3a2f41" stroke-width="1" stroke-linecap="butt"/><path d="M206.81985,33.88935c0.41602,-0.27735 0.69338,0.13867 0.69338,0.13867l0.08397,0.12779c0,-0.5057 0,-1.0114 0,-1.5171c0,0 0,-0.5 0.5,-0.5c0.5,0 0.5,0.5 0.5,0.5c0,0.25073 0,0.50146 0,0.75219l0.02201,-0.06604c0.06284,-0.20431 0.25307,-0.35283 0.47799,-0.35283c0.27614,0 0.5,0.22386 0.5,0.5v0.66667h-0.07962c0.0103,0.04445 0.02034,0.08901 0.03014,0.13371c0.43872,-0.11144 0.84537,-0.12476 1.10252,-0.0193c0.04388,-0.0314 0.08901,-0.06238 0.1354,-0.09295l0.14489,0.06056v-0.08201h0.5c0.27614,0 0.5,0.22386 0.5,0.5c0,0.27614 -0.22386,0.5 -0.5,0.5h-0.38571c-1.13879,0.81383 -0.94762,2.44011 -0.94762,3.66666c0,4.00906 1.29474,10.27386 -0.8062,13.95349l0.11388,0.03795l-0.16303,0.48907c-0.06284,0.20431 -0.25306,0.35283 -0.47798,0.35283c-0.27614,0 -0.5,-0.22386 -0.5,-0.5v-0.5c0,-2.01637 0.16666,-3.99862 0.16666,-6c0.00742,-1.11077 0.02871,-2.22866 0.05369,-3.35008c-0.09169,0.11196 -0.23101,0.18341 -0.38702,0.18341c-0.27614,0 -0.5,-0.22386 -0.5,-0.5c0,-0.05555 0,-0.61111 0,-0.66667c0,-0.10591 0,-0.21181 0,-0.31772c-0.15984,-0.46036 -0.00041,-1.12659 0,-1.68228c0,-1.19517 0,-2.39035 0,-3.58553l-0.14101,-0.42303l0.03789,-0.01263l-0.0571,-0.06539c0.00153,-0.07385 0.00934,-0.14625 0.02291,-0.21709l-0.01966,-0.09828l0.00861,-0.00173c-0.23386,-0.189 -0.3252,-0.44985 -0.46747,-0.87666l-0.30021,-0.44232c0,0 -0.27734,-0.41603 0.13868,-0.69338zM209.7187,35.22961c0.00316,-0.00509 0.00635,-0.01018 0.00955,-0.01526c-0.00376,0.00106 -0.00751,0.00211 -0.01126,0.00317c0.00057,0.00403 0.00114,0.00805 0.00171,0.01208z" fill="#3a2f41" stroke="none" stroke-width="0.5" stroke-linecap="butt"/><path d="M270.69441,31.4151c0.22361,0.44721 -0.22361,0.67082 -0.22361,0.67082l-0.14926,-0.0891c-0.16079,0.47935 -0.42784,1.0035 -0.70686,1.54231c0.19293,0.96614 -0.69959,2.62521 -0.88223,3.4201c-0.27069,1.17809 -0.56781,2.40145 -0.79782,3.63172c-0.04744,1.45862 0.01256,2.93377 0.01256,4.24775c0,0.53706 0.25798,2.80336 -0.14645,3.15355c-2.12789,1.84251 -1.4616,-3.39008 -1.24685,-4.03519c-0.00047,-1.18585 0.16694,-2.41023 0.40099,-3.62746c0.03265,-0.88392 0.10483,-1.76342 0.25435,-2.59232c-0.25841,-0.0194 -0.46204,-0.23521 -0.46204,-0.49858c0,-0.8 0,-2.4 0,-3.2c0,0 0,-0.5 0.5,-0.5c0.36917,0 0.46576,0.27256 0.49104,0.41521c0.30778,-0.8129 0.74404,-1.43181 1.21491,-1.27293c0.16531,-0.34255 0.3129,-0.6777 0.41971,-1.0004l0.65073,-0.4891c0,0 0.44721,-0.22361 0.67082,0.2236z" fill="#3a2f41" stroke="none" stroke-width="0.5" stroke-linecap="butt"/></g><path d="M214.51112,-4.10557c-0.16571,-0.08286 -0.28537,-0.18106 -0.37035,-0.28609c-0.1298,0.36869 -0.2735,0.73064 -0.42921,1.07996l0.21692,0.05423l-0.24493,0.97971c-0.10106,0.44532 -0.49931,0.77776 -0.97522,0.77776c-0.4759,0 -0.87416,-0.33244 -0.97522,-0.77776l-0.24493,-0.97971l0.01513,-0.00378l-0.02403,-0.03512c-0.05097,-0.30887 -0.04837,-4.10205 -0.22806,-4.24652c-0.50894,-0.40921 -2.33191,0.16256 -2.67558,-0.03323c-0.09155,-0.05216 -0.17421,-0.11431 -0.25004,-0.18416c-0.05548,0.2127 -0.09946,0.42371 -0.12477,0.63246c-0.39285,3.24049 0.01301,7.83453 -0.99251,11.23608c0,0.13058 0,0.26115 0,0.39173v0.1875l0.22014,0.05504l-0.24493,0.97971c-0.10106,0.44532 -0.49931,0.77776 -0.97522,0.77776c-0.55228,0 -1,-0.44772 -1,-1c0,-4.04459 0,-9.08919 0,-13.13378c-0.14709,0.08509 -0.31786,0.13378 -0.5,0.13378c-0.55228,0 -1,-0.44772 -1,-1c0,-1.41667 0,-3.83333 0,-5.25c0,0 0,-1 1,-1c1,0 1,1 1,1c0,0.08333 0,0.16667 0,0.25c0.3992,0 0.74377,0.23392 0.90412,0.57216l0.49031,0.98062l-0.03905,0.01953c0.02403,0.03674 0.04724,0.07407 0.06954,0.11202c0.03986,-0.14081 0.09836,-0.27349 0.18663,-0.39329c0.45108,-0.61225 1.16021,-1.40653 1.90539,-1.25475c0.42217,0.08599 0.70978,0.99148 0.76199,1.60761c0.65469,-0.12479 1.92607,0.04204 2.35376,0.43223c0.9128,-0.08011 2.71994,-0.36635 3.62117,-0.05206c0.01153,-0.70583 0.10544,-1.44047 0.53904,-1.73117c0.64953,-0.43546 1.6448,-0.72125 2.32252,-0.3311c0.07543,0.04342 0.13853,0.10781 0.1909,0.1895l0.28957,-0.57914c0.16034,-0.33825 0.50491,-0.57216 0.90412,-0.57216c0.22021,0 0.4238,0.07118 0.58901,0.19179c0.49388,-2.32292 1.11642,-4.63663 1.69085,-6.93432l1.02293,-0.90189c0,0 0.89443,-0.44721 1.34164,0.44721c0.44721,0.89443 -0.44721,1.34164 -0.44721,1.34164l0.02293,-0.40189c-0.92482,3.69926 -1.15876,8.62695 -2.72014,12.24383c0,0.00454 0,0.00908 0,0.01363v0.1875l0.22014,0.05504l-0.24493,0.97971c-0.10106,0.44532 -0.49931,0.77776 -0.97522,0.77776c-0.55228,0 -1,-0.44772 -1,-1v-1c0,-0.19238 -0.01772,-0.42346 -0.04121,-0.67665c-0.88064,3.36576 -1.12143,6.85039 -1.46628,10.29883c-0.25865,2.58647 -0.10697,4.93907 -0.99251,7.15379v0.16153l0.22014,0.05504l-0.24493,0.97971c-0.10106,0.44532 -0.49931,0.77776 -0.97522,0.77776c-0.55228,0 -1,-0.44772 -1,-1v-1c0,-1.79014 -0.17787,-3.63073 0.25749,-5.37218c-0.01683,-1.97226 0.17609,-4.01179 0.46018,-6.03112c-0.28099,-0.17703 -0.46768,-0.49006 -0.46768,-0.8467v-0.12037c-0.22201,0.14308 -0.53775,0.21953 -0.94721,0.01479zM212.66544,-8.95711c0.04951,0.05193 0.09544,0.10846 0.13806,0.16915c0.13372,-0.30206 0.28439,-0.57465 0.45036,-0.80207c-0.81808,-0.00141 -1.56803,0.01903 -1.67821,0.0139c-0.41933,-0.46952 -1.16531,-0.15606 -1.86671,-0.01299c0.7755,0.21255 1.98465,-0.38746 2.9565,0.632z" fill="#3a2f41" stroke="none" stroke-width="0.5" stroke-linecap="butt"/><path d="M272.03661,-11.75212c-0.19757,0.95511 -0.46884,1.89231 -0.82021,2.7843c-0.00294,0.04056 -0.00512,0.07996 -0.00647,0.11813l0.22899,0.0458l-0.24637,1.23183c-0.08395,0.46739 -0.49266,0.82205 -0.98421,0.82205c-0.55228,0 -1,-0.44772 -1,-1v-1c0.00122,-0.26472 -0.02893,-0.98069 0.01457,-1.71884c-0.10507,0.19718 -0.28144,0.42011 -0.58746,0.70473c-0.44372,0.41269 -1.00489,0.6462 -1.59081,0.84203l-0.37919,0.37919c-0.18096,0.18096 -0.43096,0.29289 -0.70711,0.29289c-0.55228,0 -1,-0.44772 -1,-1c0,-0.09149 0.01229,-0.1801 0.0353,-0.26429l0.06868,-0.27474c-0.86438,0.25081 -1.6987,0.53602 -2.5385,0.80871c-2.39589,4.20143 -1.7727,10.70032 -2.32297,15.1025c-0.24418,1.95348 -0.07566,3.11838 -0.70372,4.39721l0.35564,0.17782l-0.49031,0.98062c-0.16034,0.33825 -0.50491,0.57216 -0.90412,0.57216c-0.55228,0 -1,-0.44772 -1,-1v-1c0,-5.36238 0.19387,-10.369 1.01176,-15.65292c0.0948,-0.61245 -0.00301,-1.72097 0.06101,-2.66817c-0.12266,0.05474 -0.25273,0.08189 -0.39366,0.06858c-0.42635,-0.04027 -0.79919,-0.38438 -1.12133,-0.82702c0.01576,2.63139 0.10001,5.2765 -0.63573,7.71394l0.30853,0.06171l-0.24637,1.23183c-0.08395,0.46739 -0.49266,0.82205 -0.98421,0.82205c-0.4759,0 -0.87416,-0.33244 -0.97522,-0.77776l-0.24493,-0.97971l0.05032,-0.01258l-0.07269,-0.10777c-0.02383,-3.56851 0.39659,-7.9393 -0.47763,-11.37965c-0.09626,-0.3788 -0.29212,-0.84874 -0.49368,-1.3407c-0.089,-0.05195 -0.1642,-0.11538 -0.2256,-0.17818c-0.0116,-0.01047 -0.01768,-0.01655 -0.01768,-0.01655l-0.72137,-0.83572c-0.17721,-1.0638 -1.85741,-1.30884 -2.27021,-2.30516c-0.61227,-1.47777 -0.05132,-4.45146 -0.05132,-6.06623c0,0 0,-1 1,-1c1,0 1,1 1,1c0,0.88187 -0.07775,1.83689 -0.12101,2.78647c1.36873,-0.05848 5.01728,1.59472 5.44908,2.1529c0.76711,0.99164 0.05993,3.80624 -0.08556,4.93281c-0.03367,0.26069 -0.0615,0.52281 -0.08445,0.7861c0.39804,0.79375 0.85765,1.73899 1.01004,2.01944l0.42778,-0.85556c0.16034,-0.33825 0.50491,-0.57216 0.90412,-0.57216c0.4759,0 0.87416,0.33244 0.97522,0.77776l0.10024,0.40097c0.72888,-0.92331 1.74638,-2.1769 2.71976,-2.2095c0.09512,-0.07134 0.19023,-0.14267 0.28535,-0.21401l0.71233,-0.71233c0.18096,-0.18096 0.43096,-0.29289 0.70711,-0.29289c0.55228,0 1,0.44772 1,1c0,0.27614 -0.11193,0.52614 -0.29289,0.70711l-0.36181,0.36181c0.05516,-0.01284 0.10926,-0.02584 0.16217,-0.03906l0.97824,-0.24456c0.08419,-0.02301 0.1728,-0.0353 0.26429,-0.0353c0.406,0 0.75549,0.24195 0.91215,0.58954c0.61697,-1.10818 0.89725,-3.48413 2.61837,-2.8494c0.13036,-0.62888 0.22698,-1.19166 0.22698,-1.61232l0.07151,-0.10807l-0.04914,-0.01229l0.24493,-0.97971c0.10106,-0.44532 0.49931,-0.77776 0.97522,-0.77776c0.4759,0 0.87416,0.33244 0.97522,0.77776l0.24493,0.97971l-0.25297,0.06324c0.32154,0.92413 0.28282,1.73282 0.28282,3.17929v0.25c0,0 0,0.94711 -0.92173,0.99788zM264.62191,-11.80958l0.01608,0.02097c0.00879,-0.0018 0.01757,-0.00359 0.02634,-0.00539l-0.03054,-0.03054c-0.00396,0.005 -0.00792,0.00998 -0.01188,0.01496zM255.56177,-14.82396c0.20812,-0.76697 0.59292,-1.63307 0.0685,-2.11541c-0.03412,-0.03138 -1.01329,-0.34284 -1.86309,-0.67902l0.33559,0.67118l-0.08262,0.04131c0.53497,0.67612 1.0423,1.37885 1.54163,2.08194z" fill="#3a2f41" stroke="none" stroke-width="0.5" stroke-linecap="butt"/><path d="M207.0554,45.82023c0.04354,-0.05025 0.08854,-0.09896 0.13483,-0.14631l-0.03189,-0.02392l0.74302,-0.99069c0.18197,-0.24818 0.47566,-0.40931 0.80698,-0.40931c0.55228,0 1,0.44772 1,1v1c0,1.4596 0.25286,2.78138 0.51016,4.1034c0.12001,0.14827 0.38722,0.5509 0.19194,1.00468c0.01626,0.0888 0.03226,0.17776 0.04792,0.26692l0.14441,-0.07221l0.491,0.98201c0.07316,0.13896 0.11457,0.29725 0.11457,0.46521c0,0.55228 -0.44772,1 -1,1c-0.12323,0 -0.24125,-0.02229 -0.35026,-0.06306c-0.16218,0.33333 -0.50413,0.56306 -0.89974,0.56306c-0.27614,0 -0.52614,-0.11193 -0.70711,-0.29289l-0.75,-0.75l0.0596,-0.0596l-0.18056,-0.08688c-0.39644,-0.92502 -1.10936,-1.68574 -1.55361,-2.58877c-0.13468,-0.27378 -0.26059,-0.55837 -0.37812,-0.85264c-0.50345,-0.36816 -0.96324,-0.72662 -1.19732,-1.16211c-0.05033,-0.09364 -0.09322,-0.18998 -0.13011,-0.2885l-0.05722,0.02861l-0.491,-0.98201c-0.02801,-0.0532 -0.05136,-0.10922 -0.06952,-0.16754c-0.35616,0.36949 -0.72793,0.69111 -1.20523,0.68942c-0.7003,-0.00248 -2.34235,-3.38099 -2.69731,-3.97259c0,0 -0.5145,-0.85749 0.343,-1.37199c0.85749,-0.5145 1.37199,0.343 1.37199,0.343c0.37705,0.62842 0.96534,2.40812 1.18709,2.71305l0.2302,-0.9208c0.10106,-0.44532 0.49931,-0.77776 0.97522,-0.77776c0.17335,0 0.33641,0.04411 0.47854,0.12172c-0.31947,-3.39017 -0.11358,-7.06047 0.31569,-10.13278l-0.01437,0.00359l-0.24456,-0.97824c-0.02301,-0.08419 -0.0353,-0.1728 -0.0353,-0.26429c0,-0.55228 0.44772,-1 1,-1c0.30579,0 0.57953,0.13726 0.76296,0.35352c0.12784,-0.06372 0.28754,-0.10352 0.48704,-0.10352c1,0 1,1 1,1c0,0.33333 0,0.66667 0,1v1c0,0.49966 -0.36646,0.91373 -0.84528,0.9881c0.03741,1.37119 -0.15472,2.99028 -0.15472,3.7619c0,2.30798 0.16769,4.26407 0.54043,6.14072c0.01772,-0.02382 0.03657,-0.04734 0.05663,-0.07049z" fill="#3a2f41" stroke="none" stroke-width="0.5" stroke-linecap="butt"/><path d="M251.52428,63.96635c-0.16254,2.22573 0.31777,4.60686 1.10919,6.58624l0.57363,0.57363c0.18096,0.18096 0.29289,0.43096 0.29289,0.70711c0,0.01769 -0.00046,0.03526 -0.00137,0.05272c0.29226,0.14936 0.52582,0.31489 0.66457,0.49853c0.77225,1.02211 0.44923,3.24116 -0.35798,4.49768c0.04503,0.11382 0.06978,0.23789 0.06978,0.36773c0,0.09149 -0.01229,0.1801 -0.0353,0.26429l-0.24456,0.97824l-0.04387,-0.01097c-0.01312,0.08774 -0.03145,0.17483 -0.05607,0.26113c-0.27925,0.97876 -2.64726,1.95873 -4.75925,2.69321c-0.61716,0.62771 -1.37831,1.09971 -2.3812,1.28734c-0.46816,0.08759 -0.94616,-0.0067 -1.42472,-0.1297c0.08296,1.42025 0.15078,3.49308 -0.68962,3.94465c-1.50985,0.81129 -2.14727,0.44903 -2.41535,-0.29311c-0.09316,0.44531 -0.16672,0.89535 -0.20493,1.35344c-0.29119,3.49158 0.00487,7.14506 0.00487,10.65146v0.73522c0.20557,1.50838 0.54167,2.94223 0.54167,4.51478c0,0.86265 0,1.72531 0,2.58796c0.20458,0.18311 0.33333,0.4492 0.33333,0.74537v1.33333l-0.00842,0c-0.02699,0.53745 -0.11857,1.08121 -0.27007,1.609c-0.00691,0.20678 -0.01883,0.41316 -0.03431,0.62007l0.26148,0.08716l-0.32604,0.97812c-0.01451,0.04718 -0.03242,0.09288 -0.05344,0.1368c-0.1116,0.99623 -0.24026,2.04297 -0.23587,3.23551c0.02068,5.6165 0.29696,11.34661 0.32584,16.87782l0.31097,1.21298c0,0 0.24254,0.97014 -0.72761,1.21268c-0.97014,0.24254 -1.21268,-0.72761 -1.21268,-0.72761l-0.3557,-1.45369c0.03157,-5.60281 -0.36003,-11.42953 -0.34083,-17.12218c0.00403,-1.1938 -0.08986,-3.45575 0.33333,-5.10137c0,-2.07732 0,-4.15464 0,-6.23196c0,-0.85644 -0.10295,-1.66885 -0.22963,-2.47598c-0.07819,1.73635 -0.35778,3.37356 -1.01263,4.75068l0.34503,0.17251l-0.49031,0.98062c-0.16034,0.33825 -0.50491,0.57216 -0.90412,0.57216c-0.4759,0 -0.87416,-0.33244 -0.97522,-0.77776l-0.23819,-0.95277c-0.56731,-1.74743 -0.84126,-3.63896 -0.95525,-5.58592c-0.42706,-0.19333 -0.55148,-0.69101 -0.55148,-0.69101l-0.25891,-1.03891c-0.72878,-4.41593 -0.39354,-8.75148 -1.04344,-13.15028l-0.52145,-0.69527c-0.02206,-0.02876 -0.04259,-0.05875 -0.06147,-0.08985c-0.4974,-0.09523 -0.95651,-0.26903 -1.18466,-0.42661c-0.21167,-0.1462 -0.43271,-0.30285 -0.65994,-0.46829c-0.47908,0.24755 -0.85743,0.39419 -0.96018,0.36376c-0.68731,-0.20353 -0.89449,-1.12294 -1.00056,-1.90459c-0.18023,-0.15328 -0.35894,-0.30902 -0.53472,-0.46649c-0.37769,0.14998 -0.8845,0.4456 -1.18723,0.30787c-1.57587,-0.71697 -0.9459,-1.74315 -2.48871,-2.2454c0,0 -0.0626,-0.02504 -0.14879,-0.07837c-0.52447,1.74047 0.62524,4.56929 -0.30594,6.03258c-0.38679,0.60782 -1.11592,0.91154 -1.67388,1.36732c-0.55796,-0.45577 -1.28709,-0.7595 -1.67388,-1.36732c-0.77502,-1.21789 0.28965,-3.62003 -0.26401,-5.03574c-0.10915,-0.2791 -0.87355,-2.36225 -1.1019,-2.38985c-0.49682,-0.06005 -1.06277,0.3902 -1.49497,0.13792c-0.59586,-0.34782 -0.49987,-1.36732 -1.04996,-1.78377c-0.44782,-0.33903 -1.15208,0.08805 -1.68222,-0.09753c-0.67679,-0.23691 -1.06844,-0.72792 -1.42975,-1.23305c-0.4581,-0.09137 -0.80331,-0.4957 -0.80331,-0.98066c0,-0.00667 0.00007,-0.01332 0.0002,-0.01996c-0.26189,-0.24 -0.57538,-0.42638 -0.99273,-0.5099c0,0 -0.97014,-0.24254 -0.72761,-1.21268c0.24254,-0.97014 1.21268,-0.72761 1.21268,-0.72761c0.66841,0.1871 1.33691,0.49778 1.87564,0.94401l0.03183,-0.02387l0.02608,0.03477c0.04643,-0.04735 0.09441,-0.09332 0.14415,-0.13771c0.05148,-0.04594 0.15842,-0.09027 0.30107,-0.13257l0.4216,-0.4216l0.03509,0.03509l0.05661,-0.11619c0.48009,-0.2907 0.96597,-0.58126 1.45657,-0.86171c0.16687,-1.30557 1.88055,-2.64055 2.04675,-3.76027c0.46386,-3.12506 -0.23843,-6.26253 -0.4283,-9.25691l-0.19996,0.06665l-0.32595,-0.97786c-0.03799,-0.10568 -0.0587,-0.21961 -0.0587,-0.33837c0,-0.55228 0.44772,-1 1,-1c0.35261,0 0.6626,0.1825 0.84065,0.4582l0.65806,0.98709l-0.06343,0.04229l0.1459,0.10786c0.02833,0.11048 0.05593,0.22037 0.08282,0.32972c0.00172,-0.3087 0.00267,-0.6171 0.00267,-0.92517c0,0 0,-1 1,-1c0.64683,0 0.87527,0.41838 0.95595,0.71391c0.64968,-1.57556 1.64674,-2.79526 3.06116,-3.32926l0.87732,2.06256c0,0 -0.40802,0.81605 -1.22407,0.49946c-0.11723,0.13456 -0.22795,0.284 -0.33166,0.44436c0.05238,-0.01958 0.08544,-0.02784 0.08544,-0.02784c1.25069,-0.29652 2.23382,-1.27975 3.54814,-1.06186c0.30942,-0.22624 0.84128,-0.2494 1.16866,-0.48531c0.05195,-0.03743 0.11662,-0.08141 0.1924,-0.1306v-0.68541c0,-0.55228 0.44772,-1 1,-1c0.25612,0 0.48975,0.09628 0.66667,0.25463c0.17692,-0.15835 0.41055,-0.25463 0.66667,-0.25463c0.24759,0 0.47416,0.08998 0.6488,0.23902c0.92169,-0.30459 1.79826,-0.42156 2.26924,-0.05026c0.89934,0.70901 0.06904,3.35112 0.06904,4.30476c-0.90308,2.70924 -0.25792,5.78792 0.84913,8.50699l0.75204,-0.25068c0.82469,-0.54754 2.83199,-1.37216 3.12132,-2.37294c1.07614,-3.72241 -0.89708,-6.85695 -1.99159,-10.06065c0,0 -0.31623,-0.94868 0.63246,-1.26491c0.47301,-0.15767 0.78879,-0.00089 0.98654,0.19598c0.04363,-0.51201 0.47305,-0.91396 0.99635,-0.91396c0.3992,0 0.74377,0.23392 0.90412,0.57216l0.24398,0.48795l0.22927,-0.6878c0.12567,-0.40862 0.50614,-0.70565 0.95598,-0.70565c0.55228,0 1,0.44772 1,1v1c0,3.61527 0.4522,6.98678 0.98709,10.50648c0.12536,0.82492 0.42543,1.66188 0.79111,2.49967c0.23159,0.0257 0.43931,0.13049 0.59557,0.28674l0.62877,0.62877c2.04123,-2.11103 1.05064,-6.48139 1.11508,-9.79162c-0.00529,-0.00801 -0.01061,-0.01602 -0.01594,-0.02402l0.01665,-0.01038c0.00099,-0.04563 0.00219,-0.09106 0.0036,-0.13628l-0.07062,0.02354l-0.10541,-0.31623h-0.27924v-1c0,-0.55228 0.44772,-1 1,-1c0.44984,0 0.83031,0.29702 0.95598,0.70565l0.2944,0.88319c0.52796,0.79783 0.87595,1.57524 1.08464,2.34245c0.30585,-0.43481 0.65113,-0.84321 1.0382,-1.21879c0.18362,-0.25446 0.3717,-0.44364 0.5942,-0.52358c0.15373,-0.12283 0.31299,-0.24103 0.47789,-0.35431l0.98862,-0.65908c0.16096,-0.11072 0.35595,-0.17553 0.56608,-0.17553c0.55228,0 1,0.44772 1,1c0,0.35261 -0.1825,0.6626 -0.4582,0.84065l-0.98709,0.65806c-0.14304,0.09142 -0.28063,0.18697 -0.41291,0.28641c-0.81433,1.14543 -1.65125,2.26931 -2.21791,3.59756c-0.2894,0.67836 -0.45145,1.37694 -0.56626,2.08367zM244.03194,65.7197c0.16018,0.10312 0.31747,0.21229 0.47176,0.32582c-0.25126,-0.59914 -0.4717,-1.20549 -0.66497,-1.81805c-0.00149,0.20505 -0.00337,0.40715 -0.00539,0.60587c-0.00263,0.25814 0.08239,0.56087 0.1986,0.88637zM241.8431,64.8053c-0.01121,0.01818 -0.02253,0.03612 -0.03396,0.05382c0.01103,0.00118 0.02205,0.0024 0.03306,0.00367c0.00029,-0.01933 0.00059,-0.0385 0.0009,-0.05749zM227.5,67.83333c0,-0.27614 0.11193,-0.52614 0.29289,-0.70711l0.71572,-0.71572c0.59714,-1.54005 1.04695,-3.16295 1.36657,-4.81957c-0.01282,-0.10916 -0.0252,-0.21775 -0.03698,-0.32573c-0.09074,-0.83131 0.19318,-1.98608 0.01514,-2.89709c-0.16603,-0.32731 -0.36954,-0.6591 -0.55098,-0.99368c-0.11881,-0.09732 -0.25942,-0.1817 -0.42548,-0.25068c-0.30141,-0.1252 -2.52405,0.94101 -2.80101,1.01305c0,0 -0.90618,0.22655 -1.18589,-0.63406c-0.25453,0.71525 -0.39322,1.45154 -0.38998,1.99725c0.01889,3.17934 -0.3151,6.40376 0.90114,9.31778c0.5763,-0.18669 1.15388,-0.37078 1.72976,-0.55784c0.12575,-0.0958 0.25204,-0.19123 0.37897,-0.28554c-0.00651,-0.04609 -0.00987,-0.09318 -0.00987,-0.14106zM223.20863,68.81061c-0.00021,0.02595 -0.00042,0.0519 -0.00064,0.07785c0.00948,-0.0011 0.01897,-0.00218 0.02845,-0.00325c-0.00932,-0.02476 -0.01859,-0.04963 -0.02781,-0.0746zM250.80129,78.48351c-0.04522,-0.03008 -0.08803,-0.06145 -0.12787,-0.09415c-0.02442,0.04887 -0.0489,0.09781 -0.07344,0.14677c0.01507,-0.00315 0.03015,-0.00627 0.04527,-0.00938c0.0517,-0.01061 0.10375,-0.02538 0.15604,-0.04324zM227.55211,78.51412c0.00076,0.00064 0.00152,0.00128 0.00228,0.00193c0.10142,0.01837 0.19752,0.05204 0.28582,0.09852l0.8804,0.4402c1.11258,0.17347 2.91247,0.22793 4.18178,0.82701c0.08039,-0.68146 0.22381,-1.41794 -0.29432,-1.41807c-0.70872,-0.00018 -1.45559,0.46799 -2.11575,0.21016c-1.24776,-0.4873 -1.32522,-2.072 -2.87462,-1.05368c-0.08974,0.05898 -0.41984,0.25756 -0.80688,0.4989c0.26805,0.0982 0.5255,0.21333 0.74129,0.39502zM237.62486,99.92602c-0.00218,-0.56746 -0.0292,-1.16859 -0.07062,-1.79456c0.01002,0.60319 0.03229,1.20239 0.07062,1.79456z" fill="#3a2f41" stroke="none" stroke-width="0.5" stroke-linecap="butt"/></g></g></svg>