<svg version="1.1" xmlns="http://www.w3.org/2000/svg" xmlns:xlink="http://www.w3.org/1999/xlink" width="181.13376" height="546.85016" viewBox="0,0,181.13376,546.85016"><g transform="translate(-149.43312,94.5432)"><g data-paper-data="{&quot;isPaintingLayer&quot;:true}" fill-rule="nonzero" stroke-linejoin="miter" stroke-miterlimit="10" stroke-dasharray="" stroke-dashoffset="0" style="mix-blend-mode: normal"><g data-paper-data="{&quot;index&quot;:null}"><g stroke-linecap="butt"><path d="M310.69576,200.66049l-33.20708,-58.19184l15.63363,-8.92131l33.20708,58.19184z" fill="#e1e2db" stroke="#3a2f41" stroke-width="2"/><path d="M295.48973,174.21664l-18.4903,-31.59943l15.6854,-8.82776l18.4903,31.59942z" fill="#8c9ca0" stroke="#3a2f41" stroke-width="2"/><path d="M297.13304,177.31891c-0.884,0.86255 -5.82022,-8.78386 -4.76783,-9.64782c8.94311,-7.34175 18.26784,-4.6809 18.26784,-4.6809l4.96321,8.96823c0,0 -11.95869,-0.9862 -18.46321,5.36049z" fill="#3a2f41" stroke="none" stroke-width="0"/><path d="M286.76916,159.62456c-0.884,0.86255 -5.82022,-8.78386 -4.76783,-9.64781c8.94311,-7.34175 18.26784,-4.68091 18.26784,-4.68091l4.96321,8.96823c0,0 -11.95869,-0.98619 -18.46321,5.3605z" fill="#3a2f41" stroke="none" stroke-width="0"/></g><g><g fill="#e1e2db" stroke="none" stroke-width="0" stroke-linecap="round"><path d="M299.60627,132.79002l4.2725,6.10854l-28.46401,15.13423l-2.746,-5.49728c0,0 -5.62847,0.57417 -7.32759,-1.83489c-1.69912,-2.40906 -1.63013,-9.99517 -3.65888,-13.74194c-1.19093,-2.19946 -5.09145,-11.687 -7.69187,-15.3305c-5.80739,-8.13685 2.77143,-35.56543 9.17782,-37.61584c11.6925,-3.74225 29.85008,33.17196 29.85008,33.17196c0,0 7.21875,1.19514 7.8769,2.62899c0.72813,1.58629 -1.28896,16.97671 -1.28896,16.97671z"/></g><path d="M264.22076,79.96539c3.89023,-0.33451 10.55401,4.53094 15.81328,11.4438c1.5553,2.0443 13.7788,21.38147 13.7788,21.38147l7.23444,1.84958l-1.23145,16.82703l2.95658,7.00377l-47.1825,-17.24876c0,0 -0.62503,-40.46099 8.63085,-41.25689z" fill="#8c9ca0" stroke="none" stroke-width="0" stroke-linecap="butt"/><g fill="none" stroke="#3a2f41" stroke-width="2" stroke-linecap="round"><path d="M299.60629,132.79002l4.27249,6.10854l-28.464,15.13423l-2.746,-5.49726c0,0 -5.62845,0.57417 -7.32759,-1.83489c-1.69912,-2.40905 -1.63013,-9.99518 -3.65888,-13.74194c-1.19093,-2.19946 -5.09146,-11.68699 -7.69187,-15.33048c-5.80739,-8.13686 2.77141,-35.56545 9.17782,-37.61585c11.69249,-3.74225 29.85006,33.17195 29.85006,33.17195c0,0 7.21875,1.19513 7.87691,2.62899z"/><path d="M273.9513,148.35281l25.71565,-14.52459"/></g></g><path d="M330.56689,303.67502c0,0 -21.29671,1.7794 -33.4841,-7.78662c-0.7948,-0.62384 14.00779,20.48871 14.00779,20.48871c0,0 -36.3633,-5.82022 -39.59189,-25.69018c-3.30107,-20.31603 34.14065,-101.34132 34.14065,-101.34132c0,0 14.95224,-5.86946 22.65227,3.37342c0.0847,0.10168 -17.26729,85.03496 -17.26729,85.03496z" data-paper-data="{&quot;index&quot;:null}" fill="#3a2f41" stroke="none" stroke-width="0" stroke-linecap="butt"/></g><path d="M238.6951,433.67238l-1.19009,-231.04915l30.5429,-24.45406l8.82943,208.06581l36.04041,52.36824l-60.66739,-4.00883c0,0 -3.26698,-8.30533 -4.26199,-8.36653c-0.99547,-0.06123 -2.95547,7.81973 -2.95547,7.81973z" fill="#3a2f41" stroke="none" stroke-width="0" stroke-linecap="butt"/><path d="M218.33936,435.39912c0,0 -0.75098,-8.66467 -1.74793,-8.69293c-0.9965,-0.02826 -4.54572,10.17568 -4.54572,10.17568l-58.7858,15.42509l29.99523,-69.28158l25.99839,-212.64876l29.31413,39.85558l-13.79265,223.8635z" fill="#3a2f41" stroke="none" stroke-width="0" stroke-linecap="butt"/><g><path d="M209.50356,181.30695l-0.46255,-17.5h58.28142l-0.46255,17.5l-19.42649,30.43167l-13.75944,-0.43167z" fill="#3a2f41" stroke="none" stroke-width="0" stroke-linecap="butt"/><g><g><path d="M267.89781,168.19077c0,0 -7.16834,7.42991 -16.86379,7.864c-18.90379,0.8464 -41.54177,-7.59948 -41.54177,-7.59948c0,0 -3.21898,-48.83595 -9.10243,-80.77508c1.5949,-4.56894 23.04966,-13.59222 32.49378,-13.54902c10.36148,0.04741 21.26913,0.85443 29.55538,9.98098c9.28942,10.23145 6.32147,20.36323 5.24292,32.36073c-0.4312,4.79648 1.9601,9.89118 1.69447,15.40965c0,0 -0.55719,13.68269 -0.8149,20.01099c-0.23257,5.71096 -0.66366,16.29723 -0.66366,16.29723z" fill="#e1e2db" stroke="none" stroke-width="0" stroke-linecap="round"/><g stroke="none" stroke-linecap="butt"><g fill="none" stroke-width="1" font-family="sans-serif" font-weight="normal" font-size="12" text-anchor="start"><g><g/></g></g><g><g><g fill="none" stroke-width="1" font-family="sans-serif" font-weight="normal" font-size="12" text-anchor="start"/><path d="M209.19637,94.02775c0,0.39965 -3.84304,3.8348 -2.65983,1.56508c1.09248,-2.0957 6.35109,-9.54422 6.35109,-9.54422c0,0 -3.03505,2.67578 -6.2444,6.09263c-0.52489,0.55881 7.81208,-10.94815 9.93565,-10.94815c2.12357,0 -7.38253,12.06608 -7.38253,12.8347z" fill="#ffffff" stroke-width="0"/></g><path d="M255.19902,80.90522c2.03267,-0.61803 8.58619,5.20158 7.92287,4.81944c-4.0557,-2.33651 -2.99171,-1.24609 -2.99171,-1.24609c0,0 7.17798,5.5992 8.82706,7.28722c1.78606,1.82822 -2.88147,-0.34142 -2.99654,-0.72395c-0.22128,-0.73571 -12.79437,-9.51861 -10.76171,-10.13664z" data-paper-data="{&quot;index&quot;:null}" fill="#ffffff" stroke-width="0"/></g></g><path d="M200.38984,87.68019c1.5949,-4.56894 23.04965,-13.59222 32.49378,-13.54902c15.81878,0.07238 35.97936,10.62068 35.97936,10.62068c0,0 0.04386,20.87976 0.05985,28.49147c0.01069,5.09005 0.02677,12.74075 0.02677,12.74075c0,0 -66.37687,-24.35749 -66.54409,-25.44914c0.3561,-2.93354 -2.98864,-10.06745 -2.01568,-12.85473z" fill="#8c9ca0" stroke="none" stroke-width="0" stroke-linecap="butt"/><g fill="none" stroke="none" stroke-width="1" stroke-linecap="butt" font-family="sans-serif" font-weight="normal" font-size="12" text-anchor="start"><g><g><g/></g></g><g><g><g/></g></g></g><path d="M268.79492,84.53964c0,0 -1.3812,80.0686 -1.25034,80.90104c0,0 -6.81511,10.17991 -16.51056,10.614c-16.35737,0.73238 -41.89499,-8.26614 -41.89499,-8.26614c0,0 -2.17629,-45.86771 -8.7492,-80.10842c1.5949,-4.56894 23.04966,-13.59222 32.49378,-13.54902c12.3827,0.05666 35.64812,9.09137 35.92635,9.42158" fill="none" stroke="#3a2f41" stroke-width="2" stroke-linecap="round"/><g fill="none" stroke="none" stroke-width="1" stroke-linecap="butt" font-family="sans-serif" font-weight="normal" font-size="12" text-anchor="start"><g/></g></g><g fill="none" stroke="none" stroke-width="1" stroke-linecap="butt" font-family="sans-serif" font-weight="normal" font-size="12" text-anchor="start"><g><g><g/></g></g><g><g><g/></g></g></g></g><path d="M233.07238,124.13826c0,0 3.06732,0.11569 1.88196,0.92564c-1.18536,0.80994 -2.39445,-0.57546 -2.39445,-0.57546l1.61756,-10.873l11.5217,1.5265l-1.12714,9.98499c0,0 2.68669,0.09755 1.71628,0.90062c-0.98311,0.81358 -1.73177,-0.47537 -1.73177,-0.47537" fill="none" stroke="#3a2f41" stroke-width="2" stroke-linecap="round"/><path d="M209.42961,166.38435c9.74833,-27.83587 0,-85.2 0,-85.2l11.44436,-5.8c0,0 11.36329,48.34355 2.11932,89.73334c-0.78471,18.4967 -13.52307,5.7996 -13.56368,1.26666z" fill="#3a2f41" stroke="#3a2f41" stroke-width="1.5" stroke-linecap="butt"/><path d="M257.96848,141.22377c2.00865,-33.67521 -4.31207,-65.22698 -4.31207,-65.22698l15.07786,5.92827c0,0 2.46906,19.03314 2.06503,41.74958c-0.2475,13.9154 -2.8226,29.21292 -4.03383,42.36424c-0.07803,0.84722 -0.90996,1.56097 -1.07508,2.15684c-1.96636,7.09588 -9.9069,-2.52429 -9.9069,-2.52429c0,0 1.14422,-6.999 2.18499,-24.44765z" fill="#3a2f41" stroke="#3a2f41" stroke-width="1.5" stroke-linecap="butt"/><g><path d="M254.82022,91.81478l-14.5602,-8.71534c0,0 8.53121,-6.6646 12.21669,-8.90762c0.80703,-0.49117 1.13303,-0.09179 1.3498,-0.02339c0.53175,0.37091 3.86099,5.08093 3.29095,5.39524z" data-paper-data="{&quot;index&quot;:null}" fill="#8c9ca0" stroke="#3a2f41" stroke-width="4.5" stroke-linecap="round"/><path d="M226.90069,92.4113c0,0 -8.62624,-9.91352 -9.68959,-12.83446c0.07767,-1.43863 2.56308,-7.62946 3.70138,-5.85925c1.17783,0.50341 20.52012,-3.0079 25.38865,-0.61156c4.0919,2.01407 -6.07537,10.03631 -6.07537,10.03631z" fill="#3a2f41" stroke="#3a2f41" stroke-width="4.5" stroke-linecap="round"/><path d="M219.63672,79.11134c0.04342,-1.38729 0.33177,-4.78803 0.98964,-5.06431c1.21789,-0.95842 13.03283,-5.54936 15.92976,-5.93378c1.83273,-0.2432 15.0379,5.35205 15.74376,5.96884c1.22125,0.50599 2.49465,4.51976 2.49465,5.01727" fill="none" stroke="#3a2f41" stroke-width="6.5" stroke-linecap="butt"/><g><path d="M254.82022,92.31478l-14.5602,-9.21534c0,0 8.53122,-6.6646 12.21669,-8.90762c0.80703,-0.49117 1.13303,-0.09179 1.3498,-0.02339c0.53175,0.37091 3.86099,5.08093 3.29095,5.39524z" data-paper-data="{&quot;index&quot;:null}" fill="#8c9ca0" stroke="#12161a" stroke-width="0" stroke-linecap="round"/><path d="M227.51147,92.4113c0,0 -9.23703,-9.91352 -10.3004,-12.83446c0.07767,-1.43863 2.56308,-7.62946 3.70138,-5.85926c2.16777,0.92652 19.31327,9.42475 19.31327,9.42475z" fill="#8c9ca0" stroke="#12161a" stroke-width="0" stroke-linecap="round"/><path d="M219.63672,79.11134c0.04342,-1.38729 0.33177,-4.78803 0.98964,-5.06431c1.21789,-0.95842 13.03283,-5.54935 15.92976,-5.93378c1.83273,-0.2432 15.0379,5.35205 15.74376,5.96884c1.22125,0.50599 2.49465,4.51976 2.49465,5.01727" fill="none" stroke="#8c9ca0" stroke-width="2" stroke-linecap="butt"/></g></g><path d="M208.15794,180.65528v-16h60.04753v16z" fill="#3a2f41" stroke="#8c9ca0" stroke-width="1" stroke-linecap="butt"/><g stroke-width="1.5" stroke-linecap="butt"><path d="M229.39128,181.54144c-0.2238,-0.44367 0.4854,-13.36103 -0.31794,-16.25254c-0.75962,-2.73413 20.97144,-3.09574 22.73331,-1.20019c2.12922,2.29079 2.27837,14.83143 0.47692,17.45273c-1.23267,1.79367 -22.00838,1.75224 -22.89228,0z" fill="#e1e2db" stroke="none"/><path d="M229.07332,165.2889c-0.75962,-2.73413 20.97144,-3.09574 22.73331,-1.20019c0.97575,1.04978 1.53566,4.25207 1.6826,7.66585c-9.27075,1.3564 -14.64838,0.88087 -24.02174,0.51207c0.00889,-2.97482 -0.06787,-5.80328 -0.39416,-6.97772z" fill="#8c9ca0" stroke="none"/><path d="M229.39128,181.54144c-0.2238,-0.44367 0.4854,-13.36103 -0.31795,-16.25254c-0.75962,-2.73413 20.97144,-3.09574 22.73331,-1.20019c2.12923,2.29079 2.27837,14.83143 0.47693,17.45273c-1.23267,1.79367 -22.00838,1.75224 -22.89229,0z" fill="none" stroke="#3a2f41"/><path d="M233.68367,178.11754c-0.14126,-0.28002 0.30637,-8.43301 -0.20068,-10.25803c-0.47944,-1.72568 13.23643,-1.95392 14.34846,-0.75752c1.34389,1.44586 1.43803,9.36107 0.30102,11.01555c-0.77802,1.1321 -13.89091,1.10595 -14.44879,0z" fill="#3a2f41" stroke="#3a2f41"/></g><path d="M211.47823,135.57441v-3.66666h17.66104v3.66666z" fill="#e1e2db" stroke="#3a2f41" stroke-width="1" stroke-linecap="butt"/><path d="M211.47823,143.24109v-3.66666h17.66103v3.66666z" fill="#e1e2db" stroke="#3a2f41" stroke-width="1" stroke-linecap="butt"/></g><g><g stroke-linecap="butt"><path d="M151.31537,194.61509l28.09955,-60.82282l16.34046,7.54914l-28.09955,60.82282z" fill="#e1e2db" stroke="#3a2f41" stroke-width="2"/><path d="M164.15643,167.06336l15.71511,-33.06735l16.38403,7.4515l-15.71512,33.06736z" fill="#8c9ca0" stroke="#3a2f41" stroke-width="2"/><path d="M160.31438,173.98752l4.17663,-9.36046c0,0 9.06248,-3.44994 18.6017,3.09864c1.12254,0.77061 -2.96911,10.80445 -3.92375,10.02081c-7.02435,-5.7661 -18.85457,-3.75899 -18.85457,-3.75899z" fill="#3a2f41" stroke="none" stroke-width="0"/><path d="M169.12424,155.47033l4.17663,-9.36047c0,0 9.06248,-3.44993 18.6017,3.09865c1.12254,0.77061 -2.9691,10.80445 -3.92375,10.02081c-7.02435,-5.7661 -18.85458,-3.75899 -18.85458,-3.75899z" fill="#3a2f41" stroke="none" stroke-width="0"/></g><g><g fill="#e1e2db" stroke="none" stroke-width="0" stroke-linecap="round"><path d="M172.88994,133.59322c0,0 -3.32821,-15.16103 -2.73866,-16.80387c0.53289,-1.48497 7.62271,-3.29416 7.62271,-3.29416c0,0 14.92828,-38.3341 26.8984,-35.60733c6.5585,1.49402 17.45565,28.08679 12.36672,36.69126c-2.27871,3.85289 -5.35207,13.63971 -6.35019,15.93311c-1.70029,3.9068 -0.98163,11.45912 -2.46812,14.00489c-1.48649,2.54577 -7.14345,2.45591 -7.14345,2.45591l-2.26494,5.71232l-29.65594,-12.64l3.73345,-6.45212z"/></g><path d="M218.71064,105.99847l-31.33531,-12.11119c0,0 6.95434,-15.95602 16.24438,-15.95602c9.29004,0 15.09093,28.06721 15.09093,28.06721z" fill="#8c9ca0" stroke="none" stroke-width="0" stroke-linecap="butt"/><g fill="none" stroke="#3a2f41" stroke-linecap="round"><path d="M170.15126,116.78938c0.53289,-1.48498 7.62271,-3.29416 7.62271,-3.29416c0,0 14.92828,-38.33409 26.89839,-35.60732c6.55851,1.49401 17.45565,28.08678 12.36672,36.69126c-2.2787,3.85288 -5.35207,13.6397 -6.35019,15.9331c-1.70029,3.90679 -0.98163,11.45912 -2.46812,14.00488c-1.4865,2.54577 -7.14345,2.45591 -7.14345,2.45591l-2.26494,5.71231l-29.65593,-12.64l3.73345,-6.45212z" stroke-width="2"/><path d="M199.78387,146.90088l-26.86546,-12.26806" stroke-width="2"/><path d="M176.94996,113.53573l16.78647,-0.10141l0.26276,3.04213z" stroke-width="1.5"/></g></g><path d="M173.9333,279.00243c0,0 -24.57568,-83.39144 -24.5,-83.5c6.87985,-9.86857 21.75,-5.5 21.75,-5.5c0,0 44.7867,77.97498 43.23829,98.49913c-1.51441,20.07351 -37.24538,28.98767 -37.24538,28.98767c0,0 12.9394,-22.3031 12.20098,-21.61346c-11.32304,10.57497 -32.69388,10.62666 -32.69388,10.62666z" data-paper-data="{&quot;index&quot;:null}" fill="#3a2f41" stroke="none" stroke-width="0" stroke-linecap="butt"/></g><g><g><path d="M207.01368,72.1008l-6.57331,-26.86484h58.58819c0,0 0.25553,23.66066 0,23.43528c-6.67319,-4.78965 -13.93789,-5.31036 -20.86376,-5.27629c-16.54203,0.08139 -31.15113,8.70584 -31.15113,8.70584z" fill="#8c9ca0" stroke="#3a2f41" stroke-width="2" stroke-linecap="butt"/><g><g><g><path d="M246.62452,-19.95719l-16.15738,-55.98075l4.48664,-16.36902l10.08792,13.48606l16.99899,59.05932" fill="#e1e2db" stroke="none" stroke-width="0" stroke-linecap="round"/><path d="M244.39693,-27.16282l-6.15662,-20.62456l18.15465,7.96528l6.23007,21.34998z" fill="#8c9ca0" stroke="none" stroke-width="0" stroke-linecap="butt"/><path d="M246.62452,-19.95719l-16.15738,-55.98075l4.48664,-16.36902l10.08793,13.48606l16.99899,59.05932" fill="none" stroke="#3a2f41" stroke-width="2" stroke-linecap="round"/></g><path d="M239.40979,-85.53623l-3.14531,2.81793l-2.98033,-2.21739l1.68708,-6.19532z" fill="#3a2f41" stroke="#3a2f41" stroke-width="2" stroke-linecap="round"/></g><path d="M231.70615,-71.86758l3.28095,-2.83524l4.25783,2.89647l2.91521,-4.92943l3.66551,1.02534" fill="none" stroke="#3a2f41" stroke-width="2" stroke-linecap="round"/></g><g><path d="M284.90547,-1.63352c-0.55299,0.0115 2.51345,36.88679 6.01952,54.09183c0.0739,0.40087 -8.12388,7.66129 -8.12388,7.66129l-5.18838,-17.73334l1.57709,20.41461l-23.3174,12.65339l-2.31144,-59.28128" data-paper-data="{&quot;index&quot;:null}" fill="#e1e2db" stroke="none" stroke-width="0" stroke-linecap="round"/><path d="M282.77444,60.15058c0,0 -3.13761,-8.40534 -3.94359,-11.88482c-0.04508,-0.19461 0.17826,14.9878 0.17826,14.9878l-23.36859,12.12036l-0.74651,-21.94786l6.32974,4.41738l15.63436,-11.33005l11.9795,-8.62863l2.04918,14.67541z" data-paper-data="{&quot;index&quot;:null}" fill="#8c9ca0" stroke="none" stroke-width="0" stroke-linecap="butt"/><path d="M284.2388,2.69982c-0.55299,0.0115 2.84678,26.55346 6.68619,49.7585c0.0739,0.40087 -8.12388,7.66129 -8.12388,7.66129l-5.18838,-17.73334l1.57709,20.41461l-23.3174,12.65339l-2.31144,-59.28128" data-paper-data="{&quot;index&quot;:null}" fill="none" stroke="#3a2f41" stroke-width="2" stroke-linecap="round"/></g><path d="M275.55515,46.52891c-5.23462,8.32037 -28.70141,18.62517 -35.42722,18.32741c-6.72581,-0.29776 -37.53947,-8.13947 -38.55609,-14.29915c-0.43325,-2.62502 -3.15299,-22.93899 0.78372,-34.06163c4.2446,-11.99251 17.13669,-18.83138 31.15304,-18.42372c9.38191,0.27287 26.90352,-0.28904 35.09287,11.3314c5.03604,7.14598 6.95368,37.12569 6.95368,37.12569z" fill="#e1e2db" stroke="#3a2f41" stroke-width="2" stroke-linecap="butt"/><g><g><path d="M173.21461,-63.46778l34.42616,33.43814c0,0 23.25807,-11.65735 26.37849,-11.28895c4.50274,0.53161 40.65035,23.99835 49.47641,29.00024c5.39746,3.05884 15.51253,2.96082 15.51253,2.96082c0,0 -0.67177,4.28291 -1.87612,6.36377c-1.05126,1.81635 -4.95334,5.43606 -4.95334,5.43606c0,0 3.3266,2.31365 5.52772,7.29989c0.73276,1.65992 2.77491,5.54354 3.51844,9.06542c0.76999,3.6472 0.22879,6.90647 0.22879,6.90647c0,0 -10.40995,-1.08093 -13.48843,0.71448c-10.36555,6.04531 -23.87645,10.94875 -23.87645,10.94875l3.20718,-10.50258c0,0 -0.87046,1.32734 -6.74781,7.22134c-5.20816,5.22291 -11.31837,7.3219 -11.31837,7.3219c0,0 4.01484,-14.3352 2.36791,-22.21964c-0.7633,6.5442 -1.7639,10.65835 -2.78715,13.42711c-1.94053,5.25081 -3.19424,8.18557 -3.19424,8.18557c0,0 -13.58467,-4.11412 -24.60847,-13.56598c-9.14458,-7.8406 -6.95677,-9.01847 -6.98264,-8.19161c0.55694,6.17347 2.77343,13.93328 2.77343,13.93328c0,0 -6.67927,-4.89967 -8.93641,-7.38372c-2.15225,-2.36861 -4.30674,-7.19074 -4.30674,-7.19074l5.27746,60.375l-25.63334,-8.43098l-2.08643,-20.64876l-2.23546,18.50529c0,0 -14.04162,-8.52446 -14.00892,-8.93113c2.24458,-27.91279 11.2279,-57.35354 10.58121,-57.30212c-5.03116,0.40007 -10.73023,-3.00086 -10.73023,-3.00086c0,0 4.74674,-1.38032 15.17356,-8.37774c10.25555,-6.88248 16.12294,-12.48538 16.12294,-12.48538l-33.08488,-30.86598l-7.15349,-15.86168z" fill="#e1e2db" stroke="none" stroke-width="0" stroke-linecap="round"/><path d="M196.40847,-21.70157l-15.10112,-13.90194l18.48478,-1.95974l8.33382,7.65526z" fill="#8c9ca0" stroke="none" stroke-width="0" stroke-linecap="butt"/><path d="M165.01889,59.87652l1.34127,-14.78995l14.75408,5.85882l0.82449,-4.82313l25.44839,7.34027l1.25376,25.1681l-25.1672,-8.16842c0,0 -1.80475,-23.29982 -1.8241,-23.09454c-0.3458,3.6701 -2.32372,21.08273 -2.32372,21.08273z" fill="#8c9ca0" stroke="none" stroke-width="0" stroke-linecap="butt"/><path d="M173.26215,-63.46779l34.42617,33.43814c0,0 23.25807,-11.65735 26.37849,-11.28895c4.50274,0.53161 40.65036,23.99835 49.47642,29.00024c5.39746,3.05884 15.84587,3.62749 15.84587,3.62749c0,0 -0.73681,7.05195 -7.72682,11.03582c10.72359,8.37071 9.64651,23.27892 9.64651,23.27892c0,0 -4.3378,-0.69745 -6.5985,-0.67006c-2.3901,0.02895 -7.3755,0.83935 -7.3755,0.83935c0,0 -2.71784,1.07811 -3.51954,1.7617c-8.77065,7.47836 -19.42886,9.57245 -19.42886,9.57245l2.95716,-9.50258c0,0 -2.02106,2.69573 -8.3741,7.93863c-5.18106,4.27572 -9.66138,5.21156 -9.66138,5.21156c0,0 4.20347,-12.69216 2.55653,-20.5766c-2.21086,13.16761 -6.07344,20.32703 -6.07344,20.32703c0,0 -18.46191,-6.07847 -31.4857,-20.78033c0.6532,4.20174 1.54079,8.91994 1.54079,8.91994c0,0 -9.02553,-0.26182 -11.74315,-9.96707c-0.04372,-0.15614 4.77746,60.08935 4.77746,60.08935l-25.63334,-8.43098l-2.08644,-20.64876l-2.23546,18.50529c0,0 -14.04162,-8.52446 -14.00891,-8.93113c2.24458,-27.91279 11.22789,-57.35354 10.5812,-57.30212c-5.03116,0.40007 -10.73023,-3.00086 -10.73023,-3.00086c0,0 4.74673,-1.38032 15.17356,-8.37774c10.25555,-6.88248 16.12295,-12.48538 16.12295,-12.48538l-33.08489,-30.86598l-7.15348,-15.86168z" fill="none" stroke="#3a2f41" stroke-width="2" stroke-linecap="round"/><path d="M165.5796,-49.81166l1.12788,-4.10321l5.13814,0.18373l-0.34464,-5.66488l3.60297,-1.07174" fill="none" stroke="#3a2f41" stroke-width="2" stroke-linecap="round"/></g><path d="M163.71552,-65.79583l-0.65794,3.85824h-3.50897l-2.41242,-5.57303z" fill="#3a2f41" stroke="#3a2f41" stroke-width="2" stroke-linecap="round"/></g><path d="M236.59358,41.14792c0,0 -3.14128,6.37441 -15.98213,6.37441c-11.74722,0 -17.37395,-10.17521 -17.37395,-10.17521c0,0 4.52069,-11.40239 16.81474,-11.40239c13.11428,0 16.54134,15.20319 16.54134,15.20319z" fill="#e1e2db" stroke="#3a2f41" stroke-width="1.5" stroke-linecap="butt"/><path d="M228.94896,17.51373c0,0 1.00436,2.16123 -1.77911,3.17826c-5.33917,1.95085 -23.08514,6.53881 -23.08514,6.53881" fill="none" stroke="#3a2f41" stroke-width="1.5" stroke-linecap="round"/><g data-paper-data="{&quot;index&quot;:null}" fill="none" stroke="#3a2f41" stroke-width="2" stroke-linecap="round"><path d="M273.38601,40.12878l-0.72258,6.9954l-26.48033,0.96038l-0.62253,-6.97817"/><path d="M237.22819,40.98617l-0.47754,6.99541l-33.01379,0.10299l-0.68063,-6.97817"/><path d="M245.60792,45.00066h-7.50078"/></g><path d="M225.87622,45.16451v-15.433h3.42956v15.433z" fill="#8c9ca0" stroke="none" stroke-width="0" stroke-linecap="butt"/><path d="M238.20096,61.59749c0,0 2.87564,-1.52978 3.42956,-1.42898c0.60134,0.10944 1.14319,1.71478 1.14319,1.71478" fill="none" stroke="#3a2f41" stroke-width="1.5" stroke-linecap="round"/></g><g><path d="M190.78162,69.61829l-2.6356,-52.8333l16.12007,3.92238l3.98406,54.55677z" fill="#e1e2db" stroke="#3a2f41" stroke-width="2" stroke-linecap="butt"/><path d="M206.71781,63.97244l-15.93619,-4.16011" fill="none" stroke="#3a2f41" stroke-width="2" stroke-linecap="round"/><path d="M206.10488,52.97788l-15.93619,-4.16011" fill="none" stroke="#3a2f41" stroke-width="2" stroke-linecap="round"/><path d="M192.00748,69.79658v-4.27896l14.89421,4.27896l0.36776,4.45725z" fill="#8c9ca0" stroke="none" stroke-width="0" stroke-linecap="butt"/><path d="M205.18548,41.98333l-15.93619,-4.16011" fill="none" stroke="#3a2f41" stroke-width="2" stroke-linecap="round"/><path d="M188.94283,27.12582l15.93619,4.16011" fill="none" stroke="#3a2f41" stroke-width="2" stroke-linecap="round"/><path d="M190.53645,70.27202l-1.83879,-53.66532l4.84215,1.96119l1.83879,52.23899z" fill="#3a2f41" stroke="none" stroke-width="0" stroke-linecap="butt"/><path d="M191.27196,22.19312v-3.74409l9.37784,1.96119l0.36776,4.10067z" fill="#3a2f41" stroke="none" stroke-width="0" stroke-linecap="butt"/><path d="M191.08808,31.82079v-3.38751l9.92947,2.13948v4.10067z" fill="#3a2f41" stroke="none" stroke-width="0" stroke-linecap="butt"/><path d="M191.27196,42.51819v-3.74409l9.92947,2.13948v4.45725z" fill="#3a2f41" stroke="none" stroke-width="0" stroke-linecap="butt"/><path d="M191.8236,53.2156l-0.18388,-4.10067l9.92947,2.13948v4.45725z" fill="#3a2f41" stroke="none" stroke-width="0" stroke-linecap="butt"/><path d="M191.8236,64.62616l0.36776,-3.92238l9.92947,2.13948l0.36776,4.45725z" fill="#3a2f41" stroke="none" stroke-width="0" stroke-linecap="butt"/></g></g><path d="M260.26646,-19.14448c0,4.41828 -6.73135,2.74599 -8.5,1c-1.01298,-1 3,-14 3,-14c0,0 5.5,8.58172 5.5,13z" fill="#3a2f41" stroke="#3a2f41" stroke-width="2" stroke-linecap="butt"/><path d="M215.58448,-29.53434c0,0 6.89681,11.72766 6.14113,12.93393c-1.31941,2.10613 -7.48528,5.28254 -8.502,0.98283c-1.01672,-4.29971 2.36087,-13.91676 2.36087,-13.91676z" data-paper-data="{&quot;index&quot;:null}" fill="#3a2f41" stroke="#3a2f41" stroke-width="2" stroke-linecap="butt"/><path d="M288.60578,20.87468c0.13543,0.1673 -2.42635,4.28446 -2.42635,4.28446c0,0 0.04964,1.99041 0.08443,3.63195c0.02188,1.03244 -2.52983,0.7006 -3.38606,1.39373c-4.2926,3.47497 -16.96025,6.05999 -17.19191,5.77382c-0.23166,-0.28617 10.43538,-5.83518 14.72798,-9.31015c4.2926,-3.47497 7.96025,-6.05999 8.19191,-5.77382z" fill="#e1e2db" stroke="none" stroke-width="0" stroke-linecap="butt"/></g></g></svg>