<svg version="1.1" xmlns="http://www.w3.org/2000/svg" xmlns:xlink="http://www.w3.org/1999/xlink" width="212.61635" height="468.86353" viewBox="0,0,212.61635,468.86353"><g transform="translate(11.78722,-4.06233)"><g data-paper-data="{&quot;isPaintingLayer&quot;:true}" fill-rule="nonzero" stroke-linejoin="miter" stroke-miterlimit="10" stroke-dasharray="" stroke-dashoffset="0" style="mix-blend-mode: normal"><g stroke-linecap="butt"><path d="M54.47374,248.21483l29.55256,-49.21464l13.22184,7.9395l-29.55256,49.21462z" fill="#e1e2db" stroke="#3a2f41" stroke-width="2"/><path d="M67.95631,225.93181l16.44011,-26.71588l13.26796,7.86035l-16.44011,26.71588z" fill="#8c9ca0" stroke="#3a2f41" stroke-width="2"/><path d="M79.75756,236.41824c-5.45092,-5.56033 -15.71341,-4.94318 -15.71341,-4.94318l4.42216,-7.58765c0,0 8.03814,-2.10177 15.559,4.35734c0.88502,0.7601 -3.52691,8.92919 -4.26771,8.1735z" fill="#3a2f41" stroke="none" stroke-width="0"/><path d="M88.972,221.45869c-5.45092,-5.56033 -15.71341,-4.94319 -15.71341,-4.94319l4.42216,-7.58765c0,0 8.03813,-2.10177 15.55899,4.35734c0.88502,0.76008 -3.52692,8.92918 -4.26772,8.17348z" fill="#3a2f41" stroke="none" stroke-width="0"/></g><g><g fill="#e1e2db" stroke="none" stroke-width="0" stroke-linecap="round"><path d="M78.48662,198.22804c0,0 -1.43489,-13.2217 -0.78099,-14.56665c0.59105,-1.2157 6.79733,-2.10205 6.79733,-2.10205c0,0 16.25627,-31.27483 26.20074,-27.84668c5.44863,1.8783 12.27512,25.5367 7.14567,32.39614c-2.29685,3.0715 -5.81859,11.12422 -6.8806,12.98558c-1.80913,3.17083 -1.89442,9.67036 -3.39573,11.7016c-1.50131,2.03124 -6.31168,1.43228 -6.31168,1.43228l-2.45684,4.65666l-24.094,-13.50564l3.77606,-5.1512z"/></g><path d="M116.41086,189.15703l-40.74447,13.87708l2.6659,-5.9431l-0.73457,-14.43735l6.23217,-1.44663c0,0 10.83862,-16.33142 12.20978,-18.05294c4.63663,-5.8214 10.43738,-9.86226 13.76336,-9.50168c7.91338,0.85794 6.60784,35.50462 6.60784,35.50462z" fill="#8c9ca0" stroke="none" stroke-width="0" stroke-linecap="butt"/><g fill="none" stroke="#3a2f41" stroke-width="2" stroke-linecap="round"><path d="M77.70561,183.6614c0.59108,-1.21569 6.79734,-2.10204 6.79734,-2.10204c0,0 16.25626,-31.27483 26.20072,-27.84668c5.44866,1.87829 12.27513,25.5367 7.14568,32.39615c-2.29684,3.07148 -5.81859,11.1242 -6.8806,12.98556c-1.80913,3.17083 -1.89442,9.67036 -3.39573,11.7016c-1.50133,2.03124 -6.31168,1.43228 -6.31168,1.43228l-2.45685,4.65664l-24.09398,-13.50565l3.77605,-5.1512z"/><path d="M78.41486,199.11622l21.75136,12.93113"/></g></g><path d="M23.68039,196.93405c0,0 55.92289,48.88055 55.91794,48.99383c-0.44949,10.29756 -13.68807,14.05997 -13.68807,14.05997c0,0 -67.58683,-35.78665 -75.88462,-51.34766c-8.1156,-15.21934 13.64739,-38.06556 13.64739,-38.06556c0,0 0.87203,22.07531 1.08987,21.23745c3.34025,-12.84757 18.77964,-22.69165 18.77964,-22.69165z" data-paper-data="{&quot;index&quot;:null}" fill="#3a2f41" stroke="none" stroke-width="0" stroke-linecap="butt"/><path d="M122.19767,457.28117c0,0 -1.67934,-6.75243 -2.53226,-6.69997c-0.85253,0.05244 -3.65169,7.16848 -3.65169,7.16848l-51.98005,3.43479l30.87956,-44.86932l7.56509,-178.27159l26.16928,20.95233l-1.01968,197.9638z" data-paper-data="{&quot;index&quot;:null}" fill="#3a2f41" stroke="none" stroke-width="0" stroke-linecap="butt"/><path d="M139.55471,457.32239l-11.81759,-191.80711l25.11646,-34.14842l22.27552,182.19828l25.70003,59.36072l-50.3679,-13.21627c0,0 -3.04099,-8.74279 -3.89479,-8.71857c-0.85419,0.02422 -1.49764,7.44814 -1.49764,7.44814z" data-paper-data="{&quot;index&quot;:null}" fill="#3a2f41" stroke="none" stroke-width="0" stroke-linecap="butt"/><g data-paper-data="{&quot;index&quot;:null}"><path d="M131.93006,266.43611l-11.78914,0.36986l-16.64469,-26.07397l-0.39631,-14.99407h49.93575l-0.39632,14.99407z" fill="#3a2f41" stroke="none" stroke-width="0" stroke-linecap="butt"/><g><g><path d="M102.60692,229.49402c0,0 -0.36936,-9.07035 -0.56862,-13.96353c-0.22081,-5.42211 -0.69821,-17.14549 -0.69821,-17.14549c-0.2276,-4.72824 1.82128,-9.0934 1.45183,-13.20305c-0.9241,-10.2795 -3.46706,-18.96045 4.49215,-27.7268c7.09969,-7.81966 16.44541,-8.51112 25.32317,-8.55174c8.09176,-0.03701 26.47428,7.69418 27.84079,11.60886c-5.04096,27.36557 -7.79899,69.2084 -7.79899,69.2084c0,0 -19.39631,7.23646 -35.59315,6.51126c-8.3071,-0.37193 -14.44896,-6.73791 -14.44896,-6.73791z" fill="#e1e2db" stroke="none" stroke-width="0" stroke-linecap="round"/><g stroke="none" stroke-linecap="butt"><g fill="none" stroke-width="1" font-family="sans-serif" font-weight="normal" font-size="12" text-anchor="start"><g><g/></g></g><g><g><g fill="none" stroke-width="1" font-family="sans-serif" font-weight="normal" font-size="12" text-anchor="start"/><path d="M152.90256,165.95089c0,-0.65856 -8.14486,-10.99682 -6.32538,-10.99682c1.81948,0 8.96263,9.8592 8.5129,9.38041c-2.74978,-2.92757 -5.35022,-5.22019 -5.35022,-5.22019c0,0 4.5056,6.38193 5.44164,8.17753c1.01378,1.9447 -2.27895,-0.99855 -2.27895,-1.34097z" fill="#ffffff" stroke-width="0"/></g><path d="M113.48732,154.7074c1.7416,0.52953 -9.03108,8.05475 -9.22067,8.68511c-0.09859,0.32775 -4.09775,2.18671 -2.56745,0.62028c1.41294,-1.4463 7.56306,-6.24372 7.56306,-6.24372c0,0 0.91163,-0.93427 -2.56331,1.06766c-0.56833,0.32742 5.04675,-4.65884 6.78835,-4.12931z" data-paper-data="{&quot;index&quot;:null}" fill="#ffffff" stroke-width="0"/></g></g><path d="M160.44804,160.51226c0.83363,2.38815 -2.03216,8.50051 -1.72705,11.01398c-0.14327,0.93532 -57.01523,21.80492 -57.01523,21.80492c0,0 0.01377,-6.55515 0.02293,-10.91633c0.0137,-6.52175 0.05128,-24.4116 0.05128,-24.4116c0,0 17.27366,-9.03782 30.82725,-9.09984c8.09177,-0.03701 26.47429,7.69417 27.8408,11.60885z" fill="#8c9ca0" stroke="none" stroke-width="0" stroke-linecap="butt"/><g fill="none" stroke="none" stroke-width="1" stroke-linecap="butt" font-family="sans-serif" font-weight="normal" font-size="12" text-anchor="start"><g><g><g/></g></g><g><g><g/></g></g></g><path d="M101.82538,156.97578c0.2384,-0.28292 20.1723,-8.0239 30.78184,-8.07244c8.09176,-0.03701 26.47429,7.69417 27.8408,11.60885c-5.6317,29.33757 -7.49635,68.6372 -7.49635,68.6372c0,0 -21.88073,7.70997 -35.89579,7.08246c-8.3071,-0.37193 -14.14631,-9.09411 -14.14631,-9.09411c0.11212,-0.71325 -1.07129,-69.31633 -1.07129,-69.31633" fill="none" stroke="#3a2f41" stroke-width="2" stroke-linecap="round"/><g fill="none" stroke="none" stroke-width="1" stroke-linecap="butt" font-family="sans-serif" font-weight="normal" font-size="12" text-anchor="start"><g/></g></g><g fill="none" stroke="none" stroke-width="1" stroke-linecap="butt" font-family="sans-serif" font-weight="normal" font-size="12" text-anchor="start"><g><g><g/></g></g><g><g><g/></g></g></g></g><path d="M122.60582,192.96112c0,0 -0.64146,1.10438 -1.48379,0.4073c-0.83144,-0.68808 1.47052,-0.77166 1.47052,-0.77166l-0.96573,-8.55517l9.87184,-1.30791l1.38593,9.31602c0,0 -1.03595,1.18702 -2.05157,0.49306c-1.01562,-0.69397 1.61247,-0.7931 1.61247,-0.7931" fill="none" stroke="#3a2f41" stroke-width="2" stroke-linecap="round"/><path d="M152.70272,227.94627c-0.0348,3.88384 -10.94907,14.76277 -11.62142,-1.08528c-7.92027,-35.46293 1.81584,-76.88387 1.81584,-76.88387l9.80557,4.96946c0,0 -8.35241,49.14981 0,72.99969z" fill="#3a2f41" stroke="#3a2f41" stroke-width="1.5" stroke-linecap="butt"/><path d="M111.11441,206.38859c0.89173,14.95007 1.8721,20.94684 1.8721,20.94684c0,0 -6.80348,8.2426 -8.48827,2.16282c-0.14148,-0.51055 -0.85427,-1.12209 -0.92113,-1.84799c-1.03778,-11.2681 -3.24414,-24.37507 -3.4562,-36.29784c-0.34617,-19.46353 1.76933,-35.7712 1.76933,-35.7712l12.91877,-5.07936c0,0 -5.41561,27.03368 -3.69459,55.88673z" fill="#3a2f41" stroke="#3a2f41" stroke-width="1.5" stroke-linecap="butt"/><g><path d="M111.84357,153.55798c-0.48841,-0.2693 2.3641,-4.30487 2.8197,-4.62266c0.18573,-0.0586 0.46505,-0.4008 1.15651,0.02004c3.15774,1.92183 10.46731,7.63208 10.46731,7.63208l-12.47523,7.46734z" data-paper-data="{&quot;index&quot;:null}" fill="#8c9ca0" stroke="#3a2f41" stroke-width="4.5" stroke-linecap="round"/><path d="M126.31644,156.62419c0,0 -8.71136,-6.87349 -5.2054,-8.59915c4.17138,-2.0532 20.74393,0.9553 21.7531,0.52398c0.9753,-1.51673 3.10481,3.7876 3.17136,5.02023c-0.91108,2.50267 -8.30208,10.99661 -8.30208,10.99661z" fill="#3a2f41" stroke="#3a2f41" stroke-width="4.5" stroke-linecap="round"/><path d="M113.83387,153.16015c0,-0.42626 1.09106,-3.86527 2.13743,-4.29881c0.60478,-0.52847 11.91902,-5.3225 13.48931,-5.11413c2.4821,0.32938 12.60518,4.26291 13.64868,5.08409c0.56366,0.23672 0.81073,3.15048 0.84793,4.33912" fill="none" stroke="#3a2f41" stroke-width="6.5" stroke-linecap="butt"/><g><path d="M111.84357,153.55797c-0.48841,-0.2693 2.3641,-4.30487 2.8197,-4.62266c0.18573,-0.0586 0.46505,-0.4008 1.15651,0.02004c3.15773,1.92183 10.46731,7.63208 10.46731,7.63208l-12.47523,7.89574z" data-paper-data="{&quot;index&quot;:null}" fill="#8c9ca0" stroke="#12161a" stroke-width="0" stroke-linecap="round"/><path d="M126.31647,156.62419c0,0 14.69033,-7.28131 16.54769,-8.07516c0.9753,-1.51671 3.10481,3.78761 3.17136,5.02024c-0.9111,2.50267 -8.82542,10.99661 -8.82542,10.99661z" fill="#8c9ca0" stroke="#12161a" stroke-width="0" stroke-linecap="round"/><path d="M113.83387,153.16015c0,-0.42626 1.09106,-3.86527 2.13743,-4.29881c0.60478,-0.52847 11.91902,-5.3225 13.48931,-5.11413c2.4821,0.32938 12.60518,4.26291 13.64868,5.08409c0.56366,0.23672 0.81073,3.15048 0.84793,4.33912" fill="none" stroke="#8c9ca0" stroke-width="2" stroke-linecap="butt"/></g></g><path d="M102.34333,240.17366v-13.70886h51.44895v13.70886z" fill="#3a2f41" stroke="#8c9ca0" stroke-width="1" stroke-linecap="butt"/><g stroke-width="1.5" stroke-linecap="butt"><path d="M135.59945,240.93292c-0.75733,1.50133 -18.55804,1.53682 -19.61419,0c-1.54349,-2.24593 -1.41569,-12.9908 0.40863,-14.95356c1.50958,-1.62411 20.12884,-1.31428 19.47799,1.02833c-0.68831,2.47745 -0.08065,13.54509 -0.27241,13.92523z" fill="#e1e2db" stroke="none"/><path d="M135.87189,227.0077c-0.27956,1.00627 -0.34533,3.42971 -0.33772,5.97854c-8.03113,0.31599 -12.6387,0.72342 -20.58192,-0.43875c0.1259,-2.92494 0.60563,-5.66868 1.44166,-6.56813c1.50958,-1.62411 20.12884,-1.31428 19.47799,1.02833z" fill="#8c9ca0" stroke="none"/><path d="M135.59946,240.93292c-0.75734,1.50133 -18.55805,1.53682 -19.6142,0c-1.54347,-2.24593 -1.41569,-12.9908 0.40864,-14.95356c1.50958,-1.62411 20.12884,-1.31428 19.47799,1.02833c-0.68831,2.47745 -0.08066,13.54509 -0.27242,13.92523z" fill="none" stroke="#3a2f41"/><path d="M131.92174,237.9993c-0.47799,0.94758 -11.71317,0.96999 -12.37978,0c-0.9742,-1.41756 -0.89354,-8.19934 0.25791,-9.43816c0.95278,-1.02508 12.7046,-0.82952 12.29381,0.64905c-0.43444,1.56368 -0.05091,8.5492 -0.17194,8.78912z" fill="#3a2f41" stroke="#3a2f41"/></g><path d="M135.81539,201.5482v-3.14161h15.13205v3.14161z" fill="#e1e2db" stroke="#3a2f41" stroke-width="1" stroke-linecap="butt"/><path d="M135.8154,208.11704v-3.14161h15.13204v3.14161z" fill="#e1e2db" stroke="#3a2f41" stroke-width="1" stroke-linecap="butt"/></g><g stroke-linecap="butt"><path d="M182.19233,260.71837l-20.58175,-53.58941l14.39714,-5.52943l20.58176,53.5894z" fill="#e1e2db" stroke="#3a2f41" stroke-width="2"/><path d="M172.7413,236.35096l-11.56436,-29.15959l14.42888,-5.44349l11.56435,29.15958z" fill="#8c9ca0" stroke="#3a2f41" stroke-width="2"/><path d="M190.06308,237.04455c0,0 -10.00049,-2.38533 -16.3321,2.14685c-0.86049,0.61594 -3.79083,-8.19384 -2.78754,-8.78914c8.52593,-5.05885 16.07855,-1.59661 16.07855,-1.59661l3.0411,8.2389z" fill="#3a2f41" stroke="none" stroke-width="0"/><path d="M167.24689,222.86196c-0.8605,0.61594 -3.79084,-8.19384 -2.78755,-8.78914c8.52593,-5.05885 16.07855,-1.59661 16.07855,-1.59661l3.0411,8.2389c0,0 -10.00049,-2.38533 -16.3321,2.14685z" fill="#3a2f41" stroke="none" stroke-width="0"/></g><g><g fill="#e1e2db" stroke="none" stroke-width="0" stroke-linecap="round"><path d="M181.59743,201.79856l2.82678,5.72738l-26.06905,9.12836l-1.61316,-5.01181c0,0 -4.84141,-0.24325 -5.96822,-2.50383c-1.1268,-2.26058 -0.08506,-8.67664 -1.31765,-12.1129c-0.72356,-2.01718 -2.79732,-10.55816 -4.52746,-13.98106c-3.86383,-7.6442 6.95719,-29.76267 12.64881,-30.66886c10.38794,-1.6539 20.9816,31.96387 20.9816,31.96387c0,0 5.95896,1.94789 6.33052,3.2476c0.41107,1.43788 -3.29218,14.21123 -3.29218,14.21123z"/></g><path d="M158.47499,152.47252c7.94236,0.52565 12.98504,14.56048 12.98504,14.56048l-27.47488,8.58124c0,0 6.54748,-23.66737 14.48984,-23.14172z" fill="#8c9ca0" stroke="none" stroke-width="0" stroke-linecap="butt"/><g fill="none" stroke="#3a2f41" stroke-linecap="round"><path d="M181.59743,201.79858l2.82678,5.72738l-26.06904,9.12836l-1.61316,-5.0118c0,0 -4.8414,-0.24325 -5.96822,-2.50383c-1.1268,-2.26057 -0.08506,-8.67665 -1.31765,-12.1129c-0.72356,-2.01718 -2.79733,-10.55816 -4.52746,-13.98105c-3.86383,-7.6442 6.95718,-29.76266 12.6488,-30.66885c10.38794,-1.65391 20.9816,31.96386 20.9816,31.96386c0,0 5.95896,1.94788 6.33052,3.24759z" stroke-width="2"/><path d="M181.51425,202.68573l-23.66234,8.96827" stroke-width="2"/><path d="M164.51891,185.97044l0.39677,-2.58594l14.34559,1.03651z" stroke-width="1.5"/></g></g><path d="M141.9456,204.01578c0,0 58.10679,46.60577 58.10671,46.71917c-0.00624,10.30735 -12.60104,14.51558 -12.60104,14.51558c0,0 -69.66657,-32.90238 -78.62586,-48.09217c-8.76258,-14.85626 11.99781,-38.61724 11.99781,-38.61724c0,0 1.82055,22.01739 2.00215,21.17095c2.78467,-12.97933 17.78645,-23.47826 17.78645,-23.47826z" data-paper-data="{&quot;index&quot;:null}" fill="#3a2f41" stroke="none" stroke-width="0" stroke-linecap="butt"/><path d="M154.77269,147.16374c0,0 -12.51713,-7.38946 -26.6904,-7.45919c-5.93411,-0.02919 -12.15854,0.41696 -17.87615,4.52075c-0.21894,0.19311 0,-20.07944 0,-20.07944h50.19859l-5.63204,23.0179z" fill="#8c9ca0" stroke="#3a2f41" stroke-width="2" stroke-linecap="butt"/><g><g><g><path d="M107.62533,68.45572l14.5648,-50.60225l8.64337,-11.55491l3.84417,14.02504l-13.84371,47.96452" fill="#e1e2db" stroke="none" stroke-width="0" stroke-linecap="round"/><path d="M107.12466,69.56053l5.33794,-18.29274l15.55498,-6.82468l-5.27501,17.6712z" fill="#8c9ca0" stroke="none" stroke-width="0" stroke-linecap="butt"/><path d="M107.62532,68.45572l14.5648,-50.60225l8.64338,-11.55491l3.84417,14.02504l-13.84371,47.96452" fill="none" stroke="#3a2f41" stroke-width="2" stroke-linecap="round"/></g><path d="M130.81855,7.30613l1.4455,5.30817l-2.55356,1.89986l-2.69492,-2.41441z" fill="#3a2f41" stroke="#3a2f41" stroke-width="2" stroke-linecap="round"/></g><path d="M121.51844,20.51853l3.14063,-0.87851l2.49776,4.22355l3.64812,-2.48171l2.81113,2.42924" fill="none" stroke="#3a2f41" stroke-width="2" stroke-linecap="round"/></g><g><path d="M114.89078,99.24459l-1.98045,50.79243l-19.97844,-10.84147l1.35126,-17.49132l-4.44542,15.19399c0,0 -7.02389,-6.22076 -6.96057,-6.56422c3.00401,-14.74134 5.63135,-46.33623 5.15754,-46.34609" data-paper-data="{&quot;index&quot;:null}" fill="#e1e2db" stroke="none" stroke-width="0" stroke-linecap="round"/><path d="M82.90989,130.42128l1.75574,-12.57395l10.26408,7.39305l13.39558,9.70763l5.42334,-3.78483l-0.63961,18.80501l-20.0223,-10.38477c0,0 0.19137,-13.00836 0.15274,-12.84161c-0.69056,2.98123 -3.37888,10.18296 -3.37888,10.18296z" data-paper-data="{&quot;index&quot;:null}" fill="#8c9ca0" stroke="none" stroke-width="0" stroke-linecap="butt"/><path d="M114.89077,99.24461l-1.98045,50.79243l-19.97844,-10.84148l1.35126,-17.49132l-4.44542,15.19399c0,0 -7.02389,-6.22076 -6.96057,-6.56422c3.28962,-19.88217 6.20256,-42.62342 5.72875,-42.63328" data-paper-data="{&quot;index&quot;:null}" fill="none" stroke="#3a2f41" stroke-width="2" stroke-linecap="round"/></g><path d="M96.04609,125.25368c0,0 1.64304,-25.68673 5.95794,-31.80943c7.01666,-9.95644 22.02926,-9.47499 30.06771,-9.70879c12.00927,-0.34928 23.05526,5.51029 26.69205,15.78552c3.37298,9.52992 1.0427,26.935 0.67149,29.18413c-0.87105,5.27764 -27.27231,11.99644 -33.03501,12.25156c-5.7627,0.25512 -25.86913,-8.57408 -30.35418,-15.703z" fill="#e1e2db" stroke="#3a2f41" stroke-width="2" stroke-linecap="butt"/><g><g><path d="M198.67168,26.60042l-6.12914,13.59034l-28.34725,26.44609c0,0 5.0272,4.80059 13.81419,10.69752c8.93374,5.99541 13.00077,7.17808 13.00077,7.17808c0,0 -4.88299,2.91393 -9.1937,2.57115c-0.55408,-0.04406 7.14285,25.18089 9.06602,49.09667c0.02802,0.34844 -12.00289,7.65223 -12.00289,7.65223l-1.91535,-15.8554l-1.78767,17.69193l-21.96275,7.2237l4.52175,-51.72953c0,0 -1.84598,4.13162 -3.69003,6.16106c-1.93392,2.12834 -7.65675,6.32639 -7.65675,6.32639c0,0 1.89909,-6.64863 2.37628,-11.93809c-0.02216,-0.70846 1.85236,0.30075 -5.98275,7.0186c-9.44524,8.09838 -21.08463,11.62338 -21.08463,11.62338c0,0 -1.07418,-2.51451 -2.73684,-7.01342c-0.87672,-2.37229 -1.73404,-5.8973 -2.38804,-11.5044c-1.41109,6.75542 2.02884,19.03787 2.02884,19.03787c0,0 -5.23526,-1.79842 -9.69763,-6.27343c-5.03574,-5.05 -5.78155,-6.18727 -5.78155,-6.18727l2.74792,8.99865c0,0 -11.57619,-4.20129 -20.45743,-9.38093c-2.63766,-1.53831 -11.55694,-0.61217 -11.55694,-0.61217c0,0 -0.4637,-2.79256 0.19603,-5.91749c0.63706,-3.01756 2.38678,-6.34507 3.01461,-7.76729c1.88593,-4.27223 4.73617,-6.25458 4.73617,-6.25458c0,0 -3.34331,-3.10138 -4.24404,-4.65763c-1.03188,-1.78289 -1.60746,-5.4525 -1.60746,-5.4525c0,0 8.66663,0.08398 13.2912,-2.53684c7.5622,-4.28564 38.53361,-24.39203 42.39158,-24.84752c2.67359,-0.31564 22.60119,9.67242 22.60119,9.67242l29.49647,-28.64993z" fill="#e1e2db" stroke="none" stroke-width="0" stroke-linecap="round"/><path d="M153.81967,59.76223l7.14045,-6.55905l15.83783,1.67911l-12.93869,11.91124z" fill="#8c9ca0" stroke="none" stroke-width="0" stroke-linecap="butt"/><path d="M179.49571,144.23609c0,0 -1.69468,-14.91921 -1.99097,-18.06376c-0.01658,-0.17588 -1.56289,19.78749 -1.56289,19.78749l-21.56335,6.99874l1.07423,-21.56413l21.80427,-6.28918l0.70643,4.13247l12.64135,-5.01985l1.1492,12.67208z" fill="#8c9ca0" stroke="none" stroke-width="0" stroke-linecap="butt"/><path d="M198.63091,26.60044l-6.12913,13.59034l-28.34726,26.44609c0,0 5.02721,4.80059 13.8142,10.69752c8.93376,5.99541 13.00077,7.17808 13.00077,7.17808c0,0 -4.88299,2.91393 -9.1937,2.57115c-0.55408,-0.04406 7.14284,25.18089 9.06601,49.09667c0.02803,0.34844 -12.00288,7.65223 -12.00288,7.65223l-1.91535,-15.8554l-1.78767,17.69193l-21.96274,7.2237c0,0 4.1308,-51.61857 4.09334,-51.48479c-2.32847,8.3155 -10.06158,8.53983 -10.06158,8.53983c0,0 0.76049,-4.04257 1.32015,-7.64264c-11.15884,12.5966 -26.97707,17.80466 -26.97707,17.80466c0,0 -3.30948,-6.13422 -5.20375,-17.41628c-1.4111,6.75542 2.19045,17.63011 2.19045,17.63011c0,0 -3.83876,-0.80184 -8.27791,-4.46529c-5.44331,-4.49214 -7.17496,-6.80185 -7.17496,-6.80185l2.5337,8.14185c0,0 -9.132,-1.79423 -16.64672,-8.20172c-0.6869,-0.58571 -3.01556,-1.50943 -3.01556,-1.50943c0,0 -4.27152,-0.69435 -6.31936,-0.71916c-1.93698,-0.02347 -5.65362,0.57411 -5.65362,0.57411c0,0 -0.92285,-12.7734 8.26517,-19.94546c-5.98907,-3.4134 -6.62037,-9.45554 -6.62037,-9.45554c0,0 8.95224,-0.48723 13.57681,-3.10805c7.5622,-4.28564 38.53361,-24.39203 42.39158,-24.84752c2.67358,-0.31564 22.60119,9.67242 22.60119,9.67242l29.49648,-28.64993z" fill="none" stroke="#3a2f41" stroke-width="2" stroke-linecap="round"/><path d="M182.11308,33.57851l3.08703,0.91827l-0.29529,4.85369l4.40238,-0.15742l0.96637,3.51565" fill="none" stroke="#3a2f41" stroke-width="2" stroke-linecap="round"/></g><path d="M197.50792,27.54416l-2.06697,4.775h-3.0065l-0.56373,-3.30576z" fill="#3a2f41" stroke="#3a2f41" stroke-width="2" stroke-linecap="round"/></g><path d="M129.4285,120.64321c0,0 2.93632,-13.02615 14.17269,-13.02615c10.53359,0 14.40694,9.76961 14.40694,9.76961c0,0 -4.821,8.71816 -14.88607,8.71816c-11.00209,0 -13.69355,-5.46162 -13.69355,-5.46162z" fill="#e1e2db" stroke="#3a2f41" stroke-width="1.5" stroke-linecap="butt"/><g data-paper-data="{&quot;index&quot;:null}" fill="none" stroke="#3a2f41" stroke-width="2" stroke-linecap="round"><path d="M121.74556,120.60763l-0.53338,5.97892l-22.68845,-0.82286l-0.61911,-5.99368"/><path d="M158.16345,120.60765l-0.58317,5.97892l-28.28635,-0.08824l-0.40915,-5.9937"/><path d="M121.705,123.94426h6.42669"/></g><path d="M135.67273,124.08464v-13.22305h2.93846v13.22305z" fill="#8c9ca0" stroke="none" stroke-width="0" stroke-linecap="butt"/><g><path d="M153.71327,149.87413l3.41356,-46.74445l13.81174,-3.36071l-2.25819,45.26777z" fill="#e1e2db" stroke="#3a2f41" stroke-width="2" stroke-linecap="butt"/><path d="M155.02619,140.19934l13.65419,-3.5644" fill="none" stroke="#3a2f41" stroke-width="2" stroke-linecap="round"/><path d="M155.55135,130.77917l13.65419,-3.5644" fill="none" stroke="#3a2f41" stroke-width="2" stroke-linecap="round"/><path d="M154.55355,149.00849l0.31509,-3.81899l12.76142,-3.66623v3.66623z" fill="#8c9ca0" stroke="none" stroke-width="0" stroke-linecap="butt"/><path d="M156.33909,121.359l13.65419,-3.5644" fill="none" stroke="#3a2f41" stroke-width="2" stroke-linecap="round"/><path d="M156.60167,112.19343l13.65419,-3.5644" fill="none" stroke="#3a2f41" stroke-width="2" stroke-linecap="round"/><path d="M164.74167,146.05513l1.57548,-44.75857l4.14878,-1.68035l-1.57549,45.98065z" fill="#3a2f41" stroke="none" stroke-width="0" stroke-linecap="butt"/><path d="M159.91018,106.38854l0.3151,-3.51347l8.03497,-1.68035v3.20795z" fill="#3a2f41" stroke="none" stroke-width="0" stroke-linecap="butt"/><path d="M159.91019,115.09584v-3.51347l8.50761,-1.83311v2.90243z" fill="#3a2f41" stroke="none" stroke-width="0" stroke-linecap="butt"/><path d="M159.75264,124.26143v-3.81899l8.50761,-1.83312v3.20795z" fill="#3a2f41" stroke="none" stroke-width="0" stroke-linecap="butt"/><path d="M159.43755,133.12149v-3.81899l8.5076,-1.83312l-0.15755,3.51347z" fill="#3a2f41" stroke="none" stroke-width="0" stroke-linecap="butt"/><path d="M158.6498,143.05084l0.31509,-3.81898l8.50761,-1.83311l0.3151,3.36071z" fill="#3a2f41" stroke="none" stroke-width="0" stroke-linecap="butt"/></g><path d="M113.85792,57.846c0,0 3.43834,11.13844 2.57041,11.99525c-1.51538,1.49597 -7.28283,2.9288 -7.28283,-0.8568c0,-3.7856 4.71242,-11.13845 4.71242,-11.13845z" data-paper-data="{&quot;index&quot;:null}" fill="#3a2f41" stroke="#3a2f41" stroke-width="2" stroke-linecap="butt"/><path d="M147.42918,60.08239c0,0 2.89393,8.23992 2.0228,11.92393c-0.87113,3.68401 -6.15408,0.96244 -7.28455,-0.8421c-0.64747,-1.03354 5.26175,-11.08184 5.26175,-11.08184z" data-paper-data="{&quot;index&quot;:null}" fill="#3a2f41" stroke="#3a2f41" stroke-width="2" stroke-linecap="butt"/><path d="M84.86426,103.27301c0.19848,-0.24519 3.34095,1.96966 7.01886,4.94703c3.67791,2.97737 12.81748,7.73178 12.61899,7.97697c-0.19849,0.24519 -11.05219,-1.96966 -14.7301,-4.94703c-0.73361,-0.59387 -2.91993,-0.30955 -2.90118,-1.19415c0.02981,-1.40648 0.07234,-3.11186 0.07234,-3.11186c0,0 -2.19495,-3.52761 -2.07891,-3.67095z" data-paper-data="{&quot;index&quot;:null}" fill="#e1e2db" stroke="none" stroke-width="0" stroke-linecap="butt"/><path d="M146.1,101.74928c0,0 -5.66385,5.48214 -8.2676,7.20061c-3.68186,2.43004 -11.5324,6.79939 -11.5324,6.79939" fill="none" stroke="#3a2f41" stroke-width="1.5" stroke-linecap="round"/><g data-paper-data="{&quot;index&quot;:null}" stroke-linecap="round"><path d="M115.04197,129.52982l21.67873,-0.97862l0.28892,20.08442l-19.2486,-4.26122z" fill="#3a2f41" stroke="#3a2f41" stroke-width="0.9"/><g stroke="#313851" stroke-width="0.45"><path d="M116.01226,129.38543l20.70844,-0.83423l0.11816,2.94724l-1.22859,3.29313l-1.79867,-3.40131l-15.09646,0.47476l-1.35888,1.71572z" fill="#ffffff"/><path d="M120.70248,131.76633l-0.25018,-2.56937" fill="none"/></g><g stroke="#313851" stroke-width="0.45"><g><path d="M120.42015,143.07475c0,0 1.60451,-1.81373 2.63213,-2.6257c1.0962,-0.86617 2.29995,-1.70324 2.29995,-1.70324l0.34447,0.78386c0,0 -2.11784,2.13548 -2.84893,3.22662c-0.44068,0.6577 -0.75736,1.70188 -0.75736,1.70188c0,0 -0.92451,-0.15326 -1.22606,-0.43262c-0.30155,-0.27936 -0.44421,-0.95081 -0.44421,-0.95081z" fill="#ffffff"/><path d="M124.24033,139.62928l0.32723,1.09062" fill="none"/></g><path d="M120.15849,141.59057l0.75828,1.83382l13.1321,2.48969l1.53858,-2.63847l1.48157,5.55893l-17.17732,-3.77753z" fill="#ffffff"/></g></g></g></g></svg>