<svg version="1.1" xmlns="http://www.w3.org/2000/svg" xmlns:xlink="http://www.w3.org/1999/xlink" width="64.5" height="64.5" viewBox="0,0,64.5,64.5"><defs><linearGradient x1="212.4" y1="151" x2="212.4" y2="215.5" gradientUnits="userSpaceOnUse" id="color-1"><stop offset="0" stop-color="#ffffff"/><stop offset="1" stop-color="#e5e5e5"/></linearGradient></defs><g transform="translate(-212.4,-151)"><g data-paper-data="{&quot;isPaintingLayer&quot;:true}" fill-rule="nonzero" stroke="none" stroke-width="1" stroke-linecap="butt" stroke-linejoin="miter" stroke-miterlimit="10" stroke-dasharray="" stroke-dashoffset="0" style="mix-blend-mode: normal"><path d="M244.65,151c8.898,0 16.96,3.614 22.798,9.452c5.838,5.838 9.452,13.9 9.452,22.798c0,8.898 -3.614,16.96 -9.452,22.798c-5.838,5.838 -13.9,9.452 -22.798,9.452c-8.898,0 -16.96,-3.614 -22.798,-9.452c-5.838,-5.838 -9.452,-13.9 -9.452,-22.798c0,-8.898 3.614,-16.96 9.452,-22.798c5.838,-5.838 13.9,-9.452 22.798,-9.452z" fill="url(#color-1)"/><text transform="translate(221.19473,172.0273) scale(0.37973,0.37973)" font-size="40" xml:space="preserve" fill="#000000" fill-rule="nonzero" stroke="none" stroke-width="1" stroke-linecap="butt" stroke-linejoin="miter" stroke-miterlimit="10" stroke-dasharray="" stroke-dashoffset="0" font-family="Serif" font-weight="normal" text-anchor="start" style="mix-blend-mode: normal"><tspan x="0" dy="0">English</tspan></text><text transform="translate(237.49473,187.5273) scale(0.37973,0.37973)" font-size="40" xml:space="preserve" fill="#000000" fill-rule="nonzero" stroke="none" stroke-width="1" stroke-linecap="butt" stroke-linejoin="miter" stroke-miterlimit="10" stroke-dasharray="" stroke-dashoffset="0" font-family="Serif" font-weight="normal" text-anchor="start" style="mix-blend-mode: normal"><tspan x="0" dy="0">or</tspan></text><text transform="translate(220.29472,201.2273) scale(0.37973,0.37973)" font-size="40" xml:space="preserve" fill="#000000" fill-rule="nonzero" stroke="none" stroke-width="1" stroke-linecap="butt" stroke-linejoin="miter" stroke-miterlimit="10" stroke-dasharray="" stroke-dashoffset="0" font-family="Serif" font-weight="normal" text-anchor="start" style="mix-blend-mode: normal"><tspan x="0" dy="0">Spanish</tspan></text></g></g></svg>