<svg version="1.1" xmlns="http://www.w3.org/2000/svg" xmlns:xlink="http://www.w3.org/1999/xlink" width="601.48671" height="517.47877" viewBox="0,0,601.48671,517.47877"><g transform="translate(93.90898,91.12244)"><g data-paper-data="{&quot;isPaintingLayer&quot;:true}" fill-rule="nonzero" stroke-linejoin="miter" stroke-miterlimit="10" stroke-dasharray="" stroke-dashoffset="0" style="mix-blend-mode: normal"><g><path d="M405.89326,97.87915c0,0 -14.62468,1.91424 -36.06924,1.29828c-19.02334,-0.5464 -33.40211,-3.29371 -33.40211,-3.29371l1.66526,-57.97609l69.47135,1.99544l-1.66526,57.97609z" data-paper-data="{&quot;index&quot;:null}" fill="#221629" stroke="#251e29" stroke-width="2" stroke-linecap="butt"/><path d="M354.77085,31.55959l-3.81975,68.5l-19.75902,-1.66666l0.95772,-15.66667l-4.55852,15.5l-18.0512,-1.66667c0,0 8.43689,-28.19935 10.652,-60.66666l28.60972,-25.83333z" data-paper-data="{&quot;index&quot;:null}" fill="#3a2f41" stroke="#3a2f41" stroke-width="2" stroke-linecap="round"/><path d="M393.64994,57.42523c-20.35347,-0.77841 -30.67849,-0.83979 -36.5486,-24.36657c-5.8701,-23.52677 -4.19868,-48.91473 16.16038,-49.52987c103.17501,-3.11743 86.32501,95.91175 86.32501,95.91175c0,0 -31.34028,-20.69219 -65.9368,-22.01532z" fill="#3a2f41" stroke="#3a2f41" stroke-width="2.5" stroke-linecap="butt"/><path d="M396.74836,42.20293c-11.99756,12.74686 -17.89289,19.41156 -34.6885,9.22555c-16.79561,-10.18599 -44.54841,-18.64223 -33.34519,-32.22173c25.23678,-49.96238 72.69029,-41.95661 95.65796,-26.47229c18.17678,12.25441 18.39358,46.54576 18.39358,46.54576c0,0 -25.62458,-18.74424 -46.01785,2.92269z" fill="#3a2f41" stroke="#3a2f41" stroke-width="2.5" stroke-linecap="butt"/><path d="M385.83363,78.26528c-9.48933,-2.97024 -24.21814,-11.97293 -28.68794,-16.12461c-4.40272,-4.08936 -3.11197,-1.70535 -1.94123,-12.33172c2.35931,-21.41465 9.96884,-45.47899 29.27632,-40.76061c56.29621,13.75768 67.52792,47.21571 62.91117,73.08772c-3.4074,19.09495 -17.5944,34.02402 -17.5944,34.02402c0,0 -14.42233,-24.25417 -43.96392,-37.89482z" fill="#3a2f41" stroke="#3a2f41" stroke-width="2.5" stroke-linecap="butt"/><g data-paper-data="{&quot;index&quot;:null}" stroke-linecap="butt"><path d="M333.17589,79.87551c-7.42292,-5.93187 -8.1572,-14.63596 -8.43444,-24.13503c-0.54674,-18.73306 13.34899,-41.18879 37.87598,-42.54507c37.28605,-2.06185 51.50962,21.36025 52.05635,40.09329c0.54675,18.73304 -11.16154,35.1135 -43.46993,35.35963c-16.13625,0.12294 -30.31211,-2.25648 -37.52794,-8.02282z" fill="#e1e2db" stroke="none" stroke-width="0"/><path d="M325.74144,55.74051c-0.54674,-18.73306 12.34899,-41.18879 36.87598,-42.54507c37.28605,-2.06185 51.50962,21.36025 52.05635,40.09329c0.54674,18.73304 -25.79856,18.00151 -45.94,18.24671c-33.38883,0.40648 -42.0568,-6.41082 -42.0568,-6.41082c0,0 -0.76569,-3.56489 -0.93553,-9.38411z" fill="#b8c1c0" stroke="none" stroke-width="0"/><path d="M377.9927,14.32842c25.91148,4.2053 36.2294,23.48441 36.69349,39.38518c0.54675,18.73304 -11.16154,35.11349 -43.46993,35.35962c-17.20779,0.1311 -31.11697,-3.39088 -38.26095,-9.86346c-7.21192,-6.53411 -7.95877,-13.66377 -7.70144,-23.04438c0.46309,-16.88145 8.10885,-46.35836 52.60045,-41.87514" fill="none" stroke="#3a2f41" stroke-width="2"/></g><path d="M304.99352,-29.8443c0,0 34.88454,11.34027 57.21013,33.97374c13.23475,13.41728 -10.80945,4.06763 -21.64427,14.13066c-5.02913,4.6709 -21.73006,15.0288 -21.73006,15.0288z" data-paper-data="{&quot;index&quot;:null}" fill="#3a2f41" stroke="#3a2f41" stroke-width="2.5" stroke-linecap="butt"/><path d="M325.87562,68.01612c-0.2822,0.80985 -9.61395,0.08822 -13.49662,-1.1651c-5.76241,-1.86006 -5.31751,-3.18714 -5.0353,-3.99697c0.28218,-0.80984 18.53191,5.16206 18.53191,5.16206z" data-paper-data="{&quot;index&quot;:null}" fill="#3a2f41" stroke="#8c9ca0" stroke-width="1" stroke-linecap="butt"/><path d="M371.54831,13.16237c0,0 0.63731,-0.01808 0.65539,0.61924c0.01808,0.63732 -0.61924,0.65539 -0.61924,0.65539c-0.37767,0.01071 -1.32184,0.0375 -1.69951,0.04821c-3.07995,0.08736 -6.11168,0.39606 -9.14037,0.85532c-3.02429,0.45857 -5.5406,1.54548 -8.64825,1.63363c0,0 -0.63731,0.01809 -0.65539,-0.61923c-0.01808,-0.63732 0.61924,-0.6554 0.61924,-0.6554c3.05245,-0.08658 5.52184,-1.15596 8.50214,-1.62105c3.07115,-0.47927 6.16207,-0.77928 9.28647,-0.86791c0.37766,-0.01071 0.75532,-0.02143 1.133,-0.03214l0.56651,-0.01607z" fill="#3a2f41" stroke="#3a2f41" stroke-width="2.5" stroke-linecap="butt"/><path d="M384.67781,16.48298c-1.41873,2.05845 -3.47718,0.63971 -3.47718,0.63971l-2.1436,-1.47743c-3.64927,-2.57859 -7.98203,-2.43471 -12.30273,-3.04534c-5.80518,-0.82043 -11.75236,-0.59119 -17.54179,-1.40854c-2.82462,-0.39878 -5.60623,-1.19179 -8.47159,-1.55858c0,0 -2.47974,-0.31761 -2.16213,-2.79736c0.31762,-2.47974 2.79736,-2.16213 2.79736,-2.16213c6.78781,0.86988 13.33584,1.97217 20.17741,2.47869c6.81336,0.50443 14.52765,0.44505 20.34094,4.37637l2.1436,1.47742c0,0 2.05844,1.41873 0.63971,3.47718z" data-paper-data="{&quot;index&quot;:null}" fill="#3a2f41" stroke="none" stroke-width="0.5" stroke-linecap="butt"/><path d="M363.33819,83.12175c0,0 -1.20112,3.55211 -5.11471,1.51978" data-paper-data="{&quot;index&quot;:null}" fill="none" stroke="#3a2f41" stroke-width="1" stroke-linecap="round"/><path d="M424.15341,26.97393c0,0 7.85163,16.6981 11.29095,28.17508c3.29681,11.00142 11.93552,37.82049 11.93552,37.82049l-15.87126,7.03615l-3.8901,-13.37387l0.08675,13.55977l-28.42672,2.12162c0,0 5.26397,-30.12887 -0.11028,-62.747l9.26628,-28.0168z" fill="#3a2f41" stroke="#8c9ca0" stroke-width="2" stroke-linecap="round"/><g data-paper-data="{&quot;index&quot;:null}"><path d="M426.05345,55.24014l-7.43621,-15.35892c0,0 1.47375,6.39308 2.28571,10.52901c0.92617,4.71764 3.27902,15.14823 3.27902,15.14823c0,0 -6.51232,-2.31983 -13.24491,-4.03459c-6.02224,-1.53383 -22.04367,-4.23662 -22.04367,-4.23662l-1.07334,-10.25251l-1.47696,10.37805c0,0 -8.97626,0.0321 -25.45127,-0.50963c-1.15824,-0.03808 -2.16592,-20.14691 -2.16592,-20.14691c0,0 -1.72263,20.0079 -2.57414,19.99176c-15.66909,-0.29692 -28.92911,0.24068 -28.92911,0.24068l2.17453,-15.4165l-5.00256,16.35253l-17.45952,-0.17144l10.90044,-25.38381l-3.69596,6.83487l-6.85198,1.54684c0,0 4.21546,-13.42259 7.74614,-20.15287c6.40179,-12.20328 10.10934,-20.41262 22.21024,-27.61314c11.84767,-7.04983 28.72735,-10.08918 40.349,-8.38925c20.3177,2.97192 28.99166,12.13929 35.45668,19.81865c5.20943,6.18797 9.55075,15.3122 13.78764,22.84354c4.173,7.41778 9.50169,12.91908 9.50169,12.91908z" fill="#3a2f41" stroke="none" stroke-width="0" stroke-linecap="round"/><path d="M325.3648,18.56971l-9.81751,19.23482l-2.15585,0.43289" fill="none" stroke="#8c9ca0" stroke-width="2" stroke-linecap="round"/><path d="M419.33833,42.34272l-4.74113,-14.14092" fill="none" stroke="#8c9ca0" stroke-width="2" stroke-linecap="round"/><path d="M426.18421,55.39924l-7.04391,-13.44961c0,0 0.55388,1.27231 1.00225,3.33259c0.91456,4.20256 4.17019,20.43534 4.17019,20.43534c0,0 -6.51231,-2.31983 -13.2449,-4.03459c-6.02224,-1.53383 -11.04367,-1.73065 -11.04367,-1.73065l-4.93414,-22.50394l-0.36615,22.07259c0,0 -15.93762,-1.91699 -32.41263,-2.45872c-18.13789,-0.5964 -34.95782,0.08554 -34.95782,0.08554l2.17453,-9.84767l-5.64688,9.66994l-17.16726,0.6853l8.3802,-19.15616l-7.23108,1.98009c0,0 10.81318,-36.20858 29.51183,-47.33502c11.84767,-7.04983 28.72734,-10.08918 40.349,-8.38925c20.3177,2.97192 28.99167,12.13929 35.45668,19.81865c5.20943,6.18797 9.55075,15.3122 13.78764,22.84353c4.173,7.41778 9.50169,12.91908 9.50169,12.91908z" fill="none" stroke="none" stroke-width="0" stroke-linecap="round"/><path d="M411.10026,42.19058l-2.22298,-33.7312l17.62407,45.04563c0,0 -4.92969,-8.15014 -6.29631,-11.22249c-1.68746,-3.79366 -5.26434,-15.42184 -5.26434,-15.42184c0,0 2.53264,10.18091 3.7907,15.90857c1.44572,6.58213 4.39916,21.37841 4.39916,21.37841z" fill="#3a2f41" stroke="none" stroke-width="0" stroke-linecap="butt"/><path d="M311.01725,48.10333c0,0 2.52336,-6.50913 3.67067,-8.99404c1.9218,-4.16237 8.67783,-16.92456 8.67783,-16.92456l-9.26098,16.94693l-6.23806,1.33145c0,0 8.7956,-15.14001 10.39601,-17.78138c3.4206,-5.64552 10.70591,-12.53762 10.70591,-12.53762l-0.11442,11.69454z" fill="#3a2f41" stroke="none" stroke-width="0" stroke-linecap="butt"/></g><path d="M419.37369,70.32895l-4,-52.25l-95.01957,-1.75274c0,0 7.52491,-16.58945 21.81123,-23.91268c16.55632,-8.48685 40.54913,-10.16031 48.65614,-9.06411c52.16206,7.05314 63.30221,45.47954 63.30221,45.47954l-10.5,44.5l-12.29145,-30.6006z" fill="#3a2f41" stroke="#3a2f41" stroke-width="2.5" stroke-linecap="butt"/><path d="M378.13059,8.95491c-0.74872,-28.12612 16.53389,-60.73848 16.53389,-60.73848c0,0 33.31582,32.79953 36.07276,74.04047" data-paper-data="{&quot;index&quot;:null}" fill="#3a2f41" stroke="#8c9ca0" stroke-width="2.5" stroke-linecap="butt"/><g fill="#9aac9c" stroke="none" stroke-width="0" stroke-linecap="butt"><path d="M416.42772,41.04553c-4.51234,-2.99182 -5.25492,-28.20259 -1.51084,-29.94735c4.16144,-1.93924 18.55727,15.14171 18.55727,15.14171c0,0 -12.50635,17.81586 -17.04642,14.80564z"/><path d="M448.15096,39.56188c-4.37471,3.42716 -17.76525,-13.17755 -17.76525,-13.17755c0,0 13.4848,-18.38488 17.73576,-16.83907c3.82463,1.39078 4.37749,26.61042 0.02949,30.01663z" data-paper-data="{&quot;index&quot;:null}"/><path d="M432.63173,19.27505c2.76118,-0.12913 4.75954,0.6789 4.90058,6.16939c0.14103,5.49049 -1.79283,7.19337 -4.55401,7.32251c-2.76118,0.12915 -5.30405,-1.36438 -5.44509,-6.85487c-0.14103,-5.49048 2.33734,-6.50789 5.09852,-6.63703z"/></g><g data-paper-data="{&quot;index&quot;:null}" stroke="#3a2f41" stroke-linecap="butt"><path d="M386.92691,49.95549c17.05928,0.97782 18.59079,20.52817 18.59079,20.52817c0,0 -2.5201,7.96718 -22.06118,7.05006c-10.79979,-0.50686 -17.33552,-5.80179 -17.33552,-5.80179c0,0 1.04288,-22.90924 20.80591,-21.77644z" fill="#e1e2db" stroke-width="1"/><path d="M385.05274,65.54815c-3.01054,-6.47841 -3.04864,-13.47008 1.37563,-15.52605c4.42427,-2.05597 13.44238,3.14048 16.45291,9.61889c3.01054,6.47841 1.86446,13.39687 -2.55981,15.45284c-4.42428,2.05597 -12.25821,-3.06728 -15.26874,-9.54569z" fill="#3a2f41" stroke-width="2"/></g><path d="M376.69789,25.75256c6.46043,-4.40574 21.5,15.5 21.5,15.5" data-paper-data="{&quot;index&quot;:null}" fill="none" stroke="#8c9ca0" stroke-width="1.5" stroke-linecap="round"/></g><g data-paper-data="{&quot;index&quot;:null}"><g stroke-linecap="butt"><path d="M297.39157,151.42644c16.22285,-13.90874 30.33834,-30.05378 30.33834,-30.05378l20.64363,-1.03792l-0.08857,22.13443l-23.68404,29.47984c0,0 18.2659,8.56903 16.07359,11.8795c-0.31924,0.31007 -26.18283,46.26201 -26.18283,46.26201l-18.11282,-0.03609l-23.0283,-56.97438z" data-paper-data="{&quot;index&quot;:null}" fill="#9aac9c" stroke="none" stroke-width="0"/><path d="M297.39157,151.4264c16.22285,-13.90873 30.33834,-30.05377 30.33834,-30.05377l20.64363,-1.03792l-0.08857,22.13443l-17.20267,21.41239c0,0 -35.3148,4.76447 -57.63115,9.44728l-0.10056,-0.2488z" data-paper-data="{&quot;index&quot;:null}" fill="#7b828c" stroke="none" stroke-width="0"/><path d="M297.39158,151.4264c16.22285,-13.90873 30.33834,-30.05377 30.33834,-30.05377l20.64363,-1.03792l-0.08857,22.13443l-23.68404,29.47984c0,0 18.2659,8.56903 16.07359,11.8795c-0.31924,0.31007 -26.18283,46.26201 -26.18283,46.26201l-18.11282,-0.03609l-23.0283,-56.97438z" data-paper-data="{&quot;index&quot;:null}" fill="none" stroke="#3a2f41" stroke-width="2"/></g><g data-paper-data="{&quot;index&quot;:null}" stroke="#3a2f41" stroke-width="2"><path d="M344.99295,196.53975c0,0 -17.77081,20.46026 -25.56256,32.59893c-0.51635,0.8044 -11.2361,-2.76199 -14.3067,-5.41151c-2.84412,-2.4541 8.07152,-30.31242 8.07152,-30.31242c0,0 16.68543,-14.64136 20.73806,-13.54923c4.2281,1.13942 11.05969,16.67422 11.05969,16.67422z" fill="#e1e2db" stroke-linecap="butt"/><path d="M320.79535,187.89668l16.69632,15.57215" fill="none" stroke-linecap="round"/></g></g><g data-paper-data="{&quot;index&quot;:null}" stroke-linecap="butt"><path d="M404.11309,388.677l-5.33911,-33.83061l43.99763,-9.59098l61.20087,78.50923z" data-paper-data="{&quot;index&quot;:null}" fill="#e1e2db" stroke="#3a2f41" stroke-width="2.5"/><g data-paper-data="{&quot;index&quot;:null}"><g><path d="M401.49588,342.1194l-20.33988,-79.10224l27.27747,-6.44011l20.33988,79.10225z" fill="#e1e2db" stroke="none" stroke-width="0"/><path d="M386.10086,280.24611l-4.47186,-17.39116l27.27748,-6.44011l4.31531,17.665z" fill="#626171" stroke="none" stroke-width="0"/><path d="M401.96884,341.95717l-20.33988,-79.10225l27.27748,-6.4401l20.33988,79.10224z" fill="#e1e2db" stroke="#3a2f41" stroke-width="2.5"/></g><path d="M444.675,341.19384c0,0 -5.48543,7.7922 -21.67368,12.21007c-18.89326,5.15609 -27.1077,1.90689 -27.1077,1.90689c0,0 -1.61044,-1.21483 -2.78675,-4.48966c-0.34962,-0.97329 0.49531,-3.40914 0.07514,-4.39284c-0.97993,-2.29428 -2.37463,-2.93922 -2.56382,-4.35381c-0.3461,-2.58713 3.28916,-7.23807 3.28916,-7.23807l43.21047,-10.35973c0,0 4.29494,0.15257 5.16128,4.20296c0.79741,3.72803 -0.11961,3.95882 0.18846,5.20493c0.38267,1.54781 3.10837,3.5479 2.20738,7.30928z" fill="#e1e2db" stroke="#3a2f41" stroke-width="2.5"/></g><path d="M450.67825,355.39812l23.51125,30.16053l-30.75658,16.93418l-26.27033,-9.23062z" data-paper-data="{&quot;index&quot;:null}" fill="#3a2f41" stroke="#3a2f41" stroke-width="2.5"/></g><g data-paper-data="{&quot;index&quot;:null}" stroke-linecap="butt"><path d="M244.02758,407.03106l76,-54l45,-1.66667l4,37z" fill="#e1e2db" stroke="#3a2f41" stroke-width="2.5"/><g><g><path d="M330.72995,342.4569l0.0025,-81.67543l28.02191,-0.55492l-0.0025,81.67543z" fill="#7c7984" stroke="none" stroke-width="0"/><path d="M330.45322,278.92528l-0.21925,-18.18313l28.02192,-0.55492l-0.00055,17.95689z" fill="#626171" stroke="none" stroke-width="0"/><path d="M330.2315,342.41767l0.0025,-81.67543l28.02192,-0.55493l-0.0025,81.67543z" fill="#e1e2db" stroke="#3a2f41" stroke-width="2.5"/></g><path d="M316.70238,351.75741c-1.80921,-3.41855 0.33261,-6.03436 0.31782,-7.6287c-0.01192,-1.28357 -0.95752,-1.27874 -1.11352,-5.08791c-0.16951,-4.13854 3.95216,-5.35576 3.95216,-5.35576l44.42906,-0.72613c0,0 4.67886,3.59926 4.98787,6.19108c0.169,1.41715 -1.02118,2.38906 -1.39896,4.85508c-0.16199,1.05734 1.26287,3.20608 1.16661,4.23577c-0.32381,3.46459 -1.58103,5.04216 -1.58103,5.04216c0,0 -7.14664,5.19228 -26.7287,4.90308c-16.77843,-0.24779 -24.03136,-6.42866 -24.03136,-6.42866z" fill="#e1e2db" stroke="#3a2f41" stroke-width="2.5"/></g><path d="M289.68394,374.59098l23.50299,-16.69949l32.09515,34.01887l-32.86444,4.90776z" fill="#3a2f41" stroke="#3a2f41" stroke-width="2.5"/></g><g data-paper-data="{&quot;index&quot;:null}"><g stroke-linecap="round"><path d="M447.35904,283.83736c0,0 -29.02452,18.68913 -87.46199,15.63674c-74.38111,-3.88518 -78.10702,-27.98302 -78.10702,-27.98302c0,0 17.16336,-33.70176 26.5093,-47.36287c9.07411,-13.26378 28.77489,-33.44697 28.77489,-33.44697c0,0 48.12254,-1.40787 58.97089,-1.29201c4.13434,0.04417 4.31494,1.26275 4.31494,1.26275c0,0 17.75152,27.11967 24.09255,40.8307c4.02987,8.71363 12.33048,22.34611 16.44872,33.84171c3.70819,10.35099 6.45773,18.51298 6.45773,18.51298z" fill="#3a2f41" stroke="none" stroke-width="0.5"/><path d="M406.38327,199.30922l-9.88465,-0.81915c0,0 -31.14399,7.03035 -39.74353,7.15222c-10.42218,0.1477 -24.94832,-8.06749 -24.94832,-8.06749" fill="none" stroke="#e1e2db" stroke-width="1.5"/><path d="M400.61008,191.02733c29.88044,43.24736 47.13867,92.48974 47.13867,92.48974c0,0 -28.22241,19.66049 -94.86606,15.63676c-66.64365,-4.02372 -71.09264,-27.66271 -71.09264,-27.66271c0,0 11.51274,-25.60667 27.56129,-49.00925c10.45647,-15.248 29.47291,-34.05251 29.47291,-34.05251z" fill="none" stroke="#3a2f41" stroke-width="2.5"/></g><path d="M409.75015,264.27967c6.64485,-1.0088 13.35446,3.08338 14.98634,9.14013c1.63189,6.05675 -2.43193,11.78449 -9.07678,12.79329c-6.64485,1.0088 -13.35446,-3.08338 -14.98634,-9.14013c-1.63189,-6.05675 2.43193,-11.78449 9.07678,-12.79329z" fill="#e1e2db" stroke="#3a2f41" stroke-width="2" stroke-linecap="butt"/><path d="M422.20077,243.74235c3.70962,-0.83797 7.96117,1.58659 9.49614,5.4154c1.53496,3.82881 -0.22793,7.61199 -3.93753,8.44996c-3.70962,0.83797 -7.96117,-1.58659 -9.49614,-5.4154c-1.53496,-3.82881 0.22793,-7.61199 3.93753,-8.44996z" fill="#e1e2db" stroke="#3a2f41" stroke-width="2" stroke-linecap="butt"/><path d="M389.61591,251.33315c2.74404,0 4.96852,1.76801 4.96852,3.94897c0,2.18094 -2.22448,3.94897 -4.96852,3.94897c-2.74404,0 -4.96852,-1.76801 -4.96852,-3.94897c0,-2.18095 2.22448,-3.94897 4.96852,-3.94897z" fill="#e1e2db" stroke="#3a2f41" stroke-width="2" stroke-linecap="butt"/><path d="M302.52069,258.35355c7.26362,0 13.15196,5.1076 13.15196,11.40814c0,6.30053 -5.88834,11.40813 -13.15196,11.40813c-7.26362,0 -13.15196,-5.10759 -13.15196,-11.40813c0,-6.30054 5.88834,-11.40814 13.15196,-11.40814z" fill="#e1e2db" stroke="#3a2f41" stroke-width="2" stroke-linecap="butt"/></g><g data-paper-data="{&quot;index&quot;:null}"><g><path d="M331.69835,111.07206c0,-1.12536 6.68967,-20.69263 6.68967,-20.69263l12.95188,7.70476c0,0 0.65502,-4.07056 2.09699,-5.73821c1.61265,-1.86505 4.62427,-2.92627 4.62427,-2.92627c0,0 -0.80622,4.74985 6.24613,6.04925c6.66699,1.2284 22.14105,-4.89691 22.14105,-4.89691l2.27293,8.67443l15.07095,-4.73292c0,0 -2.59388,15.14262 -2.59388,18.05849c0,9.38884 -18.66267,15.5 -36.75,15.5c-18.08733,0 -32.75,-7.61116 -32.75,-17z" fill="#e1e2db" stroke="#3a2f41" stroke-width="2" stroke-linecap="butt"/><g data-paper-data="{&quot;index&quot;:null}"><path d="M401.90501,144.29494c-2.02806,-0.26308 -4.02357,-0.37293 -5.54724,-0.51449c-17.54065,-1.62965 -36.44949,-2.45728 -53.96332,-3.46141c-2.10568,-0.12072 -4.24317,-0.23759 -6.40164,-0.35189c-0.92203,-11.9613 -2.97765,-21.62059 7.97346,-30.45136c8.49364,-6.84912 19.10526,-6.83349 29.14902,-6.23904c9.15453,0.54183 29.48825,9.12366 30.80188,12.90314c3.18921,9.17579 1.02138,19.25238 -2.01217,28.11506z" fill="#b8c1c0" stroke="#3a2f41" stroke-width="2" stroke-linecap="butt"/><g><path d="M355.53302,105.20804c-0.46104,-0.31837 2.60975,-4.46045 3.07819,-4.77238c0.18618,-0.05123 0.48331,-0.40014 1.13336,0.09294c2.96862,2.25173 9.75537,8.81409 9.75537,8.81409l-10.70405,7.57817z" data-paper-data="{&quot;index&quot;:null}" fill="#8c9ca0" stroke="#3a2f41" stroke-width="4.5" stroke-linecap="round"/><path d="M369.52629,109.38381c0,0 -8.08366,-7.89378 -4.52748,-9.52367c4.23114,-1.93924 20.28837,2.3046 21.30758,1.90543c1.05917,-1.56274 2.7909,4.24501 2.77309,5.56815c-1.06264,2.62177 -11.43981,10.86322 -11.43981,10.86322z" fill="#3a2f41" stroke="#3a2f41" stroke-width="4.5" stroke-linecap="round"/><path d="M357.51263,104.90537c0.02874,-0.45615 1.33108,-4.06876 2.38695,-4.468c0.629,-0.52812 12.05313,-4.95877 13.57976,-4.63872c2.41309,0.5059 12.08009,5.34092 13.04854,6.28416c0.53708,0.28815 0.58303,3.42142 0.53939,4.69568" fill="none" stroke="#3a2f41" stroke-width="6.5" stroke-linecap="butt"/><g><path d="M355.53302,105.20804c-0.46104,-0.31837 2.60975,-4.46045 3.07819,-4.77238c0.18618,-0.05123 0.48331,-0.40014 1.13336,0.09294c2.96861,2.25173 9.75537,8.81409 9.75537,8.81409l-10.70405,7.57817z" data-paper-data="{&quot;index&quot;:null}" fill="#b8c1c0" stroke="#12161a" stroke-width="0" stroke-linecap="round"/><path d="M369.52629,109.3838c0,0 14.90425,-6.88357 16.78009,-7.61824c1.05917,-1.56273 2.7909,4.24502 2.77309,5.56816c-1.06265,2.62177 -11.43982,10.86322 -11.43982,10.86322z" fill="#b8c1c0" stroke="#12161a" stroke-width="0" stroke-linecap="round"/><path d="M357.51263,104.90537c0.02874,-0.45615 1.33108,-4.06876 2.38695,-4.468c0.629,-0.52812 12.05313,-4.95877 13.57976,-4.63872c2.41309,0.5059 12.08009,5.34092 13.04854,6.28416c0.53708,0.28815 0.58303,3.42142 0.53939,4.69568" fill="none" stroke="#b8c1c0" stroke-width="2" stroke-linecap="butt"/></g></g></g><g data-paper-data="{&quot;index&quot;:null}"><g><path d="M335.55739,178.56887l4.14162,-4.67767c0,0 -0.43556,-6.39296 -0.88204,-14.96908c-0.75415,-14.48545 -5.42966,-25.66625 1.27097,-36.40492c4.19725,5.46599 13.47062,8.36367 19.36038,7.05484c4.64295,-1.03177 8.42279,-2.83519 13.19827,-3.17457c3.63739,-0.2585 7.70129,-0.83155 11.30173,-1.32543c0.4927,0 0.97708,-0.03563 1.4507,-0.10446c4.83535,-0.70269 8.5493,-4.86539 8.5493,-9.89554c0,-0.00933 -0.00002,-0.01865 -0.00004,-0.02797c4.51675,2.04055 7.96631,4.1915 8.55442,5.74909c7.69981,20.39301 -7.4274,46.71517 -5.83132,54.77552c0.12148,0.61342 3.13487,9.1328 3.13487,9.1328l-1.39813,1.83043l0.83798,2.9901c0,0 -4.17645,2.66568 -5.51452,2.71221c-1.58884,0.05526 -5.62175,-1.4088 -7.07898,-0.81572c-2.52746,1.02863 -24.81907,6.77364 -31.94267,6.47877c-9.14957,-0.37873 -19.24764,-10.06016 -19.24764,-10.06016c-0.26234,-0.305 0.11497,-2.88913 0.11497,-2.88913l-1.38142,-3.12807l2.64648,-1.45951z" fill="#9aac9c" stroke="#3a2f41" stroke-width="2" stroke-linecap="round"/><g stroke="none"><g fill="#9aac9c" stroke-width="0" stroke-linecap="round"><g><g><path d="M331.49034,132.2923c2.85998,-3.95203 6.25439,-7.42926 8.6567,-9.69875c4.22464,5.41659 13.43901,8.28121 19.30128,6.97848c4.64295,-1.03177 8.42279,-2.83519 13.19827,-3.17457c3.63739,-0.2585 7.70129,-0.83155 11.30173,-1.32543c0.4927,0 0.97708,-0.03563 1.4507,-0.10446c1.62466,-0.2361 3.12271,-0.86282 4.39583,-1.7818l4.5327,0.32634c0,0 2.03186,1.97619 4.77947,6.48694c0.46305,0.76018 0.8862,1.57635 1.26828,2.4263c2.37803,5.29003 3.16464,11.888 2.07362,14.4346c-1.01216,3.39107 -2.3278,6.85901 -6.38197,9.58051c-2.97672,1.9982 -6.41645,2.29065 -9.795,2.84902c-6.43611,1.06365 -14.50449,-0.30435 -22.71939,-0.95845c-7.8135,-0.62214 -17.68775,3.22502 -23.35125,1.22523c-2.74767,-0.9702 -1.99662,-0.94165 -4.63095,-3.26957c-5.7081,-5.0442 -9.45636,-16.29585 -8.8768,-16.93037c0.69721,-2.70972 3.09551,-4.71316 4.79677,-7.06402z"/></g></g></g><g stroke-linecap="butt"><g><g fill="none" stroke-width="1" font-family="sans-serif" font-weight="normal" font-size="12" text-anchor="start"/><path d="M394.19199,126.33126c0,-0.27067 -1.46154,-2.14721 -3.07299,-4.28915c0.30566,-0.3144 0.59082,-0.64883 0.85332,-1.00114c1.54293,2.05454 4.03331,5.42063 4.72973,6.65574c1.11659,1.98025 -2.51007,-1.01681 -2.51007,-1.36549z" fill="#ffffff" stroke-width="0"/><path d="M396.60135,124.68529c-1.64779,-1.62191 -3.24689,-3.05243 -4.36252,-4.01973c0.16334,-0.24163 0.31641,-0.49079 0.45855,-0.74684c2.22041,2.5082 4.15747,5.0161 3.90396,4.76657z" fill="#ffffff" stroke-width="0"/></g><path d="M340.07198,122.49637c0.25056,0.32771 0.51936,0.64621 0.8046,0.95516c-0.14807,0.13032 -0.23648,0.22414 -0.25289,0.27459c-0.10859,0.33374 -4.51333,2.22669 -2.82783,0.63162c0.43647,-0.41306 1.28336,-1.09453 2.27612,-1.86137z" data-paper-data="{&quot;index&quot;:null}" fill="#ffffff" stroke-width="0"/></g></g><path d="M402.50268,120.79318c0.91818,2.43181 1.51176,4.94793 1.84781,7.50736c-0.1578,0.95243 -68.88079,26.20242 -68.88079,26.20242l-9.75159,-15.32541c0,0 8.85942,-10.50991 14.23433,-16.84007c4.13009,5.58202 13.54188,8.55768 19.49586,7.23457c4.64295,-1.03177 8.42279,-2.83519 13.19827,-3.17457c3.63739,-0.2585 7.70129,-0.83155 11.30173,-1.32543c0.4927,0 0.97708,-0.03563 1.4507,-0.10446c4.83535,-0.70269 8.5493,-4.86539 8.5493,-9.89554c0,-0.00932 -0.00002,-0.01865 -0.00004,-0.02796c4.51674,2.04055 7.9663,4.1915 8.55441,5.74909z" fill="#7b828c" stroke="none" stroke-width="0" stroke-linecap="butt"/><g stroke="none"><g fill="#7b828c" stroke-width="0" stroke-linecap="round"><g><g><path d="M326.69358,138.01854c5.28443,-5.82298 10.40737,-11.9466 13.36356,-15.54164c4.18252,5.49204 13.48698,8.40719 19.39119,7.09514c4.64295,-1.03177 8.42279,-2.83519 13.19827,-3.17457c3.63739,-0.2585 7.70129,-0.83155 11.30173,-1.32543c0.4927,0 0.97708,-0.03563 1.4507,-0.10446c1.64689,-0.23933 3.16368,-0.88004 4.44797,-1.81969l4.48056,0.36422l4.77947,6.48693l-65.93666,23.84475c0,0 -2.65379,-5.08416 -3.58606,-7.66887c-1.28902,-3.57374 -3.38713,-6.22714 -2.89074,-8.15637z"/></g></g></g><g fill="none" stroke-width="1" stroke-linecap="butt" font-family="sans-serif" font-weight="normal" font-size="12" text-anchor="start"><g><g/></g></g></g><path d="M393.94829,115.04406c4.51675,2.04054 7.96632,4.19149 8.55443,5.74909c5.31653,14.08089 -0.24989,30.98853 -3.6797,42.75954c-1.5375,5.27665 -2.64564,9.5211 -2.15162,12.01597c0.12148,0.61342 3.13487,9.1328 3.13487,9.1328l-1.39813,1.83043l0.83798,2.9901c0,0 -4.17645,2.66568 -5.51452,2.71221c-1.58884,0.05526 -5.62175,-1.40881 -7.07898,-0.81573c-2.52746,1.02863 -24.81907,6.77364 -31.94267,6.47877c-9.14957,-0.37873 -19.24764,-10.06016 -19.24764,-10.06016c-0.26234,-0.305 0.11497,-2.88913 0.11497,-2.88913l-1.38142,-3.12807l2.64648,-1.45951l-1.28493,-1.79149l4.14162,-4.67768c0,0 -0.27181,-3.98954 -0.6061,-9.89327" fill="none" stroke="#3a2f41" stroke-width="2" stroke-linecap="round"/><g fill="none" stroke="none" stroke-width="1" stroke-linecap="butt" font-family="sans-serif" font-weight="normal" font-size="12" text-anchor="start"><g/></g></g><g fill="none"><g stroke="none" stroke-width="1" stroke-linecap="butt" font-family="sans-serif" font-weight="normal" font-size="12" text-anchor="start"><g><g/></g></g><g stroke="#3a2f41" stroke-width="2" stroke-linecap="round"><g><g><path d="M339.41855,159.90523c-9.39672,-7.91464 -13.07948,-20.87326 -13.07948,-20.87326c0,0 6.13205,-8.64317 13.5738,-16.74829"/></g></g></g></g></g><path d="M379.41157,105.79814c0,0 0.12485,9.5857 1.09379,8.36724c3.03343,-3.81458 7.81189,-8.66968 12.90606,-10.10891c10.80791,-3.05351 23.03692,0.51555 23.03692,0.51555l-8.25,8c0,0 11.03711,6.0383 14.17443,19.10731c0.09565,0.39845 -14.52376,0.89269 -19.42443,2.89269c-0.27687,0.113 1.48735,2.68858 1.79613,5.549c0.2728,2.52707 -0.91962,5.38621 -0.91962,5.38621l-26.44184,-11.37454l-0.19652,4.46863l-13.98815,-9.52929z" fill="#e1e2db" stroke="#3a2f41" stroke-width="2" stroke-linecap="butt"/><path d="M363.73143,128.66946l-12.8419,7.20794l0.42728,-4.44383l-23.39853,7.06931c0,0 -0.60995,-3.01122 -0.05038,-5.46382c0.63338,-2.77612 2.43441,-5.0418 2.22005,-5.19697c-3.79421,-2.74668 -15.8354,-5.53664 -15.70358,-5.91505c4.32361,-12.412 14.26079,-16.63716 14.26079,-16.63716l-5.77561,-9.1992c0,0 10.59818,-1.59904 19.14512,3.11812c4.02849,2.22337 7.34453,7.77029 9.35287,12.01492c0.64151,1.35582 2.01055,-8.09065 2.01055,-8.09065z" data-paper-data="{&quot;index&quot;:null}" fill="#e1e2db" stroke="#3a2f41" stroke-width="2" stroke-linecap="butt"/></g><path d="M359.19833,197.32203l-2.47133,-10.42246l3.85996,-8.43598l2.11137,-50.14156" fill="none" stroke="#3a2f41" stroke-width="2" stroke-linecap="round"/><path d="M354.19833,141.32203l9.5,-11v14.5z" fill="#b8c1c0" stroke="#3a2f41" stroke-width="2" stroke-linecap="butt"/></g><g stroke="#3a2f41" stroke-width="2"><path d="M467.78149,186.52659l-33.27309,51.66511l-17.80026,-3.35054c0,0 -16.81742,-49.9768 -17.07307,-50.34108c-1.5348,-3.66195 18.01098,-8.6653 18.01098,-8.6653l-17.75558,-33.38763l4.05079,-21.76079l20.08568,4.87873c0,0 10.84851,18.49916 24.18528,35.1954z" data-paper-data="{&quot;index&quot;:null}" fill="#9aac9c" stroke-linecap="butt"/><g data-paper-data="{&quot;index&quot;:null}"><path d="M411.03443,234.31618c-5.38519,-13.38127 -19.0179,-36.80291 -19.0179,-36.80291c0,0 9.61522,-13.98385 13.98179,-14.31278c4.18535,-0.31528 17.8396,17.18713 17.8396,17.18713c0,0 5.5154,29.40778 2.26264,31.28694c-3.51176,2.02879 -14.70925,3.52837 -15.06612,2.64162z" fill="#e1e2db" stroke-linecap="butt"/><path d="M417.40331,193.54606l-19.31304,12.17643" fill="none" stroke-linecap="round"/></g></g><g data-paper-data="{&quot;index&quot;:null}"><g fill="#e1e2db" stroke="#3a2f41" stroke-width="2" stroke-linecap="butt"><path d="M-37.71013,116.77186l-36.9155,9.10887l11.95581,-21.20994l-28.642,-0.65767l22.54394,-19.68971l-20.30239,-24.25732l67.31133,12.31852l17.26314,-12.36754l-7.8947,38.31788l10.6986,19.71438l-18.26967,17.5957z"/><path d="M-31.56766,139.41497l-15.60868,-19.1001l38.20019,-31.21735l15.60868,19.1001z"/></g><g stroke-width="2.5"><path d="M49.45298,96.73637c3.98501,3.28304 -1.09684,26.06464 -1.09684,26.06464c0,0 -12.90792,53.72597 -27.04397,55.53252c-22.48341,2.87334 -54.18712,-35.32671 -63.49574,-42.25733c-4.99458,-4.11479 41.71632,-42.65351 46.44258,-41.17768c3.10973,2.96551 18.22518,30.59792 18.22518,30.59792c0,0 6.38484,-12.186 13.34834,-20.92937c4.93988,-6.20252 10.17097,-10.67256 13.62045,-7.83071z" fill="#3a2f41" stroke="#3a2f41" stroke-linecap="butt"/><path d="M-34.93857,141.58963l43,-39.33334" fill="none" stroke="#8c9ca0" stroke-linecap="round"/></g></g><g stroke-linecap="butt"><path d="M109.22543,378.9445l-5.33911,-33.83061l43.99763,-9.59098l61.20087,78.50923z" data-paper-data="{&quot;index&quot;:null}" fill="#3a2f41" stroke="#3a2f41" stroke-width="2.5"/><g data-paper-data="{&quot;index&quot;:null}"><g><path d="M106.60822,332.38689l-20.33988,-79.10224l27.27747,-6.44011l20.33988,79.10225z" fill="#7c7984" stroke="none" stroke-width="0"/><path d="M91.21318,270.51361l-4.47186,-17.39116l27.27748,-6.44011l4.31531,17.665z" fill="#626171" stroke="none" stroke-width="0"/><path d="M107.08118,332.2247l-20.33988,-79.10225l27.27748,-6.4401l20.33988,79.10224z" fill="none" stroke="#3a2f41" stroke-width="2.5"/></g><path d="M149.7873,331.46137c0,0 -5.48543,7.7922 -21.67368,12.21007c-18.89326,5.15609 -27.1077,1.90689 -27.1077,1.90689c0,0 -1.61044,-1.21483 -2.78675,-4.48966c-0.34962,-0.97329 0.49531,-3.40914 0.07514,-4.39284c-0.97993,-2.29428 -2.37463,-2.93922 -2.56382,-4.35381c-0.3461,-2.58713 3.28916,-7.23807 3.28916,-7.23807l43.21047,-10.35973c0,0 4.29494,0.15257 5.16128,4.20296c0.79741,3.72803 -0.11961,3.95882 0.18846,5.20493c0.38267,1.54781 3.10837,3.5479 2.20738,7.30928z" fill="#e1e2db" stroke="#3a2f41" stroke-width="2.5"/></g><path d="M155.79059,345.66561l23.51125,30.16053l-30.75658,16.93418l-26.27033,-9.23062z" data-paper-data="{&quot;index&quot;:null}" fill="#e1e2db" stroke="#3a2f41" stroke-width="2.5"/></g><g stroke-linecap="butt"><path d="M-50.8601,397.29856l76,-54l45,-1.66667l4,37z" fill="#3a2f41" stroke="#3a2f41" stroke-width="2.5"/><g><g><path d="M35.84228,332.72444l0.0025,-81.67543l28.02191,-0.55492l-0.0025,81.67543z" fill="#7c7984" stroke="none" stroke-width="0"/><path d="M35.56557,269.19287l-0.21925,-18.18313l28.02192,-0.55492l-0.00055,17.95689z" fill="#626171" stroke="none" stroke-width="0"/><path d="M35.34382,332.68517l0.0025,-81.67543l28.02192,-0.55493l-0.0025,81.67543z" fill="none" stroke="#3a2f41" stroke-width="2.5"/></g><path d="M21.81471,342.02491c-1.80921,-3.41855 0.33261,-6.03436 0.31782,-7.6287c-0.01192,-1.28357 -0.95752,-1.27874 -1.11352,-5.08791c-0.16951,-4.13854 3.95216,-5.35576 3.95216,-5.35576l44.42906,-0.72613c0,0 4.67886,3.59926 4.98787,6.19108c0.169,1.41715 -1.02118,2.38906 -1.39896,4.85508c-0.16199,1.05734 1.26287,3.20608 1.16661,4.23577c-0.32381,3.46459 -1.58103,5.04216 -1.58103,5.04216c0,0 -7.14664,5.19228 -26.7287,4.90308c-16.77843,-0.24779 -24.03136,-6.42866 -24.03136,-6.42866z" fill="#e1e2db" stroke="#3a2f41" stroke-width="2.5"/></g><path d="M-5.20373,364.85849l23.50299,-16.69949l32.09515,34.01887l-32.86444,4.90776z" fill="#e1e2db" stroke="#3a2f41" stroke-width="2.5"/></g><g data-paper-data="{&quot;index&quot;:null}" stroke="#3a2f41" stroke-width="2"><path d="M14.5793,251.46361l17.4026,-61.51693l38.28572,3.59515l-0.87013,63.00614z" data-paper-data="{&quot;index&quot;:null}" fill="#e1e2db" stroke-linecap="butt"/><path d="M44.68253,194.58964l-3.6143,20.5l-14.97354,1.5" fill="none" stroke-linecap="round"/><path d="M41.06822,196.58964l-2.58164,15l-11.35923,1" fill="none" stroke-linecap="round"/></g><g stroke="#3a2f41" stroke-width="2"><path d="M72.89833,258.10337l-5.87449,-62.73783l38.24033,-6.6501l22.39237,59.92924z" data-paper-data="{&quot;index&quot;:null}" fill="#e1e2db" stroke-linecap="butt"/><path d="M113.30209,214.80285l-15.18635,-0.29605l-5.26342,-20.14591" fill="none" stroke-linecap="round"/><path d="M111.94562,210.89817l-11.50973,-0.08709l-3.78791,-14.74595" fill="none" stroke-linecap="round"/></g><g stroke-linecap="butt"><path d="M55.34229,207.65622l2.79622,-17.97572h26.3644v21.17141z" fill="#8c9ca0" stroke="#3a2f41" stroke-width="2"/><path d="M55.74174,205.25945l2.79622,-17.97572h26.3644v21.17141z" fill="#e1e2db" stroke="#e1e2db" stroke-width="3.5"/></g><g><path d="M121.26211,103.18569c-0.37978,6.02781 -19.93786,9.70145 -43.68418,8.20531c-23.74632,-1.49614 -42.68865,-7.5955 -42.30887,-13.62331c0.37978,-6.02781 19.93786,-9.70145 43.68418,-8.20531c23.74632,1.49614 42.68865,7.5955 42.30887,13.62331z" fill="#3a2f41" stroke="#3a2f41" stroke-width="2.5" stroke-linecap="butt"/><g data-paper-data="{&quot;index&quot;:null}"><path d="M107.85149,133.06241c-2.02806,-0.26308 -4.02357,-0.37293 -5.54724,-0.51449c-17.54065,-1.62965 -36.44949,-2.45728 -53.96332,-3.46141c-2.10568,-0.12072 -4.24317,-0.23759 -6.40164,-0.35189c-0.92203,-11.9613 -2.97765,-21.62059 7.97346,-30.45136c8.49364,-6.84912 19.10526,-6.83349 29.14902,-6.23904c9.15453,0.54183 29.48825,9.12366 30.80188,12.90314c3.18921,9.17579 1.02138,19.25238 -2.01217,28.11506z" fill="#8c9ca0" stroke="#3a2f41" stroke-width="2" stroke-linecap="butt"/><g><path d="M61.47948,93.97556c-0.46104,-0.31837 2.60975,-4.46045 3.07819,-4.77238c0.18618,-0.05123 0.48331,-0.40014 1.13336,0.09294c2.96862,2.25173 9.75537,8.81409 9.75537,8.81409l-10.70405,7.57817z" data-paper-data="{&quot;index&quot;:null}" fill="#8c9ca0" stroke="#3a2f41" stroke-width="4.5" stroke-linecap="round"/><path d="M75.47275,98.15135c0,0 -8.08366,-7.89378 -4.52748,-9.52367c4.23114,-1.93924 20.28837,2.3046 21.30758,1.90543c1.05917,-1.56274 2.7909,4.24501 2.77309,5.56815c-1.06264,2.62177 -11.43981,10.86322 -11.43981,10.86322z" fill="#3a2f41" stroke="#3a2f41" stroke-width="4.5" stroke-linecap="round"/><path d="M63.4591,93.67287c0.02874,-0.45615 1.33108,-4.06876 2.38695,-4.468c0.629,-0.52812 12.05313,-4.95877 13.57976,-4.63872c2.41309,0.5059 12.08009,5.34092 13.04854,6.28416c0.53708,0.28815 0.58303,3.42142 0.53939,4.69568" fill="none" stroke="#3a2f41" stroke-width="6.5" stroke-linecap="butt"/><g><path d="M61.47948,93.97555c-0.46104,-0.31837 2.60975,-4.46045 3.07819,-4.77238c0.18618,-0.05123 0.48331,-0.40014 1.13336,0.09294c2.96861,2.25173 9.75537,8.81409 9.75537,8.81409l-10.70405,7.57817z" data-paper-data="{&quot;index&quot;:null}" fill="#8c9ca0" stroke="#12161a" stroke-width="0" stroke-linecap="round"/><path d="M75.47275,98.15134c0,0 14.90425,-6.88357 16.78009,-7.61824c1.05917,-1.56273 2.7909,4.24502 2.77309,5.56816c-1.06265,2.62177 -11.43982,10.86322 -11.43982,10.86322z" fill="#8c9ca0" stroke="#12161a" stroke-width="0" stroke-linecap="round"/><path d="M63.4591,93.67287c0.02874,-0.45615 1.33108,-4.06876 2.38695,-4.468c0.629,-0.52812 12.05313,-4.95877 13.57976,-4.63872c2.41309,0.5059 12.08009,5.34092 13.04854,6.28416c0.53708,0.28815 0.58303,3.42142 0.53939,4.69568" fill="none" stroke="#8c9ca0" stroke-width="2" stroke-linecap="butt"/></g></g></g><path d="M113.61691,122.50276c-17.79391,-1.12111 -48.84202,4.01784 -48.39676,-3.04924c0.20656,-3.27843 11.76001,-6.18436 20.56816,-10.60529c10.17896,-5.10896 16.6627,-11.60918 26.20198,-11.00815c17.79391,1.12111 12.63763,25.35645 1.62661,24.6627z" fill="#3a2f41" stroke="#3a2f41" stroke-width="2.5" stroke-linecap="butt"/><path d="M44.0169,93.42159c3.05611,0.19255 7.11863,7.95367 13.10287,14.48718c4.56896,4.98833 11.22264,8.53385 11.02986,11.5935c-0.44526,7.06709 -21.33176,2.81234 -31.96211,-2.39162c-6.19887,-3.03457 -3.50705,-24.40332 7.82938,-23.68906z" data-paper-data="{&quot;index&quot;:null}" fill="#3a2f41" stroke="#3a2f41" stroke-width="2.5" stroke-linecap="butt"/><path d="M27.45249,196.37849l1.81913,-7.55832l-5.85803,-15.60069l11.44092,-15.53197l4.51181,-42.92956l73.347,4.62123l-0.50869,81.96127z" fill="#3a2f41" stroke="#3a2f41" stroke-width="2.5" stroke-linecap="butt"/><path d="M56.50364,197.34641l0.97329,-6.96743l-10.17462,-17.05028l12.01165,-16.09887l4.51406,-42.54881c0,0 1.92057,1.00304 3.32348,1.15449c1.39941,0.15106 3.8189,-0.32663 3.8189,-0.32663l-4.25803,43.2989l-11.64138,15.02687l10.18368,16.11355l-2.00646,7.82315z" fill="#8c9ca0" stroke="#3a2f41" stroke-width="2" stroke-linecap="butt"/><path d="M32.85556,189.81088l60.79582,2.31905" fill="none" stroke="#3a2f41" stroke-width="2" stroke-linecap="round"/><path d="M42.15576,156.39039l42.99652,2.709" fill="none" stroke="#3a2f41" stroke-width="2" stroke-linecap="round"/></g><g><g fill="#e1e2db" stroke="#3a2f41" stroke-width="2" stroke-linecap="butt"><path d="M179.96159,142.97838l-18.26967,-17.5957l10.6986,-19.71438l-7.8947,-38.31787l17.26314,12.36754l67.31133,-12.31852l-20.30239,24.25732l22.54394,19.68971l-28.642,0.65767l11.95581,21.20994l-36.9155,-9.10888z"/><path d="M153.36745,115.53099l15.60868,-19.10009l38.20019,31.21736l-15.60868,19.10009z"/></g><g stroke-width="2.5"><path d="M137.51581,132.82969c0,0 15.11545,-27.63241 18.22518,-30.59792c4.72625,-1.47583 51.43716,37.06289 46.44257,41.17768c-9.30862,6.93062 -41.01232,45.13067 -63.49574,42.25733c-14.13605,-1.80656 -27.04397,-55.53252 -27.04397,-55.53252c0,0 -5.08186,-22.7816 -1.09684,-26.06464c8.31205,-6.84785 26.9688,28.76008 26.9688,28.76008z" fill="#3a2f41" stroke="#3a2f41" stroke-linecap="butt"/><path d="M194.93855,148.9229l-43,-39.33334" fill="none" stroke="#8c9ca0" stroke-linecap="round"/></g></g><path d="M33.21201,105.97943c-0.35782,1.73228 -0.18027,3.66514 0.13965,5.59668c0.98493,5.94659 5.25357,7.68017 5.25357,7.68017l-3.33333,38.33333l-12,16l2,5" fill="none" stroke="#8c9ca0" stroke-width="2" stroke-linecap="round"/><g><path d="M6.99352,-40.8443c0,0 34.88454,11.34027 57.21013,33.97374c13.23475,13.41728 -10.80945,4.06763 -21.64427,14.13066c-5.02913,4.6709 -21.73006,15.0288 -21.73006,15.0288z" data-paper-data="{&quot;index&quot;:null}" fill="#3a2f41" stroke="#3a2f41" stroke-width="2.5" stroke-linecap="butt"/><g stroke="#3a2f41" stroke-width="2.5" stroke-linecap="butt"><g fill="#3a2f41"><g><path d="M124.23117,62.59637c-18.12224,9.29807 -27.15193,14.30553 -43.80048,-3.32379c-16.64855,-17.62931 -31.91208,-41.04098 -14.46804,-51.55645c88.40236,-53.28999 126.53212,41.74957 126.53212,41.74957c0,0 -37.4597,-2.67403 -68.26361,13.13068z"/><path d="M66.69974,33.99153c6.89032,10.00653 10.56592,14.9801 -0.04091,25.03554c-4.5879,4.3494 3.44051,19.39705 -6.8873,20.67962c-32.21359,4.00047 -40.37173,-11.20403 -40.37173,-11.20403c0,0 10.05848,-0.03732 8.59108,-1.8761c-38.74562,-48.55154 21.51829,-88.43419 21.51829,-88.43419c0,0 5.47852,38.79018 17.19057,55.79914z"/><path d="M109.02992,34.54307c-6.97516,20.33731 -10.196,30.75989 -34.39605,29.23517c-24.20004,-1.52473 -53.10683,-3.35375 -47.45691,-24.13866c2.75054,-67.55139 60.58197,-77.93143 94.47596,-74.18224c26.82394,2.96715 47.72345,18.98097 47.72345,18.98097c0,0 -48.49019,15.53571 -60.34646,50.10475z"/></g><path d="M88.45314,82.85698c-10.24709,0.5374 -28.23846,-3.14232 -34.37268,-5.71784c-6.04215,-2.53686 -3.70784,-0.57524 -7.66525,-11.93818c-7.97513,-22.89901 -12.32002,-50.50704 7.89983,-52.9621c102.46953,-12.44177 100.13361,89.69725 100.13361,89.69725c0,0 -32.00782,-16.23683 -65.99551,-19.07914z"/></g><g fill="#8c9ca0"><g><path d="M192.49478,49.4657c0,0 -15.42099,-1.10082 -34.61063,2.28468c0.5079,-0.28773 1.00107,-0.57284 1.47281,-0.84116c1.21325,-0.56116 2.65773,-1.11893 3.74275,-1.88272l0.37903,-0.04098c0.1027,-0.00924 0.18613,-0.09223 0.19281,-0.19831c0.0055,-0.08728 -0.04249,-0.16556 -0.11577,-0.20286l-0.37023,-0.19885l-0.01085,0.0202c-1.97045,-1.53893 -4.73076,-2.69641 -6.8841,-4.01468c-0.35888,-0.11845 -0.52084,-0.27624 -0.72608,-0.50761c2.18313,0.83868 5.67709,-0.50389 7.75656,-0.65075c0.84809,-0.25292 3.44584,-0.24855 3.63463,-1.39421c0.15277,-0.92712 -1.73332,-1.67036 -1.5115,-2.44829c0.01294,-0.04537 1.58913,0.41747 1.78634,0.4383c0.86805,0.02436 1.16599,-0.59206 0.90623,-1.40771c-0.64758,-2.03354 -1.70974,-4.28548 -1.7826,-6.4309c1.41741,1.50596 5.68211,2.38838 7.47181,2.69214c0.22551,0.1579 1.19909,0.60522 1.44866,0.2352c0.27842,-0.41277 -0.7306,-1.26936 -0.86791,-1.6265c-0.63336,-1.64724 -1.06315,-4.02159 -1.16695,-5.77234c-0.9223,-2.75265 -1.70733,-5.69173 -2.80367,-8.43926c-0.33546,-1.50015 -0.87672,-2.9471 -1.42537,-4.38894c16.00746,16.14 23.48402,34.77556 23.48402,34.77556z"/><path d="M121.65291,-34.54266c26.82394,2.96715 47.72345,18.98098 47.72345,18.98098c0,0 -9.97656,3.19639 -21.98562,9.91556c-1.93358,-0.35336 -3.88367,-0.72391 -5.7717,-0.39008c-0.52699,0.48302 -0.84079,0.21677 -1.24379,0.68455c-0.12259,0.1423 -0.72384,-0.11745 -0.54062,-0.1588c1.38953,-0.31365 2.15305,-2.00558 3.33491,-3.61575c0.69155,-2.3037 5.93622,-5.90074 0.95607,-6.27291c-1.3891,-0.08752 -2.86691,-0.33493 -4.25601,-0.26586c-0.12785,0.00635 -1.41848,1.00942 -1.55338,0.74429c-0.24222,-0.47607 0.93426,-1.5419 1.17272,-1.88754c1.02129,-0.81633 3.91903,-2.7632 4.32891,-4.00745c0.27521,-0.83544 -1.59474,-1.92527 -2.24442,-1.98439c-0.99015,-0.06238 -1.98358,-0.154 -2.97522,-0.18479c-0.1743,-0.00541 -1.40748,0.3944 -1.4566,0.3444c-0.12954,-0.13185 0.35643,-0.11834 0.50584,-0.22714c0.37589,-0.2737 0.48638,-0.57091 0.29726,-1.00984c-0.07357,-0.17074 -0.22514,-0.30324 -0.41484,-0.39672c1.50536,-0.469 3.54275,-1.41029 2.86095,-1.99101c-0.79642,-0.67834 -2.68348,-0.49856 -3.68411,-0.79981c-0.77435,-0.72766 -2.06414,0.04959 -2.82174,-0.53509c-1.11931,-0.86384 -4.11735,-1.48033 -5.60784,-1.57434c-0.42406,-0.02675 -0.84814,-0.0529 -1.27214,-0.08055c-3.33859,-0.21776 0.21961,-0.20155 2.24485,-0.3149c0.14485,0.02898 0.29242,0.0493 0.44346,0.05882h0.00001v0v0v0l0.42421,0.02673c0.11714,0.00738 0.21808,-0.0816 0.22546,-0.19874c0.00738,-0.11714 -0.0816,-0.21808 -0.19874,-0.22546v0v0l-0.42421,-0.02673c-1.2331,-0.07776 -2.17828,-0.96443 -3.40806,-1.2126c-1.36112,-1.5435 -5.04758,-2.8661 -7.3249,-3.6557c0.90359,0.0771 1.79264,0.1643 2.66581,0.26089z"/></g><path d="M154.44866,101.93609c0,0 -9.55726,-4.84818 -23.77239,-9.70985c-0.72581,-1.44826 -1.58823,-2.8703 -2.10879,-4.3391c-0.72759,-1.00763 2.3772,1.1893 3.29466,0.57428c0.50193,-0.33648 -0.42706,-3.55729 -0.47749,-4.28556c-0.01093,-2.06465 -0.29463,-4.27145 -0.50137,-6.33589c-0.08768,-0.87557 -0.70389,-1.57098 -0.70429,-2.40707c-0.36166,-1.51603 -0.65865,-3.36749 -0.71882,-4.97936c0.35376,0.45331 0.9796,0.79504 1.41913,1.00987c1.77952,0.86976 3.47435,1.88452 5.18663,2.87986c2.56622,1.49173 5.39838,2.55735 7.98925,3.98763c0.28089,0.12002 1.86313,0.87584 2.07563,0.81301c0.73514,-0.21735 0.28417,-1.00215 0.15243,-1.41438c-0.5574,-1.74403 -0.31187,-3.6207 -0.71953,-5.40185c-0.00731,-0.13761 -0.01462,-0.27522 -0.02193,-0.41284c1.3896,1.42127 3.57842,2.32545 5.52572,3.199c3.65024,15.05752 3.38118,26.82227 3.38118,26.82227z"/></g></g><g data-paper-data="{&quot;index&quot;:null}" stroke-linecap="butt"><path d="M28.31678,44.23352c1.17842,-18.70351 15.70657,-39.92328 39.56883,-39.10101c36.27553,1.25 47.9069,25.83469 46.72848,44.53818c-1.17841,18.70349 -14.0035,33.97849 -45.29586,31.36131c-15.6288,-1.30713 -28.31508,-5.86191 -34.77335,-12.24351c-6.64363,-6.56479 -6.82564,-15.07089 -6.2281,-24.55497z" fill="#7c7984" stroke="none" stroke-width="0"/><path d="M28.31678,44.23352c1.17842,-18.70351 15.70657,-39.92328 39.56883,-39.10101c36.27553,1.25 47.9069,25.83469 46.72848,44.53818c-1.17841,18.70349 -30.06467,5.37209 -49.59324,3.99273c-19.53246,-1.37964 -37.88248,9.27361 -36.70407,-9.4299z" fill="#626171" stroke="none" stroke-width="0"/><path d="M82.66342,7.6229c24.6953,6.48335 32.92421,26.59629 31.92396,42.47198c-1.17841,18.70349 -14.0035,33.97849 -45.29586,31.36131c-16.66664,-1.39393 -28.59789,-6.02276 -34.92224,-13.10129c-5.70695,-6.38748 -6.63817,-14.82535 -6.0792,-23.69718h-0.00001c1.06189,-16.85398 11.59001,-45.49127 54.24288,-37.0851" fill="none" stroke="#3a2f41" stroke-width="2"/></g><path d="M31.98586,60.07461c-0.24018,0.82328 -9.59669,0.58238 -13.53867,-0.46965c-5.85041,-1.56133 -5.47433,-2.90952 -5.23414,-3.73279c0.24018,-0.82328 18.77281,4.20243 18.77281,4.20243z" data-paper-data="{&quot;index&quot;:null}" fill="#3a2f41" stroke="#8c9ca0" stroke-width="0.5" stroke-linecap="butt"/><path d="M49.03422,-49.78767l-11.24617,-26.54596l19.82854,7.4957l11.09384,-20.19417l16.66301,17.29977l18.15574,-13.80387l-3.44415,29.8793z" fill="#e1e2db" stroke="#3a2f41" stroke-width="2.5" stroke-linecap="butt"/><path d="M75.0165,5.36963c-0.04009,0.63631 -0.6764,0.59622 -0.6764,0.59622c-0.37707,-0.02376 -1.31976,-0.08315 -1.69683,-0.10691c-3.07509,-0.19375 -6.12233,-0.16268 -9.18028,0.01859c-3.05349,0.18099 -5.6584,1.034 -8.76115,0.83851c0,0 -0.63631,-0.04009 -0.59622,-0.6764c0.04009,-0.63631 0.6764,-0.59622 0.6764,-0.59622c3.04763,0.19202 5.60423,-0.64781 8.61451,-0.8393c3.10205,-0.19733 6.20745,-0.21434 9.32692,-0.0178c0.37707,0.02376 0.75414,0.04751 1.13122,0.07127l0.56561,0.03564c0,0 0.63631,0.04009 0.59622,0.6764z" fill="#3a2f41" stroke="#3a2f41" stroke-width="2.5" stroke-linecap="butt"/><path d="M108.19213,61.33292c0,0 -8.1094,-0.18978 -18.35819,-0.52445c-11.53357,-0.37662 -19.59834,-0.23471 -19.59834,-0.23471c0,0 2.62808,-2.29946 7.54066,-3.93475c3.15444,-1.05005 7.2508,-1.82624 12.19814,-1.54398c11.94155,0.6813 18.21774,6.23788 18.21774,6.23788z" data-paper-data="{&quot;index&quot;:null}" fill="#3a2f41" stroke="#3a2f41" stroke-width="1" stroke-linecap="butt"/><g data-paper-data="{&quot;index&quot;:null}" stroke="#3a2f41" stroke-width="1" stroke-linecap="round"><path d="M38.98313,69.67382c22.95601,-1.31345 53.21254,-7.82576 53.21254,-7.82576c0,0 3.25156,16.24935 -16.80858,18.58978c-17.21823,1.91479 -36.45024,-10.66148 -36.45024,-10.66148" data-paper-data="{&quot;index&quot;:null}" fill="#ffffff"/><path d="M40.09722,70.665c-0.8908,-0.59661 -0.73715,-0.88718 -0.73715,-0.88718c2.11737,-0.04637 4.03391,-0.51102 4.03391,-0.51102l5.5881,5.73205c0,0 -7.20911,-3.21153 -8.88486,-4.33385z" data-paper-data="{&quot;index&quot;:null}" fill="#3a2f41"/></g><path d="M85.81423,29.79911c-15.90554,7.63928 -39.09525,28.30887 -39.09525,28.30887c0,0 -18.81812,-3.33154 -23.99465,-12.31762c-1.10778,-3.54916 0.96641,8.49975 0.96641,8.49975c0,0 -17.52344,-8.06234 -15.57774,-26.92248c1.80553,-12.24305 10.35289,-27.30508 28.7962,-31.24175c0.89176,-0.19035 -1.76189,-1.61705 -3.24509,-4.04256c-2.10611,-3.44416 -3.35577,-8.02094 -1.6772,-6.35045c8.04765,8.00894 37.86549,12.82107 52.00244,22.13698c10.1269,6.67338 8.6357,18.65809 1.82488,21.92926z" data-paper-data="{&quot;index&quot;:null}" fill="#3a2f41" stroke="#626171" stroke-width="1.5" stroke-linecap="butt"/><path d="M131.47644,50.09482c-4.56706,4.92881 -30.31037,-1.83528 -40.64062,-11.40735c-10.33024,-9.57206 -15.00222,-24.66067 -10.43516,-29.58948c4.56706,-4.92881 16.64371,-4.49805 26.97395,5.07401c10.33024,9.57206 28.66889,30.994 24.10183,35.92281z" fill="#3a2f41" stroke="#3a2f41" stroke-width="2.5" stroke-linecap="butt"/><path d="M87.19245,9.19685c-1.60046,1.92056 -3.52102,0.32009 -3.52102,0.32009l-2,-1.66667c-3.39903,-2.9005 -7.72687,-3.15216 -11.97392,-4.1541c-5.70622,-1.34617 -11.64953,-1.65999 -17.34036,-3.00167c-2.77651,-0.6546 -5.47425,-1.69786 -8.29425,-2.32431c0,0 -2.44047,-0.54233 -1.89814,-2.9828c0.54233,-2.44047 2.9828,-1.89814 2.9828,-1.89814c6.68026,1.48499 13.10056,3.17957 19.86747,4.30761c6.73901,1.12339 14.4266,1.76745 19.85733,6.2123l2,1.66666c0,0 1.92055,1.60046 0.32009,3.52102z" fill="#3a2f41" stroke="none" stroke-width="0.5" stroke-linecap="butt"/><path d="M79.93855,38.26305c-8,8.97057 -24.83334,15.66666 -24.83334,15.66666c0,0 -1.16667,-14.69611 7.16666,-21.66667c3.81261,-3.18912 10.567,-4.66667 12.5,-4.66667c0.93371,0 15.91281,-6.83115 18.53649,-2.61859c2.80798,4.50845 -3.17296,13.06696 -14.03648,17.61859z" fill="#3a2f41" stroke="#3a2f41" stroke-width="2.5" stroke-linecap="butt"/><path d="M118.93855,79.08959c0,1.933 -6.11878,3.5 -13.66667,3.5c-7.54789,0 -14.33333,-10.83334 -14.33333,-10.83334c0,0 11.11877,2.16667 19,-2.83333c6.37347,-4.04345 9,8.23367 9,10.16667z" fill="#3a2f41" stroke="#3a2f41" stroke-width="2.5" stroke-linecap="butt"/><path d="M81.13057,3.95491c-0.74872,-28.12612 16.53389,-60.73848 16.53389,-60.73848c0,0 33.31582,32.79953 36.07276,74.04047" data-paper-data="{&quot;index&quot;:null}" fill="#3a2f41" stroke="#8c9ca0" stroke-width="2.5" stroke-linecap="butt"/><path d="M95.28556,77.44666c0.1179,0.11133 0.20873,0.25101 0.2616,0.40814c0.03603,-0.15821 0.0746,-0.31527 0.11513,-0.47143c-0.07311,-0.07005 -0.14716,-0.14787 -0.22214,-0.23386c-0.04946,0.10148 -0.10095,0.20091 -0.15458,0.29715zM94.76452,79.72856l-0.1129,-0.07527l-0.11216,0.31527c-1.45021,0.52695 -2.07913,0.6649 -2.8676,0.32046l-0.05562,0.16685l-0.97812,-0.32604c-0.40862,-0.12567 -0.70565,-0.50614 -0.70565,-0.95598c0,-0.44984 0.29702,-0.83031 0.70565,-0.95598l0.97812,-0.32604c1.48654,-0.37593 1.99267,-2.99193 1.98289,-4.38465c-0.01102,-1.56993 0.43027,-2.67167 0.67958,-4.16018c0.36065,-2.15325 -0.3353,-4.38074 -0.34625,-6.50648c0,0 0,-0.09621 0.02984,-0.22895c-0.22183,-0.18342 -0.36318,-0.46073 -0.36318,-0.77105c0,-0.55228 0.44772,-1 1,-1c0.10227,0 0.20095,0.01535 0.29387,0.04388l-0.23517,-0.7055c-0.03799,-0.10568 -0.0587,-0.21961 -0.0587,-0.33837c0,-0.55228 0.44772,-1 1,-1c0.27614,0 0.52614,0.11193 0.70711,0.29289l0.27238,0.27238c0.43531,0.31026 0.79008,0.64606 1.07922,1.00466c0.94749,0.27377 3.06369,-1.16502 3.76603,0.41364c0.7167,-0.10387 1.51974,-0.13537 2.20424,-0.06492c0.24435,-0.08276 0.50925,-0.22934 0.86501,-0.48364c1.6163,-0.43816 4.42955,0.0319 3.42746,2.44476c-0.03887,0.14128 -0.10533,0.26091 -0.16385,0.34704c-0.0043,0.00817 -0.00863,0.01635 -0.01301,0.02456c-0.08922,0.16723 -0.19702,0.31582 -0.31984,0.44652c-0.32852,1.08972 -0.50435,2.35436 -0.504,3.46032c-0.04601,0.14392 -0.08759,0.31705 -0.12626,0.51398c0.10174,0.79478 0.22616,1.57733 0.32889,2.37557l0.09198,-0.03066l0.32595,0.97786c0.03799,0.10568 0.0587,0.21961 0.0587,0.33837c0,0.55228 -0.44772,1 -1,1c-0.11876,0 -0.23269,-0.0207 -0.33837,-0.0587l-0.10675,-0.03558c-0.30016,1.64412 -0.77538,3.09335 -1.6921,3.40819c-0.5985,0.20555 -3.93469,-1.48331 -4.12884,-1.95332c-0.44183,-1.0696 0.45852,-1.91017 0.6123,-2.85411c0.36389,-2.23371 0.3302,-4.7247 0.72935,-7.03311c-0.24796,-0.18199 -0.40893,-0.47555 -0.40893,-0.8067h-0.1761c-0.07857,0.03082 -0.15139,0.07261 -0.21691,0.12804c-0.95296,0.80627 -0.779,2.65055 -0.95324,3.69881c-0.34166,2.0555 -0.65375,4.05606 -0.65375,6.17315c0,0.88214 -0.4702,3.0478 -1.31589,4.23935c0.0741,1.10889 0.23748,2.93361 -0.06035,3.38377c-0.05371,0.08118 -0.11195,0.15839 -0.17393,0.23232l0.04889,0.03259l-0.65806,0.98709c-0.17805,0.2757 -0.48804,0.4582 -0.84065,0.4582c-0.55228,0 -1,-0.44772 -1,-1v-1c0,-0.46359 0.0365,-0.91049 0.0989,-1.34557zM103.97034,72.45345c-0.05027,0.01617 -0.10061,0.03203 -0.15104,0.04756l0.09607,0.2882l-0.32833,0.10944c0.22549,0.12309 0.2771,0.46442 0.48266,0.62796c0.29511,0.23478 0.00926,-0.54393 -0.09935,-1.07316z" fill="#3a2f41" stroke="none" stroke-width="0.5" stroke-linecap="butt"/><path d="M108.19213,61.33292l-16.1992,-0.53142c0,0 1.51137,-2.65635 2.6848,-5.15823c8.88042,1.58698 13.5144,5.68965 13.5144,5.68965z" data-paper-data="{&quot;index&quot;:null}" fill="#e1e2db" stroke="#3a2f41" stroke-width="1" stroke-linecap="butt"/></g></g></g></svg>