<svg version="1.1" xmlns="http://www.w3.org/2000/svg" xmlns:xlink="http://www.w3.org/1999/xlink" width="143.63155" height="198.0701" viewBox="0,0,143.63155,198.0701"><defs><linearGradient x1="1077.66312" y1="224.57251" x2="1077.66312" y2="345.37262" gradientUnits="userSpaceOnUse" id="color-1"><stop offset="0" stop-color="#ffffff" stop-opacity="0.26046"/><stop offset="1" stop-color="#ffffff" stop-opacity="0"/></linearGradient><linearGradient x1="1077.66312" y1="224.57251" x2="1077.66312" y2="345.37262" gradientUnits="userSpaceOnUse" id="color-2"><stop offset="0" stop-color="#ffffff" stop-opacity="0.26046"/><stop offset="1" stop-color="#ffffff" stop-opacity="0"/></linearGradient><linearGradient x1="1077.66312" y1="224.57251" x2="1077.66312" y2="345.37262" gradientUnits="userSpaceOnUse" id="color-3"><stop offset="0" stop-color="#ffffff" stop-opacity="0.26046"/><stop offset="1" stop-color="#ffffff" stop-opacity="0"/></linearGradient><linearGradient x1="1036.02755" y1="228.12632" x2="1036.02755" y2="348.92641" gradientUnits="userSpaceOnUse" id="color-4"><stop offset="0" stop-color="#ffffff" stop-opacity="0.26046"/><stop offset="1" stop-color="#ffffff" stop-opacity="0"/></linearGradient><linearGradient x1="1036.02755" y1="228.12632" x2="1036.02755" y2="348.92641" gradientUnits="userSpaceOnUse" id="color-5"><stop offset="0" stop-color="#ffffff" stop-opacity="0.26046"/><stop offset="1" stop-color="#ffffff" stop-opacity="0"/></linearGradient><linearGradient x1="1036.02755" y1="228.12632" x2="1036.02755" y2="348.92641" gradientUnits="userSpaceOnUse" id="color-6"><stop offset="0" stop-color="#ffffff" stop-opacity="0.26046"/><stop offset="1" stop-color="#ffffff" stop-opacity="0"/></linearGradient><linearGradient x1="249.1849" y1="126.81241" x2="249.24928" y2="197.2616" gradientUnits="userSpaceOnUse" id="color-7"><stop offset="0" stop-color="#cedee0" stop-opacity="0"/><stop offset="1" stop-color="#cedee0" stop-opacity="0.19676"/></linearGradient></defs><g transform="translate(-174.99659,-87.1921)"><g data-paper-data="{&quot;isPaintingLayer&quot;:true}" fill-rule="nonzero" stroke-linejoin="miter" stroke-miterlimit="10" stroke-dasharray="" stroke-dashoffset="0" style="mix-blend-mode: normal"><path d="" fill="#3a2f41" stroke="none" stroke-width="0" stroke-linecap="butt"/><path d="" fill="#3a2f41" stroke="url(#color-1)" stroke-width="0.5" stroke-linecap="butt"/><path d="" fill="#3a2f41" stroke="url(#color-2)" stroke-width="0.5" stroke-linecap="butt"/><path d="" fill="#3a2f41" stroke="url(#color-3)" stroke-width="0.5" stroke-linecap="butt"/><path d="" data-paper-data="{&quot;index&quot;:null}" fill="#3a2f41" stroke="url(#color-4)" stroke-width="0.5" stroke-linecap="butt"/><path d="" data-paper-data="{&quot;index&quot;:null}" fill="#3a2f41" stroke="url(#color-5)" stroke-width="0.5" stroke-linecap="butt"/><path d="" data-paper-data="{&quot;index&quot;:null}" fill="#3a2f41" stroke="url(#color-6)" stroke-width="0.5" stroke-linecap="butt"/><g data-paper-data="{&quot;index&quot;:null}" stroke="#3a2f41" stroke-linecap="butt"><path d="M183.75541,135.62178l3.91863,-11.10943l7.60977,4.7647l-5.66984,-7.96152l16.48841,-15.22921c0,0 2.14415,15.18214 8.17558,29.06946c2.34133,3.11811 -6.82257,8.00894 -6.82257,8.00894z" fill="#3a2f41" stroke-width="1.5"/><path d="M213.18676,140.7943c-1.97046,-1.35722 2.58622,-17.72665 5.8755,-21.21652c1.33046,-1.41157 14.50214,12.08198 12.81074,13.87651c-3.28928,3.48986 -15.76436,9.35252 -17.73481,7.99531z" data-paper-data="{&quot;index&quot;:null}" fill="#8c9ca0" stroke-width="2"/><path d="M213.9622,140.96301c1.6405,1.61043 -6.76788,13.31753 -10.74094,15.83161c-2.04302,1.29279 -16.22677,-11.5551 -14.61974,-12.57199c3.97304,-2.51406 22.92808,-5.64762 24.56857,-4.03718z" fill="#e1e2db" stroke-width="1.5"/><path d="M218.27181,137.83059c1.5555,2.35133 0.76411,5.30539 -1.76763,6.59811c-2.5317,1.2927 -5.84507,0.43453 -7.40056,-1.91683c-1.5555,-2.35133 -0.76411,-5.3054 1.76763,-6.59811c2.5317,-1.2927 5.84507,-0.43451 7.40056,1.91682z" fill="#e1e2db" stroke-width="2"/></g><path d="M293.12021,192.67678l-18.90972,-1.8304l-0.04835,-8.9776c0,0 -1.23904,9.11801 -1.65743,9.01724c-5.35055,-0.37264 -10.64694,-0.6709 -15.71218,-0.90959c-21.27908,-1.00276 -38.479,-0.95439 -38.479,-0.95439c0,0 -6.59365,-10.28112 -6.60246,-19.9161c-0.00616,-6.73309 0.86927,-20.03492 11.68915,-30.4c8.72628,-8.35951 24.04564,-10.96639 27.22348,-11.0821c2.54102,-0.09253 13.27846,3.3617 19.64458,8.62098c10.59692,8.75453 22.48024,28.49424 22.48024,28.49424z" fill="#3a2f41" stroke="none" stroke-width="0" stroke-linecap="butt"/><g stroke-linecap="butt"><path d="M281.72184,167.2171c0.00545,5.96555 1.56468,11.28653 -3.283,15.14068c-4.71242,3.74661 -15.29303,5.04633 -26.09279,5.25594c-10.74908,0.20865 -21.54192,-1.92136 -26.29077,-5.81672c-4.80426,-3.94079 -3.88481,-8.62149 -3.89021,-14.53793c-0.01074,-11.76466 9.03584,-26.71473 34.0266,-26.08357c16.43907,0.41517 25.51945,14.27691 25.53019,26.04158z" fill="#e1e2db" stroke="none" stroke-width="0"/><path d="M281.72184,167.2171c0.01076,11.76466 -12.14853,4.37439 -25.63495,4.47725c-13.48371,0.10283 -33.9111,7.32941 -33.92184,-4.43526c-0.01074,-11.76466 9.03584,-26.71473 34.0266,-26.08357c16.43907,0.41517 25.51945,14.27692 25.53019,26.04158z" fill="#b8c1c0" stroke="none" stroke-width="0"/><path d="M260.85096,141.67809c13.48692,2.63355 21.88473,14.46559 21.89441,25.06689l0.00043,0.47139c0.0051,5.58046 0.28424,10.83001 -3.91192,14.60959c-4.65015,4.18848 -14.58688,5.56396 -26.10381,5.7875c-7.95641,0.15443 -17.58857,-1.10117 -22.16474,-3.34906c-7.8607,-3.86131 -8.39345,-9.56946 -8.40023,-17.0053c-0.00913,-9.98593 6.50735,-22.26691 23.76104,-25.36621" fill="none" stroke="#3a2f41" stroke-width="2"/></g><path d="M206.89843,186.06319l-9.14301,-6.23318c0,0 -2.20729,-20.74717 8.09762,-34.2401c13.29169,-17.40368 36.7568,-24.17253 59.92636,-19.1823c4.96345,1.06902 17.47988,4.736 24.82695,12.14327c8.82593,8.89825 11.87669,20.22205 11.87669,20.22205l-4.92645,-0.67613l0.95129,8.95155c0,0 -2.70765,-0.60525 -2.7254,-0.79545c-0.39753,-4.26151 -1.4057,-8.49182 -1.4057,-8.49182c0,0 0.75878,3.4579 0.27738,8.56975c-2.8252,-0.46201 -18.54976,-1.90601 -18.54976,-1.90601l-2.14204,-3.84024l-0.37541,3.59803l-13.65921,-1.09573l-1.46807,-13.5317l-0.19947,13.17387c0,0 -12.2215,-0.09133 -18.13168,0.10342c-0.41687,0.01374 -2.00404,-5.68177 -2.00404,-5.68177c0,0 -0.14327,5.94498 -0.45468,5.94996c-3.68087,0.05863 -8.75358,0.64483 -8.75358,0.64483c0,0 0.09498,30.0427 -0.03986,30.05637c-2.09738,0.21294 -19.91403,-5.50027 -19.88544,-6.73839c0.04131,-1.78865 -1.25038,-11.85287 -1.25038,-11.85287z" fill="#3a2f41" stroke="url(#color-7)" stroke-width="0.5" stroke-linecap="butt"/><path d="M256.95549,136.21389c14.13421,-27.06529 41.94643,-37.09926 41.94643,-37.09926l-11.49679,48.80356" fill="#3a2f41" stroke="#3a2f41" stroke-width="1.5" stroke-linecap="round"/><path d="M201.82098,154.49212c11.39857,-40.92474 43.13293,-65.89214 43.13293,-65.89214l5.6515,44.3129" fill="#3a2f41" stroke="#3a2f41" stroke-width="1.5" stroke-linecap="round"/><g stroke="#3a2f41" stroke-linecap="butt"><path d="M227.37888,173.53309c0,0 4.20499,-0.76948 11.81636,-0.76227c8.06426,0.00763 12.32099,0.95009 12.32099,0.95009c0,0 -5.11656,-0.07546 -12.45677,-0.11542c-6.52255,-0.03551 -11.68057,-0.07239 -11.68057,-0.07239z" fill="#e1e2db" stroke-width="1"/><g fill="#3a2f41" stroke-width="0.5"><path d="M237.49263,173.62315l0.07166,-0.82989l2.98838,0.00034l-0.17671,0.83762z"/></g></g><g><path d="M226.29338,251.81082l48.0244,-0.68992c0,0 5.28896,10.49155 8.66624,17.05929c1.01081,1.96573 1.85037,3.57995 2.32563,4.4562c0.81872,2.65163 1.84682,6.35948 2.99369,10.70622c-24.42462,0.15125 -48.84703,0.41782 -72.95423,0.64532c5.114,-15.94196 10.94429,-32.17709 10.94429,-32.17709z" fill="#e1e2db" stroke="none" stroke-width="0" stroke-linecap="round"/><path d="M214.34089,273.85422c3.19534,-12.58196 15.26578,-26.30083 15.26578,-26.30083l42.83537,-0.84528c0,0 5.70033,9.51126 7.52847,13.17383c1.26759,2.53952 2.38841,6.69396 2.38841,6.69396l-25.25896,16.66263c-15.01087,0.13646 -29.97027,0.29171 -44.80503,0.42967c0.79018,-4.17202 1.51246,-7.7133 2.04595,-9.81399z" fill="#8c9ca0" stroke="none" stroke-width="0" stroke-linecap="butt"/><path d="M213.37644,284.00645c0.83389,-4.09595 1.66403,-7.8378 2.46666,-10.99828c2.8729,-11.31261 13.77556,-25.09247 13.77556,-25.09247l42.48231,-0.4465c0,0 6.72589,7.81704 12.12365,24.02722c0.89614,2.69126 2.10924,6.85132 3.49261,11.84982" fill="none" stroke="#3a2f41" stroke-width="2" stroke-linecap="round"/><path d="M275.84663,253.5165l-20.78879,9.47876l-29.25159,-8.56361" fill="none" stroke="#3a2f41" stroke-width="1.5" stroke-linecap="round"/></g><path d="M252.55479,255.99541c-9.21827,0.02598 -24.26341,-8.65248 -24.26341,-8.65248c0,0 1.23293,-4.52012 2.19457,-6.96605c0.87601,-2.22815 2.82277,-7.11725 2.82277,-7.11725c0,0 0.56263,-3.4525 -1.71349,-7.09782c-1.42604,-2.28386 -9.32627,-11.52239 -9.34163,-11.84102c-0.00295,-0.06126 1.0116,-3.34601 2.70832,-6.84607c1.96945,-4.06262 9.2059,-10.62198 12.48866,-12.16518c3.57641,-1.68124 8.42943,-2.44702 12.14934,-2.36059c5.68502,0.13207 11.56684,1.09803 16.71179,3.54704c1.93883,0.92289 5.45941,3.40901 5.45941,3.40901c0,0 5.97581,6.84356 8.48298,15.19189c-3.70751,8.94607 -12.06907,12.64128 -12.06907,12.64128l-1.02448,6.08883c0,0 2.04432,4.48144 2.85658,6.7165c0.80955,2.22758 2.00893,6.67149 2.00893,6.67149c0,0 -10.25297,8.75449 -19.47125,8.78046z" fill="#3a2f41" stroke="#8c9ca0" stroke-width="1.5" stroke-linecap="round"/><g data-paper-data="{&quot;index&quot;:null}" stroke="#3a2f41" stroke-linecap="butt"><g data-paper-data="{&quot;index&quot;:null}"><g stroke-width="0"><path d="" fill="#e1e2db"/><path d="" fill="#e1e2db"/><path d="" fill="#8c9ca0"/></g><path d="M278.49232,279.40384l37.25081,-1.99075l0.39182,5.81552c-12.44109,0.02105 -24.9126,0.08742 -37.37291,0.17858z" fill="#e1e2db" stroke-width="0"/><path d="M278.49231,279.40384l37.25083,-1.99075l0.3918,5.81552c-12.44109,0.02105 -24.91259,0.08742 -37.37291,0.17858z" fill="#8c9ca0" stroke-width="0"/><path d="M305.50345,278.20335l10.27956,-0.54935l0.37558,5.57457" fill="none" stroke-width="2"/><path d="M278.78566,283.40702l-0.25348,-3.76227l12.11137,-0.64724" fill="none" stroke-width="2"/></g><g data-paper-data="{&quot;index&quot;:null}"><path d="M281.08876,249.83683l-16.39806,-34.63169l5.59036,-13.61569c0,0 8.31892,8.62631 12.89119,14.23697c8.30224,10.18778 32.81026,41.84385 32.81026,41.84385l1.83977,25.55577c-13.03483,0.01772 -26.10513,0.08623 -39.163,0.18192z" fill="#3a2f41" stroke-width="1.5"/><path d="" fill="#8ea8ab" stroke-width="2"/></g></g><g stroke="#3a2f41"><g fill="#e1e2db" stroke-width="2"><path d="" stroke-linecap="round"/><path d="" stroke-linecap="round"/><path d="M195.7209,258.87792l4.91052,-10.07835l1.65973,8.13086l3.94948,-1.70446c0,0 -3.52313,20.05785 -4.12333,26.26502c-0.09192,0.95065 -0.1694,1.83056 -0.23409,2.61924c-6.10541,0.05284 -12.18661,0.10127 -18.2384,0.14275c3.99509,-13.49695 8.91544,-28.56053 8.92531,-28.59076z" stroke-linecap="butt"/><path d="M192.5701,255.66222v0c0.00001,-0.00004 0.00002,-0.00005 0.00002,-0.00005z" stroke-linecap="butt"/></g><g stroke-linecap="butt"><path d="M182.65743,250.68123c0,0 28.35798,-29.06911 37.89666,-38.38386c5.2532,-5.12986 13.81976,-12.52321 13.81976,-12.52321l1.22534,19.88313l-17.27361,26.64342l-2.05114,37.67848c-13.57095,0.12857 -27.04333,0.2454 -40.36139,0.32293z" fill="#3a2f41" stroke-width="1.5"/><path d="M176.89611,279.39684l0.55606,-1.90707l38.75476,4.92951l-0.22884,1.5627c-0.82096,0.00777 -1.64156,0.01549 -2.46178,0.02317z" fill="#8ea8ab" stroke-width="2"/></g></g><g><path d="M258.52466,192.61307c0,1.79721 -5.29309,5.13039 -7.54147,5.13039c-2.24839,0 -7.40799,-2.98138 -7.40799,-4.77859c0,-1.79721 5.35983,-2.78505 7.60821,-2.78505c2.24838,0 7.34127,0.63606 7.34127,2.43327z" fill="#3a2f41" stroke="none" stroke-width="0" stroke-linecap="butt"/><g fill="#8c9ca0" stroke="#8c9ca0" stroke-width="1.5" stroke-linecap="butt"><path d="M233.41624,205.06223c-0.77248,-0.66436 9.55472,-12.88872 9.55472,-12.88872l7.71232,5.12185l8.16733,-5.71423c0,0 10.42614,12.28539 9.82055,12.95926c-0.33485,0.37261 -3.99994,-1.32912 -8.56085,-2.55093c-4.19557,-1.12396 -9.32983,-1.76245 -9.32983,-1.76245c0,0 -5.43509,1.21965 -9.88163,2.54854c-4.06571,1.21505 -7.16051,2.56371 -7.48261,2.28672z"/></g><path d="M242.97454,193.63914l0.50723,-1.68863l7.31457,-1.94662l7.59486,1.44237l0.80087,1.7238" fill="none" stroke="#8c9ca0" stroke-width="2" stroke-linecap="round"/></g><g fill="#8c9ca0" stroke="#3a2f41" stroke-width="1.5" stroke-linecap="butt"><path d="M254.70611,209.41293c-0.10718,1.62193 -1.75807,2.85697 -3.68737,2.75857c-1.92929,-0.09841 -3.4064,-1.493 -3.29922,-3.11493c0.10718,-1.62193 1.75808,-2.85698 3.68738,-2.75857c1.92929,0.09841 3.4064,1.49302 3.29921,3.11494z"/><path d="M254.77201,218.23579c-0.11091,1.67829 -1.8357,2.95542 -3.85243,2.85255c-2.01673,-0.10288 -3.56167,-1.54679 -3.45076,-3.22508c0.11091,-1.67829 1.83569,-2.95542 3.85241,-2.85256c2.01673,0.10288 3.5617,1.54679 3.45079,3.22508z"/></g><path d="" fill="#3a2f41" stroke="#8c9ca0" stroke-width="2" stroke-linecap="butt"/><path d="" fill="#3a2f41" stroke="#8c9ca0" stroke-width="2" stroke-linecap="butt"/><path d="M228.91252,169.90069c0,0 2.11442,0.82831 5.06212,1.30587c2.22927,0.36117 5.10636,0.39332 6.93106,0.44597c1.81026,0.05224 4.75625,0.11223 7.30362,-0.07722c3.94588,-0.29346 7.35515,-0.90556 7.35515,-0.90556" fill="none" stroke="#3a2f41" stroke-width="1" stroke-linecap="round"/></g></g></svg>