<svg version="1.1" xmlns="http://www.w3.org/2000/svg" xmlns:xlink="http://www.w3.org/1999/xlink" width="155.19611" height="468.86354" viewBox="0,0,155.19611,468.86354"><g transform="translate(-148.91181,9.93768)"><g data-paper-data="{&quot;isPaintingLayer&quot;:true}" fill-rule="nonzero" stroke-linejoin="miter" stroke-miterlimit="10" stroke-dasharray="" stroke-dashoffset="0" style="mix-blend-mode: normal"><g data-paper-data="{&quot;index&quot;:null}"><g stroke-linecap="butt"><path d="M287.08226,243.3142l-28.45195,-49.85899l13.39495,-7.64382l28.45196,49.859z" fill="#e1e2db" stroke="#3a2f41" stroke-width="2"/><path d="M274.05368,220.65701l-15.84256,-27.07451l13.43931,-7.56366l15.84256,27.07451z" fill="#8c9ca0" stroke="#3a2f41" stroke-width="2"/><path d="M275.46167,223.31504c-0.75741,0.73904 -4.98678,-7.52604 -4.08509,-8.26629c7.66249,-6.29044 15.65196,-4.01062 15.65196,-4.01062l4.2525,7.68401c0,0 -10.24625,-0.84498 -15.81935,4.59289z" fill="#3a2f41" stroke="none" stroke-width="0"/><path d="M266.58186,208.15446c-0.75741,0.73904 -4.98678,-7.52605 -4.0851,-8.26628c7.66249,-6.29044 15.65195,-4.01062 15.65195,-4.01062l4.2525,7.68401c0,0 -10.24625,-0.84497 -15.81935,4.5929z" fill="#3a2f41" stroke="none" stroke-width="0"/></g><g><g fill="#e1e2db" stroke="none" stroke-width="0" stroke-linecap="round"><path d="M277.58074,185.16252l3.6607,5.23382l-24.38808,12.96706l-2.35278,-4.71009c0,0 -4.8225,0.49195 -6.27831,-1.57214c-1.45582,-2.06409 -1.3967,-8.56391 -3.13494,-11.77415c-1.0204,-1.8845 -4.36238,-10.01346 -6.59043,-13.13523c-4.9758,-6.97169 2.37457,-30.4726 7.86359,-32.2294c10.01818,-3.20638 25.57566,28.42186 25.57566,28.42186c0,0 6.18506,1.024 6.74896,2.25253c0.62387,1.35914 -1.10439,14.54571 -1.10439,14.54571z"/></g><path d="M247.2623,139.90217c3.33317,-0.28661 9.04271,3.88212 13.54888,9.80509c1.33258,1.75156 11.80572,18.31973 11.80572,18.31973l6.1985,1.58472l-1.05512,14.41746l2.53321,6.00086l-40.42614,-14.7788c0,0 -0.53553,-34.66713 7.39495,-35.34906z" fill="#8c9ca0" stroke="none" stroke-width="0" stroke-linecap="butt"/><g fill="none" stroke="#3a2f41" stroke-width="2" stroke-linecap="round"><path d="M277.58076,185.16252l3.66069,5.23382l-24.38806,12.96706l-2.35279,-4.71007c0,0 -4.82248,0.49195 -6.27831,-1.57214c-1.45582,-2.06409 -1.3967,-8.56391 -3.13494,-11.77415c-1.0204,-1.8845 -4.36239,-10.01346 -6.59043,-13.13521c-4.9758,-6.9717 2.37456,-30.47262 7.8636,-32.22941c10.01817,-3.20638 25.57564,28.42186 25.57564,28.42186c0,0 6.18505,1.02399 6.74897,2.25252z"/><path d="M255.59947,198.49678l22.03326,-12.44473"/></g></g><path d="M304.10792,331.57745c0,0 -18.2471,1.5246 -28.6893,-6.6716c-0.68099,-0.53451 12.00193,17.5548 12.00193,17.5548c0,0 -31.15622,-4.98678 -33.92249,-22.01144c-2.82837,-17.40686 29.25185,-86.82964 29.25185,-86.82964c0,0 12.81113,-5.02897 19.40855,2.89036c0.07257,0.08712 -14.79468,72.85828 -14.79468,72.85828z" data-paper-data="{&quot;index&quot;:null}" fill="#3a2f41" stroke="none" stroke-width="0" stroke-linecap="butt"/></g><path d="M225.39182,442.95969l-1.01968,-197.9638l26.16928,-20.95233l7.56509,178.27159l30.87956,44.86932l-51.98005,-3.43479c0,0 -2.79916,-7.11604 -3.65169,-7.16848c-0.85292,-0.05246 -2.53226,6.69997 -2.53226,6.69997z" fill="#3a2f41" stroke="none" stroke-width="0" stroke-linecap="butt"/><path d="M207.95094,444.43916c0,0 -0.64345,-7.42392 -1.49764,-7.44814c-0.8538,-0.02422 -3.89479,8.71857 -3.89479,8.71857l-50.3679,13.21627l25.70003,-59.36072l22.27552,-182.19828l25.11646,34.14842l-11.81759,191.80711z" fill="#3a2f41" stroke="none" stroke-width="0" stroke-linecap="butt"/><g><path d="M200.38039,226.73201l-0.39632,-14.99407h49.93575l-0.39631,14.99407l-16.64469,26.07397l-11.78914,-0.36986z" fill="#3a2f41" stroke="none" stroke-width="0" stroke-linecap="butt"/><g><g><path d="M250.41281,215.49402c0,0 -6.14186,6.36598 -14.44896,6.73791c-16.19684,0.7252 -35.59315,-6.51126 -35.59315,-6.51126c0,0 -2.75803,-41.84283 -7.79899,-69.2084c1.36651,-3.91468 19.74903,-11.64587 27.84079,-11.60886c8.87776,0.04062 18.22348,0.73208 25.32317,8.55174c7.95921,8.76635 5.41625,17.4473 4.49215,27.7268c-0.36945,4.10965 1.67943,8.47481 1.45183,13.20305c0,0 -0.4774,11.72338 -0.69821,17.14549c-0.19926,4.89318 -0.56862,13.96353 -0.56862,13.96353z" fill="#e1e2db" stroke="none" stroke-width="0" stroke-linecap="round"/><g stroke="none" stroke-linecap="butt"><g fill="none" stroke-width="1" font-family="sans-serif" font-weight="normal" font-size="12" text-anchor="start"><g><g/></g></g><g><g><g fill="none" stroke-width="1" font-family="sans-serif" font-weight="normal" font-size="12" text-anchor="start"/><path d="M200.11719,151.95085c0,0.34242 -3.29273,3.28567 -2.27895,1.34097c0.93604,-1.7956 5.44164,-8.17753 5.44164,-8.17753c0,0 -2.60044,2.29262 -5.35022,5.22019c-0.44973,0.47879 6.69342,-9.38041 8.5129,-9.38041c1.81948,0 -6.32538,10.33826 -6.32538,10.99682z" fill="#ffffff" stroke-width="0"/></g><path d="M239.53244,140.70742c1.7416,-0.52953 7.35668,4.45673 6.78835,4.12931c-3.47494,-2.00193 -2.56331,-1.06766 -2.56331,-1.06766c0,0 6.15012,4.79742 7.56306,6.24372c1.5303,1.56643 -2.46886,-0.29253 -2.56745,-0.62028c-0.18959,-0.63036 -10.96227,-8.15558 -9.22067,-8.68511z" data-paper-data="{&quot;index&quot;:null}" fill="#ffffff" stroke-width="0"/></g></g><path d="M192.57172,146.51224c1.36651,-3.91468 19.74903,-11.64586 27.8408,-11.60885c13.55359,0.06202 30.82725,9.09984 30.82725,9.09984c0,0 0.03758,17.88985 0.05128,24.4116c0.00916,4.36118 0.02293,10.91633 0.02293,10.91633c0,0 -56.87196,-20.8696 -57.01523,-21.80492c0.30511,-2.51347 -2.56068,-8.62583 -1.72705,-11.01398z" fill="#8c9ca0" stroke="none" stroke-width="0" stroke-linecap="butt"/><g fill="none" stroke="none" stroke-width="1" stroke-linecap="butt" font-family="sans-serif" font-weight="normal" font-size="12" text-anchor="start"><g><g><g/></g></g><g><g><g/></g></g></g><path d="M251.18146,143.82141c0,0 -1.18341,68.60308 -1.07129,69.31633c0,0 -5.83921,8.72218 -14.14631,9.09411c-14.01506,0.62751 -35.89579,-7.08246 -35.89579,-7.08246c0,0 -1.86465,-39.29963 -7.49635,-68.6372c1.36651,-3.91468 19.74904,-11.64586 27.8408,-11.60885c10.60954,0.04854 30.54344,7.78952 30.78184,8.07244" fill="none" stroke="#3a2f41" stroke-width="2" stroke-linecap="round"/><g fill="none" stroke="none" stroke-width="1" stroke-linecap="butt" font-family="sans-serif" font-weight="normal" font-size="12" text-anchor="start"><g/></g></g><g fill="none" stroke="none" stroke-width="1" stroke-linecap="butt" font-family="sans-serif" font-weight="normal" font-size="12" text-anchor="start"><g><g><g/></g></g><g><g><g/></g></g></g></g><path d="M220.57425,177.74966c0,0 2.62809,0.09913 1.61247,0.7931c-1.01562,0.69396 -2.05157,-0.49306 -2.05157,-0.49306l1.38593,-9.31602l9.87184,1.30791l-0.96573,8.55517c0,0 2.30196,0.08358 1.47052,0.77166c-0.84233,0.69708 -1.48379,-0.4073 -1.48379,-0.4073" fill="none" stroke="#3a2f41" stroke-width="2" stroke-linecap="round"/><path d="M200.31703,213.94627c8.35241,-23.84988 0,-72.99969 0,-72.99969l9.80557,-4.96946c0,0 9.73611,41.42094 1.81584,76.88387c-0.67235,15.84805 -11.58662,4.96912 -11.62142,1.08528z" fill="#3a2f41" stroke="#3a2f41" stroke-width="1.5" stroke-linecap="butt"/><path d="M241.90532,192.38859c1.72102,-28.85305 -3.69459,-55.88673 -3.69459,-55.88673l12.91877,5.07936c0,0 2.1155,16.30767 1.76933,35.7712c-0.21206,11.92277 -2.41842,25.02974 -3.4562,36.29784c-0.06686,0.7259 -0.77965,1.33744 -0.92113,1.84799c-1.68479,6.07978 -8.48827,-2.16282 -8.48827,-2.16282c0,0 0.98037,-5.99677 1.8721,-20.94684z" fill="#3a2f41" stroke="#3a2f41" stroke-width="1.5" stroke-linecap="butt"/><g><path d="M239.20788,150.05478l-12.47523,-7.46734c0,0 7.30957,-5.71025 10.46731,-7.63208c0.69146,-0.42084 0.97078,-0.07864 1.15651,-0.02004c0.4556,0.31779 3.30811,4.35336 2.8197,4.62266z" data-paper-data="{&quot;index&quot;:null}" fill="#8c9ca0" stroke="#3a2f41" stroke-width="4.5" stroke-linecap="round"/><path d="M215.28632,150.56588c0,0 -7.391,-8.49394 -8.30208,-10.99661c0.06655,-1.23263 2.19606,-6.53696 3.17136,-5.02023c1.00917,0.43132 17.58172,-2.57718 21.7531,-0.52398c3.50596,1.72566 -5.2054,8.59915 -5.2054,8.59915z" fill="#3a2f41" stroke="#3a2f41" stroke-width="4.5" stroke-linecap="round"/><path d="M209.06252,139.17042c0.0372,-1.18864 0.28427,-4.1024 0.84793,-4.33912c1.0435,-0.82118 11.16658,-4.75471 13.64868,-5.08409c1.57029,-0.20837 12.88453,4.58566 13.48931,5.11413c1.04637,0.43354 2.13743,3.87255 2.13743,4.29881" fill="none" stroke="#3a2f41" stroke-width="6.5" stroke-linecap="butt"/><g><path d="M239.20788,150.48317l-12.47523,-7.89574c0,0 7.30958,-5.71025 10.46731,-7.63208c0.69146,-0.42084 0.97078,-0.07864 1.15651,-0.02004c0.4556,0.31779 3.30811,4.35336 2.8197,4.62266z" data-paper-data="{&quot;index&quot;:null}" fill="#8c9ca0" stroke="#12161a" stroke-width="0" stroke-linecap="round"/><path d="M215.80964,150.56588c0,0 -7.91432,-8.49394 -8.82542,-10.99661c0.06655,-1.23263 2.19606,-6.53695 3.17136,-5.02024c1.85736,0.79385 16.54769,8.07516 16.54769,8.07516z" fill="#8c9ca0" stroke="#12161a" stroke-width="0" stroke-linecap="round"/><path d="M209.06252,139.17042c0.0372,-1.18864 0.28427,-4.1024 0.84793,-4.33912c1.0435,-0.82118 11.16658,-4.75471 13.64868,-5.08409c1.57029,-0.20837 12.88453,4.58566 13.48931,5.11413c1.04637,0.43354 2.13743,3.87255 2.13743,4.29881" fill="none" stroke="#8c9ca0" stroke-width="2" stroke-linecap="butt"/></g></g><path d="M199.22746,226.17366v-13.70886h51.44895v13.70886z" fill="#3a2f41" stroke="#8c9ca0" stroke-width="1" stroke-linecap="butt"/><g stroke-width="1.5" stroke-linecap="butt"><path d="M217.42027,226.93292c-0.19176,-0.38014 0.4159,-11.44778 -0.27241,-13.92523c-0.65085,-2.34261 17.96841,-2.65244 19.47799,-1.02833c1.82432,1.96276 1.95212,12.70763 0.40863,14.95356c-1.05615,1.53682 -18.85686,1.50133 -19.61419,0z" fill="#e1e2db" stroke="none"/><path d="M217.14784,213.00769c-0.65085,-2.34261 17.96841,-2.65244 19.47799,-1.02833c0.83603,0.89945 1.31576,3.64319 1.44166,6.56813c-7.94322,1.16217 -12.55079,0.75474 -20.58192,0.43875c0.00761,-2.54883 -0.05816,-4.97227 -0.33772,-5.97854z" fill="#8c9ca0" stroke="none"/><path d="M217.42027,226.93292c-0.19176,-0.38014 0.41589,-11.44778 -0.27242,-13.92523c-0.65085,-2.34261 17.96841,-2.65244 19.47799,-1.02833c1.82433,1.96276 1.95211,12.70763 0.40864,14.95356c-1.05615,1.53682 -18.85686,1.50133 -19.6142,0z" fill="none" stroke="#3a2f41"/><path d="M221.098,223.99931c-0.12103,-0.23992 0.2625,-7.22544 -0.17194,-8.78912c-0.41079,-1.47857 11.34103,-1.67413 12.29381,-0.64905c1.15145,1.23882 1.23211,8.0206 0.25791,9.43816c-0.66661,0.96999 -11.90179,0.94758 -12.37978,0z" fill="#3a2f41" stroke="#3a2f41"/></g><path d="M202.0723,187.5482v-3.14161h15.13205v3.14161z" fill="#e1e2db" stroke="#3a2f41" stroke-width="1" stroke-linecap="butt"/><path d="M202.0723,194.11704v-3.14161h15.13204v3.14161z" fill="#e1e2db" stroke="#3a2f41" stroke-width="1" stroke-linecap="butt"/></g><g><g stroke-linecap="butt"><path d="M150.52453,238.13448l24.07581,-52.11322l14.00056,6.46813l-24.0758,52.11323z" fill="#e1e2db" stroke="#3a2f41" stroke-width="2"/><path d="M161.5268,214.52805l13.46477,-28.33223l14.0379,6.38447l-13.46478,28.33224z" fill="#8c9ca0" stroke="#3a2f41" stroke-width="2"/><path d="M158.23491,220.4607l3.57855,-8.02008c0,0 7.76477,-2.95592 15.93801,2.65493c0.96179,0.66026 -2.54394,9.25729 -3.36188,8.58587c-6.01849,-4.94042 -16.15467,-3.22072 -16.15467,-3.22072z" fill="#3a2f41" stroke="none" stroke-width="0"/><path d="M165.78323,204.5951l3.57855,-8.02008c0,0 7.76477,-2.95592 15.93801,2.65493c0.96179,0.66026 -2.54394,9.25729 -3.36189,8.58587c-6.01849,-4.94042 -16.15467,-3.22072 -16.15467,-3.22072z" fill="#3a2f41" stroke="none" stroke-width="0"/></g><g><g fill="#e1e2db" stroke="none" stroke-width="0" stroke-linecap="round"><path d="M169.0097,185.8507c0,0 -2.85163,-12.99003 -2.3465,-14.39762c0.45658,-1.27233 6.53117,-2.82245 6.53117,-2.82245c0,0 12.79061,-32.8448 23.04665,-30.5085c5.61935,1.28008 14.95607,24.06487 10.59586,31.43722c-1.95241,3.30117 -4.58568,11.68656 -5.44087,13.65155c-1.45682,3.34736 -0.84106,9.81821 -2.11469,11.99944c-1.27363,2.18123 -6.12054,2.10423 -6.12054,2.10423l-1.94061,4.89434l-25.40932,-10.83l3.19884,-5.5282z"/></g><path d="M208.26905,162.20742l-26.84821,-10.37691c0,0 5.95851,-13.67118 13.91825,-13.67118c7.95974,0 12.92996,24.04809 12.92996,24.04809z" fill="#8c9ca0" stroke="none" stroke-width="0" stroke-linecap="butt"/><g fill="none" stroke="#3a2f41" stroke-linecap="round"><path d="M166.66319,171.45311c0.45658,-1.27233 6.53117,-2.82244 6.53117,-2.82244c0,0 12.79061,-32.8448 23.04665,-30.50849c5.61936,1.28008 14.95607,24.06486 10.59586,31.43721c-1.9524,3.30116 -4.58568,11.68655 -5.44087,13.65154c-1.45682,3.34735 -0.84106,9.81822 -2.11469,11.99944c-1.27364,2.18123 -6.12054,2.10423 -6.12054,2.10423l-1.94061,4.89433l-25.40931,-10.83l3.19884,-5.5282z" stroke-width="2"/><path d="M192.05253,197.25276l-23.01843,-10.51132" stroke-width="2"/><path d="M172.48834,168.66537l14.38272,-0.08688l0.22513,2.6065z" stroke-width="1.5"/></g></g><path d="M169.90366,310.43788c0,0 -21.05654,-71.45011 -20.99169,-71.54313c5.89468,-8.45543 18.63549,-4.71242 18.63549,-4.71242c0,0 38.37342,66.80927 37.04673,84.39444c-1.29755,17.19906 -31.91199,24.83675 -31.91199,24.83675c0,0 11.08653,-19.10939 10.45385,-18.5185c-9.70163,9.06068 -28.01225,9.10496 -28.01225,9.10496z" data-paper-data="{&quot;index&quot;:null}" fill="#3a2f41" stroke="none" stroke-width="0" stroke-linecap="butt"/></g><g><g><path d="M198.24705,133.16376l-5.63204,-23.0179h50.19859c0,0 0.21894,20.27255 0,20.07944c-5.71761,-4.10379 -11.94204,-4.54994 -17.87615,-4.52075c-14.17327,0.06973 -26.6904,7.45919 -26.6904,7.45919z" fill="#8c9ca0" stroke="#3a2f41" stroke-width="2" stroke-linecap="butt"/><g><g><g><path d="M232.18578,54.28812l-13.84371,-47.96452l3.84417,-14.02504l8.64337,11.55491l14.5648,50.60225" fill="#e1e2db" stroke="none" stroke-width="0" stroke-linecap="round"/><path d="M230.27717,48.11431l-5.27501,-17.6712l15.55498,6.82468l5.33794,18.29274z" fill="#8c9ca0" stroke="none" stroke-width="0" stroke-linecap="butt"/><path d="M232.18578,54.28812l-13.84371,-47.96452l3.84417,-14.02504l8.64338,11.55491l14.5648,50.60225" fill="none" stroke="#3a2f41" stroke-width="2" stroke-linecap="round"/></g><path d="M226.00417,-1.90025l-2.69492,2.41441l-2.55356,-1.89986l1.4455,-5.30817z" fill="#3a2f41" stroke="#3a2f41" stroke-width="2" stroke-linecap="round"/></g><path d="M219.40366,9.8111l2.81113,-2.42924l3.64812,2.48171l2.49776,-4.22355l3.14063,0.87851" fill="none" stroke="#3a2f41" stroke-width="2" stroke-linecap="round"/></g><g><path d="M264.98504,69.98791c-0.47381,0.00986 2.15353,31.60475 5.15754,46.34609c0.06332,0.34346 -6.96057,6.56422 -6.96057,6.56422l-4.44542,-15.19399l1.35126,17.49132l-19.97844,10.84147l-1.98045,-50.79243" data-paper-data="{&quot;index&quot;:null}" fill="#e1e2db" stroke="none" stroke-width="0" stroke-linecap="round"/><path d="M263.15916,122.92477c0,0 -2.68832,-7.20173 -3.37888,-10.18296c-0.03863,-0.16675 0.15274,12.84161 0.15274,12.84161l-20.0223,10.38477l-0.63961,-18.80501l5.42334,3.78483l13.39558,-9.70763l10.26408,-7.39305l1.75574,12.57395z" data-paper-data="{&quot;index&quot;:null}" fill="#8c9ca0" stroke="none" stroke-width="0" stroke-linecap="butt"/><path d="M264.41384,73.70073c-0.47381,0.00986 2.43913,22.75111 5.72875,42.63328c0.06332,0.34346 -6.96057,6.56422 -6.96057,6.56422l-4.44542,-15.19399l1.35126,17.49132l-19.97844,10.84148l-1.98045,-50.79243" data-paper-data="{&quot;index&quot;:null}" fill="none" stroke="#3a2f41" stroke-width="2" stroke-linecap="round"/></g><path d="M256.97365,111.25367c-4.48505,7.12892 -24.59148,15.95812 -30.35418,15.703c-5.7627,-0.25512 -32.16396,-6.97392 -33.03501,-12.25156c-0.37121,-2.24913 -2.70149,-19.65421 0.67149,-29.18413c3.63679,-10.27523 14.68278,-16.1348 26.69205,-15.78552c8.03845,0.2338 23.05105,-0.24765 30.06771,9.70879c4.3149,6.1227 5.95794,31.80943 5.95794,31.80943z" fill="#e1e2db" stroke="#3a2f41" stroke-width="2" stroke-linecap="butt"/><g><g><path d="M169.28788,17.00808l29.49647,28.64993c0,0 19.9276,-9.98806 22.60119,-9.67242c3.85797,0.45549 34.82938,20.56188 42.39158,24.84752c4.62457,2.62082 13.2912,2.53684 13.2912,2.53684c0,0 -0.57558,3.66961 -1.60746,5.4525c-0.90073,1.55625 -4.24404,4.65763 -4.24404,4.65763c0,0 2.85024,1.98235 4.73617,6.25458c0.62783,1.42222 2.37755,4.74973 3.01461,7.76729c0.65973,3.12493 0.19603,5.91749 0.19603,5.91749c0,0 -8.91928,-0.92614 -11.55694,0.61217c-8.88124,5.17964 -20.45743,9.38093 -20.45743,9.38093l2.74792,-8.99865c0,0 -0.74581,1.13727 -5.78155,6.18727c-4.46237,4.47501 -9.69763,6.27343 -9.69763,6.27343c0,0 3.43993,-12.28245 2.02884,-19.03787c-0.654,5.6071 -1.51132,9.13211 -2.38804,11.5044c-1.66266,4.49891 -2.73684,7.01342 -2.73684,7.01342c0,0 -11.63939,-3.525 -21.08463,-11.62338c-7.83511,-6.71785 -5.96059,-7.72706 -5.98275,-7.0186c0.47719,5.28946 2.37628,11.93809 2.37628,11.93809c0,0 -5.72283,-4.19805 -7.65675,-6.32639c-1.84405,-2.02944 -3.69003,-6.16106 -3.69003,-6.16106l4.52175,51.72953l-21.96275,-7.2237l-1.78767,-17.69193l-1.91535,15.8554c0,0 -12.03091,-7.30379 -12.00289,-7.65223c1.92317,-23.91578 9.6201,-49.14073 9.06602,-49.09667c-4.31071,0.34278 -9.1937,-2.57115 -9.1937,-2.57115c0,0 4.06703,-1.18267 13.00077,-7.17808c8.78699,-5.89693 13.81419,-10.69752 13.81419,-10.69752l-28.34725,-26.44609l-6.12914,-13.59034z" fill="#e1e2db" stroke="none" stroke-width="0" stroke-linecap="round"/><path d="M189.16047,52.79353l-12.93869,-11.91124l15.83783,-1.67911l7.14045,6.55905z" fill="#8c9ca0" stroke="none" stroke-width="0" stroke-linecap="butt"/><path d="M162.26576,122.68995l1.1492,-12.67208l12.64135,5.01985l0.70643,-4.13247l21.80427,6.28918l1.07423,21.56413l-21.56335,-6.99874c0,0 -1.54631,-19.96337 -1.56289,-19.78749c-0.29629,3.14455 -1.99097,18.06376 -1.99097,18.06376z" fill="#8c9ca0" stroke="none" stroke-width="0" stroke-linecap="butt"/><path d="M169.32861,17.00807l29.49648,28.64993c0,0 19.92761,-9.98806 22.60119,-9.67242c3.85797,0.45549 34.82938,20.56188 42.39158,24.84752c4.62457,2.62082 13.57681,3.10805 13.57681,3.10805c0,0 -0.6313,6.04214 -6.62037,9.45554c9.18802,7.17206 8.26517,19.94546 8.26517,19.94546c0,0 -3.71664,-0.59758 -5.65362,-0.57411c-2.04784,0.02481 -6.31936,0.71916 -6.31936,0.71916c0,0 -2.32866,0.92372 -3.01556,1.50943c-7.51472,6.40749 -16.64672,8.20172 -16.64672,8.20172l2.5337,-8.14185c0,0 -1.73165,2.30971 -7.17496,6.80185c-4.43915,3.66345 -8.27791,4.46529 -8.27791,4.46529c0,0 3.60155,-10.87469 2.19045,-17.63011c-1.89427,11.28206 -5.20375,17.41628 -5.20375,17.41628c0,0 -15.81823,-5.20806 -26.97707,-17.80466c0.55966,3.60007 1.32015,7.64264 1.32015,7.64264c0,0 -7.73311,-0.22433 -10.06158,-8.53983c-0.03746,-0.13378 4.09334,51.48479 4.09334,51.48479l-21.96274,-7.2237l-1.78767,-17.69193l-1.91535,15.8554c0,0 -12.03091,-7.30379 -12.00288,-7.65223c1.92317,-23.91578 9.62009,-49.14073 9.06601,-49.09667c-4.31071,0.34278 -9.1937,-2.57115 -9.1937,-2.57115c0,0 4.06701,-1.18267 13.00077,-7.17808c8.78699,-5.89693 13.8142,-10.69752 13.8142,-10.69752l-28.34726,-26.44609l-6.12913,-13.59034z" fill="none" stroke="#3a2f41" stroke-width="2" stroke-linecap="round"/><path d="M162.74617,28.7087l0.96637,-3.51565l4.40238,0.15742l-0.29529,-4.85369l3.08703,-0.91827" fill="none" stroke="#3a2f41" stroke-width="2" stroke-linecap="round"/></g><path d="M161.14902,15.0134l-0.56373,3.30576h-3.0065l-2.06697,-4.775z" fill="#3a2f41" stroke="#3a2f41" stroke-width="2" stroke-linecap="round"/></g><path d="M223.59123,106.64321c0,0 -2.69146,5.46162 -13.69355,5.46162c-10.06507,0 -14.88607,-8.71816 -14.88607,-8.71816c0,0 3.87335,-9.76961 14.40694,-9.76961c11.23637,0 14.17269,13.02615 14.17269,13.02615z" fill="#e1e2db" stroke="#3a2f41" stroke-width="1.5" stroke-linecap="butt"/><path d="M217.04129,86.39335c0,0 0.86054,1.85175 -1.52435,2.72315c-4.57462,1.67149 -19.77943,5.60248 -19.77943,5.60248" fill="none" stroke="#3a2f41" stroke-width="1.5" stroke-linecap="round"/><g data-paper-data="{&quot;index&quot;:null}" fill="none" stroke="#3a2f41" stroke-width="2" stroke-linecap="round"><path d="M255.11512,105.77001l-0.61911,5.99368l-22.68845,0.82286l-0.53338,-5.97892"/><path d="M224.13496,106.50463l-0.40915,5.9937l-28.28635,0.08824l-0.58317,-5.97892"/><path d="M224.88805,109.94426h6.42669"/></g><path d="M214.40855,110.08464v-13.22305h2.93846v13.22305z" fill="#8c9ca0" stroke="none" stroke-width="0" stroke-linecap="butt"/><path d="M224.96844,124.16449c0,0 2.46386,-1.31073 2.93846,-1.22436c0.51523,0.09377 0.97949,1.46923 0.97949,1.46923" fill="none" stroke="#3a2f41" stroke-width="1.5" stroke-linecap="round"/></g><g><path d="M184.33936,131.03674l-2.25819,-45.26777l13.81174,3.36071l3.41356,46.74445z" fill="#e1e2db" stroke="#3a2f41" stroke-width="2" stroke-linecap="butt"/><path d="M184.33936,122.63495l13.65419,3.5644" fill="none" stroke="#3a2f41" stroke-width="2" stroke-linecap="round"/><path d="M197.46839,116.77917l-13.65419,-3.5644" fill="none" stroke="#3a2f41" stroke-width="2" stroke-linecap="round"/><path d="M185.38968,131.1895v-3.66623l12.76142,3.66623l0.31509,3.81899z" fill="#8c9ca0" stroke="none" stroke-width="0" stroke-linecap="butt"/><path d="M196.68065,107.359l-13.65419,-3.5644" fill="none" stroke="#3a2f41" stroke-width="2" stroke-linecap="round"/><path d="M182.76388,94.62903l13.65419,3.5644" fill="none" stroke="#3a2f41" stroke-width="2" stroke-linecap="round"/><path d="M184.1293,131.59686l-1.57549,-45.98065l4.14878,1.68035l1.57548,44.75857z" fill="#3a2f41" stroke="none" stroke-width="0" stroke-linecap="butt"/><path d="M184.75949,90.40267v-3.20795l8.03497,1.68035l0.3151,3.51347z" fill="#3a2f41" stroke="none" stroke-width="0" stroke-linecap="butt"/><path d="M184.60194,98.65169v-2.90243l8.50761,1.83311v3.51347z" fill="#3a2f41" stroke="none" stroke-width="0" stroke-linecap="butt"/><path d="M184.75949,107.81727v-3.20795l8.50761,1.83312v3.81899z" fill="#3a2f41" stroke="none" stroke-width="0" stroke-linecap="butt"/><path d="M185.23214,116.98285l-0.15755,-3.51347l8.5076,1.83312v3.81899z" fill="#3a2f41" stroke="none" stroke-width="0" stroke-linecap="butt"/><path d="M185.23214,126.75946l0.3151,-3.36071l8.50761,1.83311l0.31509,3.81898z" fill="#3a2f41" stroke="none" stroke-width="0" stroke-linecap="butt"/></g></g><path d="M243.87424,54.98445c0,3.7856 -5.76745,2.35277 -7.28283,0.8568c-0.86793,-0.85681 2.57041,-11.99525 2.57041,-11.99525c0,0 4.71242,7.35285 4.71242,11.13845z" fill="#3a2f41" stroke="#3a2f41" stroke-width="2" stroke-linecap="butt"/><path d="M205.59055,46.08238c0,0 5.90922,10.0483 5.26175,11.08184c-1.13047,1.80454 -6.41342,4.52611 -7.28455,0.8421c-0.87113,-3.68401 2.0228,-11.92393 2.0228,-11.92393z" data-paper-data="{&quot;index&quot;:null}" fill="#3a2f41" stroke="#3a2f41" stroke-width="2" stroke-linecap="butt"/><path d="M268.15548,89.27302c0.11604,0.14334 -2.07891,3.67095 -2.07891,3.67095c0,0 0.04253,1.70538 0.07234,3.11186c0.01875,0.8846 -2.16757,0.60028 -2.90118,1.19415c-3.67791,2.97737 -14.53161,5.19222 -14.7301,4.94703c-0.19849,-0.24519 8.94108,-4.9996 12.61899,-7.97697c3.67791,-2.97737 6.82038,-5.19222 7.01886,-4.94703z" fill="#e1e2db" stroke="none" stroke-width="0" stroke-linecap="butt"/></g></g></svg>