<svg version="1.1" xmlns="http://www.w3.org/2000/svg" xmlns:xlink="http://www.w3.org/1999/xlink" width="250.74257" height="226.76483" viewBox="0,0,250.74257,226.76483"><defs><linearGradient x1="1077.66314" y1="216.06023" x2="1077.66314" y2="354.07603" gradientUnits="userSpaceOnUse" id="color-1"><stop offset="0" stop-color="#ffffff" stop-opacity="0.26046"/><stop offset="1" stop-color="#ffffff" stop-opacity="0"/></linearGradient><linearGradient x1="1077.66314" y1="216.06023" x2="1077.66314" y2="354.07603" gradientUnits="userSpaceOnUse" id="color-2"><stop offset="0" stop-color="#ffffff" stop-opacity="0.26046"/><stop offset="1" stop-color="#ffffff" stop-opacity="0"/></linearGradient><linearGradient x1="1077.66314" y1="216.06023" x2="1077.66314" y2="354.07603" gradientUnits="userSpaceOnUse" id="color-3"><stop offset="0" stop-color="#ffffff" stop-opacity="0.26046"/><stop offset="1" stop-color="#ffffff" stop-opacity="0"/></linearGradient><linearGradient x1="1036.02754" y1="220.12051" x2="1036.02754" y2="358.13629" gradientUnits="userSpaceOnUse" id="color-4"><stop offset="0" stop-color="#ffffff" stop-opacity="0.26046"/><stop offset="1" stop-color="#ffffff" stop-opacity="0"/></linearGradient><linearGradient x1="1036.02754" y1="220.12051" x2="1036.02754" y2="358.13629" gradientUnits="userSpaceOnUse" id="color-5"><stop offset="0" stop-color="#ffffff" stop-opacity="0.26046"/><stop offset="1" stop-color="#ffffff" stop-opacity="0"/></linearGradient><linearGradient x1="1036.02754" y1="220.12051" x2="1036.02754" y2="358.13629" gradientUnits="userSpaceOnUse" id="color-6"><stop offset="0" stop-color="#ffffff" stop-opacity="0.26046"/><stop offset="1" stop-color="#ffffff" stop-opacity="0"/></linearGradient><linearGradient x1="214.25563" y1="106.07118" x2="226.42531" y2="185.33082" gradientUnits="userSpaceOnUse" id="color-7"><stop offset="0" stop-color="#cedee0" stop-opacity="0"/><stop offset="1" stop-color="#cedee0" stop-opacity="0.19676"/></linearGradient></defs><g transform="translate(-150.242,-62.11361)"><g data-paper-data="{&quot;isPaintingLayer&quot;:true}" fill-rule="nonzero" stroke-linejoin="miter" stroke-miterlimit="10" stroke-dasharray="" stroke-dashoffset="0" style="mix-blend-mode: normal"><path d="" fill="#3a2f41" stroke="none" stroke-width="0" stroke-linecap="butt"/><path d="" fill="#3a2f41" stroke="url(#color-1)" stroke-width="0.5" stroke-linecap="butt"/><path d="" fill="#3a2f41" stroke="url(#color-2)" stroke-width="0.5" stroke-linecap="butt"/><path d="" fill="#3a2f41" stroke="url(#color-3)" stroke-width="0.5" stroke-linecap="butt"/><path d="" data-paper-data="{&quot;index&quot;:null}" fill="#3a2f41" stroke="url(#color-4)" stroke-width="0.5" stroke-linecap="butt"/><path d="" data-paper-data="{&quot;index&quot;:null}" fill="#3a2f41" stroke="url(#color-5)" stroke-width="0.5" stroke-linecap="butt"/><path d="" data-paper-data="{&quot;index&quot;:null}" fill="#3a2f41" stroke="url(#color-6)" stroke-width="0.5" stroke-linecap="butt"/><g><path d="M215.88085,250.34429l47.82054,-4.48949c0,0 6.19486,11.49813 10.13905,18.69086c1.18048,2.15279 2.15935,3.91989 2.71017,4.87763c1.04923,2.94601 2.39999,7.07452 3.9253,11.91891c-24.33848,2.05673 -48.66462,4.24419 -72.67992,6.36295c3.69825,-18.48643 8.08489,-37.36086 8.08489,-37.36086z" fill="#e1e2db" stroke="none" stroke-width="0" stroke-linecap="round"/><path d="M205.90052,276.28274c2.08049,-14.52525 12.90972,-31.0257 12.90972,-31.0257l42.63334,-4.26531c0,0 6.51889,10.3539 8.66333,14.36927c1.4869,2.78415 2.96935,7.41231 2.96935,7.41231l-23.7198,20.85909c-14.9541,1.31341 -29.85525,2.64416 -44.63364,3.94567c0.42132,-4.7956 0.83034,-8.87018 1.17769,-11.29532z" fill="#8c9ca0" stroke="none" stroke-width="0" stroke-linecap="butt"/><path d="M205.83081,287.87844c0.47158,-4.71264 0.97051,-9.02316 1.4931,-12.67178c1.87052,-13.05986 11.5301,-29.53938 11.5301,-29.53938l42.31637,-3.7855c0,0 7.39255,8.35205 14.19828,26.33159c1.1299,2.98501 2.70484,7.61242 4.5232,13.1782" fill="none" stroke="#3a2f41" stroke-width="2" stroke-linecap="round"/><path d="M265.43613,248.45545l-19.89407,12.36145l-29.91665,-7.46078" fill="none" stroke="#3a2f41" stroke-width="1.5" stroke-linecap="round"/></g><path d="M243.32194,254.15652c-9.06548,1.67165 -25.63001,-5.36767 -25.63001,-5.36767c0,0 0.29644,-5.28237 0.74661,-8.19323c0.41009,-2.65169 1.33409,-8.47451 1.33409,-8.47451c0,0 -0.1466,-3.96715 -3.12564,-7.64445c-1.86643,-2.3039 -11.51397,-11.24362 -11.59371,-11.59776c-0.01533,-0.06809 0.31678,-3.92788 1.27647,-8.15038c1.11396,-4.90119 6.90425,-13.5373 9.82149,-15.85066c3.1782,-2.5203 7.79824,-4.24273 11.47614,-4.80876c5.62083,-0.86506 11.60444,-0.83121 17.16375,0.99501c2.09498,0.68819 6.06345,2.8454 6.06345,2.8454c0,0 7.26818,6.60019 11.42842,15.50384c-1.83375,10.68049 -9.31205,16.30914 -9.31205,16.30914l0.22684,7.00222c0,0 2.92052,4.65507 4.1731,7.01368c1.24838,2.35069 3.32988,7.11432 3.32988,7.11432c0,0 -8.31333,11.6322 -17.37882,13.30386z" fill="#3a2f41" stroke="#8c9ca0" stroke-width="1.5" stroke-linecap="round"/><g data-paper-data="{&quot;index&quot;:null}" stroke="#3a2f41" stroke-linecap="butt"><g data-paper-data="{&quot;index&quot;:null}"><g stroke-width="0"><path d="" fill="#e1e2db"/><path d="" fill="#e1e2db"/><path d="" fill="#8c9ca0"/></g><path d="M275.84841,277.49274l36.30732,-8.63341l1.52348,6.45369c-12.25191,2.16147 -24.52493,4.37899 -36.78206,6.62239z" fill="#e1e2db" stroke-width="0"/><path d="M275.8484,277.49274l36.30734,-8.63341l1.52346,6.4537c-12.25191,2.16147 -24.52492,4.37899 -36.78206,6.62239z" fill="#8c9ca0" stroke-width="0"/><path d="M302.22294,271.50504l10.0192,-2.38242l1.46036,6.1863" fill="none" stroke-width="2"/><path d="M276.92039,281.93115l-0.98559,-4.17514l11.80462,-2.80697" fill="none" stroke-width="2"/></g><g data-paper-data="{&quot;index&quot;:null}"><path d="M272.62306,243.89269l-22.92793,-36.01517l2.84404,-16.2281c0,0 9.88245,8.24329 15.48411,13.74891c10.17143,9.99706 40.50666,41.28199 40.50666,41.28199l6.81099,28.33988c-12.83747,2.25977 -25.69995,4.58258 -38.54487,6.93373z" fill="#3a2f41" stroke-width="1.5"/><path d="" fill="#8ea8ab" stroke-width="2"/></g></g><g fill="#8c9ca0" stroke="#3a2f41" stroke-width="1.5" stroke-linecap="butt"><path d="M235.99106,201.59941c0.22349,1.83571 -1.15049,3.51315 -3.06887,3.7467c-1.91838,0.23355 -3.65469,-1.06523 -3.87818,-2.90094c-0.22349,-1.83571 1.1505,-3.51317 3.06888,-3.74672c1.91838,-0.23355 3.65469,1.06525 3.87818,2.90095z"/><path d="M237.84535,211.46953c0.23125,1.8995 -1.20691,3.63726 -3.21223,3.8814c-2.00532,0.24412 -3.81839,-1.09781 -4.04964,-2.99731c-0.23125,-1.8995 1.2069,-3.63724 3.21221,-3.88139c2.00532,-0.24412 3.81842,1.0978 4.04967,2.9973z"/></g><g><path d="M236.53799,182.06702c0.3645,2.01293 -4.16785,6.68934 -6.38025,7.08997c-2.21241,0.40063 -7.89412,-2.01925 -8.25862,-4.03217c-0.3645,-2.01293 4.7092,-4.07439 6.9216,-4.47502c2.2124,-0.40063 7.35279,-0.5957 7.7173,1.41724z" fill="#3a2f41" stroke="none" stroke-width="0" stroke-linecap="butt"/><g fill="#8c9ca0" stroke="#8c9ca0" stroke-width="1.5" stroke-linecap="butt"><path d="M214.35629,200.4844c-0.89486,-0.60647 6.78776,-16.13826 6.78776,-16.13826l8.62771,4.36241l6.87768,-7.85541c0,0 12.75099,11.90222 12.29177,12.76488c-0.25392,0.47699 -4.2055,-0.77593 -8.94122,-1.3317c-4.35639,-0.51128 -9.53799,-0.31156 -9.53799,-0.31156c0,0 -5.10074,2.3345 -9.20661,4.61519c-3.75421,2.08534 -6.52596,4.14733 -6.89908,3.89447z"/></g><path d="M221.44482,185.98705l0.15663,-1.98169l6.8027,-3.48361l7.76585,0.26221l1.13767,1.78801" fill="none" stroke="#8c9ca0" stroke-width="2" stroke-linecap="round"/></g><path d="" fill="#3a2f41" stroke="#8c9ca0" stroke-width="2" stroke-linecap="butt"/><path d="" fill="#3a2f41" stroke="#8c9ca0" stroke-width="2" stroke-linecap="butt"/><g><g data-paper-data="{&quot;index&quot;:null}" stroke="#3a2f41" stroke-linecap="butt"><path d="M151.08988,125.86136l1.96467,-13.09191l8.34132,4.2124l-6.97297,-8.10233l13.68242,-19.62515c0,0 4.72848,16.75923 13.07719,31.47466c2.85031,3.15502 -5.36811,10.04165 -5.36811,10.04165z" fill="#3a2f41" stroke-width="1.5"/><path d="M181.07275,127.23821c-2.1811,-1.22966 -0.48958,-20.33645 2.1623,-24.75983c1.07264,-1.78916 16.4121,11.40525 15.04846,13.67981c-2.65188,4.42336 -13.97653,12.90338 -16.15762,11.67373z" data-paper-data="{&quot;index&quot;:null}" fill="#8c9ca0" stroke-width="2"/><path d="M181.86829,127.31098c1.89843,1.56439 -4.40181,16.00663 -7.89731,19.43527c-1.79746,1.76307 -18.02643,-10.55204 -16.61256,-11.93886c3.49548,-3.42863 21.69479,-9.81615 23.59322,-8.25175z" fill="#e1e2db" stroke-width="1.5"/><path d="M185.59023,123.13577c1.94172,2.41087 1.66703,5.85427 -0.61355,7.69105c-2.28054,1.83676 -5.70341,1.37135 -7.64512,-1.03955c-1.94172,-2.41087 -1.66703,-5.85427 0.61355,-7.69104c2.28054,-1.83676 5.70342,-1.37134 7.64513,1.03954z" fill="#e1e2db" stroke-width="2"/></g><path d="M269.00555,173.54879l-19.00753,0.79523l-1.59051,-10.09429c0,0 0.34201,10.44664 -0.08891,10.39641c-5.35325,0.38847 -10.6402,0.85248 -15.6884,1.34859c-21.2075,2.0842 -38.20198,4.73528 -38.20198,4.73528c0,0 -8.28479,-10.57287 -9.94918,-21.41281c-1.16312,-7.57514 -2.58351,-22.67449 6.33121,-35.97076c7.18976,-10.72351 21.88557,-15.96952 25.0071,-16.57949c2.49599,-0.48774 13.70394,1.77793 20.90085,6.73457c11.97984,8.25077 27.11905,28.66786 27.11905,28.66786z" fill="#3a2f41" stroke="none" stroke-width="0" stroke-linecap="butt"/><g stroke-linecap="butt"><path d="M253.36281,146.62239c1.03051,6.7116 3.48624,12.46338 -0.64358,17.53192c-4.01459,4.92712 -14.25058,7.98692 -24.89053,9.85321c-10.59003,1.85756 -21.62518,1.09026 -26.98898,-2.57586c-5.42638,-3.70887 -5.32181,-9.11439 -6.34383,-15.77075c-2.03227,-13.23595 4.34159,-31.42354 29.15438,-34.4862c16.32199,-2.01465 27.68031,12.21169 29.71257,25.44767z" fill="#e1e2db" stroke="none" stroke-width="0"/><path d="M253.36281,146.62239c2.03229,13.23595 -11.25758,6.75613 -24.57175,8.90791c-13.31149,2.15135 -32.26294,13.36658 -34.29521,0.13063c-2.03227,-13.23595 4.34159,-31.42354 29.15438,-34.4862c16.32199,-2.01465 27.68031,12.21171 29.71257,25.44767z" fill="#b8c1c0" stroke="none" stroke-width="0"/><path d="M228.34251,121.0368c13.78489,0.92715 24.11967,12.97272 25.95098,24.89985l0.08143,0.53035c0.96399,6.27836 2.14202,12.143 -1.35656,17.02928c-3.87709,5.41491 -13.46358,8.46274 -24.81009,10.45298c-7.83868,1.37495 -17.5762,1.41631 -22.48621,-0.42216c-8.43414,-3.15803 -9.94167,-9.50039 -11.22615,-17.86617c-1.72502,-11.23479 2.6064,-26.03711 19.12976,-32.12922" fill="none" stroke="#3a2f41" stroke-width="2"/></g><path d="M182.63553,179.12407l-10.10933,-5.63324c0,0 -5.74719,-23.01146 2.12097,-39.74942c10.14868,-21.58926 32.18168,-32.74808 55.94321,-30.63098c5.09026,0.45353 18.09337,2.69001 26.6291,9.91548c10.25385,8.67986 15.21552,20.9608 15.21552,20.9608l-4.98617,-0.01703l2.47862,9.92865c0,0 -2.78062,-0.27225 -2.83085,-0.48358c-1.12528,-4.73504 -2.84883,-9.34276 -2.84883,-9.34276c0,0 1.34429,3.77627 1.74684,9.6008c-2.87221,-0.09334 -18.66469,0.65581 -18.66469,0.65581l-2.77739,-3.99765l0.24718,4.10518l-13.69094,0.82922l-3.77654,-15.00423l2.06662,14.85333c0,0 -12.09711,1.7423 -17.90609,2.8537c-0.40973,0.0784 -2.95743,-6.09057 -2.95743,-6.09057c0,0 0.87996,6.71092 0.57298,6.76353c-3.62861,0.62166 -8.54244,2.04709 -8.54244,2.04709c0,0 5.25645,33.78967 5.1255,33.82541c-2.03675,0.55624 -20.63095,-3.18249 -20.81545,-4.57994c-0.26653,-2.01881 -3.27285,-13.14807 -3.27285,-13.14807z" fill="#3a2f41" stroke="url(#color-7)" stroke-width="0.5" stroke-linecap="butt"/><path d="M223.55271,115.47659c9.32129,-32.58767 35.09049,-48.0767 35.09049,-48.0767l-2.97857,56.64939" fill="#3a2f41" stroke="#3a2f41" stroke-width="1.5" stroke-linecap="round"/><path d="M172.19108,144.36689c4.23539,-47.76932 31.3156,-80.65355 31.3156,-80.65355l13.20149,49.00762" fill="#3a2f41" stroke="#3a2f41" stroke-width="1.5" stroke-linecap="round"/><path d="M200.60674,161.13896c0,0 3.80932,-4.13305 11.33934,-5.24356c7.97807,-1.17657 12.67493,2.60519 12.67493,2.60519c0,0 -5.11962,0.3684 -12.40838,1.2626c-6.47682,0.79459 -11.60589,1.37578 -11.60589,1.37578z" fill="#e1e2db" stroke="#3a2f41" stroke-width="1" stroke-linecap="butt"/><path d="M219.6473,158.37278l-0.31543,-2.21201l0.08437,-0.01174l0.30638,2.21875z" data-paper-data="{&quot;index&quot;:null}" fill="#3a2f41" stroke="#3a2f41" stroke-width="0.5" stroke-linecap="butt"/><path d="M225.92646,156.66581c0.44503,-0.22792 0.67294,0.21713 0.67294,0.21713l0.13083,0.25735c0.61392,1.07754 0.8043,2.33978 -0.31753,3.09693c0,0 -0.43087,0.25365 -0.68453,-0.17723c-0.25365,-0.43088 0.17723,-0.68453 0.17723,-0.68453c0.63975,-0.26511 0.25536,-1.25345 -0.03694,-1.72784l-0.15913,-0.30884c0,0 -0.22791,-0.44503 0.21712,-0.67294z" fill="#3a2f41" stroke="none" stroke-width="0.5" stroke-linecap="butt"/><path d="M213.55875,160.94485c0.28855,0.40833 -0.11976,0.69689 -0.11976,0.69689l-0.2579,0.1732c-2.38694,1.12962 -6.15369,1.80507 -8.56042,0.51532c0,0 -0.44071,-0.23617 -0.20453,-0.67688c0.23617,-0.44071 0.67688,-0.20453 0.67688,-0.20453c2.12296,1.13769 5.56726,0.45759 7.65943,-0.53738l0.10943,-0.08638c0,0 0.40833,-0.28857 0.69689,0.11976z" fill="#3a2f41" stroke="none" stroke-width="0.5" stroke-linecap="butt"/><path d="M225.04805,159.51659c0.40289,0.29612 0.10675,0.699 0.10675,0.699l-0.3149,0.32753c-2.85807,1.35577 -7.44184,2.08396 -10.478,1.11029c0,0 -0.47584,-0.15351 -0.32232,-0.62937c0.15352,-0.47584 0.62938,-0.32232 0.62938,-0.32232c2.80088,0.90977 7.11192,0.18618 9.74229,-1.06207l-0.06218,-0.01631c0,0 0.29612,-0.40289 0.699,-0.10675z" fill="#3a2f41" stroke="none" stroke-width="0.5" stroke-linecap="butt"/><path d="M225.05558,156.568c-0.29612,0.40289 -0.699,0.10675 -0.699,0.10675l0.00265,-0.00429c-0.49453,-0.28082 -1.01698,-0.27923 -1.55863,-0.49596c0,0 -0.46267,-0.18957 -0.2731,-0.65223c0.18957,-0.46266 0.65224,-0.2731 0.65224,-0.2731c0.5764,0.24334 1.08802,0.24957 1.65185,0.53989l0.11725,0.07995c0,0 0.40289,0.29611 0.10675,0.699z" fill="#3a2f41" stroke="none" stroke-width="0.5" stroke-linecap="butt"/><path d="M204.02959,162.11365c0.13339,0.48188 -0.3485,0.61527 -0.3485,0.61527l-0.4239,0.0997c-0.70044,0.0029 -1.15483,-0.07803 -1.79513,-0.35795c0,0 -0.45721,-0.2024 -0.2548,-0.6596c0.2024,-0.45721 0.65961,-0.25481 0.65961,-0.25481c0.52137,0.23432 0.80557,0.28039 1.38175,0.27238l0.1657,-0.0635c0,0 0.48188,-0.13339 0.61527,0.34849z" fill="#3a2f41" stroke="none" stroke-width="0.5" stroke-linecap="butt"/></g><g data-paper-data="{&quot;index&quot;:null}"><g><g fill="none" stroke="#8c9ca0" stroke-width="2" stroke-linecap="round"><path d="M314.70692,180.72169l-8.1777,-15.87651l-17.32439,10.25223l-5.9866,-15.50239l-18.61488,11.04795l-11.94503,-18.29797"/><path d="M249.509,166.79567l18.66365,-11.29367l11.39722,18.20435l15.82718,-11.26984l8.22649,15.63068l13.31351,-11.44502"/></g><g stroke="none" stroke-width="0.78636"><path d="M230.3396,136.07616c5.84467,1.17761 10.638,4.37347 13.65912,8.5858c3.02217,4.21181 4.2721,9.44018 3.03223,14.6815c-1.23987,5.2413 -4.73709,9.51315 -9.38634,12.17925c-4.64855,2.66706 -10.44891,3.72841 -16.29358,2.55079c-5.84467,-1.17761 -10.638,-4.37347 -13.65911,-8.5858c-3.02216,-4.2118 -4.27222,-9.44009 -3.03235,-14.6814c1.23987,-5.2414 4.73721,-9.51313 9.38647,-12.17933c4.64855,-2.66706 10.44891,-3.72842 16.29357,-2.5508z" fill="#3a2f41" stroke-linecap="butt"/><path d="M247.76151,138.59842c2.27268,0.45786 3.79649,3.14136 4.42048,7.10713c0.62409,3.96588 0.35054,9.2129 -0.97094,14.79893c-1.32136,5.58593 -3.44222,10.46086 -5.80039,13.82579c-2.35829,3.36492 -4.9552,5.21812 -7.22789,4.76027c-2.27266,-0.45795 -3.79639,-3.14144 -4.42047,-7.10723c-0.62397,-3.96587 -0.35042,-9.21288 0.97095,-14.79892c1.32147,-5.58593 3.44231,-10.46075 5.80049,-13.82579c2.35818,-3.36493 4.9552,-5.21812 7.22776,-4.76019z" fill="#3a2f41" stroke-linecap="butt"/><path d="M233.56023,149.81295c1.88915,0.38062 3.26536,2.14489 3.96239,4.68749c0.69803,2.54278 0.56192,6.27188 -0.11067,9.358c-0.69933,3.21026 -1.63595,6.70719 -3.98188,9.25037c-1.24774,1.35868 -3.66049,1.25045 -5.512,1.50311c-1.72798,0.11663 -4.63474,0.96726 -5.05815,-0.41605c-1.25693,-4.24771 -0.0866,-9.00124 0.85622,-13.09688c0.70596,-3.0642 2.34254,-6.50614 4.12529,-8.54914c1.78186,-2.04316 3.82964,-3.11752 5.71881,-2.7369z" fill="#8c9ca0" stroke-linecap="round"/></g></g><path d="M376.70903,231.34964l-21.67981,-3.10582l9.05387,-59.31459l21.67969,3.10591z" fill="#3a2f41" stroke="none" stroke-width="0.78636" stroke-linecap="butt"/><path d="M366.34059,190.93592l-56.40753,-8.08105l3.23562,-21.19771l56.40753,8.08105z" fill="#3a2f41" stroke="none" stroke-width="0.78636" stroke-linecap="butt"/><path d="M358.8886,229.27349l-7.62814,-1.09287l6.97596,-45.70133l7.62804,1.09275z" fill="#8c9ca0" stroke="none" stroke-width="0.78636" stroke-linecap="butt"/><path d="M360.55698,190.49394l-50.58615,-7.24713l1.18738,-7.77894l50.58615,7.24703z" fill="#8c9ca0" stroke="none" stroke-width="0.84105" stroke-linecap="butt"/></g><g stroke="#3a2f41" stroke-width="2"><g fill="#e1e2db"><path d="M365.82762,223.34158l8.85121,-25.53252l5.47927,26.20778z" stroke-linecap="round"/><path d="M371.38823,222.574l6.02571,-23.30699l7.60998,27.64273z" stroke-linecap="round"/><path d="M303.03769,231.03568l2.96792,-3.72485l-12.26924,-2.45576l8.77015,-3.39087l-2.70098,-3.39601c0,0 23.16375,-1.08512 30.23371,-1.88928c4.532,-0.51545 7.62542,-0.99766 7.62542,-0.99766l9.30163,-16.47255l28.59419,-0.43302c0,0 -21.83627,8.70441 -17.89884,12.52464c0.96503,0.93633 23.90504,5.91459 23.90504,5.91459l-5.19205,-18.73598l17.23266,29.04745c0,0 -14.05836,1.79687 -22.94518,1.87432c-8.88683,0.07746 21.53533,-1.62602 22.94486,-1.77237l-18.61623,7.17405c0,0 -13.64227,-0.57572 -18.33083,-0.48647c-13.67966,0.26038 -53.62227,-2.7803 -53.62227,-2.7803z" stroke-linecap="butt"/></g><g stroke-linecap="butt"><path d="M339.79005,240.60669l-40.53889,1.05743c0,0 -75.81805,-20.00132 -88.16129,-27.04953c-6.79772,-3.88163 4.43925,-12.86529 4.43925,-12.86529l71.65882,6.80065l52.20233,-7.84685z" fill="#3a2f41"/><path d="M332.75669,240.74648l-2.24673,-0.1081l-2.25929,-38.13032l2.17115,-0.15499z" fill="#8ea8ab"/></g></g></g></g></svg>