<svg version="1.1" xmlns="http://www.w3.org/2000/svg" xmlns:xlink="http://www.w3.org/1999/xlink" width="143.60286" height="225.50386" viewBox="0,0,143.60286,225.50386"><defs><linearGradient x1="1077.66315" y1="216.06021" x2="1077.66315" y2="354.07601" gradientUnits="userSpaceOnUse" id="color-1"><stop offset="0" stop-color="#ffffff" stop-opacity="0.26046"/><stop offset="1" stop-color="#ffffff" stop-opacity="0"/></linearGradient><linearGradient x1="1077.66315" y1="216.06021" x2="1077.66315" y2="354.07601" gradientUnits="userSpaceOnUse" id="color-2"><stop offset="0" stop-color="#ffffff" stop-opacity="0.26046"/><stop offset="1" stop-color="#ffffff" stop-opacity="0"/></linearGradient><linearGradient x1="1077.66315" y1="216.06021" x2="1077.66315" y2="354.07601" gradientUnits="userSpaceOnUse" id="color-3"><stop offset="0" stop-color="#ffffff" stop-opacity="0.26046"/><stop offset="1" stop-color="#ffffff" stop-opacity="0"/></linearGradient><linearGradient x1="1036.02754" y1="220.12049" x2="1036.02754" y2="358.13627" gradientUnits="userSpaceOnUse" id="color-4"><stop offset="0" stop-color="#ffffff" stop-opacity="0.26046"/><stop offset="1" stop-color="#ffffff" stop-opacity="0"/></linearGradient><linearGradient x1="1036.02754" y1="220.12049" x2="1036.02754" y2="358.13627" gradientUnits="userSpaceOnUse" id="color-5"><stop offset="0" stop-color="#ffffff" stop-opacity="0.26046"/><stop offset="1" stop-color="#ffffff" stop-opacity="0"/></linearGradient><linearGradient x1="1036.02754" y1="220.12049" x2="1036.02754" y2="358.13627" gradientUnits="userSpaceOnUse" id="color-6"><stop offset="0" stop-color="#ffffff" stop-opacity="0.26046"/><stop offset="1" stop-color="#ffffff" stop-opacity="0"/></linearGradient><linearGradient x1="248.11198" y1="104.94022" x2="248.17153" y2="185.12867" gradientUnits="userSpaceOnUse" id="color-7"><stop offset="0" stop-color="#cedee0" stop-opacity="0"/><stop offset="1" stop-color="#cedee0" stop-opacity="0.19676"/></linearGradient></defs><g transform="translate(-175.01829,-59.75247)"><g data-paper-data="{&quot;isPaintingLayer&quot;:true}" fill-rule="nonzero" stroke-linejoin="miter" stroke-miterlimit="10" stroke-dasharray="" stroke-dashoffset="0" style="mix-blend-mode: normal"><path d="" fill="#3a2f41" stroke="none" stroke-width="0" stroke-linecap="butt"/><path d="" fill="#3a2f41" stroke="url(#color-1)" stroke-width="0.5" stroke-linecap="butt"/><path d="" fill="#3a2f41" stroke="url(#color-2)" stroke-width="0.5" stroke-linecap="butt"/><path d="" fill="#3a2f41" stroke="url(#color-3)" stroke-width="0.5" stroke-linecap="butt"/><path d="" data-paper-data="{&quot;index&quot;:null}" fill="#3a2f41" stroke="url(#color-4)" stroke-width="0.5" stroke-linecap="butt"/><path d="" data-paper-data="{&quot;index&quot;:null}" fill="#3a2f41" stroke="url(#color-5)" stroke-width="0.5" stroke-linecap="butt"/><path d="" data-paper-data="{&quot;index&quot;:null}" fill="#3a2f41" stroke="url(#color-6)" stroke-width="0.5" stroke-linecap="butt"/><g><path d="M226.29341,247.31905l48.0244,-0.7853c0,0 5.28896,11.94195 8.66624,19.41765c1.01081,2.23748 1.85037,4.07486 2.32563,5.07225c0.81872,3.0182 1.84682,7.23865 2.99369,12.18631c-24.42462,0.17215 -48.84703,0.47558 -72.95423,0.73453c5.114,-18.14585 10.94429,-36.62542 10.94429,-36.62542z" fill="#e1e2db" stroke="none" stroke-width="0" stroke-linecap="round"/><path d="M214.34092,272.40984c3.19534,-14.32135 15.26578,-29.93679 15.26578,-29.93679l42.83537,-0.96214c0,0 5.70033,10.82614 7.52847,14.99505c1.26759,2.8906 2.38841,7.61937 2.38841,7.61937l-25.25896,18.96617c-15.01087,0.15533 -29.97027,0.33204 -44.80503,0.48907c0.79018,-4.74878 1.51246,-8.77964 2.04595,-11.17073z" fill="#8c9ca0" stroke="none" stroke-width="0" stroke-linecap="butt"/><path d="M213.37647,283.96557c0.83389,-4.66219 1.66403,-8.92134 2.46666,-12.51874c2.8729,-12.87653 13.77556,-28.56137 13.77556,-28.56137l42.48231,-0.50823c0,0 6.72589,8.8977 12.12365,27.34887c0.89614,3.06331 2.10924,7.79848 3.49261,13.48799" fill="none" stroke="#3a2f41" stroke-width="2" stroke-linecap="round"/><path d="M275.84666,249.26053l-20.78879,10.78915l-29.25159,-9.74749" fill="none" stroke="#3a2f41" stroke-width="1.5" stroke-linecap="round"/></g><path d="M252.55482,252.08215c-9.21827,0.02957 -24.26341,-9.84864 -24.26341,-9.84864c0,0 1.23293,-5.14501 2.19457,-7.92908c0.87601,-2.53618 2.82277,-8.10118 2.82277,-8.10118c0,0 0.56263,-3.92979 -1.71349,-8.07906c-1.42604,-2.5996 -9.32627,-13.1153 -9.34163,-13.47799c-0.00295,-0.06973 1.0116,-3.80857 2.70832,-7.7925c1.96945,-4.62426 9.2059,-12.09043 12.48866,-13.84696c3.57641,-1.91366 8.42943,-2.78531 12.14934,-2.68693c5.68502,0.15033 11.56684,1.24983 16.71179,4.0374c1.93883,1.05047 5.45941,3.88028 5.45941,3.88028c0,0 5.97581,7.78965 8.48298,17.2921c-3.70751,10.18282 -12.06907,14.38888 -12.06907,14.38888l-1.02448,6.93058c0,0 2.04432,5.10097 2.85658,7.64502c0.80955,2.53552 2.00893,7.5938 2.00893,7.5938c0,0 -10.25297,9.96474 -19.47125,9.99431z" fill="#3a2f41" stroke="#8c9ca0" stroke-width="1.5" stroke-linecap="round"/><g data-paper-data="{&quot;index&quot;:null}" stroke="#3a2f41" stroke-linecap="butt"><g data-paper-data="{&quot;index&quot;:null}"><g stroke-width="0"><path d="" fill="#e1e2db"/><path d="" fill="#e1e2db"/><path d="" fill="#8c9ca0"/></g><path d="M278.49235,278.72668l37.25081,-2.26596l0.39182,6.61948c-12.44109,0.02396 -24.9126,0.09951 -37.37291,0.20328z" fill="#e1e2db" stroke-width="0"/><path d="M278.49234,278.72668l37.25083,-2.26596l0.3918,6.61949c-12.44109,0.02396 -24.91259,0.09951 -37.37291,0.20328z" fill="#8c9ca0" stroke-width="0"/><path d="M305.50345,277.36022l10.27956,-0.62529l0.37558,6.34523" fill="none" stroke-width="2"/><path d="M278.78569,283.28328l-0.25348,-4.28239l12.11137,-0.73672" fill="none" stroke-width="2"/></g><g data-paper-data="{&quot;index&quot;:null}"><path d="M281.08878,245.07217l-16.39806,-39.41936l5.59036,-15.49799c0,0 8.31892,9.81887 12.89119,16.20517c8.30224,11.5962 32.81026,47.62856 32.81026,47.62856l1.83977,29.08872c-13.03483,0.02017 -26.10513,0.09815 -39.163,0.20707z" fill="#3a2f41" stroke-width="1.5"/><path d="" fill="#8ea8ab" stroke-width="2"/></g></g><g stroke="#3a2f41"><g fill="#e1e2db" stroke-width="2"><path d="" stroke-linecap="round"/><path d="" stroke-linecap="round"/><path d="M195.72093,255.36315l4.91052,-11.47163l1.65973,9.25492l3.94948,-1.9401c0,0 -3.52313,22.83075 -4.12333,29.89603c-0.09192,1.08207 -0.1694,2.08362 -0.23409,2.98133c-6.10541,0.06014 -12.18661,0.11527 -18.2384,0.16249c3.99509,-15.36284 8.91544,-32.50889 8.92531,-32.5433z" stroke-linecap="butt"/><path d="M192.57013,251.70289v0c0.00001,-0.00004 0.00002,-0.00006 0.00002,-0.00006z" stroke-linecap="butt"/></g><g stroke-linecap="butt"><path d="M182.65746,246.0333c0,0 28.35798,-33.08776 37.89666,-43.69023c5.2532,-5.83904 13.81976,-14.25448 13.81976,-14.25448l1.22534,22.63187l-17.27361,30.32674l-2.05114,42.88734c-13.57095,0.14635 -27.04333,0.27932 -40.36139,0.36757z" fill="#3a2f41" stroke-width="1.5"/><path d="M176.89614,278.7187l0.55606,-2.17071l38.75476,5.61099l-0.22884,1.77873c-0.82096,0.00884 -1.64156,0.01764 -2.46178,0.02637z" fill="#8ea8ab" stroke-width="2"/></g></g><g><path d="M258.52468,179.9375c0,2.04567 -5.29309,5.83964 -7.54147,5.83964c-2.24839,0 -7.40799,-3.39354 -7.40799,-5.4392c0,-2.04567 5.35983,-3.17008 7.60821,-3.17008c2.24838,0 7.34127,0.72399 7.34127,2.76966z" fill="#3a2f41" stroke="none" stroke-width="0" stroke-linecap="butt"/><g fill="#8c9ca0" stroke="#8c9ca0" stroke-width="1.5" stroke-linecap="butt"><path d="M233.41627,194.1077c-0.77248,-0.75621 9.55472,-14.67052 9.55472,-14.67052l7.71232,5.82992l8.16733,-6.5042c0,0 10.42614,13.98379 9.82055,14.75081c-0.33485,0.42412 -3.99994,-1.51286 -8.56085,-2.90358c-4.19557,-1.27934 -9.32983,-2.0061 -9.32983,-2.0061c0,0 -5.43509,1.38827 -9.88163,2.90086c-4.06571,1.38303 -7.16051,2.91813 -7.48261,2.60284z"/></g><path d="M242.97457,181.10542l0.50723,-1.92207l7.31457,-2.21572l7.59486,1.64177l0.80087,1.96211" fill="none" stroke="#8c9ca0" stroke-width="2" stroke-linecap="round"/></g><g fill="#8c9ca0" stroke="#3a2f41" stroke-width="1.5" stroke-linecap="butt"><path d="M254.70614,199.05986c-0.10718,1.84615 -1.75807,3.25193 -3.68737,3.13992c-1.92929,-0.11201 -3.4064,-1.6994 -3.29922,-3.54555c0.10718,-1.84615 1.75808,-3.25194 3.68738,-3.13993c1.92929,0.11201 3.4064,1.69942 3.29921,3.54556z"/><path d="M254.77204,209.10244c-0.11091,1.91031 -1.8357,3.364 -3.85243,3.24691c-2.01673,-0.1171 -3.56167,-1.76062 -3.45076,-3.67093c0.11091,-1.91031 1.83569,-3.36399 3.85241,-3.24691c2.01673,0.1171 3.5617,1.76062 3.45079,3.67093z"/></g><path d="" fill="#3a2f41" stroke="#8c9ca0" stroke-width="2" stroke-linecap="butt"/><path d="" fill="#3a2f41" stroke="#8c9ca0" stroke-width="2" stroke-linecap="butt"/><g data-paper-data="{&quot;index&quot;:null}" stroke="#3a2f41" stroke-linecap="butt"><path d="M182.92211,114.96745l3.8989,-12.64525l7.57144,5.4234l-5.64129,-9.06217l16.40536,-17.33458c0,0 2.13336,17.28099 8.13441,33.08817c2.32954,3.54917 -6.7882,9.11614 -6.7882,9.11614z" fill="#3a2f41" stroke-width="1.5"/><path d="M212.2052,120.85504c-1.96055,-1.54485 2.57318,-20.17728 5.84589,-24.1496c1.32377,-1.60672 14.4291,13.75226 12.7462,15.79488c-3.2727,3.97231 -15.68494,10.64545 -17.64548,9.10062z" data-paper-data="{&quot;index&quot;:null}" fill="#8c9ca0" stroke-width="2"/><path d="M212.97674,121.04707c1.63224,1.83307 -6.73379,15.15862 -10.68683,18.02025c-2.03272,1.47151 -16.14503,-13.15254 -14.5461,-14.31001c3.95304,-2.86162 22.81259,-6.42838 24.44481,-4.59531z" fill="#e1e2db" stroke-width="1.5"/><path d="M217.26465,117.48162c1.54765,2.67638 0.76026,6.03884 -1.75872,7.51027c-2.51895,1.47141 -5.81564,0.49459 -7.36329,-2.18182c-1.54765,-2.67638 -0.76026,-6.03884 1.75873,-7.51026c2.51895,-1.47141 5.81563,-0.49458 7.36329,2.18181z" fill="#e1e2db" stroke-width="2"/></g><path d="M292.33719,180.07668l-18.14922,-2.08344l-0.04642,-10.21871c0,0 -1.18922,10.37854 -1.59076,10.26383c-5.13537,-0.42416 -10.21873,-0.76364 -15.08027,-1.03535c-20.4233,-1.14138 -36.93147,-1.08633 -36.93147,-1.08633c0,0 -6.32848,-11.70244 -6.33693,-22.66941c-0.00591,-7.66392 0.8343,-22.80464 11.21903,-34.60266c8.37533,-9.51516 23.07859,-12.48243 26.12863,-12.61414c2.43883,-0.10533 12.74444,3.82643 18.85452,9.81278c10.17073,9.9648 21.57616,32.43343 21.57616,32.43343z" fill="#3a2f41" stroke="none" stroke-width="0" stroke-linecap="butt"/><g stroke-linecap="butt"><path d="M284.2268,150.59732c0.00541,6.79026 1.55258,12.84684 -3.25765,17.23381c-4.67602,4.26456 -15.17488,5.74397 -25.89118,5.98256c-10.66603,0.23749 -21.37545,-2.18699 -26.08763,-6.62086c-4.76712,-4.48558 -3.8548,-9.81336 -3.86015,-16.54772c-0.01065,-13.39106 8.96602,-30.40792 33.7637,-29.6895c16.31204,0.47257 25.32227,16.25062 25.33293,29.6417z" fill="#e1e2db" stroke="none" stroke-width="0"/><path d="M284.2268,150.59732c0.01066,13.39106 -12.05467,4.97913 -25.4369,5.09621c-13.37952,0.11705 -33.6491,8.34266 -33.65975,-5.04841c-0.01065,-13.39106 8.96602,-30.40792 33.7637,-29.6895c16.31204,0.47257 25.32227,16.25063 25.33293,29.6417z" fill="#b8c1c0" stroke="none" stroke-width="0"/><path d="M263.51718,121.52767c13.38272,2.99763 21.71565,16.46538 21.72526,28.53226l0.00045,0.53656c0.00505,6.35193 0.28205,12.3272 -3.8817,16.62929c-4.61422,4.76752 -14.47415,6.33315 -25.90211,6.5876c-7.89493,0.17578 -17.45267,-1.2534 -21.99349,-3.81206c-7.79996,-4.39513 -8.3286,-10.8924 -8.3353,-19.35621c-0.00905,-11.36644 6.45708,-25.3452 23.57746,-28.87296" fill="none" stroke="#3a2f41" stroke-width="2"/></g><path d="M208.99409,172.38213l-8.4579,-7.09488c0,0 -2.0419,-23.61536 7.49085,-38.97363c12.29572,-19.80966 34.00256,-27.51427 55.43597,-21.83416c4.59153,1.21681 16.1701,5.39073 22.96663,13.82202c8.1646,10.12839 10.98675,23.01764 10.98675,23.01764l-4.5573,-0.7696l0.88,10.18905c0,0 -2.50475,-0.68892 -2.52118,-0.90541c-0.36774,-4.85065 -1.30037,-9.66577 -1.30037,-9.66577c0,0 0.70193,3.93594 0.25659,9.75448c-2.61349,-0.52588 -17.15979,-2.16951 -17.15979,-2.16951l-1.98155,-4.37113l-0.34728,4.09544l-12.6357,-1.2472l-1.35806,-15.4024l-0.18452,14.99509c0,0 -11.30572,-0.10396 -16.77303,0.11771c-0.38563,0.01564 -1.85387,-6.46725 -1.85387,-6.46725c0,0 -0.13253,6.76685 -0.42061,6.77251c-3.40505,0.06673 -8.09766,0.73397 -8.09766,0.73397c0,0 0.08787,34.19596 -0.03687,34.21152c-1.94021,0.24238 -18.42184,-6.26066 -18.39541,-7.66995c0.03822,-2.03591 -1.1567,-13.49148 -1.1567,-13.49148z" fill="#3a2f41" stroke="url(#color-7)" stroke-width="0.5" stroke-linecap="butt"/><path d="M258.3021,114.87474c12.67107,-30.80693 37.60424,-42.22806 37.60424,-42.22806l-10.30668,55.55042" fill="#3a2f41" stroke="#3a2f41" stroke-width="1.5" stroke-linecap="round"/><path d="M205.15738,136.44651c9.83896,-46.58239 37.23126,-75.00141 37.23126,-75.00141l4.87823,50.43894" fill="#3a2f41" stroke="#3a2f41" stroke-width="1.5" stroke-linecap="round"/><g stroke="#3a2f41" stroke-linecap="butt"><path d="M231.53209,158.18639c0,0 3.33918,-4.32913 9.62822,-4.58737c6.66324,-0.2736 10.34454,4.66129 10.34454,4.66129c0,0 -4.23998,-0.20861 -10.31076,-0.13823c-5.3945,0.06253 -9.66202,0.06431 -9.66202,0.06431z" fill="#e1e2db" stroke-width="1"/><g fill="#3a2f41" stroke-width="0.5"><path d="M243.93412,158.21342l0.12059,-4.50444l2.49299,0.63453l-0.23023,3.80097z"/></g></g><path d="M236.01083,151.74167l16.31343,3.325" fill="none" stroke="#3a2f41" stroke-width="1" stroke-linecap="round"/></g></g></svg>