<svg version="1.1" xmlns="http://www.w3.org/2000/svg" xmlns:xlink="http://www.w3.org/1999/xlink" width="284.67266" height="225.24041" viewBox="0,0,284.67266,225.24041"><defs><linearGradient x1="1077.66313" y1="216.06021" x2="1077.66313" y2="354.07601" gradientUnits="userSpaceOnUse" id="color-1"><stop offset="0" stop-color="#ffffff" stop-opacity="0.26046"/><stop offset="1" stop-color="#ffffff" stop-opacity="0"/></linearGradient><linearGradient x1="1077.66313" y1="216.06021" x2="1077.66313" y2="354.07601" gradientUnits="userSpaceOnUse" id="color-2"><stop offset="0" stop-color="#ffffff" stop-opacity="0.26046"/><stop offset="1" stop-color="#ffffff" stop-opacity="0"/></linearGradient><linearGradient x1="1077.66313" y1="216.06021" x2="1077.66313" y2="354.07601" gradientUnits="userSpaceOnUse" id="color-3"><stop offset="0" stop-color="#ffffff" stop-opacity="0.26046"/><stop offset="1" stop-color="#ffffff" stop-opacity="0"/></linearGradient><linearGradient x1="1036.02754" y1="220.12049" x2="1036.02754" y2="358.13627" gradientUnits="userSpaceOnUse" id="color-4"><stop offset="0" stop-color="#ffffff" stop-opacity="0.26046"/><stop offset="1" stop-color="#ffffff" stop-opacity="0"/></linearGradient><linearGradient x1="1036.02754" y1="220.12049" x2="1036.02754" y2="358.13627" gradientUnits="userSpaceOnUse" id="color-5"><stop offset="0" stop-color="#ffffff" stop-opacity="0.26046"/><stop offset="1" stop-color="#ffffff" stop-opacity="0"/></linearGradient><linearGradient x1="1036.02754" y1="220.12049" x2="1036.02754" y2="358.13627" gradientUnits="userSpaceOnUse" id="color-6"><stop offset="0" stop-color="#ffffff" stop-opacity="0.26046"/><stop offset="1" stop-color="#ffffff" stop-opacity="0"/></linearGradient><linearGradient x1="249.18491" y1="105.04022" x2="249.24929" y2="185.22867" gradientUnits="userSpaceOnUse" id="color-7"><stop offset="0" stop-color="#cedee0" stop-opacity="0"/><stop offset="1" stop-color="#cedee0" stop-opacity="0.19676"/></linearGradient></defs><g transform="translate(-175.01827,-60.01592)"><g data-paper-data="{&quot;isPaintingLayer&quot;:true}" fill-rule="nonzero" stroke-linejoin="miter" stroke-miterlimit="10" stroke-dasharray="" stroke-dashoffset="0" style="mix-blend-mode: normal"><path d="" fill="#3a2f41" stroke="none" stroke-width="0" stroke-linecap="butt"/><path d="" fill="#3a2f41" stroke="url(#color-1)" stroke-width="0.5" stroke-linecap="butt"/><path d="" fill="#3a2f41" stroke="url(#color-2)" stroke-width="0.5" stroke-linecap="butt"/><path d="" fill="#3a2f41" stroke="url(#color-3)" stroke-width="0.5" stroke-linecap="butt"/><path d="" data-paper-data="{&quot;index&quot;:null}" fill="#3a2f41" stroke="url(#color-4)" stroke-width="0.5" stroke-linecap="butt"/><path d="" data-paper-data="{&quot;index&quot;:null}" fill="#3a2f41" stroke="url(#color-5)" stroke-width="0.5" stroke-linecap="butt"/><path d="" data-paper-data="{&quot;index&quot;:null}" fill="#3a2f41" stroke="url(#color-6)" stroke-width="0.5" stroke-linecap="butt"/><g data-paper-data="{&quot;index&quot;:null}" stroke="#3a2f41" stroke-linecap="butt"><path d="M183.75542,115.06745l3.91863,-12.64525l7.60977,5.4234l-5.66984,-9.06217l16.48841,-17.33458c0,0 2.14415,17.28099 8.17558,33.08817c2.34133,3.54917 -6.82257,9.11614 -6.82257,9.11614z" fill="#3a2f41" stroke-width="1.5"/><path d="M213.18677,120.95504c-1.97046,-1.54485 2.58622,-20.17728 5.8755,-24.1496c1.33046,-1.60672 14.50214,13.75226 12.81074,15.79488c-3.28928,3.97231 -15.76436,10.64545 -17.73481,9.10062z" data-paper-data="{&quot;index&quot;:null}" fill="#8c9ca0" stroke-width="2"/><path d="M213.96221,121.14707c1.6405,1.83307 -6.76788,15.15862 -10.74094,18.02025c-2.04302,1.47151 -16.22677,-13.15254 -14.61974,-14.31001c3.97304,-2.86162 22.92808,-6.42838 24.56857,-4.59531z" fill="#e1e2db" stroke-width="1.5"/><path d="M218.27182,117.58162c1.5555,2.67638 0.76411,6.03884 -1.76763,7.51027c-2.5317,1.47141 -5.84507,0.49459 -7.40056,-2.18182c-1.5555,-2.67638 -0.76411,-6.03884 1.76763,-7.51026c2.5317,-1.47141 5.84507,-0.49458 7.40056,2.18181z" fill="#e1e2db" stroke-width="2"/></g><path d="M293.12021,180.01001l-18.90972,-2.08344l-0.04835,-10.21871c0,0 -1.23904,10.37854 -1.65743,10.26383c-5.35055,-0.42416 -10.64694,-0.76364 -15.71218,-1.03535c-21.27908,-1.14138 -38.479,-1.08633 -38.479,-1.08633c0,0 -6.59365,-11.70244 -6.60246,-22.66941c-0.00616,-7.66392 0.86927,-22.80464 11.68915,-34.60266c8.72628,-9.51516 24.04564,-12.48243 27.22348,-12.61414c2.54102,-0.10533 13.27846,3.82643 19.64458,9.81278c10.59692,9.9648 22.48024,32.43343 22.48024,32.43343z" fill="#3a2f41" stroke="none" stroke-width="0" stroke-linecap="butt"/><g stroke-linecap="butt"><path d="M281.72184,151.03066c0.00545,6.79026 1.56468,12.84684 -3.283,17.23381c-4.71242,4.26456 -15.29303,5.74397 -26.09279,5.98256c-10.74908,0.23749 -21.54192,-2.18699 -26.29077,-6.62086c-4.80426,-4.48558 -3.88481,-9.81336 -3.89021,-16.54772c-0.01074,-13.39106 9.03584,-30.40792 34.0266,-29.6895c16.43907,0.47257 25.51945,16.25062 25.53019,29.6417z" fill="#e1e2db" stroke="none" stroke-width="0"/><path d="M281.72184,151.03066c0.01076,13.39106 -12.14853,4.97913 -25.63495,5.09621c-13.48371,0.11705 -33.9111,8.34266 -33.92184,-5.04841c-0.01074,-13.39106 9.03584,-30.40792 34.0266,-29.6895c16.43907,0.47257 25.51945,16.25063 25.53019,29.6417z" fill="#b8c1c0" stroke="none" stroke-width="0"/><path d="M260.85096,121.96101c13.48692,2.99763 21.88473,16.46538 21.89441,28.53226l0.00043,0.53656c0.0051,6.35193 0.28424,12.3272 -3.91192,16.62929c-4.65015,4.76752 -14.58688,6.33315 -26.10381,6.5876c-7.95641,0.17578 -17.58857,-1.2534 -22.16474,-3.81206c-7.8607,-4.39513 -8.39345,-10.8924 -8.40023,-19.35621c-0.00913,-11.36644 6.50735,-25.3452 23.76104,-28.87296" fill="none" stroke="#3a2f41" stroke-width="2"/></g><path d="M206.89844,172.48213l-9.14301,-7.09488c0,0 -2.20729,-23.61536 8.09762,-38.97363c13.29169,-19.80966 36.7568,-27.51427 59.92636,-21.83416c4.96345,1.21681 17.47988,5.39073 24.82695,13.82202c8.82593,10.12839 11.87669,23.01764 11.87669,23.01764l-4.92645,-0.7696l0.95129,10.18905c0,0 -2.70765,-0.68892 -2.7254,-0.90541c-0.39753,-4.85065 -1.4057,-9.66577 -1.4057,-9.66577c0,0 0.75878,3.93594 0.27738,9.75448c-2.8252,-0.52588 -18.54976,-2.16951 -18.54976,-2.16951l-2.14204,-4.37113l-0.37541,4.09544l-13.65921,-1.2472l-1.46807,-15.4024l-0.19947,14.99509c0,0 -12.2215,-0.10396 -18.13168,0.11771c-0.41687,0.01564 -2.00404,-6.46725 -2.00404,-6.46725c0,0 -0.14327,6.76685 -0.45468,6.77251c-3.68087,0.06673 -8.75358,0.73397 -8.75358,0.73397c0,0 0.09498,34.19596 -0.03986,34.21152c-2.09738,0.24238 -19.91403,-6.26066 -19.88544,-7.66995c0.04131,-2.03591 -1.25038,-13.49148 -1.25038,-13.49148z" fill="#3a2f41" stroke="url(#color-7)" stroke-width="0.5" stroke-linecap="butt"/><path d="M256.9555,115.74141c14.13421,-30.80693 41.94643,-42.22806 41.94643,-42.22806l-11.49679,55.55042" fill="#3a2f41" stroke="#3a2f41" stroke-width="1.5" stroke-linecap="round"/><path d="M201.82099,136.54652c11.39857,-46.58239 43.13293,-75.00141 43.13293,-75.00141l5.6515,50.43894" fill="#3a2f41" stroke="#3a2f41" stroke-width="1.5" stroke-linecap="round"/><g stroke="#3a2f41" stroke-linecap="butt"><path d="M227.45409,157.93498c0,0 4.01949,-4.34725 11.62534,-4.63972c8.05841,-0.30985 12.53341,4.60494 12.53341,4.60494c0,0 -5.12951,-0.18553 -12.47218,-0.08211c-6.52474,0.09189 -11.68657,0.11691 -11.68657,0.11691z" fill="#e1e2db" stroke-width="1"/><g fill="#3a2f41" stroke-width="0.5"><path d="M243.73528,157.91142l0.04411,-4.41003l2.83392,1.009l0.17275,3.40326z"/></g></g><g><path d="M226.29339,247.31905l48.0244,-0.7853c0,0 5.28896,11.94195 8.66624,19.41765c1.01081,2.23748 1.85037,4.07486 2.32563,5.07225c0.81872,3.0182 1.84682,7.23865 2.99369,12.18631c-24.42462,0.17215 -48.84703,0.47558 -72.95423,0.73453c5.114,-18.14585 10.94429,-36.62542 10.94429,-36.62542z" fill="#e1e2db" stroke="none" stroke-width="0" stroke-linecap="round"/><path d="M214.3409,272.40984c3.19534,-14.32135 15.26578,-29.93679 15.26578,-29.93679l42.83537,-0.96214c0,0 5.70033,10.82614 7.52847,14.99505c1.26759,2.8906 2.38841,7.61937 2.38841,7.61937l-25.25896,18.96617c-15.01087,0.15533 -29.97027,0.33204 -44.80503,0.48907c0.79018,-4.74878 1.51246,-8.77964 2.04595,-11.17073z" fill="#8c9ca0" stroke="none" stroke-width="0" stroke-linecap="butt"/><path d="M213.37645,283.96557c0.83389,-4.66219 1.66403,-8.92134 2.46666,-12.51874c2.8729,-12.87653 13.77556,-28.56137 13.77556,-28.56137l42.48231,-0.50823c0,0 6.72589,8.8977 12.12365,27.34887c0.89614,3.06331 2.10924,7.79848 3.49261,13.48799" fill="none" stroke="#3a2f41" stroke-width="2" stroke-linecap="round"/><path d="M275.84664,249.26053l-20.78879,10.78915l-29.25159,-9.74749" fill="none" stroke="#3a2f41" stroke-width="1.5" stroke-linecap="round"/></g><path d="M252.5548,252.08215c-9.21827,0.02957 -24.26341,-9.84864 -24.26341,-9.84864c0,0 1.23293,-5.14501 2.19457,-7.92908c0.87601,-2.53618 2.82277,-8.10118 2.82277,-8.10118c0,0 0.56263,-3.92979 -1.71349,-8.07906c-1.42604,-2.5996 -9.32627,-13.1153 -9.34163,-13.47799c-0.00295,-0.06973 1.0116,-3.80857 2.70832,-7.7925c1.96945,-4.62426 9.2059,-12.09043 12.48866,-13.84696c3.57641,-1.91366 8.42943,-2.78531 12.14934,-2.68693c5.68502,0.15033 11.56684,1.24983 16.71179,4.0374c1.93883,1.05047 5.45941,3.88028 5.45941,3.88028c0,0 5.97581,7.78965 8.48298,17.2921c-3.70751,10.18282 -12.06907,14.38888 -12.06907,14.38888l-1.02448,6.93058c0,0 2.04432,5.10097 2.85658,7.64502c0.80955,2.53552 2.00893,7.5938 2.00893,7.5938c0,0 -10.25297,9.96474 -19.47125,9.99431z" fill="#3a2f41" stroke="#8c9ca0" stroke-width="1.5" stroke-linecap="round"/><g data-paper-data="{&quot;index&quot;:null}" stroke="#3a2f41"><g data-paper-data="{&quot;index&quot;:null}"><g><path d="M363.84569,223.12471l-1.02873,-26.38755l94.5627,-3.25427l-28.1375,26.9853z" fill="#e1e2db" stroke-width="0" stroke-linecap="butt"/><path d="M363.84569,223.12471l-1.02873,-26.38755l39.93239,-1.62211l-19.80556,27.23385z" fill="#8c9ca0" stroke-width="0" stroke-linecap="butt"/><path d="M382.91954,221.72502l11.73113,-26.19155" fill="none" stroke-width="1.5" stroke-linecap="round"/><path d="M400.86017,220.99626l13.77059,-25.91725" fill="none" stroke-width="1.5" stroke-linecap="round"/><path d="M434.85856,193.54303l-16.33318,27.0928" fill="none" stroke-width="1.5" stroke-linecap="round"/><path d="M363.11119,204.28279l-0.29417,-7.54558l94.33297,-3.83195l-27.90776,27.56297l-65.39648,2.65649l-0.1341,-3.43957" fill="none" stroke-width="2" stroke-linecap="butt"/></g><path d="M335.68263,229.2689l-1.41796,-36.37202l45.14092,-1.8337l1.41796,36.37202z" fill="#e1e2db" stroke-width="0" stroke-linecap="butt"/><path d="M335.68262,229.26889l-1.41796,-36.37202l26.04285,-1.0579l-16.52265,37.10078z" fill="#8c9ca0" stroke-width="0" stroke-linecap="butt"/><path d="M342.32496,221.23111l-0.83411,-21.39529l29.22585,-1.18718l0.83412,21.3953z" fill="none" stroke-width="1.5" stroke-linecap="butt"/><path d="M342.32499,221.23113l13.34477,-21.97126" fill="none" stroke-width="1.5" stroke-linecap="round"/><path d="M357.35812,220.26329l13.38648,-20.9015" fill="none" stroke-width="1.5" stroke-linecap="round"/><path d="M334.99566,204.73459l-0.46103,-11.82565l45.14092,-1.83369l1.41798,36.37202l-45.14096,1.83368l-0.39131,-10.03705" fill="none" stroke-width="2" stroke-linecap="butt"/></g><g data-paper-data="{&quot;index&quot;:null}" stroke-width="2" stroke-linecap="butt"><path d="M353.27102,230.24319l-39.37445,1.44008c0,0 -45.08162,-22.5689 -57.14191,-29.50023c-6.6419,-3.81727 5.25149,-15.58514 5.25149,-15.58514l39.84883,12.0867l50.63988,-8.33931z" fill="#3a2f41"/><path d="M346.24604,230.50104l-2.18384,-0.08691l-2.56549,-38.1072l2.10785,-0.17548z" fill="#8ea8ab"/></g></g><g stroke="#3a2f41"><g fill="#e1e2db" stroke-width="2"><path d="" stroke-linecap="round"/><path d="" stroke-linecap="round"/><path d="M195.72091,255.36315l4.91052,-11.47163l1.65973,9.25492l3.94948,-1.9401c0,0 -3.52313,22.83075 -4.12333,29.89603c-0.09192,1.08207 -0.1694,2.08362 -0.23409,2.98133c-6.10541,0.06014 -12.18661,0.11527 -18.2384,0.16249c3.99509,-15.36284 8.91544,-32.50889 8.92531,-32.5433z" stroke-linecap="butt"/><path d="M192.57011,251.70289v0c0.00001,-0.00004 0.00002,-0.00006 0.00002,-0.00006z" stroke-linecap="butt"/></g><g stroke-linecap="butt"><path d="M182.65744,246.0333c0,0 28.35798,-33.08776 37.89666,-43.69023c5.2532,-5.83904 13.81976,-14.25448 13.81976,-14.25448l1.22534,22.63187l-17.27361,30.32674l-2.05114,42.88734c-13.57095,0.14635 -27.04333,0.27932 -40.36139,0.36757z" fill="#3a2f41" stroke-width="1.5"/><path d="M176.89612,278.7187l0.55606,-2.17071l38.75476,5.61099l-0.22884,1.77873c-0.82096,0.00884 -1.64156,0.01764 -2.46178,0.02637z" fill="#8ea8ab" stroke-width="2"/></g></g><g><path d="M258.52467,179.9375c0,2.04567 -5.29309,5.83964 -7.54147,5.83964c-2.24839,0 -7.40799,-3.39354 -7.40799,-5.4392c0,-2.04567 5.35983,-3.17008 7.60821,-3.17008c2.24838,0 7.34127,0.72399 7.34127,2.76966z" fill="#3a2f41" stroke="none" stroke-width="0" stroke-linecap="butt"/><g fill="#8c9ca0" stroke="#8c9ca0" stroke-width="1.5" stroke-linecap="butt"><path d="M233.41625,194.1077c-0.77248,-0.75621 9.55472,-14.67052 9.55472,-14.67052l7.71232,5.82992l8.16733,-6.5042c0,0 10.42614,13.98379 9.82055,14.75081c-0.33485,0.42412 -3.99994,-1.51286 -8.56085,-2.90358c-4.19557,-1.27934 -9.32983,-2.0061 -9.32983,-2.0061c0,0 -5.43509,1.38827 -9.88163,2.90086c-4.06571,1.38303 -7.16051,2.91813 -7.48261,2.60284z"/></g><path d="M242.97455,181.10542l0.50723,-1.92207l7.31457,-2.21572l7.59486,1.64177l0.80087,1.96211" fill="none" stroke="#8c9ca0" stroke-width="2" stroke-linecap="round"/></g><g fill="#8c9ca0" stroke="#3a2f41" stroke-width="1.5" stroke-linecap="butt"><path d="M254.70612,199.05986c-0.10718,1.84615 -1.75807,3.25193 -3.68737,3.13992c-1.92929,-0.11201 -3.4064,-1.6994 -3.29922,-3.54555c0.10718,-1.84615 1.75808,-3.25194 3.68738,-3.13993c1.92929,0.11201 3.4064,1.69942 3.29921,3.54556z"/><path d="M254.77202,209.10244c-0.11091,1.91031 -1.8357,3.364 -3.85243,3.24691c-2.01673,-0.1171 -3.56167,-1.76062 -3.45076,-3.67093c0.11091,-1.91031 1.83569,-3.36399 3.85241,-3.24691c2.01673,0.1171 3.5617,1.76062 3.45079,3.67093z"/></g><path d="" fill="#3a2f41" stroke="#8c9ca0" stroke-width="2" stroke-linecap="butt"/><path d="" fill="#3a2f41" stroke="#8c9ca0" stroke-width="2" stroke-linecap="butt"/><path d="M259.43909,168.73564c0,2.59792 -2.44571,4.70395 -5.46265,4.70395c-3.01694,0 -5.46265,-2.10604 -5.46265,-4.70395c0,-2.59792 2.44571,-4.70395 5.46265,-4.70395c3.01694,0 5.46265,2.10603 5.46265,4.70395z" fill="#000000" stroke="none" stroke-width="0" stroke-linecap="butt"/></g></g></svg>