<svg version="1.1" xmlns="http://www.w3.org/2000/svg" xmlns:xlink="http://www.w3.org/1999/xlink" width="492.38351" height="486.63514" viewBox="0,0,492.38351,486.63514"><g transform="translate(6.19175,63.19315)"><g data-paper-data="{&quot;isPaintingLayer&quot;:true}" fill-rule="nonzero" stroke-linejoin="miter" stroke-miterlimit="10" stroke-dasharray="" stroke-dashoffset="0" style="mix-blend-mode: normal"><g><path d="M276.91264,117.15932c9.6082,21.0462 18.45968,48.02598 22.00826,72.46136c5.98249,41.19518 -0.69143,72.48306 -5.97539,74.04164c-4.59279,1.35472 -3.37264,-11.80185 -4.27394,-7.93029c-0.90668,3.8946 -1.83068,10.1956 -4.98118,11.33279c-5.4137,1.95411 -5.51088,-7.06007 -4.28338,-12.76208c0.50655,-2.35307 -4.37663,6.55121 -8.00754,1.77814c-2.18953,-2.87827 4.44897,-40.12256 1.57438,-65.42255c-2.8212,-24.83007 -11.52822,-48.35754 -18.9226,-64.71752" fill="#e1e2db" stroke="#000000" stroke-width="2" stroke-linecap="round"/><path d="M244.42926,109.18764c-3.47734,-4.86172 -1.15996,-25.97367 3.3079,-23.97452c24.30491,10.87527 34.72855,45.26315 34.72855,45.26315c0,0 -7.86785,10.85385 -20.96073,9.81072c-1.20877,-0.0963 -12.68322,-24.95815 -17.07571,-31.09934z" fill="#8c9ca0" stroke="#000000" stroke-width="0" stroke-linecap="butt"/><path d="M243.63548,77.9243c0,0 9.3037,-0.65534 19.4669,14.03349c13.73673,19.85363 30.57247,61.5387 35.81855,97.66288c5.98249,41.19518 -0.69143,72.48306 -5.97539,74.04164c-4.59279,1.35472 -3.37264,-11.80185 -4.27394,-7.93029c-0.90668,3.8946 -1.83068,10.1956 -4.98118,11.33279c-5.4137,1.95411 -5.51088,-7.06007 -4.28338,-12.76208c0.50655,-2.35307 -4.37663,6.55121 -8.00754,1.77814c-2.18953,-2.87827 4.44897,-40.12256 1.57438,-65.42255c-5.212,-45.87209 -30.51253,-87.29836 -30.51253,-87.29836" fill="none" stroke="#3a2f41" stroke-width="2" stroke-linecap="round"/><g data-paper-data="{&quot;index&quot;:null}" stroke="#3a2f41" stroke-width="2"><path d="M269.67018,129.87614c-7.58852,3.8383 -17.06059,4.73535 -18.44485,3.51625c0,0 -14.03449,-38.00713 -14.33286,-42.96785c-0.25384,-4.22041 -0.3143,-10.64871 2.50394,-14.11926c3.758,-4.62782 11.46747,-4.77454 19.38229,5.06568c16.16171,20.09327 18.89311,29.72142 21.91323,36.53184c1.28058,2.04156 -4.00325,8.42336 -11.02175,11.97335z" fill="#e1e2db" stroke-linecap="butt"/><path d="M276.62832,111.6178c0,0 -2.74407,2.95571 -5.8532,5.82418c-2.06325,1.90355 -4.28727,3.76869 -5.97681,4.70618c-4.80925,2.66852 -15.5236,4.64738 -15.5236,4.64738" fill="none" stroke-linecap="round"/></g></g><g stroke="#3a2f41" stroke-linecap="butt"><path d="M238.10315,102.83297c-0.83551,15.81439 -82.71005,27.1594 -94.37005,26.41102c-11.65999,-0.74838 -20.43497,-14.17517 -19.59946,-29.98955c0.83551,-15.81437 16.02988,-53.32323 52.4352,-59.03874c6.37014,-1.00008 35.48346,-4.68737 50.9403,19.02324c6.88133,12.78374 16.96888,32.49909 16.59403,39.59407z" fill="#e1e2db" stroke-width="0"/><path d="M227.05821,132.17578c-12.87276,28.51949 -41.20411,27.95416 -58.46089,26.84655c-23.68052,-1.51991 -39.37696,-17.20842 -44.81219,-42.1573c-1.77389,-8.14249 0.6023,-25.87006 0.6023,-25.87006c0,0 15.75654,10.77861 40.33184,14.36944c17.5647,2.56647 39.63437,1.58345 63.67594,-10.19137z" fill="#b8c1c0" stroke-width="0"/><path d="M234.81123,112.58329c0.42248,20.40778 -16.89222,36.73503 -30.70223,42.48469c-4.15699,1.73073 -18.03253,5.18571 -29.59831,4.37127c-37.93018,-2.67096 -52.71278,-27.12733 -50.95663,-60.36776c1.75615,-33.24043 34.12832,-62.59281 63.9611,-60.67803c32.59678,2.09219 52.23687,26.04009 50.1231,54.45777" fill="none" stroke-width="2"/></g><g stroke="#3a2f41"><path d="M262.6978,91.32473c0.01846,3.62453 0.40922,8.37626 -0.61626,11.59212c-2.35592,7.38796 -8.36382,11.88802 -16.25199,13.23085c-11.32177,1.92735 -16.34925,-7.38779 -18.35494,-19.16979c-2.00569,-11.782 -11.61683,-35.06545 -0.29507,-36.9928c2.46235,-0.41917 6.22962,-1.04918 10.23499,-0.52328c5.71915,0.75092 12.00842,3.30967 16.40006,7.52204c6.67442,6.40197 8.85147,18.10992 8.88321,24.34086z" fill="#e1e2db" stroke-width="0" stroke-linecap="butt"/><path d="M263.09331,97.17398c2.94059,7.218 -7.23759,41.10479 -43.0029,26.44228c-4.53563,-1.85945 3.18049,-18.0875 2.74957,-20.6188c-0.15063,-0.88483 2.69826,0.21705 6.00669,-0.68535c6.15618,-1.67914 14.77683,-5.16788 14.77683,-5.16788c0,0 10.69508,3.89223 19.46981,0.02975z" fill="#b8c1c0" stroke-width="0" stroke-linecap="butt"/><path d="M224.45325,60.80965c0,0 9.62351,-3.54091 19.37695,-0.0239c10.42041,3.75751 21.2327,17.00214 19.5113,39.70235c-1.24202,14.07133 -10.96276,22.33814 -18.12993,24.707c-15.16467,5.01215 -24.15243,-1.21179 -24.15243,-1.21179" fill="none" stroke-width="2" stroke-linecap="round"/></g><g data-paper-data="{&quot;index&quot;:null}" stroke="#3a2f41" stroke-width="2.5" stroke-linecap="butt"><path d="M173.49976,420.69633c0,0 -48.9645,5.07527 -49.6805,-3.47246c-3.26897,-39.02533 27.12238,-40.90259 27.12238,-40.90259l4.6182,-26.546l39.04513,5.98918l-3.05275,42.4028z" fill="#3a2f41"/><path d="M152.9943,347.35993c1.45977,-9.55411 11.3595,-17.48488 26.10013,-15.23265c14.74063,2.25223 21.82047,12.77732 20.36069,22.33142c-1.45977,9.5541 -10.90639,14.51928 -25.64701,12.26705c-14.74063,-2.25223 -22.27358,-9.81173 -20.8138,-19.36584z" fill="#e1e2db"/></g><g data-paper-data="{&quot;index&quot;:null}" stroke-linecap="butt"><path d="M164.2427,342.73048l9.12015,-81.36334l26.7826,2.44156l-9.12014,81.36335z" fill="#e1e2db" stroke="none" stroke-width="0"/><path d="M170.52724,284.26536l1.82079,-18.13713l26.78261,2.44156l-2.00512,17.88828z" fill="#8c9ca0" stroke="none" stroke-width="0"/><path d="M176.61826,349.11297c-13.50893,-1.19832 -12.84647,-6.4749 -12.84647,-6.4749l9.12015,-81.36333l26.78261,2.44154l-9.12014,81.36335c0,0 -1.32078,5.1524 -13.93616,4.03335z" fill="none" stroke="#3a2f41" stroke-width="2.5"/></g><g data-paper-data="{&quot;index&quot;:null}" stroke="#8c9ca0" stroke-width="2"><path d="M161.98749,257.61456l14.37077,-79.19686l43.17967,6.81013l-8.69411,77.05117c0,0 -7.94789,10.40187 -23.66771,8.78338c-18.9346,-1.94947 -25.18861,-13.44783 -25.18861,-13.44783z" data-paper-data="{&quot;index&quot;:null}" fill="#3a2f41" stroke-linecap="butt"/><path d="M189.07948,184.73074l-3.018,26.47515l-14.80537,1.59245" fill="none" stroke-linecap="round"/><path d="M184.63575,183.33884l-3.28295,23.74484l-9.75184,0.9084" fill="none" stroke-linecap="round"/></g><g stroke="#3a2f41" stroke-width="2.5" stroke-linecap="butt"><path d="M239.72052,387.22168l-1.03825,-38.97264l39.24847,-4.46655l0.45459,17.07659c0,0 23.35895,-7.52159 35.98221,4.30486c4.10138,3.8425 12.75437,17.50971 4.88303,24.1806c-7.13037,6.04294 -49.64996,5.68624 -49.64996,5.68624z" fill="#3a2f41"/><path d="M280.58823,341.46871c1.0872,9.60364 -6.73397,16.86454 -21.55102,18.54194c-14.81705,1.6774 -24.06347,-3.65132 -25.15067,-13.25495c-1.08721,-9.60364 6.3965,-19.8455 21.21355,-21.5229c14.81705,-1.6774 24.40094,6.63228 25.48814,16.23592z" fill="#e1e2db"/></g><path d="M480.3129,269.6575c0,0 6.34926,10.83348 4.56154,13.70191c-2.61032,4.18832 -11.24192,9.04389 -16.29978,5.89598c-3.9146,-2.43637 -6.34878,-11.92898 -6.34878,-11.92898" data-paper-data="{&quot;index&quot;:null}" fill="#595564" stroke="#3a2f41" stroke-width="2" stroke-linecap="round"/><path d="M314.09321,241.3717c-0.08474,4.66042 6.58223,8 4.83333,8c-0.73665,0 -3.77477,9.46775 -5.88727,8.85162c-2.90281,-0.84663 -9.37543,-9.23773 -8.27939,-15.51828c1.09605,-6.28055 12.7511,-11.66667 14.5,-11.66667c1.7489,0 -5.08193,5.67292 -5.16667,10.33333z" fill="#7c7984" stroke="#3a2f41" stroke-width="2" stroke-linecap="butt"/><g stroke="#3a2f41" stroke-width="2"><path d="M379.55015,328.69565l-0.692,44.51989l-14.80234,5.77847l1.98609,-50.46341" fill="#595564" stroke-linecap="round"/><path d="M367.62472,386.49223l-6.72134,-4.34024l0.23343,-11.84585l20.11913,-0.85945l0.32461,5.30905l7.30221,1.81232l-0.85089,9.98478z" data-paper-data="{&quot;index&quot;:null}" fill="#3a2f41" stroke-linecap="butt"/><path d="M359.25533,373.19887l-0.29578,-9.4954l23.98836,-0.74723l0.29578,9.4954z" fill="#8c9ca0" stroke-linecap="butt"/></g><g stroke="#3a2f41" stroke-width="2"><path d="M345.45492,332.3551l-3.22362,44.40842l-15.1071,4.92701l4.85374,-50.26869" fill="#7c7984" stroke-linecap="round"/><path d="M330.26077,389.37964l-6.46353,-4.71558l0.90696,-11.81339l20.13544,0.28652l0.02206,5.31892l7.18728,2.22481l-1.41755,9.92019z" data-paper-data="{&quot;index&quot;:null}" fill="#3a2f41" stroke-linecap="butt"/><path d="M322.66119,375.63168l0.24489,-9.49685l23.99202,0.61868l-0.24489,9.49684z" fill="#e1e2db" stroke-linecap="butt"/></g><g stroke="#3a2f41" stroke-width="2"><path d="M446.45432,332.59736l2.86971,44.4327l-14.29295,6.94346l-2.05496,-50.46065" fill="#595564" stroke-linecap="round"/><path d="M457.61927,393.36956l-17.24835,-8.20283l-9.77608,6.36833l-4.53528,-8.96141l8.06151,-5.29987l16.90173,-8.61373l3.80073,3.20105l14.24081,5.04482z" data-paper-data="{&quot;index&quot;:null}" fill="#8c9ca0" stroke-linecap="butt"/><path d="M432.27656,378.53873l-2.50961,-9.16253l23.14743,-6.34006l2.50961,9.16253z" data-paper-data="{&quot;index&quot;:null}" fill="#8c9ca0" stroke-linecap="butt"/></g><path d="M379.05943,225.46893c0,0 30.52423,-10.95029 50.55927,-6.88857c37.9305,7.68968 55.27133,34.44685 49.95028,75.14573c-3.82612,29.26468 -17.07089,37.38084 -39.87024,43.34997c-25.22965,6.60541 -64.09706,4.16164 -84.28957,2.15434c-38.43993,-3.82126 -57.40766,-34.4946 -52.97716,-64.92856c2.43809,-16.74772 13.22058,-37.88432 36.47053,-45.95607c18.99989,-6.59625 40.1569,-2.87683 40.1569,-2.87683z" data-paper-data="{&quot;index&quot;:null}" fill="#7c7984" stroke="#3a2f41" stroke-width="2" stroke-linecap="butt"/><g stroke-linecap="butt"><path d="M242.67105,337.80382l-5.94978,-81.65642l26.85728,-1.39839l5.94979,81.65642z" fill="#e1e2db" stroke="none" stroke-width="0"/><path d="M238.85829,278.89705l-1.3081,-17.95271l26.85729,-1.39839l1.11423,18.19421z" fill="#8c9ca0" stroke="none" stroke-width="0"/><path d="M243.14519,337.72977l-5.94978,-81.65642l26.85729,-1.39837l5.94979,81.65641c0,0 0.45681,5.29835 -13.0885,5.97053c-12.64935,0.62771 -13.7688,-4.57215 -13.7688,-4.57215z" fill="none" stroke="#3a2f41" stroke-width="2.5"/></g><g data-paper-data="{&quot;index&quot;:null}" stroke="#8c9ca0" stroke-width="2"><path d="M251.68264,270.06239c-15.71982,1.61849 -23.66771,-8.78338 -23.66771,-8.78338l-8.69411,-77.05117l43.17967,-6.81014l14.37077,79.19686c0,0 -6.25402,11.49836 -25.18862,13.44783z" data-paper-data="{&quot;index&quot;:null}" fill="#3a2f41" stroke-linecap="butt"/><path d="M267.60264,211.79833l-14.80537,-1.59245l-3.018,-26.47515" fill="none" stroke-linecap="round"/><path d="M267.25779,206.99208l-9.75184,-0.9084l-3.28296,-23.74484" fill="none" stroke-linecap="round"/></g><g data-paper-data="{&quot;index&quot;:null}" stroke-linecap="butt"><path d="M211.87789,204.76709l1.11753,-20.24369l16.60698,2.1125l0.81249,17.41208z" fill="#8c9ca0" stroke="#8c9ca0" stroke-width="2"/><path d="M211.75279,202.44334l1.11753,-20.24367l16.60698,2.11249l0.81248,17.41208z" fill="#3a2f41" stroke="#3a2f41" stroke-width="3.5"/></g><path d="M254.15488,176.5763l-77.59207,2.90482" fill="none" stroke="#3a2f41" stroke-width="2" stroke-linecap="round"/><g stroke-linecap="butt"><path d="M172.7621,186.02016l1.55168,-104.38801c0,0 26.52358,-12.43661 39.84859,-12.50442c12.67548,-0.0645 37.09962,11.73441 37.09962,11.73441l5.89164,60.66847l5.43276,33.51139l1.83083,8.14639z" fill="#7c7984" stroke="none" stroke-width="0"/><path d="M174.31378,81.63213c0,0 26.52358,-12.43661 39.8486,-12.50442c12.67548,-0.0645 37.09962,11.7344 37.09962,11.7344l3.9554,40.73025c-2.98383,-0.98674 -5.96447,-1.9824 -8.94294,-2.98341c-40.32395,-13.55213 -43.30679,-16.08411 -72.15418,-23.95882z" fill="#595564" stroke="none" stroke-width="0"/><path d="M172.76211,186.02014l1.55168,-104.38801c0,0 26.52358,-12.43661 39.8486,-12.50442c12.67548,-0.0645 37.09962,11.7344 37.09962,11.7344l5.89164,60.66847l5.43275,33.51138l1.83084,8.14639z" fill="none" stroke="#3a2f41" stroke-width="2"/></g><g><path d="M226.82555,83.4535l-10.11417,-8.29841c0,0 6.64433,-6.82351 9.53805,-9.15041c0.63364,-0.50952 0.91157,-0.13188 1.08914,-0.07321c0.44302,0.34221 3.30448,4.81519 2.85571,5.14325z" data-paper-data="{&quot;index&quot;:null}" fill="#8c9ca0" stroke="#3a2f41" stroke-width="4.5" stroke-linecap="round"/><path d="M208.72238,84.38477c0,0 -9.78706,-8.99618 -10.75305,-11.80752c0.00988,-1.40711 1.78946,-7.54251 2.77371,-5.85717c0.96963,0.4474 16.46002,-3.7019 20.47952,-1.54465c3.37829,1.81312 -4.53732,10.02286 -4.53732,10.02286z" fill="#3a2f41" stroke="#3a2f41" stroke-width="4.5" stroke-linecap="round"/><path d="M199.91098,72.03235c-0.0159,-1.35571 0.09202,-4.6858 0.61312,-4.98002c0.94826,-0.98096 10.32048,-5.90302 12.6457,-6.38638c1.47104,-0.30578 12.34013,4.6626 12.93277,5.23827c1.00477,0.4483 2.18053,4.31846 2.1988,4.80406" fill="none" stroke="#3a2f41" stroke-width="6.5" stroke-linecap="butt"/><g><path d="M226.82555,83.4535l-10.11417,-8.29841c0,0 6.64434,-6.82351 9.53805,-9.15041c0.63366,-0.50952 0.91157,-0.13188 1.08914,-0.07321c0.44302,0.34221 3.30448,4.81519 2.85571,5.14325z" data-paper-data="{&quot;index&quot;:null}" fill="#595564" stroke="#12161a" stroke-width="0" stroke-linecap="round"/><path d="M208.72239,84.38474c0,0 -9.78706,-8.9962 -10.75306,-11.80752c0.00988,-1.4071 1.78947,-7.54251 2.77372,-5.85718c1.78456,0.82343 15.94219,8.47821 15.94219,8.47821z" fill="#595564" stroke="#12161a" stroke-width="0" stroke-linecap="round"/><path d="M199.91098,72.03226c-0.0159,-1.35571 0.09202,-4.6858 0.61312,-4.98002c0.94826,-0.98096 10.32048,-5.90302 12.6457,-6.38638c1.47104,-0.30578 12.34013,4.6626 12.93277,5.23827c1.00477,0.4483 2.18053,4.31846 2.1988,4.80406" fill="none" stroke="#595564" stroke-width="2" stroke-linecap="butt"/></g></g><g stroke="#3a2f41" stroke-width="2"><path d="M406.80298,338.12432l-0.4058,44.52342l-14.76489,5.8735l1.66166,-50.47513" fill="#7c7984" stroke-linecap="round"/><path d="M375.99933,393.99638l11.5009,-9.79695l2.40728,-4.34711l18.86318,2.01125l9.42245,2.07219l-1.03669,9.99004l-11.4055,-2.45804l-13.18264,13.82063z" data-paper-data="{&quot;index&quot;:null}" fill="#e1e2db" stroke-linecap="butt"/><path d="M386.79466,382.75709l-0.35681,-9.4933l23.98307,-0.90142l0.35681,9.4933z" fill="#e1e2db" stroke-linecap="butt"/></g><path d="M386.93676,275.90506c0,0 0.86619,9.75167 -1.67281,13.38292c-3.28051,4.69176 -12.01352,3.09131 -15.48811,0.05238c-2.37964,-2.08125 -0.37067,-14.4353 -0.37067,-14.4353" fill="none" stroke="#3a2f41" stroke-width="2" stroke-linecap="round"/><path d="M445.69175,296.3717c0,0 -6.71036,10.92893 -6.66667,-2" fill="none" stroke="#3a2f41" stroke-width="1.5" stroke-linecap="round"/><g stroke="#3a2f41" stroke-linecap="butt"><path d="M418.85998,259.53068c9.03456,6.02492 11.68858,17.91182 5.92791,26.55013c-5.76067,8.63831 -17.75457,10.75688 -26.78914,4.73196c-9.03456,-6.02492 -11.68858,-17.91182 -5.92791,-26.55013c5.76067,-8.63831 17.75457,-10.75688 26.78914,-4.73196z" data-paper-data="{&quot;index&quot;:null}" fill="#3a2f41" stroke-width="1.5"/><path d="M411.27775,260.4863c6.30042,4.20159 7.80906,13.00425 3.36965,19.6613c-4.43941,6.65705 -13.14577,8.64759 -19.44619,4.446c-6.30042,-4.20159 -7.80906,-13.00425 -3.36965,-19.6613c4.43941,-6.65705 13.14577,-8.64759 19.44619,-4.446z" data-paper-data="{&quot;index&quot;:null}" fill="#e1e2db" stroke-width="0"/></g><g stroke="#3a2f41" stroke-linecap="butt"><path d="M472.38484,257.13066c8.10333,6.02492 10.48379,17.91181 5.31689,26.55012c-5.16689,8.63831 -15.92453,10.75689 -24.02786,4.73197c-8.10333,-6.02492 -10.48379,-17.91182 -5.31689,-26.55013c5.16689,-8.63831 15.92453,-10.75688 24.02786,-4.73196z" data-paper-data="{&quot;index&quot;:null}" fill="#3a2f41" stroke-width="1.5"/><path d="M465.58415,258.08632c5.65101,4.20159 7.00414,13.00425 3.02232,19.66129c-3.98182,6.65704 -11.79078,8.64759 -17.44178,4.446c-5.65101,-4.20159 -7.00414,-13.00425 -3.02232,-19.66129c3.98182,-6.65704 11.79078,-8.64759 17.44178,-4.446z" data-paper-data="{&quot;index&quot;:null}" fill="#e1e2db" stroke-width="0"/></g><g stroke="#3a2f41" stroke-linecap="butt"><path d="M456.49175,305.30506c-8.29586,-0.05027 -6.67933,-14.0865 -6.67933,-14.0865c0,0 -4.53964,-0.58017 -6.98733,-0.58017c-2.84581,0 -6.23213,-0.60019 -6.23213,-0.60019c0,0 2.69397,14.35821 -6.76788,14.40018c-8.99797,0.03992 -11.01751,-13.14836 -5.00595,-22.18098c2.55888,-3.84483 11.21826,-6.1747 20.38959,-5.26516c8.01794,0.79515 16.71001,4.25473 18.33843,8.86188c2.69362,7.62082 3.07581,19.51232 -7.0554,19.45093z" fill="#7c7984" stroke-width="1.5"/><path d="M451.26668,289.95109c-0.15791,1.92654 -3.63257,3.21399 -7.76086,2.8756c-4.12829,-0.33838 -7.34692,-2.17446 -7.18901,-4.101c0.15791,-1.92654 3.63257,-3.21399 7.76086,-2.8756c4.12829,0.33838 7.34692,2.17446 7.18901,4.101z" fill="#3a2f41" stroke-width="2"/></g><g fill="#e1e2db" stroke="#3a2f41" stroke-width="1.5" stroke-linecap="butt"><path d="M424.62826,340.37172l-0.33651,-20.35873l15.31111,7.90794l16.48889,-8.24444l-0.84127,20.19048l-15.47937,-7.06667z"/><path d="M435.73302,335.82887v-10.93651h8.4127v10.93651z"/></g><g stroke="#3a2f41" stroke-width="1.5"><path d="M398.00089,223.37656l-5.28311,-50.79333l33.40374,-6.55669l0.13851,57.27501z" fill="#e1e2db" stroke-linecap="butt"/><path d="M439.42334,223.50167c-0.03389,2.22898 -9.37841,3.89428 -20.87159,3.71956c-11.49317,-0.17472 -20.78276,-2.12331 -20.74888,-4.35229c0.03389,-2.22898 19.99956,-5.49894 31.49273,-5.32422c11.49317,0.17472 10.16162,3.72797 10.12773,5.95695z" fill="#3a2f41" stroke-linecap="butt"/><path d="M430.28476,193.96938c-0.1006,6.61728 -5.82885,11.89581 -12.79441,11.78991c-6.96556,-0.10589 -12.53071,-5.5561 -12.43011,-12.17338c0.1006,-6.61728 5.82885,-11.89581 12.79441,-11.78991c6.96556,0.10589 12.53071,5.5561 12.43011,12.17338z" fill="#e1e2db" stroke-linecap="butt"/><path d="M427.25782,193.92336c-0.0773,5.08486 -4.43146,9.14171 -9.72529,9.06123c-5.29383,-0.08048 -9.52265,-4.26781 -9.44535,-9.35267c0.0773,-5.08486 4.43146,-9.14171 9.72529,-9.06123c5.29383,0.08048 9.52265,4.26781 9.44535,9.35267z" fill="#e1e2db" stroke-linecap="butt"/><path d="M423.20464,194.99711l-6.05389,-0.09203l0.09587,-6.30613" fill="none" stroke-linecap="round"/></g><g stroke="#3a2f41"><path d="M202.25614,93.82473c0.01723,3.62453 0.38189,8.37626 -0.5751,11.59212c-2.19856,7.38795 -7.80517,11.88802 -15.16646,13.23085c-10.56555,1.92735 -15.25723,-7.38779 -17.12895,-19.16979c-1.87172,-11.782 -10.8409,-35.06545 -0.27536,-36.9928c2.29788,-0.41917 5.81353,-1.04918 9.55136,-0.52328c5.33714,0.75092 11.20634,3.30967 15.30464,7.52204c6.22862,6.40197 8.26025,18.10992 8.28987,24.34086z" fill="#e1e2db" stroke-width="0" stroke-linecap="butt"/><path d="M202.62524,99.67398c2.74418,7.218 -6.75416,41.10479 -40.13057,26.44228c-4.23268,-1.85945 2.96805,-18.0875 2.56592,-20.6188c-0.14057,-0.88483 2.51803,0.21705 5.60548,-0.68535c5.74499,-1.67914 13.78983,-5.16788 13.78983,-5.16788c0,0 9.98071,3.89223 18.16935,0.02975z" fill="#b8c1c0" stroke-width="0" stroke-linecap="butt"/><path d="M166.56609,63.30965c0,0 8.98073,-3.54091 18.08269,-0.0239c9.72439,3.75751 19.81449,17.00214 18.20807,39.70235c-1.15906,14.07133 -10.23052,22.33814 -16.91897,24.707c-14.15177,5.01215 -22.53921,-1.21179 -22.53921,-1.21179" fill="none" stroke-width="2" stroke-linecap="round"/></g><g><g><g data-paper-data="{&quot;index&quot;:null}" stroke="#3a2f41" stroke-width="2"><path d="M133.50347,255.46379c0.39588,6.15541 0.50118,12.03662 -4.73901,11.90111c-4.38116,-0.11328 -5.50593,-6.01843 -5.90182,-12.17384c-0.39589,-6.1554 1.15886,-10.33481 5.52806,-10.21109c3.13098,0.08865 4.71687,4.32844 5.11275,10.48383z" fill="#8c9ca0" stroke-linecap="butt"/><path d="M132.92477,255.3594c-4.72792,2.48059 -8.70045,0.34613 -8.70045,0.34613" fill="none" stroke-linecap="round"/></g><g><path d="M123.10253,241.61015c-0.33941,-3.23625 0.15392,-39.37944 10.4318,-82.61242c0.97186,-2.09022 7.26279,-2.19148 14.27181,0.0524c4.03917,1.08649 11.06751,10.56693 11.06751,10.56693c0,0 -1.99072,14.9579 -2.75975,23.46962c-1.72481,19.09025 -2.92509,43.4682 -3.5277,49.17114c-1.04141,9.85522 -6.80229,15.91815 -14.4243,15.21035c-6.55586,-0.6088 -14.06344,-6.36183 -15.05936,-15.85801z" fill="#8c9ca0" stroke="#3a2f41" stroke-width="2" stroke-linecap="butt"/><path d="M152.66992,223.95916c0,0 -12.01236,7.39098 -28.84451,-1.59227" fill="#8c9ca0" stroke="#3a2f41" stroke-width="2" stroke-linecap="round"/><path d="M129.06352,232.96919c-0.07451,1.66824 -0.82617,3.0257 -1.67886,3.03198c-0.85269,0.00625 -1.48351,-1.34107 -1.40899,-3.00931c0.07451,-1.66824 0.82617,-3.0257 1.67886,-3.03198c0.85269,-0.00625 1.48351,1.34107 1.40899,3.00931z" fill="#e1e2db" stroke="#e1e2db" stroke-width="0.5" stroke-linecap="butt"/><path d="M131.63026,192.50977c-1.93479,13.00646 -2.48675,22.51087 -2.90865,22.45981c-0.42193,-0.05106 0.13832,-9.87366 2.28673,-22.82567c2.15306,-12.98003 4.0301,-24.3869 4.45204,-24.33584c0.42193,0.05106 -1.89718,11.70775 -3.83008,24.70169z" fill="#f0fcff" stroke="#e1e2db" stroke-width="3" stroke-linecap="butt"/></g><g data-paper-data="{&quot;index&quot;:null}" stroke="#3a2f41" stroke-width="2"><path d="M140.90305,261.13685c-0.75292,6.11453 -1.74177,11.91344 -6.88959,10.95004c-4.30393,-0.80545 -4.31705,-6.78942 -3.56412,-12.90392c0.75292,-6.11452 3.06431,-9.97727 7.35451,-9.16345c3.07437,0.58318 3.85212,5.00285 3.09919,11.11737z" fill="#8c9ca0" stroke-linecap="butt"/><path d="M140.35116,260.94253c-5.12822,1.68982 -8.65321,-1.03805 -8.65321,-1.03805" fill="none" stroke-linecap="round"/></g><g data-paper-data="{&quot;index&quot;:null}" stroke="#3a2f41" stroke-width="2"><path d="M156.30799,253.61824c1.04657,6.09704 1.7752,11.94718 -3.44817,12.28616c-4.36709,0.28344 -6.11167,-5.49833 -7.15823,-11.59536c-1.04657,-6.09703 0.05551,-10.40175 4.41183,-10.67372c3.12175,-0.19489 5.14801,3.88591 6.19457,9.98294z" fill="#8c9ca0" stroke-linecap="butt"/><path d="M155.72166,253.56658c-4.4366,2.89916 -8.61193,1.13187 -8.61193,1.13187" fill="none" stroke-linecap="round"/></g><path d="M164.66156,165.84312c-1.84056,9.0529 -10.51712,12.2994 -20.16188,10.41326c-9.64476,-1.88612 -16.01417,-9.19876 -14.1736,-18.25163c0.95518,-4.69814 7.04429,-15.71216 22.09669,-11.49895c14.71168,4.11784 13.12417,14.98257 12.2388,19.33734z" fill="#8c9ca0" stroke="#3a2f41" stroke-width="2" stroke-linecap="butt"/></g><g stroke-linecap="butt"><g data-paper-data="{&quot;index&quot;:null}" stroke="none"><g fill="#e1e2db" stroke-width="0"><path d=""/><path d="M154.84432,105.51981l16.52222,12.08951l-13.06804,43.33268c-3.34198,1.93713 -6.66935,1.27939 -9.72392,0.22891c-3.23926,-1.114 -8.71629,-4.37059 -10.15946,-8.58544z"/></g><g fill="none" stroke-width="1" font-family="sans-serif" font-weight="normal" font-size="12" text-anchor="start"/></g><g data-paper-data="{&quot;index&quot;:null}" stroke="none"><g fill="#8c9ca0" stroke-width="0"><path d="M161.78421,151.32569c-2.21251,0.96292 -17.59531,-0.63555 -19.38231,-9.65296l12.43644,-35.62742l16.52222,12.0895z"/></g><g fill="none" stroke-width="1" font-family="sans-serif" font-weight="normal" font-size="12" text-anchor="start"/></g><g data-paper-data="{&quot;index&quot;:null}" fill="none"><g stroke="#3a2f41" stroke-width="2"><path d="M138.56878,152.65368l16.26957,-46.60839l16.52222,12.0895c0,0 -10.10828,35.03449 -11.99049,41.55809c-0.57969,2.00915 -11.74917,5.35672 -21.14213,-7.26608"/></g><g stroke="none" stroke-width="1" font-family="sans-serif" font-weight="normal" font-size="12" text-anchor="start"/></g></g><g data-paper-data="{&quot;index&quot;:null}" stroke="#3a2f41" stroke-width="2"><path d="M150.99407,137.87615c-7.0185,-3.54999 -12.30233,-9.93179 -11.02175,-11.97335c3.02012,-6.81042 5.75152,-16.43857 21.91323,-36.53184c7.91482,-9.84022 15.62429,-9.6935 19.38229,-5.06568c2.81824,3.47055 2.75778,9.89885 2.50394,14.11926c-0.29837,4.96072 -14.33286,42.96785 -14.33286,42.96785c-1.38426,1.2191 -10.85633,0.32205 -18.44485,-3.51625z" fill="#e1e2db" stroke-linecap="butt"/><path d="M171.38955,134.79553c0,0 -10.71435,-1.97886 -15.5236,-4.64738c-1.68954,-0.93749 -3.91356,-2.80263 -5.97681,-4.70618c-3.10913,-2.86847 -5.8532,-5.82418 -5.8532,-5.82418" fill="none" stroke-linecap="round"/></g></g><g><g><g stroke-linecap="butt"><path d="M155.53535,59.13848c-19.41003,-41.46311 -8.31154,-120.04937 12.4376,-121.33047c12.03019,0.452 13.50419,20.74801 13.50419,20.74801c0,0 25.96591,-1.58421 37.22487,-1.58421c10.87837,0 28.86595,1.06137 28.86595,1.06137c0,0 2.93772,-20.70591 14.13678,-19.38587c16.13195,1.90149 21.92683,90.4913 10.36337,118.19731c-1.86063,4.45807 -116.53276,2.29385 -116.53276,2.29385z" fill="#e1e2db" stroke="#3a2f41" stroke-width="2"/><g data-paper-data="{&quot;index&quot;:null}"><path d="M258.90355,22.68708c-0.65506,9.22702 -1.97651,17.41211 -9.64441,22.90979c-7.45396,5.34429 -21.03084,8.14106 -37.18232,7.43325c-32.3389,-1.41714 -43.41084,-17.77274 -42.11899,-35.96929c1.29181,-18.19655 16.46383,-40.45423 53.71442,-37.08996c24.50368,2.21305 36.52311,24.51966 35.23128,42.71622z" fill="#e1e2db" stroke="none" stroke-width="0"/><path d="M258.90355,22.68708c-1.29184,18.19655 -18.75373,4.10465 -38.90551,2.97497c-20.14777,-1.12945 -51.33206,9.59532 -50.04021,-8.60123c1.29181,-18.19655 16.46383,-40.45423 53.71442,-37.08996c24.50368,2.21305 36.52311,24.51966 35.23128,42.71622z" fill="#b8c1c0" stroke="none" stroke-width="0"/><path d="M208.3729,-19.52002c44.72522,-2.7376 51.66544,26.22262 50.50136,42.61978h-0.00001c-0.61276,8.63137 -2.69101,16.65621 -9.3777,22.10082c-7.41008,6.03366 -20.22501,8.99702 -37.44902,8.24221c-32.33889,-1.41715 -43.41085,-17.77273 -42.119,-35.96928c1.09652,-15.44538 12.1934,-33.81673 38.30428,-36.96143" fill="none" stroke="#3a2f41" stroke-width="2"/></g></g><g fill="#e1e2db" stroke="#3a2f41" stroke-width="1.5" stroke-linecap="butt"><g data-paper-data="{&quot;index&quot;:null}"><path d="M236.84658,33.11466c-15.23411,-2.33255 -14.75908,-16.59519 -14.75908,-16.59519l34.80241,10.11393c0,0 -1.0759,9.38542 -20.04334,6.48126z"/></g></g><g data-paper-data="{&quot;index&quot;:null}" fill="#e1e2db" stroke="#3a2f41" stroke-width="1.5" stroke-linecap="butt"><g data-paper-data="{&quot;index&quot;:null}"><path d="M196.33399,32.78966c-19.98927,2.90416 -21.12313,-6.48126 -21.12313,-6.48126l36.67732,-10.11393c0,0 0.50062,14.26264 -15.5542,16.59519z"/></g></g><path d="M218.80626,41.44965c0,0 -1.86168,1.88832 -4.125,0" data-paper-data="{&quot;index&quot;:null}" fill="none" stroke="#3a2f41" stroke-width="1" stroke-linecap="round"/><path d="M227.01211,27.52528c-2.49245,-0.16383 -2.61039,-10.02999 -2.61039,-10.02999c0,0 4.0144,1.13196 5.32749,1.50174c0.3515,0.09899 -0.44165,8.67782 -2.7171,8.52825z" data-paper-data="{&quot;index&quot;:null}" fill="#3a2f41" stroke="#3a2f41" stroke-width="1.5" stroke-linecap="butt"/></g><path d="M209.5195,17.87026c0,0 -0.88094,9.60253 -2.98538,9.65499c-2.10445,0.05246 -3.02501,-5.11817 -3.13549,-8.46502z" fill="#3a2f41" stroke="#3a2f41" stroke-width="1.5" stroke-linecap="butt"/></g><g stroke-linecap="butt"><g stroke="#3a2f41" stroke-width="2"><path d="M29.98678,387.22627l-2.26109,-37.21707l5.43376,0.20396c0,0 2.16203,33.225 2.83825,41.32536c-0.04574,1.008 -11.48264,4.20586 -12.26232,0.90458c-0.90805,-3.84481 6.25141,-5.21682 6.25141,-5.21682z" data-paper-data="{&quot;index&quot;:null}" fill="#494050"/><path d="M26.72773,387.19199v-5.66667h11.33333l0.33333,10.33333c0,0 -15.53871,6.08097 -18,1.66667c-1.66069,-2.97843 6.33333,-6.33333 6.33333,-6.33333z" fill="#3a2f41"/><path d="M40.35533,379.29925c0.24175,2.90094 -3.24582,4.17982 -7.64883,4.54674c-4.40302,0.36692 -8.05416,-0.31707 -8.2959,-3.21801c-0.24175,-2.90094 3.28389,-3.72307 7.6869,-4.08999c4.40301,-0.36692 8.01609,-0.13968 8.25784,2.76126z" fill="#e1e2db"/></g><g stroke="#3a2f41" stroke-width="2"><path d="M87.07357,389.06456c0,0 8.09982,5.49692 4.28937,8.39728c-3.81045,2.90037 -11.68219,-4.74908 -11.70154,-5.6937c-0.29157,-14.23318 -2.73155,-40.86142 -2.73155,-40.86142l6.53895,-0.72655l3.60478,38.8844z" data-paper-data="{&quot;index&quot;:null}" fill="#494050"/><path d="M88.92579,387.8502c0,0 6.60927,7.58234 5.23828,10.70473c-2.03194,4.62766 -16.41027,-4.95361 -16.41027,-4.95361l-0.64729,-10.31842l11.28234,-1.07387l0.53693,5.64117z" data-paper-data="{&quot;index&quot;:null}" fill="#3a2f41"/><path d="M82.57067,377.75294c4.41797,-0.05193 8.00564,0.43243 8.03986,3.34323c0.03422,2.9108 -3.53569,3.93767 -7.95366,3.9896c-4.41797,0.05193 -8.01103,-0.89073 -8.04524,-3.80153c-0.03422,-2.9108 3.54108,-3.47936 7.95905,-3.53129z" data-paper-data="{&quot;index&quot;:null}" fill="#e1e2db"/></g><g data-paper-data="{&quot;index&quot;:null}" fill="#494050" stroke="#3a2f41" stroke-width="2"><path d="M18.811,328.75744c1.99039,0.20678 2.76248,2.82852 2.03364,15.45964c-0.72149,12.50366 -0.97104,19.41896 -0.97104,19.41896c0,0 0.1482,1.27063 0.93419,2.17841c1.29026,1.49017 3.72453,2.17503 3.46026,3.7166c-0.30883,1.80153 -4.2882,3.56274 -5.77771,0.69579c-0.17343,-0.3338 -3.01852,0.00218 -4.48809,1.03957c-3.23963,2.28689 -6.46711,6.50785 -9.0998,4.32685c-1.39527,-3.24426 1.41817,-2.75619 4.64282,-6.81713c0.94091,-1.18493 -2.96746,2.98512 -3.06645,2.38595c-0.32917,-1.95429 -0.39369,-2.2176 1.60717,-4.20043c2.06901,-2.05037 4.41607,-4.31573 4.41607,-4.31573c0,0 2.31792,-16.09114 2.54808,-18.30657c0.76815,-7.39411 1.41695,-10.78692 1.9164,-12.89224c0.35059,-1.47782 1.02355,-2.77491 1.84446,-2.68963z"/></g><g><path d="M108.08322,345.9084c-0.35858,1.0879 -17.62246,6.82446 -17.62246,6.82446c0,0 -56.36934,0.07952 -60.99333,-4.94649c-3.8141,-4.14572 -3.29021,-26.49124 -2.53907,-51.6272c0.75317,-25.2041 -1.09678,-45.10176 2.76139,-49.21454c5.51729,-5.8814 63.94766,-1.75726 63.94766,-1.75726c0,0 7.7715,4.01956 12.54975,6.91169c1.84331,1.1157 3.24117,2.06361 3.57556,2.54825c3.03442,5.43024 0.97559,83.20542 -1.6795,91.26108z" fill="#595564" stroke="#3a2f41" stroke-width="2"/><path d="M91.54175,352.39802c-1.46018,4.54748 -74.87995,2.67748 -80.10048,-3.16075c-3.70433,-4.14264 -3.1775,-26.48807 -2.42761,-51.62407c0.75193,-25.20414 2.51743,-50.45139 6.27106,-54.5671c3.38505,-3.71157 74.31915,-2.80121 77.97084,2.64661c4.4382,6.62119 0.88731,98.60458 -1.71381,106.70531z" fill="#7c7984" stroke="#3a2f41" stroke-width="2"/><path d="M83.8212,301.30325c-1.2066,1.52152 -64.25534,-0.27537 -65.30489,-2.1256c-0.94517,-1.66623 0.82077,-45.52781 2.47687,-45.70631c16.68271,-1.79805 62.69652,-0.30576 63.92793,1.89565c0.87453,1.56339 0.10669,44.41473 -1.0999,45.93626z" fill="#e1e2db" stroke="#8c9ca0" stroke-width="2"/><path d="M34.97717,311.0734l0.11161,-3.96924l42.10843,1.18398l-0.1116,3.96924z" fill="#595564" stroke="#3a2f41" stroke-width="2"/><path d="M37.91096,311.15589l0.1116,-3.96924l39.17464,1.10149l-0.1116,3.96924z" fill="#494557" stroke="#3a2f41" stroke-width="2"/><g stroke="#3a2f41" stroke-width="1.5"><path d="M19.36547,307.88258c0.04705,-1.67323 0.30784,-2.53722 2.17772,-2.99001c1.32638,-0.32118 2.7161,0.15156 3.5855,0.8179c0.80608,0.6178 1.21948,1.71632 1.19684,2.52133c-0.02833,1.00738 -0.49428,1.90094 -1.39554,2.543c-0.59571,0.42438 -1.72478,0.66216 -2.91655,0.5981c-1.92115,-0.10326 -2.69504,-1.81709 -2.64799,-3.49032z" fill="#170071"/><path d="M21.85175,305.04324c1.75371,0.04931 3.13628,1.48005 3.08805,3.19564c-0.04823,1.71559 -1.50901,3.06638 -3.26273,3.01707c-1.75371,-0.04931 -3.13628,-1.48005 -3.08805,-3.19565c0.04823,-1.71559 1.50901,-3.06637 3.26273,-3.01707z" fill="#595564"/></g><g stroke="#3a2f41" stroke-width="1.5"><path d="M70.52232,344.87447c0.03914,-1.39204 2.02478,-1.71564 6.30015,-1.59542c4.27537,0.12021 5.96063,0.27432 5.92149,1.66636c-0.03914,1.39204 -1.91201,1.78699 -6.18738,1.66678c-4.27537,-0.12021 -6.07341,-0.34567 -6.03427,-1.73771z" fill="#170071"/><path d="M75.48926,343.24156c4.27539,0.12021 5.96063,0.27432 5.92149,1.66636c-0.03914,1.39204 -1.912,1.78698 -6.18738,1.66677c-4.27538,-0.12021 -6.0734,-0.34566 -6.03426,-1.73771c0.03914,-1.39204 2.02477,-1.71564 6.30015,-1.59543z" fill="#595564"/></g><g stroke="#3a2f41" stroke-width="1.5"><path d="M54.69283,344.6021c0.03914,-1.39204 1.97446,-1.71705 6.14091,-1.5999c4.16644,0.11715 5.80869,0.27006 5.76955,1.66209c-0.03914,1.39204 -1.8646,1.78832 -6.03105,1.67117c-4.16645,-0.11715 -5.91855,-0.34131 -5.87941,-1.73335z" fill="#170071"/><path d="M53.39362,344.56557c0.03914,-1.39204 1.97446,-1.71705 6.14091,-1.5999c4.16644,0.11715 5.80868,0.27005 5.76954,1.66209c-0.03914,1.39204 -1.8646,1.78831 -6.03105,1.67116c-4.16645,-0.11715 -5.91854,-0.34131 -5.8794,-1.73335z" fill="#595564"/></g><g stroke="#3a2f41" stroke-width="1.5"><path d="M27.87029,337.87741c0.08441,-3.00182 0.4771,-4.55394 3.24148,-5.38286c1.96088,-0.58799 4.00818,0.24759 5.28563,1.43507c1.18441,1.10099 1.78485,3.06781 1.74424,4.512c-0.05081,1.80725 -0.74664,3.41427 -2.08281,4.57402c-0.88318,0.76657 -2.55206,1.20317 -4.31077,1.09892c-2.8351,-0.16806 -3.96218,-3.23535 -3.87778,-6.23717z" fill="#8c9ca0"/><path d="M31.56592,332.76205c2.58841,0.07277 4.61658,2.62683 4.53003,5.70466c-0.08653,3.07781 -2.25501,5.51389 -4.84342,5.44111c-2.58841,-0.07277 -4.61658,-2.62683 -4.53003,-5.70466c0.08653,-3.07781 2.25501,-5.51389 4.84342,-5.44111z" fill="#e1e2db"/></g><g stroke="#3a2f41" stroke-width="1.5"><path d="M21.35697,328.88819c0.05633,-2.00356 0.28681,-3.04042 1.88349,-3.60067c1.13258,-0.3974 2.31139,0.15503 3.04523,0.94427c0.68039,0.73176 1.02173,2.04284 0.99463,3.00677c-0.03392,1.20625 -0.43939,2.28051 -1.21308,3.05791c-0.51141,0.51385 -1.47516,0.80948 -2.48938,0.74438c-1.63493,-0.10494 -2.27724,-2.14912 -2.22091,-4.15269z" fill="#595564"/><path d="M23.22306,325.62371c1.49289,0.04197 2.65628,1.74134 2.59851,3.79563c-0.05776,2.0543 -1.3148,3.6856 -2.80768,3.64362c-1.49289,-0.04197 -2.65628,-1.74134 -2.59851,-3.79563c0.05776,-2.0543 1.3148,-3.6856 2.80768,-3.64362z" fill="#7c7984"/></g><g stroke="#3a2f41" stroke-width="1.5"><path d="M33.82707,325.45587c-0.01226,-0.10496 2.7177,-6.55301 2.9369,-7.05309c0.06682,-0.15247 1.79956,-0.00013 1.82265,-0.00046c0.179,-0.00257 4.49782,7.1213 4.49379,7.31374c-0.00455,0.21758 -9.23955,-0.1421 -9.25334,-0.26019z" fill="#4c6065"/><path d="M31.98355,325.40403c-0.01512,-0.12948 4.63752,-7.0518 4.75955,-7.05355c0.17899,-0.00257 4.49782,7.1213 4.4938,7.31374c-0.00455,0.21758 -9.23956,-0.1421 -9.25335,-0.26019z" fill="#8c9ca0"/></g><path d="M102.30801,259.09639c3.28132,-0.34148 6.28734,3.81802 6.71416,9.2905c0.42682,5.47248 -1.88721,10.18563 -5.16853,10.52711c-3.28132,0.34148 -6.28734,-3.81803 -6.71416,-9.29051c-0.42682,-5.47247 1.88721,-10.18563 5.16853,-10.5271z" fill="#8c9ca0" stroke="#3a2f41" stroke-width="2"/><g fill="#3a2f41" stroke="#8c9ca0" stroke-width="0.25"><path d="M106.25521,267.95146c0.3117,-0.00102 0.56105,0.49942 0.55695,1.11774c-0.0041,0.61832 -0.26012,1.1204 -0.57181,1.12141c-0.31169,0.00102 -0.56105,-0.49942 -0.55695,-1.11774c0.0041,-0.61832 0.26012,-1.1204 0.57181,-1.12141z"/><path d="M102.07967,273.76541c-0.0041,0.61832 -0.26011,1.1204 -0.5718,1.12141c-0.3117,0.00102 -0.56104,-0.49941 -0.55694,-1.11773c0.0041,-0.61832 0.26012,-1.12041 0.57181,-1.12142c0.3117,-0.00102 0.56104,0.49943 0.55694,1.11775z" data-paper-data="{&quot;index&quot;:null}"/><path d="M104.60866,275.10465c-0.31169,0.00102 -0.56105,-0.49942 -0.55695,-1.11774c0.0041,-0.61832 0.26011,-1.12041 0.5718,-1.12142c0.3117,-0.00101 0.56105,0.49942 0.55696,1.11774c-0.0041,0.61832 -0.26012,1.12041 -0.57181,1.12142z" data-paper-data="{&quot;index&quot;:null}"/><path d="M100.04381,269.95294c-0.3117,0.00102 -0.56105,-0.49943 -0.55696,-1.11775c0.0041,-0.61832 0.26012,-1.12041 0.57181,-1.12142c0.31169,-0.00102 0.56105,0.49943 0.55695,1.11775c-0.0041,0.61832 -0.26011,1.12041 -0.5718,1.12142z" data-paper-data="{&quot;index&quot;:null}"/><path d="M102.29069,264.3572c-0.0041,0.61832 -0.26011,1.12041 -0.5718,1.12142c-0.3117,0.00102 -0.56105,-0.49942 -0.55695,-1.11774c0.0041,-0.61832 0.26012,-1.1204 0.57181,-1.12141c0.3117,-0.00102 0.56105,0.49941 0.55695,1.11773z" data-paper-data="{&quot;index&quot;:null}"/><path d="M104.94329,265.71807c-0.31167,-0.00218 -0.55951,-0.5052 -0.55358,-1.12353c0.00593,-0.61832 0.26341,-1.1178 0.57509,-1.11562c0.31167,0.00218 0.5595,0.5052 0.55357,1.12352c-0.00593,0.61833 -0.26341,1.1178 -0.57508,1.11562z" data-paper-data="{&quot;index&quot;:null}"/><path d="M103.82589,269.22586c-0.0041,0.61833 -0.26012,1.12041 -0.57181,1.12142c-0.3117,0.00101 -0.56105,-0.49941 -0.55695,-1.11775c0.0041,-0.61832 0.26011,-1.12041 0.5718,-1.12142c0.3117,-0.00102 0.56105,0.4994 0.55695,1.11773z" data-paper-data="{&quot;index&quot;:null}"/></g><g fill="#000f28" font-family="Handwriting" font-weight="normal" font-size="40" text-anchor="start"><text transform="translate(106.90827,289.88854) rotate(91.94412) scale(0.42447,-0.26298) skewX(1.05112)" font-size="40" xml:space="preserve" fill="#000f28" fill-rule="nonzero" stroke="#3a2f41" stroke-width="11" stroke-linecap="butt" stroke-linejoin="miter" stroke-miterlimit="10" stroke-dasharray="" stroke-dashoffset="0" font-family="Handwriting" font-weight="normal" text-anchor="start" style="mix-blend-mode: normal"><tspan x="0" dy="0">Z M O</tspan></text><text transform="translate(106.90827,289.88854) rotate(91.94412) scale(0.42447,-0.26297) skewX(1.05116)" font-size="40" xml:space="preserve" fill="#000f28" fill-rule="nonzero" stroke="#494050" stroke-width="4" stroke-linecap="butt" stroke-linejoin="miter" stroke-miterlimit="10" stroke-dasharray="" stroke-dashoffset="0" font-family="Handwriting" font-weight="normal" text-anchor="start" style="mix-blend-mode: normal"><tspan x="0" dy="0">Z M O</tspan></text></g><g font-family="Pixel" font-weight="normal" font-size="40" text-anchor="start"><text transform="translate(75.18813,333.24017) rotate(-178.38899) scale(0.39838,-0.46358) skewX(-0.00042)" font-size="40" xml:space="preserve" fill="#ffd71d" fill-rule="nonzero" stroke="#3a2f41" stroke-width="7" stroke-linecap="butt" stroke-linejoin="miter" stroke-miterlimit="10" stroke-dasharray="" stroke-dashoffset="0" font-family="Pixel" font-weight="normal" text-anchor="start" style="mix-blend-mode: normal"><tspan x="0" dy="0">+</tspan></text><text transform="translate(75.18813,333.24017) rotate(-178.38899) scale(0.39838,-0.46358) skewX(-0.00042)" font-size="40" xml:space="preserve" fill="#8c9ca0" fill-rule="nonzero" stroke="#8c9ca0" stroke-width="1" stroke-linecap="butt" stroke-linejoin="miter" stroke-miterlimit="10" stroke-dasharray="" stroke-dashoffset="0" font-family="Pixel" font-weight="normal" text-anchor="start" style="mix-blend-mode: normal"><tspan x="0" dy="0">+</tspan></text><text transform="translate(73.41306,333.19027) rotate(-178.38899) scale(0.39838,-0.46358) skewX(-0.00042)" font-size="40" xml:space="preserve" fill="#ffd71d" fill-rule="nonzero" stroke="#3a2f41" stroke-width="7" stroke-linecap="butt" stroke-linejoin="miter" stroke-miterlimit="10" stroke-dasharray="" stroke-dashoffset="0" font-family="Pixel" font-weight="normal" text-anchor="start" style="mix-blend-mode: normal"><tspan x="0" dy="0">+</tspan></text><text transform="translate(73.41306,333.19027) rotate(-178.38899) scale(0.39838,-0.46358) skewX(-0.00042)" font-size="40" xml:space="preserve" fill="#e1e2db" fill-rule="nonzero" stroke="#e1e2db" stroke-width="1" stroke-linecap="butt" stroke-linejoin="miter" stroke-miterlimit="10" stroke-dasharray="" stroke-dashoffset="0" font-family="Pixel" font-weight="normal" text-anchor="start" style="mix-blend-mode: normal"><tspan x="0" dy="0">+</tspan></text></g></g><g data-paper-data="{&quot;index&quot;:null}" fill="#494050" stroke="#3a2f41" stroke-width="2"><path d="M99.17419,342.50578c0.03676,-12.65208 0.96608,-15.2223 2.96533,-15.30826c0.82457,-0.03545 1.41781,1.29998 1.67834,2.79631c0.37115,2.13168 0.81346,5.55753 1.13281,12.98457c0.09569,2.22529 1.43573,18.42721 1.43573,18.42721c0,0 2.2057,2.40323 4.14685,4.57502c1.87722,2.10026 1.79688,2.35918 1.35007,4.28998c-0.13507,0.59209 -3.78396,-3.80681 -2.91647,-2.56712c2.97303,4.24861 5.81085,3.93167 4.22183,7.08557c-2.75984,2.01771 -5.72601,-2.39081 -8.82133,-4.86952c-1.40411,-1.1244 -4.22366,-1.63192 -4.41697,-1.30922c-1.66025,2.77157 -5.52576,0.77281 -5.72502,-1.0441c-0.17051,-1.55474 2.30075,-2.09104 3.6788,-3.50042c0.83947,-0.85855 1.06428,-2.11789 1.06428,-2.11789c0,0 0.16934,-6.91772 0.20573,-19.44213z"/></g><g stroke="#3a2f41"><path d="M31.08736,240.23205c0,0 -4.13173,-7.62865 -0.96939,-16.1689c3.61699,-9.76805 16.01299,-22.96791 34.87731,-18.8865c21.23606,4.59455 26.58511,24.15829 26.58511,24.15829c0,0 10.05711,1.69444 12.15342,6.08926c2.56391,5.37513 -1.17419,13.9671 -1.17419,13.9671c0,0 -13.77133,-6.33648 -22.97076,-7.18805c-12.90311,-1.19441 -48.5015,-1.97119 -48.5015,-1.97119z" fill="#8c9ca0" stroke-width="2"/><path d="M61.23771,232.45791c-3.63743,5.65471 -10.97304,7.41686 -16.38454,3.93588c-5.4115,-3.48099 -6.84966,-10.88693 -3.21223,-16.54164c3.63744,-5.65471 10.97304,-7.41687 16.38454,-3.93588c5.4115,3.48099 6.84966,10.88693 3.21223,16.54164z" fill="#e1e2db" stroke-width="2"/><path d="M71.21913,241.28657c0,0 -36.77268,4.32376 -57.42706,1.16848c-20.65438,-3.15528 -19.33692,-7.60102 -18.7024,-10.92811c0.63452,-3.32709 2.65743,-4.87529 23.31181,-1.72001c20.65438,3.15528 52.81766,11.47965 52.81766,11.47965z" fill="#8c9ca0" stroke-width="2"/><text transform="translate(44.59314,230.85716) rotate(9.92164) scale(0.40174,0.40174)" font-size="40" xml:space="preserve" fill="#3a2f41" fill-rule="nonzero" stroke="#3a2f41" stroke-width="3" stroke-linecap="butt" stroke-linejoin="miter" stroke-miterlimit="10" stroke-dasharray="" stroke-dashoffset="0" font-family="Handwriting" font-weight="normal" text-anchor="start" style="mix-blend-mode: normal"><tspan x="0" dy="0">Z</tspan></text></g><path d="M35.98435,283.14244l1.3434,-13.93539l3.81565,0.36784l-1.34341,13.93539z" fill="#3a2f41" stroke="none" stroke-width="0"/><path d="M60.42244,283.84802l1.12867,-13.95443l3.82085,0.30904l-1.12866,13.95443z" fill="#3a2f41" stroke="none" stroke-width="0"/><path d="M41.81387,288.69199l13.83334,-4.66666c0,0 3.34104,10.97732 -1.66667,12.66667c-5.00771,1.68935 -12.16667,-8 -12.16667,-8z" fill="#3a2f41" stroke="none" stroke-width="0"/></g></g></g></svg>