<svg version="1.1" xmlns="http://www.w3.org/2000/svg" xmlns:xlink="http://www.w3.org/1999/xlink" width="410.34436" height="411.3194" viewBox="0,0,410.34436,411.3194"><g transform="translate(-30.95132,-40.91137)"><g data-paper-data="{&quot;isPaintingLayer&quot;:true}" fill-rule="nonzero" stroke-linejoin="miter" stroke-miterlimit="10" stroke-dasharray="" stroke-dashoffset="0" style="mix-blend-mode: normal"><path d="M221.68859,167.76995c0,0 -0.83991,28.24987 -14.05039,49.66106c-9.46333,15.3379 -32.96626,29.52525 -32.96626,29.52525l28.26122,-34.35505c0,0 -5.18553,7.03445 -15.75397,14.89329c-9.86596,7.33644 -24.96005,15.34784 -30.28581,20.20897c-6.88283,6.28238 -13.79015,19.50804 -13.79015,19.50804c0,0 -6.19427,-32.90978 -5.52953,-44.85938c0.56162,-10.09607 9.26098,-22.21929 9.26098,-22.21929c0,0 -7.85591,2.4664 -13.01275,4.24295c-9.7152,3.34693 -18.64821,8.15857 -18.64821,8.15857c0,0 4.42715,-9.33775 11.18874,-16.32777c9.47732,-9.79753 15.82189,-14.56941 15.82189,-14.56941c0,0 -6.23453,-0.73425 -12.71946,-7.46615c-5.38629,-5.59144 -7.27785,-11.30119 -7.27785,-11.30119c0,0 29.22004,4.58532 49.63042,-21.54335c13.85624,-17.7383 49.87118,26.44347 49.87118,26.44347z" fill="#e1e2db" stroke="#3a2f41" stroke-width="2" stroke-linecap="round"/><path d="M231.23429,91.3371c0,0 -2.47882,50.4613 -6.1234,68.06464c-2.2401,10.81968 -18.54905,23.04369 -18.54905,23.04369c0,0 3.36673,-19.43337 3.1354,-19.00393c-8.04532,14.9344 -33.55724,14.06598 -33.55724,14.06598c0,0 4.41998,-6.34848 6.1758,-13.66119c1.11658,-4.65033 0.89048,-6.28862 0.73388,-6.21027c-8.24429,4.12619 -32.76315,-7.64478 -32.76315,-7.64478c0,0 21.41724,-4.76016 22.99116,-11.92648c0.72485,-3.30035 -7.40236,-36.15389 -6.97172,-39.45679c0.54997,-4.21822 19.15155,-19.57046 31.57098,-27.1779c7.68824,-4.70937 21.08003,-12.606 27.77285,-15.77879c2.75668,-1.30682 4.25898,-1.4119 4.25898,-1.4119l1.32554,37.09775z" data-paper-data="{&quot;index&quot;:null}" fill="#3a2f41" stroke="#3a2f41" stroke-width="2" stroke-linecap="butt"/><path d="M219.7949,101.36814c-0.83541,-7.13094 8.8881,-46.60071 8.8881,-46.60071c0,0 24.72524,-8.17361 60.62064,9.69032c9.56458,5.27284 21.39365,-4.19019 21.39365,-4.19019c0,0 2.78095,12.14937 -1.56859,16.36151c-0.32616,0.31586 58.79157,15.02111 58.79157,15.02111c0,0 -21.71614,22.89339 -49.73786,32.60643c6.65614,2.22527 20.52436,3.78996 20.52436,3.78996c0,0 -14.47069,14.80529 -39.81208,16.44432c-0.1517,-0.01101 7.73612,11.5585 7.73612,11.5585c0,0 -13.62508,4.82533 -29.58652,-1.80382c-25.65784,-10.65628 -56.91308,-50.00653 -57.24941,-52.87743z" data-paper-data="{&quot;index&quot;:null}" fill="#e1e2db" stroke="#3a2f41" stroke-width="2" stroke-linecap="butt"/><g data-paper-data="{&quot;index&quot;:null}" stroke-linecap="butt"><path d="M286.37894,121.73068c0.50775,8.94767 5.20067,16.39559 -1.60862,22.63548c-6.61932,6.06577 -21.52539,10.68094 -37.39697,12.01742c-12.48394,1.05124 -24.82154,0.77807 -31.89323,-2.5902c-10.92965,-5.2058 -13.133,-15.99883 -13.74093,-26.7125c-1.0013,-17.64563 11.05614,-40.92645 47.87665,-42.34477c24.22075,-0.93297 35.26514,19.40715 36.26647,37.05279z" fill="#e1e2db" stroke="none" stroke-width="0"/><path d="M234.7445,87.27293c43.36575,-8.2146 49.86712,15.67663 50.76941,31.57735c0,0 6.46777,17.2215 0.2739,23.63675c-6.49067,6.72268 -21.45009,13.00893 -38.37562,14.43416c-11.70655,0.98578 -24.21303,0.05797 -31.13692,-2.88796c-11.87167,-5.05102 -13.8648,-15.26939 -14.49722,-26.41473c-0.84992,-14.97777 7.70872,-34.01556 32.83355,-40.29724" fill="none" stroke="#3a2f41" stroke-width="2"/></g><path d="M286.85968,89.3349c13.7011,10.71025 20.6004,24.77522 15.41007,31.41498c-5.19034,6.63975 -20.50489,3.33998 -34.20598,-7.37027c-13.70109,-10.71025 -20.60041,-24.77523 -15.41007,-31.41498c5.19034,-6.63975 20.50489,-3.33998 34.20598,7.37026z" data-paper-data="{&quot;index&quot;:null}" fill="#e1e2db" stroke="#8c9ca0" stroke-width="2" stroke-linecap="butt"/><path d="M210.59124,93.03307c16.71302,-11.44588 34.15577,-15.03839 38.95947,-8.02411c4.80371,7.01428 -4.8507,21.97916 -21.5637,33.42504c-16.71302,11.44588 -34.15577,15.03839 -38.95947,8.02411c-4.8037,-7.01427 4.8507,-21.97917 21.56372,-33.42505z" data-paper-data="{&quot;index&quot;:null}" fill="#e1e2db" stroke="#3a2f41" stroke-width="2" stroke-linecap="butt"/><path d="M262.18918,61.92086c1.02461,0.52488 6.05274,3.15773 6.50704,16.91121c0.18826,5.69882 1.09387,17.2519 -1.77967,25.09748c-7.58798,20.7174 -18.55044,24.65198 -18.55044,24.65198c0,0 0.8601,-8.92299 -1.82423,-20.27337c-2.71075,-11.46216 -7.79673,-20.98892 -6.99642,-25.77575c0.89426,-5.34872 7.17874,-13.81636 11.87861,-18.57178c3.67137,-3.71473 8.12816,-3.39058 10.76509,-2.03978z" data-paper-data="{&quot;index&quot;:null}" fill="#e1e2db" stroke="#8c9ca0" stroke-width="2" stroke-linecap="butt"/><path d="M213.41277,62.327c0.37933,-0.75537 8.75739,-5.69015 14.78921,-7.36472c15.83855,5.70561 14.68593,20.19844 16.60196,36.92396c0.42413,3.62043 0.39647,8.46906 -0.2568,11.89449c-2.41449,3.37735 -6.51117,8.67613 -14.75541,14.55162c-2.61465,1.8634 -5.68587,2.93007 -9.12986,4.21424c-2.32087,0.86538 -4.81103,1.82956 -7.44487,3.20292c-1.26545,0.65984 -10.35712,3.1868 -10.35712,3.1868l-2.21568,8.00609c0,0 -14.14857,22.40862 -14.81317,21.09937c-1.27571,-2.51309 0.568,-43.50576 1.84957,-48.65176c4.83017,-19.39505 24.48471,-44.5789 25.7322,-47.06296z" data-paper-data="{&quot;index&quot;:null}" fill="#3a2f41" stroke="none" stroke-width="0" stroke-linecap="butt"/><path d="M245.30285,101.03c0.22304,-2.86889 -0.11019,-5.82566 -0.46013,-8.81271c-1.89323,-15.84245 -16.47488,-36.63119 -16.47488,-36.63119c0,0 7.66739,-1.60578 11.70782,-1.74921c8.74355,-0.31038 17.94499,3.81716 22.31793,5.86537c10.77628,5.04743 20.71174,21.99646 27.09222,25.2007c12.79133,6.42376 23.00687,24.14855 19.43478,31.26148c-3.57209,7.11293 -7.25898,10.72584 -20.95692,6.57267c-4.45408,-1.35047 -10.11338,-4.0514 -15.62619,-7.5797c-8.39979,-5.37603 -16.37363,-12.68294 -24.94973,-19.38967c-0.40232,-0.31463 0.06375,1.54428 -2.0849,5.26225z" data-paper-data="{&quot;index&quot;:null}" fill="#e1e2db" stroke="none" stroke-width="0" stroke-linecap="butt"/><path d="M208.1366,138.94556c0,0 5.30671,-6.48477 16.1374,-7.69006c11.47513,-1.27701 18.35351,5.10879 18.35351,5.10879c0,0 -7.34247,0.279 -17.81619,1.19303c-9.307,0.8122 -16.67469,1.38822 -16.67469,1.38822z" fill="#e1e2db" stroke="#3a2f41" stroke-width="1" stroke-linecap="butt"/><path d="M204.94956,73.9242l-36.96373,-2.50288l2.01231,-29.70896l23.54769,1.65889l-1.39451,18.11374l-12.53029,-0.47363l0.23942,-8.69841l8.35019,0.43657l-0.39833,3.62168l-4.76727,-0.40479" data-paper-data="{&quot;index&quot;:null}" fill="none" stroke="#3a2f41" stroke-width="1.5" stroke-linecap="round"/><text transform="translate(255.22975,97.27241) rotate(1.49673) scale(0.5,0.5)" font-size="40" xml:space="preserve" data-paper-data="{&quot;index&quot;:null}" fill="#525585" fill-rule="nonzero" stroke="none" stroke-width="1" stroke-linecap="butt" stroke-linejoin="miter" stroke-miterlimit="10" stroke-dasharray="" stroke-dashoffset="0" font-family="Handwriting" font-weight="normal" text-anchor="start" style="mix-blend-mode: normal"><tspan x="0" dy="0">2 + 2 = 8</tspan></text><path d="M378.09015,240.73873l29.51827,-18.15658l-4.49054,21.73215l25.04736,-7.381l-14.10441,23.35201l24.3596,15.42174l-61.85456,7.99384l-11.5529,15.52934l-3.78473,-35.45644l-83.09173,-43.12716l5.23397,-18.07395z" data-paper-data="{&quot;index&quot;:null}" fill="#3a2f41" stroke="#3a2f41" stroke-width="2" stroke-linecap="butt"/><path d="M309.27068,333.01357c0,0 -25.77306,6.5 -62.5,6.5c-36.72694,0 -65.83333,-3.83333 -65.83333,-3.83333c0,0 26.1064,-49.83333 62.83333,-49.83333c41.3936,0 65.5,47.16667 65.5,47.16667z" fill="#8c9ca0" stroke="#3a2f41" stroke-width="2.5" stroke-linecap="butt"/><g stroke="#3a2f41" stroke-width="2.5"><path d="M63.73841,313.41033l7.56877,20.58226l-30.20546,-11.88599z" fill="#e1e2db" stroke-linecap="butt"/><path d="M94.08951,316.25865l19.80722,20.38138l-42.02694,1.84338z" fill="#e1e2db" stroke-linecap="butt"/><path d="M126.09932,310.6109l25.87673,13.66179l-37.92916,15.47992z" fill="#e1e2db" stroke-linecap="butt"/><path d="M162.08423,293.00993l27.10595,7.64537c0,0 -11.64703,16.59312 -18.14703,20.40577c-4.63906,2.72108 -17.18919,0.32104 -17.18919,0.32104z" fill="#e1e2db" stroke-linecap="butt"/><g><path d="M32.20132,313.07256c0,0 63.01754,59.37665 159.38372,-16.54775c36.74499,-28.95042 63.22503,30.15695 63.22503,30.15695c0,0 -46.38048,59.23544 -119.37958,57.97458c-72.9991,-1.26085 -103.22917,-71.58379 -103.22917,-71.58379z" fill="#e1e2db" stroke-linecap="butt"/><path d="M246.68943,314.12477c0,0 -92.84676,94.83461 -166.88543,53.64471" fill="none" stroke-linecap="round"/></g></g><g fill="#3a2f41" stroke="#3a2f41" stroke-width="2" stroke-linecap="butt"><g data-paper-data="{&quot;index&quot;:null}"><path d="M108.07907,431.87913l45.06277,-24.28582l27.60327,-59.49417l43.24084,20.87364l-45.68665,80.58777l-5.3168,-1.33877c0,0 0.85372,-5.42907 -0.00595,-5.76812c-1.32843,-0.52391 -5.40678,4.40519 -5.40678,4.40519z"/><path d="M195.51246,392.61024l2.64734,-5.06543l21.1867,8.03793l-3.89315,7.44918z"/><path d="M213.51273,406.74504l-3.89315,7.44918l-18.69507,-12.80542l2.64734,-5.06543z" data-paper-data="{&quot;index&quot;:null}"/></g><path d="M182.81296,376.67733l37.05485,-70.90091l20.97485,10.96206l-37.05485,70.90091z"/></g><g fill="#3a2f41" stroke="#3a2f41" stroke-linecap="butt"><g data-paper-data="{&quot;index&quot;:null}" stroke-width="2.5"><path d="M318.05054,448.71125c0,0 -3.80267,-5.14479 -5.15777,-4.69429c-0.87694,0.29151 -0.32141,5.75917 -0.32141,5.75917l-5.38207,1.04598l-41.21081,-82.96583l44.31774,-18.4775l24.30814,60.91478l43.66709,26.71402z"/><path d="M272.63566,402.33106l-3.47993,-7.65095l21.59459,-6.86719l2.36635,5.20264z"/><path d="M294.85123,396.8293l2.36635,5.20264l-19.36743,11.76379l-3.47993,-7.65095z" data-paper-data="{&quot;index&quot;:null}"/></g><path d="M284.6978,387.79412l-33.12171,-72.82137l21.54298,-9.7985l33.12171,72.82137z" stroke-width="2"/></g><g><g fill="#e1e2db" stroke="#3a2f41" stroke-width="2.5"><path d="M174.03807,306.74267l26.1501,-9.85806l-13.42656,35.30805z" stroke-linecap="butt"/><g><path d="M193.41257,247.27693l22.78998,-14.65467c0,0 5.81461,17.20006 4.78245,23.81109c-0.73665,4.71829 -10.3936,12.1286 -10.3936,12.1286z" stroke-linecap="butt"/><path d="M185.28006,275.04192l27.22492,-9.49967l-12.9733,34.41429z" stroke-linecap="butt"/><g stroke-linecap="round"><path d="M276.93442,256.46864l33.49401,75.14914c0,0 -28.19212,-6.22581 -59.69068,-6.04068c-46.94478,0.27592 -66.93468,8.78917 -66.93468,8.78917l29.48694,-78.20302l-1.02678,-57.29516l61.49851,-3.9031l18.37269,35.6535z"/></g></g></g><path d="M249.02067,266.74508c18.89894,4.29518 31,9.74207 31,9.74207l-2,2.65693c0,0 -23.59691,-9.69977 -55,-11.95617" fill="none" stroke="#8c9ca0" stroke-width="1.5" stroke-linecap="round"/></g><path d="M221.54698,205.8451l4.29461,18.31989l-85.20591,38.78324l-5.60879,35.214l-10.73639,-16.10466l-61.35981,-11.17412l25.12273,-14.14455l-12.88094,-24.04854l24.63324,8.66331l-3.36345,-21.93487l28.54231,19.65517z" fill="#3a2f41" stroke="#3a2f41" stroke-width="2" stroke-linecap="butt"/><g><path d="M181.67069,214.14691c0,0 36.50755,-54.67705 66,-55c29.44882,-0.32248 69,49 69,49c0,0 -23.57995,22.53134 -65.00027,22.98831c-41.58564,0.45879 -69.99973,-16.98831 -69.99973,-16.98831z" fill="#e1e2db" stroke="none" stroke-width="0" stroke-linecap="butt"/><path d="M229.54072,213.5667c-4.57627,8.56041 -14.33465,12.10692 -21.79596,7.92134c-7.46131,-4.18558 -9.80009,-14.51824 -5.22383,-23.07865c4.57627,-8.56041 14.33465,-12.10692 21.79596,-7.92134c7.46131,4.18558 9.80009,14.51824 5.22383,23.07865z" fill="none" stroke="#525585" stroke-width="1.5" stroke-linecap="butt"/><path d="M210.22517,197.23804l-2,4.5" fill="none" stroke="#525585" stroke-width="1.5" stroke-linecap="round"/><path d="M222.72517,199.23804l-1,4.5" fill="none" stroke="#525585" stroke-width="1.5" stroke-linecap="round"/><path d="M223.72517,210.23804c0,0 -2.56077,9.62481 -12.32833,7.27897c-9.21317,-2.2127 -7.17167,-12.77897 -7.17167,-12.77897" fill="none" stroke="#525585" stroke-width="1.5" stroke-linecap="round"/><path d="M242.22517,223.23804v-14.5l8.5,-12l10.79185,-1.97425l8.70815,9.97425v14z" fill="none" stroke="#525585" stroke-width="1.5" stroke-linecap="butt"/><path d="M270.72517,205.23804l-28,4.5" fill="none" stroke="#525585" stroke-width="1.5" stroke-linecap="round"/><path d="M251.22517,197.23804l6.5,10" fill="none" stroke="#525585" stroke-width="1.5" stroke-linecap="round"/><path d="M285.06041,191.19349c5.38906,-5.00977 10.08635,3.64455 10.08635,3.64455c0,0 2.0266,-5.44835 6.24766,-3.14293c4.17032,2.27771 1.979,7.34293 1.979,7.34293c0,0 4.36514,1.74693 4.25354,5.4776c-0.16421,5.48974 -6.2871,3.4224 -6.2871,3.4224c0,0 2.5856,4.35165 -0.92434,7.3c-4.65366,3.90907 -9.05856,-2.3 -9.05856,-2.3c0,0 -1.40681,6.93374 -5.99892,4.87319c-5.21081,-2.33818 -0.74878,-7.57319 -0.74878,-7.57319c0,0 -6.31915,1.39853 -6.30218,-3.51363c0.02237,-6.47471 5.68705,-6.48637 5.68705,-6.48637c0,0 -4.32278,-4.03478 1.06628,-9.04455z" fill="none" stroke="#855252" stroke-width="1.5" stroke-linecap="round"/><path d="M181.67069,214.14692c0,0 36.50755,-54.67705 66,-55c29.44882,-0.32248 69,49 69,49c0,0 -23.57995,22.53134 -65.00027,22.98831c-41.58564,0.45879 -69.99973,-16.98831 -69.99973,-16.98831z" fill="none" stroke="#3a2f41" stroke-width="2" stroke-linecap="butt"/></g><path d="M228.00179,133.88758c0.3337,1.42258 -0.72677,2.79636 -2.36865,3.06846c-1.64188,0.27208 -3.2434,-0.6606 -3.57712,-2.08318c-0.3337,-1.42258 0.72677,-2.79636 2.36865,-3.06846c1.64188,-0.27207 3.2434,0.6606 3.57713,2.08318z" fill="#3a2f41" stroke="#3a2f41" stroke-width="2" stroke-linecap="butt"/><g data-paper-data="{&quot;index&quot;:null}" stroke="#3a2f41"><path d="M264.55349,142.64512c0,0 -12.68721,24.52678 -24.83657,23.71792c-11.57087,-0.77029 -4.73082,-24.05744 -4.73082,-24.05744z" fill="#3a2f41" stroke-width="1" stroke-linecap="round"/><path d="M245.80544,142.84352l-7.95054,11.46002l-1.05272,-11.52512z" data-paper-data="{&quot;index&quot;:null}" fill="#ffffff" stroke-width="1.25" stroke-linecap="butt"/></g><path d="M214.00307,128.96523l26.52182,3.24981" fill="none" stroke="#3a2f41" stroke-width="1" stroke-linecap="round"/></g></g></svg>