<svg version="1.1" xmlns="http://www.w3.org/2000/svg" xmlns:xlink="http://www.w3.org/1999/xlink" width="234.29234" height="352.36451" viewBox="0,0,234.29234,352.36451"><g transform="translate(-91.92639,-51.48181)"><g data-paper-data="{&quot;isPaintingLayer&quot;:true}" fill-rule="nonzero" stroke-linejoin="miter" stroke-miterlimit="10" stroke-dasharray="" stroke-dashoffset="0" style="mix-blend-mode: normal"><g data-paper-data="{&quot;index&quot;:null}" fill="#3a2f41" stroke="#3a2f41" stroke-linecap="butt"><path d="M167.91185,187.72304c2.81775,-24.93359 30.56583,-33.58999 37.76455,-29.64546c7.6877,4.21247 22.65313,14.62074 15.6082,27.31903c-8.61044,15.5201 -41.09951,33.93601 -47.92971,42.10786c-16.87685,20.192 -51.68006,40.56193 -54.76512,38.65204c-0.71584,-0.23824 44.07394,-31.99354 49.32209,-78.43346z" data-paper-data="{&quot;index&quot;:null}" stroke-width="1.5"/><path d="M179.50586,147.16304c0,-16.03023 15.24734,-28.84641 26.68445,-35.3359c5.51965,-3.13188 11.93187,-4.60686 11.93187,-4.60686c0,0 7.6629,1.70573 14.21125,5.58442c11.67671,6.9163 25.3732,19.69984 25.3732,34.62273c0,10.33145 -12.31626,16.45905 -26.79603,18.56011c-3.79974,0.55136 -7.24459,-23.04981 -11.15882,-23.04981c-1.44087,0 -3.40532,23.8412 -4.87414,23.77248c-17.7268,-0.82934 -35.39543,-6.7094 -35.39543,-18.75401z" stroke-width="2"/><path d="M224.42926,125.68812c2.85123,-5.61481 13.85842,-12.27946 27.12104,3.01738c13.26262,15.29684 33.08253,13.63305 32.74147,14.07654c-1.05862,6.25976 -19.26133,16.6406 -32.77497,9.35933c-13.51364,-7.28126 -29.93876,-20.83841 -27.08754,-26.45323z" stroke-width="1.5"/><path d="M222.29644,126.1078c5.9428,-5.39013 23.15587,-9.15881 34.99316,12.77963c11.83728,21.93844 42.90293,31.7988 42.27914,32.18458c-3.75511,6.66109 -37.03846,8.61098 -57.24914,-7.46909c-14.87166,-11.83226 -34.12637,-24.70345 -20.02313,-37.49513z" stroke-width="1.5"/><path d="M185.58692,127.64532c13.26264,-15.29685 24.26983,-8.6322 27.12105,-3.01738c2.85122,5.61482 -13.57391,19.17197 -27.08754,26.45323c-13.51364,7.28127 -31.71635,-3.09957 -32.77497,-9.35933c-0.34106,-0.44349 19.47884,1.2203 32.74147,-14.07654z" data-paper-data="{&quot;index&quot;:null}" stroke-width="1.5"/><path d="M179.36219,137.32716c11.83729,-21.93844 29.05038,-18.16976 34.99317,-12.77962c14.10325,12.79168 -5.15145,25.66286 -20.02313,37.49512c-20.21065,16.08008 -53.49402,14.13019 -57.24914,7.4691c-0.6238,-0.38577 30.44185,-10.24614 42.27914,-32.18459z" data-paper-data="{&quot;index&quot;:null}" stroke-width="1.5"/><path d="M218.13646,141.06515c5.9428,-5.39013 33.93835,-2.89175 41.91104,20.82591c14.84948,44.17521 63.83096,65.55386 63.20717,65.93964c-2.50003,2.52402 -39.64224,-9.88861 -59.85292,-25.96868c-8.1794,-6.50773 -42.72412,-17.51016 -54.14829,-30.80426c-9.34709,-10.87702 2.53654,-24.23633 8.883,-29.9926z" stroke-width="1.5"/><path d="M218.33359,138.91386c6.34648,5.75627 18.23011,19.1156 8.88303,29.99261c-11.42418,13.2941 -34.83053,33.61863 -43.00994,40.12636c-22.29912,17.51425 -68.49127,19.17059 -70.9913,16.64657c-0.6238,-0.38578 48.35768,-21.76443 63.20717,-65.93963c7.9727,-23.71766 35.96825,-26.21605 41.91104,-20.82591z" data-paper-data="{&quot;index&quot;:null}" stroke-width="1.5"/><path d="M225.86786,154.8996c6.68691,-4.09422 31.17584,29.32284 62.60554,51.80972c8.66768,25.66001 32.92354,40.06536 32.24892,40.32847c-2.85196,1.95982 -40.56891,12.95435 -73.16664,-13.34227c-7.09268,-7.25766 -25.73899,-38.33918 -35.00801,-52.3686c-7.58376,-11.47865 6.17906,-22.05501 13.32019,-26.42734z" data-paper-data="{&quot;index&quot;:null}" stroke-width="1.5"/><path d="M160.15602,215.59876c4.90104,-33.10512 41.05044,-43.34769 50.11216,-37.75323c9.67726,5.97448 28.40275,20.54809 18.68783,37.14588c-11.87378,20.28615 -68.93342,62.98852 -78.14054,73.56257c-22.75005,26.12759 -54.26684,31.98299 -58.13908,29.29294c-0.90896,-0.35104 58.35127,-40.58842 67.47965,-102.24817z" data-paper-data="{&quot;index&quot;:null}" stroke-width="1.5"/><path d="M258.5426,303.7972c-25.9286,-28.99066 -62.11398,-58.00741 -59.09244,-65.39121c3.22678,-7.88536 13.6014,-60.66531 25.67842,-54.49892c14.76077,7.53668 48.59623,50.98998 56.54687,57.23332c24.05791,27.89706 13.57616,47.13376 43.73449,85.73767c-0.15157,0.6835 -33.96787,-12.37671 -58.1973,-25.66372c-1.38869,-0.76153 -7.2103,2.88371 -8.67002,2.58286zM303.0648,294.8352c0.18041,0 -2.6732,-6.63621 -5.24074,-14.17316c-2.17762,-6.39241 -3.82382,-13.29857 -6.64921,-18.75866c-4.4921,-8.68104 -9.80667,-13.55923 -9.80667,-13.55923c0,0.22819 3.58013,6.18425 7.45108,14.61199c2.67569,5.82543 4.69763,14.22586 7.21679,19.99479c3.32453,7.61322 6.82668,11.88426 7.02875,11.88426z" data-paper-data="{&quot;index&quot;:null}" stroke-width="1.5"/><path d="M137.98139,293.92906c7.30269,-33.29292 42.95886,-58.32739 55.69639,-55.23714c12.73751,3.09025 23.61489,48.68096 -1.22086,70.70755c-31.04436,27.53294 -31.72722,72.17716 -35.71103,68.35077c-3.60918,-3.46658 -26.0672,-50.52828 -18.76451,-83.82119zM149.21375,357.91992c0.12439,0.28643 -3.33565,-16.04015 -5.75242,-31.28431c-2.15877,-13.61675 -3.2975,-26.32155 -3.2975,-26.32155c-2.39941,13.14657 4.79411,47.8057 9.04992,57.60587z" stroke-width="1.5"/><path d="M173.98354,331.30348c-13.11657,-36.14986 9.74009,-81.86903 25.50908,-86.75738c15.76901,-4.88834 61.94546,31.78527 48.92493,67.9947c-16.2755,45.26131 0.05605,91.72402 -6.68303,90.5331c-6.10537,-1.07893 -54.6344,-35.62057 -67.75097,-71.77042z" stroke-width="1.5"/><path d="M224.11751,318.38738c-19.02081,-32.21324 -7.63239,-82.03947 5.5588,-90.43622c13.1912,-8.39675 57.01905,17.99489 52.56586,56.28654c-5.56644,47.86405 13.7752,93.3675 12.35438,93.0419c-5.70202,0.35468 -51.45822,-26.67899 -70.47903,-58.89223z" stroke-width="1.5"/><path d="M260.73094,139.42645c-2.04446,11.18316 -34.54806,-14.11099 -34.54806,-14.11099c0,0 4.23656,-66.9947 4.08515,-71.96275c-0.1514,-4.96806 11.41279,15.5466 16.12046,29.35307c-0.56722,-0.08232 -1.82381,-0.26471 -2.39104,-0.34703l-0.21855,1.59766c0.95143,0.1381 2.23221,0.32399 3.36948,0.48905c0.11319,0.33708 0.49826,1.25799 0.61145,1.59743c-0.8487,-0.12318 -3.19098,-0.46313 -4.03968,-0.58631l-0.21854,1.59766c1.20365,0.17469 3.38906,0.49187 4.74114,0.68811c3.19568,9.745 6.26222,20.1824 7.89457,28.63613z" data-paper-data="{&quot;index&quot;:null}" stroke-width="0.5"/><path d="M182.51027,115.18332c5.48635,-28.41289 26.02071,-67.99385 25.8693,-63.02578c-0.15141,4.96806 4.08515,71.96275 4.08515,71.96275c0,0 -32.5036,25.29415 -34.54806,14.11099z" data-paper-data="{&quot;index&quot;:null}" stroke-width="0.5"/></g><path d="M182.03588,140.85969c0,-14.47748 13.77044,-26.05223 24.09971,-31.91313c4.98498,-2.82852 10.77609,-4.16062 10.77609,-4.16062c0,0 6.92065,1.5405 12.83471,5.04349c10.54567,6.24636 22.91547,17.79164 22.91547,31.26905c0,9.33072 -11.12325,14.86478 -24.20047,16.76232c-3.43167,0.49794 -6.54285,-20.81713 -10.07793,-20.81713c-1.3013,0 -3.07546,21.53185 -4.40201,21.46979c-16.00972,-0.74901 -31.96691,-6.05951 -31.96691,-16.93744z" data-paper-data="{&quot;index&quot;:null}" fill="#3a2f41" stroke="none" stroke-width="0" stroke-linecap="butt"/><path d="M196.33086,140.70905c-1.55593,14.34781 0.53679,31.14693 0.53679,31.14693c0,0 -10.93123,-7.94185 -11.42425,-27.15093" data-paper-data="{&quot;index&quot;:null}" fill="#3a2f41" stroke="#b8c1c0" stroke-width="2" stroke-linecap="round"/><path d="M190.04917,159.89263c-3.84498,-6.3361 -4.52591,-17.53299 -4.6908,-16.58403c-0.77021,4.4327 0.23536,10.70187 2.35204,16.0245c0.13294,0.60205 -5.512,-12.4017 -4.74178,-16.8344c0.77024,-4.4327 1.93802,-7.93715 2.60833,-7.82739c0.5268,0.08625 6.17155,28.02161 4.47223,25.2213z" data-paper-data="{&quot;index&quot;:null}" fill="#3a2f41" stroke="none" stroke-width="0" stroke-linecap="butt"/><path d="M249.83884,142.89933c-1.96739,21.50967 -13.15738,28.4113 -13.15738,28.4113c0,0 0.76926,-19.41963 -0.48521,-31.59881" data-paper-data="{&quot;index&quot;:null}" fill="#3a2f41" stroke="#b8c1c0" stroke-width="2" stroke-linecap="round"/><path d="M249.97903,143.30199c0,-0.94812 -1.56004,9.83091 -4.68276,15.37468c-1.38012,2.45013 5.12879,-23.39369 5.47086,-23.39369c0.43526,0 0.7881,3.59023 0.7881,8.019c0,4.42877 -4.68158,15.92217 -4.53159,15.35843c1.33797,-5.02887 2.95538,-10.92966 2.95538,-15.35843z" data-paper-data="{&quot;index&quot;:null}" fill="#3a2f41" stroke="none" stroke-width="0" stroke-linecap="butt"/><g data-paper-data="{&quot;index&quot;:null}" stroke-linecap="butt"><path d="M192.70967,144.19831c0,-10.43216 7.56351,-22.72954 21.27526,-23.10797c20.84468,-0.5753 28.40196,12.67582 28.40196,23.10797c0,5.24631 -0.53007,9.18041 -4.53437,12.67785c-3.95812,3.45713 -11.65839,5.56852 -20.62452,5.39022c-9.00841,-0.17913 -16.15826,-1.32503 -20.09181,-4.64433c-4.04647,-3.41459 -4.42653,-8.13387 -4.42653,-13.42374z" fill="#e1e2db" stroke="none" stroke-width="0"/><path d="M191.92377,143.82052c0,-10.43216 8.34941,-22.56764 22.06116,-22.94607c20.84468,-0.5753 28.40196,12.67583 28.40196,23.10798c0,10.43215 -17.04428,4.03686 -28.29132,3.9541c-11.24929,-0.08277 -21.70026,4.37326 -22.1718,-1.84932z" fill="#b8c1c0" stroke="none" stroke-width="0"/><path d="M222.33855,121.72002c14.39391,2.73748 19.83875,13.29956 19.83875,22.15446c0,6.59363 -0.90228,11.76352 -7.45607,15.19241c-3.81533,1.99616 -11.38641,3.33145 -18.02309,3.19948c-9.60661,-0.19103 -17.16254,-1.72831 -21.04449,-5.43948c-2.75169,-2.63062 -2.82057,-4.61014 -3.33033,-8.36184c-0.35152,-2.58704 0.10832,-7.52743 0.41511,-9.90963c1.20853,-9.38405 7.35946,-14.97623 17.15093,-17.0165" fill="none" stroke="#3a2f41" stroke-width="2"/></g><path d="M196.53149,121.29119c6.31597,-6.39929 14.34147,-9.17975 16.58853,-6.82654c2.21288,2.3174 3.48192,13.77753 -2.56821,20.14082c-4.28999,4.90726 -12.23231,8.03356 -19.80594,7.7072c-3.02537,-0.13038 -4.49146,-2.98765 -6.94239,-4.51226z" data-paper-data="{&quot;index&quot;:null}" fill="#3a2f41" stroke="none" stroke-width="0" stroke-linecap="butt"/><path d="M212.09785,116.71211c2.50144,-4.34115 14.09239,-0.75153 23.04799,4.72388c8.95561,5.47543 14.18773,13.43334 11.6863,17.77449c-1.21763,2.11315 -5.21158,10.54188 -3.90125,6.81075c0.47005,-1.33843 -5.00766,-2.88377 -5.84065,-3.43395c-1.00089,-0.66106 -8.42902,-2.92473 -11.96389,-5.08594c-8.9556,-5.47543 -15.52992,-16.44808 -13.02849,-20.78923z" data-paper-data="{&quot;index&quot;:null}" fill="#3a2f41" stroke="none" stroke-width="0" stroke-linecap="butt"/><path d="M206.94135,130.77662c-0.02364,-0.11204 0.11445,-0.69772 0.1158,-0.81168c0.08515,-7.15501 3.5102,-12.43058 6.88083,-12.43058c3.42431,0 8.04449,5.3613 8.04449,12.6748c0,11.03735 8.91593,19.18865 8.67772,19.20656c-10.80573,0.18965 -21.55729,-8.39594 -23.71885,-18.63914z" data-paper-data="{&quot;index&quot;:null}" fill="#3a2f41" stroke="none" stroke-width="0" stroke-linecap="butt"/><path d="M216.76095,130.95978c0.13878,-0.82479 17.96385,0.03563 21.07063,0.59033c3.10678,0.5547 5.35563,9.76834 5.21684,10.59314c-0.13879,0.82479 0.53091,3.95807 -2.57587,3.40336c-3.10678,-0.55471 -16.77732,-3.72383 -23.71159,-14.58684z" data-paper-data="{&quot;index&quot;:null}" fill="#3a2f41" stroke="none" stroke-width="0" stroke-linecap="butt"/><path d="M188.42457,140.94444c1.55736,0.5913 6.47124,2.76077 12.78669,0.75557c8.34104,-2.64833 11.1253,-12.45906 11.1253,-12.45906c0,3.64183 -2.7802,11.79475 -8.65532,14.05982c-11.00548,4.24301 -15.86464,-2.13271 -15.86464,-2.13271c0,0 0.2793,-0.34841 0.60797,-0.22362z" data-paper-data="{&quot;index&quot;:null}" fill="#3a2f41" stroke="none" stroke-width="0" stroke-linecap="butt"/><path d="M222.57669,143.80944c0.40886,-4.32793 4.87623,-7.41319 9.97811,-6.89108c5.10189,0.52213 8.90631,4.45385 8.49743,8.78187c-0.40886,4.32791 -4.87622,7.4132 -9.9781,6.89109c-5.10191,-0.52208 -8.90632,-4.45379 -8.49744,-8.78181z" data-paper-data="{&quot;index&quot;:null}" fill="#e0dedc" stroke="#3a2f41" stroke-width="1.25" stroke-linecap="butt"/><path d="M231.64566,146.3868l-0.04717,-2.94255l0.84081,-0.01098l0.06699,2.96635z" data-paper-data="{&quot;index&quot;:null}" fill="#3a2f41" stroke="#3a2f41" stroke-width="0.5" stroke-linecap="butt"/><path d="M223.05937,146.43535c0,0 17.95108,0.11926 17.59087,0.57485c-1.27499,1.61251 -5.56019,5.4041 -8.46811,5.50774c-3.72949,0.13291 -8.85254,-3.96548 -9.12277,-6.08259z" data-paper-data="{&quot;index&quot;:null}" fill="#3b3045" stroke="#3a2f41" stroke-width="1.25" stroke-linecap="butt"/><path d="M240.44235,142.66054c0.35055,0.45559 -17.119,0.57485 -17.119,0.57485c0.26298,-2.11709 5.24859,-6.21549 8.87806,-6.08259c2.82994,0.10364 7.00017,3.89522 8.24095,5.50774z" data-paper-data="{&quot;index&quot;:null}" fill="#3a2f41" stroke="#3a2f41" stroke-width="1.25" stroke-linecap="butt"/><path d="M233.07127,153.94363c0,-0.5 0.4854,-0.5 0.4854,-0.5h0.17651c1.51306,0 4.15899,-0.51993 4.96732,-2.02998c0,0 0.24973,-0.42875 0.66596,-0.1715c0.41623,0.25724 0.16649,0.68599 0.16649,0.68599c-1.11013,1.81049 -3.85565,2.51548 -5.79977,2.51548h-0.17651c0,0 -0.4854,0 -0.4854,-0.5z" data-paper-data="{&quot;index&quot;:null}" fill="#3a2f41" stroke="none" stroke-width="0.5" stroke-linecap="butt"/><path d="M224.17895,151.40171c-0.1535,0.47434 -0.61399,0.31623 -0.61399,0.31623l-0.36101,-0.1365c-0.97339,-0.63328 -1.61357,-1.97696 -1.97585,-3.08881c0,0 -0.15349,-0.47435 0.307,-0.63246c0.4605,-0.15811 0.61399,0.31623 0.61399,0.31623c0.26816,0.83517 0.79073,2.11383 1.55434,2.54755l0.16852,0.04531c0,0 0.46049,0.15812 0.307,0.63246z" data-paper-data="{&quot;index&quot;:null}" fill="#3a2f41" stroke="none" stroke-width="0.5" stroke-linecap="butt"/><path d="M205.51073,157.45514c0,0 -0.02658,-1.98564 0.19378,-2.47158c0.11676,-0.25746 0.24462,-0.48365 0.3624,-0.57296c0.36022,-0.27319 0.81129,-0.57864 1.14169,-0.67785c0.49646,-0.14912 1.03553,-0.29046 1.38623,-0.32274c0.88181,-0.08121 1.87014,-0.11844 2.29201,-0.05883c1.09331,0.15453 2.46825,0.39404 2.88905,0.49168c0.94403,0.21902 2.10136,0.49074 2.44967,0.58637c0.75053,0.20599 2.16231,1.111 2.40217,1.0562c0.37046,-0.08457 1.44869,-0.74725 1.75138,-0.82207c1.08545,-0.26832 2.46435,-0.60601 2.89302,-0.69697c0.77465,-0.16437 1.70333,-0.42689 2.21222,-0.37703c0.99909,0.09788 2.4457,0.23472 3.56362,0.42087c0.81618,0.13587 1.46347,0.42515 1.55526,0.53648c0.15754,0.1912 0.75329,0.65242 0.92213,1.12446c0.27228,0.76114 -0.00922,2.71 -0.00922,2.71" data-paper-data="{&quot;index&quot;:null}" fill="none" stroke="#3b3045" stroke-width="1" stroke-linecap="round"/><path d="M240.96635,199.71997c-1.07949,7.18501 -7.10309,18.71999 -7.10309,18.71999l-32.33495,-0.5156c0,0 -10.4494,-17.0364 -7.86136,-29.77441c1.01597,-5.00047 13.19048,-11.78245 19.30054,-11.75359c3.79378,0.01791 10.53704,-0.88685 16.30149,1.06924c0,0 8.50861,3.28168 10.62533,7.2399c3.30521,6.18067 1.07203,15.01447 1.07203,15.01447z" fill="#3a2f41" stroke="#8c9ca0" stroke-width="2" stroke-linecap="round"/><g><g stroke-linecap="butt"><path d="M163.34724,258.93638l15.75786,-46.29237l13.50802,6.13387l-13.75288,41.34527c0,0 -6.07776,4.77349 -7.79588,4.03603z" data-paper-data="{&quot;index&quot;:null}" fill="#e1e2db" stroke="none" stroke-width="0"/><path d="M181.82215,227.82724c-3.17218,-1.18256 -5.95152,-6.42395 -5.95152,-6.42395l2.97612,-8.64735l14.15537,6.15313c0,0 -1.78212,5.10615 -2.82214,7.82864c0,0 -5.18565,2.2721 -8.35783,1.08953z" data-paper-data="{&quot;index&quot;:null}" fill="#8c9ca0" stroke="none" stroke-width="0"/><path d="M179.11965,212.97209l13.50803,6.13387l-14.4947,43.9162c0,0 -4.77775,1.60379 -6.9385,0.67634c-1.92917,-0.82806 -7.6168,-5.29755 -7.6168,-5.29755z" data-paper-data="{&quot;index&quot;:null}" fill="none" stroke="#3a2f41" stroke-width="2.5"/></g><g stroke="#8c9ca0" stroke-width="2" stroke-linecap="round"><path d="M205.26683,199.19158l-5.79291,21.02716c0,0 -6.58469,3.87063 -13.99665,1.56717c-7.41196,-2.30346 -9.48395,-8.92257 -9.48395,-8.92257c0,0 5.26264,-14.92531 10.77313,-24.4239c4.57229,-7.88137 14.54241,-7.95532 14.54241,-7.95532" fill="#3a2f41"/><path d="M200.52183,214.48564c0,0 -6.1378,3.73248 -12.8322,1.67131c-6.9509,-2.14014 -9.29881,-7.99422 -9.29881,-7.99422" fill="none"/></g></g><g data-paper-data="{&quot;index&quot;:null}"><g stroke-linecap="butt"><path d="M264.25516,263.51153c-1.71812,0.73746 -7.79588,-4.03603 -7.79588,-4.03603l-13.75288,-41.34527l13.50802,-6.13386l15.75786,46.29236z" data-paper-data="{&quot;index&quot;:null}" fill="#e1e2db" stroke="none" stroke-width="0"/><path d="M253.4974,227.17961c-3.17217,1.18257 -8.35783,-1.08952 -8.35783,-1.08952c-1.04001,-2.72249 -2.82214,-7.82864 -2.82214,-7.82864l14.15537,-6.15313l2.97612,8.64735c0,0 -2.77935,5.24139 -5.95152,6.42395z" data-paper-data="{&quot;index&quot;:null}" fill="#8c9ca0" stroke="none" stroke-width="0"/><path d="M271.74181,257.75332c0,0 -5.68762,4.4695 -7.6168,5.29755c-2.16075,0.92745 -6.9385,-0.67634 -6.9385,-0.67634l-14.4947,-43.9162l13.50803,-6.13387z" data-paper-data="{&quot;index&quot;:null}" fill="none" stroke="#3a2f41" stroke-width="2.5"/></g><g stroke="#8c9ca0" stroke-width="2" stroke-linecap="round"><path d="M234.01071,179.83648c0,0 9.97012,0.07395 14.54241,7.95532c5.51049,9.49859 10.77313,24.42391 10.77313,24.42391c0,0 -2.07199,6.6191 -9.48395,8.92257c-7.41196,2.30346 -13.99665,-1.56717 -13.99665,-1.56717l-5.79291,-21.02716" fill="#3a2f41"/><path d="M256.92868,207.51509c0,0 -2.34791,5.85408 -9.29881,7.99422c-6.6944,2.06117 -12.8322,-1.67131 -12.8322,-1.67131" fill="none"/></g></g><g><path d="M224.74114,173.88911c0,1.80463 -4.66942,5.15157 -6.65288,5.15157c-1.98346,0 -6.53514,-2.99369 -6.53514,-4.79832c0,-1.80463 4.7283,-2.79657 6.71176,-2.79657c1.98346,0 6.47626,0.63869 6.47626,2.44332z" fill="#3a2f41" stroke="none" stroke-width="0" stroke-linecap="butt"/><g fill="#8c9ca0" stroke="#8c9ca0" stroke-width="1.5" stroke-linecap="butt"><path d="M202.59117,186.38968c-0.68147,-0.66711 8.42891,-12.94195 8.42891,-12.94195l6.8036,5.14301l7.20499,-5.73784c0,0 9.19766,12.33612 8.66343,13.01277c-0.29539,0.37414 -3.52864,-1.3346 -7.55214,-2.56146c-3.70122,-1.12859 -8.23054,-1.76973 -8.23054,-1.76973c0,0 -4.7947,1.22469 -8.71731,2.55905c-3.58667,1.22008 -6.31681,2.57431 -6.60095,2.29615z"/></g><path d="M211.02324,174.91942l0.44745,-1.6956l6.45271,-1.95465l6.69998,1.44832l0.7065,1.73093" fill="none" stroke="#8c9ca0" stroke-width="1.5" stroke-linecap="round"/></g><g fill="#3a2f41"><path d="M231.43874,218.17987l-0.41524,8.07273c0,0 1.4509,3.27779 2.90452,8.01485c1.42964,4.65891 1.81387,8.19332 1.81387,8.19332c0,0 -2.97914,2.22717 -6.6491,4.14565c-3.77145,1.97153 -8.27246,3.6352 -11.01958,3.58936c-2.35891,-0.03937 -6.51268,-1.50585 -9.99415,-3.09687c-4.19486,-1.91705 -7.55996,-4.01489 -7.55996,-4.01489c0,0 0.17696,-3.9586 1.65863,-9.39837c1.17758,-4.32333 2.08503,-7.20846 2.08503,-7.20846c0,0 0.06421,-8.90298 0.05192,-8.90944" stroke="#8c9ca0" stroke-width="1.5" stroke-linecap="round"/><path d="M237.07445,188.51454c7.58612,8.99599 10.09853,19.79766 10.09853,19.79766c0,0 -6.81333,9.3107 -16.25202,15.15024l-26.31369,-0.12982c-13.62973,-7.22603 -16.18425,-14.65137 -16.18425,-14.65137c0,0 2.54784,-9.91585 9.80468,-19.13437" stroke="#8c9ca0" stroke-width="1.5" stroke-linecap="round"/><path d="M204.73538,227.58026v-9.58487h25.90505v9.58487z" stroke="none" stroke-width="0" stroke-linecap="butt"/></g><path d="M222.14181,195.17139c0,2.14604 -1.77596,3.88575 -3.96671,3.88575c-2.19075,0 -3.96671,-1.73971 -3.96671,-3.88575c0,-2.14604 1.77596,-3.88576 3.96671,-3.88576c2.19075,0 3.96671,1.73971 3.96671,3.88576z" fill="#8c9ca0" stroke="#3a2f41" stroke-width="1" stroke-linecap="butt"/><path d="M222.30371,205.69531c0,2.14604 -1.77596,3.88575 -3.96671,3.88575c-2.19075,0 -3.96671,-1.73971 -3.96671,-3.88575c0,-2.14604 1.77596,-3.88576 3.96671,-3.88576c2.19075,0 3.96671,1.73972 3.96671,3.88576z" fill="#8c9ca0" stroke="#3a2f41" stroke-width="1" stroke-linecap="butt"/></g></g></svg>