<svg version="1.1" xmlns="http://www.w3.org/2000/svg" xmlns:xlink="http://www.w3.org/1999/xlink" width="567.35527" height="549.63386" viewBox="0,0,567.35527,549.63386"><g transform="translate(22.88551,94.17974)"><g data-paper-data="{&quot;isPaintingLayer&quot;:true}" fill-rule="nonzero" stroke-linejoin="miter" stroke-miterlimit="10" stroke-dasharray="" stroke-dashoffset="0" style="mix-blend-mode: normal"><g data-paper-data="{&quot;index&quot;:null}" fill="#1a1a1a" stroke="none" stroke-width="0" stroke-linecap="butt"><path d="M243.45402,133.18696c150.96163,117.09679 245.94305,-33.21594 245.94305,-33.21594c0,0 -74.545,212.92305 -245.10625,81.1499c0,0 -5.30208,-51.39756 -0.83679,-47.93396z"/><path d="M259.01151,148.65533c0,0 -24.23727,-45.63306 -18.79738,-44.10242c183.91103,51.7475 215.40974,-123.24741 215.40974,-123.24741c0,0 10.97821,225.32789 -196.61236,167.34982z"/><path d="M254.48287,152.92694c75.83837,175.35568 231.50381,89.42745 231.50381,89.42745c0,0 -167.93383,150.63669 -253.87219,-47.02438c0,0 20.12517,-47.5899 22.36838,-42.40307z"/></g><g fill="#1a1a1a" stroke="none" stroke-width="0" stroke-linecap="butt"><path d="M222.22074,189.12093c-170.56125,131.77314 -245.10625,-81.14991 -245.10625,-81.14991c0,0 94.98142,150.31274 245.94305,33.21595c4.46528,-3.46359 -0.83679,47.93396 -0.83679,47.93396z"/><path d="M207.50005,156.65531c-207.59056,57.97807 -196.61236,-167.34982 -196.61236,-167.34982c0,0 31.49871,174.99491 215.40974,123.24742c5.43989,-1.53064 -18.79738,44.10242 -18.79738,44.10242z"/><path d="M234.39707,203.33001c-85.93836,197.66107 -253.87219,47.02438 -253.87219,47.02438c0,0 155.66544,85.92823 231.50381,-89.42745c2.24322,-5.18683 22.36838,42.40307 22.36838,42.40307z"/></g><g data-paper-data="{&quot;index&quot;:null}"><g stroke-opacity="0.14063" stroke="#ffffff" stroke-width="0.5"><path d="M319.64457,351.69498l-40.43706,24.0766l36.19344,-50.02325z" fill="#000000" stroke-linecap="round"/><path d="M326.07698,359.93507l-41.70405,27.63105l30.74533,-51.52967z" fill="#000000" stroke-linecap="round"/><path d="M258.61839,106.16455l9.52169,-5.90286l17.76765,12.86824l27.70939,81.54476l19.36595,87.49311l5.35072,58.02582l-9.85638,18.25182c-0.01869,-2.59751 -3.94418,-40.64176 -2.24242,-24.4452c1.70176,16.19654 2.65371,28.3596 2.65371,28.3596l-33.55746,34.59715l11.41129,-41.02872l-12.98111,-40.64654l-16.05492,2.60622l-17.27025,26.09879l5.37295,-47.20279l24.08572,-12.69108l-4.29509,-79.75642l-26.85851,-86.10795z" fill="#1a1a1a" stroke-linecap="butt"/></g><g stroke="none" stroke-width="0" stroke-linecap="butt"><path d="M286.50453,283.29794l-0.08193,-17.68913l49.13291,0.30751l0.08194,17.68913z" fill="#a55900"/><path d="M286.50453,283.29792l-0.08191,-17.68912l23.31367,0.14591c-5.58485,5.8297 -11.30831,11.55579 -16.61942,17.58459z" fill="#723d00"/><path d="M335.63747,283.60542l-14.42142,-0.09026c4.80496,-5.32445 9.58736,-10.65882 14.34685,-16.00909z" fill="#d69d00"/></g><g fill="none" stroke-width="6"><g data-paper-data="{&quot;index&quot;:null}" stroke-linecap="butt"><path d="M333.90603,414.0573c4.42318,0.25196 4.82764,5.53053 4.45953,11.99256c-0.36812,6.46204 -0.92875,11.93603 -5.80681,11.65814c-4.42318,-0.25196 -4.81343,-5.78012 -4.44531,-12.24215c0.36811,-6.46202 1.82432,-11.63461 5.79259,-11.40855z" stroke="#37354d"/><path d="M329.68487,417.19631c0.90598,-2.03815 2.25532,-3.25097 4.22114,-3.13899c2.19116,0.12482 3.39611,1.48318 4.00949,3.60786" stroke="#565378"/><path d="M337.949,430.93856c-0.56171,4.09325 -1.81889,6.97287 -5.39028,6.76943c-3.23835,-0.18448 -4.31498,-3.19706 -4.51496,-7.3337" stroke="#1a1830"/></g><g data-paper-data="{&quot;index&quot;:null}" stroke-linecap="butt"><path d="M339.79464,396.96216c-0.26372,6.46714 -0.7359,11.94947 -5.61781,11.75039c-4.42667,-0.18051 -4.90614,-5.70165 -4.64243,-12.16878c0.26371,-6.46714 1.6362,-11.66255 5.60762,-11.5006c4.42667,0.18052 4.91632,5.45186 4.65262,11.91899z" stroke="#37354d"/><path d="M330.97211,388.24992c0.87294,-2.0525 2.20253,-3.28697 4.16989,-3.20675c2.1929,0.08943 3.41963,1.42814 4.06725,3.54264" stroke="#565378"/><path d="M339.45708,401.85696c-0.49554,4.10177 -1.70606,7.00134 -5.28026,6.85558c-3.2409,-0.13216 -4.36604,-3.12696 -4.63279,-7.25983" stroke="#1a1830"/></g><g data-paper-data="{&quot;index&quot;:null}" stroke-linecap="round"><path d="M334.64349,404.16273l-0.6519,15.98671" stroke="#565378"/><path d="M334.18513,415.4034l-0.19354,4.74604" stroke="#1a1830"/><path d="M334.2055,414.90379l0.27503,-6.74439" stroke="#37354d"/></g><g data-paper-data="{&quot;index&quot;:null}" stroke-linecap="butt"><path d="M341.08739,367.90464c-0.33307,6.46393 -0.86402,11.94088 -5.74351,11.68946c-4.42447,-0.22798 -4.84471,-5.75392 -4.51164,-12.21785c0.33308,-6.46394 1.76121,-11.64433 5.73066,-11.4398c4.42447,0.22798 4.85757,5.50428 4.5245,11.96821z" stroke="#37354d"/><path d="M332.3588,359.0983c0.89491,-2.04302 2.23766,-3.26318 4.20405,-3.16186c2.1918,0.11293 3.40411,1.46474 4.02899,3.58607" stroke="#565378"/><path d="M340.69735,372.79555c-0.53951,4.09623 -1.78107,6.98264 -5.35349,6.79856c-3.23928,-0.16692 -4.33224,-3.17361 -4.55466,-7.3091" stroke="#1a1830"/></g><g data-paper-data="{&quot;index&quot;:null}" stroke-linecap="round"><path d="M335.85932,375.04956l-0.82333,15.9788" stroke="#565378"/><path d="M335.2804,386.28469l-0.24442,4.7437" stroke="#1a1830"/><path d="M335.65349,379.04424l-0.34735,6.74106" stroke="#37354d"/></g><g data-paper-data="{&quot;index&quot;:null}" stroke-linecap="butt"><path d="M343.2978,337.36493c-0.38201,6.46123 -0.95443,11.93399 -5.83188,11.64561c-4.42261,-0.26148 -4.80099,-5.79044 -4.41897,-12.25167c0.38201,-6.46123 1.84935,-11.63067 5.81713,-11.39607c4.42262,0.26148 4.81574,5.54091 4.43372,12.00214z" stroke="#37354d"/><path d="M334.63617,328.49269c0.91036,-2.0362 2.26231,-3.24613 4.22788,-3.12991c2.19088,0.12955 3.39291,1.49048 4.00172,3.61649" stroke="#565378"/><path d="M342.87073,342.25273c-0.57053,4.09203 -1.83389,6.96895 -5.40483,6.75783c-3.23795,-0.19144 -4.30809,-3.20633 -4.49917,-7.34339" stroke="#1a1830"/></g><g data-paper-data="{&quot;index&quot;:null}" stroke-linecap="round"><path d="M337.54036,344.19135l-0.94434,15.97211" stroke="#565378"/><path d="M336.87636,355.42174l-0.28034,4.74172" stroke="#1a1830"/><path d="M337.30425,348.18439l-0.39839,6.73823" stroke="#37354d"/></g><g data-paper-data="{&quot;index&quot;:null}" stroke-linecap="butt"><path d="M338.27664,291.93382c4.42386,-0.23953 5.41055,4.96175 5.76049,11.42479c0.34993,6.46305 0.39909,11.96545 -4.47974,12.2296c-4.42388,0.23953 -5.42406,-5.21137 -5.774,-11.67441c-0.34992,-6.46303 0.52436,-11.76508 4.49325,-11.97998z" stroke="#37354d"/><path d="M334.42915,295.52108c0.67465,-2.12596 1.88134,-3.4808 3.84747,-3.58724c2.1915,-0.11865 3.5395,1.09787 4.38446,3.14153" stroke="#565378"/><path d="M344.16464,308.26336c-0.10486,4.13029 -1.03533,7.13145 -4.60727,7.32484c-3.23886,0.17537 -4.64255,-2.69941 -5.29951,-6.78845" stroke="#1a1830"/></g><g data-paper-data="{&quot;index&quot;:null}" stroke-linecap="round"><path d="M339.10132,328.61276l-0.73344,-15.98318" stroke="#565378"/><path d="M338.88358,323.86773l0.21774,4.74501" stroke="#1a1830"/><path d="M338.55123,316.62537l0.30943,6.7429" stroke="#37354d"/></g><g data-paper-data="{&quot;index&quot;:null}" stroke-linecap="round"><path d="M335.32352,281.45847l3.02625,15.7112" stroke="#565378"/><path d="M338.34978,297.16968l-0.89841,-4.66426" stroke="#1a1830"/><path d="M336.08009,285.38626l1.2767,6.62816" stroke="#37354d"/></g></g></g><path d="M189.44507,46.69394c4.51233,-9.27273 16.68014,-23.35437 22.04171,-27.5273c5.28111,-4.11028 2.33952,-2.98919 14.7067,-1.06693c24.92282,3.87379 61.20838,13.92299 53.58517,32.88357c-19.8193,49.295 -63.80172,59.27883 -99.39657,55.57356c-33.7881,-3.51719 -69.09976,-26.75844 -69.09976,-26.75844c0,0 58.94957,-4.54827 78.16278,-33.10447z" data-paper-data="{&quot;index&quot;:null}" fill="#7e6c69" stroke="#7e6c69" stroke-width="2.5" stroke-linecap="butt"/><path d="M168.39251,65.67498c16.87181,-4.23802 15.83293,19.8684 -1.11622,15.95116c-19.00781,-4.39304 -30.95061,-19.56538 -30.95061,-19.56538c0,0 22.36812,6.05041 32.06684,3.6142z" data-paper-data="{&quot;index&quot;:null}" fill="#7e6c69" stroke="#7e6c69" stroke-width="2.5" stroke-linecap="butt"/><path d="M188.68698,454.17981l-60.23031,-3.10948l-1.1541,-21.58659l22.48558,-13.24915l8.71782,-33.64445l54.48748,22.07294l-5.38292,33.10026z" data-paper-data="{&quot;index&quot;:null}" fill="#1a1a1a" stroke="#1a1a1a" stroke-width="2.5" stroke-linecap="butt"/><g data-paper-data="{&quot;index&quot;:null}" stroke-width="2" stroke-linecap="butt"><path d="M171.23695,357.70047l25.47569,-162.93976c0,0 11.79159,-12.20081 17.64398,-11.51092c6.85785,0.80842 23.28496,11.6827 23.28496,11.6827l-22.23334,166.20405c0,0 -0.05199,3.67674 -2.8793,3.96009c-7.64069,0.76574 -41.29199,-7.39615 -41.29199,-7.39615z" data-paper-data="{&quot;index&quot;:null}" fill="#8c6661" stroke="#905e57"/><path d="M155.11618,370.57373c0.11327,-1.19609 -2.09636,-13.51235 -2.06886,-13.93991c0.27873,-4.3331 18.9264,-16.50445 18.9264,-16.50445l-1.4933,8.42798l20.74725,12.17399l25.34803,-1.9016l2.00228,-6.78472l11.82347,23.96827l-8.3205,8.27379l2.3885,12.87854l-10.75159,12.12708c0,0 -4.35728,1.03933 -9.38008,0.43996c-16.66224,-1.98827 -49.55608,-12.56048 -49.55608,-12.56048l-7.05178,-13.84361z" fill="#1a1a1a" stroke="#1a1a1a"/></g><g stroke-linecap="butt"><path d="M193.7998,205.36233c0,0 14.44501,-13.94321 21.33721,-12.88695c8.0763,1.23772 27.05488,14.77163 27.05488,14.77163l-15.52965,91.72794c-1.65559,-1.25041 -3.42946,-2.39103 -5.2859,-3.23206c-0.51219,-0.23204 -2.16288,-1.3465 -2.58544,-0.39636c-0.10246,0.23039 0.65976,1.1616 0.57832,1.61914c-0.42239,3.37444 1.97395,8.77963 2.76826,12.17345c0.45893,1.96088 1.40689,4.27357 1.47542,6.27922c0.02639,0.77226 -0.4048,1.91437 -0.63209,2.96272c-1.00477,-2.54528 -3.69011,-5.89878 -4.76157,-7.69662c-2.1243,-3.56428 -4.24218,-7.11794 -6.50774,-10.59445c-2.10747,-3.23392 -4.10938,-7.76596 -6.94631,-10.36862c-0.80637,-0.73415 -2.94085,-3.46046 -4.2043,-2.26633c-1.09284,1.03288 -1.05247,6.23055 -1.29689,7.76396c-0.3959,2.48378 -1.98687,7.0242 -1.90685,10.01842c-0.76834,-2.70842 -1.25719,-5.38507 -2.32628,-8.04684c-1.3535,-3.36988 -2.65689,-7.0253 -3.38491,-10.62157l0.0732,-0.50963c0.02331,-0.1599 -0.08622,-0.3093 -0.24628,-0.33474c-0.1521,-0.02418 -0.29553,0.07219 -0.33295,0.21848l-0.15304,0.56793c-0.2401,1.03053 -2.05922,1.87294 -2.91488,2.49426c-1.37932,1.00439 -1.76627,1.86748 -2.65635,2.96311c-0.47639,0.5864 -2.06128,0.58153 -2.69067,1.07094c-1.34483,1.04573 -2.32176,2.59347 -3.76457,3.682c-1.10467,0.83673 -2.20065,1.83974 -3.27376,2.91306z" data-paper-data="{&quot;index&quot;:null}" fill="#1a1925" stroke="#1a1925" stroke-width="2"/><path d="M222.71352,309.00431c-0.67353,-2.87777 -1.22469,-5.80281 -1.98297,-8.65879c-0.27884,-1.05024 -0.93654,-2.21652 -0.7751,-3.30025c0.09802,-0.91805 -0.50338,-0.89734 -0.60708,-1.50068c-0.0085,-0.04944 1.22851,0.48562 1.24493,0.49306c0.53889,0.24414 1.07752,0.48885 1.61667,0.73242c1.48695,0.67176 2.98082,1.75266 4.34465,2.84051l-2.60827,15.40609c-0.20414,-2.01147 -0.76926,-4.03165 -1.23283,-6.01236z" data-paper-data="{&quot;index&quot;:null}" fill="#1a1925" stroke="#1a1925" stroke-width="2"/><path d="M187.4525,230.78515l0.31161,-1.63813l9.65006,1.34037l9.92979,-29.7268l2.1227,-0.38326l-10.70306,31.89482z" fill="#07070e" stroke="none" stroke-width="0"/><path d="M188.12563,226.63854l0.28624,-1.59688l6.08437,0.8451l9.37051,-28.97615l2.0741,-0.37194l-9.86674,31.12205z" fill="#07070e" stroke="none" stroke-width="0"/><path d="M184.68616,246.00991l2.25459,-11.21348c0,0 9.09518,18.18782 22.61025,20.67991c0.89668,0.16535 -5.29588,0.98967 -15.23611,-2.57221c-4.52808,-1.62255 -9.62874,-6.8942 -9.62874,-6.8942z" fill="#8c6661" stroke="none" stroke-width="0"/><path d="M220.27797,276.24598c-10.54946,-0.45151 -15.97341,-3.55121 -15.08061,-3.36604c13.45653,2.79095 28.74136,-10.62149 28.74136,-10.62149l-2.14255,11.23542c0,0 -6.71259,2.95777 -11.51819,2.7521z" data-paper-data="{&quot;index&quot;:null}" fill="#8c6661" stroke="none" stroke-width="0"/></g><path d="M292.06712,437.74503l-8.8843,-36.78299l44.46613,-32.4634l16.08816,32.43684l36.28805,19.91817l-2.67814,17.91913z" data-paper-data="{&quot;index&quot;:null}" fill="#1a1a1a" stroke="#1a1a1a" stroke-width="2.5" stroke-linecap="butt"/><g data-paper-data="{&quot;index&quot;:null}" stroke-width="2" stroke-linecap="butt"><path d="M316.14618,351.20664c0,0 -32.7729,11.1787 -40.45155,11.10872c-2.84136,-0.02589 -3.22642,-3.68278 -3.22642,-3.68278l-37.20782,-163.50439c0,0 15.37376,-12.31859 22.13009,-13.74533c5.76576,-1.21756 18.61478,9.86414 18.61478,9.86414l40.14092,159.95963z" data-paper-data="{&quot;index&quot;:null}" fill="#8c6661" stroke="#905e57"/><path d="M336.80947,374.05572l-7.03568,11.52884c0,0 -25.46218,16.95008 -41.87559,20.44056c-4.94779,1.0522 -9.38134,0.41213 -9.38134,0.41213l-11.80662,-11.10255l1.21126,-13.04203l-9.03624,-7.48549l9.60213,-24.94136l2.60906,6.57529l25.41605,-0.40397l19.55829,-14.00456l-2.25113,-8.25792c0,0 15.69067,10.79347 16.36104,15.08346c0.06615,0.42331 0.15923,14.79028 0.38046,15.97118z" fill="#1a1a1a" stroke="#1a1a1a"/></g><g data-paper-data="{&quot;index&quot;:null}" stroke-linecap="butt"><path d="M303.99679,295.19701c-1.13282,-1.02724 -2.2859,-1.98326 -3.44091,-2.77279c-1.50837,-1.02688 -2.5633,-2.53218 -3.97054,-3.52041c-0.6586,-0.4625 -2.26574,-0.39095 -2.77318,-0.9568c-0.94812,-1.05723 -1.37632,-1.90329 -2.81682,-2.84877c-0.89353,-0.58478 -2.77335,-1.34992 -3.05957,-2.36945l-0.17875,-0.561c-0.04402,-0.14459 -0.19348,-0.23485 -0.34673,-0.20429c-0.16128,0.03216 -0.26616,0.18603 -0.23589,0.34482l0.09537,0.50611c-0.58923,3.62382 -1.75954,7.33094 -2.99249,10.75488c-0.97387,2.70447 -1.35868,5.39939 -2.02562,8.13782c-0.04299,-2.99501 -1.84472,-7.46458 -2.34921,-9.92957c-0.31146,-1.52181 -0.486,-6.71671 -1.63714,-7.70271c-1.33086,-1.13994 -3.38254,1.67386 -4.16989,2.44131c-2.76921,2.7198 -4.61158,7.3322 -6.61483,10.65202c-2.15353,3.56887 -4.15406,7.20859 -6.16069,10.85921c-1.01209,1.84138 -3.59643,5.30501 -4.50991,7.89038c-0.27398,-1.03789 -0.75862,-2.16087 -0.76387,-2.93358c-0.01365,-2.00681 0.85185,-4.3574 1.23599,-6.33591c0.66485,-3.42433 2.87105,-8.92571 2.30277,-12.27948c-0.10156,-0.45372 0.63285,-1.41621 0.51938,-1.64208c-0.46794,-0.93154 -2.0958,0.25143 -2.60563,0.50482c-1.84786,0.91843 -3.59957,2.13272 -5.22677,3.45172l-19.55253,-90.99555c0,0 18.68628,-14.32093 26.82566,-15.89745c6.94603,-1.34539 22.17371,11.97796 22.17371,11.97796z" data-paper-data="{&quot;index&quot;:null}" fill="#1a1925" stroke="#1a1925" stroke-width="2"/><path d="M255.69126,312.59691l-3.28393,-15.28308c1.33805,-1.14431 2.80826,-2.28715 4.28842,-3.0209c0.53669,-0.26605 1.07281,-0.53322 1.60921,-0.79982c0.01634,-0.00812 1.24869,-0.59477 1.24212,-0.54502c-0.08015,0.60718 -0.69092,0.6118 -0.55346,1.52494c0.20866,1.076 -0.41,2.26895 -0.64925,3.33003c-0.65061,2.88543 -1.08832,5.83115 -1.65207,8.73479c-0.38802,1.99852 -0.87739,4.04074 -1.00103,6.05907z" data-paper-data="{&quot;index&quot;:null}" fill="#1a1925" stroke="#1a1925" stroke-width="2"/><path d="M277.80019,228.86382l-12.17697,-31.41699l2.16865,0.29361l11.30287,29.28338l9.73118,-1.74531l0.38393,1.62361z" fill="#07070e" stroke="none" stroke-width="0"/><path d="M280.33663,224.14315l-11.29677,-30.68008l2.1189,0.28434l10.70454,28.55691l6.13551,-1.10042l0.35649,1.58346z" fill="#07070e" stroke="none" stroke-width="0"/><path d="M292.6466,241.99737c0,0 -4.95434,5.48177 -9.47929,7.29347c-9.93334,3.97713 -16.24779,3.41411 -15.34526,3.21117c13.60318,-3.05868 22.07313,-21.61361 22.07313,-21.61361l2.75142,11.10896z" fill="#8c6661" stroke="none" stroke-width="0"/><path d="M257.80421,273.70516c-4.86514,0.40773 -11.79543,-2.26502 -11.79543,-2.26502l-2.63871,-11.13559c0,0 16.05738,12.75769 29.58879,9.40286c0.89776,-0.22258 -4.4745,3.1027 -15.15466,3.99777z" data-paper-data="{&quot;index&quot;:null}" fill="#8c6661" stroke="none" stroke-width="0"/></g><g><g data-paper-data="{&quot;index&quot;:null}" stroke-linecap="butt"><path d="M227.25762,245.47427l0.81575,-47.26802l22.79371,2.26746l1.7249,40.3737z" fill="#8c9ca0" stroke="#07070e" stroke-width="2"/><path d="M227.22715,242.93006l0.81575,-47.26803l22.79371,2.26746l1.7249,40.37369z" fill="#1a1925" stroke="#1a1925" stroke-width="3.5"/></g><path d="M237.474,243.58969l2.84795,-39.56578" data-paper-data="{&quot;index&quot;:null}" fill="none" stroke="#07070e" stroke-width="2" stroke-linecap="round"/><path d="M243.55341,242.60049l2.01084,-41.24302" data-paper-data="{&quot;index&quot;:null}" fill="none" stroke="#07070e" stroke-width="2" stroke-linecap="round"/></g><path d="" fill="#e1e2db" stroke="#3a2f41" stroke-width="2" stroke-linecap="butt"/><path d="" fill="#e1e2db" stroke="#3a2f41" stroke-width="2" stroke-linecap="butt"/><path d="" fill="#3d4d50" stroke="none" stroke-width="0" stroke-linecap="butt"/><g><g fill="#7e6c69" stroke="#7e6c69" stroke-width="2.5" stroke-linecap="butt"><path d="M221.94909,147.8313c0,0 -16.7133,-2.55238 -17.88299,-3.48982c-14.43517,-11.56883 -75.05292,7.74564 -75.05292,7.74564c0,0 22.23827,-39.50406 65.85427,-54.43941c20.98811,-11.79263 48.87748,-15.53198 63.7151,9.33234c9.12459,10.6515 -12.70853,30.68976 -27.26579,38.44336c-7.22358,3.84748 -5.13941,3.95266 -9.36764,2.40788z" data-paper-data="{&quot;index&quot;:null}"/><path d="M224.33964,154.93809c0,0 -11.7011,-1.21307 -12.53623,-1.52588c-10.30639,-3.86046 -53.45945,0.42813 -53.45945,0.42813c0,0 31.42413,-17.32518 46.78254,-20.51106c14.37324,-2.98152 32.99625,2.45219 43.86738,10.31692c6.58615,3.44307 -8.19964,8.87876 -18.17795,10.81884c-4.95144,0.96272 -3.49685,1.04997 -6.47629,0.47303z" data-paper-data="{&quot;index&quot;:null}"/></g><g stroke="none" stroke-width="0" stroke-linecap="butt"><path d="M191.41504,206.90986l7.6843,-46.03582l-6.13262,-58.35219c0,0 26.52358,-12.43661 39.84859,-12.50442c12.67548,-0.0645 37.09962,11.73441 37.09962,11.73441l-1.10836,58.66847l12.43276,35.51139l1.83083,8.14639z" fill="#433c57"/><path d="M192.96672,102.52181c0,0 26.52358,-12.43661 39.8486,-12.50442c12.67548,-0.0645 37.09962,11.7344 37.09962,11.7344l-0.7946,40.73025c-29.38788,-9.71845 -74.84712,-26.94223 -74.84712,-26.94223z" fill="#262036"/></g><g stroke="none" stroke-width="0" stroke-linecap="butt"><path d="M224.56693,110.77233l-9.63824,-16.72948l1.96454,-5.60795c0,0 13.48636,-6.1964 15.41114,-6.33981c1.96748,-0.14659 16.39138,6.60687 16.39138,6.60687l2.87973,5.34198l-6.97986,16.97075l-9.818,-7.43921z" fill="#7e6c69"/><path d="M234.30954,100.38668l-14.46108,-10.40265l12.48311,-6.70283l13.87056,6.46631z" fill="#1a1a1a"/></g><path d="M197.77793,148.63965l-1.5,-13.25l73.25,-23l-0.25,16.75z" fill="#a28b87" stroke="#a28b87" stroke-width="0" stroke-linecap="butt"/><path d="M199.02793,161.63965l-1.5,-14.25l71.5,0.25l-0.5,12.5z" fill="#a28b87" stroke="none" stroke-width="0" stroke-linecap="butt"/><path d="M196.77793,174.88966l2.25,-13.25l68.5,-8.25l2.75,11.25z" data-paper-data="{&quot;index&quot;:null}" fill="#a28b87" stroke="#a28b87" stroke-width="0" stroke-linecap="butt"/><path d="M223.81085,126.7445l45.71708,-14.35485l-0.25,16.75l-21.36539,5.82692z" fill="#7e6c69" stroke="#a28b87" stroke-width="0" stroke-linecap="butt"/><g data-paper-data="{&quot;index&quot;:null}"><path d="M219.21918,197.45973l-0.60175,-21.72195l42.56627,-1.18994l0.17846,21.8285z" fill="#66423d" stroke="none" stroke-width="0" stroke-linecap="butt"/><path d="M226.26208,188.19368l12.9654,-10.76848l15.39699,8.42208l-12.68602,9.14974z" fill="none" stroke="#000000" stroke-width="1.5" stroke-linecap="round"/><path d="M238.99232,178.57975l2.94939,15.49293" fill="none" stroke="#000000" stroke-width="1.5" stroke-linecap="round"/></g></g><g><path d="M251.32909,161.8258c0.82167,4.21623 -0.48974,8.01955 -2.92913,8.49495c-2.43939,0.4754 -5.08302,-2.55715 -5.90469,-6.77337c-0.82167,-4.21623 0.48974,-8.01954 2.92913,-8.49494c2.43939,-0.4754 5.08301,2.55714 5.90469,6.77336z" fill="none" stroke="#1a1a1a" stroke-width="2" stroke-linecap="butt"/><g data-paper-data="{&quot;index&quot;:null}"><path d="M244.18229,131.54903c-4.95384,0.66447 -16.7301,-2.36035 -23.69476,-11.09909c-20.56505,-25.80353 7.60677,-39.37346 7.60677,-39.37346" fill="none" stroke="#1a1a1a" stroke-width="2" stroke-linecap="round"/><g stroke="none" stroke-width="0" stroke-linecap="butt"><path d="M234.80331,143.48241c-1.82443,-12.57577 -0.08874,-23.9502 7.72112,-24.75753c7.54026,-0.77947 12.77724,8.6132 14.60168,21.18898c1.82443,12.57577 0.00757,24.09695 -7.44744,25.16315c-7.71228,1.103 -13.05092,-9.01881 -14.87535,-21.59458zM250.9815,142.06448c-1.26308,-10.04555 -4.65305,-17.29404 -7.46895,-17.232c-2.95802,0.06516 -2.95016,11.05802 -2.07037,18.53645c0.84602,7.19115 4.26822,16.19177 7.01258,15.90718c2.6697,-0.27685 3.77821,-7.25827 2.52672,-17.21162z" fill="#a55900"/><path d="M234.8033,143.48241c-0.20894,-1.44023 -0.3712,-2.86471 -0.48297,-4.25936c1.63884,4.97579 4.02693,9.55343 7.48147,13.82974c1.088,1.34682 2.60026,3.84116 4.26418,5.12246c0.31888,0.31084 0.71573,0.54784 1.16749,0.67682c0.4147,0.31263 0.82506,0.46509 1.22129,0.424c0.6198,-0.06428 1.15546,-0.48993 1.59698,-1.23025c0.32678,-0.36143 0.56226,-0.81378 0.66194,-1.32698c0.02612,-0.13446 0.04202,-0.26854 0.04825,-0.40147c0.62927,-2.1812 0.87281,-5.46067 0.65532,-9.48642c1.67923,-1.99206 3.37007,-7.96966 3.71436,-9.39422c0.28493,-1.17894 0.54773,-2.36327 0.79312,-3.55137c0.49305,1.89787 0.89525,3.91836 1.20136,6.02847c1.82444,12.57579 0.00758,24.09695 -7.44743,25.16315c-7.7123,1.10301 -13.05092,-9.01881 -14.87535,-21.59458z" fill="#732d00"/><path d="M249.67864,165.07703c-5.63107,0.80535 -9.99672,-4.37334 -12.65302,-12.12206c1.59393,1.73735 3.62672,3.08308 5.80569,4.52475c0.83018,0.54928 3.52603,1.84926 4.82619,1.63584c0.27001,0.13088 0.53668,0.18756 0.79724,0.16056c0.55356,-0.0574 1.04,-0.40308 1.45221,-1.00371c0.69497,-0.44881 1.40646,-1.17153 1.71884,-1.46105c2.44269,-2.26393 4.92833,-8.38229 5.95255,-12.97817c0.92799,10.96275 -1.2282,20.28969 -7.8997,21.24384z" fill="#4a0e00"/><path d="M253.13347,126.32857c-1.68244,-1.09721 -3.52739,-1.9174 -5.50629,-2.26565c-2.02202,-0.35585 -2.89381,-0.84055 -4.68638,0.8877c-0.04094,0.03948 -0.07937,0.08074 -0.11558,0.12357c-1.65835,1.213 -2.06146,6.79519 -1.84157,12.38597c-2.26211,-2.19319 -4.47289,-4.45897 -6.63851,-6.75989c0.37025,-3.54112 1.25257,-6.55524 2.74433,-8.67962c1.31548,-1.87337 3.10489,-3.05487 5.43496,-3.29573c4.39009,-0.45381 7.99942,2.54052 10.60904,7.60365z" fill="#d69d00"/><path d="M236.12097,127.79375c0.93401,-4.44601 3.56077,-8.23429 6.81684,-8.46357c2.56328,-0.1805 4.39749,1.085 4.0461,2.09288c-0.71665,2.05557 -3.00253,-1.27758 -5.88342,0.55094c-1.4543,0.92304 -2.83733,4.84787 -3.71889,6.31304c-1.27361,2.11676 -1.68128,1.50918 -1.26061,-0.4933z" fill="#ffcb3e"/></g><path d="M239.18473,81.54793c30.03007,19.56871 16.75955,49.5877 6.08043,50.07586" fill="none" stroke="#1a1a1a" stroke-width="2" stroke-linecap="round"/></g><path d="M245.25074,155.0924c0.05723,-0.01521 0.11513,-0.02852 0.17366,-0.03994c2.43938,-0.4754 5.083,2.55714 5.90469,6.77337c0.81114,4.16211 -0.45642,7.92184 -2.83575,8.475" fill="none" stroke="#1a1a1a" stroke-width="2" stroke-linecap="butt"/><g><g><path d="M235.32425,198.66515l14.30132,-29.20389l20.50163,26.46833z" fill="#c53939" stroke="none" stroke-width="0" stroke-linecap="butt"/><path d="M235.32907,198.77617l6.10088,-13.16613l9.21317,12.38951z" fill-opacity="0.77419" fill="#6b1a1e" stroke="none" stroke-width="0" stroke-linecap="butt"/><path d="M258.02751,196.45529l-5.25106,-0.55036l12.46655,-2.32113l-11.27457,-16.40479l-8.62831,0.34014l4.3275,-8.6264l20.89397,26.7955z" fill-opacity="0.43548" fill="#ffffff" stroke="none" stroke-width="0" stroke-linecap="butt"/><path d="M249.61593,168.91948l-14.47628,29.65636" fill="none" stroke="#1a1a1a" stroke-width="2" stroke-linecap="round"/><path d="M249.61591,168.91947l20.7042,26.56608" fill="none" stroke="#1a1a1a" stroke-width="2" stroke-linecap="round"/><path d="M235.38938,198.56498l35.1625,-2.779" fill="none" stroke="#1a1a1a" stroke-width="2" stroke-linecap="round"/></g><path d="M256.39767,175.6821l-11.996,0.83241" fill="none" stroke="#1a1a1a" stroke-width="2" stroke-linecap="round"/><path d="M256.05025,172.8056l-11.996,0.83241" fill="none" stroke="#1a1a1a" stroke-width="2" stroke-linecap="round"/></g></g><g data-paper-data="{&quot;index&quot;:null}" stroke-linecap="butt"><path d="M228.18441,96.1333l-3.37999,-19.11481l12.42644,-2.92066l3.47889,21.23934l-6.06243,5.52951z" fill="#66423d" stroke="none" stroke-width="0"/><path d="M227.81216,93.72278l-2.14789,-13.19072l12.87903,3.51446l1.04866,5.68956z" fill="#1a1a1a" stroke="#1a1a1a" stroke-width="0.5"/></g><g><path d="M282.38701,-74.70055c0,0 16.69418,28.90997 20.27623,54.54524c2.06235,14.7595 0.76261,30.50664 -5.5781,46.89068c-5.45838,17.60662 -59.40094,-14.6402 -59.40094,-14.6402c0,0 7.37292,-19.54165 9.71599,-22.63476c3.08041,-4.06651 -0.09191,-5.99559 4.99559,-8.99918c0.92073,-0.54358 7.83338,-5.31472 11.36626,-11.6864c8.9793,-16.19454 18.62498,-43.47536 18.62498,-43.47536z" data-paper-data="{&quot;index&quot;:null}" fill="#7e6c69" stroke="#7e6c69" stroke-width="1.5" stroke-linecap="butt"/><path d="M204.02405,40.05186c-15.88481,-32.91295 -53.41151,-47.04242 -53.41151,-47.04242c0,0 124.86844,-22.2305 135.28946,42.3645c8.08263,19.9651 -20.40125,25.22025 -44.24801,29.61328c-23.84677,4.39303 -28.28473,-5.57234 -37.62994,-24.93536z" data-paper-data="{&quot;index&quot;:null}" fill="#a28b87" stroke="#a28b87" stroke-width="2.5" stroke-linecap="butt"/><path d="M185.589,-3.06027c18.10442,-9.33273 27.12451,-14.35748 43.80677,3.23995c16.68226,17.59741 31.99056,40.97982 14.56669,51.52866c-23.86749,14.44996 -43.39225,22.69612 -61.18182,20.02c-48.02473,-7.22449 -82.8058,-68.28352 -82.8058,-68.28352c0,0 54.8406,9.35854 85.6142,-6.50508z" data-paper-data="{&quot;index&quot;:null}" fill="#a28b87" stroke="#a28b87" stroke-width="2.5" stroke-linecap="butt"/><path d="M242.09584,38.26699c14.41672,-14.78631 26.3685,-52.09378 26.3685,-52.09378c0,0 52.66152,49.48868 6.27184,90.79817c-1.7569,1.56451 13.42648,0.23159 13.42648,0.23159c0,0 -15.88481,16.67671 -46.95983,7.29259c-9.96278,-3.0086 0.49195,-16.48396 -3.29538,-21.54581c-8.75599,-11.70253 -4.29311,-15.98382 4.18839,-24.68273z" data-paper-data="{&quot;index&quot;:null}" fill="#7e6c69" stroke="#7e6c69" stroke-width="2.5" stroke-linecap="butt"/><path d="M200.28078,31.66075c-2.9245,-18.04395 -24.61723,-24.85622 -35.54478,-39.37874c-11.16604,-14.83946 -32.49994,-24.38603 -32.49994,-24.38603c0,0 40.33252,-8.06673 67.27223,-6.46046c34.04028,2.02966 89.28748,22.02876 80.58852,89.07413c2.058,21.44059 -26.74239,18.36074 -50.85225,15.77597c-24.10988,-2.58478 -25.52399,-13.40163 -28.96378,-34.62489z" data-paper-data="{&quot;index&quot;:null}" fill="#a28b87" stroke="#a28b87" stroke-width="2.5" stroke-linecap="butt"/><g data-paper-data="{&quot;index&quot;:null}" stroke="none" stroke-width="0" stroke-linecap="butt"><path d="M278.32628,55.01117c-1.01299,9.44875 -0.50122,14.15325 -8.55528,22.17276c-12.54439,12.49059 -54.53909,10.40637 -70.93924,-4.56698c-7.9251,-7.23561 -7.59224,-16.45986 -6.48123,-26.82306c1.99768,-18.6338 17.61448,-40.90062 53.57994,-36.00541c23.65829,3.22007 34.3935,26.58888 32.3958,45.2227z" fill="#8c6661"/><path d="M278.18341,55.01117c-1.9977,18.63382 -17.83287,14.5951 -37.31772,12.65572c-4.23394,-0.42142 -9.02815,-0.57681 -13.9186,-0.75321c-17.61126,-0.63525 -42.97056,-0.54285 -41.40703,-15.12683c1.99768,-18.6338 24.2821,-46.89359 60.24756,-41.99839c23.65829,3.22007 34.3935,26.58888 32.3958,45.2227z" fill="#1a1a1a"/></g><path d="M242.8789,-31.20439c2.06236,14.75951 0.7626,30.50664 -5.57811,46.89067c-5.45838,17.60663 -54.11335,-8.87031 -54.11335,-8.87031c0,0 -7.18729,-19.54369 -4.84423,-22.63681c19.50309,-25.74635 45.01484,-69.10455 45.01484,-69.10455c0,0 10.86322,21.87274 14.45692,31.76252c2.54107,6.99299 5.06393,21.95846 5.06393,21.95846z" data-paper-data="{&quot;index&quot;:null}" fill="#a28b87" stroke="#7e6c69" stroke-width="1.5" stroke-linecap="butt"/><path d="M269.46457,74.0597c0,0 18.80454,-3.88654 18.9941,-3.05016c0.18955,0.83637 0.48274,2.20499 -5.45197,3.40677c-3.99878,0.80976 -13.35258,0.47979 -13.54212,-0.35659z" data-paper-data="{&quot;index&quot;:null}" fill="#1a1a1a" stroke="#1a1a1a" stroke-width="0.5" stroke-linecap="butt"/><path d="M238.73306,8.65162c0.06796,-0.63393 0.70191,-0.56598 0.70191,-0.56598l0.5635,0.0604c0.37567,0.04028 0.75135,0.08056 1.12701,0.12082c3.10784,0.33319 6.16576,0.87448 9.18991,1.59294c2.93469,0.6972 5.31269,1.95679 8.34897,2.2823c0,0 0.63394,0.06798 0.56596,0.70191c-0.06796,0.63393 -0.7019,0.56597 -0.7019,0.56597c-3.09119,-0.33141 -5.51459,-1.61214 -8.49363,-2.3063c-2.9834,-0.69518 -5.9816,-1.24052 -9.04523,-1.56896c-0.37567,-0.04026 -1.31484,-0.14095 -1.6905,-0.18123c0,0 -0.63395,-0.06796 -0.56598,-0.7019z" data-paper-data="{&quot;index&quot;:null}" fill="#3a2f41" stroke="#3a2f41" stroke-width="2.5" stroke-linecap="butt"/><path d="M226.39802,6.64446c7.44359,-4.05441 21.25989,-6.94926 32.83019,-10.364c11.54043,-3.40592 25.20297,-5.46516 25.20297,-5.46516c0,0 -4.92157,8.48774 -9.8876,11.10343c-2.15957,1.13747 36.57304,18.05107 36.03689,40.40398c-0.21837,9.10447 -27.53909,28.21381 -27.53909,28.21381c0,0 4.7964,-16.37121 3.39507,-12.92737c-10.41567,16.33734 -18.12693,20.70464 -18.12693,20.70464c0,0 -46.00879,-45.85336 -61.21816,-54.79873c-6.51272,-3.83045 8.6561,-11.06939 19.30664,-16.8706z" data-paper-data="{&quot;index&quot;:null}" fill="#a28b87" stroke="#a28b87" stroke-width="1.5" stroke-linecap="butt"/><path d="M199.37338,13.05496c-1.8252,-7.37131 30.91712,-0.3916 30.91712,-0.3916c3.51636,6.73075 7.68355,39.63459 7.68355,39.63459c0,0 -23.92352,-14.67165 -34.34399,-30.22992c-2.01225,-3.00437 -3.52096,-6.04181 -4.25667,-9.01305z" data-paper-data="{&quot;index&quot;:null}" fill="#a28b87" stroke="none" stroke-width="0" stroke-linecap="butt"/><path d="M185.40804,51.55005c-5.06605,-5.65712 0.58279,-18.97945 12.617,-29.75628c5.38036,-4.81818 8.88434,-9.99773 22.8324,-14.87743c12.17218,-4.2584 35.0805,-8.65264 38.06441,-7.65808c1.24467,0.41484 -30.75856,12.34473 -29.93408,13.26542c5.06602,5.65709 -0.58279,18.97944 -12.61701,29.75628c-12.03421,10.77683 -25.89669,14.92718 -30.96272,9.27008z" data-paper-data="{&quot;index&quot;:null}" fill="#a28b87" stroke="none" stroke-width="0" stroke-linecap="butt"/><path d="M148.8029,52.10664c0.06942,-0.82551 40.16088,-4.0708 42.51466,6.08438c0.13894,0.59943 0.16467,-0.34272 0.34519,0.19881c0.26237,0.78713 0.74285,2.28676 1.27204,3.55344c0.90988,2.1779 1.92276,4.15443 1.92276,4.15443l14.17863,2.29758c0,0 -5.64214,9.13093 -13.56017,8.96168c-14.67951,-0.3138 -46.7425,-24.42478 -46.67308,-25.25029z" data-paper-data="{&quot;index&quot;:null}" fill="#a28b87" stroke="#a28b87" stroke-width="2.5" stroke-linecap="butt"/><path d="M198.28051,16.09032c-1.14555,13.62096 -7.09327,24.24082 -13.28462,23.72013c-6.19135,-0.52069 -15.93463,-4.43196 -14.78908,-18.05292c0.30148,-3.58459 1.70175,-8.63445 3.71446,-14.12059c5.63531,-15.36041 2.67766,-24.59631 7.23965,-24.21264c6.19135,0.52069 18.26515,19.04507 17.11961,32.66603z" fill="#a28b87" stroke="none" stroke-width="0" stroke-linecap="butt"/><path d="M205.14483,62.19562c2.09103,0.67064 2.87704,2.4816 5.20005,2.33874l0.04325,-0.01785c0,0 0.97657,-0.16243 1.31473,0.74665c0.87984,0.11338 1.72026,0.17977 2.44707,0.19106c2.7547,0.04278 4.17284,-1.92212 7.11302,-0.52755l0.43556,0.32078c0,0 0.99642,0.81006 0.24023,1.91165c-0.7562,1.10158 -1.7526,0.29151 -1.7526,0.29151l-0.01537,-0.04582c-0.2844,-0.1657 -0.56209,-0.27296 -0.83511,-0.33448c-0.2063,0.57973 -0.78689,0.80924 -0.78689,0.80924l-0.30003,-0.22042c-0.97401,1.72622 0.33638,6.92534 -1.78236,7.62705c-4.04602,1.33999 -2.63764,-4.43502 -2.43852,-6.04275c0.01851,-0.14942 -1.60991,0.69751 -2.637,1.24617c-0.05378,0.22279 -0.14257,0.45117 -0.28428,0.67922c-0.33488,0.53891 -1.04291,0.73077 -1.50208,1.13544c-0.10965,0.4817 -0.20689,0.96912 -0.25457,1.46601c0.04252,0.13994 0.05494,0.23861 0.05494,0.23861c0.16124,1.30632 0.48416,2.09039 0.95383,2.63179l0.14057,0.09369c0.14343,0.09404 0.26859,0.21956 0.36674,0.36936c0.86515,0.63286 2.06403,0.90986 3.54247,1.8401l0.65211,1.41075c0,0 0.16987,1.35174 -1.0694,1.55788c-0.37499,0.06237 -0.65204,-0.01788 -0.85612,-0.16016l-0.33808,-0.00769c-0.77988,-0.27903 -1.70433,-0.60008 -2.68555,-0.97557c-0.18083,0.18343 -0.41185,0.31165 -0.67279,0.35506c-0.2604,0.04332 -0.51306,-0.0041 -0.73135,-0.1206l-1.28304,-0.65932l0.0107,-0.02429l-0.05899,-0.00194c-0.18317,-0.11635 -0.38998,-0.22635 -0.61085,-0.33226c-1.77448,0.35142 -4.50285,-0.46794 -5.51805,-1.53056c-1.58735,-1.6615 -1.43015,-4.46496 -1.25205,-7.01665c-0.45555,-2.75523 -0.43261,-5.72599 -0.76477,-8.32281c0,0 -0.16987,-1.35173 1.06943,-1.55787c0.01924,-0.0032 0.03821,-0.00603 0.05692,-0.0085c0.53919,-0.18989 0.92492,0.05592 1.15943,0.30778c1.20093,0.18665 2.46713,-0.03395 3.62878,0.33862zM206.5497,72.4903c0.14413,-0.8159 1.40001,-2.67742 0.95857,-3.67079c-0.23753,-0.53446 -1.36471,-0.65923 -1.62324,-0.79827c-0.67782,-0.36454 -1.28205,-0.89527 -1.80729,-1.50558c-0.07737,0.04215 -0.15335,0.08789 -0.22786,0.13685c-1.18479,2.45778 -1.30474,6.05926 0.83364,7.87145c0.29561,0.25052 0.59699,0.48878 0.90346,0.71589c0.42805,-0.51504 0.78538,-1.15611 0.87034,-1.83362c0.00767,-0.29896 0.03728,-0.60395 0.09239,-0.91595z" fill="#1a1a1a" stroke="none" stroke-width="0.5" stroke-linecap="butt"/><path d="M226.95718,45.30965c-0.17569,-0.01477 -0.32248,-0.11868 -0.39966,-0.26351l-0.11337,-0.20551c-0.19637,-0.08344 -0.39255,-0.1673 -0.5886,-0.25149l-0.36716,-0.3528c0,0 -0.14396,-0.1704 -0.12575,-0.37975c-0.27882,-0.20274 -0.5454,-0.42039 -0.78693,-0.70054c0,0 -0.32268,-0.38194 0.05927,-0.70463c0.38194,-0.32268 0.70463,0.05926 0.70463,0.05926c0.31701,0.38552 0.72494,0.65655 1.13357,0.93744c0.34917,-0.66073 3.77712,0.40605 4.32474,0.59381c0.63052,0.21619 2.05304,1.66993 1.63577,1.15013c-0.37362,-0.46546 -0.16002,-2.21526 -0.11792,-2.74339l0.08381,-0.99648c0.02314,-0.27516 0.26498,-0.47948 0.54016,-0.45634c0.21387,0.01798 0.38492,0.16806 0.43966,0.36325l0.28887,0.9452l-0.20844,0.0637c0.26826,0.62682 0.56318,1.35046 0.74937,1.90166c0.08071,-0.2476 0.18248,-0.50247 0.2239,-0.70069c0.10575,-0.50619 0.28381,-1.00152 0.32452,-1.51704l0.05028,-0.59789c0.02314,-0.27516 0.26498,-0.47948 0.54015,-0.45635c0.19891,0.01673 0.36077,0.14773 0.4265,0.32296l0.36667,0.9187l-0.17553,0.07006c0.27199,0.72748 0.25765,1.40139 0.16841,2.46745c-0.04631,0.55344 0.00955,0.97564 0.03768,1.47589c0.0757,-0.48122 0.1198,-0.96122 0.16161,-1.45913l0.05028,-0.59789l0.17378,0.01461l0.1725,-0.44907c0.12121,0.10025 0.23009,0.20984 0.32791,0.32771l0.20599,-0.17403l0.5476,0.64818l-0.31307,0.2645c0.712,1.68676 0.26376,4.22976 0.71141,5.9863l-0.00444,0.359c0,0 -0.03789,0.45062 -0.47014,0.45873c0.0285,0.01214 0.05697,0.02428 0.08543,0.03643c0,0 0.45942,0.19731 0.26211,0.65674c-0.1973,0.45942 -0.65673,0.26211 -0.65673,0.26211c-1.53946,-0.66459 -3.3021,-1.28602 -4.68111,-2.01178c-1.97217,-1.03793 -3.75253,-3.75438 -5.53811,-5.30885c-0.0756,0.03461 -0.16087,0.05079 -0.24964,0.04333z" fill="#1a1a1a" stroke="none" stroke-width="0.5" stroke-linecap="butt"/><path d="M281.44498,-9.912c1.40532,-0.49665 2.78321,-1.0452 4.32695,-1.42871l0.01978,0.00216l-0.0009,-0.0056l0.81395,-0.13225l0.03744,0.23042l0.49696,0.05409c-0.09449,0.13325 -0.1918,0.26721 -0.29129,0.40188l0.15974,0.18906l-0.76388,0.64536l-0.01405,-0.01663c-1.02789,1.34132 -2.1355,2.75491 -2.71076,4.2574c-0.76708,2.00354 -1.0026,4.76911 -3.08828,6.0358c-0.7101,0.43127 -1.63254,0.45485 -2.37619,0.8648c-1.02913,0.25641 -1.88884,0.65505 -2.941,0.78506l-0.60154,0.14343c-0.05371,0.01414 -0.11073,0.01951 -0.16923,0.01459c-0.27517,-0.02314 -0.47948,-0.26497 -0.45634,-0.54015c0.00703,-0.08369 0.0343,-0.16082 0.07657,-0.22698l0.51536,-0.84521l0.14617,0.08912c0.28253,-0.45525 0.60566,-0.86388 0.96304,-1.25019c-0.61507,0.26937 -1.16012,0.35876 -1.35986,0.01522c-1.21919,-2.09701 3.7115,-3.36193 0.85069,-3.60253l-0.59789,-0.05028c-0.27517,-0.02314 -0.47948,-0.26497 -0.45634,-0.54015c0.01266,-0.15052 0.09075,-0.27986 0.20396,-0.36234l0.80284,-0.59143l0.04666,0.06333c0.24402,-0.21974 0.49381,-0.42094 0.76668,-0.61789c-0.32885,0.0411 -0.67021,0.07419 -1.02481,0.16516l-0.04998,-0.01427l0.00101,0.01927l-0.66031,0.03497c-0.02518,0.00173 -0.05081,0.00157 -0.07673,-0.00062c-0.27517,-0.02314 -0.47948,-0.26497 -0.45634,-0.54015c0.01673,-0.1989 0.14771,-0.36078 0.32295,-0.42649l0.91871,-0.36667l0.04087,0.10239c0.65874,-0.37788 1.35628,-0.70541 2.0704,-1.0057c-0.00602,-0.42217 0.43449,-0.48191 0.43449,-0.48191c0.5417,-0.07345 1.06049,-0.17501 1.56359,-0.29653c0.68389,-0.25411 1.36438,-0.50291 2.02291,-0.76576l0.42655,-0.01711c0,0 0.0268,0.00225 0.06744,0.01194z" fill="#1a1a1a" stroke="none" stroke-width="0.5" stroke-linecap="butt"/><path d="M263.43289,52.18221c0.0419,-0.49824 0.54014,-0.45634 0.54014,-0.45634l0.47604,0.04052c0.56988,-0.00223 1.13974,-0.06407 1.70301,-0.15055c1.38405,-0.15464 2.76493,-0.34764 4.14533,-0.54761c-0.34296,-0.03372 -0.68382,-0.06828 -1.02195,-0.10292c-0.83268,0.01543 -1.76483,-0.00013 -2.54176,-0.17488c-0.96572,0.1567 -1.90398,0.36762 -2.80081,0.64528c0,0 -0.47817,0.14615 -0.62431,-0.33203c-0.14615,-0.47817 0.33204,-0.6243 0.33204,-0.6243c0.40258,-0.12161 0.81249,-0.23078 1.22869,-0.3285c-0.00443,-0.03448 -0.0053,-0.06997 -0.00227,-0.10601c0.02314,-0.27516 0.26497,-0.47948 0.54014,-0.45635l0.49824,0.0419c0.15416,0.01297 0.30807,0.02555 0.46178,0.03777c0.36946,-0.05204 0.76991,-0.03383 1.1771,0.01186c1.61205,-0.1999 3.27871,-0.27242 4.94618,-0.26695c0.75513,-2.94544 1.41565,-5.95809 0.70891,-8.87329c0.29509,-4.04773 -0.34156,-8.32729 -0.57919,-12.40232c-0.0797,-1.36672 -0.39903,-2.74658 -0.14634,-4.04643l-0.15443,-0.01299l0.04191,-0.49824c0.02314,-0.27516 0.26497,-0.47948 0.54015,-0.45634c0.19891,0.01673 0.36079,0.14771 0.4265,0.32295l0.19462,0.48765c0.77602,1.41808 1.37881,2.81925 1.93857,4.28086c0.12321,0.74649 0.22781,1.4838 0.31563,2.21398c0.06029,0.24061 0.11754,0.48406 0.17171,0.72975c0.01334,0.00005 0.02677,0.00065 0.04028,0.00179c0.27517,0.02314 0.47949,0.26496 0.45635,0.54014l-0.04191,0.49824c-0.03098,0.33091 -0.05851,0.6638 -0.08309,0.9984c0.31179,2.13654 0.39585,4.32667 0.22457,6.23965c0.34551,3.00987 0.19707,6.63515 -0.31573,10.0997c0.75688,0.04379 1.50527,0.09629 2.23993,0.15264c0.25887,-0.00616 0.51794,-0.01075 0.7773,-0.01337c0.26303,-0.58433 0.54437,-1.13726 0.84359,-1.6315l0.20536,-0.60169c0.06901,-0.21765 0.28137,-0.36659 0.51848,-0.34665c0.27517,0.02314 0.47949,0.26497 0.45635,0.54014l-0.04191,0.49824l-0.0999,-0.0084c0.08301,0.49494 0.12158,1.02351 0.12301,1.57492c0.31639,0.01207 0.63351,0.02848 0.9515,0.0499l0.00035,-0.00419l0.99648,0.0838c0.27517,0.02314 0.47948,0.26497 0.45634,0.54015c-0.02314,0.27516 -0.26498,0.47948 -0.54014,0.45635l-0.31578,-0.02656c-0.09072,0.13027 -0.24127,0.21402 -0.40828,0.21461l-0.99435,0.01568l-0.00138,-0.08785c-0.06717,0.01488 -0.13453,0.02936 -0.2021,0.04345c-0.27906,3.19799 -1.52091,6.84431 -2.50497,9.13563c-0.38113,0.88648 -0.92429,1.7671 -1.21309,2.6814c-0.10064,0.3186 -0.43602,1.26256 -0.30837,0.95377c0.1873,-0.45311 0.93538,-0.79626 1.33289,-1.01314l0.51164,-0.43226c0.09775,-0.08258 0.227,-0.12789 0.36458,-0.11631c0.25374,0.02135 0.44724,0.22865 0.45767,0.47661l0.05753,0.99098l-0.11877,0.00691c0.04055,0.48283 0.03889,0.95003 0.01406,1.44594c0.89736,-1.35862 3.13967,-3.17932 3.95539,-3.86615l0.34609,-0.43514c0.0179,-0.02319 0.03777,-0.04471 0.05932,-0.06435c0.37868,-0.82371 0.91787,-1.846 1.57562,-1.65373c0.87442,0.2556 1.35472,3.34959 1.09677,4.89584c0.18492,-0.13357 0.37801,-0.25656 0.57681,-0.37063l-0.05467,-0.08729l0.84318,-0.52817c0.08937,-0.05733 0.19763,-0.08677 0.31161,-0.07719c0.27517,0.02314 0.47948,0.26497 0.45634,0.54015l-0.04997,0.5942c-0.02451,0.38531 0.05753,1.13162 -0.04756,1.69564c0.32216,-0.28443 0.60376,-0.58272 0.90635,-0.84745c0.14822,-0.23891 0.27875,-0.49135 0.38899,-0.75927l0.0587,-0.03812l-0.02083,-0.01657l0.44405,-0.5583c0.10026,-0.1299 0.26235,-0.20784 0.43805,-0.19306c0.27517,0.02314 0.47948,0.26497 0.45634,0.54015c-0.00497,0.05917 -0.02005,0.11507 -0.04342,0.16613l-0.14745,0.34335c0.19546,0.08115 0.32505,0.28159 0.30637,0.50376c-0.00497,0.05917 -0.02005,0.11507 -0.04342,0.16613l-0.24497,0.5704l-0.04408,-0.01893l-0.01353,0.11922c-0.55661,0.48474 -1.11446,0.97692 -1.69605,1.44144c-0.30254,0.27146 -0.58672,0.50415 -0.75971,0.65078c-1.55099,1.31478 -8.25453,6.02249 -8.25453,6.02249c0,0 0.69856,-2.91194 0.98114,-4.02534c0.17773,-0.70025 0.78724,-3.89465 0.78724,-3.89465c0,0 -1.39902,3.06836 -3.96134,5.27899c-2.17365,2.47611 -4.18456,4.24404 -6.82811,6.10386c-0.9767,0.68714 -3.85841,2.18943 -3.85841,2.18943c0,0 -2.1303,-2.17265 -4.13663,-4.0219c-1.03281,-0.95194 -2.46701,-1.62868 -3.47078,-2.64419c-0.44102,-0.44617 -0.77081,-0.95634 -1.1123,-1.4466c-2.50237,-2.13708 -4.69077,-4.67044 -6.78172,-7.17293l-0.01408,-0.08061l-0.02159,0.00862l-0.27257,-0.68292c-0.03063,-0.0723 -0.04462,-0.1529 -0.03759,-0.23658c0.02314,-0.27516 0.26497,-0.47948 0.54015,-0.45634c0.03114,0.00262 0.06137,0.00804 0.09047,0.01598l0.96002,0.24416l-0.05123,0.20142c1.31359,0.47424 2.13296,1.41142 3.43202,2.26175l0.00399,-0.00097c-0.46126,-1.01165 -0.72128,-2.76568 0.86864,-2.25054c1.28789,0.41728 1.91863,2.47401 2.88037,3.33336c0.26116,0.23335 0.6185,0.35834 0.84289,0.62722c0.1351,0.16187 0.0716,0.8313 0.10689,0.62343c0.11228,-0.66141 0.3245,-1.34535 1.46612,-0.74774c0.30049,0.1573 0.95947,2.8323 1.28331,3.38172c2.4609,-2.25242 1.92978,-4.88183 2.179,-7.84518l0.04191,-0.49824c0.02314,-0.27516 0.26497,-0.47948 0.54015,-0.45634c0.25374,0.02135 0.44725,0.22865 0.45768,0.47661l0.05752,0.99099l-0.13288,0.0077c-0.00063,0.01016 -0.00129,0.02031 -0.00193,0.03045c0.21817,1.14027 0.25305,2.28271 0.36297,3.48887c0.01788,0.1962 -0.30647,2.02557 0.19247,1.94176c1.0655,-0.17898 1.48562,-1.47514 2.04444,-2.18067c0.35137,-0.44363 0.77044,-0.83936 1.06405,-1.32306l0.25554,-0.55488c0.0829,-0.19171 0.28131,-0.31814 0.50094,-0.29967c0.23711,0.01994 0.42162,0.20226 0.45331,0.42837l0.10854,0.66796l-0.11664,0.01895c0.06814,0.2652 0.10989,0.52282 0.13202,0.78599c0.31692,-0.46698 0.69374,-0.92693 0.9211,-1.44759c0.81895,-1.87537 1.12151,-3.99796 1.99755,-5.85318c0.69048,-1.46221 1.65661,-2.72747 2.17986,-4.26855c0.28735,-0.99087 0.63672,-2.11679 1.04572,-3.2225c-0.87056,0.06637 -1.75973,0.08848 -2.65693,0.07892c-0.3418,1.79798 -0.78,3.51008 -1.29509,5.01936c-0.63116,1.84769 -1.43426,3.62967 -2.24782,5.39415c-0.19215,0.5458 -0.41952,1.08519 -0.70763,1.53427c-0.19197,0.4188 -0.38188,0.83739 -0.56754,1.25643l-0.11065,0.04703l0.03153,0.03734l-0.54015,0.45634c-0.09775,0.08258 -0.22699,0.12787 -0.36458,0.1163c-0.27517,-0.02314 -0.47948,-0.26497 -0.45634,-0.54015c0.00703,-0.08369 0.0343,-0.16081 0.07657,-0.22698l0.51536,-0.84522l0.0562,0.03428c0.29255,-0.79907 0.628,-1.58744 0.97296,-2.37421c-0.14786,0.15391 -0.3011,0.30516 -0.45996,0.4536l0.03634,0.02215l-0.28539,0.46805c-0.09406,0.16182 -0.27555,0.26392 -0.47444,0.24719c-0.27517,-0.02314 -0.47948,-0.26497 -0.45634,-0.54015l0.04191,-0.49824l0.01719,0.00145l-0.01198,-0.04279c0.45755,-1.80925 0.57159,-4.41012 1.51916,-5.97342c0.10164,-1.09017 0.32738,-2.20874 0.59961,-3.34564c-1.86292,0.28957 -3.66644,0.26408 -5.51498,0.47945c-0.61998,0.0936 -1.24733,0.15474 -1.87432,0.15851l-0.52044,-0.04328c0,0 -0.49824,-0.0419 -0.45634,-0.54015zM271.0362,59.71778c0.2072,-0.4846 0.6018,-0.95552 0.97466,-1.43484c0.28722,-0.45085 0.55853,-0.87904 0.76688,-1.23147c0.01807,-0.04826 0.03439,-0.09676 0.04876,-0.14552c0.4539,-1.54044 0.46494,-3.43821 0.50678,-5.20572c-0.1259,0.04573 -0.2519,0.09037 -0.37812,0.13281c-0.34156,1.35859 -0.64906,2.68768 -0.80947,3.96339c-0.62991,1.02685 -0.87544,2.51878 -1.10948,3.92134zM274.2014,40.48342c0.05534,-0.65738 0.11065,-1.31478 0.16602,-1.97216c0.14658,-1.74084 0.18835,-3.5336 0.67073,-5.17473c-0.06091,-0.9375 -0.14642,-1.88289 -0.26072,-2.84116c-0.12907,-0.5184 -0.27225,-1.01916 -0.42906,-1.49551c-0.11329,-0.34415 -0.64739,-1.54884 -0.74597,-1.87228c-0.00055,-0.00187 -0.00113,-0.00375 -0.0017,-0.00568c0.00619,0.41186 0.00635,0.76069 0.01783,0.95737c0.2347,4.02274 0.97513,8.39571 0.57791,12.38365c0.00166,0.00683 0.00331,0.01367 0.00496,0.02049zM274.77144,45.57145c-0.07538,0.91611 -0.15069,1.83223 -0.2267,2.74826c0.0134,-0.15326 0.02641,-0.3052 0.03909,-0.45565c0.06527,-0.77431 0.12847,-1.53771 0.1876,-2.29261z" fill="#1a1a1a" stroke="none" stroke-width="0.5" stroke-linecap="butt"/><path d="M236.5031,-52.96247l-0.01007,0.03084c-0.01759,-0.01026 -0.03495,-0.02024 -0.05206,-0.02997c-0.15082,-0.0046 -0.28694,-0.06058 -0.41063,-0.20032c-0.90018,-0.34607 -0.76048,0.50826 -0.62551,1.69583l0.02455,-0.0098l0.20348,0.50984c0.03063,0.0723 0.04462,0.15291 0.03759,0.23658c-0.02314,0.27516 -0.26496,0.47949 -0.54014,0.45635c-0.08369,-0.00704 -0.16082,-0.0343 -0.22698,-0.07657l-0.46871,-0.28578l0.0352,-0.05773l-0.15684,-0.04649c-0.06907,-0.17308 -0.13815,-0.34612 -0.20722,-0.51919c-1.31127,-0.68874 -2.36761,-2.28064 -3.46156,-3.27745c-0.48164,-0.43886 -0.93179,-1.65625 -1.17185,-2.23282c-0.08402,-0.20183 -0.19456,-0.8329 -0.22433,-0.61631c-0.15649,1.13849 0.12482,3.25556 -0.41886,4.219c-0.12275,0.21755 -0.49173,0.49922 -0.78122,0.60439c-0.13487,1.96222 0.41575,4.28206 -0.5626,6.12288c-0.63305,1.19114 -1.74012,2.81417 -2.76787,1.28505c-1.38671,-3.47445 -4.504,-8.66169 -3.96777,-12.65933c-0.40377,-0.47792 0.03493,-1.67983 -0.5819,-1.78445c-0.96618,-0.16387 -1.96074,1.98863 -3.18868,1.46106c-0.13035,-0.056 -0.18832,-0.26889 -0.20092,-0.50369c-0.31694,0.2891 -0.82712,0.50853 -1.03827,0.62985c-1.82193,1.04678 -2.87694,2.04651 -4.68468,2.29013l0.02533,0.15588l-0.97599,0.15859c-0.04291,0.00794 -0.08758,0.01034 -0.13316,0.00651c-0.27517,-0.02314 -0.47948,-0.26498 -0.45634,-0.54015c0.01157,-0.13757 0.07782,-0.25746 0.17556,-0.34004l0.51189,-0.43247c1.72137,-2.15843 -7.32445,4.71824 -6.46714,2.20141c2.30358,-3.87613 11.78316,-18.34793 13.57354,-22.4297c0.31672,-3.26026 3.25155,-6.73148 4.62149,-9.97581c0,0 0.01495,-0.03479 0.04619,-0.08113c-0.06494,-0.11719 -0.09351,-0.28042 0.02823,-0.48009c0.26031,-0.4269 0.68719,-0.16661 0.68719,-0.16661l0.59893,0.39525c0.74401,1.71241 2.01397,2.84548 2.6936,4.57592c3.17052,4.67521 4.78509,9.89993 7.78372,14.68467c0.67459,1.2271 0.81066,2.41833 1.24307,3.70372c0.93165,2.76948 2.93462,7.40324 1.84803,10.39373l0.329,0.02767v0c0.27517,0.02314 0.47948,0.26498 0.45634,0.54014c-0.02314,0.27516 -0.26498,0.47948 -0.54015,0.45634l-0.49824,-0.0419l0.00561,-0.0668c-0.03712,0.00655 -0.07341,0.01101 -0.1089,0.01301z" fill="#1a1a1a" stroke="none" stroke-width="0.5" stroke-linecap="butt"/><path d="M272.50518,-50.89975c0.09764,-0.19587 0.19269,-0.39137 0.28394,-0.58603c0.37978,-0.87837 0.62441,-1.85046 0.93004,-2.78399c0.27274,-1.78477 0.63649,-3.54412 1.08127,-5.27247c0.16068,-0.62435 -0.08709,-1.48983 0.19227,-2.07499c0.5898,-1.23543 1.42614,-2.0293 1.52637,-3.48947c0.34675,-4.12282 1.72974,-9.38519 5.45258,-11.73433c0,0 0.42374,-0.26542 0.68916,0.1583c0.09996,0.15957 0.10217,0.2967 0.0661,0.40565l0.37657,0.68433c0.94975,2.36839 2.10035,4.65771 3.38015,6.99184c2.84446,3.36684 4.0721,7.79016 6.54277,11.30152c0.66509,0.94521 1.63165,3.38975 1.50026,4.63071c1.84707,4.25237 3.08583,8.6688 4.90117,12.8472c0.32345,0.81474 1.52646,2.90246 -0.51718,2.42543c-0.71779,-0.16755 -1.30528,-1.28155 -1.64245,-1.83839c-0.83575,-1.38021 -2.70652,-2.6914 -3.78136,-4.24379c0.20972,2.12782 -0.47037,4.50012 -0.45578,6.56745c0.00306,0.43324 0.07335,2.20871 -0.24021,2.43848c-0.57407,0.42067 -1.88316,-1.60457 -2.22539,-2.00297c-1.97461,-2.35256 -5.41873,-5.63405 -6.22026,-8.83422c-0.28781,0.99585 -0.70574,1.94061 -1.32825,2.75939l0.07812,0.04762l-0.28538,0.46804c-0.09406,0.16182 -0.27554,0.26391 -0.47444,0.24719c-0.19891,-0.01673 -0.36078,-0.14771 -0.4265,-0.32295l-0.2032,-0.50914l0.03746,-0.01494l-0.06761,-0.09671c0.14522,-1.93045 -0.39353,-3.3779 -1.28224,-4.98892c-0.07774,-0.20519 -0.10789,-0.58438 -0.10739,-0.946c-0.2241,0.41966 -0.59093,0.80271 -0.81535,0.84743c-0.87476,0.17435 -1.08075,-0.21755 -1.05052,-0.67377c-0.42114,0.31277 -0.97006,0.67919 -1.32432,0.9011c-1.39035,0.8709 -2.95369,1.62802 -4.47698,2.46921c-0.38055,0.20806 -2.4444,1.39019 -2.90746,0.93179c-0.19552,-0.19356 -0.23615,-0.45314 -0.18835,-0.73917c-0.1203,0.0359 -0.24199,0.06732 -0.3651,0.09401l0.25322,-0.47127l-0.16403,-0.19415l0.4939,-0.41727c0.17494,-0.28352 0.39152,-0.55334 0.63091,-0.81643l-0.10299,-0.42484l0.02349,-0.00569c-0.01523,-0.0502 -0.02736,-0.10147 -0.0358,-0.15401c-0.17635,-1.09789 1.56757,-2.48119 2.06136,-3.26143c0.0659,-0.10413 0.12825,-0.21067 0.18751,-0.31934z" fill="#020202" stroke="none" stroke-width="0.5" stroke-linecap="butt"/><g data-paper-data="{&quot;index&quot;:null}" stroke="none" stroke-width="0" stroke-linecap="butt"><path d="M307.3862,-45.25692c0,0 -19.73076,3.73893 -34.3627,-2.22768c-22.7637,-9.28257 -26.83682,-19.93879 -26.83682,-19.93879l2.37704,-12.01048l12.03447,-14.74587l9.45341,19.79985l18.83587,-18.67185l4.49335,28.01098l23.00005,-5.87684l-2.52417,17.75938l-6.47051,7.90131z" fill="#390b00"/><g><path d="M300.91084,-33.32988c0,0 -18.07253,4.67609 -32.69311,-1.31984c-22.74602,-9.32819 -26.47209,-20.88012 -26.47209,-20.88012l6.70869,-37.19745l7.82039,24.87313l17.15693,-14.72829l3.37061,26.05648l21.97879,-18.88786l0.10997,24.9197l22.07386,-8.7326l-20.05404,25.89683z" fill="#a55900"/><path d="M261.6459,-72.46506c0.07328,1.82056 0.12548,3.42593 0.11204,4.73594c-0.08319,8.12449 -0.07607,18.74559 -0.02641,30.11774c-16.99332,-8.64053 -19.9859,-17.91846 -19.9859,-17.91846l6.70868,-37.19747l7.82039,24.87314z" fill="#d69d00"/><path d="M295.29962,-32.28453c-0.00741,-1.25093 -0.01416,-2.49619 -0.02011,-3.73505c-0.05438,-11.30768 -0.16025,-22.61206 -0.06265,-33.93132c0.00019,-0.02212 0.08043,-0.97205 0.19194,-2.56493l3.37226,-2.898l0.10997,24.9197l22.07386,-8.73259l-20.05404,25.89683c0,0 -2.16865,0.56112 -5.61122,1.04537z" fill="#723d00"/></g><path d="M275.3384,-52.90101l1.24389,9.80997l-6.75153,3.36531l-2.26928,-6.70074z" fill="#ab2200"/><path d="M297.61743,-46.68443l-1.18535,9.52719l-5.24185,3.04741l-0.63707,-5.37464z" fill="#002461"/><path d="M255.15316,-52.48927l-3.70782,3.94269l-2.40281,-5.56687l4.71148,-8.36504z" data-paper-data="{&quot;index&quot;:null}" fill="#002461"/></g><path d="M206.84101,64.10395l-2.42857,-5.21429l34.5,4.14286l-1.85714,3.21429z" fill="#c32c2c" stroke="#1a1a1a" stroke-width="0.5" stroke-linecap="butt"/><path d="M216.87672,58.35395l-0.14286,4" fill="none" stroke="#1a1a1a" stroke-width="2.5" stroke-linecap="round"/></g><g><g fill="#1a1a1a" stroke-opacity="0.14063" stroke="#ffffff" stroke-width="0.5"><path d="M148.39261,325.74832l36.19344,50.02325l-40.43706,-24.0766z" stroke-linecap="round"/><path d="M148.6753,336.03644l30.74533,51.52967l-41.70405,-27.63105z" stroke-linecap="round"/><path d="M205.05224,118.22849l-26.85851,86.10795l-4.29509,79.75642l24.08572,12.69108l5.37295,47.20279l-17.27025,-26.09879l-16.05492,-2.60622l-12.98111,40.64654l11.41129,41.02872l-33.55746,-34.59715c0,0 0.95195,-12.16306 2.65371,-28.3596c1.70176,-16.19656 -2.22373,21.84769 -2.24242,24.4452l-9.85638,-18.25182l5.35072,-58.02582l19.36595,-87.49311l27.70939,-81.54476l17.76765,-12.86824l9.52169,5.90286z" stroke-linecap="butt"/></g><g stroke="none" stroke-width="0" stroke-linecap="butt"><path d="M128.15611,283.60544l0.08194,-17.68913l49.13291,-0.30752l-0.08194,17.68913z" fill="#a55900"/><path d="M170.67668,283.3393c-5.31111,-6.02881 -11.03457,-11.75489 -16.61942,-17.58459l23.31368,-0.14591l-0.08191,17.68913z" fill="#723d00"/><path d="M128.23066,267.50609c4.75949,5.35026 9.54189,10.68463 14.34685,16.00908l-14.42142,0.09026z" fill="#d69d00"/></g><g fill="none" stroke-width="6"><g data-paper-data="{&quot;index&quot;:null}" stroke-linecap="butt"><path d="M129.88752,414.05729c3.96827,-0.22607 5.42447,4.94652 5.79259,11.40854c0.36812,6.46203 -0.02213,11.99019 -4.44531,12.24215c-4.87806,0.27789 -5.43869,-5.1961 -5.80681,-11.65814c-0.36811,-6.46203 0.03635,-11.7406 4.45953,-11.99256z" stroke="#37354d"/><path d="M125.87805,417.66518c0.61338,-2.12468 1.81833,-3.48303 4.00949,-3.60786c1.96582,-0.11199 3.31517,1.10084 4.22114,3.13899" stroke="#565378"/><path d="M135.7498,430.37429c-0.19998,4.13664 -1.27661,7.14922 -4.51496,7.3337c-3.57138,0.20344 -4.82857,-2.67618 -5.39028,-6.76943" stroke="#1a1830"/></g><g data-paper-data="{&quot;index&quot;:null}" stroke-linecap="butt"><path d="M128.65154,385.04317c3.97142,-0.16194 5.3439,5.03346 5.60762,11.5006c0.26371,6.46713 -0.21576,11.98827 -4.64243,12.16878c-4.88191,0.19908 -5.35409,-5.28325 -5.6178,-11.75039c-0.26371,-6.46714 0.22594,-11.73847 4.65261,-11.91899z" stroke="#37354d"/><path d="M124.58431,388.58583c0.64761,-2.1145 1.87434,-3.45322 4.06724,-3.54265c1.96737,-0.08023 3.29695,1.15425 4.16989,3.20675" stroke="#565378"/><path d="M134.24953,401.4527c-0.26674,4.13287 -1.3919,7.12768 -4.63279,7.25983c-3.5742,0.14575 -4.78471,-2.75381 -5.28026,-6.85558" stroke="#1a1830"/></g><g data-paper-data="{&quot;index&quot;:null}" stroke-linecap="round"><path d="M129.15007,404.16272l0.65191,15.98671" stroke="#565378"/><path d="M129.80197,420.14943l-0.19353,-4.74605" stroke="#1a1830"/><path d="M129.31304,408.15939l0.27502,6.74439" stroke="#37354d"/></g><g data-paper-data="{&quot;index&quot;:null}" stroke-linecap="butt"><path d="M122.70618,367.90467c-0.33307,-6.46393 0.10003,-11.74023 4.5245,-11.96821c3.96945,-0.20453 5.39757,4.97585 5.73065,11.43979c0.33307,6.46394 -0.08717,11.98988 -4.51165,12.21786c-4.87949,0.25142 -5.41044,-5.22553 -5.74351,-11.68946z" stroke="#37354d"/><path d="M123.2017,359.52252c0.62489,-2.12133 1.83719,-3.47314 4.029,-3.58608c1.96639,-0.10133 3.30914,1.11883 4.20405,3.16186" stroke="#565378"/><path d="M133.00436,372.28501c-0.22241,4.13549 -1.31537,7.14218 -4.55466,7.3091c-3.57242,0.18408 -4.81398,-2.70234 -5.35349,-6.79856" stroke="#1a1830"/></g><g data-paper-data="{&quot;index&quot;:null}" stroke-linecap="round"><path d="M128.75757,391.02837l-0.82333,-15.9788" stroke="#565378"/><path d="M128.75758,391.02837l-0.24442,-4.7437" stroke="#1a1830"/><path d="M128.14008,379.04425l0.34734,6.74106" stroke="#37354d"/></g><g data-paper-data="{&quot;index&quot;:null}" stroke-linecap="butt"><path d="M120.49575,337.36494c-0.38202,-6.46123 0.0111,-11.74066 4.43372,-12.00214c3.96778,-0.2346 5.43512,4.93483 5.81713,11.39606c0.38202,6.46123 0.00365,11.99019 -4.41896,12.25168c-4.87745,0.28838 -5.44987,-5.18439 -5.83188,-11.64561z" stroke="#37354d"/><path d="M120.92778,328.97927c0.60881,-2.12601 1.81084,-3.48694 4.00172,-3.61649c1.96557,-0.11623 3.31752,1.09371 4.22788,3.12991" stroke="#565378"/><path d="M130.82682,341.66717c-0.19108,4.13707 -1.26122,7.15195 -4.49917,7.34339c-3.57093,0.21112 -4.8343,-2.6658 -5.40482,-6.75783" stroke="#1a1830"/></g><g data-paper-data="{&quot;index&quot;:null}" stroke-linecap="round"><path d="M127.19754,360.16347l-0.94434,-15.97212" stroke="#565378"/><path d="M126.9172,355.42174l0.28034,4.74173" stroke="#1a1830"/><path d="M126.4893,348.18438l0.39839,6.73823" stroke="#37354d"/></g><g data-paper-data="{&quot;index&quot;:null}" stroke-linecap="butt"><path d="M125.51692,291.93382c3.96889,0.21489 4.84317,5.51694 4.49325,11.97998c-0.34993,6.46303 -1.35012,11.91394 -5.774,11.67441c-4.87883,-0.26416 -4.82967,-5.76656 -4.47973,-12.22961c0.34993,-6.46303 1.33662,-11.66432 5.76048,-11.42479z" stroke="#37354d"/><path d="M121.13247,295.07536c0.84495,-2.04366 2.19296,-3.26018 4.38446,-3.14153c1.96613,0.10645 3.17282,1.46128 3.84746,3.58724" stroke="#565378"/><path d="M129.53569,308.79974c-0.65695,4.08903 -2.06065,6.96382 -5.29951,6.78845c-3.57194,-0.1934 -4.50241,-3.19455 -4.60726,-7.32484" stroke="#1a1830"/></g><g data-paper-data="{&quot;index&quot;:null}" stroke-linecap="round"><path d="M124.69224,328.61274l0.73344,-15.98318" stroke="#565378"/><path d="M124.69225,328.61274l0.21774,-4.74501" stroke="#1a1830"/><path d="M125.24233,316.62535l-0.30943,6.7429" stroke="#37354d"/></g><g data-paper-data="{&quot;index&quot;:null}" stroke-linecap="round"><path d="M128.47003,281.45847l-3.02625,15.7112" stroke="#565378"/><path d="M125.44379,297.16968l0.89841,-4.66426" stroke="#1a1830"/><path d="M127.71348,285.38626l-1.2767,6.62816" stroke="#37354d"/></g></g></g><text transform="translate(368,344.86463) scale(1.04432,1.04432)" font-size="40" xml:space="preserve" fill="#000000" fill-rule="nonzero" stroke="none" stroke-width="1" stroke-linecap="butt" stroke-linejoin="miter" stroke-miterlimit="10" stroke-dasharray="" stroke-dashoffset="0" font-family="Handwriting" font-weight="normal" text-anchor="start" style="mix-blend-mode: normal"><tspan x="0" dy="0">X Phase 2</tspan></text></g></g></svg>