<svg version="1.1" xmlns="http://www.w3.org/2000/svg" xmlns:xlink="http://www.w3.org/1999/xlink" width="256.81054" height="224.94965" viewBox="0,0,256.81054,224.94965"><defs><linearGradient x1="1077.66312" y1="216.06021" x2="1077.66312" y2="354.07601" gradientUnits="userSpaceOnUse" id="color-1"><stop offset="0" stop-color="#ffffff" stop-opacity="0.26046"/><stop offset="1" stop-color="#ffffff" stop-opacity="0"/></linearGradient><linearGradient x1="1077.66312" y1="216.06021" x2="1077.66312" y2="354.07601" gradientUnits="userSpaceOnUse" id="color-2"><stop offset="0" stop-color="#ffffff" stop-opacity="0.26046"/><stop offset="1" stop-color="#ffffff" stop-opacity="0"/></linearGradient><linearGradient x1="1077.66312" y1="216.06021" x2="1077.66312" y2="354.07601" gradientUnits="userSpaceOnUse" id="color-3"><stop offset="0" stop-color="#ffffff" stop-opacity="0.26046"/><stop offset="1" stop-color="#ffffff" stop-opacity="0"/></linearGradient><linearGradient x1="1036.02754" y1="220.12049" x2="1036.02754" y2="358.13627" gradientUnits="userSpaceOnUse" id="color-4"><stop offset="0" stop-color="#ffffff" stop-opacity="0.26046"/><stop offset="1" stop-color="#ffffff" stop-opacity="0"/></linearGradient><linearGradient x1="1036.02754" y1="220.12049" x2="1036.02754" y2="358.13627" gradientUnits="userSpaceOnUse" id="color-5"><stop offset="0" stop-color="#ffffff" stop-opacity="0.26046"/><stop offset="1" stop-color="#ffffff" stop-opacity="0"/></linearGradient><linearGradient x1="1036.02754" y1="220.12049" x2="1036.02754" y2="358.13627" gradientUnits="userSpaceOnUse" id="color-6"><stop offset="0" stop-color="#ffffff" stop-opacity="0.26046"/><stop offset="1" stop-color="#ffffff" stop-opacity="0"/></linearGradient><linearGradient x1="249.1849" y1="105.04022" x2="249.24928" y2="185.22867" gradientUnits="userSpaceOnUse" id="color-7"><stop offset="0" stop-color="#cedee0" stop-opacity="0"/><stop offset="1" stop-color="#cedee0" stop-opacity="0.19676"/></linearGradient></defs><g transform="translate(-182.82722,-60.01592)"><g data-paper-data="{&quot;isPaintingLayer&quot;:true}" fill-rule="nonzero" stroke-linejoin="miter" stroke-miterlimit="10" stroke-dasharray="" stroke-dashoffset="0" style="mix-blend-mode: normal"><g stroke="none"><path d="M333.47813,182.30592l20.91411,3.65793l-10.33045,59.06299l-20.91411,-3.65793z" fill="#3a2f41" stroke-width="0.78636" stroke-linecap="butt"/><path d="M348.99722,185.02787l54.41539,9.51761l-3.69184,21.10772l-54.41538,-9.51751z" fill="#3a2f41" stroke-width="0.78636" stroke-linecap="butt"/><path d="M344.88342,198.27849l7.35873,1.2871l-7.95951,45.5076l-7.35863,-1.28712z" fill="#8c9ca0" stroke-width="0.78636" stroke-linecap="butt"/><path d="M352.12197,199.66049l48.79954,8.53529l-1.35478,7.74603l-48.79965,-8.53536z" fill="#8c9ca0" stroke-width="0.84105" stroke-linecap="butt"/><g stroke-width="0.78636"><path d="M423.52612,190.07664c5.28891,0.92502 9.70649,3.91135 12.56953,7.98931c2.864,4.07724 4.17368,9.24616 3.24855,14.53509c-0.92502,5.28891 -3.91137,9.70639 -7.98931,12.56953c-4.07724,2.864 -9.24616,4.17368 -14.53509,3.24855c-5.28891,-0.92502 -9.70649,-3.91135 -12.56953,-7.98931c-2.864,-4.07724 -4.17368,-9.24616 -3.24855,-14.53509c0.92502,-5.28891 3.91135,-9.70649 7.98928,-12.56962c4.07724,-2.864 9.24618,-4.17358 14.53512,-3.24845z" fill="#3a2f41" stroke-linecap="butt"/><path d="M408.11644,186.40482c2.05652,0.35972 3.52063,2.97474 4.22307,6.90942c0.70246,3.93477 0.645,9.1878 -0.34089,14.82458c-0.98591,5.63669 -2.71489,10.59747 -4.71122,14.06013c-1.99622,3.46274 -4.26102,5.42557 -6.31754,5.06586c-2.05662,-0.3597 -3.52073,-2.97473 -4.22307,-6.90942c-0.70246,-3.93477 -0.64502,-9.1879 0.34089,-14.82458c0.98589,-5.63679 2.71489,-10.59747 4.71113,-14.06011c1.99632,-3.46276 4.26112,-5.4256 6.31764,-5.06588z" fill="#3a2f41" stroke-linecap="butt"/><path d="M415.7487,201.71457c1.7095,0.29898 3.00826,2.00217 3.72517,4.5121c0.71765,2.51008 0.79259,6.26718 0.23616,9.35258c-0.74441,4.12386 -1.54549,8.93638 -4.17192,12.44218c-0.86703,1.13676 -2.962,-0.6554 -4.3523,-1.35997c-1.44227,-0.8733 -3.48474,-1.60579 -4.01362,-3.29646c-0.99857,-3.16822 -0.47214,-6.73473 0.14431,-9.9534c0.59234,-3.09438 1.86955,-6.59986 3.39662,-8.71719c1.5263,-2.11758 3.32608,-3.27883 5.03557,-2.97986z" fill="#8c9ca0" stroke-linecap="round"/></g></g><path d="" fill="#3a2f41" stroke="none" stroke-width="0" stroke-linecap="butt"/><path d="" fill="#3a2f41" stroke="url(#color-1)" stroke-width="0.5" stroke-linecap="butt"/><path d="" fill="#3a2f41" stroke="url(#color-2)" stroke-width="0.5" stroke-linecap="butt"/><path d="" fill="#3a2f41" stroke="url(#color-3)" stroke-width="0.5" stroke-linecap="butt"/><path d="" data-paper-data="{&quot;index&quot;:null}" fill="#3a2f41" stroke="url(#color-4)" stroke-width="0.5" stroke-linecap="butt"/><path d="" data-paper-data="{&quot;index&quot;:null}" fill="#3a2f41" stroke="url(#color-5)" stroke-width="0.5" stroke-linecap="butt"/><path d="" data-paper-data="{&quot;index&quot;:null}" fill="#3a2f41" stroke="url(#color-6)" stroke-width="0.5" stroke-linecap="butt"/><g data-paper-data="{&quot;index&quot;:null}" stroke="#3a2f41" stroke-linecap="butt"><path d="M183.75541,115.06745l3.91863,-12.64525l7.60977,5.4234l-5.66984,-9.06217l16.48841,-17.33458c0,0 2.14415,17.28099 8.17558,33.08817c2.34133,3.54917 -6.82257,9.11614 -6.82257,9.11614z" fill="#3a2f41" stroke-width="1.5"/><path d="M213.18676,120.95504c-1.97046,-1.54485 2.58622,-20.17728 5.8755,-24.1496c1.33046,-1.60672 14.50214,13.75226 12.81074,15.79488c-3.28928,3.97231 -15.76436,10.64545 -17.73481,9.10062z" data-paper-data="{&quot;index&quot;:null}" fill="#8c9ca0" stroke-width="2"/><path d="M213.9622,121.14707c1.6405,1.83307 -6.76788,15.15862 -10.74094,18.02025c-2.04302,1.47151 -16.22677,-13.15254 -14.61974,-14.31001c3.97304,-2.86162 22.92808,-6.42838 24.56857,-4.59531z" fill="#e1e2db" stroke-width="1.5"/><path d="M218.27181,117.58162c1.5555,2.67638 0.76411,6.03884 -1.76763,7.51027c-2.5317,1.47141 -5.84507,0.49459 -7.40056,-2.18182c-1.5555,-2.67638 -0.76411,-6.03884 1.76763,-7.51026c2.5317,-1.47141 5.84507,-0.49458 7.40056,2.18181z" fill="#e1e2db" stroke-width="2"/></g><path d="M293.12021,180.01001l-18.90972,-2.08344l-0.04835,-10.21871c0,0 -1.23904,10.37854 -1.65743,10.26383c-5.35055,-0.42416 -10.64694,-0.76364 -15.71218,-1.03535c-21.27908,-1.14138 -38.479,-1.08633 -38.479,-1.08633c0,0 -6.59365,-11.70244 -6.60246,-22.66941c-0.00616,-7.66392 0.86927,-22.80464 11.68915,-34.60266c8.72628,-9.51516 24.04564,-12.48243 27.22348,-12.61414c2.54102,-0.10533 13.27846,3.82643 19.64458,9.81278c10.59692,9.9648 22.48024,32.43343 22.48024,32.43343z" fill="#3a2f41" stroke="none" stroke-width="0" stroke-linecap="butt"/><g stroke-linecap="butt"><path d="M281.72184,151.03066c0.00545,6.79026 1.56468,12.84684 -3.283,17.23381c-4.71242,4.26456 -15.29303,5.74397 -26.09279,5.98256c-10.74908,0.23749 -21.54192,-2.18699 -26.29077,-6.62086c-4.80426,-4.48558 -3.88481,-9.81336 -3.89021,-16.54772c-0.01074,-13.39106 9.03584,-30.40792 34.0266,-29.6895c16.43907,0.47257 25.51945,16.25062 25.53019,29.6417z" fill="#e1e2db" stroke="none" stroke-width="0"/><path d="M281.72184,151.03066c0.01076,13.39106 -12.14853,4.97913 -25.63495,5.09621c-13.48371,0.11705 -33.9111,8.34266 -33.92184,-5.04841c-0.01074,-13.39106 9.03584,-30.40792 34.0266,-29.6895c16.43907,0.47257 25.51945,16.25063 25.53019,29.6417z" fill="#b8c1c0" stroke="none" stroke-width="0"/><path d="M260.85096,121.96101c13.48692,2.99763 21.88473,16.46538 21.89441,28.53226l0.00043,0.53656c0.0051,6.35193 0.28424,12.3272 -3.91192,16.62929c-4.65015,4.76752 -14.58688,6.33315 -26.10381,6.5876c-7.95641,0.17578 -17.58857,-1.2534 -22.16474,-3.81206c-7.8607,-4.39513 -8.39345,-10.8924 -8.40023,-19.35621c-0.00913,-11.36644 6.50735,-25.3452 23.76104,-28.87296" fill="none" stroke="#3a2f41" stroke-width="2"/></g><path d="M206.89843,172.48213l-9.14301,-7.09488c0,0 -2.20729,-23.61536 8.09762,-38.97363c13.29169,-19.80966 36.7568,-27.51427 59.92636,-21.83416c4.96345,1.21681 17.47988,5.39073 24.82695,13.82202c8.82593,10.12839 11.87669,23.01764 11.87669,23.01764l-4.92645,-0.7696l0.95129,10.18905c0,0 -2.70765,-0.68892 -2.7254,-0.90541c-0.39753,-4.85065 -1.4057,-9.66577 -1.4057,-9.66577c0,0 0.75878,3.93594 0.27738,9.75448c-2.8252,-0.52588 -18.54976,-2.16951 -18.54976,-2.16951l-2.14204,-4.37113l-0.37541,4.09544l-13.65921,-1.2472l-1.46807,-15.4024l-0.19947,14.99509c0,0 -12.2215,-0.10396 -18.13168,0.11771c-0.41687,0.01564 -2.00404,-6.46725 -2.00404,-6.46725c0,0 -0.14327,6.76685 -0.45468,6.77251c-3.68087,0.06673 -8.75358,0.73397 -8.75358,0.73397c0,0 0.09498,34.19596 -0.03986,34.21152c-2.09738,0.24238 -19.91403,-6.26066 -19.88544,-7.66995c0.04131,-2.03591 -1.25038,-13.49148 -1.25038,-13.49148z" fill="#3a2f41" stroke="url(#color-7)" stroke-width="0.5" stroke-linecap="butt"/><path d="M256.95549,115.74141c14.13421,-30.80693 41.94643,-42.22806 41.94643,-42.22806l-11.49679,55.55042" fill="#3a2f41" stroke="#3a2f41" stroke-width="1.5" stroke-linecap="round"/><path d="M201.82098,136.54652c11.39857,-46.58239 43.13293,-75.00141 43.13293,-75.00141l5.6515,50.43894" fill="#3a2f41" stroke="#3a2f41" stroke-width="1.5" stroke-linecap="round"/><g stroke="#3a2f41" stroke-linecap="butt"><path d="M227.37888,157.41628c0,0 4.20499,-4.16809 11.81636,-4.12907c8.06426,0.04136 12.32099,5.14637 12.32099,5.14637c0,0 -5.11656,-0.40873 -12.45677,-0.62516c-6.52255,-0.19233 -11.68057,-0.39213 -11.68057,-0.39213z" fill="#e1e2db" stroke-width="1"/><g fill="#3a2f41" stroke-width="0.5"><path d="M237.49263,157.90411l0.07166,-4.49531l2.98838,0.00181l-0.17671,4.5372z"/></g></g><g><path d="M226.29338,247.31905l48.0244,-0.7853c0,0 5.28896,11.94195 8.66624,19.41765c1.01081,2.23748 1.85037,4.07486 2.32563,5.07225c0.81872,3.0182 1.84682,7.23865 2.99369,12.18631c-24.42462,0.17215 -48.84703,0.47558 -72.95423,0.73453c5.114,-18.14585 10.94429,-36.62542 10.94429,-36.62542z" fill="#e1e2db" stroke="none" stroke-width="0" stroke-linecap="round"/><path d="M214.34089,272.40984c3.19534,-14.32135 15.26578,-29.93679 15.26578,-29.93679l42.83537,-0.96214c0,0 5.70033,10.82614 7.52847,14.99505c1.26759,2.8906 2.38841,7.61937 2.38841,7.61937l-25.25896,18.96617c-15.01087,0.15533 -29.97027,0.33204 -44.80503,0.48907c0.79018,-4.74878 1.51246,-8.77964 2.04595,-11.17073z" fill="#8c9ca0" stroke="none" stroke-width="0" stroke-linecap="butt"/><path d="M213.37644,283.96557c0.83389,-4.66219 1.66403,-8.92134 2.46666,-12.51874c2.8729,-12.87653 13.77556,-28.56137 13.77556,-28.56137l42.48231,-0.50823c0,0 6.72589,8.8977 12.12365,27.34887c0.89614,3.06331 2.10924,7.79848 3.49261,13.48799" fill="none" stroke="#3a2f41" stroke-width="2" stroke-linecap="round"/><path d="M275.84663,249.26053l-20.78879,10.78915l-29.25159,-9.74749" fill="none" stroke="#3a2f41" stroke-width="1.5" stroke-linecap="round"/></g><path d="M252.55479,252.08215c-9.21827,0.02957 -24.26341,-9.84864 -24.26341,-9.84864c0,0 1.23293,-5.14501 2.19457,-7.92908c0.87601,-2.53618 2.82277,-8.10118 2.82277,-8.10118c0,0 0.56263,-3.92979 -1.71349,-8.07906c-1.42604,-2.5996 -9.32627,-13.1153 -9.34163,-13.47799c-0.00295,-0.06973 1.0116,-3.80857 2.70832,-7.7925c1.96945,-4.62426 9.2059,-12.09043 12.48866,-13.84696c3.57641,-1.91366 8.42943,-2.78531 12.14934,-2.68693c5.68502,0.15033 11.56684,1.24983 16.71179,4.0374c1.93883,1.05047 5.45941,3.88028 5.45941,3.88028c0,0 5.97581,7.78965 8.48298,17.2921c-3.70751,10.18282 -12.06907,14.38888 -12.06907,14.38888l-1.02448,6.93058c0,0 2.04432,5.10097 2.85658,7.64502c0.80955,2.53552 2.00893,7.5938 2.00893,7.5938c0,0 -10.25297,9.96474 -19.47125,9.99431z" fill="#3a2f41" stroke="#8c9ca0" stroke-width="1.5" stroke-linecap="round"/><g data-paper-data="{&quot;index&quot;:null}" stroke="#3a2f41" stroke-linecap="butt"><g data-paper-data="{&quot;index&quot;:null}"><g stroke-width="0"><path d="" fill="#e1e2db"/><path d="" fill="#e1e2db"/><path d="" fill="#8c9ca0"/></g><path d="M278.49232,278.72668l37.25081,-2.26596l0.39182,6.61948c-12.44109,0.02396 -24.9126,0.09951 -37.37291,0.20328z" fill="#e1e2db" stroke-width="0"/><path d="M278.49231,278.72668l37.25083,-2.26596l0.3918,6.61949c-12.44109,0.02396 -24.91259,0.09951 -37.37291,0.20328z" fill="#8c9ca0" stroke-width="0"/><path d="M305.50345,277.36022l10.27956,-0.62529l0.37558,6.34523" fill="none" stroke-width="2"/><path d="M278.78566,283.28328l-0.25348,-4.28239l12.11137,-0.73672" fill="none" stroke-width="2"/></g><g data-paper-data="{&quot;index&quot;:null}"><path d="M281.08876,245.07217l-16.39806,-39.41936l5.59036,-15.49799c0,0 8.31892,9.81887 12.89119,16.20517c8.30224,11.5962 32.81026,47.62856 32.81026,47.62856l1.83977,29.08872c-13.03483,0.02017 -26.10513,0.09815 -39.163,0.20707z" fill="#3a2f41" stroke-width="1.5"/><path d="" fill="#8ea8ab" stroke-width="2"/></g></g><g fill="#8c9ca0" stroke="#3a2f41" stroke-width="1.5" stroke-linecap="butt"><path d="M254.70611,199.05986c-0.10718,1.84615 -1.75807,3.25193 -3.68737,3.13992c-1.92929,-0.11201 -3.4064,-1.6994 -3.29922,-3.54555c0.10718,-1.84615 1.75808,-3.25194 3.68738,-3.13993c1.92929,0.11201 3.4064,1.69942 3.29921,3.54556z"/><path d="M254.77201,209.10244c-0.11091,1.91031 -1.8357,3.364 -3.85243,3.24691c-2.01673,-0.1171 -3.56167,-1.76062 -3.45076,-3.67093c0.11091,-1.91031 1.83569,-3.36399 3.85241,-3.24691c2.01673,0.1171 3.5617,1.76062 3.45079,3.67093z"/></g><g stroke="#3a2f41" stroke-width="2"><g fill="#e1e2db"><path d="M336.93498,235.19944l12.84908,-23.68047l0.75224,26.73242z" stroke-linecap="round"/><path d="M342.38913,235.36934l9.76302,-21.95845l2.54577,28.50098z" stroke-linecap="round"/><path d="M275.51385,232.32225l3.47938,-3.17541l-11.32309,-4.46281l8.976,-1.88003l-2.00324,-3.79559c0,0 22.35824,2.78877 29.26342,3.17399c4.42637,0.24695 7.47002,0.28709 7.47002,0.28709l11.72717,-14.67958l27.12578,3.28039c0,0 -22.075,5.99407 -18.96098,10.41353c0.76322,1.08319 21.86792,9.80833 21.86792,9.80833l-1.75811,-19.32336l11.51576,31.48755c0,0 -13.76461,-0.57109 -22.2843,-1.97485c-8.51969,-1.40376 20.89224,1.98467 22.26651,2.07524l-19.04912,3.96741c0,0 -12.95963,-2.83927 -17.46279,-3.5322c-13.13874,-2.02177 -50.85037,-11.66972 -50.85037,-11.66972z" stroke-linecap="butt"/></g><g stroke-linecap="butt"><path d="M309.05237,247.87257l-38.98487,-5.70981c0,0 -33.06095,-26.7109 -43.66763,-35.71049c-5.84136,-4.9563 7.74167,-14.90509 7.74167,-14.90509l30.05546,15.98249l51.31288,0.96337z" fill="#3a2f41"/><path d="M302.29612,246.83889l-2.13204,-0.48069l4.37366,-37.94221l2.10479,0.2089z" fill="#8ea8ab"/></g></g><g><path d="M258.72466,179.9375c0,2.04567 -5.29309,5.83964 -7.54147,5.83964c-2.24839,0 -7.40799,-3.39354 -7.40799,-5.4392c0,-2.04567 5.35983,-3.17008 7.60821,-3.17008c2.24838,0 7.34127,0.72399 7.34127,2.76966z" fill="#3a2f41" stroke="none" stroke-width="0" stroke-linecap="butt"/><g fill="#8c9ca0" stroke="#8c9ca0" stroke-width="1.5" stroke-linecap="butt"><path d="M233.61624,194.1077c-0.77248,-0.75621 9.55472,-14.67052 9.55472,-14.67052l7.71232,5.82992l8.16733,-6.5042c0,0 10.42614,13.98379 9.82055,14.75081c-0.33485,0.42412 -3.99994,-1.51286 -8.56085,-2.90358c-4.19557,-1.27934 -9.32983,-2.0061 -9.32983,-2.0061c0,0 -5.43509,1.38827 -9.88163,2.90086c-4.06571,1.38303 -7.16051,2.91813 -7.48261,2.60284z"/></g><path d="M243.17454,181.10542l0.50723,-1.92207l7.31457,-2.21572l7.59486,1.64177l0.80087,1.96211" fill="none" stroke="#8c9ca0" stroke-width="2" stroke-linecap="round"/></g><path d="" fill="#3a2f41" stroke="#8c9ca0" stroke-width="2" stroke-linecap="butt"/><path d="" fill="#3a2f41" stroke="#8c9ca0" stroke-width="2" stroke-linecap="butt"/><path d="M247.96512,151.65395h-18.4" fill="none" stroke="#3a2f41" stroke-width="1" stroke-linecap="round"/></g></g></svg>