<svg version="1.1" xmlns="http://www.w3.org/2000/svg" xmlns:xlink="http://www.w3.org/1999/xlink" width="207.0306" height="40.7104" viewBox="0,0,207.0306,40.7104"><g transform="translate(-147,-123.6521)"><g data-paper-data="{&quot;isPaintingLayer&quot;:true}" fill-rule="nonzero" stroke-linejoin="miter" stroke-miterlimit="10" stroke-dasharray="" stroke-dashoffset="0" style="mix-blend-mode: normal"><g><path d="M148.5,123.6521h204v32.5h-204z" fill="#000000" stroke="none" stroke-width="1.20678" stroke-linecap="butt"/><text transform="translate(215.8761,131.01674) scale(0.68804,0.1707)" font-size="22" xml:space="preserve" fill="#ffffff" fill-rule="nonzero" stroke="none" stroke-width="1" stroke-linecap="butt" stroke-linejoin="miter" stroke-miterlimit="10" stroke-dasharray="" stroke-dashoffset="0" font-family="Sans Serif" font-weight="400" text-anchor="start" style="mix-blend-mode: normal"><tspan x="0" dy="0">sun</tspan></text><path d="M185.75,131.6393c4.759,0 9.072,0.4796 12.194,1.2544c3.123,0.7745 5.056,1.8445 5.056,3.0252c0,1.1807 -1.933,2.2507 -5.056,3.0252c-3.122,0.7748 -7.435,1.2544 -12.194,1.2544c-4.759,0 -9.072,-0.4796 -12.194,-1.2544c-3.123,-0.7745 -5.056,-1.8445 -5.056,-3.0252c0,-1.1807 1.933,-2.2507 5.056,-3.0252c3.122,-0.7748 7.435,-1.2544 12.194,-1.2544z" fill="#ffff00" stroke="none" stroke-width="0.72854" stroke-linecap="butt"/><path d="M185.5,130.0267c6.483,0 12.358,0.6532 16.613,1.7086c4.254,1.0557 6.887,2.5132 6.887,4.1216c0,1.6083 -2.633,3.0659 -6.887,4.1215c-4.255,1.0554 -10.13,1.7086 -16.613,1.7086c-6.483,0 -12.358,-0.6532 -16.613,-1.7086c-4.254,-1.0556 -6.887,-2.5132 -6.887,-4.1215c0,-1.6084 2.633,-3.0659 6.887,-4.1216c4.255,-1.0554 10.13,-1.7086 16.613,-1.7086z" fill="none" stroke="#666666" stroke-width="1.45709" stroke-linecap="butt"/><path d="M185.5,128.7863c8.139,0 15.514,0.8202 20.854,2.145c5.34,1.3248 8.646,3.1544 8.646,5.1737c0,2.0192 -3.306,3.8489 -8.646,5.1737c-5.34,1.3248 -12.715,2.145 -20.854,2.145c-8.139,0 -15.514,-0.8202 -20.854,-2.145c-5.34,-1.3248 -8.646,-3.1545 -8.646,-5.1737c0,-2.0193 3.306,-3.8489 8.646,-5.1737c5.34,-1.3248 12.715,-2.145 20.854,-2.145z" fill="none" stroke="#666666" stroke-width="1.45709" stroke-linecap="butt"/><path d="M204.5,141.687l-8,-2.3568" fill="none" stroke="#666666" stroke-width="1.45709" stroke-linecap="round"/><path d="M198,133.1279l9.5,-1.9848" fill="none" stroke="#666666" stroke-width="1.45709" stroke-linecap="round"/><path d="M164.5,131.1431l9,1.7367" fill="none" stroke="#666666" stroke-width="1.45709" stroke-linecap="round"/><path d="M161.5,140.6947l9,-2.1088" fill="none" stroke="#666666" stroke-width="1.45709" stroke-linecap="round"/><g><path d="M302.25,138.3378c4.759,0 9.072,0.4795 12.194,1.2543c3.123,0.7746 5.056,1.8446 5.056,3.0253c0,1.1806 -1.933,2.2507 -5.056,3.0252c-3.122,0.7748 -7.435,1.2543 -12.194,1.2543c-4.759,0 -9.072,-0.4795 -12.194,-1.2543c-3.123,-0.7745 -5.056,-1.8446 -5.056,-3.0252c0,-1.1807 1.933,-2.2507 5.056,-3.0253c3.122,-0.7748 7.435,-1.2543 12.194,-1.2543z" fill="#002699" stroke="none" stroke-width="0.72854" stroke-linecap="round"/><path d="M302.5,137.2214c6.483,0 12.358,0.6532 16.613,1.7086c4.254,1.0556 6.887,2.5131 6.887,4.1215c0,1.6084 -2.633,3.0659 -6.887,4.1216c-4.255,1.0554 -10.13,1.7086 -16.613,1.7086c-6.483,0 -12.358,-0.6532 -16.613,-1.7086c-4.254,-1.0557 -6.887,-2.5132 -6.887,-4.1216c0,-1.6084 2.633,-3.0659 6.887,-4.1215c4.255,-1.0554 10.13,-1.7086 16.613,-1.7086z" fill="none" stroke="#666666" stroke-width="1.45709" stroke-linecap="butt"/><path d="M302.25,135.6088c8.139,0 15.514,0.8202 20.854,2.145c5.34,1.3248 8.646,3.1545 8.646,5.1737c0,2.0192 -3.306,3.8489 -8.646,5.1737c-5.34,1.3248 -12.715,2.145 -20.854,2.145c-8.139,0 -15.514,-0.8202 -20.854,-2.145c-5.34,-1.3248 -8.646,-3.1545 -8.646,-5.1737c0,-2.0192 3.306,-3.8489 8.646,-5.1737c5.34,-1.3248 12.715,-2.145 20.854,-2.145z" fill="none" stroke="#666666" stroke-width="1.45709" stroke-linecap="butt"/><path d="M313,146.0286l8,2.3569" fill="none" stroke="#666666" stroke-width="1.45709" stroke-linecap="round"/><path d="M314.5,139.8263l9.5,-1.9847" fill="none" stroke="#666666" stroke-width="1.45709" stroke-linecap="round"/><path d="M290,139.5782l-9,-1.7366" fill="none" stroke="#666666" stroke-width="1.45709" stroke-linecap="round"/><path d="M287,145.2844l-9,2.1087" fill="none" stroke="#666666" stroke-width="1.45709" stroke-linecap="round"/><path d="M315.2611,139.7643c1.3591,0.1399 2.0576,0.7939 2.75,1.3025c0.811,0.5974 1.3206,1.3258 1.2833,1.9847c-0.0311,0.5771 -0.5903,1.1889 -1.6121,1.5784c-1.3615,0.519 -3.256,0.9576 -5.1712,1.0886c-1.3298,0.0392 -2.9834,-0.1719 -3.7583,-0.6202c-0.9491,-0.5649 -1.1996,-1.4784 -0.4584,-2.0468c0.8513,-0.6559 3.8018,-0.4803 4.7056,-1.1164c0.6356,-0.4461 -1.2949,-1.0866 -0.7333,-1.6126c0.3917,-0.389 1.8027,-0.6738 2.9944,-0.5582z" fill="#006622" stroke="none" stroke-width="0.46637" stroke-linecap="round"/><path d="M301.625,138.3998c0.963,-0.0037 1.512,0.3196 2.375,0.3101c0.954,0.0325 1.658,-0.293 2.5,-0.2481c1.598,0.0881 3.784,0.2313 4.25,0.6203c0.46,0.4044 -0.535,0.8239 -1.75,1.0544c-1.226,0.2319 -3.206,-0.002 -4.75,0.124c-1.015,0.1106 -1.513,0.4855 -2.625,0.5582c-2.096,0.1397 -4.892,0.4642 -6.875,0.1861c-1.449,-0.2846 -0.757,-0.9716 -0.5,-1.3955c0.193,-0.332 0.826,-0.6362 2.161,-0.855c1.336,-0.219 3.418,-0.3466 5.214,-0.3545z" fill="#006622" stroke="none" stroke-width="0.72854" stroke-linecap="round"/><path d="M294.25,141.563c2.537,0.0002 5.025,0.2468 6.918,0.6239c1.509,0.3002 3.36,0.8026 3.082,1.2988c-0.266,0.4475 -3.105,0.4748 -4.5,0.7443c-1.122,0.2719 -1.506,0.8135 -3,0.8683c-1.605,0.059 -3.243,-0.2243 -4.418,-0.4999c-1.608,-0.3746 -3.319,-0.8329 -3.082,-1.3608c-0.237,-0.4486 1.976,-0.7167 3.082,-1.0507c0.753,-0.2233 0.962,-0.6237 1.918,-0.6239z" fill="#006622" stroke="none" stroke-width="0.72854" stroke-linecap="round"/></g><text transform="translate(236.7056,146.50758) scale(0.57779,0.14335)" font-size="22" xml:space="preserve" fill="#ffffff" fill-rule="nonzero" stroke="none" stroke-width="1" stroke-linecap="butt" stroke-linejoin="miter" stroke-miterlimit="10" stroke-dasharray="" stroke-dashoffset="0" font-family="Sans Serif" font-weight="400" text-anchor="start" style="mix-blend-mode: normal"><tspan x="0" dy="0">earth</tspan></text><path d="M225.5,138.958l38,2.1088" fill="none" stroke="#7f7f7f" stroke-width="1.45709" stroke-linecap="round"/><path d="M261,141.9351l5,-1.3645" fill="none" stroke="#7f7f7f" stroke-width="1.45709" stroke-linecap="round"/><path d="M228.5,138.2137l-6,1.6126" fill="none" stroke="#7f7f7f" stroke-width="1.45709" stroke-linecap="round"/><path d="M232.5,139.7023l3.5,-0.7443" fill="none" stroke="#7f7f7f" stroke-width="1.45709" stroke-linecap="round"/><path d="M253.5,140.9427l2.5,-0.7442z" fill="none" stroke="#7f7f7f" stroke-width="1.45709" stroke-linecap="round"/><path d="M245.5,139.4542l-3,0.6202z" fill="none" stroke="#7f7f7f" stroke-width="1.45709" stroke-linecap="round"/></g><path d="M238.3235,143.3605c35.0724,0.0207 70.2555,-0.434 104.4686,2.579c8.7768,0.8938 10.3528,4.6738 11.0695,7.921c0.5812,2.7639 0.1246,6.7318 -8.9939,7.5527c-34.7957,3.1699 -70.6167,2.9186 -106.5442,2.9473c-27.2656,0.0207 -55.0072,-0.0633 -81.6764,-3.077c-6.6805,-0.7553 -9.3067,-4.2988 -9.6471,-7.2388c0.3404,-3.0092 2.9832,-6.8091 9.6471,-7.6071c26.5987,-3.1839 54.4108,-3.0918 81.6764,-3.0771z" fill="#e5e5e5" stroke="none" stroke-width="1.1085" stroke-linecap="round"/></g></g></svg>