<svg xmlns="http://www.w3.org/2000/svg" xmlns:xlink="http://www.w3.org/1999/xlink" version="1.1" width="520.799066066742" height="378.14235830307007" viewBox="5.360166788101196 -3.100333273410797 520.799066066742 378.14235830307007">
  <defs>
    <radialGradient id="grad_1" cx="0.5" cy="0.5138" r="0.66794">
      <stop offset="0" stop-color="#F66C98" stop-opacity="1"/>
      <stop offset="1" stop-color="#9A2E38" stop-opacity="1"/>
    </radialGradient>
    <radialGradient id="grad_2" cx="0.5095000000000001" cy="0.5111" r="0.66443">
      <stop offset="0" stop-color="#FFFFFF" stop-opacity="1"/>
      <stop offset="1" stop-color="#FFFFFF" stop-opacity="0"/>
    </radialGradient>
    <radialGradient id="grad_3" cx="0.5095000000000001" cy="0.5111" r="0.66443">
      <stop offset="0" stop-color="#FFFFFF" stop-opacity="1"/>
      <stop offset="1" stop-color="#FFFFFF" stop-opacity="0"/>
    </radialGradient>
    <radialGradient id="grad_4" cx="0.5095000000000001" cy="0.5111" r="0.66443">
      <stop offset="0" stop-color="#FFFFFF" stop-opacity="1"/>
      <stop offset="1" stop-color="#FFFFFF" stop-opacity="0"/>
    </radialGradient>
  <radialGradient id="grad_1-.579521417617798,0,0,3.417410135269165,-349.25,-828.35" cx="280.1532" cy="191.7141" r="310.0314" gradientUnits="userSpaceOnUse">
      <stop offset="0" stop-color="#F66C98" stop-opacity="1"/>
      <stop offset="1" stop-color="#9A2E38" stop-opacity="1"/>
    </radialGradient><radialGradient id="grad_2-.579521417617798,0,0,3.417410135269165,-350.45,-828" cx="283.5603" cy="191.0676" r="308.4022" gradientUnits="userSpaceOnUse">
      <stop offset="0" stop-color="#FFFFFF" stop-opacity="1"/>
      <stop offset="1" stop-color="#FFFFFF" stop-opacity="0"/>
    </radialGradient><radialGradient id="grad_3-.579521417617798,0,0,3.417410135269165,-351.45,-829" cx="282.5603" cy="190.0676" r="308.4022" gradientUnits="userSpaceOnUse">
      <stop offset="0" stop-color="#FFFFFF" stop-opacity="1"/>
      <stop offset="1" stop-color="#FFFFFF" stop-opacity="0"/>
    </radialGradient><radialGradient id="grad_4-.579521417617798,0,0,3.417410135269165,-350.45,-830" cx="283.5603" cy="189.0676" r="308.4022" gradientUnits="userSpaceOnUse">
      <stop offset="0" stop-color="#FFFFFF" stop-opacity="1"/>
      <stop offset="1" stop-color="#FFFFFF" stop-opacity="0"/>
    </radialGradient></defs>
  <!-- Exported by Scratch - http://scratch.mit.edu/ -->
  <path id="ID0.9129331279546022" fill="url(#grad_1-.579521417617798,0,0,3.417410135269165,-349.25,-828.35)" stroke="none" d="M 37.6782 2.0807 L 522.6282 2.0807 L 522.6282 371.161 L 37.6782 371.161 L 37.6782 2.0807 Z " stroke-width="3.027591681236866"/>
  <g id="ID0.901408904697746">
    <path id="ID0.7797387707978487" fill="#D33445" stroke="#D33445" stroke-width="7.062066555023193" stroke-linecap="round" d="M 8.8912 109.8653 L 50.3808 72.7894 L 78.6291 86.9136 L 95.4015 85.1481 L 145.7187 96.6239 L 122.767 115.1618 L 139.5394 134.5825 L 153.6635 112.5136 L 177.498 135.4653 L 159.8428 142.5273 L 124.5325 178.7204 L 92.7532 181.3687 L 131.5946 206.9687 L 203.9808 235.217 L 196.9187 257.2859 L 169.5532 282.8859 L 166.9049 317.3135 L 149.2497 292.5963 L 145.7187 252.8721 L 124.5325 230.8032 L 129.8291 214.0308 L 81.2774 194.6101 L 52.1463 162.8308 L 56.5601 132.817 L 46.8498 111.6308 L 8.8912 109.8653 Z "/>
    <path id="ID0.5276037878356874" fill="#D33445" stroke="#D33445" stroke-width="7.062066555023193" stroke-linecap="round" d="M 196.9187 86.0308 L 188.9739 65.7274 L 217.2221 49.8377 L 245.4704 57.7825 L 228.698 101.0377 L 197.8015 113.3963 L 196.9187 86.0308 Z "/>
    <path id="ID0.22614181134849787" fill="#D33445" stroke="#D33445" stroke-width="7.062066555023193" stroke-linecap="round" d="M 288.7256 154.886 L 256.9463 157.5342 L 311.6773 122.2239 L 301.0842 109.8653 L 277.2497 123.9894 L 294.9049 97.5067 L 322.2704 105.4515 L 356.698 93.0929 L 373.4704 65.7274 L 394.6566 73.6722 L 484.6979 72.7894 L 486.4634 100.1549 L 464.3945 116.0446 L 476.7531 135.4653 L 452.0359 158.417 L 457.3324 182.2515 L 436.1462 193.7273 L 463.5117 229.9204 L 421.1393 192.8446 L 405.2497 192.8446 L 392.0083 206.9687 L 382.2979 187.548 L 363.76 184.017 L 342.5738 200.7894 L 324.9187 169.0101 L 288.7256 154.886 Z "/>
    <path id="ID0.9972305246628821" fill="#D33445" stroke="#D33445" stroke-width="7.062066555023193" stroke-linecap="round" d="M 447.6221 260.817 L 445.8565 258.1687 L 479.4014 240.5135 L 488.4055 245.6335 L 495.9972 259.228 L 486.4634 277.5894 L 467.0427 266.1135 L 451.1531 273.1756 Z "/>
    <path id="ID0.4784054202027619" fill="#D33445" stroke="#D33445" stroke-width="7.062066555023193" stroke-linecap="round" d="M 251.6497 214.9135 L 240.1739 199.9066 L 265.7738 169.0101 L 294.9049 177.8377 L 322.2704 178.7204 L 332.8635 201.6722 L 351.4014 208.7342 L 333.7462 229.0377 L 312.56 272.2928 L 298.4359 272.2928 L 286.96 249.3411 L 286.0773 221.0928 L 251.6497 214.9135 Z "/>
    <path id="ID0.1744393603876233" fill="none" stroke="#D33445" stroke-width="7.062066555023193" stroke-linecap="round" d="M 337.2773 259.0514 L 345.2221 244.0446 "/>
    <path id="ID0.20900010224431753" fill="none" stroke="#D33445" stroke-width="7.062066555023193" stroke-linecap="round" d="M 110.4084 84.2653 L 107.7601 71.0239 Z "/>
    <path id="ID0.7906406973488629" fill="#D33445" stroke="#D33445" stroke-width="7.062066555023193" stroke-linecap="round" d="M 149.2497 95.7412 L 106.8773 83.7356 L 107.7601 70.1412 L 137.7739 56.8998 L 158.9601 66.6101 L 196.0359 44.5412 L 166.0222 82.4998 L 177.498 102.8032 L 161.6084 113.3963 L 158.0773 93.0929 L 149.2497 95.7412 Z "/>
  </g>
  <path id="ID0.9129331279546022" fill="url(#grad_2-.579521417617798,0,0,3.417410135269165,-350.45,-828)" stroke="none" d="M 36.4782 2.4307 L 521.4282 2.4307 L 521.4282 371.511 L 36.4782 371.511 L 36.4782 2.4307 Z " stroke-width="3.027591681236866"/>
  <path id="ID0.9129331279546022" fill="url(#grad_3-.579521417617798,0,0,3.417410135269165,-351.45,-829)" stroke="none" d="M 35.4782 1.4307 L 520.4282 1.4307 L 520.4282 370.511 L 35.4782 370.511 L 35.4782 1.4307 Z " stroke-width="3.027591681236866"/>
  <path id="ID0.9129331279546022" fill="url(#grad_4-.579521417617798,0,0,3.417410135269165,-350.45,-830)" stroke="none" d="M 36.4782 0.4307 L 521.4282 0.4307 L 521.4282 369.511 L 36.4782 369.511 L 36.4782 0.4307 Z " stroke-width="3.027591681236866"/>
</svg>