<svg version="1.1" xmlns="http://www.w3.org/2000/svg" xmlns:xlink="http://www.w3.org/1999/xlink" width="366.99078" height="439.32568" viewBox="0,0,366.99078,439.32568"><g transform="translate(-47.31667,-62.60785)"><g data-paper-data="{&quot;isPaintingLayer&quot;:true}" fill-rule="nonzero" stroke-linejoin="miter" stroke-miterlimit="10" stroke-dasharray="" stroke-dashoffset="0" style="mix-blend-mode: normal"><path d="M220.12509,194.70042c0,0 -4.12126,27.96026 -19.73333,47.68889c-11.1837,14.1326 -36.17778,25.48889 -36.17778,25.48889l32.06667,-30.83333c0,0 -5.96881,6.38331 -17.3799,12.95906c-10.65257,6.13865 -26.57632,12.33933 -32.43153,16.54776c-7.56707,5.43884 -15.96635,17.77096 -15.96635,17.77096c0,0 -2.32294,-33.40699 -0.27232,-45.19808c1.73254,-9.96215 11.78343,-20.99081 11.78343,-20.99081c0,0 -8.08954,1.53556 -13.41805,2.70001c-10.03864,2.19377 -19.47084,5.93332 -19.47084,5.93332c0,0 5.48357,-8.75919 13.01256,-14.91498c10.55295,-8.62823 17.40966,-12.62947 17.40966,-12.62947c0,0 -6.10676,-1.45468 -11.76434,-8.89543c-4.69911,-6.18019 -5.91344,-12.07124 -5.91344,-12.07124c0,0 28.48805,7.95411 51.8,-15.62222c15.82609,-16.00556 46.45556,32.06667 46.45556,32.06667z" fill="#e1e2db" stroke="#3a2f41" stroke-width="2" stroke-linecap="round"/><path d="M238.49935,119.89743c0,0 -8.33346,49.83011 -14.00155,66.88982c-3.48382,10.48554 -21.10433,20.72887 -21.10433,20.72887c0,0 5.60506,-18.90962 5.32533,-18.51003c-9.72838,13.89683 -34.96597,10.06586 -34.96597,10.06586c0,0 5.12864,-5.79108 7.72341,-12.84982c1.65008,-4.48882 1.61614,-6.1423 1.4515,-6.08268c-8.66839,3.13889 -31.65109,-11.40505 -31.65109,-11.40505c0,0 21.82564,-2.23581 24.22271,-9.17031c1.10394,-3.19359 -3.14535,-36.76963 -2.33333,-40c1.03705,-4.12557 21.2986,-17.20913 34.51884,-23.31982c8.18399,-3.78282 22.40363,-10.06758 29.42017,-12.44008c2.89,-0.97719 4.39432,-0.90676 4.39432,-0.90676l-3,37z" data-paper-data="{&quot;index&quot;:null}" fill="#3a2f41" stroke="#3a2f41" stroke-width="2" stroke-linecap="butt"/><path d="M225.97051,128.52929c0,-7.1797 14.25,-45.25 14.25,-45.25c0,0 25.50834,-5.24117 59.08135,16.67808c8.88608,6.34991 21.7359,-1.67246 21.7359,-1.67246c0,0 1.34842,12.39044 -3.46169,16.06786c-0.36069,0.27575 56.64443,21.75985 56.64443,21.75985c0,0 -24.23242,20.21108 -53.19398,26.59765c6.35201,2.98463 19.94398,6.15235 19.94398,6.15235c0,0 -16.09508,13.02097 -41.45505,11.70023c-0.1494,-0.02858 6.33867,12.38014 6.33867,12.38014c0,0 -14.09399,3.20719 -29.17568,-5.23414c-24.24363,-13.56934 -50.70794,-56.28904 -50.70794,-59.17957z" data-paper-data="{&quot;index&quot;:null}" fill="#e1e2db" stroke="#3a2f41" stroke-width="2" stroke-linecap="butt"/><g data-paper-data="{&quot;index&quot;:null}" stroke-linecap="butt"><path d="M289.73299,156.50098c-0.53682,8.94596 3.25762,16.88936 -4.23146,22.29455c-7.28014,5.25437 -22.62197,8.10377 -38.54124,7.58442c-12.52147,-0.40848 -24.74349,-2.11536 -31.37522,-6.28358c-10.24968,-6.44217 -11.18222,-17.41826 -10.53942,-28.12991c1.05867,-17.64229 15.74309,-39.36201 52.47852,-36.4864c24.16479,1.8916 32.76747,23.37863 31.7088,41.02093z" fill="#e1e2db" stroke="none" stroke-width="0"/><path d="M242.45864,116.26929c44.02701,-3.11293 47.70433,21.37249 46.75035,37.2702c0,0 4.42001,17.85708 -2.47825,23.50807c-7.2288,5.92178 -22.81806,10.42472 -39.79445,9.87088c-11.74173,-0.38304 -24.05531,-2.75977 -30.5894,-6.49131c-11.2033,-6.39804 -11.99394,-16.77892 -11.32525,-27.92215c0.89861,-14.97492 11.61427,-32.88756 37.29937,-36.20314" fill="none" stroke="#3a2f41" stroke-width="2"/></g><path d="M293.97992,124.38118c12.36183,12.23171 17.57774,27.00392 11.65007,32.99465c-5.92767,5.99073 -20.75424,0.93143 -33.11607,-11.30028c-12.36183,-12.23171 -17.57774,-27.00392 -11.65007,-32.99465c5.92767,-5.99073 20.75424,-0.93143 33.11607,11.30028z" data-paper-data="{&quot;index&quot;:null}" fill="#e1e2db" stroke="#8c9ca0" stroke-width="2" stroke-linecap="butt"/><path d="M217.7992,119.17994c17.93129,-9.42347 35.67357,-10.96201 39.6285,-3.43645c3.95493,7.52557 -7.37516,21.26547 -25.30645,30.68894c-17.93129,9.42347 -35.67357,10.96201 -39.6285,3.43645c-3.95493,-7.52557 7.37516,-21.26547 25.30645,-30.68894z" data-paper-data="{&quot;index&quot;:null}" fill="#e1e2db" stroke="#3a2f41" stroke-width="2" stroke-linecap="butt"/><path d="M272.66677,94.28279c0.95657,0.64053 5.6442,3.84055 4.49513,17.55349c-0.47612,5.68202 -0.92092,17.262 -4.68783,24.71994c-9.94703,19.69376 -21.29286,22.32607 -21.29286,22.32607c0,0 1.8925,-8.7623 0.5471,-20.34793c-1.35865,-11.69973 -5.30159,-21.75355 -3.94974,-26.41474c1.51054,-5.20834 8.73761,-12.88722 13.95888,-17.06348c4.07866,-3.26232 8.46747,-2.42179 10.9293,-0.77334z" data-paper-data="{&quot;index&quot;:null}" fill="#e1e2db" stroke="#8c9ca0" stroke-width="2" stroke-linecap="butt"/><path d="M224.1744,89.01073c0.46465,-0.7061 9.35998,-4.63253 15.54568,-5.59388c15.06709,7.50976 12.23595,21.77005 12.19286,38.60489c0,3.6452 -0.59164,8.45767 -1.63903,11.78381c-2.79107,3.07348 -7.47647,7.85959 -16.34836,12.7359c-2.81371,1.54652 -5.98818,2.24858 -9.55822,3.1233c-2.40579,0.58946 -4.99123,1.25734 -7.76697,2.31489c-1.33364,0.50811 -10.65757,1.96005 -10.65757,1.96005l-3.13218,7.69389c0,0 -16.65984,20.61014 -17.1676,19.23244c-0.97463,-2.64446 5.6263,-43.14416 7.49793,-48.10608c7.05409,-18.70128 29.50542,-41.42716 31.03347,-43.7492z" data-paper-data="{&quot;index&quot;:null}" fill="#3a2f41" stroke="none" stroke-width="0" stroke-linecap="butt"/><path d="M251.34454,131.16145c0.55534,-2.82345 0.5684,-5.79891 0.5684,-8.80638c-0.037,-15.95514 -12.10071,-38.29933 -12.10071,-38.29933c0,0 7.80215,-0.70272 11.83182,-0.37505c8.72027,0.70909 17.37895,5.87923 21.48387,8.42235c10.11578,6.26703 18.01163,24.25698 23.97594,28.18187c11.957,7.86848 20.04078,26.66151 15.66532,33.31049c-4.37546,6.64898 -8.45769,9.80837 -21.57934,4.08957c-4.26669,-1.85955 -9.57328,-5.20063 -14.6381,-9.34642c-7.7172,-6.31688 -14.78668,-14.50196 -22.52416,-22.16102c-0.36298,-0.35931 -0.11637,1.54121 -2.68304,4.98392z" data-paper-data="{&quot;index&quot;:null}" fill="#e1e2db" stroke="none" stroke-width="0" stroke-linecap="butt"/><path d="M210.01905,164.49495c0,0 6.0252,-5.82325 16.92256,-5.76014c11.54577,0.06687 17.63441,7.20963 17.63441,7.20963c0,0 -7.32506,-0.57724 -17.83399,-0.88809c-9.33829,-0.27623 -16.72296,-0.56141 -16.72296,-0.56141z" fill="#e1e2db" stroke="#3a2f41" stroke-width="1" stroke-linecap="butt"/><path d="M214.41927,99.54442l-36.42142,-6.78684l5.45546,-29.27302l23.19473,4.38753l-3.49268,17.82844l-12.39005,-1.92838l1.2499,-8.61146l8.24267,1.40519l-0.81703,3.55074l-4.68778,-0.95674" data-paper-data="{&quot;index&quot;:null}" fill="none" stroke="#3a2f41" stroke-width="1.5" stroke-linecap="round"/><text transform="translate(261.64128,128.58444) rotate(8.17864) scale(0.5,0.5)" font-size="40" xml:space="preserve" data-paper-data="{&quot;index&quot;:null}" fill="#525585" fill-rule="nonzero" stroke="none" stroke-width="1" stroke-linecap="butt" stroke-linejoin="miter" stroke-miterlimit="10" stroke-dasharray="" stroke-dashoffset="0" font-family="Handwriting" font-weight="normal" text-anchor="start" style="mix-blend-mode: normal"><tspan x="0" dy="0">2 + 2 = 8</tspan></text><path d="M362.83807,293.71311l33.63235,-8.35793l-10.8649,19.34955l26.10633,0.55617l-20.51761,17.97995l18.54097,22.07832l-61.36858,-11.12586l-15.71556,11.29829l7.13762,-34.9362l-66.11597,-66.2787l10.46484,-15.63807z" data-paper-data="{&quot;index&quot;:null}" fill="#3a2f41" stroke="#3a2f41" stroke-width="2" stroke-linecap="butt"/><path d="M308.77062,362.35439c0,0 -25.77306,6.5 -62.5,6.5c-36.72694,0 -65.83333,-3.83333 -65.83333,-3.83333c0,0 26.1064,-49.83333 62.83333,-49.83333c41.3936,0 65.5,47.16667 65.5,47.16667z" fill="#8c9ca0" stroke="#3a2f41" stroke-width="2.5" stroke-linecap="butt"/><g stroke="#3a2f41" stroke-width="2.5"><path d="M76.97874,424.57387l15.9159,15.08641l-32.3431,2.75153z" fill="#e1e2db" stroke-linecap="butt"/><path d="M105.44197,413.65855l26.79434,9.47575l-36.84478,20.30084z" fill="#e1e2db" stroke-linecap="butt"/><path d="M131.6217,394.39336l29.25186,0.76067l-27.1215,30.70299z" fill="#e1e2db" stroke-linecap="butt"/><path d="M156.05966,362.65231l27.68373,-5.17644c0,0 -3.0746,20.03826 -7.20783,26.33928c-2.94989,4.49704 -15.26177,7.91516 -15.26177,7.91516z" fill="#e1e2db" stroke-linecap="butt"/><g><path d="M48.56667,438.26533c0,0 82.82121,25.24768 135.49008,-85.55371c20.08296,-42.24922 70.0413,-1.02986 70.0413,-1.02986c0,0 -15.2793,73.66497 -81.25748,104.92739c-65.97818,31.26242 -124.27391,-18.34383 -124.27391,-18.34383z" fill="#e1e2db" stroke-linecap="butt"/><path d="M241.24867,344.03215c0,0 -41.12377,126.1862 -125.75153,122.1272" fill="none" stroke-linecap="round"/></g></g><g fill="#3a2f41" stroke="#3a2f41" stroke-width="2" stroke-linecap="butt"><g data-paper-data="{&quot;index&quot;:null}"><path d="M164.66004,499.96882l28.68854,-42.39601l-3.09313,-65.51281l47.99106,-1.52903l-3.16321,92.58322l-5.33218,1.27617c0,0 -1.75805,-5.20702 -2.67699,-5.10931c-1.42,0.15098 -2.7514,6.4085 -2.7514,6.4085z"/><path d="M223.96004,424.66845v-5.71551l22.5,-2.68966v8.40517z"/><path d="M246.46004,428.85811v8.40517l-22.5,-2.68966v-5.71551z" data-paper-data="{&quot;index&quot;:null}"/></g><path d="M205.32509,416.42995v-80h23.66667v80z"/></g><g fill="#3a2f41" stroke="#3a2f41" stroke-linecap="butt"><g data-paper-data="{&quot;index&quot;:null}" stroke-width="2.5"><path d="M260.79733,485.68955c0,0 -1.3314,-6.25752 -2.7514,-6.4085c-0.91894,-0.09771 -2.67699,5.10931 -2.67699,5.10931l-5.33218,-1.27617l-3.16321,-92.58322l47.99106,1.52903l-3.09313,65.51281l28.68854,42.39601z"/><path d="M238.66004,424.66845v-8.40517l22.5,2.68966v5.71552z"/><path d="M261.16004,428.85811v5.71552l-22.5,2.68966v-8.40517z" data-paper-data="{&quot;index&quot;:null}"/></g><path d="M255.65842,416.42995v-80h23.66666v80z" stroke-width="2"/></g><g><g fill="#e1e2db" stroke="#3a2f41" stroke-width="2.5"><path d="M173.538,336.08349l26.1501,-9.85806l-13.42656,35.30805z" stroke-linecap="butt"/><g><path d="M192.91249,276.61775l22.78998,-14.65467c0,0 5.81461,17.20006 4.78245,23.81109c-0.73665,4.71829 -10.3936,12.1286 -10.3936,12.1286z" stroke-linecap="butt"/><path d="M184.77999,304.38275l27.22492,-9.49967l-12.9733,34.41429z" stroke-linecap="butt"/><g stroke-linecap="round"><path d="M276.43442,285.80946l33.49401,75.14914c0,0 -28.19212,-6.22581 -59.69068,-6.04068c-46.94478,0.27592 -66.93468,8.78917 -66.93468,8.78917l29.48694,-78.20302l-1.02678,-57.29516l61.49851,-3.9031l18.37269,35.6535z"/></g></g></g><path d="M248.52063,296.0859c18.89894,4.29518 31,9.74207 31,9.74207l-2,2.65693c0,0 -23.59691,-9.69977 -55,-11.95617" fill="none" stroke="#8c9ca0" stroke-width="1.5" stroke-linecap="round"/></g><path d="M211.03252,231.36932l10.8548,15.36995l-64.42822,67.92047l8.01398,34.74566l-15.99473,-10.89949l-61.06937,12.66569l17.97986,-22.53762l-20.96329,-17.45828l26.08408,-1.21254l-11.34808,-19.07019l33.8319,7.50947z" fill="#3a2f41" stroke="#3a2f41" stroke-width="2" stroke-linecap="butt"/><g><path d="M180.67063,244.65441c0,0 36.50755,-54.67705 66,-55c29.44882,-0.32248 69,49 69,49c0,0 -23.57995,22.53134 -65.00027,22.98831c-41.58564,0.45879 -69.99973,-16.98831 -69.99973,-16.98831z" fill="#e1e2db" stroke="none" stroke-width="0" stroke-linecap="butt"/><path d="M228.54066,244.0742c-4.57627,8.56041 -14.33465,12.10692 -21.79596,7.92134c-7.46131,-4.18558 -9.80009,-14.51824 -5.22383,-23.07865c4.57627,-8.56041 14.33465,-12.10692 21.79596,-7.92134c7.46131,4.18558 9.80009,14.51824 5.22383,23.07865z" fill="none" stroke="#525585" stroke-width="1.5" stroke-linecap="butt"/><path d="M207.2251,232.24554l2,-4.5" fill="none" stroke="#525585" stroke-width="1.5" stroke-linecap="round"/><path d="M221.7251,229.74554l-1,4.5" fill="none" stroke="#525585" stroke-width="1.5" stroke-linecap="round"/><path d="M222.7251,240.74554c0,0 -2.56077,9.62481 -12.32833,7.27897c-9.21317,-2.2127 -7.17167,-12.77897 -7.17167,-12.77897" fill="none" stroke="#525585" stroke-width="1.5" stroke-linecap="round"/><path d="M241.2251,253.74554v-14.5l8.5,-12l10.79185,-1.97425l8.70815,9.97425v14z" fill="none" stroke="#525585" stroke-width="1.5" stroke-linecap="butt"/><path d="M241.7251,240.24554l28,-4.5" fill="none" stroke="#525585" stroke-width="1.5" stroke-linecap="round"/><path d="M250.2251,227.74554l6.5,10" fill="none" stroke="#525585" stroke-width="1.5" stroke-linecap="round"/><path d="M284.06041,221.70099c5.38906,-5.00977 10.08635,3.64455 10.08635,3.64455c0,0 2.0266,-5.44835 6.24766,-3.14293c4.17032,2.27771 1.979,7.34293 1.979,7.34293c0,0 4.36514,1.74693 4.25354,5.4776c-0.16421,5.48974 -6.2871,3.4224 -6.2871,3.4224c0,0 2.5856,4.35165 -0.92434,7.3c-4.65366,3.90907 -9.05856,-2.3 -9.05856,-2.3c0,0 -1.40681,6.93374 -5.99892,4.87319c-5.21081,-2.33818 -0.74878,-7.57319 -0.74878,-7.57319c0,0 -6.31915,1.39853 -6.30218,-3.51363c0.02237,-6.47471 5.68705,-6.48637 5.68705,-6.48637c0,0 -4.32278,-4.03478 1.06628,-9.04455z" fill="none" stroke="#855252" stroke-width="1.5" stroke-linecap="round"/><path d="M180.67063,244.65442c0,0 36.50755,-54.67705 66,-55c29.44882,-0.32248 69,49 69,49c0,0 -23.57995,22.53134 -65.00027,22.98831c-41.58564,0.45879 -69.99973,-16.98831 -69.99973,-16.98831z" fill="none" stroke="#3a2f41" stroke-width="2" stroke-linecap="butt"/></g><path d="M230.33782,161.78277c0.16592,1.45175 -1.04721,2.69281 -2.7096,2.77201c-1.66238,0.07918 -3.14451,-1.03351 -3.31043,-2.48526c-0.16592,-1.45175 1.04721,-2.69281 2.7096,-2.77201c1.66238,-0.07918 3.14451,1.03351 3.31043,2.48526z" fill="#3a2f41" stroke="#3a2f41" stroke-width="2" stroke-linecap="butt"/><g data-paper-data="{&quot;index&quot;:null}" stroke="#3a2f41"><path d="M264.37228,174.46506c0,0 -14.05157,21.25574 -24.93716,19.19647c-10.36729,-1.96117 -1.72698,-22.70527 -1.72698,-22.70527z" fill="#3a2f41" stroke-width="1" stroke-linecap="round"/><path d="M247.42134,172.62185l-8.39189,9.71306l0.26863,-10.74617z" data-paper-data="{&quot;index&quot;:null}" fill="#ffffff" stroke-width="1.25" stroke-linecap="butt"/></g><path d="M217.00694,155.26501l25.96354,6.31371" fill="none" stroke="#3a2f41" stroke-width="1" stroke-linecap="round"/></g></g></svg>