<svg version="1.1" xmlns="http://www.w3.org/2000/svg" xmlns:xlink="http://www.w3.org/1999/xlink" width="230.4766" height="563.71703" viewBox="0,0,230.4766,563.71703"><defs><linearGradient x1="285.68921" y1="277.34416" x2="285.68921" y2="464.29976" gradientUnits="userSpaceOnUse" id="color-1"><stop offset="0" stop-color="#ffffff" stop-opacity="0.26046"/><stop offset="1" stop-color="#ffffff" stop-opacity="0"/></linearGradient><linearGradient x1="235.20223" y1="276.84416" x2="235.20223" y2="463.79977" gradientUnits="userSpaceOnUse" id="color-2"><stop offset="0" stop-color="#ffffff" stop-opacity="0.26046"/><stop offset="1" stop-color="#ffffff" stop-opacity="0"/></linearGradient><linearGradient x1="262.11268" y1="170.98479" x2="262.11268" y2="365.93352" gradientUnits="userSpaceOnUse" id="color-3"><stop offset="0" stop-color="#3a2f41"/><stop offset="1" stop-color="#e1e2db" stop-opacity="0.29839"/></linearGradient></defs><g transform="translate(-125.89683,97.27418)"><g data-paper-data="{&quot;isPaintingLayer&quot;:true}" fill-rule="nonzero" stroke-linejoin="miter" stroke-miterlimit="10" stroke-dasharray="" stroke-dashoffset="0" style="mix-blend-mode: normal"><g stroke-linecap="butt"><path d="M232.17466,-27.98709c0,2.33873 -4.77133,35.9376 -5.25925,72.47595c-0.4309,32.26848 4.01942,66.82956 -4.05529,84.1762c-30.19442,-8.71323 -85.00633,-5.89218 -85.00633,-5.89218l18.78905,-24.33736c0,0 -11.2,-4.54215 -17.89466,-14.58739c-6.93052,-10.39913 -11.60635,-28.37918 -11.60635,-28.37918c0,0 35.96628,14.71534 37.13447,10.8147c0.54095,-1.80627 -8.41658,-110.68492 -7.19301,-120.58532c0.45156,-3.6538 36.89204,-16.70795 56.22001,-16.70795c3.60652,0 10.43271,14.74618 10.43271,14.74618l-0.53091,-15.61586c0,0 13.80544,9.16775 13.80544,32.28611z" fill="#e1e2db" stroke="none" stroke-width="0"/><path d="M231.92467,-27.3423c0,2.19992 -4.22227,26.93385 -4.36738,59.84256c-0.06531,14.81099 3.58616,32.74148 4.18162,48.97264c0.30802,8.39613 -1.30031,15.60514 -2.34723,23.23683c-0.61093,4.45341 -73.92135,-39.30149 -73.92135,-39.30149c0,0 8.24756,1.08295 8.55599,0.05304c0.54095,-1.80627 -8.41658,-110.18492 -7.19301,-120.08532c0.45156,-3.6538 36.89204,-16.70795 56.22001,-16.70795c3.60652,0 10.43271,14.74618 10.43271,14.74618l-0.53091,-15.61586c0,0 13.48306,5.94383 13.48306,31.64134z" fill="#8c9ca0" stroke="none" stroke-width="0"/><path d="M231.99857,-28.02086c0.09265,9.61158 -6.41244,25.51027 -6.13256,42.52718c0.52577,31.96661 9.64544,70.28623 6.40241,95.93279c-0.86961,6.87708 -7.26863,13.30697 -9.4083,17.90355c-30.19442,-8.71323 -85.00633,-5.89218 -85.00633,-5.89218l18.28905,-23.83736c0,0 -7.10151,-0.87753 -15.99317,-12.54124c-10.43529,-13.68858 -13.00784,-30.92533 -13.00784,-30.92533c0,0 35.96628,14.21534 37.13447,10.3147c0.54095,-1.80627 -8.41658,-110.18492 -7.19301,-120.08532c0.45156,-3.6538 36.89204,-16.70795 56.22001,-16.70795c3.60652,0 10.43271,14.74618 10.43271,14.74618l-0.53091,-15.61586c0,0 13.16066,11.42448 13.80544,27.77263c0.18688,4.73835 -5.01198,16.4082 -5.01198,16.4082z" fill="none" stroke="#3a2f41" stroke-width="2"/></g><g data-paper-data="{&quot;index&quot;:null}" stroke="#3a2f41" stroke-width="2"><g><g fill="#3a2f41"><path d="M337.38244,299.67134l-42.36567,7.44171l37.97602,-28.78837z" stroke-linecap="round"/><path d="M343.8772,305.38978l-38.88594,18.38783l29.0037,-37.81183z" stroke-linecap="round"/><path d="M333.47719,184.01123c0,0 14.0248,59.21991 16.8171,79.81463c0.95701,7.0586 5.03219,27.39623 5.03219,27.39623l-7.54786,15.44903c-0.10308,-2.15072 -3.76329,-34.0047 -1.80767,-20.64764c1.95562,13.35705 2.2803,23.87578 2.2803,23.87578l-26.62658,29.78596l8.06761,-34.36595c0,0 -13.0552,-36.37706 -14.72703,-37.60046c-3.03898,-2.22386 -14.36124,5.70236 -14.36124,5.70236l-9.66654,25.56933l-0.14173,-40.27586l26.2752,-18.92028c0,0 0.02251,-4.75886 -0.23949,-11.68494c-0.40872,-10.80478 -4.14161,-45.83259 -4.14161,-45.83259l5.87702,3.23773l3.19028,-13.97833l6.65891,17.82491l5.06116,-5.34987z" stroke-linecap="butt"/></g><g fill="#677479" stroke-linecap="butt"><path d="M341.24639,230.99225l-36.42385,6.00718l-16.56411,-19.28512c0,0 2.61653,-34.27252 -0.68343,-67.69981c-3.19724,-32.38673 -12.31644,-63.88802 -12.18148,-68.29885c0.27425,-8.96339 6.4153,-16.91931 17.23699,-6.89333c10.26091,12.46044 14.01563,40.10388 23.76502,64.94782c14.20843,36.20673 32.71121,69.84267 32.71121,69.84267z"/></g></g><path d="M302.03915,249.70616l-4.21423,-20.01762l45.2572,-9.52783l4.21424,20.01762z" fill="#8c9ca0" stroke-linecap="butt"/><path d="M331.45475,223.51937l4.44705,18.97406" fill="none" stroke-linecap="round"/><path d="M336.8202,231.2373c-0.43043,-2.25153 -0.06232,-4.21382 0.8222,-4.38293c0.88453,-0.1691 1.95052,1.51904 2.38096,3.77056c0.43044,2.25152 0.06232,4.21381 -0.8222,4.38292c-0.88453,0.1691 -1.95052,-1.51904 -2.38096,-3.77056z" fill="#3a2f41" stroke-linecap="butt"/></g><path d="M264.28794,277.34416l42.80246,13.75069l-14.37164,173.20489z" fill="#3a2f41" stroke="url(#color-1)" stroke-width="0.5" stroke-linecap="butt"/><path d="M232.90103,463.79977l-19.10003,-173.2049l42.80246,-13.75068z" data-paper-data="{&quot;index&quot;:null}" fill="#3a2f41" stroke="url(#color-2)" stroke-width="0.5" stroke-linecap="butt"/><g stroke-linecap="round"><g><path d="M182.55638,344.12092l40.23122,-170.91249l17.47737,-19.4529l33.5523,-0.20774l17.26175,18.31044l50.58995,168.38354c0,0 -21.7538,25.39676 -61.55364,25.68558c-59.31685,0.43043 -97.55895,-21.80644 -97.55895,-21.80644z" fill="#3a2f41" stroke="none" stroke-width="0"/><path d="M182.55638,344.12092c0,0 0.8376,-3.61623 1.84467,-7.96414c4.55393,-19.66105 32.07146,-133.02339 37.05321,-159.51758c1.05017,-5.58508 17.92427,-22.41793 17.92427,-22.41793l34.54746,-0.22542c0,0 16.50735,16.87429 18.15302,21.65563c3.83883,11.15342 49.58995,164.5903 49.58995,164.5903c0,0 -19.7538,25.39676 -59.55364,25.68558c-59.31685,0.43043 -99.55895,-21.80644 -99.55895,-21.80644z" fill="none" stroke="url(#color-3)" stroke-width="2.5"/><path d="M292.80073,177.69835l-29.71787,12.76993l-41.43246,-10.00694" fill="none" stroke="#e1e2db" stroke-width="1"/></g><path d="M336.83524,329.40277c0,0 -45.24435,52.40528 -152.5,4.8865" fill="none" stroke="#e1e2db" stroke-width="1"/></g><g stroke="#3a2f41" stroke-width="2"><g><g fill="#3a2f41"><path d="M171.22573,280.32468l37.97602,28.78837l-42.36567,-7.44171z" stroke-linecap="round"/><path d="M170.22356,287.96576l29.0037,37.81183l-38.88594,-18.38783z" stroke-linecap="round"/><path d="M170.74131,186.01126l5.06116,5.34987l6.65891,-17.82491l3.19028,13.97833l5.87702,-3.23773c0,0 -3.73289,35.02781 -4.14161,45.83259c-0.262,6.92608 -0.23949,11.68494 -0.23949,11.68494l26.2752,18.92028l-0.14173,40.27586l-9.66653,-25.56933c0,0 -11.32227,-7.92623 -14.36125,-5.70236c-1.67183,1.2234 -14.72703,37.60046 -14.72703,37.60046l8.06761,34.36595l-26.62658,-29.78596c0,0 0.32468,-10.51873 2.2803,-23.87578c1.95562,-13.35706 -1.70459,18.49692 -1.80767,20.64764l-7.54786,-15.44903c0,0 4.07518,-20.33763 5.03219,-27.39623c2.7923,-20.59472 16.8171,-79.81463 16.8171,-79.81463z" stroke-linecap="butt"/></g><g fill="#9aac9c" stroke-linecap="butt"><path d="M155.11178,211.61279c0,0 18.50279,-33.63594 32.71122,-69.84266c9.74939,-24.84395 13.50411,-52.48739 23.76501,-64.94783c10.82169,-10.02598 16.96274,-2.07006 17.23699,6.89333c0.13496,4.41084 -8.98425,35.91213 -12.18148,68.29886c-3.29996,33.4273 -0.68343,67.69981 -0.68343,67.69981l-16.56411,19.28512l-36.42385,-6.00718z"/></g></g><path d="M156.92216,242.17833l4.21424,-20.01762l45.2572,9.52783l-4.21423,20.01762z" fill="#e1e2db" stroke-linecap="butt"/><path d="M172.76377,225.51936l-4.44705,18.97406" fill="none" stroke-linecap="round"/><path d="M167.39832,233.23728c-0.43044,2.25152 -1.49643,3.93966 -2.38096,3.77056c-0.88452,-0.16911 -1.25264,-2.1314 -0.8222,-4.38292c0.43044,-2.25152 1.49643,-3.93966 2.38096,-3.77056c0.88452,0.16911 1.25263,2.1314 0.8222,4.38293z" fill="#3a2f41" stroke-linecap="butt"/></g><g><g><path d="M280.98606,126.76638l-5.64117,16.21512l8.78567,19.6937l-23.44887,13.52698l-30.93865,-12.73128l7.53059,-19.89264c0,0 -6.65085,-16.7471 -6.66983,-16.75707" fill="#9aac9c" stroke="#3a2f41" stroke-width="2" stroke-linecap="round"/><g><path d="M290.10839,93.65736c-0.15022,1.94319 -0.36954,3.91685 -0.66074,5.85501c-1.66684,11.09438 -8.96789,27.90555 -8.96789,27.90555l-49.92842,-0.79614c0,0 -22.05972,-34.72275 -17.18873,-49.12469c1.71065,-5.05781 24.72246,-15.04657 34.85198,-14.99873c5.85798,0.02766 17.67026,0.43061 26.57115,3.45102c7.12513,2.41783 12.70506,6.59053 12.70506,6.59053" fill="#677479" stroke="none" stroke-width="0" stroke-linecap="round"/><path d="M287.61454,77.07237l-1.70972,5.03767c0,0 15.76765,19.74133 19.04314,26.91958c0.79611,1.74468 -6.90137,11.30753 -10.97514,15.07031c-5.89668,5.93257 -12.15486,8.3527 -14.46961,9.65653l-44.88099,-0.53379c-2.1469,-1.20613 -10.61921,-6.05959 -14.58164,-9.71955c-4.07377,-3.76278 -10.25178,-13.14024 -10.30848,-14.40364c-0.19286,-4.29723 15.48942,-27.31207 15.48942,-27.31207l-1.78495,-4.9678" fill="#9aac9c" stroke="none" stroke-width="0" stroke-linecap="round"/><path d="M287.61454,77.40569l-1.70972,5.03767c0,0 15.76765,19.74133 19.04314,26.91958c0.34404,0.75397 -2.74861,5.54309 -2.74861,5.54309l-80.72789,-27.13404l3.75006,-5.65126l-1.78495,-4.9678" fill="#677479" stroke="none" stroke-width="0" stroke-linecap="round"/><path d="M287.61454,77.07237l-1.70972,5.03767c0,0 15.76765,19.74133 19.04314,26.91958c0.79611,1.74468 -6.90137,11.30753 -10.97514,15.07031c-5.89668,5.93257 -12.15486,8.3527 -14.46961,9.65653l-44.88099,-0.53379c-2.1469,-1.20613 -10.61921,-6.05959 -14.58164,-9.71955c-4.07377,-3.76278 -10.25178,-13.14024 -10.30848,-14.40364c-0.19286,-4.29723 15.48942,-27.31207 15.48942,-27.31207l-1.78495,-4.9678" fill="none" stroke="#3a2f41" stroke-width="2" stroke-linecap="round"/><path d="M287.18561,83.59283c0,0 13.8222,10.53429 13.18452,10.86789c-0.59462,0.31106 -25.45705,16.49022 -25.45705,16.49022l0.14854,10.57962l-14.5535,3.37304l24.1368,-55.93397l11.03397,5.79967z" data-paper-data="{&quot;index&quot;:null}" fill="#8c9ca0" stroke="none" stroke-width="0" stroke-linecap="butt"/><path d="M212.10044,76.35528l10.94968,-6.07927l33.93132,54.5378l-16.99672,-3.86523l-1.35212,-10.49391c0,0 -26.90417,-12.49284 -27.53688,-12.7165c-0.67852,-0.23986 11.51147,-12.6265 11.51147,-12.6265z" fill="#e1e2db" stroke="#3a2f41" stroke-width="0" stroke-linecap="butt"/><path d="M280.29967,107.6479l-5.3866,3.30305l0.14854,10.57962l-14.5535,3.37304l9.33999,-21.64425z" data-paper-data="{&quot;index&quot;:null}" fill="#e1e2db" stroke="none" stroke-width="0" stroke-linecap="butt"/><path d="M212.10044,76.35528l10.94968,-6.07927l13.27993,21.34482l-15.62,-4.56685l1.89714,-1.94231z" fill="#8c9ca0" stroke="none" stroke-width="0" stroke-linecap="butt"/><path d="M212.10044,76.35528l10.94968,-6.07927l33.93132,54.5378l-16.99672,-3.86523l-1.35212,-10.49391c0,0 -26.90417,-12.49284 -27.53688,-12.7165c-0.67852,-0.23986 11.51147,-12.6265 11.51147,-12.6265z" fill="none" stroke="#3a2f41" stroke-width="2" stroke-linecap="butt"/><path d="M287.18559,83.59283c0,0 13.8222,10.53429 13.18452,10.86789c-0.59462,0.31106 -25.45705,16.49022 -25.45705,16.49022l0.14854,10.57962l-14.5535,3.37304l24.1368,-55.93397l11.03397,5.79967z" data-paper-data="{&quot;index&quot;:null}" fill="none" stroke="#3a2f41" stroke-width="2" stroke-linecap="butt"/><path d="M258.42777,125.29884c-18.62085,-21.39568 -35.37335,-55.45259 -35.37335,-55.45259c0,0 9.15277,-4.84741 13.12884,-6.62039c4.57698,-2.04093 18.03382,-6.17917 18.03382,-6.17917l24.32594,9.48018c0,0 -2.39397,24.26439 -6.05248,34.95367c-2.02837,5.92643 -14.06278,23.8183 -14.06278,23.8183z" data-paper-data="{&quot;index&quot;:null}" fill="#e1e2db" stroke="none" stroke-width="0" stroke-linecap="butt"/><path d="M270.62197,103.99549l-35.56293,-13.24726l-12.33796,-20.90197c0,0 9.48611,-4.84741 13.46218,-6.62039c4.57698,-2.04093 18.03383,-6.17916 18.03383,-6.17916c0,0 15.02403,5.29168 20.7876,7.83319c4.1037,1.80957 10.53833,5.98032 10.53833,5.98032z" data-paper-data="{&quot;index&quot;:null}" fill="#8c9ca0" stroke="none" stroke-width="0" stroke-linecap="butt"/><path d="M244.99487,104.84256c-0.24654,-0.26879 6.78547,-22.0798 6.78547,-22.0798l8.69357,-0.15765l10.64159,20.71447l-12.18413,21.07776z" data-paper-data="{&quot;index&quot;:null}" fill="#3a2f41" stroke="#3a2f41" stroke-width="2" stroke-linecap="butt"/><path d="M252.09689,79.56028l-0.23684,-9.43393l7.97003,-0.20009l0.23685,9.43393z" data-paper-data="{&quot;index&quot;:null}" fill="#3a2f41" stroke="#3a2f41" stroke-width="2" stroke-linecap="butt"/><path d="M242.96256,90.64209v-3.66667h10.33333v3.66667z" fill="#8c9ca0" stroke="#3a2f41" stroke-width="1.5" stroke-linecap="butt"/><path d="M222.38776,70.17959c0,0 9.81944,-5.18074 13.79551,-6.95372c4.57698,-2.04093 18.03382,-6.17917 18.03382,-6.17917c0,0 16.02415,5.41815 21.80516,7.7828c3.91632,1.60192 9.52078,5.03071 9.52078,5.03071c0,0 -14.21016,39.44042 -26.44858,54.77198c-2.60424,3.26243 -36.70668,-54.4526 -36.70668,-54.4526z" data-paper-data="{&quot;index&quot;:null}" fill="none" stroke="#3a2f41" stroke-width="2" stroke-linecap="butt"/><g data-paper-data="{&quot;index&quot;:null}" fill="none" stroke="none" stroke-width="1" stroke-linecap="butt" font-family="sans-serif" font-weight="normal" font-size="12" text-anchor="start"><g/></g></g><path d="M235.94469,136.99606l-5.81403,-12.26632l28.36876,5.63158l22.96457,-6.29824l-3.45451,8.42037l-1.87882,4.57963z" fill="#9aac9c" stroke="#3a2f41" stroke-width="0" stroke-linecap="butt"/><path d="M261.16789,175.50001l-3.33333,-29.33333l0.33333,-20.66667" fill="none" stroke="#3a2f41" stroke-width="2" stroke-linecap="round"/><g fill="#9aac9c" stroke="#3a2f41" stroke-width="1.5" stroke-linecap="butt"><path d="M266.44964,144.2928c0,1.29931 -1.10074,2.35261 -2.45858,2.35261c-1.35783,0 -2.45858,-1.0533 -2.45858,-2.35261c0,-1.29931 1.10074,-2.35261 2.45858,-2.35261c1.35783,0 2.45858,1.0533 2.45858,2.35261z"/><path d="M266.98467,152.19998c0,1.34448 -1.15063,2.43438 -2.57,2.43438c-1.41937,0 -2.56998,-1.08991 -2.56998,-2.43438c0,-1.34448 1.15062,-2.43438 2.56998,-2.43438c1.41937,0 2.57,1.08991 2.57,2.43438z"/></g></g><g fill="none" stroke="#3a2f41" stroke-width="3.5" stroke-linecap="butt"><path d="M246.54239,80.28266l-9.17181,-18.02792l1.91925,-4.59973c0,0 13.17546,-5.08239 15.05587,-5.20001c1.92213,-0.12024 16.01351,5.41906 16.01351,5.41906l2.81334,4.38157l-5.59777,17.81571l-10.81285,-9.99778z"/></g><g stroke="none" stroke-width="0" stroke-linecap="butt"><path d="M246.34239,80.28265l-9.17181,-18.02792l1.91925,-4.59973c0,0 13.17545,-5.08239 15.05586,-5.20001c1.92212,-0.12024 16.01351,5.41906 16.01351,5.41906l2.81334,4.38158l-5.59776,17.8157l-10.81285,-9.99778z" fill="#8c9ca0"/><path d="M256.10465,67.45803l-14.12771,-8.53242l12.19533,-5.49777l13.5508,5.30377z" fill="#3a2f41"/></g></g><g><path d="M266.72257,40.23492c-2.03631,0.07204 -1.59684,-27.04681 -3.59361,-27.04681c-5.42433,0 -17.49592,21.97845 -17.49592,21.97845c0,0 -6.01009,5.75158 -10.90333,7.13899c-16.55142,4.69289 -37.0348,19.96747 -37.0348,19.96747c0,0 -5.91418,-9.67016 3.45408,-26.78446c-8.18007,3.70526 -26.07574,-5.41541 -33.13012,-9.0642c8.23316,-8.62227 14.87961,-24.44715 22.69809,-30.60281c4.87097,-3.835 7.59293,-4.62156 7.59293,-4.62156c0,0 -2.7216,-0.38337 -5.74015,-1.0271c-6.14055,-1.30952 -10.82982,-3.58572 -10.82982,-3.58572c0,0 7.37602,-4.4888 17.77602,-11.54307c9.58252,-6.49977 27.99011,-16.51736 40.93403,-18.52819c9.37888,-1.45701 18.71649,2.79556 27.34322,4.27846c22.44737,3.8586 33.67178,10.45725 48.95484,6.27382c5.64077,19.87806 -4.16873,29.29365 -4.16873,29.29365l26.81925,15.33255c0,0 -8.18284,17.13354 -31.13251,18.50056c4.14914,15.563 -1.84929,26.08648 -1.84929,26.08648c0,0 -27.65871,-16.4723 -39.6942,-16.04652z" fill="#e1e2db" stroke="#3a2f41" stroke-width="2" stroke-linecap="butt"/><path d="M295.15981,15.3271l5.4188,39.73783c0,0 12.64086,10.62611 12.64386,15.35326c0.00208,3.27081 -20.47101,15.6543 -20.47101,15.6543c0,0 16.18859,9.40128 12.68239,12.38804c-3.50757,2.98794 -17.80015,7.48087 -17.80015,7.48087l6.62298,-9.03132c0,0 -19.26703,-7.34172 -18.96579,-11.13863c0.35302,-4.44945 9.03132,-12.94491 9.03132,-12.94491c0,0 -4.95809,-1.76394 -6.92402,-6.02089c-1.39139,-3.01287 6.62297,-11.13864 6.62297,-11.13864l0.90313,-39.73783" data-paper-data="{&quot;index&quot;:null}" fill="#e1e2db" stroke="#3a2f41" stroke-width="2" stroke-linecap="round"/><g stroke-linecap="butt"><path d="M289.19567,19.27448c0,7.72879 2.21636,14.30153 -3.71728,19.29042c-5.76808,4.84969 -19.49585,8.22042 -32.7056,8.48214c-17.93798,0.35541 -29.67717,-4.01148 -34.48716,-12.59409c-2.28215,-4.07213 -1.93575,-10.27383 -1.93575,-15.17848c0,-15.24196 11.08188,-34.60256 41.64813,-33.76202c20.10666,0.55291 31.19767,18.52006 31.19767,33.76202z" fill="#e1e2db" stroke="none" stroke-width="0"/><path d="M290.573,14.58137c-1.20785,2.7648 6.37972,15.66741 -12.0924,15.50161c-18.2208,-0.16354 -62.90602,5.97651 -62.90602,-11.61475c0,-15.24196 11.61868,-33.69564 42.18496,-32.8551c20.10666,0.55291 31.19767,14.6332 31.19767,29.87515z" fill="#8c9ca0" stroke="none" stroke-width="0"/><path d="M263.69641,-13.83212c16.59929,3.44627 27.2493,31.6066 27.2493,31.6066c0.25,5.97988 -1.05942,15.4894 -6.19614,20.38227c-5.69243,5.42223 -17.88981,8.6112 -31.97677,8.8903c-13.45012,0.00339 -25.93467,-3.07195 -32.06937,-9.69948c-4.33732,-4.68577 -4.35354,-11.76014 -4.35354,-18.07308c0,-12.9375 7.98423,-28.8424 29.09119,-32.84201" fill="none" stroke="#3a2f41" stroke-width="2"/></g><path d="M290.76462,14.85159c0,0 -6.78086,2.82063 -15.00533,-0.73404c-9.70771,-4.19574 -10.61343,-11.25772 -10.61343,-11.25772" fill="none" stroke="#3a2f41" stroke-width="3.5" stroke-linecap="round"/><path d="M261.25559,25.33923c0,0 1.29563,-9.99687 1.29563,-18.33307c0,-8.33618 1.3439,-11.07757 2.20256,-11.07757c0.85866,0 2.20256,2.09358 2.20256,10.42976c0,8.33618 -5.70074,18.98088 -5.70074,18.98088z" fill="#3a2f41" stroke="none" stroke-width="0" stroke-linecap="butt"/><path d="M282.50901,-19.55882c9.69143,9.53255 12.24824,25.31388 8.8003,28.8193c-0.93222,0.94776 0.23509,8.22373 -0.06328,6.03796c-0.79355,-0.17474 -1.91143,-0.04028 -3.13152,-0.21452c-2.48744,-0.35522 -5.39975,-1.04021 -6.85473,-1.56818c-5.30279,-1.92425 -11.11252,-4.00378 -16.13121,-8.94022c-9.69143,-9.53255 -10.55671,-22.11544 -7.10876,-25.62084c3.44794,-3.5054 14.79778,-8.04604 24.48919,1.48652z" data-paper-data="{&quot;index&quot;:null}" fill="#e1e2db" stroke="#3a2f41" stroke-width="1" stroke-linecap="butt"/><path d="M244.52303,6.33932c0,-8.33618 1.3439,-10.42976 2.20256,-10.42976c0.85866,0 2.20256,2.74138 2.20256,11.07757c0,8.33619 1.29563,18.33307 1.29563,18.33307c0,0 -5.70074,-10.64469 -5.70074,-18.98088z" data-paper-data="{&quot;index&quot;:null}" fill="#3a2f41" stroke="none" stroke-width="0" stroke-linecap="butt"/><path d="M258.42423,9.3573c0,8.33618 -2.20256,17.167 -2.20256,17.167c0,0 -2.85037,-10.77425 -2.85037,-19.11045c0,-8.33618 1.9917,-11.07757 2.85037,-11.07757c0.85866,0 2.20256,4.68481 2.20256,13.02101z" fill="#3a2f41" stroke="none" stroke-width="0" stroke-linecap="butt"/><path d="M290.46209,15.60788c0,0 -6.78086,2.82063 -15.00533,-0.73404c-9.70771,-4.19574 -10.61343,-11.25772 -10.61343,-11.25772" fill="none" stroke="#3a2f41" stroke-width="3.5" stroke-linecap="round"/><path d="M263.03953,-12.72079c2.97716,6.90558 -9.12381,22.21058 -23.7982,28.53702c-13.03118,3.90406 -21.61223,2.85759 -23.46299,2.93248c-1.0242,-0.01378 -0.07224,0.33763 0.88286,0.30188c0.81099,-0.03035 1.59616,-0.10568 1.47232,0.45575c-0.50438,2.28671 0.15938,5.24867 0.42309,6.43635c1.28113,5.76998 -11.22358,-8.9006 -12.67276,-12.26203c-2.97716,-6.90558 6.50532,-17.63227 21.17969,-23.95874c14.67437,-6.32644 32.9988,-9.3483 35.97597,-2.44271z" fill="#e1e2db" stroke="#3a2f41" stroke-width="2.5" stroke-linecap="butt"/><path d="M246.98688,1.72715c0,-10.89439 5.48148,-19.30299 10.73584,-19.30299c5.17202,0 10.42748,7.85863 10.55814,18.51693c0.00208,0.16975 -2.45879,-0.26159 -2.64124,0.80639c-1.68109,9.84001 1.36574,18.81993 1.36574,18.81993c0,0 -20.01849,-4.82489 -20.01849,-18.84025z" fill="#e1e2db" stroke="#3a2f41" stroke-width="2" stroke-linecap="butt"/><g stroke="#3a2f41" stroke-width="1"><path d="M239.28973,23.71101c7.91972,1.30203 10.74127,4.04651 10.74127,4.04651l-27.78368,-1.5983c0,0 9.1227,-3.75025 17.04241,-2.44822z" fill="#e1e2db" stroke-linecap="butt"/><path d="M241.53184,26.87469l-0.13094,-1.94179" fill="none" stroke-linecap="round"/></g><path d="M214.22816,21.81965c1.30509,1.59221 3.6364,1.99997 3.92039,4.67796c0.09568,0.90228 1.51973,3.14697 1.06005,3.82689c-3.33229,4.9288 -8.18975,-4.82135 -9.87821,-7.66437c-0.41032,-0.69089 -2.86069,-3.10063 -2.69685,-3.69301c-0.04735,-0.18087 -0.07254,-0.37052 -0.07254,-0.56599c0,-0.31113 0.06381,-0.60755 0.17926,-0.87725c-1.1995,-0.90576 -3.45778,-3.05779 -3.80819,-5.51438c-0.52322,-3.66815 1.36297,-8.01537 2.5476,-9.90648c0.73616,-1.1752 2.84011,-2.92717 4.65482,-3.74478c0.00232,-0.6351 0.27053,-1.20838 0.70061,-1.61728c1.1955,-1.69582 3.58321,-3.22539 4.85129,-4.24193c6.0635,-4.86078 13.389,-6.17942 20.78895,-8.00413c1.42536,-0.35146 3.3525,-0.52348 4.61028,-1.2736c0.3813,-0.2274 0.60694,-0.54681 0.84606,-0.84816c0.09443,-0.1912 0.20583,-0.36557 0.35215,-0.50525c0.0705,-0.06729 0.14909,-0.12653 0.23781,-0.17574c0.00381,-0.00211 0.02365,-0.00628 0.05835,-0.01234c0.32329,-0.17217 0.69332,-0.26988 1.08651,-0.26988c0.1599,0 0.316,0.01616 0.46664,0.04693c3.16851,-0.43476 9.9157,-1.31207 10.07545,-1.26911c0.20649,0.05553 -1.0935,-6.3731 2.74816,-8.56529c4.87296,-2.78069 15.22078,-1.44266 16.66897,-1.04714c0.98897,0.27011 8.22735,1.71779 13.43128,5.87427c7.24603,5.78754 9.79515,12.22722 9.52098,13.97282c-0.15633,0.99531 0.77535,9.94846 -0.54343,17.61929c-0.84289,4.90276 -0.27444,12.88139 -2.19219,12.30814c-0.8561,-0.25591 -1.34253,3.76559 -1.66455,2.52693c-0.37836,-1.45537 0.16716,-8.0624 -0.88687,-11.77572c-1.92964,-6.79796 -3.48216,-12.46059 -5.58081,-15.41267c-4.87595,-6.85877 -4.27058,-8.13154 -8.7932,-4.73261c-10.9331,8.21666 -0.4882,19.47144 -6.44422,16.18955c-5.81146,-3.20223 -5.11822,-4.9261 -7.6329,-5.51745c-5.33438,-1.25442 -10.32816,1.58392 -11.10058,3.61426c-0.88502,2.32635 -6.21776,2.39714 -6.7609,2.454c-2.00836,0.21021 2.12029,-21.88809 0.76842,-21.8051c-0.03978,0.00243 -0.35781,0.03536 -0.78131,0.05899c-0.108,0.12367 -0.21997,0.23456 -0.33349,0.32944c-2.67272,2.23362 -6.94321,2.57547 -10.25997,3.31731c-3.3803,0.75606 -7.51188,1.60402 -10.60152,3.01271c-3.366,1.53468 -6.96372,6.21178 -10.06409,7.62799c-0.21528,0.14373 -0.45669,0.25229 -0.71573,0.3173c-0.06039,0.28506 -0.14213,0.59671 -0.24703,0.93656c-0.18192,0.5894 -1.75602,1.1868 -2.10635,1.42758c-1.57497,1.0825 -2.19593,3.55199 -2.25349,5.30717c-0.0933,2.84436 2.29969,5.14944 2.38887,6.73246c0.23266,0.3534 0.3678,0.77502 0.3678,1.22775c0,0.3895 -0.10003,0.75595 -0.27611,1.07576c1.36015,1.31806 2.11801,3.03778 3.3638,4.55765z" fill="#e1e2db" stroke="none" stroke-width="0.5" stroke-linecap="butt"/><path d="M290.76462,14.85158c0,0 -6.78086,2.82063 -15.00533,-0.73404c-9.70771,-4.19574 -10.61343,-11.25772 -10.61343,-11.25772" fill="none" stroke="#e1e2db" stroke-width="2" stroke-linecap="round"/><g stroke="#3a2f41" stroke-width="2"><path d="M217.76173,17.90842l5.41881,39.73783c0,0 12.64086,10.62611 12.64386,15.35326c0.00208,3.27081 -20.47101,15.6543 -20.47101,15.6543c0,0 16.18859,9.40128 12.68239,12.38804c-3.50757,2.98794 -17.80015,7.48087 -17.80015,7.48087l6.62298,-9.03132c0,0 -19.26703,-7.34172 -18.96579,-11.13863c0.35302,-4.44945 9.03132,-12.94491 9.03132,-12.94491c0,0 -4.95809,-1.76394 -6.92402,-6.02089c-1.39139,-3.01288 6.62298,-11.13864 6.62298,-11.13864l0.90313,-39.73783" data-paper-data="{&quot;index&quot;:null}" fill="#e1e2db" stroke-linecap="round"/><path d="M207.52624,40.87558v-1.37979l12.72987,-2.0643l0.25803,1.76683z" fill="#3a2f41" stroke-linecap="butt"/><path d="M207.52624,32.10229l0.22728,-1.76684l11.2124,2.0643v1.37979z" data-paper-data="{&quot;index&quot;:null}" fill="#3a2f41" stroke-linecap="butt"/></g><path d="M290.20561,33.69415c0,5.071 -4.319,9.18185 -9.64675,9.18185c-5.32776,0 -9.64675,-4.11086 -9.64675,-9.18185c0,-5.071 4.319,-9.18185 9.64675,-9.18185c5.32776,0 9.64675,4.11086 9.64675,9.18185z" fill-opacity="0.41935" fill="#e1e2db" stroke="#3a2f41" stroke-width="2" stroke-linecap="butt"/><path d="M281.1316,42.94332c1.48383,23.92891 -6.92402,1.80627 -6.92402,1.80627" fill="none" stroke="#3a2f41" stroke-width="2" stroke-linecap="round"/><path d="M232.65015,-10.37964c0,0 -12.8247,-1.88294 -13.23433,-3.08242c-2.16374,-6.3358 -3.56649,-12.83608 -4.40877,-19.24784c4.5328,-0.93274 13.21977,-12.47437 14.46799,-16.42659c3.03938,9.55426 6.77665,19.1794 11.22048,26.97941c0.31251,0.54854 -8.04536,11.77744 -8.04536,11.77744z" data-paper-data="{&quot;index&quot;:null}" fill="#3a2f41" stroke="#3a2f41" stroke-width="2" stroke-linecap="butt"/><path d="M272.92037,19.47505c-12.64843,-8.15225 -13.54699,-46.36081 -13.54699,-46.36081h35.82426c0,0 3.28546,29.21337 10.83759,42.14619c0.60979,1.04426 -32.65174,4.51311 -33.11486,4.21463z" fill="#e1e2db" stroke="#3a2f41" stroke-width="2" stroke-linecap="butt"/><path d="M274.38417,-12.18592c0,0 -8.35786,-11.22892 -8.04536,-11.77744c14.25468,-25.02045 21.23917,-68.82076 21.23917,-68.82076c0,0 12.36537,41.42641 0.04052,77.5158c-0.40963,1.1995 -13.23433,3.08242 -13.23433,3.08242z" fill="#3a2f41" stroke="#3a2f41" stroke-width="2" stroke-linecap="butt"/><path d="M283.45694,-0.39388l13.84803,13.24594l-21.67519,1.80627z" fill="none" stroke="#3a2f41" stroke-width="2" stroke-linecap="round"/><path d="M291.58512,4.12178l-15.95534,2.7094" fill="none" stroke="#3a2f41" stroke-width="2" stroke-linecap="round"/><path d="M293.69243,6.2291l-18.36369,3.01044" fill="none" stroke="#3a2f41" stroke-width="2" stroke-linecap="round"/><path d="M248.98307,8.81577c-8.74723,7.77262 -15.51636,7.95723 -20.2835,8.78352c-3.48813,0.60461 -11.38051,1.35046 -14.66809,1.07926c-1.20547,-0.09943 -1.1818,-0.7016 -1.23895,-1.03124c-0.07413,-0.42758 1.33522,-0.9044 2.0877,-1.38407c1.40973,-0.89865 9.29219,-2.7041 12.4003,-3.24283c4.76714,-0.8263 22.79835,-8.05088 23.0113,-6.82223z" fill="#e1e2db" stroke="none" stroke-width="0" stroke-linecap="butt"/></g></g></g></svg>