<svg version="1.1" xmlns="http://www.w3.org/2000/svg" xmlns:xlink="http://www.w3.org/1999/xlink" width="210.37312" height="407.24372" viewBox="0,0,210.37312,407.24372"><g transform="translate(-134.68844,23.10789)"><g data-paper-data="{&quot;isPaintingLayer&quot;:true}" fill-rule="nonzero" stroke-linejoin="miter" stroke-miterlimit="10" stroke-dasharray="" stroke-dashoffset="0" style="mix-blend-mode: normal"><g stroke-linecap="butt"><path d="M255.93669,313.53414l17.36846,-70.51099l21.58312,7.1225l-17.36846,70.511z" fill="#7c7984" stroke="none" stroke-width="0"/><path d="M268.17982,265.51497l6.48524,-21.44764l19.91646,6.37934l-5.0369,22.33401z" fill="#626171" stroke="none" stroke-width="0"/><path d="M256.33107,313.61838l17.36846,-70.51099l21.58313,7.12251l-17.36846,70.511z" fill="none" stroke="#3a2f41" stroke-width="2.5"/></g><g data-paper-data="{&quot;index&quot;:null}" stroke="#3a2f41" stroke-width="2.5"><path d="M236.46696,359.33921c-1.87468,-14.97537 8.48643,-47.88506 8.48643,-47.88506l41.92392,-2.17828l-7.8933,23.6599c0,0 46.87124,-4.66799 58.60206,7.50034c3.81142,3.95358 10.58685,22.34186 2.25172,28.16316c-3.39213,2.36909 -22.4565,4.39371 -38.02073,2.60075c-19.07996,-2.19795 -34.91111,-8.62453 -34.91111,-8.62453c0,0 -29.56006,3.78472 -30.43898,-3.23628z" fill="#7c7984" stroke-linecap="butt"/><path d="M329.2171,346.6801c6.95085,10.29511 3,24 3,24" fill="none" stroke-linecap="round"/></g><path d="M330.58655,201.87424c-8.48224,15.46842 -34.444,16.14658 -52.40613,3.24817c-22.92368,-16.46124 -31.22255,-71.96073 -22.74031,-87.42916c8.48224,-15.46842 37.89098,23.52395 56.6104,35.14008c18.71942,11.61613 27.01829,33.57249 18.53606,49.0409z" fill="#3a2f41" stroke="#8c9ca0" stroke-width="2" stroke-linecap="butt"/><g stroke="#3a2f41" stroke-linecap="round"><g><path d="M231.8147,237.86604c0,0 6.07202,107.49958 -0.82592,112.8011c-6.89795,5.30152 -44.92945,4.70509 -53.89661,4.54798c-20.63841,-0.3616 -43.223,-4.30719 -40.71172,-20.41015c2.68693,-18.90862 55.74835,-19.25989 55.74835,-19.25989c0,0 0.02264,6.12579 0,5.07829c-0.06336,-2.93203 0.11309,-8.01638 4.13787,-9.40424c4.02477,-1.38785 7.14722,2.25702 7.14722,2.25702l5.64255,-77.11479z" fill="#626171" stroke-width="3"/><path d="M231.72064,241.72178l1.69277,66.58204l-29.15314,-4.8902l5.26638,-66.74849l22.57018,6.18517" fill="#3a2f41" stroke-width="3"/><path d="M144.05324,329.81549c-0.15928,0.14575 2.7953,-1.24022 7.40072,-2.73162c6.72963,-2.17931 10.88113,-2.12096 10.88113,-2.12096l-16.06244,7.78671l15.79913,-0.6395l-13.69257,4.81498l14.19122,0.51436l-14.02918,4.35715l14.27897,3.68593c0,0 -5.77145,0.29158 -10.8121,0.12089c-3.75883,-0.12729 -5.39742,-0.28137 -4.91695,0.22526c3.19642,3.37037 13.3631,5.20277 13.3631,5.20277c0,0 -7.42514,1.08454 -13.56362,-1.29446c-5.6906,-2.20542 -10.14321,-7.57252 -9.79652,-14.99369c0.25053,-5.36281 5.80528,-9.47948 10.92492,-11.13696c5.54011,-1.79361 10.66722,-1.6528 10.66722,-1.6528c0,0 -8.57737,2.32048 -14.63301,7.86195z" fill="#3a2f41" stroke-width="2"/></g><g fill="none" stroke-width="2.5"><path d="M164.01756,322.89701c0,0 11.44051,-4.62785 23.6699,-2.96332"/><path d="M166.82824,325.66611c0,0 8.14941,-3.29654 16.86075,-2.11086"/><path d="M170.56848,328.06987c0,0 4.8583,-1.96526 10.05161,-1.25839"/><path d="M173.55934,330.60898c0,0 1.61944,-0.65509 3.35053,-0.41947"/></g><g fill="none" stroke-width="2.5"><path d="M207.14797,315.67081c0,0 -3.12769,-11.93816 0.08623,-23.8545"/><path d="M210.25359,313.23712c0,0 -2.22792,-8.5039 0.06143,-16.99226"/><path d="M213.11569,309.83478c0,0 -1.3282,-5.06964 0.03662,-10.13"/><path d="M216.01623,307.19296c0,0 -0.44274,-1.68989 0.01221,-3.37667"/></g></g><g stroke-linecap="butt"><path d="M213.77984,326.1654l17.89234,-70.30897l21.52941,7.31771l-17.89234,70.30896z" fill="#7c7984" stroke="none" stroke-width="0"/><path d="M228.13217,270.84512l3.93375,-15.4579l21.52943,7.3177l-4.15315,15.59899z" fill="#626171" stroke="none" stroke-width="0"/><path d="M214.17357,325.69615l17.89235,-70.30896l21.52942,7.31771l-17.89235,70.30897z" fill="none" stroke="#3a2f41" stroke-width="2.5"/></g><g data-paper-data="{&quot;index&quot;:null}" stroke-linecap="butt"><path d="M237.74299,236.13414l-3.21617,-17.04059l21.22037,-4.00504l4.98135,14.04365z" fill="#8c9ca0" stroke="#3a2f41" stroke-width="2"/><path d="M237.05738,234.26569l-3.21616,-17.04059l6.202,-11.93403l7.65533,-3.18471l7.36304,11.1137l4.98135,14.04364z" fill="#e1e2db" stroke="#e1e2db" stroke-width="3.5"/></g><g data-paper-data="{&quot;index&quot;:null}" stroke="#3a2f41" stroke-width="2"><g data-paper-data="{&quot;index&quot;:null}"><path d="M266.73891,258.48271l-27.18251,-62.21985l28.44989,-12.82973l32.91564,58.77721c0,0 -4.87594,9.39265 -15.68278,14.00773c-11.83571,5.05446 -18.5002,2.26463 -18.5002,2.26463z" data-paper-data="{&quot;index&quot;:null}" fill="#e1e2db" stroke-linecap="butt"/><path d="M280.98699,209.28386l-8.76033,1.02817l-11.30322,-19.99794" fill="none" stroke-linecap="round"/><path d="M278.92317,205.43836l-5.10478,0.45796l-9.4012,-17.507" fill="none" stroke-linecap="round"/></g><path d="M295.59147,232.3174c0,0 -0.84591,6.78777 -12.45408,14.13205c-9.87359,6.24684 -19.88324,2.71142 -19.88324,2.71142" data-paper-data="{&quot;index&quot;:null}" fill="none" stroke-linecap="round"/></g><g data-paper-data="{&quot;index&quot;:null}" stroke="#3a2f41" stroke-width="2"><g data-paper-data="{&quot;index&quot;:null}"><path d="M246.24834,266.87675c-15.42106,2.99213 -23.11248,-4.59239 -23.11248,-4.59239l-7.60501,-65.98887l31.38983,-4.72196l15.91811,62.70149c0,0 -3.78764,10.1176 -16.59046,12.6017z" data-paper-data="{&quot;index&quot;:null}" fill="#e1e2db" stroke-linecap="butt"/><path d="M227.08896,198.23679l3.95296,21.63228l-11.31208,4.80124" fill="none" stroke-linecap="round"/><path d="M223.2462,198.20102l3.09022,19.53933l-7.48455,3.05145" fill="none" stroke-linecap="round"/></g><path d="M260.26604,247.01033c0,0 -6.73077,8.69245 -18.99875,9.26648c-14.42321,0.67488 -19.08978,-4.41472 -19.08978,-4.41472" data-paper-data="{&quot;index&quot;:null}" fill="none" stroke-linecap="round"/></g><g data-paper-data="{&quot;index&quot;:null}"><g data-paper-data="{&quot;index&quot;:null}" stroke-linecap="butt"><path d="M244.68702,223.71855l-4.20489,-22.27926l16.82277,-3.17506l5.35442,18.5796z" fill="#8c9ca0" stroke="#3a2f41" stroke-width="2"/><path d="M243.95612,221.24447l-4.20489,-22.27926l16.82277,-3.17505l5.35442,18.5796z" fill="#e1e2db" stroke="#e1e2db" stroke-width="3.5"/></g><path d="M252.3106,197.25434l1.74974,14.03992l0.25178,8.75257" data-paper-data="{&quot;index&quot;:null}" fill="none" stroke="#3a2f41" stroke-width="2" stroke-linecap="round"/><path d="M256.98269,194.98439l1.03501,12.90247l-3.95737,3.4074" data-paper-data="{&quot;index&quot;:null}" fill="none" stroke="#3a2f41" stroke-width="2" stroke-linecap="round"/></g><path d="M273.62114,189.92653l-18.37456,13.28464l-40.15361,-7.66083l1.94332,-16.09842c0,0 -1.1071,-7.40472 -3.92648,-20.25007c-2.96022,-13.48702 -5.86832,-28.70922 -1.25161,-41.96569c1.51698,-4.35584 19.81141,-12.3061 28.3945,-12.1047c6.83944,0.1605 13.91789,1.81113 20.12348,5.50806c2.33853,1.39315 4.56762,2.13238 6.59212,4.56701c11.40662,13.71731 4.02833,27.09993 2.91076,45.41229c-0.57497,9.42134 -0.76923,16.44871 -0.76923,16.44871z" data-paper-data="{&quot;index&quot;:null}" fill="#3a2f41" stroke="#8c9ca0" stroke-width="2" stroke-linecap="round"/><g stroke-linecap="butt"><g fill="none" stroke="none" stroke-width="1" font-family="sans-serif" font-weight="normal" font-size="12" text-anchor="start"><g><g/></g></g><g><g><g fill="none" stroke="none" stroke-width="1" font-family="sans-serif" font-weight="normal" font-size="12" text-anchor="start"/><path d="M256.86861,136.69775c-0.04218,2.49255 -2.16914,4.47769 -4.7507,4.43399c-2.58154,-0.0437 -4.64011,-2.0997 -4.59793,-4.59222c0.04218,-2.49255 2.16915,-4.4777 4.7507,-4.434c2.58154,0.0437 4.64011,2.09971 4.59793,4.59223z" fill="#8c9ca0" stroke="#3a2f41" stroke-width="2"/><path d="M256.34499,154.72278c-0.04218,2.49255 -2.26724,4.47603 -4.96982,4.43029c-2.70256,-0.04574 -4.85919,-2.10341 -4.81701,-4.59593c0.04218,-2.49255 2.26723,-4.47602 4.96979,-4.43028c2.70256,0.04574 4.85922,2.1034 4.81704,4.59592z" fill="#8c9ca0" stroke="#3a2f41" stroke-width="2"/></g></g></g><g data-paper-data="{&quot;index&quot;:null}"><path d="M259.15116,121.86418l-6.86388,-8.39148c0,0 4.26355,-5.98204 7.4804,-7.84999c0.70441,-0.40904 0.93204,-0.00293 1.10217,0.07867c0.398,0.3943 2.66244,5.14512 2.16799,5.40286z" data-paper-data="{&quot;index&quot;:null}" fill="#8c9ca0" stroke="#3a2f41" stroke-width="4.5" stroke-linecap="round"/><path d="M244.3036,122.1008c0,0 -13.19791,-11.09945 -13.78627,-13.97075c0.20029,-1.36918 2.81515,-7.10009 3.57416,-5.323c0.91187,0.5693 17.00805,-1.33901 20.74716,1.3157c3.14264,2.23122 -5.90647,9.1376 -5.90647,9.1376z" fill="#3a2f41" stroke="#3a2f41" stroke-width="4.5" stroke-linecap="round"/><path d="M232.53827,107.8667c0.16748,-1.32267 0.7263,-4.55138 1.28871,-4.76619c1.08372,-0.82486 11.14875,-4.32842 13.54603,-4.47901c1.51663,-0.09527 11.74456,6.24078 12.26102,6.88312c0.947,0.57501 1.60246,4.50652 1.55509,4.98202" fill="none" stroke="#3a2f41" stroke-width="6.5" stroke-linecap="butt"/><g><path d="M259.15116,121.53084l-6.19927,-8.00797c0,0 3.59894,-6.03221 6.81579,-7.90016c0.70441,-0.40904 0.93204,-0.00293 1.10217,0.07867c0.398,0.3943 2.66244,5.14512 2.16799,5.40286z" data-paper-data="{&quot;index&quot;:null}" fill="#8c9ca0" stroke="#12161a" stroke-width="0" stroke-linecap="round"/><path d="M243.99742,121.75666c0,0 -12.89172,-10.75531 -13.48009,-13.62662c0.20029,-1.36918 2.81515,-7.1001 3.57416,-5.32301c1.67826,1.04778 17.83145,10.67902 17.83145,10.67902z" fill="#8c9ca0" stroke="#12161a" stroke-width="0" stroke-linecap="round"/><path d="M232.53827,107.86669c0.16748,-1.32267 0.7263,-4.55138 1.28871,-4.76619c1.08372,-0.82486 11.14876,-4.32841 13.54604,-4.47901c1.51663,-0.09527 11.74455,6.24079 12.26101,6.88312c0.947,0.57501 1.60246,4.50651 1.55509,4.98201" fill="none" stroke="#8c9ca0" stroke-width="2" stroke-linecap="butt"/></g></g><g data-paper-data="{&quot;index&quot;:null}"><path d="M251.90816,199.81196c0,0 -1.63929,-20.3531 2.438,-39.94175c3.25351,-15.63085 9.05468,-21.36289 9.87908,-21.69194c14.20261,-5.66858 37.15763,-0.365 48.38321,3.33609c4.64615,1.53184 5.87228,2.94528 5.87228,2.94528c0,0 -9.16201,16.76885 -11.8128,26.26531c-4.31393,15.45462 -5.77214,37.41091 -5.77214,37.41091z" fill="#8c9ca0" stroke="#3a2f41" stroke-width="2" stroke-linecap="butt"/><path d="M332.34395,189.44063c-1.74642,9.66618 -10.00914,16.2651 -18.4553,14.7391c-8.44617,-1.526 -13.8774,-10.59907 -12.13097,-20.26523c1.74642,-9.66618 10.00914,-16.26509 18.45532,-14.73907c8.44617,1.526 13.87741,10.59905 12.13097,20.26522z" fill="#8c9ca0" stroke="#3a2f41" stroke-width="3" stroke-linecap="butt"/><path d="M260.90813,207.11539c0,0 -6.22884,-19.44577 -6.71712,-39.44827c-0.38963,-15.96111 3.9546,-22.86307 4.68248,-23.37114c12.5396,-8.75246 36.09923,-8.81287 47.87259,-7.76399c4.87287,0.4341 6.38853,1.53139 6.38853,1.53139c0,0 -5.10477,18.41408 -5.52451,28.26464c-0.68305,16.03086 2.89447,37.74276 2.89447,37.74276z" fill="#8c9ca0" stroke="#3a2f41" stroke-width="2" stroke-linecap="butt"/><path d="M259.15828,203.59132c0,0 -1.63932,-20.35311 2.438,-39.94174c3.25351,-15.63085 9.05465,-21.36291 9.87908,-21.69194c14.20261,-5.66858 37.15762,-0.36499 48.38322,3.3361c4.64615,1.53184 5.87229,2.94526 5.87229,2.94526c0,0 -9.16202,16.76887 -11.81281,26.26533c-4.31393,15.45462 -5.77214,37.41091 -5.77214,37.41091z" fill="#8c9ca0" stroke="#3a2f41" stroke-width="2" stroke-linecap="butt"/><g><path d="M312.40649,200.86192l-1.53092,-1.05799l-2.01251,-0.82606l-2.96126,-1.61205l-3.07632,-0.86614l-2.49413,-0.59413l-2.5947,-1.09807l-2.31429,-2.33792l-1.03485,-2.53977l-0.43818,-3.51762l0.09373,-3.49758l1.14304,-2.20764l0.81234,-1.21978l2.027,-0.4238l-1.63151,-1.56195l-1.61701,-2.81179l-0.55324,-2.77169l0.39549,-1.98574l0.72622,-2.97357l1.77552,-1.68366l2.77456,-0.64569l-1.03484,-2.53978l-0.76889,-2.52976l0.46026,-2.98361l2.04148,-1.67363l3.42152,-1.37158l4.65066,-1.82541l4.1043,-0.59558l2.70977,0.35216l1.83269,2.56983l2.71663,4.35368l4.90138,8.68735l2.63737,6.60145l0.35206,1.76381l-2.20685,2.16756l-0.07925,2.24772l1.50195,3.5577l0.7544,3.77961l1.02034,3.78964l-0.71174,1.72374l-2.19238,0.91772l-2.50861,0.65572l0.35206,1.76381l-1.89059,2.42955l-1.50957,1.69367l-1.49509,0.44383z" fill="#e1e2db" stroke="none" stroke-width="0" stroke-linecap="round"/><path d="M297.68026,178.77372l9.78542,2.59333l-10.31184,-2.09719z" fill="#3a2f41" stroke="#3a2f41" stroke-width="1" stroke-linecap="round"/><path d="M309.12219,180.13289c0.02662,-0.07349 0.05334,-0.14744 0.08007,-0.22185c0.05487,-0.08347 0.11002,-0.16626 0.16544,-0.24823c-0.07958,0.15907 -0.16148,0.31608 -0.24551,0.47004z" fill="#59270c" stroke="none" stroke-width="0.5" stroke-linecap="butt"/><path d="M299.64449,164.3099l1.98474,1.10819l2.50307,0.81827l3.02141,0.52834l1.80619,-0.80861l1.44217,2.01668l-11.35087,-3.07895z" fill="#3a2f41" stroke="#3a2f41" stroke-width="1" stroke-linecap="round"/><path d="M313.29133,152.32044c0.07789,-0.07193 0.15695,-0.14125 0.23805,-0.2064c0.00575,-0.02662 0.01171,-0.05395 0.0179,-0.08194l0.35983,-0.17592c0.06317,-0.03513 0.12806,-0.0671 0.19503,-0.09535c0.0891,0.40469 0.00829,0.74304 -0.17201,1.03754c0.08473,-0.08632 0.17808,-0.16745 0.27805,-0.23836c-0.02672,0.2513 -0.0521,0.46751 -0.30342,0.62193l-0.05908,-0.25825c-0.0986,0.13403 -0.21731,0.2589 -0.34859,0.37705c-0.10357,-0.39246 -0.08166,-0.65765 0.03226,-1.18668c0.12038,-0.09667 0.24527,-0.18425 0.37773,-0.25787l0.19501,-0.09535l0.14466,0.52198c-0.01963,0.09597 -0.02921,0.18876 -0.0386,0.27721c0.17575,-0.12464 0.37197,-0.21774 0.57783,-0.25218c0,0 0.36929,-0.04108 0.41032,0.3282c0.04108,0.36928 -0.32821,0.41034 -0.32821,0.41034c-0.1825,-0.00219 -0.34518,0.16366 -0.44837,0.31418l-0.72174,0.53513c-0.09103,-0.24068 -0.15716,-0.42915 -0.2009,-0.59493c-0.27495,0.24742 -0.60511,0.46524 -0.92119,0.67568l-0.72602,0.47852c-0.05139,-0.35273 -0.0804,-0.59114 -0.07698,-0.78434c-0.11486,0.07895 -0.23534,0.14688 -0.35471,0.20198l-0.07568,-0.03846c-0.22141,0.15642 -0.45885,0.304 -0.73365,0.42923l0.35119,-0.97582c0.07609,-0.03513 0.15007,-0.0743 0.22247,-0.11669c0.24245,-0.52037 0.95163,-0.86297 1.46462,-1.10442l0.05056,-0.0097c0.04939,-0.02983 0.09967,-0.05854 0.151,-0.08594l0.00541,0.05593l0.03079,-0.00592c0,0 0.3499,-0.03891 0.40638,0.29965z" fill="#59270c" stroke="none" stroke-width="0.5" stroke-linecap="butt"/><path d="M312.90053,200.68267l-1.53092,-1.05799l-2.01251,-0.82606l-2.96126,-1.61205l-3.07632,-0.86614l-2.49413,-0.59413l-2.5947,-1.09807l-2.31429,-2.33792l-1.03485,-2.53977l-0.43818,-3.51762l0.09373,-3.49758l1.14304,-2.20764l0.81234,-1.21978l2.027,-0.4238l-1.63151,-1.56195l-1.61701,-2.81179l-0.55324,-2.77169l0.39549,-1.98574l0.72622,-2.97357l1.77552,-1.68366l2.77456,-0.64569l-1.03484,-2.53978l-0.76889,-2.52976l0.46026,-2.98361l2.04148,-1.67363l3.42152,-1.37158l4.65066,-1.82541l4.1043,-0.59558l2.70977,0.35216l1.83269,2.56983l2.71663,4.35368l4.90138,8.68735l2.63737,6.60145l0.35206,1.76381l-2.20685,2.16756l-0.07925,2.24772l1.50195,3.5577l0.7544,3.77961l1.02034,3.78964l-0.71174,1.72374l-2.19238,0.91772l-2.50861,0.65572l0.35206,1.76381l-1.89059,2.42955l-1.50957,1.69367l-1.49509,0.44383z" fill="none" stroke="#3a2f41" stroke-width="2.5" stroke-linecap="round"/></g><path d="M269.79682,143.64356c0,0 -4.58497,-3.51793 -12.15765,3.5348c-0.92432,0.86086 6.47299,-14.90782 41.19427,-12.62716c17.90594,1.17615 18.7403,7.94101 18.7403,7.94101c0,0 -6.61462,-2.94498 -20.55456,-2.99209c-16.06965,-0.05432 -27.22236,4.14343 -27.22236,4.14343z" fill="#e1e2db" stroke="#3a2f41" stroke-width="2" stroke-linecap="butt"/><path d="M273.10169,154.44829c0,0 4.86114,-15.69148 -3.88786,-10.16501c-1.06791,0.67455 8.96012,-13.65404 42.65661,-4.97547c5.89166,1.51741 13.15415,5.04921 15.2981,8.52341c4.1796,6.77294 -0.75005,14.45329 -0.75005,14.45329c0,0 -5.91741,-6.17187 -19.60693,-8.80269c-15.78098,-3.03274 -33.70987,0.9665 -33.70987,0.9665z" fill="#e1e2db" stroke="#3a2f41" stroke-width="2" stroke-linecap="butt"/><path d="M274.71879,138.05707c0,0 -4.11621,-4.05639 -12.50069,2.00884c-1.02342,0.74032 8.26163,-13.99597 42.43682,-7.4517c17.62432,3.37492 17.61822,10.19103 17.61822,10.19103c0,0 -6.20105,-3.73806 -20.02882,-5.50357c-15.94036,-2.03523 -27.52553,0.75539 -27.52553,0.75539z" fill="#e1e2db" stroke="#3a2f41" stroke-width="2" stroke-linecap="butt"/></g><g stroke-linecap="butt"><g data-paper-data="{&quot;index&quot;:null}"><g fill="#e1e2db" stroke="#3a2f41" stroke-width="2"><path d="M189.81849,206.70589l25.25744,1.29353l-0.71944,59.42545l-16.85569,19.30471l-30.04121,-6.85823l10.9721,-6.57176l-9.71507,-3.75157l-5.80701,-14.58564l12.10165,0.88261c0,0 -0.03721,-5.22622 1.80475,-11.33895c0.68652,-2.27829 8.21605,-12.52824 8.21605,-12.52824z"/></g><g fill="none" stroke="none" stroke-width="1" font-family="sans-serif" font-weight="normal" font-size="12" text-anchor="start"/></g><path d="M182.96769,234.17998l0.68377,-12.982l33.28719,1.75327l-0.68378,12.98201z" fill="#e1e2db" stroke="#3a2f41" stroke-width="2"/><path d="M226.00042,212.62654l-8.63585,15.33149l-35.2814,-2.10217l-5.08275,-15.06265c0,0 30.62701,-91.01609 34.83334,-93.83334c12.38528,-8.29522 12.73793,22.17488 12.96259,50.77364c0.18159,23.11557 1.20407,44.89303 1.20407,44.89303z" fill="#3a2f41" stroke="#8c9ca0" stroke-width="2"/></g><g data-paper-data="{&quot;index&quot;:null}" stroke="#3a2f41" stroke-width="2.5"><path d="M197.96696,370.33921c-1.87468,-14.97538 8.48643,-47.88506 8.48643,-47.88506l41.92392,-2.17828l-7.8933,23.6599c0,0 46.87124,-4.66799 58.60206,7.50034c3.81142,3.95358 10.58685,22.34186 2.25172,28.16316c-3.39214,2.36909 -22.45651,4.39371 -38.02074,2.60076c-19.07997,-2.19795 -34.91112,-8.62454 -34.91112,-8.62454c0,0 -29.56006,3.78472 -30.43898,-3.23628z" fill="#7c7984" stroke-linecap="butt"/><path d="M290.2171,357.6801c6.95085,10.29511 3,24 3,24" fill="none" stroke-linecap="round"/><path d="M269.7171,358.1801c6.95085,10.29511 3,24 3,24" fill="none" stroke-linecap="round"/></g><g><g><path d="M298.22921,101.86733l-13.10966,-3.32452l0.19393,-14.08112c0,0 -2.36708,13.35579 -2.90075,13.17646c-34.43994,-11.57257 -65.47858,-4.84995 -65.47858,-4.84995c0,0 -12.26131,-17.52229 -11.46779,-31.73206c0.55453,-9.93003 2.80001,-29.48254 17.68448,-43.97422c12.00438,-11.68762 32.07036,-14.40772 36.19734,-14.34511c3.29995,0.05005 16.92309,5.93222 24.73184,14.15555c12.99829,13.68846 21.30145,43.8441 21.30145,43.8441z" fill="#626171" stroke="#3a2f41" stroke-width="1.5" stroke-linecap="butt"/><g stroke-linecap="butt"><path d="M295.87542,68.62967c-1.61008,15.52551 -12.99152,26.64042 -41.20971,24.09598c-27.84989,-2.51119 -36.95232,-16.95697 -35.34225,-32.4825c1.61008,-15.52551 15.30091,-33.97049 47.33349,-29.59531c21.07122,2.87802 30.82856,22.45629 29.21848,37.98181z" fill="#7c7984" stroke="none" stroke-width="0"/><path d="M295.87542,68.62967c-1.61008,15.52551 -16.21788,4.05021 -33.56564,2.27428c-17.34432,-1.77556 -44.59638,4.86471 -42.98631,-10.66078c0.57632,-5.55727 -0.21712,-19.98369 3.74197,-25.10859c7.10161,-9.19276 23.02476,-7.29584 43.59148,-4.48673c21.07122,2.87802 30.82855,22.45629 29.21847,37.98181z" fill="#626171" stroke="none" stroke-width="0"/><path d="M247.40501,27.87146c5.6429,0.70172 12.07302,1.79584 19.25195,2.77638c21.07122,2.87802 30.82856,22.45629 29.21848,37.98181h-0.00001c-1.61008,15.52551 -12.99153,26.64042 -41.20971,24.09599c-27.84989,-2.51119 -36.95232,-16.95698 -35.34225,-32.4825c0.46752,-4.50821 0.22461,-21.89288 2.88265,-26.26321c1.10716,-1.82036 2.46785,-3.2072 4.07604,-4.24003" fill="none" stroke="#3a2f41" stroke-width="2"/></g><path d="M256.01208,68.88133c0,0 -5.51344,3.21976 -15.13884,2.33623c-9.08485,-0.8339 -13.77461,-3.91477 -13.77461,-3.91477z" fill="#e1e2db" stroke="#3a2f41" stroke-width="1" stroke-linecap="butt"/><path d="M200.14653,90.8946l-8.89694,-6.46922c0,0 -1.176,-47.68342 16.63279,-64.2103c10.30928,-12.38722 26.80394,-18.37926 26.80394,-18.37926c0,0 18.99895,-2.81768 37.64828,2.88999c12.80864,2.42404 20.6781,9.6933 26.42765,19.1839c8.99043,14.84023 11.71367,33.30548 11.71367,33.30548l-4.96852,-0.29794c0,0 0.33701,2.21213 -0.71739,7.18312c-24.85455,-7.77265 -52.53999,-9.00977 -52.53999,-9.00977l-2.67756,-9.07426l-2.56931,9.08724l-13.85201,-0.17672l-2.28121,-13.99322l-3.18569,14.20502l-6.01371,0.89055c0,0 -1.82784,40.80358 -1.96982,40.81188c-2.7352,0.16008 -15.94729,-4.2449 -15.94729,-4.2449l-1.73254,-9.25385z" fill="#7c7984" stroke="#3a2f41" stroke-width="2" stroke-linecap="butt"/><path d="M245.11822,68.32457c1.59886,-0.1775 10.15451,0.27653 10.22683,0.92792c0.07232,0.65138 -4.81596,1.94473 -6.41482,2.12225c-1.01602,0.1128 -3.22767,0.33787 -3.78009,0.07258c-0.31687,-0.15215 -0.03189,-3.12275 -0.03189,-3.12275z" data-paper-data="{&quot;index&quot;:null}" fill="#3a2f41" stroke="none" stroke-width="0.5" stroke-linecap="butt"/><path d="M261.33401,87.37958l3.91965,-4.59817l0.6173,-5.08416l-0.55797,5.05792l0.71085,4.94149" fill="none" stroke="#3a2f41" stroke-width="1" stroke-linecap="round"/><path d="M268.36539,77.21839c-0.03285,0.58817 -1.10843,1.00639 -2.40237,0.93412c-1.29394,-0.07225 -2.31627,-0.60763 -2.28342,-1.19581c0.03285,-0.58817 1.10841,-1.00639 2.40237,-0.93412c1.29394,0.07225 2.31627,0.60763 2.28342,1.19581z" fill="#7c7984" stroke="#3a2f41" stroke-width="1" stroke-linecap="butt"/><path d="M226.83278,73.3201c0.0166,-0.29745 0.2712,-0.52509 0.56864,-0.50848c0.29745,0.0166 0.5251,0.2712 0.50849,0.56864c-0.0166,0.29745 -0.2712,0.5251 -0.56864,0.50849c-0.29745,-0.0166 -0.5251,-0.27121 -0.50849,-0.56864z" fill="#3a2f41" stroke="none" stroke-width="0.5" stroke-linecap="butt"/><path d="M227.34058,76.3198c0.0166,-0.29745 0.2712,-0.5251 0.56864,-0.50849c0.29745,0.0166 0.5251,0.27121 0.50849,0.56864c-0.0166,0.29745 -0.27121,0.52509 -0.56864,0.50848c-0.29745,-0.0166 -0.52509,-0.2712 -0.50848,-0.56864z" fill="#3a2f41" stroke="none" stroke-width="0.5" stroke-linecap="butt"/><path d="M230.14616,74.45057c0.0166,-0.29745 0.2712,-0.5251 0.56864,-0.50849c0.29745,0.0166 0.5251,0.27121 0.50849,0.56864c-0.0166,0.29745 -0.2712,0.52509 -0.56864,0.50848c-0.29745,-0.0166 -0.5251,-0.2712 -0.50849,-0.56864z" fill="#3a2f41" stroke="none" stroke-width="0.5" stroke-linecap="butt"/><path d="M287.33969,73.32254c0.0166,-0.29745 0.27121,-0.52509 0.56864,-0.50848c0.29745,0.0166 0.52509,0.2712 0.50848,0.56864c-0.0166,0.29745 -0.2712,0.5251 -0.56864,0.50849c-0.29745,-0.0166 -0.5251,-0.27121 -0.50849,-0.56864z" fill="#3a2f41" stroke="none" stroke-width="0.5" stroke-linecap="butt"/><path d="M288.00467,75.92583c0.0166,-0.29745 0.2712,-0.5251 0.56864,-0.50849c0.29745,0.0166 0.5251,0.2712 0.50849,0.56864c-0.0166,0.29745 -0.2712,0.5251 -0.56864,0.50849c-0.29745,-0.0166 -0.5251,-0.2712 -0.50849,-0.56864z" fill="#3a2f41" stroke="none" stroke-width="0.5" stroke-linecap="butt"/><path d="M285.36449,74.83296c0.0166,-0.29745 0.2712,-0.5251 0.56864,-0.50849c0.29745,0.0166 0.5251,0.27121 0.50849,0.56864c-0.0166,0.29745 -0.27121,0.52509 -0.56864,0.50848c-0.29745,-0.0166 -0.52509,-0.2712 -0.50848,-0.56864z" fill="#3a2f41" stroke="none" stroke-width="0.5" stroke-linecap="butt"/><g fill="#3a2f41" stroke="#3a2f41" stroke-width="1.5" stroke-linecap="butt"><path d="M203.07888,23.90035c0.37107,0.02628 -2.68061,0.12763 -6.39588,1.9209c-3.25606,1.57163 -2.60569,2.82921 -5.12422,2.84069c-0.86455,0.00393 -1.12034,-0.27768 -1.16275,-0.83317c-0.05219,-0.6835 2.10969,-2.481 5.91151,-3.35268c2.09359,-0.48002 4.6175,-0.80103 6.77134,-0.57573z"/><path d="M203.14597,22.64009c0.22076,0.20786 -2.03184,-1.23011 -7.07353,-1.55263c-4.4185,-0.28266 -5.69975,1.11782 -7.45945,-0.13066c-0.60405,-0.42857 -0.39342,-0.79721 0.34207,-1.2935c0.90497,-0.61064 4.52071,-0.94928 8.35338,0.20466c2.11059,0.63546 4.65635,1.50334 5.83751,2.77211z"/><path d="M204.44462,21.79905c0.07326,0.27945 -1.05535,-1.96734 -5.19708,-4.43256c-3.62977,-2.16048 -5.50939,-1.47469 -6.32122,-3.34066c-0.27868,-0.64053 0.10756,-0.87579 1.01489,-0.99713c1.11641,-0.14929 4.4047,1.11417 7.04619,3.79266c1.45462,1.47499 3.1526,3.34388 3.45721,4.97768z"/></g><g data-paper-data="{&quot;index&quot;:null}" fill="#3a2f41" stroke="#3a2f41" stroke-width="1.5" stroke-linecap="butt"><path d="M299.04005,25.39919c2.15815,0.17965 4.57814,0.96495 6.54577,1.82637c3.57306,1.56426 5.36247,3.73283 5.18394,4.39467c-0.14511,0.53789 -0.44885,0.76695 -1.29755,0.60213c-2.47236,-0.48019 -1.59922,-1.59468 -4.50574,-3.74505c-3.31644,-2.45364 -6.29589,-3.12139 -5.92642,-3.07812z"/><path d="M299.20877,24.14845c1.39674,-1.02668 4.05958,-1.40542 6.25157,-1.6368c3.9805,-0.42019 7.46997,0.5857 8.24543,1.35415c0.63024,0.62455 0.76857,1.02597 0.09529,1.33457c-1.96138,0.89903 -2.95946,-0.71553 -7.35335,-1.26045c-5.01359,-0.62178 -7.49452,0.37165 -7.23893,0.20853z"/><path d="M298.08942,23.08033c0.60346,-1.54852 2.61972,-3.06859 4.32351,-4.24698c3.09399,-2.13986 6.56003,-2.769 7.62911,-2.41446c0.86888,0.28816 1.20456,0.5912 0.8115,1.16864c-1.14505,1.68219 -2.86411,0.65842 -6.83266,2.10536c-4.52828,1.651 -6.05547,3.64837 -5.93147,3.38745z"/></g><g><path d="M252.94852,6.80919c0,0 7.76543,-11.7439 19.91381,-16.67813c5.24843,-2.13173 18.2945,-4.22982 25.23721,-3.97479c5.0311,0.18481 2.04397,4.35741 6.68687,5.91859c1.61203,0.54205 0.56087,6.21619 -1.11352,11.36089c-2.46473,7.57309 -6.426,15.39089 -6.426,15.39089" fill="#7c7984" stroke="none" stroke-width="0" stroke-linecap="round"/><path d="M296.60815,20.24742c-0.75505,1.31142 -0.84329,1.0173 -10.24921,0.65569c-6.20528,-0.23856 -21.31617,-5.19438 -20.63914,-7.24287c0.63342,-1.91651 8.40015,-10.92186 14.38972,-15.45979c4.84749,-3.67265 10.76752,-6.05832 12.4859,-6.58848c1.55697,-0.48036 7.46289,-2.91511 10.15012,-1.88072c1.55862,0.59996 0.10593,4.42189 1.11176,5.12227c1.0875,0.75723 0.92111,4.58413 -0.40423,9.01444c-2.01396,6.73225 -6.00707,14.92425 -6.84491,16.37945z" fill="#626171" stroke="none" stroke-width="0" stroke-linecap="butt"/><path d="M252.78236,6.54008c4.15761,-6.62191 16.77791,-15.6834 25.57996,-18.06783c21.91599,-5.93691 30.32259,0.14353 25.76774,13.68174c-2.46473,7.57309 -8.19837,18.95703 -8.19837,18.95703" fill="none" stroke="#3a2f41" stroke-width="2" stroke-linecap="round"/><path d="M265.81444,12.94064c17.41527,-22.14423 37.62245,-28.27565 38.45223,-18.98758" fill="none" stroke="#3a2f41" stroke-width="2" stroke-linecap="round"/><path d="M296.0935,-10.02524c5.60519,-1.84858 8.92476,3.22159 8.92476,3.22159c0,0 -0.82662,7.63242 -1.89021,11.44719c-0.86788,3.11274 -4.02441,9.76659 -4.02441,9.76659c0,0 3.47969,-14.86279 2.72489,-15.62032c-2.13828,1.8118 -8.61089,10.84546 -8.61089,10.84546c0,0 5.74691,-13.53565 5.4069,-13.4186c-3.36294,1.15774 -11.56276,8.97947 -11.56276,8.97947c0,0 5.84228,-8.78083 7.30186,-11.31238c0.36917,-0.64031 -15.6851,6.99511 -15.6851,6.99511c0,0 2.07049,-1.93905 4.83205,-4.05278c3.53697,-2.70727 8.69272,-5.56831 12.58291,-6.85128z" fill="#3a2f41" stroke="#332657" stroke-width="0" stroke-linecap="round"/></g><g><path d="M200.11832,33.67565c0,0 10.41001,-27.79633 20.44149,-38.86326c4.33388,-4.78124 16.57551,-13.63797 23.71959,-17.05372c5.17702,-2.47526 4.06851,3.04558 9.48426,2.07689c1.88037,-0.33634 3.42045,5.58522 4.08676,11.33421c0.9808,8.46259 0.55922,17.94499 0.55922,17.94499" fill="#7c7984" stroke="none" stroke-width="0" stroke-linecap="round"/><path d="M258.41516,10.79528c-0.16238,1.63835 -0.38668,1.40657 -10.07279,6.01898c-6.39012,3.0429 -23.95888,6.31409 -24.21373,4.01956c-0.23842,-2.14673 3.48987,-14.75705 7.4696,-22.20498c3.22089,-6.02779 8.11798,-11.403 9.61391,-12.80969c1.35543,-1.27455 6.21571,-6.68878 9.41028,-7.12569c1.85288,-0.25341 2.13652,4.12743 3.47601,4.26018c1.4482,0.14353 3.03607,3.8515 3.72783,8.74079c1.05118,7.42969 0.76907,17.28286 0.58889,19.10085z" fill="#626171" stroke="none" stroke-width="0" stroke-linecap="butt"/><path d="M196.84022,40.49308c3.60764,-17.47784 20.71042,-43.25491 28.5251,-50.14703c19.45756,-17.16052 30.75671,-15.83636 32.35956,-0.62967c0.9808,8.46259 0.4019,22.25221 0.4019,22.25221" fill="none" stroke="#3a2f41" stroke-width="2" stroke-linecap="round"/><path d="M223.8942,20.10323c7.46425,-30.1223 25.10298,-46.56672 30.20536,-38.21706" fill="none" stroke="#3a2f41" stroke-width="2" stroke-linecap="round"/><path d="M244.00138,-17.57229c4.82491,-4.70129 10.51162,-1.65332 10.51162,-1.65332c0,0 2.66604,7.65587 3.34022,11.82496c0.55011,3.40187 0.40884,11.35926 0.40884,11.35926c0,0 -2.81373,-18.16791 -4.14928,-18.02851c0.13137,3.60777 -3.99952,16.61175 -3.99952,16.61175c0,0 -0.01355,-17.68444 -0.30398,-17.39461c-2.87245,2.86664 -7.96388,16.43763 -7.96388,16.43763c0,0 0.69357,-10.75557 4.13924,-17.75896c0.07982,-0.80019 -14.60559,18.09052 -14.60559,18.09052c0,0 1.20577,-2.92499 3.03081,-6.37926c2.3375,-4.42421 6.24286,-9.84657 9.59151,-13.10941z" fill="#3a2f41" stroke="#332657" stroke-width="0" stroke-linecap="round"/></g></g><g fill="none" stroke="#3a2f41" stroke-width="1.5" stroke-linecap="round"><path d="M195.60283,65.32505c0,0 -0.55613,-8.67559 2.60115,-17.28475"/><path d="M197.68272,63.58633c0,0 -0.39615,-6.17986 1.85287,-12.31243"/><path d="M199.7235,61.14378c0,0 -0.23616,-3.68416 1.1046,-7.3401"/><path d="M201.70549,59.2526c0,0 -0.07872,-1.22805 0.3682,-2.44671"/></g><g fill="none" stroke="#3a2f41" stroke-width="1.5" stroke-linecap="round"><path d="M199.22205,44.04898c0,0 2.1509,-10.73501 7.88048,-20.47534"/><path d="M201.77712,42.43663c0,0 1.53215,-7.64686 5.61349,-14.58518"/><path d="M204.51251,39.95483c0,0 0.9134,-4.55871 3.34652,-8.69501"/><path d="M207.01997,38.13214c0,0 0.30446,-1.51956 1.1155,-2.89834"/></g><g fill="none" stroke="#3a2f41" stroke-width="1.5" stroke-linecap="round"><path d="M208.00372,20.30029c0,0 4.59387,-9.93796 12.436,-18.07449"/><path d="M210.86424,19.32791c0,0 3.27235,-7.0791 8.85852,-12.87499"/><path d="M214.10277,17.55206c0,0 1.95083,-4.22024 5.28106,-7.67547"/><path d="M216.96601,16.36403c0,0 0.65028,-1.40673 1.76035,-2.55849"/></g><g fill="none" stroke="#3a2f41" stroke-width="1.5" stroke-linecap="round"><path d="M195.17092,82.93755c0,0 -0.74773,-6.75527 0.20415,-13.68611"/><path d="M197.02181,81.44941c0,0 -0.53263,-4.81198 0.14542,-9.74901"/><path d="M198.56477,79.41286c0,0 -0.31752,-2.86868 0.0867,-5.81192"/><path d="M200.11228,77.31141c0,0 -0.10584,-0.95622 0.0289,-1.9373"/></g><g data-paper-data="{&quot;index&quot;:null}" fill="none" stroke="#3a2f41" stroke-width="1.5" stroke-linecap="round"><path d="M299.73578,84.98385c-1.24986,6.88335 -4.06054,13.07147 -4.06054,13.07147"/><path d="M297.27111,86.75436c-0.89031,4.90321 -2.89243,9.31119 -2.89243,9.31119"/><path d="M295.26958,88.09933c-0.53075,2.92307 -1.72433,5.55092 -1.72433,5.55092"/><path d="M293.30248,89.32154c-0.17692,0.97436 -0.57478,1.8503 -0.57478,1.8503"/></g><g data-paper-data="{&quot;index&quot;:null}" fill="none" stroke="#3a2f41" stroke-width="1.5" stroke-linecap="round"><path d="M302.38341,66.1105c-0.38425,7.88827 -2.4041,15.23656 -2.4041,15.23656"/><path d="M300.15747,68.46566c-0.27372,5.61904 -1.71251,10.85344 -1.71251,10.85344"/><path d="M298.33827,70.27442c-0.16317,3.34982 -1.02091,6.47034 -1.02091,6.47034"/><path d="M296.53796,71.94066c-0.0544,1.11661 -0.34031,2.15677 -0.34031,2.15677"/></g></g></g></g></svg>