<svg version="1.1" xmlns="http://www.w3.org/2000/svg" xmlns:xlink="http://www.w3.org/1999/xlink" width="280.78686" height="223.41722" viewBox="0,0,280.78686,223.41722"><defs><linearGradient x1="1077.66312" y1="216.06021" x2="1077.66312" y2="354.07601" gradientUnits="userSpaceOnUse" id="color-1"><stop offset="0" stop-color="#ffffff" stop-opacity="0.26046"/><stop offset="1" stop-color="#ffffff" stop-opacity="0"/></linearGradient><linearGradient x1="1077.66312" y1="216.06021" x2="1077.66312" y2="354.07601" gradientUnits="userSpaceOnUse" id="color-2"><stop offset="0" stop-color="#ffffff" stop-opacity="0.26046"/><stop offset="1" stop-color="#ffffff" stop-opacity="0"/></linearGradient><linearGradient x1="1077.66312" y1="216.06021" x2="1077.66312" y2="354.07601" gradientUnits="userSpaceOnUse" id="color-3"><stop offset="0" stop-color="#ffffff" stop-opacity="0.26046"/><stop offset="1" stop-color="#ffffff" stop-opacity="0"/></linearGradient><linearGradient x1="1036.02754" y1="220.12049" x2="1036.02754" y2="358.13627" gradientUnits="userSpaceOnUse" id="color-4"><stop offset="0" stop-color="#ffffff" stop-opacity="0.26046"/><stop offset="1" stop-color="#ffffff" stop-opacity="0"/></linearGradient><linearGradient x1="1036.02754" y1="220.12049" x2="1036.02754" y2="358.13627" gradientUnits="userSpaceOnUse" id="color-5"><stop offset="0" stop-color="#ffffff" stop-opacity="0.26046"/><stop offset="1" stop-color="#ffffff" stop-opacity="0"/></linearGradient><linearGradient x1="1036.02754" y1="220.12049" x2="1036.02754" y2="358.13627" gradientUnits="userSpaceOnUse" id="color-6"><stop offset="0" stop-color="#ffffff" stop-opacity="0.26046"/><stop offset="1" stop-color="#ffffff" stop-opacity="0"/></linearGradient><linearGradient x1="235.0074" y1="108.70141" x2="243.4384" y2="188.44544" gradientUnits="userSpaceOnUse" id="color-7"><stop offset="0" stop-color="#cedee0" stop-opacity="0"/><stop offset="1" stop-color="#cedee0" stop-opacity="0.19676"/></linearGradient></defs><g transform="translate(-168.87242,-64.30346)"><g data-paper-data="{&quot;isPaintingLayer&quot;:true}" fill-rule="nonzero" stroke-linejoin="miter" stroke-miterlimit="10" stroke-dasharray="" stroke-dashoffset="0" style="mix-blend-mode: normal"><path d="" fill="#3a2f41" stroke="none" stroke-width="0" stroke-linecap="butt"/><path d="" fill="#3a2f41" stroke="url(#color-1)" stroke-width="0.5" stroke-linecap="butt"/><path d="" fill="#3a2f41" stroke="url(#color-2)" stroke-width="0.5" stroke-linecap="butt"/><path d="" fill="#3a2f41" stroke="url(#color-3)" stroke-width="0.5" stroke-linecap="butt"/><path d="" data-paper-data="{&quot;index&quot;:null}" fill="#3a2f41" stroke="url(#color-4)" stroke-width="0.5" stroke-linecap="butt"/><path d="" data-paper-data="{&quot;index&quot;:null}" fill="#3a2f41" stroke="url(#color-5)" stroke-width="0.5" stroke-linecap="butt"/><path d="" data-paper-data="{&quot;index&quot;:null}" fill="#3a2f41" stroke="url(#color-6)" stroke-width="0.5" stroke-linecap="butt"/><g data-paper-data="{&quot;index&quot;:null}" stroke="#3a2f41" stroke-linecap="butt"><path d="M170.98131,125.50091l2.57782,-12.9851l8.13412,4.59978l-6.58445,-8.42111l14.5897,-18.96038c0,0 3.93557,16.96294 11.58342,32.05451c2.69888,3.2855 -5.83414,9.77826 -5.83414,9.77826z" fill="#3a2f41" stroke-width="1.5"/><path d="M200.86633,128.28545c-2.1209,-1.33082 0.46678,-20.33699 3.32363,-24.63084c1.15555,-1.73677 15.85791,12.16402 14.38887,14.37197c-2.85685,4.29384 -14.56755,12.23222 -16.68843,10.90142z" data-paper-data="{&quot;index&quot;:null}" fill="#8c9ca0" stroke-width="2"/><path d="M201.65757,128.39553c1.82281,1.65189 -5.14927,15.78205 -8.80205,19.04261c-1.87833,1.67665 -17.51055,-11.38762 -16.03306,-12.70646c3.65277,-3.26055 22.13218,-8.78564 23.95498,-7.13374z" fill="#e1e2db" stroke-width="1.5"/><path d="M205.57164,124.39987c1.82627,2.49947 1.39004,5.92615 -0.97435,7.65371c-2.36435,1.72754 -5.76156,1.10177 -7.58782,-1.39773c-1.82627,-2.49947 -1.39004,-5.92615 0.97435,-7.6537c2.36435,-1.72754 5.76156,-1.10176 7.58782,1.39772z" fill="#e1e2db" stroke-width="2"/></g><path d="M286.52534,178.67771l-19.02389,-0.099l-1.11432,-10.15789c0,0 -0.14937,10.45117 -0.57744,10.38074c-5.3656,0.13644 -10.6685,0.35144 -15.73445,0.60973c-21.28202,1.08514 -38.38231,2.93455 -38.38231,2.93455c0,0 -7.77871,-10.95057 -8.93178,-21.85676c-0.80579,-7.62144 -1.51494,-22.77086 8.01486,-35.63344c7.68582,-10.37373 22.61195,-14.92325 25.75871,-15.38582c2.51616,-0.36989 13.60524,2.42005 20.56123,7.70948c11.57882,8.80471 25.74168,29.91077 25.74168,29.91077z" fill="#3a2f41" stroke="none" stroke-width="0" stroke-linecap="butt"/><g stroke-linecap="butt"><path d="M272.16545,151.04586c0.71393,6.75263 2.8966,12.61346 -1.46688,17.48229c-4.24173,4.73298 -14.61022,7.30831 -25.32614,8.67246c-10.66563,1.35777 -21.65253,0.07266 -26.83809,-3.84151c-5.24607,-3.95981 -4.88754,-9.35445 -5.59559,-16.05149c-1.40792,-13.31684 5.81371,-31.18475 30.74302,-33.07782c16.39865,-1.24528 27.07576,13.49918 28.48369,26.81605z" fill="#e1e2db" stroke="none" stroke-width="0"/><path d="M272.16545,151.04586c1.40794,13.31684 -11.56269,6.21955 -24.96328,7.74318c-13.3979,1.52332 -32.85551,11.83545 -34.26344,-1.4814c-1.40792,-13.31684 5.81371,-31.18475 30.74302,-33.07782c16.39865,-1.24528 27.07577,13.49919 28.48369,26.81605z" fill="#b8c1c0" stroke="none" stroke-width="0"/><path d="M248.37532,124.31259c13.72608,1.57402 23.48329,14.09202 24.752,26.09203l0.05641,0.53359c0.66784,6.31673 1.56893,12.23025 -2.15544,16.94669c-4.12732,5.2267 -13.84645,7.8206 -25.27396,9.27535c-7.89464,1.005 -17.62335,0.58866 -22.44151,-1.47855c-8.27639,-3.55094 -9.48416,-9.95716 -10.37403,-18.37406c-1.19507,-11.30344 3.82728,-25.88584 20.6187,-31.19462" fill="none" stroke="#3a2f41" stroke-width="2"/></g><path d="M199.98873,180.18742l-9.83339,-6.10216c0,0 -4.6593,-23.25614 3.98686,-39.60581c11.15217,-21.0884 33.68529,-31.19934 57.32105,-27.96778c5.06332,0.69227 17.94694,3.53743 26.13364,11.1561c9.83456,9.1522 14.21355,21.65277 14.21355,21.65277l-4.97986,-0.25137l2.00924,10.03417c0,0 -2.76475,-0.40264 -2.805,-0.6161c-0.90148,-4.78269 -2.40657,-9.46634 -2.40657,-9.46634c0,0 1.16532,3.83528 1.29366,9.67229c-2.86465,-0.22822 -18.67488,-0.22216 -18.67488,-0.22216l-2.58644,-4.12377l0.05396,4.11226l-13.71479,0.18483l-3.06716,-15.16515l1.36623,14.93405c0,0 -12.16564,1.17182 -18.02043,2.00895c-0.41296,0.05905 -2.6679,-6.22284 -2.6679,-6.22284c0,0 0.56357,6.74486 0.25445,6.78298c-3.65382,0.45043 -8.62922,1.64332 -8.62922,1.64332c0,0 3.66251,33.99939 3.53003,34.02894c-2.06064,0.4599 -20.45858,-4.14863 -20.57719,-5.55321c-0.17135,-2.02911 -2.65127,-13.28737 -2.65127,-13.28737z" fill="#3a2f41" stroke="url(#color-7)" stroke-width="0.5" stroke-linecap="butt"/><path d="M243.85215,118.53339c10.84262,-32.11355 37.31133,-46.37431 37.31133,-46.37431l-5.63783,56.44679" fill="#3a2f41" stroke="#3a2f41" stroke-width="1.5" stroke-linecap="round"/><path d="M191.18943,144.97775c6.47588,-47.51746 35.07174,-79.09257 35.07174,-79.09257l10.88352,49.57394" fill="#3a2f41" stroke="#3a2f41" stroke-width="1.5" stroke-linecap="round"/><path d="M218.7854,164.69185c0,0 3.74713,-5.95534 11.32103,-6.93667c8.02456,-1.0397 12.79072,4.97917 12.79072,4.97917c0,0 -5.13128,0.16547 -12.45401,0.88082c-6.50701,0.63565 -11.65773,1.07669 -11.65773,1.07669z" fill="#e1e2db" stroke="#3a2f41" stroke-width="1" stroke-linecap="butt"/><path d="M237.57951,163.1383l-0.02931,-4.25936l0.34533,0.2676l0.03611,3.81436z" fill="#3a2f41" stroke="#3a2f41" stroke-width="0.5" stroke-linecap="butt"/><g><path d="M226.29338,247.31905l48.0244,-0.7853c0,0 5.28896,11.94195 8.66624,19.41765c1.01081,2.23748 1.85037,4.07486 2.32563,5.07225c0.81872,3.0182 1.84682,7.23865 2.99369,12.18631c-24.42462,0.17215 -48.84703,0.47558 -72.95423,0.73453c5.114,-18.14585 10.94429,-36.62542 10.94429,-36.62542z" fill="#e1e2db" stroke="none" stroke-width="0" stroke-linecap="round"/><path d="M214.34089,272.40984c3.19534,-14.32135 15.26578,-29.93679 15.26578,-29.93679l42.83537,-0.96214c0,0 5.70033,10.82614 7.52847,14.99505c1.26759,2.8906 2.38841,7.61937 2.38841,7.61937l-25.25896,18.96617c-15.01087,0.15533 -29.97027,0.33204 -44.80503,0.48907c0.79018,-4.74878 1.51246,-8.77964 2.04595,-11.17073z" fill="#8c9ca0" stroke="none" stroke-width="0" stroke-linecap="butt"/><path d="M213.37644,283.96557c0.83389,-4.66219 1.66403,-8.92134 2.46666,-12.51874c2.8729,-12.87653 13.77556,-28.56137 13.77556,-28.56137l42.48231,-0.50823c0,0 6.72589,8.8977 12.12365,27.34887c0.89614,3.06331 2.10924,7.79848 3.49261,13.48799" fill="none" stroke="#3a2f41" stroke-width="2" stroke-linecap="round"/><path d="M275.84663,249.26053l-20.78879,10.78915l-29.25159,-9.74749" fill="none" stroke="#3a2f41" stroke-width="1.5" stroke-linecap="round"/></g><path d="M253.70145,254.5891c-9.16487,0.99126 -25.15859,-7.2632 -25.15859,-7.2632c0,0 0.68936,-5.24557 1.35526,-8.11478c0.6066,-2.61374 1.96207,-8.35149 1.96207,-8.35149c0,0 0.14952,-3.96704 -2.54712,-7.85617c-1.6895,-2.43662 -10.64383,-12.07059 -10.69695,-12.4297c-0.01021,-0.06904 0.60869,-3.89333 1.88046,-8.03255c1.4762,-4.80451 7.89412,-12.98499 10.97568,-15.07446c3.35721,-2.27638 8.0928,-3.64964 11.80267,-3.93994c5.66967,-0.44367 11.63411,0.03611 17.04184,2.27163c2.03785,0.84244 5.83448,3.28946 5.83448,3.28946c0,0 6.75597,7.12361 10.24096,16.31259c-2.62478,10.51408 -10.50184,15.56964 -10.50184,15.56964l-0.29574,6.99965c0,0 2.5654,4.85982 3.63868,7.30523c1.06969,2.43721 2.79031,7.34274 2.79031,7.34274c0,0 -9.15727,10.98016 -18.32215,11.97141z" fill="#3a2f41" stroke="#8c9ca0" stroke-width="1.5" stroke-linecap="round"/><g data-paper-data="{&quot;index&quot;:null}" stroke="#3a2f41"><g data-paper-data="{&quot;index&quot;:null}"><g><path d="M348.84903,258.57231l7.76711,-25.23951l90.30545,28.24221l-35.48582,16.14563z" fill="#e1e2db" stroke-width="0" stroke-linecap="butt"/><path d="M348.84902,258.57232l7.76711,-25.23951l38.21668,11.69235l-27.70624,19.13914z" fill="#8c9ca0" stroke-width="0" stroke-linecap="butt"/><path d="M387.05249,242.7382l-19.74221,20.82935" fill="none" stroke-width="1.5" stroke-linecap="round"/><path d="M384.48008,268.82066l21.57578,-19.89519" fill="none" stroke-width="1.5" stroke-linecap="round"/><path d="M401.26805,274.33009l24.38306,-20.15586" fill="none" stroke-width="1.5" stroke-linecap="round"/><path d="M354.39514,240.55014l2.22101,-7.2173l90.27996,27.62104l-35.46035,16.76679l-62.58671,-19.14834l1.01243,-3.28993" fill="none" stroke-width="2" stroke-linecap="butt"/></g><path d="M320.24025,255.04411l10.70602,-34.78958l43.20145,13.21742l-10.70601,34.78959z" fill="#e1e2db" stroke-width="0" stroke-linecap="butt"/><path d="M320.24025,255.04411l10.70602,-34.7896l24.92391,7.62546l-27.87582,29.5365z" fill="#8c9ca0" stroke-width="0" stroke-linecap="butt"/><path d="M329.16944,249.65931l6.29764,-20.46446l27.97017,8.55745l-6.29764,20.46447z" fill="none" stroke-width="1.5" stroke-linecap="butt"/><path d="M349.0368,233.34649l-19.86734,16.31283" fill="none" stroke-width="1.5" stroke-linecap="round"/><path d="M343.67494,253.72404l19.55246,-15.28961" fill="none" stroke-width="1.5" stroke-linecap="round"/><path d="M327.7162,231.66646l3.48084,-11.31114l43.20145,13.21742l-10.70602,34.78959l-43.20145,-13.21744l2.95438,-9.60038" fill="none" stroke-width="2" stroke-linecap="butt"/></g><g data-paper-data="{&quot;index&quot;:null}" stroke-width="2" stroke-linecap="butt"><path d="M336.51376,261.78756l-37.62996,-11.67936c0,0 -28.52465,-31.50941 -37.60935,-42.04327c-5.00316,-5.80127 -12.39928,-15.94263 -12.39928,-15.94263l15.97494,-1.73857l33.59842,24.6001l50.54439,8.89973z" fill="#3a2f41"/><path d="M329.79972,259.70466l-2.03185,-0.80515l10.19782,-36.80686l2.04703,0.5324z" fill="#8ea8ab"/></g></g><g stroke="#3a2f41"><g fill="#e1e2db" stroke-width="2"><path d="" stroke-linecap="round"/><path d="" stroke-linecap="round"/><path d="M190.20309,257.71188l5.15384,-11.36439l1.46215,9.28818l3.98992,-1.85551c0,0 -4.0088,22.7505 -4.7594,29.80138c-0.11496,1.07987 -0.21376,2.07954 -0.29756,2.97567c-6.10531,-0.06996 -12.1863,-0.14442 -18.23772,-0.22616c4.32153,-15.27423 9.6061,-32.31154 9.6167,-32.34574z" stroke-linecap="butt"/><path d="M187.131,253.98531v0c0.00001,-0.00004 0.00002,-0.00006 0.00002,-0.00006z" stroke-linecap="butt"/></g><g stroke-linecap="butt"><path d="M177.34138,248.1058c0,0 29.05656,-32.47601 38.81898,-42.87283c5.37642,-5.72578 14.12035,-13.95678 14.12035,-13.95678l0.74283,22.65284l-17.91587,29.9518l-2.9645,42.8339c-13.57099,-0.14285 -27.04314,-0.29697 -40.36006,-0.49251z" fill="#3a2f41" stroke-width="1.5"/><path d="M170.88493,280.66102l0.60219,-2.15837l38.62641,6.43548l-0.26669,1.77345c-0.82096,-0.00865 -1.64156,-0.01734 -2.46178,-0.02609z" fill="#8ea8ab" stroke-width="2"/></g></g><g><path d="M252.11107,182.21534c0.21345,2.0345 -4.65488,6.36005 -6.89099,6.59465c-2.23612,0.2346 -7.72164,-2.60206 -7.93509,-4.63655c-0.21345,-2.0345 4.9998,-3.71203 7.23591,-3.94663c2.23611,-0.2346 7.37674,-0.04596 7.59019,1.98854z" fill="#3a2f41" stroke="none" stroke-width="0" stroke-linecap="butt"/><g fill="#8c9ca0" stroke="#8c9ca0" stroke-width="1.5" stroke-linecap="butt"><path d="M228.61824,198.92804c-0.84717,-0.67148 7.97182,-15.58739 7.97182,-15.58739l8.27852,4.99338l7.44409,-7.32089c0,0 11.82832,12.81958 11.30606,13.6456c-0.28877,0.45674 -4.13596,-1.08724 -8.81708,-1.99448c-4.30616,-0.83459 -9.48822,-1.02166 -9.48822,-1.02166c0,0 -5.26057,1.9478 -9.52501,3.91609c-3.89921,1.7997 -6.81694,3.64934 -7.17018,3.36938z"/></g><path d="M236.76769,184.99941l0.30391,-1.9645l7.04345,-2.96684l7.72471,0.84035l1.00123,1.86784" fill="none" stroke="#8c9ca0" stroke-width="2" stroke-linecap="round"/></g><g fill="#8c9ca0" stroke="#3a2f41" stroke-width="1.5" stroke-linecap="butt"><path d="M250.30861,201.63176c0.08603,1.84726 -1.40916,3.41762 -3.33962,3.50753c-1.93045,0.08991 -3.56512,-1.3347 -3.65116,-3.18195c-0.08603,-1.84726 1.40917,-3.41763 3.33963,-3.50754c1.93045,-0.08991 3.56513,1.33472 3.65115,3.18196z"/><path d="M251.42201,211.61264c0.08902,1.91146 -1.47468,3.53718 -3.49261,3.63115c-2.01794,0.09397 -3.72593,-1.37938 -3.81495,-3.29084c-0.08902,-1.91146 1.47467,-3.53717 3.49259,-3.63115c2.01794,-0.09397 3.72596,1.37938 3.81498,3.29083z"/></g><path d="" fill="#3a2f41" stroke="#8c9ca0" stroke-width="2" stroke-linecap="butt"/><path d="" fill="#3a2f41" stroke="#8c9ca0" stroke-width="2" stroke-linecap="butt"/><g stroke="#393142" stroke-width="0.9" stroke-linecap="round"><path d="M256.97895,167.31783l-2.71168,5.93107l-20.56921,2.35647l2.6117,-5.52973z" fill="#393142"/><path d="M252.48832,173.40082l-18.79026,2.20453l2.6117,-5.52973l18.16066,-2.43138z" fill="#ffffff"/></g></g></g></svg>