<svg version="1.1" xmlns="http://www.w3.org/2000/svg" xmlns:xlink="http://www.w3.org/1999/xlink" width="289.1849" height="496.59058" viewBox="0,0,289.1849,496.59058"><g transform="translate(-95.40965,67.84028)"><g data-paper-data="{&quot;isPaintingLayer&quot;:true}" fill-rule="nonzero" stroke-linejoin="miter" stroke-miterlimit="10" stroke-dasharray="" stroke-dashoffset="0" style="mix-blend-mode: normal"><path d="M186.64277,187.83064c0,0 22.27815,-12.30766 29.43373,-57.01902c3.25329,-20.32808 4.56627,-61.48098 4.56627,-61.48098h83c0,0 -1.14989,51.49522 9.07163,77.53005c8.12032,20.68293 21.42837,30.46995 21.42837,30.46995l-21.36375,-1.58597c0,0 -5.58384,68.67581 -52.53133,68.50399c-41.09305,-0.1504 -55.68891,-63.20659 -55.68891,-63.20659z" fill="#8c9ca0" stroke="#3a2f41" stroke-width="2" stroke-linecap="butt"/><g data-paper-data="{&quot;index&quot;:null}" stroke-linecap="butt"><g><path d="M261.93992,350.0659l-5.84603,-87.56769l27.99943,-1.27084l5.84603,87.56769z" fill="#e1e2db" stroke="none" stroke-width="0"/><path d="M257.87371,281.67525l-1.28529,-19.25234l27.99944,-1.27084l1.08216,19.50954z" fill="#8c9ca0" stroke="none" stroke-width="0"/><path d="M262.43444,349.99059l-5.84603,-87.56769l27.99944,-1.27083l5.84603,87.56769z" fill="none" stroke="#3a2f41" stroke-width="2.5"/></g><path d="M256.10089,402.02043l0.12259,-39.97406l-2.73141,-32.18148l49.23492,-6.1147l-1.55943,35.50094l40.46021,67.41823z" fill="#3a2f41" stroke="#3a2f41" stroke-width="2.5"/></g><g stroke-linecap="butt"><g><path d="M215.87984,351.33045l0.0025,-87.76261l28.02191,-0.59628l-0.0025,87.76261z" fill="#e1e2db" stroke="none" stroke-width="0"/><path d="M215.60313,283.06392l-0.21925,-19.5383l28.02192,-0.59628l-0.00055,19.2952z" fill="#8c9ca0" stroke="none" stroke-width="0"/><path d="M215.38139,351.28823l0.0025,-87.76261l28.02192,-0.59629l-0.0025,87.76261z" fill="none" stroke="#3a2f41" stroke-width="2.5"/></g><path d="M163.76945,414.31421l41.6033,-51.80328l-3.91975,-35.31833l49.5328,2.8229l-0.5826,32.29193l2.78393,39.87718z" fill="#3a2f41" stroke="#3a2f41" stroke-width="2.5"/></g><g data-paper-data="{&quot;index&quot;:null}" stroke="#3a2f41" stroke-width="2"><path d="M195.69214,292.09432l16.18283,-90.05714l38.44151,0.98565l3.41262,93.41967z" data-paper-data="{&quot;index&quot;:null}" fill="#e1e2db" stroke-linecap="butt"/><path d="M224.8617,205.80646l-2.21315,20.69819l-14.83703,2.51386" fill="none" stroke-linecap="round"/><path d="M221.39164,208.0474l-1.55655,15.14074l-11.26504,1.76945" fill="none" stroke-linecap="round"/></g><g stroke="#3a2f41" stroke-width="2"><path d="M249.94045,296.43766l0.38,-92.98421l38.76771,-1.90027l18.35782,90.22682z" data-paper-data="{&quot;index&quot;:null}" fill="#e1e2db" stroke-linecap="butt"/><path d="M293.85924,227.93063l-15.03486,-2.16008l-2.74776,-20.64004" fill="none" stroke-linecap="round"/><path d="M292.9929,223.88883l-11.41178,-1.50088l-1.94704,-15.09968" fill="none" stroke-linecap="round"/></g><g stroke-linecap="butt"><path d="M235.8846,223.11861l1.56846,-18.12416l26.30348,-1.79124l1.43842,21.12249z" fill="#8c9ca0" stroke="#3a2f41" stroke-width="2"/><path d="M236.12029,220.70024l1.56846,-18.12416l26.30348,-1.79124l1.43842,21.12249z" fill="#e1e2db" stroke="#e1e2db" stroke-width="3.5"/></g><path d="" fill="#7c7984" stroke="none" stroke-width="0.5" stroke-linecap="butt"/><path d="" fill="#626171" stroke="none" stroke-width="0.5" stroke-linecap="butt"/><g stroke-linecap="butt"><g data-paper-data="{&quot;index&quot;:null}"><g fill="#e1e2db" stroke="#3a2f41" stroke-width="2"><path d="M139.73732,123.78145l-32.08293,0.38025l13.90445,-15.12561l-23.40596,-6.05196l22.31121,-11.83908l-12.01276,-23.83684l52.93312,23.0738l16.56345,-6.83931l-13.85991,29.96312l13.28139,28.92673l28.46838,-16.98809l8.1423,17.29216l-49.7482,29.84235z"/></g><g fill="none" stroke="none" stroke-width="1" font-family="sans-serif" font-weight="normal" font-size="12" text-anchor="start"/></g><path d="M188.44883,146.60466c-6.51158,-9.08446 -2.51352,-22.15699 -2.51352,-22.15699c0,0 34.29842,-17.80899 43.97192,-3.56655c9.67351,14.24244 -19.91511,38.98575 -19.91511,38.98575c0,0 -15.03171,-4.17774 -21.5433,-13.2622z" fill="#3a2f41" stroke="#3a2f41" stroke-width="2"/><path d="M210.32126,158.52727c0,0 -13.67382,-8.61597 -17.43658,-14.6756c-3.44942,-5.55505 -4.28177,-20.30019 -4.28177,-20.30019l3.38458,-0.89142c0,0 1.5404,13.67255 4.96559,19.08146c3.70587,5.85218 16.49397,14.80666 16.49397,14.80666z" fill="#8c9ca0" stroke="#3a2f41" stroke-width="2"/></g><path d="" data-paper-data="{&quot;index&quot;:null}" fill="#e1e2db" stroke="#3a2f41" stroke-width="1" stroke-linecap="butt"/><g><g data-paper-data="{&quot;index&quot;:null}"><path d="M210.15051,205.29005c7.26743,-16.37102 2.56029,-86.36833 12.88612,-95.92273c8.00867,-7.41036 18.59684,-8.11574 28.65778,-8.20505c9.17019,-0.0814 30.03999,7.0991 31.60737,10.7806c3.80526,8.93791 0.82706,67.1385 8.90266,92.1868l-44.56137,13.57978z" fill="#3a2f41" stroke="#3a2f41" stroke-width="2" stroke-linecap="butt"/><g><path d="M234.28397,104.28366c-0.48161,-0.28631 2.30067,-4.62745 2.74683,-4.97049c0.18227,-0.06376 0.45501,-0.43205 1.13706,0.01572c3.11475,2.04483 10.33167,8.13093 10.33167,8.13093l-10.16444,8.28791z" data-paper-data="{&quot;index&quot;:null}" fill="#8c9ca0" stroke="#3a2f41" stroke-width="4.5" stroke-linecap="round"/><path d="M248.52862,107.49908c0,0 -8.6013,-7.32632 -5.16407,-9.19406c4.08961,-2.22223 20.39807,0.92085 21.3878,0.45336c0.95055,-1.63109 3.07286,4.04558 3.14499,5.36688c-0.88206,2.68791 -10.67531,11.61536 -10.67531,11.61536z" fill="#3a2f41" stroke="#3a2f41" stroke-width="4.5" stroke-linecap="round"/><path d="M236.23844,103.84719c-0.00232,-0.45705 1.05157,-4.14979 2.07787,-4.61985c0.59167,-0.56963 11.68837,-5.76622 13.23322,-5.55063c2.44189,0.34078 12.41505,4.50784 13.44534,5.3831c0.55542,0.25099 0.81414,3.3739 0.85718,4.64818" fill="none" stroke="#3a2f41" stroke-width="6.5" stroke-linecap="butt"/><g><path d="M234.28397,104.28365c-0.48161,-0.28631 2.30067,-4.62745 2.74683,-4.97049c0.18227,-0.06376 0.45501,-0.43205 1.13706,0.01572c3.11474,2.04483 10.33167,8.13093 10.33167,8.13093l-10.16444,8.28791z" data-paper-data="{&quot;index&quot;:null}" fill="#8c9ca0" stroke="#12161a" stroke-width="0" stroke-linecap="round"/><path d="M248.52862,107.49907c0,0 14.40213,-7.88028 16.22372,-8.7407c0.95055,-1.63108 3.07286,4.04559 3.14499,5.36689c-0.88207,2.68791 -10.67532,11.61536 -10.67532,11.61536z" fill="#8c9ca0" stroke="#12161a" stroke-width="0" stroke-linecap="round"/><path d="M236.23844,103.84718c-0.00232,-0.45705 1.05157,-4.14979 2.07787,-4.61985c0.59167,-0.56963 11.68837,-5.76622 13.23322,-5.55063c2.44189,0.34078 12.41505,4.50784 13.44534,5.3831c0.55542,0.25099 0.81414,3.3739 0.85718,4.64818" fill="none" stroke="#8c9ca0" stroke-width="2" stroke-linecap="butt"/></g></g></g><path d="M247.01778,217.1891l1.37365,-8.35626l-13.52366,-35.36837l14.65001,-40.02537" fill="none" stroke="#8c9ca0" stroke-width="2" stroke-linecap="round"/><path d="M246.01778,173.0641c0,2.27817 -1.51104,4.125 -3.375,4.125c-1.86396,0 -3.375,-1.84683 -3.375,-4.125c0,-2.27817 1.51104,-4.125 3.375,-4.125c1.86396,0 3.375,1.84683 3.375,4.125z" fill="#8c9ca0" stroke="#3a2f41" stroke-width="2" stroke-linecap="butt"/><path d="M217.26778,128.9391l-11.5,-8.25l13.5,-14.75c0,0 21.78368,15.48156 26.00494,19.99538c1.76158,1.88367 4.99506,7.50462 4.99506,7.50462z" fill="#8c9ca0" stroke="#3a2f41" stroke-width="2" stroke-linecap="butt"/><path d="M248.76778,132.6891c0,0 3.72395,-5.62095 5.75274,-7.50462c4.86157,-4.51382 29.94951,-19.99538 29.94951,-19.99538l15.54775,14.75l-13.24438,8.25z" data-paper-data="{&quot;index&quot;:null}" fill="#8c9ca0" stroke="#3a2f41" stroke-width="2" stroke-linecap="butt"/></g><g stroke="#3a2f41"><path d="M317.95201,95.66782c0,0 -2.52849,-3.75402 -7.36489,-4.95416c-4.32022,-1.07206 -12.26903,-1.9059 -12.26903,-1.9059l2.96104,11.67756l-24.55363,-16.45854c0,0 -10.60409,2.77568 -27.87016,3.67963c-13.00833,0.68104 -22.33638,-1.38968 -22.33638,-1.38968l-10.16161,18.08074c0,0 -14.48207,-12.82243 -11.30511,-25.5332c1.06949,-4.2789 -13.72882,13.21959 -13.72882,13.21959c0,0 -12.57896,-22.46879 3.05706,-43.84557c0.14982,-0.20483 -15.71386,2.33272 -20.72378,-8.97199c-5.85052,-13.20146 1.85655,-25.19759 1.85655,-25.19759c0,0 5.36248,3.88081 18.16253,2.23912c1.22461,-0.15706 -1.6773,-1.25265 -3.00895,-3.37624c-1.24637,-1.98758 -0.89144,-5.01687 -0.89144,-5.01687c0,0 13.28015,7.91367 24.2672,-5.45874c11.10275,-13.51321 45.1961,-21.14755 69.86248,-11.164c11.91102,4.82091 23.3081,18.69507 34.16983,27.0445c11.63166,8.94129 22.32865,12.21545 22.32865,12.21545c0,0 -18.47531,4.24465 -14.88032,9.44413c6.36411,9.20448 17.33999,9.20553 17.33999,9.20553c0,0 -2.14276,7.05799 -11.52883,11.89427c-5.82381,3.00078 -15.14988,4.75043 -15.14988,4.75043c0,0 4.18382,7.18158 6.14123,13.87909c2.82836,9.67762 -4.37369,15.94248 -4.37369,15.94248z" fill="#e1e2db" stroke-width="2" stroke-linecap="butt"/><g><path d="M288.34025,-32.81746c0,0 16.52583,18.98021 7.26907,36.29271" fill="none" stroke-width="2" stroke-linecap="round"/><g><path d="M275.78168,-55.89953c10.5371,8.92222 14.66438,18.27389 11.89849,21.54039c-2.76588,3.2665 -12.72845,0.03252 -23.26555,-8.8897c-10.5371,-8.92222 -14.89267,-23.42052 -14.89267,-23.42052c0,0 15.72262,1.84761 26.25973,10.76983z" fill="#e3264b" stroke-width="2" stroke-linecap="butt"/><path d="M259.84697,-58.74568c17.34914,9.55807 23.27651,19.70923 23.27651,19.70923" fill="none" stroke-width="1.5" stroke-linecap="round"/><path d="M281.76017,-44.77699l-0.76463,3.61114l-2.81874,0.23392" fill="none" stroke-width="1.5" stroke-linecap="round"/><path d="M276.00719,-49.97586l0.07237,3.00953l-3.14184,0.6155" fill="none" stroke-width="1.5" stroke-linecap="round"/><path d="M269.71108,-55.30706l-0.08918,3.20032l-2.92181,1.1294" fill="none" stroke-width="1.5" stroke-linecap="round"/><path d="M263.56117,-58.87653l0.20468,2.4664l-2.21712,1.07092" fill="none" stroke-width="1.5" stroke-linecap="round"/></g></g></g><g stroke-linecap="butt"><g data-paper-data="{&quot;index&quot;:null}"><g fill="#e1e2db" stroke="#3a2f41" stroke-width="2"><path d="M345.83424,233.9558l31.38569,6.66313l-16.8824,11.70907l21.50959,11.03643l-24.36406,6.65933l6.4943,25.89064l-46.58633,-34.11788l-17.65994,3.0414l20.09204,-26.19533l-29.93696,-77.74372l16.7819,-12.99553z"/></g><g fill="none" stroke="none" stroke-width="1" font-family="sans-serif" font-weight="normal" font-size="12" text-anchor="start"/></g><g stroke="#3a2f41" stroke-width="2"><path d="M304.00082,167.49423c-10.12703,4.72985 -23.97332,0.74113 -23.97332,0.74113c0,0 -11.19762,-36.98858 4.58091,-43.87785c15.77852,-6.88927 34.65834,26.74509 34.65834,26.74509c0,0 -5.13889,11.66178 -15.26592,16.39163z" fill="#3a2f41"/><path d="M318.01053,150.53274c0,0 -10.88816,10.86067 -17.53642,13.44485c-6.09466,2.36899 -20.83693,1.47087 -20.83693,1.47087l-0.25378,-3.49079c0,0 13.72263,1.00031 19.66919,-1.37173c6.43389,-2.56643 17.58744,-13.48965 17.58744,-13.48965z" fill="#8c9ca0"/></g></g><g stroke="#3a2f41" stroke-width="1" stroke-linecap="butt"><path d="M246.77917,57.69446c0.59406,5.52474 -7.42343,9.59703 -16.89442,10.61541c-9.47099,1.01839 -16.809,-1.40277 -17.40306,-6.92751c-0.59406,-5.52474 6.60211,-10.00768 16.0731,-11.02606c9.47099,-1.01839 17.63031,1.81343 18.22438,7.33817z" fill="#e1e2db"/><path d="M246.12007,57.58723c0.55325,3.9281 -3.28445,6.93446 -6.10463,7.33167c-2.82018,0.39721 -5.55489,-2.46515 -6.10814,-6.39325c-0.55325,-3.9281 1.28445,-6.68446 4.10463,-7.08167c2.82018,-0.39721 7.55489,2.21515 8.10814,6.14325z" fill="#3a2f41"/></g><g stroke="#3a2f41" stroke-width="1" stroke-linecap="butt"><path d="M291.66456,55.37807c0.37379,5.544 -7.79935,9.2941 -17.30335,9.93489c-9.50401,0.6408 -16.73988,-2.07037 -17.11368,-7.61437c-0.37379,-5.544 6.99502,-9.73711 16.49903,-10.3779c9.50401,-0.6408 17.54421,2.51338 17.91801,8.05738z" fill="#e1e2db"/><path d="M291.18087,55.21245c0.24385,2.42714 -1.60483,4.46344 -3.35652,6.0262c-1.0969,0.9786 -2.54788,1.97414 -4.30642,2.13598c-3.60817,0.33205 -6.81093,-2.92479 -7.09896,-6.88119c-0.39654,-5.44701 2.02243,-7.59828 4.82961,-8.07884c4.58375,-0.7847 9.53574,2.85085 9.93229,6.79786z" fill="#3a2f41"/></g><path d="M254.01778,76.33064c0,0 -0.28876,2.81061 -2.44651,3.2238c-1.56592,0.29986 -3.55349,-1.9738 -3.55349,-1.9738" fill="none" stroke="#3a2f41" stroke-width="1" stroke-linecap="round"/><path d="M261.68444,12.12213c5.45993,-7.49085 22.66667,16.66667 22.66667,16.66667" fill="none" stroke="#3a2f41" stroke-width="2" stroke-linecap="round"/></g></g></svg>