<svg version="1.1" xmlns="http://www.w3.org/2000/svg" xmlns:xlink="http://www.w3.org/1999/xlink" width="239.91598" height="526.14462" viewBox="0,0,239.91598,526.14462"><defs><linearGradient x1="203.07519" y1="-31.39668" x2="209.86715" y2="64.82368" gradientUnits="userSpaceOnUse" id="color-1"><stop offset="0" stop-color="#cedee0" stop-opacity="0"/><stop offset="1" stop-color="#cedee0" stop-opacity="0.19676"/></linearGradient></defs><g transform="translate(-120.70244,83.48493)"><g data-paper-data="{&quot;isPaintingLayer&quot;:true}" fill-rule="nonzero" stroke-linejoin="miter" stroke-miterlimit="10" stroke-dasharray="" stroke-dashoffset="0" style="mix-blend-mode: normal"><g data-paper-data="{&quot;index&quot;:null}" stroke-linecap="butt"><g data-paper-data="{&quot;index&quot;:null}"><g fill="#7c7984" stroke="#3a2f41" stroke-width="2"><path d="M163.95772,128.35746l20.71174,-10.12833l2.62958,145.98183l16.52885,20.64956l-17.81467,1.93939l-35.38972,45.62766l-0.88656,-26.678l-25.25588,0.30752l17.63873,-16.53302l-19.45409,-6.60727l18.33729,-16.04849z"/></g><g fill="none" stroke="none" stroke-width="1" font-family="sans-serif" font-weight="normal" font-size="12" text-anchor="start"/></g><g stroke="#3a2f41" stroke-width="2"><path d="M172.91676,140.45638c-11.03798,-1.7582 -19.18959,-11.55393 -19.18959,-11.55393c0,0 8.88763,-37.53302 25.95324,-35.25521c17.06563,2.27782 16.48686,40.91985 16.48686,40.91985c0,0 -12.21251,7.64748 -23.25049,5.88929z" fill="#3a2f41"/><path d="M155.14907,124.32769c0,0 13.73033,7.42942 20.6222,8.12485c6.36985,0.64276 19.28644,-4.0978 19.28644,-4.0978l0.71733,3.4257c0,0 -13.92494,4.92312 -20.43633,4.32407c-7.10284,-0.65347 -20.56083,-8.09584 -20.56083,-8.09584z" fill="#8c9ca0"/></g></g><path d="M148.41055,-25.49838l-21.06651,-19.68163l21.16333,-1.21239l1.92638,-22.96011l22.25676,9.03187l10.97622,-19.99251l8.99992,28.69906z" fill="#3a21c4" stroke="#3a2f41" stroke-width="2.5" stroke-linecap="butt"/><path d="M260.98864,409.92464l-9.16557,-60.94325l39.16667,-12.22958l15.20403,34.22877l51.14056,69.33256z" data-paper-data="{&quot;index&quot;:null}" fill="#3a2f41" stroke="#3a2f41" stroke-width="2.5" stroke-linecap="butt"/><path d="M125.98864,423.31315l47.14055,-52.33256l1.20403,-24.22878l39.16667,2.22958l4.83443,60.94325z" data-paper-data="{&quot;index&quot;:null}" fill="#3a2f41" stroke="#3a2f41" stroke-width="2.5" stroke-linecap="butt"/><g data-paper-data="{&quot;index&quot;:null}" stroke="#3a2f41" stroke-width="2"><path d="M165.91818,356.38101l11.11999,-157.28898l38.41662,-2.40054l6.12698,158.22849z" data-paper-data="{&quot;index&quot;:null}" fill="#3a21c4" stroke-linecap="butt"/><path d="M190.25621,203.12593l-0.76382,29.40082l-14.62552,5.00721" fill="none" stroke-linecap="round"/><path d="M186.95093,206.62759l-0.49652,21.50057l-11.11416,3.60547" fill="none" stroke-linecap="round"/></g><g data-paper-data="{&quot;index&quot;:null}" stroke="#3a2f41" stroke-width="2"><path d="M239.43031,356.12982c0,0 -14.92592,-123.71955 -17.90077,-148.37787c-0.98781,-8.18785 -1.97372,-16.35997 -1.97372,-16.35997l34.24033,3.13059l47.39237,145.91017z" data-paper-data="{&quot;index&quot;:null}" fill="#3a21c4" stroke-linecap="butt"/><path d="M265.1674,229.55246l-15.18635,-0.30724l-7.93009,-32.6691" fill="none" stroke-linecap="round"/><path d="M263.14426,224.80832l-11.50973,-0.09038l-6.12124,-26.7191" fill="none" stroke-linecap="round"/></g><g data-paper-data="{&quot;index&quot;:null}" stroke-linecap="butt"><path d="M204.87427,228.76359l2.32325,-15.64534h21.90494v18.42674z" fill="#8c9ca0" stroke="#3a2f41" stroke-width="2"/><path d="M205.20617,226.67752l2.32325,-15.64534l5.24839,-13.05539l8.2296,1.81669l8.42694,11.2387v18.42674z" fill="#3a21c4" stroke="#3a21c4" stroke-width="3.5"/></g><g data-paper-data="{&quot;index&quot;:null}"><g data-paper-data="{&quot;index&quot;:null}"><path d="M175.56901,201.23324c5.77311,-20.10535 -5.20653,-102.97187 4.22733,-115.23244c7.31687,-9.50925 17.80712,-11.26508 27.8272,-12.24233c9.13295,-0.89073 30.57968,5.84497 32.47265,10.08906c4.59574,10.30377 6.85541,79.80138 17.15475,108.90157l-43.19609,20.01333z" fill="#3a2f41" stroke="#3a2f41" stroke-width="2" stroke-linecap="butt"/><g><path d="M190.55032,78.97917c-0.50576,-0.29892 1.87748,-5.70434 2.29137,-6.15107c0.17595,-0.09163 0.41471,-0.55339 1.13476,-0.07974c3.28827,2.16303 11.02835,8.77871 11.02835,8.77871l-9.38677,10.73988z" data-paper-data="{&quot;index&quot;:null}" fill="#8c9ca0" stroke="#3a2f41" stroke-width="4.5" stroke-linecap="round"/><path d="M205.03732,81.57128c0,0 -9.23136,-7.9713 -5.97312,-10.49088c3.87664,-2.99778 20.41423,-0.67041 21.35873,-1.31226c0.80093,-2.02276 3.42625,4.5469 3.61683,6.11258c-0.63773,3.2741 -9.59706,14.7427 -9.59706,14.7427z" fill="#3a2f41" stroke="#3a2f41" stroke-width="4.5" stroke-linecap="round"/><path d="M192.4592,78.29074c-0.04337,-0.54354 0.67536,-5.02794 1.65609,-5.67601c0.53857,-0.7289 11.13225,-7.87182 12.69143,-7.74909c2.46453,0.19402 12.77948,4.28806 13.88503,5.24013c0.57615,0.25051 1.11456,3.94336 1.27193,5.45561" fill="none" stroke="#3a2f41" stroke-width="6.5" stroke-linecap="butt"/><g><path d="M190.55031,78.97917c-0.50576,-0.29892 1.87748,-5.70434 2.29137,-6.15107c0.17595,-0.09163 0.41471,-0.55339 1.13476,-0.07974c3.28826,2.16304 11.02835,8.77871 11.02835,8.77871l-9.38677,10.73988z" data-paper-data="{&quot;index&quot;:null}" fill="#8c9ca0" stroke="#12161a" stroke-width="0" stroke-linecap="round"/><path d="M205.03732,81.57128c0,0 13.64725,-10.62181 15.3856,-11.80312c0.80093,-2.02274 3.42625,4.54691 3.61683,6.11259c-0.63774,3.2741 -9.59707,14.7427 -9.59707,14.7427z" fill="#8c9ca0" stroke="#12161a" stroke-width="0" stroke-linecap="round"/><path d="M192.4592,78.29073c-0.04337,-0.54354 0.67536,-5.02794 1.65609,-5.67601c0.53857,-0.7289 11.13225,-7.87182 12.69143,-7.74909c2.46453,0.19402 12.77948,4.28806 13.88503,5.24013c0.57615,0.25051 1.11456,3.94336 1.27193,5.45561" fill="none" stroke="#8c9ca0" stroke-width="2" stroke-linecap="butt"/></g></g></g><path d="M213.38487,212.19752l0.61853,-10.06015l-16.65667,-40.90607l11.00673,-48.88547" fill="none" stroke="#8c9ca0" stroke-width="2" stroke-linecap="round"/><path d="M208.42438,159.78972c0.20465,2.71028 -1.13556,5.03822 -2.99344,5.19959c-1.85788,0.16137 -3.52989,-1.90494 -3.73454,-4.61523c-0.20465,-2.71028 1.13556,-5.03822 2.99344,-5.19959c1.85788,-0.16137 3.52989,1.90494 3.73454,4.61523z" fill="#8c9ca0" stroke="#3a2f41" stroke-width="2" stroke-linecap="butt"/><path d="M175.80445,109.78429l-12.20357,-8.81923l12.13096,-18.71643c0,0 23.10331,16.53214 27.71626,21.53667c1.92504,2.08845 5.65291,8.49562 5.65291,8.49562z" fill="#8c9ca0" stroke="#3a2f41" stroke-width="2" stroke-linecap="butt"/><path d="M207.53853,111.51852c0,0 3.20687,-7.0095 5.05983,-9.42609c4.44023,-5.79086 28.0556,-26.38081 28.0556,-26.38081l16.82201,16.20169l-12.46006,10.96142z" data-paper-data="{&quot;index&quot;:null}" fill="#8c9ca0" stroke="#3a2f41" stroke-width="2" stroke-linecap="butt"/></g><g stroke-linecap="butt"><g data-paper-data="{&quot;index&quot;:null}"><g fill="#7c7984" stroke="#3a2f41" stroke-width="2"><path d="M289.4906,264.86831l18.33729,16.04848l-19.45409,6.60728l17.63873,16.53302l-25.25588,-0.30752l-0.88655,26.67799l-35.38973,-45.62766l-17.81467,-1.93938l16.52885,-20.64956l2.62958,-145.98183l20.71174,10.12833z"/></g><g fill="none" stroke="none" stroke-width="1" font-family="sans-serif" font-weight="normal" font-size="12" text-anchor="start"/></g><g stroke="#3a2f41" stroke-width="2"><path d="M257.5768,138.45637c-11.03798,1.75819 -23.2505,-5.88929 -23.2505,-5.88929c0,0 -0.57877,-38.64203 16.48686,-40.91985c17.06562,-2.27782 25.95324,35.25521 25.95324,35.25521c0,0 -8.15161,9.79574 -19.18959,11.55393z" fill="#3a2f41"/><path d="M275.71569,126.00868c0,0 -13.45798,7.44237 -20.56082,8.09584c-6.51138,0.59905 -20.43633,-4.32407 -20.43633,-4.32407l0.71732,-3.42571c0,0 12.91659,4.74057 19.28644,4.0978c6.89187,-0.69544 20.62221,-8.12486 20.62221,-8.12486z" fill="#8c9ca0"/></g></g><g stroke-linecap="butt"><path d="M153.8258,29.11189c0,0 12.33357,-27.97715 24.19476,-40.84128c7.12564,-7.72812 19.67224,-13.36548 22.73013,-13.45678c3.82425,-0.11419 22.45952,2.13382 33.74492,12.80313c13.99299,13.22908 16.34036,31.32085 16.9895,40.51698c0.9289,13.15958 -5.98009,27.7657 -5.98009,27.7657c0,0 -20.64221,1.40733 -46.07633,4.59966c-6.05431,0.7599 -12.38015,1.62095 -18.76372,2.58822c-0.49219,0.17348 -2.86792,-12.17318 -2.86792,-12.17318l0.81737,12.26517l-22.51052,4.11971z" data-paper-data="{&quot;index&quot;:null}" fill="#3a2f41" stroke="none" stroke-width="0"/><g><path d="M166.50813,32.26887c-0.95739,-15.11425 8.53165,-33.60339 27.74539,-35.37094c29.20882,-2.68704 41.03379,15.83934 41.99118,30.95356c0.95739,15.11425 -7.7709,28.66433 -33.12381,29.74854c-25.6882,1.09858 -35.65537,-10.21692 -36.61276,-25.33116z" fill="#7c7984" stroke="none" stroke-width="0"/><path d="M166.50813,32.26887c-0.95739,-15.11425 8.53165,-33.60339 27.74539,-35.37094c18.75371,-1.72523 33.26419,-2.79175 39.41011,6.45504c3.42631,5.15503 2.23837,19.08849 2.58106,24.49853c0.95739,15.11423 -23.5562,7.36426 -39.35231,8.24446c-15.79925,0.88039 -29.42685,11.28714 -30.38425,-3.82709z" fill="#29188b" stroke="none" stroke-width="0"/><path d="M230.91972,-2.0274c1.4258,1.07812 2.61552,2.4871 3.56113,4.30369c2.27019,4.36127 1.48585,21.18641 1.76385,25.57519c0.95739,15.11425 -7.7709,28.66433 -33.12381,29.74854c-25.6882,1.09858 -35.65537,-10.21692 -36.61276,-25.33116l-0.00001,-0.00001c-0.95739,-15.11425 8.53165,-33.60339 27.74539,-35.37094c6.54608,-0.6022 12.41638,-1.35064 17.5596,-1.75716" fill="none" stroke="#3a2f41" stroke-width="2"/></g><path d="M232.80068,26.98985c0.89185,8.48113 -5.95965,16.15295 -15.30326,17.1355c-9.34361,0.98255 -17.64109,-5.09625 -18.53294,-13.57737c-0.89185,-8.48113 5.95965,-16.15295 15.30326,-17.1355c9.34361,-0.98255 17.64109,5.09625 18.53294,13.57737z" fill="#e1e2db" stroke="#3a2f41" stroke-width="1"/><path d="M230.19338,31.37252c-0.231,6.50022 -5.68773,11.58241 -12.18795,11.35141c-6.50022,-0.231 -11.58241,-5.68773 -11.35141,-12.18795c0.231,-6.50022 5.68773,-11.58241 12.18795,-11.35141c6.50022,0.231 11.58241,5.68773 11.35141,12.18795z" fill="#3a2f41" stroke="#3a2f41" stroke-width="1"/><path d="M218.09708,32.7758c0.02053,-0.5778 0.50557,-1.02954 1.08337,-1.00901c0.5778,0.02053 1.02954,0.50557 1.00901,1.08337c-0.02053,0.5778 -0.50557,1.02954 -1.08337,1.00901c-0.5778,-0.02053 -1.02954,-0.50557 -1.00901,-1.08337z" fill="#e1e2db" stroke="none" stroke-width="0.5"/><path d="M224.37554,40.33152c0,0 -3.57201,17.54681 -12.71906,18.92703c-9.83292,1.48372 -27.19304,-8.56087 -27.19304,-8.56087z" fill="#3a2f41" stroke="#3a2f41" stroke-width="1"/><path d="M257.52171,31.15212c0,0 -0.56852,13.85573 -0.34455,16.29498c0.15504,1.68851 -20.66537,11.01747 -23.20269,10.90632c-0.16311,-0.00714 -2.97849,-41.04561 -2.97849,-41.04561c0,0 -6.14368,-0.36607 -10.56593,-0.13082c-0.37413,0.0199 -1.12571,-8.08711 -1.12571,-8.08711c0,0 -1.34903,7.91451 -1.85056,7.93146c-7.11037,0.24032 -21.76555,1.41199 -21.76555,1.41199l-1.52386,-17.97492l-0.44207,18.60647l-16.28229,2.66655l-0.80127,-4.8818l-2.1957,5.42823c0,0 -18.72644,3.31914 -22.07124,4.19213c-1.07606,-6.94021 -0.5028,-11.72777 -0.5028,-11.72777c0,0 -0.79719,5.86383 -0.85865,11.71799c-0.00275,0.26128 -3.19253,1.31983 -3.19253,1.31983l0.26859,-12.30692l-5.84512,1.34544c0,0 2.55635,-15.72661 12.27859,-28.63532c8.0932,-10.74574 22.7536,-16.82604 28.6048,-18.71123c27.31362,-8.80011 56.12847,-1.56577 73.77358,21.06444c13.68008,17.545 13.05461,46.06919 13.05461,46.06919l-10.36256,9.29607z" data-paper-data="{&quot;index&quot;:null}" fill="#3a2f41" stroke="url(#color-1)" stroke-width="0.5"/></g></g></g></svg>