<svg version="1.1" xmlns="http://www.w3.org/2000/svg" xmlns:xlink="http://www.w3.org/1999/xlink" width="202.78825" height="468.86353" viewBox="0,0,202.78825,468.86353"><g transform="translate(-2.15338,-4.39565)"><g data-paper-data="{&quot;isPaintingLayer&quot;:true}" fill-rule="nonzero" stroke-linejoin="miter" stroke-miterlimit="10" stroke-dasharray="" stroke-dashoffset="0" style="mix-blend-mode: normal"><g stroke-linecap="butt"><path d="M47.56078,235.6355l37.3228,-43.617l11.71799,10.02703l-37.32279,43.61699z" fill="#e1e2db" stroke="#3a2f41" stroke-width="2"/><path d="M64.56009,215.90389l20.65261,-23.61113l11.77664,9.95664l-20.65261,23.61113z" fill="#8c9ca0" stroke="#3a2f41" stroke-width="2"/><path d="M74.45386,228.20626c-4.45073,-6.38912 -14.67301,-7.4866 -14.67301,-7.4866l5.62199,-6.74693c0,0 8.27569,-0.73626 14.61814,6.88324c0.74635,0.89665 -4.96223,8.21862 -5.56709,7.35031z" fill="#3a2f41" stroke="none" stroke-width="0"/><path d="M86.02693,214.98667c-4.45073,-6.38912 -14.67301,-7.48661 -14.67301,-7.48661l5.62199,-6.74693c0,0 8.27568,-0.73626 14.61813,6.88324c0.74635,0.89663 -4.96223,8.21861 -5.5671,7.35028z" fill="#3a2f41" stroke="none" stroke-width="0"/></g><g><g fill="#e1e2db" stroke="none" stroke-width="0" stroke-linecap="round"><path d="M79.54935,190.33618c0,0 0.78306,-13.27626 1.65145,-14.49379c0.78493,-1.10053 7.05219,-0.94281 7.05219,-0.94281c0,0 21.2292,-28.1372 30.4654,-23.10358c5.06057,2.75795 7.85909,27.22199 1.66069,33.13325c-2.77549,2.64693 -7.58692,10.00214 -8.94359,11.66106c-2.31107,2.82596 -3.47566,9.22087 -5.29376,10.97427c-1.81809,1.7534 -6.46196,0.3631 -6.46196,0.3631l-3.19677,4.18344l-21.51355,-17.32311l4.57986,-4.45179z"/></g><path d="M118.45385,187.69592l-42.48445,6.91061l3.61678,-5.41723l1.67572,-14.35857l6.38594,-0.39046c0,0 13.40274,-14.30235 15.04101,-15.77198c5.53987,-4.9696 11.93165,-7.98992 15.15141,-7.08144c7.66064,2.16152 0.6136,36.10907 0.6136,36.10907z" fill="#8c9ca0" stroke="none" stroke-width="0" stroke-linecap="butt"/><g fill="none" stroke="#3a2f41" stroke-width="2" stroke-linecap="round"><path d="M81.20077,175.8424c0.78495,-1.10052 7.0522,-0.9428 7.0522,-0.9428c0,0 21.22919,-28.1372 30.46538,-23.10358c5.0606,2.75794 7.8591,27.22199 1.6607,33.13326c-2.77548,2.64691 -7.58692,10.00213 -8.94358,11.66104c-2.31107,2.82596 -3.47566,9.22087 -5.29376,10.97427c-1.81811,1.75339 -6.46196,0.3631 -6.46196,0.3631l-3.19678,4.18342l-21.51353,-17.32311l4.57985,-4.45179z"/><path d="M79.33092,191.20007l19.29902,16.36715"/></g></g><path d="M37.87209,173.60751c0,0 34.49984,65.77567 34.45433,65.87952c-4.13747,9.44051 -17.84143,8.16881 -17.84143,8.16881c0,0 -50.10487,-57.77686 -52.22397,-75.28422c-2.07257,-17.12295 26.47157,-30.5695 26.47157,-30.5695c0,0 -7.15788,20.90082 -6.6522,20.19816c7.75396,-10.77466 25.70626,-14.37965 25.70626,-14.37965z" data-paper-data="{&quot;index&quot;:null}" fill="#3a2f41" stroke="none" stroke-width="0" stroke-linecap="butt"/><path d="M125.03102,457.6145c0,0 -1.67934,-6.75243 -2.53226,-6.69997c-0.85253,0.05244 -3.65169,7.16848 -3.65169,7.16848l-51.98005,3.43479l30.87956,-44.86932l7.56509,-178.27159l26.16928,20.95233l-1.01968,197.9638z" data-paper-data="{&quot;index&quot;:null}" fill="#3a2f41" stroke="none" stroke-width="0" stroke-linecap="butt"/><path d="M142.38806,457.65572l-11.81759,-191.80711l25.11646,-34.14842l22.27552,182.19828l25.70003,59.36072l-50.3679,-13.21627c0,0 -3.04099,-8.74279 -3.89479,-8.71857c-0.85419,0.02422 -1.49764,7.44814 -1.49764,7.44814z" data-paper-data="{&quot;index&quot;:null}" fill="#3a2f41" stroke="none" stroke-width="0" stroke-linecap="butt"/><g data-paper-data="{&quot;index&quot;:null}"><path d="M134.76341,266.76945l-11.78914,0.36986l-16.64469,-26.07397l-0.39631,-14.99407h49.93575l-0.39632,14.99407z" fill="#3a2f41" stroke="none" stroke-width="0" stroke-linecap="butt"/><g><g><path d="M105.44027,229.82735c0,0 -0.36936,-9.07035 -0.56862,-13.96353c-0.22081,-5.42211 -0.69821,-17.14549 -0.69821,-17.14549c-0.2276,-4.72824 1.82128,-9.0934 1.45183,-13.20305c-0.9241,-10.2795 -3.46706,-18.96045 4.49215,-27.7268c7.09969,-7.81966 16.44541,-8.51112 25.32317,-8.55174c8.09176,-0.03701 26.47428,7.69418 27.84079,11.60886c-5.04096,27.36557 -7.79899,69.2084 -7.79899,69.2084c0,0 -19.39631,7.23646 -35.59315,6.51126c-8.3071,-0.37193 -14.44896,-6.73791 -14.44896,-6.73791z" fill="#e1e2db" stroke="none" stroke-width="0" stroke-linecap="round"/><g stroke="none" stroke-linecap="butt"><g fill="none" stroke-width="1" font-family="sans-serif" font-weight="normal" font-size="12" text-anchor="start"><g><g/></g></g><g><g><g fill="none" stroke-width="1" font-family="sans-serif" font-weight="normal" font-size="12" text-anchor="start"/><path d="M155.73591,166.28422c0,-0.65856 -8.14486,-10.99682 -6.32538,-10.99682c1.81948,0 8.96263,9.8592 8.5129,9.38041c-2.74978,-2.92757 -5.35022,-5.22019 -5.35022,-5.22019c0,0 4.5056,6.38193 5.44164,8.17753c1.01378,1.9447 -2.27895,-0.99855 -2.27895,-1.34097z" fill="#ffffff" stroke-width="0"/></g><path d="M116.32067,155.04073c1.7416,0.52953 -9.03108,8.05475 -9.22067,8.68511c-0.09859,0.32775 -4.09775,2.18671 -2.56745,0.62028c1.41294,-1.4463 7.56306,-6.24372 7.56306,-6.24372c0,0 0.91163,-0.93427 -2.56331,1.06766c-0.56833,0.32742 5.04675,-4.65884 6.78835,-4.12931z" data-paper-data="{&quot;index&quot;:null}" fill="#ffffff" stroke-width="0"/></g></g><path d="M163.28139,160.84559c0.83363,2.38815 -2.03216,8.50051 -1.72705,11.01398c-0.14327,0.93532 -57.01523,21.80492 -57.01523,21.80492c0,0 0.01377,-6.55515 0.02293,-10.91633c0.0137,-6.52175 0.05128,-24.4116 0.05128,-24.4116c0,0 17.27366,-9.03782 30.82725,-9.09984c8.09177,-0.03701 26.47429,7.69417 27.8408,11.60885z" fill="#8c9ca0" stroke="none" stroke-width="0" stroke-linecap="butt"/><g fill="none" stroke="none" stroke-width="1" stroke-linecap="butt" font-family="sans-serif" font-weight="normal" font-size="12" text-anchor="start"><g><g><g/></g></g><g><g><g/></g></g></g><path d="M104.65873,157.30911c0.2384,-0.28292 20.1723,-8.0239 30.78184,-8.07244c8.09176,-0.03701 26.47429,7.69417 27.8408,11.60885c-5.6317,29.33757 -7.49635,68.6372 -7.49635,68.6372c0,0 -21.88073,7.70997 -35.89579,7.08246c-8.3071,-0.37193 -14.14631,-9.09411 -14.14631,-9.09411c0.11212,-0.71325 -1.07129,-69.31633 -1.07129,-69.31633" fill="none" stroke="#3a2f41" stroke-width="2" stroke-linecap="round"/><g fill="none" stroke="none" stroke-width="1" stroke-linecap="butt" font-family="sans-serif" font-weight="normal" font-size="12" text-anchor="start"><g/></g></g><g fill="none" stroke="none" stroke-width="1" stroke-linecap="butt" font-family="sans-serif" font-weight="normal" font-size="12" text-anchor="start"><g><g><g/></g></g><g><g><g/></g></g></g></g><path d="M125.43917,193.29445c0,0 -0.64146,1.10438 -1.48379,0.4073c-0.83144,-0.68808 1.47052,-0.77166 1.47052,-0.77166l-0.96573,-8.55517l9.87184,-1.30791l1.38593,9.31602c0,0 -1.03595,1.18702 -2.05157,0.49306c-1.01562,-0.69397 1.61247,-0.7931 1.61247,-0.7931" fill="none" stroke="#3a2f41" stroke-width="2" stroke-linecap="round"/><path d="M155.53607,228.2796c-0.0348,3.88384 -10.94907,14.76277 -11.62142,-1.08528c-7.92027,-35.46293 1.81584,-76.88387 1.81584,-76.88387l9.80557,4.96946c0,0 -8.35241,49.14981 0,72.99969z" fill="#3a2f41" stroke="#3a2f41" stroke-width="1.5" stroke-linecap="butt"/><path d="M113.94776,206.72192c0.89173,14.95007 1.8721,20.94684 1.8721,20.94684c0,0 -6.80348,8.2426 -8.48827,2.16282c-0.14148,-0.51055 -0.85427,-1.12209 -0.92113,-1.84799c-1.03778,-11.2681 -3.24414,-24.37507 -3.4562,-36.29784c-0.34617,-19.46353 1.76933,-35.7712 1.76933,-35.7712l12.91877,-5.07936c0,0 -5.41561,27.03368 -3.69459,55.88673z" fill="#3a2f41" stroke="#3a2f41" stroke-width="1.5" stroke-linecap="butt"/><g><path d="M114.67692,153.89131c-0.48841,-0.2693 2.3641,-4.30487 2.8197,-4.62266c0.18573,-0.0586 0.46505,-0.4008 1.15651,0.02004c3.15774,1.92183 10.46731,7.63208 10.46731,7.63208l-12.47523,7.46734z" data-paper-data="{&quot;index&quot;:null}" fill="#8c9ca0" stroke="#3a2f41" stroke-width="4.5" stroke-linecap="round"/><path d="M129.14979,156.95754c0,0 -8.71136,-6.87349 -5.2054,-8.59915c4.17138,-2.0532 20.74393,0.9553 21.7531,0.52398c0.9753,-1.51673 3.10481,3.7876 3.17136,5.02023c-0.91108,2.50267 -8.30208,10.99661 -8.30208,10.99661z" fill="#3a2f41" stroke="#3a2f41" stroke-width="4.5" stroke-linecap="round"/><path d="M116.66722,153.49348c0,-0.42626 1.09106,-3.86527 2.13743,-4.29881c0.60478,-0.52847 11.91902,-5.3225 13.48931,-5.11413c2.4821,0.32938 12.60518,4.26291 13.64868,5.08409c0.56366,0.23672 0.81073,3.15048 0.84793,4.33912" fill="none" stroke="#3a2f41" stroke-width="6.5" stroke-linecap="butt"/><g><path d="M114.67692,153.8913c-0.48841,-0.2693 2.3641,-4.30487 2.8197,-4.62266c0.18573,-0.0586 0.46505,-0.4008 1.15651,0.02004c3.15773,1.92183 10.46731,7.63208 10.46731,7.63208l-12.47523,7.89574z" data-paper-data="{&quot;index&quot;:null}" fill="#8c9ca0" stroke="#12161a" stroke-width="0" stroke-linecap="round"/><path d="M129.14982,156.95752c0,0 14.69033,-7.28131 16.54769,-8.07516c0.9753,-1.51671 3.10481,3.78761 3.17136,5.02024c-0.9111,2.50267 -8.82542,10.99661 -8.82542,10.99661z" fill="#8c9ca0" stroke="#12161a" stroke-width="0" stroke-linecap="round"/><path d="M116.66722,153.49348c0,-0.42626 1.09106,-3.86527 2.13743,-4.29881c0.60478,-0.52847 11.91902,-5.3225 13.48931,-5.11413c2.4821,0.32938 12.60518,4.26291 13.64868,5.08409c0.56366,0.23672 0.81073,3.15048 0.84793,4.33912" fill="none" stroke="#8c9ca0" stroke-width="2" stroke-linecap="butt"/></g></g><path d="M105.17668,240.50699v-13.70886h51.44895v13.70886z" fill="#3a2f41" stroke="#8c9ca0" stroke-width="1" stroke-linecap="butt"/><g stroke-width="1.5" stroke-linecap="butt"><path d="M138.4328,241.26625c-0.75733,1.50133 -18.55804,1.53682 -19.61419,0c-1.54349,-2.24593 -1.41569,-12.9908 0.40863,-14.95356c1.50958,-1.62411 20.12884,-1.31428 19.47799,1.02833c-0.68831,2.47745 -0.08065,13.54509 -0.27241,13.92523z" fill="#e1e2db" stroke="none"/><path d="M138.70523,227.34103c-0.27956,1.00627 -0.34533,3.42971 -0.33772,5.97854c-8.03113,0.31599 -12.6387,0.72342 -20.58192,-0.43875c0.1259,-2.92494 0.60563,-5.66868 1.44166,-6.56813c1.50958,-1.62411 20.12884,-1.31428 19.47799,1.02833z" fill="#8c9ca0" stroke="none"/><path d="M138.43281,241.26625c-0.75734,1.50133 -18.55805,1.53682 -19.6142,0c-1.54347,-2.24593 -1.41569,-12.9908 0.40864,-14.95356c1.50958,-1.62411 20.12884,-1.31428 19.47799,1.02833c-0.68831,2.47745 -0.08066,13.54509 -0.27242,13.92523z" fill="none" stroke="#3a2f41"/><path d="M134.75509,238.33263c-0.47799,0.94758 -11.71317,0.96999 -12.37978,0c-0.9742,-1.41756 -0.89354,-8.19934 0.25791,-9.43816c0.95278,-1.02508 12.7046,-0.82952 12.29381,0.64905c-0.43444,1.56368 -0.05091,8.5492 -0.17194,8.78912z" fill="#3a2f41" stroke="#3a2f41"/></g><path d="M138.64873,201.88153v-3.14161h15.13205v3.14161z" fill="#e1e2db" stroke="#3a2f41" stroke-width="1" stroke-linecap="butt"/><path d="M138.64873,208.45037v-3.14161h15.13204v3.14161z" fill="#e1e2db" stroke="#3a2f41" stroke-width="1" stroke-linecap="butt"/></g><g stroke-linecap="butt"><path d="M187.96465,255.25291l-22.33888,-52.88106l14.20684,-6.00149l22.33889,52.88105z" fill="#e1e2db" stroke="#3a2f41" stroke-width="2"/><path d="M177.71469,231.21062l-12.52027,-28.76211l14.24139,-5.91665l12.52026,28.7621z" fill="#8c9ca0" stroke="#3a2f41" stroke-width="2"/><path d="M195.04992,231.33225c0,0 -10.07375,-2.05403 -16.25236,2.68461c-0.8397,0.644 -4.05915,-8.06428 -3.07605,-8.69237c8.35436,-5.33744 16.0171,-2.12629 16.0171,-2.12629z" fill="#3a2f41" stroke="none" stroke-width="0"/><path d="M171.77817,217.91027c-0.83971,0.644 -4.05916,-8.06428 -3.07606,-8.69237c8.35436,-5.33744 16.0171,-2.12629 16.0171,-2.12629l3.31131,8.13406c0,0 -10.07375,-2.05403 -16.25236,2.68461z" fill="#3a2f41" stroke="none" stroke-width="0"/></g><g><g fill="#e1e2db" stroke="none" stroke-width="0" stroke-linecap="round"><path d="M185.51404,197.09801l3.51025,5.33589l-24.74725,12.26769l-2.21778,-4.77514c0,0 -4.83454,0.35451 -6.23102,-1.75019c-1.39648,-2.10469 -1.15239,-8.60019 -2.79856,-11.85861c-0.96634,-1.91278 -4.07561,-10.13356 -6.21391,-13.31748c-4.77535,-7.11049 3.24091,-30.39268 8.77771,-31.99254c10.10538,-2.91994 24.75636,29.13828 24.75636,29.13828c0,0 6.15341,1.19962 6.68212,2.44371c0.58493,1.37634 -1.51794,14.50839 -1.51794,14.50839z"/></g><path d="M156.49606,150.99311c7.94667,-0.45594 14.67849,12.85148 14.67849,12.85148l-26.20973,11.89776c0,0 3.58456,-24.2933 11.53124,-24.74924z" fill="#8c9ca0" stroke="none" stroke-width="0" stroke-linecap="butt"/><g fill="none" stroke="#3a2f41" stroke-linecap="round"><path d="M185.51404,197.09803l3.51025,5.33589l-24.74724,12.26768l-2.21778,-4.77513c0,0 -4.83453,0.35451 -6.23102,-1.75019c-1.39648,-2.10468 -1.15239,-8.6002 -2.79856,-11.85861c-0.96634,-1.91278 -4.07562,-10.13356 -6.21391,-13.31747c-4.77535,-7.11049 3.2409,-30.39267 8.77771,-31.99253c10.10537,-2.91995 24.75636,29.13827 24.75636,29.13827c0,0 6.15341,1.19961 6.68212,2.4437z" stroke-width="2"/><path d="M163.16216,209.80126l22.37854,-11.81258" stroke-width="2"/><path d="M166.61718,183.49238l0.07546,-2.61512l14.36408,-0.73712z" stroke-width="1.5"/></g></g><path d="M166.30264,183.33287c0,0 38.67779,63.65944 38.63896,63.76599c-3.52884,9.68446 -16.80347,9.33444 -16.80347,9.33444c0,0 -54.22512,-54.73239 -57.45307,-72.0696c-3.15709,-16.95654 24.47435,-32.19076 24.47435,-32.19076c0,0 -5.81448,21.31365 -5.35451,20.58025c7.05321,-11.24588 24.73997,-15.98501 24.73997,-15.98501z" data-paper-data="{&quot;index&quot;:null}" fill="#3a2f41" stroke="none" stroke-width="0" stroke-linecap="butt"/><path d="M157.60603,147.49707c0,0 -12.51713,-7.38946 -26.6904,-7.45919c-5.93411,-0.02919 -12.15854,0.41696 -17.87615,4.52075c-0.21894,0.19311 0,-20.07944 0,-20.07944h50.19859l-5.63204,23.0179z" fill="#8c9ca0" stroke="#3a2f41" stroke-width="2" stroke-linecap="butt"/><g><g><g><path d="M110.45868,68.78905l14.5648,-50.60225l8.64337,-11.55491l3.84417,14.02504l-13.84371,47.96452" fill="#e1e2db" stroke="none" stroke-width="0" stroke-linecap="round"/><path d="M109.95801,69.89386l5.33794,-18.29274l15.55498,-6.82468l-5.27501,17.6712z" fill="#8c9ca0" stroke="none" stroke-width="0" stroke-linecap="butt"/><path d="M110.45867,68.78905l14.5648,-50.60225l8.64338,-11.55491l3.84417,14.02504l-13.84371,47.96452" fill="none" stroke="#3a2f41" stroke-width="2" stroke-linecap="round"/></g><path d="M133.6519,7.63946l1.4455,5.30817l-2.55356,1.89986l-2.69492,-2.41441z" fill="#3a2f41" stroke="#3a2f41" stroke-width="2" stroke-linecap="round"/></g><path d="M124.35179,20.85186l3.14063,-0.87851l2.49776,4.22355l3.64812,-2.48171l2.81113,2.42924" fill="none" stroke="#3a2f41" stroke-width="2" stroke-linecap="round"/></g><g><path d="M117.72413,99.57792l-1.98045,50.79243l-19.97844,-10.84147l1.35126,-17.49132l-4.44542,15.19399c0,0 -7.02389,-6.22076 -6.96057,-6.56422c3.00401,-14.74134 5.63135,-46.33623 5.15754,-46.34609" data-paper-data="{&quot;index&quot;:null}" fill="#e1e2db" stroke="none" stroke-width="0" stroke-linecap="round"/><path d="M85.74324,130.75461l1.75574,-12.57395l10.26408,7.39305l13.39558,9.70763l5.42334,-3.78483l-0.63961,18.80501l-20.0223,-10.38477c0,0 0.19137,-13.00836 0.15274,-12.84161c-0.69056,2.98123 -3.37888,10.18296 -3.37888,10.18296z" data-paper-data="{&quot;index&quot;:null}" fill="#8c9ca0" stroke="none" stroke-width="0" stroke-linecap="butt"/><path d="M117.72412,99.57794l-1.98045,50.79243l-19.97844,-10.84148l1.35126,-17.49132l-4.44542,15.19399c0,0 -7.02389,-6.22076 -6.96057,-6.56422c3.28962,-19.88217 6.20256,-42.62342 5.72875,-42.63328" data-paper-data="{&quot;index&quot;:null}" fill="none" stroke="#3a2f41" stroke-width="2" stroke-linecap="round"/></g><path d="M98.87944,125.58701c0,0 1.64304,-25.68673 5.95794,-31.80943c7.01666,-9.95644 22.02926,-9.47499 30.06771,-9.70879c12.00927,-0.34928 23.05526,5.51029 26.69205,15.78552c3.37298,9.52992 1.0427,26.935 0.67149,29.18413c-0.87105,5.27764 -27.27231,11.99644 -33.03501,12.25156c-5.7627,0.25512 -25.86913,-8.57408 -30.35418,-15.703z" fill="#e1e2db" stroke="#3a2f41" stroke-width="2" stroke-linecap="butt"/><g><g><path d="M201.50503,26.93375l-6.12914,13.59034l-28.34725,26.44609c0,0 5.0272,4.80059 13.81419,10.69752c8.93374,5.99541 13.00077,7.17808 13.00077,7.17808c0,0 -4.88299,2.91393 -9.1937,2.57115c-0.55408,-0.04406 7.14285,25.18089 9.06602,49.09667c0.02802,0.34844 -12.00289,7.65223 -12.00289,7.65223l-1.91535,-15.8554l-1.78767,17.69193l-21.96275,7.2237l4.52175,-51.72953c0,0 -1.84598,4.13162 -3.69003,6.16106c-1.93392,2.12834 -7.65675,6.32639 -7.65675,6.32639c0,0 1.89909,-6.64863 2.37628,-11.93809c-0.02216,-0.70846 1.85236,0.30075 -5.98275,7.0186c-9.44524,8.09838 -21.08463,11.62338 -21.08463,11.62338c0,0 -1.07418,-2.51451 -2.73684,-7.01342c-0.87672,-2.37229 -1.73404,-5.8973 -2.38804,-11.5044c-1.41109,6.75542 2.02884,19.03787 2.02884,19.03787c0,0 -5.23526,-1.79842 -9.69763,-6.27343c-5.03574,-5.05 -5.78155,-6.18727 -5.78155,-6.18727l2.74792,8.99865c0,0 -11.57619,-4.20129 -20.45743,-9.38093c-2.63766,-1.53831 -11.55694,-0.61217 -11.55694,-0.61217c0,0 -0.4637,-2.79256 0.19603,-5.91749c0.63706,-3.01756 2.38678,-6.34507 3.01461,-7.76729c1.88593,-4.27223 4.73617,-6.25458 4.73617,-6.25458c0,0 -3.34331,-3.10138 -4.24404,-4.65763c-1.03188,-1.78289 -1.60746,-5.4525 -1.60746,-5.4525c0,0 8.66663,0.08398 13.2912,-2.53684c7.5622,-4.28564 38.53361,-24.39203 42.39158,-24.84752c2.67359,-0.31564 22.60119,9.67242 22.60119,9.67242l29.49647,-28.64993z" fill="#e1e2db" stroke="none" stroke-width="0" stroke-linecap="round"/><path d="M156.65303,60.09556l7.14045,-6.55905l15.83783,1.67911l-12.93869,11.91124z" fill="#8c9ca0" stroke="none" stroke-width="0" stroke-linecap="butt"/><path d="M182.32906,144.56942c0,0 -1.69468,-14.91921 -1.99097,-18.06376c-0.01658,-0.17588 -1.56289,19.78749 -1.56289,19.78749l-21.56335,6.99874l1.07423,-21.56413l21.80427,-6.28918l0.70643,4.13247l12.64135,-5.01985l1.1492,12.67208z" fill="#8c9ca0" stroke="none" stroke-width="0" stroke-linecap="butt"/><path d="M201.46426,26.93377l-6.12913,13.59034l-28.34726,26.44609c0,0 5.02721,4.80059 13.8142,10.69752c8.93376,5.99541 13.00077,7.17808 13.00077,7.17808c0,0 -4.88299,2.91393 -9.1937,2.57115c-0.55408,-0.04406 7.14284,25.18089 9.06601,49.09667c0.02803,0.34844 -12.00288,7.65223 -12.00288,7.65223l-1.91535,-15.8554l-1.78767,17.69193l-21.96274,7.2237c0,0 4.1308,-51.61857 4.09334,-51.48479c-2.32847,8.3155 -10.06158,8.53983 -10.06158,8.53983c0,0 0.76049,-4.04257 1.32015,-7.64264c-11.15884,12.5966 -26.97707,17.80466 -26.97707,17.80466c0,0 -3.30948,-6.13422 -5.20375,-17.41628c-1.4111,6.75542 2.19045,17.63011 2.19045,17.63011c0,0 -3.83876,-0.80184 -8.27791,-4.46529c-5.44331,-4.49214 -7.17496,-6.80185 -7.17496,-6.80185l2.5337,8.14185c0,0 -9.132,-1.79423 -16.64672,-8.20172c-0.6869,-0.58571 -3.01556,-1.50943 -3.01556,-1.50943c0,0 -4.27152,-0.69435 -6.31936,-0.71916c-1.93698,-0.02347 -5.65362,0.57411 -5.65362,0.57411c0,0 -0.92285,-12.7734 8.26517,-19.94546c-5.98907,-3.4134 -6.62037,-9.45554 -6.62037,-9.45554c0,0 8.95224,-0.48723 13.57681,-3.10805c7.5622,-4.28564 38.53361,-24.39203 42.39158,-24.84752c2.67358,-0.31564 22.60119,9.67242 22.60119,9.67242l29.49648,-28.64993z" fill="none" stroke="#3a2f41" stroke-width="2" stroke-linecap="round"/><path d="M184.94643,33.91184l3.08703,0.91827l-0.29529,4.85369l4.40238,-0.15742l0.96637,3.51565" fill="none" stroke="#3a2f41" stroke-width="2" stroke-linecap="round"/></g><path d="M200.34127,27.87749l-2.06697,4.775h-3.0065l-0.56373,-3.30576z" fill="#3a2f41" stroke="#3a2f41" stroke-width="2" stroke-linecap="round"/></g><path d="M132.26185,120.97654c0,0 2.93632,-13.02615 14.17269,-13.02615c10.53359,0 14.40694,9.76961 14.40694,9.76961c0,0 -4.821,8.71816 -14.88607,8.71816c-11.00209,0 -13.69355,-5.46162 -13.69355,-5.46162z" fill="#e1e2db" stroke="#3a2f41" stroke-width="1.5" stroke-linecap="butt"/><g data-paper-data="{&quot;index&quot;:null}" fill="none" stroke="#3a2f41" stroke-width="2" stroke-linecap="round"><path d="M124.57891,120.94096l-0.53338,5.97892l-22.68845,-0.82286l-0.61911,-5.99368"/><path d="M160.99678,120.94098l-0.58317,5.97892l-28.28635,-0.08824l-0.40915,-5.9937"/><path d="M130.96504,124.27759h-6.42669"/></g><path d="M138.50608,124.41797v-13.22305h2.93846v13.22305z" fill="#8c9ca0" stroke="none" stroke-width="0" stroke-linecap="butt"/><g><path d="M156.54662,150.20746l3.41356,-46.74445l13.81174,-3.36071l-2.25819,45.26777z" fill="#e1e2db" stroke="#3a2f41" stroke-width="2" stroke-linecap="butt"/><path d="M171.51371,136.96828l-13.65419,3.5644" fill="none" stroke="#3a2f41" stroke-width="2" stroke-linecap="round"/><path d="M158.38468,131.1125l13.65419,-3.5644" fill="none" stroke="#3a2f41" stroke-width="2" stroke-linecap="round"/><path d="M157.3869,149.34182l0.31509,-3.81899l12.76142,-3.66623v3.66623z" fill="#8c9ca0" stroke="none" stroke-width="0" stroke-linecap="butt"/><path d="M172.82663,118.12793l-13.65419,3.5644" fill="none" stroke="#3a2f41" stroke-width="2" stroke-linecap="round"/><path d="M159.43499,112.52676l13.65419,-3.5644" fill="none" stroke="#3a2f41" stroke-width="2" stroke-linecap="round"/><path d="M167.57502,146.38846l1.57548,-44.75857l4.14878,-1.68035l-1.57549,45.98065z" fill="#3a2f41" stroke="none" stroke-width="0" stroke-linecap="butt"/><path d="M162.74353,106.72187l0.3151,-3.51347l8.03497,-1.68035v3.20795z" fill="#3a2f41" stroke="none" stroke-width="0" stroke-linecap="butt"/><path d="M162.74354,115.42917v-3.51347l8.50761,-1.83311v2.90243z" fill="#3a2f41" stroke="none" stroke-width="0" stroke-linecap="butt"/><path d="M162.58596,124.59476v-3.81899l8.50761,-1.83312v3.20795z" fill="#3a2f41" stroke="none" stroke-width="0" stroke-linecap="butt"/><path d="M162.27087,133.45482v-3.81899l8.5076,-1.83312l-0.15755,3.51347z" fill="#3a2f41" stroke="none" stroke-width="0" stroke-linecap="butt"/><path d="M161.48315,143.38417l0.31509,-3.81898l8.50761,-1.83311l0.3151,3.36071z" fill="#3a2f41" stroke="none" stroke-width="0" stroke-linecap="butt"/></g><path d="M116.69126,58.17933c0,0 3.43834,11.13844 2.57041,11.99525c-1.51538,1.49597 -7.28283,2.9288 -7.28283,-0.8568c0,-3.7856 4.71242,-11.13845 4.71242,-11.13845z" data-paper-data="{&quot;index&quot;:null}" fill="#3a2f41" stroke="#3a2f41" stroke-width="2" stroke-linecap="butt"/><path d="M150.26254,60.41572c0,0 2.89393,8.23992 2.0228,11.92393c-0.87113,3.68401 -6.15408,0.96244 -7.28455,-0.8421c-0.64747,-1.03354 5.26175,-11.08184 5.26175,-11.08184z" data-paper-data="{&quot;index&quot;:null}" fill="#3a2f41" stroke="#3a2f41" stroke-width="2" stroke-linecap="butt"/><path d="M87.69761,103.60634c0.19848,-0.24519 3.34095,1.96966 7.01886,4.94703c3.67791,2.97737 12.81748,7.73178 12.61899,7.97697c-0.19849,0.24519 -11.05219,-1.96966 -14.7301,-4.94703c-0.73361,-0.59387 -2.91993,-0.30955 -2.90118,-1.19415c0.02981,-1.40648 0.07234,-3.11186 0.07234,-3.11186c0,0 -2.19495,-3.52761 -2.07891,-3.67095z" data-paper-data="{&quot;index&quot;:null}" fill="#e1e2db" stroke="none" stroke-width="0" stroke-linecap="butt"/><path d="M148.93335,102.08261c0,0 -5.66385,5.48214 -8.2676,7.20061c-3.68186,2.43004 -11.5324,6.79939 -11.5324,6.79939" fill="none" stroke="#3a2f41" stroke-width="1.5" stroke-linecap="round"/><g data-paper-data="{&quot;index&quot;:null}" stroke-linecap="round"><path d="M118.04197,129.39715l21.67873,-0.84594l0.28892,17.36139l-19.2486,-3.68349z" fill="#3a2f41" stroke="#3a2f41" stroke-width="0.9"/><g stroke="#313851" stroke-width="0.45"><path d="M119.01226,129.27233l20.70844,-0.72112l0.11816,2.54766l-1.22859,2.84665l-1.79867,-2.94016l-15.09646,0.41039l-1.35888,1.48311z" fill="#ffffff"/><path d="M123.70248,131.33043l-0.25018,-2.22102" fill="none"/></g><g stroke="#313851" stroke-width="0.45"><g><path d="M123.42015,141.10566c0,0 1.60451,-1.56782 2.63213,-2.26971c1.0962,-0.74874 2.29995,-1.47231 2.29995,-1.47231l0.34447,0.67758c0,0 -2.11784,1.84595 -2.84893,2.78916c-0.44068,0.56853 -0.75736,1.47114 -0.75736,1.47114c0,0 -0.92451,-0.13248 -1.22606,-0.37396c-0.30155,-0.24148 -0.44421,-0.8219 -0.44421,-0.8219z" fill="#ffffff"/><path d="M127.56756,139.07008l-0.32723,-0.94275" fill="none"/></g><path d="M123.15849,139.82271l0.75828,1.58519l13.1321,2.15214l1.53858,-2.28075l1.48157,4.80526l-17.17732,-3.26538z" fill="#ffffff"/></g></g></g></g></svg>