<svg version="1.1" xmlns="http://www.w3.org/2000/svg" xmlns:xlink="http://www.w3.org/1999/xlink" width="239.66489" height="450.38449" viewBox="0,0,239.66489,450.38449"><defs><linearGradient x1="273.16061" y1="16.18368" x2="263.64759" y2="112.17322" gradientUnits="userSpaceOnUse" id="color-1"><stop offset="0" stop-color="#cedee0" stop-opacity="0"/><stop offset="1" stop-color="#cedee0" stop-opacity="0.19676"/></linearGradient></defs><g transform="translate(-120.04256,45.06724)"><g data-paper-data="{&quot;isPaintingLayer&quot;:true}" fill-rule="nonzero" stroke-linejoin="miter" stroke-miterlimit="10" stroke-dasharray="" stroke-dashoffset="0" style="mix-blend-mode: normal"><g stroke-linecap="butt"><path d="M270.75483,327.21369l4.37271,-65.44817l22.42475,1.94558l-4.37271,65.44818z" fill="#7c7984" stroke="none" stroke-width="0"/><path d="M274.13926,282.55944l2.508,-20.14799l20.65846,1.62557l-0.92994,20.63753z" fill="#626171" stroke="none" stroke-width="0"/><path d="M271.15636,327.20889l4.37271,-65.44817l22.42476,1.94559l-4.37271,65.44818z" fill="none" stroke="#3a2f41" stroke-width="2.5"/></g><path d="M260.67341,363.96725c-9.34757,-12.92655 -0.23525,-30.60138 -0.23525,-30.60138c0,0 0.76313,-9.46008 4.82641,-10.85843c4.06329,-1.39835 31.87889,-1.57366 34.56827,0.73828c5.20313,4.4729 2.65197,8.32222 2.65197,8.32222c0,0 24.76742,-6.75071 39.74145,1.19796c14.14694,7.50962 15.47045,35.62517 3.25809,41.24248c-36.04369,16.57899 -73.36267,-7.96458 -73.36267,-7.96458c0,0 -8.78752,1.60294 -11.44827,-2.07655z" fill="#e1e2db" stroke="#3a2f41" stroke-width="2.5" stroke-linecap="butt"/><g data-paper-data="{&quot;index&quot;:null}" stroke-linecap="butt"><path d="M183.59741,331.71691l22.69793,-61.54176l21.26873,7.36861l-22.69794,61.54176z" fill="#7c7984" stroke="none" stroke-width="0"/><path d="M201.33754,283.36482l4.88753,-13.76192l21.26874,7.36863l-4.9903,13.53036z" fill="#626171" stroke="none" stroke-width="0"/><path d="M183.52717,331.14466l22.69793,-61.54177l21.26874,7.36862l-22.69793,61.54176z" fill="none" stroke="#3a2f41" stroke-width="2.5"/></g><path d="M141.21022,402.26296c-31.90614,-10.12298 -19.81538,-45.53261 -2.91341,-56.94968c11.80945,-7.97714 30.34038,-4.86607 30.34038,-4.86607c0,0 -5.26347,-5.1472 -1.38547,-10.51162c4.06346,-5.62098 38.5898,-0.5343 41.65251,4.18767c3.59107,5.53657 0.23622,10.10701 0.23622,10.10701c0,0 4.69995,24.54928 -7.57173,34.74479c-2.53541,2.10646 -8.59788,3.73544 -8.59788,3.73544c0,0 -6.71446,10.80535 -18.70786,16.41508c-11.1264,5.20421 -22.83438,6.37941 -33.05277,3.13739z" data-paper-data="{&quot;index&quot;:null}" fill="#e1e2db" stroke="#3a2f41" stroke-width="2.5" stroke-linecap="butt"/><g data-paper-data="{&quot;index&quot;:null}" stroke="#3a2f41" stroke-width="2"><g data-paper-data="{&quot;index&quot;:null}"><path d="M267.87672,269.92958l-14.4424,-80.23598l30.80196,-5.16945l20.82201,78.21389c0,0 -6.72668,9.11302 -18.37497,10.78119c-12.75728,1.82699 -18.80656,-3.58964 -18.80656,-3.58964z" data-paper-data="{&quot;index&quot;:null}" fill="#e1e2db" stroke-linecap="butt"/><path d="M291.91018,218.42363l-8.8965,-1.75033l-7.18773,-26.64576" fill="none" stroke-linecap="round"/><path d="M290.63687,213.33644l-5.15573,-1.18139l-5.80232,-23.16173" fill="none" stroke-linecap="round"/></g><path d="M301.76165,249.6437c0,0 -2.20501,7.48013 -15.19736,12.00183c-11.05094,3.84603 -20.26833,-3.54065 -20.26833,-3.54065" data-paper-data="{&quot;index&quot;:null}" fill="none" stroke-linecap="round"/></g><g data-paper-data="{&quot;index&quot;:null}" stroke="#3a2f41" stroke-width="2"><g data-paper-data="{&quot;index&quot;:null}"><path d="M219.50379,280.40987c-14.91872,-4.9529 -17.32101,-17.97888 -17.32101,-17.97888l30.09228,-80.89832l29.60761,11.67325l-21.12053,81.6211c0,0 -8.87259,9.69482 -21.25834,5.58282z" data-paper-data="{&quot;index&quot;:null}" fill="#e1e2db" stroke-linecap="butt"/><path d="M241.13419,190.11042l-8.60965,27.31816l-12.39038,-0.60218" fill="none" stroke-linecap="round"/><path d="M237.85034,187.96754l-8.18957,24.41245l-8.12847,-0.54409" fill="none" stroke-linecap="round"/></g><path d="M242.58294,264.97193c0,0 -10.61176,6.42812 -21.47743,0.38733c-12.77454,-7.10204 -13.96123,-15.57259 -13.96123,-15.57259" data-paper-data="{&quot;index&quot;:null}" fill="none" stroke-linecap="round"/></g><g data-paper-data="{&quot;index&quot;:null}"><g data-paper-data="{&quot;index&quot;:null}" stroke-linecap="butt"><path d="M251.93168,217.29653l-4.20489,-22.27926l16.82277,-3.17506l5.35442,18.5796z" fill="#8c9ca0" stroke="#3a2f41" stroke-width="2"/><path d="M251.20078,214.82245l-4.20489,-22.27926l16.82277,-3.17505l5.35442,18.5796z" fill="#e1e2db" stroke="#e1e2db" stroke-width="3.5"/></g><path d="M259.55526,190.83232l1.74974,14.03992l0.25178,8.75257" data-paper-data="{&quot;index&quot;:null}" fill="none" stroke="#3a2f41" stroke-width="2" stroke-linecap="round"/><path d="M264.22735,188.56237l1.03501,12.90247l-3.95737,3.4074" data-paper-data="{&quot;index&quot;:null}" fill="none" stroke="#3a2f41" stroke-width="2" stroke-linecap="round"/></g><path d="M358.13241,166.66787c-3.56753,15.61388 -26.95822,23.57344 -46.71396,17.67102c-25.21272,-7.53279 -47.57975,-52.54283 -44.01221,-68.15672c3.56753,-15.61388 40.68974,9.30579 60.79036,13.89847c20.10063,4.59268 33.50335,20.97334 29.93582,36.58722z" fill="#3a2f41" stroke="#8c9ca0" stroke-width="2" stroke-linecap="butt"/><path d="M288.13726,184.16985l-18.646,12.6193l-42.75228,-9.08953l4.42243,-16.45224c0,0 -7.68132,-36.6778 -1.72521,-52.21095c1.51698,-3.95615 16.47808,-11.51024 25.06117,-11.32732c6.83944,0.14577 13.91789,1.64494 20.12348,5.00265c2.33853,1.26532 4.56762,1.93672 6.59212,4.14795c15.22331,16.62733 -1.1918,56.18472 -1.1918,56.18472z" data-paper-data="{&quot;index&quot;:null}" fill="#3a2f41" stroke="#8c9ca0" stroke-width="2" stroke-linecap="round"/><g stroke-linecap="butt"><g fill="none" stroke="none" stroke-width="1" font-family="sans-serif" font-weight="normal" font-size="12" text-anchor="start"><g><g/></g></g><g><g><g fill="none" stroke="none" stroke-width="1" font-family="sans-serif" font-weight="normal" font-size="12" text-anchor="start"/><path d="M271.11327,130.27573c-0.04218,2.49255 -2.16914,4.47769 -4.7507,4.43399c-2.58154,-0.0437 -4.64011,-2.0997 -4.59793,-4.59222c0.04218,-2.49255 2.16915,-4.4777 4.7507,-4.434c2.58154,0.0437 4.64011,2.09971 4.59793,4.59223z" fill="#8c9ca0" stroke="#3a2f41" stroke-width="2"/><path d="M270.58965,148.30076c-0.04218,2.49255 -2.26724,4.47603 -4.96982,4.43029c-2.70256,-0.04574 -4.85919,-2.10341 -4.81701,-4.59593c0.04218,-2.49255 2.26723,-4.47602 4.96979,-4.43028c2.70256,0.04574 4.85922,2.1034 4.81704,4.59592z" fill="#8c9ca0" stroke="#3a2f41" stroke-width="2"/></g></g></g><g data-paper-data="{&quot;index&quot;:null}"><path d="M274.39582,126.44216l-6.86388,-8.39148c0,0 4.26355,-5.98204 7.4804,-7.84999c0.70441,-0.40904 0.93204,-0.00293 1.10217,0.07867c0.398,0.3943 2.66244,5.14512 2.16799,5.40286z" data-paper-data="{&quot;index&quot;:null}" fill="#8c9ca0" stroke="#3a2f41" stroke-width="4.5" stroke-linecap="round"/><path d="M259.54826,126.67878c0,0 -13.19791,-11.09945 -13.78627,-13.97075c0.20029,-1.36918 2.81515,-7.10009 3.57416,-5.323c0.91187,0.5693 17.00805,-1.33901 20.74716,1.3157c3.14264,2.23122 -5.90647,9.1376 -5.90647,9.1376z" fill="#3a2f41" stroke="#3a2f41" stroke-width="4.5" stroke-linecap="round"/><path d="M247.78293,112.44468c0.16748,-1.32267 0.7263,-4.55138 1.28871,-4.76619c1.08372,-0.82486 11.14875,-4.32842 13.54603,-4.47901c1.51663,-0.09527 11.74456,6.24078 12.26102,6.88312c0.947,0.57501 1.60246,4.50652 1.55509,4.98202" fill="none" stroke="#3a2f41" stroke-width="6.5" stroke-linecap="butt"/><g><path d="M274.39582,126.10882l-6.19927,-8.00797c0,0 3.59894,-6.03221 6.81579,-7.90016c0.70441,-0.40904 0.93204,-0.00293 1.10217,0.07867c0.398,0.3943 2.66244,5.14512 2.16799,5.40286z" data-paper-data="{&quot;index&quot;:null}" fill="#8c9ca0" stroke="#12161a" stroke-width="0" stroke-linecap="round"/><path d="M259.24208,126.33464c0,0 -12.89172,-10.75531 -13.48009,-13.62662c0.20029,-1.36918 2.81515,-7.1001 3.57416,-5.32301c1.67826,1.04778 17.83145,10.67902 17.83145,10.67902z" fill="#8c9ca0" stroke="#12161a" stroke-width="0" stroke-linecap="round"/><path d="M247.78293,112.44467c0.16748,-1.32267 0.7263,-4.55138 1.28871,-4.76619c1.08372,-0.82486 11.14876,-4.32841 13.54604,-4.47901c1.51663,-0.09527 11.74455,6.24079 12.26101,6.88312c0.947,0.57501 1.60246,4.50651 1.55509,4.98201" fill="none" stroke="#8c9ca0" stroke-width="2" stroke-linecap="butt"/></g></g><g><path d="M307.32877,108.40366l-13.17844,-2.2345l2.34064,-12.83277l-4.61137,12.08711l-53.81298,-12.51709c0,0 -16.49035,-11.29922 -15.18931,-24.42723c0.90919,-9.17408 3.76777,-27.19214 18.12963,-40.01981c11.5829,-10.34558 30.27434,-12.06516 34.09382,-11.84276c3.05408,0.17783 15.43607,6.16808 22.34009,14.09482c11.49229,13.19474 22.13741,26.64104 19.23032,44.70264c-3.12068,19.38868 -9.3424,32.98959 -9.3424,32.98959z" fill="#3a2f41" stroke="none" stroke-width="0" stroke-linecap="butt"/><g stroke-linecap="butt"><path d="M306.10343,77.53652c-1.42673,14.39617 -11.32567,24.86026 -35.81138,22.94001c-13.89371,-1.08958 -28.06847,-7.92628 -32.52006,-14.57711c-3.2913,-4.91733 -2.36513,-11.15968 -1.75867,-17.27912c1.42673,-14.39617 17.01051,-29.34768 44.80325,-25.79159c18.28223,2.33922 26.71359,20.31162 25.28686,34.7078z" fill="#e1e2db" stroke="none" stroke-width="0"/><path d="M306.63679,77.53652c-1.42673,14.39617 -14.08312,3.99914 -29.13585,2.62268c-15.04974,-1.37618 -43.04764,4.52393 -41.62091,-9.87223c0.51069,-5.15302 4.18267,-17.82808 7.62845,-22.63304c6.18085,-8.61885 19.99694,-7.10843 37.84145,-4.82522c18.28223,2.33922 26.71359,20.31162 25.28686,34.7078z" fill="#b8c1c0" stroke="none" stroke-width="0"/><path d="M264.44646,40.22219c4.89613,0.56257 10.47476,1.47621 16.70348,2.27318c18.28223,2.33922 26.71359,20.31162 25.28686,34.7078l-0.00001,0.00001c-1.42673,14.39617 -11.32567,24.86026 -35.81138,22.94001c-13.94608,-1.09368 -26.79919,-6.62945 -31.23688,-13.31905c-3.25205,-4.9023 -2.97855,-10.1156 -2.37518,-16.20385c0.41428,-4.18027 3.23633,-20.26883 5.5515,-24.35525c0.96434,-1.70211 2.1479,-3.00682 3.5456,-3.98766" fill="none" stroke="#3a2f41" stroke-width="2"/></g><path d="M271.21584,78.52152c0,0 -2.43427,8.56214 -15.31313,7.3604c-10.38023,-1.13425 -11.00066,-11.37429 -11.00066,-11.37429c0,0 3.15607,-14.18367 13.72662,-13.87501c13.14994,0.38397 12.58717,17.8889 12.58717,17.8889z" fill="#e1e2db" stroke="#3a2f41" stroke-width="1" stroke-linecap="butt"/><path d="M219.30296,91.4412l-6.88382,-3.65666c0,0 -0.12308,-37.19459 11.94727,-50.49117c10.04095,-11.06102 13.82456,-15.59032 27.71783,-19.34384c13.89327,-3.75352 19.70714,-4.10247 36.75083,1.92645c18.4301,6.51933 28.48708,19.6121 28.48708,19.6121c0,0 2.60995,23.44032 -0.79588,36.66766c-22.70805,-8.18852 -40.33431,-10.8131 -59.109,-11.98046c-0.50084,-0.03115 -0.99401,-6.74573 -0.99401,-6.74573c0,0 -1.61206,6.84755 -1.98547,6.81707c-4.41381,-0.36034 -9.77329,-0.64547 -13.27733,-0.68832c-0.44875,-0.00548 -0.9219,-4.02313 -0.99397,-6.60803c-0.72336,8.74468 -0.64102,39.01481 -0.80427,39.01733c-2.53944,0.03928 -18.77772,-2.67806 -18.57495,-4.36151c0.29293,-2.43194 1.00824,-19.06947 1.00824,-19.06947z" fill="#3a2f41" stroke="url(#color-1)" stroke-width="0.5" stroke-linecap="butt"/><path d="M300.66088,88.38777c-0.26084,-0.34557 0.05871,-1.66747 0.47565,-2.20563c1.45144,-1.87344 5.23804,-2.94775 7.29444,-2.12515c2.96429,1.18577 3.01154,2.46603 1.5689,3.97942c-2.58246,2.70912 -8.51466,1.44347 -9.33899,0.35136z" fill="#3a2f41" stroke="#b8c1c0" stroke-width="0.5" stroke-linecap="butt"/><path d="M242.27318,-18.90354c12.69598,13.45805 8.98434,37.57875 -8.29018,53.87507c-17.27451,16.29633 -41.57039,18.59721 -54.26637,5.13916c-12.69598,-13.45805 -8.98434,-37.57874 8.29018,-53.87507c17.27451,-16.29633 41.57039,-18.59721 54.26637,-5.13916z" fill="#3a2f41" stroke="#3a2f41" stroke-width="2" stroke-linecap="butt"/><path d="M249.49485,72.83356c-0.65945,2.96512 -1.80589,5.23275 -2.56065,5.06489c-0.75476,-0.16786 -0.83202,-2.70764 -0.17257,-5.67276c0.65945,-2.96512 1.80589,-5.23275 2.56065,-5.06489c0.75476,0.16786 0.83202,2.70764 0.17257,5.67276z" fill="#e1e2db" stroke="#3a2f41" stroke-width="1" stroke-linecap="butt"/><path d="M267.05958,53.86424c-1.29135,6.18333 -21.06468,4.59631 -21.06468,4.59631" fill="none" stroke="#e1e2db" stroke-width="1" stroke-linecap="round"/><path d="M283.27391,97.64419c-1.64349,1.08005 -7.77313,-1.29881 -14.23639,-2.59432c-8.08941,-1.62146 -16.47482,-2.67885 -14.64614,-6.10899c1.73232,-3.24939 6.65261,-4.45876 9.70767,-3.33505c1.81133,0.66624 5.13048,3.28445 8.64043,4.73705c4.35473,1.80221 8.89529,2.45733 9.94259,2.99494c1.42952,0.73382 2.95606,2.75268 0.59185,4.30637z" fill="#e1e2db" stroke="#3a2f41" stroke-width="1" stroke-linecap="butt"/><path d="M312.20753,-38.24314c21.15843,10.78427 31.49978,32.88948 23.09808,49.37337c-8.4017,16.48388 -32.36491,21.10433 -53.52332,10.32006c-21.15842,-10.78426 -31.49979,-32.88948 -23.09808,-49.37337c8.4017,-16.48388 32.36491,-21.10433 53.52333,-10.32005z" data-paper-data="{&quot;index&quot;:null}" fill="#3a2f41" stroke="#3a2f41" stroke-width="2" stroke-linecap="butt"/></g><g><g fill="#e1e2db" stroke="#3a2f41" stroke-width="2" stroke-linecap="butt"><path d="M167.09272,154.30302l21.24604,5.37505l0.41879,19.37518l22.33939,25.36773l-18.25101,-1.88358l-45.22631,38.07986l4.84067,-26.89817l-25.35014,-5.11502l21.20837,-12.76415l-18.05714,-10.79178l31.60013,-8.98079z"/><path d="M198.80525,163.50347l-3.52843,21.01783l-42.03567,-7.05684l3.52843,-21.01783z"/></g><g stroke-width="2.5"><path d="M203.28768,143.73309c0,0 0.49703,27.20833 -0.56573,30.76561c-2.91384,3.13212 -54.4717,-5.77182 -52.48709,-10.99891c4.01508,-9.18801 7.1895,-36.23576 25.28982,-43.71214c27.67857,-11.43272 65.82359,-13.2117 67.70145,-4.65959c3.21537,14.64341 -39.93844,28.60502 -39.93844,28.60502z" fill="#3a2f41" stroke="#3a2f41" stroke-linecap="butt"/><path d="M202.42275,167.34914l-49.11399,-11.08996" fill="none" stroke="#8c9ca0" stroke-linecap="round"/></g></g><path d="M328.96755,38.93276c0,0 11.11653,-3.43548 13,0.75c1.88347,4.18548 -8.5,9.25 -8.5,9.25" fill="none" stroke="#3a2f41" stroke-width="2" stroke-linecap="round"/><path d="M336.59255,51.68276c0,0 17.81713,-2.99214 18.5,4c0.682,6.98325 -12.5,5.75 -12.5,5.75" fill="none" stroke="#3a2f41" stroke-width="2" stroke-linecap="round"/><path d="M239.98422,114.91808c-2.41366,-2.26285 -3.4,-4.8 -3.4,-4.8" fill="none" stroke="#3a2f41" stroke-width="1" stroke-linecap="round"/><g data-paper-data="{&quot;index&quot;:null}"><path d="M273.15282,167.38994c0,0 -1.63929,-20.3531 2.438,-39.94175c3.25351,-15.63085 9.05468,-21.36289 9.87908,-21.69194c14.20261,-5.66858 37.15763,-0.365 48.38321,3.33609c4.64615,1.53184 5.87228,2.94528 5.87228,2.94528c0,0 -9.16201,16.76885 -11.8128,26.26531c-4.31393,15.45462 -5.77214,37.41091 -5.77214,37.41091z" fill="#8c9ca0" stroke="#3a2f41" stroke-width="2" stroke-linecap="butt"/><path d="M353.58861,157.01861c-1.74642,9.66618 -10.00914,16.2651 -18.4553,14.7391c-8.44617,-1.526 -13.8774,-10.59907 -12.13097,-20.26523c1.74642,-9.66618 10.00914,-16.26509 18.45532,-14.73907c8.44617,1.526 13.87741,10.59905 12.13097,20.26522z" fill="#8c9ca0" stroke="#3a2f41" stroke-width="3" stroke-linecap="butt"/><path d="M282.15279,174.69337c0,0 -6.22884,-19.44577 -6.71712,-39.44827c-0.38963,-15.96111 3.9546,-22.86307 4.68248,-23.37114c12.5396,-8.75246 36.09923,-8.81287 47.87259,-7.76399c4.87287,0.4341 6.38853,1.53139 6.38853,1.53139c0,0 -5.10477,18.41408 -5.52451,28.26464c-0.68305,16.03086 2.89447,37.74276 2.89447,37.74276z" fill="#8c9ca0" stroke="#3a2f41" stroke-width="2" stroke-linecap="butt"/><path d="M280.40294,171.1693c0,0 -1.63932,-20.35311 2.438,-39.94174c3.25351,-15.63085 9.05465,-21.36291 9.87908,-21.69194c14.20261,-5.66858 37.15762,-0.36499 48.38322,3.3361c4.64615,1.53184 5.87229,2.94526 5.87229,2.94526c0,0 -9.16202,16.76887 -11.81281,26.26533c-4.31393,15.45462 -5.77214,37.41091 -5.77214,37.41091z" fill="#8c9ca0" stroke="#3a2f41" stroke-width="2" stroke-linecap="butt"/><g><path d="M333.65114,168.4399l-1.53092,-1.05799l-2.01251,-0.82606l-2.96126,-1.61205l-3.07632,-0.86614l-2.49413,-0.59413l-2.5947,-1.09807l-2.31429,-2.33792l-1.03485,-2.53977l-0.43818,-3.51762l0.09373,-3.49758l1.14304,-2.20764l0.81234,-1.21978l2.027,-0.4238l-1.63151,-1.56195l-1.61701,-2.81179l-0.55324,-2.77169l0.39549,-1.98574l0.72622,-2.97357l1.77552,-1.68366l2.77456,-0.64569l-1.03484,-2.53978l-0.76889,-2.52976l0.46026,-2.98361l2.04148,-1.67363l3.42152,-1.37158l4.65066,-1.82541l4.1043,-0.59558l2.70977,0.35216l1.83269,2.56983l2.71663,4.35368l4.90138,8.68735l2.63737,6.60145l0.35206,1.76381l-2.20685,2.16756l-0.07925,2.24772l1.50195,3.5577l0.7544,3.77961l1.02034,3.78964l-0.71174,1.72374l-2.19238,0.91772l-2.50861,0.65572l0.35206,1.76381l-1.89059,2.42955l-1.50957,1.69367l-1.49509,0.44383z" fill="#e1e2db" stroke="none" stroke-width="0" stroke-linecap="round"/><path d="M318.92492,146.3517l9.78542,2.59333l-10.31184,-2.09719z" fill="#3a2f41" stroke="#3a2f41" stroke-width="1" stroke-linecap="round"/><path d="M330.36685,147.71087c0.02662,-0.07349 0.05334,-0.14744 0.08007,-0.22185c0.05487,-0.08347 0.11002,-0.16626 0.16544,-0.24823c-0.07958,0.15907 -0.16148,0.31608 -0.24551,0.47004z" fill="#59270c" stroke="none" stroke-width="0.5" stroke-linecap="butt"/><path d="M320.88914,131.88788l1.98474,1.10819l2.50307,0.81827l3.02141,0.52834l1.80619,-0.80861l1.44217,2.01668l-11.35087,-3.07895z" fill="#3a2f41" stroke="#3a2f41" stroke-width="1" stroke-linecap="round"/><path d="M334.53598,119.89842c0.07789,-0.07193 0.15695,-0.14125 0.23805,-0.2064c0.00575,-0.02662 0.01171,-0.05395 0.0179,-0.08194l0.35983,-0.17592c0.06317,-0.03513 0.12806,-0.0671 0.19503,-0.09535c0.0891,0.40469 0.00829,0.74304 -0.17201,1.03754c0.08473,-0.08632 0.17808,-0.16745 0.27805,-0.23836c-0.02672,0.2513 -0.0521,0.46751 -0.30342,0.62193l-0.05908,-0.25825c-0.0986,0.13403 -0.21731,0.2589 -0.34859,0.37705c-0.10357,-0.39246 -0.08166,-0.65765 0.03226,-1.18668c0.12038,-0.09667 0.24527,-0.18425 0.37773,-0.25787l0.19501,-0.09535l0.14466,0.52198c-0.01963,0.09597 -0.02921,0.18876 -0.0386,0.27721c0.17575,-0.12464 0.37197,-0.21774 0.57783,-0.25218c0,0 0.36929,-0.04108 0.41032,0.3282c0.04108,0.36928 -0.32821,0.41034 -0.32821,0.41034c-0.1825,-0.00219 -0.34518,0.16366 -0.44837,0.31418l-0.72174,0.53513c-0.09103,-0.24068 -0.15716,-0.42915 -0.2009,-0.59493c-0.27495,0.24742 -0.60511,0.46524 -0.92119,0.67568l-0.72602,0.47852c-0.05139,-0.35273 -0.0804,-0.59114 -0.07698,-0.78434c-0.11486,0.07895 -0.23534,0.14688 -0.35471,0.20198l-0.07568,-0.03846c-0.22141,0.15642 -0.45885,0.304 -0.73365,0.42923l0.35119,-0.97582c0.07609,-0.03513 0.15007,-0.0743 0.22247,-0.11669c0.24245,-0.52037 0.95163,-0.86297 1.46462,-1.10442l0.05056,-0.0097c0.04939,-0.02983 0.09967,-0.05854 0.151,-0.08594l0.00541,0.05593l0.03079,-0.00592c0,0 0.3499,-0.03891 0.40638,0.29965z" fill="#59270c" stroke="none" stroke-width="0.5" stroke-linecap="butt"/><path d="M334.14519,168.26065l-1.53092,-1.05799l-2.01251,-0.82606l-2.96126,-1.61205l-3.07632,-0.86614l-2.49413,-0.59413l-2.5947,-1.09807l-2.31429,-2.33792l-1.03485,-2.53977l-0.43818,-3.51762l0.09373,-3.49758l1.14304,-2.20764l0.81234,-1.21978l2.027,-0.4238l-1.63151,-1.56195l-1.61701,-2.81179l-0.55324,-2.77169l0.39549,-1.98574l0.72622,-2.97357l1.77552,-1.68366l2.77456,-0.64569l-1.03484,-2.53978l-0.76889,-2.52976l0.46026,-2.98361l2.04148,-1.67363l3.42152,-1.37158l4.65066,-1.82541l4.1043,-0.59558l2.70977,0.35216l1.83269,2.56983l2.71663,4.35368l4.90138,8.68735l2.63737,6.60145l0.35206,1.76381l-2.20685,2.16756l-0.07925,2.24772l1.50195,3.5577l0.7544,3.77961l1.02034,3.78964l-0.71174,1.72374l-2.19238,0.91772l-2.50861,0.65572l0.35206,1.76381l-1.89059,2.42955l-1.50957,1.69367l-1.49509,0.44383z" fill="none" stroke="#3a2f41" stroke-width="2.5" stroke-linecap="round"/></g><path d="M291.04147,111.22154c0,0 -4.58497,-3.51793 -12.15765,3.5348c-0.92432,0.86086 6.47299,-14.90782 41.19427,-12.62716c17.90594,1.17615 18.7403,7.94101 18.7403,7.94101c0,0 -6.61462,-2.94498 -20.55456,-2.99209c-16.06965,-0.05432 -27.22236,4.14343 -27.22236,4.14343z" fill="#e1e2db" stroke="#3a2f41" stroke-width="2" stroke-linecap="butt"/><path d="M294.34634,122.02627c0,0 4.86114,-15.69148 -3.88786,-10.16501c-1.06791,0.67455 8.96012,-13.65404 42.65661,-4.97547c5.89166,1.51741 13.15415,5.04921 15.2981,8.52341c4.1796,6.77294 -0.75005,14.45329 -0.75005,14.45329c0,0 -5.91741,-6.17187 -19.60693,-8.80269c-15.78098,-3.03274 -33.70987,0.9665 -33.70987,0.9665z" fill="#e1e2db" stroke="#3a2f41" stroke-width="2" stroke-linecap="butt"/><path d="M295.96345,105.63505c0,0 -4.11621,-4.05639 -12.50069,2.00884c-1.02342,0.74032 8.26163,-13.99597 42.43682,-7.4517c17.62432,3.37492 17.61822,10.19103 17.61822,10.19103c0,0 -6.20105,-3.73806 -20.02882,-5.50357c-15.94036,-2.03523 -27.52553,0.75539 -27.52553,0.75539z" fill="#e1e2db" stroke="#3a2f41" stroke-width="2" stroke-linecap="butt"/></g></g></g></svg>