<svg version="1.1" xmlns="http://www.w3.org/2000/svg" xmlns:xlink="http://www.w3.org/1999/xlink" width="427.58236" height="450.20105" viewBox="0,0,427.58236,450.20105"><g transform="translate(1.48498,43.51165)"><g data-paper-data="{&quot;isPaintingLayer&quot;:true}" fill-rule="nonzero" stroke-linejoin="miter" stroke-miterlimit="10" stroke-dasharray="" stroke-dashoffset="0" style="mix-blend-mode: normal"><path d="M280.10179,202.83723c-18.57298,-13.35841 -30.39033,-79.09936 -30.39033,-79.09936l3.04338,-17.35999l7.32799,-9.77978l14.49637,13.48657c0,0 8.78656,42.00973 17.4434,53.74385c5.30505,7.19083 7.46923,-16.42535 16.38421,-32.02493c6.89122,-12.05836 18.90218,-14.95713 18.90218,-14.95713l21.76607,41.03297c0,0 -38.79792,66.66108 -68.97327,44.9578z" data-paper-data="{&quot;index&quot;:null}" fill="#e1e2db" stroke="#3a2f41" stroke-width="2" stroke-linecap="butt"/><g data-paper-data="{&quot;index&quot;:null}" stroke-linecap="round"><path d="M331.84916,153.24193c0,0 0.25779,2.5568 0.51116,3.77499c0.21569,1.03708 0.9143,3.07866 0.9143,3.07866c0,0 -5.85254,-0.36719 -8.32066,-3.4496c-6.16985,-7.70548 -7.09707,-29.02466 0.35791,-36.12c6.94043,-6.60561 13.38356,-8.49119 18.55294,-8.186c3.64295,0.21509 6.65332,1.51817 8.75936,3.02407c3.28847,2.35138 3.28652,5.87142 3.28652,5.87142c0,0 -1.72961,0.19371 -2.53598,0.44169c-0.84545,0.26 -2.36886,0.85503 -2.36886,0.85503c0,0 6.58853,-1.64222 15.25077,2.18481c7.20558,3.18347 8.41367,10.50519 24.22462,13.98965c6.8438,1.50824 14.59267,1.11042 18.42356,0.5742c6.33899,-0.88729 11.62125,8.83402 0.20755,11.91835c-11.4137,3.08433 -21.15224,-1.90673 -25.94712,-3.64576c-2.924,-1.06049 -6.85797,1.7399 -6.85797,1.7399c0,0 -1.03126,-1.15219 -2.0276,-2.49081c-0.86451,-1.16151 -1.66751,-2.48473 -2.18379,-3.05316c-1.25371,-1.38035 -3.28082,-2.8947 -3.28082,-2.8947c0,0 1.35341,1.7849 3.33834,4.51524c1.97675,2.71909 4.57561,6.37682 9.12685,9.68044c7.19926,5.22575 14.78954,9.2584 22.61922,13.11459c6.8272,3.36244 13.20157,8.46376 14.34157,9.73611c10.5149,11.73551 2.30589,15.83061 2.30589,15.83061c0,0 -3.1988,-8.76323 -16.7469,-20.07908c-2.26356,-1.89059 -5.6564,-4.71057 -9.70946,-6.79502c-3.88871,-1.99993 -8.4099,-3.26135 -11.97801,-5.22579c-6.67302,-3.67384 -10.89316,-7.22789 -10.89316,-7.22789c0,0 3.94157,4.24316 10.36712,8.36409c3.86698,2.48004 7.86805,3.5863 12.31128,6.32809c6.56606,4.05172 13.27004,9.86968 16.49799,13.48194c2.99921,3.35629 10.61137,15.09409 10.06078,22.66115c-0.2378,3.26826 -1.69063,6.20615 -6.11162,6.55632c-1.20725,0.09562 -2.44793,-1.47592 -3.36064,-2.49546c-2.36313,-2.63971 -3.85811,-7.44206 -6.77612,-13.62926c-2.78515,-5.90548 -7.69229,-12.32689 -11.07167,-15.83783c-5.30132,-5.50772 -12.06228,-10.07055 -17.70417,-13.34514c-6.24853,-3.62668 -11.12439,-5.67323 -11.12439,-5.67323c0,0 13.07452,6.61025 24.62242,18.06813c5.63611,5.59217 10.55892,12.33153 13.34851,18.39129c3.44832,7.49071 3.54277,17.16174 -4.73294,16.32292c-5.54388,-0.56191 -13.88602,-23.03574 -24.49459,-32.51194c-13.44504,-12.00989 -26.84174,-9.63885 -33.00366,-15.30169c-4.88941,-4.49338 -8.19853,-12.54133 -8.19853,-12.54133z" fill="none" stroke="#3a2f41" stroke-width="5"/><path d="M331.84916,153.24193c0,0 0.25779,2.5568 0.51116,3.77499c0.21569,1.03708 0.9143,3.07866 0.9143,3.07866c0,0 -5.85254,-0.36719 -8.32066,-3.4496c-6.16985,-7.70548 -7.09707,-29.02466 0.35791,-36.12c6.94043,-6.60561 13.38356,-8.49119 18.55294,-8.186c3.64295,0.21509 6.65332,1.51817 8.75936,3.02407c3.28847,2.35138 3.28652,5.87142 3.28652,5.87142c0,0 -1.72961,0.19371 -2.53598,0.44169c-0.84545,0.26 -2.36886,0.85503 -2.36886,0.85503c0,0 6.58853,-1.64222 15.25077,2.18481c7.20558,3.18347 8.41367,10.50519 24.22462,13.98965c6.8438,1.50824 14.59267,1.11042 18.42356,0.5742c6.33899,-0.88729 11.62125,8.83402 0.20755,11.91835c-11.4137,3.08433 -21.15224,-1.90673 -25.94712,-3.64576c-2.924,-1.06049 -6.85797,1.7399 -6.85797,1.7399c0,0 -1.03126,-1.15219 -2.0276,-2.49081c-0.86451,-1.16151 -1.66751,-2.48473 -2.18379,-3.05316c-1.25371,-1.38035 -3.28082,-2.8947 -3.28082,-2.8947c0,0 1.35341,1.7849 3.33834,4.51524c1.97675,2.71909 4.57561,6.37682 9.12685,9.68044c7.19926,5.22575 14.78954,9.2584 22.61922,13.11459c6.8272,3.36244 13.20157,8.46376 14.34157,9.73611c10.5149,11.73551 2.30589,15.83061 2.30589,15.83061c0,0 -3.1988,-8.76323 -16.7469,-20.07908c-2.26356,-1.89059 -5.6564,-4.71057 -9.70946,-6.79502c-3.88871,-1.99993 -8.4099,-3.26135 -11.97801,-5.22579c-6.67302,-3.67384 -10.89316,-7.22789 -10.89316,-7.22789c0,0 3.94157,4.24316 10.36712,8.36409c3.86698,2.48004 7.86805,3.5863 12.31128,6.32809c6.56606,4.05172 13.27004,9.86968 16.49799,13.48194c2.99921,3.35629 10.61137,15.09409 10.06078,22.66115c-0.2378,3.26826 -1.69063,6.20615 -6.11162,6.55632c-1.20725,0.09562 -2.44793,-1.47592 -3.36064,-2.49546c-2.36313,-2.63971 -3.85811,-7.44206 -6.77612,-13.62926c-2.78515,-5.90548 -7.69229,-12.32689 -11.07167,-15.83783c-5.30132,-5.50772 -12.06228,-10.07055 -17.70417,-13.34514c-6.24853,-3.62668 -11.12439,-5.67323 -11.12439,-5.67323c0,0 13.07452,6.61025 24.62242,18.06813c5.63611,5.59217 10.55892,12.33153 13.34851,18.39129c3.44832,7.49071 3.54277,17.16174 -4.73294,16.32292c-5.54388,-0.56191 -13.88602,-23.03574 -24.49459,-32.51194c-13.44504,-12.00989 -26.84174,-9.63885 -33.00366,-15.30169c-4.88941,-4.49338 -8.19853,-12.54133 -8.19853,-12.54133z" fill="#e1e2db" stroke="none" stroke-width="0"/><path d="M414.54952,184.35523c0,0 1.69894,1.21948 3.38835,2.93679c1.22847,1.24875 2.43969,3.04366 3.04849,3.4448c1.4878,0.98033 2.3682,-0.5798 2.3682,-0.5798c-0.72236,2.5344 -2.80763,3.57465 -2.80763,3.57465c0,0 -1.34747,-3.69147 -5.99743,-9.37644z" fill="#8c9ca0" stroke="none" stroke-width="0"/><path d="M368.81505,140.85464c0,0 4.30351,1.59319 6.44147,1.69573c2.30775,0.11068 3.77339,-1.94244 7.31043,-0.11259c5.75579,2.9777 12.84922,5.67695 16.81986,5.96034c16.5506,1.18123 15.61168,-6.20164 15.61168,-6.20164c1.80128,2.90438 0.96838,7.15038 -5.88614,9.00268c-11.4137,3.08433 -21.15223,-1.90671 -25.94711,-3.64574c-2.924,-1.06049 -6.85797,1.7399 -6.85797,1.7399c0,0 -1.03127,-1.15219 -2.02761,-2.49081c-0.8645,-1.16151 -1.6675,-2.48472 -2.18378,-3.05315c-1.25371,-1.38035 -3.28082,-2.89472 -3.28082,-2.89472z" fill="#8c9ca0" stroke="none" stroke-width="0"/><path d="M332.88194,114.94577c0,0 -12.02489,7.2262 -9.83858,18.22264c1.64773,8.28752 9.25238,2.43823 9.25238,2.43823c0,0 1.34695,15.663 10.77944,24.54134c4.72916,4.45131 11.63052,3.41011 18.43969,7.20006c8.60006,4.78677 15.85035,11.91206 21.09013,18.23514c7.32822,8.84329 11.12807,21.57422 14.37244,24.87137c3.19254,3.2445 6.58176,0.37948 6.58176,0.37948c-1.02166,1.93683 -2.9405,3.07431 -6.01328,2.76286c-5.54388,-0.56193 -13.88601,-23.03574 -24.49459,-32.51195c-13.44504,-12.0099 -26.84173,-9.63885 -33.00366,-15.30169c-4.88941,-4.49338 -8.19853,-12.54132 -8.19853,-12.54132c0,0 0.25779,2.55679 0.51117,3.77498c0.2157,1.03709 0.9143,3.07866 0.9143,3.07866c0,0 -5.85255,-0.36718 -8.32066,-3.44959c-6.16985,-7.70548 -7.09707,-29.02466 0.35791,-36.12c2.60726,-2.48148 5.14435,-4.29685 7.57008,-5.58022z" fill="#8c9ca0" stroke="none" stroke-width="0"/><path d="M397.00193,184.32971c0,0 2.69902,1.64451 6.19159,6.39892c2.77547,3.77821 6.24627,10.55171 7.87325,12.64908c6.00798,7.745 8.45101,5.40453 8.45101,5.40453c-0.88625,1.625 -2.47821,2.79979 -5.17286,3.01322c-1.20726,0.09562 -2.44793,-1.47592 -3.36064,-2.49546c-2.36313,-2.63971 -3.85811,-7.44206 -6.77612,-13.62925c-1.83074,-3.88181 -4.57835,-7.98654 -7.20623,-11.34104z" fill="#8c9ca0" stroke="none" stroke-width="0"/><path d="M360.46579,151.85914c0,0 -4.07159,-7.674 -4.90427,-9.24343c-0.28454,-0.53628 -0.57265,-1.07931 -0.57265,-1.07931c0,0 1.6008,0.87905 3.26708,2.60559c1.19556,1.2388 2.5837,3.00096 3.42464,3.63416c1.78306,1.34261 4.7802,2.39839 4.7802,2.39839c0,0 -2.1589,0.30326 -3.08323,2.023c-0.76032,1.41458 -0.86005,4.65454 -0.86005,4.65454l-2.05171,-4.99293z" fill="#8c9ca0" stroke="none" stroke-width="0"/><path d="M348.08134,138.90186c0,0 3.70118,-0.81895 7.53272,3.42496c3.80893,4.21887 4.72969,9.4114 4.72969,9.4114c0,0 -2.60698,-5.73593 -6.20218,-8.95258c-2.70303,-2.41842 -6.06023,-3.88379 -6.06023,-3.88379z" fill="#3a2f41" stroke="none" stroke-width="0"/><path d="M330.62757,141.29502c0,0 -0.26936,-6.00983 2.06869,-10.41359c2.33805,-4.40376 8.82392,-8.2714 8.82392,-8.2714c0,0 -4.20707,2.81171 -7.30975,8.44349c-2.70781,4.91503 -3.58285,10.2415 -3.58285,10.2415z" fill="#3a2f41" stroke="none" stroke-width="0"/></g><g><path d="M209.48013,100.24108l-1.66526,-57.97609l69.47135,-1.99544l1.66526,57.97609c0,0 -14.37877,2.74731 -33.40211,3.29371c-21.44456,0.61596 -36.06924,-1.29828 -36.06924,-1.29828z" fill="#8c9ca0" stroke="#3a2f41" stroke-width="2" stroke-linecap="butt"/><path d="M270.47436,10.9215l27.5641,15.5c6.00381,30.80065 26.46154,55 26.46154,55l-20.39744,15l-7.16667,-15.5l1.10256,18l-30.03846,2l-4.39744,-68.5z" data-paper-data="{&quot;index&quot;:null}" fill="#e1e2db" stroke="#3a2f41" stroke-width="2" stroke-linecap="round"/><path d="M216.89744,33.4215l1.10256,69h-13.78205l-3.30769,-6.5l-2.75641,6.5l-18.19231,-2.5l1.10256,-18l-7.16667,15.5l-20.39744,-15c0,0 20.45773,-24.19936 26.46154,-55l27.5641,-15.5z" fill="#e1e2db" stroke="#3a2f41" stroke-width="2" stroke-linecap="round"/><path d="M216.95638,100.08817l-0.5,-26.66667l2.33333,0.16667l0.33333,26.66667z" fill="#546f75" stroke="none" stroke-width="0" stroke-linecap="butt"/><path d="M266.53528,99.06692l-1.41774,-26.64416l2.2296,-0.47754l1.52405,26.83521z" data-paper-data="{&quot;index&quot;:null}" fill="#546f75" stroke="none" stroke-width="0" stroke-linecap="butt"/></g><path d="M253.37052,-10.5423c-14.36861,-4.4899 -20.51781,-9.13254 -20.51781,-9.13254c0,0 6.79017,-16.8131 25.54409,-22.88544c1.42557,-0.46158 7.91736,7.91405 10.43394,17.63278c2.31445,8.93813 0.96261,17.22581 0.96261,17.22581c0,0 -9.10237,-0.55311 -16.42282,-2.84062z" data-paper-data="{&quot;index&quot;:null}" fill="#b7c3c6" stroke="#3a2f41" stroke-width="2" stroke-linecap="butt"/><path d="M216.14619,-5.47428c-6.65479,3.81255 -15.42363,6.31585 -15.42363,6.31585c0,0 -3.10751,-7.80105 -2.77533,-17.02799c0.3612,-10.03278 4.89374,-19.61144 6.38531,-19.46818c19.62222,1.88456 29.87884,16.83743 29.87884,16.83743c0,0 -5.00315,5.85964 -18.06519,13.34291z" data-paper-data="{&quot;index&quot;:null}" fill="#e1e2db" stroke="#3a2f41" stroke-width="2" stroke-linecap="butt"/><g data-paper-data="{&quot;index&quot;:null}" stroke-linecap="butt"><path d="M279.53925,71.52278c-7.01309,5.76634 -20.06174,9.14576 -35.74462,9.02282c-31.40065,-0.24613 -43.77998,-12.62659 -43.24859,-31.35963c0.53137,-18.73304 15.35531,-46.15514 51.59376,-44.09329c23.83787,1.35628 36.37128,23.81201 35.8399,42.54507c-0.26945,9.49907 -1.22607,17.95316 -8.44044,23.88503z" fill="#e1e2db" stroke="none" stroke-width="0"/><path d="M237.33105,6.18747c43.24155,-4.48322 51.11545,24.99453 50.63662,41.87514h-0.00001c-0.25205,8.88585 -1.94854,17.2037 -8.21398,23.04438c-6.94326,6.47258 -19.24677,9.99456 -35.97108,9.86346c-31.40065,-0.24613 -44.02998,-12.62658 -43.49859,-31.35962c0.45104,-15.90077 11.72906,-39.17988 36.91253,-43.38518" fill="none" stroke="#3a2f41" stroke-width="2"/></g><g><path d="M167.51568,29.97188c0,0 5.82149,-4.93937 10.38042,-11.59946c4.62872,-6.76205 9.37153,-14.95428 15.06274,-20.51018c7.06291,-6.89495 16.53905,-15.12592 38.73576,-17.79427c12.69644,-1.52629 31.13717,1.20261 44.08053,7.53233c13.22001,6.46502 21.41329,17.55011 28.40713,28.50688c3.8572,6.04281 12.1768,9.23721 12.1768,9.23721l-8.3428,10.03973l-11.03777,-12.42243l11.06238,22.86791l-17.52414,-0.92299l-6.16911,-8.6822l2.37563,8.84178c0,0 -18.37547,-0.61228 -38.19076,-0.0768c-17.99864,0.48639 -35.41019,2.20757 -35.41019,2.20757l-0.40002,-19.81798l-5.39046,20.20527c0,0 -5.48581,0.17671 -12.065,1.55387c-7.35523,1.53961 -14.46982,3.62248 -14.46982,3.62248c0,0 2.57045,-9.36515 3.58227,-13.60091c0.88706,-3.71346 2.4971,-9.45352 2.4971,-9.45352l-8.12392,13.79008z" fill="#e1e2db" stroke="none" stroke-width="0" stroke-linecap="round"/><path d="M300.07591,27.78745l-11.18012,-17.35876" fill="none" stroke="#8c9ca0" stroke-width="2" stroke-linecap="round"/><path d="M186.23146,31.77338l5.1796,-12.69649" fill="none" stroke="#8c9ca0" stroke-width="2" stroke-linecap="round"/><path d="M167.51568,29.97188c0,0 5.82149,-4.93937 10.38042,-11.59946c4.62872,-6.76204 9.37153,-14.95427 15.06274,-20.51017c7.06291,-6.89495 16.53905,-15.12592 38.73576,-17.79427c12.69644,-1.52629 31.13717,1.20261 44.08053,7.53233c13.22002,6.46502 21.4133,17.55011 28.40714,28.50688c3.85719,6.0428 12.17679,9.23721 12.17679,9.23721l-8.3428,10.03973c0,0 -7.71875,-8.49933 -9.62852,-10.64868c-0.8734,-0.98296 -1.40925,-1.77376 -1.40925,-1.77376l11.06239,22.86791l-17.52414,-0.92299l-6.16911,-8.6822l2.37563,8.84178c0,0 -18.37546,-0.61228 -38.19076,-0.0768c-17.99864,0.48639 -35.41019,2.20757 -35.41019,2.20757l-0.40002,-19.81798l-5.39046,20.20527c0,0 -5.48581,0.17671 -12.065,1.55387c-7.35523,1.53961 -14.46981,3.62248 -14.46981,3.62248c0,0 3.5567,-14.57468 4.55585,-18.34797c0.48983,-1.84983 1.09494,-2.99218 1.09494,-2.99218l-7.69534,12.0758z" fill="none" stroke="#3a2f41" stroke-width="2" stroke-linecap="round"/><path d="M182.08853,51.35109c0,0 3.22657,-13.28491 4.806,-19.19471c1.3744,-5.14261 4.14127,-14.28359 4.14127,-14.28359c0,0 -3.90768,10.44041 -5.7512,13.84657c-1.493,2.75853 -6.8786,10.07617 -6.8786,10.07617l19.25396,-40.44444l-2.42857,30.28572z" fill="#e1e2db" stroke="none" stroke-width="0" stroke-linecap="butt"/><path d="M284.81055,13.22084l-0.125,-10.5c0,0 7.95906,6.1881 11.69601,11.25696c3.0622,4.15361 9.10722,16.96086 9.10722,16.96086c0,0 -6.61741,-6.78896 -8.64185,-9.39908c-2.35971,-3.0424 -6.04034,-8.00801 -6.04034,-8.00801l5.37896,10.18928l3.125,6.25z" fill="#e1e2db" stroke="none" stroke-width="0" stroke-linecap="butt"/></g><path d="" fill="#7c7984" stroke="none" stroke-width="0.5" stroke-linecap="butt"/><path d="" fill="#626171" stroke="none" stroke-width="0.5" stroke-linecap="butt"/><path d="" data-paper-data="{&quot;index&quot;:null}" fill="#e1e2db" stroke="#3a2f41" stroke-width="1" stroke-linecap="butt"/><g data-paper-data="{&quot;index&quot;:null}"><g stroke-linecap="butt"><path d="M277.04612,345.34227l-17.08988,-90.9103l24.77747,-6.58928l28.33988,93.97981z" fill="#e1e2db" stroke="none" stroke-width="0"/><path d="M262.40107,272.05996l-3.72186,-17.5382l26.52748,-6.84507l4.31531,18.07417z" fill="#8c9ca0" stroke="none" stroke-width="0"/><path d="M277.01907,346.19949l-18.08988,-91.93348l26.27748,-6.58927l26.83988,92.95663z" fill="none" stroke="#3a2f41" stroke-width="2.5"/></g><path d="M283.75837,384.88263l-9.75,-52.69288l34.25,-4.34845l26.25,76.22564z" fill="#3a2f41" stroke="#3a2f41" stroke-width="2.5" stroke-linecap="butt"/><path d="M305.50837,320.16759l-31.5,4.09265" fill="none" stroke="#3a2f41" stroke-width="2.5" stroke-linecap="round"/></g><g><g stroke-linecap="butt"><path d="M178.11399,342.33408l28.33988,-93.9798l24.77747,6.58928l-17.08988,90.91031z" fill="#e1e2db" stroke="none" stroke-width="0"/><path d="M201.66558,266.26247l4.31531,-18.07417l26.52748,6.84508l-3.72186,17.5382z" fill="#8c9ca0" stroke="none" stroke-width="0"/><path d="M179.14103,341.14495l26.83988,-92.95663l26.27748,6.58927l-18.08988,91.93349z" fill="none" stroke="#3a2f41" stroke-width="2.5"/></g><path d="M156.67921,404.57853l26.25,-76.22563l34.25,4.34844l-9.75,52.69289z" fill="#3a2f41" stroke="#3a2f41" stroke-width="2.5" stroke-linecap="butt"/><path d="M217.17921,324.7718l-31.5,-4.09265" fill="none" stroke="#3a2f41" stroke-width="2.5" stroke-linecap="round"/></g><g stroke="#3a2f41" stroke-width="2"><g data-paper-data="{&quot;index&quot;:null}"><path d="M253.11391,256.13268l-7.71623,-68.6579l31.51412,-3.91764l14.3246,67.0351c0,0 -5.14909,6.25656 -17.04221,7.49354c-13.02542,1.35474 -21.08027,-1.9531 -21.08027,-1.9531z" data-paper-data="{&quot;index&quot;:null}" fill="#e1e2db" stroke-linecap="butt"/><path d="M281.75773,212.58998l-12.32517,-1.63455l-2.97504,-22.33889" fill="none" stroke-linecap="round"/><path d="M280.90772,208.23117l-8.60012,-1.0897l-2.37502,-16.34553" fill="none" stroke-linecap="round"/></g><path d="M289.02922,239.37246c0,0 -2.86328,6.34413 -16.35599,9.99326c-11.47652,3.10384 -20.14401,-3.34269 -20.14401,-3.34269" data-paper-data="{&quot;index&quot;:null}" fill="none" stroke-linecap="round"/></g><g data-paper-data="{&quot;index&quot;:null}" stroke="#3a2f41" stroke-width="2"><path d="M199.15915,249.02042l17.43183,-65.30499l31.47675,7.24662l-8.33547,65.29603c0,0 -7.36192,8.16376 -20.40854,5.73651c-15.71471,-2.92363 -20.16457,-12.97417 -20.16457,-12.97417z" data-paper-data="{&quot;index&quot;:null}" fill="#e1e2db" stroke-linecap="butt"/><path d="M226.80752,189.86728l-4.33248,21.95303l-12.50034,0.32261" fill="none" stroke-linecap="round"/><path d="M223.18322,188.39909l-4.36794,19.64976l-8.224,0.0949" fill="none" stroke-linecap="round"/></g><g data-paper-data="{&quot;index&quot;:null}" stroke-linecap="butt"><path d="M237.9872,212.5441v-23.07052h17.42024l1.8476,19.58817z" fill="#8c9ca0" stroke="#3a2f41" stroke-width="2"/><path d="M237.72326,209.93234v-23.07052h17.42024l1.8476,19.58818z" fill="#e1e2db" stroke="#e1e2db" stroke-width="3.5"/></g><path d="M240.42922,249.56934c0,0 -9.14242,6.44654 -21.24779,3.34269c-14.23204,-3.64913 -17.25221,-9.99325 -17.25221,-9.99325" fill="none" stroke="#3a2f41" stroke-width="2" stroke-linecap="round"/><path d="M246.10422,190.02128v9.61773l3.6,2.25096l-1.4,8.7992" fill="none" stroke="#3a2f41" stroke-width="2" stroke-linecap="round"/><path d="M255.70421,186.13325l-1.4,13.09649l-4.6,2.66023" fill="none" stroke="#3a2f41" stroke-width="2" stroke-linecap="round"/><g><g><path d="M277.64928,179.78864c0,0 0.37731,2.96185 0.11497,3.31144l-26.24764,11.78067l-36.69819,-9.60998l-1.39813,-5.76466c0,0 7.68006,-10.09801 7.80154,-10.80109c0.55252,-3.19811 -1.67101,-23.87676 -1.67101,-23.87676c0,0 -9.86134,-26.78953 -4.82698,-42.07207c1.5051,-4.56894 17.75189,-10.09222 26.66428,-10.04902c9.7781,0.04741 20.07161,0.85443 27.89132,9.98098c9.43825,11.0156 11.83555,32.8618 11.83555,32.8618l-9.37208,17.07525l-0.88204,13.8238z" fill="#e1e2db" stroke="none" stroke-width="0" stroke-linecap="round"/><g stroke="none" stroke-linecap="butt"><g fill="none" stroke-width="1" font-family="sans-serif" font-weight="normal" font-size="12" text-anchor="start"><g><g/></g></g><g><g><g fill="none" stroke-width="1" font-family="sans-serif" font-weight="normal" font-size="12" text-anchor="start"/><path d="M219.53457,112.60373c0,0.39965 -3.62666,3.8348 -2.51007,1.56508c1.03097,-2.0957 5.9935,-9.54422 5.9935,-9.54422c0,0 -2.86416,2.67578 -5.89282,6.09263c-0.49533,0.55881 7.37224,-10.94815 9.37624,-10.94815c2.00401,0 -6.96687,12.06608 -6.96687,12.8347z" fill="#ffffff" stroke-width="0"/></g></g></g><path d="M241.88814,92.70718c9.7781,0.04741 20.07161,0.85443 27.89132,9.98098c0.75942,0.88633 15.06229,24.50636 15.06229,24.50636l-8.08493,17.53222l-62.61972,-27.41993c0,0 -1.21456,-1.02893 -1.43821,-3.35005c-0.28426,-2.95009 0.41678,-7.37219 0.52495,-7.70056c0,0 -0.83306,-1.62643 0.73508,-3.49984c1.77811,-2.12425 6.07205,-4.56604 7.76549,-5.31428c5.60049,-2.47458 20.16374,-4.7349 20.16374,-4.7349z" fill="#8c9ca0" stroke="none" stroke-width="0" stroke-linecap="butt"/><g fill="none" stroke="none" stroke-width="1" stroke-linecap="butt" font-family="sans-serif" font-weight="normal" font-size="12" text-anchor="start"><g><g><g/></g></g><g><g><g/></g></g></g><path d="M272.30028,151.44293c-0.33429,6.76669 -1.27277,15.00605 -1.27277,15.00605l7.12175,13.33961c0,0 0.37731,2.96185 0.11497,3.31144l-27.24764,11.53067l-36.03152,-10.02665l-1.0648,-5.09799c0,0 7.68006,-10.76468 7.80154,-11.46776c0.65999,-3.82018 -1.53594,-21.53206 -1.53594,-21.53206c0,0 -10.47795,-29.54141 -5.96205,-43.2501c1.5051,-4.56894 18.75189,-10.59222 27.66428,-10.54902c9.7781,0.04741 20.07161,0.85443 27.89132,9.98098c0.29241,0.34128 0.57416,0.68256 0.8456,1.02393" fill="none" stroke="#3a2f41" stroke-width="2" stroke-linecap="round"/><g fill="none" stroke="none" stroke-width="1" stroke-linecap="butt" font-family="sans-serif" font-weight="normal" font-size="12" text-anchor="start"><g/></g></g><path d="M256.51858,117.43707c0,2.34721 -1.95875,4.25 -4.375,4.25c-2.41625,0 -4.375,-1.90279 -4.375,-4.25c0,-2.34721 1.95875,-4.25 4.375,-4.25c2.41625,0 4.375,1.90279 4.375,4.25z" fill="#8c9ca0" stroke="#3a2f41" stroke-width="1.5" stroke-linecap="butt"/><path d="M259.93523,136.85374c0,2.34721 -1.95875,4.25 -4.375,4.25c-2.41625,0 -4.375,-1.90279 -4.375,-4.25c0,-2.34721 1.95875,-4.25 4.375,-4.25c2.41625,0 4.375,1.90279 4.375,4.25z" fill="none" stroke="#3a2f41" stroke-width="1.5" stroke-linecap="butt"/><g><path d="M258.05186,109.30745l-9.91911,-8.96534c0,0 6.98372,-6.6646 10.00069,-8.90762c0.66064,-0.49117 0.92751,-0.09179 1.10496,-0.02339c0.4353,0.37091 3.16064,5.08093 2.694,5.39524z" data-paper-data="{&quot;index&quot;:null}" fill="#8c9ca0" stroke="#3a2f41" stroke-width="4.5" stroke-linecap="round"/><path d="M239.69667,109.40397c0,0 -9.56152,-9.66352 -10.43199,-12.58446c0.06358,-1.43863 2.09816,-7.62946 3.02998,-5.85925c0.96418,0.50341 16.79795,-3.0079 20.78337,-0.61156c3.34966,2.01407 -4.97335,10.03631 -4.97335,10.03631z" fill="#3a2f41" stroke="#3a2f41" stroke-width="4.5" stroke-linecap="round"/><path d="M231.25031,96.35402c0.03554,-1.38729 0.27159,-4.78803 0.81013,-5.06431c0.99698,-0.95842 10.66879,-5.54936 13.04024,-5.93378c1.50029,-0.2432 12.31016,5.35205 12.88798,5.96884c0.99973,0.50599 2.04214,4.51976 2.04214,5.01727" fill="none" stroke="#3a2f41" stroke-width="6.5" stroke-linecap="butt"/><g><path d="M258.05186,109.30745l-9.91911,-8.96534c0,0 6.98373,-6.6646 10.00069,-8.90762c0.66064,-0.49117 0.92751,-0.09179 1.10496,-0.02339c0.4353,0.37091 3.16064,5.08093 2.694,5.39524z" data-paper-data="{&quot;index&quot;:null}" fill="#8c9ca0" stroke="#12161a" stroke-width="0" stroke-linecap="round"/><path d="M239.69668,109.40397c0,0 -9.56152,-9.66352 -10.432,-12.58446c0.06358,-1.43863 2.09816,-7.62946 3.02998,-5.85926c1.77455,0.92652 15.81001,9.42475 15.81001,9.42475z" fill="#8c9ca0" stroke="#12161a" stroke-width="0" stroke-linecap="round"/><path d="M231.25031,96.35401c0.03554,-1.38729 0.27159,-4.78803 0.81013,-5.06431c0.99698,-0.95842 10.66879,-5.54935 13.04024,-5.93378c1.50029,-0.2432 12.31016,5.35205 12.88798,5.96884c0.99973,0.50599 2.04214,4.51976 2.04214,5.01727" fill="none" stroke="#8c9ca0" stroke-width="2" stroke-linecap="butt"/></g></g><g fill="none"><g stroke="none" stroke-width="1" stroke-linecap="butt" font-family="sans-serif" font-weight="normal" font-size="12" text-anchor="start"><g><g/></g></g><g stroke="#3a2f41" stroke-width="2" stroke-linecap="round"><g><g><path d="M270.13205,102.89646l14.78873,24.99783l-12.67948,24.52434"/></g></g></g></g></g><path d="M125.23379,162.87943l21.76607,-41.03297c0,0 12.01095,2.89877 18.90218,14.95713c8.91499,15.59958 11.07917,39.21577 16.38421,32.02493c8.65684,-11.73412 17.4434,-53.74385 17.4434,-53.74385l14.49637,-13.48657l7.32799,9.77978l3.04338,17.35999c0,0 -11.81735,65.74095 -30.39033,79.09936c-30.17535,21.70328 -68.97327,-44.9578 -68.97327,-44.9578z" data-paper-data="{&quot;index&quot;:null}" fill="#e1e2db" stroke="#3a2f41" stroke-width="2" stroke-linecap="butt"/><g stroke-linecap="round"><path d="M142.45969,158.24193c0,0 -3.30913,8.04795 -8.19854,12.54133c-6.16192,5.66284 -19.55861,3.29179 -33.00366,15.30169c-10.60857,9.4762 -18.9507,31.95003 -24.49459,32.51194c-8.27571,0.83882 -8.18126,-8.83221 -4.73294,-16.32292c2.78959,-6.05976 7.71239,-12.79912 13.34851,-18.39129c11.5479,-11.45787 24.62242,-18.06813 24.62242,-18.06813c0,0 -4.87586,2.04655 -11.12439,5.67323c-5.64189,3.27459 -12.40285,7.83741 -17.70417,13.34514c-3.37937,3.51094 -8.28651,9.93235 -11.07167,15.83783c-2.91801,6.1872 -4.41299,10.98954 -6.77612,13.62926c-0.91271,1.01954 -2.15338,2.59108 -3.36064,2.49546c-4.42099,-0.35017 -5.87382,-3.28806 -6.11162,-6.55632c-0.55059,-7.56706 7.06157,-19.30485 10.06078,-22.66115c3.22794,-3.61226 9.93193,-9.43022 16.49799,-13.48194c4.44323,-2.74178 8.44429,-3.84805 12.31127,-6.32809c6.42556,-4.12094 10.36712,-8.36409 10.36712,-8.36409c0,0 -4.22014,3.55405 -10.89316,7.22789c-3.56812,1.96444 -8.0893,3.22585 -11.97802,5.22579c-4.05306,2.08445 -7.4459,4.90443 -9.70946,6.79502c-13.5481,11.31586 -16.7469,20.07908 -16.7469,20.07908c0,0 -8.20901,-4.0951 2.30589,-15.83061c1.14001,-1.27235 7.51437,-6.37367 14.34157,-9.73611c7.82968,-3.85619 15.41996,-7.88884 22.61922,-13.11459c4.55124,-3.30362 7.1501,-6.96135 9.12685,-9.68044c1.98493,-2.73034 3.33834,-4.51524 3.33834,-4.51524c0,0 -2.02711,1.51435 -3.28082,2.8947c-0.51628,0.56843 -1.31928,1.89165 -2.18379,3.05316c-0.99635,1.33863 -2.0276,2.49081 -2.0276,2.49081c0,0 -3.93396,-2.80039 -6.85796,-1.7399c-4.79488,1.73902 -14.53342,6.73009 -25.94712,3.64576c-11.4137,-3.08433 -6.13144,-12.80564 0.20755,-11.91835c3.83088,0.53622 11.57976,0.93404 18.42356,-0.5742c15.81095,-3.48446 17.01905,-10.80618 24.22462,-13.98965c8.66225,-3.82703 15.25078,-2.18481 15.25078,-2.18481c0,0 -1.52342,-0.59503 -2.36886,-0.85503c-0.80637,-0.24797 -2.53597,-0.44168 -2.53597,-0.44168c0,0 -0.00195,-3.52004 3.28652,-5.87142c2.10604,-1.50589 5.11641,-2.80898 8.75936,-3.02407c5.16938,-0.30519 11.61251,1.58039 18.55294,8.186c7.45498,7.09533 6.52776,28.41452 0.35791,36.12c-2.46812,3.08241 -8.32066,3.4496 -8.32066,3.4496c0,0 0.6986,-2.04158 0.9143,-3.07866c0.25337,-1.21819 0.51116,-3.77499 0.51116,-3.77499z" fill="none" stroke="#3a2f41" stroke-width="5"/><path d="M142.45969,158.24193c0,0 -3.30913,8.04795 -8.19854,12.54133c-6.16192,5.66284 -19.55861,3.29179 -33.00366,15.30169c-10.60857,9.4762 -18.9507,31.95003 -24.49459,32.51194c-8.27571,0.83882 -8.18126,-8.83221 -4.73294,-16.32292c2.78959,-6.05976 7.71239,-12.79912 13.34851,-18.39129c11.5479,-11.45787 24.62242,-18.06813 24.62242,-18.06813c0,0 -4.87586,2.04655 -11.12439,5.67323c-5.64189,3.27459 -12.40285,7.83741 -17.70417,13.34514c-3.37937,3.51094 -8.28651,9.93235 -11.07167,15.83783c-2.91801,6.1872 -4.41299,10.98954 -6.77612,13.62926c-0.91271,1.01954 -2.15338,2.59108 -3.36064,2.49546c-4.42099,-0.35017 -5.87382,-3.28806 -6.11162,-6.55632c-0.55059,-7.56706 7.06157,-19.30485 10.06078,-22.66115c3.22794,-3.61226 9.93193,-9.43022 16.49799,-13.48194c4.44323,-2.74178 8.44429,-3.84805 12.31127,-6.32809c6.42556,-4.12094 10.36712,-8.36409 10.36712,-8.36409c0,0 -4.22014,3.55405 -10.89316,7.22789c-3.56812,1.96444 -8.0893,3.22585 -11.97802,5.22579c-4.05306,2.08445 -7.4459,4.90443 -9.70946,6.79502c-13.5481,11.31586 -16.7469,20.07908 -16.7469,20.07908c0,0 -8.20901,-4.0951 2.30589,-15.83061c1.14001,-1.27235 7.51437,-6.37367 14.34157,-9.73611c7.82968,-3.85619 15.41996,-7.88884 22.61922,-13.11459c4.55124,-3.30362 7.1501,-6.96135 9.12685,-9.68044c1.98493,-2.73034 3.33834,-4.51524 3.33834,-4.51524c0,0 -2.02711,1.51435 -3.28082,2.8947c-0.51628,0.56843 -1.31928,1.89165 -2.18379,3.05316c-0.99635,1.33863 -2.0276,2.49081 -2.0276,2.49081c0,0 -3.93396,-2.80039 -6.85796,-1.7399c-4.79488,1.73902 -14.53342,6.73009 -25.94712,3.64576c-11.4137,-3.08433 -6.13144,-12.80564 0.20755,-11.91835c3.83088,0.53622 11.57976,0.93404 18.42356,-0.5742c15.81095,-3.48446 17.01905,-10.80618 24.22462,-13.98965c8.66225,-3.82703 15.25078,-2.18481 15.25078,-2.18481c0,0 -1.52342,-0.59503 -2.36886,-0.85503c-0.80637,-0.24797 -2.53597,-0.44168 -2.53597,-0.44168c0,0 -0.00195,-3.52004 3.28652,-5.87142c2.10604,-1.50589 5.11641,-2.80898 8.75936,-3.02407c5.16938,-0.30519 11.61251,1.58039 18.55294,8.186c7.45498,7.09533 6.52776,28.41452 0.35791,36.12c-2.46812,3.08241 -8.32066,3.4496 -8.32066,3.4496c0,0 0.6986,-2.04158 0.9143,-3.07866c0.25337,-1.21819 0.51116,-3.77499 0.51116,-3.77499z" fill="#e1e2db" stroke="none" stroke-width="0"/><path d="M59.75934,189.35524c-4.64995,5.68497 -5.99743,9.37644 -5.99743,9.37644c0,0 -2.08527,-1.04025 -2.80763,-3.57465c0,0 0.88041,1.56013 2.36821,0.5798c0.6088,-0.40115 1.82002,-2.19605 3.04849,-3.4448c1.68941,-1.71731 3.38835,-2.93679 3.38835,-2.93679z" fill="#8c9ca0" stroke="none" stroke-width="0"/><path d="M105.49378,145.85463c0,0 -2.0271,1.51437 -3.28082,2.89472c-0.51628,0.56843 -1.31928,1.89164 -2.18378,3.05315c-0.99635,1.33863 -2.02761,2.49081 -2.02761,2.49081c0,0 -3.93397,-2.80039 -6.85797,-1.7399c-4.79488,1.73903 -14.53341,6.73007 -25.94711,3.64574c-6.85452,-1.8523 -7.68742,-6.0983 -5.88614,-9.00268c0,0 -0.93892,7.38288 15.61168,6.20164c3.97065,-0.28339 11.06407,-2.98264 16.81986,-5.96034c3.53704,-1.82985 5.00268,0.22328 7.31043,0.11259c2.13796,-0.10254 6.44148,-1.69573 6.44148,-1.69573z" fill="#8c9ca0" stroke="none" stroke-width="0"/><path d="M141.4269,119.94575c2.42573,1.28337 4.96283,3.09874 7.57008,5.58022c7.45498,7.09534 6.52776,28.41452 0.35791,36.12c-2.46812,3.08241 -8.32066,3.44959 -8.32066,3.44959c0,0 0.6986,-2.04157 0.9143,-3.07866c0.25337,-1.21819 0.51117,-3.77498 0.51117,-3.77498c0,0 -3.30913,8.04794 -8.19854,12.54133c-6.16192,5.66284 -19.55862,3.29179 -33.00366,15.30169c-10.60857,9.4762 -18.9507,31.95002 -24.49458,32.51195c-3.07278,0.31145 -4.99162,-0.82603 -6.01328,-2.76286c0,0 3.38922,2.86502 6.58176,-0.37948c3.24437,-3.29715 7.04421,-16.02808 14.37244,-24.87137c5.23978,-6.32307 12.49007,-13.44837 21.09013,-18.23514c6.80917,-3.78995 13.71053,-2.74875 18.43969,-7.20006c9.43248,-8.87834 10.77944,-24.54134 10.77944,-24.54134c0,0 7.60465,5.84929 9.25238,-2.43823c2.18632,-10.99644 -9.83858,-18.22264 -9.83858,-18.22264z" fill="#8c9ca0" stroke="none" stroke-width="0"/><path d="M77.30691,189.32971c-2.62788,3.3545 -5.37549,7.45923 -7.20623,11.34104c-2.91801,6.1872 -4.41298,10.98954 -6.77612,13.62926c-0.91271,1.01954 -2.15338,2.59108 -3.36063,2.49546c-2.69465,-0.21344 -4.28661,-1.38823 -5.17286,-3.01322c0,0 2.44302,2.34047 8.451,-5.40453c1.62698,-2.09737 5.09779,-8.87087 7.87326,-12.64908c3.49258,-4.75441 6.19159,-6.39892 6.19159,-6.39892z" fill="#8c9ca0" stroke="none" stroke-width="0"/><path d="M113.84307,156.85916l-2.05171,4.99293c0,0 -0.09974,-3.23995 -0.86006,-4.65454c-0.92433,-1.71974 -3.08323,-2.023 -3.08323,-2.023c0,0 2.99713,-1.05578 4.78019,-2.39839c0.84095,-0.63321 2.22908,-2.39536 3.42464,-3.63416c1.66627,-1.72654 3.26708,-2.60559 3.26708,-2.60559c0,0 -0.28811,0.54303 -0.57265,1.07931c-0.83268,1.56942 -4.90427,9.24343 -4.90427,9.24343z" fill="#8c9ca0" stroke="none" stroke-width="0"/><path d="M126.2275,143.90185c0,0 -3.3572,1.46537 -6.06023,3.88379c-3.5952,3.21665 -6.20217,8.95258 -6.20217,8.95258c0,0 0.92076,-5.19252 4.72969,-9.4114c3.83154,-4.24391 7.53272,-3.42496 7.53272,-3.42496z" fill="#3a2f41" stroke="none" stroke-width="0"/><path d="M143.68127,146.29502c0,0 -0.87505,-5.32647 -3.58286,-10.2415c-3.10269,-5.63178 -7.30975,-8.44349 -7.30975,-8.44349c0,0 6.48587,3.86764 8.82393,8.2714c2.33805,4.40376 2.06869,10.41359 2.06869,10.41359z" fill="#3a2f41" stroke="none" stroke-width="0"/></g><path d="M204.65178,55.66367c0,0 11.1728,-10.0615 20.25176,-10.10959c9.61415,-0.13113 16.504,10.17223 16.504,10.17223z" data-paper-data="{&quot;index&quot;:null}" fill="#e1e2db" stroke="#3a2f41" stroke-width="1" stroke-linecap="butt"/><path d="M229.73015,39.59129c6.69594,6.28029 13.43047,15.27444 13.43047,15.27444" data-paper-data="{&quot;index&quot;:null}" fill="none" stroke="#3a2f41" stroke-width="1" stroke-linecap="round"/><path d="M242.68477,56.61557l-35.51265,-0.26023" data-paper-data="{&quot;index&quot;:null}" fill="none" stroke="#3a2f41" stroke-width="1" stroke-linecap="round"/><path d="M224.81611,45.73092c2.55031,0.80906 -4.8124,9.67154 -4.8124,9.67154c0,0 -12.85912,1.27562 -15.28144,0.3954c0,0 5.86529,-5.46201 10.78081,-8.249c3.71354,-2.1055 8.21551,-2.16612 9.31304,-1.81793z" data-paper-data="{&quot;index&quot;:null}" fill="#3a2f41" stroke="none" stroke-width="0" stroke-linecap="butt"/><g stroke="#3a2f41" stroke-width="1"><path d="M209.40271,62.59369c0,0 0.55504,-5.42457 9.24498,-4.87213" data-paper-data="{&quot;index&quot;:null}" fill="none" stroke-linecap="round"/><path d="M208.09201,64.50886c0,0 -1.32934,-2.53955 0.39288,-4.99152" data-paper-data="{&quot;index&quot;:null}" fill="none" stroke-linecap="round"/><path d="M269.58398,60.83218c8.3207,-2.56633 10.12708,2.57866 10.12708,2.57866" data-paper-data="{&quot;index&quot;:null}" fill="none" stroke-linecap="round"/><g data-paper-data="{&quot;index&quot;:null}"><path d="M240.86918,80.85673c-16.56735,-1.74286 -22.63173,-9.86638 -26.12645,-14.44584c-3.49473,-4.57946 -0.50471,-8.39755 4.96079,-5.91229c7.73456,3.42533 20.90511,5.56382 30.97198,6.19661c3.70616,0.23297 11.04018,-1.12981 15.56785,-2.42001c3.54329,-1.0097 4.45487,-2.0108 6.62041,-1.93003c4.04777,0.15097 1.49869,4.47387 -0.87754,7.0395c-6.65694,7.18757 -15.23866,13.14245 -31.11702,11.47206z" fill="#211727" stroke-linecap="round"/><path d="M256.53605,66.92179c0.90793,1.68077 -2.21366,7.02333 -5.26683,8.95837c-3.23229,2.04855 -11.26258,1.29036 -15.35823,1.49058c-5.55282,0.27145 -10.82151,-2.08094 -13.62459,-5.99778c-1.21734,-1.70105 -3.20517,-5.65623 -4.16357,-7.43047c-1.86912,-3.46015 6.53318,1.80136 14.49754,1.41201c2.64685,-0.1294 8.09559,1.96106 11.23772,1.97905c6.31251,0.03611 11.43007,-2.72197 12.67801,-0.41176z" fill="#211727" stroke-linecap="butt"/><path d="M209.13989,53.14236z" fill="#3a3a3a" stroke-linecap="round"/><path d="" fill="#3a3a3a" stroke-linecap="butt"/><g stroke-linecap="butt"><path d="M227.88832,73.55942c0.51789,0.00153 1.96559,1.93219 4.45677,2.88219c0.76917,0.29331 4.33675,0.5972 8.52258,1.09423c2.02603,0.24056 4.5151,0.72517 6.36013,0.48718c7.14237,-0.92123 15.24708,-5.78289 16.29405,-4.9009c0.76491,0.64438 1.83768,0.50782 0.74311,1.94546c-3.3114,4.34932 -11.47186,5.30198 -14.51169,5.91193c0,0 -3.42432,0.22485 -7.00554,0.01103c-9.83902,-0.58741 -21.33615,-4.90985 -22.81245,-8.84715c-0.13603,-0.4433 -0.17082,-1.48313 1.2706,-1.24657c2.38611,0.39161 6.68245,2.6626 6.68245,2.6626z" fill="#626171"/><path d="M263.04809,72.47282c0.54951,0.77029 0.4975,1.18872 -0.14366,1.97016c-0.64115,0.78145 -1.62867,1.62998 -2.17814,0.8597c-0.54951,-0.77029 -0.20521,-2.08334 0.43594,-2.86479c0.64115,-0.78145 1.33638,-0.73536 1.88588,0.03493z" fill="#e1e2db"/><path d="M223.36414,72.02017c-0.14997,0.88132 -0.31953,1.26375 -1.06777,1.13026c-0.74824,-0.13348 -1.29978,-1.3993 -1.14983,-2.2806c0.14998,-0.88132 0.56837,-1.05763 1.31662,-0.92415c0.74824,0.13348 1.05095,1.19318 0.90097,2.07448z" fill="#e1e2db"/><path d="M260.56165,73.25065c0.54951,0.77029 0.29944,1.73836 -0.34172,2.51981c-0.64115,0.78145 -1.4306,1.08035 -1.98009,0.31007c-0.54951,-0.77029 -0.16122,-1.9068 0.47993,-2.68825c0.64115,-0.78145 1.29238,-0.9119 1.84188,-0.14162z" fill="#e1e2db"/><path d="M257.64989,74.7932c0.53528,0.69999 0.26765,1.58054 -0.38757,2.29175c-0.65517,0.71122 -1.44982,0.98373 -1.98512,0.28372c-0.53527,-0.69999 -0.12642,-1.73384 0.52876,-2.44504c0.65517,-0.71122 1.3086,-0.83041 1.84388,-0.13044z" fill="#e1e2db"/><path d="M252.91471,78.58949c-0.72653,-0.45206 -0.69763,-1.48985 -0.27201,-2.48826c0.42564,-0.99842 1.35967,-1.44134 2.08619,-0.98927c0.72653,0.45206 0.66166,1.26371 0.23603,2.26214c-0.42562,0.99843 -1.32369,1.66745 -2.05022,1.21539z" fill="#e1e2db"/><path d="M244.79821,76.22841c0.07389,0.49384 -0.13381,2.21181 -0.65097,2.95141c-0.43701,0.62499 -1.11262,0.76082 -1.438,0.75987c-0.3178,-0.00093 -1.56494,-0.4919 -1.77755,-1.15777c-0.26267,-0.82264 -0.26434,-1.40165 -0.0661,-2.85859c0,0 1.08588,-0.36975 1.65528,-0.32558c0.71014,0.05509 2.27734,0.63066 2.27734,0.63066z" fill="#e1e2db"/><path d="M248.64568,76.93173c-0.00218,1.00241 -1.05266,3.23592 -1.81461,3.23368c-0.76194,-0.00224 -1.3217,-0.1756 -1.47389,-1.19273c-0.15218,-1.01713 -0.15967,-2.68021 0.60229,-2.67799c0.76194,0.00224 2.6874,0.08641 2.68619,0.63706z" fill="#e1e2db"/><path d="M252.09264,75.98699c0.10014,0.6695 -0.64339,3.35362 -1.62995,3.35072c-0.48485,-0.00142 -1.20999,-0.54605 -1.31015,-1.21556c-0.10014,-0.6695 0.11843,-1.9822 0.5571,-2.14216c0.38034,-0.1387 2.28284,-0.66251 2.38301,0.007z" fill="#e1e2db"/><path d="M240.15237,75.85889c0.29562,1.5287 0.40817,2.18251 0.19691,2.93629c-0.171,0.61015 -0.93419,0.65572 -1.25498,0.56386c-0.32839,-0.09403 -0.42713,-0.28641 -0.90924,-1.04494c-0.57054,-0.89766 -0.87395,-2.40419 -0.83172,-2.88116c0.0779,-0.88001 2.63504,-0.42229 2.79906,0.42596z" data-paper-data="{&quot;index&quot;:null}" fill="#e1e2db"/><path d="M231.15114,76.1062c0.12823,0.8571 -0.98196,0.57329 -1.73236,0.57108c-0.75041,-0.0022 -1.35775,-1.67356 -1.48598,-2.53067c-0.12822,-0.8571 1.28515,-0.57058 2.04492,-0.4372c0.76169,0.3568 1.04521,1.53968 1.17343,2.39678z" fill="#e1e2db"/><path d="M224.9053,72.64057c0.15194,0.90146 0.12837,1.30951 -0.5553,1.29745c-0.68365,-0.01207 -1.55907,-1.18298 -1.71101,-2.08444c-0.15194,-0.90146 0.15048,-1.14451 0.83413,-1.13244c0.68365,0.01207 1.28022,1.01799 1.43216,1.91944z" fill="#e1e2db"/><path d="M227.88086,74.84273c0.08269,0.49845 0.17224,0.89876 -0.62678,0.88664c-0.79901,-0.01213 -2.21556,-1.37851 -2.38928,-2.42602c-0.17375,-1.0475 -0.02879,-1.29488 0.77022,-1.28276c0.79901,0.01213 2.0721,1.77463 2.24585,2.82213z" fill="#e1e2db"/><path d="M234.68495,77.13625c0.20696,1.38346 -0.45365,1.12787 -1.27334,1.12546c-0.81967,-0.0024 -2.10623,-2.20732 -2.31319,-3.59078c-0.03758,-0.25123 0.65746,-1.16606 1.67535,-0.51246c0.80639,0.51778 1.8197,2.36626 1.91119,2.97779z" fill="#e1e2db"/><path d="M237.37675,77.79911c0.1387,0.92701 -0.31094,0.93118 -1.0729,0.92894c-0.76194,-0.00224 -1.85454,-1.7819 -1.99323,-2.7089c-0.1387,-0.92701 0.72209,-0.69695 1.48406,-0.69471c0.76194,0.00224 1.44337,1.54767 1.58205,2.47467z" fill="#e1e2db"/></g><g stroke-linecap="butt"><path d="M268.38123,63.93141c2.09279,-0.36187 3.10965,2.01202 0.26367,2.70548c-1.5436,0.37611 -5.73565,1.50136 -7.70515,1.97825c-4.5127,1.09272 -10.21848,1.72143 -13.15141,1.85866c-1.12978,0.05288 -2.11011,-1.57062 -2.42704,-1.5715c-0.40268,-0.00113 -1.52569,0.96482 -3.27147,0.7703c-5.21165,-0.58069 -15.0567,-3.00372 -20.54308,-4.56087c-1.29452,-0.36742 -3.22983,-1.37185 -3.84567,-2.0882c-0.82445,-0.95902 -0.00681,-2.35233 1.65067,-1.98478c3.13579,0.69536 8.07392,2.16076 12.82021,3.13954c0,0 8.94213,2.27723 19.96128,2.00432c0,0 3.74434,-0.08442 5.78304,-0.36689c2.99807,-0.41539 10.46495,-1.8843 10.46495,-1.8843z" fill="#626171"/><path d="M244.29191,67.06388c0.52494,-0.0205 1.91767,-0.09791 2.36205,0.59144c0.46965,0.72858 0.74759,2.43443 0.77113,3.20983c0.01641,0.5413 -1.47614,0.616 -2.30692,0.60381c-0.87919,-0.01288 -1.97003,-0.37718 -2.66511,-0.78079c-0.22871,-0.13281 -0.31778,-0.54841 -0.17619,-0.97173c0.18141,-0.54242 0.76379,-2.60371 2.01508,-2.65259z" fill="#e1e2db"/><path d="M241.75761,69.98115c0.05801,0.42391 -0.72219,0.75739 -1.74262,0.74487c-1.02044,-0.01253 -1.80747,-0.82964 -1.86546,-1.25354c-0.02316,-0.16929 0.05969,-0.66029 0.19658,-1.23677c0.20588,-0.86706 0.63727,-1.86759 1.83753,-1.78007c2.35457,0.17167 1.51601,3.10161 1.57398,3.52551z" fill="#e1e2db"/><path d="M237.58331,67.80028c0.08039,0.74539 -0.09374,2.09429 -0.4608,2.3734c-0.32021,0.2435 -3.04002,0.14299 -3.12038,-0.60243c-0.08039,-0.74539 1.15993,-3.12132 1.93098,-3.11917c0.77105,0.00216 1.56983,0.6028 1.6502,1.34818z" fill="#e1e2db"/><path d="M233.4247,69.47571c-0.7962,0.45987 -2.51748,0.29654 -2.89412,-0.46278c-0.52381,-1.05595 0.217,-2.83972 0.78158,-3.09828c0.82149,-0.37621 2.26278,-0.04643 2.76315,0.61959c0.5412,0.72038 -0.38058,2.78548 -0.65061,2.94145z" fill="#e1e2db"/><path d="M230.23429,67.92663c0.0659,0.61122 -0.81469,0.67235 -2.00254,0.66902c-1.18784,-0.00332 -1.80358,-0.28452 -1.86949,-0.89573c-0.0659,-0.61122 1.02884,-2.88452 2.21668,-2.8812c0.51604,0.00146 1.15643,0.20372 1.41263,0.78658c0.33356,0.75881 0.20544,1.97566 0.24274,2.32135z" fill="#e1e2db"/><path d="M260.21065,69.22107c0.09966,0.92428 -0.71903,1.30924 -1.59429,1.30679c-0.87525,-0.00245 -1.71885,0.15149 -1.81853,-0.77281c-0.09966,-0.92428 1.09164,-3.45101 1.96689,-3.44857c0.87525,0.00245 1.44593,2.9146 1.44593,2.9146z" fill="#e1e2db"/><path d="M263.12633,68.91458c0.09967,0.92429 -0.73823,1.1313 -1.61347,1.12884c-0.87525,-0.00245 -1.31131,-0.26702 -1.41097,-1.19128c-0.09966,-0.92428 0.99914,-2.20997 1.87437,-2.20752c0.87525,0.00245 1.0504,1.34569 1.15008,2.26998z" fill="#e1e2db"/><path d="M252.88918,70.54332c-0.08662,0.43435 -1.17023,0.66585 -2.62823,0.65153c-1.458,-0.01432 -1.97214,-0.10525 -2.08559,-0.98815c-0.11344,-0.8829 -0.36025,-3.19679 1.68871,-3.2734c1.21036,-0.04526 1.66245,0.22999 2.1726,0.96809c0.66631,0.96404 0.88617,2.4732 0.85253,2.64197z" fill="#e1e2db"/><path d="M256.57201,69.83442c0.1061,0.98393 -1.73746,1.24888 -2.82092,1.12546c-0.18292,-0.02083 -0.39325,-0.6632 -0.4871,-1.39773c-0.06321,-0.49467 -0.07358,-1.03112 0.01278,-1.4477c0.12591,-0.60732 0.41903,-0.85733 1.11755,-0.98464c1.58228,-0.2884 2.07159,1.72068 2.17769,2.70461z" fill="#e1e2db"/><path d="M268.976,66.86664c0.08359,0.77522 -0.28111,1.40243 -1.09383,1.40015c-0.81274,-0.00228 -1.47531,-0.03872 -1.5589,-0.81392c-0.08359,-0.77522 0.18574,-1.96936 0.99851,-1.9671c0.81274,0.00228 1.57065,0.60563 1.65423,1.38084z" fill="#e1e2db"/><path d="M266.07802,67.53198c0.08359,0.77522 -0.28111,1.40243 -1.09383,1.40016c-0.81274,-0.00228 -1.47531,-0.03872 -1.5589,-0.81392c-0.08359,-0.77522 0.86716,-2.26432 1.6799,-2.26204c0.81274,0.00228 0.88926,0.90058 0.97286,1.6758z" fill="#e1e2db"/><path d="M222.46433,64.04704c0.33798,0.69277 0.51547,2.50195 -0.15333,2.60138c-0.66879,0.09943 -2.2346,-0.27012 -2.5726,-0.96287c-0.33798,-0.69277 0.18868,-2.32637 0.85748,-2.42579c0.66879,-0.09943 1.53045,0.09451 1.86844,0.78729z" fill="#e1e2db"/><path d="M226.2894,64.98096c0.19052,0.71172 -0.18743,2.53065 -1.05065,2.59238c-0.8632,0.06172 -2.68497,-0.39601 -2.87551,-1.10773c-0.19052,-0.71172 1.00357,-2.3154 1.86679,-2.37713c0.8632,-0.06172 1.86884,0.18074 2.05938,0.89247z" fill="#e1e2db"/></g></g></g><text transform="translate(-1.23498,54.87389) scale(0.5,0.5)" font-size="40" xml:space="preserve" fill="#3a2f41" fill-rule="nonzero" stroke="none" stroke-width="1" stroke-linecap="butt" stroke-linejoin="miter" stroke-miterlimit="10" stroke-dasharray="" stroke-dashoffset="0" font-family="Handwriting" font-weight="normal" text-anchor="start" style="mix-blend-mode: normal"><tspan x="0" dy="0">No one will</tspan><tspan x="0" dy="46.15px">Notice </tspan></text></g></g></svg>