<svg xmlns="http://www.w3.org/2000/svg" xmlns:xlink="http://www.w3.org/1999/xlink" version="1.1" width="194.3662909269333" height="109.83009707927704" viewBox="-0.1650485396385193 -0.6650485396385193 194.3662909269333 109.83009707927704">
  <!-- Exported by Scratch - http://scratch.mit.edu/ -->
  <path id="ID0.9129331279546022" fill="#CCFFFF" stroke="none" d="M 2 0 L 190 0 L 190 108 L 2 108 L 2 0 Z " stroke-width="1"/>
  <path id="ID0.45689168991521" fill="#00CC44" stroke="none" d="M 0.5027 49.5 L 192.4761 49.5 L 192.4761 108.5 L 0.5027 108.5 L 0.5027 49.5 Z " stroke-width="1.0133851082627463"/>
  <path id="ID0.7048041075468063" fill="#00CC44" stroke="none" d="M 23.9311 40.5 C 30.3751 40.5 36.2133 41.368 40.4408 42.771 C 44.6694 44.174 47.2862 46.112 47.2862 48.25 C 47.2862 50.388 44.6694 52.326 40.4408 53.729 C 36.2133 55.132 30.3751 56 23.9311 56 C 17.4872 56 11.6489 55.132 7.4214 53.729 C 3.1929 52.326 0.5761 50.388 0.5761 48.25 C 0.5761 46.112 3.1929 44.174 7.4214 42.771 C 11.6489 41.368 17.4872 40.5 23.9311 40.5 Z " stroke-width="1.0133851082627463"/>
  <path id="ID0.7048041075468063" fill="#00CC44" stroke="none" d="M 56.8811 39.75 C 63.3251 39.75 69.1633 40.618 73.3908 42.021 C 77.6194 43.424 80.2362 45.362 80.2362 47.5 C 80.2362 49.638 77.6194 51.576 73.3908 52.979 C 69.1633 54.382 63.3251 55.25 56.8811 55.25 C 50.4372 55.25 44.5989 54.382 40.3714 52.979 C 36.1429 51.576 33.5261 49.638 33.5261 47.5 C 33.5261 45.362 36.1429 43.424 40.3714 42.021 C 44.5989 40.618 50.4372 39.75 56.8811 39.75 Z " stroke-width="1.0133851082627463"/>
  <path id="ID0.7048041075468063" fill="#00CC44" stroke="none" d="M 123.6811 41.25 C 130.1251 41.25 135.9633 42.118 140.1908 43.521 C 144.4194 44.924 147.0362 46.862 147.0362 49 C 147.0362 51.138 144.4194 53.076 140.1908 54.479 C 135.9633 55.882 130.1251 56.75 123.6811 56.75 C 117.2372 56.75 111.3989 55.882 107.1714 54.479 C 102.9429 53.076 100.3261 51.138 100.3261 49 C 100.3261 46.862 102.9429 44.924 107.1714 43.521 C 111.3989 42.118 117.2372 41.25 123.6811 41.25 Z " stroke-width="1.0133851082627463"/>
  <path id="ID0.7048041075468063" fill="#00CC44" stroke="none" d="M 153.4311 41.25 C 159.8751 41.25 165.7133 42.118 169.9408 43.521 C 174.1694 44.924 176.7862 46.862 176.7862 49 C 176.7862 51.138 174.1694 53.076 169.9408 54.479 C 165.7133 55.882 159.8751 56.75 153.4311 56.75 C 146.9872 56.75 141.1489 55.882 136.9214 54.479 C 132.6929 53.076 130.0761 51.138 130.0761 49 C 130.0761 46.862 132.6929 44.924 136.9214 43.521 C 141.1489 42.118 146.9872 41.25 153.4311 41.25 Z " stroke-width="1.0133851082627463"/>
  <path id="ID0.7048041075468063" fill="#00CC44" stroke="none" d="M 170.1811 41 C 176.6251 41 182.4633 41.868 186.6908 43.271 C 190.9194 44.674 193.5362 46.612 193.5362 48.75 C 193.5362 50.888 190.9194 52.826 186.6908 54.229 C 182.4633 55.632 176.6251 56.5 170.1811 56.5 C 163.7372 56.5 157.8989 55.632 153.6714 54.229 C 149.4429 52.826 146.8261 50.888 146.8261 48.75 C 146.8261 46.612 149.4429 44.674 153.6714 43.271 C 157.8989 41.868 163.7372 41 170.1811 41 Z " stroke-width="1.0133851082627463"/>
  <path id="ID0.068916748277843" fill="#003FFF" stroke="none" d="M 1 96 L 192 96 L 192 108.5 L 1 108.5 L 1 96 Z " stroke-width="1"/>
  <path id="ID0.35369081888347864" fill="#00FF55" stroke="none" d="M 0.5 96 L 52 96 L 52 108.5 L 0.5 108.5 L 0.5 96 Z " stroke-width="1"/>
  <path id="ID0.7048041075468063" fill="#00CC44" stroke="none" d="M 89.2811 39.75 C 95.7251 39.75 101.5633 40.618 105.7908 42.021 C 110.0194 43.424 112.6362 45.362 112.6362 47.5 C 112.6362 49.638 110.0194 51.576 105.7908 52.979 C 101.5633 54.382 95.7251 55.25 89.2811 55.25 C 82.8372 55.25 76.9989 54.382 72.7714 52.979 C 68.5429 51.576 65.9261 49.638 65.9261 47.5 C 65.9261 45.362 68.5429 43.424 72.7714 42.021 C 76.9989 40.618 82.8372 39.75 89.2811 39.75 Z " stroke-width="1.0133851082627463"/>
  <g id="ID0.8657724768854678">
    <path id="ID0.24283110396936536" fill="#FFFFFF" stroke="none" d="M 80.3883 39.5393 L 114.3058 39.5393 L 114.3058 57.4956 L 80.3883 57.4956 L 80.3883 39.5393 Z " stroke-width="0.6650485396385193"/>
    <path id="ID0.29514826415106654" fill="#003FFF" stroke="none" d="M 80.0558 34.5515 L 114.3058 34.5515 L 114.3058 39.8718 L 80.0558 39.8718 L 80.0558 34.5515 Z " stroke-width="0.6650485396385193"/>
    <path id="ID0.35489451000466943" fill="none" stroke="#000000" stroke-width="1.3300970792770386" stroke-linecap="round" d="M 92.0267 46.6886 C 92.0267 46.6886 93.5803 46.5928 94.3544 46.5223 C 94.7986 46.4818 95.2469 46.2683 95.6845 46.3561 C 96.1221 46.4439 96.434 46.8555 96.8483 47.0211 C 97.2719 47.1907 97.7375 47.4714 98.1784 47.3536 C 98.6719 47.222 98.8681 46.5456 99.3422 46.3561 C 99.7532 46.1918 100.2327 46.3009 100.6723 46.3561 C 101.1252 46.4126 101.5535 46.6041 102.0024 46.6886 C 102.4414 46.7711 102.8869 46.8269 103.3325 46.8549 C 103.7748 46.8828 104.2516 47.0191 104.6626 46.8549 C 105.1368 46.6653 105.321 45.7881 105.8265 45.8573 C 106.7861 45.9883 107.4186 47.0005 108.3204 47.3536 C 108.7327 47.5152 109.2076 47.3536 109.6505 47.3536 C 109.9271 47.3536 110.4818 47.3536 110.4818 47.3536 "/>
    <g id="ID0.13980314880609512">
      <path id="ID0.08102370938286185" fill="#FF0000" stroke="none" d="M 108.8192 34.5515 L 114.3058 34.5515 L 114.3058 40.0381 L 108.8192 40.0381 L 108.8192 34.5515 Z " stroke-width="0.6650485396385193"/>
      <g id="ID0.10746095748618245">
        <path id="ID0.8113831053487957" fill="none" stroke="#FFFFFF" stroke-width="0.46254914489053817" stroke-linecap="round" d="M 109.3725 35.2161 L 113.9378 39.697 "/>
        <path id="ID0.5432213474996388" fill="none" stroke="#FFFFFF" stroke-width="0.46254914489053817" stroke-linecap="round" d="M 108.8354 39.6037 L 113.7363 35.7762 "/>
      </g>
    </g>
    <g id="ID0.6555408979766071">
      <path id="ID0.5830202791839838" fill="#FF0000" stroke="none" d="M 85.4593 43.3633 C 86.3538 43.3633 87.1645 43.7265 87.7511 44.3137 C 88.3383 44.9003 88.7015 45.711 88.7015 46.6055 C 88.7015 47.5 88.3383 48.3106 87.7511 48.8972 C 87.1645 49.4845 86.3538 49.8476 85.4593 49.8476 C 84.5649 49.8476 83.7542 49.4845 83.1676 48.8972 C 82.5803 48.3106 82.2172 47.5 82.2172 46.6055 C 82.2172 45.711 82.5803 44.9003 83.1676 44.3137 C 83.7542 43.7265 84.5649 43.3633 85.4593 43.3633 Z " stroke-width="0.6650485396385193"/>
      <g id="ID0.10746095748618245">
        <path id="ID0.8113831053487957" fill="none" stroke="#FFFFFF" stroke-width="0.35099318706958166" stroke-linecap="round" d="M 83.843 44.8888 L 87.3072 48.289 "/>
        <path id="ID0.5432213474996388" fill="none" stroke="#FFFFFF" stroke-width="0.35099318706958166" stroke-linecap="round" d="M 83.4354 48.2181 L 87.1544 45.3138 "/>
      </g>
    </g>
  </g>
  <g id="ID0.8657724768854678">
    <path id="ID0.24283110396936536" fill="#FFFFFF" stroke="none" d="M 27.5883 15.3893 L 61.5058 15.3893 L 61.5058 33.3456 L 27.5883 33.3456 L 27.5883 15.3893 Z " stroke-width="0.6650485396385193"/>
    <path id="ID0.29514826415106654" fill="#003FFF" stroke="none" d="M 27.2558 10.4015 L 61.5058 10.4015 L 61.5058 15.7218 L 27.2558 15.7218 L 27.2558 10.4015 Z " stroke-width="0.6650485396385193"/>
    <path id="ID0.35489451000466943" fill="none" stroke="#000000" stroke-width="1.3300970792770386" stroke-linecap="round" d="M 39.2267 22.5386 C 39.2267 22.5386 40.7803 22.4428 41.5544 22.3723 C 41.9986 22.3318 42.4469 22.1183 42.8845 22.2061 C 43.3221 22.2939 43.634 22.7055 44.0483 22.8711 C 44.4719 23.0407 44.9375 23.3214 45.3784 23.2036 C 45.8719 23.072 46.0681 22.3956 46.5422 22.2061 C 46.9532 22.0418 47.4327 22.1509 47.8723 22.2061 C 48.3252 22.2626 48.7535 22.4541 49.2024 22.5386 C 49.6414 22.6211 50.0869 22.6769 50.5325 22.7049 C 50.9748 22.7328 51.4516 22.8691 51.8626 22.7049 C 52.3368 22.5153 52.521 21.6381 53.0265 21.7073 C 53.9861 21.8383 54.6186 22.8505 55.5204 23.2036 C 55.9327 23.3652 56.4076 23.2036 56.8505 23.2036 C 57.1271 23.2036 57.6818 23.2036 57.6818 23.2036 "/>
    <g id="ID0.13980314880609512">
      <path id="ID0.08102370938286185" fill="#FF0000" stroke="none" d="M 56.0192 10.4015 L 61.5058 10.4015 L 61.5058 15.8881 L 56.0192 15.8881 L 56.0192 10.4015 Z " stroke-width="0.6650485396385193"/>
      <g id="ID0.10746095748618245">
        <path id="ID0.8113831053487957" fill="none" stroke="#FFFFFF" stroke-width="0.46254914489053817" stroke-linecap="round" d="M 56.5725 11.0661 L 61.1378 15.547 "/>
        <path id="ID0.5432213474996388" fill="none" stroke="#FFFFFF" stroke-width="0.46254914489053817" stroke-linecap="round" d="M 56.0354 15.4537 L 60.9363 11.6262 "/>
      </g>
    </g>
    <g id="ID0.6555408979766071">
      <path id="ID0.5830202791839838" fill="#FF0000" stroke="none" d="M 32.6593 19.2133 C 33.5538 19.2133 34.3645 19.5765 34.9511 20.1637 C 35.5383 20.7503 35.9015 21.561 35.9015 22.4555 C 35.9015 23.35 35.5383 24.1606 34.9511 24.7472 C 34.3645 25.3345 33.5538 25.6976 32.6593 25.6976 C 31.7649 25.6976 30.9542 25.3345 30.3676 24.7472 C 29.7803 24.1606 29.4172 23.35 29.4172 22.4555 C 29.4172 21.561 29.7803 20.7503 30.3676 20.1637 C 30.9542 19.5765 31.7649 19.2133 32.6593 19.2133 Z " stroke-width="0.6650485396385193"/>
      <g id="ID0.10746095748618245">
        <path id="ID0.8113831053487957" fill="none" stroke="#FFFFFF" stroke-width="0.35099318706958166" stroke-linecap="round" d="M 31.043 20.7388 L 34.5072 24.139 "/>
        <path id="ID0.5432213474996388" fill="none" stroke="#FFFFFF" stroke-width="0.35099318706958166" stroke-linecap="round" d="M 30.6354 24.0681 L 34.3544 21.1638 "/>
      </g>
    </g>
  </g>
  <g id="ID0.8657724768854678">
    <path id="ID0.24283110396936536" fill="#FFFFFF" stroke="none" d="M 128.7883 14.6893 L 162.7058 14.6893 L 162.7058 32.6456 L 128.7883 32.6456 L 128.7883 14.6893 Z " stroke-width="0.6650485396385193"/>
    <path id="ID0.29514826415106654" fill="#003FFF" stroke="none" d="M 128.4558 9.7015 L 162.7058 9.7015 L 162.7058 15.0218 L 128.4558 15.0218 L 128.4558 9.7015 Z " stroke-width="0.6650485396385193"/>
    <path id="ID0.35489451000466943" fill="none" stroke="#000000" stroke-width="1.3300970792770386" stroke-linecap="round" d="M 140.4267 21.8386 C 140.4267 21.8386 141.9803 21.7428 142.7544 21.6723 C 143.1986 21.6318 143.6469 21.4183 144.0845 21.5061 C 144.5221 21.5939 144.834 22.0055 145.2483 22.1711 C 145.6719 22.3407 146.1375 22.6214 146.5784 22.5036 C 147.0719 22.372 147.2681 21.6956 147.7422 21.5061 C 148.1532 21.3418 148.6327 21.4509 149.0723 21.5061 C 149.5252 21.5626 149.9535 21.7541 150.4024 21.8386 C 150.8414 21.9211 151.2869 21.9769 151.7325 22.0049 C 152.1748 22.0328 152.6516 22.1691 153.0626 22.0049 C 153.5368 21.8153 153.721 20.9381 154.2265 21.0073 C 155.1861 21.1383 155.8186 22.1505 156.7204 22.5036 C 157.1327 22.6652 157.6076 22.5036 158.0505 22.5036 C 158.3271 22.5036 158.8818 22.5036 158.8818 22.5036 "/>
    <g id="ID0.13980314880609512">
      <path id="ID0.08102370938286185" fill="#FF0000" stroke="none" d="M 157.2192 9.7015 L 162.7058 9.7015 L 162.7058 15.1881 L 157.2192 15.1881 L 157.2192 9.7015 Z " stroke-width="0.6650485396385193"/>
      <g id="ID0.10746095748618245">
        <path id="ID0.8113831053487957" fill="none" stroke="#FFFFFF" stroke-width="0.46254914489053817" stroke-linecap="round" d="M 157.7725 10.3661 L 162.3378 14.847 "/>
        <path id="ID0.5432213474996388" fill="none" stroke="#FFFFFF" stroke-width="0.46254914489053817" stroke-linecap="round" d="M 157.2354 14.7537 L 162.1363 10.9262 "/>
      </g>
    </g>
    <g id="ID0.6555408979766071">
      <path id="ID0.5830202791839838" fill="#FF0000" stroke="none" d="M 133.8593 18.5133 C 134.7538 18.5133 135.5645 18.8765 136.1511 19.4637 C 136.7383 20.0503 137.1015 20.861 137.1015 21.7555 C 137.1015 22.65 136.7383 23.4606 136.1511 24.0472 C 135.5645 24.6345 134.7538 24.9976 133.8593 24.9976 C 132.9649 24.9976 132.1542 24.6345 131.5676 24.0472 C 130.9803 23.4606 130.6172 22.65 130.6172 21.7555 C 130.6172 20.861 130.9803 20.0503 131.5676 19.4637 C 132.1542 18.8765 132.9649 18.5133 133.8593 18.5133 Z " stroke-width="0.6650485396385193"/>
      <g id="ID0.10746095748618245">
        <path id="ID0.8113831053487957" fill="none" stroke="#FFFFFF" stroke-width="0.35099318706958166" stroke-linecap="round" d="M 132.243 20.0388 L 135.7072 23.439 "/>
        <path id="ID0.5432213474996388" fill="none" stroke="#FFFFFF" stroke-width="0.35099318706958166" stroke-linecap="round" d="M 131.8354 23.3681 L 135.5544 20.4638 "/>
      </g>
    </g>
  </g>
  <g id="ID0.8657724768854678">
    <path id="ID0.24283110396936536" fill="#FFFFFF" stroke="none" d="M 37.7383 61.2893 L 71.6558 61.2893 L 71.6558 79.2456 L 37.7383 79.2456 L 37.7383 61.2893 Z " stroke-width="0.6650485396385193"/>
    <path id="ID0.29514826415106654" fill="#003FFF" stroke="none" d="M 37.4058 56.3015 L 71.6558 56.3015 L 71.6558 61.6218 L 37.4058 61.6218 L 37.4058 56.3015 Z " stroke-width="0.6650485396385193"/>
    <path id="ID0.35489451000466943" fill="none" stroke="#000000" stroke-width="1.3300970792770386" stroke-linecap="round" d="M 49.3767 68.4386 C 49.3767 68.4386 50.9303 68.3428 51.7044 68.2723 C 52.1486 68.2318 52.5969 68.0183 53.0345 68.1061 C 53.4721 68.1939 53.784 68.6055 54.1983 68.7711 C 54.6219 68.9407 55.0875 69.2214 55.5284 69.1036 C 56.0219 68.972 56.2181 68.2956 56.6922 68.1061 C 57.1032 67.9418 57.5827 68.0509 58.0223 68.1061 C 58.4752 68.1626 58.9035 68.3541 59.3524 68.4386 C 59.7914 68.5211 60.2369 68.5769 60.6825 68.6049 C 61.1248 68.6328 61.6016 68.7691 62.0126 68.6049 C 62.4868 68.4153 62.671 67.5381 63.1765 67.6073 C 64.1361 67.7383 64.7686 68.7505 65.6704 69.1036 C 66.0827 69.2652 66.5576 69.1036 67.0005 69.1036 C 67.2771 69.1036 67.8318 69.1036 67.8318 69.1036 "/>
    <g id="ID0.13980314880609512">
      <path id="ID0.08102370938286185" fill="#FF0000" stroke="none" d="M 66.1692 56.3015 L 71.6558 56.3015 L 71.6558 61.7881 L 66.1692 61.7881 L 66.1692 56.3015 Z " stroke-width="0.6650485396385193"/>
      <g id="ID0.10746095748618245">
        <path id="ID0.8113831053487957" fill="none" stroke="#FFFFFF" stroke-width="0.46254914489053817" stroke-linecap="round" d="M 66.7225 56.9661 L 71.2878 61.447 "/>
        <path id="ID0.5432213474996388" fill="none" stroke="#FFFFFF" stroke-width="0.46254914489053817" stroke-linecap="round" d="M 66.1854 61.3537 L 71.0863 57.5262 "/>
      </g>
    </g>
    <g id="ID0.6555408979766071">
      <path id="ID0.5830202791839838" fill="#FF0000" stroke="none" d="M 42.8093 65.1133 C 43.7038 65.1133 44.5145 65.4765 45.1011 66.0637 C 45.6883 66.6503 46.0515 67.461 46.0515 68.3555 C 46.0515 69.25 45.6883 70.0606 45.1011 70.6472 C 44.5145 71.2345 43.7038 71.5976 42.8093 71.5976 C 41.9149 71.5976 41.1042 71.2345 40.5176 70.6472 C 39.9303 70.0606 39.5672 69.25 39.5672 68.3555 C 39.5672 67.461 39.9303 66.6503 40.5176 66.0637 C 41.1042 65.4765 41.9149 65.1133 42.8093 65.1133 Z " stroke-width="0.6650485396385193"/>
      <g id="ID0.10746095748618245">
        <path id="ID0.8113831053487957" fill="none" stroke="#FFFFFF" stroke-width="0.35099318706958166" stroke-linecap="round" d="M 41.193 66.6388 L 44.6572 70.039 "/>
        <path id="ID0.5432213474996388" fill="none" stroke="#FFFFFF" stroke-width="0.35099318706958166" stroke-linecap="round" d="M 40.7854 69.9681 L 44.5044 67.0638 "/>
      </g>
    </g>
  </g>
  <g id="ID0.8657724768854678">
    <path id="ID0.24283110396936536" fill="#FFFFFF" stroke="none" d="M 124.1883 51.6893 L 158.1058 51.6893 L 158.1058 69.6456 L 124.1883 69.6456 L 124.1883 51.6893 Z " stroke-width="0.6650485396385193"/>
    <path id="ID0.29514826415106654" fill="#003FFF" stroke="none" d="M 123.8558 46.7015 L 158.1058 46.7015 L 158.1058 52.0218 L 123.8558 52.0218 L 123.8558 46.7015 Z " stroke-width="0.6650485396385193"/>
    <path id="ID0.35489451000466943" fill="none" stroke="#000000" stroke-width="1.3300970792770386" stroke-linecap="round" d="M 135.8267 58.8386 C 135.8267 58.8386 137.3803 58.7428 138.1544 58.6723 C 138.5986 58.6318 139.0469 58.4183 139.4845 58.5061 C 139.9221 58.5939 140.234 59.0055 140.6483 59.1711 C 141.0719 59.3407 141.5375 59.6214 141.9784 59.5036 C 142.4719 59.372 142.6681 58.6956 143.1422 58.5061 C 143.5532 58.3418 144.0327 58.4509 144.4723 58.5061 C 144.9252 58.5626 145.3535 58.7541 145.8024 58.8386 C 146.2414 58.9211 146.6869 58.9769 147.1325 59.0049 C 147.5748 59.0328 148.0516 59.1691 148.4626 59.0049 C 148.9368 58.8153 149.121 57.9381 149.6265 58.0073 C 150.5861 58.1383 151.2186 59.1505 152.1204 59.5036 C 152.5327 59.6652 153.0076 59.5036 153.4505 59.5036 C 153.7271 59.5036 154.2818 59.5036 154.2818 59.5036 "/>
    <g id="ID0.13980314880609512">
      <path id="ID0.08102370938286185" fill="#FF0000" stroke="none" d="M 152.6192 46.7015 L 158.1058 46.7015 L 158.1058 52.1881 L 152.6192 52.1881 L 152.6192 46.7015 Z " stroke-width="0.6650485396385193"/>
      <g id="ID0.10746095748618245">
        <path id="ID0.8113831053487957" fill="none" stroke="#FFFFFF" stroke-width="0.46254914489053817" stroke-linecap="round" d="M 153.1725 47.3661 L 157.7378 51.847 "/>
        <path id="ID0.5432213474996388" fill="none" stroke="#FFFFFF" stroke-width="0.46254914489053817" stroke-linecap="round" d="M 152.6354 51.7537 L 157.5363 47.9262 "/>
      </g>
    </g>
    <g id="ID0.6555408979766071">
      <path id="ID0.5830202791839838" fill="#FF0000" stroke="none" d="M 129.2593 55.5133 C 130.1538 55.5133 130.9645 55.8765 131.5511 56.4637 C 132.1383 57.0503 132.5015 57.861 132.5015 58.7555 C 132.5015 59.65 132.1383 60.4606 131.5511 61.0472 C 130.9645 61.6345 130.1538 61.9976 129.2593 61.9976 C 128.3649 61.9976 127.5542 61.6345 126.9676 61.0472 C 126.3803 60.4606 126.0172 59.65 126.0172 58.7555 C 126.0172 57.861 126.3803 57.0503 126.9676 56.4637 C 127.5542 55.8765 128.3649 55.5133 129.2593 55.5133 Z " stroke-width="0.6650485396385193"/>
      <g id="ID0.10746095748618245">
        <path id="ID0.8113831053487957" fill="none" stroke="#FFFFFF" stroke-width="0.35099318706958166" stroke-linecap="round" d="M 127.643 57.0388 L 131.1072 60.439 "/>
        <path id="ID0.5432213474996388" fill="none" stroke="#FFFFFF" stroke-width="0.35099318706958166" stroke-linecap="round" d="M 127.2354 60.3681 L 130.9544 57.4638 "/>
      </g>
    </g>
  </g>
</svg>