<svg version="1.1" xmlns="http://www.w3.org/2000/svg" xmlns:xlink="http://www.w3.org/1999/xlink" width="289.48336" height="467.06472" viewBox="0,0,289.48336,467.06472"><defs><linearGradient x1="263.99044" y1="248.02203" x2="263.99044" y2="408.74925" gradientUnits="userSpaceOnUse" id="color-1"><stop offset="0" stop-color="#ffffff" stop-opacity="0.26046"/><stop offset="1" stop-color="#ffffff" stop-opacity="0"/></linearGradient><linearGradient x1="215.50348" y1="252.75046" x2="215.50348" y2="413.47765" gradientUnits="userSpaceOnUse" id="color-2"><stop offset="0" stop-color="#ffffff" stop-opacity="0.26046"/><stop offset="1" stop-color="#ffffff" stop-opacity="0"/></linearGradient><linearGradient x1="251.00994" y1="2.75315" x2="240.80495" y2="98.67159" gradientUnits="userSpaceOnUse" id="color-3"><stop offset="0" stop-color="#cedee0" stop-opacity="0"/><stop offset="1" stop-color="#cedee0" stop-opacity="0.19676"/></linearGradient></defs><g transform="translate(-127.77492,51.75653)"><g data-paper-data="{&quot;isPaintingLayer&quot;:true}" fill-rule="nonzero" stroke-linejoin="miter" stroke-miterlimit="10" stroke-dasharray="" stroke-dashoffset="0" style="mix-blend-mode: normal"><g fill="none" stroke="#3a2f41" stroke-width="4"><g stroke-linecap="butt"><path d="M234.32911,88.89158l10.47372,7.78781l6.53488,-6.14946c0,0 10.43649,16.32527 9.67785,17.05213c-0.41948,0.40192 -4.88698,-2.28067 -9.53704,-4.43828c-4.27758,-1.98479 -6.80678,-2.86052 -6.80678,-2.86052c-6.76881,2.4754 -15.66075,8.27583 -16.07788,7.73617c-0.72789,-0.94173 5.73524,-19.12784 5.73524,-19.12784z"/></g><path d="M234.08538,90.66845l0.82529,-1.97135l6.55391,-1.49178l9.40673,3.09299l0.5616,2.20809" stroke-linecap="round"/></g><g stroke="#3a2f41"><g data-paper-data="{&quot;index&quot;:null}"><g><path d="M311.92232,231.78276l24.00081,-22.01585l78.4896,86.35441l-47.8277,-4.9425z" fill="#e1e2db" stroke-width="0" stroke-linecap="butt"/><path d="M311.92231,231.78275l24.00081,-22.01585l33.37813,36.26841l-41.41547,3.09319z" fill="#8c9ca0" stroke-width="0" stroke-linecap="butt"/><path d="M362.44771,238.75106l-33.99443,9.85698" fill="none" stroke-width="1.5" stroke-linecap="round"/><path d="M343.44924,264.90254l35.36319,-7.71976" fill="none" stroke-width="1.5" stroke-linecap="round"/><path d="M357.87903,281.23176l38.51304,-6.24696" fill="none" stroke-width="1.5" stroke-linecap="round"/><path d="M329.06002,216.06244l6.86309,-6.29547l78.84975,85.67751l-48.18785,-4.26561l-54.6627,-59.39607l3.12847,-2.86973" fill="none" stroke-width="2" stroke-linecap="butt"/></g><path d="M283.67837,210.19214l33.0822,-30.34616l37.73179,40.99905l-33.0822,30.34616z" fill="#e1e2db" stroke-width="0" stroke-linecap="butt"/><path d="M283.67836,210.19214l33.0822,-30.34616l21.76833,23.6533l-48.07815,14.05166z" fill="#8c9ca0" stroke-width="0" stroke-linecap="butt"/><path d="M296.53738,210.02889l19.46011,-17.85069l24.42891,26.54427l-19.46011,17.85069z" fill="none" stroke-width="1.5" stroke-linecap="butt"/><path d="M327.84916,205.05613l-31.31176,4.97277" fill="none" stroke-width="1.5" stroke-linecap="round"/><path d="M339.77779,219.31753l-30.33876,4.08024" fill="none" stroke-width="1.5" stroke-linecap="round"/><path d="M306.20856,189.97602l10.75602,-9.86646l37.73179,40.99905l-33.0822,30.34616l-37.73179,-40.99905l9.1292,-8.37419" fill="none" stroke-width="2" stroke-linecap="butt"/></g><g data-paper-data="{&quot;index&quot;:null}" stroke-width="2" stroke-linecap="butt"><path d="M296.79136,227.5138l-32.76186,-35.8888c0,0 -10.70955,-51.31396 -13.80956,-68.18726c-1.70725,-9.29255 -3.25509,-24.69543 -3.25509,-24.69543l18.08341,8.1095l20.41633,47.12473l48.23754,40.98237z" fill="#3a2f41"/><path d="M290.94532,221.11144l-1.6602,-2.12353l33.79908,-32.80965l1.84639,1.84276z" fill="#8ea8ab"/></g></g><path d="M300.13057,299.34004c0.1431,6.62627 -24.67462,12.09868 -58.51583,12.83976c-33.84122,0.74109 -64.5576,-3.02979 -64.7007,-9.65605c-0.1431,-6.62627 27.34129,-12.59868 61.18249,-13.33976c33.84122,-0.74109 61.89094,3.52979 62.03404,10.15605z" fill="#3a2f41" stroke="none" stroke-width="0" stroke-linecap="butt"/><path d="M242.58921,248.02203l42.80246,11.82158l-14.37164,148.90561z" fill="#3a2f41" stroke="url(#color-1)" stroke-width="0.5" stroke-linecap="butt"/><path d="M213.20228,413.47765l-19.10003,-148.90562l42.80246,-11.82157z" data-paper-data="{&quot;index&quot;:null}" fill="#3a2f41" stroke="url(#color-2)" stroke-width="0.5" stroke-linecap="butt"/><g><path d="M178.42023,300.77709c0,0 3.59725,-38.22115 6.8621,-56.45554c5.04439,-23.76166 20.70477,-73.39855 20.70477,-73.39855l57.76919,-0.94466c0,0 6.36216,14.36512 10.42472,23.35775c1.21592,2.69149 2.22585,4.90171 2.79754,6.10147c6.01036,22.15685 21.40037,98.17513 21.40037,98.17513c0,0 -14.13893,-6.79586 -44.14496,-6.56026c-44.72036,0.35113 -75.81374,9.72465 -75.81374,9.72465z" fill="#e1e2db" stroke="none" stroke-width="0" stroke-linecap="round"/><path d="M182.28105,260.05661c0,0 6.64675,-46.45638 9.32823,-58.47466c3.84371,-17.22733 18.36341,-36.01137 18.36341,-36.01137l51.52723,-1.15737c0,0 6.85699,13.02291 9.0561,18.03775c1.5248,3.47714 2.87306,9.16545 2.87306,9.16545z" fill="#8c9ca0" stroke="none" stroke-width="0" stroke-linecap="butt"/><path d="M261.08963,164.9784c0,0 8.09065,10.70316 14.58369,32.89832c5.869,20.06202 23.03894,99.73604 23.03894,99.73604c0,0 -14.47226,-6.79586 -44.47829,-6.56026c-44.72036,0.35113 -76.14707,10.05798 -76.14707,10.05798c0,0 8.49449,-70.52934 15.3294,-101.16387c3.45585,-15.48935 16.5708,-34.35686 16.5708,-34.35686z" fill="none" stroke="#3a2f41" stroke-width="2.5" stroke-linecap="round"/><path d="M265.59536,173.25842l-25.00711,12.97842l-35.18713,-11.72539" fill="none" stroke="#3a2f41" stroke-width="1.5" stroke-linecap="round"/></g><path d="M237.57729,176.77758c-11.08878,0.03558 -29.18678,-11.84706 -29.18678,-11.84706c0,0 1.48311,-6.189 2.63987,-9.538c1.05377,-3.05082 4.02056,-9.74501 4.02056,-9.74501c0,0 -9.90729,-26.8991 -2.90323,-44.69344c1.53645,-3.90346 13.29309,-10.72734 21.87512,-10.50038c6.83859,0.18084 13.9139,1.50343 20.10283,4.85664c2.33225,1.26363 6.56719,4.66765 6.56719,4.66765c0,0 7.18838,9.37027 10.20429,20.80089c-4.45981,12.24906 -14.51805,17.30857 -14.51805,17.30857l-1.23236,8.33689c0,0 2.45913,6.13601 3.43622,9.19629c0.97382,3.05001 2.41656,9.13468 2.41656,9.13468c0,0 -12.33344,11.9867 -23.42222,12.02228z" fill="#3a2f41" stroke="#8c9ca0" stroke-width="2" stroke-linecap="round"/><g stroke="#3a2f41" stroke-width="2"><g fill="#e1e2db"><path d="M145.03813,241.51911l26.14087,27.01599l-32.13311,-10.90223z" stroke-linecap="round"/><path d="M143.92317,248.15608l18.05952,32.97064l-28.10241,-19.0171z" stroke-linecap="round"/><path d="M158.77178,166.93822l3.30168,4.78019l7.3374,-13.09494l0.8043,11.28184l4.97163,-1.81664c0,0 -7.12735,26.8589 -8.74681,35.23329c-1.03811,5.36815 -1.59349,9.08096 -1.59349,9.08096l15.98829,16.77315l-2.50019,30.96429c0,0 -9.28957,-28.78381 -15.20838,-25.71352c-1.45068,0.75251 -16.00831,27.54096 -16.00831,27.54096l2.15223,27.7636l-17.17253,-26.42733c0,0 1.51951,-8.1615 4.65225,-18.33946c3.13274,-10.17796 -3.55584,14.21531 -3.89513,15.87964l-4.02449,-12.95305c0,0 5.6256,-15.36496 7.22151,-20.75276c4.65639,-15.71984 22.72006,-60.20026 22.72006,-60.20026z" stroke-linecap="butt"/></g><g stroke-linecap="butt"><path d="M134.1755,205.58329l13.46292,-46.69149c0,0 38.14177,-35.95862 50.90414,-47.42336c7.02856,-6.31392 18.34906,-15.28674 18.34906,-15.28674l-1.4222,27.22692l-24.53118,34.07045l-9.71334,62.54651z" fill="#3a2f41"/><path d="M136.57644,197.25251l0.94211,-2.52548l45.63961,11.65661l-0.60543,2.5374z" fill="#8ea8ab"/></g></g><g><g data-paper-data="{&quot;index&quot;:null}" stroke="#3a2f41" stroke-width="2" stroke-linecap="butt"><path d="M171.46662,6.35676l6.30833,-14.62202l8.40634,7.46246l-5.61948,-11.56589l21.94381,-18.61902c0,0 0.34871,20.94402 5.53583,40.62373c2.3453,4.54523 -9.32911,10.02863 -9.32911,10.02863z" fill="#3a2f41"/><path d="M205.91336,17.17244c-2.1587,-2.10039 5.68044,-23.80164 10.12396,-28.131c1.79732,-1.75115 15.58209,18.30803 13.29716,20.53427c-4.44352,4.32936 -20.22012,10.71124 -22.37881,8.61088z" data-paper-data="{&quot;index&quot;:null}" fill="#8c9ca0"/><path d="M206.8162,17.50156c1.7271,2.4028 -10.03849,17.26281 -15.15742,20.17605c-2.63226,1.49805 -17.72173,-17.81186 -15.6512,-18.99021c5.11893,-2.91324 28.24761,-4.74882 29.97472,-2.34601z" fill="#e1e2db"/><path d="M212.42792,13.78965c1.51729,3.40057 0.13961,7.3208 -3.07717,8.75607c-3.21674,1.43528 -7.05447,-0.15792 -8.57175,-3.5585c-1.51729,-3.40057 -0.13961,-7.3208 3.07717,-8.75607c3.21674,-1.43528 7.05447,0.15792 8.57175,3.5585z" fill="#e1e2db"/></g><path d="M293.94636,98.05501l-22.35001,-4.91658l1.25246,-12.2284c0,0 -2.81273,12.25449 -3.29845,12.06364c-6.34519,-1.19338 -12.63646,-2.27855 -18.65996,-3.25299c-25.30469,-4.09362 -45.8839,-6.23318 -45.8839,-6.23318c0,0 -6.38588,-14.84228 -4.9902,-27.96057c0.97533,-9.16728 3.96376,-27.16426 18.41776,-39.88803c11.65721,-10.26178 30.36056,-11.84653 34.17834,-11.59659c3.05272,0.19984 15.39119,6.27924 22.23787,14.25556c11.39683,13.27727 22.729,41.6748 22.729,41.6748z" fill="#3a2f41" stroke="none" stroke-width="0" stroke-linecap="butt"/><g stroke-linecap="butt"><path d="M284.02907,61.93243c-0.86415,8.12226 0.22419,15.56622 -6.13644,20.19172c-6.18315,4.49643 -19.02789,4.90921 -31.97565,3.80981c-12.887,-1.09422 -25.485,-5.37793 -30.59639,-11.29002c-5.17104,-5.98104 -3.38817,-12.2355 -2.53113,-20.29088c1.70418,-16.01789 14.70639,-35.2111 44.50472,-31.14745c19.60152,2.67309 28.43909,22.7089 26.7349,38.7268z" fill="#e1e2db" stroke="none" stroke-width="0"/><path d="M284.02907,61.93243c-1.70418,16.01789 -15.16882,4.39762 -31.31438,2.80839c-16.14233,-1.58891 -41.62942,5.63015 -39.92524,-10.38774c1.70418,-16.01789 14.70639,-35.2111 44.50472,-31.14745c19.60152,2.67309 28.43909,22.7089 26.7349,38.7268z" fill="#b8c1c0" stroke="none" stroke-width="0"/><path d="M262.79362,24.48729c15.74681,5.31467 24.06421,22.49969 22.52854,36.93364l-0.06829,0.64181c-0.80836,7.59794 -1.24066,14.78052 -6.81115,19.38803c-6.17317,5.10598 -18.25884,5.70445 -32.06641,4.53207c-9.53888,-0.80995 -20.87627,-3.75439 -26.02156,-7.40148c-8.83832,-6.26476 -8.64241,-14.10419 -7.56527,-24.22828c1.44652,-13.59612 11.03301,-29.47998 32.12179,-31.48709" fill="none" stroke="#3a2f41" stroke-width="2"/></g><path d="M191.78519,77.99563l-10.02587,-9.65824c0,0 0.38797,-28.52841 14.68254,-45.57649c18.4377,-21.98926 47.4913,-28.19566 74.47515,-18.43105c5.78056,2.09181 20.21577,8.68895 27.92222,19.71534c9.25765,13.24585 11.25385,29.05333 11.25385,29.05333l-5.79365,-1.55218l-0.16867,12.30869c0,0 -3.15017,-1.17117 -3.14364,-1.43238c0.14649,-5.85265 -0.44194,-11.74109 -0.44194,-11.74109c0,0 0.40287,4.8049 -0.919,11.70251c-3.31168,-0.99124 -21.90843,-4.97336 -21.90843,-4.97336l-2.00153,-5.50279l-0.97414,4.85026l-16.17731,-3.24314l0.21903,-18.61043l-2.16129,17.90946c0,0 -14.60432,-1.69141 -21.70167,-2.18411c-0.50061,-0.03475 -1.5677,-7.99218 -1.5677,-7.99218c0,0 -1.03903,8.0752 -1.41222,8.04203c-4.4111,-0.39216 -10.56391,-0.24452 -10.56391,-0.24452c0,0 -4.27111,40.91259 -4.43437,40.91393c-2.53967,0.02097 -23.01562,-10.04155 -22.80071,-11.72349c0.31046,-2.42976 0.23439,-16.29694 0.23439,-16.29694z" fill="#3a2f41" stroke="url(#color-3)" stroke-width="0.5" stroke-linecap="butt"/><path d="M258.48311,16.26083c20.85552,-35.03461 55.58503,-45.1288 55.58503,-45.1288l-20.87366,64.96748" fill="#3a2f41" stroke="#3a2f41" stroke-width="2" stroke-linecap="round"/><path d="M190.32003,34.36343c19.60629,-54.25377 61.20645,-84.17556 61.20645,-84.17556l0.29212,61.05264" fill="#3a2f41" stroke="#3a2f41" stroke-width="2" stroke-linecap="round"/><g stroke="#3a2f41" stroke-linecap="butt"><path d="M218.21282,62.60201c0,0 5.56387,-4.44611 14.66251,-3.42348c9.64003,1.08348 14.07677,7.73519 14.07677,7.73519c0,0 -6.06731,-1.14492 -14.81889,-2.34496c-7.7767,-1.06637 -13.92038,-1.96674 -13.92038,-1.96674z" fill="#e1e2db" stroke-width="1"/><g fill="#3a2f41" stroke-width="0.5"><path d="M237.71353,64.94755l0.51999,-4.04174l2.93026,1.09635l-0.00721,3.36736z"/></g></g></g><g fill="#8c9ca0" stroke="#3a2f41" stroke-width="2" stroke-linecap="butt"><path d="M248.98481,112.76472c0,2.22449 -1.88453,4.02779 -4.20921,4.02779c-2.32468,0 -4.20921,-1.8033 -4.20921,-4.02779c0,-2.22449 1.88453,-4.02779 4.20921,-4.02779c2.32467,0 4.20921,1.80331 4.20921,4.02779z"/><path d="M249.76414,124.82017c0,2.30181 -1.96993,4.16779 -4.39997,4.16779c-2.43003,0 -4.39994,-1.86598 -4.39994,-4.16779c0,-2.30181 1.96992,-4.16778 4.39994,-4.16778c2.43003,0 4.39997,1.86597 4.39997,4.16778z"/></g><g><path d="M251.01636,91.73228c-0.30355,2.17821 -6.50258,5.43259 -8.89664,5.09896c-2.39407,-0.33363 -7.38444,-4.71267 -7.08089,-6.89088c0.30355,-2.17821 6.17752,-2.58016 8.57158,-2.24653c2.39407,0.33363 7.7095,1.86025 7.40595,4.03846z" fill="#3a2f41" stroke="none" stroke-width="0" stroke-linecap="butt"/><g fill="#8c9ca0" stroke="#8c9ca0" stroke-width="1.5" stroke-linecap="butt"><path d="M245.00283,96.67938l6.53489,-6.14945c0,0 10.43649,16.32526 9.67785,17.05212c-0.41948,0.40191 -4.88698,-2.28067 -9.53704,-4.43829c-4.27759,-1.98479 -6.80678,-2.86052 -6.80678,-2.86052c-6.76881,2.4754 -15.66076,8.27583 -16.07788,7.73617c-0.72789,-0.94172 5.73525,-19.12785 5.73525,-19.12785z"/></g><path d="M234.08537,90.86845l0.82529,-2.57135l6.5539,-1.89178l9.40674,3.69299l0.5616,2.60809" fill="none" stroke="#8c9ca0" stroke-width="2" stroke-linecap="round"/></g></g></g></svg>