<svg version="1.1" xmlns="http://www.w3.org/2000/svg" xmlns:xlink="http://www.w3.org/1999/xlink" width="283.94366" height="490.42234" viewBox="0,0,283.94366,490.42234"><defs><linearGradient x1="343.27386" y1="111.147" x2="294.77815" y2="314.10597" gradientUnits="userSpaceOnUse" id="color-1"><stop offset="0" stop-color="#ffffff" stop-opacity="0"/><stop offset="1" stop-color="#ffffff" stop-opacity="0.08254"/></linearGradient><linearGradient x1="335.60193" y1="115.34715" x2="287.10621" y2="318.30613" gradientUnits="userSpaceOnUse" id="color-2"><stop offset="0" stop-color="#ffffff" stop-opacity="0"/><stop offset="1" stop-color="#ffffff" stop-opacity="0.08254"/></linearGradient><linearGradient x1="321.99165" y1="112.80741" x2="273.49594" y2="315.76639" gradientUnits="userSpaceOnUse" id="color-3"><stop offset="0" stop-color="#ffffff" stop-opacity="0"/><stop offset="1" stop-color="#ffffff" stop-opacity="0.08254"/></linearGradient><linearGradient x1="320.20333" y1="160.459" x2="290.20219" y2="286.0165" gradientUnits="userSpaceOnUse" id="color-4"><stop offset="0" stop-color="#ffffff" stop-opacity="0"/><stop offset="1" stop-color="#ffffff" stop-opacity="0.08254"/></linearGradient><linearGradient x1="157.16658" y1="213.22411" x2="147.69555" y2="4.76679" gradientUnits="userSpaceOnUse" id="color-5"><stop offset="0" stop-color="#ffffff" stop-opacity="0"/><stop offset="1" stop-color="#ffffff" stop-opacity="0.08254"/></linearGradient></defs><g transform="translate(-98.81731,45.45432)"><g data-paper-data="{&quot;isPaintingLayer&quot;:true}" fill-rule="nonzero" stroke-linejoin="miter" stroke-miterlimit="10" stroke-dasharray="" stroke-dashoffset="0" style="mix-blend-mode: normal"><g><g stroke-linecap="butt"><path d="M183.58871,146.37166l20.80395,8.9082l-31.90313,64.5203l-13.8925,-21.87214z" data-paper-data="{&quot;index&quot;:null}" fill="#e1e2db" stroke="none" stroke-width="0"/><path d="M188.03371,167.59648l-9.2163,-10.1049l3.33429,-8.34837l20.80395,8.90821c0,0 -0.58797,3.91567 -2.12406,7.36942z" data-paper-data="{&quot;index&quot;:null}" fill="#8c9ca0" stroke="none" stroke-width="0"/><path d="M183.61773,146.79781l20.80396,8.9082l-32.11871,64.59874l-15.01028,-23.95058z" data-paper-data="{&quot;index&quot;:null}" fill="none" stroke="#3a2f41" stroke-width="2.5"/></g><g stroke="#8c9ca0" stroke-width="2" stroke-linecap="round"><path d="M217.96011,124.12917l-3.2721,33.52077l-23.39155,1.01649l-13.87817,-12.37671c0,0 12.52893,-19.93966 17.87336,-35.93723c1.15671,-3.46242 21.0321,-7.92388 21.0321,-7.92388" fill="#3a2f41"/><path d="M215.20722,149.73952l-22.38769,-0.05984l-11.50101,-10.02713" fill="none"/></g></g><g><g stroke-linecap="butt"><path d="M356.35417,169.35914c0,0 1.3725,15.17998 -0.76587,17.76377c-2.22151,2.68425 -14.74727,2.4038 -14.74727,2.4038l-40.57907,-37.709l14.11825,-17.68715l41.974,35.2286z" data-paper-data="{&quot;index&quot;:null}" fill="#e1e2db" stroke="none" stroke-width="0"/><path d="M308.19527,159.0692c-2.98672,-2.31679 -5.35647,-5.48892 -5.35647,-5.48892l14.11825,-17.68715l6.88576,5.77918l-3.3422,13.26193z" data-paper-data="{&quot;index&quot;:null}" fill="#8c9ca0" stroke="none" stroke-width="0"/><path d="M356.53014,169.74838c0,0 0.65795,14.47567 -1.38689,16.94645c-2.2903,2.76739 -14.238,1.31408 -14.238,1.31408l-40.46733,-35.80198l14.11825,-17.68715z" data-paper-data="{&quot;index&quot;:null}" fill="none" stroke="#3a2f41" stroke-width="2.5"/></g><g stroke="#8c9ca0" stroke-width="2" stroke-linecap="round"><path d="M264.75652,110.89135c0,0 19.62242,-5.46775 22.27897,-2.96393c12.27416,11.56851 32.7429,23.21301 32.7429,23.21301l-6.37557,17.46821l-21.09152,10.16593l-18.73469,-27.98857" fill="#3a2f41"/><path d="M313.20314,127.13663l-5.39209,14.27383l-19.69799,10.63959" fill="none"/></g></g><g stroke-linecap="butt"><path d="M279.29632,407.28869l-5.33911,-33.83061l43.99763,-9.59098l61.20087,78.50923z" data-paper-data="{&quot;index&quot;:null}" fill="#3a2f41" stroke="#3a2f41" stroke-width="2.5"/><g data-paper-data="{&quot;index&quot;:null}"><g><path d="M276.67911,360.73109l-20.33988,-79.10224l27.27747,-6.44011l20.33988,79.10225z" fill="#7c7984" stroke="none" stroke-width="0"/><path d="M261.28406,298.85778l-4.47186,-17.39116l27.27748,-6.44011l4.31531,17.665z" fill="#626171" stroke="none" stroke-width="0"/><path d="M277.15207,360.56891l-20.33988,-79.10225l27.27748,-6.4401l20.33988,79.10224z" fill="none" stroke="#3a2f41" stroke-width="2.5"/></g><path d="M319.85819,359.80558c0,0 -5.48543,7.7922 -21.67368,12.21007c-18.89326,5.15609 -27.1077,1.90689 -27.1077,1.90689c0,0 -1.61044,-1.21483 -2.78675,-4.48966c-0.34962,-0.97329 0.49531,-3.40914 0.07514,-4.39284c-0.97993,-2.29428 -2.37463,-2.93922 -2.56382,-4.35381c-0.3461,-2.58713 3.28916,-7.23807 3.28916,-7.23807l43.21047,-10.35973c0,0 4.29494,0.15257 5.16128,4.20296c0.79741,3.72803 -0.11961,3.95882 0.18846,5.20493c0.38267,1.54781 3.10837,3.5479 2.20738,7.30928z" fill="#e1e2db" stroke="#3a2f41" stroke-width="2.5"/></g><path d="M325.86148,374.0098l23.51125,30.16053l-30.75658,16.93418l-26.27033,-9.23062z" data-paper-data="{&quot;index&quot;:null}" fill="#e1e2db" stroke="#3a2f41" stroke-width="2.5"/></g><g stroke-linecap="butt"><path d="M119.21079,425.64275l76,-54l45,-1.66667l4,37z" fill="#3a2f41" stroke="#3a2f41" stroke-width="2.5"/><g><g><path d="M205.91317,361.06864l0.0025,-81.67543l28.02191,-0.55492l-0.0025,81.67543z" fill="#7c7984" stroke="none" stroke-width="0"/><path d="M205.63646,297.53704l-0.21925,-18.18313l28.02192,-0.55492l-0.00055,17.95689z" fill="#626171" stroke="none" stroke-width="0"/><path d="M205.41472,361.02936l0.0025,-81.67543l28.02192,-0.55493l-0.0025,81.67543z" fill="none" stroke="#3a2f41" stroke-width="2.5"/></g><path d="M191.88561,370.3691c-1.80921,-3.41855 0.33261,-6.03436 0.31782,-7.6287c-0.01192,-1.28357 -0.95752,-1.27874 -1.11352,-5.08791c-0.16951,-4.13854 3.95216,-5.35576 3.95216,-5.35576l44.42906,-0.72613c0,0 4.67886,3.59926 4.98787,6.19108c0.169,1.41715 -1.02118,2.38906 -1.39896,4.85508c-0.16199,1.05734 1.26287,3.20608 1.16661,4.23577c-0.32381,3.46459 -1.58103,5.04216 -1.58103,5.04216c0,0 -7.14664,5.19228 -26.7287,4.90308c-16.77843,-0.24779 -24.03136,-6.42866 -24.03136,-6.42866z" fill="#e1e2db" stroke="#3a2f41" stroke-width="2.5"/></g><path d="M164.86717,393.20269l23.50299,-16.69949l32.09515,34.01887l-32.86444,4.90776z" fill="#e1e2db" stroke="#3a2f41" stroke-width="2.5"/></g><g data-paper-data="{&quot;index&quot;:null}" stroke="#3a2f41" stroke-width="2"><path d="M186.45709,352.03211l11.11999,-152.36414l38.41662,-2.32538l6.12698,153.27424z" data-paper-data="{&quot;index&quot;:null}" fill="#e1e2db" stroke-linecap="butt"/><path d="M210.79512,203.57557l-0.76382,28.48026l-14.62552,4.85043" fill="none" stroke-linecap="round"/><path d="M205.82318,205.96759l-0.16319,22.1607l-9.78083,3.15924" fill="none" stroke-linecap="round"/></g><g stroke="#3a2f41" stroke-width="2"><path d="M254.96922,356.78092c0,0 -14.92592,-119.2135 -17.90077,-142.97372c-0.98781,-7.88964 -1.97372,-15.76412 -1.97372,-15.76412l34.24033,3.01657l47.39237,140.5959z" data-paper-data="{&quot;index&quot;:null}" fill="#e1e2db" stroke-linecap="butt"/><path d="M280.70631,234.81372l-15.18635,-0.29605l-7.93009,-31.47924" fill="none" stroke-linecap="round"/><path d="M278.68316,230.24236l-10.17639,-0.42042l-6.45458,-25.74595" fill="none" stroke-linecap="round"/></g><g stroke-linecap="butt"><path d="M231.35333,246.23724l-0.51465,-18.01186l11.74016,-1.15491l2.07267,21.06971z" fill="#8c9ca0" stroke="#3a2f41" stroke-width="2"/><path d="M231.29657,243.83448c0,0 -0.23659,-8.28037 -0.33078,-11.57681c-0.07022,-2.45768 -0.18387,-6.43506 -0.18387,-6.43506l1.34444,-15.20466l4.61508,1.64337l5.78064,12.40639l2.07267,21.06971z" fill="#e1e2db" stroke="#e1e2db" stroke-width="3.5"/></g><g><g data-paper-data="{&quot;index&quot;:null}"><path d="M195.11043,201.31265c8.94786,-17.45495 11.58414,-95.45022 22.86374,-105.06527c8.74842,-7.4574 19.3635,-7.24361 29.38923,-6.3968c9.1381,0.77183 29.16432,10.68921 30.33963,14.91542c2.85339,10.26037 -6.20011,74.46315 -0.78062,102.97428l-45.78467,10.8567z" fill="#3a2f41" stroke="#3a2f41" stroke-width="2" stroke-linecap="butt"/><g><path d="M229.70352,91.67226c-0.44953,-0.36249 2.77457,-4.91067 3.25464,-5.24879c0.18813,-0.05351 0.49819,-0.43592 1.13038,0.1243c2.88705,2.55835 9.43532,9.97978 9.43532,9.97978l-10.98645,8.22702z" data-paper-data="{&quot;index&quot;:null}" fill="#8c9ca0" stroke="#3a2f41" stroke-width="4.5" stroke-linecap="round"/><path d="M243.54872,96.57379c0,0 -7.7968,-8.92566 -4.17939,-10.6719c4.30397,-2.07766 20.21142,2.93772 21.24567,2.5128c1.11697,-1.7178 2.63604,4.77111 2.56962,6.24182c-1.15935,2.89512 -11.84314,11.86562 -11.84314,11.86562z" fill="#3a2f41" stroke="#3a2f41" stroke-width="4.5" stroke-linecap="round"/><path d="M231.69499,91.37241c0.0455,-0.5066 1.48103,-4.49887 2.55196,-4.9232c0.64864,-0.5755 12.23984,-5.28988 13.75529,-4.90581c2.39542,0.60711 11.8885,6.16146 12.82267,7.22804c0.5267,0.33029 0.45758,3.81461 0.36713,5.23048" fill="none" stroke="#3a2f41" stroke-width="6.5" stroke-linecap="butt"/><g><path d="M229.70352,91.67226c-0.44953,-0.36249 2.77457,-4.91067 3.25464,-5.2488c0.18813,-0.05351 0.49819,-0.43592 1.13038,0.1243c2.88703,2.55835 9.43532,9.97978 9.43532,9.97978l-10.98645,8.22702z" data-paper-data="{&quot;index&quot;:null}" fill="#8c9ca0" stroke="#12161a" stroke-width="0" stroke-linecap="round"/><path d="M243.54872,96.57378c0,0 15.16273,-7.37704 17.06627,-8.15909c1.11697,-1.71778 2.63604,4.77112 2.56962,6.24183c-1.15936,2.89512 -11.84315,11.86562 -11.84315,11.86562z" fill="#8c9ca0" stroke="#12161a" stroke-width="0" stroke-linecap="round"/><path d="M231.69499,91.3724c0.0455,-0.5066 1.48103,-4.49886 2.55196,-4.92319c0.64864,-0.5755 12.23984,-5.28988 13.75529,-4.90581c2.39542,0.60711 11.8885,6.16146 12.82267,7.22804c0.5267,0.33029 0.45758,3.81461 0.36713,5.23048" fill="none" stroke="#8c9ca0" stroke-width="2" stroke-linecap="butt"/></g></g></g><path d="M230.56965,217.96169l2.24174,-9.1291l-9.76381,-40.45728l18.77229,-42.96856" fill="none" stroke="#8c9ca0" stroke-width="2" stroke-linecap="round"/><path d="M234.19009,168.97985c-0.23833,2.52408 -1.93587,4.42821 -3.79157,4.253c-1.85571,-0.17522 -3.16685,-2.36343 -2.92853,-4.88752c0.23833,-2.52408 1.93587,-4.42821 3.79157,-4.25299c1.85571,0.17522 3.16685,2.36343 2.92853,4.88751z" fill="#8c9ca0" stroke="#3a2f41" stroke-width="2" stroke-linecap="butt"/><path d="M210.18342,117.38945l-7.72627,-3.13745l6.30999,-2.53405l-14.29011,-14.25991l10.74456,-0.92643l-5.37243,-11.52433l18.48037,9.30579c0,0 17.97472,19.37832 20.04913,22.37999c1.55673,2.25258 4.18787,8.78421 4.18787,8.78421z" fill="#8c9ca0" stroke="#3a2f41" stroke-width="2" stroke-linecap="butt"/><path d="M241.15164,124.50529c0,0 4.29548,-5.87761 6.51235,-7.77389c5.31224,-4.54404 31.90866,-19.33835 31.90866,-19.33835l20.81354,1.36181l-10.96855,7.24788l18.93828,11.04174l-14.90667,-0.34898l-13.98952,6.39667z" data-paper-data="{&quot;index&quot;:null}" fill="#8c9ca0" stroke="#3a2f41" stroke-width="2" stroke-linecap="butt"/></g><g fill="#3a2f41" stroke-linecap="butt"><path d="M326.20056,247.05325l35.93638,6.39013l-57.13238,23.31317l-27.56254,-34.05971l15.22278,-48.83482l1.00493,-0.21622c12.00991,10.87911 20.52704,11.50409 32.58576,22.36144z" data-paper-data="{&quot;index&quot;:null}" stroke="url(#color-1)" stroke-width="2"/><path d="M318.52862,251.25341l35.93637,6.39013l-57.13237,23.31317l-27.56254,-34.05971l15.22278,-48.83482l1.00493,-0.21622c12.00991,10.87911 20.52704,11.50409 32.58576,22.36144z" data-paper-data="{&quot;index&quot;:null}" stroke="url(#color-2)" stroke-width="2"/><path d="M369.58144,180.02711l-60.11364,42.68923l-4.54946,25.99733l37.678,12.96408l-58.87399,16.73923l-27.56254,-34.05972l15.22279,-48.83483l56.26789,-17.63276l-6.98969,-8.57009l14.63254,3.17294l-14.63514,-25.54736l20.31467,16.72726l3.65479,-4.19671z" data-paper-data="{&quot;index&quot;:null}" stroke="url(#color-3)" stroke-width="2"/><path d="M309.64119,244.53535l22.23149,3.95316l-35.34408,14.42234l-17.05115,-21.07052l10.03902,-30.34469l20.53404,4.34099z" data-paper-data="{&quot;index&quot;:null}" stroke="url(#color-4)" stroke-width="2"/><path d="M308.0921,214.01322c2.51824,-0.43233 5.03149,-0.92373 7.57097,-1.44678l0.09864,0.02564l-0.00026,-0.03132l1.84969,-0.01531c0.01826,-0.00027 0.03664,-0.00005 0.05511,0.00069c0.55185,0.02182 0.98153,0.48687 0.95971,1.03873c-0.01578,0.39889 -0.26313,0.73395 -0.60744,0.88081l-0.99923,0.45119l-0.13527,-0.29959c-0.74933,0.42138 -1.52308,0.70246 -2.32671,0.92056l-0.47684,0.21531c-0.19108,0.16531 -0.38329,0.33016 -0.57651,0.49455c0.08191,0.03524 0.15529,0.08538 0.21835,0.15289c0.09602,0.00003 0.19223,0.00139 0.28863,0.00414l0.99922,0.03951c0.55185,0.02182 0.98153,0.48687 0.95971,1.03873c-0.02182,0.55185 -0.48687,0.98153 -1.03873,0.95971l-0.99922,-0.03951c-0.16038,-0.00877 -0.31994,-0.01368 -0.47871,-0.01506c-0.00712,0.00203 -0.01425,0.00404 -0.02138,0.00606c-0.01743,0.34773 -0.21094,0.64581 -0.49058,0.81114l-1.5251,0.93187l-0.01348,-0.02206c-0.0343,0.02844 -0.06909,0.05635 -0.1044,0.08371c-0.31213,0.24188 -0.73949,0.39013 -1.20101,0.51588c-1.41816,0.91136 -3.09778,2.08051 -4.4645,2.5657c-0.95251,0.7926 -1.92534,1.55912 -3.03715,2.07472l-1.00064,0.45182c-0.14175,0.06761 -0.30155,0.10273 -0.46937,0.0961c-0.55185,-0.02182 -0.98153,-0.48687 -0.95971,-1.03873c0.00664,-0.16782 0.05426,-0.32435 0.13286,-0.46032l0.52942,-0.96184l0.30592,0.16838c0.1986,-0.33684 0.42205,-0.58853 0.68483,-0.81417c-0.04066,-0.11569 -0.06056,-0.24086 -0.05542,-0.37084c0.0054,-0.13646 0.03789,-0.26544 0.09209,-0.38198c-1.29076,0.6928 -3.59905,2.02779 -4.46219,1.65899c-0.85483,-0.36525 -1.12351,-0.96864 -1.12155,-1.62736c-0.15004,0.07879 -0.32216,0.12046 -0.50367,0.11328c-0.55185,-0.02182 -0.98153,-0.48687 -0.95971,-1.03873c0.00664,-0.16782 0.05427,-0.32435 0.13286,-0.46032l0.52942,-0.96184c0.38252,-0.69413 0.78247,-1.35871 1.19452,-2.00715l-0.21968,-0.00869c-0.55185,-0.02182 -0.98153,-0.48687 -0.95971,-1.03872c0.01578,-0.39889 0.26313,-0.73395 0.60744,-0.88081l0.74216,-0.3351c0.02503,-0.349 0.09573,-0.75187 0.2182,-1.21478c-0.11034,-0.00427 -0.22537,-0.00906 -0.34286,-0.01439c-0.22382,0.41337 -0.49356,0.87153 -0.78922,1.40869l-0.52868,0.96048c-0.17359,0.33165 -0.52712,0.55177 -0.92601,0.536c-0.2029,-0.00803 -0.38929,-0.07596 -0.54279,-0.1861l-0.04978,0.09045c-0.17359,0.33165 -0.52713,0.55177 -0.92602,0.536c-0.0437,-0.00173 -0.08663,-0.00624 -0.12863,-0.01335c-0.18356,0.29642 -0.5171,0.4882 -0.89034,0.47344c-0.0712,-0.00281 -0.14038,-0.01301 -0.2068,-0.02981c-1.23465,3.28689 -2.99823,6.43444 -4.2292,9.67831c-0.20572,0.54214 -0.34434,1.46231 -0.54856,2.37805c-0.01848,0.17093 -0.03258,0.3424 -0.04161,0.51442c-0.06056,0.11515 -0.11985,0.23098 -0.17794,0.34742c-0.15728,0.52972 -0.35419,1.01304 -0.62027,1.36482c-0.12354,0.2971 -0.24154,0.59647 -0.35516,0.89715l-0.05623,0.04997l0.02425,0.01335l-0.52867,0.96049c-0.17359,0.33165 -0.52713,0.55177 -0.92602,0.536c-0.55185,-0.02182 -0.98153,-0.48688 -0.95971,-1.03873l0.03951,-0.99922l0.0451,0.00178c-0.00725,-0.0762 -0.01057,-0.15294 -0.00929,-0.2303c0.01957,-1.17761 0.60848,-1.20689 1.15729,-1.59205c0.13468,-0.28866 0.2799,-0.57197 0.44031,-0.84673c0.00729,-0.29575 0.02101,-0.59041 0.04068,-0.88402c-0.02765,-0.18724 -0.03919,-0.3721 0.00201,-0.54584c0.00289,-0.01218 0.02338,-0.0707 0.05711,-0.16394c0.4402,-4.43175 2.16685,-8.63244 3.55534,-12.78753c0.06694,-2.03642 0.54993,-4.0579 0.63603,-6.23547l0.03951,-0.99922c0.02182,-0.55185 0.48687,-0.98153 1.03873,-0.95971c0.44949,0.01778 0.81793,0.32959 0.92735,0.74286l0.11417,0.39372c0.16926,-0.34385 0.52953,-0.57407 0.93717,-0.55795c0.55185,0.02182 0.98153,0.48688 0.95971,1.03873l-0.00529,0.13367c0.01867,0.01181 0.03692,0.02423 0.05472,0.03721c0.15196,-0.3838 0.53368,-0.64821 0.96954,-0.63098c0.55185,0.02182 0.98153,0.48687 0.95971,1.03873l-0.03019,0.76334l0.10339,-0.18783c0.17359,-0.33165 0.52713,-0.55177 0.92602,-0.536c0.39889,0.01577 0.73395,0.26312 0.88081,0.60744l0.45118,0.99923l-0.36628,0.16539c0.10179,0.32672 0.14026,0.62707 0.12621,0.91958c0.25801,-0.02077 0.52148,-0.04388 0.77227,-0.06196c0.4658,-0.38714 1.03164,-0.56881 1.65385,-0.61608c0.18066,-0.54209 0.35358,-1.08696 0.51542,-1.63584l0.072,-0.07882l-0.02786,-0.01493l0.546,-1.01914c0.17159,-0.33742 0.52834,-0.56231 0.93138,-0.54638c0.39889,0.01577 0.73395,0.26312 0.8808,0.60744l0.45119,0.99923l-0.03303,0.01492c0.05406,0.1158 0.09575,0.23697 0.12114,0.36519c0.05946,0.30032 -0.2246,1.03635 -0.55245,1.72701c1.49162,0.4134 2.9532,0.97546 3.95065,0.98025l0.49961,0.01976c0,0 0.89254,0.03529 0.95716,0.88271zM303.76785,216.54748c-0.16583,0.16621 -0.33988,0.33047 -0.52122,0.49252c0.44793,-0.17803 0.89319,-0.34804 1.33718,-0.51121c-0.02814,0.00125 -0.05656,0.00134 -0.08521,0.0002l-0.37875,-0.01497c-0.01837,0.00161 -0.03674,0.00322 -0.05512,0.00482c-0.10028,0.0087 -0.19921,0.01828 -0.29688,0.02864zM298.99143,219.88104c-0.03609,0.10026 -0.07241,0.20046 -0.10901,0.3006c-0.20892,0.57168 -1.13247,2.14771 -0.7821,1.65001c0.52741,-0.74918 1.45052,-1.12524 2.35592,-1.45937l-0.11255,-0.00445c-0.4396,-0.01738 -0.80167,-0.31602 -0.91975,-0.71574c-0.14357,0.07768 -0.28781,0.15402 -0.4325,0.22896zM301.58788,214.50298c-0.09913,-0.01092 -0.19823,-0.0213 -0.29718,-0.03119c-0.06885,0.10154 -0.13774,0.20268 -0.20667,0.30348c0.16739,-0.08344 0.33547,-0.17759 0.50385,-0.27229z" stroke="none" stroke-width="0.5"/></g><path d="M228.31297,215.87633l2.66666,13.66666l4.66667,0.33334l3.33333,17.66666" fill="none" stroke="#3a2f41" stroke-width="2" stroke-linecap="round"/><path d="M235.6463,230.20966l-2.33334,-13.66667" fill="none" stroke="#3a2f41" stroke-width="2" stroke-linecap="round"/><g><g><g><g><g><g><g stroke-linecap="butt"><g fill="#3a2f41" stroke="#3a2f41" stroke-width="2.5"><g><path d="M300.45422,58.77214c-17.56357,10.31459 -26.29357,15.82794 -43.91865,-0.82509c-17.62509,-16.65301 -34.19658,-39.15786 -17.3794,-50.64926c85.22551,-58.23584 140.67622,38.62763 140.67622,38.62763c0,0 -49.52386,-4.68585 -79.37815,12.84672z"/><path d="M241.38778,33.48862c7.44876,9.59808 11.40154,14.35434 1.3843,24.99727c-4.33287,4.60351 4.53909,19.16975 -5.69895,21.03814c-31.93363,5.82772 -40.94406,-8.88773 -40.94406,-8.88773c0,0 10.04004,-0.60984 8.47036,-2.3621c-41.44657,-46.26723 16.44932,-89.5157 16.44932,-89.5157c0,0 7.67775,38.41542 20.33903,54.7301z"/><path d="M283.6807,31.62963c-5.80615,20.70139 -8.42848,31.29041 -32.67608,31.14574c-24.2476,-0.14468 -53.21163,-0.32523 -48.75404,-21.39805c-1.09925,-67.59843 56.04752,-81.25367 90.09999,-79.43994c26.94935,1.43539 58.52773,16.6321 58.52773,16.6321c0,0 -57.3284,17.87225 -67.19762,53.06015z"/></g><path d="M266.21805,80.9933c-10.19989,1.11983 -28.37154,-1.52976 -34.64243,-3.75192c-6.17676,-2.18879 -3.73457,-0.36325 -8.3324,-11.48248c-9.26571,-22.40789 -15.17513,-49.72383 4.87218,-53.32591c101.59513,-18.25463 114.90925,89.62505 114.90925,89.62505c0,0 -42.71223,-20.16176 -76.80661,-21.06473z"/></g><g fill="none" stroke="none" stroke-width="1" font-family="sans-serif" font-weight="normal" font-size="12" text-anchor="start"><g/></g></g><g data-paper-data="{&quot;index&quot;:null}" stroke-linecap="butt"><path d="M203.63045,46.2317c0.11183,-18.74026 13.40849,-40.75263 37.27886,-41.29004c36.28787,-0.81699 49.29985,23.06572 49.18802,41.80597c-0.11181,18.74024 -12.0466,34.72054 -43.43719,33.8889c-15.67786,-0.41535 -28.60284,-4.24058 -35.41392,-10.2442c-7.00656,-6.17596 -7.67247,-14.6579 -7.61579,-24.16063z" fill="#ffffff" stroke="none" stroke-width="0"/><path d="M203.65006,45.89892c0.11183,-18.74026 13.40849,-40.75263 37.27886,-41.29004c36.28787,-0.81699 49.29985,23.06572 49.18802,41.80597c-0.11181,18.74024 -29.71012,7.0748 -49.28554,6.80932c-19.57932,-0.26552 -37.29316,11.41501 -37.18134,-7.32525z" fill="#b8c1c0" stroke="none" stroke-width="0"/><path d="M255.82454,6.25404c25.02431,5.06707 34.3848,24.67896 34.28989,40.58586c-0.11181,18.74024 -12.04659,34.72054 -43.43719,33.8889c-16.71896,-0.44293 -28.89437,-4.38507 -35.6114,-11.09212c-6.0613,-6.05225 -7.47134,-14.42344 -7.4183,-23.3127h-0.00001c0.10076,-16.88709 8.98164,-46.07726 52.04387,-40.11272" fill="none" stroke="#3a2f41" stroke-width="2"/></g><path d="M230.84645,-9.59164c0,0 -12.81765,9.42707 -17.84351,11.79803c-10.82775,5.10803 -11.05036,25.99384 -17.14278,12.00432c-10.27726,-23.59882 -3.45607,-57.25517 -3.45607,-57.25517l28.50335,26.00092z" fill="#3a2f41" stroke="#3a2f41" stroke-width="2.5" stroke-linecap="butt"/><path d="M313.34761,-35.41335c0,0 4.71444,34.01547 -7.01084,56.92931c-6.95083,13.58348 -5.87383,-7.27575 -16.36287,-13.0474c-4.86865,-2.67899 -17.07508,-12.88512 -17.07508,-12.88512c0,0 8.37943,-7.9459 14.26836,-12.45873c7.29192,-5.58794 26.18042,-18.53808 26.18042,-18.53808z" data-paper-data="{&quot;index&quot;:null}" fill="#3a2f41" stroke="#8c9ca0" stroke-width="2.5" stroke-linecap="butt"/><path d="M309.60624,6.10336c-1.06404,4.53542 -2.4705,8.95943 -3.68553,13.46671c-0.52961,1.96463 -1.53421,5.78715 -3.00491,7.27814c-0.04093,0.0415 -0.08237,0.08242 -0.12428,0.12277l0.03415,0.02307l-1.26808,1.87775c-0.38189,0.58366 -1.043,0.96759 -1.79237,0.96311c-1.17373,-0.007 -2.11952,-0.96416 -2.11253,-2.13789c0.00125,-0.2106 0.03311,-0.41387 0.09132,-0.60562l0.49676,-1.77953l-0.66536,-1.1564c-4.02243,-5.69221 -8.8033,-10.64806 -13.03424,-16.10387l-0.20477,0.21678l-3.08542,-2.91436c-0.41578,-0.39059 -0.67409,-0.94652 -0.67042,-1.56198c0.00044,-0.07344 0.0046,-0.14602 0.01229,-0.21749c-0.66991,-0.54118 -1.3212,5.21398 -2.02219,4.66368c-0.96135,-0.75469 -1.99173,-7.78263 -3.06888,-8.1875c-0.29925,-0.11247 -0.60282,-0.21116 -0.90944,-0.30028c-0.74411,0.35407 -1.49439,0.69949 -2.25313,1.03904c0,0 -0.15633,0.06994 -0.40007,0.12573l-0.63412,0.37536c-0.32712,0.20138 -0.71283,0.31658 -1.12528,0.31412c-1.17373,-0.007 -2.11952,-0.96416 -2.11253,-2.13788c0.00421,-0.70413 0.35036,-1.32625 0.8801,-1.70982l0.68687,-0.50877c0.11138,-0.42534 0.35116,-0.79841 0.6752,-1.07561l1.69995,-1.46964l0.01762,0.02039l0.04389,-0.07158c2.92782,-2.16207 6.09273,-3.94681 9.0111,-6.14752c0.82403,-0.62138 2.9823,-2.44731 4.10673,-2.69868c0.00278,-0.00062 0.00556,-0.00124 0.00834,-0.00186l-0.0011,-0.00206l2.31064,-1.24251c0.31129,-0.17528 0.67108,-0.27437 1.05391,-0.27208c1.17373,0.007 2.11953,0.96416 2.11254,2.13789c-0.00447,0.74938 -0.39627,1.40584 -0.98443,1.78074l-1.89277,1.2456l-0.02223,-0.03377l-0.05052,0.07957c-2.05786,1.12321 -4.11373,2.45323 -6.10846,3.85487c0.19071,0.32095 0.29927,0.69624 0.29688,1.09678c-0.00447,0.74938 -0.39627,1.40584 -0.98443,1.78074l-1.64296,1.08121c0.39963,0.26242 0.74774,0.49977 1.01054,0.66543c2.2004,1.38688 4.96938,3.15802 7.27926,5.06955c1.87594,0.90475 3.49109,2.16787 4.84979,3.69048c0.21348,-0.07045 0.44188,-0.10795 0.6791,-0.10654c0.83018,0.00495 1.54632,0.48525 1.89196,1.18131l1.87065,3.58501l-0.01495,0.00779c0.02413,0.03645 0.04804,0.07303 0.07176,0.10979c1.14515,1.77425 1.49632,3.94835 2.28142,5.91002c0.34944,-0.70477 1.07824,-1.18731 1.91784,-1.18232c0.43475,0.0026 0.83823,0.13555 1.1736,0.36159c0.18902,-0.93545 0.36988,-1.87067 0.60422,-2.77805c0.93836,-3.63368 2.25322,-7.01721 3.01748,-10.72341l2.13506,1.20098l2.02784,-0.34253c-0.0912,0.44223 -0.18637,0.88312 -0.28504,1.32287l0.08425,0.04737c0,0 -0.05483,0.36811 -0.27265,0.7733z" fill="#3a2f41" stroke="none" stroke-width="0.5" stroke-linecap="butt"/><path d="M207.65239,60.49788c-0.19293,0.83561 -9.54798,1.12772 -13.54346,0.3018c-5.92981,-1.22577 -5.63107,-2.59318 -5.43813,-3.42879c0.19293,-0.83561 18.98158,3.12698 18.98158,3.12698z" data-paper-data="{&quot;index&quot;:null}" fill="#3a2f41" stroke="#b8c1c0" stroke-width="0.25" stroke-linecap="butt"/><path d="M275.62415,74.31156l0.21773,-0.28031c0.00358,-0.60077 0.0102,-1.20152 0.01898,-1.80225c0.76009,-2.23572 -0.01524,-4.74595 0.32203,-7.05812c0.00515,-0.03531 0.01022,-0.07063 0.01523,-0.10595c0.09683,-2.41171 0.41245,-5.07812 0.0328,-7.36475c-0.08164,-0.49172 -0.32496,-1.0347 -0.44579,-1.52224c-0.15396,-0.02066 -0.29769,-0.04019 -0.42175,-0.05143l-0.04624,-0.37708l-0.18393,0.06009l-0.27367,-0.83763c-0.02383,-0.06752 -0.03658,-0.14024 -0.03613,-0.21596c0.0021,-0.3521 0.28925,-0.63586 0.64137,-0.63376c0.17606,0.00105 0.33504,0.07337 0.44971,0.18943l0.56335,0.5701l-0.15351,0.15169c0.06692,-0.02084 0.13296,-0.042 0.19827,-0.06354c0.00026,-0.06794 0.00059,-0.13586 0.00099,-0.20378c0,0 0.0038,-0.63756 0.64136,-0.63376c0.20312,0.00121 0.34115,0.06676 0.43492,0.15549c0.11199,-0.09466 0.25704,-0.15136 0.41515,-0.15043c0.31891,0.0019 0.58174,0.23765 0.6269,0.54367c0.31603,-0.05344 0.65078,-0.01759 0.9753,0.08283c0.04437,-0.00396 0.08868,-0.00766 0.13297,-0.01113c0.06897,-0.02371 0.14993,-0.03739 0.24499,-0.03682c0.05259,0.00032 0.10079,0.00493 0.14501,0.01315c0.14168,-0.00611 0.28238,-0.00941 0.42172,-0.00977c0,0 0.35223,0.0021 0.60325,0.00359c0.11539,-0.17018 0.31084,-0.2815 0.5319,-0.28019c0.3521,0.0021 0.63586,0.28925 0.63376,0.64136l-0.00506,0.85008l-0.17746,-0.00107c0.00126,0.00649 0.00251,0.013 0.00377,0.01949l0.16484,0.08365c-0.03531,0.10386 -0.06813,0.20906 -0.09798,0.31527c0.185,1.28493 0.08897,2.57358 0.08061,3.97473c-0.01975,3.31017 -0.01136,6.62212 -0.06722,9.93191l0.24934,0.76318c0.02383,0.06752 0.03658,0.14024 0.03613,0.21596c-0.0021,0.3521 -0.28926,0.63586 -0.64137,0.63376c-0.17606,-0.00105 -0.33504,-0.07337 -0.44971,-0.18943l-0.56335,-0.57009l0.23153,-0.22878l-0.03154,-0.0966c-0.13707,-0.18558 -0.24584,-0.38446 -0.31127,-0.59322c-0.07338,0.38035 -0.1498,0.76308 -0.22921,1.14884c-0.14018,0.68097 -0.2295,1.36726 -0.31554,2.05052c0.02284,0.81641 0.00359,1.62879 -0.26729,2.44075l-0.00631,1.05625c-0.0021,0.3521 -0.28925,0.63586 -0.64136,0.63376c-0.3521,-0.0021 -0.63586,-0.28925 -0.63376,-0.64136l0.00676,-1.13345l0.04256,0.00025l-0.03369,-0.10234c0.00023,-0.00065 0.00043,-0.0013 0.00066,-0.00197c-0.25278,-0.67449 0.02293,-1.73009 0.27188,-2.63095c-0.02556,-0.81753 -0.07914,-1.64072 0.04125,-2.4659c0.42025,-2.88038 0.81172,-5.8254 1.18075,-8.74057c0.10068,-0.79534 -0.02903,-2.82506 0.16649,-4.22281c-0.1023,0.06842 -0.22545,0.10801 -0.3578,0.10722c-0.3521,-0.0021 -0.63586,-0.28925 -0.63376,-0.64136c0.00095,-0.16 0.00352,-0.59106 0.00589,-0.98707c-0.25489,0.03114 -0.51113,0.07217 -0.76359,0.12192c-0.27981,1.35473 0.22251,2.97654 0.02018,4.36332c-0.37831,2.59294 -0.56171,5.53571 -0.60787,8.27192c-0.00194,0.3245 -0.00388,0.64902 -0.00582,0.97352c-0.01044,1.74767 0.08691,3.4592 -0.76389,4.71458l0.26404,0.26722l-0.57009,0.56334c-0.11607,0.11469 -0.27588,0.18509 -0.45193,0.18404c-0.2492,-0.00148 -0.46415,-0.14576 -0.56778,-0.35476c-0.56671,-0.28875 -0.27864,-0.85637 -0.27864,-0.85637z" fill="#3a2f41" stroke="none" stroke-width="0.5" stroke-linecap="butt"/><path d="M248.06175,4.43969c-0.0038,0.63756 -0.64136,0.63376 -0.64136,0.63376c-0.37781,-0.00226 -1.32236,-0.00789 -1.70017,-0.01015c-3.08113,-0.01839 -6.12167,0.1861 -9.16433,0.54113c-3.03824,0.35451 -5.59037,1.35442 -8.69922,1.33587c0,0 -0.63756,-0.0038 -0.63376,-0.64137c0.0038,-0.63756 0.64137,-0.63376 0.64137,-0.63376c3.05361,0.01822 5.55827,-0.96577 8.55277,-1.32831c3.08579,-0.37359 6.18519,-0.56735 9.31077,-0.5487c0.37781,0.00226 0.75563,0.0045 1.13345,0.00676l0.56672,0.00338c0,0 0.63756,0.0038 0.63376,0.64137z" fill="#3a2f41" stroke="#3a2f41" stroke-width="2.5" stroke-linecap="butt"/><g data-paper-data="{&quot;index&quot;:null}" fill="#ffffff" stroke="#3a2f41" stroke-width="1" stroke-linecap="round"><path d="M208.15059,59.1605c39.11682,11.20354 77.29647,-10.19398 77.29647,-10.19398c0,0 2.20912,15.14026 -8.75706,22.54172c-12.22494,8.25106 -35.78177,10.63465 -48.96222,6.41028c-13.41212,-4.29861 -19.63494,-18.47586 -19.63494,-18.47586" data-paper-data="{&quot;index&quot;:null}"/></g></g><path d="M260.2326,28.2149c-15.44489,8.53231 -41.61985,29.8299 -41.61985,29.8299c0,0 -7.81321,-6.92421 -7.6769,-13.2106c0.05658,-2.6093 -0.7786,0.82123 0.0292,4.21475c1.0378,4.35971 3.76648,9.40424 3.76648,9.40424c0,0 -6.07486,2.00361 -17.18089,-5.24529c-9.42176,-6.14957 -15.6163,-18.12772 -15.6163,-18.12772c0,0 -2.19041,1.81862 -3.81536,2.4786c-4.33225,1.75954 -12.5065,-3.00458 -12.5065,-3.00458c0,0 4.50643,0.36992 7.94432,-14.57502c2.37862,-10.34015 11.25788,-44.81028 47.00971,-33.31143c-6.67763,-8.66949 3.72979,-22.64946 3.72979,-22.64946c0,0 8.77685,22.04976 38.50983,38.21248c10.49036,6.08609 4.04005,22.33059 -2.57352,25.98416z" data-paper-data="{&quot;index&quot;:null}" fill="#3a2f41" stroke="#b8c1c0" stroke-width="1.5" stroke-linecap="butt"/><path d="M306.97611,45.87839c-4.27909,5.18079 -30.55544,-3.43483 -41.41382,-12.40332c-10.85837,-8.9685 -16.19193,-20.43877 -11.91286,-25.61957c4.27909,-5.18079 16.36067,-5.43819 27.21905,3.5303c10.85837,8.9685 30.38671,29.31178 26.10764,34.49258z" fill="#3a2f41" stroke="#3a2f41" stroke-width="2.5" stroke-linecap="butt"/><path d="M273.20004,30.9451c-13.44622,-1.59994 -35.45413,19.38297 -35.45413,19.38297c0,0 -2.00133,-14.60587 5.92168,-22.0395c3.62489,-3.40097 10.28422,-5.26063 12.21409,-5.37067c1.92987,-0.11004 22.25411,8.61448 17.31837,8.02717z" fill="#3a2f41" stroke="#3a2f41" stroke-width="2.5" stroke-linecap="butt"/><path d="M296.10905,75.53987c0.11004,1.92987 -5.90963,3.84263 -13.44528,4.27229c-7.53565,0.42966 -14.92678,-9.99985 -14.92678,-9.99985c0,0 11.22408,1.53023 18.80791,-3.91031c6.13297,-4.3997 9.4541,7.708 9.56414,9.63787z" fill="#3a2f41" stroke="#3a2f41" stroke-width="2.5" stroke-linecap="butt"/><path d="M283.12306,50.53682l1.23091,8.04058l-6.15028,-4.07059l-0.19724,14.68049l-13.36711,-11.58846l-0.30453,18.68225l-15.88997,-14.74133l-5.13058,17.85104l-19.04758,-16.71043l-6.58544,8.67998l-6.92454,-11.25903" fill="none" stroke="#3a2f41" stroke-width="1" stroke-linecap="round"/><path d="M278.41774,45.33521c-0.50356,8.54558 -8.38058,15.03305 -17.59379,14.49015c-9.21323,-0.54291 -16.2738,-7.91059 -15.77023,-16.45617c0.50356,-8.54558 8.38057,-15.03305 17.5938,-14.49014c9.21323,0.54291 16.27379,7.91059 15.77023,16.45617z" fill="#3a2f41" stroke="#3a2f41" stroke-width="2.5" stroke-linecap="butt"/></g><path d="M266.08795,47.20045c0.03966,3.86579 0.63338,6.77164 -0.04159,6.77856c-0.67498,0.00692 -0.58767,-3.12815 -0.62732,-6.99394c-0.03966,-3.86579 -0.19124,-6.99841 0.48374,-7.00533c0.67498,-0.00692 0.14553,3.35491 0.18517,7.2207z" fill="#ffffff" stroke="#ffffff" stroke-width="0.5" stroke-linecap="butt"/></g><path d="M278.23338,52.79709c0.11645,0.90918 -0.03074,1.6897 -0.81212,1.6615c0.09251,1.01173 0.20399,2.05607 0.30953,3.16139c0.39975,4.40147 1.04773,8.77205 1.44745,13.17308c0.14654,1.61347 0.68502,3.57343 0.22492,5.13065l0.19498,0.07632l-0.19981,0.51047c-0.06455,0.17568 -0.22555,0.30774 -0.42433,0.3258c-0.19878,0.01806 -0.38094,-0.08285 -0.47608,-0.24402l-0.28851,-0.46612l0.03306,-0.02047l-0.08102,-0.08092c-0.27332,-2.25722 -0.67545,-4.51611 -0.88436,-6.81625c-0.09657,-1.06329 -0.23448,-2.12098 -0.39419,-3.17525c-0.71958,-0.65501 -0.90496,-2.83713 -0.94067,-3.23027c-0.03028,-0.33335 -0.05425,-0.66507 -0.07255,-0.99538c-0.10132,1.70973 -0.20558,3.42022 -0.30326,5.13101c0.40036,4.22724 0.9677,9.97219 -0.01196,14.24237c-0.02621,0.27452 -0.06797,0.54438 -0.12897,0.80798l0.03975,0.4376c0.02498,0.27501 -0.17772,0.51819 -0.45273,0.54317c-0.27501,0.02498 -0.5182,-0.17771 -0.54318,-0.45272l-0.04523,-0.49795l0.04288,-0.0039l-0.0437,-0.07645c0.02289,-0.09724 0.04305,-0.19537 0.06071,-0.29429c-0.20391,-0.54847 -0.06339,-1.66556 0.03993,-2.48365c-0.11005,-1.15359 -0.33241,-2.32201 -0.41688,-3.39754c-0.16572,-2.11012 0.20723,-4.04479 0.31079,-6.12512c0.00326,-0.06366 0.00656,-0.12732 0.00986,-0.19098c-0.04326,0.01704 -0.08965,0.02829 -0.13831,0.03271c-0.27501,0.02498 -0.5182,-0.17772 -0.54318,-0.45273l-0.03725,-0.41018c-0.09281,-0.14997 -0.18564,-0.29994 -0.27845,-0.44991c-0.5364,-4.75535 -0.8798,-9.5391 -1.31264,-14.30479c0,0 -0.04523,-0.49795 0.45273,-0.54318c0.49795,-0.04523 0.54318,0.45273 0.54318,0.45273c0.0171,0.18828 0.03445,0.37659 0.05201,0.5649c0.11296,0.05256 0.20406,0.14635 0.25218,0.2638l0.31219,0.71375l-0.12473,0.05455c0.04149,0.08612 0.07871,0.17479 0.11213,0.26564c0.22798,-0.55901 0.55146,-1.019 0.85451,-1.08079c0.00249,-0.54474 0.07573,-1.08468 0.21515,-1.48074c-0.02323,-0.4014 -0.05257,-0.80217 -0.08891,-1.20224l-0.04523,-0.49795c-0.02498,-0.27501 0.17772,-0.5182 0.45273,-0.54318c0.19878,-0.01806 0.38095,0.08285 0.47608,0.24402l0.22435,0.36246c0.01337,-0.17991 0.03402,-0.35047 0.06405,-0.50439c-0.0217,-0.26104 -0.04182,-0.5222 -0.05984,-0.7835l0.07668,-0.09335l-0.04727,-0.0185l0.19981,-0.51047c0.04288,-0.11671 0.12832,-0.21416 0.23912,-0.27173c0.06402,-1.37339 0.24003,-2.78042 0.59093,-4.29951l0.02464,-0.02841l-0.01289,-0.00505l0.19981,-0.51047c0.06455,-0.17568 0.22555,-0.30774 0.42433,-0.3258c0.27501,-0.02498 0.5182,0.17772 0.54318,0.45273l0.09045,0.9959l-0.22931,0.02083c0.12915,1.44236 -0.07798,3.10799 -0.31338,4.63865c0.07428,0.04295 0.1369,0.10461 0.18092,0.17917l0.2885,0.46612l-0.301,0.1863c0.03225,0.08334 0.06428,0.17028 0.09565,0.26005l0.12196,0.10164l0.45587,-0.26253c0.00116,0.17712 0.00231,0.35424 0.00347,0.53136l0.20767,0.08129l-0.4075,1.04113c0,0 -0.00284,0.00726 -0.00872,0.0196zM276.22112,52.27498c0.00145,-0.11071 0.00476,-0.22038 0.01032,-0.32758l-0.11396,0.07053l0.0053,0.05837c0.03513,0.06519 0.06785,0.13144 0.09834,0.19867zM275.05348,63.03749c0.08416,-1.76942 0.18252,-3.54057 0.22308,-5.30596c-0.01143,-0.00136 -0.02276,-0.00311 -0.03396,-0.00524c0.05063,0.70128 -0.08974,1.3923 -0.73572,1.41285c0.00423,0.06007 0.00894,0.11947 0.01427,0.17811c0.09736,1.072 0.33484,2.37109 0.53233,3.72025z" fill="#3a2f41" stroke="none" stroke-width="0.5" stroke-linecap="butt"/><path d="M281.74961,44.37161c0.42382,0.48235 0.08339,1.10933 0.08339,1.10933l-0.24951,0.38568c-0.42179,1.75898 0.58987,4.48209 -0.03819,5.94134c-0.0305,0.07085 -0.0639,0.14 -0.09983,0.20766l0.04099,0.01605l-0.4811,1.22917c-0.1291,0.35137 -0.45108,0.61549 -0.84865,0.6516c-0.19706,0.0179 -0.38594,-0.02265 -0.5495,-0.10736c-0.01151,0.03241 -0.02325,0.06479 -0.03524,0.09714c0.19004,0.61032 0.15322,1.34909 0.06797,2.06096c0.11749,0.62012 0.09132,1.05919 -0.18276,1.57273l0.29605,0.14295l-0.49912,1.03367c-0.14492,0.31396 -0.44891,0.54405 -0.81803,0.57758c-0.12262,0.01114 -0.24207,-0.00036 -0.35422,-0.03103c-0.22723,1.73322 -0.32457,3.55989 -0.32653,5.38112c0.11525,1.31943 0.18818,2.65279 0.13524,3.94842c0.03627,0.53611 0.07904,1.06502 0.12734,1.58392l0.00077,-0.00007l0.10854,1.19508c0.04995,0.55002 -0.35542,1.0364 -0.90545,1.08635c-0.55003,0.04996 -1.03639,-0.35543 -1.08635,-0.90545l-0.10854,-1.19508l0.00083,-0.00008c-0.02916,-0.33584 -0.0601,-0.68863 -0.09143,-1.0558c-0.67415,-1.86024 -0.50701,-5.49477 -0.53853,-7.58759c-0.10614,0.05177 -0.22333,0.08549 -0.34792,0.0968c-0.48953,0.04446 -0.92865,-0.27178 -1.05453,-0.72966l-0.20251,-0.68368c-0.00458,0.42469 0.00019,0.78981 -0.01041,0.90618c-0.21731,2.38648 0.48662,4.05902 0.14762,5.87261c0.00485,0.05239 0.0098,0.10476 0.01483,0.15713l0.02171,0.23901l0.33901,0.10114l-0.30125,1.00976c-0.10688,0.39106 -0.447,0.6935 -0.87448,0.73233c-0.18545,0.01685 -0.36365,-0.01807 -0.52033,-0.09285c-0.50359,0.19087 -1.06451,0.2389 -1.52582,0.05109c-0.95127,-0.38728 -0.71918,-4.92987 -0.89104,-5.81806c-0.27665,-1.42972 -0.60329,-1.90153 -1.20627,-2.23298c-0.37399,0.13524 -0.80849,0.2531 -1.28084,0.34681c-1.15829,0.2298 -1.87171,0.25357 -2.61328,0.0414l-0.05202,0.00473l-0.01963,0.1831l-0.99558,-0.10676c-0.47307,-0.04132 -0.86325,-0.4163 -0.90771,-0.90582c-0.04995,-0.55002 0.35542,-1.0364 0.90545,-1.08635l0.9959,-0.09045l0.00426,0.04687l0.09432,-0.05094c0.26572,0.03274 1.00304,-0.00658 1.81342,-0.09615c0.16309,-0.18483 0.3944,-0.31009 0.65926,-0.33414l0.434,-0.03942c0.64366,-0.30972 1.28449,-0.65497 1.83115,-0.76458c0.09582,-1.25849 -1.42804,-2.82608 0.10342,-4.24216c0.46695,-0.43177 1.1257,-0.57441 1.87712,-0.56836c0.09204,-0.26635 0.187,-0.53153 0.28555,-0.7951c-0.90616,0.31531 -1.74766,-0.04028 -2.05314,-1.77921c-0.26186,-1.49066 3.21621,-3.75764 4.20878,-4.17309c0.60915,-0.25496 1.33269,-0.51737 1.95761,-0.30395c0.28284,0.0966 0.3229,0.77868 0.39602,1.1c0.19294,-0.35126 0.40188,-0.6742 0.6148,-0.95746c0.04957,0.03483 0.09844,0.06994 0.14658,0.10531c0.97044,-1.68902 1.61119,-3.53399 2.32364,-5.35199l0.29231,-0.97982c0.10688,-0.39106 0.447,-0.6935 0.87448,-0.73233c0.48953,-0.04446 0.92865,0.27178 1.05454,0.72966l0.28436,0.96004l-0.45181,0.13382l-0.01856,0.06221c0.18119,0.88215 0.13795,1.77059 -0.00113,2.69697zM274.02198,58.63655c-0.00804,0.00693 -0.01533,0.01392 -0.02182,0.02098c-0.14358,0.15613 -0.18796,0.8106 -0.2024,1.43374l0.28875,-0.08553c-0.13013,-0.49068 -0.14106,-0.93252 -0.06455,-1.36919zM277.75894,50.71107c-0.07086,0.60023 -0.12564,1.17872 0.13374,1.55215c0.01111,0.016 0.02261,0.0317 0.03446,0.04711c0.02465,-0.00411 0.04965,-0.00733 0.07494,-0.00963c0.04287,-0.00389 0.08536,-0.00502 0.12727,-0.00353c-0.04506,-0.49916 -0.20981,-1.05635 -0.37042,-1.5861zM273.39623,56.86913c0.33433,-0.05894 0.69908,-0.06613 1.04294,-0.11825c0.08006,-0.11737 0.18018,-0.21166 0.30439,-0.27598c-0.4832,-0.17436 -1.01854,-0.40222 -1.5302,-0.58561c-0.02599,0.08347 -0.05185,0.16696 -0.07761,0.25049c0.21834,0.26346 0.24862,0.59677 0.24862,0.59677c0.00401,0.04419 0.00797,0.08837 0.01185,0.13258zM275.78956,49.92028c-0.81317,1.24027 -1.41183,2.5909 -1.91595,3.9843c0.83113,0.15577 1.67121,0.34145 2.42326,0.41958l0.06791,-0.06127c0.14159,-0.13056 0.32174,-0.22132 0.52401,-0.25251l-0.20386,-0.09844l0.06732,-0.1394c-0.22689,-0.11809 -0.43846,-0.25038 -0.56019,-0.45676c-0.60338,-1.02283 -0.6519,-2.23571 -0.40249,-3.3955z" fill="#3a2f41" stroke="none" stroke-width="0.5" stroke-linecap="butt"/><path d="M240.00926,-12.56614c0.20927,-0.01901 0.40932,0.0279 0.57964,0.12362l1.04419,0.56697l-0.07215,0.13286l0.33152,0.06956c0.08521,0.19065 0.17979,0.36093 0.28255,0.5155c1.26224,0.83113 2.53954,1.80204 3.78819,2.81132c4.1596,2.37363 7.9783,5.12577 12.56883,6.91882c2.24649,0.87747 4.41735,1.33577 6.43953,2.22424c0.13735,0.04207 0.2748,0.08858 0.41241,0.14012c1.34327,0.31256 5.15714,0.97018 4.48588,3.337c-0.57285,2.01983 -5.40834,0.22976 -6.27281,0.02555c-2.06456,-0.4877 -4.47018,-0.00455 -6.47982,-0.77181c-4.23472,-1.61675 -7.77952,-4.14064 -11.58044,-6.50298c-2.38795,-2.55212 -5.37295,-4.48789 -7.79733,-7.13112l-0.00956,-0.02793l-0.00815,0.00657l-0.7458,-0.92495c-0.12483,-0.15028 -0.207,-0.33862 -0.22601,-0.54787c-0.04995,-0.55002 0.35542,-1.0364 0.90545,-1.08635c0.35116,-0.0319 0.67639,0.12182 0.87865,0.38029l0.5662,0.70221c0.01644,-0.49701 0.40106,-0.91544 0.90907,-0.96158zM257.10758,1.53179c-0.16569,-0.05038 -0.33006,-0.1017 -0.49318,-0.15401c0.16428,0.0554 0.32869,0.10683 0.49318,0.15401z" fill="#3a2f41" stroke="none" stroke-width="0.5" stroke-linecap="butt"/></g><path d="M213.21258,49.74295l-0.18936,0.03844c-0.07802,-0.143 -0.15906,-0.28522 -0.24261,-0.42681c-0.78424,-0.76468 -1.37059,-1.68661 -1.82113,-2.75368c-1.12447,-1.68127 -2.10549,-3.41234 -2.01883,-5.45079c0,0 0.0513,-0.99868 1.04998,-0.94738c0.99868,0.0513 0.94739,1.04998 0.94739,1.04998c-0.01831,0.29116 -0.00271,0.57961 0.04121,0.86545c0.3708,0.01032 0.69853,0.22559 0.86163,0.5445l0.59252,1.09638l-0.1426,0.07706c1.18942,1.34034 2.05107,2.81851 2.78615,4.64418l0.25509,0.0563c0,0 0.63044,0.52546 0.27302,1.19546c0.095,0.1372 0.15691,0.3001 0.17308,0.47815c0.04995,0.55002 -0.35543,1.0364 -0.90545,1.08635c-0.31794,0.02887 -0.6146,-0.0944 -0.81801,-0.3098l-0.73292,-0.76296l0.0409,-0.0393l-0.2737,-0.31791l0.13383,-0.11523c-0.00341,-0.00281 -0.0068,-0.00563 -0.0102,-0.00844z" fill="#3a2f41" stroke="none" stroke-width="0.5" stroke-linecap="butt"/></g><path d="M268.72079,79.29584c-0.13257,0.4038 -0.27207,0.81825 -0.41872,1.26347l-0.29644,-0.71862c-0.01236,-0.13612 -0.0034,-0.28056 0.01731,-0.42925c-0.41436,-0.1022 -0.65221,-0.26692 -0.76877,-0.47417c-0.01976,-0.21761 -0.03953,-0.43521 -0.05929,-0.65282c0.05283,-0.24482 0.16518,-0.51004 0.2949,-0.7804l-0.38456,-0.20682c-0.00517,-0.0569 -0.01033,-0.11379 -0.0155,-0.17069c-0.18199,-0.01703 -0.36061,-0.04281 -0.51737,-0.11589l-0.08294,-0.04461l0.53655,-0.54157c-0.0053,-0.05838 -0.01061,-0.11675 -0.01591,-0.17513c0,0 -0.06784,-0.74693 0.67909,-0.81476c0.35445,-0.03219 0.55597,0.1191 0.66989,0.28697c0.51715,-0.19256 1.04058,-0.36942 1.56225,-0.54878l-0.46723,1.58522c-0.06757,0.28706 -0.13785,0.56133 -0.2109,0.82819c0.04715,0.22611 0.08482,0.46608 0.11646,0.71139c0.68003,-0.01558 0.74349,0.68319 0.74349,0.68319l-0.02751,1.08964c-0.46137,0.47762 -0.92275,0.95524 -1.38411,1.43286l-0.38941,-0.94398c-0.03801,0.11539 -0.07649,0.23286 -0.11547,0.35273l-0.90521,-1.67499c-0.00908,-0.09993 -0.01815,-0.19986 -0.02723,-0.29979c-0.10555,-0.18767 -0.11165,-0.41023 -0.05929,-0.65281c-0.02989,-0.32907 -0.05977,-0.65814 -0.08966,-0.98722l-0.53287,-0.28658c-0.0284,-0.01325 -0.05609,-0.02803 -0.08295,-0.04461c0.19494,-0.1759 0.37643,-0.32288 0.54546,-0.44344c-0.00297,-0.03271 -0.00594,-0.06542 -0.00891,-0.09812l0.27275,-0.2753c0.34867,-0.15403 0.703,-0.29457 1.06033,-0.42762c0.12614,0.18588 0.14487,0.39211 0.14487,0.39211c0.00144,0.01587 0.00288,0.03173 0.00432,0.0476l0.34382,0.06353c-0.00111,0.0807 -0.01306,0.16011 -0.03428,0.23771c0.19844,0.27339 0.33095,0.67074 0.4254,1.1237c-0.07285,0.26613 -0.14845,0.5249 -0.22685,0.78165c0.07586,-0.03308 0.1657,-0.0565 0.27204,-0.06616c0.02448,-0.00222 0.04822,-0.00357 0.07127,-0.0041c0.06056,0.46943 0.09909,0.95842 0.13986,1.40742l-0.50495,0.3292c-0.07905,-0.22652 -0.1581,-0.45302 -0.23715,-0.67954z" fill="#3a2f41" stroke="none" stroke-width="0.5" stroke-linecap="butt"/></g><g fill="#3a2f41"><g stroke-width="2"><path d="M119.24347,105.62255c-2.79886,-8.51131 -18.41221,-31.2458 -18.41221,-31.2458c0,0 10.83935,-9.42417 16.57769,-14.41332c6.19719,-5.38809 19.3349,-16.81055 19.3349,-16.81055c0,0 -1.68526,-16.71316 0.76495,-25.06249c7.91921,-26.98553 15.57742,-41.3436 15.57742,-41.3436c0,0 4.60879,30.97184 8.61257,56.70526c3.09856,19.91531 8.04405,41.60869 7.34323,55.16848c-0.69114,13.37256 -3.20792,39.12264 -3.20792,39.12264c0,0 1.0611,5.89106 2.97001,14.39749c2.97792,13.27017 10.61009,46.40611 10.61009,46.40611l-5.34308,-1.32637l-0.74724,18.6855l-9.98136,-13.18935l1.63105,19.10836c0,0 -12.02995,-16.57397 -15.88202,-25.5199c-8.03354,-18.65688 -29.84808,-80.68244 -29.84808,-80.68244z" stroke="url(#color-5)" stroke-linecap="butt"/><path d="M136.58901,39.45622l11.98056,25.24972l1.27691,23.92633l-18.35804,-12.09308l-14.95868,-18.40017z" data-paper-data="{&quot;index&quot;:null}" stroke-opacity="0.08512" stroke="#ffffff" stroke-linecap="round"/><path d="M117.57326,58.88612l13.17913,16.35797l2.62531,21.62476l-22.10741,-7.74733l-11.10267,-15.40579z" data-paper-data="{&quot;index&quot;:null}" stroke-opacity="0.08512" stroke="#ffffff" stroke-linecap="round"/><path d="M169.2582,94.1096l-55.16683,-21.75945l53.19643,-6.55036l7.6878,12.18697z" data-paper-data="{&quot;index&quot;:null}" stroke-opacity="0.07705" stroke="#ffffff" stroke-linecap="round"/></g><path d="M158.78499,83.79722l0.43073,-1.17038c0.03631,-0.10627 0.09128,-0.20819 0.16544,-0.30095c0.05434,-0.06797 0.11574,-0.12697 0.18231,-0.1768c0.08778,-0.30839 0.18411,-0.63184 0.2877,-0.95344l0.04597,-0.34107c0.02103,-0.17953 0.09097,-0.35555 0.21215,-0.50714c0.02081,-0.02603 0.04266,-0.05075 0.06543,-0.07414c0.36194,-0.93699 0.78188,-1.69671 1.22161,-1.77301c1.87201,-0.32481 2.09698,1.27746 2.12704,2.52726c0.26395,-0.68308 0.5254,-1.3427 0.77882,-1.97337l0.12494,-0.31017c0.04115,-0.17255 0.08208,-0.34435 0.12277,-0.51535l0.42943,-1.92691c0.03037,-0.15138 0.09637,-0.29796 0.19942,-0.42687c0.34486,-0.43138 0.97413,-0.50152 1.40551,-0.15666c0.26801,0.21426 0.39658,0.5383 0.37283,0.85645l-0.10372,1.68208l0.34467,1.5294l-0.34889,0.07863c0.71945,2.95505 0.64738,6.22176 0.26046,9.45234c0.34602,-0.19927 0.79309,-0.17881 1.12383,0.0856c0.28174,0.22523 0.40939,0.57178 0.36797,0.90528l-0.21311,1.97168l-0.26744,-0.02891c0.03653,2.60153 -0.45872,4.98868 -0.83916,7.80397l-0.081,0.0877l0.04863,0.0179l-0.356,0.96732c-0.03631,0.10627 -0.09128,0.20819 -0.16544,0.30095c-0.34486,0.43138 -0.97413,0.50152 -1.40551,0.15666c-0.29574,-0.23643 -0.4217,-0.60652 -0.36055,-0.95489l0.16458,-1.05154c-0.82359,1.8979 -1.82618,3.78062 -2.42555,5.26776l-0.13281,0.0846l0.04849,0.03876l-0.62443,0.78108c-0.34486,0.43138 -0.97413,0.50152 -1.40551,0.15666c-0.2895,-0.23144 -0.41631,-0.59097 -0.36416,-0.93282l0.26471,-1.96391l0.13973,0.01883c-0.01796,-0.83673 -0.00948,-1.68484 0.02218,-2.54141c-0.35178,0.38924 -0.95045,0.44185 -1.36572,0.10986c-0.2895,-0.23144 -0.41631,-0.59097 -0.36416,-0.93282l0.25718,-1.90807l0.18825,0.02537c0.04499,-0.134 0.0873,-0.26915 0.12726,-0.40529c0.02349,-1.20228 0.14585,-2.44689 0.34315,-3.71011c-0.04069,0.13771 -0.07951,0.2694 -0.11605,0.3945l-0.02164,0.02748l0.01074,0.00393l-0.36457,0.99649c-0.03631,0.10692 -0.09148,0.20947 -0.16606,0.30276c-0.09361,0.1171 -0.20819,0.20758 -0.33407,0.27037c-0.44454,1.56305 -0.87678,3.07083 -1.18967,4.46545l-1.70389,1.54013c-0.22524,-0.93042 -0.32353,-1.92222 -0.32386,-2.9534c-0.05874,0.08417 -0.11849,0.16717 -0.1793,0.24892l-0.31882,0.8663c-0.03631,0.10627 -0.09128,0.20819 -0.16544,0.30095c-0.34486,0.43138 -0.97413,0.50152 -1.40551,0.15666c-0.35136,-0.28089 -0.46307,-0.75046 -0.30607,-1.14811l0.3561,-0.96759l0.26839,0.09878c0.0027,-0.03019 0.00552,-0.06042 0.00843,-0.09069l-0.21849,-0.13744c0.09588,-0.13123 0.18932,-0.26452 0.28053,-0.39965c0.37511,-2.79911 1.57321,-5.90829 2.77621,-8.80089c-0.01832,-0.20796 -0.03903,-0.41986 -0.0632,-0.63617l-0.19621,-1.76034c-0.02835,-0.25435 0.04033,-0.51951 0.21276,-0.7352c0.34486,-0.43138 0.97413,-0.50152 1.40551,-0.15666c0.00411,0.00329 0.00819,0.0066 0.01223,0.00993c0.25118,-0.61398 0.48526,-1.20507 0.69193,-1.76665z" stroke="none" stroke-width="0.5" stroke-linecap="butt"/></g></g></g></svg>