<svg version="1.1" xmlns="http://www.w3.org/2000/svg" xmlns:xlink="http://www.w3.org/1999/xlink" width="284.26621" height="445.83641" viewBox="0,0,284.26621,445.83641"><g transform="translate(-96.01041,29.6906)"><g data-paper-data="{&quot;isPaintingLayer&quot;:true}" fill-rule="nonzero" stroke-linejoin="miter" stroke-miterlimit="10" stroke-dasharray="" stroke-dashoffset="0" style="mix-blend-mode: normal"><g stroke="#3a2f41" stroke-width="2"><path d="M216.86469,119.89664l-5.55889,-55.51495l66.52223,-6.66108l5.55888,55.51496c0,0 -13.60889,3.61847 -31.82468,5.44245c-20.53421,2.05616 -34.69755,1.2186 -34.69755,1.2186z" fill="#221629" stroke-linecap="butt"/><path d="M269.28685,30.02621l27.50707,12.98919c7.86509,29.14338 29.14785,50.96524 29.14785,50.96524l-18.54675,15.78627l-7.93549,-14.38279l2.28771,17.19588l-28.68559,3.97131l-8.89945,-65.42609z" data-paper-data="{&quot;index&quot;:null}" fill="#3a2f41" stroke-linecap="round"/><path d="M219.09659,55.29847l5.77214,66.13098l-13.22404,0.94161l-3.61786,-6.01083l-2.20072,6.42515l-17.62654,-1.15585l-0.17187,-17.34654l-5.81751,15.36207l-20.59641,-12.99908c0,0 17.97609,-24.61727 21.63245,-54.58103l25.38907,-16.75566z" fill="#3a2f41" stroke-linecap="round"/></g><path d="M262.0878,15.02757c-20.16467,-2.80578 -29.39743,-7.6369 -29.39743,-7.6369c0,0 5.33291,-23.93571 29.00739,-36.19323c1.79961,-0.93174 12.31669,8.80377 17.82798,21.21213c5.06864,11.41174 5.1018,22.76818 5.1018,22.76818c0,0 -12.26635,1.27932 -22.53975,-0.15017z" data-paper-data="{&quot;index&quot;:null}" fill="#3a2f41" stroke="#3a2f41" stroke-width="2" stroke-linecap="butt"/><path d="M198.45161,34.03633c-7.93538,6.67954 -18.99991,12.12711 -18.99991,12.12711c0,0 -6.01801,-9.63087 -7.80295,-21.98936c-1.94081,-13.43783 -0.85965,-27.45135 1.15977,-27.62071c26.56621,-2.22814 46.46212,15.36741 46.46212,15.36741c0,0 -5.24345,9.00499 -20.81903,22.1156z" data-paper-data="{&quot;index&quot;:null}" fill="#3a2f41" stroke="#3a2f41" stroke-width="2" stroke-linecap="butt"/><g data-paper-data="{&quot;index&quot;:null}" stroke-linecap="butt"><path d="M282.1479,87.87436c-6.33517,6.01202 -18.62462,10.14612 -33.68092,11.09964c-30.14611,1.90919 -42.87007,-9.12423 -43.64008,-27.1351c-0.77003,-18.01087 11.58018,-45.3355 46.49227,-45.83301c22.96538,-0.32728 36.52555,20.36295 37.29557,38.37384c0.39046,9.13288 0.05016,17.31004 -6.46683,23.49463z" fill="#7c7984" stroke="none" stroke-width="0"/><path d="M237.16203,27.74828c41.18446,-7.25604 50.75355,20.49024 51.44742,36.72009h-0.00001c0.36526,8.5433 -0.69425,16.64028 -6.30698,22.67254c-6.21992,6.68489 -17.78465,10.90488 -33.84077,11.92173c-30.14611,1.90919 -43.10994,-9.10714 -43.87994,-27.11801c-0.65359,-15.28779 8.57732,-38.3949 32.45384,-44.15052" fill="none" stroke="#3a2f41" stroke-width="2"/></g><g stroke-linecap="round"><path d="M171.79837,55.33962c0,0 5.24832,-5.13712 9.16764,-11.83903c3.97931,-6.80451 7.97038,-14.98908 13.05157,-20.70887c6.30587,-7.09833 15.12412,-17.01412 36.23981,-21.09095c12.0781,-2.33193 29.67049,0.39721 42.52226,5.58634c13.12646,5.30004 21.74535,15.37654 29.20462,25.41186c4.11388,5.53462 12.31489,8.03126 12.31489,8.03126l-7.31908,10.20324l-11.43959,-11.16535l12.17686,21.18623l-16.87768,0.31166l-6.51251,-7.90919l2.88353,8.32149c0,0 -17.67331,0.66795 -36.64973,2.53557c-17.23667,1.6964 -33.82567,4.53748 -33.82567,4.53748l-1.73783,-18.98825l-3.79174,19.75548c0,0 -5.25164,0.54436 -11.47035,2.31527c-6.95225,1.9798 -13.63646,4.46442 -13.63646,4.46442c0,0 1.82654,-9.16159 2.50799,-13.29498c0.59743,-3.62372 1.75011,-9.24137 1.75011,-9.24137l-6.85283,13.78678z" fill="#3a2f41" stroke="none" stroke-width="0"/><path d="M242.34095,1.97152c10.15187,-0.04608 21.50914,1.7101 30.43871,5.31557c13.12646,5.30005 21.74537,15.37653 29.20462,25.41185c4.11388,5.5346 12.31488,8.03127 12.31488,8.03127l-7.31908,10.20324c0,0 -7.98692,-7.62784 -9.96621,-9.55969c-0.90519,-0.88349 -1.47339,-1.60567 -1.47339,-1.60567l12.17687,21.18622l-16.87768,0.31167l-6.51252,-7.90919l2.88353,8.32149c0,0 -17.67329,0.66796 -36.64972,2.53558c-17.23667,1.6964 -33.82567,4.53749 -33.82567,4.53749l-1.73782,-18.98826l-3.79174,19.75548c0,0 -5.25163,0.54436 -11.47035,2.31527c-6.95225,1.9798 -13.63645,4.46441 -13.63645,4.46441c0,0 2.41692,-14.22757 3.11782,-17.91635c0.34361,-1.8084 0.84618,-2.94584 0.84618,-2.94584l-6.55873,12.11263l-11.70584,-12.20907c0,0 5.24832,-5.13712 9.16764,-11.83903c3.97931,-6.8045 7.97038,-14.98907 13.05157,-20.70885c5.81662,-6.54761 13.52577,-14.32624 31.25937,-18.69349" fill="none" stroke="#3a2f41" stroke-width="2"/></g><path d="M214.70724,55.95785c0,0 13.07064,-20.12732 19.5705,-16.34135" fill="none" stroke="#8c9ca0" stroke-width="1.5" stroke-linecap="round"/><g data-paper-data="{&quot;index&quot;:null}" fill="none" stroke-opacity="0.51355" stroke="#ff6666" stroke-width="1"><path d="M185.92644,61.01962c-1.17172,-7.08962 4.40678,-16.53659 12.45993,-21.10042c8.05314,-4.56383 15.53137,-2.51628 16.70308,4.57334c1.17172,7.08962 -4.40679,16.53659 -12.45994,21.10043c-8.05314,4.56382 -15.53136,2.51628 -16.70307,-4.57333z" stroke-linecap="butt"/><path d="M195.24051,60.28764l3.26852,-7.60323l5.5203,0.25861l-5.51492,-0.37615c0,0 3.82535,-9.18786 4.55471,-9.20976c0.59765,-0.01797 1.61915,15.50233 1.61915,15.50233" stroke-linecap="round"/><path d="M192.66967,50.16796l1.78398,0.06375c0,0 -0.73013,2.739 -0.49538,1.82046c0.07548,-0.29536 0.96449,-3.69511 1.07722,-4.09909c0.12548,-0.44969 -0.52091,2.10395 -0.35033,1.97046c0.38208,-0.29903 1.67527,-0.11776 1.67527,-0.11776" stroke-linecap="round"/></g><g stroke="#3a2f41" stroke-width="1" stroke-linecap="butt"><g data-paper-data="{&quot;index&quot;:null}" fill="#e1e2db"><path d="M244.88807,79.71676l-34.03367,1.43346c0,0 0.22191,-15.51973 14.87362,-17.33845c16.9739,-2.10697 19.16005,15.905 19.16005,15.905z"/></g><g data-paper-data="{&quot;index&quot;:null}" fill="#3a2f41"><path d="M233.64829,80.30339l-23.70944,1.44811c0,0 2.8747,-15.7375 13.50922,-17.39665c10.63451,-1.65913 10.20023,15.94854 10.20023,15.94854z"/></g></g><path d="M261.1113,79.38849c1.04693,-0.12216 1.92437,0.08966 1.9598,0.47309c0.03544,0.38344 -0.78454,0.7933 -1.83146,0.91544c-1.04693,0.12216 -1.92436,-0.08966 -1.95979,-0.4731c-0.03544,-0.38344 0.78453,-0.79329 1.83145,-0.91544z" fill="#3a2f41" stroke="#3a2f41" stroke-width="1.5" stroke-linecap="butt"/><path d="M246.61509,98.40068c-8.41498,0.59919 -8.42664,-14.50855 -8.42664,-14.50855l26.93365,3.547c0,0 -10.09204,10.36237 -18.50701,10.96156z" fill="#e1e2db" stroke="#3a2f41" stroke-width="1" stroke-linecap="butt"/><path d="M207.40378,279.5865c-4.69479,-1.09956 -5.41809,-4.20793 -6.78745,-4.18413c-1.89879,0.03301 -3.79852,-9.29869 -16.03308,-9.7069c-2.95068,-6.11143 -8.40363,-16.59404 -10.05947,-23.41685c-2.52361,-10.3983 -2.11375,-13.55608 -2.11375,-13.55608c0,0 13.52178,-8.60395 19.82394,-8.7135c6.30217,-0.10956 22.23381,-1.40955 22.45653,11.40218c0,0 26.53672,1.86258 33.38349,9.28468c7.77177,8.42487 36.13148,-15.81885 36.13148,-15.81885c0,0 24.94653,4.36322 29.60636,11.12886c2.57946,3.74517 33.60669,-6.18422 35.64875,1.96601c0.91157,3.63823 -14.65578,35.92075 -14.65578,35.92075c0,0 -5.3842,-4.25905 -12.65227,0.91326c-5.44075,3.87191 -12.33893,8.26058 -16.73753,4.25374c0,0 -31.92822,-18.75729 -47.27424,-18.04022c-14.10704,0.65918 -30.2416,11.63385 -42.82318,19.40152c-4.06858,2.51187 -7.9138,-0.83447 -7.9138,-0.83447z" fill="#8c9ca0" stroke="#3a2f41" stroke-width="2" stroke-linecap="butt"/><path d="M97.5,243.02423c7.25287,-23.19613 37.00334,-33.47122 49.24155,-26.25814c15.01442,8.84936 14.7733,52.21702 37.25845,51.75814c22.48515,-0.45888 39.5,-56.5 39.5,-56.5c0,0 4.63735,10.67457 4.5,17.5c-17.2976,64.63546 -66.51055,69.94453 -83.229,31.4823c-5.12431,-11.78892 -13.1981,-0.19379 -25.37137,0.94057c-9.97314,0.92934 -25.32828,-7.95737 -21.89963,-18.92287z" fill="#3a2f41" stroke="#3a2f41" stroke-width="2" stroke-linecap="butt"/><path d="M342,51.11355c0,0 85.27319,77.98893 -43,69.5" fill="none" stroke="#3a2f41" stroke-width="21" stroke-linecap="round"/><g data-paper-data="{&quot;index&quot;:null}" stroke="#3a2f41" stroke-width="2"><g><g data-paper-data="{&quot;index&quot;:null}" stroke-linecap="butt"><path d="M246.00045,193.76147c-0.83563,2.57246 2.04022,7.68613 -1.75885,11.67101c-13.42994,14.08682 -46.19729,30.66611 -53.55351,18.05955c-5.88773,-10.08996 -10.09139,-44.05357 -6.30173,-55.71987c3.78966,-11.6663 65.40375,14.32302 61.6141,25.98933z" fill="#e1e2db"/><path d="M200.61354,166.0864c18.00165,2.44179 46.80405,21.32123 46.12526,24.44125c-0.67878,3.12004 -15.07835,1.21376 -32.16236,-4.25774c-9.91338,-3.17495 -29.68113,-12.73325 -29.71956,-17.4326c-0.04753,-5.81321 11.77071,-3.29156 15.75663,-2.7509z" fill="#8c9ca0"/></g><path d="M228.06869,206.25967c-7.47655,3.49785 -26.98164,6.46214 -25.60686,-1.48846c0.5705,-3.29932 4.00848,-3.05434 17.17419,-2.56314c13.16572,0.4912 22.15848,-2.46596 22.15848,-2.46596" data-paper-data="{&quot;index&quot;:null}" fill="#b8c1c0" stroke-linecap="round"/></g><g><g stroke-linecap="butt"><path d="M254.74187,193.95855c-6.21756,-10.23266 38.49375,-51.55792 44.7113,-41.32528c6.21754,10.23265 11.58193,44.05252 9.2978,55.32675c-2.60348,12.85044 -34.84759,4.23323 -50.19423,-4.75485c-6.23454,-3.65138 -2.01868,-6.29055 -3.81487,-9.24664z" fill="#e1e2db"/><path d="M253.21676,190.75344c-1.383,-2.82515 17.75857,-28.62477 32.1684,-35.73766c3.19061,-1.57494 12.41067,-7.12925 13.89055,-1.51838c1.19634,4.53581 -12.82952,18.96923 -20.28646,24.64888c-12.85076,9.78789 -24.38952,15.43233 -25.77251,12.60718z" fill="#8c9ca0"/></g><path d="M259.40477,197.27656c0,0 9.84455,-0.79254 19.39677,-2.07268c6.4347,-0.86237 13.95966,-4.07208 15.17868,-0.97097c1.2694,3.22931 -2.23841,5.63439 -6.55915,6.32887c-5.67803,0.91264 -12.80641,-0.49155 -12.80641,-0.49155" fill="#b8c1c0" stroke-linecap="round"/></g><path d="M240.30504,197.45112c-1.15881,-9.98801 3.06759,-11.45923 8.43153,-11.97781c5.36393,-0.51859 9.83418,0.11186 10.993,10.09987c1.15881,9.98801 -2.62612,11.41655 -7.99007,11.93514c-5.36395,0.5186 -10.27566,-0.06915 -11.43448,-10.05718z" fill="#e1e2db" stroke-linecap="butt"/></g><g data-paper-data="{&quot;index&quot;:null}" stroke="#3a2f41" stroke-width="2"><g><path d="M294.15702,263.41188c0,0 4.12694,31.55581 8.34926,62.65756c4.11616,30.31976 8.33952,60.20799 7.65074,60.00911c-0.24949,-0.07203 -18.87771,-4.62072 -18.87771,-4.62072l-24.12229,-115.04594z" fill="#3a2f41" stroke-linecap="round"/><path d="M279.13521,323.61611l22.7044,-2.88003c0,0 9.00619,65.54132 8.31741,65.34244c-0.24948,-0.07204 -18.87771,-4.62073 -18.87771,-4.62073z" fill="#e1e2db" stroke-linecap="butt"/><path d="M301.76644,326.74602l-20.33333,2.66666" fill="none" stroke-linecap="round"/></g><path d="M285.09979,408.91272l-4,-48l35.33333,-3.66667l5.57881,32.64523l16.75452,25.02144z" fill="#3a2f41" stroke-linecap="butt"/></g><g stroke="#3a2f41" stroke-width="2"><g><path d="M243.76647,265.41189l-24.12229,115.04594c0,0 -18.62822,4.54869 -18.87771,4.62072c-0.68878,0.19888 3.53458,-29.68935 7.65074,-60.00911c4.22232,-31.10175 8.34926,-62.65756 8.34926,-62.65756z" fill="#3a2f41" stroke-linecap="round"/><path d="M219.64419,380.45783c0,0 -18.62822,4.54869 -18.87771,4.62073c-0.68878,0.19888 8.3174,-65.34244 8.3174,-65.34244l22.7044,2.88003z" fill="#e1e2db" stroke-linecap="butt"/><path d="M209.15703,325.74602l20.33333,2.66666" fill="none" stroke-linecap="round"/></g><path d="M172.15702,413.91272l16.75452,-25.02144l5.57881,-32.64523l35.33333,3.66667l-4,48z" fill="#3a2f41" stroke-linecap="butt"/></g><path d="" fill="#7c7984" stroke="none" stroke-width="0.5" stroke-linecap="butt"/><path d="" fill="#626171" stroke="none" stroke-width="0.5" stroke-linecap="butt"/><path d="" data-paper-data="{&quot;index&quot;:null}" fill="#e1e2db" stroke="#3a2f41" stroke-width="1" stroke-linecap="butt"/><g stroke="#3a2f41" stroke-width="2"><g data-paper-data="{&quot;index&quot;:null}"><path d="M264.11393,273.46603l-7.71623,-68.6579l31.51412,-3.91764l14.3246,67.0351c0,0 -6.14909,7.92323 -18.04221,9.16021c-13.02542,1.35474 -20.08027,-3.61977 -20.08027,-3.61977z" data-paper-data="{&quot;index&quot;:null}" fill="#e1e2db" stroke-linecap="butt"/><path d="M292.75775,229.92334l-12.32517,-1.63455l-3.30837,-24.67222" fill="none" stroke-linecap="round"/><path d="M291.90774,225.56453l-8.60012,-1.0897l-2.37502,-26.0122" fill="none" stroke-linecap="round"/></g><path d="M300.02924,256.70582c0,0 -2.86328,6.34413 -16.35599,9.99326c-11.47652,3.10384 -20.14401,-3.34269 -20.14401,-3.34269" data-paper-data="{&quot;index&quot;:null}" fill="none" stroke-linecap="round"/></g><g stroke="#3a2f41" stroke-width="2"><g data-paper-data="{&quot;index&quot;:null}"><path d="M210.15917,264.35378l17.43183,-65.30499l31.47675,7.24662l-8.00214,66.62936c0,0 -7.69525,6.83043 -20.74187,4.40318c-15.71471,-2.92363 -20.16457,-12.97417 -20.16457,-12.97417z" data-paper-data="{&quot;index&quot;:null}" fill="#e1e2db" stroke-linecap="butt"/><path d="M237.80754,205.20064l-4.33248,21.95303l-12.50034,0.32261" fill="none" stroke-linecap="round"/><path d="M234.18324,203.73245l-4.36794,19.64976l-8.224,0.0949" fill="none" stroke-linecap="round"/></g><path d="M251.42924,264.9027c0,0 -9.14242,6.44654 -21.24779,3.34269c-14.23204,-3.64913 -17.25221,-9.99325 -17.25221,-9.99325" fill="none" stroke-linecap="round"/></g><g data-paper-data="{&quot;index&quot;:null}" stroke-linecap="butt"><path d="M248.98722,228.54413v-23.07052h17.42024l1.8476,19.58817z" fill="#8c9ca0" stroke="#3a2f41" stroke-width="2"/><path d="M248.72328,225.93237v-23.07052h17.42024l1.8476,19.58818z" fill="#e1e2db" stroke="#e1e2db" stroke-width="3.5"/></g><path d="M257.10424,206.02131v9.61773l3.6,2.25096l-1.4,8.7992" fill="none" stroke="#3a2f41" stroke-width="2" stroke-linecap="round"/><path d="M266.70423,202.13328l-1.4,13.09649l-4.6,2.66023" fill="none" stroke="#3a2f41" stroke-width="2" stroke-linecap="round"/><g stroke-linecap="round"><path d="M284.10483,195.33627l62.14851,38.79176c0,0 -26.56642,-1.75596 -23.28895,39.20611c-1.22686,3.77991 -14.79743,13.11451 -18.79578,3.09148c-4.16332,-10.43662 8.06408,-23.13897 -13.08636,-22.60807c-31.52226,0.79125 5.46787,32.4219 -33.89043,34.4535c-30.32749,-5.35917 -0.47151,-35.40954 -28.11577,-34.40253c-24.40649,0.88907 -5.68664,22.48085 -14.18648,27.24349c-10.90949,6.11281 -16.42017,-2.82647 -18.08366,-9.38878c-4.25206,-55.53927 -25.30065,-43.68712 -25.30065,-43.68712l58.93719,-29.77553" fill="#e1e2db" stroke="#3a2f41" stroke-width="2"/><path d="M216.3582,252.40607c3.56499,-21.57076 18.5254,-35.71087 18.5254,-35.71087" fill="none" stroke="#8c9ca0" stroke-width="1"/><path d="M280.26652,210.67206c0,0 17.87165,16.98901 25.06577,41.25243" data-paper-data="{&quot;index&quot;:null}" fill="none" stroke="#8c9ca0" stroke-width="1"/></g><g data-paper-data="{&quot;index&quot;:null}" stroke="#8c9ca0" stroke-width="2" stroke-linecap="round"><path d="M247.38586,122.23354c0,0 16.87226,-10.23918 19.55887,-10.61322c16.79423,-2.33817 41.96955,-8.72046 41.96955,-8.72046c0,0 9.23538,6.07774 10.12568,17.37061c1.39055,17.63816 -7.84969,21.73618 -7.84969,21.73618l-35.38626,1.41565" fill="#3a2f41"/><path d="M300.67548,104.87226c0,0 7.85141,4.5591 8.79341,16.76925c1.04889,13.5957 -6.97642,20.72411 -6.97642,20.72411" fill="none"/></g><g><g><g stroke="none" stroke-linecap="butt"><g fill="none" stroke-width="1" font-family="sans-serif" font-weight="normal" font-size="12" text-anchor="start"><g><g/></g></g><g><g><g fill="none" stroke-width="1" font-family="sans-serif" font-weight="normal" font-size="12" text-anchor="start"/><path d="M223.7895,130.89966c0.02838,0.39864 -3.34514,4.0827 -2.39257,1.7394c0.87952,-2.16363 5.30049,-9.9458 5.30049,-9.9458c0,0 -2.66688,2.87245 -5.44521,6.49578c-0.45439,0.59258 6.57603,-11.44411 8.57497,-11.58645c1.99895,-0.14234 -6.09228,12.53043 -6.03769,13.29711z" fill="#ffffff" stroke-width="0"/></g></g></g><g fill="none" stroke="none" stroke-width="1" stroke-linecap="butt" font-family="sans-serif" font-weight="normal" font-size="12" text-anchor="start"><g><g><g/></g></g><g><g><g/></g></g></g><path d="M279.1805,165.89308c0.14716,6.77335 0.12958,9.05855 0.12958,9.05855c0,0 6.24405,12.80173 8.06776,22.09501c0,0 -12.59507,14.09486 -23.35986,14.77014c-10.76479,0.67528 -40.31934,-10.77551 -40.31934,-10.77551c0,0 1.16165,-8.52171 1.7624,-12.36897c0.8956,-5.73551 3.11409,-13.30009 3.11409,-13.30009l-1.72805,-10.70192c0,0 -12.54968,-28.7226 -9.01884,-42.71741c1.17679,-4.6643 17.95222,-11.89732 26.84517,-12.48724c9.75678,-0.6472 20.0816,-0.57332 28.52978,7.97479c0.31591,0.31965 0.62119,0.64006 0.91619,0.96129" fill="#3a2f41" stroke="#8c9ca0" stroke-width="2" stroke-linecap="round"/><g fill="none" stroke="none" stroke-width="1" stroke-linecap="butt" font-family="sans-serif" font-weight="normal" font-size="12" text-anchor="start"><g/></g></g><path d="M261.02338,133.094c0.16671,2.34128 -1.65195,4.37838 -4.06209,4.55c-2.41015,0.17162 -4.4991,-1.58725 -4.66581,-3.92853c-0.16671,-2.34128 1.65194,-4.37839 4.06209,-4.55c2.41015,-0.17162 4.4991,1.58725 4.66581,3.92853z" fill="#8c9ca0" stroke="#3a2f41" stroke-width="1.5" stroke-linecap="butt"/><path d="M264.31048,144.71896c0.16671,2.34128 -1.65195,4.37838 -4.06209,4.55c-2.41015,0.17162 -4.4991,-1.58725 -4.66581,-3.92853c-0.16671,-2.34128 1.65195,-4.37839 4.06209,-4.55c2.41015,-0.17162 4.4991,1.58725 4.66581,3.92854z" fill="#8c9ca0" stroke="#3a2f41" stroke-width="1.5" stroke-linecap="butt"/><g><path d="M261.97539,124.876l-10.53082,-8.23819c0,0 6.49273,-7.14379 9.34277,-9.59542c0.62409,-0.53685 0.91864,-0.15744 1.1005,-0.10181c0.46054,0.33906 3.51353,4.84362 3.07039,5.19028z" data-paper-data="{&quot;index&quot;:null}" fill="#8c9ca0" stroke="#3a2f41" stroke-width="4.5" stroke-linecap="round"/><path d="M243.67341,126.27596c0,0 -10.22373,-8.96 -11.29945,-11.81175c-0.03876,-1.43951 1.55097,-7.75922 2.60617,-6.05966c0.9975,0.43366 16.5419,-4.19338 20.68745,-2.08615c3.48425,1.77107 -4.24796,10.36419 -4.24796,10.36419z" fill="#3a2f41" stroke="#3a2f41" stroke-width="4.5" stroke-linecap="round"/><path d="M234.32151,113.85887c-0.06308,-1.38631 -0.06916,-4.79523 0.4484,-5.10906c0.92639,-1.02681 10.2477,-6.2931 12.58586,-6.84498c1.47923,-0.34914 12.65919,4.4642 13.27936,5.0384c1.03314,0.43371 2.358,4.3633 2.39334,4.85956" fill="none" stroke="#3a2f41" stroke-width="6.5" stroke-linecap="butt"/><g><path d="M261.97539,124.876l-10.53082,-8.23819c0,0 6.49274,-7.14379 9.34277,-9.59542c0.62409,-0.53685 0.91864,-0.15744 1.1005,-0.10181c0.46054,0.33906 3.51353,4.84362 3.07039,5.19028z" data-paper-data="{&quot;index&quot;:null}" fill="#8c9ca0" stroke="#12161a" stroke-width="0" stroke-linecap="round"/><path d="M243.67342,126.27596c0,0 -10.22373,-8.96001 -11.29946,-11.81175c-0.03876,-1.43951 1.55097,-7.75921 2.60617,-6.05967c1.83587,0.79814 16.43948,8.27804 16.43948,8.27804z" fill="#8c9ca0" stroke="#12161a" stroke-width="0" stroke-linecap="round"/><path d="M234.32151,113.85886c-0.06308,-1.38631 -0.06916,-4.79523 0.44839,-5.10906c0.92639,-1.02681 10.2477,-6.29309 12.58586,-6.84498c1.47923,-0.34914 12.6592,4.4642 13.27937,5.0384c1.03314,0.43371 2.358,4.3633 2.39334,4.85956" fill="none" stroke="#8c9ca0" stroke-width="2" stroke-linecap="butt"/></g></g><g><g fill="none" stroke="none" stroke-width="1" stroke-linecap="butt" font-family="sans-serif" font-weight="normal" font-size="12" text-anchor="start"><g><g/></g></g><g fill="#3a2f41" stroke="#8c9ca0" stroke-width="2" stroke-linecap="round"><g><g><path d="M274.23638,118.28987c14.05978,11.789 17.19352,26.88433 17.19352,26.88433c0,0 -2.89703,9.37335 -12.90561,21.69629"/></g></g></g></g></g><g data-paper-data="{&quot;index&quot;:null}" stroke-linecap="round"><path d="M345.50793,37.05748c0,0 -0.01111,-1.80297 -0.1076,-2.67063c-0.08213,-0.73867 -0.43521,-2.21088 -0.43521,-2.21088c0,0 4.06376,0.64321 5.58409,2.95937c3.80052,5.79001 3.03946,20.74284 -2.63673,25.20637c-5.28441,4.15543 -9.90956,5.04677 -13.50024,4.49202c-2.53041,-0.39096 -4.54705,-1.50009 -5.91863,-2.69113c-2.14164,-1.85974 -1.90769,-4.31838 -1.90769,-4.31838c0,0 1.22095,-0.02102 1.80059,-0.14095c0.60775,-0.12574 1.71117,-0.4407 1.71117,-0.4407c0,0 -4.71064,0.71174 -10.50839,-2.53384c-4.82278,-2.6998 -5.18283,-7.8939 -15.99662,-11.37256c-4.68078,-1.50574 -10.11969,-1.73988 -12.83101,-1.61847c-4.48645,0.20091 -7.53376,-6.93852 0.64257,-8.33875c8.17633,-1.40022 14.64896,2.72957 17.88332,4.26111c1.97235,0.93397 4.90529,-0.76217 4.90529,-0.76217c0,0 0.6442,0.87294 1.25169,1.87382c0.5271,0.86845 1.00059,1.84577 1.32363,2.27694c0.78451,1.04701 2.1004,2.23876 2.1004,2.23876c0,0 -0.82742,-1.33618 -2.03349,-3.37449c-1.20109,-2.02993 -2.77471,-4.75659 -5.73549,-7.36493c-4.68341,-4.12592 -9.71878,-7.4443 -14.93307,-10.65524c-4.54665,-2.79982 -8.6621,-6.78431 -9.37432,-7.74838c-6.56925,-8.89211 -0.56463,-11.21013 -0.56463,-11.21013c0,0 1.65532,6.33253 10.37103,15.13195c1.45618,1.47015 3.63975,3.66413 6.33312,5.38793c2.58414,1.65392 5.65886,2.83378 8.0214,4.44172c4.41839,3.00713 7.13132,5.76852 7.13132,5.76852c0,0 -2.47284,-3.22433 -6.6888,-6.52742c-2.53724,-1.98783 -5.2589,-3.02494 -8.18135,-5.2337c-4.31869,-3.26402 -8.61704,-7.77088 -10.63308,-10.50737c-1.87318,-2.54256 -6.41472,-11.24446 -5.5301,-16.49373c0.38207,-2.26719 1.591,-4.22331 4.70222,-4.17579c0.8496,0.01297 1.61236,1.1927 2.18252,1.96516c1.47623,2 2.20317,5.45324 3.83256,9.96786c1.55523,4.30906 4.55857,9.11868 6.6871,11.79439c3.33905,4.19746 7.76012,7.83137 11.48464,10.49151c4.125,2.94615 7.39557,4.69786 7.39557,4.69786c0,0 -8.69583,-5.48122 -16.00498,-14.24768c-3.56734,-4.27858 -6.56062,-9.31135 -8.10874,-13.72846c-1.9137,-5.46015 -1.34064,-12.22167 4.38457,-11.08891c3.8353,0.75883 8.17732,17.00816 14.96128,24.32831c8.59785,9.27739 18.11218,8.50643 22.04211,12.86913c3.11837,3.46173 4.89802,9.30193 4.89802,9.30193z" fill="none" stroke="#3a2f41" stroke-width="4.5"/><path d="M345.50793,37.05748c0,0 -0.01111,-1.80297 -0.1076,-2.67063c-0.08213,-0.73867 -0.43521,-2.21088 -0.43521,-2.21088c0,0 4.06376,0.64321 5.58409,2.95937c3.80052,5.79001 3.03946,20.74284 -2.63673,25.20637c-5.28441,4.15543 -9.90956,5.04677 -13.50024,4.49202c-2.53041,-0.39096 -4.54705,-1.50009 -5.91863,-2.69113c-2.14164,-1.85974 -1.90769,-4.31838 -1.90769,-4.31838c0,0 1.22095,-0.02102 1.80059,-0.14095c0.60775,-0.12574 1.71117,-0.4407 1.71117,-0.4407c0,0 -4.71064,0.71174 -10.50839,-2.53384c-4.82278,-2.6998 -5.18283,-7.8939 -15.99662,-11.37256c-4.68078,-1.50574 -10.11969,-1.73988 -12.83101,-1.61847c-4.48645,0.20091 -7.53376,-6.93852 0.64257,-8.33875c8.17633,-1.40022 14.64896,2.72957 17.88332,4.26111c1.97235,0.93397 4.90529,-0.76217 4.90529,-0.76217c0,0 0.6442,0.87294 1.25169,1.87382c0.5271,0.86845 1.00059,1.84577 1.32363,2.27694c0.78451,1.04701 2.1004,2.23876 2.1004,2.23876c0,0 -0.82742,-1.33618 -2.03349,-3.37449c-1.20109,-2.02993 -2.77471,-4.75659 -5.73549,-7.36493c-4.68341,-4.12592 -9.71878,-7.4443 -14.93307,-10.65524c-4.54665,-2.79982 -8.6621,-6.78431 -9.37432,-7.74838c-6.56925,-8.89211 -0.56463,-11.21013 -0.56463,-11.21013c0,0 1.65532,6.33253 10.37103,15.13195c1.45618,1.47015 3.63975,3.66413 6.33312,5.38793c2.58414,1.65392 5.65886,2.83378 8.0214,4.44172c4.41839,3.00713 7.13132,5.76852 7.13132,5.76852c0,0 -2.47284,-3.22433 -6.6888,-6.52742c-2.53724,-1.98783 -5.2589,-3.02494 -8.18135,-5.2337c-4.31869,-3.26402 -8.61704,-7.77088 -10.63308,-10.50737c-1.87318,-2.54256 -6.41472,-11.24446 -5.5301,-16.49373c0.38207,-2.26719 1.591,-4.22331 4.70222,-4.17579c0.8496,0.01297 1.61236,1.1927 2.18252,1.96516c1.47623,2 2.20317,5.45324 3.83256,9.96786c1.55523,4.30906 4.55857,9.11868 6.6871,11.79439c3.33905,4.19746 7.76012,7.83137 11.48464,10.49151c4.125,2.94615 7.39557,4.69786 7.39557,4.69786c0,0 -8.69583,-5.48122 -16.00498,-14.24768c-3.56734,-4.27858 -6.56062,-9.31135 -8.10874,-13.72846c-1.9137,-5.46015 -1.34064,-12.22167 4.38457,-11.08891c3.8353,0.75883 8.17732,17.00816 14.96128,24.32831c8.59785,9.27739 18.11218,8.50643 22.04211,12.86913c3.11837,3.46173 4.89802,9.30193 4.89802,9.30193z" fill="#e1e2db" stroke="none" stroke-width="0"/><path d="M289.7972,9.86001c0,0 -1.10613,-0.96407 -2.17273,-2.27525c-0.77558,-0.95343 -1.50302,-2.28722 -1.90177,-2.60766c-0.97446,-0.78307 -1.69251,0.24851 -1.69251,0.24851c0.67205,-1.72256 2.19735,-2.3114 2.19735,-2.3114c0,0 0.69728,2.66754 3.56965,6.94578z" fill="#8c9ca0" stroke="none" stroke-width="0"/><path d="M318.86855,43.26744c0,0 -2.90075,-1.39722 -4.38736,-1.6101c-1.60467,-0.22981 -2.76408,1.10747 -5.11381,-0.40441c-3.82369,-2.46027 -8.60012,-4.81442 -11.35492,-5.27475c-11.48262,-1.91871 -11.31462,3.30028 -11.31462,3.30028c-1.06628,-2.14775 -0.20395,-5.05856 4.70638,-5.89947c8.17633,-1.40022 14.64896,2.72954 17.88329,4.26109c1.97235,0.93397 4.90529,-0.76217 4.90529,-0.76217c0,0 0.64421,0.87294 1.25171,1.87383c0.5271,0.86845 1.00058,1.84576 1.32365,2.27693c0.78451,1.04701 2.10039,2.23878 2.10039,2.23878z" fill="#8c9ca0" stroke="none" stroke-width="0"/><path d="M342.25602,63.73931c0,0 8.87694,-4.25297 8.07642,-12.07849c-0.60333,-5.89776 -6.30173,-2.3145 -6.30173,-2.3145c0,0 0.09412,-11.02968 -5.90786,-17.85453c-3.00921,-3.42175 -7.89865,-3.1505 -12.40445,-6.24774c-5.69088,-3.91187 -10.28443,-9.368 -13.52662,-14.13094c-4.53445,-6.66132 -6.34744,-15.80502 -8.39577,-18.32249c-2.01561,-2.47726 -4.57232,-0.69998 -4.57232,-0.69998c0.84161,-1.28538 2.2571,-1.95312 4.38287,-1.53253c3.83531,0.75885 8.1773,17.00816 14.96128,24.32831c8.59785,9.2774 18.11217,8.50643 22.04211,12.86913c3.11837,3.46173 4.89801,9.3019 4.89801,9.3019c0,0 -0.01111,-1.80297 -0.10761,-2.67063c-0.08215,-0.73867 -0.43521,-2.21087 -0.43521,-2.21087c0,0 4.06376,0.64321 5.58408,2.95937c3.80052,5.79001 3.03946,20.74284 -2.63673,25.20637c-1.98515,1.56105 -3.87728,2.66144 -5.65647,3.39758z" fill="#8c9ca0" stroke="none" stroke-width="0"/><path d="M302.0526,11.03733c0,0 -1.77662,-1.32705 -3.90203,-4.8788c-1.68902,-2.8225 -3.66583,-7.78315 -4.66369,-9.3557c-3.68483,-5.80691 -5.54595,-4.33352 -5.54595,-4.33352c0.72642,-1.07651 1.91604,-1.79192 3.81237,-1.76293c0.84961,0.01297 1.61237,1.19268 2.18254,1.96514c1.47623,2 2.20317,5.45326 3.83256,9.96785c1.02228,2.83244 2.67029,5.88118 4.2842,8.39796z" fill="#8c9ca0" stroke="none" stroke-width="0"/><path d="M325.4277,36.13245c0,0 2.33694,5.62936 2.81487,6.78066c0.16332,0.3934 0.32869,0.79175 0.32869,0.79175c0,0 -1.0601,-0.7198 -2.10992,-2.03589c-0.75324,-0.9443 -1.60642,-2.26692 -2.15199,-2.76478c-1.15675,-1.05564 -3.18051,-1.99115 -3.18051,-1.99115c0,0 1.52803,-0.06918 2.28732,-1.20934c0.62455,-0.93786 0.90831,-3.19439 0.90831,-3.19439l1.10321,3.62317z" fill="#8c9ca0" stroke="none" stroke-width="0"/><path d="M333.22211,46.00152c0,0 -2.6394,0.32748 -5.03533,-2.8901c-2.38179,-3.19859 -2.68184,-6.88644 -2.68184,-6.88644c0,0 1.44197,4.17884 3.74068,6.66325c1.72827,1.86789 3.97647,3.11329 3.97647,3.11329z" fill="#3a2f41" stroke="none" stroke-width="0"/><path d="M345.57178,45.48319c0,0 -0.20897,4.2157 -2.1331,7.13726c-1.92413,2.92156 -6.71011,5.19454 -6.71011,5.19454c0,0 3.12446,-1.68599 5.66383,-5.4148c2.2162,-3.25425 3.17937,-6.91699 3.17937,-6.91699z" fill="#3a2f41" stroke="none" stroke-width="0"/></g><g><path d="M190.00197,186.31325c0,0 0.04717,-4.62165 1.17371,-5.21521c1.84569,-0.97247 6.6926,-4.809 11.17981,-8.13718c0.76603,-0.56817 3.36128,1.12561 6.21067,2.59884c3.61767,1.87046 7.76998,3.93025 7.76998,3.93025l-4.42728,2.4466c0,0 -3.67986,-1.10948 -6.08521,-0.95043c-0.48878,0.03233 3.64091,0.9839 6.30895,2.3409c0.35241,0.17923 8.74594,-4.92682 8.74594,-4.92682c0,0 3.75729,-0.23628 6.40463,0.08686c2.4813,0.30288 -6.75237,-1.55652 -6.75237,-1.55652l-2.70827,1.55144l-8.42309,-4.2218c0,0 0.5497,-1.95578 0.90657,-2.4548c0.54215,-0.75811 7.19647,-2.58077 11.10336,-3.89398c5.34703,-1.79727 11.28582,5.27418 17.14064,10.5265c3.45226,3.09699 1.55491,8.35581 -2.45354,12.08492c-3.40756,3.1701 -7.34344,5.10617 -7.34344,5.10617c0,0 6.17788,-2.31991 8.44787,-4.52165c0.81407,-0.7896 3.1293,5.68335 2.48512,7.76888c-1.23764,4.00688 -5.32677,7.9742 -5.32677,7.9742l-7.60463,3.4368l6.5577,-2.22076c0,0 -0.2384,4.77796 -1.49823,5.78201c-1.72278,1.5039 -6.07783,4.28523 -8.80108,5.01428c-8.1961,2.19417 -16.87685,-0.25071 -16.87685,-0.25071c0,0 0.957,-2.25029 1.37899,-3.67915c0.55872,-1.89183 1.67975,-6.67791 1.67975,-6.67791c0,0 -5.18349,13.46183 -8.15902,14.5038c-5.2204,1.82809 -15.64845,3.63708 -19.08728,1.33508c-8.25381,-5.52519 -8.26162,-23.70649 -1.71341,-29.94005c1.82186,-1.73432 5.36297,-6.43584 8.63709,-6.02482c3.45485,0.43371 10.08599,0.70131 13.60851,2.39548c1.76619,0.84945 4.97555,9.11833 4.97555,9.11833c0,0 -2.23769,-8.81627 -4.47856,-10.19425c-3.97563,-2.44472 -12.97582,-3.13525 -12.97582,-3.13525z" fill="none" stroke="#3a2f41" stroke-width="4.5" stroke-linecap="round"/><path d="M190.00197,186.31324c0,0 0.04717,-4.62165 1.17371,-5.21521c1.84569,-0.97247 6.69261,-4.809 11.17981,-8.13718c0.76603,-0.56817 3.36127,1.1256 6.21067,2.59883c3.61767,1.87046 7.76998,3.93025 7.76998,3.93025l-4.42728,2.4466c0,0 -3.67986,-1.10948 -6.08521,-0.95043c-0.48878,0.03233 3.64091,0.9839 6.30895,2.3409c0.35241,0.17923 8.74594,-4.92682 8.74594,-4.92682c0,0 3.75729,-0.23628 6.40463,0.08686c2.4813,0.30288 -6.75238,-1.55652 -6.75238,-1.55652l-2.70827,1.55144l-8.42309,-4.2218c0,0 0.5497,-1.95578 0.90657,-2.4548c0.54215,-0.75811 7.19647,-2.58077 11.10336,-3.89398c5.34703,-1.79727 11.28581,5.27419 17.14064,10.5265c3.45226,3.09699 1.55491,8.35581 -2.45354,12.08492c-3.40756,3.1701 -7.34344,5.10617 -7.34344,5.10617c0,0 6.17788,-2.3199 8.44787,-4.52165c0.81407,-0.7896 3.1293,5.68335 2.48512,7.76888c-1.23764,4.00688 -5.32677,7.97421 -5.32677,7.97421l-7.60463,3.4368l6.5577,-2.22077c0,0 -0.23841,4.77796 -1.49823,5.78201c-1.72278,1.5039 -6.07783,4.28523 -8.80107,5.01427c-8.1961,2.19417 -16.87685,-0.25072 -16.87685,-0.25072c0,0 0.95701,-2.25029 1.379,-3.67915c0.55872,-1.89183 1.67975,-6.67792 1.67975,-6.67792c0,0 -5.18349,13.46183 -8.15902,14.5038c-5.2204,1.82809 -15.64845,3.63708 -19.08728,1.33508c-8.25381,-5.52519 -8.26162,-23.70649 -1.71341,-29.94005c1.82186,-1.73432 5.36297,-6.43584 8.63709,-6.02482c3.45485,0.43371 10.08599,0.70131 13.60851,2.39548c1.76619,0.84945 4.97555,9.11833 4.97555,9.11833c0,0 -2.23769,-8.81627 -4.47856,-10.19425c-3.97563,-2.44472 -12.97582,-3.13525 -12.97582,-3.13525z" fill="#e1e2db" stroke="none" stroke-width="0" stroke-linecap="round"/><path d="M235.23398,192.55699c0.7738,-0.47148 1.46564,-0.96344 1.96693,-1.44965c0.81407,-0.7896 3.12931,5.68334 2.48513,7.76887c-1.23764,4.00688 -5.32677,7.97421 -5.32677,7.97421l-7.60463,3.4368l6.5577,-2.22076c0,0 -0.2384,4.77796 -1.49823,5.78201c-1.72278,1.5039 -6.07783,4.28523 -8.80108,5.01428c-8.1961,2.19417 -16.87685,-0.25072 -16.87685,-0.25072c0,0 0.95701,-2.25029 1.379,-3.67915c0.55872,-1.89183 1.67974,-6.67792 1.67974,-6.67792c0,0 -0.00877,-2.87433 -0.38322,-4.46531c-0.43286,-1.83914 -2.06417,-5.93337 -2.06417,-5.93337c0,0 2.70225,3.38552 3.38156,5.77589c0.67931,2.39037 0.0575,7.2767 0.0575,7.2767c0,0 5.91329,0.67299 10.62166,-0.6609c4.63653,-1.31355 8.04551,-4.60814 11.06323,-7.93013c1.83804,-2.02337 4.88849,-9.22687 4.88849,-9.22687z" fill="#8c9ca0" stroke="none" stroke-width="0" stroke-linecap="round"/><path d="M213.12522,204.48962c0.0147,-0.38889 1.72094,0.21232 4.23106,0.30728c2.51012,0.09497 4.85539,-0.06638 4.84068,0.32251c-0.0147,0.38889 -2.38383,1.18076 -4.89395,1.0858c-2.51012,-0.09496 -4.1925,-1.3267 -4.17779,-1.71559z" data-paper-data="{&quot;index&quot;:null}" fill="#3a2f41" stroke="none" stroke-width="0" stroke-linecap="butt"/><path d="M214.19013,196.86929c-0.08826,-0.37903 1.71609,-0.24852 4.16256,-0.81816c2.44648,-0.56964 4.6664,-1.3431 4.75466,-0.96408c0.08826,0.37903 -1.98857,1.76703 -4.43506,2.33667c-2.44648,0.56964 -4.3939,-0.1754 -4.48216,-0.55443z" data-paper-data="{&quot;index&quot;:null}" fill="#3a2f41" stroke="none" stroke-width="0" stroke-linecap="butt"/><path d="M213.18538,211.13197c0.07554,-0.28713 1.37861,0.34233 3.42449,0.68222c2.04587,0.3399 3.99819,0.47182 3.92265,0.75894c-0.07554,0.28713 -2.15036,0.62071 -4.19623,0.28083c-2.04587,-0.33989 -3.22644,-1.43486 -3.15089,-1.72199z" data-paper-data="{&quot;index&quot;:null}" fill="#3a2f41" stroke="none" stroke-width="0" stroke-linecap="butt"/><path d="M227.28317,178.48705c2.4813,0.30288 -6.75238,-1.55652 -6.75238,-1.55652l-2.70827,1.55144l-3.93443,-1.972l0.83109,-1.92258l4.22267,1.63688l1.91654,-0.50665z" fill="#8c9ca0" stroke="none" stroke-width="0" stroke-linecap="round"/><path d="M239.20701,179.13069c2.51446,3.14503 0.61261,7.92843 -3.11054,11.39212c-3.40756,3.1701 -7.34344,5.10616 -7.34344,5.10616l-7.78844,3.40291c0,0 10.31324,-5.79162 14.38927,-11.00001c4.51152,-5.76486 3.85315,-8.90118 3.85315,-8.90118z" fill="#8c9ca0" stroke="none" stroke-width="0" stroke-linecap="round"/><path d="M207.09896,213.24068c-1.77513,3.94909 -4.30466,8.9023 -6.06307,9.51806c-5.2204,1.82809 -15.64845,3.63708 -19.08728,1.33508c-8.25381,-5.52519 -8.26162,-23.7065 -1.7134,-29.94006c1.82186,-1.73432 5.36297,-6.43584 8.63709,-6.02482c2.36634,0.29706 6.22282,0.5162 9.54987,1.16918c0,0 6.38901,9.89897 2.52338,23.03996c-0.26624,0.90507 3.84036,3.93819 3.84036,3.93819z" fill="#8c9ca0" stroke="none" stroke-width="0" stroke-linecap="round"/><path d="M196.72018,183.06999c0.32008,2.92905 4.71118,5.60438 4.71118,5.60438c-4.37681,-1.82003 -11.42939,-2.36112 -11.42939,-2.36112v-0.00001c0,0 0.04717,-4.62165 1.17371,-5.21521c1.38347,-0.72893 4.4532,-3.06705 7.79371,-5.59406c0,0 -2.66862,3.72805 -2.24921,7.56602z" fill="#8c9ca0" stroke="none" stroke-width="0" stroke-linecap="round"/><path d="M231.76702,212.60301c-0.85321,0.68675 -4.42517,-1.17191 -4.58021,-1.41759c-0.10792,-0.17098 4.83175,-1.87567 5.35093,-2.08119c0.40464,-0.16019 -0.45649,3.24585 -0.77072,3.49878z" fill="#e1e2db" stroke="none" stroke-width="0" stroke-linecap="butt"/></g><path d="M185.17371,207.33195c0,0 -19.25528,7.6929 -26.90619,-4.12652c-5.58112,-8.62193 -3.86186,-27.50196 33.58942,-58.26112" data-paper-data="{&quot;index&quot;:null}" fill="none" stroke="#3a2f41" stroke-width="21" stroke-linecap="round"/><g data-paper-data="{&quot;index&quot;:null}" stroke="#8c9ca0" stroke-width="2" stroke-linecap="round"><path d="M220.36547,141.81421l-24.93527,21.56413c0,0 -11.97781,0.67061 -19.52244,-12.36743c-5.82063,-10.05876 -2.64203,-19.93207 -2.64203,-19.93207c0,0 23.80607,-10.38273 38.51076,-18.8258c2.35234,-1.35066 18.29345,1.06904 18.29345,1.06904" fill="#3a2f41"/><path d="M201.36814,158.2894c0,0 -9.60227,-0.21554 -17.31998,-11.85552c-6.39835,-9.6501 -3.32639,-18.64046 -3.32639,-18.64046" fill="none"/></g><text transform="translate(329,170.02422) scale(0.5,0.5)" font-size="40" xml:space="preserve" fill="#3a2f41" fill-rule="nonzero" stroke="none" stroke-width="1" stroke-linecap="butt" stroke-linejoin="miter" stroke-miterlimit="10" stroke-dasharray="" stroke-dashoffset="0" font-family="Handwriting" font-weight="normal" text-anchor="start" style="mix-blend-mode: normal"><tspan x="0" dy="0">Kitty</tspan></text><g stroke="#3a2f41" stroke-width="1" stroke-linecap="butt"><g data-paper-data="{&quot;index&quot;:null}" fill="#e1e2db"><path d="M286.00058,76.73218l-28.08064,1.93292c0,0 -0.22779,-15.5128 11.82927,-17.54575c13.96802,-2.35516 16.25136,15.61283 16.25136,15.61283z"/></g><g data-paper-data="{&quot;index&quot;:null}" fill="#3a2f41"><path d="M276.72982,77.48367l-19.55038,1.79577c0,0 1.95817,-15.76943 10.70046,-17.58385c8.74229,-1.81441 8.84992,15.78808 8.84992,15.78808z"/></g></g></g></g></svg>