<svg version="1.1" xmlns="http://www.w3.org/2000/svg" xmlns:xlink="http://www.w3.org/1999/xlink" width="236.62565" height="225.97784" viewBox="0,0,236.62565,225.97784"><defs><linearGradient x1="1077.66314" y1="216.06023" x2="1077.66314" y2="354.07603" gradientUnits="userSpaceOnUse" id="color-1"><stop offset="0" stop-color="#ffffff" stop-opacity="0.26046"/><stop offset="1" stop-color="#ffffff" stop-opacity="0"/></linearGradient><linearGradient x1="1077.66314" y1="216.06023" x2="1077.66314" y2="354.07603" gradientUnits="userSpaceOnUse" id="color-2"><stop offset="0" stop-color="#ffffff" stop-opacity="0.26046"/><stop offset="1" stop-color="#ffffff" stop-opacity="0"/></linearGradient><linearGradient x1="1077.66314" y1="216.06023" x2="1077.66314" y2="354.07603" gradientUnits="userSpaceOnUse" id="color-3"><stop offset="0" stop-color="#ffffff" stop-opacity="0.26046"/><stop offset="1" stop-color="#ffffff" stop-opacity="0"/></linearGradient><linearGradient x1="1036.02754" y1="220.12051" x2="1036.02754" y2="358.13629" gradientUnits="userSpaceOnUse" id="color-4"><stop offset="0" stop-color="#ffffff" stop-opacity="0.26046"/><stop offset="1" stop-color="#ffffff" stop-opacity="0"/></linearGradient><linearGradient x1="1036.02754" y1="220.12051" x2="1036.02754" y2="358.13629" gradientUnits="userSpaceOnUse" id="color-5"><stop offset="0" stop-color="#ffffff" stop-opacity="0.26046"/><stop offset="1" stop-color="#ffffff" stop-opacity="0"/></linearGradient><linearGradient x1="1036.02754" y1="220.12051" x2="1036.02754" y2="358.13629" gradientUnits="userSpaceOnUse" id="color-6"><stop offset="0" stop-color="#ffffff" stop-opacity="0.26046"/><stop offset="1" stop-color="#ffffff" stop-opacity="0"/></linearGradient><linearGradient x1="224.79776" y1="104.21289" x2="233.40574" y2="183.93801" gradientUnits="userSpaceOnUse" id="color-7"><stop offset="0" stop-color="#cedee0" stop-opacity="0"/><stop offset="1" stop-color="#cedee0" stop-opacity="0.19676"/></linearGradient></defs><g transform="translate(-159.93538,-59.83354)"><g data-paper-data="{&quot;isPaintingLayer&quot;:true}" fill-rule="nonzero" stroke-linejoin="miter" stroke-miterlimit="10" stroke-dasharray="" stroke-dashoffset="0" style="mix-blend-mode: normal"><path d="" fill="#3a2f41" stroke="none" stroke-width="0" stroke-linecap="butt"/><path d="" fill="#3a2f41" stroke="url(#color-1)" stroke-width="0.5" stroke-linecap="butt"/><path d="" fill="#3a2f41" stroke="url(#color-2)" stroke-width="0.5" stroke-linecap="butt"/><path d="" fill="#3a2f41" stroke="url(#color-3)" stroke-width="0.5" stroke-linecap="butt"/><path d="" data-paper-data="{&quot;index&quot;:null}" fill="#3a2f41" stroke="url(#color-4)" stroke-width="0.5" stroke-linecap="butt"/><path d="" data-paper-data="{&quot;index&quot;:null}" fill="#3a2f41" stroke="url(#color-5)" stroke-width="0.5" stroke-linecap="butt"/><path d="" data-paper-data="{&quot;index&quot;:null}" fill="#3a2f41" stroke="url(#color-6)" stroke-width="0.5" stroke-linecap="butt"/><g><path d="M218.09763,247.82666l47.9852,-2.09294c0,0 5.61223,11.79348 9.19186,19.17442c1.07137,2.20912 1.96066,4.02295 2.46291,5.00703c0.90062,2.99478 2.04328,7.18567 3.32447,12.10026c-24.41087,0.83728 -48.81596,1.80574 -72.90716,2.72114c4.61791,-18.2784 9.94275,-36.9099 9.94275,-36.9099z" fill="#e1e2db" stroke="none" stroke-width="0" stroke-linecap="round"/><path d="M206.83291,273.23367c2.80412,-14.40306 14.4448,-30.34144 14.4448,-30.34144l42.79328,-2.12839c0,0 5.99306,10.66688 7.93406,14.78445c1.34584,2.85501 2.59504,7.5515 2.59504,7.5515l-24.73305,19.64706c-15.00107,0.56409 -29.95011,1.14815 -44.77509,1.70914c0.66056,-4.76854 1.27279,-8.81757 1.74096,-11.22231z" fill="#8c9ca0" stroke="none" stroke-width="0" stroke-linecap="butt"/><path d="M206.18353,284.81138c0.70661,-4.68317 1.42044,-8.96335 2.1248,-12.58128c2.52115,-12.95 12.99259,-28.92595 12.99259,-28.92595l42.45271,-1.66503c0,0 6.96572,8.71122 12.86399,27.00854c0.97924,3.03777 2.32085,7.73814 3.85866,13.38787" fill="none" stroke="#3a2f41" stroke-width="2" stroke-linecap="round"/><path d="M267.68537,248.41785l-20.48724,11.35132l-29.50621,-8.94722" fill="none" stroke="#3a2f41" stroke-width="1.5" stroke-linecap="round"/></g><path d="M245.5436,252.56146c-9.13039,1.27016 -25.3683,-6.49295 -25.3683,-6.49295c0,0 0.52915,-5.26415 1.10728,-8.15232c0.52665,-2.63102 1.70659,-8.40742 1.70659,-8.40742c0,0 0.02853,-3.96976 -2.78541,-7.77488c-1.76299,-2.38398 -11.00682,-11.74054 -11.07086,-12.09786c-0.01231,-0.0687 0.48973,-3.91008 1.63473,-8.08614c1.32906,-4.84728 7.49464,-13.21959 10.51108,-15.40202c3.28627,-2.37766 7.97779,-3.89463 11.67708,-4.29788c5.65352,-0.61629 11.62981,-0.31854 17.10316,1.75111c2.06259,0.77993 5.93204,3.11008 5.93204,3.11008c0,0 6.96998,6.91436 10.73344,15.99284c-2.30307,10.58921 -10.02236,15.88252 -10.02236,15.88252l-0.08224,7.00541c0,0 2.71235,4.77936 3.85967,7.19092c1.14348,2.40347 3.01284,7.25427 3.01284,7.25427c0,0 -8.81832,11.25419 -17.94872,12.52435z" fill="#3a2f41" stroke="#8c9ca0" stroke-width="1.5" stroke-linecap="round"/><g data-paper-data="{&quot;index&quot;:null}" stroke="#3a2f41" stroke-linecap="butt"><g data-paper-data="{&quot;index&quot;:null}"><g stroke-width="0"><path d="" fill="#e1e2db"/><path d="" fill="#e1e2db"/><path d="" fill="#8c9ca0"/></g><path d="M274.38166,278.00582l36.82688,-6.0447l1.06336,6.54525c-12.37407,1.28979 -24.77316,2.634 -37.15824,4.00515z" fill="#e1e2db" stroke-width="0"/><path d="M274.38165,278.00582l36.8269,-6.0447l1.06334,6.54526c-12.37407,1.28979 -24.77315,2.634 -37.15824,4.00515z" fill="#8c9ca0" stroke-width="0"/><path d="M301.11354,273.8979l10.16258,-1.66805l1.0193,6.27408" fill="none" stroke-width="2"/><path d="M275.13714,282.50892l-0.68792,-4.23437l11.97354,-1.9653" fill="none" stroke-width="2"/></g><g data-paper-data="{&quot;index&quot;:null}"><path d="M273.54007,244.26181l-20.32411,-37.54614l3.98433,-15.9864c0,0 9.27487,8.9214 14.47325,14.8093c9.43913,10.6912 37.48645,44.04269 37.48645,44.04269l4.79018,28.75052c-12.96512,1.34644 -25.95964,2.754 -38.93865,4.19107z" fill="#3a2f41" stroke-width="1.5"/><path d="" fill="#8ea8ab" stroke-width="2"/></g></g><g fill="#8c9ca0" stroke="#3a2f41" stroke-width="1.5" stroke-linecap="butt"><path d="M240.53809,199.73214c0.1423,1.84378 -1.30433,3.45898 -3.23115,3.60769c-1.92681,0.14871 -3.60415,-1.2254 -3.74645,-3.06918c-0.1423,-1.84378 1.30434,-3.459 3.23116,-3.60771c1.92681,-0.14871 3.60415,1.22542 3.74645,3.06919z"/><path d="M241.95521,209.67445c0.14724,1.90785 -1.36617,3.58048 -3.38031,3.73593c-2.01414,0.15543 -3.76625,-1.26517 -3.91349,-3.17302c-0.14724,-1.90785 1.36616,-3.58047 3.38029,-3.73593c2.01414,-0.15543 3.76628,1.26516 3.91352,3.17301z"/></g><g><path d="M241.94604,180.24289c0.27536,2.02705 -4.45885,6.49899 -6.68677,6.80164c-2.22793,0.30265 -7.79737,-2.36548 -8.07273,-4.39252c-0.27536,-2.02705 4.88433,-3.86271 7.11225,-4.16536c2.22792,-0.30265 7.37191,-0.2708 7.64728,1.75626z" fill="#3a2f41" stroke="none" stroke-width="0" stroke-linecap="butt"/><g fill="#8c9ca0" stroke="#8c9ca0" stroke-width="1.5" stroke-linecap="butt"><path d="M218.97356,197.66393c-0.86724,-0.64535 7.49299,-15.82315 7.49299,-15.82315l8.42689,4.73872l7.21748,-7.5444c0,0 12.21359,12.45307 11.71676,13.29463c-0.27471,0.46533 -4.16718,-0.96067 -8.87378,-1.72479c-4.3296,-0.70294 -9.51496,-0.73197 -9.51496,-0.73197c0,0 -5.19875,2.10724 -9.40122,4.20461c-3.84254,1.91772 -6.70254,3.85544 -7.06415,3.58637z"/></g><path d="M226.69465,183.49336l0.24389,-1.97285l6.94974,-3.18016l7.74673,0.6045l1.0577,1.83645" fill="none" stroke="#8c9ca0" stroke-width="2" stroke-linecap="round"/></g><path d="" fill="#3a2f41" stroke="#8c9ca0" stroke-width="2" stroke-linecap="butt"/><path d="" fill="#3a2f41" stroke="#8c9ca0" stroke-width="2" stroke-linecap="butt"/><g><g data-paper-data="{&quot;index&quot;:null}" stroke="#3a2f41" stroke-linecap="butt"><path d="M160.80911,121.15446l2.54899,-12.99079l8.14431,4.58172l-6.60313,-8.40647l14.54757,-18.99272c0,0 3.97321,16.95417 11.65454,32.02872c2.70616,3.2795 -5.81242,9.79118 -5.81242,9.79118z" fill="#3a2f41" stroke-width="1.5"/><path d="M190.70024,123.87266c-2.12384,-1.3261 0.42164,-20.33797 3.26895,-24.63815c1.15169,-1.73933 15.88487,12.12879 14.42074,14.34c-2.84731,4.30016 -14.54036,12.26452 -16.6642,10.93843z" data-paper-data="{&quot;index&quot;:null}" fill="#8c9ca0" stroke-width="2"/><path d="M191.49173,123.98098c1.82647,1.64784 -5.11422,15.79344 -8.75976,19.06211c-1.87461,1.68081 -17.53579,-11.34873 -16.06123,-12.67084c3.64552,-3.26865 22.11262,-8.83474 23.93909,-7.18689z" fill="#e1e2db" stroke-width="1.5"/><path d="M195.39691,119.97664c1.83181,2.49541 1.40319,5.92305 -0.95736,7.65586c-2.36051,1.73279 -5.7591,1.11456 -7.5909,-1.38088c-1.83181,-2.49541 -1.40319,-5.92305 0.95736,-7.65585c2.36051,-1.73279 5.75911,-1.11455 7.59091,1.38087z" fill="#e1e2db" stroke-width="2"/></g><path d="M276.47089,174.07467l-19.02407,-0.05678l-1.13686,-10.15539c0,0 -0.12617,10.45148 -0.5544,10.382c-5.36528,0.14835 -10.6677,0.37512 -15.73305,0.64466c-21.27956,1.13237 -38.37571,3.01973 -38.37571,3.01973c0,0 -7.80299,-10.93328 -8.98027,-21.83688c-0.82271,-7.61963 -1.56548,-22.76744 7.93574,-35.65114c7.66278,-10.39077 22.57878,-14.9734 25.72449,-15.44296c2.51533,-0.37547 13.61057,2.38985 20.57829,7.66382c11.59833,8.77899 25.80801,29.85357 25.80801,29.85357z" fill="#3a2f41" stroke="none" stroke-width="0" stroke-linecap="butt"/><g stroke-linecap="butt"><path d="M262.04969,146.47476c0.72891,6.75102 2.92459,12.607 -1.42807,17.48551c-4.23121,4.74239 -14.59396,7.34072 -25.30682,8.72865c-10.66259,1.38144 -21.65231,0.12072 -26.84655,-3.78193c-5.25484,-3.94816 -4.9083,-9.34357 -5.6312,-16.03902c-1.43748,-13.31368 5.74448,-31.19758 30.66953,-33.14598c16.39584,-1.28168 27.10566,13.43905 28.54314,26.75276z" fill="#e1e2db" stroke="none" stroke-width="0"/><path d="M262.04969,146.47476c1.4375,13.31368 -11.54885,6.2452 -24.94602,7.79857c-13.39448,1.55306 -32.82917,11.90834 -34.26665,-1.40535c-1.43748,-13.31368 5.74448,-31.19758 30.66953,-33.14598c16.39584,-1.28168 27.10566,13.43907 28.54314,26.75276z" fill="#b8c1c0" stroke="none" stroke-width="0"/><path d="M238.2003,119.79435c13.72954,1.54355 23.51451,14.03986 24.80985,26.03703l0.0576,0.53346c0.68186,6.31523 1.59607,12.22674 -2.11782,16.95144c-4.1157,5.23585 -13.82906,7.85131 -25.25332,9.33142c-7.89239,1.02253 -17.62199,0.62777 -22.44474,-1.42874c-8.28425,-3.53257 -9.50624,-9.93608 -10.41479,-18.35099c-1.22016,-11.30077 3.76981,-25.89427 20.54941,-31.2403" fill="none" stroke="#3a2f41" stroke-width="2"/></g><path d="M189.93785,175.77645l-9.84691,-6.08031c0,0 -4.7109,-23.24575 3.89894,-39.61456c11.10533,-21.11311 33.61595,-31.27403 57.25883,-28.09494c5.06484,0.68103 17.95475,3.49759 26.15834,11.09806c9.85485,9.13035 14.26157,21.62117 14.26157,21.62117l-4.9804,-0.24031l2.0315,10.02969c0,0 -2.76564,-0.3965 -2.80635,-0.60987c-0.9121,-4.78068 -2.42757,-9.46097 -2.42757,-9.46097c0,0 1.17383,3.83268 1.31513,9.6694c-2.86515,-0.22187 -18.67533,-0.18071 -18.67533,-0.18071l-2.59558,-4.11802l0.06309,4.11213l-13.71434,0.21527l-3.10082,-15.1583l1.39937,14.93098c0,0 -12.163,1.19881 -18.01592,2.04895c-0.41283,0.05997 -2.68171,-6.2169 -2.68171,-6.2169c0,0 0.57854,6.74359 0.26951,6.7824c-3.65281,0.45854 -8.62554,1.66248 -8.62554,1.66248c0,0 3.73797,33.99117 3.60555,34.02101c-2.05962,0.46447 -20.46773,-4.10321 -20.58946,-5.50752c-0.17585,-2.02872 -2.68076,-13.28145 -2.68076,-13.28145z" fill="#3a2f41" stroke="url(#color-7)" stroke-width="0.5" stroke-linecap="butt"/><path d="M233.66431,114.02522c10.77131,-32.13754 37.20831,-46.45701 37.20831,-46.45701l-5.51252,56.45917" fill="#3a2f41" stroke="#3a2f41" stroke-width="1.5" stroke-linecap="round"/><path d="M181.06041,140.5864c6.3704,-47.53172 34.8961,-79.17022 34.8961,-79.17022l10.99353,49.54966" fill="#3a2f41" stroke="#3a2f41" stroke-width="1.5" stroke-linecap="round"/><path d="M208.69646,158.61419c0,0 3.99059,-3.95831 11.56279,-4.73049c8.02276,-0.81811 12.54555,3.1702 12.54555,3.1702c0,0 -5.13098,0.13876 -12.45247,0.70565c-6.50591,0.50374 -11.65586,0.85465 -11.65586,0.85465z" fill="#e1e2db" stroke="#3a2f41" stroke-width="1" stroke-linecap="butt"/><path d="M227.84179,156.70348l-0.21605,-2.22392l0.08481,-0.00795l0.20671,2.23024z" data-paper-data="{&quot;index&quot;:null}" fill="#3a2f41" stroke="#3a2f41" stroke-width="0.5" stroke-linecap="butt"/><path d="M234.19109,155.27942c0.45479,-0.20776 0.66254,0.24705 0.66254,0.24705l0.11917,0.26295c0.56505,1.10395 0.69871,2.37345 -0.4559,3.0796c0,0 -0.4418,0.2341 -0.67591,-0.20771c-0.2341,-0.44181 0.20771,-0.67591 0.20771,-0.67591c0.65098,-0.23619 0.31124,-1.24076 0.04048,-1.72776l-0.14514,-0.31566c0,0 -0.20775,-0.45479 0.24704,-0.66254z" fill="#3a2f41" stroke="none" stroke-width="0.5" stroke-linecap="butt"/><path d="M221.64416,159.0003c0.26997,0.42084 -0.15085,0.69083 -0.15085,0.69083l-0.2654,0.16148c-2.43513,1.02159 -6.22835,1.52768 -8.57491,0.13144c0,0 -0.42969,-0.25567 -0.17401,-0.68536c0.25567,-0.42969 0.68536,-0.17401 0.68536,-0.17401c2.06988,1.23162 5.54118,0.70645 7.67581,-0.19383l0.11319,-0.08139c0,0 0.42084,-0.26999 0.69083,0.15085z" fill="#3a2f41" stroke="none" stroke-width="0.5" stroke-linecap="butt"/><path d="M233.1859,158.088c0.38922,0.31387 0.07534,0.70308 0.07534,0.70308l-0.32925,0.3131c-2.91592,1.22642 -7.5277,1.7486 -10.51721,0.63994c0,0 -0.46849,-0.17467 -0.29381,-0.64317c0.17468,-0.46849 0.64318,-0.29381 0.64318,-0.29381c2.75733,1.03429 7.09645,0.50449 9.78008,-0.62471l-0.06139,-0.01908c0,0 0.31387,-0.38922 0.70308,-0.07534z" fill="#3a2f41" stroke="none" stroke-width="0.5" stroke-linecap="butt"/><path d="M233.32547,155.14271c-0.31387,0.38922 -0.70308,0.07534 -0.70308,0.07534l0.00284,-0.00417c-0.48146,-0.30268 -1.00346,-0.32449 -1.53486,-0.56526c0,0 -0.45372,-0.2101 -0.24362,-0.66381c0.2101,-0.45371 0.66382,-0.24362 0.66382,-0.24362c0.56492,0.26891 1.07575,0.29804 1.62601,0.61332l0.11355,0.08512c0,0 0.38922,0.31386 0.07534,0.70308z" fill="#3a2f41" stroke="none" stroke-width="0.5" stroke-linecap="butt"/><path d="M212.07222,159.74118c0.11168,0.48737 -0.3757,0.59905 -0.3757,0.59905l-0.42794,0.08062c-0.69987,-0.02847 -1.15018,-0.12967 -1.7773,-0.43798c0,0 -0.44769,-0.22267 -0.22501,-0.67035c0.22267,-0.44769 0.67036,-0.22501 0.67036,-0.22501c0.51035,0.25743 0.79221,0.31618 1.36817,0.33399l0.16838,-0.05602c0,0 0.48737,-0.11168 0.59905,0.37569z" fill="#3a2f41" stroke="none" stroke-width="0.5" stroke-linecap="butt"/></g><g data-paper-data="{&quot;index&quot;:null}"><g><g fill="none" stroke="#8c9ca0" stroke-width="2" stroke-linecap="round"><path d="M320.81797,182.03827l-7.03019,-16.29128l-17.32626,9.30606l-4.93147,-15.80007l-18.61867,10.03124l-10.5401,-18.91134"/><path d="M258.52387,164.63219l18.67947,-10.27397l10.0154,18.78845l15.93442,-10.4025l7.09101,16.04845l13.51265,-10.71241"/></g><g stroke="none" stroke-width="0.78636"><path d="M241.68421,132.93043c5.58829,1.48969 10.04772,4.93806 12.73655,9.30616c2.68986,4.36764 3.6091,9.6551 2.11921,14.82177c-1.48989,5.16666 -5.10957,9.24411 -9.75459,11.65642c-4.6444,2.41331 -10.31394,3.16152 -15.90222,1.67182c-5.58829,-1.48969 -10.04772,-4.93806 -12.73654,-9.30616c-2.68986,-4.36763 -3.60923,-9.65501 -2.11934,-14.82168c1.4899,-5.16676 5.10967,-9.24409 9.75471,-11.6565c4.6444,-2.41331 10.31394,-3.16153 15.90221,-1.67183z" fill="#3a2f41" stroke-linecap="butt"/><path d="M258.39663,136.38446c2.17298,0.57921 3.49822,3.34042 3.88196,7.3336c0.38383,3.9933 -0.17164,9.21756 -1.75957,14.72403c-1.58781,5.50638 -3.90956,10.25991 -6.37716,13.49302c-2.46771,3.23309 -5.08245,4.94398 -7.25544,4.36477c-2.17297,-0.5793 -3.49811,-3.3405 -3.88195,-7.3337c-0.38371,-3.99328 0.17176,-9.21754 1.75958,-14.72402c1.58792,-5.50637 3.90965,-10.2598 6.37726,-13.49301c2.46761,-3.23311 5.08245,-4.94398 7.25532,-4.3647z" fill="#3a2f41" stroke-linecap="butt"/><path d="M244.03802,146.81906c1.80628,0.48149 3.03969,2.31696 3.57298,4.89308c0.53424,2.57636 0.19586,6.29241 -0.62581,9.33766c-0.85442,3.16777 -1.95427,6.60902 -4.36448,9.0223c-1.28226,1.28958 -3.61012,1.05194 -5.4151,1.20478c-1.67794,0.02365 -4.53681,0.71686 -4.86969,-0.68706c-0.98036,-4.30869 0.41521,-8.99205 1.55425,-13.03075c0.85275,-3.02157 2.62662,-6.37033 4.46432,-8.31444c1.83686,-1.94433 3.87725,-2.90705 5.68354,-2.42556z" fill="#8c9ca0" stroke-linecap="round"/></g></g><path d="M377.98619,235.9182l-20.79876,-4.26536l12.04595,-58.73714l20.79865,4.26545z" fill="#3a2f41" stroke="none" stroke-width="0.78636" stroke-linecap="butt"/><path d="M370.19712,195.00978l-54.11517,-11.098l4.30492,-20.99134l54.11517,11.098z" fill="#3a2f41" stroke="none" stroke-width="0.78636" stroke-linecap="butt"/><path d="M360.86354,232.88819l-7.31813,-1.50086l9.28133,-45.25641l7.31804,1.50074z" fill="#8c9ca0" stroke="none" stroke-width="0.78636" stroke-linecap="butt"/><path d="M364.62713,194.25788l-48.53035,-9.95273l1.57978,-7.70321l48.53036,9.95263z" fill="#8c9ca0" stroke="none" stroke-width="0.84105" stroke-linecap="butt"/></g><g stroke="#3a2f41" stroke-width="2"><g fill="#e1e2db"><path d="M362.68247,231.95461l10.73698,-24.70992l3.07852,26.56521z" stroke-linecap="round"/><path d="M368.13069,231.64864l7.8127,-22.72558l5.01931,28.17079z" stroke-linecap="round"/><path d="M301.24425,234.43986l3.18949,-3.4665l-11.66887,-3.45928l8.77806,-2.65495l-2.32631,-3.60661c0,0 22.51619,0.83014 29.42867,0.61226c4.43105,-0.13964 7.46663,-0.36485 7.46663,-0.36485l10.40357,-15.64552l27.71783,1.92797c0,0 -21.87819,6.87116 -18.39095,11.00249c0.85469,1.01257 22.63934,7.86573 22.63934,7.86573l-3.43503,-19.0967l14.21541,30.36445c0,0 -13.76202,0.63037 -22.37162,-0.02575c-8.60961,-0.65611 20.98571,0.15683 22.36265,0.12731l-18.63101,5.61203c0,0 -13.15772,-1.69932 -17.70413,-1.99726c-13.26493,-0.86933 -51.67375,-7.19485 -51.67375,-7.19485z" stroke-linecap="butt"/></g><g stroke-linecap="butt"><path d="M336.01009,247.00888l-39.33411,-2.29142c0,0 -71.69818,-26.18512 -83.04865,-34.22636c-6.25098,-4.42851 5.39011,-12.45251 5.39011,-12.45251l68.79287,12.68895l51.20169,-3.51107z" fill="#3a2f41"/><path d="M329.18947,246.56781l-2.1658,-0.2931l1.0512,-38.17898l2.11498,0.02472z" fill="#8ea8ab"/></g></g></g></g></svg>