<svg version="1.1" xmlns="http://www.w3.org/2000/svg" xmlns:xlink="http://www.w3.org/1999/xlink" width="321.80111" height="451.98155" viewBox="0,0,321.80111,451.98155"><g transform="translate(-79.09945,45.86492)"><g data-paper-data="{&quot;isPaintingLayer&quot;:true}" fill-rule="nonzero" stroke-linejoin="miter" stroke-miterlimit="10" stroke-dasharray="" stroke-dashoffset="0" style="mix-blend-mode: normal"><g data-paper-data="{&quot;index&quot;:null}" stroke="#3a2f41" stroke-width="2"><g fill="#e1e2db" stroke-linecap="butt"><g><path d="M140.14191,212.20605l13.84551,33.75475l-21.81522,-8.36003l3.41033,27.27779l-21.86378,-18.62374l-20.16367,22.68665l2.2104,-65.62282l-14.17019,-14.64296l37.48094,2.09566l17.20461,-12.93142l19.27419,14.86186z"/><path d="M160.76808,203.18646l-15.92993,17.50523l-35.01044,-31.85987l15.92994,-17.50521z"/></g><g><path d="M113.55375,176.02214c0,0 42.25033,-30.25144 58.8771,-41.37975c19.76162,-13.22647 38.25246,-32.45661 45.89741,-23.45314c9.49091,11.17745 -1.34111,28.26066 -15.71783,46.38289c-18.51292,23.33604 -37.2146,50.04498 -43.43151,56.72997c-3.20194,5.32016 -46.36018,-33.58624 -45.62517,-38.27998z"/></g></g><path d="M155.01562,220.15855l-45.88947,-42.1563l21.16575,-13.76815l40.0511,35.97866z" fill="#7c7984" stroke-linecap="butt"/><path d="M155.89285,187.53517l-16.12165,16.85504" fill="none" stroke-linecap="round"/><path d="M138.81961,172.51005l-15.77142,16.24076" fill="none" stroke-linecap="round"/></g><path d="M294.32909,261.58568c-17.51823,-11.67417 -40.18449,-44.95461 -31.13727,-54.11568c5.80333,-5.87636 14.32779,20.23049 52.08107,33.06361c15.21745,5.17273 26.44414,5.19518 32.69768,8.63988c8.99196,4.95314 14.84863,22.77045 -6.07052,26.97229c-24.12741,4.84626 -47.57095,-14.5601 -47.57095,-14.5601z" fill="#7c7984" stroke="#3a2f41" stroke-width="2" stroke-linecap="butt"/><g><g stroke-linecap="butt"><g><path d="M257.89969,341.69215l-14.22285,-77.06876l26.53819,-4.35525l14.22285,77.06876z" fill="#e1e2db" stroke="none" stroke-width="0"/><path d="M247.26734,281.44363l-3.12699,-16.94407l26.5382,-4.35527l2.95897,17.19583z" fill="#8c9ca0" stroke="none" stroke-width="0"/><path d="M258.36319,341.56828l-14.22285,-77.06875l26.53819,-4.35525l14.22285,77.06875z" fill="none" stroke="#3a2f41" stroke-width="2.5"/></g><path d="M253.83718,383.72336l-4.92231,-48.59508l54.98623,-5.78578l-6.00006,18.63195c0,0 19.32972,0.85688 29.50427,16.51625c7.83447,12.05781 10.49818,31.80953 0.65789,37.69419c-12.67557,7.5802 -53.15485,-3.3171 -53.15485,-3.3171z" fill="#7c7984" stroke="#3a2f41" stroke-width="2.5"/></g><path d="M317.91718,378.86662c6.95086,10.29511 3,24 3,24" data-paper-data="{&quot;index&quot;:null}" fill="none" stroke="#3a2f41" stroke-width="2.5" stroke-linecap="round"/><path d="M294.41718,379.86662c6.95085,10.29511 3,24 3,24" data-paper-data="{&quot;index&quot;:null}" fill="none" stroke="#3a2f41" stroke-width="2.5" stroke-linecap="round"/></g><g><g stroke-linecap="butt"><g><path d="M195.0378,338.47611l0.00239,-78.37016l26.88791,-0.53247l-0.00239,78.37016z" fill="#e1e2db" stroke="none" stroke-width="0"/><path d="M194.77228,285.1905l-0.21038,-17.44729l26.88792,-0.53247l-0.00053,17.2302z" fill="#8c9ca0" stroke="none" stroke-width="0"/><path d="M194.55951,338.4384l0.0024,-78.37016l26.88792,-0.53248l-0.00239,78.37016z" fill="none" stroke="#3a2f41" stroke-width="2.5"/></g><path d="M199.34658,392.76201c0,0 -42.38135,3.2971 -49.93185,-1.97622c-8.33513,-5.8213 -1.5597,-24.20958 2.25172,-28.16316c11.73082,-12.16833 29.60206,-13.50034 29.60206,-13.50034l-2.8933,-19.6599l54.92392,4.17828l-1.51357,48.88506z" fill="#7c7984" stroke="#3a2f41" stroke-width="2.5"/></g><path d="M157.53541,392.86662c0,0 -3.95085,-13.70489 3,-24" fill="none" stroke="#3a2f41" stroke-width="2.5" stroke-linecap="round"/><path d="M178.03541,393.36662c0,0 -3.95085,-13.70489 3,-24" fill="none" stroke="#3a2f41" stroke-width="2.5" stroke-linecap="round"/></g><g><path d="M185.12302,14.31975c0,0 19.37929,-58.76833 43.65293,-59.18482c20.19131,-0.34644 31.86862,57.34509 31.86862,57.34509" data-paper-data="{&quot;index&quot;:null}" fill="#7c7984" stroke="#3a2f41" stroke-width="2" stroke-linecap="round"/><path d="M246.59133,0.96283c0,0 47.59956,-36.36092 66.66667,-21.33333c15.86041,12.50025 -7,67.66666 -7,67.66666" fill="#7c7984" stroke="#3a2f41" stroke-width="2" stroke-linecap="round"/><path d="M273.02858,24.61987c1.50868,3.38701 -25.9293,49.95355 -40.55686,56.73006c-35.81988,16.59432 -79.85669,-18.48343 -79.85669,-18.48343c0,0 25.5784,-4.54322 35.38731,-20.73386c9.90551,-16.35008 13.3556,-35.11788 20.75476,-38.41369c8.26772,-3.68269 29.57645,-0.6129 43.51958,3.2507c10.89184,3.01811 18.0067,11.48717 20.7519,17.65023z" fill="#7c7984" stroke="#3a2f41" stroke-width="2" stroke-linecap="butt"/><path d="M299.12456,27.88978c4.92102,6.43376 -2.22208,8.06374 1.79218,24.76075c3.97514,16.53418 21.45318,13.34721 21.45318,13.34721c0,0 -15.22867,26.22194 -48.89243,29.61594c-11.97896,1.56414 -59.12549,6.54223 -81.29836,-20.38118c-2.36978,-3.15959 6.07437,-9.4998 8.92703,-17.29032c8.79048,-24.00639 46.43006,-53.80243 47.84827,-54.88718c7.79371,-5.96121 40.37606,12.02999 50.17013,24.8348z" data-paper-data="{&quot;index&quot;:null}" fill="#7c7984" stroke="#3a2f41" stroke-width="2" stroke-linecap="butt"/><path d="M291.40401,3.7661c4.11996,2.87508 7.82622,5.67314 10.65051,12.02792c1.72924,3.89086 1.87759,10.05275 5.25571,15.63112c5.30871,10.04604 15.72226,5.56833 15.72226,5.56833c0,0 -2.4377,24.87065 -13.82846,32.94903c-11.28105,8.00056 -25.93768,8.76555 -41.93834,-2.62634c-13.13174,-9.34933 -26.55783,-68.03612 -25.20442,-69.97555c5.61523,-8.04655 36.12254,-2.80015 49.34274,6.42549z" data-paper-data="{&quot;index&quot;:null}" fill="#7c7984" stroke="#3a2f41" stroke-width="2" stroke-linecap="butt"/><path d="M264.90627,24.24434c0.47173,3.67771 -39.19055,40.3954 -55.14846,42.68265c-17.7627,2.54594 -39.30796,-0.02552 -49.89072,-11.22452c-12.69914,-13.43861 -12.69242,-36.22082 -12.69242,-36.22082c0,0 11.71129,7.29225 25.75909,-5.39676c12.59348,-11.37535 24.43494,-26.13254 41.54606,-30.26266c29.09426,-7.0225 64.91364,4.38663 83.81752,26.18692c8.09923,9.34018 -35.09885,0.92129 -33.39109,14.23522z" fill="#7c7984" stroke="#3a2f41" stroke-width="2" stroke-linecap="butt"/><g data-paper-data="{&quot;index&quot;:null}" stroke-linecap="butt"><path d="M199.21681,60.682c-1.29183,-18.19656 10.7276,-40.50317 35.23128,-42.71622c37.25059,-3.36427 52.42261,18.89341 53.71442,37.08996c1.29185,18.19655 -9.78009,34.55215 -42.11899,35.96929c-16.15148,0.70781 -29.72836,-2.08896 -37.18232,-7.43325c-7.6679,-5.49768 -8.98935,-13.68277 -9.64441,-22.90979z" fill="#e1e2db" stroke="none" stroke-width="0"/><path d="M199.21681,60.682c-1.29183,-18.19656 10.7276,-40.50317 35.23128,-42.71622c37.25059,-3.36427 52.42261,18.89341 53.71442,37.08996c1.29185,18.19655 -30.01744,8.97178 -50.16521,10.10123c-20.15178,1.12968 -37.48867,13.72158 -38.78051,-4.47497z" fill="#b8c1c0" stroke="none" stroke-width="0"/><path d="M249.88753,18.50698c26.11088,3.1447 37.20776,21.51605 38.30428,36.96143c1.29185,18.19655 -9.78011,34.55213 -42.119,35.96928c-17.22401,0.75481 -30.03894,-2.20855 -37.44902,-8.24221c-6.68669,-5.44461 -8.76494,-13.46945 -9.3777,-22.10082h-0.00001c-1.16408,-16.39716 5.77614,-45.35738 50.50136,-42.61978" fill="none" stroke="#3a2f41" stroke-width="2"/></g><path d="M252.19291,34.15403c0.295,2.29986 -25.9288,25.44371 -36.28713,26.92266c-11.05487,2.41828 -23.64945,-0.21426 -30.94266,-4.51244c-12.5559,-7.39969 -15.94548,-19.73607 -15.94548,-19.73607c0,0 17.95519,0.77372 27.1056,-7.2083c9.24054,-8.06062 14.93339,-18.71467 20.14802,-19.38355c5.8268,-0.74739 22.82141,-7.07197 30.74122,-2.28577c6.18665,3.7388 4.64362,22.01863 5.18041,26.2035z" fill="#7c7984" stroke="#3a2f41" stroke-width="2" stroke-linecap="butt"/><path d="M257.85569,2.55815c9.23596,0.57292 22.82357,3.15284 27.18883,7.08404c3.90669,3.51821 2.52283,15.51829 5.53205,27.40551c2.97987,11.77128 15.34561,21.06081 15.34561,21.06081c0,0 -23.29223,2.5612 -45.85622,-9.57921c-8.54488,-4.59752 -14.08293,-15.21203 -17.16917,-20.25446c-7.44831,-12.16934 -2.09803,-18.19669 -1.00095,-19.41492c2.82341,-3.1352 8.74506,-6.74929 15.95984,-6.30176z" data-paper-data="{&quot;index&quot;:null}" fill="#7c7984" stroke="#3a2f41" stroke-width="2" stroke-linecap="butt"/><path d="M256.7986,6.58484c0.51959,4.0508 -9.16991,8.63152 -21.64209,10.2313c-4.79228,0.61469 -13.93381,9.52149 -21.9779,13.32169c-2.8063,1.32576 -11.65945,11.12103 -14.88683,20.83512c-2.26648,6.82189 2.78474,23.6174 2.47606,24.03964c-0.89099,1.21874 7.10441,9.80061 2.02582,9.1187c-24.0187,-3.22505 -43.60822,-21.22055 -43.60822,-21.22055c0,0 10.27252,-3.80563 10.15055,-8.63339c-0.1974,-7.81301 -3.65826,-18.12172 -3.22803,-18.544c11.61685,-8.50388 43.10125,-23.69542 51.17089,-30.67908c6.18316,-5.35105 10.58539,-2.21333 15.99608,-2.90734c12.47218,-1.59978 23.0041,0.38714 23.5237,4.43794z" fill="#7c7984" stroke="none" stroke-width="0" stroke-linecap="butt"/><path d="M268.70236,1.10523c1.36903,0.90189 8.06733,5.38381 3.93149,19.03903c-1.71369,5.65811 -4.39353,17.32672 -11.50146,23.932c-18.76946,17.4422 -41.95405,20.84252 -41.95405,20.84252c0,0 9.62087,-12.10973 9.5334,-24.25201c-0.08834,-12.26186 -4.45604,-23.5242 -1.56377,-27.91451c3.2318,-4.90566 15.72838,-10.83138 24.52075,-13.71677c6.86827,-2.25395 13.51033,-0.25138 17.03365,2.06972z" data-paper-data="{&quot;index&quot;:null}" fill="#7c7984" stroke="#3a2f41" stroke-width="2" stroke-linecap="butt"/><path d="M214.758,59.29616c-10.03317,0 -13.16666,-22.10845 -13.16666,-34.16666c0,-12.05821 8.13349,-21.83333 18.16666,-21.83333c3.70174,0 46.77837,-14.17026 51.71147,-11.25533c2.86259,1.69148 19.02025,7.55135 27.59525,20.83157c3.62491,5.61395 3.20908,12.02542 4.81883,18.60403c1.45252,5.93608 11.3754,14.32652 11.54644,23.82864c0.03965,2.2023 -0.49798,4.43131 -1.23359,6.38331c-0.64718,1.71733 -1.76436,4.30189 -1.76436,4.30189c0,0 1.63081,1.57663 3.62039,1.73558c0.51296,0.04098 0.45079,0.83197 0.05181,1.29855c-1.81065,2.1174 -11.00524,6.7314 -11.40071,7.22031c-0.229,0.28311 -26.46612,6.51454 -24.44011,4.62754c9.22272,-8.58995 11.09329,-24.08466 8.13418,-24.22184c-14.04157,-0.65091 -24.42411,-7.01259 -30.2051,-10.06038c-5.94304,-3.13322 -16.54663,-2.98938 -16.54663,-2.98938c0,0 -7.82088,8.03907 -12.67398,10.87202c-3.899,2.276 -14.21387,4.8235 -14.21387,4.8235z" fill="#7c7984" stroke="none" stroke-width="0" stroke-linecap="butt"/></g><g data-paper-data="{&quot;index&quot;:null}" stroke="#8c9ca0" stroke-width="2"><path d="M179.85436,274.03178l14.29949,-70.80859l36.84841,1.91187l1.30658,69.64042z" data-paper-data="{&quot;index&quot;:null}" fill="#3a2f41" stroke-linecap="butt"/><path d="M206.516,207.16519l-2.64321,19.79811l-14.2949,2.03829" fill="none" stroke-linecap="round"/><path d="M203.13116,209.22747l-1.87368,14.4839l-10.84993,1.41404" fill="none" stroke-linecap="round"/></g><g stroke="#8c9ca0" stroke-width="2"><path d="M233.0779,274.43147l-1.00001,-68.96922l37.06322,-3.66009l18.16016,69.96399z" data-paper-data="{&quot;index&quot;:null}" fill="#3a2f41" stroke-linecap="butt"/><path d="M274.98842,227.33409l-14.51123,-1.35697l-3.6124,-19.65022" fill="none" stroke-linecap="round"/><path d="M273.96645,223.5017l-11.00777,-0.89706l-2.58221,-14.37855" fill="none" stroke-linecap="round"/></g><g stroke-linecap="butt"><path d="M217.90545,220.37621l1.23334,-17.41208l25.20913,-2.1125l1.6964,20.24369z" fill="#8c9ca0" stroke="#8c9ca0" stroke-width="2"/><path d="M218.09535,218.05247l1.23334,-17.41208l25.20913,-2.11249l1.6964,20.24367z" fill="#3a2f41" stroke="#3a2f41" stroke-width="3.5"/></g><g><g><g><path d="M270.49743,112.16913c-0.10772,2.5825 1.60719,27.78538 -2.91535,31.01114c-5.61759,4.00681 -18.68734,-12.72254 -31.32438,-13.24965c-9.93515,-0.41441 -23.32316,23.57826 -29.06258,19.75085c-7.43805,-4.96017 -3.76751,-38.95791 -3.76751,-38.95791c0,0 20.23262,-9.50296 35.51286,-8.98836c14.33417,0.48274 31.55696,10.43393 31.55696,10.43393z" fill="#4e4b57" stroke="#3a2f41" stroke-width="2" stroke-linecap="butt"/><g data-paper-data="{&quot;index&quot;:null}"><path d="M267.74112,144.60364c-1.95091,-0.21106 -3.86748,-0.27579 -5.33203,-0.38054c-16.86021,-1.20597 -35.01661,-1.61469 -51.83837,-2.22114c-2.02247,-0.07292 -4.07539,-0.14148 -6.14837,-0.20714c-1.12821,-11.45587 -3.29699,-20.68031 7.02866,-29.37491c8.00854,-6.74351 18.18875,-6.94472 27.83599,-6.57908c8.79313,0.33328 28.47441,8.15169 29.81159,11.75063c3.24641,8.7375 1.37207,18.4483 -1.35749,27.01221z" fill="#8c9ca0" stroke="#3a2f41" stroke-width="2" stroke-linecap="butt"/><g><path d="M222.4594,108.0517c-0.44877,-0.29602 2.41269,-4.33214 2.85571,-4.64093c0.17757,-0.05294 0.4555,-0.3937 1.08914,0.06606c2.89372,2.09964 9.53805,8.25673 9.53805,8.25673l-10.11417,7.48794z" data-paper-data="{&quot;index&quot;:null}" fill="#8c9ca0" stroke="#3a2f41" stroke-width="4.5" stroke-linecap="round"/><path d="M235.96844,111.77254c0,0 -7.91561,-7.40793 -4.53732,-9.04397c4.0195,-1.94656 19.50989,1.79749 20.47952,1.39379c0.98425,-1.52074 2.76383,4.01544 2.77371,5.28512c-0.96599,2.53677 -10.75305,10.65433 -10.75305,10.65433z" fill="#3a2f41" stroke="#3a2f41" stroke-width="4.5" stroke-linecap="round"/><path d="M224.35231,107.72105c0.01827,-0.43818 1.19403,-3.93035 2.1988,-4.33487c0.59264,-0.51945 11.46173,-5.00259 12.93277,-4.72667c2.32522,0.43615 11.69744,4.8775 12.6457,5.76265c0.5211,0.26548 0.62902,3.27034 0.61312,4.49364" fill="none" stroke="#3a2f41" stroke-width="6.5" stroke-linecap="butt"/><g><path d="M222.4594,108.0517c-0.44877,-0.29602 2.41269,-4.33214 2.85571,-4.64093c0.17757,-0.05294 0.45548,-0.3937 1.08914,0.06606c2.89371,2.09964 9.53805,8.25673 9.53805,8.25673l-10.11417,7.48794z" data-paper-data="{&quot;index&quot;:null}" fill="#8c9ca0" stroke="#12161a" stroke-width="0" stroke-linecap="round"/><path d="M235.96844,111.77251c0,0 14.15763,-6.90717 15.94219,-7.65018c0.98425,-1.52073 2.76384,4.01546 2.77372,5.28513c-0.966,2.53675 -10.75306,10.65433 -10.75306,10.65433z" fill="#8c9ca0" stroke="#12161a" stroke-width="0" stroke-linecap="round"/><path d="M224.35231,107.72097c0.01827,-0.43818 1.19403,-3.93035 2.1988,-4.33487c0.59264,-0.51945 11.46173,-5.00259 12.93277,-4.72667c2.32522,0.43615 11.69744,4.8775 12.6457,5.76265c0.5211,0.26548 0.62902,3.27034 0.61312,4.49364" fill="none" stroke="#8c9ca0" stroke-width="2" stroke-linecap="butt"/></g></g></g><path d="M191.90311,206.98169l1.59113,-7.28788l-5.93754,-14.84663l10.65901,-15.13315l3.45361,-41.27491l69.20706,2.68887l0.68186,78.38706z" fill="#e1e2db" stroke="#3a2f41" stroke-width="2" stroke-linecap="butt"/></g><path d="M271.09086,203.47601l-77.59207,-2.90482" fill="none" stroke="#3a2f41" stroke-width="2" stroke-linecap="round"/></g><path d="M200.17468,145.71211l2.5,-34l30.0618,12.39888l37.9382,-10.39888v21.5z" fill="#7c7984" stroke="#3a2f41" stroke-width="2" stroke-linecap="butt"/></g><path d="M270.71884,85.80357l-3.7568,-6.77857l1.63997,-0.9089l3.7568,6.77857z" fill="#3a2f41" stroke="none" stroke-width="0" stroke-linecap="butt"/><path d="M278.46201,80.76635l-5.02967,-5.89618l1.42649,-1.21685l5.02967,5.89618z" fill="#3a2f41" stroke="none" stroke-width="0" stroke-linecap="butt"/><path d="M284.56177,72.9442l-6.73173,-3.84009l0.92905,-1.62864l6.73173,3.84009z" fill="#3a2f41" stroke="none" stroke-width="0" stroke-linecap="butt"/><path d="M203.34147,75.35445l6.69234,-3.90834l0.94556,1.61911l-6.69234,3.90834z" data-paper-data="{&quot;index&quot;:null}" fill="#3a2f41" stroke="none" stroke-width="0" stroke-linecap="butt"/><path d="M211.43235,85.0495l5.02967,-5.89618l1.42649,1.21685l-5.02967,5.89618z" data-paper-data="{&quot;index&quot;:null}" fill="#3a2f41" stroke="none" stroke-width="0" stroke-linecap="butt"/><path d="M231.66042,73.96414c0,0.61894 -1.11929,1.12069 -2.5,1.12069c-1.38071,0 -2.5,-0.50175 -2.5,-1.12069c0,-0.61894 1.11929,-1.12069 2.5,-1.12069c1.38071,0 2.5,0.50175 2.5,1.12069z" fill="#3a2f41" stroke="none" stroke-width="0" stroke-linecap="butt"/><path d="M260.94046,48.01088c10.03942,0 15.97458,9.10071 15.97458,16.25c0,7.14929 -5.93516,9.63983 -15.97458,9.63983c-10.03941,0 -16.52543,-3.04139 -16.52543,-10.19068c0,-7.14929 6.48601,-15.69915 16.52543,-15.69915z" data-paper-data="{&quot;index&quot;:null}" fill="#e1e2db" stroke="#3a2f41" stroke-width="1" stroke-linecap="butt"/><path d="M270.04135,53.17464c2.98729,0.48777 6.09598,6.63958 5.62766,11.29954c-0.46831,4.65996 -3.26962,8.04218 -6.25691,7.55441c-2.98729,-0.48777 -5.49437,-6.16647 -5.02606,-10.82642c0.46831,-4.65996 2.66802,-8.5153 5.65531,-8.02752z" data-paper-data="{&quot;index&quot;:null}" fill="#3a2f41" stroke="#3a2f41" stroke-width="2" stroke-linecap="butt"/><path d="M219.78792,47.26088c9.03547,0 14.37712,9.10071 14.37712,16.25c0,7.14929 -5.34164,9.63983 -14.37712,9.63983c-9.03547,0 -14.87288,-3.04139 -14.87288,-10.19068c0,-7.14929 5.83741,-15.69915 14.87288,-15.69915z" data-paper-data="{&quot;index&quot;:null}" fill="#e1e2db" stroke="#3a2f41" stroke-width="1" stroke-linecap="butt"/><path d="M228.16513,52.67464c2.79053,0.48777 5.69446,6.63958 5.25699,11.29954c-0.43747,4.65996 -3.05427,8.04218 -5.8448,7.55441c-2.79053,-0.48777 -5.13248,-6.16647 -4.69501,-10.82642c0.43747,-4.65996 2.49229,-8.5153 5.28281,-8.02752z" data-paper-data="{&quot;index&quot;:null}" fill="#3a2f41" stroke="#3a2f41" stroke-width="2" stroke-linecap="butt"/><path d="M275.16041,35.58483l-26.5,11.25" fill="none" stroke="#3a2f41" stroke-width="5.5" stroke-linecap="round"/><path d="M214.66041,28.58483c0,0 3.17893,-15.89617 9,-13" fill="none" stroke="#3a2f41" stroke-width="5.5" stroke-linecap="round"/><path d="M261.41041,79.08483c1.54116,5.59615 -8.28273,9.75 -18.5,9.75c-10.21727,0 -16.68874,-3.63389 -16.25,-6.5c0.75,-4.8995 7.09841,-0.32494 15.06896,-2.77575c8.44676,-2.59723 17.84223,-7.15123 19.68104,-0.47425z" fill="#e1e2db" stroke="#3a2f41" stroke-width="1" stroke-linecap="butt"/><path d="M235.91041,80.33483l0.75,7.5" fill="none" stroke="#3a2f41" stroke-width="1" stroke-linecap="round"/><path d="M249.41041,77.33483l1.5,9.75" fill="none" stroke="#3a2f41" stroke-width="1" stroke-linecap="round"/><g stroke="#3a2f41" stroke-width="2"><g fill="#e1e2db" stroke-linecap="butt"><g><path d="M324.44499,194.70178l19.27419,-14.86186l17.2046,12.93142l37.48094,-2.09565l-14.17019,14.64296l2.2104,65.62282l-20.16367,-22.68665l-21.86377,18.62375l3.41033,-27.27779l-21.81523,8.36003l13.84551,-33.75475z"/><path d="M354.24236,173.3266l15.92993,17.50522l-35.01043,31.85987l-15.92993,-17.50523z"/></g><g><path d="M366.44627,178.02214c0.73501,4.69374 -42.42322,43.60014 -45.62516,38.27998c-6.2169,-6.685 -24.91859,-33.39393 -43.43151,-56.72997c-14.37672,-18.12224 -25.20874,-35.20545 -15.71783,-46.3829c7.64496,-9.00347 26.13579,10.22666 45.89741,23.45314c16.62677,11.12831 58.8771,41.37975 58.8771,41.37975z"/></g></g><path d="M309.65703,202.21276l40.05109,-35.97866l21.16576,13.76815l-45.88948,42.15631z" fill="#7c7984" stroke-linecap="butt"/><path d="M324.10717,189.53517l16.12166,16.85504" fill="none" stroke-linecap="round"/><path d="M341.1804,174.51005l15.77142,16.24076" fill="none" stroke-linecap="round"/></g></g></g></svg>