<svg xmlns="http://www.w3.org/2000/svg" xmlns:xlink="http://www.w3.org/1999/xlink" version="1.1" width="196.46294045448303" height="110.94064736366272" viewBox="2.0323764085769653 -0.5953236818313599 196.46294045448303 110.94064736366272">
  <defs>
    <radialGradient id="grad_1" cx="0.5" cy="0.5138" r="0.66794">
      <stop offset="0" stop-color="#F66C98" stop-opacity="1"/>
      <stop offset="1" stop-color="#9A2E38" stop-opacity="1"/>
    </radialGradient>
    <radialGradient id="grad_2" cx="0.5179" cy="0.4861" r="0.67327">
      <stop offset="0" stop-color="#FFFFFF" stop-opacity="1"/>
      <stop offset="1" stop-color="#FFFFFF" stop-opacity="0"/>
    </radialGradient>
    <radialGradient id="grad_3" cx="0.5179" cy="0.4861" r="0.67327">
      <stop offset="0" stop-color="#FFFFFF" stop-opacity="1"/>
      <stop offset="1" stop-color="#FFFFFF" stop-opacity="0"/>
    </radialGradient>
    <radialGradient id="grad_4" cx="0.5179" cy="0.4861" r="0.67327">
      <stop offset="0" stop-color="#FFFFFF" stop-opacity="1"/>
      <stop offset="1" stop-color="#FFFFFF" stop-opacity="0"/>
    </radialGradient>
  <radialGradient id="grad_1-,0,0,1,-141,-242" cx="103" cy="56.4904" r="102.402" gradientUnits="userSpaceOnUse">
      <stop offset="0" stop-color="#F66C98" stop-opacity="1"/>
      <stop offset="1" stop-color="#9A2E38" stop-opacity="1"/>
    </radialGradient><radialGradient id="grad_2-,0,0,1,-141,-242" cx="106.2447" cy="53.4988" r="103.3223" gradientUnits="userSpaceOnUse">
      <stop offset="0" stop-color="#FFFFFF" stop-opacity="1"/>
      <stop offset="1" stop-color="#FFFFFF" stop-opacity="0"/>
    </radialGradient><radialGradient id="grad_3-,0,0,1,-140.85,-242.25" cx="106.3947" cy="53.2488" r="103.3223" gradientUnits="userSpaceOnUse">
      <stop offset="0" stop-color="#FFFFFF" stop-opacity="1"/>
      <stop offset="1" stop-color="#FFFFFF" stop-opacity="0"/>
    </radialGradient><radialGradient id="grad_4-,0,0,1,-141.15,-242.25" cx="106.0947" cy="53.2488" r="103.3223" gradientUnits="userSpaceOnUse">
      <stop offset="0" stop-color="#FFFFFF" stop-opacity="1"/>
      <stop offset="1" stop-color="#FFFFFF" stop-opacity="0"/>
    </radialGradient></defs>
  <!-- Exported by Scratch - http://scratch.mit.edu/ -->
  <path id="ID0.9129331279546022" fill="url(#grad_1-,0,0,1,-141,-242)" stroke="none" d="M 9 1 L 197 1 L 197 109 L 9 109 L 9 1 Z " stroke-width="1"/>
  <g id="ID0.901408904697746">
    <path id="ID0.7797387707978487" fill="#D33445" stroke="#D33445" stroke-width="2.6906473636627197" stroke-linecap="round" d="M 3.3777 29.2662 L 19.1852 15.1403 L 29.9478 20.5216 L 36.3381 19.8489 L 55.509 24.2212 L 46.7644 31.2842 L 53.1547 38.6834 L 58.536 30.2752 L 67.6169 39.0198 L 60.8903 41.7104 L 47.437 55.5 L 35.3291 56.509 L 50.1277 66.2626 L 77.7068 77.0252 L 75.0162 85.4334 L 64.5899 95.187 L 63.5809 108.3039 L 56.8543 98.8867 L 55.509 83.7518 L 47.437 75.3435 L 49.455 68.9532 L 30.9568 61.5539 L 19.8579 49.446 L 21.5396 38.0108 L 17.8399 29.9388 L 3.3777 29.2662 Z "/>
    <path id="ID0.5276037878356874" fill="#D33445" stroke="#D33445" stroke-width="2.6906473636627197" stroke-linecap="round" d="M 75.0162 20.1852 L 71.9892 12.4496 L 82.7518 6.3957 L 93.5144 9.4227 L 87.1241 25.9029 L 75.3525 30.6115 L 75.0162 20.1852 Z "/>
    <path id="ID0.22614181134849787" fill="#D33445" stroke="#D33445" stroke-width="2.6906473636627197" stroke-linecap="round" d="M 109.9946 46.4191 L 97.8867 47.428 L 118.7392 33.9748 L 114.7032 29.2662 L 105.6223 34.6475 L 112.3489 24.5575 L 122.7752 27.5845 L 135.8921 22.8759 L 142.2824 12.4496 L 150.3543 15.4766 L 184.6601 15.1403 L 185.3327 25.5665 L 176.9244 31.6205 L 181.6331 39.0198 L 172.2158 47.7644 L 174.2338 56.8453 L 166.1619 61.2176 L 176.5881 75.0072 L 160.4442 60.8813 L 154.3903 60.8813 L 149.3453 66.2626 L 145.6457 58.8633 L 138.5827 57.518 L 130.5108 63.9083 L 123.7842 51.8003 L 109.9946 46.4191 Z "/>
    <path id="ID0.9972305246628821" fill="#D33445" stroke="#D33445" stroke-width="2.6906473636627197" stroke-linecap="round" d="M 170.5342 86.7788 L 169.8615 85.7698 L 182.6421 79.0432 L 186.0726 80.9939 L 188.9651 86.1734 L 185.3327 93.1691 L 177.9334 88.7967 L 171.8795 91.4874 Z "/>
    <path id="ID0.4784054202027619" fill="#D33445" stroke="#D33445" stroke-width="2.6906473636627197" stroke-linecap="round" d="M 95.8687 69.2896 L 91.4964 63.5719 L 101.25 51.8003 L 112.3489 55.1637 L 122.7752 55.5 L 126.8111 64.2446 L 133.8741 66.9352 L 127.1475 74.6709 L 119.0755 91.1511 L 113.6942 91.1511 L 109.3219 82.4065 L 108.9856 71.6439 L 95.8687 69.2896 Z "/>
    <path id="ID0.1744393603876233" fill="none" stroke="#D33445" stroke-width="2.6906473636627197" stroke-linecap="round" d="M 128.4928 86.1061 L 131.5198 80.3885 "/>
    <path id="ID0.20900010224431753" fill="none" stroke="#D33445" stroke-width="2.6906473636627197" stroke-linecap="round" d="M 42.0557 19.5126 L 41.0468 14.4676 Z "/>
    <path id="ID0.7906406973488629" fill="#D33445" stroke="#D33445" stroke-width="2.6906473636627197" stroke-linecap="round" d="M 56.8543 23.8849 L 40.7104 19.3108 L 41.0468 14.1313 L 52.482 9.0863 L 60.5539 12.786 L 74.6798 4.3777 L 63.2446 18.8399 L 67.6169 26.5755 L 61.5629 30.6115 L 60.2176 22.8759 L 56.8543 23.8849 Z "/>
  </g>
  <path id="ID0.688832946587354" fill="url(#grad_2-,0,0,1,-141,-242)" stroke="none" d="M 8.75 1 L 197 1 L 197 109 L 8.75 109 L 8.75 1 Z " stroke-width="1"/>
  <path id="ID0.688832946587354" fill="url(#grad_3-,0,0,1,-140.85,-242.25)" stroke="none" d="M 8.9 0.75 L 197.15 0.75 L 197.15 108.75 L 8.9 108.75 L 8.9 0.75 Z " stroke-width="1"/>
  <path id="ID0.688832946587354" fill="url(#grad_4-,0,0,1,-141.15,-242.25)" stroke="none" d="M 8.6 0.75 L 196.85 0.75 L 196.85 108.75 L 8.6 108.75 L 8.6 0.75 Z " stroke-width="1"/>
</svg>