<svg version="1.1" xmlns="http://www.w3.org/2000/svg" xmlns:xlink="http://www.w3.org/1999/xlink" width="278.63824" height="534.55814" viewBox="0,0,278.63824,534.55814"><g transform="translate(-100.92977,87.27907)"><g data-paper-data="{&quot;isPaintingLayer&quot;:true}" fill-rule="nonzero" stroke-linejoin="miter" stroke-miterlimit="10" stroke-dasharray="" stroke-dashoffset="0" style="mix-blend-mode: normal"><g fill="#e1e2db" stroke="#3a2f41" stroke-width="2" stroke-linecap="butt"><g data-paper-data="{&quot;index&quot;:null}"><path d="M367.36488,233.33164c18.37192,43.31737 9.07455,137.8157 7.11501,140.73835c-0.22397,0.33405 -58.04675,-171.80653 -58.04675,-171.80653c0,0 14.93894,-4.75812 28.96757,5.16192c8.275,5.1052 16.90574,13.97947 21.96417,25.90626z"/></g><g data-paper-data="{&quot;index&quot;:null}"><path d="M297.11661,223.85568c3.54708,-9.15172 9.83424,-17.45552 9.83424,-17.45552c0,0 -1.91846,-2.63885 -2.86261,-5.98795c-1.1972,-4.24671 -0.27618,-9.81613 3.75759,-11.16977c6.37531,-2.13942 9.93822,14.91367 9.93822,14.91367c0,0 56.68011,170.56133 56.54831,170.44676c-2.27366,-1.97624 -67.76093,-71.0782 -79.15019,-116.7574c-3.13586,-12.57708 -1.59132,-24.89306 1.93444,-33.98978z"/><path d="M311.32138,202.28152c-0.95083,0.31151 -2.27895,-1.1371 -2.96644,-3.23555c-0.68749,-2.09846 -0.47402,-4.05212 0.47681,-4.36363c0.95083,-0.31151 2.27895,1.1371 2.96644,3.23555c0.68749,2.09846 0.47402,4.05212 -0.47681,4.36363z"/></g></g><g data-paper-data="{&quot;index&quot;:null}" stroke="#29212e" stroke-width="2" stroke-linecap="round"><path d="M183.65743,-6.96305c0,0 8.58444,32.79992 8.65592,63.54383c0.04958,21.32321 -9.65795,38.02991 -9.12806,52.35159c0.49775,13.45286 18.89574,11.07852 18.89574,11.07852l-6.97751,7.5725l16.08016,-2.5536c0,0 -13.88518,25.57364 -33.40482,27.32134c-13.93068,1.24728 -28.59656,-3.57218 -34.90484,-15.35759c-5.31113,-9.92254 -3.69997,-25.78088 -0.687,-37.16454c5.3212,-20.10467 9.31653,-28.12777 7.87448,-40.54636c-2.80627,-24.16703 -19.8959,-37.08834 -22.97035,-85.15053c-1.01593,-15.88191 14.66483,-50.15459 33.96819,-55.6497c17.18273,-4.89146 33.16083,4.95107 33.16083,4.95107z" fill="#c48eda"/><path d="M158.60678,-2.34747c-19.63837,-26.09448 -25.67142,-46.97325 -25.67142,-46.97325c6.06495,-14.29976 16.64719,-28.78741 28.62399,-32.19687c17.18273,-4.89144 34.83321,4.95108 34.83321,4.95108c0,0 -3.58388,-11.81225 0.08811,-9.38349c49.86708,32.98359 -12.32322,78.98693 -12.32322,78.98693c0,0 3.8517,14.71684 6.41655,33.67467c0,0 -17.18533,-9.41761 -31.96723,-29.05907z" fill="#c7f3f6"/><path d="M151.76274,125.30588c3.44031,-8.07315 13.72238,-15.37954 19.76785,-20.93233c9.71605,-8.92423 15.85918,-16.51012 15.85918,-16.51012c-2.09502,7.64647 -3.94377,14.60092 -3.70446,21.06891c0.49773,13.45287 18.89573,11.07854 18.89573,11.07854l-6.97751,7.57249l16.08015,-2.55359c0,0 -13.88519,25.57365 -33.40482,27.32134c-5.01581,0.44908 -10.12693,0.11169 -14.90893,-1.05417c0,0 -20.02224,-6.24406 -11.60719,-25.99108z" fill="#87d2ed"/></g><path d="M241.22219,49.42892c15.13734,1.96081 37.95119,19.09414 38.78827,21.44553c3.58297,10.06472 19.28619,51.27696 32.29322,81.63592c1.37653,3.21288 2.72286,6.3042 4.02143,9.22418c1.96664,4.42221 3.84981,3.90505 5.55258,5.69835c2.6407,2.78108 1.38474,6.48027 1.38474,6.48027c0,0 6.47959,3.81641 6.5495,6.65466c0.23169,9.40535 -3.34964,15.44086 -12.49843,21.29112c-6.02166,3.85058 -17.73969,4.58446 -20.14575,5.34298c-1.08791,0.34297 -6.31028,-4.77446 -7.93744,-9.05116c-1.79483,-4.71739 -0.08218,-1.46967 -3.22484,-9.4373c-10.88628,-27.60016 -26.28328,-74.76579 -26.28328,-74.76579l-3.27817,-30.24306" data-paper-data="{&quot;index&quot;:null}" fill="#3a2f41" stroke="#3a2f41" stroke-width="2" stroke-linecap="round"/><g stroke-width="2"><g stroke="#3a2f41"><path d="M238.39535,181.92847c0,0 13.74348,-19.13258 32.00754,-11.81881c13.30234,5.32686 21.84825,28.40228 22.11903,50.9848c0.44362,36.99711 -13.33708,76.27061 -13.33708,76.27061c0,0 15.91824,49.08104 14.22621,57.7183c-2.78283,14.20541 -18.6719,90.70019 -18.6719,90.70019h-31.11983c0,0 -4.31946,-183.11626 -5.34697,-226.67613c-0.41613,-17.64137 0.123,-37.17896 0.123,-37.17896z" fill="#3a2f41" stroke-linecap="round"/><path d="M292.4183,227.03532c0,0 -0.0023,2.80965 -0.06865,4.25095c-0.06866,1.49161 -0.33659,4.55296 -0.33659,4.55296c0,0 -10.85413,5.06157 -27.58764,4.99263c-17.06126,-0.07029 -25.78626,-6.17464 -25.78626,-6.17464l-0.1833,-7.77036c0,0 9.5367,6.66626 25.8317,6.84623c20.48899,0.22629 28.13075,-6.69777 28.13075,-6.69777z" fill="#e1e2db" stroke-linecap="butt"/><path d="M237.83992,174.71368c0,0 9.85322,-20.16326 28.11728,-12.8495c12.16523,4.87151 24.79814,32.83238 26.31607,53.43967c-10.59531,3.974 -15.4169,5.57468 -24.83375,5.80265c-7.15812,0.17329 -20.13832,-1.68011 -29.24868,-5.45503z" fill="#e1e2db" stroke-linecap="butt"/><path d="M243.00083,419.56352l-0.32662,-13.84636l40.03263,1.16982l-2.673,13.36197z" fill="#e1e2db" stroke-linecap="butt"/><path d="M276.64445,436.36018l-33.15215,-0.58896l-0.31489,-10.92996c1.0132,0.02397 2.02641,0.04793 3.0396,0.07191c3.11194,0.07362 6.22368,0.13407 9.33596,0.18464c3.11167,0.05057 6.22336,0.10113 9.33504,0.1517c3.11167,0.05057 6.22336,0.10113 9.33504,0.1517c1.42169,0.0231 4.76306,0.14938 4.76306,0.14938z" fill="#e1e2db" stroke-linecap="butt"/></g><g data-paper-data="{&quot;index&quot;:null}" stroke="#3a2f41" stroke-linecap="butt"><path d="M276.21268,205.95925c-6.81391,10.27469 -38.04359,4.97346 -38.04359,4.97346l-0.22801,-43.43715l28.77842,-4.73309c0,0 13.63486,36.95156 9.49318,43.19679z" fill="#e1e2db"/><path d="M271.43601,202.53968c-3.71528,5.60864 -32.71825,3.11734 -32.71825,3.11734l-0.14997,-36.78606l23.43661,-3.97064c0,0 12.80747,32.42045 9.43162,37.63935z" fill="#3a2f41"/></g><path d="M238.00903,206.65441l-0.5,-16.25" data-paper-data="{&quot;index&quot;:null}" fill="none" stroke="#8c9ca0" stroke-linecap="round"/></g><g stroke-width="2"><g data-paper-data="{&quot;index&quot;:null}" stroke="#3a2f41"><path d="M225.24545,446.27907h-31.11983c0,0 -15.88907,-76.49478 -18.6719,-90.70019c-1.69203,-8.63727 14.22621,-57.7183 14.22621,-57.7183c0,0 -13.7807,-39.27351 -13.33708,-76.27061c0.27078,-22.58253 8.81669,-45.65794 22.11903,-50.9848c18.26405,-7.31376 32.25754,11.81882 32.25754,11.81882c0,0 0.28003,20.75733 -0.13719,39.18476c-0.99902,44.12443 -5.33678,224.67032 -5.33678,224.67032z" fill="#3a2f41" stroke-linecap="round"/><path d="M230.67394,216.14698c-9.11037,3.77492 -22.09057,5.62832 -29.24869,5.45503c-9.41685,-0.22797 -14.23844,-1.82865 -24.83375,-5.80265c1.51793,-20.60729 13.65084,-48.56816 25.81607,-53.43967c18.26405,-7.31376 28.61728,12.8495 28.61728,12.8495z" fill="#e1e2db" stroke-linecap="butt"/><path d="M188.83092,420.74444l-2.673,-13.36197l40.03264,-1.16982l-0.32662,13.84636z" fill="#e1e2db" stroke-linecap="butt"/><path d="M189.87866,426.04608c0,0 3.34137,-0.12627 4.76306,-0.14938c3.11167,-0.05057 6.22336,-0.10113 9.33504,-0.1517c3.11167,-0.05057 6.22336,-0.10113 9.33503,-0.1517c3.11228,-0.05057 6.22402,-0.11103 9.33596,-0.18464c1.0132,-0.02397 2.02641,-0.04793 3.03961,-0.07191l-0.31489,10.92996l-33.15215,0.58896z" fill="#e1e2db" stroke-linecap="butt"/></g><g stroke="#3a2f41" stroke-linecap="butt"><path d="M199.63833,162.76247l31.35749,4.73309l-0.24845,43.43715c0,0 -34.02842,5.30123 -41.45298,-4.97346c-4.51284,-6.24523 10.34393,-43.19679 10.34393,-43.19679z" fill="#e1e2db"/><path d="M204.776,164.90032l25.53696,3.97064l-0.16342,36.78606c0,0 -31.60215,2.4913 -35.65039,-3.11734c-3.67838,-5.21891 10.27685,-37.63935 10.27685,-37.63935z" fill="#3a2f41"/></g><path d="M231.25903,190.15441l-0.5,16.25" fill="none" stroke="#8c9ca0" stroke-linecap="round"/></g><g><path d="M226.97316,199.75936l-5.09644,-44.26858l20.34638,2.65391l-0.0948,38.10244z" fill="#3a2f41" stroke="#e1e2db" stroke-width="0" stroke-linecap="butt"/><path d="M241.77272,196.48291l-13.73459,3.2791" fill="none" stroke="#8c9ca0" stroke-width="1.5" stroke-linecap="round"/></g><path d="M269.54118,80.94256c-0.15022,1.94319 -0.36954,3.91685 -0.66074,5.85501c-1.66684,11.09438 -6.63456,27.90555 -6.63456,27.90555l0.09753,20.32528l4.33115,28.05812c0,0 -6.50274,11.85678 -28.13269,11.52625c-21.62911,-0.33052 -39.54514,-12.11242 -39.54514,-12.11242l3.50295,-28.96122c0,0 0.41506,-18.68764 -0.26555,-19.79881c-7.92798,-12.94335 -14.30972,-34.55608 -9.43873,-48.95802c1.71065,-5.05781 29.22246,-19.54657 51.85198,-13.49873" fill="#3a2f41" stroke="#8c9ca0" stroke-width="2" stroke-linecap="round"/><path d="M235.9058,58.68486c-4.99155,0 -11.98801,0.49129 -16.06476,-3.08092c-1.14879,-1.00662 -2.98633,-7.70603 -3.35767,-8.27245c-0.57191,-0.87234 11.01566,-9.3269 14.93754,-9.58786c3.00581,-0.2 18.2808,9.67673 17.62351,10.57194c-0.41513,0.56538 -1.03159,6.04056 -3.76901,8.66302c-2.03273,1.94736 -5.8331,1.20023 -8.42856,1.62747c-0.3137,0.05164 -0.62764,0.07878 -0.94102,0.07878z" fill="#3a2f41" stroke="#3a2f41" stroke-width="2" stroke-linecap="butt"/><g fill="#3a2f41" stroke-width="2"><path d="M203.42344,82.64847l-3.27817,28.13472c0,0 -32.50076,88.64331 -38.94557,86.7532c-6.06161,-1.77772 -19.64418,-18.77735 -19.64418,-18.77735c0,0 32.2414,-92.20999 38.30148,-108.0463c0.83707,-2.18747 23.65094,-18.12637 38.78827,-19.95049" stroke="#3a2f41" stroke-linecap="round"/><g><path d="M126.6127,288.03505l42.35127,42.41768l-51.5018,-16.578z" stroke-opacity="0.07705" stroke="#ffffff" stroke-linecap="round"/><path d="M126.33445,300.64399l29.61617,52.11307l-45.27856,-29.61617z" stroke-opacity="0.08512" stroke="#ffffff" stroke-linecap="round"/><path d="M146.69367,180.66027l8.37054,-18.72711l0.79219,17.09848l15.88927,-28.59786l-6.11716,25.79906l6.88077,-6.35384c0,0 -14.02493,50.33217 -16.39748,63.72382c-1.52085,8.5843 -2.31348,14.51745 -2.31348,14.51745l25.90915,26.3415l-3.21197,49.42835l-10.73517,-32.66582l-16.82075,-7.94862l-22.16667,44.30826l12.79194,43.54258l-27.70515,-37.03671l-1.20155,-32.6095l0.34713,24.66892l-9.0733,-12.88357l0.3277,-46.93297l49.71736,-110.21088z" stroke="#3a2f41" stroke-linecap="butt"/></g></g><g><g><g><g><g><g fill="none" stroke="none" stroke-width="1" stroke-linecap="butt" font-family="sans-serif" font-weight="normal" font-size="12" text-anchor="start"><g><g/></g></g><g fill="#3a2f41" stroke="#8c9ca0" stroke-width="2" stroke-linecap="round"><g><g><path d="M264.92715,67.0294c0,0 10.36335,11.25562 13.58723,23.54143c2.24323,8.54874 -1.55328,18.95147 -8.44134,23.27983c-7.11417,4.47044 -18.29859,3.56519 -27.02754,3.61064c-13.19487,0.09469 -35.27855,5.93748 -44.77479,-7.07951c-5.61936,-7.70274 -3.94691,-21.88963 1.52673,-33.02037"/></g></g></g></g></g><path d="M202.39292,83.45076c-2.40871,9.08848 -4.66685,17.86882 -5.78294,17.54326c-1.11608,-0.32557 -1.26678,-10.68164 1.14194,-19.77011c2.40871,-9.08848 5.86544,-15.14433 6.98152,-14.81877c1.11608,0.32557 0.06819,7.95716 -2.34052,17.04563z" fill="#3a2f41" stroke="none" stroke-width="0" stroke-linecap="butt"/></g><path d="M268.04168,79.41117c-0.83689,5.82747 -6.0617,-8.07802 -6.0617,-13.97128c0,-3.99782 3.62671,-0.6755 9.60893,11.06344c1.3787,2.70545 3.14337,6.76881 4.47924,10.49483z" fill="#3a2f41" stroke="none" stroke-width="0" stroke-linecap="butt"/></g><path d="M200.20343,86.4785c0,0 23.34878,-26.6837 33.79522,-27.06619c12.48221,-0.45704 37.28123,25.62534 37.28123,25.62534c0,0 -9.58427,4.04555 -17.35681,9.92883c-7.11797,5.38782 -12.44762,14.69333 -13.12988,13.97006c-14.16748,-15.01904 -40.58975,-22.45804 -40.58975,-22.45804z" fill="#e1e2db" stroke="none" stroke-width="0" stroke-linecap="butt"/><path d="M241.00698,99.04344c1.96423,5.68064 0.39302,11.47827 -0.89835,11.95932c-0.64364,0.23976 0.0086,-1.21961 0.41269,-3.41355c0.40666,-2.20791 0.56414,-5.16019 -0.42109,-8.00953c-1.96423,-5.68064 -4.98804,-9.95095 -4.98804,-9.95095c0,0 3.93056,3.73406 5.89479,9.4147z" fill="#3a2f41" stroke="none" stroke-width="0" stroke-linecap="butt"/><path d="M242.60112,88.44421c0,0 -1.7574,3.56319 -2.90174,8.39594c-0.22247,-0.36687 -0.46719,-0.71874 -0.73229,-1.05375c1.37042,-4.38354 3.63403,-7.34218 3.63403,-7.34218z" data-paper-data="{&quot;index&quot;:null}" fill="#3a2f41" stroke="none" stroke-width="0" stroke-linecap="butt"/></g><g><path d="M300.18969,-26.64787z" data-paper-data="{&quot;index&quot;:null}" fill="#e1e2db" stroke="#3a2f41" stroke-width="2" stroke-linecap="butt"/><g data-paper-data="{&quot;index&quot;:null}"><path d="M227.13286,-65.47675c31.11025,0 57.99675,18.00844 57.99675,46.80196c0,12.8775 -3.98078,33.06157 -12.3406,42.15778c-10.33235,11.24251 -28.12619,15.97751 -45.32281,15.97751c-31.11025,0 -65.19526,-12.11885 -63.99675,-49.30196c1.19851,-37.18311 32.55316,-55.63529 63.66341,-55.63529z" fill="#eed0fa" stroke="#3a2f41" stroke-width="2" stroke-linecap="butt"/><g data-paper-data="{&quot;index&quot;:null}" stroke-linecap="butt"><path d="M275.67894,10.95243c0,8.43687 -0.66197,15.96369 -7.16908,21.40964c-6.32553,5.29399 -18.28745,8.62159 -32.77383,8.90728c-15.39419,0.30361 -31.19911,-2.56815 -37.48058,-8.75621c-5.55377,-5.47118 -2.46233,-13.75306 -2.46233,-21.56071c0,-16.63833 12.15286,-37.77266 45.67312,-36.85511c22.04983,0.60357 34.2127,20.21676 34.2127,36.85511z" fill="#e1e2db" stroke="none" stroke-width="0"/><path d="M241.26624,-25.90268c22.04983,0.60357 34.2127,20.21676 34.2127,36.85511c0,16.63833 -16.30065,6.17442 -34.3906,6.30644c-18.08633,0.13199 -45.49521,10.33189 -45.49521,-6.30644c0,-16.63833 12.15286,-37.77266 45.67312,-36.85511z" fill="#b8c1c0" stroke="none" stroke-width="0"/><path d="M247.51531,-25.18722c18.08731,3.73799 27.96362,21.14662 27.96362,36.13965h-0.00001c0,7.89224 -1.34882,15.31677 -6.98194,20.6579c-6.24256,5.91898 -17.5126,9.35435 -32.96096,9.65903c-10.6889,0.21081 -22.92416,-1.5914 -29.06261,-4.78428c-10.51861,-5.47121 -10.8803,-15.02586 -10.8803,-25.53265c0,-14.12276 8.75584,-31.48477 31.90265,-35.8508" fill="none" stroke="#3a2f41" stroke-width="2"/></g><path d="M233.33578,-45.78623c4.42188,-5.11532 9.60849,-7.83656 15.07815,-7.84013c14.50842,-0.00948 30.84643,15.77566 38.96961,31.72098c11.87401,23.30801 7.73603,48.65587 7.73603,48.65587c0,0 -1.58154,-11.17696 -3.25503,-18.02255c-1.8406,-7.52913 1.8405,9.84044 -3.38836,20.06006c-6.26369,12.24216 -17.79724,16.88207 -17.79724,16.88207c0,0 14.82141,-20.56029 8.56823,-13.54387c-9.96387,10.38797 -22.92832,11.81027 -22.92832,11.81027l0.6922,-5.87593c0,0 22.937,-5.8218 15.88077,-34.52036c-3.10944,-12.64648 -13.78656,-24.66925 -13.78656,-24.66925l-54.08551,-0.14459c-16.4502,34.80437 4.62016,44.90006 4.62016,44.90006c0,0 -6.14128,0.24312 -10.17665,-3.21374c-0.03577,-0.03064 1.74508,5.09933 5.7527,11.81261c3.9594,6.63252 10.587,11.01683 10.587,11.01683c0,0 -22.93636,-0.11368 -34.07914,-13.94242c-8.0337,-7.45191 -4.46124,-19.98921 -5.38035,-14.00212c-1.00096,6.96955 0.2727,13.74172 0.2727,13.74172c0,0 -3.42198,-5.30254 -4.30784,-14.51946c-0.89545,-9.31678 0.77058,-22.61375 5.57448,-34.82986c9.00227,-22.8924 35.46082,-48.17429 55.33034,-25.36" fill="#eed0fa" stroke="#3a2f41" stroke-width="2" stroke-linecap="round"/><path d="M257.98089,-36.50613c24.82941,18.3192 17.65634,49.56492 17.65634,49.56492c0,0 -6.05925,0.07236 -13.98622,-4.13972c-7.52049,-3.99609 -11.40818,-9.19498 -11.40818,-9.19498c0,0 -1.06003,6.36317 -7.82535,12.60198c-10.56861,9.7461 -20.63214,9.00726 -20.63214,9.00726c0,0 6.19666,-11.00646 2.13036,-26.61181c-9.48107,17.29749 -26.08663,18.04024 -26.08663,18.04024c0,0 -6.79487,-28.44572 15.72739,-47.67159" fill="#eed0fa" stroke="#a17ab0" stroke-width="2" stroke-linecap="round"/><path d="M250.74331,-45.04594c3.2217,-1.58355 12.47039,9.24473 18.60157,21.71852c6.13119,12.47378 6.82312,21.86951 3.60141,23.45306c-3.22171,1.58355 -10.80373,-7.24473 -16.93491,-19.71852c-6.13118,-12.47378 -8.48978,-23.86951 -5.26807,-25.45306z" fill="#eed0fa" stroke="none" stroke-width="0" stroke-linecap="butt"/><path d="M217.54152,-19.22488c-6.13118,12.47379 -13.7132,21.30207 -16.93491,19.71852c-3.22171,-1.58355 -2.52978,-10.97928 3.60141,-23.45306c6.13118,-12.47379 15.37987,-23.30207 18.60157,-21.71852c3.22171,1.58355 0.86311,12.97928 -5.26807,25.45306z" data-paper-data="{&quot;index&quot;:null}" fill="#eed0fa" stroke="none" stroke-width="0" stroke-linecap="butt"/></g><g stroke="#3a2f41" stroke-linecap="butt"><path d="M196.84241,19.64015c0,0 6.09384,-6.63125 17.11532,-6.55938c11.67729,0.07614 17.83528,8.21003 17.83528,8.21003c0,0 -7.40851,-0.65733 -18.03714,-1.01131c-9.44467,-0.31454 -16.91345,-0.63931 -16.91345,-0.63931z" fill="#e1e2db" stroke-width="1"/><g fill="#3a2f41" stroke-width="0.5"><path d="M217.88785,19.6883c0,0 -0.91896,-3.90284 1.0859,-6.03994c0.29088,-0.0564 7.84439,2.76197 8.82478,3.62273c1.47262,1.29293 0.62399,3.37776 0.62399,3.37776z"/></g></g><path d="M246.95074,29.34386c-2.65764,2.47013 -7.90597,0.22717 -9.76227,0.02024c-1.52497,-0.17 -6.5497,1.47296 -10.43773,-0.324" fill="none" stroke="#3a2f41" stroke-width="1" stroke-linecap="round"/><path d="M208.50074,-11.27907c0,0 7.2251,-15.51694 14.8,-17.2" fill="none" stroke="#3a2f41" stroke-width="1" stroke-linecap="round"/></g></g></g></svg>