<svg version="1.1" xmlns="http://www.w3.org/2000/svg" xmlns:xlink="http://www.w3.org/1999/xlink" width="232.46176" height="377.1571" viewBox="0,0,232.46176,377.1571"><g transform="translate(-106.66537,-27.43352)"><g data-paper-data="{&quot;isPaintingLayer&quot;:true}" fill-rule="nonzero" stroke-linejoin="miter" stroke-miterlimit="10" stroke-dasharray="" stroke-dashoffset="0" style="mix-blend-mode: normal"><g fill="#3a2f41" stroke="#3a2f41" stroke-linecap="butt"><path d="M267.60137,190.69828c3.84745,46.57183 47.30804,79.60772 46.59171,79.82519c-3.11292,1.81994 -37.00875,-19.54689 -53.14501,-40.21793c-6.53048,-8.36572 -38.19,-27.7125 -46.27052,-43.47478c-6.61135,-12.89644 8.5225,-22.86791 16.26367,-26.85646c7.24879,-3.73486 34.49447,5.71957 36.56017,30.72398z" data-paper-data="{&quot;index&quot;:null}" stroke-width="1.5"/><path d="M257.29425,150.61404c-0.35102,12.03949 -18.03174,17.40656 -35.62292,17.72339c-1.45758,0.02626 -2.70952,-23.86158 -4.13741,-23.90321c-3.87896,-0.11309 -7.98055,23.37852 -11.72997,22.71761c-14.28803,-2.51853 -26.31467,-8.99937 -26.01358,-19.32644c0.4349,-14.91655 14.38046,-27.29894 26.15348,-33.87493c6.60236,-3.68784 14.2459,-5.17145 14.2459,-5.17145c0,0 6.31143,1.65962 11.69005,4.94964c11.14489,6.81718 25.88129,20.06845 25.41412,36.09187z" stroke-width="2"/><path d="M213.4013,127.05679c2.66189,5.69482 -14.01027,18.77164 -27.61429,25.65937c-13.60403,6.88774 -31.34012,-4.01462 -32.20677,-10.3023c-0.32507,-0.45315 19.26769,1.78257 32.85656,-13.12458c13.58887,-14.90715 24.30261,-7.92731 26.96451,-2.2325z" stroke-width="1.5"/><path d="M215.50263,127.53789c13.60332,13.19372 -5.85292,25.50313 -20.93536,36.90068c-20.49711,15.4893 -53.42363,12.5786 -56.95076,5.81185c-0.60693,-0.40364 30.46604,-9.36225 42.83597,-30.94936c12.36994,-21.58711 29.31802,-17.3227 35.05016,-11.76316z" stroke-width="1.5"/><path d="M251.83646,130.13537c12.69728,15.67353 32.38701,14.5831 32.0361,15.01655c-1.23151,6.22651 -19.57266,16.07702 -32.75229,8.4084c-13.17962,-7.66861 -29.0616,-21.69456 -26.07244,-27.22462c2.98915,-5.53005 14.09135,-11.87385 26.78864,3.79969z" data-paper-data="{&quot;index&quot;:null}" stroke-width="1.5"/><path d="M257.7229,139.993c11.09124,22.27114 41.58948,33.02489 40.96007,33.39247c-3.91539,6.54976 -36.95557,7.53719 -56.51542,-9.12c-14.39279,-12.25691 -33.09883,-25.67895 -18.74993,-38.05772c6.04631,-5.21615 23.21406,-8.4859 34.3053,13.78523z" data-paper-data="{&quot;index&quot;:null}" stroke-width="1.5"/><path d="M219.18924,142.6091c6.1215,5.93719 17.50868,19.63417 7.92886,30.23651c-11.70863,12.95838 -46.26259,22.95805 -54.55792,29.2267c-20.49711,15.4893 -57.66626,26.82353 -60.0702,24.22835c-0.60693,-0.40364 48.55606,-20.35801 64.55908,-64.08542c8.59203,-23.47723 36.40803,-25.16569 42.14017,-19.60615z" stroke-width="1.5"/><path d="M259.98291,162.48102c13.42824,44.58547 61.34515,67.37024 60.71573,67.73783c-2.55105,2.45071 -48.27855,-0.53953 -69.86624,-18.69062c-7.91602,-6.74129 -30.51907,-27.73345 -41.45283,-41.35198c-8.94583,-11.14245 3.22,-24.15276 9.67702,-29.72322c6.04631,-5.21615 33.71669,-1.90996 40.92631,22.02798z" data-paper-data="{&quot;index&quot;:null}" stroke-width="1.5"/><path d="M211.12436,156.21426c6.94934,4.5768 20.27987,15.54631 12.42995,26.80097c-9.59433,13.75565 -28.97836,44.28523 -36.21861,51.33489c-33.07025,25.34362 -70.1268,13.26402 -72.89594,11.22264c-0.66087,-0.28249 23.79616,-13.9809 33.13351,-39.37959c31.80172,-21.56924 57.04376,-54.26457 63.55108,-49.97888z" data-paper-data="{&quot;index&quot;:null}" stroke-width="1.5"/><path d="M274.47487,218.78622c7.24914,61.8973 64.80256,103.82977 63.89157,104.15439c-3.91573,2.57703 -34.97778,-4.18648 -56.76132,-30.96028c-8.81597,-10.83557 -64.11679,-55.1684 -75.29233,-75.789c-9.14365,-16.87143 9.83777,-30.89782 19.60191,-36.59017c9.14308,-5.33026 44.66812,5.9524 48.5602,39.18505z" data-paper-data="{&quot;index&quot;:null}" stroke-width="1.5"/><path d="M174.40482,304.10456c-1.45532,0.25855 -7.11823,-3.55335 -8.5166,-2.83226c-24.39825,12.58132 -58.29032,24.65895 -58.42061,23.97135c31.0115,-37.71616 21.18486,-57.24754 45.83891,-84.43766c8.06092,-6.01098 42.85773,-48.46822 57.70508,-55.57523c12.14786,-5.81484 20.8908,47.24244 23.85869,55.21769c2.77911,7.46797 -33.92571,35.4269 -60.46546,63.65611zM130.54516,293.86001c0.20025,0.00584 3.7953,-4.1622 7.31173,-11.67613c2.66458,-5.69369 4.91311,-14.03214 7.73444,-19.77779c4.08166,-8.31232 7.80311,-14.16241 7.80975,-14.3905c0,0 -5.40883,4.72257 -10.11342,13.27013c-2.95904,5.37613 -4.79166,12.2318 -7.13595,18.55858c-2.76404,7.45957 -5.78533,14.01051 -5.60656,14.01572z" data-paper-data="{&quot;index&quot;:null}" stroke-width="1.5"/><path d="M294.1669,297.72395c6.26661,33.48976 -17.36049,79.8826 -21.03815,83.24343c-4.05942,3.70966 -3.43505,-40.93532 -33.39718,-69.35352c-23.96996,-22.7348 -11.86198,-67.99187 0.85078,-70.7128c12.71277,-2.72092 47.31795,23.33312 53.58455,56.82289zM281.17089,361.36311c4.50305,-9.67304 12.64181,-44.10961 10.64715,-57.31992c0,0 -1.49873,12.6665 -4.03487,26.21509c-2.83923,15.16786 -6.7439,31.38753 -6.61229,31.10482z" stroke-width="1.5"/><path d="M257.40007,334.0423c-14.05185,35.75552 -63.15007,68.88037 -69.23184,69.78244c-6.71303,0.9957 10.82535,-44.97541 -3.98439,-90.68773c-11.84791,-36.57025 34.98107,-71.89412 50.46547,-66.55226c15.48438,5.34188 36.80262,51.70202 22.75077,87.45755z" stroke-width="1.5"/><path d="M208.0944,319.68316c-19.78814,31.65 -65.91972,57.35018 -71.56001,56.8309c-1.4175,0.28441 19.0759,-44.64089 14.95452,-92.64543c-3.29712,-38.40405 40.90479,-63.51819 53.73237,-54.74387c12.82758,8.77431 22.66126,58.90842 2.87312,90.55841z" stroke-width="1.5"/><path d="M182.25036,116.83496c1.864,-8.40297 5.20708,-18.74734 8.65795,-28.39587c1.34561,-0.1571 3.52057,-0.41099 4.71846,-0.55083l-0.17,-1.60329c-0.84464,0.0986 -3.17571,0.37074 -4.02036,0.46934c0.12207,-0.33602 0.53049,-1.24542 0.6525,-1.57909c1.13184,-0.13213 2.40648,-0.28094 3.35336,-0.39149l-0.17001,-1.60329c-0.56451,0.06589 -1.81509,0.2119 -2.3796,0.2778c5.06759,-13.66459 17.1254,-33.83642 16.83057,-28.87484c-0.29482,4.96157 1.95112,72.05022 1.95112,72.05022c0,0 -32.94775,24.34429 -34.64787,13.10682z" data-paper-data="{&quot;index&quot;:null}" stroke-width="0.5"/><path d="M259.12908,140.93848c-2.35194,11.11934 -33.82539,-15.10318 -33.82539,-15.10318c0,0 6.15079,-66.84383 6.14554,-71.81415c-0.00526,-4.97033 19.19049,35.1871 23.79936,63.74643z" data-paper-data="{&quot;index&quot;:null}" stroke-width="0.5"/></g><path d="M254.90194,144.16135c-0.31702,10.87331 -16.28513,15.72051 -32.17237,16.00664c-1.3164,0.02371 -2.44706,-21.55025 -3.73664,-21.58785c-3.50321,-0.10213 -7.20753,21.11399 -10.59375,20.51711c-12.90404,-2.27457 -23.76574,-8.12766 -23.49381,-17.45441c0.39277,-13.47169 12.98753,-24.65467 23.62017,-30.59368c5.96284,-3.33063 12.86599,-4.67052 12.86599,-4.67052c0,0 5.70009,1.49885 10.55771,4.4702c10.06536,6.15685 23.37434,18.12454 22.95242,32.59587z" fill="#3a2f41" stroke="none" stroke-width="0" stroke-linecap="butt"/><path d="M252.24612,147.19001c-1.04839,19.18667 -12.11252,26.80932 -12.11252,26.80932c0,0 2.56343,-16.73152 1.43966,-31.1182" data-paper-data="{&quot;index&quot;:null}" fill="#3a2f41" stroke="#b8c1c0" stroke-width="2" stroke-linecap="round"/><path d="M246.40592,162.23804c-1.76561,2.75002 4.64237,-25.01038 5.16694,-25.08138c0.66747,-0.09034 1.72259,3.44635 2.3567,7.89943c0.63409,4.45307 -5.33893,17.2882 -5.18964,16.69025c2.25272,-5.25922 3.43193,-11.49666 2.79784,-15.94974c-0.13575,-0.95332 -1.13685,10.21914 -5.13182,16.44146z" data-paper-data="{&quot;index&quot;:null}" fill="#3a2f41" stroke="none" stroke-width="0" stroke-linecap="butt"/><path d="M202.26296,140.73253c-1.59809,12.13776 -1.40172,31.57137 -1.40172,31.57137c0,0 -10.88799,-7.22201 -12.21079,-28.77938" fill="#3a2f41" stroke="#b8c1c0" stroke-width="2" stroke-linecap="round"/><path d="M187.4998,143.92294c-0.12906,4.42689 1.30181,10.3719 2.48115,15.43729c0.13221,0.56783 -4.17221,-11.05595 -4.04315,-15.48284c0.12906,-4.42689 0.58336,-8.0054 1.01469,-7.99283c0.33898,0.00989 6.03606,26.03078 4.73978,23.54182c-2.93301,-5.63163 -4.16485,-16.45117 -4.19248,-15.50344z" fill="#3a2f41" stroke="none" stroke-width="0" stroke-linecap="butt"/><g stroke-linecap="butt"><path d="M244.2268,146.47354c-0.15416,5.28763 -0.66833,9.99392 -4.77783,13.29014c-3.99483,3.20424 -11.11362,4.14307 -20.04605,4.06185c-8.8905,-0.08083 -16.45983,-2.4138 -20.28151,-5.98383c-3.86628,-3.61164 -4.27692,-7.55939 -4.12403,-12.80347c0.30403,-10.42772 8.17935,-23.45486 28.81938,-22.27755c13.57711,0.77444 20.71408,13.28512 20.41005,23.71285z" fill="#e1e2db" stroke="none" stroke-width="0"/><path d="M244.95056,148.38436c-0.64864,6.20632 -10.87553,1.45022 -22.02582,1.20793c-11.14807,-0.24223 -28.22508,5.65789 -27.92106,-4.76983c0.30403,-10.42772 8.17935,-23.45487 28.81938,-22.27756c13.57711,0.77444 21.4976,13.146 21.19358,23.57373z" fill="#b8c1c0" stroke="none" stroke-width="0"/><path d="M227.86233,123.32742c9.64375,2.3223 15.57626,8.08982 16.50041,17.5048c0.2346,2.39006 0.54631,7.34163 0.12257,9.91741c-0.6145,3.73538 -0.74045,5.71207 -3.544,8.26207c-3.95511,3.59743 -11.48773,4.91575 -21.01331,4.82914c-6.5807,-0.05984 -14.04463,-1.6133 -17.7674,-3.71885c-6.39478,-3.61679 -7.13827,-8.81055 -6.94611,-15.40138c0.25806,-8.85114 5.96163,-19.25141 20.30556,-21.57186" fill="none" stroke="#3a2f41" stroke-width="2"/></g><path d="M253.23916,140.33569c-2.47327,1.45315 -4.00941,4.26685 -7.0113,4.30976c-7.51488,0.1074 -15.29449,-3.24705 -19.4028,-8.27617c-5.81015,-6.53539 -4.21856,-17.95399 -1.9581,-20.20647c2.29538,-2.28728 10.1675,0.72387 16.24004,7.30293z" data-paper-data="{&quot;index&quot;:null}" fill="#3a2f41" stroke="none" stroke-width="0" stroke-linecap="butt"/><path d="M225.8144,118.43885c2.35237,4.41158 -4.48247,15.18962 -13.51691,20.40397c-3.56599,2.05816 -10.99313,4.10625 -12.00426,4.73812c-0.84151,0.52588 -6.31487,1.9123 -5.88807,3.26374c1.18978,3.76741 -2.52253,-4.77314 -3.6676,-6.92057c-2.35237,-4.41158 3.06451,-12.21494 12.09895,-17.4293c9.03444,-5.21433 20.62552,-8.46754 22.9779,-4.05596z" fill="#3a2f41" stroke="none" stroke-width="0" stroke-linecap="butt"/><path d="M230.51456,132.64632c-2.44059,10.1764 -13.34544,18.4477 -24.04825,17.94593c-0.23554,-0.02478 8.83757,-7.91502 9.15923,-18.94768c0.21314,-7.31039 4.94792,-12.53593 8.34136,-12.43699c3.34025,0.09738 6.58067,5.46967 6.45653,12.62411c-0.00199,0.11395 0.1178,0.70337 0.09111,0.81468z" data-paper-data="{&quot;index&quot;:null}" fill="#3a2f41" stroke="none" stroke-width="0" stroke-linecap="butt"/><path d="M220.77812,132.54572c-7.18834,10.65805 -20.82801,13.43085 -23.92295,13.89556c-3.09494,0.46471 -2.33996,-2.64788 -2.45346,-3.47634c-0.1135,-0.82846 2.38358,-9.97322 5.47853,-10.43792c3.09494,-0.4647 20.7844,-0.80974 20.8979,0.01871z" fill="#3a2f41" stroke="none" stroke-width="0" stroke-linecap="butt"/><g stroke="#3a2f41" stroke-linecap="butt"><path d="M199.16138,149.07894c0,0 2.85496,-3.26624 7.93847,-3.22067c5.38601,0.04828 8.17263,4.06715 8.17263,4.06715c0,0 -3.41305,-0.33112 -8.3135,-0.51552c-4.35456,-0.16386 -7.79761,-0.33096 -7.79761,-0.33096z" fill="#e1e2db" stroke-width="1"/><g fill="#3a2f41" stroke-width="0.5"><path d="M207.3429,148.735l0.05688,-2.51147l0.54672,0.01178l0.01939,2.77961z"/></g></g><path d="M249.16407,143.58596c0,0 -5.00117,6.23261 -15.78379,1.67344c-5.75615,-2.43385 -8.27369,-10.66364 -8.16755,-14.30392c0,0 2.47325,9.887 10.66193,12.7752c6.20009,2.18682 11.1329,0.16024 12.69346,-0.38581c0.32934,-0.11524 0.59597,0.24109 0.59597,0.24109z" fill="#3a2f41" stroke="none" stroke-width="0" stroke-linecap="butt"/><path d="M240.96634,199.71997c-1.07949,7.18501 -7.10309,18.71999 -7.10309,18.71999l-32.33495,-0.5156c0,0 -10.4494,-17.0364 -7.86136,-29.77441c1.01597,-5.00047 13.19048,-11.78245 19.30054,-11.75359c3.79378,0.01791 10.53704,-0.88685 16.30149,1.06924c0,0 8.50861,3.28168 10.62533,7.2399c3.30521,6.18067 1.07203,15.01447 1.07203,15.01447z" fill="#3a2f41" stroke="#8c9ca0" stroke-width="2" stroke-linecap="round"/><g data-paper-data="{&quot;index&quot;:null}"><g stroke-linecap="butt"><path d="M177.15213,134.87003c1.84586,-0.2977 6.58096,5.81 6.58096,5.81l3.29007,43.44823l-14.59389,2.66633l-4.03236,-48.73432z" data-paper-data="{&quot;index&quot;:null}" fill="#e1e2db" stroke="none" stroke-width="0"/><path d="M186.5979,175.81574c0.34704,2.89364 0.83449,8.27984 0.83449,8.27984l-15.22651,2.52765l-0.78483,-9.11142c0,0 3.97006,-4.40857 7.33456,-4.78456c3.3645,-0.376 7.8423,3.08849 7.8423,3.08849z" data-paper-data="{&quot;index&quot;:null}" fill="#8c9ca0" stroke="none" stroke-width="0"/><path d="M168.49028,138.63566c0,0 6.60348,-2.95287 8.67608,-3.28714c2.32139,-0.37439 6.56598,2.34267 6.56598,2.34267l3.3847,46.12238l-14.59391,2.66633z" data-paper-data="{&quot;index&quot;:null}" fill="none" stroke="#3a2f41" stroke-width="2.5"/></g><g stroke="#8c9ca0" stroke-width="2" stroke-linecap="round"><path d="M202.83522,213.75441c0,0 1.51651,-1.48559 1.14595,-1.39153c-3.85935,0.97975 -27.70542,7.76193 -30.00404,-0.22737c-3.03627,-10.55318 -4.51299,-26.31008 -4.51299,-26.31008c0,0 3.61884,-5.91692 11.3684,-6.34957c7.74957,-0.43265 13.19589,4.9225 13.19589,4.9225l4.79661,9.79882" fill="#3a2f41"/><path d="M170.6471,190.96784c0,0 3.70052,-5.10776 10.96316,-5.49406c6.99463,-0.37206 12.04104,4.74045 12.04104,4.74045" fill="none"/></g></g><g data-paper-data="{&quot;index&quot;:null}"><g stroke-linecap="butt"><path d="M264.25516,263.51153c-1.71812,0.73746 -7.79588,-4.03603 -7.79588,-4.03603l-13.75288,-41.34527l13.50802,-6.13386l15.75786,46.29236z" data-paper-data="{&quot;index&quot;:null}" fill="#e1e2db" stroke="none" stroke-width="0"/><path d="M253.49739,227.17961c-3.17217,1.18257 -8.35783,-1.08952 -8.35783,-1.08952c-1.04001,-2.72249 -2.82214,-7.82864 -2.82214,-7.82864l14.15537,-6.15313l2.97612,8.64735c0,0 -2.77935,5.24139 -5.95152,6.42395z" data-paper-data="{&quot;index&quot;:null}" fill="#8c9ca0" stroke="none" stroke-width="0"/><path d="M271.74181,257.75332c0,0 -5.68762,4.4695 -7.6168,5.29755c-2.16075,0.92745 -6.9385,-0.67634 -6.9385,-0.67634l-14.4947,-43.9162l13.50803,-6.13387z" data-paper-data="{&quot;index&quot;:null}" fill="none" stroke="#3a2f41" stroke-width="2.5"/></g><g stroke="#8c9ca0" stroke-width="2" stroke-linecap="round"><path d="M234.0107,179.83648c0,0 9.97012,0.07395 14.54241,7.95532c5.51049,9.49859 10.77313,24.42391 10.77313,24.42391c0,0 -2.07199,6.6191 -9.48395,8.92257c-7.41196,2.30346 -13.99665,-1.56717 -13.99665,-1.56717l-5.79291,-21.02716" fill="#3a2f41"/><path d="M256.92868,207.51509c0,0 -2.34791,5.85408 -9.29881,7.99422c-6.6944,2.06117 -12.8322,-1.67131 -12.8322,-1.67131" fill="none"/></g></g><g><path d="M224.74113,173.88911c0,1.80463 -4.66942,5.15157 -6.65288,5.15157c-1.98346,0 -6.53514,-2.99369 -6.53514,-4.79832c0,-1.80463 4.7283,-2.79657 6.71176,-2.79657c1.98346,0 6.47626,0.63869 6.47626,2.44332z" fill="#3a2f41" stroke="none" stroke-width="0" stroke-linecap="butt"/><g fill="#8c9ca0" stroke="#8c9ca0" stroke-width="1.5" stroke-linecap="butt"><path d="M202.59116,186.38968c-0.68147,-0.66711 8.42891,-12.94195 8.42891,-12.94195l6.8036,5.14301l7.20499,-5.73784c0,0 9.19766,12.33612 8.66343,13.01277c-0.29539,0.37414 -3.52864,-1.3346 -7.55214,-2.56146c-3.70122,-1.12859 -8.23054,-1.76973 -8.23054,-1.76973c0,0 -4.7947,1.22469 -8.71731,2.55905c-3.58667,1.22008 -6.31681,2.57431 -6.60095,2.29615z"/></g><path d="M211.02323,174.91942l0.44745,-1.6956l6.45271,-1.95465l6.69998,1.44832l0.7065,1.73093" fill="none" stroke="#8c9ca0" stroke-width="1.5" stroke-linecap="round"/></g><g fill="#3a2f41"><path d="M231.43873,218.17987l-0.41524,8.07273c0,0 1.4509,3.27779 2.90452,8.01485c1.42964,4.65891 1.81387,8.19332 1.81387,8.19332c0,0 -2.97914,2.22717 -6.6491,4.14565c-3.77145,1.97153 -8.27246,3.6352 -11.01958,3.58936c-2.35891,-0.03937 -6.51268,-1.50585 -9.99415,-3.09687c-4.19486,-1.91705 -7.55996,-4.01489 -7.55996,-4.01489c0,0 0.17696,-3.9586 1.65863,-9.39837c1.17758,-4.32333 2.08503,-7.20846 2.08503,-7.20846c0,0 0.06421,-8.90298 0.05192,-8.90944" stroke="#8c9ca0" stroke-width="1.5" stroke-linecap="round"/><path d="M237.07444,188.51454c7.58612,8.99599 10.09853,19.79766 10.09853,19.79766c0,0 -6.81333,9.3107 -16.25202,15.15024l-26.31369,-0.12982c-13.62973,-7.22603 -16.18425,-14.65137 -16.18425,-14.65137c0,0 2.54784,-9.91585 9.80468,-19.13437" stroke="#8c9ca0" stroke-width="1.5" stroke-linecap="round"/><path d="M204.73537,227.58026v-9.58487h25.90505v9.58487z" stroke="none" stroke-width="0" stroke-linecap="butt"/></g><path d="M222.1418,195.17139c0,2.14604 -1.77596,3.88575 -3.96671,3.88575c-2.19075,0 -3.96671,-1.73971 -3.96671,-3.88575c0,-2.14604 1.77596,-3.88576 3.96671,-3.88576c2.19075,0 3.96671,1.73971 3.96671,3.88576z" fill="#8c9ca0" stroke="#3a2f41" stroke-width="1" stroke-linecap="butt"/><path d="M222.3037,205.69531c0,2.14604 -1.77596,3.88575 -3.96671,3.88575c-2.19075,0 -3.96671,-1.73971 -3.96671,-3.88575c0,-2.14604 1.77596,-3.88576 3.96671,-3.88576c2.19075,0 3.96671,1.73972 3.96671,3.88576z" fill="#8c9ca0" stroke="#3a2f41" stroke-width="1" stroke-linecap="butt"/><g stroke="#3b3045" stroke-linecap="butt"><path d="M224.81603,159.62947c-0.24924,2.15069 -2.50419,3.77184 -5.03666,3.62103c-2.53245,-0.15087 -4.38336,-2.01667 -4.13414,-4.16735c0.24924,-2.15069 2.50419,-3.77184 5.03664,-3.62103c2.53245,0.15087 4.38336,2.01667 4.13416,4.16736z" fill="#3b3045" stroke-width="1"/><path d="M218.93821,159.71802l-1.05106,-3.31878l1.99693,-0.82565z" fill="#e0dedc" stroke-width="0.5"/><path d="M220.9062,155.55578l1.90705,0.75763l-1.43037,3.36197z" data-paper-data="{&quot;index&quot;:null}" fill="#e0dedc" stroke-width="0.5"/></g><g data-paper-data="{&quot;index&quot;:null}" fill="#3a2f41"><path d="M171.79829,63.69463l21.75356,-18.27278l-19.87052,35.88145z" stroke-opacity="0.07705" stroke="#ffffff" stroke-width="2" stroke-linecap="round"/><path d="M169.03646,56.65936l21.45358,-16.4265l-15.23762,33.33803z" stroke-opacity="0.08512" stroke="#ffffff" stroke-width="2" stroke-linecap="round"/><path d="M171.88667,167.95528l-12.02939,-81.34062l2.62137,-25.73947l8.50859,-6.09033l-4.94229,15.05675l5.20567,-19.60301l20.5619,-19.49433l-12.5891,26.51803l7.08013,31.52448l11.09793,-1.38316l10.883,-17.6789l-4.8973,30.74748l-19.03589,10.71221c0,0 -0.34576,3.77439 -0.62358,9.31219c-0.43339,8.63905 0.97524,42.15791 0.97524,42.15791l-3.21689,-5.28111l0.08472,16.96082l-5.51066,-20.67185l-2.82599,10.24534l-1.85593,-12.89686z" stroke-opacity="0.08254" stroke="#ffffff" stroke-width="1.5" stroke-linecap="butt"/></g></g></g></svg>