<svg version="1.1" xmlns="http://www.w3.org/2000/svg" xmlns:xlink="http://www.w3.org/1999/xlink" width="505.35003" height="483.06138" viewBox="0,0,505.35003,483.06138"><g transform="translate(13.78698,61.40569)"><g data-paper-data="{&quot;isPaintingLayer&quot;:true}" fill-rule="nonzero" stroke-linejoin="miter" stroke-miterlimit="10" stroke-dasharray="" stroke-dashoffset="0" style="mix-blend-mode: normal"><g stroke="#3a2f41" stroke-width="2" stroke-linecap="butt"><path d="M58.43695,275.0943l-69,-50l96,3l55,49z" fill="#e1e2db"/><path d="M154.5663,264.43021l-63.92911,-36.59329l-33.32958,-90.07852l69.32306,49.55112z" data-paper-data="{&quot;index&quot;:null}" fill="#e1e2db"/><path d="M180.43695,318.0943l-111,-101l87.29848,22.60656l81.70153,-93.60656l42,92z" fill="#7c7984"/></g><g><g stroke-linecap="butt"><path d="M350.77304,158.09476l-36.8216,49.19911l-17.52079,-4.59317c0,0 -13.26372,-51.03508 -13.49314,-51.41643c-1.27367,-3.76076 18.5754,-7.37816 18.5754,-7.37816l-15.36537,-34.55286l5.57001,-21.42232l19.69317,6.27819c0,0 9.52166,19.21581 21.65213,36.80801z" data-paper-data="{&quot;index&quot;:null}" fill="#e1e2db" stroke="none" stroke-width="0"/><path d="M350.77305,158.09475l-0.1608,0.21485c-20.37906,-10.22949 -53.30421,-23.85921 -53.30421,-23.85921l-11.16048,-25.09713l5.57001,-21.42232l19.69317,6.27819c0,0 9.52166,19.21581 21.65213,36.808z" data-paper-data="{&quot;index&quot;:null}" fill="#8c9ca0" stroke="none" stroke-width="0"/><path d="M350.77305,158.09475l-36.8216,49.19911l-17.52079,-4.59317c0,0 -13.26372,-51.03508 -13.49314,-51.41643c-1.27367,-3.76076 18.5754,-7.37816 18.5754,-7.37816l-15.36537,-34.55286l5.57001,-21.42232l19.69317,6.27819c0,0 9.52166,19.21581 21.65213,36.808z" data-paper-data="{&quot;index&quot;:null}" fill="none" stroke="#3a2f41" stroke-width="2"/></g><g data-paper-data="{&quot;index&quot;:null}" stroke="#3a2f41" stroke-width="2"><path d="M277.51453,166.47014c0,0 10.57416,-13.27358 14.95305,-13.29483c4.19716,-0.02038 16.58766,18.39832 16.58766,18.39832c0,0 3.43513,29.72267 0.05837,31.3686c-3.64566,1.77699 -14.92084,2.48596 -15.21451,1.57633c-4.43151,-13.72663 -16.38456,-38.0484 -16.38456,-38.0484z" fill="#e1e2db" stroke-linecap="butt"/><path d="M303.11734,164.29681l-20.12099,10.7891" fill="none" stroke-linecap="round"/></g></g><path d="M225.2544,34.09252c34.53184,57.52378 -15.87452,92.12498 -36.68532,93.38228c-12.35344,0.74633 -3.87339,-51.78684 -3.87339,-51.78684c0,0 -7.89145,10.43997 -8.34488,2.93477c-0.34477,-5.70676 2.63508,-14.22217 1.90109,-23.65466c-1.64129,-21.09238 -3.76363,-45.85954 25.1008,-47.6034c20.8108,-1.25729 12.37917,10.86506 21.9017,26.72786z" fill="#8c9ca0" stroke="#3a2f41" stroke-width="2" stroke-linecap="butt"/><g stroke="#3a2f41" stroke-width="2" stroke-linecap="butt"><path d="M310.18697,120.46071c1.5,46.5178 -29.66114,62.5 -66.25,62.5c-36.58886,0 -69.25,-15.9822 -69.25,-60c0,-34.5178 32.66114,-65 69.25,-65c36.58886,0 65.13753,28.00013 66.25,62.5z" fill="#e1e2db"/><path d="M310.18697,120.46071c1.5,46.5178 -29.66113,62.5 -66.25,62.5c-36.58886,0 -69.25,-15.9822 -69.25,-60c0,-1.73996 0.44101,-4.62046 0.44101,-4.62046c0,0 7.97475,12.49717 38.17915,1.94674c0.98771,-0.34501 50.5854,15.79704 51.62983,15.67372c33.21419,-3.9216 44.48799,-22.76699 44.48799,-22.76699c0,0 0.66642,4.30252 0.76201,7.26699z" fill="#b8c1c0"/></g><g><g data-paper-data="{&quot;index&quot;:null}"><g stroke-linecap="butt"><g><path d="M273.09627,352.41386l-0.00239,-81.87289l26.88791,0.55627l0.00239,81.87289z" fill="#e1e2db" stroke="none" stroke-width="0"/><path d="M273.57269,293.38577l-0.00053,-18.0003l26.88792,0.55627l-0.21038,18.22709z" fill="#8c9ca0" stroke="none" stroke-width="0"/><path d="M273.57454,352.37445l-0.00239,-81.87289l26.88792,0.55628l0.0024,81.87289z" fill="none" stroke="#3a2f41" stroke-width="2.5"/></g><path d="M263.23642,398.98853l3.48643,-38.06996l43.01447,-2.09744l1.34948,4.93767c0,0 20.53791,1.72487 32.26873,14.43706c3.81142,4.13028 10.58685,23.34042 2.25172,29.4219c-7.5505,5.50901 -49.93185,2.06455 -49.93185,2.06455z" fill="#3a2f41" stroke="#3a2f41" stroke-width="2.5"/></g><path d="M334.48657,384.71893c6.95085,10.75525 3,25.07267 3,25.07267" fill="none" stroke="#3a2f41" stroke-width="2.5" stroke-linecap="round"/><path d="M313.98657,385.24128c6.95085,10.75525 3,25.07267 3,25.07267" fill="none" stroke="#3a2f41" stroke-width="2.5" stroke-linecap="round"/></g><path d="M264.46172,368.44478l-2.27345,-16.10509l46.55729,-8.86305l2.94011,16.10508z" data-paper-data="{&quot;index&quot;:null}" fill="#e1e2db" stroke="#3a2f41" stroke-width="2" stroke-linecap="butt"/></g><g><g data-paper-data="{&quot;index&quot;:null}"><g stroke-linecap="butt"><g><path d="M203.59638,349.98398l17.84372,-81.14925l26.3066,5.79991l-17.84372,81.14924z" fill="#e1e2db" stroke="none" stroke-width="0"/><path d="M217.21579,286.79853l3.76708,-18.11581l26.30662,5.79993l-3.92306,17.8412z" fill="#8c9ca0" stroke="none" stroke-width="0"/><path d="M203.13918,349.83196l17.84372,-81.14924l26.3066,5.7999l-17.84372,81.14923z" fill="none" stroke="#3a2f41" stroke-width="2.5"/></g><path d="M210.21444,415.70004c0,0 -40.95332,9.76616 -53.25887,1.15967c-9.55304,-6.6814 -5.96037,-27.52246 2.43507,-39.96961c10.90308,-16.16501 30.25414,-16.21598 30.25414,-16.21598l44.92604,2.35213l-2.59171,37.53906z" fill="#3a2f41" stroke="#3a2f41" stroke-width="2.5"/></g><path d="M164.06239,417.90043c0,0 -3.30058,-14.71824 4.12899,-25.33416" data-paper-data="{&quot;index&quot;:null}" fill="none" stroke="#3a2f41" stroke-width="2.5" stroke-linecap="round"/><path d="M187.49205,420.00504c0,0 -3.30057,-14.71825 4.12899,-25.33416" data-paper-data="{&quot;index&quot;:null}" fill="none" stroke="#3a2f41" stroke-width="2.5" stroke-linecap="round"/></g><path d="M188.79386,358.81398l3.65232,-15.95865l46.11783,10.92159l-2.98632,15.98825z" fill="#e1e2db" stroke="#3a2f41" stroke-width="2" stroke-linecap="butt"/></g><g data-paper-data="{&quot;index&quot;:null}" stroke="#8c9ca0" stroke-width="2"><path d="M264.71314,275.74129l1.20694,-83.26634l34.03848,-2.28595l13.20906,84.66308z" data-paper-data="{&quot;index&quot;:null}" fill="#3a2f41" stroke-linecap="butt"/><path d="M304.18556,221.01123l-13.20482,-2.4371l-2.44165,-23.67183" fill="none" stroke-linecap="round"/><path d="M303.41918,216.37663l-10.02255,-1.69072l-1.7308,-17.31784" fill="none" stroke-linecap="round"/></g><g data-paper-data="{&quot;index&quot;:null}" stroke="#8c9ca0" stroke-width="2"><path d="M208.19019,272.2263l20.86211,-82.60537l34.82135,5.91762l-4.5975,82.14057z" data-paper-data="{&quot;index&quot;:null}" fill="#3a2f41" stroke-linecap="butt"/><path d="M240.41062,195.52804l-4.45351,23.26317l-13.78124,1.00761" fill="none" stroke-linecap="round"/><path d="M236.9924,197.64363l-3.20104,17.02481l-10.44701,0.60669" fill="none" stroke-linecap="round"/></g><g data-paper-data="{&quot;index&quot;:null}" stroke-linecap="butt"><path d="M250.97766,208.06113l1.6964,-20.24369l25.20913,2.1125l1.23334,17.41208z" fill="#8c9ca0" stroke="#8c9ca0" stroke-width="2"/><path d="M250.78776,205.73738l1.6964,-20.24367l25.20913,2.11249l1.23334,17.41208z" fill="#3a2f41" stroke="#3a2f41" stroke-width="3.5"/></g><g stroke-linecap="butt"><path d="M309.03648,108.21072c0.50202,25.8639 -9.92707,34.75 -22.17273,34.75c-12.24566,0 -23.17678,-8.8861 -23.17678,-33.36c0,-19.1919 10.93112,-36.14 23.17678,-36.14c12.24566,0 21.80041,15.56807 22.17273,34.75z" fill="#e1e2db" stroke="none" stroke-width="0"/><path d="M309.03649,108.21072c0.50202,25.86389 -9.92707,34.75 -22.17273,34.75c-12.24566,0 -23.17678,-8.88611 -23.17678,-33.36c0,-0.96742 0.1476,-2.56898 0.1476,-2.56898c0,0 14.71072,12.8072 30.05752,9.79698c11.11621,-2.18041 14.88936,-12.65845 14.88936,-12.65845c0,0 0.22304,2.3922 0.25503,4.04045z" fill="#b8c1c0" stroke="none" stroke-width="0"/><path d="M309.03648,108.21071c0.50203,25.8639 -9.92707,34.75 -22.17273,34.75c-12.24566,0 -23.17678,-8.88611 -23.17678,-33.36c0,-19.1919 10.93112,-36.14 23.17678,-36.14c12.24566,0 21.8004,15.56807 22.17273,34.75z" fill="none" stroke="#3a2f41" stroke-width="2"/></g><path d="M303.52318,187.537l-77.59207,2.90482" fill="none" stroke="#3a2f41" stroke-width="2" stroke-linecap="round"/><g><g><path d="M302.36337,183.02929c0,0 0.47383,3.49985 0.17082,3.91635c0,0 -11.6897,13.23997 -22.38698,13.85508c-20.77645,1.1947 -51.21547,-10.58835 -51.21547,-10.58835l-1.69862,-6.8044c0,0 8.87237,-12.03176 9.00674,-12.86489c1.76551,-10.94744 -21.71435,-46.02586 -12.96457,-73.76397c1.71034,-5.42202 25.29351,-16.3218 35.7186,-16.36961c11.43774,-0.05245 23.48667,0.78805 32.73336,11.49848c14.25939,16.51666 7.32477,33.25334 6.51934,55.86659c-0.41436,11.63406 -3.96988,19.54855 -3.96988,19.54855z" fill="#e1e2db" stroke="none" stroke-width="0" stroke-linecap="round"/><g stroke="none"><g fill="#e1e2db" stroke-width="0" stroke-linecap="round"><g><g><path d="M293.17189,94.81458c0,0 13.88922,12.01455 17.25671,26.54771c0.68588,0.85397 -1.21969,15.89385 -7.83288,22.79707c-3.05203,3.18587 -2.1739,3.13881 -5.37559,4.48488c-6.59931,2.77454 -18.19738,-2.33254 -27.32882,-1.4022c-9.60055,0.97813 -19.02074,2.92267 -26.56229,1.55181c-3.95883,-0.71965 -7.98588,-1.07801 -11.49282,-3.7545c-4.7763,-3.64531 -2.47085,-9.55325 -3.6974,-14.14026c-1.30817,-3.44106 -4.35903,-11.17647 -1.64404,-18.37607c0.43622,-1.15676 0.9209,-2.26819 1.45296,-3.30411c3.15708,-6.14702 5.50884,-8.84924 5.50884,-8.84924"/></g></g></g><g stroke-linecap="butt"><g><g fill="none" stroke-width="1" font-family="sans-serif" font-weight="normal" font-size="12" text-anchor="start"/><path d="M233.65065,104.1908c0.00439,0.47281 -4.19994,4.57703 -2.9188,1.87944c1.18291,-2.49077 6.90572,-11.35788 6.90572,-11.35788c0,0 -3.32078,3.19739 -6.82584,7.27334c-0.57324,0.6666 8.50299,-13.03411 10.84703,-13.05635c2.34404,-0.02224 -8.01657,14.35219 -8.00813,15.26151z" fill="#ffffff" stroke-width="0"/></g><path d="M284.28528,88.18427c2.23692,-0.75245 9.53469,6.06382 8.79832,5.61868c-4.50241,-2.72174 -3.31599,-1.44286 -3.31599,-1.44286c0,0 7.98465,6.54898 9.82346,8.52873c1.99156,2.14418 -3.18438,-0.37373 -3.31559,-0.82509c-0.25232,-0.86807 -14.22714,-11.12704 -11.99023,-11.87949z" data-paper-data="{&quot;index&quot;:null}" fill="#ffffff" stroke-width="0"/></g></g><path d="M223.86014,96.77356c1.71034,-5.42202 25.29351,-16.3218 35.7186,-16.36962c11.43774,-0.05245 23.48666,0.78805 32.73335,11.49848c0.89801,1.04015 16.13243,28.84187 16.13243,28.84187l-4.58016,21.37848c0,0 -81.87461,-33.85909 -82.07117,-35.14882c0.36087,-3.47428 1.02353,-6.89269 2.06691,-10.20039z" fill="#8c9ca0" stroke="none" stroke-width="0" stroke-linecap="butt"/><g stroke="none"><g fill="#8c9ca0" stroke-width="0" stroke-linecap="round"><g><g><path d="M293.8671,94.09807c0,0 3.53534,5.56598 13.19714,17.67309c0.60488,2.6105 3.90614,17.77243 2.44336,22.6327c-1.05795,3.51519 -4.11783,8.30918 -4.11783,8.30918l-77.44205,-33.49417l5.50884,-8.84924"/></g></g></g><g fill="none" stroke-width="1" stroke-linecap="butt" font-family="sans-serif" font-weight="normal" font-size="12" text-anchor="start"><g><g/></g></g></g><path d="M298.13871,149.92625c-0.31676,8.00908 -3.66706,17.39498 -3.66706,17.39498l8.47653,15.70246c0,0 0.47383,3.49985 0.17082,3.91635c0,0 -11.6897,13.23997 -22.38697,13.85508c-20.61113,1.18519 -51.61267,-11.37336 -51.61267,-11.37336l-1.30142,-6.01939c0,0 8.86506,-12.82047 8.99943,-13.6536c1.76551,-10.94744 -21.70704,-45.23715 -12.95726,-72.97526c1.71034,-5.42202 25.29351,-16.3218 35.7186,-16.36962c11.43774,-0.05245 23.48667,0.78805 32.73336,11.49848c0.34577,0.40051 0.67907,0.80113 1.00032,1.20198" fill="none" stroke="#3a2f41" stroke-width="2" stroke-linecap="round"/><g fill="none" stroke="none" stroke-width="1" stroke-linecap="butt" font-family="sans-serif" font-weight="normal" font-size="12" text-anchor="start"><g/></g></g><path d="M276.96302,109.4984c0.02576,2.77688 -2.24446,5.04973 -5.0707,5.07655c-2.82623,0.02682 -5.13822,-2.20255 -5.16398,-4.97943c-0.02576,-2.77688 2.24446,-5.04973 5.0707,-5.07655c2.82623,-0.02682 5.13822,2.20255 5.16398,4.97943z" fill="#8c9ca0" stroke="#3a2f41" stroke-width="1.5" stroke-linecap="butt"/><path d="M281.17248,132.43148c0.02576,2.77688 -2.24446,5.04973 -5.0707,5.07655c-2.82623,0.02682 -5.13822,-2.20255 -5.16397,-4.97943c-0.02576,-2.77688 2.24446,-5.04973 5.07069,-5.07655c2.82623,-0.02682 5.13822,2.20255 5.16398,4.97943z" fill="none" stroke="#3a2f41" stroke-width="1.5" stroke-linecap="butt"/><g><path d="M278.66724,99.86358l-11.70054,-10.49641c0,0 8.09556,-7.96211 11.59982,-10.64922c0.76735,-0.58841 1.08388,-0.11889 1.29219,-0.03993c0.51323,0.43398 3.75269,5.97594 3.21032,6.35297z" data-paper-data="{&quot;index&quot;:null}" fill="#8c9ca0" stroke="#3a2f41" stroke-width="4.5" stroke-linecap="round"/><path d="M257.19867,100.18151c0,0 -11.28993,-11.32636 -12.34016,-14.77233c0.05858,-1.70269 2.37044,-9.04937 3.47979,-6.96545c1.13331,0.58486 19.61516,-3.74497 24.30311,-0.9542c3.94012,2.34558 -5.70708,11.92873 -5.70708,11.92873z" fill="#3a2f41" stroke="#3a2f41" stroke-width="4.5" stroke-linecap="round"/><path d="M247.17596,84.83643c0.02634,-1.64163 0.26513,-5.66753 0.89202,-6.00036c1.15562,-1.14493 12.41814,-6.68362 15.18775,-7.16473c1.75218,-0.30437 14.45764,6.19513 15.14027,6.91842c1.17491,0.58752 2.43824,5.32447 2.4437,5.91305" fill="none" stroke="#3a2f41" stroke-width="6.5" stroke-linecap="butt"/><g><path d="M278.66724,99.86358l-11.70054,-10.49641c0,0 8.09557,-7.96211 11.59982,-10.64922c0.76735,-0.58841 1.08388,-0.11889 1.29219,-0.03993c0.51323,0.43398 3.75269,5.97594 3.21032,6.35297z" data-paper-data="{&quot;index&quot;:null}" fill="#8c9ca0" stroke="#12161a" stroke-width="0" stroke-linecap="round"/><path d="M257.19869,100.18151c0,0 -11.28994,-11.32636 -12.34017,-14.77233c0.05858,-1.70269 2.37044,-9.04937 3.4798,-6.96547c2.08581,1.07643 18.59602,10.97453 18.59602,10.97453z" fill="#8c9ca0" stroke="#12161a" stroke-width="0" stroke-linecap="round"/><path d="M247.17596,84.83642c0.02634,-1.64163 0.26513,-5.66752 0.89201,-6.00035c1.15562,-1.14493 12.41814,-6.68361 15.18775,-7.16474c1.75218,-0.30437 14.45764,6.19514 15.14027,6.91842c1.17491,0.58752 2.43824,5.32447 2.4437,5.91304" fill="none" stroke="#8c9ca0" stroke-width="2" stroke-linecap="butt"/></g></g><g fill="none"><g stroke="none" stroke-width="1" stroke-linecap="butt" font-family="sans-serif" font-weight="normal" font-size="12" text-anchor="start"><g><g/></g></g><g stroke="#3a2f41" stroke-width="2" stroke-linecap="round"><g><g><path d="M292.72682,92.14493c10.62367,12.01368 15.63227,19.88559 17.57236,29.4097c4.18334,20.53645 -14.56176,29.15442 -14.56176,29.15442"/></g></g></g></g></g><g stroke-linecap="butt"><path d="M244.53647,110.71071c0.50202,25.8639 -9.92707,34.75 -22.17273,34.75c-12.24566,0 -23.17678,-8.8861 -23.17678,-33.36c0,-19.1919 10.93112,-36.14 23.17678,-36.14c12.24566,0 21.80041,15.56807 22.17273,34.75z" fill="#e1e2db" stroke="none" stroke-width="0"/><path d="M244.53648,110.71071c0.50202,25.86389 -9.92707,34.75 -22.17273,34.75c-12.24566,0 -23.17678,-8.88611 -23.17678,-33.36c0,-0.96742 0.1476,-2.56898 0.1476,-2.56898c0,0 14.71072,12.8072 30.05752,9.79698c11.11621,-2.18041 14.88936,-12.65845 14.88936,-12.65845c0,0 0.22304,2.3922 0.25503,4.04045z" fill="#b8c1c0" stroke="none" stroke-width="0"/><path d="M244.53648,110.71071c0.50203,25.86389 -9.92707,34.75 -22.17273,34.75c-12.24566,0 -23.17678,-8.88611 -23.17678,-33.36c0,-19.1919 10.93112,-36.14 23.17678,-36.14c12.24566,0 21.80041,15.56807 22.17273,34.75z" fill="none" stroke="#3a2f41" stroke-width="2"/></g><g><g stroke-linecap="butt"><path d="M269.54407,70.82385c-21.24834,1.28373 -42.84896,-2.97696 -56.90363,-15.30842c-8.22374,-7.21545 -18.56344,-30.0766 -6.87111,-57.60271c9.81538,-23.10739 38.56496,-28.3353 38.56496,-28.3353c0,0 6.73153,-1.3259 17.97,-2.00487c10.85857,-0.65602 16.42028,0.4052 16.42028,0.4052c0,0 18.47726,0.43473 32.26189,16.11992c8.36422,9.51744 15.41983,31.58716 14.36746,42.65317c-3.56328,37.46921 -55.80984,44.07304 -55.80984,44.07304z" fill="#e1e2db" stroke="#3a2f41" stroke-width="2"/><g data-paper-data="{&quot;index&quot;:null}"><path d="M308.39197,30.62321c-0.09743,9.24973 -0.92287,17.49961 -8.24527,23.4497c-7.11811,5.78407 -20.50161,9.39452 -36.66638,9.66202c-32.36551,0.53565 -44.40363,-15.12249 -44.21148,-33.36382c0.19211,-18.24133 13.99427,-41.37345 51.37994,-40.26172c24.59254,0.73132 37.9353,22.2725 37.74317,40.51384z" fill="#e1e2db" stroke="none" stroke-width="0"/><path d="M308.39197,30.62321c-0.19214,18.24134 -18.47206,5.22813 -38.65529,5.31577c-20.17921,0.08763 -50.65999,12.67345 -50.46784,-5.56789c0.19211,-18.24133 13.99426,-41.37345 51.37993,-40.26172c24.59254,0.73132 37.93531,22.2725 37.74318,40.51384z" fill="#b8c1c0" stroke="none" stroke-width="0"/><path d="M255.40799,-8.45982c44.47872,-5.42979 53.15277,23.0592 52.97964,39.49671h-0.00001c-0.09112,8.65262 -1.68166,16.78818 -8.02784,22.62612c-7.03273,6.46955 -19.64563,10.20032 -36.88381,10.48558c-32.3655,0.53563 -44.40363,-15.12248 -44.21148,-33.36381c0.16308,-15.4834 10.13188,-34.49051 36.0056,-39.20411" fill="none" stroke="#3a2f41" stroke-width="2"/></g></g><path d="M271.10072,54.38274c0,0 -5.97718,1.11212 -7.71936,-1.40613" data-paper-data="{&quot;index&quot;:null}" fill="none" stroke="#3a2f41" stroke-width="1" stroke-linecap="round"/><path d="M200.57904,27.66816c0,0 -3.44188,-60.62967 35.26962,-85.47141c20.43208,-13.11157 27.51971,27.58534 27.51971,27.58534" data-paper-data="{&quot;index&quot;:null}" fill="#e1e2db" stroke="#3a2f41" stroke-width="2" stroke-linecap="round"/><path d="M279.98247,-31.53834c0,0 36.87733,-20.99332 49.35773,-9.9762c12.48041,11.01713 -4.47411,61.40971 -4.47411,61.40971" data-paper-data="{&quot;index&quot;:null}" fill="#e1e2db" stroke="#3a2f41" stroke-width="2" stroke-linecap="round"/><path d="M291.57585,-14.15951c0.07105,1.17601 23.03861,7.01248 30.31216,15.58823c11.47931,13.53452 16.64362,60.71897 9.38826,61.1573c-0.72212,0.04363 -28.68171,-11.47047 -26.89341,-10.45774c3.72958,2.11208 8.28627,5.29463 11.79145,8.10618c4.71746,3.78393 7.36802,6.89586 1.99685,5.82175c-14.85291,-2.97023 -30.49155,-9.59041 -37.65798,-18.97471c-14.00757,-18.34262 -12.57013,-44.42503 -28.16438,-54.69699c-0.18318,-3.03204 31.35376,-14.58384 43.20627,-15.29991c11.85251,-0.71607 -4.1624,5.72386 -3.97922,8.7559z" fill="#8c9ca0" stroke="#3a2f41" stroke-width="2" stroke-linecap="butt"/></g><g stroke="#3a2f41" stroke-width="1" stroke-linecap="butt"><path d="M261.68695,37.73936c0,6.9293 -6.28644,9.87712 -16.01695,9.87712c-9.73051,0 -15.48305,-2.41392 -15.48305,-9.34322c0,-6.9293 5.75254,-16.25 15.48305,-16.25c9.73051,0 16.01695,8.78679 16.01695,15.7161z" data-paper-data="{&quot;index&quot;:null}" fill="#e1e2db"/><path d="M248.4949,36.48352c-3.06408,5.65228 -10.3857,9.81937 -14.24579,7.72683c-3.86008,-2.09254 -4.50537,-8.37094 -1.44129,-14.02321c3.06408,-5.65227 11.4535,-9.81936 15.31358,-7.72682c3.86008,2.09254 3.43758,8.37093 0.37349,14.02321z" data-paper-data="{&quot;index&quot;:null}" fill="#3a2f41"/></g><path d="M234.81778,5.9638c0,0 7.17968,-18.66714 17.23835,-19.2117" fill="none" stroke="#3a2f41" stroke-width="1.5" stroke-linecap="round"/><g stroke="#3a2f41" stroke-width="2"><path d="M185.70081,137.84256c10.83045,-18.42105 18.94182,-38.27338 18.94182,-38.27338l19.18924,-7.68178l7.10012,20.96495l-12.83402,35.57081c0,0 20.05823,2.17682 19.05904,6.01962c-0.20133,0.39689 -9.75076,52.25549 -9.75076,52.25549l-17.14401,5.84451l-40.27314,-46.41612z" fill="#e1e2db" stroke-linecap="butt"/><g><path d="M232.94788,205.37287c-0.22732,0.92844 -11.52428,1.03429 -15.28857,-0.47521c-3.48666,-1.39817 -2.20355,-31.29116 -2.20355,-31.29116c0,0 11.03023,-19.26414 15.21793,-19.54644c4.36903,-0.29453 15.87272,12.18207 15.87272,12.18207c0,0 -10.16828,25.12031 -13.59852,39.13074z" fill="#3a2f41" stroke-linecap="butt"/><path d="M241.70008,175.23071l-20.84654,-9.31025" fill="none" stroke-linecap="round"/></g></g><path d="M250.43695,170.76098c0,4.78647 -3.80558,8.66667 -8.5,8.66667c-4.69442,0 -8.5,-3.8802 -8.5,-8.66667c0,-4.78647 3.80558,-8.66667 8.5,-8.66667c4.69442,0 8.5,3.8802 8.5,8.66667z" fill="#e1e2db" stroke="#3a2f41" stroke-width="2" stroke-linecap="butt"/><path d="M241.77028,196.09431c0,4.78647 -3.80558,8.66666 -8.5,8.66666c-4.69442,0 -8.5,-3.88019 -8.5,-8.66666c0,-4.78647 3.80558,-8.66667 8.5,-8.66667c4.69442,0 8.5,3.8802 8.5,8.66667z" fill="#e1e2db" stroke="#3a2f41" stroke-width="2" stroke-linecap="butt"/><g data-paper-data="{&quot;index&quot;:null}" stroke="#3a2f41" stroke-width="2"><path d="M399.31704,371.38794l-3.00371,20.79186l-9.42901,-4.19801l1.03553,-16.71346" fill="#7c7984" stroke-linecap="round"/><path d="M380.52778,396.3573l-0.24938,-6.50421l4.79283,-0.95451l0.37158,-3.43482l13.02783,1.16758l-0.20767,7.69302l-4.49258,2.61231z" data-paper-data="{&quot;index&quot;:null}" fill="#3a2f41" stroke-linecap="butt"/><path d="M384.06201,387.35319l0.47978,-6.15193l15.54171,1.21208l-0.47979,6.15193z" fill="#e1e2db" stroke-linecap="butt"/></g><path d="M438.18767,339.23238c0,0 9.98086,5.51364 10.18628,16.53609c0.46675,25.0442 -22.0795,29.64185 -44.77898,25.72501c-4.9617,-0.85615 -13.01087,-2.43419 -17.11365,-8.39931c-6.4826,-9.42518 -8.43333,-22.2389 -8.43333,-22.2389c0,0 -6.22156,-1.4844 -8.14882,-3.83264c-2.16931,-2.64316 -2.8996,-9.5939 -2.41923,-11.64997c0.75103,-3.21447 7.23818,-4.15304 7.23818,-4.15304c0,0 -0.14684,-3.35532 0.40827,-7.29591c3.02405,-21.46718 20.47163,-31.9611 37.43558,-28.77898c9.33522,1.75112 20.94013,8.28189 24.93322,21.50412c3.26316,10.80523 0.69247,22.58353 0.69247,22.58353z" data-paper-data="{&quot;index&quot;:null}" fill="#7c7984" stroke="#3a2f41" stroke-width="2" stroke-linecap="butt"/><g stroke="#3a2f41" stroke-width="2"><path d="M392.13173,351.96668l0.33347,16.56879l-8.28618,3.29626l0.37133,-19.90894" fill="#7c7984" stroke-linecap="round"/><path d="M382.70138,376.58805l0.50968,-9.62139l10.58617,1.12873l-0.11358,10.34017z" data-paper-data="{&quot;index&quot;:null}" fill="#e1e2db" stroke-linecap="butt"/><path d="M381.4641,368.59684l-0.20024,-5.32772l13.4595,-0.50588l0.20024,5.32772z" fill="#e1e2db" stroke-linecap="butt"/></g><g fill="#e1e2db" stroke="#3a2f41" stroke-width="1.5" stroke-linecap="butt"><path d="M390.35005,364.45211l-0.18885,-11.42549l8.59272,4.438l9.2537,-4.62685l-0.47213,11.33107l-8.68716,-3.96587z"/><path d="M396.58213,361.90262v-6.13766h4.72127v6.13766z"/></g><g data-paper-data="{&quot;index&quot;:null}" stroke="#3a2f41" stroke-width="2"><path d="M431.46999,372.38747l-3.28474,20.74931l-9.37135,-4.32519l1.47807,-19.07955" fill="#7c7984" stroke-linecap="round"/><path d="M412.34462,397.10034l-0.16136,-6.50699l4.80531,-0.88958l0.41801,-3.42948l13.01084,1.34374l-0.31173,7.6895l-4.52752,2.55129z" data-paper-data="{&quot;index&quot;:null}" fill="#3a2f41" stroke-linecap="butt"/><path d="M416.00034,388.14486l0.56297,-6.14487l15.52389,1.42224l-0.56298,6.14487z" fill="#e1e2db" stroke-linecap="butt"/></g><g stroke="#3a2f41" stroke-linecap="butt"><path d="M419.66292,318.7093c5.07027,3.38124 6.55972,10.05227 3.32679,14.90016c-3.23293,4.84789 -9.96401,6.03685 -15.03428,2.65561c-5.07027,-3.38124 -6.55973,-10.05226 -3.3268,-14.90015c3.23293,-4.84789 9.96402,-6.03685 15.03429,-2.65562z" data-paper-data="{&quot;index&quot;:null}" fill="#3a2f41" stroke-width="1.5"/><path d="M415.40771,319.24562c3.53585,2.35796 4.38251,7.29809 1.89108,11.03409c-2.49144,3.73599 -7.37752,4.85309 -10.91336,2.49513c-3.53585,-2.35796 -4.38251,-7.29809 -1.89108,-11.03409c2.49144,-3.73599 7.37752,-4.85309 10.91337,-2.49513z" data-paper-data="{&quot;index&quot;:null}" fill="#e1e2db" stroke-width="0"/></g><path d="M389.33065,317.58689c4.15569,3.38124 5.37649,10.05226 2.72671,14.90015c-2.64978,4.84789 -8.16671,6.03685 -12.3224,2.65562c-4.15569,-3.38124 -5.37649,-10.05226 -2.7267,-14.90015c2.64978,-4.84789 8.1667,-6.03685 12.3224,-2.65562z" data-paper-data="{&quot;index&quot;:null}" fill="#3a2f41" stroke="#3a2f41" stroke-width="1.5" stroke-linecap="butt"/><path d="M412.45987,294.26098c1.40302,0 1.40303,1.40302 1.40303,1.40302l-0.02725,0.83637c-0.90564,4.47558 -3.57662,7.1549 -6.01769,10.80693c-0.68306,1.02191 -1.36257,2.08571 -2.2958,2.88568c-8.48904,7.65763 -17.50912,15.12153 -29.54082,15.12153c0,0 -1.40302,0 -1.40302,-1.40302c0,-1.40302 1.40302,-1.40303 1.40302,-1.40303c11.29751,0 19.74439,-7.25408 27.70242,-14.43543c0.77355,-0.61996 1.27087,-1.52675 1.81973,-2.35227c2.20299,-3.3134 4.78044,-5.71625 5.58061,-9.77071l-0.02725,-0.28605c0,0 0,-1.40302 1.40302,-1.40302z" fill="#3a2f41" stroke="none" stroke-width="0.5" stroke-linecap="butt"/><path d="M369.99452,335.63508c-0.58267,0.78983 -2.43669,0.41086 -4.14107,-0.84647c-1.70438,-1.25733 -2.61371,-2.91689 -2.03104,-3.70673c0.58267,-0.78983 2.43668,-0.41085 4.14106,0.84648c1.70438,1.25733 2.61371,2.91688 2.03105,3.70672z" fill="#3a2f41" stroke="#3a2f41" stroke-width="1.5" stroke-linecap="butt"/><path d="M399.11501,339.67791c0,0 -0.12194,2.64988 -1.10945,2.74863c-0.86762,0.08677 -1.88366,-2.18742 -1.88366,-2.18742" fill="none" stroke="#3a2f41" stroke-width="1" stroke-linecap="round"/><g stroke="#3a2f41" stroke-width="2"><path d="M421.31456,354.77273l0.33347,16.56878l-8.28618,3.29626l0.37133,-19.90894" fill="#7c7984" stroke-linecap="round"/><path d="M411.88421,379.39409l0.50968,-9.62139l10.58618,1.12873l-0.11358,10.34016z" data-paper-data="{&quot;index&quot;:null}" fill="#e1e2db" stroke-linecap="butt"/><path d="M410.64693,371.40288l-0.20024,-5.32772l13.4595,-0.50588l0.20024,5.32772z" fill="#e1e2db" stroke-linecap="butt"/></g><path d="M490.52682,388.45043c0,0 1.18314,-2.69033 -9.9739,-3.27919c-8.52843,-0.45012 -29.39971,1.4941 -32.93174,-0.14577c-7.50797,-3.48584 -4.23586,-18.46216 -4.23586,-18.46216" fill="none" stroke="#3a2f41" stroke-width="2" stroke-linecap="round"/><path d="M462.51785,312.28981c-8.63602,6.77541 -22.75304,3.19765 -31.53125,-7.99115c-8.77821,-11.1888 -8.89348,-25.75168 -0.25746,-32.52709c8.63602,-6.77541 22.75304,-3.19765 31.53125,7.99115c8.77821,11.1888 8.89348,25.75168 0.25746,32.52709z" fill="#7c7984" stroke="#3a2f41" stroke-width="2" stroke-linecap="butt"/><path d="M378.48704,261.47168c13.63746,-4.0331 27.21634,1.23042 30.32927,11.75643c3.11293,10.526 -5.41889,22.32849 -19.05635,26.36159c-13.63746,4.0331 -27.21634,-1.23043 -30.32927,-11.75644c-3.11293,-10.526 5.41889,-22.32848 19.05635,-26.36159z" data-paper-data="{&quot;index&quot;:null}" fill="#7c7984" stroke="#3a2f41" stroke-width="2" stroke-linecap="butt"/><path d="M440.6235,334.15569l-7.75,0.75" fill="none" stroke="#3a2f41" stroke-width="2" stroke-linecap="round"/><path d="M433.3735,338.65569l6.75,2.75" fill="none" stroke="#3a2f41" stroke-width="2" stroke-linecap="round"/><path d="M373.6235,330.90569l-3.5,-2.25" fill="none" stroke="#3a2f41" stroke-width="2" stroke-linecap="round"/></g></g></svg>