<svg version="1.1" xmlns="http://www.w3.org/2000/svg" xmlns:xlink="http://www.w3.org/1999/xlink" width="433.40211" height="188.4932" viewBox="0,0,433.40211,188.4932"><defs><linearGradient x1="385.35199" y1="115.19313" x2="324.44739" y2="167.35464" gradientUnits="userSpaceOnUse" id="color-1"><stop offset="0" stop-color="#cedee0" stop-opacity="0"/><stop offset="1" stop-color="#cedee0" stop-opacity="0.19676"/></linearGradient><linearGradient x1="182.23211" y1="225.45085" x2="56.05782" y2="192.83775" gradientUnits="userSpaceOnUse" id="color-2"><stop offset="0" stop-color="#ffffff" stop-opacity="0.26046"/><stop offset="1" stop-color="#ffffff" stop-opacity="0"/></linearGradient><linearGradient x1="179.57407" y1="190.73857" x2="50.33159" y2="174.00719" gradientUnits="userSpaceOnUse" id="color-3"><stop offset="0" stop-color="#ffffff" stop-opacity="0.26046"/><stop offset="1" stop-color="#ffffff" stop-opacity="0"/></linearGradient></defs><g transform="translate(-48.77524,-65.07095)"><g data-paper-data="{&quot;isPaintingLayer&quot;:true}" fill-rule="nonzero" stroke-linejoin="miter" stroke-miterlimit="10" stroke-dasharray="" stroke-dashoffset="0" style="mix-blend-mode: normal"><g data-paper-data="{&quot;index&quot;:null}" stroke="#3a2f41" stroke-linecap="butt"><path d="M335.20982,71.98056l12.15752,-5.23953l0.82341,9.30827l3.20292,-10.1986l23.8904,1.26653c0,0 -11.74081,12.86014 -19.83522,27.71698c-1.17593,4.08603 -11.36246,0.73894 -11.36246,0.73894z" fill="#3a2f41" stroke-width="1.5"/><path d="M349.86175,98.17577c-0.10641,-2.50159 17.01626,-11.14711 22.17301,-11.22864c2.0858,-0.03297 -1.02767,19.95947 -3.67934,20.00139c-5.15674,0.08153 -18.33585,-5.06332 -18.44227,-7.56489z" data-paper-data="{&quot;index&quot;:null}" fill="#8c9ca0" stroke-width="2"/><path d="M350.21974,98.88993c-0.32709,2.43811 -15.91944,4.70736 -20.67639,3.54738c-2.44612,-0.59647 -0.54894,-20.88052 1.37516,-20.41133c4.75693,1.15997 19.78624,13.24861 19.45915,15.68672z" fill="#e1e2db" stroke-width="1.5"/><path d="M355.73034,99.8483c-1.02328,2.92156 -4.09319,4.50525 -6.85685,3.53728c-2.76362,-0.96796 -4.17448,-4.12106 -3.15117,-7.04263c1.02328,-2.92156 4.09318,-4.50526 6.85684,-3.53727c2.76362,0.96796 4.17447,4.12107 3.15118,7.04263z" fill="#e1e2db" stroke-width="2"/></g><path d="M356.92447,197.30681l-10.70548,-15.72613l7.73521,-6.67764c0,0 -8.69333,5.80305 -8.87804,5.41051c-3.15482,-4.34228 -6.3388,-8.58837 -9.42407,-12.61473c-12.96127,-16.91471 -24.18094,-29.95156 -24.18094,-29.95156c0,0 4.60927,-12.61658 12.93888,-19.75044c5.82088,-4.98528 17.89735,-14.15951 33.8959,-13.60322c12.9029,0.44864 25.11384,10.16361 27.27914,12.4933c1.7314,1.86283 5.72112,12.57887 5.30845,21.30776c-0.68696,14.52997 -10.04133,38.1636 -10.04133,38.1636z" fill="#3a2f41" stroke="none" stroke-width="0" stroke-linecap="butt"/><g stroke-linecap="butt"><path d="M371.5424,169.8106c-5.15733,4.41697 -8.74727,9.53808 -15.23193,8.70463c-6.30372,-0.81019 -14.30422,-7.89045 -21.50407,-15.94365c-7.16607,-8.0154 -12.33738,-17.79399 -12.05363,-24.28477c0.28704,-6.5665 4.9339,-9.33008 10.04877,-13.71068c10.17077,-8.7107 28.98341,-12.89379 44.67829,6.56707c10.32419,12.80147 4.23336,29.95669 -5.93741,38.66741z" fill="#e1e2db" stroke="none" stroke-width="0"/><path d="M371.5424,169.8106c-10.17075,8.71071 -11.67938,-5.99755 -20.53287,-16.17168c-8.8517,-10.1721 -28.37878,-20.3521 -18.20801,-29.0628c10.17077,-8.7107 28.98341,-12.89378 44.67829,6.56708c10.32419,12.80147 4.23336,29.95669 -5.93741,38.6674z" fill="#b8c1c0" stroke="none" stroke-width="0"/><path d="M380.07301,135.05622c6.48651,12.19869 1.70803,27.33373 -7.457,35.18307l-0.40753,0.34903c-4.82441,4.13184 -9.18444,8.22718 -15.18119,7.83377c-6.64553,-0.436 -14.29312,-6.97084 -21.97109,-15.55881c-5.30428,-5.93295 -10.47776,-14.18258 -11.50702,-19.32346c-1.76801,-8.83074 2.82395,-13.45807 9.25238,-18.96365c8.63302,-7.39371 23.49235,-11.5254 37.38635,-0.70451" fill="none" stroke="#3a2f41" stroke-width="2"/></g><path d="M306.61247,126.88262l-0.54943,-11.55985c0,0 16.51416,-17.02469 34.88397,-19.17352c23.69409,-2.77161 44.79931,10.05577 55.53955,31.35693c2.30081,4.56319 7.26259,16.78871 5.62916,27.85208c-1.96222,13.29026 -9.77595,23.98538 -9.77595,23.98538l-2.61666,-4.24444l-7.12586,7.34464c0,0 -1.23603,-2.50564 -1.08303,-2.65982c3.42834,-3.45446 6.43284,-7.34994 6.43284,-7.34994c0,0 -2.49835,3.13458 -7.23353,6.55002c-1.43635,-2.48902 -10.40614,-15.50847 -10.40614,-15.50847l1.93017,-4.46873l-3.35666,2.3762l-7.92888,-11.19207l10.75237,-11.12545l-11.5265,9.59335c0,0 -7.86345,-9.35639 -11.87281,-13.70431c-0.2828,-0.30668 3.61299,-5.72606 3.61299,-5.72606c0,0 -5.23618,4.28873 -5.44287,4.05572c-2.44283,-2.75424 -6.24658,-6.17609 -6.24658,-6.17609c0,0 -25.92858,22.29533 -26.02803,22.20296c-1.54726,-1.43658 -8.1833,-19.20412 -7.0936,-20.09825c1.57422,-1.2917 9.44147,-9.71813 9.44147,-9.71813z" fill="#3a2f41" stroke="url(#color-1)" stroke-width="0.5" stroke-linecap="butt"/><path d="M382.26858,128.05354c32.59999,-9.27813 59.35501,4.43795 59.35501,4.43795l-49.69204,27.36288" fill="#3a2f41" stroke="#3a2f41" stroke-width="1.5" stroke-linecap="round"/><path d="M330.62525,99.66985c42.81214,-21.60942 85.03515,-15.95888 85.03515,-15.95888l-34.66284,37.07444" fill="#3a2f41" stroke="#3a2f41" stroke-width="1.5" stroke-linecap="round"/><path d="M330.90151,135.0519c0,0 5.89135,-0.67486 11.77875,4.85218c6.23771,5.85594 6.32873,13.4705 6.32873,13.4705c0,0 -3.71676,-4.05581 -9.28181,-9.54508c-4.94513,-4.8778 -8.82568,-8.77761 -8.82568,-8.77761z" fill="#e1e2db" stroke="#3a2f41" stroke-width="1" stroke-linecap="butt"/><path d="M344.55663,147.02725l1.97887,-1.79118l1.22701,2.45756l-1.42276,1.29533z" fill="#3a2f41" stroke="#3a2f41" stroke-width="0.5" stroke-linecap="butt"/><path d="M169.12939,252.79495c-5.20883,1.32201 -14.06013,-17.28624 -20.81986,-43.88652c-6.75975,-26.60029 -9.3848,-51.55506 -4.17598,-52.87706c5.20883,-1.32201 14.94167,19.30176 21.70141,45.90203c6.75975,26.60029 8.50326,49.53954 3.29443,50.86155z" data-paper-data="{&quot;index&quot;:null}" fill="#3a2f41" stroke="none" stroke-width="0" stroke-linecap="butt"/><path d="M186.57462,208.65043l-7.63189,31.20214l-124.31126,-41.49644z" data-paper-data="{&quot;index&quot;:null}" fill="#3a2f41" stroke="url(#color-2)" stroke-width="0.5" stroke-linecap="butt"/><path d="M50.57115,172.15676l124.39157,-0.19109l2.38353,35.98185z" data-paper-data="{&quot;index&quot;:null}" fill="#3a2f41" stroke="url(#color-3)" stroke-width="0.5" stroke-linecap="butt"/><g data-paper-data="{&quot;index&quot;:null}"><path d="M145.78824,156.90262c0,0 30.85206,-4.13145 45.8534,-4.87896c19.6927,-0.35006 61.76442,2.96591 61.76442,2.96591l11.28619,45.4669c0,0 -10.18808,7.64717 -16.55129,12.49739c-1.90451,1.45167 -3.46638,2.65279 -4.30992,3.32333c-16.40794,8.79082 -73.6566,34.81874 -73.6566,34.81874c0,0 2.7893,-12.41003 -2.87138,-36.07264c-8.43655,-35.26625 -21.51481,-58.12069 -21.51481,-58.12069z" fill="#e1e2db" stroke="none" stroke-width="0" stroke-linecap="round"/><path d="M178.66294,152.5234c0,0 37.9145,-3.22477 47.89851,-3.29903c14.31135,-0.10646 31.80034,7.93739 31.80034,7.93739l10.3154,40.49676c0,0 -9.03741,7.79321 -12.59805,10.44553c-2.46884,1.83903 -6.71677,3.94201 -6.71677,3.94201z" fill="#8c9ca0" stroke="none" stroke-width="0" stroke-linecap="butt"/><path d="M268.15581,197.43751c0,0 -6.97966,8.34462 -23.32981,17.52376c-14.77876,8.29695 -74.59081,36.39804 -74.59081,36.39804c0,0 2.72849,-12.67338 -2.93219,-36.33599c-8.43655,-35.26625 -21.83897,-58.32322 -21.83897,-58.32322c0,0 57.26992,-6.15707 82.71906,-6.34652c12.86752,-0.09579 30.16618,6.82305 30.16618,6.82305z" fill="none" stroke="#3a2f41" stroke-width="2.5" stroke-linecap="round"/><path d="M262.43644,202.50783l-14.81581,-17.38842l2.84355,-29.93807" fill="none" stroke="#3a2f41" stroke-width="1.5" stroke-linecap="round"/></g><path d="M254.64312,180.99205c-2.05124,-8.75395 4.03443,-25.21983 4.03443,-25.21983c0,0 5.16007,0.04252 8.01693,0.34538c2.60249,0.2759 8.31834,0.90462 8.31834,0.90462c0,0 3.8581,-0.32778 7.30176,-3.40149c2.15751,-1.92575 10.4171,-11.74147 10.7584,-11.83568c0.06561,-0.01811 3.84143,0.12549 7.99987,0.8636c4.82681,0.85675 13.51036,6.0952 15.90013,8.82943c2.60352,2.9788 4.49698,7.3995 5.21989,10.95624c1.10482,5.43567 1.35081,11.26666 -0.16916,16.76787c-0.57279,2.07309 -2.48939,6.03986 -2.48939,6.03986c0,0 -6.09126,7.38861 -14.57152,11.85675c-10.49078,-1.28855 -16.32304,-8.31175 -16.32304,-8.31175l-6.81122,0.54745c0,0 -4.39894,3.06228 -6.63839,4.39256c-2.23192,1.32582 -6.77575,3.57575 -6.77575,3.57575c0,0 -11.72004,-7.55681 -13.77127,-16.31076z" data-paper-data="{&quot;index&quot;:null}" fill="#3a2f41" stroke="#8c9ca0" stroke-width="2" stroke-linecap="round"/><path d="M357.96058,168.03301c0,0 -1.61974,1.91385 -2.24186,2.18571c-0.32962,0.14403 -0.64433,0.2487 -0.83556,0.23172c-0.58486,-0.05185 -1.28682,-0.15168 -1.69776,-0.34338c-0.61753,-0.288 -1.27099,-0.6203 -1.64664,-0.89333c-0.94458,-0.68643 -1.95867,-1.50702 -2.32894,-1.92916c-0.95953,-1.09411 -2.1288,-2.51305 -2.46647,-2.97049c-0.75757,-1.02621 -1.68365,-2.28735 -1.95087,-2.68009c-0.57587,-0.8462 -1.23006,-2.93077 -1.51411,-3.08635c-0.43865,-0.24035 -2.06072,-0.5432 -2.42387,-0.73412c-1.3023,-0.68464 -2.95405,-1.55738 -3.45591,-1.84205c-0.90692,-0.51443 -2.04844,-1.06882 -2.51335,-1.55706c-0.91278,-0.95855 -2.23849,-2.34184 -3.19629,-3.48735c-0.69931,-0.8363 -1.10344,-1.6724 -1.10245,-1.85792c0.00179,-0.31852 -0.20849,-1.27373 0.01487,-1.86946c0.36015,-0.96062 2.2559,-2.57261 2.2559,-2.57261" fill="none" stroke="#3b3045" stroke-width="1" stroke-linecap="round"/><g data-paper-data="{&quot;index&quot;:null}" stroke="#3a2f41"><g data-paper-data="{&quot;index&quot;:null}"><g><path d="M383.58252,220.23926l1.73574,-26.35049l94.38469,6.65015l-30.80461,23.89562z" fill="#e1e2db" stroke-width="0" stroke-linecap="butt"/><path d="M383.58252,220.23926l1.73574,-26.35049l39.88312,2.56173l-22.54433,25.01392z" fill="#8c9ca0" stroke-width="0" stroke-linecap="butt"/><path d="M402.69819,220.8414l14.40518,-24.82152" fill="none" stroke-width="1.5" stroke-linecap="round"/><path d="M437.02145,197.65684l-16.40478,24.33549" fill="none" stroke-width="1.5" stroke-linecap="round"/><path d="M438.22276,223.48079l19.07623,-25.23668" fill="none" stroke-width="1.5" stroke-linecap="round"/><path d="M384.82197,201.42379l0.49633,-7.53498l94.21662,6.0516l-30.63654,24.49415l-65.31581,-4.1953l0.22624,-3.43474" fill="none" stroke-width="2" stroke-linecap="butt"/></g><path d="M354.93143,223.40529l2.39251,-36.32092l45.08525,2.89585l-2.39251,36.32093z" fill="#e1e2db" stroke-width="0" stroke-linecap="butt"/><path d="M354.93141,223.4053l2.39252,-36.32094l26.01072,1.6707l-20.311,35.17z" fill="#8c9ca0" stroke-width="0" stroke-linecap="butt"/><path d="M362.37772,216.10603l1.40735,-21.36525l29.18981,1.8749l-1.40734,21.36525z" fill="none" stroke-width="1.5" stroke-linecap="butt"/><path d="M377.94648,195.65039l-15.56874,20.45564" fill="none" stroke-width="1.5" stroke-linecap="round"/><path d="M392.92804,197.32784l-15.49839,19.38739" fill="none" stroke-width="1.5" stroke-linecap="round"/><path d="M356.81332,198.93363l0.77788,-11.80903l45.08525,2.89585l-2.39251,36.32094l-45.08527,-2.89587l0.66022,-10.02295" fill="none" stroke-width="2" stroke-linecap="butt"/></g><g data-paper-data="{&quot;index&quot;:null}" stroke-width="2" stroke-linecap="butt"><path d="M372.32156,226.21313l-39.30922,-2.68443c0,0 -35.0236,-24.08 -46.29312,-32.23426c-6.2064,-4.49076 -15.74233,-12.6526 -15.74233,-12.6526l15.14311,-5.37657l38.36679,16.18667l51.23423,-2.99919z" fill="#3a2f41"/><path d="M365.30813,225.73511l-2.16279,-0.31476l1.4327,-38.16659l2.11464,0.04587z" fill="#8ea8ab"/></g></g><g data-paper-data="{&quot;index&quot;:null}"><path d="M324.51487,170.83189c-1.94407,0.44896 -6.71128,-3.74858 -7.20473,-5.8853c-0.49345,-2.13672 1.59917,-7.78486 3.54323,-8.23381c1.94407,-0.44896 4.18897,4.39789 4.68241,6.53461c0.49345,2.13672 0.92315,7.13555 -1.02093,7.58452z" fill="#3a2f41" stroke="none" stroke-width="0" stroke-linecap="butt"/><g fill="#8c9ca0" stroke="#8c9ca0" stroke-width="1.5" stroke-linecap="butt"><path d="M305.53792,150.08041c0.54912,-0.90009 16.03887,5.86044 16.03887,5.86044l-3.84776,8.60877l7.97364,6.33422c0,0 -11.00106,12.97733 -11.86289,12.57017c-0.47654,-0.22513 0.55986,-4.1333 0.88053,-8.77292c0.295,-4.26798 -0.14114,-9.30674 -0.14114,-9.30674c0,0 -2.51216,-4.86047 -4.92549,-8.7542c-2.20665,-3.56026 -4.34473,-6.16444 -4.11577,-6.53974z"/></g><path d="M319.99217,156.31039l1.93793,0.06019l3.711,6.465l0.10661,7.57797l-1.68891,1.19171" fill="none" stroke="#8c9ca0" stroke-width="2" stroke-linecap="round"/></g><g data-paper-data="{&quot;index&quot;:null}" fill="#8c9ca0" stroke="#3a2f41" stroke-width="2" stroke-linecap="butt"><path d="M305.50417,171.39977c-1.77797,0.30331 -3.47626,-0.95707 -3.79324,-2.81512c-0.31697,-1.85806 0.8674,-3.6102 2.64539,-3.9135c1.77797,-0.30331 3.47626,0.95707 3.79324,2.81512c0.31697,1.85805 -0.86742,3.6102 -2.64539,3.9135z"/><path d="M295.97481,173.66642c-1.83978,0.31385 -3.59981,-1.00623 -3.93114,-2.9485c-0.33133,-1.94225 0.8915,-3.77119 2.73127,-4.08503c1.83978,-0.31385 3.59979,1.00623 3.93113,2.94848c0.33133,1.94225 -0.89148,3.77121 -2.73126,4.08506z"/></g><g data-paper-data="{&quot;index&quot;:null}" stroke="#3a2f41" stroke-width="2"><g fill="#e1e2db"><path d="M398.41309,196.86744l18.01952,-24.58423l-4.32218,27.17133z" stroke-linecap="round"/><path d="M403.86986,196.85156l23.88294,-18.93917l-11.35856,25.05885z" stroke-linecap="round"/><path d="M336.92961,196.08304l3.36925,-3.29203l-11.46846,-4.07472l8.90679,-2.18453l-2.1313,-3.72519c0,0 22.44022,2.02594 29.35452,2.17585c4.43221,0.0961 7.47546,0.0326 7.47546,0.0326l11.2206,-15.07032l25.08902,-2.23322c0,0 -21.7352,11.35788 -18.47252,15.66875c0.79965,1.05658 24.19896,9.0306 24.19896,9.0306l21.89518,-5.51414l-18.77461,17.33608c0,0 -6.73051,-0.09912 -15.29306,-1.21201c-8.56256,-1.11289 11.84711,0.89933 13.22366,0.94305l-9.8024,4.98656c0,0 -13.04878,-2.39641 -17.57293,-2.93563c-13.19997,-1.57329 -51.21819,-9.93172 -51.21819,-9.93172z" stroke-linecap="butt"/></g><g stroke-linecap="butt"><path d="M371.17682,210.45989l-39.15666,-4.37925c0,0 -33.95118,-25.56984 -44.8581,-34.20309c-6.0067,-4.75456 -8.33036,-12.09772 -8.33036,-12.09772l15.56009,-3.0623l30.58217,14.94997l51.31593,-0.78416z" fill="#3a2f41"/><path d="M364.19057,209.67945l-2.14717,-0.40782l3.07936,-38.06913l2.11068,0.13713z" fill="#8ea8ab"/></g></g></g></g></svg>