<svg version="1.1" xmlns="http://www.w3.org/2000/svg" xmlns:xlink="http://www.w3.org/1999/xlink" width="241.01027" height="347.49341" viewBox="0,0,241.01027,347.49341"><g transform="translate(-101.94173,-56.21781)"><g data-paper-data="{&quot;isPaintingLayer&quot;:true}" fill-rule="nonzero" stroke-linejoin="miter" stroke-miterlimit="10" stroke-dasharray="" stroke-dashoffset="0" style="mix-blend-mode: normal"><path d="M276.67271,196.13446c0.8098,46.7465 43.59785,82.88781 42.84061,83.05233c-3.35037,1.5879 -37.02179,-22.211 -52.33485,-44.01572c-6.19732,-8.82453 -37.68887,-30.44433 -44.98797,-46.7619c-5.972,-13.35077 10.39294,-22.19154 18.68795,-25.6043c7.7674,-3.19568 35.35946,8.23139 35.79426,33.32958z" data-paper-data="{&quot;index&quot;:null}" fill="#3a2f41" stroke="#3a2f41" stroke-width="1.5" stroke-linecap="butt"/><path d="M268.7255,155.3878c-1.18526,11.98615 -19.8756,16.04669 -38.12853,15.07512c-1.51241,-0.0805 -1.18001,-24.00511 -2.65702,-24.15117c-4.01239,-0.39677 -9.86611,22.74066 -13.70688,21.80682c-14.63612,-3.55861 -26.65822,-10.90491 -25.64155,-21.18622c1.4685,-14.85046 16.76641,-26.1836 29.41654,-31.88272c7.09425,-3.19609 15.11715,-4.11679 15.11715,-4.11679c0,0 6.42786,2.1178 11.77774,5.79398c11.0853,7.61732 25.45381,21.91685 23.87634,37.86928z" fill="#3a2f41" stroke="#3a2f41" stroke-width="2" stroke-linecap="butt"/><path d="M224.8426,128.67173c2.37019,5.87659 -15.80092,17.70299 -30.36994,23.57909c-14.56904,5.87611 -32.20667,-6.29947 -32.67584,-12.63615c-0.30597,-0.47591 19.84722,3.18886 34.94772,-10.68936c15.1005,-13.87822 25.72787,-6.13018 28.09807,-0.2536z" fill="#3a2f41" stroke="#3a2f41" stroke-width="1.5" stroke-linecap="butt"/><path d="M226.98757,129.30552c13.19813,14.15918 -7.80602,25.01613 -24.21498,35.28349c-22.29986,13.95336 -56.22596,8.63916 -59.41975,1.62976c-0.60147,-0.44714 32.2135,-7.11066 46.50649,-27.74273c14.29299,-20.63207 31.56685,-15.13686 37.12825,-9.1705z" fill="#3a2f41" stroke="#3a2f41" stroke-width="1.5" stroke-linecap="butt"/><path d="M264.46636,134.55666c12.0899,16.56697 32.57055,16.9203 32.1773,17.32707c-1.70117,6.12207 -21.38186,14.6074 -34.51786,5.99166c-13.13599,-8.61574 -28.6389,-23.77202 -25.16364,-29.07057c3.47526,-5.29855 15.4143,-10.81511 27.50422,5.75187z" data-paper-data="{&quot;index&quot;:null}" fill="#3a2f41" stroke="#3a2f41" stroke-width="1.5" stroke-linecap="butt"/><path d="M269.89441,144.82253c9.97526,23.03186 40.8496,35.99336 40.17219,36.31402c-4.50477,6.24812 -38.81465,4.81476 -57.94974,-13.23593c-14.08024,-13.28231 -32.55119,-28.04277 -16.83551,-39.34278c6.62224,-4.76158 24.63782,-6.76717 34.61308,16.26468z" data-paper-data="{&quot;index&quot;:null}" fill="#3a2f41" stroke="#3a2f41" stroke-width="1.5" stroke-linecap="butt"/><path d="M229.78001,144.61199c5.93916,6.37165 16.80615,20.8707 6.15431,30.74746c-13.01887,12.07156 -49.51254,19.51896 -58.53745,25.16599c-22.29986,13.95336 -61.59494,22.54081 -63.90928,19.77562c-0.60147,-0.44714 51.71207,-16.757 71.28102,-59.21257c10.50657,-22.79439 39.45,-22.44286 45.0114,-16.4765z" fill="#3a2f41" stroke="#3a2f41" stroke-width="1.5" stroke-linecap="butt"/><path d="M270.70231,167.42434c10.87478,45.46602 58.98075,71.70593 58.30334,72.0266c-2.8111,2.25835 -49.99859,-4.07223 -71.13338,-23.76183c-7.74412,-7.30525 -29.73737,-29.90373 -40.13981,-44.29132c-8.51111,-11.77168 4.98516,-23.86158 12.05723,-28.9466c6.62224,-4.76158 35.07396,0.56245 40.91262,24.97315z" data-paper-data="{&quot;index&quot;:null}" fill="#3a2f41" stroke="#3a2f41" stroke-width="1.5" stroke-linecap="butt"/><path d="M220.49335,157.59557c6.88995,5.07497 19.95711,16.99507 11.05361,27.64927c-10.88204,13.02177 -33.05452,42.06234 -41.03925,48.56582c-36.0029,22.8647 -73.58374,8.10034 -76.31435,5.86095c-0.66564,-0.33022 25.61603,-12.20694 37.02616,-36.86381c34.43068,-19.19186 62.82213,-49.96439 69.27383,-45.21222z" data-paper-data="{&quot;index&quot;:null}" fill="#3a2f41" stroke="#3a2f41" stroke-width="1.5" stroke-linecap="butt"/><path d="M283.07983,224.66103c3.28961,62.28578 60.07629,108.33479 59.10999,108.59199c-4.23406,2.28449 -35.96497,-6.73721 -56.7144,-35.04405c-8.39745,-11.45601 -62.68578,-59.73499 -72.86104,-81.12627c-8.32522,-17.50198 12.30397,-30.10675 22.81181,-35.07129c9.83948,-4.64876 45.88745,9.20839 47.65366,42.64962z" data-paper-data="{&quot;index&quot;:null}" fill="#3a2f41" stroke="#3a2f41" stroke-width="1.5" stroke-linecap="butt"/><path d="M173.54684,302.4584c-1.52593,0.15143 -7.13482,-4.06624 -8.63326,-3.44916c-26.14454,10.7665 -62.09402,20.33551 -62.18213,19.63997c34.71343,-35.35953 25.86185,-55.56535 53.26827,-80.88837c8.76439,-5.40712 47.72437,-45.21976 63.59694,-51.22363c12.98668,-4.91227 18.4276,48.66313 20.95933,56.8373c2.3707,7.65424 -37.57748,32.86221 -67.00914,59.08389zM128.79014,289.02689c0.20714,0.02049 4.2174,-3.87483 8.37448,-11.11411c3.15003,-5.48557 6.04932,-13.64027 9.36536,-19.16621c4.79736,-7.99445 9.05338,-13.55871 9.07583,-13.78579c0,0 -5.92789,4.3158 -11.38689,12.49936c-3.43354,5.1472 -5.80062,11.85296 -8.6619,17.99361c-3.3736,7.24011 -6.95182,13.55486 -6.76689,13.57314z" data-paper-data="{&quot;index&quot;:null}" fill="#3a2f41" stroke="#3a2f41" stroke-width="1.5" stroke-linecap="butt"/><path d="M298.10246,304.85891c4.20961,33.87156 -23.44272,78.42838 -27.48354,81.51229c-4.46025,3.404 -0.767,-41.09276 -29.88043,-71.63889c-23.291,-24.43716 -7.65446,-68.704 5.70657,-70.48811c13.36103,-1.78411 47.44781,26.74316 51.6574,60.61473zM280.29134,367.40061c5.32691,-9.32121 16.1115,-43.08294 14.94561,-56.40892c0,0 -2.41752,12.52771 -5.97039,25.85954c-3.97748,14.92519 -9.13092,30.8218 -8.97523,30.54937z" fill="#3a2f41" stroke="#3a2f41" stroke-width="1.5" stroke-linecap="butt"/><path d="M257.51963,338.40254c-17.00284,34.64482 -70.1479,64.09966 -76.51254,64.55448c-7.02526,0.50203 14.28802,-44.07972 2.05836,-90.77111c-9.78383,-37.35352 41.15946,-69.16843 56.84285,-62.70538c15.68338,6.46305 34.61417,54.2772 17.61133,88.92203z" fill="#3a2f41" stroke="#3a2f41" stroke-width="1.5" stroke-linecap="butt"/><path d="M207.39945,320.46727c-22.66775,30.12884 -72.23161,52.3932 -78.04172,51.46226c-1.48848,0.18 22.81597,-43.14202 21.82003,-91.33801c-0.79675,-38.5572 46.72724,-60.37812 59.42293,-50.68499c12.69569,9.69313 19.46651,60.43191 -3.20124,90.56075z" fill="#3a2f41" stroke="#3a2f41" stroke-width="1.5" stroke-linecap="butt"/><path d="M195.14168,115.37644c3.22949,-7.99146 8.28049,-17.65604 13.333,-26.61557c1.4049,0.06711 3.67569,0.17559 4.92636,0.23533l0.07698,-1.6116c-0.88186,-0.04212 -3.31563,-0.1584 -4.1975,-0.20052c0.1779,-0.31172 0.73942,-1.14243 0.91688,-1.45183c1.18171,0.05645 2.51251,0.12001 3.50111,0.16723l0.07698,-1.61161c-0.58938,-0.02816 -1.89507,-0.09052 -2.48444,-0.11868c7.34053,-12.65901 22.87154,-30.59038 21.79122,-25.7387c-1.08032,4.85168 -9.295,71.4839 -9.295,71.4839c0,0 -37.61322,18.60184 -37.59527,7.22214z" data-paper-data="{&quot;index&quot;:null}" fill="#3a2f41" stroke="#3a2f41" stroke-width="0.5" stroke-linecap="butt"/><path d="M270.25446,147.03741c-3.99173,10.65666 -32.64157,-20.00227 -32.64157,-20.00227c0,0 15.78322,-65.25506 16.48116,-70.17632c0.69795,-4.92128 14.7521,37.6996 15.44944,66.66067z" data-paper-data="{&quot;index&quot;:null}" fill="#3a2f41" stroke="#3a2f41" stroke-width="0.5" stroke-linecap="butt"/><path d="M246.54796,204.71875c-2.35829,6.87227 -10.36448,17.13095 -10.36448,17.13095l-31.71112,-6.34192c0,0 -7.20368,-18.64231 -2.35958,-30.70422c1.90162,-4.73505 15.10007,-9.20884 21.10463,-8.0779c3.72827,0.7022 10.5241,1.0291 15.84095,3.99326c0,0 7.77676,4.76317 9.14448,9.03837c2.13566,6.67563 -1.6549,14.96145 -1.6549,14.96145z" fill="#3a2f41" stroke="#8c9ca0" stroke-width="2" stroke-linecap="round"/><g><g stroke-linecap="butt"><path d="M168.05716,261.01383l14.59696,-46.67143l13.65696,5.79465l-12.71614,41.6758c0,0 -5.95665,4.92377 -7.69267,4.22944z" data-paper-data="{&quot;index&quot;:null}" fill="#e1e2db" stroke="none" stroke-width="0"/><path d="M185.74947,229.45303c-3.20072,-1.10297 -6.11008,-6.27332 -6.11008,-6.27332l2.75926,-8.71897l14.30461,5.79773c0,0 -1.65405,5.14906 -2.62577,7.89667c0,0 -5.12729,2.40088 -8.32801,1.2979z" data-paper-data="{&quot;index&quot;:null}" fill="#8c9ca0" stroke="none" stroke-width="0"/><path d="M182.67686,214.67001l13.65698,5.79465l-13.39353,44.26446c0,0 -4.73622,1.7226 -6.91945,0.8494c-1.94925,-0.77963 -7.74671,-5.1057 -7.74671,-5.1057z" data-paper-data="{&quot;index&quot;:null}" fill="none" stroke="#3a2f41" stroke-width="2.5"/></g><g stroke="#8c9ca0" stroke-width="2" stroke-linecap="round"><path d="M208.47176,200.24085l-5.26601,21.16526c0,0 -6.48599,4.03385 -13.95315,1.9162c-7.46716,-2.11765 -9.70381,-8.68297 -9.70381,-8.68297c0,0 4.88828,-15.05207 10.15987,-24.6853c4.37405,-7.99309 15.93921,-8.71598 15.93921,-8.71598" fill="#3a2f41"/><path d="M204.11017,215.64864c0,0 -6.04269,3.88458 -12.78646,1.99122c-7.00217,-1.9659 -9.49553,-7.75952 -9.49553,-7.75952" fill="none"/></g></g><g data-paper-data="{&quot;index&quot;:null}"><g stroke-linecap="butt"><path d="M261.50236,268.88939c-1.78722,0.54921 -7.31878,-4.84775 -7.31878,-4.84775l-9.24571,-42.58039l14.08726,-4.65188l10.70933,47.71376z" data-paper-data="{&quot;index&quot;:null}" fill="#e1e2db" stroke="none" stroke-width="0"/><path d="M254.69759,231.61428c-3.28058,0.83603 -8.19307,-1.97837 -8.19307,-1.97837c-0.74245,-2.81822 -1.96746,-8.08586 -1.96746,-8.08586l14.73295,-4.6017l2.03287,8.91635c0,0 -3.32472,4.91358 -6.60529,5.7496z" data-paper-data="{&quot;index&quot;:null}" fill="#8c9ca0" stroke="none" stroke-width="0"/><path d="M269.56266,263.96611c0,0 -6.13359,3.83465 -8.14036,4.45132c-2.24765,0.6907 -6.82616,-1.41556 -6.82616,-1.41556l-9.70792,-45.21598l14.08727,-4.65188z" data-paper-data="{&quot;index&quot;:null}" fill="none" stroke="#3a2f41" stroke-width="2.5"/></g><g stroke="#8c9ca0" stroke-width="2" stroke-linecap="round"><path d="M240.39341,182.45643c0,0 9.90485,1.14132 13.60675,9.46705c4.4615,10.03413 8.09537,25.43723 8.09537,25.43723c0,0 -2.76898,6.35912 -10.38501,7.85552c-7.61603,1.49639 -13.7483,-3.05719 -13.7483,-3.05719l-3.50759,-21.52664" fill="#3a2f41"/><path d="M260.21522,212.43035c0,0 -2.96138,5.56895 -10.1015,6.95234c-6.87665,1.33235 -12.5794,-3.03602 -12.5794,-3.03602" fill="none"/></g></g><g><path d="M231.20517,175.17717c-0.17803,1.79583 -5.15484,4.66582 -7.12862,4.47015c-1.97379,-0.19566 -6.20794,-3.62376 -6.02992,-5.4196c0.17803,-1.79583 4.98112,-2.3165 6.95489,-2.12083c1.97379,0.19566 6.38167,1.27445 6.20364,3.07027z" fill="#3a2f41" stroke="none" stroke-width="0" stroke-linecap="butt"/><g fill="#8c9ca0" stroke="#8c9ca0" stroke-width="1.5" stroke-linecap="butt"><path d="M207.93009,185.43172c-0.61234,-0.73108 9.66449,-12.04733 9.66449,-12.04733l6.26306,5.78908l7.73587,-4.9991c0,0 7.93587,13.18328 7.33749,13.80392c-0.33086,0.34317 -3.37977,-1.67619 -7.26262,-3.29396c-3.57183,-1.4882 -8.01581,-2.57302 -8.01581,-2.57302c0,0 -4.89212,0.74573 -8.92723,1.68662c-3.68953,0.86032 -6.53995,1.93862 -6.79526,1.63378z"/></g><path d="M217.45254,174.84921l0.61254,-1.64318l6.61406,-1.30857l6.52443,2.10219l0.5323,1.79218" fill="none" stroke="#8c9ca0" stroke-width="1.5" stroke-linecap="round"/></g><g fill="#3a2f41"><path d="M234.28567,220.2704l-1.29077,7.97968c0,0 1.0858,3.41615 2.01559,8.2832c0.91445,4.78676 0.912,8.34199 0.912,8.34199c0,0 -3.2037,1.88995 -7.06054,3.3979c-3.9635,1.54965 -8.61875,2.71392 -11.34459,2.36957c-2.34063,-0.29569 -6.31027,-2.20524 -9.59805,-4.16547c-3.96148,-2.36191 -7.07845,-4.8133 -7.07845,-4.8133c0,0 0.60645,-3.91587 2.67096,-9.16223c1.6408,-4.16961 2.85666,-6.93893 2.85666,-6.93893c0,0 1.03212,-8.84318 1.02061,-8.85094" stroke="#8c9ca0" stroke-width="1.5" stroke-linecap="round"/><path d="M243.11437,191.39399c6.56271,9.7677 7.88542,20.77854 7.88542,20.77854c0,0 -7.78555,8.51445 -17.80336,13.29279l-26.14348,-2.99094c-12.76297,-8.66554 -14.49475,-16.32467 -14.49475,-16.32467c0,0 3.61118,-9.57992 11.82758,-17.9545" stroke="#8c9ca0" stroke-width="1.5" stroke-linecap="round"/><path d="M206.71833,226.71075l1.04246,-9.52801l25.75138,2.81745l-1.04246,9.52801z" stroke="none" stroke-width="0" stroke-linecap="butt"/></g><path d="M226.53639,195.37841c-0.11201,2.14311 -1.97635,3.78776 -4.16412,3.67341c-2.18776,-0.11435 -3.8705,-1.94438 -3.75849,-4.08749c0.11201,-2.14311 1.97635,-3.78777 4.16412,-3.67342c2.18776,0.11435 3.8705,1.94438 3.75849,4.0875z" fill="#8c9ca0" stroke="#3a2f41" stroke-width="1" stroke-linecap="butt"/><path d="M226.07446,206.17595c-0.26004,2.13023 -2.23372,3.64192 -4.40833,3.37646c-2.17461,-0.26546 -3.72668,-2.20755 -3.46664,-4.33777c0.26004,-2.13023 2.23372,-3.64193 4.40833,-3.37647c2.17461,0.26546 3.72668,2.20756 3.46663,4.33778z" fill="#8c9ca0" stroke="#3a2f41" stroke-width="1" stroke-linecap="butt"/><path d="M266.98685,148.96499c-1.07045,10.82513 -17.95037,14.49235 -34.43526,13.61489c-1.36592,-0.07271 -1.06571,-21.67989 -2.39964,-21.81179c-3.62373,-0.35834 -8.91044,20.53791 -12.37917,19.69454c-13.21842,-3.21391 -24.07601,-9.84862 -23.15781,-19.13405c1.32626,-13.412 15.14236,-23.64737 26.56715,-28.79445c6.40707,-2.8865 13.65286,-3.71802 13.65286,-3.71802c0,0 5.80525,1.91266 10.6369,5.23275c10.01155,6.87949 22.98827,19.7939 21.5636,34.20111z" fill="#3a2f41" stroke="none" stroke-width="0" stroke-linecap="butt"/><path d="M263.16411,151.73128c-2.39567,19.06587 -14.38253,25.86112 -14.38253,25.86112c0,0 3.79833,-16.50545 3.61529,-30.94134" data-paper-data="{&quot;index&quot;:null}" fill="#3a2f41" stroke="#b8c1c0" stroke-width="2" stroke-linecap="round"/><path d="M256.94828,166.37825c-2.0175,2.61446 6.51779,-24.61312 7.0663,-24.64555c0.69792,-0.04128 1.55013,3.56453 1.90347,8.05379c0.35332,4.48926 -6.71281,16.85769 -6.51729,16.27204c2.69353,-5.08224 4.34125,-11.21905 3.98793,-15.70831c-0.07565,-0.96107 -1.87549,10.11245 -6.44039,16.02805z" data-paper-data="{&quot;index&quot;:null}" fill="#3a2f41" stroke="none" stroke-width="0" stroke-linecap="butt"/><path d="M211.62992,141.6177c-2.48443,11.99291 -3.60688,31.39626 -3.60688,31.39626c0,0 -10.79144,-8.00241 -10.69148,-29.60711" fill="#3a2f41" stroke="#b8c1c0" stroke-width="2" stroke-linecap="round"/><path d="M197.14824,143.79334c-0.43581,4.40727 0.64148,10.44337 1.51814,15.58346c0.09828,0.57621 -3.56968,-11.33595 -3.13387,-15.74323c0.43581,-4.40727 1.1508,-7.94431 1.59698,-7.90019c0.35065,0.03467 4.4796,26.41284 3.30597,23.8347c-2.65549,-5.8334 -3.19393,-16.71825 -3.28723,-15.77473z" fill="#3a2f41" stroke="none" stroke-width="0" stroke-linecap="butt"/><g stroke-linecap="butt"><path d="M255.76549,150.49045c-0.52056,5.2642 -1.37455,9.92205 -5.8585,12.90989c-4.35882,2.90446 -11.80074,3.32005 -21.05267,2.58517c-9.20851,-0.73142 -16.8941,-3.6131 -20.61127,-7.45467c-3.76054,-3.88636 -3.91678,-7.8551 -3.40051,-13.07595c1.02659,-10.38152 10.07736,-22.80227 31.38814,-20.11683c14.01835,1.76649 20.5614,14.77086 19.53481,25.15238z" fill="#e1e2db" stroke="none" stroke-width="0"/><path d="M256.38522,152.44986c-1.0957,6.14458 -11.37024,0.65081 -22.90977,-0.40711c-11.53722,-1.0577 -29.63824,3.57885 -28.61165,-6.80267c1.02659,-10.38152 10.07735,-22.80228 31.38813,-20.11685c14.01835,1.76649 21.38294,14.68941 20.35635,25.07094z" fill="#b8c1c0" stroke="none" stroke-width="0"/><path d="M240.38482,126.19961c9.83623,3.02289 15.59109,9.21141 15.90649,18.67242c0.08006,2.40174 0.06526,7.36476 -0.54965,9.90361c-0.89173,3.68182 -1.15713,5.64475 -4.23669,7.98367c-4.34449,3.29966 -12.24117,4.06357 -22.10748,3.2799c-6.81609,-0.5414 -14.44563,-2.63766 -18.1602,-5.01087c-6.38071,-4.07657 -6.79688,-9.31284 -6.14803,-15.87446c0.87138,-8.81192 7.49212,-18.77081 22.51636,-20.03596" fill="none" stroke="#3a2f41" stroke-width="2"/></g><path d="M265.52459,145.02639c-2.66242,1.26877 -4.44644,3.96356 -7.5605,3.78664c-7.79567,-0.44293 -15.6295,-4.35913 -19.54417,-9.67743c-5.57566,-6.94568 -3.14705,-18.22155 -0.65064,-20.30339c2.53498,-2.11401 10.48811,1.46645 16.33273,8.4749z" data-paper-data="{&quot;index&quot;:null}" fill="#3a2f41" stroke="none" stroke-width="0" stroke-linecap="butt"/><path d="M238.59592,121.17236c2.13697,4.57364 -5.68199,14.82663 -15.40098,19.36769c-3.83619,1.79241 -11.67334,3.29213 -12.76438,3.84853c-0.90802,0.46308 -6.67515,1.44567 -6.32503,2.82525c0.97602,3.84584 -2.28866,-4.94683 -3.32887,-7.17315c-2.13697,-4.57364 4.00947,-11.96257 13.72845,-16.50364c9.71899,-4.54104 21.95383,-6.93833 24.09081,-2.36469z" fill="#3a2f41" stroke="none" stroke-width="0" stroke-linecap="butt"/><path d="M242.49772,135.69126c-3.22376,9.97438 -15.08979,17.42846 -26.14783,16.14441c-0.24242,-0.04197 9.69922,-7.24994 10.78536,-18.23372c0.71969,-7.27801 5.98332,-12.14495 9.49349,-11.79785c3.45516,0.34167 6.44693,5.93881 5.83012,13.06772c-0.00983,0.11354 0.0741,0.71038 0.03884,0.81948z" data-paper-data="{&quot;index&quot;:null}" fill="#3a2f41" stroke="none" stroke-width="0" stroke-linecap="butt"/><path d="M232.41384,134.87819c-8.17713,10.10739 -22.50234,11.87541 -25.74162,12.11251c-3.23927,0.2371 -2.24444,-2.81309 -2.30555,-3.64794c-0.06111,-0.83487 3.15081,-9.77583 6.39008,-10.01292c3.23927,-0.23709 21.596,0.71352 21.6571,1.54837z" fill="#3a2f41" stroke="none" stroke-width="0" stroke-linecap="butt"/><path d="M207.46733,148.88365c0,0 3.86616,-3.61166 9.76834,-2.64243c6.25338,1.0269 8.83862,6.40954 8.83862,6.40954c0,0 -4.1282,0.13644 -9.79807,-0.93703c-5.03827,-0.95388 -8.80889,-2.83008 -8.80889,-2.83008z" fill="#e1e2db" stroke="#3a2f41" stroke-width="1" stroke-linecap="butt"/><path d="M211.4971,150.6321l-0.03227,-4.20631l0.44171,0.04755l-0.08957,4.17955z" fill="#3a2f41" stroke="#3a2f41" stroke-width="0.5" stroke-linecap="butt"/><path d="M261.07946,147.9709c0,0 -5.60843,5.85223 -16.47234,0.51424c-5.79955,-2.84961 -7.84717,-11.24478 -7.4888,-14.86893c0,0 1.88865,10.04534 10.17825,13.52631c6.2765,2.63564 11.52709,0.97479 13.18169,0.54422c0.34918,-0.09087 0.6012,0.28416 0.6012,0.28416z" fill="#3a2f41" stroke="none" stroke-width="0" stroke-linecap="butt"/><g stroke="#3b3045" stroke-width="0.5" stroke-linecap="butt"><path d="M223.59767,162.40438c-5.29543,-0.55507 -12.85883,-0.13114 -12.85883,-0.13114c0,0 -0.2999,-5.21578 4.13642,-7.60152c2.07129,-1.1139 6.92139,-0.65264 10.14189,-0.49747c4.61813,0.22252 10.49465,0.99842 13.34456,2.58427c6.22838,3.46585 6.3666,9.07757 6.3666,9.07757c0,0 -15.17418,-2.80727 -21.13064,-3.43161z" fill="#3b3045"/><path d="M218.79119,154.27292l0.05961,3.87034l-5.52243,-2.09473z" data-paper-data="{&quot;index&quot;:null}" fill="#e0dedc"/><path d="M221.79914,158.17576l-2.71064,-3.99735l6.28749,0.25489z" data-paper-data="{&quot;index&quot;:null}" fill="#e0dedc"/><path d="M226.91519,158.05125l-1.73914,-3.59943l6.29273,0.48956z" data-paper-data="{&quot;index&quot;:null}" fill="#e0dedc"/><path d="M231.5164,158.36741l-0.47224,-3.24802l5.86138,1.23763z" data-paper-data="{&quot;index&quot;:null}" fill="#e0dedc"/><path d="M235.13826,159.26665l1.62039,-2.83554l4.28998,2.5701z" data-paper-data="{&quot;index&quot;:null}" fill="#e0dedc"/></g></g></g></svg>