<svg xmlns="http://www.w3.org/2000/svg" xmlns:xlink="http://www.w3.org/1999/xlink" version="1.1" width="198.31294655799866" height="110.69064736366272" viewBox="2.0323764085769653 -1.3453236818313599 198.31294655799866 110.69064736366272">
  <defs>
    <radialGradient id="grad_1" cx="0.5" cy="0.5138" r="0.66794">
      <stop offset="0" stop-color="#F66C98" stop-opacity="1"/>
      <stop offset="1" stop-color="#9A2E38" stop-opacity="1"/>
    </radialGradient>
  <radialGradient id="grad_1-,0,0,1,-139,-243" cx="105" cy="55.4904" r="102.402" gradientUnits="userSpaceOnUse">
      <stop offset="0" stop-color="#F66C98" stop-opacity="1"/>
      <stop offset="1" stop-color="#9A2E38" stop-opacity="1"/>
    </radialGradient></defs>
  <!-- Exported by Scratch - http://scratch.mit.edu/ -->
  <path id="ID0.9129331279546022" fill="url(#grad_1-,0,0,1,-139,-243)" stroke="none" d="M 11 0 L 199 0 L 199 108 L 11 108 L 11 0 Z " stroke-width="1"/>
  <g id="ID0.901408904697746">
    <path id="ID0.7797387707978487" fill="#D33445" stroke="#D33445" stroke-width="2.6906473636627197" stroke-linecap="round" d="M 3.3777 28.2662 L 19.1852 14.1403 L 29.9478 19.5216 L 36.3381 18.8489 L 55.509 23.2212 L 46.7644 30.2842 L 53.1547 37.6834 L 58.536 29.2752 L 67.6169 38.0198 L 60.8903 40.7104 L 47.437 54.5 L 35.3291 55.509 L 50.1277 65.2626 L 77.7068 76.0252 L 75.0162 84.4334 L 64.5899 94.187 L 63.5809 107.3039 L 56.8543 97.8867 L 55.509 82.7518 L 47.437 74.3435 L 49.455 67.9532 L 30.9568 60.5539 L 19.8579 48.446 L 21.5396 37.0108 L 17.8399 28.9388 L 3.3777 28.2662 Z "/>
    <path id="ID0.5276037878356874" fill="#D33445" stroke="#D33445" stroke-width="2.6906473636627197" stroke-linecap="round" d="M 75.0162 19.1852 L 71.9892 11.4496 L 82.7518 5.3957 L 93.5144 8.4227 L 87.1241 24.9029 L 75.3525 29.6115 L 75.0162 19.1852 Z "/>
    <path id="ID0.22614181134849787" fill="#D33445" stroke="#D33445" stroke-width="2.6906473636627197" stroke-linecap="round" d="M 109.9946 45.4191 L 97.8867 46.428 L 118.7392 32.9748 L 114.7032 28.2662 L 105.6223 33.6475 L 112.3489 23.5575 L 122.7752 26.5845 L 135.8921 21.8759 L 142.2824 11.4496 L 150.3543 14.4766 L 184.6601 14.1403 L 185.3327 24.5665 L 176.9244 30.6205 L 181.6331 38.0198 L 172.2158 46.7644 L 174.2338 55.8453 L 166.1619 60.2176 L 176.5881 74.0072 L 160.4442 59.8813 L 154.3903 59.8813 L 149.3453 65.2626 L 145.6457 57.8633 L 138.5827 56.518 L 130.5108 62.9083 L 123.7842 50.8003 L 109.9946 45.4191 Z "/>
    <path id="ID0.9972305246628821" fill="#D33445" stroke="#D33445" stroke-width="2.6906473636627197" stroke-linecap="round" d="M 170.5342 85.7788 L 169.8615 84.7698 L 182.6421 78.0432 L 186.0726 79.9939 L 188.9651 85.1734 L 185.3327 92.1691 L 177.9334 87.7967 L 171.8795 90.4874 Z "/>
    <path id="ID0.4784054202027619" fill="#D33445" stroke="#D33445" stroke-width="2.6906473636627197" stroke-linecap="round" d="M 95.8687 68.2896 L 91.4964 62.5719 L 101.25 50.8003 L 112.3489 54.1637 L 122.7752 54.5 L 126.8111 63.2446 L 133.8741 65.9352 L 127.1475 73.6709 L 119.0755 90.1511 L 113.6942 90.1511 L 109.3219 81.4065 L 108.9856 70.6439 L 95.8687 68.2896 Z "/>
    <path id="ID0.1744393603876233" fill="none" stroke="#D33445" stroke-width="2.6906473636627197" stroke-linecap="round" d="M 128.4928 85.1061 L 131.5198 79.3885 "/>
    <path id="ID0.20900010224431753" fill="none" stroke="#D33445" stroke-width="2.6906473636627197" stroke-linecap="round" d="M 42.0557 18.5126 L 41.0468 13.4676 Z "/>
    <path id="ID0.7906406973488629" fill="#D33445" stroke="#D33445" stroke-width="2.6906473636627197" stroke-linecap="round" d="M 56.8543 22.8849 L 40.7104 18.3108 L 41.0468 13.1313 L 52.482 8.0863 L 60.5539 11.786 L 74.6798 3.3777 L 63.2446 17.8399 L 67.6169 25.5755 L 61.5629 29.6115 L 60.2176 21.8759 L 56.8543 22.8849 Z "/>
  </g>
</svg>