<svg version="1.1" xmlns="http://www.w3.org/2000/svg" xmlns:xlink="http://www.w3.org/1999/xlink" width="317.03005" height="521.73731" viewBox="0,0,317.03005,521.73731"><defs><linearGradient x1="230.2655" y1="76.8718" x2="230.2655" y2="74.1218" gradientUnits="userSpaceOnUse" id="color-1"><stop offset="0" stop-color="#0077ff"/><stop offset="1" stop-color="#ff0000"/></linearGradient><radialGradient cx="230.21312" cy="74.86823" r="1.375" gradientUnits="userSpaceOnUse" id="color-2"><stop offset="0" stop-color="#ff6a00"/><stop offset="1" stop-color="#ff6a00" stop-opacity="0"/></radialGradient><radialGradient cx="230.16074" cy="75.65395" r="1.375" gradientUnits="userSpaceOnUse" id="color-3"><stop offset="0" stop-color="#ffde00"/><stop offset="1" stop-color="#ffde00" stop-opacity="0"/></radialGradient><radialGradient cx="230.2655" cy="76.70155" r="1.375" gradientUnits="userSpaceOnUse" id="color-4"><stop offset="0" stop-color="#00ff46"/><stop offset="1" stop-color="#00ff46" stop-opacity="0"/></radialGradient><radialGradient cx="230.2655" cy="77.06822" r="1.375" gradientUnits="userSpaceOnUse" id="color-5"><stop offset="0" stop-color="#0048ff"/><stop offset="1" stop-color="#0048ff" stop-opacity="0"/></radialGradient><radialGradient cx="230.31788" cy="77.33013" r="1.375" gradientUnits="userSpaceOnUse" id="color-6"><stop offset="0" stop-color="#8900ff"/><stop offset="1" stop-color="#8900ff" stop-opacity="0"/></radialGradient></defs><g transform="translate(-106.80993,86.61347)"><g data-paper-data="{&quot;isPaintingLayer&quot;:true}" fill-rule="nonzero" stroke-linejoin="miter" stroke-miterlimit="10" stroke-dasharray="" stroke-dashoffset="0" style="mix-blend-mode: normal"><path d="M311.24237,37.28889c0,0 -16.70093,-10.3579 -21.73006,-15.0288c-10.83482,-10.06303 -34.87902,-0.71338 -21.64427,-14.13066c22.32559,-22.63347 57.21013,-33.97374 57.21013,-33.97374z" data-paper-data="{&quot;index&quot;:null}" fill="#6a9ed4" stroke="#6a9ed4" stroke-width="2.5" stroke-linecap="butt"/><text transform="translate(387.25,194.46789) scale(0.5,0.5)" font-size="40" xml:space="preserve" fill="#3a2f41" fill-rule="nonzero" stroke="none" stroke-width="1" stroke-linecap="butt" stroke-linejoin="miter" stroke-miterlimit="10" stroke-dasharray="" stroke-dashoffset="0" font-family="Handwriting" font-weight="normal" text-anchor="start" style="mix-blend-mode: normal"><tspan x="0" dy="0">Xain</tspan></text><path d="M276.47228,111.91127c5.06787,-0.98758 18.08428,18.42195 18.08428,18.42195c0,0 40.92912,46.24025 24.72364,63.92059c-7.16933,7.82184 -36.76253,4.42917 -53.24329,0.00246c-16.89524,-4.53804 -20.59592,-10.21371 -20.59592,-10.21371c0,0 -11.76785,-20.68572 -7.62329,-23.39463c4.2662,-0.51403 43.69945,-9.63415 43.69945,-9.63415c0,0 -5.34407,-12.67698 -7.66334,-23.61123c-1.64528,-7.75672 -1.76835,-14.63643 2.61847,-15.49129z" fill="#1a1a1a" stroke="#1a1a1a" stroke-width="2.5" stroke-linecap="butt"/><g data-paper-data="{&quot;index&quot;:null}" stroke-linecap="butt"><path d="M245.36012,397.13189l4,-37l45,1.66667l76,54z" fill="#fffe94" stroke="#fffe94" stroke-width="2.5"/><g><g><path d="M255.63581,350.66952l-0.0025,-81.67543l28.02191,0.55492l0.0025,81.67543z" fill="#7c7984" stroke="none" stroke-width="0"/><path d="M256.1323,286.91171l-0.00055,-17.95689l28.02192,0.55492l-0.21925,18.18313z" fill="#626171" stroke="none" stroke-width="0"/><path d="M256.13428,350.63024l-0.0025,-81.67543l28.02192,0.55493l0.0025,81.67543z" fill="#ad7e72" stroke="#ad7e72" stroke-width="2.5"/></g><path d="M297.68537,360.52492c0,0 -7.25293,6.18087 -24.03136,6.42866c-19.58206,0.2892 -26.7287,-4.90308 -26.7287,-4.90308c0,0 -1.25722,-1.57757 -1.58103,-5.04216c-0.09626,-1.02969 1.3286,-3.17843 1.16661,-4.23577c-0.37778,-2.46602 -1.56796,-3.43793 -1.39896,-4.85508c0.30901,-2.59182 4.98787,-6.19108 4.98787,-6.19108l44.42906,0.72613c0,0 4.12167,1.21722 3.95216,5.35576c-0.156,3.80917 -1.1016,3.80434 -1.11352,5.08791c-0.01479,1.59434 2.12703,4.21015 0.31782,7.6287z" fill="#a28b87" stroke="#a28b87" stroke-width="2.5"/></g><path d="M301.97005,405.58563l-32.86444,-4.90776l32.09515,-34.01887l23.50299,16.69949z" fill="#ffffff" stroke="#ffffff" stroke-width="2.5"/></g><g data-paper-data="{&quot;index&quot;:null}"><g data-paper-data="{&quot;index&quot;:null}"><path d="M267.87348,295.76634c-15.0675,-0.27607 -21.39494,-11.03734 -21.39494,-11.03734l5.62291,-74.54049l36.66963,-0.88087l4.49436,76.62558c0,0 -7.24307,10.16565 -25.39195,9.83312z" data-paper-data="{&quot;index&quot;:null}" fill="#3a21c4" stroke="#3a21c4" stroke-width="1" stroke-linecap="butt"/><path d="M289.64634,242.44132l-13.83248,-3.21055l0.18838,-25.41012" fill="none" stroke="#150089" stroke-width="2" stroke-linecap="round"/><path d="M289.87273,237.85177l-9.12719,-1.98168l-0.37652,-22.85594" fill="none" stroke="#150089" stroke-width="2" stroke-linecap="round"/></g><path d="M292.27923,273.87941c0,0 -4.29731,6.72308 -20.84863,8.82923c-14.07808,1.79144 -23.47146,-6.76117 -23.47146,-6.76117" data-paper-data="{&quot;index&quot;:null}" fill="none" stroke="#150089" stroke-width="2" stroke-linecap="round"/></g><g data-paper-data="{&quot;index&quot;:null}" stroke-linecap="butt"><path d="M110.41519,432.53214l61.20087,-78.50923l43.99763,9.59098l-5.33911,33.83061z" data-paper-data="{&quot;index&quot;:null}" fill="#fffe94" stroke="#fffe94" stroke-width="2.5"/><g data-paper-data="{&quot;index&quot;:null}"><g><path d="M185.61432,344.4468l20.33988,-79.10225l27.27747,6.44011l-20.33988,79.10224z" fill="#7c7984" stroke="none" stroke-width="0"/><path d="M201.16591,282.84734l4.31531,-17.665l27.27748,6.44011l-4.47186,17.39116z" fill="#626171" stroke="none" stroke-width="0"/><path d="M185.14136,344.2846l20.33988,-79.10224l27.27748,6.4401l-20.33988,79.10225z" fill="#ad7e72" stroke="#ad7e72" stroke-width="2.5"/></g><path d="M169.71277,349.96141c-0.90099,-3.76138 1.82471,-5.76147 2.20738,-7.30928c0.30807,-1.24611 -0.60895,-1.4769 0.18846,-5.20493c0.86634,-4.05039 5.16128,-4.20296 5.16128,-4.20296l43.21047,10.35973c0,0 3.63526,4.65094 3.28916,7.23807c-0.18919,1.41459 -1.58389,2.05953 -2.56382,4.35381c-0.42017,0.9837 0.42476,3.41955 0.07514,4.39284c-1.17631,3.27483 -2.78675,4.48966 -2.78675,4.48966c0,0 -8.21444,3.2492 -27.1077,-1.90689c-16.18825,-4.41787 -21.67368,-12.21007 -21.67368,-12.21007z" fill="#a28b87" stroke="#a28b87" stroke-width="2.5"/></g><path d="M197.22509,402.0297l-26.27033,9.23062l-30.75658,-16.93418l23.51125,-30.16053z" data-paper-data="{&quot;index&quot;:null}" fill="#ffffff" stroke="#ffffff" stroke-width="2.5"/></g><g data-paper-data="{&quot;index&quot;:null}"><g data-paper-data="{&quot;index&quot;:null}"><path d="M218.67262,297.91964c-17.87885,-3.13679 -23.04899,-14.49777 -23.04899,-14.49777l19.0336,-74.35994l35.82773,7.86204l-8.70437,74.24376c0,0 -8.26466,9.35611 -23.10797,6.7519z" data-paper-data="{&quot;index&quot;:null}" fill="#3a21c4" stroke="#3a21c4" stroke-width="1" stroke-linecap="butt"/><path d="M226.33026,215.92857l-4.66389,24.97915l-14.19095,0.51202" fill="none" stroke="#150089" stroke-width="2" stroke-linecap="round"/><path d="M222.1976,214.30361l-4.73101,22.3641l-9.33762,0.2036" fill="none" stroke="#150089" stroke-width="2" stroke-linecap="round"/></g><path d="M242.00291,282.26502c0,0 -10.8528,6.60299 -24.33035,2.15806c-15.84529,-5.22581 -18.78072,-12.64536 -18.78072,-12.64536" data-paper-data="{&quot;index&quot;:null}" fill="none" stroke="#150089" stroke-width="2" stroke-linecap="round"/></g><g data-paper-data="{&quot;index&quot;:null}" stroke-linecap="butt"><path d="M236.49711,232.85191v-21.17141h26.3644l2.79622,17.97572z" fill="#8c9ca0" stroke="#150089" stroke-width="2"/><path d="M236.09766,230.45514v-21.17141h26.3644l2.79622,17.97572z" fill="#3a21c4" stroke="#3a21c4" stroke-width="3.5"/></g><g data-paper-data="{&quot;index&quot;:null}"><path d="M241.04678,105.56238c23.74632,-1.49614 43.3044,2.1775 43.68418,8.20531c0.37978,6.02781 -18.56255,12.12717 -42.30887,13.62331c-23.74632,1.49614 -43.3044,-2.1775 -43.68418,-8.20531c-0.37978,-6.02781 18.56255,-12.12717 42.30887,-13.62331z" fill="#1a1a1a" stroke="#1a1a1a" stroke-width="2.5" stroke-linecap="butt"/><g data-paper-data="{&quot;index&quot;:null}"><path d="M212.14854,149.06245c-3.03355,-8.86268 -5.20138,-18.93927 -2.01217,-28.11506c1.31363,-3.77948 21.64735,-12.36131 30.80188,-12.90314c10.04376,-0.59445 20.65538,-0.61008 29.14902,6.23904c10.95111,8.83077 8.89549,18.49006 7.97346,30.45136c-2.15847,0.1143 -4.29596,0.23117 -6.40164,0.35189c-17.51383,1.00413 -36.42267,1.83176 -53.96332,3.46141c-1.52367,0.14156 -3.51918,0.25141 -5.54724,0.51449z" fill="#982c2c" stroke="#982c2c" stroke-width="2" stroke-linecap="butt"/><g><path d="M255.25767,121.68838l-10.70405,-7.57817c0,0 6.78675,-6.56236 9.75537,-8.81409c0.65005,-0.49308 0.94718,-0.14417 1.13336,-0.09294c0.46844,0.31193 3.53923,4.45401 3.07819,4.77238z" data-paper-data="{&quot;index&quot;:null}" fill="#8c9ca0" stroke="none" stroke-width="0" stroke-linecap="round"/><path d="M236.41389,122.96448c0,0 -10.37717,-8.24145 -11.43981,-10.86322c-0.01781,-1.32314 1.71392,-7.13089 2.77309,-5.56815c1.01921,0.39917 17.07644,-3.84467 21.30758,-1.90543c3.55618,1.62989 -4.52748,9.52367 -4.52748,9.52367z" fill="#982c2c" stroke="none" stroke-width="0" stroke-linecap="round"/><path d="M226.98628,111.54599c-0.04364,-1.27426 0.00231,-3.40753 0.53939,-3.69568c0.96845,-0.94324 10.13545,-4.27826 12.54854,-4.78416c1.52663,-0.32005 13.45076,2.1106 14.07976,2.63872c1.05587,0.39924 2.35821,3.51185 2.38695,3.968" fill="none" stroke="#982c2c" stroke-width="6.5" stroke-linecap="butt"/><g fill="#982c2c" stroke="#12161a" stroke-width="0" stroke-linecap="round"><path d="M255.25767,121.68837l-10.70405,-7.57817c0,0 6.78676,-6.56236 9.75537,-8.81409c0.65005,-0.49308 0.94718,-0.14417 1.13336,-0.09294c0.46844,0.31193 3.53923,4.45401 3.07819,4.77238z" data-paper-data="{&quot;index&quot;:null}"/><path d="M236.41391,122.46448c0,0 -10.37717,-8.24145 -11.43982,-10.86322c-0.01781,-1.32314 1.71392,-7.13089 2.77309,-5.56816c1.87584,0.73467 16.78009,7.61824 16.78009,7.61824z"/></g></g></g><path d="M206.38312,138.50278c-11.01102,0.69375 -16.1673,-23.54159 1.62661,-24.6627c9.53928,-0.60103 16.02302,5.89919 26.20198,11.00815c8.80815,4.42093 20.3616,7.32686 20.56816,10.60529c0.44526,7.06708 -30.60285,1.92813 -48.39676,3.04924z" fill="#1a1a1a" stroke="#1a1a1a" stroke-width="2.5" stroke-linecap="butt"/><path d="M283.81248,133.11065c-10.63035,5.20396 -31.51685,9.45871 -31.96211,2.39162c-0.19278,-3.05965 6.4609,-6.60517 11.02986,-11.5935c5.98424,-6.53351 10.04676,-14.29463 13.10287,-14.48718c11.33643,-0.71426 14.02825,20.65449 7.82938,23.68906z" data-paper-data="{&quot;index&quot;:null}" fill="#1a1a1a" stroke="#1a1a1a" stroke-width="2.5" stroke-linecap="butt"/><path d="M207.79539,216.34045l-0.50869,-81.96127l73.347,-4.62123l4.51181,42.92956l11.44092,15.53197l-5.85803,15.60069l1.81913,7.55832z" fill="#1a1a1a" stroke="#1a1a1a" stroke-width="2.5" stroke-linecap="butt"/><path d="M256.75181,213.77135l-2.00646,-7.82315l10.18368,-16.11355l-11.64138,-15.02687l-4.25803,-43.2989c0,0 2.41949,0.47769 3.8189,0.32663c1.40291,-0.15145 3.32348,-1.15449 3.32348,-1.15449l4.51406,42.54881l12.01165,16.09887l-10.17462,17.05028l0.97329,6.96743z" fill="#67ff86" stroke="none" stroke-width="0" stroke-linecap="butt"/></g><g stroke="none" stroke-width="0" stroke-linecap="butt"><path d="M233.20323,-55.90896l-1.29407,-10.13033l7.28041,-16.39398l16.38044,17.18198l18.66715,-21.36218l6.06343,25.81982l18.51643,-11.77041l2.38019,18.88397l-4.35571,11.44246c0,0 -9.10532,6.87302 -33.3265,2.66742c-15.56877,-2.70325 -30.31178,-16.33873 -30.31178,-16.33873z" fill="#723d00"/><g><path d="M232.36602,-42.36334l-3.26373,-32.59077l14.0805,19.1116l13.31151,-21.06674l8.61318,27.67005l16.67864,-20.30085l6.73195,21.58618l19.82314,-16.93738l-14.04373,35.09175c0,0 -9.28624,7.81643 -33.51662,3.65887c-15.57468,-2.67237 -28.41486,-16.22272 -28.41486,-16.22272z" fill="#d69d00"/><path d="M288.51808,-47.95387l19.82314,-16.93738l-14.04373,35.09175c0,0 -7.45824,6.27777 -26.44715,4.58871c6.07428,-9.61413 11.71412,-18.61412 15.95312,-25.54559c0.6835,-1.11764 1.57929,-2.45088 2.60709,-3.95534z" fill="#ffcb3e"/><path d="M232.36602,-42.36335l-3.26373,-32.59077l14.0805,19.1116l13.31151,-21.06674l1.32154,4.24547c-0.75039,1.40948 -1.18625,2.25731 -1.19782,2.27617c-5.92138,9.6474 -12.00737,19.17425 -18.05147,28.73122c-0.66218,1.04705 -1.32845,2.09912 -1.99826,3.15562c-2.6615,-2.23657 -4.20227,-3.86257 -4.20227,-3.86257z" fill="#a55900"/></g><path d="M267.58394,-35.77605l-5.47802,4.47668l-3.93837,-6.4341l6.25803,-7.65635z" fill="#d62b00"/><path d="M244.41111,-42.08673l-3.39097,4.2183l-2.8272,-5.36382l4.04871,-8.70518z" fill="#004fd6"/><path d="M287.80343,-42.05975l-0.44308,9.5904l-4.98978,3.44465l-1.05188,-5.30907z" data-paper-data="{&quot;index&quot;:null}" fill="#004fd6"/></g><path d="M194.43671,14.74745c19.76248,-4.93093 29.69467,-7.75257 41.89544,13.20234c12.20077,20.9549 21.73722,47.22538 2.35816,53.49608c-98.20859,31.77851 -113.71435,-69.44386 -113.71435,-69.44386c0,0 35.8688,11.12694 69.46076,2.74543z" data-paper-data="{&quot;index&quot;:null}" fill="#abe9ff" stroke="#abe9ff" stroke-width="2.5" stroke-linecap="butt"/><path d="M260.81378,51.49001c11.71205,-17.00896 17.19057,-55.79914 17.19057,-55.79914c0,0 60.26391,39.88265 21.51829,88.43419c-1.4674,1.83878 8.59108,1.8761 8.59108,1.8761c0,0 -8.15814,15.2045 -40.37173,11.20403c-10.32781,-1.28257 -2.2994,-16.33022 -6.8873,-20.67962c-10.60683,-10.05544 -6.93123,-15.02901 -0.04091,-25.03554z" fill="#6a9ed4" stroke="#6a9ed4" stroke-width="2.5" stroke-linecap="butt"/><path d="M191.79864,52.64619c5.83943,-8.43758 19.75064,-20.4254 25.53902,-23.70513c5.70149,-3.23051 2.72205,-2.58252 14.13353,1.23268c22.99683,7.68851 47.50075,21.12872 37.08188,38.63063c-8.50657,14.28959 -17.70353,24.60825 -27.14765,31.86457c-49.17566,37.78377 -105.0523,-7.4615 -105.0523,-7.4615c0,0 32.41743,-15.40277 55.44553,-40.56124z" data-paper-data="{&quot;index&quot;:null}" fill="#abe9ff" stroke="#abe9ff" stroke-width="2.5" stroke-linecap="butt"/><path d="M124.97595,12.00204c0,0 14.76607,4.58062 34.22269,5.65005c-0.56004,0.16462 -1.10515,0.33005 -1.62557,0.484c-1.30911,0.2704 -2.84261,0.48488 -4.07295,0.98177l-0.37841,-0.04633c-0.10211,-0.01437 -0.20223,0.04746 -0.23287,0.14924c-0.02521,0.08374 0.00371,0.17089 0.06658,0.22388l0.31528,0.27787l0.01516,-0.0172c1.56862,1.94689 3.99318,3.70206 5.7901,5.47569c0.32252,0.197 0.44433,0.3875 0.59154,0.6595c-1.93505,-1.3134 -5.64284,-0.80101 -7.70118,-1.13113c-0.88339,0.05332 -3.41201,-0.54199 -3.85652,0.53067c-0.35971,0.86804 1.30781,2.02092 0.91481,2.72798c-0.02292,0.04124 -1.45247,-0.76809 -1.63976,-0.83324c-0.83974,-0.22122 -1.27012,0.31124 -1.20275,1.1646c0.16791,2.12755 0.68984,4.56209 0.27265,6.66782c-1.03759,-1.78896 -4.98966,-3.61856 -6.66331,-4.32156c-0.18367,-0.20507 -1.02994,-0.86217 -1.35715,-0.55864c-0.36503,0.3386 0.42263,1.4023 0.47508,1.78131c0.24196,1.74814 0.12025,4.15801 -0.17701,5.88645c0.27181,2.8903 0.36754,5.93091 0.80999,8.85582c-0.01466,1.53713 0.18318,3.06928 0.38939,4.59814c-11.91535,-19.35879 -14.95575,-39.20669 -14.95575,-39.20669z" data-paper-data="{&quot;index&quot;:null}" fill="#ffffff" stroke="#ffffff" stroke-width="2.5" stroke-linecap="butt"/><path d="M202.58706,40.83003c-7.12406,-35.94846 -56.53542,-58.52696 -56.53542,-58.52696c0,0 24.95533,-12.72549 54.15149,-11.66797c36.89145,1.33628 97.13433,20.20657 89.19584,87.41514c2.70022,21.39425 -28.5425,18.90132 -54.69708,16.8079c-26.15459,-2.09344 -27.92368,-12.87926 -32.11483,-34.0281z" fill="#abe9ff" stroke="#abe9ff" stroke-width="2.5" stroke-linecap="butt"/><path d="M200.20316,-29.36486c0.95039,0.03442 1.91627,0.08049 2.89609,0.13871c-2.56535,0.44192 -6.72521,1.20122 -8.43112,2.52499c-1.3566,0.0624 -2.51138,0.79855 -3.84408,0.69195l-0.45847,-0.03669v0v0c-0.1266,-0.01013 -0.23813,0.07644 -0.2491,0.19338c-0.01097,0.11693 0.08276,0.21994 0.20936,0.23008l0.45847,0.03669v0v0v0h0.00001c0.16324,0.01306 0.3245,0.01493 0.48425,0.00783c2.14999,0.41346 5.96207,0.92692 2.35264,0.64545c-0.4584,-0.03575 -0.91664,-0.073 -1.37495,-0.10965c-1.61089,-0.12883 -4.91996,0.03466 -6.25748,0.72232c-0.9053,0.46543 -2.16094,-0.4951 -3.10721,0.10923c-1.11982,0.14899 -3.11117,-0.3096 -4.07312,0.24268c-0.82351,0.4728 1.2061,1.70679 2.7422,2.39458c-0.21816,0.06421 -0.40178,0.17268 -0.50805,0.33057c-0.27319,0.4059 -0.20278,0.71624 0.15556,1.04283c0.14243,0.12982 0.6649,0.18878 0.50497,0.29988c-0.06064,0.04213 -1.31649,-0.53673 -1.50397,-0.55732c-1.06663,-0.11712 -2.14497,-0.17435 -3.21509,-0.26001c-0.70508,-0.03822 -2.88266,0.76121 -2.72262,1.62831c0.23836,1.29139 3.02706,3.64779 3.98895,4.60701c0.19961,0.37728 1.28745,1.60631 0.95143,2.04104c-0.18714,0.2421 -1.4073,-0.94186 -1.54316,-0.96716c-1.47606,-0.27501 -3.09809,-0.25027 -4.59938,-0.37043c-5.39178,-0.37306 -0.35628,3.96438 0.01295,6.34534c1.0059,1.76811 1.55075,3.55482 2.98787,4.07176c0.1895,0.06815 -0.49606,0.23554 -0.60438,0.07658c-0.35609,-0.52254 -0.73495,-0.30595 -1.22133,-0.86202c-1.96757,-0.61107 -4.11507,-0.53483 -6.24212,-0.47314c-11.77455,-8.43141 -21.94064,-13.07681 -21.94064,-13.07681c0,0 24.95533,-12.7255 54.15149,-11.66798z" fill="#ffffff" stroke="#ffffff" stroke-width="2.5" stroke-linecap="butt"/><path d="M136.35314,93.20747c0,0 9.67957,-4.59913 22.21746,-12.87603c1.58981,0.31104 3.2424,0.49795 4.72298,0.98398c1.24221,0.04025 -2.39449,1.1541 -2.46869,2.25613c-0.04059,0.60291 3.07615,1.83684 3.6833,2.24217c1.64054,1.2536 3.56034,2.37825 5.32042,3.47677c0.74649,0.46591 1.67353,0.40342 2.33541,0.91426c1.42082,0.64065 3.06754,1.53754 4.37988,2.47536c-0.575,0.00281 -1.22805,0.28915 -1.66676,0.50563c-1.77622,0.87648 -3.61541,1.5973 -5.44989,2.3438c-2.74937,1.11879 -5.32413,2.70854 -8.03995,3.8844c-0.2667,0.14891 -1.83215,0.93893 -1.91234,1.1455c-0.27744,0.71463 0.61932,0.83756 1.02608,0.98533c1.72091,0.62514 3.05591,1.96677 4.71465,2.73309c0.11337,0.07834 0.22673,0.15669 0.34011,0.23504c-1.97427,0.23075 -4.02796,1.41009 -5.90975,2.41702c-14.14739,-6.317 -23.29293,-13.72247 -23.29293,-13.72247z" data-paper-data="{&quot;index&quot;:null}" fill="#ffffff" stroke="#ffffff" stroke-width="2.5" stroke-linecap="butt"/><g data-paper-data="{&quot;index&quot;:null}" stroke="none" stroke-width="0" stroke-linecap="butt"><path d="M292.96862,86.28699c-6.45827,6.3816 -19.14455,10.93638 -34.77335,12.24351c-31.29236,2.61718 -44.11745,-12.65782 -45.29586,-31.36131c-1.17842,-18.70349 10.45295,-43.28818 46.72848,-44.53818c23.86226,-0.82227 38.39041,20.3975 39.56883,39.10101c0.59754,9.48408 0.41553,17.99018 -6.2281,24.55497z" fill="#ad7e72"/><path d="M262.49268,71.16192c-19.52857,1.37936 -48.41483,14.71076 -49.59324,-3.99273c-1.17842,-18.70349 10.45295,-43.28818 46.72848,-44.53818c23.86226,-0.82227 38.39041,20.3975 39.56883,39.10101c1.17841,18.70351 -17.17161,8.05026 -36.70407,9.4299z" fill="#905e57"/></g><path d="M297.44433,78.8231c0,0 18.53263,-5.02571 18.77281,-4.20243c0.24019,0.82327 0.61627,2.17146 -5.23414,3.73279c-3.94198,1.05203 -13.29849,1.29293 -13.53867,0.46965z" data-paper-data="{&quot;index&quot;:null}" fill="#1a1a1a" stroke="#1a1a1a" stroke-width="1" stroke-linecap="butt"/><path d="M253.09325,22.19173l0.56561,-0.03564c0.37708,-0.02376 0.75415,-0.04751 1.13122,-0.07127c3.11947,-0.19654 6.22487,-0.17953 9.32692,0.0178c3.01028,0.19149 5.56688,1.03132 8.61451,0.8393c0,0 0.63631,-0.04009 0.6764,0.59622c0.04009,0.63631 -0.59622,0.6764 -0.59622,0.6764c-3.10275,0.19549 -5.70766,-0.65752 -8.76115,-0.83851c-3.05795,-0.18127 -6.10519,-0.21234 -9.18028,-0.01859c-0.37707,0.02376 -1.31976,0.08315 -1.69683,0.10691c0,0 -0.63631,0.04009 -0.6764,-0.59622c-0.04009,-0.63631 0.59622,-0.6764 0.59622,-0.6764z" fill="#3a2f41" stroke="#3a2f41" stroke-width="2.5" stroke-linecap="butt"/><path d="M216.78505,76.76153c0,0 8.66216,-4.90998 20.19509,-3.85004c14.87787,1.36738 19.73989,7.25258 19.73989,7.25258c0,0 -8.44993,-1.02299 -20.60162,-1.91248z" data-paper-data="{&quot;index&quot;:null}" fill="#1a1a1a" stroke="#1a1a1a" stroke-width="1" stroke-linecap="butt"/><path d="M243.02418,25.36835c14.13695,-9.31591 43.95479,-14.12804 52.00244,-22.13698c1.67857,-1.67049 0.42891,2.90629 -1.6772,6.35045c-1.4832,2.42551 -4.13685,3.85221 -3.24509,4.04256c19.10998,-6.06333 33.12953,-13.09158 33.12953,-13.09158c0,0 19.48369,13.71062 7.05534,35.0894c4.1568,0.65275 9.00534,1.31762 9.00534,1.31762c0,0 0.08857,25.02112 -21.35512,33.05022c-15.96343,5.97714 -48.61505,1.05154 -76.74013,-22.69243c-6.81082,-3.27117 -8.30202,-15.25588 1.82488,-21.92926z" data-paper-data="{&quot;index&quot;:null}" fill="#abe9ff" stroke="#6a9ed4" stroke-width="1.5" stroke-linecap="butt"/><path d="M196.03709,67.5933c-4.56706,-4.92881 13.77159,-26.35075 24.10183,-35.92281c10.33024,-9.57206 22.40689,-10.00282 26.97395,-5.07401c4.56706,4.92881 -0.10492,16.68409 -10.43516,26.25615c-10.33025,9.57206 -36.07356,19.66949 -40.64062,14.74068z" data-paper-data="{&quot;index&quot;:null}" fill="#abe9ff" stroke="#abe9ff" stroke-width="2.5" stroke-linecap="butt"/><path d="M240.32108,26.69534c-1.60046,-1.92056 0.32009,-3.52102 0.32009,-3.52102l2,-1.66666c5.43073,-4.44485 13.11832,-5.08891 19.85733,-6.2123c6.76691,-1.12804 13.18721,-2.82262 19.86747,-4.30761c0,0 2.44047,-0.54233 2.9828,1.89814c0.54233,2.44047 -1.89814,2.9828 -1.89814,2.9828c-2.82,0.62645 -5.51774,1.66971 -8.29425,2.32431c-5.69083,1.34168 -11.63414,1.6555 -17.34036,3.00167c-4.24705,1.00194 -8.57489,1.2536 -11.97392,4.1541l-2,1.66667c0,0 -1.92056,1.60047 -3.52102,-0.32009z" data-paper-data="{&quot;index&quot;:null}" fill="#abe9ff" stroke="none" stroke-width="0.5" stroke-linecap="butt"/><path d="M245.74165,41.76154c1.933,0 8.68739,1.47755 12.5,4.66667c0.66666,12.30389 8.49999,19.33334 8.49999,19.33334c0,0 -24.49999,-3.36277 -38.5,-20c0,0 15.56701,-4.00001 17.50001,-4.00001z" data-paper-data="{&quot;index&quot;:null}" fill="#abe9ff" stroke="#abe9ff" stroke-width="2.5" stroke-linecap="butt"/><path d="M217.57498,86.42142c7.88123,5 19,2.83333 19,2.83333c0,0 -6.78544,10.83334 -14.33333,10.83334c-7.54789,0 -13.66667,-1.567 -13.66667,-3.5c0,-1.933 2.62653,-14.21012 9,-10.16667z" data-paper-data="{&quot;index&quot;:null}" fill="#abe9ff" stroke="#abe9ff" stroke-width="2.5" stroke-linecap="butt"/><path d="M213.65875,28.01887c0.06436,-0.01651 0.12908,-0.0296 0.19411,-0.03972l-0.00687,-0.02749l0.97824,-0.24456c0.08419,-0.02301 0.1728,-0.0353 0.26429,-0.0353c0.55228,0 1,0.44772 1,1c0,0.22876 -0.07682,0.43959 -0.20606,0.60808l-0.74394,0.99192l-0.06987,-0.0524l-0.08939,0.22015c-0.39784,0.20889 -0.79569,0.41778 -1.19353,0.62668c0,0 -0.0306,0.0153 -0.08332,0.03458c-0.89801,1.39787 -2.4188,3.01546 -2.11946,3.96564c0.45856,1.45553 2.73712,3.20392 3.59041,4.55486c2.20135,3.48521 3.97828,7.14023 2.90767,11.42267c0.01629,2.99537 -0.60464,5.03387 -1.83027,7.78747c-0.35019,0.78678 -1.34471,2.6301 -0.96356,3.52412c1.61437,3.78658 4.98091,6.92042 7.19009,10.5205c0.37069,0.03247 0.74123,0.04818 1.11122,0.04573c0,0 0.84776,0 0.98215,0.78057c0.29542,0.06719 0.76785,0.2821 0.76785,0.96943c0,0.03218 -0.00104,0.06332 -0.00304,0.09346l0.72528,0.18132c0.44532,0.10106 0.77776,0.49931 0.77776,0.97522c0,0.55228 -0.44772,1 -1,1h-1v-0.21922l-0.15193,-0.03798c-4.18336,0.04475 -9.65763,1.99996 -13.54528,0.15163c-1.6136,-0.81877 -6.62049,-2.67102 -3.32852,-5.24508c1.21039,-0.94643 3.42111,0.5489 4.56068,0.89211c1.35825,0.40907 2.72114,0.67975 4.09275,0.85885c-0.25854,-0.14717 -0.52238,-0.29969 -0.79327,-0.45443c-3.82544,-1.829 -7.40704,-4.56893 -10.44684,-6.90534c-1.57059,-1.20716 -3.23965,-2.23194 -4.64303,-3.63533c-2.84322,-3.78569 -5.77891,-7.85542 -6.23705,-12.78302c-0.14867,-1.59901 0.61444,-3.63737 1.90561,-3.93286c0.48275,-0.51211 1.17772,-0.49203 2.14814,0.47596c0.59171,0.59023 0.79262,1.54854 0.8605,2.55078c0.11121,0.82999 0.07257,1.74804 0.05237,2.66393c0.00478,0.08571 0.01081,0.16845 0.01839,0.24781c0.17534,1.83535 1.2219,3.92402 2.23014,5.40338c1.27976,1.92046 2.84053,3.90248 4.56659,5.78655c3.59194,3.41572 7.80518,6.31665 11.91784,8.692c-0.39721,-0.61946 -0.95886,-1.15597 -1.50179,-1.90276c-1.32454,-1.82187 -3.49666,-4.59997 -4.15628,-6.79775c-1.4153,-4.71568 3.07901,-6.54729 3.22773,-10.82949c-1.30218,-2.44777 -0.44899,-4.28994 -1.00633,-6.77869c-0.80751,-3.60588 -4.93705,-5.44696 -5.75449,-9.27328c-0.41286,-1.93252 1.39895,-4.12369 2.81925,-5.85183c0.50994,-0.96745 1.14895,-1.76441 1.98505,-1.97889z" fill="#1a1a1a" stroke="none" stroke-width="0.5" stroke-linecap="butt"/><g fill="none" stroke-width="1" stroke-linecap="round"><path d="M230.2655,76.8718v-2.75" data-paper-data="{&quot;index&quot;:null}" stroke="url(#color-1)"/><path d="M230.2655,74.1218v2.75" data-paper-data="{&quot;index&quot;:null}" stroke="url(#color-2)"/><path d="M230.2655,76.8718v-2.75" data-paper-data="{&quot;index&quot;:null}" stroke="url(#color-3)"/><path d="M230.2655,76.87179v-2.75" data-paper-data="{&quot;index&quot;:null}" stroke="url(#color-4)"/><path d="M230.2655,76.87179v-2.75" data-paper-data="{&quot;index&quot;:null}" stroke="url(#color-5)"/><path d="M230.2655,74.12179v2.75" data-paper-data="{&quot;index&quot;:null}" stroke="url(#color-6)"/></g><path d="M294.5,198.53214l-36.5,-2l3.5,-46.5" fill="#1a1a1a" stroke="#a28b87" stroke-width="0.5" stroke-linecap="round"/><path d="M285.91666,115.61549c3.0323,11.53007 -4.41667,18.41666 -4.41667,18.41666c0,0 3.26326,17.65206 4.02801,20.92957c0.14006,0.60026 -24.33258,10.21632 -42.57123,9.55218c-11.45128,-0.41699 -19.74945,-11.80339 -25.06817,-13.9783c-4.62806,-1.89248 15.94473,-20.17012 15.94473,-20.17012l56.45765,25.42063l14.20902,3.57937" fill="#1a1a1a" stroke="#a28b87" stroke-width="0.5" stroke-linecap="round"/><path d="M202.46877,126.23634c12.05081,-9.92804 19.96879,34.09342 19.96879,34.09342c0,0 50.11545,-18.46574 53.22518,-21.43125c2.76281,-0.86272 20.40478,18.13625 20.40478,18.13625l-4.4622,-0.95857l-27.66518,41.41844c0,0 -29.48405,14.39919 -42.99723,12.67223c-0.2855,-0.03649 -11.93133,1.99981 -17.97104,-22.2308c-3.30659,-13.26565 -9.83475,-54.01184 -0.50311,-61.6997z" fill="#1a1a1a" stroke="#a28b87" stroke-width="0.5" stroke-linecap="butt"/><g data-paper-data="{&quot;index&quot;:null}" stroke-width="2"><path d="M221.91082,175.84878c-5.21847,-11.64064 -18.07026,-31.87117 -18.07026,-31.87117c0,0 8.01725,-12.68813 11.86485,-13.12872c3.68792,-0.42231 16.35554,14.57645 16.35554,14.57645c0,0 5.88374,25.79938 3.07367,27.57172c-3.03382,1.91348 -12.87797,3.62312 -13.22379,2.85172z" fill="#ffffff" stroke="#ffffff" stroke-linecap="butt"/><path d="M209.48997,151.02387l16.64961,-11.42377" fill="none" stroke="#ddcfcd" stroke-linecap="round"/></g><path d="M193.10693,30.25689c2.75694,-41.24094 36.07276,-74.04047 36.07276,-74.04047c0,0 17.28261,32.61236 16.53389,60.73848" data-paper-data="{&quot;index&quot;:null}" fill="#abe9ff" stroke="#6a9ed4" stroke-width="2.5" stroke-linecap="butt"/><path d="M258.25,76.80122c0,0 1.41702,2.50831 -3.24781,0.77043c-6.21668,-2.31602 -32.41886,-14.10376 -32.41886,-14.10376" fill="none" stroke="#1a1a1a" stroke-width="1" stroke-linecap="round"/><path d="M259.58333,76.63455c0.36794,1.10383 -0.5,2.16667 -0.5,2.16667" fill="none" stroke="#1a1a1a" stroke-width="0.5" stroke-linecap="round"/><g data-paper-data="{&quot;index&quot;:null}" fill="#ffffff" stroke="#1a1a1a" stroke-width="0.5" stroke-linecap="round"><path d="M256.2788,92.44549c-5.45134,0.06185 -10.5905,1.53396 -11.99304,1.07428c-3.9512,-1.29503 -1.83283,-8.29366 3.11304,-10.35187c3.56643,-1.48416 11.22049,2.8485 18.70752,4.0656c7.48703,1.2171 9.08387,0.47689 10.34751,1.43792c1.26364,0.96104 1.26145,3.86026 0.57649,4.71731c-0.85679,1.07202 -10.84554,-1.05563 -20.75152,-0.94324z"/><path d="M276.74214,93.05568l-2.71429,-4.19642l-3.71429,4.01786l-3.92857,-4.91071l-3.5,4.28571l-3.28571,-5.98214l-3.85714,5.53571l-4.14286,-8.03571l-3.07143,8.57142l-3.92857,-6.78571"/></g><text transform="translate(372.81995,211.38653) scale(0.28332,0.28332)" font-size="40" xml:space="preserve" fill="#3a2f41" fill-rule="nonzero" stroke="none" stroke-width="1" stroke-linecap="butt" stroke-linejoin="miter" stroke-miterlimit="10" stroke-dasharray="" stroke-dashoffset="0" font-family="Handwriting" font-weight="normal" text-anchor="start" style="mix-blend-mode: normal"><tspan x="0" dy="0">(MAD)</tspan></text></g></g></svg>