<svg version="1.1" xmlns="http://www.w3.org/2000/svg" xmlns:xlink="http://www.w3.org/1999/xlink" width="110.59912" height="22.69732" viewBox="0,0,110.59912,22.69732"><g transform="translate(-184.70043,-168.65134)"><g data-paper-data="{&quot;isPaintingLayer&quot;:true}" fill-rule="nonzero" stroke-linejoin="miter" stroke-miterlimit="10" stroke-dasharray="" stroke-dashoffset="0" style="mix-blend-mode: normal"><g stroke="#3b3045" stroke-width="1" stroke-linecap="butt"><path d="M200.92826,174.59617c7.07548,1.30441 25.69156,2.20801 25.69156,2.20801c0,0 -16.53392,18.0878 -33.6037,13.20937c-11.74072,-3.35543 -6.77124,-20.65273 -6.77124,-20.65273c0,0 8.39312,4.07571 14.68338,5.23535z" fill="#3b3045"/><path d="M187.55855,177.82109l-0.1125,-7.82175l6.87011,3.23547z" fill="#e0dedc"/><path d="M195.73623,182.06984l-1.30119,-8.39957l7.42766,1.58007z" fill="#e0dedc"/><path d="M203.57636,182.73782l-1.54545,-7.26003l7.56121,0.70326z" fill="#e0dedc"/><path d="M210.93792,183.06999l-1.22105,-6.37436l7.58721,0.31773z" fill="#e0dedc"/><path d="M218.54442,182.63963l-1.19957,-5.15517l7.59057,-0.22351z" fill="#e0dedc"/></g><g stroke-width="0.5" stroke-linecap="round"><path d="M292.37325,180.5428c0,0 -10.41549,8.27949 -16.80445,7.78886c-4.61012,-0.35402 -8.4219,-4.87506 -10.18714,-7.36514c-0.68112,-0.96083 -1.05753,-1.61927 -1.05753,-1.61927c3.16179,1.89628 12.12048,-0.04433 14.74571,0.04106c1.94764,0.06334 7.1894,1.37321 9.53766,1.40823c4.75694,0.07097 6.44205,-1.17154 6.44205,-1.17154" fill="#3a2f41" stroke="none"/><path d="M292.37325,180.5428c0,0 -10.41549,8.27949 -16.80445,7.78886c-4.61012,-0.35402 -8.4219,-4.87506 -10.18713,-7.36514c-0.68112,-0.96083 -1.05754,-1.61926 -1.05754,-1.61926c3.16179,1.89628 12.12048,-0.04433 14.74571,0.04106c1.94764,0.06334 7.1894,1.37321 9.53766,1.40823c4.75694,0.07097 6.44205,-1.17154 6.44205,-1.17154" fill="none" stroke="#3a2f41"/><path d="M288.94592,182.35139l-0.3384,-1.55485c1.22438,0.01825 2.24524,-0.05049 3.08624,-0.16267z" fill="#e1e2db" stroke="#3a2f41"/><path d="M267.34847,181.82651l-2.61562,-2.25206c0.11775,0.10545 0.63332,0.30728 1.31948,0.42841c0.61694,0.10893 1.37097,0.14173 2.11136,0.16662z" fill="#e1e2db" stroke="#3a2f41"/></g><g stroke="#3b3045" stroke-width="0.5" stroke-linecap="butt"><path d="M240.10601,187.49305c-5.08893,-0.01381 -12.24996,1.6937 -12.24996,1.6937c0,0 -0.74599,-7.36011 3.2656,-11.39531c1.87298,-1.88401 6.52978,-1.93827 9.60859,-2.18883c4.41496,-0.35925 10.07644,-0.11694 12.92887,1.7176c6.23389,4.00936 6.86098,11.9552 6.86098,11.9552c0,0 -14.6899,-1.76669 -20.41408,-1.7822z" fill="#3b3045"/><path d="M234.00614,176.88373l1.00021,5.37395l-5.79447,-1.31976z" data-paper-data="{&quot;index&quot;:null}" fill="#e0dedc"/><path d="M237.49073,181.72923l-3.08894,-5.14887l5.98621,-0.81452z" data-paper-data="{&quot;index&quot;:null}" fill="#e0dedc"/><path d="M242.29211,180.82241l-1.76384,-4.96942l6.03391,0.14315z" data-paper-data="{&quot;index&quot;:null}" fill="#e0dedc"/><path d="M247.11826,180.78457l-0.73627,-4.54163l5.97056,0.82327z" data-paper-data="{&quot;index&quot;:null}" fill="#e0dedc"/><path d="M250.50516,181.49505l1.63664,-4.08893l4.84168,3.30131z" data-paper-data="{&quot;index&quot;:null}" fill="#e0dedc"/></g></g></g></svg>