<svg version="1.1" xmlns="http://www.w3.org/2000/svg" xmlns:xlink="http://www.w3.org/1999/xlink" width="212.74739" height="492.4802" viewBox="0,0,212.74739,492.4802"><g transform="translate(-140.72089,76.62712)"><g data-paper-data="{&quot;isPaintingLayer&quot;:true}" fill-rule="nonzero" stroke-linejoin="miter" stroke-miterlimit="10" stroke-dasharray="" stroke-dashoffset="0" style="mix-blend-mode: normal"><g><g><path d="M308.43851,225.01202c-0.47693,6.8367 -23.55938,28.83889 -40.04772,45.52764c-3.41182,3.45329 -21.2435,16.70251 -21.2435,16.70251l11.4008,34.74653l-12.26014,44.19405l-15.03157,-42.97324l13.47664,-35.96996c0,0 -15.01063,-10.82509 -18.71797,-14.53275c-17.17733,-17.17885 -42.29434,-37.35912 -44.58669,-44.19477c-2.32884,-6.94445 30.54061,-174 30.54061,-174l82.41117,0.5c0,0 16.26049,138.4331 14.05838,170z" fill="#e1e2db" stroke="none" stroke-width="0" stroke-linecap="round"/><path d="M211.96896,54.51202l82.41117,0.5c0,0 4.61489,39.28873 8.59467,80.77777c-24.00894,6.35211 -48.0053,12.75045 -71.87515,19.58864c-13.59567,3.89487 -27.0634,8.32983 -40.58672,12.54676c9.03039,-50.26116 21.45603,-113.41317 21.45603,-113.41317z" fill="#8c9ca0" stroke="none" stroke-width="0" stroke-linecap="butt"/><path d="M308.4385,225.01202c-0.47693,6.8367 -23.55937,28.83889 -40.04772,45.52765c-3.41182,3.45329 -21.2435,16.70251 -21.2435,16.70251l11.40079,34.74652l-12.26014,44.19405l-15.03157,-42.97324l13.71903,-35.96996c0,0 -15.25302,-10.82509 -18.96036,-14.53275c-17.17733,-17.17885 -42.29434,-37.35913 -44.58669,-44.19477c-2.32884,-6.94446 30.54061,-174 30.54061,-174l82.41117,0.5c0,0 16.26049,138.4331 14.05838,170z" fill="none" stroke="#3a2f41" stroke-width="2" stroke-linecap="round"/><path d="M220.65753,304.01199v-32.25l25.45051,15.75l25.29045,-13.9221l-1.89323,32.00524l-23.41843,-17.72815z" fill="#3a2f41" stroke="#3a2f41" stroke-width="2" stroke-linecap="butt"/></g><g><path d="M217.38407,12.76637l-20.57999,-2.17959l6.65275,-36.65227l26.24484,19.86151z" data-paper-data="{&quot;index&quot;:null}" fill="#3a2f41" stroke="#3a2f41" stroke-width="2" stroke-linecap="butt"/><path d="M282.67571,9.10106c0,12.4409 -54.00639,6.85266 -54.01452,27.85502c-0.00949,24.51023 -2.81852,49.04578 -6.45329,68.13514c-4.48312,23.54484 -9.96987,39.05706 -9.96987,39.05706l-13.07124,-20.74345l-23.16891,6.95477c0,0 16.93766,-24.11917 20.27337,-44.89262c-11.54796,-1.74045 -22.40999,0.68461 -22.40999,0.68461c0,0 0.4416,-13.49396 9.24149,-19.29585c-28.2295,-3.46436 -31.53006,-23.93682 -31.53006,-23.93682c0,0 33.80443,-8.53018 32.42244,-8.56835c-16.01535,-5.23786 -14.67724,-20.40519 -14.67724,-20.40519c0,0 12.63039,-1.22063 30.67076,-9.09997c19.8605,-8.6743 33.65342,-18.27062 44.6589,-18.27062c8.27878,0 24.4173,2.53593 30.66106,5.19662c9.596,4.08919 7.3671,9.7927 7.3671,17.32961z" fill="#e1e2db" stroke="#3a2f41" stroke-width="2" stroke-linecap="butt"/><g data-paper-data="{&quot;index&quot;:null}" fill="#e1e2db" stroke="#3a2f41" stroke-width="2" stroke-linecap="butt"><path d="M253.8486,17.72173c25.6851,3.31558 36.40076,21.22822 37.29937,36.20314c0.66869,11.14323 2.54472,20.85744 -8.65858,27.25548c-6.53409,3.73154 -21.51434,6.77494 -33.25607,7.15798c-16.97639,0.55384 -30.89898,-2.9491 -38.12778,-8.87088c-6.89826,-5.65099 -4.14492,-24.50807 -4.14492,-24.50807c-0.95398,-15.89771 2.72334,-40.38313 46.75035,-37.2702"/></g><path d="M237.97243,17.83412c5.92767,5.99073 0.71176,20.76294 -11.65007,32.99465c-12.36183,12.23171 -27.1884,17.29101 -33.11607,11.30028c-5.92767,-5.99073 -0.71176,-20.76294 11.65007,-32.99465c12.36183,-12.23171 27.1884,-17.29101 33.11607,-11.30028z" fill="#e1e2db" stroke="#8c9ca0" stroke-width="2" stroke-linecap="butt"/><path d="M260.54723,-10.51856c11.00549,0 24.79841,4.75197 44.6589,13.42627c18.04038,7.87934 25.84844,4.95342 25.84844,4.95342c0,0 0.32812,4.98424 -2.14366,9.27693c-3.33322,5.78874 -5.71126,7.78583 -5.71126,7.78583l28.86018,13.16366c0,0 -7.72274,13.62164 -28.78557,18.91933c15.23558,11.47883 8.45685,28.52271 8.45685,28.52271l-20.61838,-1.03295c0,0 -34.57437,-32.27779 -34.57916,-44.63393c-0.00813,-21.00237 -54.01452,-15.41413 -54.01452,-27.85502c0,-12.4409 17.02579,-22.52623 38.02816,-22.52623z" data-paper-data="{&quot;index&quot;:null}" fill="#e1e2db" stroke="#3a2f41" stroke-width="2" stroke-linecap="butt"/><path d="M307.90258,49.90594c8.57456,34.05775 14.92719,93.73034 14.92719,93.73034l-19.94923,-12.18983l-17.42366,11.45745c0,0 3.06264,-45.89702 1.90671,-86.40416" fill="#e1e2db" stroke="#3a2f41" stroke-width="2" stroke-linecap="round"/><path d="M306.34353,54.6221c-3.95493,7.52556 -21.69721,5.98702 -39.6285,-3.43645c-17.93129,-9.42347 -29.26138,-23.16337 -25.30645,-30.68894c3.95493,-7.52556 21.69721,-5.98702 39.6285,3.43645c17.93129,9.42347 29.26138,23.16337 25.30645,30.68894z" fill="#e1e2db" stroke="#8c9ca0" stroke-width="2" stroke-linecap="butt"/><path d="M226.16953,-0.96398c2.46183,-1.64845 6.85064,-2.48898 10.9293,0.77334c5.22127,4.17626 12.44834,11.85514 13.95888,17.06348c2.34022,8.06909 1.51976,18.82912 3.91429,27.38799c2.82183,10.08618 6.68306,23.04135 6.68306,23.04135c0,0 -18.67916,0.70102 -35.29286,-25.99274c-0.33054,-0.65442 -0.6355,-1.34058 -0.91715,-2.0517c-2.92807,-7.39306 -3.33634,-17.4848 -3.77068,-22.66823c-1.14907,-13.71294 3.53856,-16.91296 4.49513,-17.55349z" data-paper-data="{&quot;index&quot;:null}" fill="#e1e2db" stroke="#8c9ca0" stroke-width="2" stroke-linecap="butt"/><path d="M274.66186,-6.23605c1.52805,2.32204 23.97938,25.04792 31.03347,43.7492c1.87163,4.96192 8.47256,45.46162 7.49793,48.10608c-0.50776,1.3777 -24.50094,-17.8991 -24.50094,-17.8991l-0.46551,-9.69389c0,0 -4.65726,-0.78527 -5.9909,-1.29338c-39.11139,-14.90137 -36.57021,-26.65043 -37.42723,-25.8021c-7.73748,7.65906 -14.80696,15.84414 -22.52416,22.16102c-5.06482,4.14579 -10.37141,7.48687 -14.6381,9.34642c-13.12165,5.7188 -17.20388,2.55941 -21.57934,-4.08957c-4.37546,-6.64898 3.70832,-25.44201 15.66532,-33.31049c5.96431,-3.92489 13.86016,-21.91484 23.97594,-28.18187c4.10492,-2.54312 12.7636,-7.71326 21.48387,-8.42235c12.87136,-1.04662 26.16241,3.3435 27.46966,5.33003z" fill="#e1e2db" stroke="none" stroke-width="0" stroke-linecap="butt"/><path d="M225.32739,-25.53605c-4.9233,-11.49158 -2.58365,-27.45132 -2.58365,-27.45132c0,0 7.19837,11.6436 12.67605,23.81806c4.41331,9.80884 2.90661,16.22858 2.90661,16.22858c0,0 -8.21111,-2.97579 -12.99901,-12.59531z" fill="#e1e2db" stroke="#3a2f41" stroke-width="2" stroke-linecap="butt"/><path d="M239.67738,-13.18454c0,0 -4.59792,-8.11083 -2.51181,-23.1748c2.58923,-18.69697 7.72422,-37.35815 7.72422,-37.35815c0,0 9.52287,20.72319 7.41418,38.27312c-2.66965,14.95612 -12.6266,22.25983 -12.6266,22.25983z" data-paper-data="{&quot;index&quot;:null}" fill="#e1e2db" stroke="#3a2f41" stroke-width="2" stroke-linecap="butt"/><path d="M265.89126,-8.20979l22.28402,-24.22176l13.07975,34.87933l-19.86184,5.81322z" fill="#3a2f41" stroke="#3a2f41" stroke-width="2" stroke-linecap="butt"/></g><g data-paper-data="{&quot;index&quot;:null}" stroke-linecap="butt"><path d="M267.32133,67.15652c-10.40602,1.49429 -17.62137,2.8628 -17.62137,2.8628c0,0 5.48802,-5.52357 16.94965,-6.91626c10.81795,-1.31448 17.22391,1.61504 17.22391,1.61504z" fill="#e1e2db" stroke="#3a2f41" stroke-width="1"/><path d="M268.53893,63.03675c1.08182,-0.62901 11.15023,-0.84316 15.23576,1.48997c-0.11917,0.85254 -11.60784,1.8026 -11.88988,1.83536z" fill="#3a2f41" stroke="#12161a" stroke-width="0"/></g><path d="M259.34286,82.40825c-10.21612,2.39816 -35.16429,-4.73571 -35.16429,-4.73571c0,0 28.16401,-2.26739 49,-9.25c1.16392,-0.39006 -2.94339,11.42882 -13.83571,13.98571z" fill="#e1e2db" stroke="#3a2f41" stroke-width="1" stroke-linecap="butt"/><g fill="none" stroke-opacity="0.33191" stroke="#890000" stroke-width="1"><path d="M277.09216,50.77199c-9.44079,-1.86204 -18.04127,-9.35269 -19.20969,-16.73084c-1.16842,-7.37815 5.53765,-11.84983 14.97844,-9.98779c9.44079,1.86204 18.04127,9.35269 19.20969,16.73084c1.16842,7.37815 -5.53765,11.84983 -14.97844,9.98779z" stroke-linecap="butt"/><path d="M272.8536,44.80424c0,0 -4.08062,-15.64587 -3.48515,-15.82409c0.72669,-0.21751 7.51271,7.59228 7.51271,7.59228l-5.31723,2.17915l5.36106,-2.06496l5.71718,6.4291" stroke-linecap="round"/><path d="M278.10084,33.1424c0,0 1.21634,-0.60281 1.6913,-0.43307c0.21205,0.07578 -1.26284,-2.23152 -0.99162,-1.82903c0.24366,0.36157 2.23529,3.42401 2.40659,3.69064c0.53273,0.82919 -1.08554,-1.6335 -1.08554,-1.6335l1.73902,-0.64777" stroke-linecap="round"/></g><path d="M204.26277,30.98808c-0.86583,3.90933 -2.30669,10.25261 -10.61964,8.41149c-8.31295,-1.84112 -21.68337,-12.50279 -20.81754,-16.41212c0.86583,-3.90933 9.64002,-4.25261 17.95297,-2.41149c8.31295,1.84112 14.35003,6.50279 13.48421,10.41212z" fill="#e1e2db" stroke="none" stroke-width="0" stroke-linecap="butt"/><path d="M249.91393,27.01069c8.24161,0.8162 19,16.57143 19,16.57143" fill="none" stroke="#3a2f41" stroke-width="1" stroke-linecap="round"/></g><g data-paper-data="{&quot;index&quot;:null}"><g stroke-linecap="butt"><path d="M257.75525,355.42363l-1.40867,-92.49196l25.53644,-2.28735l11.97429,97.42674z" fill="#e1e2db" stroke="none" stroke-width="0"/><path d="M255.76338,280.71886l-0.69051,-17.91547l27.30446,-2.24235l1.18436,18.5444z" fill="#8c9ca0" stroke="none" stroke-width="0"/><path d="M257.5831,356.26381l-2.22046,-93.67005l27.01468,-2.0327l10.66976,96.16377z" fill="none" stroke="#3a2f41" stroke-width="2.5"/></g><path d="M285.38982,294.67866h-27.5" fill="none" stroke="#3a2f41" stroke-width="2.5" stroke-linecap="round"/><g><path d="M257.65765,395.52954l-0.66321,-53.58322l34.49106,1.52903l4.90687,33.01281l31.68854,35.89601z" fill="#3a2f41" stroke="#3a2f41" stroke-width="2.5" stroke-linecap="butt"/><path d="M300.90384,336.75328l-4.19878,8.7174l4.19698,8.5023l-12.16199,7.66772l-26.29812,0.34683l-14.10613,-8.08716l3.82329,-8.11559l-4.12367,-7.25957l8.43372,-11.26742l7.75757,6.93124l20.41225,-0.41221l6.03967,-8.40044z" fill="#3a2f41" stroke="#3a2f41" stroke-width="2.5" stroke-linecap="butt"/><path d="M292.99466,359.34531l-7.33333,3.33333l-20,0.33333l-8,-2.66667" fill="none" stroke="#8c9ca0" stroke-width="1.5" stroke-linecap="round"/></g></g><g><g stroke-linecap="butt"><path d="M202.59232,359.4044l11.97429,-97.42674l25.53644,2.28735l-1.40867,92.49196z" fill="#e1e2db" stroke="none" stroke-width="0"/><path d="M212.88797,280.43878l1.18436,-18.5444l27.30446,2.24235l-0.69051,17.91547z" fill="#8c9ca0" stroke="none" stroke-width="0"/><path d="M203.40258,358.05817l10.66976,-96.16377l27.01468,2.0327l-2.22046,93.67005z" fill="none" stroke="#3a2f41" stroke-width="2.5"/></g><path d="M211.05985,296.012h27.5" fill="none" stroke="#3a2f41" stroke-width="2.5" stroke-linecap="round"/><g><path d="M168.36875,413.71751l31.68854,-35.89601l4.90687,-33.01281l34.49106,-1.52903l-0.66321,53.58322z" fill="#3a2f41" stroke="#3a2f41" stroke-width="2.5" stroke-linecap="butt"/><path d="M205.77103,326.70971l6.03967,8.40044l20.41225,0.41221l7.75757,-6.93124l8.43372,11.26742l-4.12367,7.25957l3.82329,8.11559l-14.10613,8.08716l-26.29812,-0.34683l-12.16199,-7.66772l4.19698,-8.5023l-4.19878,-8.7174z" fill="#3a2f41" stroke="#3a2f41" stroke-width="2.5" stroke-linecap="butt"/><path d="M238.78832,361.67864l-8,2.66667l-20,-0.33333l-7.33333,-3.33333" fill="none" stroke="#8c9ca0" stroke-width="1.5" stroke-linecap="round"/></g></g><g data-paper-data="{&quot;index&quot;:null}"><g stroke-linecap="butt"><g data-paper-data="{&quot;index&quot;:null}" stroke="none"><g fill="#e1e2db" stroke-width="0"><path d="M208.75102,136.94032l17.35179,11.5169l-23.73549,78.21921l21.53504,24.19718l-17.49912,-1.71323l-43.14822,36.71873l4.50351,-25.80043l-24.31835,-4.77419l20.25946,-12.33832l-17.35812,-10.25081l30.23676,-8.76503z"/></g><g fill="none" stroke-width="1" font-family="sans-serif" font-weight="normal" font-size="12" text-anchor="start"/></g><g data-paper-data="{&quot;index&quot;:null}" stroke="none"><g fill="#8c9ca0" stroke-width="0"><path d="M216.52187,180.03079c-2.29301,0.91441 -18.33377,-0.61924 -20.30183,-9.20086l12.53099,-33.8896l17.35179,11.5169z"/></g><g fill="none" stroke-width="1" font-family="sans-serif" font-weight="normal" font-size="12" text-anchor="start"/></g><g data-paper-data="{&quot;index&quot;:null}" fill="none"><g stroke="#3a2f41" stroke-width="2"><path d="M208.75102,136.94032l17.35179,11.5169l-23.73549,78.21921l21.53504,24.19718l-17.49912,-1.71323l-43.14822,36.71873l4.50351,-25.80043l-24.31835,-4.77419l20.25946,-12.33832l-17.35812,-10.25081l30.23676,-8.76503z"/></g><g stroke="none" stroke-width="1" font-family="sans-serif" font-weight="normal" font-size="12" text-anchor="start"/></g></g><g data-paper-data="{&quot;index&quot;:null}"><path d="M210.55394,163.41921c-8.50123,-2.36774 -16.33895,-7.99539 -16.52263,-9.74439c0,0 11.74341,-25.56989 19.71236,-38.93352c2.62309,-4.04699 10.15385,-5.68308 14.88842,-3.00918c5.36424,3.02949 7.7995,10.84325 7.52925,13.2535c-3.09203,24.33654 -6.14679,30.81739 -8.70246,37.48163c-0.48094,2.24506 -9.04229,3.14185 -16.90494,0.95196z" fill="#3a2f41" stroke="#3a2f41" stroke-width="2.5" stroke-linecap="butt"/><path d="M228.84722,155.47579c0,0 -4.19079,0.21966 -8.5969,0.13884c-2.92394,-0.05363 -5.9427,-0.23959 -7.8945,-0.70986c-5.55577,-1.33863 -15.10817,-7.0427 -15.10817,-7.0427" fill="none" stroke="#8c9ca0" stroke-width="2" stroke-linecap="round"/></g></g><g data-paper-data="{&quot;index&quot;:null}" stroke="#3a2f41" stroke-width="2"><g data-paper-data="{&quot;index&quot;:null}"><path d="M246.63002,265.47434c0,0 -7.82602,3.81782 -20.91152,3.30158c-11.94798,-0.47137 -17.48788,-6.38467 -17.48788,-6.38467l9.99411,-67.81605l31.70054,1.88762l-3.29524,69.01152z" data-paper-data="{&quot;index&quot;:null}" fill="#e1e2db" stroke-linecap="butt"/><path d="M227.4531,198.55071l-3.49945,23.11103l-8.70211,2.19741" fill="none" stroke-linecap="round"/><path d="M223.43359,197.98684l-2.59375,20.05326l-5.0197,1.41468" fill="none" stroke-linecap="round"/></g><path d="M246.56489,255.34799c0,0 -9.56935,5.98935 -21.22137,3.62824c-13.69904,-2.77592 -15.63013,-7.92327 -15.63013,-7.92327" data-paper-data="{&quot;index&quot;:null}" fill="none" stroke-linecap="round"/></g><g stroke="#3a2f41" stroke-width="2"><g data-paper-data="{&quot;index&quot;:null}"><path d="M248.71659,263.50611l-2.98299,-63.82619l31.94492,-4.67314l12.30112,65.01596c0,0 -4.96789,7.99617 -20.86236,9.65217c-15.89447,1.656 -20.40069,-6.16879 -20.40069,-6.16879z" data-paper-data="{&quot;index&quot;:null}" fill="#e1e2db" stroke-linecap="butt"/><path d="M282.06433,223.23453l-12.43741,-1.26547l-2.61235,-21.73968" fill="none" stroke-linecap="round"/><path d="M281.76059,219.28736l-8.19172,-0.71811l-2.82681,-19.49608" fill="none" stroke-linecap="round"/></g><path d="M287.80064,249.82506c0,0 -3.02017,6.20602 -17.25221,9.77572c-12.10537,3.03629 -21.24779,-3.26993 -21.24779,-3.26993" data-paper-data="{&quot;index&quot;:null}" fill="none" stroke-linecap="round"/></g><g data-paper-data="{&quot;index&quot;:null}" stroke-linecap="butt"><path d="M237.47483,219.18787l1.8476,-19.58817h17.42024v23.07052z" fill="#8c9ca0" stroke="#3a2f41" stroke-width="2"/><path d="M237.73875,216.57612l1.8476,-19.58818h17.42024v23.07052z" fill="#e1e2db" stroke="#e1e2db" stroke-width="3.5"/></g><path d="M246.42564,220.81529l-1.4,-8.7992l-0.9,-14.36869" data-paper-data="{&quot;index&quot;:null}" fill="none" stroke="#3a2f41" stroke-width="2" stroke-linecap="round"/><path d="M245.02565,212.01609l-4.6,-2.66023l-1.4,-13.09649" data-paper-data="{&quot;index&quot;:null}" fill="none" stroke="#3a2f41" stroke-width="2" stroke-linecap="round"/><g><g><g><g fill="none" stroke="none" stroke-width="1" stroke-linecap="butt" font-family="sans-serif" font-weight="normal" font-size="12" text-anchor="start"><g><g><g/></g></g><g><g><g/></g></g></g><g fill="none" stroke="none" stroke-width="1" stroke-linecap="butt" font-family="sans-serif" font-weight="normal" font-size="12" text-anchor="start"><g><g><g/></g></g><g><g><g/></g></g></g><path d="M221.28378,111.81423c0,0 22.11322,-8.93357 31.89132,-8.98098c8.91239,-0.0432 29.15918,8.98008 30.66428,13.54902c-2.4742,22.13935 -6.25808,74.95354 -6.25808,74.95354l4.44331,4.92011l-2.94648,4.47425l-62.27916,-0.00402c-0.03641,-0.04853 -3.48021,-6.6955 -3.48021,-6.6955l4.41623,-4.73882c0,0 3.00543,-17.83634 3.2204,-21.04289c1.51228,-22.55751 0.62522,-55.33423 0.62522,-55.33423" fill="#3a2f41" stroke="#3a2f41" stroke-width="2" stroke-linecap="round"/><g fill="none" stroke="none" stroke-width="1" stroke-linecap="butt" font-family="sans-serif" font-weight="normal" font-size="12" text-anchor="start"><g/></g></g><g data-paper-data="{&quot;index&quot;:null}" stroke-linecap="butt"><path d="M247.89103,113.33554l-12.56285,7.99778l-4.09776,-14.0657c0,0 9.24319,-7.42533 17.34645,-7.57653c7.55509,-0.14097 19.20551,6.32563 19.20551,6.32563l-5.92181,16.02792z" fill="#8c9ca0" stroke="#3a2f41" stroke-width="2"/><path d="M235.72989,106.74361c0,0 8.2601,-5.26714 13.84997,-5.02614c4.63461,0.19982 13.14616,4.97013 13.14616,4.97013l-14.62771,5.78242z" fill="#3a2f41" stroke="none" stroke-width="0"/></g></g><path d="M255.07999,153.7825l-9.5,18.25l-8.75,-21l9.25,-20.75z" fill="none" stroke="#8c9ca0" stroke-width="1.5" stroke-linecap="round"/><path d="M253.82999,153.5325l-16,-2.75" fill="none" stroke="#8c9ca0" stroke-width="1.5" stroke-linecap="round"/><path d="M219.57999,188.2825l55.75,1.25" fill="none" stroke="#8c9ca0" stroke-width="1.5" stroke-linecap="round"/><path d="M219.57999,185.0325l55.75,1.5" fill="none" stroke="#8c9ca0" stroke-width="1.5" stroke-linecap="round"/></g><g><g data-paper-data="{&quot;index&quot;:null}"><g stroke-linecap="butt"><g data-paper-data="{&quot;index&quot;:null}" stroke="none"><g fill="#e1e2db" stroke-width="0"><path d="M279.01892,145.95722l17.35179,-11.5169l26.94222,72.86425c-7.91108,2.13476 -15.81346,4.29942 -23.70779,6.49357z"/></g><g fill="none" stroke-width="1" font-family="sans-serif" font-weight="normal" font-size="12" text-anchor="start"/></g><g data-paper-data="{&quot;index&quot;:null}" stroke="none"><g fill="#8c9ca0" stroke-width="0"><path d="M279.01892,145.95723l17.35179,-11.5169l12.53099,33.8896c-1.96806,8.58162 -18.00882,10.11527 -20.30183,9.20086z"/></g><g fill="none" stroke-width="1" font-family="sans-serif" font-weight="normal" font-size="12" text-anchor="start"/></g><g data-paper-data="{&quot;index&quot;:null}" fill="none"><g stroke="#3a2f41" stroke-width="2"><path d="M299.60514,213.79813l-20.58621,-67.84092l17.35179,-11.5169l26.94222,72.86425"/></g><g stroke="none" stroke-width="1" font-family="sans-serif" font-weight="normal" font-size="12" text-anchor="start"/></g></g><g data-paper-data="{&quot;index&quot;:null}"><path d="M277.66285,159.96725c-2.55567,-6.66424 -5.61043,-13.14509 -8.70246,-37.48163c-0.27025,-2.41025 2.16501,-10.22401 7.52925,-13.2535c4.73457,-2.6739 12.26533,-1.03781 14.88842,3.00918c7.96895,13.36363 19.71236,38.93352 19.71236,38.93352c-0.18368,1.749 -8.0214,7.37665 -16.52263,9.74439c-7.86265,2.18989 -16.424,1.2931 -16.90494,-0.95196z" fill="#3a2f41" stroke="#3a2f41" stroke-width="2.5" stroke-linecap="butt"/><path d="M307.87408,145.36207c0,0 -9.5524,5.70407 -15.10817,7.0427c-1.9518,0.47027 -4.97056,0.65623 -7.8945,0.70986c-4.40611,0.08082 -8.5969,-0.13884 -8.5969,-0.13884" fill="none" stroke="#8c9ca0" stroke-width="2" stroke-linecap="round"/></g></g><g stroke="#3a2f41" stroke-width="2"><path d="M348.94496,271.02214l1.32958,43.4579l-30.83302,-34.01612l-24.41298,-81.11104l22.20733,-8.63619z" fill="#e1e2db" stroke-linecap="butt"/><path d="M339.90441,301.53355l2.28988,-7.11111l7.26614,2.77142l-0.10826,14.34177z" fill="#3a2f41" stroke-linecap="round"/><path d="M347.2485,268.69527l-3.04602,4.91185l-10.98204,-3.25037l-7.69079,8.61682l-7.37416,-3.08562" fill="none" stroke-linecap="round"/></g><path d="M297.59594,205.01198l22.5,-8" fill="none" stroke="#3a2f41" stroke-width="2" stroke-linecap="round"/></g></g></g></svg>