<svg version="1.1" xmlns="http://www.w3.org/2000/svg" xmlns:xlink="http://www.w3.org/1999/xlink" width="234.30269" height="352.36451" viewBox="0,0,234.30269,352.36451"><g transform="translate(-107.60725,-51.98182)"><g data-paper-data="{&quot;isPaintingLayer&quot;:true}" fill-rule="nonzero" stroke-linejoin="miter" stroke-miterlimit="10" stroke-dasharray="" stroke-dashoffset="0" style="mix-blend-mode: normal"><g fill="#3a2f41" stroke="#3a2f41" stroke-linecap="butt"><path d="M265.91413,188.22306c5.24815,46.43992 50.03793,78.19522 49.32209,78.43346c-3.08506,1.90989 -37.88827,-18.46004 -54.76512,-38.65204c-6.8302,-8.17185 -39.31927,-26.58776 -47.92971,-42.10786c-7.04493,-12.69829 7.9205,-23.10656 15.6082,-27.31903c7.19872,-3.94453 34.9468,4.71187 37.76455,29.64546z" data-paper-data="{&quot;index&quot;:null}" stroke-width="1.5"/><path d="M254.34378,148.45621c0,12.04461 -17.66863,17.92467 -35.39543,18.75401c-1.46882,0.06872 -3.43327,-23.77248 -4.87414,-23.77248c-3.91423,0 -7.35908,23.60117 -11.15882,23.04981c-14.47977,-2.10106 -26.79603,-8.22866 -26.79603,-18.56011c0,-14.92289 13.69649,-27.70643 25.3732,-34.62273c6.54835,-3.87869 14.21125,-5.58442 14.21125,-5.58442c0,0 6.41222,1.47498 11.93187,4.60686c11.43711,6.48949 26.68445,19.30567 26.68445,35.3359z" stroke-width="2"/><path d="M209.39673,126.18815c2.85122,5.61482 -13.5739,19.17197 -27.08754,26.45323c-13.51364,7.28127 -31.71635,-3.09957 -32.77497,-9.35933c-0.34106,-0.44349 19.47885,1.2203 32.74147,-14.07654c13.26262,-15.29684 24.26981,-8.63219 27.12104,-3.01738z" stroke-width="1.5"/><path d="M211.52952,126.6078c14.10324,12.79168 -5.15147,25.66287 -20.02313,37.49513c-20.21068,16.08007 -53.49403,14.13018 -57.24914,7.46909c-0.62379,-0.38578 30.44186,-10.24614 42.27914,-32.18458c11.83729,-21.93844 29.05036,-18.16976 34.99316,-12.77963z" stroke-width="1.5"/><path d="M248.23906,128.14531c13.26263,15.29684 33.08253,13.63305 32.74147,14.07654c-1.05862,6.25976 -19.26133,16.6406 -32.77497,9.35933c-13.51363,-7.28126 -29.93876,-20.83841 -27.08754,-26.45323c2.85122,-5.61482 13.85841,-12.27947 27.12105,3.01738z" data-paper-data="{&quot;index&quot;:null}" stroke-width="1.5"/><path d="M254.46376,137.82718c11.83729,21.93845 42.90294,31.79882 42.27914,32.18459c-3.75512,6.66109 -37.03849,8.61098 -57.24914,-7.4691c-14.87168,-11.83226 -34.12638,-24.70344 -20.02313,-37.49512c5.94279,-5.39014 23.15588,-9.15882 34.99317,12.77962z" data-paper-data="{&quot;index&quot;:null}" stroke-width="1.5"/><path d="M215.68953,141.56517c6.34646,5.75627 18.23009,19.11558 8.883,29.9926c-11.42417,13.2941 -45.96889,24.29653 -54.14829,30.80426c-20.21068,16.08007 -57.35289,28.4927 -59.85292,25.96868c-0.62379,-0.38578 48.35769,-21.76443 63.20717,-65.93964c7.97269,-23.71766 35.96824,-26.21604 41.91104,-20.82591z" stroke-width="1.5"/><path d="M257.40344,160.23979c14.84949,44.1752 63.83097,65.55385 63.20717,65.93963c-2.50003,2.52402 -48.69218,0.86768 -70.9913,-16.64657c-8.17941,-6.50773 -31.58576,-26.83226 -43.00994,-40.12636c-9.34708,-10.87701 2.53655,-24.23634 8.88303,-29.99261c5.94279,-5.39014 33.93834,-2.89175 41.91104,20.82591z" data-paper-data="{&quot;index&quot;:null}" stroke-width="1.5"/><path d="M207.95813,155.39959c7.14113,4.37233 20.90395,14.94869 13.32019,26.42734c-9.26902,14.02942 -27.91533,45.11094 -35.00801,52.3686c-32.59773,26.29662 -70.31468,15.30209 -73.16664,13.34227c-0.67462,-0.26311 23.58124,-14.66846 32.24892,-40.32847c31.4297,-22.48688 55.91863,-55.90394 62.60554,-51.80972z" data-paper-data="{&quot;index&quot;:null}" stroke-width="1.5"/><path d="M273.66995,216.09876c9.12838,61.65975 68.38861,101.89713 67.47965,102.24817c-3.87224,2.69005 -35.38903,-3.16535 -58.13908,-29.29294c-9.20712,-10.57405 -66.26676,-53.27642 -78.14054,-73.56257c-9.71492,-16.59779 9.01057,-31.1714 18.68783,-37.14588c9.06172,-5.59446 45.21112,4.64811 50.11216,37.75323z" data-paper-data="{&quot;index&quot;:null}" stroke-width="1.5"/><path d="M175.28337,304.29721c-1.45972,0.30085 -7.28133,-3.34439 -8.67002,-2.58286c-24.22943,13.28701 -58.04573,26.34722 -58.1973,25.66372c30.15833,-38.60391 19.67658,-57.84061 43.73449,-85.73767c7.95064,-6.24334 41.7861,-49.69664 56.54687,-57.23332c12.07702,-6.16639 22.45164,46.61356 25.67842,54.49892c3.02154,7.3838 -33.16384,36.40055 -59.09244,65.39121zM130.76119,295.3352c0.20207,0 3.70422,-4.27104 7.02875,-11.88426c2.51916,-5.76893 4.5411,-14.16936 7.21679,-19.99479c3.87095,-8.42774 7.45108,-14.3838 7.45108,-14.61199c0,0 -5.31457,4.87819 -9.80667,13.55923c-2.82539,5.46009 -4.47159,12.36625 -6.64921,18.75866c-2.56754,7.53695 -5.42115,14.17316 -5.24074,14.17316z" data-paper-data="{&quot;index&quot;:null}" stroke-width="1.5"/><path d="M295.84461,294.42906c7.30269,33.29291 -15.15533,80.35461 -18.76451,83.82119c-3.98381,3.82639 -4.66667,-40.81783 -35.71103,-68.35077c-24.83575,-22.02659 -13.95837,-67.6173 -1.22086,-70.70755c12.73753,-3.09025 48.3937,21.94422 55.69639,55.23714zM284.61224,358.41994c4.25581,-9.80017 11.44933,-44.4593 9.04992,-57.60587c0,0 -1.13873,12.7048 -3.2975,26.32155c-2.41677,15.24416 -5.87681,31.57074 -5.75242,31.28431z" stroke-width="1.5"/><path d="M259.84244,331.80349c-13.11657,36.14985 -61.6456,70.69149 -67.75097,71.77042c-6.73908,1.19092 9.59247,-45.27179 -6.68303,-90.5331c-13.02053,-36.20943 33.15592,-72.88304 48.92493,-67.9947c15.76899,4.88835 38.62565,50.60752 25.50908,86.75738z" stroke-width="1.5"/><path d="M209.70847,318.88738c-19.02081,32.21324 -64.77701,59.24691 -70.47903,58.89223c-1.42082,0.3256 17.92082,-45.17785 12.35438,-93.0419c-4.45319,-38.29165 39.37466,-64.68329 52.56586,-56.28654c13.19119,8.39675 24.57961,58.22298 5.5588,90.43622z" stroke-width="1.5"/><path d="M177.68867,116.87849c1.63235,-8.45373 4.69889,-18.89113 7.89457,-28.63613c1.35208,-0.19624 3.53749,-0.51342 4.74114,-0.68811l-0.21854,-1.59766c-0.8487,0.12318 -3.19098,0.46313 -4.03968,0.58631c0.11319,-0.33944 0.49826,-1.26035 0.61145,-1.59743c1.13727,-0.16506 2.41805,-0.35095 3.36948,-0.48905l-0.21855,-1.59766c-0.56723,0.08232 -1.82382,0.26471 -2.39104,0.34703c4.70767,-13.80647 16.27186,-34.32113 16.12046,-29.35307c-0.15141,4.96805 4.08515,71.96275 4.08515,71.96275c0,0 -32.5036,25.29415 -34.54806,14.11099z" data-paper-data="{&quot;index&quot;:null}" stroke-width="0.5"/><path d="M255.90933,138.73129c-2.04446,11.18316 -34.54806,-14.11099 -34.54806,-14.11099c0,0 4.23656,-66.99469 4.08515,-71.96275c-0.15141,-4.96807 20.38295,34.61289 25.8693,63.02578z" data-paper-data="{&quot;index&quot;:null}" stroke-width="0.5"/></g><path d="M251.81145,142.07602c0,10.87793 -15.95719,16.18843 -31.96691,16.93744c-1.32655,0.06206 -3.10071,-21.46979 -4.40201,-21.46979c-3.53508,0 -6.64626,21.31507 -10.07793,20.81713c-13.07722,-1.89754 -24.20047,-7.4316 -24.20047,-16.76232c0,-13.47741 12.3698,-25.02269 22.91547,-31.26905c5.91406,-3.50299 12.83471,-5.04349 12.83471,-5.04349c0,0 5.79111,1.3321 10.77609,4.16062c10.32927,5.8609 24.09971,17.43565 24.09971,31.91313z" fill="#3a2f41" stroke="none" stroke-width="0" stroke-linecap="butt"/><path d="M248.38259,145.20505c-0.49302,19.20908 -11.42425,27.15093 -11.42425,27.15093c0,0 2.09272,-16.79912 0.53679,-31.14693" data-paper-data="{&quot;index&quot;:null}" fill="#3a2f41" stroke="#b8c1c0" stroke-width="2" stroke-linecap="round"/><path d="M243.7768,160.39261c-1.69932,2.80031 3.94543,-25.13505 4.47223,-25.2213c0.67031,-0.10976 1.83809,3.39469 2.60833,7.82739c0.77022,4.4327 -4.87472,17.43645 -4.74178,16.8344c2.11668,-5.32263 3.12225,-11.5918 2.35204,-16.0245c-0.16489,-0.94896 -0.84582,10.24793 -4.6908,16.58403z" data-paper-data="{&quot;index&quot;:null}" fill="#3a2f41" stroke="none" stroke-width="0" stroke-linecap="butt"/><path d="M197.62974,140.21182c-1.25447,12.17918 -0.48521,31.59881 -0.48521,31.59881c0,0 -11.18999,-6.90163 -13.15738,-28.4113" fill="#3a2f41" stroke="#b8c1c0" stroke-width="2" stroke-linecap="round"/><path d="M183.84697,143.80198c0,4.42877 1.61741,10.32956 2.95538,15.35843c0.14999,0.56374 -4.53159,-10.92966 -4.53159,-15.35843c0,-4.42877 0.35284,-8.019 0.7881,-8.019c0.34207,0 6.85098,25.84382 5.47086,23.39369c-3.12272,-5.54377 -4.68276,-16.3228 -4.68276,-15.37468z" fill="#3a2f41" stroke="none" stroke-width="0" stroke-linecap="butt"/><g stroke-linecap="butt"><path d="M241.11633,144.69831c0,5.28987 -0.38006,10.00915 -4.42653,13.42374c-3.93355,3.3193 -11.0834,4.4652 -20.09181,4.64433c-8.96613,0.1783 -16.6664,-1.93309 -20.62452,-5.39022c-4.0043,-3.49744 -4.53437,-7.43154 -4.53437,-12.67785c0,-10.43215 7.55728,-23.68327 28.40196,-23.10797c13.71175,0.37843 21.27526,12.67581 21.27526,23.10797z" fill="#e1e2db" stroke="none" stroke-width="0"/><path d="M241.90222,146.58721c-0.47154,6.22258 -10.92251,1.76655 -22.1718,1.84932c-11.24704,0.08276 -28.29132,6.47805 -28.29132,-3.9541c0,-10.43215 7.55728,-23.68328 28.40196,-23.10798c13.71175,0.37843 22.06116,12.51391 22.06116,22.94607z" fill="#b8c1c0" stroke="none" stroke-width="0"/><path d="M223.93663,122.03892c9.79147,2.04027 15.9424,7.63245 17.15093,17.0165c0.30679,2.3822 0.76663,7.32259 0.41511,9.90963c-0.50976,3.7517 -0.57864,5.73122 -3.33033,8.36184c-3.88195,3.71117 -11.43788,5.24845 -21.04449,5.43948c-6.63668,0.13197 -14.20776,-1.20332 -18.02309,-3.19948c-6.55379,-3.42889 -7.45607,-8.59878 -7.45607,-15.19241c0,-8.8549 5.44484,-19.41698 19.83875,-22.15446" fill="none" stroke="#3a2f41" stroke-width="2"/></g><path d="M250.02251,138.30041c-2.45093,1.52461 -3.91702,4.38188 -6.94239,4.51226c-7.57363,0.32636 -15.51595,-2.79994 -19.80594,-7.7072c-6.05013,-6.36329 -4.78109,-17.82342 -2.56821,-20.14082c2.24706,-2.35321 10.27256,0.42725 16.58853,6.82654z" data-paper-data="{&quot;index&quot;:null}" fill="#3a2f41" stroke="none" stroke-width="0" stroke-linecap="butt"/><path d="M221.72813,117.21211c2.50143,4.34115 -4.07289,15.3138 -13.02849,20.78923c-3.53487,2.16121 -10.963,4.42488 -11.96389,5.08594c-0.83299,0.55018 -6.3107,2.09552 -5.84065,3.43395c1.31033,3.73113 -2.68362,-4.6976 -3.90125,-6.81075c-2.50143,-4.34115 2.73069,-12.29906 11.6863,-17.77449c8.9556,-5.47541 20.54655,-9.06503 23.04799,-4.72388z" fill="#3a2f41" stroke="none" stroke-width="0" stroke-linecap="butt"/><path d="M226.88465,131.27659c-2.16156,10.2432 -12.91312,18.82879 -23.71885,18.63914c-0.23821,-0.01791 8.67772,-8.16921 8.67772,-19.20656c0,-7.3135 4.62018,-12.6748 8.04449,-12.6748c3.37063,0 6.79568,5.27557 6.88083,12.43058c0.00135,0.11396 0.13944,0.69964 0.1158,0.81168z" data-paper-data="{&quot;index&quot;:null}" fill="#3a2f41" stroke="none" stroke-width="0" stroke-linecap="butt"/><path d="M217.06503,131.45977c-6.93427,10.86301 -20.60481,14.03213 -23.71159,14.58684c-3.10678,0.55471 -2.43708,-2.57857 -2.57587,-3.40336c-0.13879,-0.8248 2.11006,-10.03844 5.21684,-10.59314c3.10678,-0.5547 20.93185,-1.41512 21.07063,-0.59033z" fill="#3a2f41" stroke="none" stroke-width="0" stroke-linecap="butt"/><path d="M246.00939,141.66807c0,0 -4.85916,6.37572 -15.86464,2.13271c-5.87512,-2.26507 -8.65532,-10.41799 -8.65532,-14.05982c0,0 2.78426,9.81073 11.1253,12.45906c6.31545,2.0052 11.22933,-0.16427 12.78669,-0.75557c0.32867,-0.12479 0.60797,0.22362 0.60797,0.22362z" fill="#3a2f41" stroke="none" stroke-width="0" stroke-linecap="butt"/><path d="M211.2493,144.30951c0.40888,4.32802 -3.39553,8.25973 -8.49744,8.78181c-5.10188,0.52211 -9.56924,-2.56318 -9.9781,-6.89109c-0.40888,-4.32802 3.39554,-8.25974 8.49743,-8.78187c5.10188,-0.52211 9.56925,2.56315 9.97811,6.89108z" fill="#e0dedc" stroke="#3a2f41" stroke-width="1.25" stroke-linecap="butt"/><path d="M201.3197,146.89962l0.06699,-2.96635l0.84081,0.01098l-0.04717,2.94255z" fill="#3a2f41" stroke="#3a2f41" stroke-width="0.5" stroke-linecap="butt"/><path d="M210.76663,146.93535c-0.27023,2.11711 -5.39328,6.2155 -9.12277,6.08259c-2.90792,-0.10364 -7.19312,-3.89523 -8.46811,-5.50774c-0.36021,-0.45559 17.59087,-0.57485 17.59087,-0.57485z" data-paper-data="{&quot;index&quot;:null}" fill="#3b3045" stroke="#3a2f41" stroke-width="1.25" stroke-linecap="butt"/><path d="M193.38363,143.16054c1.24079,-1.61252 5.41101,-5.4041 8.24095,-5.50774c3.62946,-0.1329 8.61508,3.9655 8.87806,6.08259c0,0 -17.46955,-0.11926 -17.119,-0.57485z" data-paper-data="{&quot;index&quot;:null}" fill="#3a2f41" stroke="#3a2f41" stroke-width="1.25" stroke-linecap="butt"/><path d="M200.75472,154.44362c0,0.5 -0.4854,0.5 -0.4854,0.5h-0.17651c-1.94412,0 -4.68964,-0.70499 -5.79977,-2.51548c0,0 -0.24974,-0.42875 0.16649,-0.68599c0.41623,-0.25725 0.66596,0.1715 0.66596,0.1715c0.80833,1.51005 3.45426,2.02998 4.96732,2.02998h0.17651c0,0 0.4854,0 0.4854,0.5z" fill="#3a2f41" stroke="none" stroke-width="0.5" stroke-linecap="butt"/><path d="M209.64704,151.90173c-0.15349,-0.47434 0.307,-0.63246 0.307,-0.63246l0.16852,-0.04531c0.76361,-0.43372 1.28618,-1.71238 1.55434,-2.54755c0,0 0.15349,-0.47434 0.61399,-0.31623c0.46049,0.15811 0.307,0.63246 0.307,0.63246c-0.36228,1.11185 -1.00246,2.45553 -1.97585,3.08881l-0.36101,0.1365c0,0 -0.46049,0.15811 -0.61399,-0.31623z" fill="#3a2f41" stroke="none" stroke-width="0.5" stroke-linecap="butt"/><path d="M202.30985,158.88117c0,0 -0.2815,-1.94886 -0.00922,-2.71c0.16884,-0.47204 0.76459,-0.93326 0.92213,-1.12446c0.09179,-0.11133 0.73908,-0.40061 1.55526,-0.53648c1.11792,-0.18615 2.56453,-0.32299 3.56362,-0.42087c0.50889,-0.04986 1.43757,0.21266 2.21222,0.37703c0.42867,0.09096 1.80757,0.42865 2.89302,0.69697c0.30269,0.07482 1.38092,0.7375 1.75138,0.82207c0.23986,0.0548 1.65164,-0.85021 2.40217,-1.0562c0.34831,-0.09563 1.50564,-0.36735 2.44967,-0.58637c0.4208,-0.09764 1.79574,-0.33715 2.88905,-0.49168c0.42187,-0.05961 1.4102,-0.02238 2.29201,0.05883c0.3507,0.03228 0.88977,0.17362 1.38623,0.32274c0.3304,0.09921 0.78147,0.40466 1.14169,0.67785c0.11778,0.08931 0.24564,0.3155 0.3624,0.57296c0.22036,0.48594 0.19378,2.47158 0.19378,2.47158" data-paper-data="{&quot;index&quot;:null}" fill="none" stroke="#3b3045" stroke-width="1" stroke-linecap="round"/><path d="M240.96635,199.71997c-1.07949,7.18501 -7.10309,18.71999 -7.10309,18.71999l-32.33495,-0.5156c0,0 -10.4494,-17.0364 -7.86136,-29.77441c1.01597,-5.00047 13.19048,-11.78245 19.30054,-11.75359c3.79378,0.01791 10.53704,-0.88685 16.30149,1.06924c0,0 8.50861,3.28168 10.62533,7.2399c3.30521,6.18067 1.07203,15.01447 1.07203,15.01447z" fill="#3a2f41" stroke="#8c9ca0" stroke-width="2" stroke-linecap="round"/><g><g stroke-linecap="butt"><path d="M163.34724,258.93638l15.75786,-46.29237l13.50802,6.13387l-13.75288,41.34527c0,0 -6.07776,4.77349 -7.79588,4.03603z" data-paper-data="{&quot;index&quot;:null}" fill="#e1e2db" stroke="none" stroke-width="0"/><path d="M181.82215,227.82724c-3.17218,-1.18256 -5.95152,-6.42395 -5.95152,-6.42395l2.97612,-8.64735l14.15537,6.15313c0,0 -1.78212,5.10615 -2.82214,7.82864c0,0 -5.18565,2.2721 -8.35783,1.08953z" data-paper-data="{&quot;index&quot;:null}" fill="#8c9ca0" stroke="none" stroke-width="0"/><path d="M179.11965,212.97209l13.50803,6.13387l-14.4947,43.9162c0,0 -4.77775,1.60379 -6.9385,0.67634c-1.92917,-0.82806 -7.6168,-5.29755 -7.6168,-5.29755z" data-paper-data="{&quot;index&quot;:null}" fill="none" stroke="#3a2f41" stroke-width="2.5"/></g><g stroke="#8c9ca0" stroke-width="2" stroke-linecap="round"><path d="M205.26683,199.19158l-5.79291,21.02716c0,0 -6.58469,3.87063 -13.99665,1.56717c-7.41196,-2.30346 -9.48395,-8.92257 -9.48395,-8.92257c0,0 5.26264,-14.92531 10.77313,-24.4239c4.57229,-7.88137 14.54241,-7.95532 14.54241,-7.95532" fill="#3a2f41"/><path d="M200.52183,214.48564c0,0 -6.1378,3.73248 -12.8322,1.67131c-6.9509,-2.14014 -9.29881,-7.99422 -9.29881,-7.99422" fill="none"/></g></g><g data-paper-data="{&quot;index&quot;:null}"><g stroke-linecap="butt"><path d="M264.25516,263.51153c-1.71812,0.73746 -7.79588,-4.03603 -7.79588,-4.03603l-13.75288,-41.34527l13.50802,-6.13386l15.75786,46.29236z" data-paper-data="{&quot;index&quot;:null}" fill="#e1e2db" stroke="none" stroke-width="0"/><path d="M253.4974,227.17961c-3.17217,1.18257 -8.35783,-1.08952 -8.35783,-1.08952c-1.04001,-2.72249 -2.82214,-7.82864 -2.82214,-7.82864l14.15537,-6.15313l2.97612,8.64735c0,0 -2.77935,5.24139 -5.95152,6.42395z" data-paper-data="{&quot;index&quot;:null}" fill="#8c9ca0" stroke="none" stroke-width="0"/><path d="M271.74181,257.75332c0,0 -5.68762,4.4695 -7.6168,5.29755c-2.16075,0.92745 -6.9385,-0.67634 -6.9385,-0.67634l-14.4947,-43.9162l13.50803,-6.13387z" data-paper-data="{&quot;index&quot;:null}" fill="none" stroke="#3a2f41" stroke-width="2.5"/></g><g stroke="#8c9ca0" stroke-width="2" stroke-linecap="round"><path d="M234.01071,179.83648c0,0 9.97012,0.07395 14.54241,7.95532c5.51049,9.49859 10.77313,24.42391 10.77313,24.42391c0,0 -2.07199,6.6191 -9.48395,8.92257c-7.41196,2.30346 -13.99665,-1.56717 -13.99665,-1.56717l-5.79291,-21.02716" fill="#3a2f41"/><path d="M256.92868,207.51509c0,0 -2.34791,5.85408 -9.29881,7.99422c-6.6944,2.06117 -12.8322,-1.67131 -12.8322,-1.67131" fill="none"/></g></g><g><path d="M224.74114,173.88911c0,1.80463 -4.66942,5.15157 -6.65288,5.15157c-1.98346,0 -6.53514,-2.99369 -6.53514,-4.79832c0,-1.80463 4.7283,-2.79657 6.71176,-2.79657c1.98346,0 6.47626,0.63869 6.47626,2.44332z" fill="#3a2f41" stroke="none" stroke-width="0" stroke-linecap="butt"/><g fill="#8c9ca0" stroke="#8c9ca0" stroke-width="1.5" stroke-linecap="butt"><path d="M202.59117,186.38968c-0.68147,-0.66711 8.42891,-12.94195 8.42891,-12.94195l6.8036,5.14301l7.20499,-5.73784c0,0 9.19766,12.33612 8.66343,13.01277c-0.29539,0.37414 -3.52864,-1.3346 -7.55214,-2.56146c-3.70122,-1.12859 -8.23054,-1.76973 -8.23054,-1.76973c0,0 -4.7947,1.22469 -8.71731,2.55905c-3.58667,1.22008 -6.31681,2.57431 -6.60095,2.29615z"/></g><path d="M211.02324,174.91942l0.44745,-1.6956l6.45271,-1.95465l6.69998,1.44832l0.7065,1.73093" fill="none" stroke="#8c9ca0" stroke-width="1.5" stroke-linecap="round"/></g><g fill="#3a2f41"><path d="M231.43874,218.17987l-0.41524,8.07273c0,0 1.4509,3.27779 2.90452,8.01485c1.42964,4.65891 1.81387,8.19332 1.81387,8.19332c0,0 -2.97914,2.22717 -6.6491,4.14565c-3.77145,1.97153 -8.27246,3.6352 -11.01958,3.58936c-2.35891,-0.03937 -6.51268,-1.50585 -9.99415,-3.09687c-4.19486,-1.91705 -7.55996,-4.01489 -7.55996,-4.01489c0,0 0.17696,-3.9586 1.65863,-9.39837c1.17758,-4.32333 2.08503,-7.20846 2.08503,-7.20846c0,0 0.06421,-8.90298 0.05192,-8.90944" stroke="#8c9ca0" stroke-width="1.5" stroke-linecap="round"/><path d="M237.07445,188.51454c7.58612,8.99599 10.09853,19.79766 10.09853,19.79766c0,0 -6.81333,9.3107 -16.25202,15.15024l-26.31369,-0.12982c-13.62973,-7.22603 -16.18425,-14.65137 -16.18425,-14.65137c0,0 2.54784,-9.91585 9.80468,-19.13437" stroke="#8c9ca0" stroke-width="1.5" stroke-linecap="round"/><path d="M204.73538,227.58026v-9.58487h25.90505v9.58487z" stroke="none" stroke-width="0" stroke-linecap="butt"/></g><path d="M222.14181,195.17139c0,2.14604 -1.77596,3.88575 -3.96671,3.88575c-2.19075,0 -3.96671,-1.73971 -3.96671,-3.88575c0,-2.14604 1.77596,-3.88576 3.96671,-3.88576c2.19075,0 3.96671,1.73971 3.96671,3.88576z" fill="#8c9ca0" stroke="#3a2f41" stroke-width="1" stroke-linecap="butt"/><path d="M222.30371,205.69531c0,2.14604 -1.77596,3.88575 -3.96671,3.88575c-2.19075,0 -3.96671,-1.73971 -3.96671,-3.88575c0,-2.14604 1.77596,-3.88576 3.96671,-3.88576c2.19075,0 3.96671,1.73972 3.96671,3.88576z" fill="#8c9ca0" stroke="#3a2f41" stroke-width="1" stroke-linecap="butt"/></g></g></svg>