<svg version="1.1" xmlns="http://www.w3.org/2000/svg" xmlns:xlink="http://www.w3.org/1999/xlink" width="135.01151" height="137.67735" viewBox="0,0,135.01151,137.67735"><g transform="translate(-167.72123,-118.82241)"><g data-paper-data="{&quot;isPaintingLayer&quot;:true}" fill="#3a2f41" fill-rule="nonzero" stroke="#3a2f41" stroke-width="2" stroke-linecap="round" stroke-linejoin="miter" stroke-miterlimit="10" stroke-dasharray="" stroke-dashoffset="0" style="mix-blend-mode: normal"><path d="M168.76129,252.15877c-0.19911,-2.52457 0.37455,-7.17886 1.04428,-11.23785c0.60847,-3.69209 1.92426,-7.28091 2.78474,-10.93412c0.87859,-3.73096 1.64996,-7.49109 2.43665,-11.23785c0.72125,-3.43453 1.4606,-6.87756 2.08856,-10.32667c0.53189,-2.92427 0.95795,-5.87162 1.39237,-8.80804c0.4929,-3.33491 0.91479,-6.68682 1.39237,-10.02294c0.21721,-1.51863 0.47898,-3.03726 0.69619,-4.55588c0.13088,-0.90875 0.22556,-1.82357 0.34809,-2.73353c0.1086,-0.81034 0.1643,-1.6304 0.34809,-2.4298c0.28126,-1.22705 0.71011,-2.42859 1.04428,-3.64471c0.36062,-1.31209 0.61125,-2.65335 1.04428,-3.94843c0.38012,-1.13593 1.1863,-2.17103 1.39237,-3.34098c0.26455,-1.49919 -0.19215,-3.04819 0,-4.55588c0.15873,-1.24284 0.72682,-2.42494 1.04428,-3.64471c0.26177,-1.00594 0.64049,-3.06155 0.69619,-3.03726c0.05569,0.0243 0,2.22813 0,3.34098c0,1.21369 0,2.43102 0,3.64471c0,2.02281 0,4.0517 0,6.07451c0,2.12365 0,4.25459 0,6.37824c0,4.14646 0,8.30629 0,12.45275c0,2.7311 -0.24506,5.47799 0,8.20059c0.21999,2.45289 1.13061,4.83896 1.39237,7.28941c0.20468,1.91347 0,3.84881 0,5.77079c0,1.71909 0,3.44425 0,5.16333c0,1.61825 0,3.24136 0,4.85961c0,2.02281 0,4.0517 0,6.07451c0,2.12365 0.14341,4.25823 0,6.37824c-0.08911,1.32789 -0.61543,3.84152 -0.69619,3.94843c-0.08076,0.10691 0,-2.02524 0,-3.03726c0,-1.92198 0,-3.84881 0,-5.77079c0,-4.14646 0,-8.30629 0,-12.45275c0,-4.45019 -0.31468,-8.92224 0,-13.36392c0.26734,-3.76863 1.12782,-7.49959 1.74046,-11.23785c0.5472,-3.3422 1.18352,-6.68196 1.74046,-10.02294c0.37037,-2.22206 0.5653,-4.4757 1.04428,-6.68196c0.33417,-1.54293 1.12504,-5.48893 1.39237,-4.55588c0.53328,1.86002 0.40796,7.08895 0.34809,10.63039c-0.05569,3.34341 -0.32581,6.69533 -0.69619,10.02294c-0.44138,3.95815 -1.0777,7.91144 -1.74046,11.8453c-0.49568,2.94492 -1.17934,5.87162 -1.74046,8.80804c-0.36619,1.91955 -0.7296,3.84517 -1.04428,5.77079c-0.14898,0.90632 -0.34809,3.25351 -0.34809,2.73353c0,-0.94884 0.22835,-4.0517 0.34809,-6.07451c0.22835,-3.84395 0.59037,-7.69398 0.69619,-11.54157c0.12531,-4.54981 -0.19354,-9.11906 0,-13.66765c0.15455,-3.65078 0.55138,-7.30642 1.04428,-10.93412c0.31885,-2.34476 0.87441,-4.66765 1.39237,-6.98569c0.40936,-1.83086 1.01782,-4.73083 1.39237,-5.46706c0.22835,-0.4483 0,1.14079 0,2.73353c0,6.37216 0,12.76255 0,19.13471c0,7.78752 0.21999,15.60177 0,23.38687c-0.1281,4.55953 -0.41353,9.13971 -1.04428,13.66765c-0.41493,2.97287 -1.56085,5.84854 -2.08856,8.80804c-0.28544,1.60246 -0.39265,4.87905 -0.34809,4.85961c0.04177,-0.01822 0.7839,-3.4321 1.04428,-5.16333c0.89808,-5.95788 1.49262,-11.96679 2.43665,-17.91981c0.56391,-3.55723 1.52465,-7.07316 2.08856,-10.63039c0.47898,-3.02025 0.49986,-6.10002 1.04428,-9.11177c0.49986,-2.76269 1.65274,-5.4294 2.08856,-8.20059c0.37872,-2.40672 0.08772,-4.87054 0.34809,-7.28941c0.08911,-0.82978 0.49986,-1.61339 0.69619,-2.4298c0.26734,-1.10678 0.64884,-3.34098 0.69619,-3.34098c0.04734,0 0,1.57087 0,3.34098c0,7.07923 0.71011,14.20828 0,21.26079c-0.80201,7.96733 -3.22891,15.77307 -4.52521,23.69059c-0.79087,4.83167 -1.13061,9.72651 -1.74046,14.57883c-0.31746,2.53186 -0.62378,6.3102 -1.04428,7.59314c-0.21164,0.64876 -0.20189,-2.23178 -0.34809,-3.34098c-0.2005,-1.51984 -0.51657,-3.03361 -0.69619,-4.55588c-0.63214,-5.3565 -1.34642,-10.72394 -1.74046,-16.09745c-0.53328,-7.27362 -0.82428,-14.58247 -1.04428,-21.86824c-0.1281,-4.24608 0,-8.50917 0,-12.75647c0,-3.54022 0,-7.09017 0,-10.63039c0,-2.83194 0,-5.67238 0,-8.50432c0,-1.82114 0,-3.64592 0,-5.46706c0,-1.21369 -0.02228,-3.64471 0,-3.64471c0.02228,0 0.22835,2.17832 0.34809,3.64471c0.48037,5.86555 1.17516,11.7396 1.39237,17.61608c0.24645,6.67224 0,13.37121 0,20.04589c0,4.45019 0,8.91374 0,13.36392c0,3.03483 0,6.07694 0,9.11177c0,2.2257 0.19075,4.46355 0,6.68196c-0.15873,1.84058 -0.36341,5.70518 -1.04428,5.46706c-0.68087,-0.23812 -1.99666,-4.37851 -2.43665,-6.68196c-0.38151,-1.99487 0.05987,-4.05291 0,-6.07451c-0.05709,-1.92319 -0.28683,-3.8476 -0.34809,-5.77079c-0.0543,-1.71909 -0.13506,-3.44789 0,-5.16333c0.09747,-1.22705 0.25063,-2.47719 0.69619,-3.64471c0.49151,-1.2878 1.26984,-2.49055 2.08856,-3.64471c0.69619,-0.98043 1.643,-1.81142 2.43665,-2.73353c0.94542,-1.1007 1.88388,-2.21112 2.78474,-3.34098c0.95517,-1.19789 1.97717,-2.36784 2.78474,-3.64471c1.05263,-1.66442 1.96464,-3.40294 2.78474,-5.16333c0.68922,-1.48218 1.28098,-3.0081 1.74046,-4.55588c0.35366,-1.1906 0.30911,-2.46139 0.69619,-3.64471c0.31328,-0.95734 0.97884,-1.80534 1.39237,-2.73353c0.39822,-0.89417 0.7658,-3.2693 1.04428,-2.73353c0.53328,1.02416 0.51239,4.04805 0.69619,6.07451c0.1643,1.81749 0.28544,3.64471 0.34809,5.46706c0.05291,1.5162 0,3.03847 0,4.55588c0,1.92198 0,3.84881 0,5.77079c0,2.2257 0,4.45626 0,6.68196c0,1.61825 0,3.24136 0,4.85961c0,0.90996 0,1.82357 0,2.73353c0,0.80912 0,3.13323 0,2.4298c0,-2.63755 0,-6.07694 0,-9.11177c0,-2.42737 0,-4.86204 0,-7.28941c0,-6.37216 0,-12.76255 0,-19.13471c0,-3.84274 0,-7.69884 0,-11.54157c0,-4.04562 0,-8.1034 0,-12.14902c0,-2.83194 0,-5.67238 0,-8.50432c0,-1.11285 0,-4.09301 0,-3.34098c0,1.84665 -0.21443,5.41725 0,8.80804c0.8577,13.56317 2.30437,27.13484 3.13284,40.69922c0.21582,3.53537 0,7.09017 0,10.63039c0,6.87756 0,13.77578 0,20.65334c0,2.52821 0,5.06493 0,7.59314c0,1.21369 0.63771,3.83059 0,3.64471c-0.75606,-0.2199 -2.57589,-2.85502 -3.13284,-4.55588c-0.86466,-2.64241 -0.64606,-5.47556 -1.04428,-8.20059c-0.41353,-2.83801 -1.18073,-5.6493 -1.39237,-8.50432c-0.25341,-3.4321 0,-6.88728 0,-10.32667c0,-3.2365 0,-6.48272 0,-9.71922c0,-3.2365 0,-6.48272 0,-9.71922c0,-3.03483 -0.3467,-6.09273 0,-9.11177c0.35227,-3.07856 1.29073,-6.09638 2.08856,-9.11177c0.59454,-2.24757 1.40629,-6.44384 2.08856,-6.68196c0.68226,-0.23812 0.94403,3.64349 1.39237,5.46706c0.59593,2.42494 1.56363,4.81466 1.74046,7.28941c0.40518,5.65294 0,11.34476 0,17.00863c0,5.9676 0,11.95221 0,17.91981c0,4.34935 0,8.71085 0,13.0602c0,3.13566 0.14341,6.28226 0,9.41549c-0.08911,1.93048 -0.46087,3.85002 -0.69619,5.77079c-0.11139,0.91118 0.24506,2.79792 -0.34809,2.73353c-0.79226,-0.08626 -2.19298,-1.82114 -2.43665,-3.03726c-0.60011,-2.98866 0,-6.07694 0,-9.11177c0,-3.64106 0,-7.29306 0,-10.93412c0,-3.54022 -0.05848,-7.09138 0,-10.63039c0.05709,-3.43939 -0.22696,-6.92373 0.34809,-10.32667c0.47619,-2.81736 1.8254,-5.47799 2.78474,-8.20059c0.89529,-2.53793 1.86856,-5.06128 2.78474,-7.59314c0.4748,-1.31209 0.50265,-4.0189 1.39237,-3.94843c1.02479,0.0814 2.01337,2.65213 2.43665,4.25216c1.69312,6.4001 2.7555,12.93749 3.82902,19.43843c0.89808,5.43912 1.70705,10.9159 2.08856,16.40118c0.31607,4.54252 0.2924,9.12392 0,13.66765c-0.28822,4.47205 -0.92593,8.94168 -1.74046,13.36392c-0.23253,1.2635 -0.82289,2.46504 -1.39237,3.64471c-0.36202,0.75202 -0.88137,2.69344 -1.39237,2.12608c-1.40351,-1.55872 -2.0802,-4.16104 -2.43665,-6.37824c-0.46644,-2.90483 0,-5.87527 0,-8.80804c0,-3.43939 0,-6.88728 0,-10.32667c0,-2.52821 -0.05013,-5.06493 0,-7.59314c0.06544,-3.33855 0.1281,-6.68925 0.34809,-10.02294c0.1281,-1.92926 0.3829,-3.85731 0.69619,-5.77079c0.26734,-1.6304 0.57226,-3.26566 1.04428,-4.85961c0.45809,-1.549 1.12364,-3.0494 1.74046,-4.55588c0.54302,-1.32667 1.22946,-2.61204 1.74046,-3.94843c0.30214,-0.7909 0.59872,-2.55737 0.69619,-2.4298c0.09747,0.12756 0,2.22813 0,3.34098c0,2.63026 0,5.2666 0,7.89686c0,4.34935 0,8.71085 0,13.0602c0,3.43939 0.13367,6.88971 0,10.32667c-0.09886,2.5355 -0.28544,5.08194 -0.69619,7.59314c-0.28683,1.74824 -0.86605,3.45761 -1.39237,5.16333c-0.28544,0.92697 -0.87023,2.93642 -1.04428,2.73353c-0.17405,-0.20289 0,-2.63391 0,-3.94843c0,-1.82114 0,-3.64592 0,-5.46706c0,-4.04562 0,-8.1034 0,-12.14902c0,-3.94479 0,-7.90051 0,-11.8453c0,-3.7419 0,-7.49595 0,-11.23785c0,-3.43939 0,-6.88728 0,-10.32667c0,-3.33734 0,-6.68561 0,-10.02294c0,-3.54022 -0.08633,-7.09138 0,-10.63039c0.02924,-1.21733 0.27847,-4.74055 0.34809,-3.64471c0.27847,4.37122 0.27847,9.72286 0.34809,14.57883c0.04595,3.2365 0,6.48272 0,9.71922c0,2.12365 0.15177,4.25823 0,6.37824c-0.08076,1.12864 -0.45391,2.23056 -0.69619,3.34098c-0.22139,1.01323 -0.30214,2.06412 -0.69619,3.03726c-0.3105,0.76903 -1.18352,2.43102 -1.39237,2.12608c-0.22696,-0.33045 0.21721,-2.43223 0.34809,-3.64471c0.21721,-2.02403 0.4205,-4.05534 0.69619,-6.07451c0.30493,-2.22935 0.7115,-4.45505 1.04428,-6.68196c0.36202,-2.42616 0.80618,-4.85232 1.04428,-7.28941c0.22696,-2.32046 0.28822,-4.65793 0.34809,-6.98569c0.05709,-2.22449 -0.05848,-4.45748 0,-6.68196c0.05848,-2.22692 0.09468,-4.46598 0.34809,-6.68196c0.21025,-1.83693 0.83403,-3.63013 1.04428,-5.46706c0.13784,-1.20761 -0.02089,-3.62648 0,-3.64471c0.02228,-0.01944 0.14202,2.23785 0.34809,3.34098c0.72125,3.85731 1.43693,7.73164 2.43665,11.54157c1.2044,4.59112 3.15372,9.04252 4.17711,13.66765c1.53161,6.92373 2.49652,13.95801 3.48093,20.95706c0.63771,4.53523 0.912,9.11784 1.39237,13.66765c0.33138,3.13688 0.8396,6.27011 1.04428,9.41549c0.14481,2.22206 0,5.84611 0,6.68196c0,0.55643 0.21721,-2.24514 0,-3.34098c-0.36759,-1.86245 -1.42857,-3.59733 -1.74046,-5.46706c-0.61961,-3.71517 -0.47619,-7.5166 -1.04428,-11.23785c-0.82289,-5.38931 -2.19438,-10.72273 -3.13284,-16.09745c-0.91618,-5.24595 -1.57616,-10.54049 -2.43665,-15.79373c-0.76302,-4.65915 -1.80591,-9.29765 -2.43665,-13.97137c-0.5291,-3.92899 -0.64467,-7.90415 -1.04428,-11.8453c-0.41075,-4.05048 -1.04846,-8.09489 -1.39237,-12.14902c-0.11974,-1.41172 0,-2.83558 0,-4.25216c0,-0.80912 0.28822,-3.40416 0,-2.4298c-1.15288,3.89862 -2.5926,7.82276 -2.78474,11.8453c-0.39126,8.19087 0.19911,16.43641 1.04428,24.60177c0.66416,6.42562 2.30577,12.76498 3.48093,19.13471c1.02757,5.56547 2.0259,11.15159 3.13284,16.7049c0.7477,3.75283 1.55667,7.5081 2.43665,11.23785c0.74353,3.14781 1.57756,6.28955 2.43665,9.41549c0.53189,1.93169 1.43553,5.23866 1.74046,5.77079c0.25063,0.43736 -0.19911,-2.23178 -0.34809,-3.34098c-0.31468,-2.33018 -0.68644,-4.66036 -1.04428,-6.98569c-0.91757,-5.96881 -2.25564,-11.91576 -2.78474,-17.91981c-0.39961,-4.53766 0,-9.11663 0,-13.66765c0,-5.9676 0,-11.95221 0,-17.91981c0,-3.13566 -0.25202,-6.28833 0,-9.41549c0.21303,-2.65456 0.63771,-5.31884 1.39237,-7.89686c0.64467,-2.20262 1.82958,-4.26309 2.78474,-6.37824c0.55277,-1.22341 1.04428,-4.30318 1.74046,-3.64471c1.39237,1.31574 2.08299,4.98596 2.43665,7.59314c0.92732,6.84233 1.20579,13.76606 1.39237,20.65334c0.27708,10.21247 0,20.46138 0,30.67628c0,4.2473 0.34252,8.51889 0,12.75647c-0.23949,2.96922 -1.19187,5.87041 -1.74046,8.80804c-0.26316,1.41172 -0.41771,5.02848 -0.69619,4.25216c-0.49429,-1.38134 -0.92732,-6.06358 -1.04428,-9.11177c-0.23113,-6.06479 -0.17405,-12.15753 0,-18.22353c0.17405,-6.07451 0.13367,-12.20005 1.04428,-18.22353c0.48872,-3.2365 1.93122,-6.32357 3.13284,-9.41549c1.00251,-2.57924 2.25982,-5.0868 3.48093,-7.59314c0.75049,-1.5405 1.57895,-3.05791 2.43665,-4.55588c0.41771,-0.72894 0.73239,-2.19776 1.39237,-2.12608c0.73239,0.08018 1.0944,1.56358 1.39237,2.4298c0.75188,2.18561 1.38541,4.42103 1.74046,6.68196c0.45809,2.91334 0.57923,5.86919 0.69619,8.80804c0.22974,5.76228 0.29101,11.54643 0.34809,17.31236c0.05848,5.9676 0.50682,11.96922 0,17.91981c-0.53885,6.31871 -1.81287,12.59975 -3.13284,18.83098c-0.65441,3.08828 -1.76553,6.10002 -2.78474,9.11177c-0.48872,1.44209 -0.37455,3.33491 -1.74046,4.25216c-0.8215,0.55157 -2.39906,-0.13971 -2.78474,-1.2149c-1.53996,-4.30075 -1.71819,-8.90159 -2.43665,-13.36392c-1.25174,-7.77659 -2.30437,-15.60056 -3.48093,-23.38687c-0.79504,-5.26174 -2.10944,-10.49432 -2.43665,-15.79373c-0.2548,-4.14525 -0.2367,-8.38161 0.69619,-12.45275c0.60011,-2.61811 2.40045,-4.92764 3.82902,-7.28941c0.77973,-1.29023 1.86438,-4.27524 2.78474,-3.64471c1.51629,1.03996 1.54832,4.62878 2.08856,6.98569c0.85213,3.7176 1.78363,7.45585 2.08856,11.23785c0.74074,9.18588 0.85909,18.43128 1.04428,27.63902c0.16291,8.09003 0,16.20679 0,24.29804c0,4.2473 0.1281,8.51039 0,12.75647c-0.10443,3.44303 -0.16987,6.91279 -0.69619,10.32667c-0.28822,1.87216 -1.06516,6.11582 -1.74046,5.46706c-0.80758,-0.77511 -1.20858,-5.86798 -1.74046,-8.80804c-1.20719,-6.6686 -2.58006,-13.34084 -3.48093,-20.04589c-0.8396,-6.24824 -1.37706,-12.54751 -1.74046,-18.83098c-0.21582,-3.73704 -0.13228,-7.49716 0,-11.23785c0.10025,-2.83801 0.35227,-5.68088 0.69619,-8.50432c0.23531,-1.93412 0.56113,-3.87189 1.04428,-5.77079c0.21443,-0.84314 0.93707,-3.3592 1.04428,-2.4298c0.42607,3.72003 0,7.69884 0,11.54157c0,5.9676 0,11.95221 0,17.91981c0,4.34935 0,8.71085 0,13.0602c0,2.93277 0.2729,5.88499 0,8.80804c-0.19215,2.05561 -0.64467,4.1173 -1.39237,6.07451c-0.42746,1.11892 -0.79504,2.96679 -2.08856,3.03726c-1.49123,0.0814 -2.94765,-1.45424 -3.48093,-2.73353c-1.86438,-4.47448 -2.46171,-9.294 -3.48093,-13.97137c-1.18491,-5.43912 -2.41437,-10.9001 -3.13284,-16.40118c-0.3286,-2.51242 -0.46784,-5.09773 0,-7.59314c0.58619,-3.12594 1.50237,-9.18345 3.13284,-9.11177c1.63047,0.07168 3.22612,6.1304 3.82902,9.41549c0.80618,4.39552 0.28404,8.91252 0.34809,13.36392c0.05152,3.54022 0.47341,7.11447 0,10.63039c-0.69062,5.12203 -1.96881,10.20032 -3.48093,15.18628c-0.5848,1.92562 -1.73072,3.69938 -2.78474,5.46706c-0.45948,0.77146 -1.03592,2.69951 -1.74046,2.12608c-1.90616,-1.55264 -2.82651,-4.09544 -3.48093,-6.37824c-0.8758,-3.05548 -0.8758,-6.2689 -1.04428,-9.41549c-0.17962,-3.33369 -0.19772,-6.68925 0,-10.02294c0.15038,-2.54279 0.12114,-5.1767 1.04428,-7.59314c0.85492,-2.23785 2.57589,-4.1744 4.17711,-6.07451c1.31161,-1.55629 2.73462,-3.11622 4.52521,-4.25216c0.86466,-0.54792 2.44918,-1.32424 3.13284,-0.60745c1.54971,1.62189 1.77806,3.98002 2.08856,6.07451c0.50682,3.41145 0.2924,6.88728 0.34809,10.32667c0.05987,3.7419 0.511,7.52267 0,11.23785c-0.53885,3.9217 -1.79755,7.76808 -3.13284,11.54157c-1.10554,3.1223 -2.50209,6.18871 -4.17711,9.11177c-0.89251,1.55629 -1.88945,4.69438 -3.48093,4.25216c-2.23754,-0.62082 -3.3765,-4.03348 -4.17711,-6.37824c-1.2044,-3.52322 -1.42161,-7.26876 -1.74046,-10.93412c-0.26316,-3.02511 -0.26177,-6.08666 0,-9.11177c0.20329,-2.35448 0.49568,-4.75756 1.39237,-6.98569c0.6391,-1.58788 2.01198,-2.88296 3.13284,-4.25216c0.621,-0.75931 1.21832,-1.58423 2.08856,-2.12608c0.80618,-0.50175 1.80591,-0.7824 2.78474,-0.91118c1.37566,-0.17981 2.97828,-0.61596 4.17711,0c1.11668,0.57343 1.53857,1.92076 1.74046,3.03726c0.50682,2.79913 0.28822,5.67116 0.34809,8.50432c0.05569,2.62905 0.29936,5.27996 0,7.89686c-0.16848,1.46517 -0.73378,2.89633 -1.39237,4.25216c-0.97188,1.99851 -2.17349,3.92292 -3.48093,5.77079c-1.13339,1.60003 -2.264,3.26201 -3.82902,4.55588c-0.71846,0.59409 -1.90476,1.30845 -2.78474,0.91118c-2.8474,-1.28537 -5.71986,-3.03847 -7.30995,-5.46706c-2.27513,-3.47341 -2.74854,-7.65267 -3.82902,-11.54157c-0.77694,-2.79549 -1.67781,-5.62864 -1.74046,-8.50432c-0.05569,-2.5598 0.13924,-5.27754 1.39237,-7.59314c0.84238,-1.5575 2.775,-2.54401 4.52521,-3.34098c1.03314,-0.47017 2.54943,-0.91361 3.48093,-0.30373c1.32832,0.86866 1.79755,2.52214 2.08856,3.94843c0.65024,3.19276 0.58062,6.47786 0.69619,9.71922c0.11557,3.23528 0.35227,6.4973 0,9.71922c-0.3467,3.1794 -0.8939,6.39646 -2.08856,9.41549c-1.03314,2.60961 -2.86272,4.94101 -4.52521,7.28941c-0.77973,1.10192 -1.56085,2.30345 -2.78474,3.03726c-0.76998,0.46166 -1.93957,0.65119 -2.78474,0.30373c-1.33528,-0.54792 -2.4464,-1.59395 -3.13284,-2.73353c-1.79059,-2.97651 -3.27068,-6.1474 -4.17711,-9.41549c-0.84935,-3.06155 -0.85074,-6.27011 -1.04428,-9.41549c-0.15455,-2.52457 -0.18797,-5.06979 0,-7.59314c0.16012,-2.14066 0.24645,-4.34813 1.04428,-6.37824c0.62517,-1.59274 1.76831,-3.06155 3.13284,-4.25216c1.13896,-0.99379 2.72487,-1.51984 4.17711,-2.12608c1.22389,-0.51026 2.49931,-0.98286 3.82902,-1.2149c1.02339,-0.17859 2.10944,-0.17859 3.13284,0c1.32971,0.23205 3.02423,0.26242 3.82902,1.2149c1.05124,1.24527 0.97605,3.00931 1.04428,4.55588c0.1643,3.74068 0.56809,7.58099 -0.34809,11.23785c-0.74213,2.96072 -2.71095,5.61528 -4.52521,8.20059c-1.68338,2.39822 -3.76915,4.58626 -5.91758,6.68196c-1.80451,1.75918 -3.92231,3.26444 -5.91758,4.85961c-0.78808,0.63053 -1.37288,1.91104 -2.43665,1.82235c-1.86021,-0.15429 -3.72877,-1.14079 -4.8733,-2.4298c-1.77945,-2.0058 -2.54386,-4.58383 -3.48093,-6.98569c-0.92453,-2.36906 -1.69173,-4.81101 -2.08856,-7.28941c-0.30493,-1.90375 -0.32025,-3.86946 0,-5.77079c0.26734,-1.5818 0.57644,-3.32033 1.74046,-4.55588c1.63325,-1.73488 3.98079,-2.91455 6.26567,-3.94843c0.9315,-0.42157 2.08995,-0.19681 3.13284,-0.30373c0.92871,-0.09476 1.88945,-0.5382 2.78474,-0.30373c1.54275,0.40335 3.21081,1.00229 4.17711,2.12608c1.25313,1.4591 1.64718,3.38107 2.08856,5.16333c0.4929,1.98758 0.58201,4.04441 0.69619,6.07451c0.11835,2.12122 0.37037,4.27889 0,6.37824c-0.33417,1.89646 -1.10554,3.7504 -2.08856,5.46706c-0.89251,1.55629 -1.57895,3.72853 -3.48093,4.25216c-1.33111,0.3669 -2.82373,-1.24163 -3.13284,-2.4298c-0.92453,-3.55237 -0.2924,-7.29184 -0.34809,-10.93412c-0.05987,-3.94357 -0.37037,-7.91387 0,-11.8453c0.32721,-3.48069 0.63492,-7.07316 2.08856,-10.32667c1.27263,-2.84895 3.58118,-5.31398 5.91758,-7.59314c1.65414,-1.61339 3.7789,-2.85138 5.91758,-3.94843c1.83654,-0.94276 3.8875,-1.55993 5.91758,-2.12608c0.88973,-0.24905 1.92843,-1.53199 2.78474,-0.30373c3.42384,4.91428 6.28238,10.24284 8.00613,15.79373c1.67781,5.40146 1.6973,11.12 2.08856,16.7049c0.30493,4.34085 0.13645,8.71328 0,13.0602c-0.09607,3.03969 -0.16569,6.1061 -0.69619,9.11177c-0.17405,0.98407 -1.0582,2.79185 -1.39237,2.73353c-0.33417,-0.05832 -0.20329,-2.02889 -0.34809,-3.03726c-0.20329,-1.41901 -0.62935,-2.82343 -0.69619,-4.25216c-0.16569,-3.53658 0,-7.09017 0,-10.63039c0,-4.2473 -0.73517,-8.55777 0,-12.75647c0.55973,-3.19519 2.29602,-6.16927 3.82902,-9.11177c1.9521,-3.74797 4.16041,-7.41698 6.61376,-10.93412c0.81036,-1.16266 1.99527,-2.10664 3.13284,-3.03726c0.72682,-0.5953 1.49819,-1.81142 2.43665,-1.51863c1.3325,0.4155 2.13033,1.83207 2.43665,3.03726c0.65441,2.56952 0.29658,5.26539 0.34809,7.89686c0.06405,3.2365 0,6.48272 0,9.71922c0,2.63026 0.50404,5.30426 0,7.89686c-0.55277,2.83801 -2.13033,7.32586 -3.13284,8.20059c-0.69201,0.60381 -0.47062,-3.24014 -0.69619,-4.85961c-0.2381,-1.71909 -0.62517,-3.43331 -0.69619,-5.16333c-0.16152,-3.94236 -0.12949,-7.90294 0,-11.8453c0.10304,-3.14052 -0.19354,-6.37095 0.69619,-9.41549c0.65302,-2.23663 2.46728,-4.09544 3.82902,-6.07451c0.72821,-1.05818 1.32693,-3.59733 2.43665,-3.03726c2.19716,1.11042 3.47954,4.00918 4.17711,6.37824c2.4631,8.35853 3.63687,16.99405 5.22139,25.51295c1.4606,7.85677 3.45308,17.37432 3.82902,22.47569c0.14341,2.25607 -0.57783,-5.95424 -2.78474,-7.59314c-1.36174,-0.84314 -3.21777,6.02591 -4.17711,4.55588c-1.83375,-2.54036 -1.47034,-7.67211 -1.74046,-11.54157c-0.3105,-4.44168 -0.60429,-8.94532 0,-13.36392c0.33417,-2.4456 1.71401,-4.70653 2.78474,-6.98569c0.78669,-1.67414 1.70705,-3.31425 2.78474,-4.85961c0.55556,-0.79698 1.02061,-2.16131 2.08856,-2.12608c2.49513,0.08383 5.17405,0.90875 6.96186,2.4298c3.06182,2.60475 4.81482,6.18871 6.96186,9.41549c2.03008,3.05183 4.29129,6.06844 5.56948,9.41549c1.41604,3.70788 1.83932,7.66846 2.43665,11.54157c0.21582,1.40321 0.28961,2.85866 0,4.25216c-0.18519,0.89052 -0.45531,2.04225 -1.39237,2.4298c-1.57477,0.65119 -3.68561,1.02173 -5.22139,0.30373c-2.10666,-0.98407 -3.38764,-3.02632 -4.52521,-4.85961c-1.90755,-3.07127 -3.18992,-6.42562 -4.52521,-9.71922c-1.33389,-3.28753 -2.67057,-6.60785 -3.48093,-10.02294c-0.58897,-2.48447 -0.56948,-5.05885 -0.69619,-7.59314c-0.10582,-2.12243 -0.35366,-4.27646 0,-6.37824c0.23531,-1.39349 0.71429,-2.86109 1.74046,-3.94843c0.72543,-0.76903 2.01337,-1.4105 3.13284,-1.2149c1.04846,0.18345 1.9173,1.20518 2.08856,2.12608c0.55695,2.99473 0.60011,6.12311 0,9.11177c-1.38262,6.88607 -3.4684,13.69802 -5.91758,20.34961c-2.30577,6.51674 -5.49012,14.03698 -7.65804,11.8453c-2.22362,3.57789 0.26316,-6.68196 -2.08856,-9.11177c-1.79059,-1.04968 -5.28962,5.27511 -6.96186,8.80804c-0.76023,1.24042 -0.41075,6.2689 0,4.85961c0.63631,-1.97179 1.68198,-7.892 2.43665,-11.8453c0.63631,-3.33005 1.20301,-6.67953 1.74046,-10.02294c0.38986,-2.42251 0.5834,-4.87662 1.04428,-7.28941c0.35088,-1.83936 0.92871,-3.64592 1.39237,-5.46706c0.23113,-0.90996 0.37176,-1.84544 0.69619,-2.73353c0.49011,-1.34247 1.4244,-5.32613 1.74046,-3.94843c1.26427,5.51323 1.46617,11.73595 1.39237,17.61608c-0.04316,3.47584 -1.16959,12.69451 -1.74046,10.32667c-1.45364,-6.02591 -1.96881,-18.4167 -2.43665,-27.63902c-0.34392,-6.76943 -0.15873,-13.5741 0,-20.34961c0.0738,-3.14174 0.16569,-6.30777 0.69619,-9.41549c0.28683,-1.67656 1.34085,-5.05885 1.74046,-4.85961c0.39961,0.19924 0.64745,4.04198 0.69619,6.07451c0.18379,7.68547 0.30632,15.40131 0,23.08314c-0.15734,3.96301 -1.00251,7.89443 -1.39237,11.8453c-0.18936,1.91712 -0.23392,5.63715 -0.34809,5.77079c-0.11417,0.13364 -0.40796,-3.04576 -0.69619,-4.55588c-0.52353,-2.7396 -1.41604,-5.4379 -1.74046,-8.20059c-0.72125,-6.15105 -1.12782,-12.34827 -1.39237,-18.52726c-0.19911,-4.64943 0,-9.31951 0,-13.97137c0,-4.95559 0,-9.92697 0,-14.88255c0,-2.12365 0,-4.25459 0,-6.37824c0,-1.21369 -0.05013,-3.62284 0,-3.64471c0.05013,-0.02187 0.61543,2.21234 0.69619,3.34098c0.15177,2.12 0,4.25459 0,6.37824c0,2.12365 0,4.25459 0,6.37824c0,4.75391 0,9.52119 0,14.2751c0,2.12365 0,4.25459 0,6.37824c0,0.90996 0,2.75297 0,2.73353c0,-0.01822 0,-2.02524 0,-3.03726c0,-2.12365 0,-4.25459 0,-6.37824c0,-2.7311 0,-5.46949 0,-8.20059c0,-1.41658 0,-2.83558 0,-4.25216c0,-0.80912 0.03202,-2.4869 0,-2.4298c-0.03202,0.0571 -0.15177,2.03496 -0.34809,3.03726c-0.49986,2.54158 -1.34085,5.0382 -1.74046,7.59314c-0.29797,1.90618 -0.29379,3.8476 -0.34809,5.77079c-0.06266,2.22449 0,4.45626 0,6.68196c0,1.41658 0.0738,2.83801 0,4.25216c-0.04177,0.81398 -0.17544,2.58045 -0.34809,2.4298c-0.17265,-0.15065 -0.60011,-2.21355 -0.69619,-3.34098c-0.13645,-1.61339 -0.05013,-3.24136 0,-4.85961c0.06544,-2.12608 -0.13784,-4.29468 0.34809,-6.37824c0.9134,-3.92049 2.62183,-7.68183 3.82902,-11.54157c0.53328,-1.70451 0.7296,-3.49406 1.39237,-5.16333c0.38986,-0.98407 0.86605,-2.02524 1.74046,-2.73353c0.83682,-0.67792 2.59816,-1.99244 3.13284,-1.2149c1.03175,1.5004 0,3.84881 0,5.77079c0,3.2365 0,6.48272 0,9.71922c0,3.64106 0,7.29306 0,10.93412c0,1.82114 0,3.64592 0,5.46706c0,1.11285 0,2.22813 0,3.34098c0,0.80912 0.3467,2.61082 0,2.4298c-0.37872,-0.19803 -1.31161,-2.1771 -1.74046,-3.34098c-0.61961,-1.68142 -1.04846,-3.42238 -1.39237,-5.16333c-0.81593,-4.12945 -1.63325,-8.28077 -2.08856,-12.45275c-0.47341,-4.33356 -0.75745,-8.7072 -0.69619,-13.0602c0.0543,-3.85488 0.24645,-7.74986 1.04428,-11.54157c0.26177,-1.24649 1.33111,-2.25972 2.08856,-3.34098c0.51935,-0.74231 0.97188,-2.20019 1.74046,-2.12608c0.79783,0.07775 1.07352,1.56844 1.39237,2.4298c0.84656,2.28766 1.61933,4.61663 2.08856,6.98569c0.57644,2.90605 0.72403,5.87284 1.04428,8.80804c0.37455,3.43696 0.90643,6.87635 1.04428,10.32667c0.21025,5.25567 0,10.53442 0,15.79373c0,1.92198 0.15734,3.85367 0,5.77079c-0.07658,0.93062 -0.05569,3.0895 -0.69619,2.73353c-1.27402,-0.70707 -2.36146,-3.12959 -3.13284,-4.85961c-0.86605,-1.94384 -1.34225,-4.0189 -1.74046,-6.07451c-0.87859,-4.52673 -1.72654,-9.08747 -2.08856,-13.66765c-0.33556,-4.23758 -0.69758,-8.55291 0,-12.75647c0.47898,-2.88175 2.08299,-5.55696 3.48093,-8.20059c1.39237,-2.63148 2.98942,-5.20707 4.8733,-7.59314c1.72654,-2.18682 3.63409,-4.32019 5.91758,-6.07451c0.71707,-0.55157 2.05096,-1.14079 2.78474,-0.60745c1.75578,1.27686 2.58006,3.33005 3.48093,5.16333c1.19883,2.44074 2.05792,5.01512 2.78474,7.59314c1.01504,3.60218 1.72793,7.27726 2.43665,10.93412c0.68365,3.52565 1.42161,7.06587 1.74046,10.63039c0.26177,2.92427 0,5.87527 0,8.80804c0,2.2257 1.01225,5.30791 0,6.68196c-0.55416,0.75202 -2.53829,-1.32789 -3.13284,-2.4298c-1.32832,-2.46382 -1.8073,-5.22894 -2.43665,-7.89686c-0.99555,-4.21814 -1.77249,-8.48974 -2.43665,-12.75647c-0.61125,-3.92899 -1.18352,-7.88472 -1.39237,-11.8453c-0.13924,-2.62905 -0.18519,-5.30669 0.34809,-7.89686c0.29379,-1.42508 1.34085,-4.60083 2.08856,-3.94843c1.32971,1.16023 1.6249,5.02484 2.08856,7.59314c1.50933,8.3646 2.56614,16.81303 3.82902,25.20922c1.17098,7.78631 2.5926,15.5714 3.48093,23.38687c0.50404,4.43318 0.54581,8.91131 0.69619,13.36392c0.08215,2.42616 0,4.86204 0,7.28941c0,1.01201 0,3.35313 0,3.03726c0,-0.31587 0.20468,-3.25108 0,-4.85961c-0.4929,-3.86703 -1.72793,-7.6636 -2.08856,-11.54157c-0.33695,-3.62891 0,-7.29306 0,-10.93412c0,-3.13566 -0.06405,-6.28104 0,-9.41549c0.05152,-2.53064 0.00975,-5.07951 0.34809,-7.59314c0.35923,-2.65942 1.06795,-5.28361 1.74046,-7.89686c0.6029,-2.34598 1.3144,-4.67859 2.08856,-6.98569c0.61821,-1.84179 1.28377,-3.68115 2.08856,-5.46706c0.47341,-1.05211 1.42718,-3.76741 1.74046,-3.03726c0.71986,1.67535 0.30911,5.26539 0.34809,7.89686c0.07658,5.15726 0,10.33153 0,15.49c0,5.25931 0.57783,10.55871 0,15.79373c-0.35645,3.22314 -1.79477,6.29441 -2.78474,9.41549c-0.51796,1.63404 -0.71707,3.41752 -1.74046,4.85961c-0.57505,0.81155 -1.98831,2.17225 -2.78474,1.51863c-1.92843,-1.58423 -2.24033,-4.20235 -3.13284,-6.37824c-1.89084,-4.60691 -3.80953,-9.23569 -5.22139,-13.97137c-1.6068,-5.39417 -2.96018,-10.87945 -3.82902,-16.40118c-0.75745,-4.81952 -0.90783,-9.71557 -1.04428,-14.57883c-0.09607,-3.43939 -0.30075,-6.93345 0.34809,-10.32667c0.52492,-2.74446 1.90198,-5.32978 3.13284,-7.89686c0.86049,-1.79441 1.86995,-5.77564 3.13284,-5.16333c1.86995,0.90632 2.72905,5.34314 3.13284,8.20059c0.65302,4.61784 0,9.31951 0,13.97137c0,6.37216 0.32025,12.76862 0,19.13471c-0.26037,5.17791 -1.09301,10.3376 -1.74046,15.49c-0.39543,3.14295 -0.99276,6.27375 -1.39237,9.41549c-0.29518,2.32046 -0.30632,4.67494 -0.69619,6.98569c-0.19215,1.14079 -0.66416,2.23663 -1.04428,3.34098c-0.31607,0.91847 -0.76302,3.03969 -1.04428,2.73353c-0.28404,-0.3098 -0.98301,-0.72408 -0.34809,-4.25216c2.5369,-14.11109 5.58062,-33.84353 8.70232,-42.21785c1.33528,-3.58032 0.5653,11.34233 0.69619,17.00863c0.10025,4.34813 0,8.71085 0,13.0602c0,3.13566 0,6.27983 0,9.41549c0,3.94479 0,7.90051 0,11.8453c0,2.2257 0,4.45626 0,6.68196c0,1.41658 0.06823,2.83801 0,4.25216c-0.04873,1.01566 0.2005,2.14066 -0.34809,3.03726c-0.46923,0.76782 -1.50237,1.21369 -2.43665,1.51863c-0.98301,0.32195 -2.19438,0.71315 -3.13284,0.30373c-2.28349,-0.99622 -4.30939,-2.52214 -5.91758,-4.25216c-1.92843,-2.07505 -3.25815,-4.55345 -4.52521,-6.98569c-1.06238,-2.03861 -1.79894,-4.20964 -2.43665,-6.37824c-0.52492,-1.78834 -0.72264,-3.64228 -1.04428,-5.46706c-0.37455,-2.12 -0.67948,-4.25702 -1.04428,-6.37824c-0.33138,-1.92441 -0.74353,-3.84274 -1.04428,-5.77079c-0.39404,-2.52335 -0.69619,-5.06493 -1.04428,-7.59314c-0.34809,-2.52821 -0.7853,-5.05642 -1.04428,-7.59314c-0.20607,-2.01795 -0.27847,-4.05048 -0.34809,-6.07451c-0.04595,-1.31452 0,-2.63391 0,-3.94843c0,-1.61825 0,-3.24136 0,-4.85961c0,-1.92198 -0.36202,-3.87554 0,-5.77079c0.22974,-1.20518 0.92036,-2.35084 1.74046,-3.34098c0.72125,-0.87108 1.64578,-1.71666 2.78474,-2.12608c0.96491,-0.34625 2.27374,-0.51512 3.13284,0c1.24478,0.74716 2.08159,2.05926 2.43665,3.34098c1.29212,4.6713 1.92704,9.4896 2.43665,14.2751c0.4191,3.92899 0.28822,7.89929 0.34809,11.8453c0.05569,3.64106 0,7.29306 0,10.93412c0,3.13566 0,6.27983 0,9.41549c0,2.32654 0,4.65915 0,6.98569c0,1.92198 0,3.84881 0,5.77079c0,1.11285 -0.06405,2.22935 0,3.34098c0.05291,0.91482 0.28961,1.81871 0.34809,2.73353c0.05848,0.90875 0,1.82357 0,2.73353c0,1.11285 0.12114,2.23299 0,3.34098c-0.11139,1.02659 -0.43999,2.0301 -0.69619,3.03726c-0.20746,0.81398 -0.15177,1.7446 -0.69619,2.4298c-0.56809,0.71558 -1.6792,2.07748 -2.43665,1.51863c-1.50515,-1.11164 -1.67641,-3.16968 -2.08856,-4.85961c-0.75467,-3.09193 -1.20719,-6.25796 -1.39237,-9.41549c-0.27847,-4.74784 0,-9.52119 0,-14.2751c0,-2.93277 0,-5.87527 0,-8.80804c0,-2.32654 0,-4.65915 0,-6.98569c0,-2.52821 0,-5.06493 0,-7.59314c0,-2.12365 0,-4.25459 0,-6.37824c0,-1.71909 0,-3.44425 0,-5.16333c0,-1.21369 -0.24227,-2.44924 0,-3.64471c0.45948,-2.27187 1.27541,-4.48785 2.08856,-6.68196c0.46366,-1.25135 1.13896,-2.43952 1.74046,-3.64471c0.55834,-1.12014 1.17098,-2.22449 1.74046,-3.34098c0.8215,-1.6146 1.53161,-3.28024 2.43665,-4.85961c0.60429,-1.05454 1.41186,-2.01674 2.08856,-3.03726c0.59733,-0.90146 1.06377,-1.87581 1.74046,-2.73353c0.60568,-0.76782 1.01922,-2.12608 2.08856,-2.12608c1.91869,0 3.83877,0.96463 5.22139,2.12608c1.87692,1.57694 3.0117,3.73825 4.17711,5.77079c1.51072,2.63755 2.69702,5.42211 3.82902,8.20059c0.72543,1.77983 1.18212,3.64106 1.74046,5.46706c0.36898,1.20883 0.83125,2.40794 1.04428,3.64471c0.13784,0.80062 0,1.62068 0,2.4298c0,1.41658 0.04734,2.8368 0,4.25216c-0.06823,2.02403 0.25898,4.11973 -0.34809,6.07451c-0.92314,2.97408 -2.8293,5.65658 -4.17711,8.50432c-0.85492,1.80534 -1.57616,3.66414 -2.43665,5.46706c-0.87859,1.83936 -1.74325,3.69452 -2.78474,5.46706c-1.27959,2.1771 -2.86828,4.2145 -4.17711,6.37824c-0.89529,1.48097 -1.76831,2.98623 -2.43665,4.55588c-0.84238,1.98029 -1.58173,4.00918 -2.08856,6.07451c-0.19493,0.7909 0.46366,2.4298 0,2.4298c-0.52214,0 -1.68198,-1.4834 -2.08856,-2.4298c-0.32581,-0.7581 0,-1.62068 0,-2.4298c0,-0.90996 0,-1.82357 0,-2.73353c0,-1.92198 0,-3.84881 0,-5.77079c0,-2.42737 0,-4.86204 0,-7.28941c0,-1.92198 0,-3.84881 0,-5.77079c0,-2.02281 0,-4.0517 0,-6.07451c0,-1.71909 0,-3.44425 0,-5.16333c0,-1.31452 0.10304,-2.63634 0,-3.94843c-0.1281,-1.62675 -0.43164,-3.245 -0.69619,-4.85961c-0.19911,-1.21855 -0.47341,-2.4298 -0.69619,-3.64471c-0.24088,-1.31331 -0.5834,-2.62176 -0.69619,-3.94843c-0.11974,-1.41172 0,-2.83558 0,-4.25216c0,-1.41658 -0.27569,-2.85623 0,-4.25216c0.31189,-1.57573 1.22946,-3.02025 1.74046,-4.55588c0.53328,-1.60246 0.912,-3.245 1.39237,-4.85961c0.33138,-1.1165 0.71011,-2.2257 1.04428,-3.34098c0.36202,-1.21004 0.63214,-2.44681 1.04428,-3.64471c0.28404,-0.82735 0.81732,-1.58909 1.04428,-2.4298c0.24088,-0.89174 0.06683,-1.85151 0.34809,-2.73353c0.30493,-0.95977 0.88137,-1.84301 1.39237,-2.73353c0.41771,-0.72894 0.78808,-2.55737 1.39237,-2.12608c1.31022,0.93547 1.81983,3.17697 2.43665,4.85961c0.32025,0.8723 0.22556,1.82357 0.34809,2.73353c0.1086,0.81034 0.27012,1.61703 0.34809,2.4298c0.15455,1.61582 0.23949,3.24136 0.34809,4.85961c0.12253,1.81992 0.28265,3.64471 0.34809,5.46706c0.05013,1.41536 0,2.83558 0,4.25216c0,1.82114 0.22974,3.65807 0,5.46706c-0.12114,0.9537 -0.80618,1.79684 -1.04428,2.73353c-0.45948,1.8017 -0.79365,3.63377 -1.04428,5.46706c-0.32999,2.41887 -0.57783,4.85596 -0.69619,7.28941c-0.11278,2.32411 0,4.65915 0,6.98569c0,1.71909 0,3.44425 0,5.16333c0,1.71909 0,3.44425 0,5.16333c0,0.80912 0,1.62068 0,2.4298c0,1.61825 0.04734,3.24136 0,4.85961c-0.06823,2.32775 -0.22417,4.66036 -0.34809,6.98569c-0.10721,2.02281 -0.04595,4.06628 -0.34809,6.07451c-0.27847,1.84908 -0.9858,3.6362 -1.39237,5.46706c-0.28961,1.30602 -0.4191,2.63998 -0.69619,3.94843c-0.30214,1.42387 -0.85352,2.81371 -1.04428,4.25216c-0.16012,1.20518 0,2.43102 0,3.64471c0,1.11285 0,2.22813 0,3.34098c0,0.90996 0.25341,1.8503 0,2.73353c-0.22696,0.7909 -0.67391,1.60367 -1.39237,2.12608c-0.76023,0.55278 -1.85742,0.60745 -2.78474,0.91118c-0.92732,0.30373 -1.8073,0.76903 -2.78474,0.91118c-1.14314,0.16644 -2.32248,0 -3.48093,0c-1.27541,0 -2.555,-0.0486 -3.82902,0c-1.39516,0.05346 -2.78196,0.26606 -4.17711,0.30373c-2.31691,0.06317 -4.64356,0 -6.96186,0c-2.20273,0 -4.41103,0 -6.61376,0c-1.6235,0 -3.24979,0 -4.8733,0c-0.92732,0 -1.85742,0 -2.78474,0c-1.39098,0 -2.78613,0 -4.17711,0c-1.15985,0 -2.32108,0 -3.48093,0c-1.15985,0 -2.32944,0.11177 -3.48093,0c-0.9496,-0.09233 -1.83654,-0.50418 -2.78474,-0.60745c-0.92036,-0.10084 -1.85742,0 -2.78474,0c-0.92732,0 -1.85882,-0.05103 -2.78474,0c-0.93289,0.05103 -1.88109,0.09598 -2.78474,0.30373c-1.31161,0.3013 -2.54804,0.8237 -3.82902,1.2149c-1.03732,0.31709 -2.04957,0.74474 -3.13284,0.91118c-0.9134,0.14093 -1.8616,0.08018 -2.78474,0c-1.40351,-0.12271 -2.79031,-0.38755 -4.17711,-0.60745c-1.16263,-0.18467 -2.30577,-0.49932 -3.48093,-0.60745c-1.03732,-0.09476 -2.08995,0 -3.13284,0c-1.15985,0 -2.32108,0 -3.48093,0c-0.92732,0 -1.85882,0.05103 -2.78474,0c-0.93289,-0.05103 -1.85464,-0.22597 -2.78474,-0.30373c-1.50515,-0.12513 -3.01588,-0.24055 -4.52521,-0.30373c-0.92593,-0.03888 -1.85882,-0.04738 -2.78474,0c-1.04846,0.05346 -2.10666,0.10934 -3.13284,0.30373c-1.64857,0.31223 -3.24562,0.82735 -4.8733,1.2149c-0.92175,0.2199 -1.87274,0.3584 -2.78474,0.60745c-0.94542,0.25756 -1.87692,0.56493 -2.78474,0.91118c-0.9496,0.36204 -1.79337,0.94884 -2.78474,1.2149c-0.55416,0.14822 -1.69034,0.89174 -1.74046,0z"/></g></g></svg>