<svg version="1.1" xmlns="http://www.w3.org/2000/svg" xmlns:xlink="http://www.w3.org/1999/xlink" width="272.28292" height="418.66983" viewBox="0,0,272.28292,418.66983"><defs><radialGradient cx="303.73038" cy="217.52136" r="67.25001" gradientUnits="userSpaceOnUse" id="color-1"><stop offset="0" stop-color="#7c7984"/><stop offset="1" stop-color="#7c7984" stop-opacity="0"/></radialGradient><linearGradient x1="356.42668" y1="277.69529" x2="356.42668" y2="319.45415" gradientUnits="userSpaceOnUse" id="color-2"><stop offset="0" stop-color="#7c7984" stop-opacity="0"/><stop offset="1" stop-color="#7c7984"/></linearGradient><linearGradient x1="378.25" y1="163.47197" x2="378.25" y2="179.47198" gradientUnits="userSpaceOnUse" id="color-3"><stop offset="0" stop-color="#7c7984"/><stop offset="1" stop-color="#7c7984" stop-opacity="0"/></linearGradient><radialGradient cx="274.5" cy="214.47198" r="67.25" gradientUnits="userSpaceOnUse" id="color-4"><stop offset="0" stop-color="#7c7984"/><stop offset="1" stop-color="#7c7984" stop-opacity="0"/></radialGradient></defs><g transform="translate(-132.68844,8.94785)"><g data-paper-data="{&quot;isPaintingLayer&quot;:true}" fill-rule="nonzero" stroke-linejoin="miter" stroke-miterlimit="10" stroke-dasharray="" stroke-dashoffset="0" style="mix-blend-mode: normal"><g stroke="#3a2f41" stroke-linecap="round"><g><path d="M229.8147,257.86605c0,0 6.07202,107.49958 -0.82592,112.8011c-6.89795,5.30152 -44.92945,4.70509 -53.89661,4.54798c-20.63841,-0.3616 -43.223,-4.30719 -40.71172,-20.41015c2.68693,-18.90862 55.74835,-19.25989 55.74835,-19.25989c0,0 0.02264,6.12579 0,5.07829c-0.06336,-2.93203 0.11309,-8.01638 4.13787,-9.40424c4.02477,-1.38785 7.14722,2.25702 7.14722,2.25702l5.64255,-77.11479z" fill="#626171" stroke-width="3"/><path d="M229.72064,261.72179l1.69277,66.58204l-29.15314,-4.8902l5.26638,-66.74849l22.57018,6.18517" fill="#3a2f41" stroke-width="3"/><path d="M142.05324,349.8155c-0.15928,0.14575 2.7953,-1.24022 7.40072,-2.73162c6.72963,-2.17931 10.88113,-2.12096 10.88113,-2.12096l-16.06244,7.78671l15.79913,-0.6395l-13.69257,4.81498l14.19122,0.51436l-14.02918,4.35715l14.27897,3.68593c0,0 -5.77145,0.29158 -10.8121,0.12089c-3.75883,-0.12729 -5.39742,-0.28137 -4.91695,0.22526c3.19642,3.37037 13.3631,5.20277 13.3631,5.20277c0,0 -7.42514,1.08454 -13.56362,-1.29446c-5.6906,-2.20542 -10.14321,-7.57252 -9.79652,-14.99369c0.25053,-5.36281 5.80528,-9.47948 10.92492,-11.13696c5.54011,-1.79361 10.66722,-1.6528 10.66722,-1.6528c0,0 -8.57737,2.32048 -14.63301,7.86195z" fill="#3a2f41" stroke-width="2"/></g><g fill="none" stroke-width="2.5"><path d="M162.01756,342.89702c0,0 11.44051,-4.62785 23.6699,-2.96332"/><path d="M164.82824,345.66612c0,0 8.14941,-3.29654 16.86075,-2.11086"/><path d="M168.56848,348.06988c0,0 4.8583,-1.96526 10.05161,-1.25839"/><path d="M171.55934,350.60899c0,0 1.61944,-0.65509 3.35053,-0.41947"/></g><g fill="none" stroke-width="2.5"><path d="M205.14797,335.67082c0,0 -3.12769,-11.93816 0.08623,-23.8545"/><path d="M208.25359,333.23713c0,0 -2.22792,-8.5039 0.06143,-16.99226"/><path d="M211.11569,329.83479c0,0 -1.3282,-5.06964 0.03662,-10.13"/><path d="M214.01623,327.19297c0,0 -0.44274,-1.68989 0.01221,-3.37667"/></g></g><g><g><g><g stroke-linecap="butt"><path d="M290.88568,239.96927l-25.00772,-59.98545l18.85418,-5.76691l22.65509,53.29274c0,0 -1.85836,10.10134 -4.21891,10.87742z" data-paper-data="{&quot;index&quot;:null}" fill="#7c7984" stroke="none" stroke-width="0"/><path d="M272.55431,197.30811l-4.63895,-11.23385l19.51617,-6.31698c0,0 2.71457,6.65522 4.07241,10.28263z" data-paper-data="{&quot;index&quot;:null}" fill="#4e4d5c" stroke="none" stroke-width="0"/><path d="M266.18096,180.29792l18.85419,-5.76691l24.17679,56.50689c0,0 -3.35041,5.79967 -6.31909,6.77568c-2.65052,0.8714 -12.24842,1.41949 -12.24842,1.41949z" data-paper-data="{&quot;index&quot;:null}" fill="none" stroke="#3a2f41" stroke-width="2.5"/></g><g data-paper-data="{&quot;index&quot;:null}"><g fill="#e1e2db" stroke="none" stroke-width="0" stroke-linecap="round"><path d="M291.62652,177.4163l3.02018,5.98459l-27.27469,9.82354l-1.73979,-5.24492c0,0 -5.08339,-0.21014 -6.28707,-2.57212c-1.20368,-2.36199 -0.17024,-9.10546 -1.4959,-12.70037c-0.77821,-2.11031 -3.03432,-11.05483 -4.88206,-14.63108c-4.12646,-7.98665 7.02402,-31.30123 12.98899,-32.30539c10.88687,-1.83271 22.31867,33.3508 22.31867,33.3508c0,0 6.27218,1.98875 6.67427,3.34934c0.44484,1.50524 -3.3226,14.94559 -3.3226,14.94559z"/></g><path d="M266.89904,125.86363c8.34053,0.47759 13.76381,15.16029 13.76381,15.16029l-28.75523,9.26244c0,0 6.65088,-24.90031 14.99141,-24.42272z" fill="#8c9ca0" stroke="none" stroke-width="0" stroke-linecap="butt"/><g fill="none" stroke="#3a2f41" stroke-linecap="round"><path d="M291.62654,177.41631l3.02017,5.98459l-27.27466,9.82354l-1.7398,-5.24491c0,0 -5.08339,-0.21014 -6.28708,-2.57213c-1.20369,-2.36199 -0.17023,-9.10547 -1.4959,-12.70036c-0.77821,-2.11031 -3.03432,-11.05483 -4.88205,-14.63107c-4.12645,-7.98665 7.02399,-31.30124 12.98898,-32.30539c10.88686,-1.83271 22.31866,33.35079 22.31866,33.35079c0,0 6.27218,1.98875 6.67426,3.34934z" stroke-width="2"/><path d="M266.79722,187.98125l24.75029,-9.63307" stroke-width="2"/><path d="M273.55473,160.96379l0.39229,-2.7177l15.06555,0.95401z" stroke-width="1.5"/></g></g></g><path d="M293.4627,197.2656c0,0 24.71522,50.37523 54.82051,64.12729c19.9499,9.1131 45.89016,30.97151 45.89016,30.97151l-14.95528,32.58204l0.66868,-17.81704l-4.52653,-9.63505l-6.79845,28.28482l-24.20691,2.45469l9.29425,-12.07577l-1.35598,-8.22778l-13.92933,14.8009l-25.93305,-12.74158l18.47638,-2.50544c0,0 3.89608,-7.07624 2.52961,-7.88677c-34.8845,-23.13822 -50.23113,-72.81217 -50.23113,-72.81217l-5.73299,-19.45795l13.34276,16.78243l-0.28033,-9.81421l11.24198,10.53444z" fill="#3a2f41" stroke="url(#color-1)" stroke-width="0.5" stroke-linecap="round"/></g><path d="M356.60174,319.45415l-1.14494,-20.92252c0,0 -16.4698,-19.21722 -12.39223,-20.91856c4.07757,-1.70135 16.14234,-8.95379 18.9602,-2.20031c1.01995,2.44447 6.5362,21.24763 5.00725,26.4836c-2.69518,9.22974 -10.43028,17.55779 -10.43028,17.55779z" fill="#3a2f41" stroke="url(#color-2)" stroke-width="0.5" stroke-linecap="butt"/></g><g stroke="#3a2f41" stroke-width="2.5"><path d="M267.61752,362.8985l-7.81195,-71.07195l28.82639,-3.16849l7.81195,71.07196z" data-paper-data="{&quot;index&quot;:null}" fill="#e1e2db" stroke-linecap="butt"/><g data-paper-data="{&quot;index&quot;:null}"><path d="M261.39727,342.52643l37.56194,-5.25813l3.84783,20.22288c0,0 21.76599,-4.81402 38.12025,1.62753c15.89594,6.26103 24.53983,23.73226 14.74302,32.10951c-2.89745,2.47762 -19.59802,5.1199 -33.35949,3.83354c-16.86998,-1.57691 -31.0372,-7.48507 -31.0372,-7.48507c0,0 -23.96889,4.16755 -26.51434,-5.2621c-1.47665,-5.47026 -3.36201,-39.78815 -3.36201,-39.78815z" fill="#7c7984" stroke-linecap="butt"/><path d="M342.45531,370.28213c8.73257,10.98055 6.5861,23.27296 6.5861,23.27296" fill="none" stroke-linecap="round"/></g><path d="M279.08252,328.4989c10.55536,-1.17397 31.45958,-1.34492 31.45958,-1.34492l-7.07206,16.00352l6.51606,6.00671l-26.66116,11.04796l-30.35114,-3.8216l5.52505,-7.04348l-9.10278,-15.39245c0,0 19.92137,-4.36967 29.68644,-5.45574z" data-paper-data="{&quot;index&quot;:null}" fill="#e1e2db" stroke-linecap="butt"/></g><g stroke="#3a2f41" stroke-width="2.5"><path d="M212.62637,370.21553l7.6037,-71.09453l28.83554,3.08402l-7.6037,71.09453z" fill="#e1e2db" stroke-linecap="butt"/><g data-paper-data="{&quot;index&quot;:null}"><path d="M223.3383,394.25775c0,0 -18.64337,-3.6988 -19.17696,-11.81051c-0.91864,-13.96519 9.26119,-37.2864 9.26119,-37.2864l38.81802,-0.86021l-3.81666,18.8434c0,0 34.89805,0.52314 44.94293,13.45323c3.26365,4.20109 8.26924,23.00121 0.11821,28.2454c-3.31721,2.13423 -17.11335,5.19004 -34.83575,2.69431c-17.62506,-2.48202 -35.31096,-13.2792 -35.31096,-13.2792z" fill="#7c7984" stroke-linecap="butt"/><path d="M284.69023,382.22707c5.7357,10.73883 1.10509,24.14307 1.10509,24.14307" fill="none" stroke-linecap="round"/><path d="M265.6113,383.67526c5.7357,10.73883 1.10508,24.14306 1.10508,24.14306" fill="none" stroke-linecap="round"/></g><path d="M233.93889,332.08116c10.4743,1.75593 30.62915,7.30543 30.62915,7.30543l-11.17712,13.461l4.62605,7.55905l-28.66567,3.33972l-28.15071,-11.9722l7.2399,-5.26505l-4.54878,-17.29441c0,0 20.35713,1.24201 30.04718,2.86647z" fill="#e1e2db" stroke-linecap="butt"/></g><g><g><g><path d="M163.93504,147.52694c0,0 -7.85575,-4.74818 -1.17644,-10.59066c5.7084,-4.99321 10.02008,0.80226 10.02008,0.80226c0,0 -2.48579,-17.62679 28.09734,-19.60599c22.64234,-0.01197 29.53962,20.93787 22.52392,19.46002" fill="none" stroke="#3a2f41" stroke-width="5.5" stroke-linecap="round"/><path d="M247.11984,197.37033c0,0 -10.43472,13.16222 -24.57348,3.29447c-22.6304,-15.79424 -27.76183,-54.4127 -27.76183,-54.4127" fill="none" stroke="#3a2f41" stroke-width="7" stroke-linecap="round"/><path d="M248.33694,108.46713c0,8.06624 -4.93558,18.56078 -16.27872,18.56078c-11.34314,0 -26.62406,-10.19027 -26.62406,-18.25651c0,-8.06624 11.02108,-14.90948 22.36422,-14.90948c11.34314,0 20.53857,6.53896 20.53857,14.6052z" fill="#4e4d5c" stroke="#3a2f41" stroke-width="2" stroke-linecap="butt"/><path d="M240.55876,125.6395c-1.09433,4.57627 -9.53356,6.48014 -18.84955,4.25242c-9.316,-2.22773 -15.98097,-7.74348 -14.88664,-12.31976c1.09433,-4.57627 9.53356,-6.48014 18.84955,-4.25242c9.316,2.22773 15.98097,7.74348 14.88664,12.31976z" fill="#8c9ca0" stroke="#3a2f41" stroke-width="2" stroke-linecap="butt"/><path d="M267.04768,128.63778c14.46432,15.06536 -6.30205,28.27236 -6.30205,28.27236c0,0 15.6883,8.04852 11.05509,25.16415c-3.4016,12.56592 -22.12993,-0.27732 -22.12993,-0.27732c0,0 3.92315,10.67044 1.02395,15.40647c-8.15463,13.32115 -36.48149,-10.85039 -36.48149,-10.85039c0,0 -24.61576,11.55626 -33.1164,2.6226c-14.02897,-14.7436 0.93522,-25.21327 0.93522,-25.21327c0,0 -6.49636,1.34839 -7.12523,-4.91529c-0.6045,-6.02085 5.09416,-8.61087 5.09416,-8.61087c0,0 -5.78268,-3.92278 0.02837,-17.40582c5.7622,-13.36967 31.28663,-17.0685 43.83961,-14.29582c15.10965,3.33741 15.98575,8.92538 15.98575,8.92538c0,0 14.48293,-12.06031 27.19295,1.17783z" fill="#4e4d5c" stroke="#3a2f41" stroke-width="2" stroke-linecap="butt"/><path d="M206.04269,170.53986c0,0 -4.64419,-5.18958 0.3365,-8.47041c4.91238,-3.23583 6.36474,1.80705 6.36474,1.80705c0,0 -1.77265,-12.65136 18.4596,-14.48527c15.00385,-0.39467 19.9322,13.37002 15.25796,12.51055c-2.55572,-0.46994 0.40842,-8.14631 5.80333,-7.86687c4.95951,0.25689 10.37304,3.42112 10.37304,3.42112" fill="none" stroke="#3a2f41" stroke-width="2" stroke-linecap="round"/><path d="M163.93504,147.52694c0,0 -7.85575,-4.74818 -1.17644,-10.59066c5.7084,-4.99321 10.02008,0.80226 10.02008,0.80226c0,0 -2.48579,-17.62679 28.09734,-19.60599c22.64234,-0.01197 29.53962,20.93787 22.52392,19.46002" fill="none" stroke="#4e4d5c" stroke-width="2" stroke-linecap="round"/><path d="M247.11984,197.37033c0,0 -10.43472,13.16222 -24.57348,3.29447c-22.6304,-15.79424 -27.76183,-54.4127 -27.76183,-54.4127" fill="none" stroke="#4e4d5c" stroke-width="3" stroke-linecap="round"/><path d="M182.961,186.54104l8.67184,16.06573c0,0 -16.33957,-3.98306 -17.98266,-17.52625c-0.97149,-8.00751 1.83909,-14.42264 4.10771,-14.42264c2.26863,0 5.2031,15.88316 5.2031,15.88316z" fill="#4e4d5c" stroke="#3a2f41" stroke-width="2" stroke-linecap="butt"/><path d="M186.05065,182.31832c0.83506,0.73212 1.61689,1.47547 2.37662,2.25836l0.19773,-0.26363l2.97672,2.23254c0.62044,0.45492 1.02328,1.18914 1.02328,2.01746c0,1.38071 -1.11929,2.5 -2.5,2.5h-2.5v-0.09386l-0.24634,0.08169c-5.72108,-1.17744 -9.02866,-4.42131 -9.81888,-9.76589l-0.05825,-0.06657c-0.38989,-0.44092 -0.62653,-1.02051 -0.62653,-1.65538c0,-0.5588 0.18333,-1.07477 0.49313,-1.49106c-0.0006,-0.09224 -0.00113,-0.19075 -0.00153,-0.2945c-0.16738,-0.04329 -0.34272,-0.10516 -0.52611,-0.18852c-2.27592,-1.03451 -1.24141,-3.31042 -1.24141,-3.31042c0.43115,-0.9469 0.8623,-1.89381 1.29345,-2.84071l0.0827,-0.06909l-0.03564,-0.0198l1.22575,-2.20635c0.41981,-0.7909 1.25182,-1.32954 2.20964,-1.32954c1.38071,0 2.5,1.11929 2.5,2.5c0,0.07984 -0.00374,0.15881 -0.01106,0.23674l-0.24757,2.97087l-0.00227,-0.00019c0.00049,0.00318 0.00098,0.00637 0.00147,0.00955c0.19422,1.26219 0.08484,2.54658 -0.03561,3.81619l2.92202,1.81869c0,0 1.65598,1.41941 0.54867,3.15342z" fill="#4e4d5c" stroke="none" stroke-width="0.5" stroke-linecap="butt"/></g><g data-paper-data="{&quot;index&quot;:null}" stroke="#3a2f41" stroke-width="2"><g><g data-paper-data="{&quot;index&quot;:null}" stroke-linecap="butt"><path d="M229.82862,114.48972c-0.80867,1.21715 -0.05538,4.29602 -2.61137,5.81747c-9.03557,5.37839 -28.49571,9.24347 -30.49144,1.6145c-1.59735,-6.10604 1.15115,-24.39011 4.81859,-29.90997c3.66742,-5.51989 31.95167,16.95814 28.28425,22.47803z" fill="#e1e2db"/><path d="M210.23328,93.49279c9.01241,3.88676 21.25616,17.89662 20.44951,19.4215c-0.80664,1.52488 -8.02249,-1.55975 -16.11708,-6.88967c-4.69706,-3.09281 -13.59423,-10.93936 -12.93127,-13.39028c0.8201,-3.03185 6.60331,-0.00216 8.59884,0.85846z" fill="#8c9ca0"/></g><path d="M218.68138,118.38721c-4.39881,0.73357 -14.97919,-0.5586 -13.10836,-4.49595c0.77635,-1.63391 2.52972,-1.00679 9.30919,1.16217c6.77948,2.16896 11.88867,1.9371 11.88867,1.9371" data-paper-data="{&quot;index&quot;:null}" fill="#b8c1c0" stroke-linecap="round"/></g><g><g stroke-linecap="butt"><path d="M234.34864,115.86266c-1.74825,-6.22821 27.5233,-21.23419 29.27155,-15.00599c1.74824,6.22822 -0.37541,24.60618 -3.20243,30.14083c-3.22229,6.30843 -18.74836,-2.86159 -25.42782,-9.76892c-2.71352,-2.80608 -0.13622,-3.5667 -0.64128,-5.36595z" fill="#e1e2db"/><path d="M234.02082,113.97321c-0.30908,-1.67109 13.40079,-12.31422 21.93275,-13.92128c1.88913,-0.35583 7.49405,-1.90611 7.4487,1.22861c-0.03666,2.53409 -9.43269,8.00625 -14.13838,9.87797c-8.10943,3.22559 -14.934,4.48579 -15.24307,2.81472z" fill="#8c9ca0"/></g><path d="M236.2928,118.26685c0,0 5.23785,1.01829 10.39444,1.74039c3.47367,0.48641 7.85578,-0.09018 8.03943,1.70065c0.19123,1.86487 -1.98361,2.60658 -4.33285,2.34002c-3.08723,-0.35029 -6.59246,-2.11693 -6.59246,-2.11693" fill="#b8c1c0" stroke-linecap="round"/></g><path d="M226.32878,115.58194c0.84857,-5.36572 3.26161,-5.51706 6.12813,-5.00737c2.86652,0.50969 5.10102,1.48739 4.25247,6.85312c-0.84857,5.36572 -3.02567,5.55902 -5.89221,5.04933c-2.86653,-0.50969 -5.33694,-1.52934 -4.48839,-6.89507z" fill="#e1e2db" stroke-linecap="butt"/></g></g><g stroke="#3a2f41"><path d="M208.41102,107.21506c0,0 -13.70706,-10.85506 -14.13208,-25.63843c-0.297,-10.33087 0.31271,-30.77386 14.45368,-47.08539c11.40474,-13.15534 31.94376,-17.73237 36.22261,-18.02962c3.42138,-0.23769 18.04375,4.65789 26.85092,12.48779c14.66024,13.03356 25.90356,43.53027 25.90356,43.53027c0,0 0.38505,8.77748 -2.29153,18.10516c-2.48143,8.64756 -7.71337,17.7781 -15.39764,20.57797c-32.94443,12.00378 -71.60953,-3.94776 -71.60953,-3.94776z" fill="#4e4d5c" stroke-width="2" stroke-linecap="butt"/><g data-paper-data="{&quot;index&quot;:null}" fill="none" stroke-width="1.5" stroke-linecap="round"><path d="M288.26869,100.88268c-3.4479,4.70216 -8.0479,8.06373 -8.0479,8.06373"/><path d="M285.47587,100.99247c-2.45603,3.34948 -5.73273,5.74404 -5.73273,5.74404"/><path d="M283.23934,101.00954c-1.46417,1.99681 -3.4176,3.42435 -3.4176,3.42435"/><path d="M281.07509,100.94898c-0.48806,0.6656 -1.1392,1.14144 -1.1392,1.14144"/></g><g data-paper-data="{&quot;index&quot;:null}" fill="none" stroke-width="1.5" stroke-linecap="round"><path d="M294.82034,80.6976c-1.46934,8.07444 -4.55026,15.36996 -4.55026,15.36996"/><path d="M292.20662,82.82103c-1.04666,5.75165 -3.24128,10.94847 -3.24128,10.94847"/><path d="M290.08628,84.4369c-0.62397,3.42886 -1.93229,6.527 -1.93229,6.527"/><path d="M288.0048,85.9085c-0.208,1.14295 -0.64411,2.17565 -0.64411,2.17565"/></g></g><g stroke-linecap="butt"><path d="M288.85077,81.85321c-0.30507,16.21741 -11.11503,28.72508 -40.55728,28.56608c-29.05796,-0.15689 -39.75061,-14.31642 -39.44555,-30.53386c0.30507,-16.21741 12.86323,-36.51773 46.41577,-34.79771c22.07105,1.13143 33.89213,20.54805 33.58707,36.76547z" fill="#7c7984" stroke="none" stroke-width="0"/><path d="M288.85077,81.85321c-0.30507,16.21741 -16.43774,5.61672 -34.55659,5.29979c-18.11525,-0.31686 -45.75129,8.94985 -45.44623,-7.26754c0.1092,-5.80494 -1.97807,-20.6734 1.67181,-26.32742c6.54697,-10.14185 23.2013,-9.57465 44.74391,-8.4703c22.07105,1.13143 33.89212,20.54805 33.58706,36.76547z" fill="#626171" stroke="none" stroke-width="0"/><path d="M235.08538,43.90191c5.90461,0.23154 12.65877,0.80032 20.17834,1.18581c22.07105,1.13143 33.89213,20.54805 33.58707,36.76547h-0.00001c-0.30507,16.21741 -11.11504,28.72508 -40.55728,28.56609c-29.05796,-0.15689 -39.75061,-14.31643 -39.44555,-30.53386c0.08858,-4.70913 -1.68816,-22.68907 0.68072,-27.4476c0.98672,-1.98205 2.274,-3.53747 3.84862,-4.74803" fill="none" stroke="#3a2f41" stroke-width="2"/></g><path d="M215.89959,88.47858c0,0 3.42254,-12.69703 14.87847,-13.02578c12.30233,-0.36229 16.9294,13.66654 16.9294,13.66654c0,0 -5.95674,3.83303 -17.80376,3.67099c-9.72374,-0.13302 -14.0041,-4.31175 -14.0041,-4.31175z" data-paper-data="{&quot;index&quot;:null}" fill="#e1e2db" stroke="#3a2f41" stroke-width="1" stroke-linecap="butt"/><path d="M195.05462,31.06028c9.58815,-13.73104 24.57679,-13.00155 24.57679,-13.00155c0,0 19.42558,-4.58447 39.23711,-0.31053c13.4756,1.38626 22.26192,8.22293 29.04804,17.5457c10.61129,14.5778 15.05114,33.45904 15.05114,33.45904l-5.17089,0.12741c0,0 0.54304,2.26102 -0.11263,7.50082c-26.418,-5.86774 -55.1939,-4.71978 -55.1939,-4.71978l-3.56865,-9.16119l-1.86319,9.63495l-14.3588,1.0323l-3.5898,-14.28939l-2.05242,14.98833l-6.14887,1.44973c0,0 -2.41413,24.96445 17.3748,37.96183c0,0 -15.42038,-1.7207 -26.98817,-7.41824c-3.94299,-1.94206 -14.80892,-8.76387 -17.19545,-22.53411c-5.07836,-29.30212 10.9549,-52.26534 10.9549,-52.26534z" fill="#7c7984" stroke="#3a2f41" stroke-width="2" stroke-linecap="butt"/><path d="M217.7709,92.76736c-0.0089,-0.30946 0.23475,-0.5675 0.5442,-0.5764c0.30946,-0.0089 0.56751,0.23475 0.57641,0.5442c0.0089,0.30946 -0.23475,0.56751 -0.5442,0.57641c-0.30946,0.0089 -0.56751,-0.23476 -0.57641,-0.5442z" fill="#3a2f41" stroke="none" stroke-width="0.5" stroke-linecap="butt"/><path d="M218.55988,95.82891c-0.0089,-0.30946 0.23475,-0.56751 0.5442,-0.57641c0.30946,-0.0089 0.56751,0.23476 0.57641,0.5442c0.0089,0.30946 -0.23476,0.5675 -0.5442,0.5764c-0.30946,0.0089 -0.5675,-0.23475 -0.5764,-0.5442z" fill="#3a2f41" stroke="none" stroke-width="0.5" stroke-linecap="butt"/><path d="M221.30097,93.64724c-0.0089,-0.30946 0.23475,-0.56751 0.5442,-0.57641c0.30946,-0.0089 0.56751,0.23476 0.57641,0.5442c0.0089,0.30946 -0.23475,0.5675 -0.5442,0.5764c-0.30946,0.0089 -0.56751,-0.23475 -0.57641,-0.5442z" fill="#3a2f41" stroke="none" stroke-width="0.5" stroke-linecap="butt"/><path d="M280.42402,87.46139c-0.0089,-0.30946 0.23476,-0.5675 0.5442,-0.5764c0.30946,-0.0089 0.5675,0.23475 0.5764,0.5442c0.0089,0.30946 -0.23475,0.56751 -0.5442,0.57641c-0.30946,0.0089 -0.56751,-0.23476 -0.57641,-0.5442z" fill="#3a2f41" stroke="none" stroke-width="0.5" stroke-linecap="butt"/><path d="M281.34099,90.09867c-0.0089,-0.30946 0.23475,-0.56751 0.5442,-0.57641c0.30946,-0.0089 0.56751,0.23475 0.57641,0.5442c0.0089,0.30946 -0.23475,0.56751 -0.5442,0.57641c-0.30946,0.0089 -0.56751,-0.23475 -0.57641,-0.5442z" fill="#3a2f41" stroke="none" stroke-width="0.5" stroke-linecap="butt"/><path d="M278.51129,89.19868c-0.0089,-0.30946 0.23475,-0.56751 0.5442,-0.57641c0.30946,-0.0089 0.56751,0.23476 0.57641,0.5442c0.0089,0.30946 -0.23476,0.5675 -0.5442,0.5764c-0.30946,0.0089 -0.5675,-0.23475 -0.5764,-0.5442z" fill="#3a2f41" stroke="none" stroke-width="0.5" stroke-linecap="butt"/><g fill="#3a2f41" stroke="#3a2f41" stroke-width="1.5" stroke-linecap="butt"><path d="M188.83873,43.67886c0.38653,-0.00534 -2.76448,0.36734 -6.45419,2.55016c-3.23366,1.91304 -2.44989,3.15817 -5.05675,3.39101c-0.89487,0.07992 -1.18443,-0.18924 -1.27709,-0.76071c-0.11401,-0.70316 1.96685,-2.75409 5.82703,-3.99024c2.12573,-0.68072 4.71099,-1.23456 6.961,-1.19022z"/><path d="M188.79763,42.36802c0.24683,0.19587 -2.21182,-1.09548 -7.46063,-0.98711c-4.60001,0.09497 -5.80384,1.65753 -7.73548,0.51915c-0.66308,-0.39077 -0.47731,-0.79097 0.24072,-1.36939c0.8835,-0.71169 4.59776,-1.37957 8.6676,-0.52095c2.24119,0.47283 4.9534,1.14813 6.28776,2.35828z"/><path d="M190.06856,41.38321c0.10038,0.28294 -1.26539,-1.94453 -5.77029,-4.13382c-3.94805,-1.91865 -5.83418,-1.04364 -6.8385,-2.90456c-0.34476,-0.6388 0.03455,-0.91628 0.96341,-1.12153c1.1429,-0.25253 4.65868,0.76725 7.62884,3.30899c1.63562,1.39968 3.55779,3.18589 4.01653,4.85091z"/></g><g data-paper-data="{&quot;index&quot;:null}" fill="#3a2f41" stroke="#3a2f41" stroke-width="1.5" stroke-linecap="butt"><path d="M288.85261,36.76795c2.25046,-0.00332 4.82517,0.59752 6.93816,1.31686c3.83702,1.30627 5.88015,3.39475 5.75336,4.09573c-0.10306,0.5697 -0.39748,0.83353 -1.29074,0.73732c-2.60217,-0.28031 -1.79585,-1.51094 -4.99411,-3.48258c-3.64934,-2.2497 -6.79304,-2.67974 -6.40666,-2.66735z"/><path d="M288.39985,35.50192c1.35619,-1.18564 4.08026,-1.81143 6.3297,-2.24333c4.08481,-0.78432 7.7863,-0.04889 8.65668,0.67878c0.70739,0.5914 0.88583,0.99493 0.21576,1.37355c-1.95207,1.10299 -3.12719,-0.48126 -7.72474,-0.66001c-5.24595,-0.20397 -7.72773,1.04236 -7.47737,0.85102z"/><path d="M287.14707,34.49413c0.489,-1.65638 2.44342,-3.40726 4.10425,-4.77692c3.01598,-2.48719 6.54975,-3.44274 7.68786,-3.16943c0.92498,0.22214 1.29915,0.50649 0.94282,1.1389c-1.03808,1.84232 -2.90793,0.93306 -6.89028,2.77949c-4.54404,2.10683 -5.95015,4.30904 -5.84465,4.02798z"/></g><g><path d="M238.97764,21.60627c0,0 7.01051,-12.84171 19.15686,-19.01677c5.24755,-2.6678 18.57226,-5.98488 25.78358,-6.32992c5.22575,-0.25003 2.49876,4.33263 7.44329,5.54184c1.71676,0.41985 1.12614,6.38745 -0.15628,11.86153c-1.88773,8.05792 -5.3036,16.50054 -5.3036,16.50054" fill="#7c7984" stroke="none" stroke-width="0" stroke-linecap="round"/><path d="M285.36473,31.6907c-0.66678,1.42417 -0.78395,1.12736 -10.5552,1.57815c-6.4463,0.29739 -22.52792,-3.50846 -22.00659,-5.68901c0.48774,-2.04005 7.73987,-12.0462 13.54373,-17.27056c4.6972,-4.22819 10.61789,-7.21787 12.3507,-7.91758c1.57005,-0.63399 7.47182,-3.67326 10.34511,-2.83793c1.66654,0.48449 0.49763,4.56943 1.60059,5.2064c1.19251,0.68868 1.35596,4.66591 0.3723,9.36962c-1.49474,7.14773 -4.91076,15.98059 -5.65065,17.56091z" fill="#4e4d5c" stroke="none" stroke-width="0" stroke-linecap="butt"/><path d="M238.78198,21.3422c3.7241,-7.22153 15.99702,-17.71164 24.90206,-20.95287c22.17241,-8.07025 31.41064,-2.51169 27.882,11.9063c-1.88773,8.05792 -6.82597,20.34866 -6.82597,20.34866" fill="none" stroke="#3a2f41" stroke-width="2" stroke-linecap="round"/><path d="M252.83781,26.82641c16.09014,-24.45753 36.47608,-32.57926 38.15017,-23.03457" fill="none" stroke="#3a2f41" stroke-width="2" stroke-linecap="round"/><path d="M282.17591,0.38949c5.6418,-2.4059 9.52394,2.55284 9.52394,2.55284c0,0 -0.18632,7.97565 -0.95295,12.01902c-0.62557,3.29928 -3.31029,10.46606 -3.31029,10.46606c0,0 2.29913,-15.69522 1.45111,-16.41339c-2.05516,2.06366 -7.96479,11.98558 -7.96479,11.98558c0,0 4.7632,-14.51991 4.42141,-14.36889c-3.38064,1.49385 -11.18506,10.31239 -11.18506,10.31239c0,0 5.27911,-9.60483 6.56836,-12.35422c0.32608,-0.69541 -15.6277,8.61932 -15.6277,8.61932c0,0 1.97381,-2.18947 4.64786,-4.62046c3.4249,-3.11361 8.51249,-6.52844 12.4281,-8.19822z" fill="#3a2f41" stroke="#332657" stroke-width="0" stroke-linecap="round"/></g><g><path d="M186.6308,54.0606c0,0 8.34056,-29.6955 17.75687,-42.03504c4.06812,-5.33104 15.96688,-15.57591 23.06466,-19.73958c5.14347,-3.01725 4.48001,2.79666 10.00285,1.31847c1.91755,-0.51324 4.03178,5.48321 5.22609,11.37765c1.75804,8.67668 2.15344,18.53238 2.15344,18.53238" fill="#7c7984" stroke="none" stroke-width="0" stroke-linecap="round"/><path d="M244.98789,25.25412c-0.0244,1.7107 -0.27699,1.49038 -9.90197,7.11618c-6.3498,3.71145 -24.25468,8.64003 -24.71987,6.28648c-0.43522,-2.20195 2.31896,-15.58662 5.78639,-23.64786c2.80629,-6.52416 7.40548,-12.51966 8.83104,-14.10747c1.29168,-1.43867 5.84933,-7.47134 9.11887,-8.20401c1.89636,-0.42496 2.57442,4.08638 3.97305,4.10631c1.51216,0.02156 3.48166,3.72174 4.6269,8.72375c1.7403,7.60098 2.31264,17.82837 2.28557,19.72665z" fill="#4e4d5c" stroke="none" stroke-width="0" stroke-linecap="butt"/><path d="M183.83454,61.40742c2.20219,-18.41424 17.65005,-46.60604 25.13722,-54.42822c18.64211,-19.47624 30.45818,-19.09643 33.45202,-3.49103c1.75804,8.67668 2.36842,23.00617 2.36842,23.00617" fill="none" stroke="#3a2f41" stroke-width="2" stroke-linecap="round"/><path d="M210.05918,37.92086c5.08625,-31.84552 21.90784,-50.42069 27.92374,-42.22254" fill="none" stroke="#3a2f41" stroke-width="2" stroke-linecap="round"/><path d="M227.57409,-2.855c4.58357,-5.29134 10.73939,-2.63418 10.73939,-2.63418c0,0 3.43228,7.6935 4.49614,11.95131c0.86808,3.47426 1.41993,11.72627 1.41993,11.72627c0,0 -4.50746,-18.56541 -5.87815,-18.30391c0.45255,3.7242 -2.68396,17.55182 -2.68396,17.55182c0,0 -1.56556,-18.31047 -1.84085,-17.98487c-2.72283,3.22033 -6.8042,17.71932 -6.8042,17.71932c0,0 -0.22546,-11.1979 2.72799,-18.75198c0.01245,-0.83557 -13.53646,20.01355 -13.53646,20.01355c0,0 0.99192,-3.13453 2.57863,-6.87142c2.03225,-4.7862 5.6004,-10.74351 8.78156,-14.41586z" fill="#3a2f41" stroke="#332657" stroke-width="0" stroke-linecap="round"/></g><g fill="none" stroke="#3a2f41" stroke-width="1.5" stroke-linecap="round"><path d="M188.91657,86.56123c0,0 -3.4326,-8.35644 -3.18714,-17.88237"/><path d="M190.38607,84.15773c0,0 -2.44513,-5.95251 -2.2703,-12.73813"/><path d="M191.58302,81.07431c0,0 -1.45768,-3.54865 -1.35344,-7.5939"/><path d="M192.90543,78.55327c0,0 -0.4859,-1.18288 -0.45116,-2.5313"/></g><g fill="none" stroke="#3a2f41" stroke-width="1.5" stroke-linecap="round"><path d="M186.61283,64.88049c0,0 1.28537,-11.30446 6.3636,-21.89293"/><path d="M189.11707,62.98678c0,0 0.91559,-8.05249 4.53297,-15.59496"/><path d="M191.73173,60.17697c0,0 0.54584,-4.80053 2.70237,-9.297"/><path d="M194.16821,58.06963c0,0 0.18194,-1.60016 0.90078,-3.099"/></g><g fill="none" stroke="#3a2f41" stroke-width="1.5" stroke-linecap="round"><path d="M193.6224,39.51901c0,0 3.8849,-10.69346 11.29132,-19.80659"/><path d="M196.49906,38.2612c0,0 2.76734,-7.61727 8.04314,-14.10882"/><path d="M199.69665,36.13823c0,0 1.64977,-4.54107 4.79496,-8.41103"/><path d="M202.55721,34.65688c0,0 0.54992,-1.51368 1.59832,-2.80368"/></g><g fill="none" stroke="#3a2f41" stroke-width="1.5" stroke-linecap="round"><path d="M201.62392,103.38045c0,0 -5.68057,-4.19694 -10.29561,-9.81423"/><path d="M201.79498,100.9184c0,0 -4.04645,-2.98959 -7.33386,-6.99095"/><path d="M201.3304,98.30424c0,0 -2.41229,-1.78227 -4.37211,-4.16769"/><path d="M200.81953,95.64077c0,0 -0.80409,-0.59407 -1.45737,-1.38922"/></g><path d="M261.71556,93.61052c-0.77203,0.06542 -1.41708,-0.10793 -1.44074,-0.38718c-0.02366,-0.27924 0.58302,-0.55865 1.35505,-0.62406c0.77203,-0.06542 1.41708,0.10793 1.44074,0.38718c0.02366,0.27925 -0.58302,0.55865 -1.35505,0.62406z" fill="#3a2f41" stroke="#3a2f41" stroke-width="1" stroke-linecap="butt"/><path d="M230.22198,91.70941c-0.16457,1.81197 -12.25116,-0.40511 -13.27463,-3.69246c-1.07236,-3.44444 5.18145,-10.57005 8.24505,-10.82963c3.06361,-0.25958 5.79238,6.12331 5.02958,14.52209z" fill="#3a2f41" stroke="#3a2f41" stroke-width="1" stroke-linecap="butt"/><path d="M257.92299,99.12969l3.48866,-2.71671v-2.70186v2.70186l1.45485,3.94887" fill="none" stroke="#3a2f41" stroke-width="1" stroke-linecap="round"/><path d="M215.41074,61.94693c0,0 10.6397,-13.53392 19.05158,-11.43095" fill="none" stroke="#3a2f41" stroke-width="1" stroke-linecap="round"/></g><g><path d="M225.57896,202.83943c3.00905,-13.07949 15.61705,-7.03332 29.24426,-7.85039c14.58433,-0.87446 23.31093,-8.71807 28.89289,4.53713c3.57344,8.4857 48.95286,93.36068 48.95286,93.36068c0,0 -17.88815,34.32226 -69.93649,36.54199c-59.71607,2.32748 -78.6761,-18.09068 -78.6761,-18.09068z" fill="#3a2f41" stroke="#3a2f41" stroke-width="1" stroke-linecap="round"/><g><g stroke="none"><g fill="none" stroke-width="1" stroke-linecap="butt" font-family="sans-serif" font-weight="normal" font-size="12" text-anchor="start"><g><g><g/></g></g><g><g><g/></g></g></g><g fill="none" stroke-width="1" stroke-linecap="butt" font-family="sans-serif" font-weight="normal" font-size="12" text-anchor="start"><g><g><g/></g></g><g><g><g/></g></g></g><path d="M276.45309,173.85617c0.13403,6.16915 0.11802,7.50051 0.11802,7.50051c0,0 5.68707,11.65979 7.3481,20.12409c0,0 -11.47156,12.83757 -21.27611,13.45261c-9.80455,0.61504 -36.72277,-9.81431 -36.72277,-9.81431c0,0 1.05803,-7.76156 1.60519,-11.26563c0.81571,-5.22389 2.83631,-12.11369 2.83631,-12.11369l-1.5739,-9.74729c0,0 -11.43022,-26.16048 -8.21434,-38.90693c1.07182,-4.24823 16.35084,-10.83605 24.45052,-11.37335c8.88645,-0.58947 18.29028,-0.52218 25.98486,7.26342c0.28773,0.29114 0.56578,0.58297 0.83446,0.87554" fill="#e1e2db" stroke-width="0" stroke-linecap="round"/><g fill="none" stroke-width="1" stroke-linecap="butt" font-family="sans-serif" font-weight="normal" font-size="12" text-anchor="start"><g/></g></g><g stroke="none"><g fill="none" stroke-width="1" stroke-linecap="butt" font-family="sans-serif" font-weight="normal" font-size="12" text-anchor="start"><g><g/></g></g><g fill="#e1e2db" stroke-width="0" stroke-linecap="round"><g><g><path d="M271.45,129.74927c12.80562,10.7374 15.65982,24.48619 15.65982,24.48619c0,0 -1.63861,8.53723 -10.7544,19.76094"/></g></g></g></g><path d="M221.12503,146.38843c0,0 -2.33238,-10.23952 0.5,-14.75c1.35822,-2.16293 11.03601,-7.6795 15.25996,-7.40119c8.70909,0.57382 27.74004,1.15119 27.74004,1.15119c0,0 4.5783,2.07983 10.1876,8.28252c3.52676,3.89984 8.51929,12.15058 9.72605,14.02314c3.93577,6.10722 1.83636,11.44435 1.83636,11.44435z" fill="#8c9ca0" stroke="none" stroke-width="0" stroke-linecap="butt"/><g fill="none"><g stroke="none" stroke-width="1" stroke-linecap="butt" font-family="sans-serif" font-weight="normal" font-size="12" text-anchor="start"><g><g><g/></g></g><g><g><g/></g></g></g><g stroke="none" stroke-width="1" stroke-linecap="butt" font-family="sans-serif" font-weight="normal" font-size="12" text-anchor="start"><g><g><g/></g></g><g><g><g/></g></g></g><path d="M276.45309,173.85617c0.13403,6.16915 0.11802,7.50051 0.11802,7.50051c0,0 5.68707,11.65979 7.3481,20.12409c0,0 -11.47156,12.83757 -21.27611,13.45261c-9.80455,0.61504 -36.72277,-9.81431 -36.72277,-9.81431c0,0 1.05803,-7.76156 1.60519,-11.26563c0.81571,-5.22389 2.83631,-12.11369 2.83631,-12.11369l-1.5739,-9.74729c0,0 -11.43022,-26.16048 -8.21434,-38.90693c1.07182,-4.24823 16.35084,-10.83605 24.45052,-11.37335c8.88645,-0.58947 18.29028,-0.52218 25.98486,7.26342c0.28773,0.29114 0.56578,0.58297 0.83446,0.87554" stroke="#3a2f41" stroke-width="2" stroke-linecap="round"/><g stroke="none" stroke-width="1" stroke-linecap="butt" font-family="sans-serif" font-weight="normal" font-size="12" text-anchor="start"><g/></g></g><g><path d="M260.78272,135.7479l-9.59145,-7.50333c0,0 5.91356,-6.50655 8.50938,-8.73949c0.56842,-0.48896 0.8367,-0.1434 1.00233,-0.09273c0.41946,0.30882 3.20012,4.41156 2.7965,4.7273z" data-paper-data="{&quot;index&quot;:null}" fill="#8c9ca0" stroke="#3a2f41" stroke-width="4.5" stroke-linecap="round"/><path d="M244.11331,137.02298c0,0 -9.31175,-8.16075 -10.29152,-10.75812c-0.0353,-1.3111 1.41262,-7.06708 2.37369,-5.51913c0.90852,0.39498 15.06633,-3.81932 18.84209,-1.90006c3.17345,1.61309 -3.86903,9.43968 -3.86903,9.43968z" fill="#3a2f41" stroke="#3a2f41" stroke-width="4.5" stroke-linecap="round"/><path d="M235.59562,125.71352c-0.05745,-1.26265 -0.06299,-4.36749 0.4084,-4.65332c0.84375,-0.93522 9.33358,-5.73174 11.46317,-6.23439c1.34728,-0.318 11.52996,4.06598 12.09481,4.58896c0.94098,0.39502 2.14766,3.97408 2.17985,4.42608" fill="none" stroke="#3a2f41" stroke-width="6.5" stroke-linecap="butt"/><g><path d="M260.78272,135.7479l-9.59145,-7.50333c0,0 5.91357,-6.50655 8.50938,-8.73949c0.56842,-0.48896 0.8367,-0.1434 1.00233,-0.09273c0.41946,0.30882 3.20012,4.41156 2.7965,4.7273z" data-paper-data="{&quot;index&quot;:null}" fill="#8c9ca0" stroke="#12161a" stroke-width="0" stroke-linecap="round"/><path d="M244.11332,137.02298c0,0 -9.31175,-8.16076 -10.29152,-10.75812c-0.0353,-1.3111 1.41262,-7.06707 2.37369,-5.51913c1.67211,0.72694 14.97304,7.53962 14.97304,7.53962z" fill="#8c9ca0" stroke="#12161a" stroke-width="0" stroke-linecap="round"/><path d="M235.59562,125.71351c-0.05745,-1.26265 -0.06299,-4.36749 0.40839,-4.65332c0.84375,-0.93522 9.33358,-5.73173 11.46317,-6.23439c1.34728,-0.318 11.52997,4.06598 12.09482,4.58896c0.94098,0.39502 2.14766,3.97408 2.17985,4.42608" fill="none" stroke="#8c9ca0" stroke-width="2" stroke-linecap="butt"/></g></g><g fill="none"><g stroke="none" stroke-width="1" stroke-linecap="butt" font-family="sans-serif" font-weight="normal" font-size="12" text-anchor="start"><g><g/></g></g><g stroke="#3a2f41" stroke-width="2" stroke-linecap="round"><g><g><path d="M271.45,129.74927c12.80562,10.7374 15.65982,24.48619 15.65982,24.48619c0,0 -1.63861,8.53723 -10.7544,19.76094"/></g></g></g></g></g><path d="M226.73572,208.58426c0,0 0.78982,-8.66989 1.45041,-13.36632c0.68218,-4.84991 2.57998,-15.2875 2.57998,-15.2875l-5.03039,-18.34619c0,0 6.91188,-14.88822 18.76039,-12.73594c5.3879,0.97871 19.73961,9.23594 19.73961,9.23594c0,0 20.7276,-15.98664 23.15661,-4.4325c0.84018,3.99652 -10.38381,20.8118 -10.38381,20.8118l-0.77281,9.6207c0,0 10.26695,19.58505 5.48197,21.95337c-3.66903,1.81599 -10.08301,9.0705 -20.49977,9.32887c-14.97179,0.37135 -34.4822,-6.78223 -34.4822,-6.78223z" fill="#3a2f41" stroke="#3a2f41" stroke-width="1" stroke-linecap="butt"/><path d="M237.86072,157.95926c0,0 1.08524,-16.14252 -10.75,-30.75c-0.32204,-0.39747 5.69606,-3.71266 7.5,-2c14.36708,13.64009 14.5,31.75 14.5,31.75z" fill="#3a2f41" stroke="#3a2f41" stroke-width="1" stroke-linecap="butt"/><path d="M273.39394,156.45926c0,0 0.93733,-17.89252 -9.28492,-32.5c-0.27815,-0.39748 5.41976,2.03734 6.97785,3.75c12.40904,13.64009 12.02385,27.75 12.02385,27.75z" fill="#3a2f41" stroke="#3a2f41" stroke-width="1" stroke-linecap="butt"/><path d="M232.13764,138.91216l-0.76126,-3.10358l12.20743,-2.99428l0.76126,3.10358z" fill="#8c9ca0" stroke="#3a2f41" stroke-width="1" stroke-linecap="butt"/><path d="M234.38764,144.66216l-0.76126,-3.10359l12.20744,-2.99427l0.76125,3.10359z" fill="#8c9ca0" stroke="#3a2f41" stroke-width="1" stroke-linecap="butt"/></g><g><g><g stroke-linecap="butt"><path d="M275.92108,231.46652l-38.58335,-52.29689l16.93648,-10.09422l34.70344,46.35774c0,0 0.60263,10.25316 -1.50493,11.56946z" data-paper-data="{&quot;index&quot;:null}" fill="#7c7984" stroke="none" stroke-width="0"/><path d="M247.95058,194.40355l-7.18261,-9.80455l17.44828,-10.78621c0,0 4.22247,5.81649 6.4057,9.01576z" data-paper-data="{&quot;index&quot;:null}" fill="#4e4d5c" stroke="none" stroke-width="0"/><path d="M237.70686,179.40246l16.93648,-10.09422l36.94733,49.11661c0,0 -1.87164,6.43104 -4.52216,8.08645c-2.36646,1.47799 -11.55717,4.29773 -11.55717,4.29773z" data-paper-data="{&quot;index&quot;:null}" fill="none" stroke="#3a2f41" stroke-width="2.5"/></g><g data-paper-data="{&quot;index&quot;:null}"><g fill="#e1e2db" stroke="none" stroke-width="0" stroke-linecap="round"><path d="M261.73242,170.53947l4.35945,5.09235l-24.14753,16.04081l-2.93966,-4.67915c0,0 -4.98699,1.00744 -6.71892,-0.99962c-1.73193,-2.00706 -2.33542,-8.80252 -4.47965,-11.97789c-1.25873,-1.86403 -5.58157,-10.01313 -8.22839,-13.04594c-5.911,-6.77305 -0.63836,-32.07329 4.91541,-34.47014c10.13637,-4.37455 29.62399,27.0706 29.62399,27.0706c0,0 6.56542,0.43661 7.28019,1.66217c0.79077,1.35585 0.3351,15.3068 0.3351,15.3068z"/></g><path d="M225.43101,126.36558c8.21401,-1.52396 16.98032,11.44314 16.98032,11.44314l-25.71913,15.84873c0,0 0.52478,-25.7679 8.7388,-27.29186z" fill="#8c9ca0" stroke="none" stroke-width="0" stroke-linecap="butt"/><g fill="none" stroke="#3a2f41" stroke-linecap="round"><path d="M261.73245,170.53948l4.35944,5.09235l-24.14751,16.0408l-2.93967,-4.67912c0,0 -4.98699,1.00743 -6.71893,-0.99963c-1.73193,-2.00706 -2.33542,-8.80251 -4.47965,-11.97788c-1.25873,-1.86403 -5.58157,-10.01312 -8.22838,-13.04593c-5.911,-6.77306 -0.63838,-32.0733 4.91541,-34.47014c10.13636,-4.37455 29.62398,27.0706 29.62398,27.0706c0,0 6.56542,0.4366 7.28018,1.66217z" stroke-width="2"/><path d="M240.13651,186.71752l21.74127,-15.25419" stroke-width="2"/><path d="M240.26027,158.86807l-0.26672,-2.73288l14.85881,-2.66403z" stroke-width="1.5"/></g></g></g><g stroke-width="0.5"><path d="M404.5,183.97198l-19.75,-7c0,0 -17.75,6.91828 -17.75,2.5c0,-4.41828 -3.56777,-16 3.75,-16c2.64872,0 17.31909,0.68577 21.56254,4.11303c7.48018,6.04145 12.18746,16.38697 12.18746,16.38697z" fill="#241c29" stroke="url(#color-3)" stroke-linecap="butt"/><path d="M272.5,192.40412l16.10919,20.69752c0,0 29.06771,-17.02666 39.93771,-30.07164c14.04041,-16.84975 41.9531,-36.12589 41.9531,-36.12589l27.5,23l-17.01353,-5.33235l-10.48647,1.83235l25.5,14l-4,24l-9.20533,-12.14369l-8.29467,-0.85631l10.61509,17.33241l-19.11509,21.66759l2.44348,-18.48468c0,0 -5.80202,-5.62044 -6.94348,-4.51532c-31.73275,30.72236 -84.25,28.75 -84.25,28.75l-15.25,-22.68214l13.5,9.5l-2,-10l8.5,3z" fill="#3a2f41" stroke="url(#color-4)" stroke-linecap="round"/></g></g><text transform="translate(319.5,113.93804) scale(0.5,0.5)" font-size="40" xml:space="preserve" fill="#3a2f41" fill-rule="nonzero" stroke="none" stroke-width="1" stroke-linecap="butt" stroke-linejoin="miter" stroke-miterlimit="10" stroke-dasharray="" stroke-dashoffset="0" font-family="Sans Serif" font-weight="normal" text-anchor="start" style="mix-blend-mode: normal"><tspan x="0" dy="0">susie</tspan></text></g></g></svg>