<svg version="1.1" xmlns="http://www.w3.org/2000/svg" xmlns:xlink="http://www.w3.org/1999/xlink" width="64.5" height="64.5" viewBox="0,0,64.5,64.5"><defs><linearGradient x1="212" y1="151" x2="212" y2="215.5" gradientUnits="userSpaceOnUse" id="color-1"><stop offset="0" stop-color="#ffffff"/><stop offset="1" stop-color="#e5e5e5"/></linearGradient></defs><g transform="translate(-212,-151)"><g data-paper-data="{&quot;isPaintingLayer&quot;:true}" fill-rule="nonzero" stroke-linecap="butt" stroke-linejoin="miter" stroke-miterlimit="10" stroke-dasharray="" stroke-dashoffset="0" style="mix-blend-mode: normal"><path d="M244.25,151c8.898,0 16.96,3.614 22.798,9.452c5.838,5.838 9.452,13.9 9.452,22.798c0,8.898 -3.614,16.96 -9.452,22.798c-5.838,5.838 -13.9,9.452 -22.798,9.452c-8.898,0 -16.96,-3.614 -22.798,-9.452c-5.838,-5.838 -9.452,-13.9 -9.452,-22.798c0,-8.898 3.614,-16.96 9.452,-22.798c5.838,-5.838 13.9,-9.452 22.798,-9.452z" fill="url(#color-1)" stroke="none" stroke-width="1"/><g stroke="#3b3045"><path d="M238.0948,177.89367c9.58981,-0.02598 34.20005,-2.98575 34.20005,-2.98575c0,0 -1.05057,13.3118 -11.49431,20.02875c-4.77873,3.07343 -14.2635,3.47938 -21.65996,2.87752c-5.15798,-0.41977 -12.9596,-0.51067 -16.09743,-3.66699c-6.72069,-6.76024 -5.47091,-19.09076 -5.47091,-19.09076c0,0 11.997,2.86062 20.52257,2.83749z" fill="#3b3045" stroke-width="0.5"/><path d="M220.54057,184.74539l-2.06939,-8.92081l9.7953,1.7826z" fill="#e0dedc" stroke-width="1"/><path d="M232.29785,186.81453l-3.76863,-9.32659l10.11894,0.60594z" fill="#e0dedc" stroke-width="1"/><path d="M243.28741,185.89666l-3.54711,-7.70959l9.68623,-0.42536z" fill="#e0dedc" stroke-width="1"/><path d="M253.15167,184.54957l-3.166,-7.02779l10.01778,-0.74115z" fill="#e0dedc" stroke-width="1"/><path d="M263.14957,183.31342l-2.03025,-6.57739l9.35837,-0.75186z" fill="#e0dedc" stroke-width="1"/></g></g></g></svg>