<svg version="1.1" xmlns="http://www.w3.org/2000/svg" xmlns:xlink="http://www.w3.org/1999/xlink" width="292.63674" height="464.31582" viewBox="0,0,292.63674,464.31582"><g transform="translate(-92.37024,51.66997)"><g data-paper-data="{&quot;isPaintingLayer&quot;:true}" fill-rule="nonzero" stroke-linejoin="miter" stroke-miterlimit="10" stroke-dasharray="" stroke-dashoffset="0" style="mix-blend-mode: normal"><g><g stroke-linecap="butt"><path d="M121.85394,144.12457c12.13047,-17.5922 21.65213,-36.80801 21.65213,-36.80801l19.69317,-6.27819l5.57001,21.42232l-15.36537,34.55286c0,0 19.84907,3.6174 18.5754,7.37816c-0.22942,0.38135 -13.49314,51.41643 -13.49314,51.41643l-17.52079,4.59317l-36.8216,-49.19911z" data-paper-data="{&quot;index&quot;:null}" fill="#e1e2db" stroke="none" stroke-width="0"/><path d="M121.85392,144.12457c12.13047,-17.59219 21.65213,-36.808 21.65213,-36.808l19.69317,-6.27819l5.57001,21.42232l-11.16048,25.09713c0,0 -32.92515,13.62972 -53.30421,23.85921l-0.1608,-0.21485z" data-paper-data="{&quot;index&quot;:null}" fill="#8c9ca0" stroke="none" stroke-width="0"/><path d="M121.85393,144.12455c12.13047,-17.59219 21.65213,-36.808 21.65213,-36.808l19.69317,-6.27819l5.57001,21.42232l-15.36537,34.55286c0,0 19.84907,3.6174 18.5754,7.37816c-0.22942,0.38135 -13.49314,51.41643 -13.49314,51.41643l-17.52079,4.59317l-36.8216,-49.19911z" data-paper-data="{&quot;index&quot;:null}" fill="none" stroke="#3a2f41" stroke-width="2"/></g><g data-paper-data="{&quot;index&quot;:null}" stroke="#3a2f41" stroke-width="2"><path d="M177.40225,179.5776c0,0 -11.95305,24.32177 -16.38456,38.0484c-0.29367,0.90963 -11.56885,0.20066 -15.21451,-1.57633c-3.37676,-1.64593 0.05837,-31.3686 0.05837,-31.3686c0,0 12.3905,-18.4187 16.58766,-18.39832c4.37889,0.02125 14.95305,13.29483 14.95305,13.29483z" fill="#e1e2db" stroke-linecap="butt"/><path d="M171.92044,188.19335l-20.12099,-10.7891" fill="none" stroke-linecap="round"/></g></g><g data-paper-data="{&quot;index&quot;:null}" stroke="#3a2f41" stroke-linecap="butt"><g><path d="M150.76141,355.95411l-1.05012,-41.89c0.83471,0.19154 1.70303,0.29113 2.59322,0.28795c0.14728,-0.00414 0.29156,-0.0076 0.43195,-0.00959c10.31068,-0.14637 20.6069,-0.79948 30.90776,-1.30394c-0.2701,26.10414 -0.69268,47.2448 -0.69268,47.2448z" fill="#e1e2db" stroke-width="2"/><path d="" fill="#e1e2db" stroke-width="2"/><path d="" fill="#8c9ca0" stroke-width="0"/><path d="M184.02448,313.01994c-0.12588,21.84413 -0.36332,38.79208 -0.36332,38.79208l-32.01816,-0.11506l-1.18486,-37.48769" fill="none" stroke-width="2"/></g><g fill="#3a2f41" stroke-width="2"><path d="M108.30671,398.02643l35.78877,-24.31841c0,0 0.09419,-26.73083 1.81315,-34.09557c-0.01278,-7.44646 40.33341,5.01898 40.33341,5.01898l3.23647,49.0638z"/></g></g><g><path d="M188.31036,326.67475c0,0 -8.53827,4.47618 -23.47013,5.0535c-13.63384,0.52713 -20.4964,-4.92919 -20.4964,-4.92919l8.32234,-135.50297l31.3573,20.26229l4.2869,115.11639z" data-paper-data="{&quot;index&quot;:null}" fill="#e1e2db" stroke="none" stroke-width="0" stroke-linecap="butt"/><path d="M151.96358,218.94728l12.73275,-24.08851" fill="none" stroke="#3a2f41" stroke-width="2" stroke-linecap="round"/><path d="M145.64673,323.28551l1.99233,-30.43824l27.82136,1.45892l-0.66563,29.33268z" fill="#b8c1c0" stroke="none" stroke-width="0" stroke-linecap="butt"/><path d="M153.54238,281.16714l0.29583,-11.03539l13.20182,0.41904l-0.29582,11.03539z" fill="#b8c1c0" stroke="none" stroke-width="0" stroke-linecap="butt"/><path d="M164.07024,304.51616l0.34739,-18.45431l16.98288,0.13565l0.22129,18.41251z" fill="#b8c1c0" stroke="none" stroke-width="0" stroke-linecap="butt"/><path d="M172.06927,260.07343l-1.1445,-28.10898l13.68696,-0.43171l1.1445,28.10898z" fill="#b8c1c0" stroke="none" stroke-width="0" stroke-linecap="butt"/><path d="M174.73027,205.55336l9.2932,6.00502l4.2869,115.11639h-0.00001c0,0 -8.53826,4.47618 -23.47013,5.0535c-13.63384,0.52713 -20.4964,-4.92919 -20.4964,-4.92919l8.32234,-135.50297l3.95716,2.55703" data-paper-data="{&quot;index&quot;:null}" fill="none" stroke="#3a2f41" stroke-width="2" stroke-linecap="butt"/><path d="M154.18789,230.44208l-6.91911,-0.49938" fill="none" stroke="#3a2f41" stroke-width="2" stroke-linecap="round"/><path d="M153.90419,233.48704l-6.30294,-0.04067" fill="none" stroke="#3a2f41" stroke-width="2" stroke-linecap="round"/></g><g data-paper-data="{&quot;index&quot;:null}" stroke="#3a2f41" stroke-linecap="butt"><g><path d="" fill="#e1e2db" stroke-width="2"/><path d="M197.25819,348.73086c0,0 -2.39937,-16.99704 -5.29086,-38.8114c8.63616,-0.66596 17.24189,-1.73622 25.8646,-2.57264c2.45459,-0.2381 4.98548,-0.53377 7.56478,-0.86664l3.37473,35.72925z" fill="#e1e2db" stroke-width="2"/><path d="" fill="#8c9ca0" stroke-width="0"/><path d="M225.39668,306.48018l3.37473,35.72924l-31.51324,6.52144c0,0 -2.38751,-17.06217 -5.26262,-38.81358" fill="none" stroke-width="2"/></g><g fill="#3a2f41" stroke-width="2"><path d="M198.60834,395.46568l-3.39431,-49.05312c0,0 36.74441,-13.82342 37.17113,-9.49763c0.7689,7.79447 2.35336,38.89146 2.35336,38.89146l39.55851,35.11441z"/></g></g><g><g data-paper-data="{&quot;index&quot;:null}"><path d="M187.4825,327.77598l-6.41839,-119.53378l29.3713,-23.4502l20.87907,139.64971c0,0 -6.33301,6.19021 -19.97049,6.71826c-14.93585,0.57832 -23.86146,-3.38398 -23.86146,-3.38398z" data-paper-data="{&quot;index&quot;:null}" fill="#e1e2db" stroke="none" stroke-width="0" stroke-linecap="butt"/><path d="M214.41483,216.85797l-19.60998,-26.76747" fill="none" stroke="#3a2f41" stroke-width="2" stroke-linecap="round"/><path d="M211.06194,312.09221l-6.15168,-42.27304l17.30972,-3.79199l5.82577,42.3782z" fill="#b8c1c0" stroke="none" stroke-width="0" stroke-linecap="butt"/><path d="M197.89311,264.08468l-1.31971,-11.40318l13.11904,-1.47372l1.31971,11.40318z" fill="#b8c1c0" stroke="none" stroke-width="0" stroke-linecap="butt"/><path d="M206.72885,187.75132l3.70654,-2.95932l20.87907,139.64971c0,0 -6.33302,6.19021 -19.9705,6.71826c-14.93585,0.57832 -23.86145,-3.38398 -23.86145,-3.38398h-0.00001l-6.41839,-119.53378l8.70462,-6.94981" data-paper-data="{&quot;index&quot;:null}" fill="none" stroke="#3a2f41" stroke-width="2" stroke-linecap="butt"/></g><path d="M203.64542,194.43349l11.43788,14.62122" fill="none" stroke="#3a2f41" stroke-width="2" stroke-linecap="round"/></g><g><g data-paper-data="{&quot;index&quot;:null}" stroke-linecap="butt"><path d="M172.16058,217.67451l-0.31147,-19.08849l19.0913,-1.82874l2.75165,22.25357z" fill="#8c9ca0" stroke="#3a2f41" stroke-width="2"/><path d="M172.13832,215.12755l-0.31148,-19.0885l19.0913,-1.82874l2.75165,22.25357z" fill="#e1e2db" stroke="#e1e2db" stroke-width="3.5"/></g><path d="M182.16412,218.30467l-2.58379,-8.34064l-2.70011,-13.76541" data-paper-data="{&quot;index&quot;:null}" fill="none" stroke="#3a2f41" stroke-width="2" stroke-linecap="round"/></g><path d="M178.29058,91.90293c0.04558,-0.49542 1.46432,-4.39561 2.51866,-4.80674c0.6391,-0.5606 12.05082,-5.12956 13.54121,-4.74822c2.35581,0.60279 11.68685,6.0716 12.60426,7.11847c0.51768,0.32507 0.44411,3.73341 0.35285,5.11816" fill="none" stroke="#3a2f41" stroke-width="6.5" stroke-linecap="butt"/><g data-paper-data="{&quot;index&quot;:null}"><path d="M150.73961,73.19761c-6.67413,0.77008 1.59962,-44.741 25.33786,-40.31477c14.63178,2.72826 45.48167,9.38308 59.39356,21.29814c22.23777,19.04589 18.10059,54.66134 18.10059,54.66134c0,0 -63.36084,-40.19922 -102.83205,-35.64474z" data-paper-data="{&quot;index&quot;:null}" fill="#3a2f41" stroke="#3a2f41" stroke-width="2" stroke-linecap="butt"/><path d="M130.69635,23.61292c0.41193,-4.47732 -3.54644,-22.41537 -3.54644,-22.41537c0,0 31.90638,-37.52609 38.55519,-39.55587c6.79239,-0.41777 44.29425,15.7013 44.29425,15.7013c0,0 42.11948,-0.93113 45.08872,3.11879c1.99218,2.71724 14.87306,36.72268 14.87306,36.72268c0,0 -5.31702,18.46349 -5.75212,23.19268c-2.24567,24.4087 -44.39103,30.79234 -74.65212,28.00822z" fill="#3a2f41" stroke="#3a2f41" stroke-width="2" stroke-linecap="butt"/><path d="M171.01275,3.83956c2.51378,-6.33071 39.02987,31.01429 23.71043,50.57078c-24.53634,31.32262 -91.81566,28.36117 -91.81566,28.36117c0,0 53.23851,-41.49161 68.10521,-78.93195z" data-paper-data="{&quot;index&quot;:null}" fill="#3a2f41" stroke="#3a2f41" stroke-width="2" stroke-linecap="butt"/><path d="M210.18415,68.15373c-13.82946,-19.15288 24.55719,-41.22423 26.59554,-35.18016c12.05501,35.74513 48.21516,56.57968 48.21516,56.57968c0,0 -52.66078,9.27662 -74.81069,-21.39953z" data-paper-data="{&quot;index&quot;:null}" fill="#3a2f41" stroke="#3a2f41" stroke-width="2" stroke-linecap="butt"/><path d="M235.16738,81.71836c-37.97759,-11.68001 -107.6096,16.28347 -107.6096,16.28347c0,0 2.43073,-35.77246 27.77034,-50.44108c15.8524,-9.17666 47.39864,-10.09085 62.28261,-10.10356c24.14736,-0.02061 23.97819,46.23612 17.55661,44.26119z" data-paper-data="{&quot;index&quot;:null}" fill="#3a2f41" stroke="#3a2f41" stroke-width="2" stroke-linecap="butt"/><path d="M222.55772,59.28786c-8.91513,-15.98828 22.6195,-29.51092 23.64287,-24.67537c27.00559,14.89392 46.00485,47.33171 46.00485,47.33171c0,0 -34.00807,-15.18137 -70.6455,-22.00377z" fill="#3a2f41" stroke="#3a2f41" stroke-width="2" stroke-linecap="butt"/><path d="M231.31592,34.26141c-10.44191,-14.00864 12.01226,-31.73849 13.87366,-27.19128c11.00844,26.89253 48.92485,17.57377 48.92485,17.57377c0,0 -15.44068,20.80693 -31.5266,23.24697c-9.81168,1.48832 -24.93569,-5.12895 -31.2719,-13.62948z" fill="#3a2f41" stroke="#3a2f41" stroke-width="2" stroke-linecap="butt"/><path d="M144.24057,25.25166c6.11544,0.23817 40.53997,6.47994 28.85727,20.57315c-35.08878,6.92266 -78.10482,26.82852 -78.10482,26.82852c0,0 30.0311,-48.15007 49.24755,-47.40167z" data-paper-data="{&quot;index&quot;:null}" fill="#3a2f41" stroke="#3a2f41" stroke-width="2" stroke-linecap="butt"/><path d="M154.72493,32.39073c-9.97929,9.23651 -25.38246,12.47671 -34.17737,6.2687c-9.30499,-6.56806 -17.20123,-23.3919 -17.20123,-23.3919c0,0 26.96869,12.28944 42.6992,-12.14302c2.65984,-4.13122 21.50203,17.39798 8.67939,29.26622z" data-paper-data="{&quot;index&quot;:null}" fill="#3a2f41" stroke="#3a2f41" stroke-width="2" stroke-linecap="butt"/><g data-paper-data="{&quot;index&quot;:null}" stroke-linecap="butt"><path d="M147.10907,37.43202c0.41021,-18.93349 14.81849,-40.86414 40.07732,-40.84751c38.39856,0.02529 51.79079,24.46265 51.38055,43.39613c-0.41019,18.93349 -13.2839,34.80096 -46.47638,33.22461c-16.5778,-0.78726 -30.19046,-4.9555 -37.30177,-11.18158c-7.31543,-6.40477 -7.88773,-14.99097 -7.67972,-24.59167z" fill="#e1e2db" stroke="none" stroke-width="0"/><path d="M147.10908,37.43201c0.41021,-18.93349 14.81849,-40.86414 40.07732,-40.84751c38.39856,0.02529 51.79079,24.46265 51.38055,43.39613c-0.41019,18.93348 -31.538,6.45214 -52.24103,5.72493c-20.70716,-0.72735 -39.62708,10.65993 -39.21686,-8.27355z" fill="#b8c1c0" stroke="none" stroke-width="0"/><path d="M202.91755,-1.40396c26.39214,5.70673 35.98829,25.74307 35.64011,41.81396c-0.41019,18.93349 -13.28391,34.80094 -46.47639,33.2246c-17.67863,-0.83954 -30.49657,-5.10835 -37.49746,-12.04298c-6.31745,-6.25763 -7.6786,-14.74933 -7.48402,-23.73026h-0.00001c0.36966,-17.06122 10.21867,-46.3482 55.67764,-39.31169" fill="none" stroke="#3a2f41" stroke-width="2"/></g><path d="M209.85852,-39.176c-1.76657,-6.49516 -5.80248,-11.05232 -4.1787,-11.49397c1.62379,-0.44165 16.90635,-1.04849 18.67293,5.44669c1.76657,6.49516 -14.67947,22.37218 -14.67947,22.37218c0,0 1.95182,-9.82975 0.18525,-16.32492z" fill="#3a2f41" stroke="#3a2f41" stroke-width="2" stroke-linecap="butt"/><path d="M235.48178,8.66096c12.2269,12.50325 17.90163,26.7826 12.67486,31.89385c-2.45908,2.40472 3.13444,11.47286 -2.40834,10.33995c-18.92569,-3.86824 -35.97883,-29.7879 -35.97883,-29.7879c0,0 -17.47082,-14.50579 -5.89033,-25.83032c5.22676,-5.11125 19.37575,0.88116 31.60264,13.38441z" fill="#3a2f41" stroke="#3a2f41" stroke-width="2" stroke-linecap="butt"/><path d="M153.07518,-4.73454c17.97192,-9.0923 42.11879,-9.48519 48.23633,0.45644c6.11753,9.94164 -8.11084,26.45311 -26.08278,35.54541c-17.97192,9.0923 -37.50029,8.40377 -43.61783,-1.53786c-6.11753,-9.94164 3.49234,-25.37169 21.46428,-34.46399z" fill="#3a2f41" stroke="#3a2f41" stroke-width="2" stroke-linecap="butt"/><path d="M194.34316,4.58063c10.01143,-0.6735 21.32741,4.64945 18.9461,10.95173c-9.27439,24.54511 -37.88137,24.65972 -37.88137,24.65972c0,0 6.11781,-17.33133 6.11385,-25.12398c-0.00341,-6.73717 2.80999,-9.81399 12.82143,-10.48748z" data-paper-data="{&quot;index&quot;:null}" fill="#3a2f41" stroke="#3a2f41" stroke-width="2" stroke-linecap="butt"/><path d="M243.01237,32.70431c8.71417,2.53852 15.73003,6.75036 11.36669,13.00391c-10.8058,15.4869 -34.11393,17.32344 -34.11393,17.32344l16.04534,-29.43608c0,0 -2.01228,-3.42982 6.70189,-0.89129z" data-paper-data="{&quot;index&quot;:null}" fill="#3a2f41" stroke="#3a2f41" stroke-width="2" stroke-linecap="butt"/><g stroke-linecap="butt"><path d="M232.19881,52.56628c-2.87687,1.36061 -7.41056,1.77262 -12.69775,-0.00649c-1.95531,-0.65795 -5.75204,-2.62378 -5.75204,-2.62378c0,0 14.9036,-2.4138 15.06648,-2.17343c2.69663,3.97961 7.66321,0.91443 7.66321,0.91443c0,0 -1.23427,2.44884 -4.27991,3.88927z" fill="#3a2f41" stroke-opacity="0.10723" stroke="#ffffff" stroke-width="0.25"/><g data-paper-data="{&quot;index&quot;:null}" stroke-width="1"><path d="M227.4814,48.19684c0,0 -5.78822,7.98319 -17.72016,8.85362c-11.26182,0.82154 -17.90399,-4.92579 -17.90399,-4.92579z" fill="#e1e2db" stroke="#3a2f41"/><g fill="none" stroke="none" font-family="sans-serif" font-weight="normal" font-size="12" text-anchor="start"/></g></g><path d="M218.74804,49.47111l-0.43976,4.77981" fill="none" stroke="#3a2f41" stroke-width="1" stroke-linecap="round"/><path d="M171.99118,69.12106c-2.48091,-1.60836 -5.18151,-8.01759 -5.18151,-8.01759c0,0 -2.78564,-0.58968 -4.4924,-1.40947c-2.0194,-0.96996 -2.94135,-2.13941 -1.84996,-1.2834c6.7946,5.32923 25.15391,1.31113 25.15391,1.31113c0,0 12.1755,0.5298 17.42713,0.41818c9.28835,-0.1974 11.05709,-2.57029 11.26995,-1.99683c0.34079,0.91811 -0.91699,8.61423 -4.05013,11.27637c-4.72274,4.01278 -31.84164,3.87357 -38.27697,-0.29839z" fill="#e1e2db" stroke="#3a2f41" stroke-width="1" stroke-linecap="butt"/><path d="M214.1008,58.32393l-8.75905,12.24904l-5.34938,-9.53017l-5.69837,11.72726l-7.51941,-12.13995l-5.22676,10.96727l-6.56266,-9.44095l-1.25711,7.11475l-6.49176,-8.02851" fill="none" stroke="#3a2f41" stroke-width="1" stroke-linecap="round"/></g><path d="M211.77688,35.11123c0,0 -14.05187,11.59254 -19.67937,14.62508c-4.08052,2.19892 -3.80549,-2.22452 -3.80549,-2.22452" fill="none" stroke="#3a2f41" stroke-width="1" stroke-linecap="round"/><g><path d="M160.19704,157.84512c0,0 3.47864,-0.15165 8.7836,0.87238c0.29287,0.05653 31.40638,5.72153 31.69723,5.78844c4.12443,0.94871 7.76825,-0.29222 7.76825,-0.29222l9.9444,11.85631l-8.21015,10.23395l3.87426,10.55798l-34.40733,10.23865l-31.63242,-17.23176l6.24468,-9.95586l-4.2771,-11.35329z" fill="#e1e2db" stroke="#3a2f41" stroke-width="2" stroke-linecap="butt"/><path d="M159.97495,167.65044c0,0 -1.87629,-13.89108 -1.4259,-23.72087c0.87541,-19.10627 -3.9446,-33.69935 9.50321,-46.5957c8.7204,-8.36279 19.17282,-8.21157 29.03599,-7.35173c8.98993,0.78372 28.57717,11.64719 29.67612,16.33654c3.5795,15.27439 -7.1258,36.63068 -13.11233,49.61072c-3.41586,7.40633 -4.20166,17.03214 -4.20166,17.03214l-29.94184,7.21291z" fill="#c1c1c1" stroke="none" stroke-width="0" stroke-linecap="round"/><g stroke="none"><g fill="#c1c1c1" stroke-width="0" stroke-linecap="round"><g><g><path d="M217.22796,108.57085c0,0 1.84112,2.444 4.13775,7.84723c0.38704,0.91058 0.72799,1.88138 1.02397,2.88691c1.84217,6.25837 1.94243,13.86194 0.57499,16.6673c-1.37661,3.77652 -3.06727,7.61262 -7.44068,10.34273c-3.21112,2.00452 -6.70995,2.01922 -10.17503,2.34312c-6.60094,0.61697 -14.59227,-1.69284 -22.8063,-3.20143c-7.81267,-1.43488 -18.17242,2.04011 -23.67268,-0.76771c-2.66847,-1.36221 -4.0684,-5.47504 -6.48002,-8.37638c-5.22554,-6.2867 -2.84585,-12.79238 -2.19488,-13.46283c3.91414,-12.00222 15.90497,-23.21685 15.90497,-23.21685"/></g></g></g><g stroke-linecap="butt"><g><g fill="none" stroke-width="1" font-family="sans-serif" font-weight="normal" font-size="12" text-anchor="start"/><path d="M217.29938,111.82226c0.07042,-0.76539 -7.86907,-13.61288 -5.84852,-13.42699c2.02055,0.1859 8.89884,12.37428 8.45062,11.77187c-2.74062,-3.68343 -5.38328,-6.61364 -5.38328,-6.61364c0,0 4.32109,7.87753 5.16857,10.06005c0.91786,2.36375 -2.42402,-1.39337 -2.38741,-1.79134z" fill="#ffffff" stroke-width="0"/></g><path d="M174.73071,94.72784c1.87743,0.79337 -10.89036,8.43869 -11.1683,9.15193c-0.14453,0.37085 -4.78441,2.12277 -2.9175,0.45859c1.72372,-1.53656 9.06647,-6.48385 9.06647,-6.48385c0,0 1.11226,-0.99269 -2.96074,0.97896c-0.66614,0.32247 6.10262,-4.89897 7.98005,-4.10561z" data-paper-data="{&quot;index&quot;:null}" fill="#ffffff" stroke-width="0"/></g></g><path d="M226.26023,106.27232c0.6704,2.86073 1.00467,5.78757 1.07473,8.73995c-0.25911,1.07242 -73.23968,23.75578 -73.23968,23.75578l-2.46661,-18.33531c0,0 15.07254,-22.33307 15.91943,-23.14522c8.7204,-8.36279 19.17282,-8.21157 29.03599,-7.35173c8.98993,0.78372 28.57717,11.64719 29.67612,16.33654z" fill="#6d6972" stroke="none" stroke-width="0" stroke-linecap="butt"/><g stroke="none"><g fill="#6d6972" stroke-width="0" stroke-linecap="round"><g><g><path d="M217.7321,108.61722l4.13775,7.84723l-67.93997,20.79324l-8.4979,-10.81386c0,0 7.18265,-11.49839 10.78824,-16.2921c3.22621,-4.2893 9.83398,-11.12552 9.83398,-11.12552"/></g></g></g><g fill="none" stroke-width="1" stroke-linecap="butt" font-family="sans-serif" font-weight="normal" font-size="12" text-anchor="start"><g><g/></g></g></g><path d="M167.10586,98.27503c0.30496,-0.31475 0.6203,-0.62846 0.94639,-0.94118c8.7204,-8.36279 19.17282,-8.21157 29.03599,-7.35173c8.98993,0.78372 28.57717,11.64719 29.67612,16.33654c5.62195,23.98985 -18.33666,54.59327 -17.75704,65.93262c-1.01757,2.67996 -29.95711,7.37888 -29.95711,7.37888l-18.18924,-12.4003c0,0 -2.14704,-14.66441 -1.86415,-21.43365" fill="none" stroke="#3a2f41" stroke-width="2" stroke-linecap="round"/><path d="M159.04324,145.94344l-13.60766,-19.85452c0,0 12.24331,-19.21787 22.24206,-28.5803" fill="none" stroke="#3a2f41" stroke-width="2" stroke-linecap="round"/><path d="M203.83812,198.60831l-0.82598,-24.17735" fill="none" stroke="#3a2f41" stroke-width="2" stroke-linecap="round"/><path d="M183.44421,204.7658l0.36551,-26.07618" fill="none" stroke="#3a2f41" stroke-width="2" stroke-linecap="round"/><path d="M161.81229,196.75025l2.42783,-26.38855" fill="none" stroke="#3a2f41" stroke-width="2" stroke-linecap="round"/><path d="M188.70321,178.06527c0,0 5.85757,-55.50031 21.09516,-83.7529c0.73916,-1.3705 10.0771,4.52261 9.92342,4.92988c-15.39363,40.7951 -17.67624,75.69893 -17.67624,75.69893z" fill="#e1e2db" stroke="none" stroke-width="0" stroke-linecap="butt"/><path d="M160.5581,167.44205c0,0 -7.10773,-38.2824 1.73155,-66.11943c0.73916,-1.3705 12.92776,-8.27002 12.77408,-7.86276c-15.39363,40.7951 -3.46827,81.35774 -3.46827,81.35774z" fill="#e1e2db" stroke="none" stroke-width="0" stroke-linecap="butt"/><path d="M212.48166,120.00579c-0.04849,0.20065 -14.11702,5.04219 -14.11702,5.04219l9.4207,-28.21378l-33.24363,-2.45936c0,0 -4.11921,12.53189 -5.21693,18.67686c-1.26748,7.09522 -1.95217,21.45505 -1.95217,21.45505l-9.47341,2.93756l-0.08201,-18.78541c0,0 3.11501,-16.06888 3.9619,-16.88104c8.7204,-8.36279 24.94182,-12.70192 34.80498,-11.84209c8.98993,0.78372 22.09523,5.69498 23.19417,10.38432z" fill="#8c9ca0" stroke="none" stroke-width="0" stroke-linecap="butt"/><path d="M179.20935,87.03571c0.18518,-0.05165 0.49084,-0.4246 1.11194,0.12579c2.83638,2.51345 9.26716,9.79785 9.26716,9.79785l-17.85737,4.3476z" data-paper-data="{&quot;index&quot;:null}" fill="#8c9ca0" stroke="#3a2f41" stroke-width="5" stroke-linecap="round"/><path d="M160.5581,167.44205c0,0 -7.10773,-38.2824 1.73155,-66.11943c0.73916,-1.3705 12.92776,-8.27002 12.77408,-7.86276c-15.39363,40.7951 -3.46827,81.35774 -3.46827,81.35774z" fill="none" stroke="#3a2f41" stroke-width="2" stroke-linecap="butt"/><path d="M189.61283,97.00466c0,0 -7.65675,-8.76057 -4.09491,-10.45544c4.23786,-2.01656 19.88066,2.94876 20.89891,2.53691c4.09699,-6.23397 3.45033,18.83905 3.45033,18.83905z" fill="#3a2f41" stroke="#3a2f41" stroke-width="4.5" stroke-linecap="round"/><path d="M188.7032,178.06527c0,0 5.85757,-55.50031 21.09516,-83.7529c0.73916,-1.3705 10.0771,4.52261 9.92342,4.92988c-15.39363,40.7951 -17.67624,75.69893 -17.67624,75.69893z" fill="none" stroke="#3a2f41" stroke-width="2" stroke-linecap="butt"/><g><path d="M179.23989,86.70375c0.18518,-0.05165 0.49084,-0.4246 1.11194,0.12579c2.83637,2.51345 9.26716,9.79785 9.26716,9.79785l-17.85737,4.3476z" data-paper-data="{&quot;index&quot;:null}" fill="#6d6972" stroke="#12161a" stroke-width="0" stroke-linecap="round"/><path d="M189.64337,96.67271c0,0 14.9299,-7.16053 16.80399,-7.91854c4.33106,-6.59008 2.99201,18.29478 2.99201,18.29478z" fill="#6d6972" stroke="#12161a" stroke-width="0" stroke-linecap="round"/><path d="M177.98919,91.54045c0.04558,-0.49542 1.46432,-4.39561 2.51866,-4.80674c0.6391,-0.5606 12.05082,-5.12956 13.54121,-4.74822c2.35581,0.6028 12.51176,5.39433 13.42916,6.4412c0.51768,0.32507 -0.38079,4.41068 -0.47206,5.79543" fill="none" stroke="#6d6972" stroke-width="2" stroke-linecap="butt"/></g></g><g data-paper-data="{&quot;index&quot;:null}" stroke-linecap="butt"><g fill="#3a2f41" stroke="none"><path d="M293.16018,121.17865c0,0 6.50528,-14.53706 30.20223,-34.69482c24.95499,-21.22792 61.64457,-32.97259 61.64457,-32.97259l-69.77635,88.78979z" stroke-width="NaN"/><path d="M282.07437,163.72246l31.01158,-40.28809l8.49612,6.79757l-31.01158,40.28809z" stroke-width="0"/></g><g><path d="M212.92089,128.69519l6.95278,-28.46275l19.41163,10.01491l22.51731,35.22297l5.17823,-16.09076c0,0 19.91007,-5.24699 21.3894,-3.80047c0.27089,0.41206 27.09523,26.97203 27.09523,26.97203l-5.84476,19.41975l-48.77476,31.36409z" data-paper-data="{&quot;index&quot;:null}" fill="#e1e2db" stroke="none" stroke-width="0"/><path d="M212.9209,128.69519l6.95277,-28.46274l19.41163,10.01491l22.51731,35.22297l5.17824,-16.09075c0,0 19.91008,-5.24699 21.3894,-3.80047c0.27088,0.41206 27.09523,26.97203 27.09523,26.97203l-5.84476,19.41975l-48.77477,31.36408z" data-paper-data="{&quot;index&quot;:null}" fill="none" stroke="#3a2f41" stroke-width="2"/></g></g></g></g></svg>