<svg xmlns="http://www.w3.org/2000/svg" xmlns:xlink="http://www.w3.org/1999/xlink" version="1.1" width="194.3662909269333" height="109.83009707927704" viewBox="-0.1650485396385193 -0.6650485396385193 194.3662909269333 109.83009707927704">
  <!-- Exported by Scratch - http://scratch.mit.edu/ -->
  <path id="ID0.9129331279546022" fill="#CCFFFF" stroke="none" d="M 2 0 L 190 0 L 190 108 L 2 108 L 2 0 Z " stroke-width="1"/>
  <path id="ID0.45689168991521" fill="#00CC44" stroke="none" d="M 0.5027 49.5 L 192.4761 49.5 L 192.4761 108.5 L 0.5027 108.5 L 0.5027 49.5 Z " stroke-width="1.0133851082627463"/>
  <path id="ID0.7048041075468063" fill="#00CC44" stroke="none" d="M 23.9311 40.5 C 30.3751 40.5 36.2133 41.368 40.4408 42.771 C 44.6694 44.174 47.2862 46.112 47.2862 48.25 C 47.2862 50.388 44.6694 52.326 40.4408 53.729 C 36.2133 55.132 30.3751 56 23.9311 56 C 17.4872 56 11.6489 55.132 7.4214 53.729 C 3.1929 52.326 0.5761 50.388 0.5761 48.25 C 0.5761 46.112 3.1929 44.174 7.4214 42.771 C 11.6489 41.368 17.4872 40.5 23.9311 40.5 Z " stroke-width="1.0133851082627463"/>
  <path id="ID0.7048041075468063" fill="#00CC44" stroke="none" d="M 56.8811 39.75 C 63.3251 39.75 69.1633 40.618 73.3908 42.021 C 77.6194 43.424 80.2362 45.362 80.2362 47.5 C 80.2362 49.638 77.6194 51.576 73.3908 52.979 C 69.1633 54.382 63.3251 55.25 56.8811 55.25 C 50.4372 55.25 44.5989 54.382 40.3714 52.979 C 36.1429 51.576 33.5261 49.638 33.5261 47.5 C 33.5261 45.362 36.1429 43.424 40.3714 42.021 C 44.5989 40.618 50.4372 39.75 56.8811 39.75 Z " stroke-width="1.0133851082627463"/>
  <path id="ID0.7048041075468063" fill="#00CC44" stroke="none" d="M 123.6811 41.25 C 130.1251 41.25 135.9633 42.118 140.1908 43.521 C 144.4194 44.924 147.0362 46.862 147.0362 49 C 147.0362 51.138 144.4194 53.076 140.1908 54.479 C 135.9633 55.882 130.1251 56.75 123.6811 56.75 C 117.2372 56.75 111.3989 55.882 107.1714 54.479 C 102.9429 53.076 100.3261 51.138 100.3261 49 C 100.3261 46.862 102.9429 44.924 107.1714 43.521 C 111.3989 42.118 117.2372 41.25 123.6811 41.25 Z " stroke-width="1.0133851082627463"/>
  <path id="ID0.7048041075468063" fill="#00CC44" stroke="none" d="M 153.4311 41.25 C 159.8751 41.25 165.7133 42.118 169.9408 43.521 C 174.1694 44.924 176.7862 46.862 176.7862 49 C 176.7862 51.138 174.1694 53.076 169.9408 54.479 C 165.7133 55.882 159.8751 56.75 153.4311 56.75 C 146.9872 56.75 141.1489 55.882 136.9214 54.479 C 132.6929 53.076 130.0761 51.138 130.0761 49 C 130.0761 46.862 132.6929 44.924 136.9214 43.521 C 141.1489 42.118 146.9872 41.25 153.4311 41.25 Z " stroke-width="1.0133851082627463"/>
  <path id="ID0.7048041075468063" fill="#00CC44" stroke="none" d="M 170.1811 41 C 176.6251 41 182.4633 41.868 186.6908 43.271 C 190.9194 44.674 193.5362 46.612 193.5362 48.75 C 193.5362 50.888 190.9194 52.826 186.6908 54.229 C 182.4633 55.632 176.6251 56.5 170.1811 56.5 C 163.7372 56.5 157.8989 55.632 153.6714 54.229 C 149.4429 52.826 146.8261 50.888 146.8261 48.75 C 146.8261 46.612 149.4429 44.674 153.6714 43.271 C 157.8989 41.868 163.7372 41 170.1811 41 Z " stroke-width="1.0133851082627463"/>
  <path id="ID0.068916748277843" fill="#003FFF" stroke="none" d="M 1 96 L 192 96 L 192 108.5 L 1 108.5 L 1 96 Z " stroke-width="1"/>
  <path id="ID0.35369081888347864" fill="#00FF55" stroke="none" d="M 0.5 96 L 52 96 L 52 108.5 L 0.5 108.5 L 0.5 96 Z " stroke-width="1"/>
  <path id="ID0.7048041075468063" fill="#00CC44" stroke="none" d="M 89.2811 39.75 C 95.7251 39.75 101.5633 40.618 105.7908 42.021 C 110.0194 43.424 112.6362 45.362 112.6362 47.5 C 112.6362 49.638 110.0194 51.576 105.7908 52.979 C 101.5633 54.382 95.7251 55.25 89.2811 55.25 C 82.8372 55.25 76.9989 54.382 72.7714 52.979 C 68.5429 51.576 65.9261 49.638 65.9261 47.5 C 65.9261 45.362 68.5429 43.424 72.7714 42.021 C 76.9989 40.618 82.8372 39.75 89.2811 39.75 Z " stroke-width="1.0133851082627463"/>
  <g id="ID0.8657724768854678">
    <path id="ID0.24283110396936536" fill="#FFFFFF" stroke="none" d="M 80.4155 39.5461 L 114.333 39.5461 L 114.333 57.5024 L 80.4155 57.5024 L 80.4155 39.5461 Z " stroke-width="0.6650485396385193"/>
    <path id="ID0.29514826415106654" fill="#003FFF" stroke="none" d="M 80.083 34.5583 L 114.333 34.5583 L 114.333 39.8786 L 80.083 39.8786 L 80.083 34.5583 Z " stroke-width="0.6650485396385193"/>
    <path id="ID0.35489451000466943" fill="none" stroke="#000000" stroke-width="1.3300970792770386" stroke-linecap="round" d="M 92.0539 46.6954 C 92.0539 46.6954 93.6074 46.5996 94.3816 46.5291 C 94.8258 46.4886 95.274 46.2751 95.7116 46.3629 C 96.1493 46.4506 96.4612 46.8623 96.8755 47.0279 C 97.2991 47.1975 97.7647 47.4781 98.2056 47.3604 C 98.699 47.2288 98.8952 46.5524 99.3694 46.3629 C 99.7804 46.1986 100.2599 46.3077 100.6995 46.3629 C 101.1524 46.4194 101.5807 46.6109 102.0296 46.6954 C 102.4685 46.7779 102.9141 46.8337 103.3597 46.8616 C 103.802 46.8896 104.2788 47.0259 104.6898 46.8616 C 105.164 46.6721 105.3482 45.7949 105.8536 45.8641 C 106.8133 45.9951 107.4458 47.0073 108.3476 47.3604 C 108.7599 47.522 109.2347 47.3604 109.6777 47.3604 C 109.9543 47.3604 110.509 47.3604 110.509 47.3604 "/>
    <g id="ID0.13980314880609512">
      <path id="ID0.08102370938286185" fill="#FF0000" stroke="none" d="M 108.8325 34.5595 L 114.3192 34.5595 L 114.3192 40.0461 L 108.8325 40.0461 L 108.8325 34.5595 Z " stroke-width="0.6650485396385193"/>
      <g id="ID0.10746095748618245">
        <path id="ID0.8113831053487957" fill="none" stroke="#FFFFFF" stroke-width="0.46254915922061457" stroke-linecap="round" d="M 109.3535 35.2453 L 113.9188 39.7262 "/>
        <path id="ID0.5432213474996388" fill="none" stroke="#FFFFFF" stroke-width="0.46254915922061457" stroke-linecap="round" d="M 108.8164 39.6328 L 113.7174 35.8054 "/>
      </g>
    </g>
    <g id="ID0.6555408979766071">
      <path id="ID0.5830202791839838" fill="#FF0000" stroke="none" d="M 85.4727 43.3689 C 86.3672 43.3689 87.1779 43.732 87.7645 44.3193 C 88.3517 44.9059 88.7148 45.7166 88.7148 46.611 C 88.7148 47.5055 88.3517 48.3162 87.7645 48.9028 C 87.1779 49.49 86.3672 49.8532 85.4727 49.8532 C 84.5782 49.8532 83.7675 49.49 83.1809 48.9028 C 82.5937 48.3162 82.2306 47.5055 82.2306 46.611 C 82.2306 45.7166 82.5937 44.9059 83.1809 44.3193 C 83.7675 43.732 84.5782 43.3689 85.4727 43.3689 Z " stroke-width="0.6650485396385193"/>
      <g id="ID0.10746095748618245">
        <path id="ID0.8113831053487957" fill="none" stroke="#FFFFFF" stroke-width="0.3509931857501479" stroke-linecap="round" d="M 83.8277 44.8499 L 87.2919 48.2501 "/>
        <path id="ID0.5432213474996388" fill="none" stroke="#FFFFFF" stroke-width="0.3509931857501479" stroke-linecap="round" d="M 83.4201 48.1793 L 87.1391 45.275 "/>
      </g>
    </g>
  </g>
  <g id="ID0.8657724768854678">
    <path id="ID0.24283110396936536" fill="#FFFFFF" stroke="none" d="M 27.6155 15.3961 L 61.533 15.3961 L 61.533 33.3524 L 27.6155 33.3524 L 27.6155 15.3961 Z " stroke-width="0.6650485396385193"/>
    <path id="ID0.29514826415106654" fill="#003FFF" stroke="none" d="M 27.283 10.4083 L 61.533 10.4083 L 61.533 15.7286 L 27.283 15.7286 L 27.283 10.4083 Z " stroke-width="0.6650485396385193"/>
    <path id="ID0.35489451000466943" fill="none" stroke="#000000" stroke-width="1.3300970792770386" stroke-linecap="round" d="M 39.2539 22.5454 C 39.2539 22.5454 40.8074 22.4496 41.5816 22.3791 C 42.0258 22.3386 42.474 22.1251 42.9116 22.2129 C 43.3493 22.3006 43.6612 22.7123 44.0755 22.8779 C 44.4991 23.0475 44.9647 23.3281 45.4056 23.2104 C 45.899 23.0788 46.0952 22.4024 46.5694 22.2129 C 46.9804 22.0486 47.4599 22.1577 47.8995 22.2129 C 48.3524 22.2694 48.7807 22.4609 49.2296 22.5454 C 49.6685 22.6279 50.1141 22.6837 50.5597 22.7116 C 51.002 22.7396 51.4788 22.8759 51.8898 22.7116 C 52.364 22.5221 52.5482 21.6449 53.0536 21.7141 C 54.0133 21.8451 54.6458 22.8573 55.5476 23.2104 C 55.9599 23.372 56.4347 23.2104 56.8777 23.2104 C 57.1543 23.2104 57.709 23.2104 57.709 23.2104 "/>
    <g id="ID0.13980314880609512">
      <path id="ID0.08102370938286185" fill="#FF0000" stroke="none" d="M 56.0325 10.4095 L 61.5192 10.4095 L 61.5192 15.8961 L 56.0325 15.8961 L 56.0325 10.4095 Z " stroke-width="0.6650485396385193"/>
      <g id="ID0.10746095748618245">
        <path id="ID0.8113831053487957" fill="none" stroke="#FFFFFF" stroke-width="0.46254915922061457" stroke-linecap="round" d="M 56.5535 11.0953 L 61.1188 15.5762 "/>
        <path id="ID0.5432213474996388" fill="none" stroke="#FFFFFF" stroke-width="0.46254915922061457" stroke-linecap="round" d="M 56.0164 15.4828 L 60.9174 11.6554 "/>
      </g>
    </g>
    <g id="ID0.6555408979766071">
      <path id="ID0.5830202791839838" fill="#FF0000" stroke="none" d="M 32.6727 19.2189 C 33.5672 19.2189 34.3779 19.582 34.9645 20.1693 C 35.5517 20.7559 35.9148 21.5666 35.9148 22.461 C 35.9148 23.3555 35.5517 24.1662 34.9645 24.7528 C 34.3779 25.34 33.5672 25.7032 32.6727 25.7032 C 31.7782 25.7032 30.9675 25.34 30.3809 24.7528 C 29.7937 24.1662 29.4306 23.3555 29.4306 22.461 C 29.4306 21.5666 29.7937 20.7559 30.3809 20.1693 C 30.9675 19.582 31.7782 19.2189 32.6727 19.2189 Z " stroke-width="0.6650485396385193"/>
      <g id="ID0.10746095748618245">
        <path id="ID0.8113831053487957" fill="none" stroke="#FFFFFF" stroke-width="0.3509931857501479" stroke-linecap="round" d="M 31.0777 20.7499 L 34.5419 24.1501 "/>
        <path id="ID0.5432213474996388" fill="none" stroke="#FFFFFF" stroke-width="0.3509931857501479" stroke-linecap="round" d="M 30.6701 24.0793 L 34.3891 21.175 "/>
      </g>
    </g>
  </g>
  <g id="ID0.8657724768854678">
    <path id="ID0.24283110396936536" fill="#FFFFFF" stroke="none" d="M 128.8155 14.6961 L 162.733 14.6961 L 162.733 32.6524 L 128.8155 32.6524 L 128.8155 14.6961 Z " stroke-width="0.6650485396385193"/>
    <path id="ID0.29514826415106654" fill="#003FFF" stroke="none" d="M 128.483 9.7083 L 162.733 9.7083 L 162.733 15.0286 L 128.483 15.0286 L 128.483 9.7083 Z " stroke-width="0.6650485396385193"/>
    <path id="ID0.35489451000466943" fill="none" stroke="#000000" stroke-width="1.3300970792770386" stroke-linecap="round" d="M 140.4539 21.8454 C 140.4539 21.8454 142.0074 21.7496 142.7816 21.6791 C 143.2258 21.6386 143.674 21.4251 144.1116 21.5129 C 144.5493 21.6006 144.8612 22.0123 145.2755 22.1779 C 145.6991 22.3475 146.1647 22.6281 146.6056 22.5104 C 147.099 22.3788 147.2952 21.7024 147.7694 21.5129 C 148.1804 21.3486 148.6599 21.4577 149.0995 21.5129 C 149.5524 21.5694 149.9807 21.7609 150.4296 21.8454 C 150.8685 21.9279 151.3141 21.9837 151.7597 22.0116 C 152.202 22.0396 152.6788 22.1759 153.0898 22.0116 C 153.564 21.8221 153.7482 20.9449 154.2536 21.0141 C 155.2133 21.1451 155.8458 22.1573 156.7476 22.5104 C 157.1599 22.672 157.6347 22.5104 158.0777 22.5104 C 158.3543 22.5104 158.909 22.5104 158.909 22.5104 "/>
    <g id="ID0.13980314880609512">
      <path id="ID0.08102370938286185" fill="#FF0000" stroke="none" d="M 157.2325 9.7095 L 162.7192 9.7095 L 162.7192 15.1961 L 157.2325 15.1961 L 157.2325 9.7095 Z " stroke-width="0.6650485396385193"/>
      <g id="ID0.10746095748618245">
        <path id="ID0.8113831053487957" fill="none" stroke="#FFFFFF" stroke-width="0.46254915922061457" stroke-linecap="round" d="M 157.7535 10.3953 L 162.3188 14.8762 "/>
        <path id="ID0.5432213474996388" fill="none" stroke="#FFFFFF" stroke-width="0.46254915922061457" stroke-linecap="round" d="M 157.2164 14.7828 L 162.1174 10.9554 "/>
      </g>
    </g>
    <g id="ID0.6555408979766071">
      <path id="ID0.5830202791839838" fill="#FF0000" stroke="none" d="M 133.8727 18.5189 C 134.7672 18.5189 135.5779 18.882 136.1645 19.4693 C 136.7517 20.0559 137.1148 20.8666 137.1148 21.761 C 137.1148 22.6555 136.7517 23.4662 136.1645 24.0528 C 135.5779 24.64 134.7672 25.0032 133.8727 25.0032 C 132.9782 25.0032 132.1675 24.64 131.5809 24.0528 C 130.9937 23.4662 130.6306 22.6555 130.6306 21.761 C 130.6306 20.8666 130.9937 20.0559 131.5809 19.4693 C 132.1675 18.882 132.9782 18.5189 133.8727 18.5189 Z " stroke-width="0.6650485396385193"/>
      <g id="ID0.10746095748618245">
        <path id="ID0.8113831053487957" fill="none" stroke="#FFFFFF" stroke-width="0.3509931857501479" stroke-linecap="round" d="M 132.2277 20.0499 L 135.6919 23.4501 "/>
        <path id="ID0.5432213474996388" fill="none" stroke="#FFFFFF" stroke-width="0.3509931857501479" stroke-linecap="round" d="M 131.8201 23.3793 L 135.5391 20.475 "/>
      </g>
    </g>
  </g>
  <g id="ID0.8657724768854678">
    <path id="ID0.24283110396936536" fill="#FFFFFF" stroke="none" d="M 37.7655 61.2961 L 71.683 61.2961 L 71.683 79.2524 L 37.7655 79.2524 L 37.7655 61.2961 Z " stroke-width="0.6650485396385193"/>
    <path id="ID0.29514826415106654" fill="#003FFF" stroke="none" d="M 37.433 56.3083 L 71.683 56.3083 L 71.683 61.6286 L 37.433 61.6286 L 37.433 56.3083 Z " stroke-width="0.6650485396385193"/>
    <path id="ID0.35489451000466943" fill="none" stroke="#000000" stroke-width="1.3300970792770386" stroke-linecap="round" d="M 49.4039 68.4454 C 49.4039 68.4454 50.9574 68.3496 51.7316 68.2791 C 52.1758 68.2386 52.624 68.0251 53.0616 68.1129 C 53.4993 68.2006 53.8112 68.6123 54.2255 68.7779 C 54.6491 68.9475 55.1147 69.2281 55.5556 69.1104 C 56.049 68.9788 56.2452 68.3024 56.7194 68.1129 C 57.1304 67.9486 57.6099 68.0577 58.0495 68.1129 C 58.5024 68.1694 58.9307 68.3609 59.3796 68.4454 C 59.8185 68.5279 60.2641 68.5837 60.7097 68.6116 C 61.152 68.6396 61.6288 68.7759 62.0398 68.6116 C 62.514 68.4221 62.6982 67.5449 63.2036 67.6141 C 64.1633 67.7451 64.7958 68.7573 65.6976 69.1104 C 66.1099 69.272 66.5847 69.1104 67.0277 69.1104 C 67.3043 69.1104 67.859 69.1104 67.859 69.1104 "/>
    <g id="ID0.13980314880609512">
      <path id="ID0.08102370938286185" fill="#FF0000" stroke="none" d="M 66.1825 56.3095 L 71.6692 56.3095 L 71.6692 61.7961 L 66.1825 61.7961 L 66.1825 56.3095 Z " stroke-width="0.6650485396385193"/>
      <g id="ID0.10746095748618245">
        <path id="ID0.8113831053487957" fill="none" stroke="#FFFFFF" stroke-width="0.46254915922061457" stroke-linecap="round" d="M 66.7035 56.9453 L 71.2688 61.4262 "/>
        <path id="ID0.5432213474996388" fill="none" stroke="#FFFFFF" stroke-width="0.46254915922061457" stroke-linecap="round" d="M 66.1664 61.3328 L 71.0674 57.5054 "/>
      </g>
    </g>
    <g id="ID0.6555408979766071">
      <path id="ID0.5830202791839838" fill="#FF0000" stroke="none" d="M 42.8227 65.1189 C 43.7172 65.1189 44.5279 65.482 45.1145 66.0693 C 45.7017 66.6559 46.0648 67.4666 46.0648 68.361 C 46.0648 69.2555 45.7017 70.0662 45.1145 70.6528 C 44.5279 71.24 43.7172 71.6032 42.8227 71.6032 C 41.9282 71.6032 41.1175 71.24 40.5309 70.6528 C 39.9437 70.0662 39.5806 69.2555 39.5806 68.361 C 39.5806 67.4666 39.9437 66.6559 40.5309 66.0693 C 41.1175 65.482 41.9282 65.1189 42.8227 65.1189 Z " stroke-width="0.6650485396385193"/>
      <g id="ID0.10746095748618245">
        <path id="ID0.8113831053487957" fill="none" stroke="#FFFFFF" stroke-width="0.3509931857501479" stroke-linecap="round" d="M 41.2277 66.5999 L 44.6919 70.0001 "/>
        <path id="ID0.5432213474996388" fill="none" stroke="#FFFFFF" stroke-width="0.3509931857501479" stroke-linecap="round" d="M 40.8201 69.9293 L 44.5391 67.025 "/>
      </g>
    </g>
  </g>
  <g id="ID0.8657724768854678">
    <path id="ID0.24283110396936536" fill="#FFFFFF" stroke="none" d="M 124.2155 51.6961 L 158.133 51.6961 L 158.133 69.6524 L 124.2155 69.6524 L 124.2155 51.6961 Z " stroke-width="0.6650485396385193"/>
    <path id="ID0.29514826415106654" fill="#003FFF" stroke="none" d="M 123.883 46.7083 L 158.133 46.7083 L 158.133 52.0286 L 123.883 52.0286 L 123.883 46.7083 Z " stroke-width="0.6650485396385193"/>
    <path id="ID0.35489451000466943" fill="none" stroke="#000000" stroke-width="1.3300970792770386" stroke-linecap="round" d="M 135.8539 58.8454 C 135.8539 58.8454 137.4074 58.7496 138.1816 58.6791 C 138.6258 58.6386 139.074 58.4251 139.5116 58.5129 C 139.9493 58.6006 140.2612 59.0123 140.6755 59.1779 C 141.0991 59.3475 141.5647 59.6281 142.0056 59.5104 C 142.499 59.3788 142.6952 58.7024 143.1694 58.5129 C 143.5804 58.3486 144.0599 58.4577 144.4995 58.5129 C 144.9524 58.5694 145.3807 58.7609 145.8296 58.8454 C 146.2685 58.9279 146.7141 58.9837 147.1597 59.0116 C 147.602 59.0396 148.0788 59.1759 148.4898 59.0116 C 148.964 58.8221 149.1482 57.9449 149.6536 58.0141 C 150.6133 58.1451 151.2458 59.1573 152.1476 59.5104 C 152.5599 59.672 153.0347 59.5104 153.4777 59.5104 C 153.7543 59.5104 154.309 59.5104 154.309 59.5104 "/>
    <g id="ID0.13980314880609512">
      <path id="ID0.08102370938286185" fill="#FF0000" stroke="none" d="M 152.6325 46.7095 L 158.1192 46.7095 L 158.1192 52.1961 L 152.6325 52.1961 L 152.6325 46.7095 Z " stroke-width="0.6650485396385193"/>
      <g id="ID0.10746095748618245">
        <path id="ID0.8113831053487957" fill="none" stroke="#FFFFFF" stroke-width="0.46254915922061457" stroke-linecap="round" d="M 153.1535 47.3453 L 157.7188 51.8262 "/>
        <path id="ID0.5432213474996388" fill="none" stroke="#FFFFFF" stroke-width="0.46254915922061457" stroke-linecap="round" d="M 152.6164 51.7328 L 157.5174 47.9054 "/>
      </g>
    </g>
    <g id="ID0.6555408979766071">
      <path id="ID0.5830202791839838" fill="#FF0000" stroke="none" d="M 129.2727 55.5189 C 130.1672 55.5189 130.9779 55.882 131.5645 56.4693 C 132.1517 57.0559 132.5148 57.8666 132.5148 58.761 C 132.5148 59.6555 132.1517 60.4662 131.5645 61.0528 C 130.9779 61.64 130.1672 62.0032 129.2727 62.0032 C 128.3782 62.0032 127.5675 61.64 126.9809 61.0528 C 126.3937 60.4662 126.0306 59.6555 126.0306 58.761 C 126.0306 57.8666 126.3937 57.0559 126.9809 56.4693 C 127.5675 55.882 128.3782 55.5189 129.2727 55.5189 Z " stroke-width="0.6650485396385193"/>
      <g id="ID0.10746095748618245">
        <path id="ID0.8113831053487957" fill="none" stroke="#FFFFFF" stroke-width="0.3509931857501479" stroke-linecap="round" d="M 127.6277 56.9999 L 131.0919 60.4001 "/>
        <path id="ID0.5432213474996388" fill="none" stroke="#FFFFFF" stroke-width="0.3509931857501479" stroke-linecap="round" d="M 127.2201 60.3293 L 130.9391 57.425 "/>
      </g>
    </g>
  </g>
  <g id="ID0.8657724768854678">
    <path id="ID0.24283110396936536" fill="#FFFFFF" stroke="none" d="M 83.1883 41.5393 L 117.1058 41.5393 L 117.1058 59.4956 L 83.1883 59.4956 L 83.1883 41.5393 Z " stroke-width="0.6650485396385193"/>
    <path id="ID0.29514826415106654" fill="#003FFF" stroke="none" d="M 82.8558 36.5515 L 117.1058 36.5515 L 117.1058 41.8718 L 82.8558 41.8718 L 82.8558 36.5515 Z " stroke-width="0.6650485396385193"/>
    <path id="ID0.35489451000466943" fill="none" stroke="#000000" stroke-width="1.3300970792770386" stroke-linecap="round" d="M 94.8267 48.6886 C 94.8267 48.6886 96.3803 48.5928 97.1544 48.5223 C 97.5986 48.4818 98.0469 48.2683 98.4845 48.3561 C 98.9221 48.4439 99.234 48.8555 99.6483 49.0211 C 100.0719 49.1907 100.5375 49.4714 100.9784 49.3536 C 101.4719 49.222 101.6681 48.5456 102.1422 48.3561 C 102.5532 48.1918 103.0327 48.3009 103.4723 48.3561 C 103.9252 48.4126 104.3535 48.6041 104.8024 48.6886 C 105.2414 48.7711 105.6869 48.8269 106.1325 48.8549 C 106.5748 48.8828 107.0516 49.0191 107.4626 48.8549 C 107.9368 48.6653 108.121 47.7881 108.6265 47.8573 C 109.5861 47.9883 110.2186 49.0005 111.1204 49.3536 C 111.5327 49.5152 112.0076 49.3536 112.4505 49.3536 C 112.7271 49.3536 113.2818 49.3536 113.2818 49.3536 "/>
    <g id="ID0.13980314880609512">
      <path id="ID0.08102370938286185" fill="#FF0000" stroke="none" d="M 111.6192 36.5515 L 117.1058 36.5515 L 117.1058 42.0381 L 111.6192 42.0381 L 111.6192 36.5515 Z " stroke-width="0.6650485396385193"/>
      <g id="ID0.10746095748618245">
        <path id="ID0.8113831053487957" fill="none" stroke="#FFFFFF" stroke-width="0.46254914489053817" stroke-linecap="round" d="M 112.1725 37.2161 L 116.7378 41.697 "/>
        <path id="ID0.5432213474996388" fill="none" stroke="#FFFFFF" stroke-width="0.46254914489053817" stroke-linecap="round" d="M 111.6354 41.6037 L 116.5363 37.7762 "/>
      </g>
    </g>
    <g id="ID0.6555408979766071">
      <path id="ID0.5830202791839838" fill="#FF0000" stroke="none" d="M 88.2593 45.3633 C 89.1538 45.3633 89.9645 45.7265 90.5511 46.3137 C 91.1383 46.9003 91.5015 47.711 91.5015 48.6055 C 91.5015 49.5 91.1383 50.3106 90.5511 50.8972 C 89.9645 51.4845 89.1538 51.8476 88.2593 51.8476 C 87.3649 51.8476 86.5542 51.4845 85.9676 50.8972 C 85.3803 50.3106 85.0172 49.5 85.0172 48.6055 C 85.0172 47.711 85.3803 46.9003 85.9676 46.3137 C 86.5542 45.7265 87.3649 45.3633 88.2593 45.3633 Z " stroke-width="0.6650485396385193"/>
      <g id="ID0.10746095748618245">
        <path id="ID0.8113831053487957" fill="none" stroke="#FFFFFF" stroke-width="0.35099318706958166" stroke-linecap="round" d="M 86.643 46.8888 L 90.1072 50.289 "/>
        <path id="ID0.5432213474996388" fill="none" stroke="#FFFFFF" stroke-width="0.35099318706958166" stroke-linecap="round" d="M 86.2354 50.2181 L 89.9544 47.3138 "/>
      </g>
    </g>
  </g>
  <g id="ID0.8657724768854678">
    <path id="ID0.24283110396936536" fill="#FFFFFF" stroke="none" d="M 39.2383 62.6893 L 73.1558 62.6893 L 73.1558 80.6456 L 39.2383 80.6456 L 39.2383 62.6893 Z " stroke-width="0.6650485396385193"/>
    <path id="ID0.29514826415106654" fill="#003FFF" stroke="none" d="M 38.9058 57.7015 L 73.1558 57.7015 L 73.1558 63.0218 L 38.9058 63.0218 L 38.9058 57.7015 Z " stroke-width="0.6650485396385193"/>
    <path id="ID0.35489451000466943" fill="none" stroke="#000000" stroke-width="1.3300970792770386" stroke-linecap="round" d="M 50.8767 69.8386 C 50.8767 69.8386 52.4303 69.7428 53.2044 69.6723 C 53.6486 69.6318 54.0969 69.4183 54.5345 69.5061 C 54.9721 69.5939 55.284 70.0055 55.6983 70.1711 C 56.1219 70.3407 56.5875 70.6214 57.0284 70.5036 C 57.5219 70.372 57.7181 69.6956 58.1922 69.5061 C 58.6032 69.3418 59.0827 69.4509 59.5223 69.5061 C 59.9752 69.5626 60.4035 69.7541 60.8524 69.8386 C 61.2914 69.9211 61.7369 69.9769 62.1825 70.0049 C 62.6248 70.0328 63.1016 70.1691 63.5126 70.0049 C 63.9868 69.8153 64.171 68.9381 64.6765 69.0073 C 65.6361 69.1383 66.2686 70.1505 67.1704 70.5036 C 67.5827 70.6652 68.0576 70.5036 68.5005 70.5036 C 68.7771 70.5036 69.3318 70.5036 69.3318 70.5036 "/>
    <g id="ID0.13980314880609512">
      <path id="ID0.08102370938286185" fill="#FF0000" stroke="none" d="M 67.6692 57.7015 L 73.1558 57.7015 L 73.1558 63.1881 L 67.6692 63.1881 L 67.6692 57.7015 Z " stroke-width="0.6650485396385193"/>
      <g id="ID0.10746095748618245">
        <path id="ID0.8113831053487957" fill="none" stroke="#FFFFFF" stroke-width="0.46254914489053817" stroke-linecap="round" d="M 68.2225 58.3661 L 72.7878 62.847 "/>
        <path id="ID0.5432213474996388" fill="none" stroke="#FFFFFF" stroke-width="0.46254914489053817" stroke-linecap="round" d="M 67.6854 62.7537 L 72.5863 58.9262 "/>
      </g>
    </g>
    <g id="ID0.6555408979766071">
      <path id="ID0.5830202791839838" fill="#FF0000" stroke="none" d="M 44.3093 66.5133 C 45.2038 66.5133 46.0145 66.8765 46.6011 67.4637 C 47.1883 68.0503 47.5515 68.861 47.5515 69.7555 C 47.5515 70.65 47.1883 71.4606 46.6011 72.0472 C 46.0145 72.6345 45.2038 72.9976 44.3093 72.9976 C 43.4149 72.9976 42.6042 72.6345 42.0176 72.0472 C 41.4303 71.4606 41.0672 70.65 41.0672 69.7555 C 41.0672 68.861 41.4303 68.0503 42.0176 67.4637 C 42.6042 66.8765 43.4149 66.5133 44.3093 66.5133 Z " stroke-width="0.6650485396385193"/>
      <g id="ID0.10746095748618245">
        <path id="ID0.8113831053487957" fill="none" stroke="#FFFFFF" stroke-width="0.35099318706958166" stroke-linecap="round" d="M 42.693 68.0388 L 46.1572 71.439 "/>
        <path id="ID0.5432213474996388" fill="none" stroke="#FFFFFF" stroke-width="0.35099318706958166" stroke-linecap="round" d="M 42.2854 71.3681 L 46.0044 68.4638 "/>
      </g>
    </g>
  </g>
  <g id="ID0.8657724768854678">
    <path id="ID0.24283110396936536" fill="#FFFFFF" stroke="none" d="M 29.5883 17.2893 L 63.5058 17.2893 L 63.5058 35.2456 L 29.5883 35.2456 L 29.5883 17.2893 Z " stroke-width="0.6650485396385193"/>
    <path id="ID0.29514826415106654" fill="#003FFF" stroke="none" d="M 29.2558 12.3015 L 63.5058 12.3015 L 63.5058 17.6218 L 29.2558 17.6218 L 29.2558 12.3015 Z " stroke-width="0.6650485396385193"/>
    <path id="ID0.35489451000466943" fill="none" stroke="#000000" stroke-width="1.3300970792770386" stroke-linecap="round" d="M 41.2267 24.4386 C 41.2267 24.4386 42.7803 24.3428 43.5544 24.2723 C 43.9986 24.2318 44.4469 24.0183 44.8845 24.1061 C 45.3221 24.1939 45.634 24.6055 46.0483 24.7711 C 46.4719 24.9407 46.9375 25.2214 47.3784 25.1036 C 47.8719 24.972 48.0681 24.2956 48.5422 24.1061 C 48.9532 23.9418 49.4327 24.0509 49.8723 24.1061 C 50.3252 24.1626 50.7535 24.3541 51.2024 24.4386 C 51.6414 24.5211 52.0869 24.5769 52.5325 24.6049 C 52.9748 24.6328 53.4516 24.7691 53.8626 24.6049 C 54.3368 24.4153 54.521 23.5381 55.0265 23.6073 C 55.9861 23.7383 56.6186 24.7505 57.5204 25.1036 C 57.9327 25.2652 58.4076 25.1036 58.8505 25.1036 C 59.1271 25.1036 59.6818 25.1036 59.6818 25.1036 "/>
    <g id="ID0.13980314880609512">
      <path id="ID0.08102370938286185" fill="#FF0000" stroke="none" d="M 58.0192 12.3015 L 63.5058 12.3015 L 63.5058 17.7881 L 58.0192 17.7881 L 58.0192 12.3015 Z " stroke-width="0.6650485396385193"/>
      <g id="ID0.10746095748618245">
        <path id="ID0.8113831053487957" fill="none" stroke="#FFFFFF" stroke-width="0.46254914489053817" stroke-linecap="round" d="M 58.5725 12.9661 L 63.1378 17.447 "/>
        <path id="ID0.5432213474996388" fill="none" stroke="#FFFFFF" stroke-width="0.46254914489053817" stroke-linecap="round" d="M 58.0354 17.3537 L 62.9363 13.5262 "/>
      </g>
    </g>
    <g id="ID0.6555408979766071">
      <path id="ID0.5830202791839838" fill="#FF0000" stroke="none" d="M 34.6593 21.1133 C 35.5538 21.1133 36.3645 21.4765 36.9511 22.0637 C 37.5383 22.6503 37.9015 23.461 37.9015 24.3555 C 37.9015 25.25 37.5383 26.0606 36.9511 26.6472 C 36.3645 27.2345 35.5538 27.5976 34.6593 27.5976 C 33.7649 27.5976 32.9542 27.2345 32.3676 26.6472 C 31.7803 26.0606 31.4172 25.25 31.4172 24.3555 C 31.4172 23.461 31.7803 22.6503 32.3676 22.0637 C 32.9542 21.4765 33.7649 21.1133 34.6593 21.1133 Z " stroke-width="0.6650485396385193"/>
      <g id="ID0.10746095748618245">
        <path id="ID0.8113831053487957" fill="none" stroke="#FFFFFF" stroke-width="0.35099318706958166" stroke-linecap="round" d="M 33.043 22.6388 L 36.5072 26.039 "/>
        <path id="ID0.5432213474996388" fill="none" stroke="#FFFFFF" stroke-width="0.35099318706958166" stroke-linecap="round" d="M 32.6354 25.9681 L 36.3544 23.0638 "/>
      </g>
    </g>
  </g>
  <g id="ID0.8657724768854678">
    <path id="ID0.24283110396936536" fill="#FFFFFF" stroke="none" d="M 130.1383 16.5393 L 164.0558 16.5393 L 164.0558 34.4956 L 130.1383 34.4956 L 130.1383 16.5393 Z " stroke-width="0.6650485396385193"/>
    <path id="ID0.29514826415106654" fill="#003FFF" stroke="none" d="M 129.8058 11.5515 L 164.0558 11.5515 L 164.0558 16.8718 L 129.8058 16.8718 L 129.8058 11.5515 Z " stroke-width="0.6650485396385193"/>
    <path id="ID0.35489451000466943" fill="none" stroke="#000000" stroke-width="1.3300970792770386" stroke-linecap="round" d="M 141.7767 23.6886 C 141.7767 23.6886 143.3303 23.5928 144.1044 23.5223 C 144.5486 23.4818 144.9969 23.2683 145.4345 23.3561 C 145.8721 23.4439 146.184 23.8555 146.5983 24.0211 C 147.0219 24.1907 147.4875 24.4714 147.9284 24.3536 C 148.4219 24.222 148.6181 23.5456 149.0922 23.3561 C 149.5032 23.1918 149.9827 23.3009 150.4223 23.3561 C 150.8752 23.4126 151.3035 23.6041 151.7524 23.6886 C 152.1914 23.7711 152.6369 23.8269 153.0825 23.8549 C 153.5248 23.8828 154.0016 24.0191 154.4126 23.8549 C 154.8868 23.6653 155.071 22.7881 155.5765 22.8573 C 156.5361 22.9883 157.1686 24.0005 158.0704 24.3536 C 158.4827 24.5152 158.9576 24.3536 159.4005 24.3536 C 159.6771 24.3536 160.2318 24.3536 160.2318 24.3536 "/>
    <g id="ID0.13980314880609512">
      <path id="ID0.08102370938286185" fill="#FF0000" stroke="none" d="M 158.5692 11.5515 L 164.0558 11.5515 L 164.0558 17.0381 L 158.5692 17.0381 L 158.5692 11.5515 Z " stroke-width="0.6650485396385193"/>
      <g id="ID0.10746095748618245">
        <path id="ID0.8113831053487957" fill="none" stroke="#FFFFFF" stroke-width="0.46254914489053817" stroke-linecap="round" d="M 159.1225 12.2161 L 163.6878 16.697 "/>
        <path id="ID0.5432213474996388" fill="none" stroke="#FFFFFF" stroke-width="0.46254914489053817" stroke-linecap="round" d="M 158.5854 16.6037 L 163.4863 12.7762 "/>
      </g>
    </g>
    <g id="ID0.6555408979766071">
      <path id="ID0.5830202791839838" fill="#FF0000" stroke="none" d="M 135.2093 20.3633 C 136.1038 20.3633 136.9145 20.7265 137.5011 21.3137 C 138.0883 21.9003 138.4515 22.711 138.4515 23.6055 C 138.4515 24.5 138.0883 25.3106 137.5011 25.8972 C 136.9145 26.4845 136.1038 26.8476 135.2093 26.8476 C 134.3149 26.8476 133.5042 26.4845 132.9176 25.8972 C 132.3303 25.3106 131.9672 24.5 131.9672 23.6055 C 131.9672 22.711 132.3303 21.9003 132.9176 21.3137 C 133.5042 20.7265 134.3149 20.3633 135.2093 20.3633 Z " stroke-width="0.6650485396385193"/>
      <g id="ID0.10746095748618245">
        <path id="ID0.8113831053487957" fill="none" stroke="#FFFFFF" stroke-width="0.35099318706958166" stroke-linecap="round" d="M 133.593 21.8888 L 137.0572 25.289 "/>
        <path id="ID0.5432213474996388" fill="none" stroke="#FFFFFF" stroke-width="0.35099318706958166" stroke-linecap="round" d="M 133.1854 25.2181 L 136.9044 22.3138 "/>
      </g>
    </g>
  </g>
  <g id="ID0.8657724768854678">
    <path id="ID0.24283110396936536" fill="#FFFFFF" stroke="none" d="M 126.7383 54.7893 L 160.6558 54.7893 L 160.6558 72.7456 L 126.7383 72.7456 L 126.7383 54.7893 Z " stroke-width="0.6650485396385193"/>
    <path id="ID0.29514826415106654" fill="#003FFF" stroke="none" d="M 126.4058 49.8015 L 160.6558 49.8015 L 160.6558 55.1218 L 126.4058 55.1218 L 126.4058 49.8015 Z " stroke-width="0.6650485396385193"/>
    <path id="ID0.35489451000466943" fill="none" stroke="#000000" stroke-width="1.3300970792770386" stroke-linecap="round" d="M 138.3767 61.9386 C 138.3767 61.9386 139.9303 61.8428 140.7044 61.7723 C 141.1486 61.7318 141.5969 61.5183 142.0345 61.6061 C 142.4721 61.6939 142.784 62.1055 143.1983 62.2711 C 143.6219 62.4407 144.0875 62.7214 144.5284 62.6036 C 145.0219 62.472 145.2181 61.7956 145.6922 61.6061 C 146.1032 61.4418 146.5827 61.5509 147.0223 61.6061 C 147.4752 61.6626 147.9035 61.8541 148.3524 61.9386 C 148.7914 62.0211 149.2369 62.0769 149.6825 62.1049 C 150.1248 62.1328 150.6016 62.2691 151.0126 62.1049 C 151.4868 61.9153 151.671 61.0381 152.1765 61.1073 C 153.1361 61.2383 153.7686 62.2505 154.6704 62.6036 C 155.0827 62.7652 155.5576 62.6036 156.0005 62.6036 C 156.2771 62.6036 156.8318 62.6036 156.8318 62.6036 "/>
    <g id="ID0.13980314880609512">
      <path id="ID0.08102370938286185" fill="#FF0000" stroke="none" d="M 155.1692 49.8015 L 160.6558 49.8015 L 160.6558 55.2881 L 155.1692 55.2881 L 155.1692 49.8015 Z " stroke-width="0.6650485396385193"/>
      <g id="ID0.10746095748618245">
        <path id="ID0.8113831053487957" fill="none" stroke="#FFFFFF" stroke-width="0.46254914489053817" stroke-linecap="round" d="M 155.7225 50.4661 L 160.2878 54.947 "/>
        <path id="ID0.5432213474996388" fill="none" stroke="#FFFFFF" stroke-width="0.46254914489053817" stroke-linecap="round" d="M 155.1854 54.8537 L 160.0863 51.0262 "/>
      </g>
    </g>
    <g id="ID0.6555408979766071">
      <path id="ID0.5830202791839838" fill="#FF0000" stroke="none" d="M 131.8093 58.6133 C 132.7038 58.6133 133.5145 58.9765 134.1011 59.5637 C 134.6883 60.1503 135.0515 60.961 135.0515 61.8555 C 135.0515 62.75 134.6883 63.5606 134.1011 64.1472 C 133.5145 64.7345 132.7038 65.0976 131.8093 65.0976 C 130.9149 65.0976 130.1042 64.7345 129.5176 64.1472 C 128.9303 63.5606 128.5672 62.75 128.5672 61.8555 C 128.5672 60.961 128.9303 60.1503 129.5176 59.5637 C 130.1042 58.9765 130.9149 58.6133 131.8093 58.6133 Z " stroke-width="0.6650485396385193"/>
      <g id="ID0.10746095748618245">
        <path id="ID0.8113831053487957" fill="none" stroke="#FFFFFF" stroke-width="0.35099318706958166" stroke-linecap="round" d="M 130.193 60.1388 L 133.6572 63.539 "/>
        <path id="ID0.5432213474996388" fill="none" stroke="#FFFFFF" stroke-width="0.35099318706958166" stroke-linecap="round" d="M 129.7854 63.4681 L 133.5044 60.5638 "/>
      </g>
    </g>
  </g>
</svg>