<svg version="1.1" xmlns="http://www.w3.org/2000/svg" xmlns:xlink="http://www.w3.org/1999/xlink" width="185.59276" height="221.76091" viewBox="0,0,185.59276,221.76091"><defs><linearGradient x1="1077.66312" y1="216.06021" x2="1077.66312" y2="354.07601" gradientUnits="userSpaceOnUse" id="color-1"><stop offset="0" stop-color="#ffffff" stop-opacity="0.26046"/><stop offset="1" stop-color="#ffffff" stop-opacity="0"/></linearGradient><linearGradient x1="1077.66312" y1="216.06021" x2="1077.66312" y2="354.07601" gradientUnits="userSpaceOnUse" id="color-2"><stop offset="0" stop-color="#ffffff" stop-opacity="0.26046"/><stop offset="1" stop-color="#ffffff" stop-opacity="0"/></linearGradient><linearGradient x1="1077.66312" y1="216.06021" x2="1077.66312" y2="354.07601" gradientUnits="userSpaceOnUse" id="color-3"><stop offset="0" stop-color="#ffffff" stop-opacity="0.26046"/><stop offset="1" stop-color="#ffffff" stop-opacity="0"/></linearGradient><linearGradient x1="1036.02754" y1="220.12049" x2="1036.02754" y2="358.13627" gradientUnits="userSpaceOnUse" id="color-4"><stop offset="0" stop-color="#ffffff" stop-opacity="0.26046"/><stop offset="1" stop-color="#ffffff" stop-opacity="0"/></linearGradient><linearGradient x1="1036.02754" y1="220.12049" x2="1036.02754" y2="358.13627" gradientUnits="userSpaceOnUse" id="color-5"><stop offset="0" stop-color="#ffffff" stop-opacity="0.26046"/><stop offset="1" stop-color="#ffffff" stop-opacity="0"/></linearGradient><linearGradient x1="1036.02754" y1="220.12049" x2="1036.02754" y2="358.13627" gradientUnits="userSpaceOnUse" id="color-6"><stop offset="0" stop-color="#ffffff" stop-opacity="0.26046"/><stop offset="1" stop-color="#ffffff" stop-opacity="0"/></linearGradient><linearGradient x1="245.9025" y1="109.07953" x2="248.94945" y2="174.29979" gradientUnits="userSpaceOnUse" id="color-7"><stop offset="0" stop-color="#cedee0" stop-opacity="0"/><stop offset="1" stop-color="#cedee0" stop-opacity="0.19676"/></linearGradient></defs><g transform="translate(-135.20135,-64.74774)"><g data-paper-data="{&quot;isPaintingLayer&quot;:true}" fill-rule="nonzero" stroke-linejoin="miter" stroke-miterlimit="10" stroke-dasharray="" stroke-dashoffset="0" style="mix-blend-mode: normal"><path d="" fill="#3a2f41" stroke="none" stroke-width="0" stroke-linecap="butt"/><path d="" fill="#3a2f41" stroke="url(#color-1)" stroke-width="0.5" stroke-linecap="butt"/><path d="" fill="#3a2f41" stroke="url(#color-2)" stroke-width="0.5" stroke-linecap="butt"/><path d="" fill="#3a2f41" stroke="url(#color-3)" stroke-width="0.5" stroke-linecap="butt"/><path d="" data-paper-data="{&quot;index&quot;:null}" fill="#3a2f41" stroke="url(#color-4)" stroke-width="0.5" stroke-linecap="butt"/><path d="" data-paper-data="{&quot;index&quot;:null}" fill="#3a2f41" stroke="url(#color-5)" stroke-width="0.5" stroke-linecap="butt"/><path d="" data-paper-data="{&quot;index&quot;:null}" fill="#3a2f41" stroke="url(#color-6)" stroke-width="0.5" stroke-linecap="butt"/><g data-paper-data="{&quot;index&quot;:null}" stroke="#3a2f41" stroke-linecap="butt"><path d="M180.7486,116.77851l3.43615,-10.64716l7.80667,4.13554l-6.00646,-7.23702l15.81501,-15.11111c0,0 2.79541,14.20256 9.41818,27.00508c2.47303,2.82875 -6.47043,7.8611 -6.47043,7.8611z" fill="#3a2f41" stroke-width="1.5"/><path d="M210.37087,120.28613c-2.02676,-1.18715 1.82031,-16.81898 4.9558,-20.25909c1.26826,-1.39145 15.00661,10.70897 13.3943,12.47792c-3.13549,3.44009 -15.34473,9.54149 -17.37148,8.35436z" data-paper-data="{&quot;index&quot;:null}" fill="#8c9ca0" stroke-width="2"/><path d="M211.15273,120.4091c1.70806,1.44099 -6.18726,12.85941 -10.04781,15.412c-1.98516,1.3126 -16.7067,-10.13264 -15.14519,-11.16511c3.86052,-2.5526 22.66022,-6.38364 24.36827,-4.94265z" fill="#e1e2db" stroke-width="1.5"/><path d="M215.32284,117.25838c1.65504,2.14287 0.99168,4.96239 -1.48168,6.29759c-2.47332,1.33519 -5.82006,0.68042 -7.4751,-1.46246c-1.65504,-2.14287 -0.99168,-4.96239 1.48168,-6.29759c2.47332,-1.33519 5.82006,-0.68041 7.47509,1.46245z" fill="#e1e2db" stroke-width="2"/></g><path d="M292.69309,170.71785l-18.96911,-0.87463l-0.44027,-8.60033c0,0 -0.83959,8.79475 -1.26193,8.71763c-5.36102,-0.10828 -10.66468,-0.14778 -15.73484,-0.14098c-21.29977,0.02862 -38.47891,0.87475 -38.47891,0.87475c0,0 -7.03538,-9.54506 -7.46486,-18.77716c-0.30014,-6.45155 -0.00642,-19.23844 10.34915,-29.67368c8.35182,-8.41608 23.54073,-11.62641 26.71008,-11.88506c2.53422,-0.20682 13.41083,2.60382 19.99966,7.34737c10.96765,7.89606 23.69994,26.25863 23.69994,26.25863z" fill="#3a2f41" stroke="none" stroke-width="0" stroke-linecap="butt"/><g stroke-linecap="butt"><path d="M280.2058,147.16559c0.26892,5.74624 2.0615,10.79973 -2.61076,14.73651c-4.5419,3.82694 -15.05377,5.56818 -25.8327,6.26947c-10.72834,0.69803 -21.60371,-0.85473 -26.51952,-4.38745c-4.97317,-3.57393 -4.26143,-8.12526 -4.52814,-13.82419c-0.53033,-11.33215 7.84625,-26.15156 32.83812,-26.69914c16.4398,-0.36021 26.12268,12.57263 26.65303,23.90479z" fill="#e1e2db" stroke="none" stroke-width="0"/><path d="M280.2058,147.16559c0.53035,11.33214 -11.94231,4.7755 -25.40974,5.49819c-13.46473,0.72255 -33.55105,8.62831 -34.08139,-2.70386c-0.53033,-11.33215 7.84625,-26.15156 32.83812,-26.69914c16.4398,-0.36021 26.12268,12.57263 26.65303,23.90479z" fill="#b8c1c0" stroke="none" stroke-width="0"/><path d="M258.22929,123.52946c13.58878,1.9132 22.50018,12.92244 22.97808,23.134l0.02125,0.45404c0.25157,5.37531 0.76226,10.41917 -3.26247,14.25399c-4.46018,4.2497 -14.32551,6.03414 -25.82023,6.78202c-7.94106,0.51666 -17.61836,-0.24744 -22.28892,-2.20119c-8.02282,-3.35605 -8.80712,-8.82996 -9.1423,-15.99242c-0.45017,-9.61882 5.51692,-21.75014 22.61524,-25.53343" fill="none" stroke="#3a2f41" stroke-width="2"/></g><path d="M206.1701,165.89513l-9.39706,-5.34698c0,0 -3.08329,-19.10582 6.63926,-32.0755c12.54055,-16.72878 35.69379,-24.08317 59.04967,-20.53709c5.00337,0.75965 17.66155,3.57445 25.31432,10.0917c9.19315,7.82906 12.72004,18.17145 12.72004,18.17145l-4.94976,-0.39761l1.32925,8.24342c0,0 -2.73036,-0.43484 -2.75614,-0.6101c-0.57752,-3.92697 -1.76371,-7.79674 -1.76371,-7.79674c0,0 0.90435,3.16622 0.6399,7.92119c-2.84171,-0.29679 -18.61047,-0.9048 -18.61047,-0.9048l-2.30231,-3.45607l-0.22268,3.34854l-13.69088,-0.3813l-2.03938,-12.45987l0.35849,12.20587c0,0 -12.21221,0.48194 -18.10777,0.93619c-0.41585,0.03204 -2.24244,-5.16741 -2.24244,-5.16741c0,0 0.10858,5.51063 -0.20228,5.52967c-3.67443,0.22491 -8.71685,1.00274 -8.71685,1.00274c0,0 1.3668,27.80971 1.23268,27.82863c-2.0861,0.29436 -20.12544,-4.1692 -20.1493,-5.31681c-0.03447,-1.65787 -1.75085,-10.91567 -1.75085,-10.91567z" fill="#3a2f41" stroke="url(#color-7)" stroke-width="0.5" stroke-linecap="butt"/><path d="M254.79918,113.06633c12.65811,-27.46928 39.88968,-38.88081 39.88968,-38.88081l-8.85583,48.77112" fill="#3a2f41" stroke="#3a2f41" stroke-width="1.5" stroke-linecap="round"/><path d="M201.11772,133.84657c9.51579,-41.31592 40.07496,-67.66759 40.07496,-67.66759l7.67089,43.90458" fill="#3a2f41" stroke="#3a2f41" stroke-width="1.5" stroke-linecap="round"/><g stroke="#3a2f41" stroke-linecap="butt"><path d="M225.59108,151.49246c0,0 4.03354,-3.81787 11.63841,-4.13424c8.05737,-0.33519 12.51411,3.90793 12.51411,3.90793c0,0 -5.12751,-0.11993 -12.46862,0.02971c-6.52334,0.13295 -11.68391,0.19662 -11.68391,0.19662z" fill="#e1e2db" stroke-width="1"/><g fill="#3a2f41" stroke-width="0.5"><path d="M235.71365,151.45116l-0.10851,-3.91216l2.98528,-0.13596l0.00525,3.95343z"/></g></g><g><path d="M221.41065,244.62371l47.92301,3.21626c0,0 4.27623,12.34087 7.0193,20.07183c0.82099,2.31388 1.50464,4.21478 1.8952,5.24828c0.56456,3.07589 1.23767,7.36729 1.96858,12.39327c-24.35413,-1.86221 -48.717,-3.59341 -72.76204,-5.34269c6.60719,-17.65701 13.95596,-35.58693 13.95596,-35.58693z" fill="#e1e2db" stroke="none" stroke-width="0" stroke-linecap="round"/><path d="M207.41044,268.63212c4.37674,-14.00555 17.70551,-28.5617 17.70551,-28.5617l42.76673,2.60797c0,0 4.77908,11.26319 6.25374,15.56985c1.0225,2.98611 1.74568,7.79179 1.74568,7.79179l-26.7505,16.79707c-14.97168,-1.09512 -29.89384,-2.16464 -44.69016,-3.2434c1.18285,-4.66649 2.23826,-8.62321 2.969,-10.96158z" fill="#8c9ca0" stroke="none" stroke-width="0" stroke-linecap="butt"/><path d="M205.48713,280.06741c1.2192,-4.57656 2.4011,-8.7518 3.50049,-12.26988c3.93511,-12.5926 16.10594,-27.31514 16.10594,-27.31514l42.3771,3.0309c0,0 5.96165,9.42684 9.8043,28.26339c0.63796,3.12729 1.45256,7.94703 2.35738,13.73197" fill="none" stroke="#3a2f41" stroke-width="2" stroke-linecap="round"/><path d="M270.63016,250.68459l-21.61497,9.02067l-28.33837,-12.14933" fill="none" stroke="#3a2f41" stroke-width="1.5" stroke-linecap="round"/></g><path d="M248.29711,251.85189c-9.20957,-0.40153 -23.77632,-10.97248 -23.77632,-10.97248c0,0 1.47217,-5.08173 2.56295,-7.81778c0.99365,-2.49244 3.19851,-7.96032 3.19851,-7.96032c0,0 0.74578,-3.89918 -1.33382,-8.15035c-1.30292,-2.66344 -8.70277,-13.53707 -8.70115,-13.90008c0.00031,-0.06979 1.18859,-3.7571 3.06975,-7.65733c2.18354,-4.52711 9.76121,-11.64671 13.12251,-13.24781c3.66198,-1.74433 8.55046,-2.38808 12.2617,-2.11586c5.67177,0.41601 11.49574,1.78935 16.50471,4.81446c1.88759,1.13998 5.27199,4.13133 5.27199,4.13133c0,0 5.60501,8.06057 7.66508,17.66987c-4.17963,9.99831 -12.72872,13.80876 -12.72872,13.80876l-1.34745,6.87509c0,0 1.80355,5.19099 2.49596,7.77024c0.6901,2.5706 1.65163,7.67943 1.65163,7.67943c0,0 -10.70773,9.47439 -19.91731,9.07286z" fill="#3a2f41" stroke="#8c9ca0" stroke-width="1.5" stroke-linecap="round"/><g data-paper-data="{&quot;index&quot;:null}" stroke="#3a2f41" stroke-width="2"><g fill="#e1e2db"><path d="M142.98115,103.83264l22.47253,-15.87288l-14.10453,27.02128z" stroke-linecap="round"/><path d="M137.9346,101.54123l17.47084,-21.25399l-6.45091,29.79049z" stroke-linecap="round"/><path d="M179.19454,169.80323c0,0 -24.28285,-30.42354 -31.52159,-41.5732c-2.481,-3.82144 -10.39157,-14.47208 -10.39157,-14.47208l0.14716,-10.99686c0.6469,1.21585 11.46217,18.64093 6.6837,11.44912c-4.77847,-7.19179 -7.83855,-13.18725 -7.83855,-13.18725l7.26753,-24.49916l4.71773,22.08048c0,0 17.48448,17.47585 18.78554,17.72695c5.30839,1.02454 5.9048,-23.49207 5.9048,-23.49207l9.07156,23.49792l-8.56916,16.72083c0,0 1.28645,2.7587 3.32925,6.69325c3.18679,6.13794 14.91075,25.37895 14.91075,25.37895l-4.28341,-0.26793l1.97169,8.95632l-8.7189,-8.49177l-1.46656,4.47643z" stroke-linecap="butt"/></g><g stroke-linecap="butt"><path d="M184.43056,123.36137l21.9495,46.39138l26.91475,20.84146l4.12114,15.31372c0,0 -7.6147,1.15662 -14.53253,-2.13427c-12.56132,-5.97555 -50.49239,-25.1519 -50.49239,-25.1519l-21.21493,-33.20163z" fill="#3a2f41"/><path d="M188.01904,131.68906l1.05479,1.83335l-32.79963,19.56847l-1.31379,-1.7466z" fill="#8ea8ab"/></g></g><g><path d="M257.63409,180.06533c-0.09566,2.04343 -5.56037,5.58573 -7.80629,5.4806c-2.24593,-0.10514 -7.2412,-3.73624 -7.14554,-5.77966c0.09566,-2.04343 5.50221,-2.91597 7.74813,-2.81083c2.24592,0.10514 7.29938,1.06649 7.20372,3.10992z" fill="#3a2f41" stroke="none" stroke-width="0" stroke-linecap="butt"/><g fill="#8c9ca0" stroke="#8c9ca0" stroke-width="1.5" stroke-linecap="butt"><path d="M231.89051,193.0459c-0.73627,-0.79151 10.23029,-14.20767 10.23029,-14.20767l7.43126,6.18419l8.46255,-6.11516c0,0 9.76082,14.45604 9.12003,15.1939c-0.35432,0.408 -3.92482,-1.69825 -8.41571,-3.30073c-4.13116,-1.47413 -9.22581,-2.44019 -9.22581,-2.44019c0,0 -5.49406,1.13259 -10.00647,2.4356c-4.12594,1.1914 -7.28914,2.5801 -7.59614,2.25009z"/></g><path d="M242.04637,180.50482l0.59656,-1.89625l7.41018,-1.87125l7.50978,1.99513l0.70824,1.99741" fill="none" stroke="#8c9ca0" stroke-width="2" stroke-linecap="round"/></g><g fill="#8c9ca0" stroke="#3a2f41" stroke-width="1.5" stroke-linecap="butt"><path d="M252.92551,198.98821c-0.19339,1.83912 -1.90821,3.16616 -3.83017,2.96406c-1.92194,-0.20211 -3.32321,-1.85683 -3.12981,-3.69595c0.19339,-1.83912 1.90822,-3.16617 3.83018,-2.96406c1.92194,0.20211 3.3232,1.85685 3.1298,3.69596z"/><path d="M252.52173,209.02288c-0.20012,1.90303 -1.991,3.27448 -4.00005,3.06321c-2.00905,-0.21128 -3.47544,-1.92525 -3.27532,-3.82828c0.20012,-1.90303 1.99099,-3.27447 4.00003,-3.06321c2.00905,0.21128 3.47547,1.92525 3.27535,3.82828z"/></g><path d="" fill="#3a2f41" stroke="#8c9ca0" stroke-width="2" stroke-linecap="butt"/><path d="" fill="#3a2f41" stroke="#8c9ca0" stroke-width="2" stroke-linecap="butt"/><path d="M266.80645,164.41739c0,0 -7.86665,0.95674 -16.69682,1.33454c-8.83017,0.37778 -16.7925,-0.55108 -16.7925,-0.55108c0,0 7.64189,-9.13208 16.47206,-9.50986c3.02258,-0.12932 5.57652,-0.41546 8.15616,0.87527c4.95653,2.48 8.86109,7.85113 8.86109,7.85113z" data-paper-data="{&quot;index&quot;:null}" fill="#000000" stroke="none" stroke-width="0.85" stroke-linecap="butt"/><g data-paper-data="{&quot;index&quot;:null}" stroke="#3a2f41" stroke-linecap="butt"><g data-paper-data="{&quot;index&quot;:null}"><g stroke-width="0"><path d="" fill="#e1e2db"/><path d="" fill="#e1e2db"/><path d="" fill="#8c9ca0"/></g><path d="M280.50812,279.40771l37.14549,-3.60139l0.62913,6.60115c-12.43222,0.47044 -24.89298,0.99353 -37.34154,1.54442z" fill="#e1e2db" stroke-width="0"/><path d="M280.50811,279.40771l37.14551,-3.60139l0.62911,6.60116c-12.43222,0.47044 -24.89297,0.99353 -37.34154,1.54442z" fill="#8c9ca0" stroke-width="0"/><path d="M307.45281,277.07273l10.2505,-0.99381l0.60306,6.32766" fill="none" stroke-width="2"/><path d="M280.96481,283.95085l-0.40701,-4.27053l12.07713,-1.17091" fill="none" stroke-width="2"/></g><g data-paper-data="{&quot;index&quot;:null}"><path d="M281.89507,245.6817l-17.80221,-38.80546l5.03055,-15.68864c0,0 8.66595,9.51399 13.46447,15.73208c8.71307,11.29077 34.49846,46.42036 34.49846,46.42036l2.88255,29.00395c-13.02571,0.48796 -26.08479,1.03497 -39.13034,1.61245z" fill="#3a2f41" stroke-width="1.5"/><path d="" fill="#8ea8ab" stroke-width="2"/></g></g></g></g></svg>