<svg version="1.1" xmlns="http://www.w3.org/2000/svg" xmlns:xlink="http://www.w3.org/1999/xlink" width="390.72401" height="497.36498" viewBox="0,0,390.72401,497.36498"><defs><radialGradient cx="344.74796" cy="130.41698" r="4.50829" gradientUnits="userSpaceOnUse" id="color-1"><stop offset="0" stop-color="#511112"/><stop offset="1" stop-color="#511112" stop-opacity="0"/></radialGradient><linearGradient x1="224.69666" y1="105.41634" x2="224.69666" y2="150.82248" gradientUnits="userSpaceOnUse" id="color-2"><stop offset="0" stop-color="#3a2f41"/><stop offset="1" stop-color="#2c2431"/></linearGradient></defs><g transform="translate(-100.34175,60.85208)"><g data-paper-data="{&quot;isPaintingLayer&quot;:true}" fill-rule="nonzero" stroke-linejoin="miter" stroke-miterlimit="10" stroke-dasharray="" stroke-dashoffset="0" style="mix-blend-mode: normal"><g data-paper-data="{&quot;index&quot;:null}"><path d="M375.76436,254.77139c-87.79128,66.90899 -159.44231,-35.16839 -159.44231,-35.16839c0,0 39.5634,2.06603 69.48462,-14.29955c19.44571,-10.63594 20.89543,-32.64331 31.85008,-48.47298c56.48701,-81.62475 124.43328,-19.7092 124.43328,-19.7092c0,0 -24.54982,11.21627 -38.42238,42.76704c-12.37377,28.14202 -8.88176,60.38604 -27.90331,74.8831z" fill="#3a2f41" stroke="none" stroke-width="0" stroke-linecap="round"/><path d="M403.32919,178.9472c-0.64686,1.47119 -1.25036,2.95359 -1.81599,4.44405c-2.36262,0.5902 -3.73969,2.32916 -5.70525,3.61717c-0.64035,0.41962 -1.21478,0.66816 -1.77995,1.20384c-0.25208,0.23888 -0.52057,1.07098 -0.6987,0.77284c-0.15117,-0.25306 0.39206,-2.65593 0.43313,-3.12834c2.30941,-8.01471 -6.69299,-4.1077 -10.26111,-2.28354c-0.41076,0.20997 -0.82045,0.42031 -1.22828,0.63457c1.02751,-1.79791 2.86955,-5.52681 2.76236,-5.77429c-0.59857,-1.38185 -5.48419,0.23341 -6.53022,0.48159c-4.2455,0.5341 -8.32428,3.4465 -12.6035,3.54572c1.04665,-1.75488 2.68197,-6.96028 1.5849,-7.3856c-0.87102,-0.33771 -4.52775,1.33531 -5.54998,1.59567c-0.48195,0.12277 -0.92048,0.23781 -1.35789,0.39201c1.2159,-1.81397 2.45722,-5.66123 2.97644,-7.05376c0.13852,-0.37151 0.9135,-1.94467 0.70159,-2.27861c-0.2731,-0.43042 -2.55681,-0.35186 -3.05837,-0.39359c-1.33391,-0.10504 -2.9707,0.24252 -4.2632,0.62162c-0.58667,0.17209 -1.16019,1.23995 -1.62759,0.84578c-0.45911,-0.38718 0.42892,-1.12709 0.55365,-1.7146c0.41427,-1.95109 2.56051,-4.81697 0.16444,-5.83744c-2.21869,-0.79548 -1.93548,-4.91715 -4.54217,-4.54861c-2.32551,0.32878 -4.32258,3.47357 -6.27642,4.52182l-0.01997,0.01071l-0.09548,-0.01872c0.16516,-1.20431 -2.39763,-1.78414 -3.31231,-1.63283c-3.51905,0.58213 -6.1314,1.72162 -9.05882,3.76045c-0.539,0.40026 -1.07323,0.78196 -1.61983,1.14804c0.92521,-1.50906 1.59034,-3.69347 2.55086,-4.79596c0.39227,-0.45025 1.76267,-0.97058 1.47133,-1.8318c-0.50305,-1.48703 -3.44343,0.52431 -4.23879,0.90262c-0.5843,0.27796 -1.73756,1.13735 -2.35901,1.17004c-0.526,0.02768 -0.83013,-2.40618 -0.90524,-2.81412c-0.51894,-2.81792 -0.84479,-5.49636 -1.65088,-8.26178c-0.34759,-1.01872 -0.69488,-2.02399 -1.06166,-3.01907c54.8008,-66.19952 116.84436,-9.66281 116.84436,-9.66281c0,0 -24.54982,11.21627 -38.42238,42.76704z" fill="#e1e2db" stroke="none" stroke-width="0" stroke-linecap="butt"/><path d="M403.32923,178.94733c-0.64686,1.47119 -1.25035,2.95359 -1.81598,4.44406c-2.36264,0.59022 -3.73969,2.32914 -5.70526,3.61715c-0.64035,0.41962 -1.21477,0.66817 -1.77994,1.20385c-0.25208,0.23888 -0.52057,1.07098 -0.6987,0.77284c-0.15117,-0.25306 0.39206,-2.65593 0.43313,-3.12834c2.3094,-8.01471 -6.693,-4.10771 -10.26112,-2.28355c-0.41076,0.20997 -0.82044,0.42031 -1.22828,0.63457c1.02751,-1.79791 2.86955,-5.5268 2.76236,-5.77428c-0.59857,-1.38186 -5.48419,0.23339 -6.53022,0.48157c-0.45518,0.05723 -0.90845,0.14185 -1.36025,0.24739c0.71366,-2.26655 1.42647,-4.4585 2.16405,-6.53458c1.03346,-2.91809 1.65094,-5.97157 2.66483,-8.89654c2.16519,-6.24633 7.7015,-12.21107 12.32611,-17.16862c0.46651,-0.1452 0.93487,-0.38249 1.3647,-0.75388c0.34302,-0.20274 0.54247,-0.36703 0.54247,-0.36703c3.82613,-3.24011 8.01536,-5.57651 12.42675,-7.16097c1.71233,-0.46854 3.48748,-0.81901 5.34361,-1.0377c6.54165,-0.77072 13.20762,-0.12589 19.72616,0.42171c1.31904,0.11079 2.84639,0.38354 4.37088,0.53229c-7.37378,4.4519 -24.16493,16.68686 -34.7453,40.75006z" fill="#8c9ca0" stroke="none" stroke-width="0" stroke-linecap="butt"/><path d="M374.48495,254.16881c-87.79128,66.90899 -159.44231,-35.16839 -159.44231,-35.16839c0,0 39.10755,7.79652 71.31276,-11.24329c16.73847,-9.89583 21.16293,-36.95735 30.67401,-50.70104c56.48701,-81.62475 123.7812,-20.53739 123.7812,-20.53739c0,0 -24.54982,11.21627 -38.42238,42.76704c-12.37377,28.14202 -8.88176,60.38604 -27.90331,74.8831z" fill="none" stroke="#3a2f41" stroke-width="2" stroke-linecap="round"/></g><g data-paper-data="{&quot;index&quot;:null}"><path d="M388.24381,298.78384c-105.2544,33.25102 -138.13302,-87.05133 -138.13302,-87.05133c0,0 36.52983,15.33306 70.22397,10.05897c21.89772,-3.42761 30.70957,-23.64586 46.37489,-34.83428c80.77727,-57.6924 123.76117,23.56408 123.76117,23.56408c0,0 -26.89707,2.24639 -50.62841,27.24083c-21.16741,22.29404 -28.79338,53.81729 -51.59864,61.02175z" fill="#3a2f41" stroke="none" stroke-width="0" stroke-linecap="round"/><path d="M439.84241,236.76199c-1.10657,1.16548 -2.17613,2.35617 -3.21279,3.56727c-2.42295,-0.24418 -4.30726,0.92615 -6.59273,1.47299c-0.74457,0.17815 -1.36922,0.21764 -2.08233,0.53044c-0.31804,0.13948 -0.8523,0.83161 -0.91902,0.49078c-0.05661,-0.28929 1.26774,-2.36654 1.46626,-2.79718c4.88546,-6.76026 -4.90796,-6.13035 -8.88288,-5.62134c-0.45758,0.05857 -0.91427,0.11786 -1.37056,0.18146c1.57533,-1.3441 4.5706,-4.22961 4.55348,-4.49876c-0.09561,-1.50288 -5.23959,-1.63631 -6.30789,-1.75676c-4.17575,-0.93417 -8.99947,0.42607 -13.05978,-0.92874c1.57877,-1.29713 4.8792,-5.64197 3.99079,-6.41346c-0.70534,-0.61255 -4.71249,-0.27575 -5.76251,-0.37668c-0.49506,-0.04758 -0.94665,-0.08773 -1.41043,-0.09065c1.75804,-1.29546 4.2281,-4.49563 5.18793,-5.63028c0.25607,-0.30272 1.51771,-1.52078 1.43131,-1.90673c-0.11132,-0.49744 -2.28687,-1.19637 -2.74471,-1.40538c-1.21966,-0.55027 -2.87749,-0.77713 -4.22203,-0.85779c-0.61029,-0.0366 -1.51136,0.77416 -1.81778,0.24508c-0.30099,-0.51971 0.78504,-0.91544 1.10123,-1.42607c1.05011,-1.69578 4.03958,-3.66623 2.13023,-5.43736c-1.81857,-1.49939 -0.15723,-5.28201 -2.73484,-5.81737c-2.29956,-0.47761 -5.24305,1.80578 -7.43636,2.13097l-0.02242,0.00332l-0.0835,-0.04993c0.56297,-1.07736 -1.65238,-2.49026 -2.5643,-2.65742c-3.50842,-0.64313 -6.35226,-0.45493 -9.79691,0.47291c-0.64265,0.19424 -1.27453,0.37262 -1.91277,0.53212c1.38131,-1.10691 2.74644,-2.93734 4.02338,-3.64972c0.52149,-0.29094 1.98712,-0.3168 2.00443,-1.22579c0.02987,-1.56952 -3.4177,-0.67194 -4.29415,-0.58512c-0.64389,0.06383 -2.01993,0.48223 -2.61578,0.30268c-0.50433,-0.15196 0.03314,-2.54514 0.10052,-2.95443c0.46532,-2.82727 1.06511,-5.45795 1.24246,-8.33298c0.01767,-1.07624 0.03107,-2.13973 0.02269,-3.20022c73.9704,-43.74797 113.22016,30.44947 113.22016,30.44947c0,0 -26.89707,2.24639 -50.62841,27.24083z" fill="#e1e2db" stroke="none" stroke-width="0" stroke-linecap="butt"/><path d="M439.84241,236.76212c-1.10657,1.16548 -2.17612,2.35618 -3.21278,3.56728c-2.42297,-0.24417 -4.30726,0.92613 -6.59273,1.47297c-0.74457,0.17815 -1.36921,0.21765 -2.08232,0.53045c-0.31804,0.13948 -0.8523,0.83161 -0.91902,0.49078c-0.05661,-0.28929 1.26774,-2.36654 1.46626,-2.79718c4.88545,-6.76027 -4.90797,-6.13036 -8.88289,-5.62135c-0.45758,0.05857 -0.91427,0.11786 -1.37056,0.18146c1.57533,-1.3441 4.57061,-4.2296 4.55349,-4.49875c-0.0956,-1.50289 -5.23959,-1.63633 -6.30789,-1.75678c-0.44769,-0.10019 -0.90285,-0.17395 -1.36371,-0.22754c1.43859,-1.8913 2.85114,-3.71268 4.24778,-5.41666c1.96001,-2.39617 3.57441,-5.06052 5.51834,-7.46979c4.1513,-5.14504 11.37951,-8.88425 17.40898,-11.98423c0.48812,0.02124 1.00915,-0.04355 1.53931,-0.24756c0.39139,-0.0747 0.63467,-0.1618 0.63467,-0.1618c4.69689,-1.75411 9.42962,-2.53494 14.11692,-2.53302c1.76986,0.13858 3.55887,0.40954 5.37949,0.83189c6.4165,1.48856 12.47092,4.35123 18.41953,7.0725c1.20372,0.55064 2.54865,1.32417 3.93284,1.98006c-8.4453,1.69381 -28.38623,7.52445 -46.48572,26.58725z" fill="#8c9ca0" stroke="none" stroke-width="0" stroke-linecap="butt"/><path d="M387.24381,297.78384c-105.2544,33.25102 -138.13302,-87.05133 -138.13302,-87.05133c0,0 34.16158,20.57116 70.90996,13.55357c19.09976,-3.64736 32.42124,-27.61483 46.02224,-37.32888c80.77727,-57.6924 123.42784,22.56408 123.42784,22.56408c0,0 -26.89707,2.24639 -50.62841,27.24083c-21.16741,22.29404 -28.79338,53.81729 -51.59864,61.02175z" fill="none" stroke="#3a2f41" stroke-width="2" stroke-linecap="round"/></g><g data-paper-data="{&quot;index&quot;:null}"><g stroke-linecap="butt"><g data-paper-data="{&quot;index&quot;:null}" stroke="none"><g fill="#e1e2db" stroke-width="0"><path d="M187.69016,148.64753l17.35179,11.5169l-23.73549,78.21921l21.53504,24.19718l-17.49912,-1.71323l-43.14822,36.71873l4.50351,-25.80043l-24.31835,-4.77419l20.25946,-12.33832l-17.35812,-10.25081l30.23676,-8.76503z"/></g><g fill="none" stroke-width="1" font-family="sans-serif" font-weight="normal" font-size="12" text-anchor="start"/></g><g data-paper-data="{&quot;index&quot;:null}" stroke="none"><g fill="#8c9ca0" stroke-width="0"><path d="M195.461,191.738c-2.29301,0.91441 -18.33377,-0.61924 -20.30183,-9.20086l12.53099,-33.8896l17.35179,11.5169z"/></g><g fill="none" stroke-width="1" font-family="sans-serif" font-weight="normal" font-size="12" text-anchor="start"/></g><g data-paper-data="{&quot;index&quot;:null}" fill="none"><g stroke="#3a2f41" stroke-width="2"><path d="M187.69016,148.64753l17.35179,11.5169l-23.73549,78.21921l21.53504,24.19718l-17.49912,-1.71323l-43.14822,36.71873l4.50351,-25.80043l-24.31835,-4.77419l20.25946,-12.33832l-17.35812,-10.25081l30.23676,-8.76503z"/></g><g stroke="none" stroke-width="1" font-family="sans-serif" font-weight="normal" font-size="12" text-anchor="start"/></g></g><g data-paper-data="{&quot;index&quot;:null}" stroke="#3a2f41" stroke-width="2.5"><path d="M189.49307,175.12642c-8.50123,-2.36774 -16.33895,-7.99539 -16.52263,-9.74439c0,0 11.74341,-25.56989 19.71236,-38.93352c2.62309,-4.04699 10.15385,-5.68308 14.88842,-3.00918c5.36424,3.02949 7.7995,10.84325 7.52925,13.2535c-3.09203,24.33654 -6.14679,30.81739 -8.70246,37.48163c-0.48094,2.24506 -9.04229,3.14185 -16.90494,0.95196z" fill="#8c9ca0" stroke-linecap="butt"/><path d="M207.78635,167.183c0,0 -4.19079,0.21966 -8.5969,0.13884c-2.92394,-0.05363 -5.9427,-0.23959 -7.8945,-0.70986c-5.55577,-1.33863 -15.10817,-7.0427 -15.10817,-7.0427" fill="none" stroke-linecap="round"/></g></g><g stroke-linecap="butt"><path d="M269.22542,394.94451l-5.33911,-33.83061l43.99763,-9.59098l61.20087,78.50923z" data-paper-data="{&quot;index&quot;:null}" fill="#3a2f41" stroke="#3a2f41" stroke-width="2.5"/><g data-paper-data="{&quot;index&quot;:null}"><g><path d="M266.60821,348.38691l-20.33988,-79.10224l27.27747,-6.44011l20.33988,79.10225z" fill="#7c7984" stroke="none" stroke-width="0"/><path d="M251.21317,286.51362l-4.47186,-17.39116l27.27748,-6.44011l4.31531,17.665z" fill="#626171" stroke="none" stroke-width="0"/><path d="M267.08117,348.22472l-20.33988,-79.10225l27.27748,-6.4401l20.33988,79.10224z" fill="none" stroke="#3a2f41" stroke-width="2.5"/></g><path d="M309.78729,347.4614c0,0 -5.48543,7.7922 -21.67368,12.21007c-18.89326,5.15609 -27.1077,1.90689 -27.1077,1.90689c0,0 -1.61044,-1.21483 -2.78675,-4.48966c-0.34962,-0.97329 0.49531,-3.40914 0.07514,-4.39284c-0.97993,-2.29428 -2.37463,-2.93922 -2.56382,-4.35381c-0.3461,-2.58713 3.28916,-7.23807 3.28916,-7.23807l43.21047,-10.35973c0,0 4.29494,0.15257 5.16128,4.20296c0.79741,3.72803 -0.11961,3.95882 0.18846,5.20493c0.38267,1.54781 3.10837,3.5479 2.20738,7.30928z" fill="#e1e2db" stroke="#3a2f41" stroke-width="2.5"/></g><path d="M308.54525,408.76033l30.75658,-16.93418l33.82208,41.83947z" data-paper-data="{&quot;index&quot;:null}" fill="#e1e2db" stroke="#3a2f41" stroke-width="2.5"/></g><g stroke-linecap="butt"><path d="M109.13989,413.29857l76,-54l45,-1.66667l4,37z" fill="#3a2f41" stroke="#3a2f41" stroke-width="2.5"/><g><g><path d="M195.84227,348.72445l0.0025,-81.67543l28.02191,-0.55492l-0.0025,81.67543z" fill="#7c7984" stroke="none" stroke-width="0"/><path d="M195.56556,285.19288l-0.21925,-18.18313l28.02192,-0.55492l-0.00055,17.95689z" fill="#626171" stroke="none" stroke-width="0"/><path d="M195.34381,348.68518l0.0025,-81.67543l28.02192,-0.55493l-0.0025,81.67543z" fill="none" stroke="#3a2f41" stroke-width="2.5"/></g><path d="M181.8147,358.02492c-1.80921,-3.41855 0.33261,-6.03436 0.31782,-7.6287c-0.01192,-1.28357 -0.95752,-1.27874 -1.11352,-5.08791c-0.16951,-4.13854 3.95216,-5.35576 3.95216,-5.35576l44.42906,-0.72613c0,0 4.67886,3.59926 4.98787,6.19108c0.169,1.41715 -1.02118,2.38906 -1.39896,4.85508c-0.16199,1.05734 1.26287,3.20608 1.16661,4.23577c-0.32381,3.46459 -1.58103,5.04216 -1.58103,5.04216c0,0 -7.14664,5.19228 -26.7287,4.90308c-16.77843,-0.24779 -24.03136,-6.42866 -24.03136,-6.42866z" fill="#e1e2db" stroke="#3a2f41" stroke-width="2.5"/></g><path d="M177.52996,403.08564l-71.89738,11.4067l49.16368,-33.63384z" fill="#e1e2db" stroke="#3a2f41" stroke-width="2.5"/></g><g data-paper-data="{&quot;index&quot;:null}" stroke="#3a2f41" stroke-width="2"><g data-paper-data="{&quot;index&quot;:null}"><path d="M227.28137,273.70861c0,0 -7.72615,4.01609 -20.82056,3.83361c-11.95612,-0.16662 -17.64496,-5.93677 -17.64496,-5.93677l8.262,-68.0488l31.73837,1.07886l-1.53484,69.07309z" data-paper-data="{&quot;index&quot;:null}" fill="#e1e2db" stroke-linecap="butt"/><path d="M207.94332,207.65921l-0.96196,22.51559l-12.1292,2.73207" fill="none" stroke-linecap="round"/><path d="M204.67746,210.14114l-0.90124,16.49257l-8.46793,1.85572" fill="none" stroke-linecap="round"/></g><path d="M226.95809,263.58721c0,0 -8.05517,7.19705 -19.76359,5.13375c-13.76535,-2.42579 -17.18543,-8.48791 -17.18543,-8.48791" data-paper-data="{&quot;index&quot;:null}" fill="none" stroke-linecap="round"/></g><g stroke="#3a2f41" stroke-width="2"><g data-paper-data="{&quot;index&quot;:null}"><path d="M261.46083,276.52001c-12.77674,3.58621 -20.84037,-3.88525 -20.84037,-3.88525l-14.15117,-64.28682l30.70105,-10.03717l23.21177,63.4809c0,0 -3.53164,10.40875 -18.92127,14.72835z" data-paper-data="{&quot;index&quot;:null}" fill="#e1e2db" stroke-linecap="butt"/><path d="M266.30655,226.03128l-12.47899,0.79846l-6.28161,-21.47667" fill="none" stroke-linecap="round"/><path d="M265.3342,222.10342l-8.19944,0.64218l-6.11061,-19.17948" fill="none" stroke-linecap="round"/></g><path d="M277.07658,255.96269c0,0 -2.43972,6.58916 -16.28765,11.49852c-11.77866,4.17577 -21.4618,-1.42587 -21.4618,-1.42587" data-paper-data="{&quot;index&quot;:null}" fill="none" stroke-linecap="round"/></g><g><g><g data-paper-data="{&quot;index&quot;:null}" stroke-linecap="butt"><path d="M218.94028,227.19786l0.08546,-19.67493l17.3502,-1.5605l2.06665,22.97777z" fill="#8c9ca0" stroke="#3a2f41" stroke-width="2"/><path d="M218.9692,224.57298l0.08546,-19.67494l17.3502,-1.56051l2.06665,22.97777z" fill="#e1e2db" stroke="#e1e2db" stroke-width="3.5"/></g><path d="M227.34062,202.98507l1.86156,13.82906l-3.38388,2.5644l2.1826,8.63841" data-paper-data="{&quot;index&quot;:null}" fill="none" stroke="#3a2f41" stroke-width="2" stroke-linecap="round"/></g><path d="M225.45421,219.38995l-4.6,-2.66023l-1.4,-13.09649" data-paper-data="{&quot;index&quot;:null}" fill="none" stroke="#3a2f41" stroke-width="2" stroke-linecap="round"/></g><g><g><g fill="none" stroke="none" stroke-width="1" stroke-linecap="butt" font-family="sans-serif" font-weight="normal" font-size="12" text-anchor="start"><g><g><g/></g></g><g><g><g/></g></g></g><g fill="none" stroke="none" stroke-width="1" stroke-linecap="butt" font-family="sans-serif" font-weight="normal" font-size="12" text-anchor="start"><g><g><g/></g></g><g><g><g/></g></g></g><path d="M198.79437,123.31351c0,0 21.75956,-9.76344 31.52887,-10.18059c8.90438,-0.38021 29.47792,7.87094 31.15473,12.3797c-1.63519,22.21708 -4.76522,43.17019 -3.98634,60.14732c0.51528,11.23153 3.19066,18.28678 3.19066,18.28678c0,0 -25.97275,11.85375 -43.62085,11.68462c-9.15944,-0.08777 -19.66993,-10.79453 -19.66993,-10.79453c-0.10275,-0.12665 2.81709,-11.66385 3.20888,-25.11653c0.65814,-22.59856 -1.4678,-55.31829 -1.4678,-55.31829" fill="#3a2f41" stroke="#3a2f41" stroke-width="2" stroke-linecap="round"/><g fill="none" stroke="none" stroke-width="1" stroke-linecap="butt" font-family="sans-serif" font-weight="normal" font-size="12" text-anchor="start"><g/></g></g><path d="M223.24589,164.94972c-16.60222,-14.65141 -21.63704,-42.87909 -21.63704,-42.87909l24.25824,-11.25876c0,0 14.02379,3.36378 18.8344,5.15543c4.17903,1.55643 11.7393,5.02897 11.7393,5.02897c0,0 -5.06895,15.29869 -12.44723,24.90935c-10.82724,14.10317 -20.53038,19.19044 -20.74767,19.0441z" fill="#e1e2db" stroke="none" stroke-width="0" stroke-linecap="butt"/><path d="M201.60886,122.07064l24.25824,-11.25876c0,0 14.02379,3.36378 18.8344,5.15543c4.17903,1.55643 11.7393,5.02897 11.7393,5.02897c0,0 -1.41575,4.27287 -3.83989,9.72088c-7.88428,3.42928 -15.90514,7.08894 -25.13226,11.34108c-5.96688,2.74973 -10.92208,5.02886 -15.99252,7.5839c-7.34861,-13.45073 -9.86726,-27.57151 -9.86726,-27.57151z" fill="#8c9ca0" stroke="none" stroke-width="0" stroke-linecap="butt"/><path d="M223.52353,161.26993c0,0 -6.79503,-7.04604 -8.44178,-11.52233c-0.2801,-0.76141 2.07998,-5.30004 3.93074,-8.66813c1.15069,-2.09406 2.1045,-3.73565 2.1045,-3.73565l8.89777,-0.39883c0,0 7.31119,12.34616 7.07646,12.63683c-5.15819,6.28495 -13.5677,11.68812 -13.5677,11.68812z" fill="#3a2f41" stroke="#3a2f41" stroke-width="2" stroke-linecap="butt"/><path d="M223.24589,164.94972c-16.60222,-14.65141 -21.63704,-42.87909 -21.63704,-42.87909l24.25824,-11.25876c0,0 14.02379,3.36378 18.8344,5.15543c4.17903,1.55643 11.7393,5.02897 11.7393,5.02897c0,0 -5.06895,15.29869 -12.44723,24.90935c-10.82724,14.10317 -20.53038,19.19044 -20.74767,19.0441z" fill="none" stroke="#3a2f41" stroke-width="2" stroke-linecap="butt"/><path d="M221.32403,134.00026l-0.36556,-9.65976l8.16083,-0.30884l0.36556,9.65976z" fill="#3a2f41" stroke="#3a2f41" stroke-width="2" stroke-linecap="butt"/><g><path d="M210.7814,117.97461c-0.47819,-0.29644 2.06708,-5.10615 2.48804,-5.49326c0.17474,-0.07506 0.42631,-0.48425 1.10505,-0.01841c3.09964,2.12732 10.3304,8.52305 10.3304,8.52305l-7.75986,8.76506z" data-paper-data="{&quot;index&quot;:null}" fill="#8c9ca0" stroke="#3a2f41" stroke-width="4.5" stroke-linecap="round"/><path d="M224.73457,121.02777c0,0 -8.62043,-7.70175 -5.34934,-9.84105c3.89195,-2.54534 19.84718,0.36467 20.79163,-0.17484c0.86421,-1.80418 3.13145,4.30528 3.24939,5.74047c-0.75939,2.95177 -9.94862,12.96997 -9.94862,12.96997z" fill="#3a2f41" stroke="#3a2f41" stroke-width="4.5" stroke-linecap="round"/><path d="M212.66408,117.43873c-0.01881,-0.49715 0.87106,-4.54747 1.85094,-5.09091c0.55408,-0.6382 11.14462,-6.63825 12.65304,-6.45196c2.38429,0.29446 12.2228,4.51636 13.25531,5.43639c0.5486,0.25572 0.91309,3.6451 1.00107,5.03005" fill="none" stroke="#3a2f41" stroke-width="6.5" stroke-linecap="butt"/><g><path d="M210.61485,117.98091c-0.47819,-0.29644 2.06708,-5.10615 2.48804,-5.49326c0.17474,-0.07506 0.42631,-0.48425 1.10505,-0.01841c3.09963,2.12732 10.3304,8.52305 10.3304,8.52305l-7.59961,8.59222z" data-paper-data="{&quot;index&quot;:null}" fill="#8c9ca0" stroke="#12161a" stroke-width="0" stroke-linecap="round"/><path d="M224.73457,121.02777c0,0 13.70404,-9.02293 15.44228,-10.0159c0.86421,-1.80417 3.13145,4.30529 3.24939,5.74048c-0.7594,2.95177 -9.94863,12.96997 -9.94863,12.96997z" fill="#8c9ca0" stroke="#12161a" stroke-width="0" stroke-linecap="round"/><path d="M212.66407,117.43869c-0.01881,-0.49715 0.87106,-4.54747 1.85094,-5.09091c0.55408,-0.6382 11.14462,-6.63825 12.65304,-6.45196c2.38429,0.29447 12.2228,4.51636 13.25531,5.43639c0.5486,0.25572 0.91309,3.6451 1.00107,5.03005" fill="none" stroke="#8c9ca0" stroke-width="2" stroke-linecap="butt"/></g></g></g><g stroke="none" stroke-linecap="butt"><g fill="none" stroke-width="1" font-family="sans-serif" font-weight="normal" font-size="12" text-anchor="start"/><g stroke-width="7.5"><path d="" fill="url(#color-1)"/><path d="" fill="#fbe6f4"/></g></g><g><g stroke-linecap="butt"><g data-paper-data="{&quot;index&quot;:null}" stroke="none"><g fill="#e1e2db" stroke-width="0"><path d="M255.95805,159.49776l17.35179,-11.5169l15.50528,41.93348c-1.78897,0.5615 -3.60607,1.05735 -5.49422,1.35349c-2.73162,0.42843 -10.45528,1.60297 -15.83337,2.92642c-0.32611,0.02459 -0.64786,0.06482 -0.96449,0.11994z"/></g><g fill="none" stroke-width="1" font-family="sans-serif" font-weight="normal" font-size="12" text-anchor="start"/></g><g data-paper-data="{&quot;index&quot;:null}" stroke="none"><g fill="#8c9ca0" stroke-width="0"><path d="M255.95806,159.49777l17.35179,-11.5169l12.53099,33.8896c-1.96806,8.58162 -18.00882,10.11527 -20.30183,9.20086z"/></g><g fill="none" stroke-width="1" font-family="sans-serif" font-weight="normal" font-size="12" text-anchor="start"/></g><g data-paper-data="{&quot;index&quot;:null}" fill="none"><g stroke="#3a2f41" stroke-width="2"><path d="M266.52304,194.31419l-10.56499,-34.81643l17.35179,-11.5169l15.50528,41.93348"/></g><g stroke="none" stroke-width="1" font-family="sans-serif" font-weight="normal" font-size="12" text-anchor="start"/></g></g><g data-paper-data="{&quot;index&quot;:null}" stroke="#3a2f41" stroke-width="2.5"><path d="M254.602,173.50779c-2.55567,-6.66424 -5.61043,-13.14509 -8.70246,-37.48163c-0.27025,-2.41025 2.16501,-10.22401 7.52925,-13.2535c4.73457,-2.6739 12.26533,-1.03781 14.88842,3.00918c7.96895,13.36363 19.71236,38.93352 19.71236,38.93352c-0.18368,1.749 -8.0214,7.37665 -16.52263,9.74439c-7.86265,2.18989 -16.424,1.2931 -16.90494,-0.95196z" fill="#e1e2db" stroke-linecap="butt"/><path d="M284.81323,158.90261c0,0 -9.5524,5.70407 -15.10817,7.0427c-1.9518,0.47027 -4.97056,0.65623 -7.8945,0.70986c-4.40611,0.08082 -8.5969,-0.13884 -8.5969,-0.13884" fill="none" stroke-linecap="round"/></g></g><g fill="#e1e2db" stroke="#3a2f41" stroke-width="2" stroke-linecap="butt"><g data-paper-data="{&quot;index&quot;:null}"><path d="M327.87848,226.59048c16.53392,39.96327 7.22035,126.74316 5.39555,129.4135c-0.20856,0.30521 -51.95546,-158.38294 -51.95546,-158.38294c0,0 13.76938,-4.25185 26.58276,4.9799c7.56424,4.75956 15.4248,12.98626 19.97716,23.98955z"/></g><g data-paper-data="{&quot;index&quot;:null}"><path d="M263.3888,217.3099c3.3346,-8.38271 6.16024,-13.6571 6.16024,-13.6571c0,0 -4.27712,-2.36734 -4.89135,-7.65246c-0.47561,-4.09241 1.38674,-10.86739 8.23676,-13.7561c5.31998,-2.24348 11.52833,0.0686 13.78139,3.28971c0.81834,1.16995 1.01925,2.17803 1.28922,3.46676c0.99984,4.77294 -0.4401,7.91621 -0.4401,7.91621c0,0 45.72935,159.68202 45.60915,159.57565c-2.0737,-1.83489 -61.70276,-65.88032 -71.79957,-107.95764c-2.78001,-11.58535 -1.26027,-22.89269 2.05428,-31.22501z"/><path d="M276.62008,197.59609c-0.87646,0.27859 -2.08538,-1.06366 -2.70022,-2.99798c-0.61482,-1.93433 -0.40274,-3.72825 0.47372,-4.00682c0.87646,-0.27859 2.08538,1.06366 2.70022,2.99798c0.61482,1.93433 0.40274,3.72825 -0.47372,4.00682z"/></g></g><g><g><path d="M270.16372,31.7975c5.77033,5.68446 -1.07559,8.29486 5.2284,24.26872c6.24255,15.81808 24.36055,19.13636 24.36055,19.13636c0,0 -14.46983,20.32207 -33.16107,25.49058c-11.64369,3.21973 -50.57773,21.81026 -76.28925,-1.75719c-2.78733,-2.79816 -14.74511,-15.59554 -13.00699,-23.7078c5.35603,-24.99785 38.47157,-59.75274 39.72461,-61.02471c6.88602,-6.99003 41.65935,6.28055 53.14375,17.59407z" data-paper-data="{&quot;index&quot;:null}" fill="#3a2f41" stroke="#3a2f41" stroke-width="2.5" stroke-linecap="butt"/><g data-paper-data="{&quot;index&quot;:null}" fill="#3a2f41" stroke="#3a2f41" stroke-linecap="butt"><path d="M147.45932,-26.25717c0,0 48.59861,14.18498 72.34415,43.78363c14.07653,17.54628 -13.33101,3.51033 -27.42388,14.13613c-6.54142,4.93213 -27.63538,15.19205 -27.63538,15.19205c0,0 -5.63146,-16.06593 -8.14796,-26.71027c-3.11602,-13.18024 -9.13697,-46.40153 -9.13697,-46.40153z" data-paper-data="{&quot;index&quot;:null}" stroke-width="2.5"/><path d="M200.1695,2.99473c0,0 0.46205,0.29587 0.87564,0.83338c5.45845,4.16808 10.56039,8.72952 15.88989,13.0837c2.32302,1.8979 6.85841,5.55586 7.97644,8.43379c0.03114,0.0801 0.06115,0.16053 0.09014,0.24125l0.05162,-0.032l1.76054,2.8388c0.55464,0.86589 0.6721,1.98678 0.21387,2.99207c-0.7177,1.57454 -2.57588,2.26913 -4.15041,1.55144c-0.28251,-0.12878 -0.53671,-0.29428 -0.75951,-0.48827l-2.09386,-1.74203l-1.95695,0.19715c-10.08382,1.9756 -19.63484,5.41571 -29.52647,7.81443l0.16803,0.40623l-5.78193,2.39151c-0.77628,0.32357 -1.67993,0.33556 -2.50556,-0.04078c-0.09852,-0.0449 -0.19363,-0.09429 -0.28512,-0.14778c-1.13218,0.57451 6.21599,4.92346 5.05278,5.53428c-1.59524,0.83769 -11.67019,-2.01729 -12.86477,-0.81277c-0.33187,0.33465 -0.64779,0.68344 -0.95269,1.04207c0.02724,1.21457 0.03909,2.43215 0.03798,3.65764c0,0 -0.00029,0.25249 -0.07232,0.61402l0.12224,1.07945c0.07348,0.56154 -0.00434,1.14986 -0.25651,1.70315c-0.7177,1.57453 -2.57588,2.26913 -4.15041,1.55144c-0.94458,-0.43056 -1.57249,-1.27158 -1.76876,-2.2156l-0.26986,-1.23092c-0.50488,-0.40648 -0.86201,-0.95413 -1.03933,-1.55728l-0.95096,-3.17341l0.03806,-0.01141l-0.0698,-0.10223c-1.1414,-5.24286 -1.6322,-10.57692 -2.83126,-15.83035c-0.33856,-1.48337 -1.49221,-5.48824 -1.15179,-7.15239c0.00085,-0.00411 0.00169,-0.00825 0.00253,-0.01236l-0.00343,0.00025l-0.27695,-3.85778c-0.04793,-0.52448 0.03589,-1.06822 0.26999,-1.58179c0.7177,-1.57454 2.57588,-2.26913 4.15041,-1.55144c1.00528,0.45822 1.65185,1.38135 1.80121,2.39871l0.53327,3.29756l-0.05884,0.00953l0.07654,0.11596c0.26903,3.44579 0.81739,7.0137 1.49904,10.54261c0.54679,-0.06285 1.1171,0.0176 1.65441,0.26251c1.00528,0.45821 1.65185,1.38135 1.80121,2.39871l0.46289,2.86237c0.59414,-0.37917 1.12346,-0.70418 1.50488,-0.95772c3.19329,-2.12283 7.24653,-4.77857 11.21158,-6.73205c2.349,-1.97735 5.02264,-3.38765 7.89058,-4.29639c0.03407,-0.32968 0.12143,-0.65951 0.26649,-0.97774c0.50763,-1.11367 1.58581,-1.78711 2.73063,-1.832l5.95099,-0.35284l0.00147,0.0248c0.06358,-0.01046 0.12723,-0.02056 0.19099,-0.03028c3.07753,-0.46966 6.2138,0.36992 9.32618,0.49764c-0.7371,-0.8953 -0.9464,-2.1668 -0.43302,-3.29311c0.26584,-0.58321 0.68814,-1.04569 1.19457,-1.36038c-1.14419,-0.81874 -2.29298,-1.62635 -3.3721,-2.48911c-4.32137,-3.45488 -8.07907,-7.26523 -12.60303,-10.52971l2.90379,-2.14711l0.76293,-2.93431c0.53982,0.38952 1.07541,0.78359 1.60736,1.18167l0.11456,-0.08474z" stroke-width="0.5"/></g><path d="M243.72726,31.20933c1.96636,3.14346 -18.70808,53.08195 -32.24743,61.83254c-33.15506,21.42841 -69.51847,-9.22347 -69.51847,-9.22347c0,0 12.55893,-6.0071 20.01361,-23.40766c7.52809,-17.57191 8.32664,-36.63748 15.19375,-40.93314c7.67322,-4.79991 29.20183,-4.73236 43.54757,-2.85138c11.20634,1.46936 19.43295,8.86322 23.01097,14.58312z" fill="#3a2f41" stroke="#3a2f41" stroke-width="2.5" stroke-linecap="butt"/><path d="M215.75,112.03251l-3.25,-35.5l22,-2.75l3.75,37.25l-13.43642,8.93051z" fill="#8c9ca0" stroke="#3a2f41" stroke-width="2" stroke-linecap="butt"/><path d="M265.8692,10.06034c7.22414,3.66358 8.17263,18.51074 19.03005,31.81567c10.75155,13.17517 17.47497,4.17162 17.47497,4.17162c0,0 -2.25035,15.83938 -12.40295,25.42762c-10.05481,9.49588 -27.92725,12.78596 -45.36048,3.73729c-14.30745,-7.42626 -35.78819,-63.66662 -34.71854,-65.77587c4.43797,-8.75113 41.59915,-6.66777 55.97695,0.62366z" data-paper-data="{&quot;index&quot;:null}" fill="#3a2f41" stroke="#3a2f41" stroke-width="2.5" stroke-linecap="butt"/><path d="M234.57893,28.07925c0.98011,3.57595 -33.1729,45.46697 -48.65577,49.95775c-37.9144,10.997 -58.93464,-26.7727 -58.93464,-26.7727c0,0 15.06223,-4.75056 27.20279,-19.27497c12.26011,-14.66744 20.43229,-29.86061 28.24417,-32.00171c8.7289,-2.39244 28.7482,-2.61508 41.94832,3.30903c10.31142,4.62771 8.41173,18.27581 10.19514,24.78264z" fill="#3a2f41" stroke="#3a2f41" stroke-width="2.5" stroke-linecap="butt"/><g data-paper-data="{&quot;index&quot;:null}" stroke-linecap="butt"><path d="M178.84875,74.74662c-3.74561,-17.84858 4.37752,-41.51966 26.9724,-46.9373c34.34883,-8.23591 51.63471,11.80658 55.38031,29.65516c3.74562,17.84857 -4.32195,35.50205 -34.35143,41.16318c-14.99804,2.82744 -28.07845,1.84558 -35.79111,-2.46504c-7.93402,-4.43436 -10.31088,-12.36544 -12.21018,-21.41601z" fill="#e1e2db" stroke="none" stroke-width="0"/><path d="M178.84875,74.74662c-3.74561,-17.84858 4.37752,-41.51966 26.9724,-46.9373c34.34883,-8.23591 51.63471,11.80658 55.38031,29.65516c3.74562,17.84857 -26.80585,12.83627 -45.48042,16.60739c-18.67828,3.77188 -33.12668,18.52332 -36.87231,0.67475z" fill="#b8c1c0" stroke="none" stroke-width="0"/><path d="M220.32788,26.31243c24.84446,-0.32388 37.77922,16.40682 40.95853,31.55684c3.74562,17.84857 -4.32197,35.50204 -34.35144,41.16317c-15.99398,3.0152 -28.38543,1.76806 -36.15323,-3.23097c-7.00948,-4.511 -10.07136,-12.18376 -11.84805,-20.65007h-0.00001c-3.37521,-16.08361 -0.9277,-45.67448 41.25878,-48.85231" fill="none" stroke="#3a2f41" stroke-width="2"/></g><path d="M225.76492,12.46988c9.22558,-0.72095 23.04022,-0.06151 27.91115,3.22237c4.35924,2.93889 4.66273,15.01469 9.30062,26.36597c4.59266,11.24055 18.13325,18.71445 18.13325,18.71445c0,0 -22.70729,5.78507 -46.7441,-3.08933c-9.10263,-3.3607 -16.06711,-13.09898 -19.82652,-17.66163c-9.07293,-11.01145 -4.61568,-17.72616 -3.69924,-19.08551c2.3585,-3.49838 7.71816,-7.90311 14.92482,-8.4663z" data-paper-data="{&quot;index&quot;:null}" fill="#3a2f41" stroke="#3a2f41" stroke-width="2.5" stroke-linecap="butt"/><g fill="#3a2f41" stroke-linecap="butt"><path d="M219.87701,26.00679c0.01703,0.63734 -0.62031,0.65437 -0.62031,0.65437c-0.37768,0.01009 -1.3219,0.03532 -1.69959,0.04541c-3.08009,0.08229 -6.11231,0.38601 -9.14176,0.84029c-3.02503,0.4536 -5.54313,1.53636 -8.65092,1.6194c0,0 -0.63734,0.01703 -0.65437,-0.62031c-0.01703,-0.63734 0.62031,-0.65437 0.62031,-0.65437c3.05258,-0.08156 5.52374,-1.14687 8.5048,-1.60706c3.07193,-0.47422 6.16334,-0.76914 9.28788,-0.85263c0.37768,-0.01009 0.75537,-0.02019 1.13306,-0.03028l0.56653,-0.01513c0,0 0.63734,-0.01703 0.65437,0.62031z" stroke="#3a2f41" stroke-width="2.5"/><path d="M232.81819,49.37162c-15.15786,9.0324 -37.07199,35.4363 -37.07199,35.4363c0,0 -21.4505,-6.10256 -28.51844,-23.19122c-1.42104,-3.43575 -3.32376,15.52627 -3.32376,15.52627c0,0 -9.44963,-9.92295 -8.69276,-23.23764c0.70234,-12.35552 7.86711,-28.1222 25.88399,-33.69402c0.87114,-0.26941 -1.89957,-1.45284 -3.59393,-3.73585c-2.40596,-3.2418 -4.06029,-7.68835 -2.23893,-6.17482c8.73226,7.2564 38.86116,9.38007 53.77527,17.39311c10.68361,5.74008 10.27121,17.81016 3.78055,21.67787z" data-paper-data="{&quot;index&quot;:null}" stroke="#626171" stroke-width="1.5"/><path d="M232.34667,28.72873c-1.42212,2.05612 -3.47823,0.63399 -3.47823,0.63399l-2.14116,-1.48095c-3.64502,-2.58459 -7.97802,-2.44783 -12.2977,-3.06558c-5.80381,-0.82997 -11.75136,-0.61052 -17.53944,-1.4374c-2.82396,-0.40343 -5.60426,-1.20102 -8.46901,-1.57252c0,0 -2.47922,-0.32169 -2.15753,-2.80091c0.32169,-2.47922 2.80091,-2.15753 2.80091,-2.15753c6.78637,0.88104 13.33259,1.99411 20.17331,2.51188c6.81252,0.51564 14.5269,0.46896 20.33371,4.40983l2.14116,1.48094c0,0 2.05611,1.42212 0.63399,3.47823z" stroke="none" stroke-width="0.5"/><path d="M245.86792,51.6767c-13.49132,-1.15975 -34.80188,20.53104 -34.80188,20.53104c0,0 -2.47751,-14.53268 5.1984,-22.22121c3.51183,-3.5176 10.10684,-5.59384 12.03208,-5.76687c1.92524,-0.17303 22.5237,7.88275 17.5714,7.45703z" stroke="#3a2f41" stroke-width="2.5"/></g><path d="M216.95166,23.52332c-0.22379,-2.48996 2.26618,-2.71375 2.26618,-2.71375l1.93673,0.00547c1.75232,0.5327 3.71119,0.37452 5.37484,1.14046c1.76557,0.81288 3.42955,2.8646 4.72411,4.29856c0.09208,0.10199 0.18576,0.20434 0.28088,0.30705c0.49736,0.25826 0.80462,0.59942 0.80462,0.59942c2.53101,2.82576 6.68412,4.50202 8.17019,8.13396c1.21635,2.97274 -0.02405,6.67799 -0.8822,9.5093l-0.26291,0.22282l0.10886,0.06733l-1.29965,2.10149c-0.39755,0.65868 -1.09277,1.12562 -1.91775,1.19976c-1.37517,0.12359 -2.59016,-0.89101 -2.71375,-2.26618l-0.22379,-2.48996l0.04983,-0.00448c-0.02121,-0.08023 -0.04117,-0.16088 -0.05977,-0.24197c-0.38789,-1.69028 0.91537,-3.36708 1.04631,-5.09634c0.13293,-1.75573 -2.46488,-3.86595 -3.47026,-4.98079c-0.55491,-0.61533 -1.20289,-1.49147 -1.90665,-2.41547c-0.11104,-0.12414 -0.22857,-0.25496 -0.35387,-0.39345c0,0 -0.17712,-0.19667 -0.3521,-0.51964c-1.1721,-1.48468 -2.45469,-2.91435 -3.69732,-3.42954c-1.523,-0.63143 -3.27243,-0.48519 -4.85356,-0.95236l-0.05523,0.18448c0,0 -2.48996,0.22379 -2.71375,-2.26618z" fill="#3a2f41" stroke="none" stroke-width="0.5" stroke-linecap="butt"/><g fill="#3a2f41" stroke-linecap="butt"><path d="M242.87608,-45.34897c0,0 32.74109,38.61424 36.24921,76.39815c2.07964,22.39857 -13.05913,-4.41559 -30.67448,-3.31291c-8.17643,0.51182 -31.43276,-2.54825 -31.43276,-2.54825c0,0 4.15233,-16.51016 7.917,-26.77963c4.66158,-12.71605 17.94102,-43.75736 17.94102,-43.75736z" data-paper-data="{&quot;index&quot;:null}" stroke="#8c9ca0" stroke-width="2.5"/><path d="M271.01845,9.28228c2.2587,6.48582 4.00315,13.10348 6.05169,19.67355c0.89291,2.86377 2.66236,8.41528 2.00972,11.433c-0.01816,0.084 -0.03742,0.16765 -0.0577,0.25099l0.06072,0.00174l-0.09491,3.33905c-0.01423,1.02819 -0.53379,2.02832 -1.47007,2.61479c-1.46646,0.91855 -3.39986,0.47439 -4.31842,-0.99206c-0.16482,-0.26313 -0.28575,-0.54129 -0.3648,-0.82594l-0.78757,-2.60743l-1.74174,-0.91371c-9.50367,-3.90723 -19.36963,-6.29875 -28.94606,-9.74698l-0.0836,0.43159l-6.14281,-1.18991c-0.8261,-0.15769 -1.58682,-0.64558 -2.06848,-1.41453c-0.05747,-0.09176 -0.10963,-0.18537 -0.15652,-0.28042c-1.26137,-0.14435 2.47469,7.53358 1.16743,7.40243c-1.79281,-0.17986 -8.62757,-8.11344 -10.28812,-7.76643c-0.46133,0.09641 -0.91716,0.21342 -1.3692,0.34472c-0.64647,1.0286 -1.30743,2.05124 -1.98358,3.07331c0,0 -0.13934,0.21056 -0.39866,0.47257l-0.49274,0.96817c-0.24806,0.50911 -0.63715,0.95721 -1.15246,1.27998c-1.46645,0.91855 -3.39986,0.47439 -4.31842,-0.99206c-0.55104,-0.87975 -0.61167,-1.92756 -0.25533,-2.82351l0.453,-1.17591c-0.19739,-0.61739 -0.19367,-1.2712 -0.00934,-1.87223l0.95487,-3.17224l0.03805,0.01145l-0.00192,-0.12378c1.93614,-5.00416 4.46549,-9.72597 6.35936,-14.77074c0.53476,-1.42444 1.7786,-5.40224 2.97958,-6.60344c0.00298,-0.00297 0.00594,-0.00596 0.00892,-0.0089l-0.00299,-0.00169l1.89441,-3.372c0.24898,-0.4641 0.61852,-0.87168 1.09684,-1.17128c1.46645,-0.91855 3.39985,-0.47439 4.31842,0.99206c0.58647,0.93628 0.61742,2.06289 0.18152,2.9942l-1.37184,3.04571l-0.05435,-0.02447l-0.00002,0.13894c-1.67403,3.02381 -3.18223,6.30346 -4.55772,9.62397c0.49092,0.24881 0.92254,0.63018 1.23601,1.13061c0.58646,0.93627 0.61742,2.06289 0.18152,2.9942l-1.1908,2.64375c0.70474,0.01093 1.32554,0.03134 1.78354,0.02991c3.8345,-0.01213 8.68026,0.00483 13.0655,0.55924c3.04974,-0.35591 6.058,-0.05972 8.95205,0.76207c0.21007,-0.25634 0.46471,-0.48347 0.7611,-0.66912c1.03723,-0.64971 2.30805,-0.61765 3.28815,-0.02434l5.16064,2.98439l-0.01244,0.0215c0.05882,0.0263 0.11749,0.05295 0.17606,0.07996c2.82704,1.30369 4.98175,3.73234 7.50872,5.55376c-0.12183,-1.15327 0.40406,-2.32969 1.45305,-2.98676c0.54319,-0.34023 1.15041,-0.49351 1.74643,-0.4771c-0.50375,-1.31368 -1.01748,-2.62061 -1.44266,-3.93516c-1.70274,-5.26414 -2.73921,-10.51436 -4.71592,-15.73122l3.60629,-0.19191l2.25341,-2.0284c0.23586,0.62249 0.46571,1.24646 0.6903,1.87174l0.14229,-0.00759c0,0 0.22257,0.50149 0.27156,1.17793z" stroke="none" stroke-width="0.5"/></g><path d="M260.43819,56.07667c0,0 -4.34507,-13.0378 -3.89738,-13.35526c0.54633,-0.38742 6.39329,4.87071 6.39329,4.87071l-3.95303,3.36478l3.99563,-3.27332l4.91462,4.29411" fill="none" stroke-opacity="0.38867" stroke="#ff5a7a" stroke-width="2" stroke-linecap="round"/><path d="M263.61897,44.17745c0,0 0.89637,-0.86381 1.27707,-0.83569c0.16997,0.01255 -1.14701,-1.68036 -0.90648,-1.38871c0.21608,0.26199 1.99044,2.50001 2.14331,2.69542c0.47537,0.60769 -0.96441,-1.18765 -0.96441,-1.18765l1.29777,-1.0419" fill="none" stroke-opacity="0.38867" stroke="#ff5a7a" stroke-width="2" stroke-linecap="round"/><path d="M264.17273,60.3438c-7.45261,0.80504 -14.68064,-3.68775 -16.14425,-10.03493c-1.4636,-6.34718 3.39145,-12.14519 10.84406,-12.95023c7.45261,-0.80503 14.68064,3.68775 16.14425,10.03492c1.4636,6.34718 -3.39145,12.14519 -10.84406,12.95024z" fill="none" stroke-opacity="0.38867" stroke="#ff5a7a" stroke-width="2" stroke-linecap="butt"/><path d="M274.34205,79.90101c0.17303,1.92524 -5.78091,4.03367 -13.2985,4.70932c-7.51759,0.67565 -15.24554,-9.5068 -15.24554,-9.5068c0,0 11.26808,1.16267 18.6701,-4.52274c5.98593,-4.59774 9.70091,7.39498 9.87394,9.32022z" fill="#3a2f41" stroke="#3a2f41" stroke-width="2.5" stroke-linecap="butt"/><path d="M236.5934,61.67505c10.76679,-0.85148 17.09434,6.54934 17.03067,12.15678c-0.06367,5.60744 -6.76211,10.49376 -17.54631,11.08835c-13.78091,0.75981 -17.29473,-7.89119 -17.29473,-7.89119c0,0 3.01629,-14.18397 17.81037,-15.35393z" fill="#3a2f41" stroke="#3a2f41" stroke-width="1" stroke-linecap="butt"/><path d="M253.66667,90.81769c-2.25,0 -2.25,-2.25 -2.25,-2.25v-0.66667c0,-1.50239 -0.15254,-3.01313 0.00566,-4.50717c0.03359,-0.31721 0.59461,-0.73952 0.32002,-0.90184c-0.44636,-0.26386 -1.0788,0.40369 -1.54537,0.1775c-0.42418,-0.20564 -0.87118,-0.42088 -1.29918,-0.66516c-0.37295,2.96085 -0.64779,5.93573 -0.64779,8.89667v2.33333c0,0 0,2.25 -2.25,2.25c-2.25,0 -2.25,-2.25 -2.25,-2.25v-2.33333c0,-4.78114 0.68943,-9.5764 1.35595,-14.3182c0,0 0.3182,-2.22739 2.54558,-1.90919c0.10558,0.01508 0.20544,0.03445 0.29988,0.05768c0.37302,-0.29727 0.90502,-0.49075 1.661,-0.39625c2.23263,0.27908 1.95355,2.5117 1.95355,2.5117c-0.17335,0.48374 -0.5945,0.94278 -0.52005,1.45123c0.03745,0.25578 0.507,0.10261 0.75713,0.16788c1.04289,0.27213 2.40415,0.03956 3.12129,0.84416c1.62495,1.82313 0.99234,6.31686 0.99234,8.59099v0.66667c0,0 0,2.25 -2.25,2.25z" fill="#3a2f41" stroke="none" stroke-width="0.5" stroke-linecap="butt"/><path d="M205.36944,86.87073c0.05067,0.27145 -0.70046,0.63939 -1.67769,0.8218c-0.97723,0.18242 -1.81051,0.11024 -1.86119,-0.16122c-0.05067,-0.27145 0.70046,-0.63939 1.67769,-0.8218c0.97723,-0.18242 1.81051,-0.11024 1.86119,0.16122z" fill="#3a2f41" stroke="#3a2f41" stroke-width="1" stroke-linecap="butt"/></g><path d="M200.16988,7.15103l-2.72371,-38.47343l9.22371,-27.02657l14.11057,26.4401l2.08788,30.47038l-3.58049,8.33264l-5.11796,6.00688z" fill="#8c9ca0" stroke="#3a2f41" stroke-width="2" stroke-linecap="butt"/><path d="M199.80063,-13.09897c0,-0.41421 0.33579,-0.75 0.75,-0.75c0.41421,0 0.75,0.33579 0.75,0.75c0,0.41421 -0.33579,0.75 -0.75,0.75c-0.41421,0 -0.75,-0.33579 -0.75,-0.75z" fill="#3a2f41" stroke="none" stroke-width="0.5" stroke-linecap="butt"/><path d="M211.30063,-5.09897c0,-0.34312 0.15697,-0.52926 0.32729,-0.63025c-0.3239,-1.40979 -0.56599,-2.83897 -0.57168,-4.27811c-0.65221,-2.60884 -0.37223,-5.35618 -0.75,-8c-0.00302,-0.02112 -0.00604,-0.04223 -0.00908,-0.06334c0.00257,0.6603 0.00346,1.31788 0.00346,1.9717c0,6.55537 0.36121,13.17873 0.46681,19.80868c0.15967,1.01816 0.32746,2.03434 0.46465,3.05316l0.0833,-0.03083l0.51464,1.39049c0.03397,0.08558 0.05264,0.1789 0.05264,0.27658c0,0.30274 -0.17937,0.56358 -0.43763,0.68205c0.56791,2.02049 1.03063,4.62071 0.59996,6.41151c-0.38857,1.61572 -3.16584,2.4348 -4.17577,0.47176c-0.51394,-0.99898 0.49504,-1.69371 0.70145,-2.48571c0.47668,-1.82908 0.24391,-3.99517 0.73556,-5.91932c-0.00342,-0.85805 -0.01206,-1.71641 -0.02474,-2.57491c-0.15696,-1.1102 -0.12274,-2.32085 -0.22819,-3.26994c-0.54466,-4.90238 -0.51909,-9.79625 -1.01203,-14.69481c-0.05689,0.35781 -0.36684,0.6313 -0.74066,0.6313c-0.41421,0 -0.75,-0.33579 -0.75,-0.75c0,-0.41421 0.33579,-0.75 0.75,-0.75c0.31972,0 0.59272,0.20006 0.70063,0.48182c-0.04123,-0.38765 -0.08588,-0.77534 -0.1345,-1.16306c-0.03887,-1.34789 -0.06303,-2.69647 -0.07726,-4.04545c-0.02203,0.49193 -0.07138,0.98293 -0.15715,1.47669h0.16828v1c0,0.41421 -0.33579,0.75 -0.75,0.75c-0.33738,0 -0.62273,-0.22277 -0.71698,-0.52924l-0.24453,-0.73359l0.052,-0.01733l-0.0808,-0.0997c0,-0.84629 -0.25019,-1.51682 -0.25968,-2.37014c0,-3.06189 -0.0066,-6.12388 -0.00581,-9.18583c-0.13197,0.1157 -0.30489,0.18583 -0.49419,0.18583c-0.33738,0 -0.62273,-0.22277 -0.71698,-0.52924l-0.07461,-0.22384c-0.10208,0.29291 -0.3807,0.50308 -0.7084,0.50308c0,0.64246 0,1.28492 0,1.92738c0,3.14366 0.2741,6.39703 -0.52971,9.43306l0.02515,0.00019l-0.00374,0.49975c-0.00088,0.13732 -0.11247,0.24837 -0.24999,0.24837c-0.13374,0 -0.24295,-0.10501 -0.24967,-0.23708l-0.02806,-0.47828c-0.33818,-1.24543 -1.1464,-2.83511 -1.57552,-4.35942c0.16012,1.65919 0.34007,3.34538 -0.17694,4.9532l0.03849,0.01283c0,0 0,0.75 -0.75,0.75c-0.75,0 -0.75,-0.75 -0.75,-0.75l0.03849,-0.48717c1.01415,-2.90204 0.10987,-5.76558 0.25095,-8.6892c-0.11907,-0.3434 -0.22503,-0.70271 -0.29403,-1.05132c-0.10359,0.34788 -0.23869,0.68716 -0.40474,1.0082l0.0486,0.02161l-0.20081,0.45167c-0.03772,0.09024 -0.12684,0.15365 -0.23076,0.15365c-0.103,0 -0.19145,-0.06228 -0.22974,-0.15124l-0.20545,-0.44963l0.01388,-0.00634l-0.03072,-0.04414c-0.01165,-0.94723 -0.27142,-1.53943 -0.50246,-2.4333c0.00782,-3.39032 0.66034,-7.21579 1.88053,-10.35792c1.10998,-1.7893 2.17501,-4.77157 2.62549,-6.8707c0.18731,-0.8728 0.3773,-2.1166 1.13721,-2.68012c0.28155,-0.58748 0.51455,-1.14282 0.70716,-1.6817c-0.02938,0.01152 -0.06466,0.01822 -0.10702,0.01764c-0.24998,-0.00341 -0.24656,-0.25339 -0.24656,-0.25339l0.00145,-0.10649c0.02378,-1.70944 0.56296,-3.53251 1.23818,-5.22142c0.00753,-0.37436 0.01034,-0.76271 0.01034,-1.16868c0,0 0,-0.25 0.25,-0.25c0.19723,0 0.23886,0.1556 0.24765,0.22129c0.08969,-0.20085 0.18008,-0.39867 0.27042,-0.59299c0.00931,-0.37605 -0.14393,-1.64227 0.61741,-1.58877c0.23552,0.01655 0.59309,1.28087 0.7376,1.49195c1.41019,2.05984 2.45953,4.2665 3.85091,6.35478c1.65841,2.59317 4.28336,6.05471 5.14684,8.99246c1.68803,2.72403 3.45893,6.32975 4.37702,9.41361c0.04529,3.36985 0.90163,6.96086 1.50246,10.3294c0.01791,3.41407 0.49974,6.91157 0.49967,10.43466c-0.00002,0.90362 0.42202,5.23494 -0.66963,5.65226c-1.13918,0.43549 -1.36237,-3.83273 -1.85714,-4.51282c-1.0265,-1.44378 -0.73616,-3.28964 -0.97719,-4.9327c-0.26098,-1.77902 -0.96128,-3.54511 -1.27868,-5.33516c-0.36646,-2.06673 -0.83766,-4.054 -1.18694,-6.14728c0.07648,2.58423 0.21642,5.41893 -0.55244,7.80777l0.03487,0.00475l-0.06701,0.49191c-0.01492,0.12382 -0.12035,0.21977 -0.24819,0.21977c-0.11754,0 -0.21613,-0.08111 -0.24286,-0.19042l-0.12478,-0.465c-0.02957,-0.06938 -0.05854,-0.13896 -0.08694,-0.20873c-0.0214,1.19495 -0.09229,2.31338 -0.31442,3.42052c0.02227,0.07994 0.04167,0.16216 0.05781,0.24693c0.29125,1.52939 0.0427,8.93661 -2.35834,7.24352c0.13364,0.99755 0.35405,1.98685 0.59948,2.96641l-1.22761,0.9319c0,0 -0.75,0 -0.75,-0.75zM207.7718,-21.97157c-0.11417,-2.17832 -0.50383,-5.68215 -0.00886,-7.9331c-0.10909,-0.15419 -0.21506,-0.31143 -0.3062,-0.46753c0.10898,2.55999 -0.19832,5.15035 0.09024,7.69933c0.09709,0.85761 0.18704,1.68599 0.23002,2.50125c-0.00318,-0.59994 -0.00477,-1.19993 -0.0052,-1.79995zM211.84705,-17.79229c0.00625,-0.24029 0.0128,-0.48085 0.01936,-0.72158c-0.0193,-0.06317 -0.03678,-0.12755 -0.05225,-0.19327c-0.20745,-0.88143 -0.33664,-1.74218 -0.41287,-2.61428c-0.05739,0.11352 -0.11796,0.22634 -0.18188,0.33845c0.22372,0.92756 0.44176,1.85533 0.5756,2.79236c0.01894,0.13259 0.03622,0.26537 0.05205,0.39832zM210.75432,-23.00077c0.24251,-0.70533 0.32088,-1.56315 0.32042,-2.46628c-0.03691,-0.45051 -0.04799,-0.90372 -0.04806,-1.35822c-0.0209,-0.33505 -0.04664,-0.66909 -0.07314,-0.99697l-0.09927,-0.24818l0.04216,-0.01686l-0.08227,-0.11985c0.00106,-0.12614 -0.00245,-0.25128 -0.01015,-0.37549c-0.17743,1.54263 -0.43872,3.11815 -0.26063,4.37964c0.0568,0.40238 0.12918,0.80289 0.21094,1.20223zM210.3502,11.54998c-0.06068,0.77706 -0.14276,1.54199 -0.31963,2.27337c-0.13413,0.55466 -1.02368,0.98993 -0.79855,1.51429c0.19899,0.46348 1.05378,0.70802 1.45771,0.40594c0.3603,-0.26945 -0.13777,-0.89264 -0.13909,-1.34255c-0.00272,-0.92429 -0.07004,-1.88941 -0.20043,-2.85105zM204.96375,-53.52087c-0.37119,1.15214 -0.63006,2.32864 -0.6596,3.46307c0.37295,-1.15799 0.56454,-2.25818 0.6596,-3.46307z" fill="#3a2f41" stroke="none" stroke-width="0.5" stroke-linecap="butt"/><path d="M207.77875,-20.12165c-0.04298,-0.81526 -0.13566,-1.64362 -0.23275,-2.50123c-0.28856,-2.54898 0.01834,-5.23931 -0.09064,-7.7993c0.09114,0.1561 0.20027,0.31335 0.30936,0.46754c-0.49497,2.25095 -0.10446,5.85468 0.00971,8.033c0.00043,0.60002 0.00115,1.20005 0.00432,1.79999z" data-paper-data="{&quot;noHover&quot;:true,&quot;origItem&quot;:[&quot;Path&quot;,{&quot;applyMatrix&quot;:true,&quot;segments&quot;:[[[415.5436,-43.94314],[0.00086,1.20004],[-0.22834,-4.35664]],[[415.52588,-59.80934],[-0.98994,4.5019],[-0.21818,-0.30838]],[[414.91348,-60.7444],[0.18228,0.3122],[0.21796,5.11998]],[[415.09396,-45.34574],[-0.57712,-5.09796],[0.19418,1.71522]],[[415.554,-40.34324],[-0.08596,-1.63052],[-0.00636,-1.19988]]],&quot;closed&quot;:true,&quot;fillColor&quot;:[0,0,0,1]}]}" fill="#000000" stroke="none" stroke-width="0.5" stroke-linecap="butt"/><path d="M204.05063,-8.09897c-0.75,0 -0.75,-0.75 -0.75,-0.75v-0.5c0.00336,-0.69352 -0.05538,-1.3963 -0.22761,-2.0681c0,0 -0.1819,-0.72761 0.54571,-0.90951c0.72761,-0.1819 0.90951,0.54571 0.90951,0.54571c0.19387,0.79233 0.26898,1.61621 0.27239,2.4319v0.5c0,0 0,0.75 -0.75,0.75z" fill="#3a2f41" stroke="none" stroke-width="0.5" stroke-linecap="butt"/><path d="M216.80063,-6.59897c0,-0.41421 0.33579,-0.75 0.75,-0.75c0.41421,0 0.75,0.33579 0.75,0.75c0,0.41421 -0.33579,0.75 -0.75,0.75c-0.41421,0 -0.75,-0.33579 -0.75,-0.75z" fill="#3a2f41" stroke="none" stroke-width="0.5" stroke-linecap="butt"/><path d="M239.73789,95.93526l-0.18783,0.06529l0.0416,0.0624l-1.23954,0.82636c-0.12072,0.08304 -0.26696,0.13165 -0.42456,0.13165c-0.41421,0 -0.75,-0.33579 -0.75,-0.75c0,-0.19383 0.07353,-0.37049 0.19421,-0.5036l0.74613,-0.82989l0.13733,0.12347c0.24662,-0.40764 0.50885,-0.81664 0.77003,-1.22878c0.94806,-3.52402 -0.59963,-8.54991 -0.59963,-11.89326c0,0 0,-0.75 0.75,-0.75c0.75,0 0.75,0.75 0.75,0.75c0,0.40339 0.01639,0.81932 0.04438,1.24523c0.10429,-0.2888 0.38085,-0.49523 0.70562,-0.49523c0.2994,0 0.55783,0.17544 0.67809,0.42912l0.28574,0.57147c0.01186,-0.00039 0.02392,-0.00059 0.03618,-0.00059c0.75,0 0.75,0.75 0.75,0.75l-0.07918,0.83541c-0.0961,0.19221 -0.17956,0.39031 -0.25235,0.59333c0.24894,1.39227 0.61406,2.76221 0.31146,4.24357c-0.13278,0.65005 -0.54655,1.39758 -0.92886,2.10692c-0.03381,0.49542 -0.05842,0.94974 -0.06076,1.3409l-0.06771,0.10407l0.0389,0.01297l-0.46887,1.40662c-0.09425,0.30647 -0.3796,0.52924 -0.71698,0.52924c-0.10104,0 -0.19742,-0.01998 -0.28539,-0.05621c-0.05572,0.12805 -0.115,0.25459 -0.17801,0.37954z" fill="#3a2f41" stroke="none" stroke-width="0.5" stroke-linecap="butt"/><path d="M215.85836,101.33304c1.06062,-1.62221 4.40516,-2.13445 6.07213,-2.13445c2.05254,-0.68418 4.36663,-0.281 6.59234,-0.27378c0.29498,-0.11936 0.58405,-0.25173 0.86576,-0.39982c1.02011,-0.58177 2.61425,-1.67153 3.6947,-2.0539c1.54291,-0.54603 2.68711,-0.12308 3.28496,0.7309c0.2769,0.04121 0.50776,0.14615 0.59363,0.38303c0.09214,0.25417 0.01539,0.52555 -0.15313,0.77402c0.10473,0.7643 -0.07805,1.6345 -0.59687,2.43377c-0.53566,0.82523 -1.35925,1.21991 -2.26331,1.44587c-1.02917,0.56493 -2.15738,0.58309 -3.39826,0.57791c-0.0971,0.02733 -0.19135,0.0572 -0.28234,0.09014c-1.24689,0.4514 -1.79619,1.38782 -2.57935,2.42648c-1.21681,2.44061 -1.38799,5.66518 -1.38799,8.3557c0,0.36965 -0.24245,1.86507 -0.08874,2.14611c0.35194,0.6435 1.48464,1.04313 1.32264,1.75847c-0.29557,1.30517 -3.22553,2.3186 -4.26423,1.37575c-0.67776,-0.61522 -0.47084,-1.8938 -0.46405,-2.68869c-0.65411,-2.61643 -0.20959,-5.33993 -0.69781,-7.98612c-0.00435,-0.00315 -0.0087,-0.00631 -0.01305,-0.00949c-0.36683,-0.26757 -0.50838,-0.75246 -0.76257,-1.12869c-0.0031,-0.09316 0.00117,-0.32559 0.00531,-0.63842c-0.25761,-0.22398 -0.54275,-0.43452 -0.69874,-0.72502c-0.12149,-0.22625 -0.08947,-2.19414 -0.08874,-2.35389c0.00079,-0.17336 -0.06307,-0.4123 -0.13908,-0.65854c-0.41362,0.29502 -0.74156,1.02388 -1.2057,1.29811c-0.29197,0.98822 -0.7027,4.2488 -1.17044,4.68269c-1.38281,1.28275 -2.04748,-0.45603 -2.2251,-1.20213c-0.18599,-0.78127 -0.32538,-2.38099 -0.34181,-3.72149c-0.18281,0.08745 -0.37162,0.13036 -0.56496,0.08679c-1.41494,-0.31888 -0.99501,-2.08424 -1.31443,-2.99826c0,0 -0.23717,-0.71151 0.47434,-0.94868c0.71151,-0.23717 0.94868,0.47434 0.94868,0.47434c0.20513,0.63794 0.16589,2.67155 0.18557,2.00174c0.01259,-0.42837 0.28529,-0.83547 0.66065,-1.12043z" fill="#3a2f41" stroke="none" stroke-width="0.5" stroke-linecap="butt"/></g><g fill="none" stroke-linecap="butt"><path d="M235.59149,76.19831c0,2.53314 -1.973,4.58668 -4.40681,4.58668c-2.43381,0 -4.40682,-2.05352 -4.40682,-4.58668c0,-2.53314 1.97301,-4.58668 4.40682,-4.58668c2.43381,0 4.40681,2.05352 4.40681,4.58668z" stroke="#520000" stroke-width="7"/><path d="M235.59149,76.19831c0,2.53314 -1.973,4.58668 -4.40681,4.58668c-2.43381,0 -4.40682,-2.05352 -4.40682,-4.58668c0,-2.53314 1.97301,-4.58668 4.40682,-4.58668c2.43381,0 4.40681,2.05352 4.40681,4.58668z" stroke="#9d0000" stroke-width="5.5"/><path d="M235.59149,76.19831c0,2.53314 -1.973,4.58668 -4.40681,4.58668c-2.43381,0 -4.40682,-2.05352 -4.40682,-4.58668c0,-2.53314 1.97301,-4.58668 4.40682,-4.58668c2.43381,0 4.40681,2.05352 4.40681,4.58668z" stroke="#fa0000" stroke-width="4"/><path d="M235.59149,76.19831c0,2.53314 -1.973,4.58668 -4.40681,4.58668c-2.43381,0 -4.40682,-2.05352 -4.40682,-4.58668c0,-2.53314 1.97301,-4.58669 4.40682,-4.58669c2.43381,0 4.40681,2.05353 4.40681,4.58669z" stroke="#f58d8d" stroke-width="2.5"/><path d="M235.59149,76.19831c0,2.53314 -1.973,4.58668 -4.40681,4.58668c-2.43381,0 -4.40682,-2.05352 -4.40682,-4.58668c0,-2.53314 1.97301,-4.58669 4.40682,-4.58669c2.43381,0 4.40681,2.05352 4.40681,4.58669z" stroke="#ffffff" stroke-width="1"/></g><path d="M250.81658,26.29835l5.8687,-7.94286l22.63382,12.0396l6.15275,11.30461z" data-paper-data="{&quot;index&quot;:null}" fill="#7c7984" stroke="#3a2f41" stroke-width="2" stroke-linecap="butt"/><path d="M200.74559,20.0073l-1.40741,-7.92413l18.98825,-1.12355l1.40742,7.92414z" fill="#7c7984" stroke="#3a2f41" stroke-width="2" stroke-linecap="butt"/><g stroke-width="2" stroke-linecap="butt"><path d="M257.77372,12.99551c1.60661,6.80824 -3.81867,14.21002 -3.81867,14.21002c0,0 -1.44168,5.7048 -18.79911,1.82723c-22.86086,-4.19825 -14.35075,-9.41057 -14.35075,-9.41057c0,0 -5.74284,-8.98272 -3.28276,-14.18477c1.7807,-3.76548 9.48433,-9.25503 23.27506,-5.9883c13.84245,3.279 16.81212,12.85091 16.97624,13.54637z" data-paper-data="{&quot;index&quot;:null}" fill="#4b4960" stroke="#3a2f41"/><g><path d="M254.03618,20.31094c-1.16543,6.11138 -9.81647,9.30276 -19.32262,7.12814c-9.50615,-2.17463 -16.26769,-8.89175 -15.10225,-15.00315c1.16543,-6.11138 9.81648,-9.30277 19.32263,-7.12814c9.50615,2.17463 16.26767,8.89176 15.10223,15.00315z" fill="#e1e2db" stroke="#b8c1c0"/><path d="M244.4707,25.86759c-1.71316,3.19595 -9.82407,2.38627 -16.49028,-1.72729c-6.66621,-4.11356 -9.36337,-9.97322 -7.65018,-13.16918c1.71316,-3.19595 8.50601,-2.45209 15.17223,1.66144c6.66622,4.11356 10.68142,10.03908 8.96823,13.23503z" fill="#8c9ca0" stroke="none"/><path d="M247.28164,12.92927c-0.33687,0.67175 -1.89608,0.47244 -3.4826,-0.44517c-1.58651,-0.9176 -2.59955,-2.20601 -2.26268,-2.87775c0.33687,-0.67175 1.89608,-0.47243 3.4826,0.44518c1.58651,0.9176 2.59955,2.20598 2.26268,2.87773z" fill="#ffffff" stroke="none"/><path d="M251.4719,18.42205c-0.36865,1.93319 -2.04704,3.18478 -3.74875,2.79549c-1.70171,-0.38929 -2.78239,-2.27202 -2.41373,-4.20521c0.36865,-1.93319 2.04704,-3.18478 3.74875,-2.79549c1.70171,0.3893 2.78239,2.27202 2.41373,4.20521z" fill="#ffffff" stroke="none"/></g><path d="M215.81813,17.58959c-1.6066,-6.80824 1.60188,-11.88895 1.60188,-11.88895c0,0 0.24497,14.5257 17.60242,18.40325c16.52614,3.69185 22.43072,-8.53826 22.43072,-8.53826c0,0 1.32907,5.38053 -1.13101,10.5826c-1.7807,3.76549 -9.65658,10.15835 -23.44732,6.8916c-13.84245,-3.279 -16.89257,-14.75476 -17.0567,-15.45022z" fill="#7c7984" stroke="#3a2f41"/></g><path d="M165.85086,23.32674l8.61433,5.48739l-26.85857,7.93262l8.36505,-9.45928z" data-paper-data="{&quot;index&quot;:null}" fill="#7c7984" stroke="#3a2f41" stroke-width="2" stroke-linecap="butt"/><g stroke-width="2" stroke-linecap="butt"><path d="M198.98966,3.08555c5.11544,4.05136 5.29236,12.8768 5.29236,12.8768c0,0 2.19328,5.11322 -13.06467,12.94111c-19.57389,10.98277 -16.17762,1.87716 -16.17762,1.87716c0,0 -9.46939,-3.11201 -10.60942,-8.4807c-0.82521,-3.88608 1.80636,-12.69987 14.03581,-18.78152c12.27529,-6.10444 20.00097,-0.84672 20.52353,-0.43287z" data-paper-data="{&quot;index&quot;:null}" fill="#4b4960" stroke="#3a2f41"/><g><path d="M200.38409,10.80669c2.63415,5.24404 -2.02832,12.93994 -10.41395,17.18928c-8.38562,4.24935 -17.31889,3.44297 -19.95304,-1.80106c-2.63415,-5.24404 2.02832,-12.93994 10.41395,-17.18928c8.38562,-4.24935 17.3189,-3.44297 19.95304,1.80106z" fill="#e1e2db" stroke="#b8c1c0"/><path d="M196.39312,20.8179c0.54889,3.42272 -6.00546,7.82276 -13.37223,8.88569c-7.36677,1.06293 -12.7563,-1.61377 -13.30519,-5.03649c-0.54889,-3.42272 4.97808,-7.05905 12.34485,-8.12198c7.36677,-1.06293 13.78368,0.85006 14.33257,4.27277z" fill="#8c9ca0" stroke="none"/><path d="M191.07431,9.50399c0.13278,0.7051 -1.15226,1.51859 -2.87025,1.81704c-1.718,0.29845 -3.21837,-0.03121 -3.35115,-0.7363c-0.13278,-0.7051 1.15226,-1.51861 2.87025,-1.81706c1.718,-0.29845 3.21835,0.03122 3.35115,0.73632z" fill="#ffffff" stroke="none"/><path d="M197.37448,10.98853c0.83324,1.65883 0.29183,3.62022 -1.2093,4.38091c-1.50112,0.76069 -3.39351,0.03259 -4.22678,-1.62624c-0.83324,-1.65883 -0.29183,-3.62021 1.2093,-4.3809c1.50112,-0.76069 3.39351,-0.0326 4.22678,1.62623z" fill="#ffffff" stroke="none"/></g><path d="M170.12826,32.34952c-5.11544,-4.05137 -5.62391,-9.79155 -5.62391,-9.79155c0,0 8.52449,10.6057 23.78244,2.77782c14.52719,-7.45296 11.93773,-20.14938 11.93773,-20.14938c0,0 4.0873,3.16519 5.22734,8.53387c0.82521,3.88609 -1.41703,13.47498 -13.64645,19.55664c-12.27529,6.10444 -21.15457,-0.51354 -21.67712,-0.92739z" fill="#7c7984" stroke="#3a2f41"/></g><g data-paper-data="{&quot;index&quot;:null}"><path d="M237.91498,105.41634c6.73923,9.04359 11.8126,26.911 7.1438,37.04718c-3.62492,7.86988 -13.80316,8.13117 -22.10082,8.34405c-29.96447,0.76879 -21.96245,-28.38255 -7.68553,-42.98892" fill="none" stroke="url(#color-2)" stroke-width="2" stroke-linecap="round"/><g><g><path d="M202.81635,174.38903l17.94131,-24.55803l13.7317,26.15398z" fill="#b8c1c0" stroke="none" stroke-width="0" stroke-linecap="butt"/><path d="M220.56191,175.77149l8.04996,-11.48554l5.87595,11.79997z" fill-opacity="0.81029" fill="#8c9ca0" stroke="none" stroke-width="0" stroke-linecap="butt"/><path d="M202.41575,174.18101l18.28923,-24.86513l4.14977,7.72287l-7.84372,-0.08869l-9.81938,15.18427l11.37962,1.78961l-4.75424,0.63376z" fill-opacity="0.5206" fill="#ffffff" stroke="none" stroke-width="0" stroke-linecap="butt"/><path d="M234.65473,175.8992l-13.90212,-26.56038" fill="none" stroke="#2c2431" stroke-width="2" stroke-linecap="round"/><path d="M202.62983,173.99078l18.12277,-24.65196" fill="none" stroke="#2c2431" stroke-width="2" stroke-linecap="round"/><path d="M202.42703,174.2695l32.00062,1.62623" fill="none" stroke="#2c2431" stroke-width="2" stroke-linecap="round"/></g><path d="M214.76693,155.65273l10.91436,0.44977" fill="none" stroke="#2c2431" stroke-width="2" stroke-linecap="round"/><path d="M225.92337,153.48159l-10.91436,-0.44977" fill="none" stroke="#2c2431" stroke-width="2" stroke-linecap="round"/></g></g></g></g></svg>