<svg version="1.1" xmlns="http://www.w3.org/2000/svg" xmlns:xlink="http://www.w3.org/1999/xlink" width="467.59412" height="352.3645" viewBox="0,0,467.59412,352.3645"><defs><linearGradient x1="333.73321" y1="202.78796" x2="299.09747" y2="218.43708" gradientUnits="userSpaceOnUse" id="color-1"><stop offset="0" stop-color="#8c9ca0"/><stop offset="1" stop-color="#3a2f41"/></linearGradient></defs><g transform="translate(-10.57461,-52.48182)"><g data-paper-data="{&quot;isPaintingLayer&quot;:true}" fill-rule="nonzero" stroke-linejoin="miter" stroke-miterlimit="10" stroke-dasharray="" stroke-dashoffset="0" style="mix-blend-mode: normal"><g fill="#cccccc" stroke="none" stroke-width="0.81862" stroke-linecap="butt"><path d="M46.15192,191.32999l4.58451,-0.71455l7.04178,45.18964l-4.58429,0.7144z"/><path d="M37.62823,186.35237l20.17169,-3.14321l0.95919,6.15612l-20.17155,3.14343z"/><path d="M32.43713,152.40812l3.36189,-0.52388l5.38844,34.57989l-3.36189,0.52388z"/><path d="M40.22686,150.79654l3.82046,-0.59548l5.4498,34.97274l-3.82024,0.59534z"/><path d="M48.40958,149.78062l3.97328,-0.6191l5.51116,35.36557l-3.97328,0.61911z"/></g><g fill="#3a2f41" stroke="#3a2f41" stroke-linecap="butt"><path d="M268.97247,188.72305c5.406,46.43992 51.54287,78.19522 50.8055,78.43346c-3.17785,1.90989 -39.02779,-18.46004 -56.41223,-38.65204c-7.03562,-8.17185 -40.50184,-26.58776 -49.37125,-42.10786c-7.25681,-12.69829 8.15872,-23.10656 16.07764,-27.31903c7.41523,-3.94453 35.99786,4.71187 38.90035,29.64546z" data-paper-data="{&quot;index&quot;:null}" stroke-width="1.5"/><path d="M257.05413,148.95621c0,12.04461 -18.20004,17.92467 -36.45999,18.75401c-1.51299,0.06872 -3.53653,-23.77248 -5.02074,-23.77248c-4.03196,0 -7.58041,23.60117 -11.49443,23.04981c-14.91527,-2.10106 -27.60194,-8.22866 -27.60194,-18.56011c0,-14.92289 14.10842,-27.70643 26.13632,-34.62273c6.7453,-3.87869 14.63867,-5.58442 14.63867,-5.58442c0,0 6.60507,1.47498 12.29073,4.60686c11.78109,6.48949 27.48701,19.30567 27.48701,35.3359z" stroke-width="2"/><path d="M210.75531,126.68814c2.93698,5.61482 -13.98215,19.17197 -27.90222,26.45323c-13.92008,7.28127 -32.67025,-3.09957 -33.76071,-9.35933c-0.35132,-0.44349 20.06469,1.2203 33.7262,-14.07654c13.66151,-15.29684 24.99975,-8.63219 27.93674,-3.01738z" stroke-width="1.5"/><path d="M212.95224,127.10779c14.52741,12.79168 -5.3064,25.66287 -20.62535,37.49513c-20.81853,16.08007 -55.10292,14.13018 -58.97097,7.46909c-0.64255,-0.38578 31.35742,-10.24614 43.55072,-32.18458c12.19331,-21.93844 29.92408,-18.16976 36.04561,-12.77963z" stroke-width="1.5"/><path d="M250.98808,128.6453c13.66151,15.29684 34.07752,13.63305 33.7262,14.07654c-1.09046,6.25976 -19.84063,16.6406 -33.76071,9.35933c-13.92007,-7.28126 -30.8392,-20.83841 -27.90222,-26.45323c2.93698,-5.61482 14.27522,-12.27947 27.93674,3.01738z" data-paper-data="{&quot;index&quot;:null}" stroke-width="1.5"/><path d="M257.17771,138.32718c12.19331,21.93845 44.19328,31.79882 43.55072,32.18459c-3.86806,6.66109 -38.15246,8.61098 -58.97097,-7.4691c-15.31896,-11.83226 -35.15277,-24.70344 -20.62535,-37.49512c6.12153,-5.39014 23.85231,-9.15882 36.04562,12.77962z" data-paper-data="{&quot;index&quot;:null}" stroke-width="1.5"/><path d="M217.23737,142.06516c6.53734,5.75627 18.77838,19.11558 9.15017,29.9926c-11.76777,13.2941 -47.35145,24.29653 -55.77686,30.80426c-20.81853,16.08007 -59.07784,28.4927 -61.65306,25.96868c-0.64255,-0.38578 49.81209,-21.76443 65.10819,-65.93964c8.21248,-23.71766 37.05002,-26.21604 43.17155,-20.82591z" stroke-width="1.5"/><path d="M260.20581,160.73979c15.29611,44.1752 65.75075,65.55385 65.10819,65.93963c-2.57522,2.52402 -50.15665,0.86768 -73.12643,-16.64657c-8.42541,-6.50773 -32.53573,-26.83226 -44.3035,-40.12636c-9.6282,-10.87701 2.61284,-24.23634 9.15019,-29.99261c6.12153,-5.39014 34.95907,-2.89175 43.17155,20.82591z" data-paper-data="{&quot;index&quot;:null}" stroke-width="1.5"/><path d="M209.27344,155.89958c7.35591,4.37233 21.53266,14.94869 13.72081,26.42734c-9.5478,14.02942 -28.75491,45.11094 -36.06091,52.3686c-33.57814,26.29662 -72.42947,15.30209 -75.3672,13.34227c-0.69491,-0.26311 24.29047,-14.66846 33.21884,-40.32847c32.37498,-22.48688 57.60043,-55.90394 64.48846,-51.80972z" data-paper-data="{&quot;index&quot;:null}" stroke-width="1.5"/><path d="M276.96155,216.59875c9.40292,61.65975 70.44547,101.89713 69.50917,102.24817c-3.9887,2.69005 -36.45339,-3.16535 -59.88767,-29.29294c-9.48403,-10.57405 -68.2598,-53.27642 -80.49069,-73.56257c-10.00711,-16.59779 9.28157,-31.1714 19.24988,-37.14588c9.33426,-5.59446 46.57089,4.64811 51.61933,37.75323z" data-paper-data="{&quot;index&quot;:null}" stroke-width="1.5"/><path d="M175.61595,304.7972c-1.50362,0.30085 -7.50033,-3.34439 -8.93078,-2.58286c-24.95816,13.28701 -59.79151,26.34722 -59.94764,25.66372c31.06537,-38.60391 20.26838,-57.84061 45.04985,-85.73767c8.18976,-6.24334 43.04285,-49.69664 58.24757,-57.23332c12.44025,-6.16639 23.12689,46.61356 26.45072,54.49892c3.11241,7.3838 -34.16127,36.40055 -60.86971,65.39121zM129.75466,295.83519c0.20815,0 3.81563,-4.27104 7.24015,-11.88426c2.59493,-5.76893 4.67768,-14.16936 7.43384,-19.99479c3.98737,-8.42774 7.67518,-14.3838 7.67518,-14.61199c0,0 -5.47441,4.87819 -10.10161,13.55923c-2.91036,5.46009 -4.60607,12.36625 -6.84919,18.75866c-2.64476,7.53695 -5.5842,14.17316 -5.39837,14.17316z" data-paper-data="{&quot;index&quot;:null}" stroke-width="1.5"/><path d="M299.80314,294.92906c7.52233,33.29291 -15.61114,80.35461 -19.32887,83.82119c-4.10363,3.82639 -4.80703,-40.81783 -36.78507,-68.35077c-25.58271,-22.02659 -14.37818,-67.6173 -1.25757,-70.70755c13.12062,-3.09025 49.84919,21.94422 57.37151,55.23714zM288.23294,358.91993c4.3838,-9.80017 11.79369,-44.4593 9.32211,-57.60587c0,0 -1.17299,12.7048 -3.39668,26.32155c-2.48945,15.24416 -6.05356,31.57074 -5.92543,31.28431z" stroke-width="1.5"/><path d="M262.71817,332.30348c-13.51106,36.14985 -63.49965,70.69149 -69.78864,71.77042c-6.94176,1.19092 9.88097,-45.27179 -6.88403,-90.5331c-13.41214,-36.20943 34.15312,-72.88304 50.39639,-67.9947c16.24326,4.88835 39.78735,50.60752 26.27629,86.75738z" stroke-width="1.5"/><path d="M211.07642,319.38737c-19.59288,32.21324 -66.72524,59.24691 -72.59876,58.89223c-1.46355,0.3256 18.45981,-45.17785 12.72595,-93.0419c-4.58713,-38.29165 40.55889,-64.68329 54.14682,-56.28654c13.58793,8.39675 25.31887,58.22298 5.72599,90.43622z" stroke-width="1.5"/><path d="M178.09359,117.37848c1.68145,-8.45373 4.84021,-18.89113 8.13201,-28.63613c1.39275,-0.19624 3.64389,-0.51342 4.88374,-0.68811l-0.22511,-1.59766c-0.87423,0.12318 -3.28695,0.46313 -4.16118,0.58631c0.1166,-0.33944 0.51324,-1.26035 0.62984,-1.59743c1.17148,-0.16506 2.49077,-0.35095 3.47082,-0.48905l-0.22512,-1.59766c-0.58429,0.08232 -1.87867,0.26471 -2.46295,0.34703c4.84926,-13.80647 16.76125,-34.32113 16.60529,-29.35307c-0.15596,4.96805 4.20802,71.96275 4.20802,71.96275c0,0 -33.48117,25.29415 -35.58712,14.11099z" data-paper-data="{&quot;index&quot;:null}" stroke-width="0.5"/><path d="M258.66677,139.23129c-2.10595,11.18316 -35.58712,-14.11099 -35.58712,-14.11099c0,0 4.36398,-66.99469 4.20802,-71.96275c-0.15596,-4.96807 20.99599,34.61289 26.64735,63.02578z" data-paper-data="{&quot;index&quot;:null}" stroke-width="0.5"/></g><path d="M240.9664,199.71996c-1.07949,7.18501 -7.10309,18.71999 -7.10309,18.71999l-32.33495,-0.5156c0,0 -10.4494,-17.0364 -7.86136,-29.77441c1.01597,-5.00047 13.19048,-11.78245 19.30054,-11.75359c3.79378,0.01791 10.53704,-0.88685 16.30149,1.06924c0,0 8.50861,3.28168 10.62533,7.2399c3.30521,6.18067 1.07203,15.01447 1.07203,15.01447z" fill="#3a2f41" stroke="#8c9ca0" stroke-width="2" stroke-linecap="round"/><g stroke-linecap="butt"><path d="M127.53925,210.24676l47.68095,-10.85453l1.85961,14.71845l-42.41715,9.96788c0,0 -7.25146,-2.6724 -7.52437,-4.52208z" data-paper-data="{&quot;index&quot;:null}" fill="#e1e2db" stroke="none" stroke-width="0"/><path d="M163.71607,209.66688c-0.65631,-3.32121 2.34951,-8.43608 2.34951,-8.43608l8.92381,-1.99988l2.18264,15.27978c0,0 -5.28238,1.15981 -8.14593,1.70172c0,0 -4.65373,-3.22431 -5.31003,-6.54553z" data-paper-data="{&quot;index&quot;:null}" fill="#8c9ca0" stroke="none" stroke-width="0"/><path d="M174.94846,199.57662l1.85962,14.71846l-44.99529,10.68424c0,0 -3.87077,-3.2274 -4.21399,-5.5536c-0.30643,-2.0769 0.51721,-9.26349 0.51721,-9.26349z" data-paper-data="{&quot;index&quot;:null}" fill="none" stroke="#3a2f41" stroke-width="2.5"/></g><g stroke="#8c9ca0" stroke-width="2" stroke-linecap="round"><path d="M196.65399,199.20074l-14.38082,16.39791c0,0 -7.61345,0.61259 -13.27962,-4.69189c-5.66617,-5.30449 -4.64506,-12.16474 -4.64506,-12.16474c0,0 11.2433,-11.1377 20.34371,-17.28354c7.55099,-5.09945 16.5559,-0.81922 16.5559,-0.81922" fill="#3a2f41"/><path d="M185.71577,210.89598c0,0 -7.15104,0.6831 -12.27708,-4.0905c-5.32244,-4.95649 -4.88319,-11.24855 -4.88319,-11.24855" fill="none"/></g><g data-paper-data="{&quot;index&quot;:null}" stroke-linecap="butt"><path d="M310.24807,220.22315c-0.2729,1.84967 -7.52437,4.52207 -7.52437,4.52207l-42.41715,-9.96788l1.85962,-14.71845l47.68095,10.85453z" data-paper-data="{&quot;index&quot;:null}" fill="#e1e2db" stroke="none" stroke-width="0"/><path d="M268.36027,216.87907c-2.86356,-0.54191 -8.14593,-1.70172 -8.14593,-1.70172l2.18263,-15.27977l8.92382,1.99988c0,0 3.00581,5.11487 2.3495,8.43608c-0.6563,3.32121 -5.31002,6.54553 -5.31002,6.54553z" data-paper-data="{&quot;index&quot;:null}" fill="#8c9ca0" stroke="none" stroke-width="0"/><path d="M309.27038,210.8289c0,0 0.82363,7.18659 0.5172,9.26349c-0.34322,2.3262 -4.214,5.5536 -4.214,5.5536l-44.99529,-10.68424l1.85962,-14.71845z" data-paper-data="{&quot;index&quot;:null}" fill="none" stroke="#3a2f41" stroke-width="2.5"/></g><g data-paper-data="{&quot;index&quot;:null}" stroke="#8c9ca0" stroke-width="2" stroke-linecap="round"><path d="M236.1383,181.30592c0,0 9.00491,-4.28023 16.5559,0.81922c9.1004,6.14584 20.34371,17.28354 20.34371,17.28354c0,0 1.02111,6.86025 -4.64506,12.16474c-5.66617,5.30449 -13.27962,4.69189 -13.27962,4.69189l-14.38082,-16.39791" fill="#3a2f41"/><path d="M268.83089,196.2236c0,0 0.43925,6.29206 -4.88319,11.24855c-5.12604,4.7736 -12.27708,4.0905 -12.27708,4.0905" fill="none"/></g><g><path d="M224.74119,173.8891c0,1.80463 -4.66942,5.15157 -6.65288,5.15157c-1.98346,0 -6.53514,-2.99369 -6.53514,-4.79832c0,-1.80463 4.7283,-2.79657 6.71176,-2.79657c1.98346,0 6.47626,0.63869 6.47626,2.44332z" fill="#3a2f41" stroke="none" stroke-width="0" stroke-linecap="butt"/><g fill="#8c9ca0" stroke="#8c9ca0" stroke-width="1.5" stroke-linecap="butt"><path d="M202.59122,186.38967c-0.68147,-0.66711 8.42891,-12.94195 8.42891,-12.94195l6.8036,5.14301l7.20499,-5.73784c0,0 9.19766,12.33612 8.66343,13.01277c-0.29539,0.37414 -3.52864,-1.3346 -7.55214,-2.56146c-3.70122,-1.12859 -8.23054,-1.76973 -8.23054,-1.76973c0,0 -4.7947,1.22469 -8.71731,2.55905c-3.58667,1.22008 -6.31681,2.57431 -6.60095,2.29615z"/></g><path d="M211.02329,174.91941l0.44745,-1.6956l6.45271,-1.95465l6.69998,1.44832l0.7065,1.73093" fill="none" stroke="#8c9ca0" stroke-width="1.5" stroke-linecap="round"/></g><g fill="#3a2f41"><path d="M231.43879,218.17986l-0.41524,8.07273c0,0 1.4509,3.27779 2.90452,8.01485c1.42964,4.65891 1.81387,8.19332 1.81387,8.19332c0,0 -2.97914,2.22717 -6.6491,4.14565c-3.77145,1.97153 -8.27246,3.6352 -11.01958,3.58936c-2.35891,-0.03937 -6.51268,-1.50585 -9.99415,-3.09687c-4.19486,-1.91705 -7.55996,-4.01489 -7.55996,-4.01489c0,0 0.17696,-3.9586 1.65863,-9.39837c1.17758,-4.32333 2.08503,-7.20846 2.08503,-7.20846c0,0 0.06421,-8.90298 0.05192,-8.90944" stroke="#8c9ca0" stroke-width="1.5" stroke-linecap="round"/><path d="M237.0745,188.51453c7.58612,8.99599 10.09853,19.79766 10.09853,19.79766c0,0 -6.81333,9.3107 -16.25202,15.15024l-26.31369,-0.12982c-13.62973,-7.22603 -16.18425,-14.65137 -16.18425,-14.65137c0,0 2.54784,-9.91585 9.80468,-19.13437" stroke="#8c9ca0" stroke-width="1.5" stroke-linecap="round"/><path d="M204.73543,227.58025v-9.58487h25.90505v9.58487z" stroke="none" stroke-width="0" stroke-linecap="butt"/></g><path d="M222.14186,195.17138c0,2.14604 -1.77596,3.88575 -3.96671,3.88575c-2.19075,0 -3.96671,-1.73971 -3.96671,-3.88575c0,-2.14604 1.77596,-3.88576 3.96671,-3.88576c2.19075,0 3.96671,1.73971 3.96671,3.88576z" fill="#8c9ca0" stroke="#3a2f41" stroke-width="1" stroke-linecap="butt"/><path d="M222.30376,205.6953c0,2.14604 -1.77596,3.88575 -3.96671,3.88575c-2.19075,0 -3.96671,-1.73971 -3.96671,-3.88575c0,-2.14604 1.77596,-3.88576 3.96671,-3.88576c2.19075,0 3.96671,1.73972 3.96671,3.88576z" fill="#8c9ca0" stroke="#3a2f41" stroke-width="1" stroke-linecap="butt"/><path d="M254.37426,142.57601c0,10.87793 -16.43712,16.18843 -32.92835,16.93744c-1.36644,0.06206 -3.19396,-21.46979 -4.5344,-21.46979c-3.6414,0 -6.84615,21.31507 -10.38103,20.81713c-13.47053,-1.89754 -24.92832,-7.4316 -24.92832,-16.76232c0,-13.47741 12.74183,-25.02269 23.60467,-31.26905c6.09193,-3.50299 13.22072,-5.04349 13.22072,-5.04349c0,0 5.96529,1.3321 11.1002,4.16062c10.63994,5.8609 24.82453,17.43565 24.82453,31.91313z" fill="#3a2f41" stroke="none" stroke-width="0" stroke-linecap="butt"/><path d="M250.84227,145.70504c-0.50785,19.20908 -11.76784,27.15093 -11.76784,27.15093c0,0 2.15566,-16.79912 0.55293,-31.14693" data-paper-data="{&quot;index&quot;:null}" fill="#3a2f41" stroke="#b8c1c0" stroke-width="2" stroke-linecap="round"/><path d="M246.09796,160.8926c-1.75043,2.80031 4.06409,-25.13505 4.60674,-25.2213c0.69047,-0.10976 1.89337,3.39469 2.68677,7.82739c0.79338,4.4327 -5.02133,17.43645 -4.88439,16.8344c2.18034,-5.32263 3.21616,-11.5918 2.42278,-16.0245c-0.16985,-0.94896 -0.87126,10.24793 -4.83188,16.58403z" data-paper-data="{&quot;index&quot;:null}" fill="#3a2f41" stroke="none" stroke-width="0" stroke-linecap="butt"/><path d="M198.56298,140.71181c-1.2922,12.17918 -0.4998,31.59881 -0.4998,31.59881c0,0 -11.52654,-6.90163 -13.5531,-28.4113" fill="#3a2f41" stroke="#b8c1c0" stroke-width="2" stroke-linecap="round"/><path d="M184.36568,144.30197c0,4.42877 1.66606,10.32956 3.04427,15.35843c0.1545,0.56374 -4.66788,-10.92966 -4.66788,-15.35843c0,-4.42877 0.36345,-8.019 0.8118,-8.019c0.35236,0 7.05703,25.84382 5.6354,23.39369c-3.21664,-5.54377 -4.8236,-16.3228 -4.8236,-15.37468z" fill="#3a2f41" stroke="none" stroke-width="0" stroke-linecap="butt"/><g stroke-linecap="butt"><path d="M243.35747,145.1983c0,5.28987 -0.39149,10.00915 -4.55966,13.42374c-4.05185,3.3193 -11.41675,4.4652 -20.69609,4.64433c-9.23579,0.1783 -17.16766,-1.93309 -21.24482,-5.39022c-4.12473,-3.49744 -4.67075,-7.43154 -4.67075,-12.67785c0,-10.43215 7.78457,-23.68327 29.25618,-23.10797c14.12414,0.37843 21.91514,12.67581 21.91514,23.10797z" fill="#e1e2db" stroke="none" stroke-width="0"/><path d="M244.167,147.08721c-0.48572,6.22258 -11.25101,1.76655 -22.83863,1.84932c-11.5853,0.08276 -29.14221,6.47805 -29.14221,-3.9541c0,-10.43215 7.78457,-23.68328 29.25618,-23.10798c14.12414,0.37843 22.72467,12.51391 22.72467,22.94607z" fill="#b8c1c0" stroke="none" stroke-width="0"/><path d="M225.66108,122.53891c10.08596,2.04027 16.42188,7.63245 17.66676,17.0165c0.31602,2.3822 0.78968,7.32259 0.42759,9.90963c-0.52509,3.7517 -0.59604,5.73122 -3.43049,8.36184c-3.9987,3.71117 -11.78188,5.24845 -21.67742,5.43948c-6.83629,0.13197 -14.63508,-1.20332 -18.56516,-3.19948c-6.7509,-3.42889 -7.68032,-8.59878 -7.68032,-15.19241c0,-8.8549 5.6086,-19.41698 20.43542,-22.15446" fill="none" stroke="#3a2f41" stroke-width="2"/></g><path d="M252.53151,138.80041c-2.52465,1.52461 -4.03483,4.38188 -7.15118,4.51226c-7.80142,0.32636 -15.98261,-2.79994 -20.40163,-7.7072c-6.23209,-6.36329 -4.92488,-17.82342 -2.64545,-20.14082c2.31464,-2.35321 10.58151,0.42725 17.08744,6.82654z" data-paper-data="{&quot;index&quot;:null}" fill="#3a2f41" stroke="none" stroke-width="0" stroke-linecap="butt"/><path d="M223.38615,117.7121c2.57667,4.34115 -4.19539,15.3138 -13.42034,20.78923c-3.64119,2.16121 -11.29272,4.42488 -12.32371,5.08594c-0.85804,0.55018 -6.50049,2.09552 -6.01631,3.43395c1.34974,3.73113 -2.76434,-4.6976 -4.01859,-6.81075c-2.57667,-4.34115 2.81282,-12.29906 12.03777,-17.77449c9.22495,-5.47541 21.1645,-9.06503 23.74118,-4.72388z" fill="#3a2f41" stroke="none" stroke-width="0" stroke-linecap="butt"/><path d="M228.69776,131.77658c-2.22657,10.2432 -13.30149,18.82879 -24.43222,18.63914c-0.24538,-0.01791 8.93871,-8.16921 8.93871,-19.20656c0,-7.3135 4.75914,-12.6748 8.28644,-12.6748c3.47201,0 7.00006,5.27557 7.08777,12.43058c0.00139,0.11396 0.14364,0.69964 0.11929,0.81168z" data-paper-data="{&quot;index&quot;:null}" fill="#3a2f41" stroke="none" stroke-width="0" stroke-linecap="butt"/><path d="M218.58281,131.95976c-7.14282,10.86301 -21.22452,14.03213 -24.42474,14.58684c-3.20022,0.55471 -2.51037,-2.57857 -2.65334,-3.40336c-0.14297,-0.8248 2.17352,-10.03844 5.37374,-10.59314c3.20022,-0.5547 21.56139,-1.41512 21.70435,-0.59033z" fill="#3a2f41" stroke="none" stroke-width="0" stroke-linecap="butt"/><path d="M248.3977,142.16806c0,0 -5.00531,6.37572 -16.34179,2.13271c-6.05182,-2.26507 -8.91564,-10.41799 -8.91564,-14.05982c0,0 2.868,9.81073 11.45991,12.45906c6.5054,2.0052 11.56707,-0.16427 13.17127,-0.75557c0.33855,-0.12479 0.62625,0.22362 0.62625,0.22362z" fill="#3a2f41" stroke="none" stroke-width="0" stroke-linecap="butt"/><path d="M203.39164,159.44183c0,0 -0.32092,-2.11991 -0.01188,-2.94806c0.19165,-0.51359 0.86847,-1.01566 1.04742,-1.22375c0.10426,-0.12116 0.83975,-0.4362 1.76726,-0.58445c1.27042,-0.20311 2.91442,-0.35276 4.04984,-0.45978c0.57832,-0.05452 1.63389,0.23055 2.51437,0.40894c0.48723,0.09872 2.05452,0.46533 3.28828,0.75664c0.34404,0.08123 1.56979,0.80154 1.99087,0.89333c0.27262,0.05948 1.87663,-0.92579 2.72949,-1.15028c0.3958,-0.10422 1.71097,-0.40044 2.78374,-0.63921c0.47819,-0.10645 2.04067,-0.36774 3.28313,-0.53644c0.47942,-0.06507 1.60266,-0.02511 2.60488,0.06276c0.3986,0.03492 1.01131,0.1884 1.57562,0.35034c0.37555,0.10775 0.88834,0.43977 1.29788,0.73677c0.13391,0.09709 0.27933,0.34309 0.41217,0.62311c0.2507,0.52851 0.22151,2.68859 0.22151,2.68859" data-paper-data="{&quot;index&quot;:null}" fill="none" stroke="#3b3045" stroke-width="1" stroke-linecap="round"/><g><g stroke-linecap="butt"><path d="M327.36561,201.27141l-4.16817,-7.48702l69.01756,-35.33229l4.5857,10.8418z" fill="#e1e2db" stroke="none" stroke-width="0"/><path d="M353.7671,177.99958l38.44787,-19.54745l4.58571,10.84181l-23.16107,10.66656z" fill="#8c9ca0" stroke="none" stroke-width="0"/><path d="M327.76561,201.27141l-4.16817,-7.48702l69.01756,-35.33229l4.58571,10.84182z" fill="none" stroke="#3a2f41" stroke-width="1.5"/></g><g stroke="#3a2f41" stroke-width="1.5"><path d="M355.5959,181.45079c-6.16006,-5.12566 -3.82275,-12.22446 -3.82275,-12.22446l90.82532,-43.71244l22.11616,-4.93563l-17.14611,16.27699c0,0 -91.60679,44.89991 -91.97262,44.59553z" fill="#e1e2db" stroke-linecap="butt"/><path d="M458.18129,126.20457l-3.63281,-0.23716l1.37063,-3.30704l7.30171,-1.4009z" fill="#3a2f41" stroke-linecap="round"/><path d="M367.30044,175.36623c0,0 -4.34731,-4.83272 -3.21729,-12.18494" fill="none" stroke-linecap="round"/><path d="M369.91366,174.274c0,0 -4.34731,-4.83272 -3.21727,-12.18494" fill="none" stroke-linecap="round"/><path d="M441.42334,126.45538l2.51739,0.77397l-1.59385,4.90366l4.42924,2.33576l-1.52997,3.38374" fill="none" stroke-linecap="round"/></g><path d="M385.28782,175.86529l-15.13378,-16.83936l17.0147,-8.40477l14.51324,17.40085z" fill="#3a2f41" stroke="#3a2f41" stroke-width="1.5" stroke-linecap="butt"/><g><g><path d="M442.72901,174.17445l-1.53537,-4.31815l30.09736,-8.69853z" fill="#e1e2db" stroke="#3a2f41" stroke-width="1.5" stroke-linecap="butt"/><path d="M471.09735,160.58125l7.07138,-2.0547l-6.64356,3.23284z" fill="#16121a" stroke="#16121a" stroke-width="0" stroke-linecap="round"/></g><path d="M335.48768,216.29491l-3.07071,-8.63635l109.28069,-40.28628l4.14884,2.81668l-1.69901,8.90164z" fill="#e1e2db" stroke="#3a2f41" stroke-width="1.5" stroke-linecap="butt"/><path d="M433.5042,170.15832l2.95782,2.95403l-1.25687,8.26758" fill="none" stroke="#3a2f41" stroke-width="1" stroke-linecap="round"/><path d="M419.33979,175.38534l-2.69061,4.77164l-61.03387,20.93812l-1.84767,-1.44126" fill="none" stroke="#3a2f41" stroke-width="1" stroke-linecap="round"/></g><g stroke-linecap="butt"><path d="M327.40145,188.77417l12.66344,28.02756l-36.28296,12.00327l-10.08958,-22.33089z" fill="#3a2f41" stroke="url(#color-1)" stroke-width="0.5"/><path d="M324.79263,204.11731c1.70909,-0.02554 3.1153,1.33925 3.14084,3.04834c0.02555,1.70909 -1.33922,3.11529 -3.04832,3.14084c-1.70909,0.02554 -3.1153,-1.33924 -3.14085,-3.04832c-0.02555,-1.70909 1.33925,-3.11531 3.04833,-3.14086z" fill="#8c9ca0" stroke="none" stroke-width="0"/></g></g><g data-paper-data="{&quot;index&quot;:null}" fill="#3a2f41"><path d="M39.57287,227.6297l-15.19599,-25.28475l32.69301,22.28224z" stroke-opacity="0.07705" stroke="#ffffff" stroke-width="2" stroke-linecap="round"/><path d="M33.31306,230.94576l-15.09444,-26.96303l31.1731,19.43725z" stroke-opacity="0.08512" stroke="#ffffff" stroke-width="2" stroke-linecap="round"/><path d="M144.24863,222.72553l-79.33152,15.95426l-26.46107,-1.27112l-9.02643,-8.80591l17.50671,4.53075l-20.68094,-4.34815l-13.19589,-24.75018l18.98606,15.94636l30.71399,-9.28176l-9.62589,-1.40872l-25.46987,-0.83915l44.10021,-16.42167l13.96696,19.42931c0,0 3.87386,0.14569 9.51979,0.11776c8.80774,-0.04357 42.47233,-3.46731 42.47233,-3.46731l-4.81098,3.69384l17.13797,-1.07094l-19.99748,7.00057l10.82604,2.38342l-12.87177,3.28581z" stroke-opacity="0.08254" stroke="#ffffff" stroke-width="1.5" stroke-linecap="butt"/></g><g stroke="#3a2f41" stroke-linecap="butt"><path d="M204.45078,145.67756c6.33713,0.00271 9.701,3.99857 9.701,3.99857c0,0 -3.91741,0.29225 -9.68623,0.14929c-5.1262,-0.12703 -8.83903,-0.15319 -8.83903,-0.15319c0,0 2.84303,-3.99723 8.82426,-3.99467z" fill="#e1e2db" stroke-width="1"/><g fill="#3a2f41" stroke-width="0.5"><path d="M208.44074,149.45565l-0.02911,-3.17762l0.77531,-0.01948l0.11296,3.26371z"/></g></g></g></g></svg>