<svg version="1.1" xmlns="http://www.w3.org/2000/svg" xmlns:xlink="http://www.w3.org/1999/xlink" width="359.50965" height="462.66912" viewBox="0,0,359.50965,462.66912"><g transform="translate(-60.21942,50.93133)"><g data-paper-data="{&quot;isPaintingLayer&quot;:true}" fill-rule="nonzero" stroke-linejoin="miter" stroke-miterlimit="10" stroke-dasharray="" stroke-dashoffset="0" style="mix-blend-mode: normal"><g><path d="M128.76573,160.46913l16.87497,-27.36997l21.9453,26.64961l28.26038,-40.87435l12.93419,11.03207l-42.58065,69.09471z" fill="#3a2f41" stroke="#3a2f41" stroke-width="4.5" stroke-linecap="butt"/><g data-paper-data="{&quot;index&quot;:null}"><path d="M152.83269,166.23926c-8.9212,9.29917 -18.48767,8.85332 -18.48767,8.85332l-23.50258,-34.17237c0,0 -51.47511,-8.48966 -49.5715,-22.68376c0.94374,-7.03688 6.70129,-12.07463 12.9245,-15.3634c15.63029,-8.2601 40.44297,-6.23808 45.17931,-2.66202c4.81196,3.63316 15.20344,19.57251 23.30055,27.87434c7.37713,7.56363 22.99406,19.66983 22.99406,19.66983c0,0 -3.1422,8.37886 -12.83666,18.48407z" fill="#c1c1c1" stroke="none" stroke-width="0" stroke-linecap="round"/><path d="M106.73625,100.62895c1.73561,-1.65547 7.95549,-3.03593 10.37251,-1.78402c2.47603,1.28245 6.71334,6.91527 10.98879,11.34209c3.20433,3.31778 5.05057,6.88917 6.88177,9.10016c1.24478,1.50294 3.1788,2.04832 2.82241,2.73637c-1.58016,3.05082 -11.88393,4.08519 -17.84707,2.05617c-12.93494,-4.40126 -18.80152,-16.06961 -17.22135,-19.12043c0.89732,-1.73243 1.72219,-2.15495 4.00294,-4.33034z" fill="#837e85" stroke="none" stroke-width="0" stroke-linecap="butt"/><path d="M152.83269,166.23926c-8.9212,9.29917 -18.48767,8.85332 -18.48767,8.85332l-23.50258,-34.17237c0,0 -51.47511,-8.48966 -49.5715,-22.68376c0.94374,-7.03688 6.70129,-12.07463 12.9245,-15.3634c15.63029,-8.2601 40.44297,-6.23808 45.17931,-2.66202c4.81196,3.63316 15.20344,19.57251 23.30055,27.87434c7.37713,7.56363 22.99406,19.66983 22.99406,19.66983c0,0 -3.1422,8.37886 -12.83666,18.48407z" fill="none" stroke="#3a2f41" stroke-width="2" stroke-linecap="round"/><path d="M160.86858,145.05031c0,0 -10.86149,19.2749 -29.07747,26.17213" fill="none" stroke="#3a2f41" stroke-width="1.5" stroke-linecap="round"/><path d="M158.30513,151.02757l3.91841,2.81098" fill="none" stroke="#3a2f41" stroke-width="1.5" stroke-linecap="round"/><path d="M151.24793,159.33531l4.94222,3.88137" fill="none" stroke="#3a2f41" stroke-width="1.5" stroke-linecap="round"/><path d="M143.33432,165.48317l3.89247,5.07696" fill="none" stroke="#3a2f41" stroke-width="1.5" stroke-linecap="round"/><path d="M138.39195,174.00927l-2.51852,-3.57603" fill="none" stroke="#3a2f41" stroke-width="1.5" stroke-linecap="round"/><path d="M62.73032,120.448l43.74355,3.9903c0,0 4.14417,10.51209 1.50096,17.02311c-1.77298,4.36737 -16.10832,3.64008 -18.04492,-1.00948c-2.49372,-5.98716 2.66087,-17.3282 2.66087,-17.3282" fill="#b39a9c" stroke="#3a2f41" stroke-width="1.5" stroke-linecap="round"/><path d="M99.96787,124.92212l-0.62192,7.23568" fill="none" stroke="#3a2f41" stroke-width="1" stroke-linecap="round"/><g stroke-linecap="butt"><path d="M79.88721,89.04261c6.66098,-0.04892 12.09878,5.08384 12.14565,11.46438c0.04688,6.38052 -5.31493,11.59263 -11.97591,11.64155c-6.66098,0.04892 -12.09879,-5.08382 -12.14565,-11.46435c-0.04687,-6.38052 5.31494,-11.59266 11.97591,-11.64158z" fill="#e1e1e0" stroke="none" stroke-width="0"/><path d="M67.91347,100.3654c0.13047,-6.23446 5.42407,-11.27467 11.97375,-11.32279c6.66099,-0.04892 12.0988,5.08383 12.14568,11.46437c0.0062,0.84357 -0.08214,1.66669 -0.25554,2.46017z" fill="#b1b0b4" stroke="none" stroke-width="0"/><path d="M79.88717,89.0426c6.66098,-0.04895 12.09879,5.08383 12.14565,11.46435c0.04688,6.38054 -5.31492,11.59265 -11.97591,11.64157c-6.66098,0.04895 -12.09879,-5.08382 -12.14565,-11.46435c-0.04688,-6.38054 5.31492,-11.59266 11.97591,-11.64158z" fill="none" stroke="#3a2f41" stroke-width="1"/></g><g stroke-linecap="butt"><path d="M100.18772,91.97258c6.66098,-0.04895 12.09878,5.08383 12.14565,11.46435c0.04688,6.38054 -5.31492,11.59263 -11.97591,11.64157c-6.66098,0.04895 -12.09878,-5.08383 -12.14565,-11.46435c-0.04688,-6.38054 5.31492,-11.59262 11.97591,-11.64157z" fill="#e1e1e0" stroke="none" stroke-width="0"/><path d="M88.21397,103.29538c0.13046,-6.23445 5.42405,-11.27466 11.97376,-11.32277c6.66099,-0.04895 12.0988,5.08383 12.14567,11.46434c0.0062,0.84357 -0.08215,1.66671 -0.25554,2.46018z" fill="#b1b0b4" stroke="none" stroke-width="0"/><path d="M100.18767,91.97259c6.66098,-0.04895 12.09878,5.08383 12.14565,11.46435c0.04688,6.38054 -5.31491,11.59262 -11.9759,11.64157c-6.66098,0.04895 -12.09879,-5.08383 -12.14565,-11.46435c-0.04688,-6.38054 5.31492,-11.59262 11.9759,-11.64157z" fill="none" stroke="#3a2f41" stroke-width="1"/></g><path d="M100.07198,94.19852c4.15765,2.03226 5.6809,7.45874 3.40228,12.12034c-2.27862,4.6616 -7.49622,6.79308 -11.65387,4.76082c-4.15765,-2.03226 -5.6809,-7.45874 -3.40228,-12.12034c2.27862,-4.6616 7.49622,-6.79308 11.65386,-4.76082z" fill="#3a2f41" stroke="none" stroke-width="NaN" stroke-linecap="butt"/><path d="M73.77106,100.20247c0.26583,-5.19884 4.73171,-9.35732 9.97482,-9.28821c5.24311,0.06911 9.27798,4.33964 9.01215,9.53848c-0.26583,5.19884 -4.73167,9.35732 -9.97478,9.28821c-5.24311,-0.06911 -9.27799,-4.33964 -9.01216,-9.53848z" fill="#3a2f41" stroke="none" stroke-width="NaN" stroke-linecap="butt"/><path d="M126.64833,131.82005c3.89851,-0.46871 7.39926,1.98248 7.81914,5.4749c0.41988,3.49241 -2.4001,6.70353 -6.29861,7.17224c-3.89851,0.46871 -7.39926,-1.98248 -7.81914,-5.4749c-0.41988,-3.49241 2.4001,-6.70353 6.29861,-7.17224z" fill="#837e85" stroke="none" stroke-width="0" stroke-linecap="butt"/></g></g><g data-paper-data="{&quot;index&quot;:null}" stroke="#3a2f41" stroke-width="2" stroke-linecap="round"><path d="M217.78425,114.18412l-5.56871,26.72588c0,0 -15.6203,-0.02692 -21.22956,-3.34834c-5.27574,-3.12393 -11.48677,-16.02403 -11.48677,-16.02403c0,0 11.26153,-13.86769 18.87416,-26.49023c1.2178,-2.01926 23.3067,-8.30736 23.3067,-8.30736" fill="#6d6972"/><path d="M213.60539,133.36636c0,0 -13.36395,0.20596 -18.35935,-2.70976c-4.9292,-2.87707 -11.41711,-14.6702 -11.41711,-14.6702" fill="none"/></g><g><g data-paper-data="{&quot;index&quot;:null}" fill="#a9a8ab"><g stroke="#3a2f41" stroke-width="2" stroke-linecap="round"><path d="M247.24444,-19.59435c0,0 30.18374,-23.09065 34.22515,-23.09167c6.79023,-0.00171 49.77103,35.13007 52.3686,49.48214c1.60353,8.85986 -16.31719,54.65051 -16.0817,54.84271c18.19763,14.85132 42.05982,12.78288 42.05982,12.78288c0,0 -5.61194,10.33429 -18.82585,19.42857c-13.06567,8.99224 -23.23397,11.08543 -23.23397,11.08543l16.0817,14.01994c0,0 -8.37287,6.82045 -25.97561,4.10512c-13.06444,-2.01529 -21.56259,-12.23433 -21.56259,-12.23433l16.61186,19.26269c0,0 -9.98816,-2.63816 -20.37755,-9.04838c-10.5376,-6.50167 -21.49979,-16.86007 -24.56873,-28.88792c-1.92611,-7.54889 1.37392,-28.15925 0.03179,-44.60382c-2.69439,-33.01333 -10.75293,-67.14334 -10.75293,-67.14334z"/><path d="M251.78029,-34.85135c9.65279,-13.47667 25.15342,-14.84464 25.15342,-14.84464l-29.27693,29.68929c0,0 -2.51382,-5.57798 4.12351,-14.84464z"/></g><path d="M295.45706,108.64345c8.57554,3.7345 14.79026,8.45454 13.88099,10.5425c-0.90927,2.08795 -8.59822,0.75316 -17.17376,-2.98134c-8.57554,-3.7345 -14.79027,-8.45455 -13.881,-10.5425c0.90927,-2.08795 8.59823,-0.75316 17.17376,2.98135z" stroke="none" stroke-width="0" stroke-linecap="butt"/></g><path d="M294.66337,20.05496c-4.98245,7.13013 -20.94875,4.57566 -35.66172,-5.70559c-14.71298,-10.28124 -22.60113,-24.39596 -17.61867,-31.52609c4.98245,-7.13013 20.94875,-4.57565 35.66172,5.70559c14.71298,10.28125 22.60113,24.39596 17.61867,31.5261z" fill="#3a2f41" stroke="#3a2f41" stroke-width="4.5" stroke-linecap="butt"/></g><g data-paper-data="{&quot;index&quot;:null}" stroke="#3a2f41" stroke-linecap="butt"><g><path d="" fill="#e1e2db" stroke-width="2"/><path d="M242.91697,349.10026c0,0 -0.69257,-15.02423 -1.4175,-34.29117c7.58821,0.13063 15.18318,-0.09392 22.7737,-0.1131c2.16076,-0.00546 4.39282,-0.05485 6.67017,-0.1327v31.44474z" fill="#e1e2db" stroke-width="2"/><path d="" fill="#8c9ca0" stroke-width="0"/><path d="M270.94332,314.56329v31.44473l-28.02637,3.09224c0,0 -0.67685,-15.08007 -1.39269,-34.29075" fill="none" stroke-width="2"/></g><g fill="#3a2f41" stroke-width="2"><path d="M240.24417,389.97837l1.08069,-43.06879c0,0 33.19114,-9.03077 33.20696,-5.22221c0.02852,6.86248 -1.15148,34.11898 -1.15148,34.11898l31.61383,33.88964z"/></g></g><g><g data-paper-data="{&quot;index&quot;:null}"><path d="M237.93867,322.68449l-1.42007,-119.15447l26.53776,-22.15327l13.37344,139.74061c0,0 -5.76188,5.90454 -17.71977,5.88548c-13.09635,-0.02088 -20.77134,-4.31835 -20.77134,-4.31835z" data-paper-data="{&quot;index&quot;:null}" fill="#a9a8ab" stroke="none" stroke-width="0" stroke-linecap="butt"/><path d="M249.186,186.02323l16.22782,27.40784" fill="none" stroke="#3a2f41" stroke-width="2" stroke-linecap="round"/><path d="M259.13295,308.02521l-3.90066,-42.29382l15.28752,-3.08096l3.61164,42.38542z" fill="#837e85" stroke="none" stroke-width="0" stroke-linecap="butt"/><path d="M249.29036,259.74731l-0.7548,-11.39523l11.53722,-0.94228l0.7548,11.39523z" fill="#837e85" stroke="none" stroke-width="0" stroke-linecap="butt"/><path d="M259.70739,184.17241l3.34896,-2.79565l13.37344,139.74061c0,0 -5.76188,5.90454 -17.71977,5.88548c-13.09635,-0.02088 -20.77134,-4.31835 -20.77134,-4.31835h-0.00001l-1.42007,-119.15447l7.86486,-6.56545" data-paper-data="{&quot;index&quot;:null}" fill="none" stroke="#3a2f41" stroke-width="2" stroke-linecap="butt"/><path d="M257.8631,326.03031c-12.09095,-0.03027 -17.8851,-4.25133 -17.8851,-4.25133l-0.73211,-7.3113c0,0 4.64102,4.90717 18.72872,3.64661c10.2349,-0.91581 17.39962,-6.26797 17.39962,-6.26797l-0.32447,8.82633c0,0 -6.12795,5.38535 -17.18665,5.35767z" fill="#3a2f41" stroke="#3a2f41" stroke-width="2" stroke-linecap="butt"/></g><path d="M256.77317,190.69598l9.5,15" fill="none" stroke="#3a2f41" stroke-width="2" stroke-linecap="round"/></g><g data-paper-data="{&quot;index&quot;:null}" stroke="#3a2f41" stroke-linecap="butt"><g><path d="M195.05761,355.05459l0.57709,-36.71035c0.72391,0.1975 1.48053,0.31571 2.25996,0.34472c0.12909,0.00164 0.25552,0.00376 0.3785,0.00703c9.03177,0.24019 18.06899,0.03623 27.10495,-0.03743c-1.16897,22.84337 -2.29413,41.33598 -2.29413,41.33598z" fill="#e1e2db" stroke-width="2"/><path d="" fill="#e1e2db" stroke-width="2"/><path d="" fill="#8c9ca0" stroke-width="0"/><path d="M225.71168,318.65589c-0.89053,19.11907 -1.70383,33.94776 -1.70383,33.94776l-28.02637,-1.24451l0.30187,-32.86113" fill="none" stroke-width="2"/></g><g fill="#3a2f41" stroke-width="2"><path d="M156.38747,390.37045l37.4573,-20.8874c0,0 -4.21975,-22.5221 -2.45178,-28.9082c0.25482,-6.5195 35.13082,5.83471 35.13082,5.83471l1.08069,43.06879z"/></g></g><g><path d="M228.59333,318.15017c0,0 -7.82602,3.81782 -20.91152,3.30158c-11.94798,-0.47137 -17.48788,-6.38467 -17.48788,-6.38467l18.49411,-133.81605l25.70054,22.38762l-5.79524,114.51152z" data-paper-data="{&quot;index&quot;:null}" fill="#a9a8ab" stroke="none" stroke-width="0" stroke-linecap="butt"/><path d="M218.89691,185.66265l-13.11345,22.96794" fill="none" stroke="#3a2f41" stroke-width="2" stroke-linecap="round"/><path d="M191.62268,311.67653l4.26164,-30.05035l24.17117,3.47625l-3.01164,29.05035z" fill="#837e85" stroke="none" stroke-width="0" stroke-linecap="butt"/><path d="M202.00656,270.46967l1.17267,-10.92586l11.49237,1.37848l-1.17267,10.92586z" fill="#837e85" stroke="none" stroke-width="0" stroke-linecap="butt"/><path d="M209.26424,294.40037l1.83241,-18.28189l14.81726,1.3731l-1.33241,18.28189z" fill="#837e85" stroke="none" stroke-width="0" stroke-linecap="butt"/><path d="M219.93098,250.89525l1.32974,-27.96841l11.98646,0.56989l-1.32974,27.96841z" fill="#837e85" stroke="none" stroke-width="0" stroke-linecap="butt"/><path d="M226.77185,197.00374l7.61674,6.6349l-5.79524,114.51152h-0.00001c0,0 -7.82602,3.81782 -20.91152,3.30158c-11.94798,-0.47137 -17.48788,-6.38467 -17.48788,-6.38467l18.49411,-133.81605l3.2433,2.82523" data-paper-data="{&quot;index&quot;:null}" fill="none" stroke="#3a2f41" stroke-width="2" stroke-linecap="butt"/><path d="M191.58909,314.69598v-8.5c0,0 6.96178,5.43962 17.15396,6.73933c14.0289,1.78897 18.84604,-2.73933 18.84604,-2.73933l-1,7c0,0 -5.94404,3.82136 -18.02538,3.35533c-11.0499,-0.42625 -16.97462,-5.85533 -16.97462,-5.85533z" fill="#3a2f41" stroke="#3a2f41" stroke-width="2" stroke-linecap="butt"/><path d="M206.77317,220.19598l-6,-1" fill="none" stroke="#3a2f41" stroke-width="2" stroke-linecap="round"/><path d="M206.27317,223.19598l-5.5,-0.5" fill="none" stroke="#3a2f41" stroke-width="2" stroke-linecap="round"/></g><g data-paper-data="{&quot;index&quot;:null}" stroke-linecap="butt"><path d="M224.43814,206.86367l1.8476,-19.58817h17.42024v23.07052z" fill="#8c9ca0" stroke="#3a2f41" stroke-width="2"/><path d="M224.70207,204.25192l1.8476,-19.58818h17.42024v23.07052z" fill="#a9a8ab" stroke="#a9a8ab" stroke-width="3.5"/></g><path d="M233.38896,208.49109l-1.4,-8.7992l-0.9,-14.36869" data-paper-data="{&quot;index&quot;:null}" fill="none" stroke="#3a2f41" stroke-width="2" stroke-linecap="round"/><path d="M231.98897,199.6919l-4.6,-2.66023l-1.4,-13.09649" data-paper-data="{&quot;index&quot;:null}" fill="none" stroke="#3a2f41" stroke-width="2" stroke-linecap="round"/><g data-paper-data="{&quot;index&quot;:null}"><path d="M211.06675,154.46646c0,0 3.40748,-0.46971 8.71749,0.06399c0.29315,0.02946 31.40549,2.82014 31.69759,2.86012c4.14217,0.56686 7.61354,-1.00269 7.61354,-1.00269l10.853,10.89538l-7.14858,10.94309l4.76562,10.15863l-32.91275,13.34786l-32.66928,-14.26125l5.24072,-10.4861l-5.23377,-10.91369z" fill="#c1c1c1" stroke="#3a2f41" stroke-width="2" stroke-linecap="butt"/><path d="M211.73555,164.25088c0,0 -3.10223,-13.66076 -3.54871,-23.49047c-0.86785,-19.10612 -6.92871,-33.19624 5.13013,-47.27038c7.81971,-9.12655 18.11322,-9.93357 27.89132,-9.98098c8.91239,-0.0432 29.15918,8.98008 30.66428,13.54902c4.90248,14.88221 -3.69365,37.12946 -8.40684,50.60338c-2.68931,7.68813 -2.59115,17.34545 -2.59115,17.34545l-28.79478,9.92573z" fill="#c1c1c1" stroke="none" stroke-width="0" stroke-linecap="round"/><g stroke="none"><g fill="#c1c1c1" stroke-width="0" stroke-linecap="round"><g><g><path d="M262.69743,100.17446c0,0 2.03186,2.26504 4.77947,7.43514c0.46305,0.87129 0.8862,1.80677 1.26828,2.78096c2.37803,6.06328 3.16464,13.62568 2.07362,16.54453c-1.01216,3.88676 -2.3278,7.86162 -6.38197,10.98092c-2.97672,2.29028 -6.41645,2.62547 -9.795,3.26546c-6.43611,1.21913 -14.50449,-0.34883 -22.71939,-1.09854c-7.8135,-0.71308 -17.68775,3.69642 -23.35125,1.40432c-2.74767,-1.11201 -4.49662,-5.07928 -7.13095,-7.74748c-5.7081,-5.78152 -3.95636,-12.47785 -3.3768,-13.20512c2.7635,-12.31034 13.54159,-24.57636 13.54159,-24.57636"/></g></g></g><g stroke-linecap="butt"><g><g fill="none" stroke-width="1" font-family="sans-serif" font-weight="normal" font-size="12" text-anchor="start"/><path d="M263.06187,103.40566c0,-0.76862 -8.97088,-12.8347 -6.96687,-12.8347c2.004,0 9.87157,11.50696 9.37624,10.94815c-3.02866,-3.41685 -5.89282,-6.09263 -5.89282,-6.09263c0,0 4.96253,7.44852 5.9935,9.54422c1.11659,2.26972 -2.51007,-1.16543 -2.51007,-1.56508z" fill="#ffffff" stroke-width="0"/></g><path d="M219.64934,90.2831c1.91822,0.61803 -9.94697,9.40093 -10.15579,10.13664c-0.10859,0.38253 -4.51333,2.55217 -2.82783,0.72395c1.55623,-1.68802 8.33007,-7.28722 8.33007,-7.28722c0,0 1.00408,-1.09042 -2.82327,1.24609c-0.62597,0.38214 5.55857,-5.43747 7.47679,-4.81944z" data-paper-data="{&quot;index&quot;:null}" fill="#ffffff" stroke-width="0"/></g></g><path d="M271.37257,97.05809c0.91818,2.78728 1.51176,5.67119 1.84781,8.60473c-0.1578,1.09165 -69.88079,30.36581 -69.88079,30.36581l-4.08493,-18.03222c0,0 12.80287,-23.62003 13.56229,-24.50636c7.81971,-9.12655 18.11322,-9.93357 27.89132,-9.98098c8.91239,-0.0432 29.15918,8.98008 30.66428,13.54902z" fill="#6d6972" stroke="none" stroke-width="0" stroke-linecap="butt"/><g stroke="none"><g fill="#6d6972" stroke-width="0" stroke-linecap="round"><g><g><path d="M263.19744,100.17445l4.77947,7.43514l-64.93666,26.93019l-9.33606,-9.98984c0,0 6.02362,-12.10808 9.13593,-17.21196c2.78482,-4.56683 8.66492,-11.97968 8.66492,-11.97968"/></g></g></g><g fill="none" stroke-width="1" stroke-linecap="butt" font-family="sans-serif" font-weight="normal" font-size="12" text-anchor="start"><g><g/></g></g></g><path d="M212.47137,94.51393c0.27144,-0.34137 0.55319,-0.68265 0.8456,-1.02393c7.81971,-9.12655 18.11322,-9.93357 27.89132,-9.98098c8.91239,-0.0432 29.15918,8.98008 30.66428,13.54902c7.69981,23.3739 -13.09407,56.04361 -11.49799,67.28216c-0.75827,2.76191 -28.79478,10.0924 -28.79478,10.0924l-19.01092,-10.68172c0,0 -3.43848,-14.40603 -3.77277,-21.17272" fill="none" stroke="#3a2f41" stroke-width="2" stroke-linecap="round"/><g fill="none" stroke="none" stroke-width="1" stroke-linecap="butt" font-family="sans-serif" font-weight="normal" font-size="12" text-anchor="start"/><path d="M223.35801,82.213c0.17745,-0.0684 0.44432,-0.46778 1.10496,0.02339c3.01697,2.24302 10.00069,8.90762 10.00069,8.90762l-17.16911,5.96534z" data-paper-data="{&quot;index&quot;:null}" fill="#8c9ca0" stroke="#3a2f41" stroke-width="4.5" stroke-linecap="round"/><path d="M234.49174,91.1869c0,0 -8.32301,-8.02224 -4.97335,-10.03631c3.98542,-2.39634 19.81919,1.11497 20.78337,0.61156c3.46527,-6.5831 5.09799,18.44371 5.09799,18.44371z" fill="#3a2f41" stroke="#3a2f41" stroke-width="4.5" stroke-linecap="round"/><path d="M222.56561,87.14393c0,-0.49751 1.04241,-4.51128 2.04214,-5.01727c0.57782,-0.61679 11.38769,-6.21204 12.88798,-5.96884c2.37145,0.38442 12.04326,4.97536 13.04024,5.93378c0.53854,0.27628 0.77459,3.67702 0.81013,5.06431" fill="none" stroke="#3a2f41" stroke-width="6.5" stroke-linecap="butt"/><g><path d="M223.35801,82.21298c0.17745,-0.0684 0.44432,-0.46778 1.10496,0.02339c3.01696,2.24302 10.00069,8.90762 10.00069,8.90762l-17.16911,5.96534z" data-paper-data="{&quot;index&quot;:null}" fill="#6d6972" stroke="#12161a" stroke-width="0" stroke-linecap="round"/><path d="M234.49174,91.18689c0,0 14.03546,-8.49823 15.81001,-9.42475c3.66325,-6.95916 4.59798,17.94372 4.59798,17.94372z" fill="#6d6972" stroke="#12161a" stroke-width="0" stroke-linecap="round"/><path d="M222.56561,87.14392c0,-0.49751 1.04241,-4.51128 2.04214,-5.01727c0.57782,-0.61679 11.38769,-6.21204 12.88798,-5.96884c2.37145,0.38443 12.79326,4.22536 13.79024,5.18378c0.53854,0.27628 0.02459,4.42702 0.06013,5.81431" fill="none" stroke="#6d6972" stroke-width="2" stroke-linecap="butt"/></g><g fill="none" stroke="none" stroke-width="1" stroke-linecap="butt" font-family="sans-serif" font-weight="normal" font-size="12" text-anchor="start"/><path d="M208.8551,142.72053l-15.17948,-18.52434c0,0 10.30223,-20.25873 19.28873,-30.49783" fill="none" stroke="#3a2f41" stroke-width="2" stroke-linecap="round"/><path d="M226.70176,108.8759c1.51397,1.01961 1.4797,3.71945 -0.07656,6.03026c-1.55626,2.3108 -4.04517,3.35752 -5.55915,2.3379c-1.51397,-1.01961 -1.4797,-3.71945 0.07656,-6.03026c1.55626,-2.3108 4.04517,-3.35752 5.55915,-2.3379z" fill="none" stroke="#3a2f41" stroke-width="1.5" stroke-linecap="butt"/><path d="M234.45421,92.80998l-1.75,16.5l-8.25,14.25" fill="none" stroke="#3a2f41" stroke-width="1.5" stroke-linecap="round"/><path d="M254.67562,167.05999l3,24" fill="none" stroke="#3a2f41" stroke-width="2" stroke-linecap="round"/><path d="M236.17562,173.05999l2,26" fill="none" stroke="#3a2f41" stroke-width="2" stroke-linecap="round"/><path d="M216.17562,193.05998v-26.5" fill="none" stroke="#3a2f41" stroke-width="2" stroke-linecap="round"/></g><g><g data-paper-data="{&quot;index&quot;:null}" stroke-linecap="butt"><path d="M194.64407,38.59997c-1.00833,-18.20914 10.51879,-40.38655 33.53437,-42.33893c34.98839,-2.968 48.97448,19.44957 49.9828,37.6587c1.00834,18.20913 -9.56314,34.44597 -39.9213,35.51919c-15.16219,0.53604 -28.36953,-2.40491 -35.30345,-7.82811c-7.13292,-5.57886 -7.78115,-13.77748 -8.29244,-23.01087z" fill="#e1e2db" stroke="none" stroke-width="0"/><path d="M242.65858,-3.22411c24.46359,3.42211 34.66964,21.91028 35.52551,37.36634c1.00834,18.20913 -9.56316,34.44595 -39.9213,35.51918c-16.16904,0.57163 -29.65959,-2.52779 -36.54462,-8.63984c-6.2129,-5.51536 -6.57297,-13.56179 -7.05126,-22.19912h-0.00001c-0.90861,-16.4085 5.92738,-45.29309 47.86059,-42.08014" fill="none" stroke="#3a2f41" stroke-width="2"/></g><g data-paper-data="{&quot;index&quot;:null}"><path d="M197.34022,-10.20089c0,0 -4.13088,1.46156 -9.82307,2.30216c-11.0899,1.63773 -27.17238,1.94468 -23.63788,-8.31653c3.11643,-9.04744 14.93875,-15.28984 25.29581,-16.79721c7.41867,-1.07973 14.56128,0.97329 15.0176,2.9179c1.67746,7.14845 -15.61063,11.38002 -15.61063,11.38002c0,0 15.80597,-9.28672 5.00385,-9.32481c-13.45671,-0.04745 -25.68237,11.64183 -21.88593,13.37778c10.94008,5.00246 31.78081,-0.65001 31.78081,-0.65001" fill="#a8a9ab" stroke="#3a2f41" stroke-width="2" stroke-linecap="round"/><path d="M235.12384,15.75899c1.94964,10.88125 11.70977,22.50509 11.70977,22.50509c0,0 -18.60507,-5.53278 -22.47622,-23.21959c-0.3983,-1.81974 -2.13161,11.35675 -25.01045,9.5804c-0.87098,-0.02677 -4.71902,10.94099 -5.39256,23.13822c-0.84232,15.25376 1.5883,32.43038 1.5883,32.43038c0,0 -19.03167,-14.72747 -13.72089,-48.84296c0.58822,-3.77862 -11.70193,17.48092 -11.70193,17.48092c0,0 -0.87807,-23.59766 8.33666,-40.72817c8.0583,-14.98067 27.50514,-28.8416 43.94978,-30.78113c42.81001,-5.04914 57.98363,21.79725 57.98363,21.79725c0,0 21.66337,9.71004 20.5825,39.38173c-0.57594,15.81069 -6.28159,26.0465 -6.28159,26.0465c0,0 1.41941,-11.20662 -0.87339,-24.64578c-0.86991,-5.09894 -3.87405,-14.29682 -3.87405,-14.29682c0,0 6.28938,15.17251 -1.81513,38.12905c-5.17304,14.65296 -21.73783,23.07764 -21.73783,23.07764c0,0 8.51053,-25.67779 4.66259,-49.35455" fill="#a9a8ab" stroke="none" stroke-width="0" stroke-linecap="round"/><path d="M260.1358,-17.78725c6.74381,2.39125 12.443,9.37739 20.76013,16.12004c6.77155,5.48968 12.99714,10.26757 15.69491,16.45927c3.97429,9.12148 3.82744,15.73411 -0.29738,20.38816c-6.92479,7.81324 -30.60546,5.74006 -48.56898,-6.33123c-21.72181,-14.59682 -19.57133,-37.12896 -6.92935,-44.21789c4.65046,-2.60772 12.50525,-4.8421 19.34068,-2.41834z" fill="#827d83" stroke="none" stroke-width="0" stroke-linecap="butt"/><path d="M233.62067,14.66053c1.94964,10.88126 12.96292,23.60359 12.96292,23.60359c0,0 -18.60507,-5.53278 -22.47622,-23.21959c-0.39829,-1.81975 -3.63162,10.35675 -25.51047,9.8304c-0.87856,-0.027 -3.93247,11.08248 -4.27625,23.35126c-0.42325,15.10504 1.972,31.96734 1.972,31.96734c0,0 -5.55456,-2.8646 -9.62681,-11.26782c-4.30658,-8.88678 -8.07374,-20.79034 -5.34409,-38.32515c0.58822,-3.77862 -11.45193,17.23093 -11.45193,17.23093c0,0 -0.87808,-22.59766 8.33666,-39.72817c8.05832,-14.98067 29.50515,-28.34159 45.94978,-30.28113c42.81002,-5.04914 55.98363,21.29725 55.98363,21.29725c0,0 21.66335,9.71003 20.5825,39.38173c-0.57594,15.81069 -6.28159,26.04651 -6.28159,26.04651c0,0 1.41941,-11.20662 -0.8734,-24.64579c-0.86991,-5.09894 -3.87404,-14.29683 -3.87404,-14.29683c0,0 6.28938,15.17252 -1.81513,38.12905c-5.17304,14.65296 -21.73783,23.07764 -21.73783,23.07764c0,0 8.51054,-25.67779 4.66259,-49.35455" fill="none" stroke="#3a2f41" stroke-width="2" stroke-linecap="round"/><path d="M234.0392,13.64811c0.33398,0.02216 0.40846,4.81546 2.68009,10.87035c1.09866,2.92842 4.96013,9.66518 7.59214,11.86877c1.1694,0.97904 -5.29969,-3.03812 -8.56222,-6.80183c-2.34198,-2.70174 -4.11309,-7.90566 -4.32015,-7.9194c-0.4955,-0.03289 -1.71325,-4.34416 -1.52845,-6.89143c0.13187,-1.81753 0.0553,-6.5066 1.2549,-6.23896c0.48163,0.10745 2.74174,5.10308 2.88369,5.1125z" fill="#a9a8ab" stroke="none" stroke-width="0" stroke-linecap="butt"/><path d="M291.74066,34.46848c0.83386,0.05534 0.90526,2.67316 0.45096,6.45462c-1.08356,9.01907 -5.32086,24.64676 -9.17402,27.92565c-1.14698,0.97603 2.31797,-13.87512 2.82746,-20.8976c0.50949,-7.02248 4.36401,-13.58431 5.8956,-13.48267z" fill="#a9a8ab" stroke="none" stroke-width="0" stroke-linecap="butt"/><path d="M284.3397,39.53243c-3.25749,-0.71992 -3.14893,-4.20956 -3.40587,-6.80257c-0.47354,-4.77886 7.48348,-12.21312 8.06982,-12.01966c4.16323,1.37366 3.51165,17.3991 3.51165,17.3991c0,0 -6.01841,1.89988 -8.1756,1.42314z" fill="#827d83" stroke="none" stroke-width="0" stroke-linecap="butt"/></g><path d="M230.25394,-25.47755v6" fill="none" stroke="#3a2f41" stroke-width="2" stroke-linecap="round"/><path d="M234.35648,-19.47757v-6" fill="none" stroke="#3a2f41" stroke-width="2" stroke-linecap="round"/></g><g data-paper-data="{&quot;index&quot;:null}"><path d="M313.80007,197.5012l-42.58065,-69.09471l12.93419,-11.03207l28.26039,40.87435l21.94529,-26.64961l16.87497,27.36997z" fill="#3a2f41" stroke="#3a2f41" stroke-width="4.5" stroke-linecap="butt"/><g data-paper-data="{&quot;index&quot;:null}"><path d="M327.16729,164.73926c-9.69446,-10.10521 -12.83666,-18.48407 -12.83666,-18.48407c0,0 15.61693,-12.1062 22.99406,-19.66983c8.0971,-8.30183 18.48858,-24.24118 23.30055,-27.87434c4.73634,-3.57606 29.54901,-5.59808 45.17931,2.66202c6.22321,3.28877 11.98077,8.32652 12.92451,15.3634c1.90361,14.1941 -49.57149,22.68376 -49.57149,22.68376l-23.50258,34.17237c0,0 -9.56647,0.44585 -18.48767,-8.85332z" fill="#c1c1c1" stroke="none" stroke-width="0" stroke-linecap="round"/><path d="M377.26667,103.45929c1.58017,3.05082 -4.2864,14.71917 -17.22134,19.12043c-5.96314,2.02902 -16.26691,0.99464 -17.84707,-2.05618c-0.35638,-0.68805 1.57764,-1.23343 2.82241,-2.73637c1.83119,-2.21098 3.67744,-5.78238 6.88177,-9.10016c4.27545,-4.42683 8.51275,-10.05964 10.98879,-11.34209c2.41702,-1.2519 8.63691,0.12856 10.37252,1.78403c2.28075,2.17539 3.10562,2.5979 4.00293,4.33034z" fill="#837e85" stroke="none" stroke-width="0" stroke-linecap="butt"/><path d="M327.16729,164.73926c-9.69446,-10.10521 -12.83666,-18.48407 -12.83666,-18.48407c0,0 15.61693,-12.1062 22.99406,-19.66983c8.0971,-8.30183 18.48858,-24.24118 23.30055,-27.87434c4.73634,-3.57606 29.54901,-5.59808 45.17931,2.66202c6.22321,3.28877 11.98077,8.32652 12.92451,15.3634c1.90361,14.1941 -49.57149,22.68376 -49.57149,22.68376l-23.50258,34.17237c0,0 -9.56647,0.44585 -18.48767,-8.85332z" fill="none" stroke="#3a2f41" stroke-width="2" stroke-linecap="round"/><path d="M348.20888,169.72245c-18.21598,-6.89723 -29.07747,-26.17213 -29.07747,-26.17213" fill="none" stroke="#3a2f41" stroke-width="1.5" stroke-linecap="round"/><path d="M321.69486,149.52757l-3.91841,2.81098" fill="none" stroke="#3a2f41" stroke-width="1.5" stroke-linecap="round"/><path d="M328.75205,157.83531l-4.94222,3.88137" fill="none" stroke="#3a2f41" stroke-width="1.5" stroke-linecap="round"/><path d="M336.66567,163.98317l-3.89247,5.07696" fill="none" stroke="#3a2f41" stroke-width="1.5" stroke-linecap="round"/><path d="M341.60804,172.50927l2.51852,-3.57603" fill="none" stroke="#3a2f41" stroke-width="1.5" stroke-linecap="round"/><path d="M387.40922,121.62372c0,0 5.15458,11.34104 2.66087,17.3282c-1.9366,4.64956 -16.27195,5.37685 -18.04492,1.00948c-2.64321,-6.51102 1.50096,-17.02311 1.50096,-17.02311l43.74355,-3.9903" fill="#b39a9c" stroke="#3a2f41" stroke-width="1.5" stroke-linecap="round"/><path d="M380.65404,130.6578l-0.62193,-7.23568" fill="none" stroke="#3a2f41" stroke-width="1" stroke-linecap="round"/><g stroke-linecap="butt"><path d="M412.08869,99.18419c-0.04687,6.38053 -5.48467,11.51327 -12.14565,11.46435c-6.66098,-0.04892 -12.02278,-5.26103 -11.97591,-11.64155c0.04687,-6.38054 5.48467,-11.51329 12.14565,-11.46438c6.66098,0.04892 12.02279,5.26106 11.97591,11.64158z" fill="#e1e1e0" stroke="none" stroke-width="0"/><path d="M388.22263,101.46716c-0.1734,-0.79348 -0.26173,-1.6166 -0.25554,-2.46017c0.04688,-6.38054 5.48468,-11.51329 12.14567,-11.46437c6.54969,0.04812 11.84329,5.08833 11.97376,11.32279z" fill="#b1b0b4" stroke="none" stroke-width="0"/><path d="M412.08873,99.18417c-0.04687,6.38053 -5.48467,11.5133 -12.14565,11.46435c-6.66099,-0.04892 -12.02279,-5.26103 -11.97591,-11.64157c0.04687,-6.38053 5.48467,-11.5133 12.14565,-11.46435c6.66099,0.04892 12.02279,5.26104 11.97591,11.64158z" fill="none" stroke="#3a2f41" stroke-width="1"/></g><g stroke-linecap="butt"><path d="M391.78818,102.11415c-0.04687,6.38052 -5.48467,11.5133 -12.14565,11.46435c-6.66098,-0.04895 -12.02279,-5.26104 -11.97591,-11.64158c0.04687,-6.38052 5.48467,-11.51329 12.14565,-11.46434c6.66098,0.04895 12.02279,5.26103 11.97591,11.64157z" fill="#e1e1e0" stroke="none" stroke-width="0"/><path d="M367.92212,104.39714c-0.17338,-0.79347 -0.26173,-1.61662 -0.25554,-2.46019c0.04688,-6.38052 5.48469,-11.51329 12.14567,-11.46434c6.54971,0.04811 11.84329,5.08832 11.97375,11.32278z" fill="#b1b0b4" stroke="none" stroke-width="0"/><path d="M391.78822,102.11416c-0.04687,6.38052 -5.48467,11.5133 -12.14565,11.46435c-6.66098,-0.04895 -12.02278,-5.26103 -11.9759,-11.64157c0.04687,-6.38052 5.48468,-11.51329 12.14565,-11.46435c6.66098,0.04895 12.02278,5.26103 11.9759,11.64157z" fill="none" stroke="#3a2f41" stroke-width="1"/></g><path d="M391.58188,97.45934c2.27862,4.66161 0.75537,10.08808 -3.40228,12.12034c-4.15765,2.03226 -9.37525,-0.09921 -11.65386,-4.76082c-2.27862,-4.66161 -0.75537,-10.08808 3.40228,-12.12034c4.15765,-2.03226 9.37525,0.09921 11.65386,4.76082z" fill="#3a2f41" stroke="none" stroke-width="NaN" stroke-linecap="butt"/><path d="M406.22891,98.70247c0.26583,5.19884 -3.76905,9.46937 -9.01216,9.53848c-5.24311,0.06911 -9.70896,-4.08937 -9.97478,-9.28821c-0.26583,-5.19884 3.76905,-9.46937 9.01216,-9.53848c5.24311,-0.06911 9.70899,4.08937 9.97481,9.28821z" fill="#3a2f41" stroke="none" stroke-width="NaN" stroke-linecap="butt"/><path d="M359.65026,137.49228c-0.41989,3.49241 -3.92063,5.9436 -7.81914,5.4749c-3.89851,-0.46871 -6.71849,-3.67983 -6.29861,-7.17224c0.41989,-3.49241 3.92063,-5.9436 7.81914,-5.4749c3.89851,0.46871 6.71849,3.67983 6.29861,7.17224z" fill="#837e85" stroke="none" stroke-width="0" stroke-linecap="butt"/></g></g><g><path d="M258.4992,88.24001c0,0 21.04156,6.28811 22.20162,8.30737c7.25167,12.62255 17.97923,26.49023 17.97923,26.49023c0,0 -5.91654,12.9001 -10.94213,16.02404c-5.3433,3.32142 -20.22296,3.34834 -20.22296,3.34834l-5.30468,-26.72588" fill="#c1c1c1" stroke="none" stroke-width="0" stroke-linecap="round"/><path d="M294.55564,117.4864c0,0 -6.18029,11.79313 -10.87577,14.6702c-4.75855,2.91572 -17.48885,2.70976 -17.48885,2.70976" fill="none" stroke="#3a2f41" stroke-width="2" stroke-linecap="round"/><path d="M261.17315,111.28781l-2.8,-23.8l20.9,8.2l5,5.6z" fill="#6d6972" stroke="none" stroke-width="0" stroke-linecap="butt"/><path d="M258.4992,88.24002c0,0 21.04156,6.28811 22.20162,8.30737c7.25167,12.62255 17.97923,26.49023 17.97923,26.49023c0,0 -5.91654,12.90011 -10.94213,16.02403c-5.3433,3.32142 -20.22296,3.34834 -20.22296,3.34834l-5.30468,-26.72588" fill="none" stroke="#3a2f41" stroke-width="2" stroke-linecap="round"/></g><g><path d="M222.79518,51.88909c-0.84542,3.98194 -9.15464,6.28872 -16.801,4.42847c-7.64635,-1.86025 -11.84395,-9.06088 -10.99853,-13.04282c0.84542,-3.98194 7.839,-3.82412 15.48535,-1.96387c7.64635,1.86025 13.1596,6.59628 12.31418,10.57822z" fill="#908b93" stroke="none" stroke-width="0" stroke-linecap="butt"/><path d="M206.27702,55.67904c0,0 -3.01187,-0.49047 -5.8779,-2.49024c-2.86603,-1.99978 -4.74655,-4.70796 -4.3663,-5.33241c0.38024,-0.62445 2.37809,2.9689 5.18476,5.06293c2.89801,2.16218 5.05944,2.75972 5.05944,2.75972z" fill="#3a2f41" stroke="none" stroke-width="0" stroke-linecap="butt"/><g stroke="#3a2f41" stroke-width="1"><path d="M212.1625,29.52055c8.55485,1.23614 14.43407,10.26235 13.53224,17.41401c-0.90183,7.15165 -8.2432,9.72056 -16.79805,8.48441c-8.55485,-1.23614 -15.02005,-7.1215 -14.11823,-14.27315c0.90183,-7.15165 8.82918,-12.86142 17.38403,-11.62527z" data-paper-data="{&quot;index&quot;:null}" fill="#e1e2db" stroke-linecap="butt"/><path d="M195.62932,37.72351l-2.9602,-1.64307" fill="none" stroke-linecap="round"/><path d="M196.28715,31.03388l1.75419,2.93405" fill="none" stroke-linecap="round"/><path d="M201.54972,31.15124l-0.8771,-2.34724" fill="none" stroke-linecap="round"/></g></g><g data-paper-data="{&quot;index&quot;:null}"><path d="M254.4123,41.81087c8.53143,-1.86025 16.33453,-2.01808 17.27781,1.96386c0.94328,3.98194 -3.7402,11.18257 -12.27163,13.04282c-8.53143,1.86025 -17.80247,-0.44653 -18.74574,-4.42847c-0.94328,-3.98194 5.20814,-8.71796 13.73957,-10.57821z" fill="#908b93" stroke="none" stroke-width="0" stroke-linecap="butt"/><path d="M264.74799,53.41931c3.13154,-2.09403 5.36064,-5.68738 5.7849,-5.06293c0.42426,0.62445 -1.67393,3.33264 -4.87171,5.33242c-3.19777,1.99977 -6.55827,2.49024 -6.55827,2.49024c0,0 2.41163,-0.59754 5.64508,-2.75973z" fill="#3a2f41" stroke="none" stroke-width="0" stroke-linecap="butt"/><g stroke="#3a2f41" stroke-width="1"><path d="M271.93243,41.64582c1.00622,7.15165 -6.20735,13.03701 -15.75244,14.27315c-9.54509,1.23614 -17.73624,-1.33277 -18.74245,-8.48441c-1.00622,-7.15165 5.55354,-16.17787 15.09863,-17.41401c9.54509,-1.23614 18.39005,4.47362 19.39627,11.62527z" data-paper-data="{&quot;index&quot;:null}" fill="#e1e2db" stroke-linecap="butt"/><path d="M274.28594,36.58044l-3.30285,1.64307" fill="none" stroke-linecap="round"/><path d="M268.29188,34.46793l1.95724,-2.93405" fill="none" stroke-linecap="round"/><path d="M264.37739,31.65123l0.97862,-2.34724" fill="none" stroke-linecap="round"/></g></g><path d="M223.64078,40.63462l0.15552,8.00543" fill="none" stroke="#3a2f41" stroke-width="2" stroke-linecap="round"/><path d="M240.30745,40.96796l0.15552,8.00543" fill="none" stroke="#3a2f41" stroke-width="2" stroke-linecap="round"/><path d="M227.71853,50.30401l-1,-5.5" fill="none" stroke-opacity="0.38949" stroke="#3a2f41" stroke-width="1" stroke-linecap="round"/><path d="M228.55187,44.30401l1.33333,5.5" fill="none" stroke-opacity="0.38949" stroke="#3a2f41" stroke-width="1" stroke-linecap="round"/><path d="M230.55187,44.63734l0.66667,4.83333" fill="none" stroke-opacity="0.38949" stroke="#3a2f41" stroke-width="1" stroke-linecap="round"/><path d="M232.21853,43.80401l1.66667,6.66667" fill="none" stroke-opacity="0.38949" stroke="#3a2f41" stroke-width="1" stroke-linecap="round"/><path d="M235.8852,49.804l-1.5,-5.83333" fill="none" stroke-opacity="0.38949" stroke="#3a2f41" stroke-width="1" stroke-linecap="round"/><g stroke="#3a2f41" stroke-width="1"><path d="M208.30408,55.79145c0,0 9.51261,0.02438 25.07746,-2.53056c12.43174,-2.04066 20.18857,-6.27199 20.18857,-6.27199c0,0 0.71067,18.43014 -17.92,21.52309c-19.79594,3.2864 -27.34604,-12.72053 -27.34604,-12.72053z" fill="#e1e1e0" stroke-linecap="butt"/><path d="M214.92121,63.68101c-4.62376,-3.66342 -6.61713,-7.88955 -6.61713,-7.88955c0,0 2.22176,0.00569 6.2747,-0.27681z" fill="#3a2f41" stroke-linecap="butt"/><path d="M252.13002,54.3666l-7.48725,7.71803l-6.39794,-5.48533l-5.65333,7.66538l-8.2223,-5.09949l-4.62472,5.13482l-6.37881,-4.81894" fill="none" stroke-linecap="round"/></g></g></g></svg>