<svg version="1.1" xmlns="http://www.w3.org/2000/svg" xmlns:xlink="http://www.w3.org/1999/xlink" width="188" height="108" viewBox="0,0,188,108"><g transform="translate(-150,-243)"><g data-paper-data="{&quot;isPaintingLayer&quot;:true}" fill-rule="nonzero" stroke-linejoin="miter" stroke-miterlimit="10" stroke-dasharray="" stroke-dashoffset="0" style="mix-blend-mode: normal"><path d="M150,243h188v108h-188z" fill="#003fff" stroke="none" stroke-width="1" stroke-linecap="butt"/><path d="M155.7103,254.5c0,0 4.0674,-0.869 6.1143,-1c0.5761,-0.037 1.1828,0.12 1.6984,0.5c0.4294,0.316 0.5782,1.222 1.0191,1.5c0.4157,0.262 0.199,0 1.3587,0c4.638,0 9.289,0 13.927,0c1.1597,0 1.8397,0.323 2.7174,0c0.549,-0.202 0.8078,-1.313 1.3588,-1.5c0.9918,-0.337 2.0387,0 3.0571,0c1.9233,0 3.8513,0 5.7746,0c0.9049,0 1.8146,0.095 2.7175,0c0.6861,-0.072 1.3852,-0.18 2.0381,-0.5c0.7201,-0.353 1.3057,-1.206 2.0381,-1.5c0.5455,-0.219 1.1352,-0.075 1.6984,0c0.6855,0.092 1.3614,0.319 2.0381,0.5c0.5672,0.152 1.1352,0.316 1.6984,0.5c0.4552,0.149 0.8934,0.462 1.3587,0.5c1.5809,0.129 3.174,0.116 4.7556,0c0.6875,-0.051 1.354,-0.394 2.0381,-0.5c1.4667,-0.227 2.9437,-0.627 4.4158,-0.5c0.5048,0.044 0.8921,0.714 1.3588,1c0.892,0.547 1.7548,1.371 2.7174,1.5c2.816,0.377 5.6687,0.231 8.4921,0c1.2629,-0.103 2.4817,-0.769 3.7365,-1c0.5612,-0.103 1.1345,0.069 1.6984,0c0.7969,-0.098 1.5809,-0.402 2.3778,-0.5c0.5639,-0.069 1.1352,0.075 1.6984,0c0.6855,-0.092 1.3513,-0.441 2.0381,-0.5c1.2419,-0.108 2.4953,0.122 3.7365,0c0.4654,-0.046 0.8941,-0.447 1.3587,-0.5c1.015,-0.115 2.0449,-0.157 3.0572,0c1.1474,0.178 2.2874,0.534 3.3968,1c0.4864,0.205 0.8852,0.739 1.3587,1c0.4369,0.241 0.9219,0.259 1.3588,0.5c0.4735,0.261 0.8852,0.739 1.3587,1c0.4368,0.241 0.9104,0.311 1.3587,0.5c0.3438,0.145 1.0191,0.5 1.0191,0.5" fill="none" stroke="#ffffff" stroke-width="1.7097" stroke-linecap="round"/><path d="M239.2722,268.5c0,0 -1.8322,-0.566 -2.7174,-1c-0.4797,-0.235 -0.8588,-0.887 -1.3588,-1c-1.0061,-0.228 -2.0394,0 -3.0571,0c-3.1672,0 -6.3446,0.085 -9.5111,0c-3.0558,-0.082 -6.1197,-0.736 -9.1714,-0.5c-1.2881,0.1 -2.5952,0.616 -3.7366,1.5c-1.0638,0.824 -1.5414,3.133 -2.7174,3.5c-2.7664,0.864 -5.6646,0 -8.4921,0c-1.1311,0 -0.0876,0.23 -3.3968,0c-13.2368,-0.921 -39.7429,-3 -39.7429,-3" fill="none" stroke="#ffffff" stroke-width="1.7097" stroke-linecap="round"/><path d="M236.8944,287c0,0 0.3112,-0.083 0,0c-1.2445,0.333 -2.4817,0.769 -3.7365,1c-1.4633,0.269 -2.9593,0.157 -4.4158,0.5c-1.3819,0.325 -2.7814,0.72 -4.0762,1.5c-1.2208,0.735 -2.1842,2.235 -3.3968,3c-0.4158,0.262 -0.9063,0 -1.3588,0c-0.5659,0 -1.1569,0.239 -1.6984,0c-0.6318,-0.279 -1.1495,-0.961 -1.6984,-1.5c-0.4708,-0.462 -0.8621,-1.101 -1.3587,-1.5c-0.7562,-0.607 -1.5422,-1.192 -2.3778,-1.5c-0.5489,-0.202 -1.1441,-0.163 -1.6984,0c-0.5972,0.176 -1.1658,0.565 -1.6984,1c-0.4946,0.404 -0.9586,0.911 -1.3588,1.5c-0.4001,0.589 -0.5774,1.48 -1.019,2c-0.712,0.839 -1.4967,1.654 -2.3778,2c-0.8743,0.343 -1.8302,0.261 -2.7175,0c-1.4028,-0.413 -2.6882,-1.489 -4.0761,-2c-0.4389,-0.162 -0.9063,0 -1.3588,0c-0.5659,0 -1.1325,0 -1.6984,0c-0.4524,0 -0.945,-0.27 -1.3587,0c-0.6617,0.433 -1.0653,1.482 -1.6984,2c-0.4076,0.333 -0.8961,0.415 -1.3588,0.5c-0.449,0.083 -0.9062,0 -1.3587,0c-0.5659,0 -1.1461,0.181 -1.6984,0c-0.4939,-0.162 -0.947,-0.567 -1.3587,-1c-0.3907,-0.411 -0.7616,-0.904 -1.0191,-1.5c-0.5435,-1.256 -0.5971,-3.019 -1.3587,-4c-0.3512,-0.452 -1.0075,0.048 -1.3587,0.5c-0.6142,0.791 -0.7215,2.25 -1.3588,3c-1.6665,1.962 -3.5503,3.526 -5.4349,5c-1.7446,1.364 -3.5048,2.882 -5.4349,3.5c-0.8044,0.257 -1.7188,-0.273 -2.3778,-1c-0.373,-0.412 -0.2058,-1.342 -0.3397,-2c-0.2058,-1.009 0.3091,-1.918 -0.6793,-3c-3.9546,-4.328 -12.5683,-11.5 -12.5683,-11.5" fill="none" stroke="#ffffff" stroke-width="1.7097" stroke-linecap="round"/><path d="M156.3897,319.5c0,0 6.3813,-0.213 9.5111,-1c1.553,-0.39 2.9009,-1.863 4.4159,-2.5c0.877,-0.369 1.8159,-0.704 2.7174,-0.5c0.6522,0.148 1.1237,1.024 1.6984,1.5c1.2351,1.023 2.3303,2.741 3.7366,3c5.0517,0.93 10.1945,0.5 15.2857,0.5c1.2731,0 0.8927,-0.5 1.3587,-0.5c0.7996,0 1.6189,0.128 2.3778,0.5c0.9599,0.471 1.6182,1.862 2.7174,2c4.3955,0.551 8.8372,0.13 13.2477,0c1.2493,-0.037 2.4878,-0.447 3.7365,-0.5c2.7133,-0.114 8.1523,0 8.1523,0" fill="none" stroke="#ffffff" stroke-width="1.7097" stroke-linecap="round"/><path d="M207.3421,341.5c0,0 -2.0388,0 -3.0572,0c-2.6013,0 -5.2127,0.137 -7.8127,0c-0.6501,-0.034 -1.163,-0.185 -1.6984,-0.5c-0.6121,-0.361 -1.0612,-1.25 -1.6984,-1.5c-1.0985,-0.431 -2.2616,-0.407 -3.3968,-0.5c-0.9036,-0.074 -0.6794,0.262 -2.7175,0c-8.1517,-1.05 -24.4571,-3.5 -24.4571,-3.5" fill="none" stroke="#ffffff" stroke-width="1.7097" stroke-linecap="round"/><text transform="translate(270.293,260.77965) scale(0.64637,0.64637)" font-size="22" xml:space="preserve" fill="#ffffff" fill-rule="nonzero" stroke="none" stroke-width="1" stroke-linecap="butt" stroke-linejoin="miter" stroke-miterlimit="10" stroke-dasharray="" stroke-dashoffset="0" font-family="Sans Serif" font-weight="400" text-anchor="start" style="mix-blend-mode: normal"><tspan x="0" dy="0">VIRUSES</tspan></text><text transform="translate(284.201,281.23148) scale(0.60071,0.60071)" font-size="22" xml:space="preserve" fill="#ffffff" fill-rule="nonzero" stroke="none" stroke-width="1" stroke-linecap="butt" stroke-linejoin="miter" stroke-miterlimit="10" stroke-dasharray="" stroke-dashoffset="0" font-family="Sans Serif" font-weight="400" text-anchor="start" style="mix-blend-mode: normal"><tspan x="0" dy="0">ARE</tspan></text><text transform="translate(243,314.46)" font-size="22" xml:space="preserve" fill="#ffffff" fill-rule="nonzero" stroke="none" stroke-width="1" stroke-linecap="butt" stroke-linejoin="miter" stroke-miterlimit="10" stroke-dasharray="" stroke-dashoffset="0" font-family="Sans Serif" font-weight="400" text-anchor="start" style="mix-blend-mode: normal"><tspan x="0" dy="0">EVERY</tspan><tspan x="0" dy="24.86px">WHERE.</tspan></text></g></g></svg>