<svg version="1.1" xmlns="http://www.w3.org/2000/svg" xmlns:xlink="http://www.w3.org/1999/xlink" width="172.32313" height="330.40831" viewBox="0,0,172.32313,330.40831"><defs><linearGradient x1="190.58782" y1="334.02396" x2="190.58782" y2="473.59259" gradientUnits="userSpaceOnUse" id="color-1"><stop offset="0" stop-color="#ffffff" stop-opacity="0.26046"/><stop offset="1" stop-color="#ffffff" stop-opacity="0"/></linearGradient><linearGradient x1="184.64835" y1="322.54101" x2="184.64835" y2="462.10964" gradientUnits="userSpaceOnUse" id="color-2"><stop offset="0" stop-color="#ffffff" stop-opacity="0.26046"/><stop offset="1" stop-color="#ffffff" stop-opacity="0"/></linearGradient><linearGradient x1="184.64835" y1="322.54101" x2="184.64835" y2="462.10964" gradientUnits="userSpaceOnUse" id="color-3"><stop offset="0" stop-color="#ffffff" stop-opacity="0.26046"/><stop offset="1" stop-color="#ffffff" stop-opacity="0"/></linearGradient><linearGradient x1="228.27804" y1="333.6507" x2="228.27804" y2="473.21933" gradientUnits="userSpaceOnUse" id="color-4"><stop offset="0" stop-color="#ffffff" stop-opacity="0.26046"/><stop offset="1" stop-color="#ffffff" stop-opacity="0"/></linearGradient><linearGradient x1="222.33857" y1="322.16775" x2="222.33857" y2="461.73638" gradientUnits="userSpaceOnUse" id="color-5"><stop offset="0" stop-color="#ffffff" stop-opacity="0.26046"/><stop offset="1" stop-color="#ffffff" stop-opacity="0"/></linearGradient><linearGradient x1="222.33857" y1="322.16775" x2="222.33857" y2="461.73638" gradientUnits="userSpaceOnUse" id="color-6"><stop offset="0" stop-color="#ffffff" stop-opacity="0.26046"/><stop offset="1" stop-color="#ffffff" stop-opacity="0"/></linearGradient><linearGradient x1="208.18849" y1="254.62312" x2="208.18849" y2="400.15889" gradientUnits="userSpaceOnUse" id="color-7"><stop offset="0" stop-color="#3a2f41"/><stop offset="1" stop-color="#e1e2db" stop-opacity="0.29839"/></linearGradient></defs><g transform="translate(-137.81604,-54.34325)"><g data-paper-data="{&quot;isPaintingLayer&quot;:true}" fill-rule="nonzero" stroke-linejoin="miter" stroke-miterlimit="10" stroke-dasharray="" stroke-dashoffset="0" style="mix-blend-mode: normal"><g data-paper-data="{&quot;index&quot;:null}" stroke-linecap="butt"><path d="M226.9281,97.41959c0,-17.25862 10.30622,-24.10266 10.30622,-24.10266l-0.39635,11.65776c0,0 5.09598,-11.00852 7.78837,-11.00852c14.42897,0 41.63301,9.74536 41.97012,12.47304c0.91344,7.39099 -5.77366,88.67255 -5.36982,90.02099c0.87208,2.91195 27.72212,-8.07354 27.72212,-8.07354c0,0 -3.49066,13.42271 -8.66453,21.18601c-4.9978,7.49911 -13.35897,10.88998 -13.35897,10.88998l14.02666,18.16866c0,0 -40.91893,-2.106 -63.46008,4.39871c-6.02804,-12.94985 -2.70573,-38.75086 -3.02741,-62.84036c-0.36425,-27.27711 -3.92621,-52.35979 -3.92621,-54.10573z" fill="#e1e2db" stroke="none" stroke-width="0"/><path d="M227.16875,96.6976c0,-19.18405 10.06555,-23.62132 10.06555,-23.62132l-0.39635,11.65776c0,0 5.09598,-11.00852 7.78837,-11.00852c14.42897,0 41.63301,9.74536 41.97012,12.47304c0.91344,7.39098 -5.77366,88.29928 -5.36982,89.64772c0.23025,0.76886 6.38733,-0.0396 6.38733,-0.0396c0,0 -54.72869,32.6645 -55.18477,29.33988c-0.78156,-5.69731 -1.98223,-11.07908 -1.75228,-17.34707c0.44453,-12.1171 3.17048,-25.50281 3.12172,-36.55971c-0.10833,-24.56745 -3.2604,-43.03217 -3.2604,-44.67448z" fill="#8c9ca0" stroke="none" stroke-width="0"/><path d="M230.92638,106.05873c0,0 -3.88112,-8.71193 -3.74161,-12.24927c0.48135,-12.20444 10.30622,-20.7332 10.30622,-20.7332l-0.39635,11.65776c0,0 5.09598,-11.00852 7.78837,-11.00852c14.42897,0 41.63301,9.74536 41.97012,12.47304c0.91344,7.39098 -5.77366,88.29928 -5.36982,89.64772c0.87208,2.91196 27.72212,-7.70027 27.72212,-7.70027c0,0 -1.9205,12.86782 -9.71079,23.0868c-6.63792,8.70736 -11.93944,9.36246 -11.93944,9.36246l13.65339,17.79539c0,0 -40.91893,-2.106 -63.46008,4.39871c-1.59735,-3.4315 -6.37443,-8.23163 -7.02362,-13.3656c-2.42103,-19.14602 4.38711,-47.7529 4.77962,-71.61705c0.20894,-12.7037 -4.64733,-24.5726 -4.57816,-31.74797z" fill="none" stroke="#3a2f41" stroke-width="1.5"/></g><g data-paper-data="{&quot;index&quot;:null}" stroke="#3a2f41"><g><g fill="#3a2f41"><path d="M155.27413,334.75594l28.35037,21.49149l-31.6274,-5.55548z" stroke-width="2" stroke-linecap="round"/><path d="M154.52597,340.46029l21.65223,28.2278l-29.02966,-13.72713z" stroke-width="2" stroke-linecap="round"/><path d="M154.91249,264.34783l3.77832,3.99386l4.9711,-13.30689l2.38165,10.4353l4.38739,-2.41708c0,0 -2.78673,26.14943 -3.09185,34.21556c-0.1956,5.17056 -0.17879,8.7232 -0.17879,8.7232l19.61532,14.12462l-0.10581,30.06728l-7.2164,-19.08836c0,0 -8.45245,-5.91719 -10.72115,-4.257c-1.24807,0.91331 -10.99422,28.07001 -10.99422,28.07001l6.02274,25.65533l-19.87763,-22.23622c0,0 0.24238,-7.85258 1.70232,-17.82407c1.45993,-9.9715 -1.27254,13.80856 -1.34949,15.41415l-5.63473,-11.53322c0,0 3.04226,-15.18271 3.7567,-20.4522c2.08454,-15.37465 12.55453,-59.5843 12.55453,-59.5843z" stroke-width="1.5" stroke-linecap="butt"/></g><g fill="#677479" stroke-width="1.5" stroke-linecap="butt"><path d="M143.24454,283.46025c0,0 13.81294,-25.11037 24.42001,-52.1399c7.27825,-18.54683 10.08127,-39.18358 17.74139,-48.48572c8.07875,-7.48473 12.66326,-1.54537 12.86799,5.1461c0.10075,3.29283 -6.70705,26.8096 -9.09389,50.98738c-2.46354,24.95459 -0.51021,50.54018 -0.51021,50.54018l-12.36567,14.39699l-27.19163,-4.48457z"/></g></g><path d="M144.59603,306.27842l3.14607,-14.94382l33.78601,7.11285l-3.14606,14.94382z" fill="#8c9ca0" stroke-width="1.5" stroke-linecap="butt"/><path d="M156.42231,293.84195l-3.31987,14.16477" fill="none" stroke-width="1.5" stroke-linecap="round"/><path d="M152.41682,299.60363c-0.32134,1.68083 -1.11714,2.94109 -1.77747,2.81485c-0.66032,-0.12625 -0.93514,-1.59117 -0.6138,-3.272c0.32134,-1.68083 1.11714,-2.94109 1.77747,-2.81485c0.66032,0.12626 0.93514,1.59117 0.6138,3.27201z" fill="#3a2f41" stroke-width="1.5" stroke-linecap="butt"/></g><path d="M174.61112,344.28931l31.95347,-10.26535l-7.55815,49.70095c-7.04131,0.00914 -14.08258,0.00914 -21.12379,-0.00757z" data-paper-data="{&quot;index&quot;:null}" fill="#3a2f41" stroke="url(#color-1)" stroke-width="0.5" stroke-linecap="butt"/><path d="" data-paper-data="{&quot;index&quot;:null}" fill="#3a2f41" stroke="url(#color-2)" stroke-width="0.5" stroke-linecap="butt"/><path d="" data-paper-data="{&quot;index&quot;:null}" fill="#3a2f41" stroke="url(#color-3)" stroke-width="0.5" stroke-linecap="butt"/><path d="M212.3013,333.65072l31.95347,10.26535l-4.37874,39.70782c-7.07724,0.01632 -14.15449,0.03817 -21.23173,0.05789z" data-paper-data="{&quot;index&quot;:null}" fill="#3a2f41" stroke="url(#color-4)" stroke-width="0.5" stroke-linecap="butt"/><path d="" data-paper-data="{&quot;index&quot;:null}" fill="#3a2f41" stroke="url(#color-5)" stroke-width="0.5" stroke-linecap="butt"/><path d="" data-paper-data="{&quot;index&quot;:null}" fill="#3a2f41" stroke="url(#color-6)" stroke-width="0.5" stroke-linecap="butt"/><g stroke-linecap="round"><path d="M148.79704,380.97916l37.7671,-125.70396l12.88648,-13.66936l25.04792,0.15508l13.04745,14.52224l29.98772,127.39551c-0.73134,-0.04905 -1.4764,-0.07558 -2.23773,-0.07643c-36.47151,-0.04087 -72.94437,0.30922 -109.41458,0c-1.80152,-0.01527 -3.58874,-0.54719 -5.32995,-1.23062c-0.42637,-0.35743 -0.883,-0.67996 -1.36548,-0.96318c-0.25862,-0.27715 -0.38892,-0.42927 -0.38892,-0.42927z" fill="#3a2f41" stroke="none" stroke-width="0"/><path d="M149.11897,381.36946c-0.21466,-0.25242 -0.32192,-0.39032 -0.32192,-0.39032c0,0 34.15474,-114.54578 37.02056,-122.87218c1.22855,-3.56943 13.55184,-16.16665 13.55184,-16.16665l25.79084,0.16829c0,0 12.59709,12.56629 13.38107,16.73574c3.71905,19.7788 24.26181,104.4076 27.66147,119.08523c0.63219,2.72942 1.17493,5.07262 1.33163,5.74915" fill="none" stroke="url(#color-7)" stroke-width="2"/><path d="M238.39494,261.69768l-30.93072,7.47052l-22.18539,-9.53318" fill="none" stroke="#e1e2db" stroke-width="1"/></g><g data-paper-data="{&quot;index&quot;:null}" stroke="#3a2f41"><g><g fill="#3a2f41"><path d="M279.31568,352.18502l-31.6274,5.55548l28.35037,-21.49149z" stroke-width="2" stroke-linecap="round"/><path d="M284.16423,356.45401l-29.02966,13.72713l21.65223,-28.2278z" stroke-width="2" stroke-linecap="round"/><path d="M276.40028,265.84086c0,0 10.46999,44.20965 12.55453,59.5843c0.71445,5.26947 3.7567,20.4522 3.7567,20.4522l-5.63473,11.53322c-0.07695,-1.60558 -2.80943,-25.38565 -1.34949,-15.41415c1.45994,9.97149 1.70232,17.82407 1.70232,17.82407l-19.87763,22.23622l6.02274,-25.65533c0,0 -9.74614,-27.1567 -10.99422,-28.07001c-2.2687,-1.6602 -10.72116,4.257 -10.72116,4.257l-7.21639,19.08836l-0.10581,-30.06728l19.61532,-14.12462c0,0 0.01681,-3.55265 -0.17879,-8.7232c-0.30512,-8.06612 -3.09185,-34.21556 -3.09185,-34.21556l4.38739,2.41708l2.38165,-10.4353l4.9711,13.30689l3.77832,-3.99386z" stroke-width="1.5" stroke-linecap="butt"/></g><g fill="#9aac9c" stroke-width="1.5" stroke-linecap="butt"><path d="M282.20026,300.91376l-27.19163,4.48457l-12.36567,-14.39699c0,0 1.95332,-25.58558 -0.51021,-50.54018c-2.38685,-24.17778 -9.19464,-47.69455 -9.09389,-50.98739c0.20473,-6.69147 4.78924,-12.63083 12.86799,-5.1461c7.66011,9.30213 10.46313,29.93889 17.74138,48.48573c10.60707,27.02953 24.42002,52.13989 24.42002,52.13989z"/></g></g><path d="M252.93072,314.88434l-3.14606,-14.94382l33.78601,-7.11285l3.14607,14.94382z" fill="#e1e2db" stroke-width="1.5" stroke-linecap="butt"/><path d="M274.89044,295.33501l3.31987,14.16477" fill="none" stroke-width="1.5" stroke-linecap="round"/><path d="M278.89592,301.09671c-0.32134,-1.68085 -0.04652,-3.14577 0.6138,-3.27201c0.66033,-0.12624 1.45613,1.13402 1.77747,2.81485c0.32134,1.68084 0.04652,3.14576 -0.6138,3.272c-0.66033,0.12624 -1.45613,-1.13402 -1.77747,-2.81485z" fill="#3a2f41" stroke-width="1.5" stroke-linecap="butt"/></g><g data-paper-data="{&quot;index&quot;:null}"><g><path d="M231.71092,221.65351c-0.01417,0.00744 -4.97925,12.50971 -4.97925,12.50971l5.62184,14.85052l-23.09674,9.50433l-17.50537,-10.09834l6.5588,-14.70201l-4.21132,-12.10513" fill="#9aac9c" stroke="#3a2f41" stroke-width="1.5" stroke-linecap="round"/><g><path d="M189.24286,181.13072c0,0 4.1656,-3.11506 9.48475,-4.92005c6.64482,-2.25483 15.46308,-2.55565 19.83626,-2.5763c7.56204,-0.03572 24.74112,7.42122 26.01818,11.19705c3.63636,10.75153 -12.83196,36.67323 -12.83196,36.67323l-37.27324,0.59434c0,0 -5.45047,-12.55011 -6.69483,-20.83243c-0.2174,-1.4469 -0.38112,-2.9203 -0.49327,-4.37096" fill="#677479" stroke="none" stroke-width="0" stroke-linecap="round"/><path d="M237.06153,184.32566l-1.33253,3.70863c0,0 11.70734,17.18136 11.56337,20.38938c-0.04233,0.94317 -4.65442,7.94376 -7.69563,10.7528c-2.95809,2.73229 -9.28296,6.35556 -10.88569,7.25597l-33.50516,0.39849c-1.72804,-0.97334 -6.39998,-2.78006 -10.80205,-7.20892c-3.04121,-2.80904 -8.78763,-9.94802 -8.19331,-11.25049c2.44526,-5.35881 14.21634,-20.09637 14.21634,-20.09637l-1.27637,-3.76079" fill="#9aac9c" stroke="none" stroke-width="0" stroke-linecap="round"/><path d="M237.06153,184.57449l-1.33253,3.70863l2.79954,4.21886l-60.26608,20.25647c0,0 -2.30877,-3.57523 -2.05193,-4.1381c2.44526,-5.35881 14.21634,-20.09637 14.21634,-20.09637l-1.27637,-3.76079" fill="#677479" stroke="none" stroke-width="0" stroke-linecap="round"/><path d="M237.06153,184.21158l-1.33253,3.70863c0,0 11.70734,17.18136 11.56337,20.38938c-0.04233,0.94317 -4.65442,7.94376 -7.69563,10.7528c-2.95809,2.73229 -9.28296,6.35556 -10.88569,7.25597l-33.50516,0.39849c-1.72804,-0.97334 -6.39998,-2.78006 -10.80205,-7.20892c-3.04121,-2.80904 -8.78763,-9.94802 -8.19331,-11.25049c2.44526,-5.35881 14.21634,-20.09637 14.21634,-20.09637l-1.27637,-3.76079" fill="none" stroke="#3a2f41" stroke-width="1.5" stroke-linecap="round"/><path d="M183.13019,182.79504l8.23723,-4.32965l18.01893,41.75658l-10.86468,-2.51808l0.11089,-7.89804c0,0 -18.56064,-12.07828 -19.00454,-12.3105c-0.47604,-0.24905 9.84269,-8.11325 9.84269,-8.11325z" data-paper-data="{&quot;index&quot;:null}" fill="#8c9ca0" stroke="none" stroke-width="0" stroke-linecap="butt"/><path d="M237.68067,190.51595c0,0 9.10024,9.24703 8.5937,9.4261c-0.47234,0.16697 -20.5572,9.49329 -20.5572,9.49329l-1.00941,7.83406l-12.68863,2.88553l25.33087,-40.7143l8.17431,4.53838z" fill="#e1e2db" stroke="#3a2f41" stroke-width="0" stroke-linecap="butt"/><path d="M202.41374,204.06381l6.97262,16.15816l-10.86468,-2.51808l0.11089,-7.89804l-4.02128,-2.46584z" data-paper-data="{&quot;index&quot;:null}" fill="#e1e2db" stroke="none" stroke-width="0" stroke-linecap="butt"/><path d="M237.68066,190.51595l1.41628,1.45l-11.66085,3.40931l9.91391,-15.93463l8.17431,4.53838z" fill="#8c9ca0" stroke="none" stroke-width="0" stroke-linecap="butt"/><path d="M237.68067,190.77263c0,0 9.10024,9.24703 8.5937,9.4261c-0.47234,0.16697 -20.5572,9.49329 -20.5572,9.49329l-1.00941,7.83406l-12.68863,2.88553l25.33087,-40.7143l8.17431,4.53838z" fill="none" stroke="#3a2f41" stroke-width="1.5" stroke-linecap="butt"/><path d="M183.1302,182.79504l8.23723,-4.32965l18.01893,41.75658l-10.86468,-2.51808l0.11089,-7.89804c0,0 -18.56064,-12.07828 -19.00454,-12.3105c-0.47604,-0.24905 9.84269,-8.11325 9.84269,-8.11325z" data-paper-data="{&quot;index&quot;:null}" fill="none" stroke="#3a2f41" stroke-width="1.5" stroke-linecap="butt"/><path d="M210.93941,220.51704c0,0 -8.98409,-13.35688 -10.49833,-17.78116c-2.7312,-7.97991 -4.51838,-26.09409 -4.51838,-26.09409l18.16013,-7.07727c0,0 10.04599,3.08932 13.46285,4.61295c2.96827,1.32359 9.80112,4.94234 9.80112,4.94234c0,0 -12.50631,25.42463 -26.4074,41.39722z" data-paper-data="{&quot;index&quot;:null}" fill="#e1e2db" stroke="none" stroke-width="0" stroke-linecap="butt"/><path d="M190.69696,179.87678c0,0 4.80367,-3.11359 7.86722,-4.4645c4.3027,-1.89732 15.51864,-5.84774 15.51864,-5.84774c0,0 10.046,3.08932 13.46286,4.61295c2.96827,1.32359 10.04997,4.94234 10.04997,4.94234l-9.2107,15.60402l-26.54892,9.88952z" data-paper-data="{&quot;index&quot;:null}" fill="#8c9ca0" stroke="none" stroke-width="0" stroke-linecap="butt"/><path d="M210.56344,219.84403l-9.09586,-15.73525l7.94431,-15.46405l6.49004,0.11769c0,0 5.24963,16.28265 5.06558,16.48331z" data-paper-data="{&quot;index&quot;:null}" fill="#3a2f41" stroke="#3a2f41" stroke-width="1.5" stroke-linecap="butt"/><path d="M209.7157,186.22228l0.17682,-7.04274l5.9499,0.14937l-0.17681,7.04274z" data-paper-data="{&quot;index&quot;:null}" fill="#3a2f41" stroke="#3a2f41" stroke-width="1.5" stroke-linecap="butt"/><path d="M214.77052,194.6446v-2.73729h7.71418v2.73729z" fill="#8c9ca0" stroke="#3a2f41" stroke-width="1.5" stroke-linecap="butt"/><path d="M237.84448,179.36864c0,0 -25.45862,43.08622 -27.40277,40.6507c-9.13638,-11.44553 -19.74475,-40.88912 -19.74475,-40.88912c0,0 4.18392,-2.5597 7.10758,-3.75559c4.31571,-1.76529 16.27828,-5.81012 16.27828,-5.81012c0,0 10.04599,3.08932 13.46285,4.61295c2.96827,1.3236 10.29881,5.19119 10.29881,5.19119z" data-paper-data="{&quot;index&quot;:null}" fill="none" stroke="#3a2f41" stroke-width="1.5" stroke-linecap="butt"/><g data-paper-data="{&quot;index&quot;:null}" fill="none" stroke="none" stroke-width="1" stroke-linecap="butt" font-family="sans-serif" font-weight="normal" font-size="12" text-anchor="start"><g/></g></g><path d="M197.7236,229.29943l-1.4026,-3.41885l-2.57891,-6.28609l17.14382,4.70185l21.17823,-4.20417l-4.34037,9.15722z" fill="#9aac9c" stroke="#3a2f41" stroke-width="0" stroke-linecap="butt"/><path d="M211.13341,220.66722l0.24884,15.42836l-2.48844,21.89831" fill="none" stroke="#3a2f41" stroke-width="1.5" stroke-linecap="round"/><g fill="#9aac9c" stroke="#3a2f41" stroke-width="1" stroke-linecap="butt"><path d="M206.78622,232.94035c1.01367,0 1.83541,0.78633 1.83541,1.75631c0,0.96998 -0.82174,1.75631 -1.83541,1.75631c-1.01367,0 -1.83541,-0.78633 -1.83541,-1.75631c0,-0.96998 0.82174,-1.75631 1.83541,-1.75631z"/><path d="M206.46998,238.7823c1.05961,0 1.91858,0.81364 1.91858,1.81734c0,1.00368 -0.85897,1.81734 -1.91858,1.81734c-1.0596,0 -1.91859,-0.81364 -1.91859,-1.81734c0,-1.00368 0.85898,-1.81734 1.91859,-1.81734z"/></g></g><g fill="none" stroke="#3a2f41" stroke-width="3" stroke-linecap="butt"><path d="M212.18303,179.28949l-8.07216,7.46368l-4.17892,-13.30002l2.10025,-3.27099c0,0 10.51969,-4.13527 11.95462,-4.04551c1.40379,0.0878 11.23971,3.88198 11.23971,3.88198l1.43278,3.43386l-6.84707,13.45844z"/></g><g stroke="none" stroke-width="0" stroke-linecap="butt"><path d="M212.33234,179.28948l-8.07216,7.46368l-4.17892,-13.30001l2.10025,-3.27099c0,0 10.51969,-4.13527 11.95462,-4.04551c1.40379,0.0878 11.2397,3.88198 11.2397,3.88198l1.43278,3.43386l-6.84707,13.45844z" fill="#8c9ca0"/><path d="M204.00012,170.82236l10.11613,-3.95944l9.10423,4.10427l-10.5468,6.36973z" fill="#3a2f41"/></g></g><path d="M204.74708,157.01395c-8.98489,-0.31787 -29.63305,11.97926 -29.63305,11.97926c0,0 -4.47803,-7.85612 -1.38056,-19.47443c-17.1327,-1.02053 -23.24147,-13.81129 -23.24147,-13.81129l20.02147,-11.44626c0,0 -7.32312,-7.02905 -3.1121,-21.86869c11.40931,3.12307 19.78871,-1.80305 36.54643,-4.68362c6.44014,-1.10704 13.41099,-4.28171 20.41263,-3.19401c9.66307,1.50115 23.40496,8.97961 30.55863,13.83191c7.76394,5.26624 13.27039,8.61728 13.27039,8.61728c0,0 -3.50069,1.69926 -8.08482,2.67686c-2.25344,0.48057 -4.28521,0.76677 -4.28521,0.76677c0,0 2.03204,0.5872 5.66838,3.45015c5.83676,4.59541 10.79855,16.40921 16.94489,22.84603c-5.26633,2.72394 -18.62605,9.53283 -24.73274,6.76673c6.99372,12.7764 2.57859,19.9955 2.57859,19.9955c0,0 -15.29153,-11.40298 -27.64772,-14.90638c-3.65298,-1.03576 -8.13971,-5.3295 -8.13971,-5.3295c0,0 -9.01186,-16.40765 -13.0613,-16.40765c-1.49065,0 -1.16257,20.24513 -2.68275,20.19135z" fill="#e1e2db" stroke="#3a2f41" stroke-width="1.5" stroke-linecap="butt"/><path d="M191.15885,138.86892l0.67422,29.66563c0,0 5.98299,6.06615 4.94427,8.31536c-1.46763,3.17795 -5.16901,4.49479 -5.16901,4.49479c0,0 6.47865,6.34215 6.74219,9.66381c0.22489,2.83452 -14.1586,8.31536 -14.1586,8.31536l4.94428,6.74219c0,0 -10.66989,-3.35412 -13.28841,-5.58472c-2.6175,-2.22972 9.46783,-9.24809 9.46783,-9.24809c0,0 -15.28385,-9.24469 -15.2823,-11.68646c0.00224,-3.52898 9.43906,-11.46172 9.43906,-11.46172l4.04532,-29.66563" data-paper-data="{&quot;index&quot;:null}" fill="#e1e2db" stroke="#3a2f41" stroke-width="1.5" stroke-linecap="round"/><g stroke-linecap="butt"><path d="M187.97014,141.36629c0,-11.37863 8.27981,-24.79172 23.2901,-25.20448c22.81874,-0.6275 31.09173,13.82585 31.09173,25.20448c0,3.66148 0.25859,8.29126 -1.44511,11.33124c-3.59082,6.4072 -12.35452,9.66724 -25.74583,9.40191c-9.86151,-0.19538 -20.10975,-2.71174 -24.41582,-6.3322c-4.42967,-3.72438 -2.77508,-8.63115 -2.77508,-14.40095z" fill="#e1e2db" stroke="none" stroke-width="0"/><path d="M188.14815,138.53976c0,-11.37862 8.27981,-21.89004 23.2901,-22.3028c22.81876,-0.62748 31.49249,13.14881 31.49249,24.52744c0,13.13246 -33.35902,8.54872 -46.96146,8.6708c-13.79006,0.12377 -8.12568,-9.50845 -9.02738,-11.57247z" fill="#8c9ca0" stroke="none" stroke-width="0"/><path d="M220.6344,116.84864c15.75706,2.98584 21.71755,14.85938 21.71755,24.51766c0,4.71282 -0.01212,9.99407 -3.25007,13.49216c-4.57976,4.94768 -13.8999,7.24352 -23.94086,7.24099c-10.5164,-0.20836 -19.62215,-2.58904 -23.87174,-6.63691c-3.83473,-3.65269 -4.81225,-10.75187 -4.62562,-15.21605c0,0 7.95059,-21.02263 20.34252,-23.59539" fill="none" stroke="#3a2f41" stroke-width="2"/></g><path d="M205.92412,129.11219c0,0 -0.67615,5.27201 -7.92328,8.40427c-6.13984,2.65368 -11.20198,0.54799 -11.20198,0.54799" fill="none" stroke="#3a2f41" stroke-width="3.5" stroke-linecap="round"/><path d="M208.82835,145.89381c0,0 -4.2558,-7.94663 -4.2558,-14.16986c0,-6.22323 1.00326,-7.78616 1.64428,-7.78616c0.64101,0 1.64428,2.04655 1.64428,8.26978c0,6.22326 0.96723,13.68626 0.96723,13.68626z" fill="#3a2f41" stroke="none" stroke-width="0" stroke-linecap="butt"/><path d="M192.96196,112.37595c7.23496,-7.11637 15.708,-3.72662 18.282,-1.10973c2.57401,2.6169 1.92805,12.01045 -5.30693,19.12682c-3.74662,3.68521 -8.08378,5.23765 -12.04249,6.67417c-1.08619,0.39415 -3.26034,0.90551 -5.11729,1.1707c-0.91085,0.13007 -1.74538,0.02969 -2.33779,0.16014c-0.22274,1.63175 0.6487,-3.8 -0.04724,-4.50754c-2.574,-2.61692 -0.66526,-14.39821 6.56972,-21.51458z" data-paper-data="{&quot;index&quot;:null}" fill="#e1e2db" stroke="#3a2f41" stroke-width="1" stroke-linecap="butt"/><g><path d="M228.21113,136.63917c6.01377,0 10.88889,4.32792 10.88889,9.66667c0,5.33876 -4.87512,9.66667 -10.88889,9.66667c-6.01377,0 -10.88889,-4.32792 -10.88889,-9.66667c0,-5.33876 4.87512,-9.66667 10.88889,-9.66667z" data-paper-data="{&quot;index&quot;:null}" fill="#e1e2db" stroke="#3a2f41" stroke-width="1" stroke-linecap="butt"/><path d="M220.24559,147.97943l-0.02074,-3.31265" data-paper-data="{&quot;index&quot;:null}" fill="none" stroke="#3a2f41" stroke-width="1" stroke-linecap="round"/><path d="M224.67479,156.85978c0.12127,-0.48506 0.60634,-0.3638 0.60634,-0.3638l0.41003,0.11478c2.22754,1.16046 7.11742,0.63334 8.88438,-1.13711c0,0 0.35354,-0.35356 0.7071,0c0.35356,0.35355 0,0.70711 0,0.70711c-2.10281,2.099 -7.36016,2.62391 -10.0387,1.32443l-0.20535,-0.03906c0,0 -0.48507,-0.12127 -0.3638,-0.60634z" data-paper-data="{&quot;index&quot;:null}" fill="#3a2f41" stroke="none" stroke-width="0.5" stroke-linecap="butt"/><path d="M217.82111,152.16596l0.15749,0.18241c0.83629,1.46517 2.67807,3.42676 4.36665,3.75997c0,0 0.48809,0.10846 0.37963,0.59656c-0.10846,0.48809 -0.59656,0.37963 -0.59656,0.37963c-1.99291,-0.47865 -4.01537,-2.48737 -5.01797,-4.24003l0.00365,0.02856c0,0 -0.35356,-0.35354 0,-0.7071c0.35355,-0.35356 0.70711,0 0.70711,0z" data-paper-data="{&quot;index&quot;:null}" fill="#3a2f41" stroke="none" stroke-width="0.5" stroke-linecap="butt"/><path d="M215.69563,150.24367l-0.13682,-0.3467c-0.58432,-1.17989 -0.69272,-2.55558 -0.34124,-3.82251c0,0 0.13736,-0.48076 0.61812,-0.3434c0.48076,0.13736 0.3434,0.61812 0.3434,0.61812c-0.29859,1.00739 -0.2001,2.16282 0.27414,3.10057l0.17087,0.42253c0,0 0.1857,0.46423 -0.27854,0.64993c-0.46423,0.1857 -0.64993,-0.27854 -0.64993,-0.27854z" data-paper-data="{&quot;index&quot;:null}" fill="#3a2f41" stroke="none" stroke-width="0.5" stroke-linecap="butt"/></g><path d="M221.31977,131.70978c0,6.22324 -4.2558,14.16986 -4.2558,14.16986c0,0 0.96723,-7.46302 0.96723,-13.68626c0,-6.22325 1.00326,-8.26978 1.64428,-8.26978c0.64101,0 1.64428,1.56293 1.64428,7.78616z" data-paper-data="{&quot;index&quot;:null}" fill="#3a2f41" stroke="none" stroke-width="0" stroke-linecap="butt"/><path d="M210.94205,133.96276c0,-6.22325 1.00326,-9.72062 1.64428,-9.72062c0.64103,0 2.1279,2.04655 2.1279,8.26978c0,6.22326 -2.1279,14.2666 -2.1279,14.2666c0,0 -1.64428,-6.59251 -1.64428,-12.81574z" fill="#3a2f41" stroke="none" stroke-width="0" stroke-linecap="butt"/><path d="M206.14997,129.67679c0,0 -0.67615,5.27201 -7.92328,8.40427c-6.13984,2.65368 -11.20198,0.54799 -11.20198,0.54799" fill="none" stroke="#3a2f41" stroke-width="3.5" stroke-linecap="round"/><path d="M207.49659,117.48073c2.22255,-5.15525 15.90235,-2.89933 26.85726,1.82357c10.95491,4.72293 18.0339,12.73076 15.81135,17.88601c-1.08186,2.50942 -10.41705,13.4615 -9.46064,9.15402c0.19687,-0.88664 0.69239,-3.09784 0.31585,-4.80495c-0.09244,-0.41913 0.49371,-0.3629 1.09914,-0.34024c0.71302,0.02669 1.42369,-0.23565 0.65909,-0.22536c-1.38165,-0.0559 -7.7877,0.72532 -17.51591,-2.18919c-10.95492,-4.72291 -19.9887,-16.1486 -17.76615,-21.30385z" fill="#e1e2db" stroke="#3a2f41" stroke-width="2.5" stroke-linecap="butt"/><path d="M219.48041,128.26661c0,10.46293 -14.94447,14.06488 -14.94447,14.06488c0,0 2.27456,-6.70381 1.01957,-14.04971c-0.1362,-0.79728 -1.97332,-0.47526 -1.97177,-0.60199c0.09755,-7.95676 4.02093,-13.8235 7.88201,-13.8235c3.92255,0 8.01466,6.27731 8.01466,14.41033z" fill="#e1e2db" stroke="#3a2f41" stroke-width="2" stroke-linecap="butt"/><path d="M243.93588,143.26632c0.93003,-1.13463 1.49579,-2.41846 2.51119,-3.40244c-0.13146,-0.23875 -0.20613,-0.51232 -0.20613,-0.80309c0,-0.33798 0.10089,-0.65272 0.27458,-0.91655c0.06657,-1.18177 1.85302,-2.90259 1.78337,-5.026c-0.04297,-1.3103 -6.15336,-2.12716 -7.32913,-2.93528c-0.26153,-0.17975 2.41346,1.17099 2.27765,0.73098c-0.07831,-0.2537 1.65738,-3.30978 1.6123,-3.52258c-0.19338,-0.04853 -1.65697,3.46386 -1.81768,3.35656c-2.31453,-1.05725 -4.48701,-4.80553 -6.99984,-5.95122c-2.30651,-1.05164 -5.64755,-0.91464 -8.17106,-1.47907c-2.47607,-0.55381 -4.63744,-4.91579 -6.63271,-6.58327c-0.08474,-0.07083 -0.16833,-0.15361 -0.24896,-0.24593c-0.31616,-0.01763 -0.55359,-0.04221 -0.58328,-0.04403c-1.00921,-0.06195 2.07296,16.43517 0.57366,16.27824c-0.40548,-0.04245 -4.38654,-0.09529 -5.04724,-1.83199c-0.57663,-1.51572 -4.30465,-3.63464 -8.28695,-2.69817c-1.87729,0.44146 -1.35976,1.72839 -5.69821,4.11896c-4.44637,2.45004 3.35109,-5.95203 -4.81083,-12.08604c-3.37629,-2.5374 -2.92436,-1.58725 -6.56442,3.53306c-1.56671,2.20384 -2.72572,6.43117 -4.16626,11.50608c-0.78687,2.77212 -0.37963,7.70449 -0.66208,8.79097c-0.2404,0.92469 -0.60353,-2.07749 -1.24264,-1.88644c-1.43166,0.42796 -1.0073,-5.52835 -1.63654,-9.18843c-0.98451,-5.72653 -0.28899,-12.41036 -0.40569,-13.15339c-0.20467,-1.30315 1.69833,-6.11059 7.10773,-10.43118c3.88491,-3.10296 9.2886,-4.1837 10.0269,-4.38534c1.08112,-0.29526 8.80611,-1.29415 12.44394,0.78173c2.86793,1.63654 1.89744,6.43573 2.05159,6.39427c0.11926,-0.03208 5.15628,0.62287 7.52167,0.94743c0.11246,-0.02297 0.22899,-0.03503 0.34836,-0.03503c0.29353,0 0.56977,0.07295 0.81112,0.20148c0.0259,0.00452 0.04072,0.00764 0.04356,0.00921c0.06624,0.03673 0.12491,0.08095 0.17754,0.13119c0.10924,0.10428 0.19241,0.23445 0.2629,0.37719c0.17851,0.22497 1.11698,-0.56327 1.40163,-0.39351c0.93898,0.55999 1.60763,1.71511 2.67171,1.97748c5.52431,1.36221 10.99304,2.34662 15.51965,5.97535c0.94667,0.75888 2.72917,1.90075 3.62165,3.16674c0.32107,0.30525 0.52129,0.73322 0.52303,1.20735c1.35474,0.61037 2.92541,1.91828 3.47498,2.7956c0.88436,1.41177 2.29247,4.65713 1.90187,7.39552c-0.26159,1.83392 -1.94748,3.44049 -2.84294,4.11667c0.08618,0.20135 0.13382,0.42263 0.13382,0.6549c0,0.14593 -0.01881,0.28751 -0.05416,0.42253c0.12231,0.44223 -1.70698,2.24119 -2.01329,2.75696c-1.2605,2.12241 -4.88676,9.40122 -7.37442,5.72171c-0.34316,-0.50758 0.71994,-2.18332 0.79137,-2.8569c0.212,-1.99921 1.95241,-2.30361 2.9267,-3.49225z" fill="#e1e2db" stroke="none" stroke-width="0.5" stroke-linecap="butt"/><path d="M205.92412,129.11219c0,0 -0.67615,5.27201 -7.92328,8.40427c-6.13984,2.65368 -11.20198,0.54799 -11.20198,0.54799" fill="none" stroke="#e1e2db" stroke-width="2" stroke-linecap="round"/><g stroke="#3a2f41" stroke-width="1.5"><path d="M248.93909,140.79596l0.67422,29.66563c0,0 5.983,6.06615 4.94428,8.31536c-1.46763,3.17795 -5.16901,4.49479 -5.16901,4.49479c0,0 6.47865,6.34215 6.74219,9.66381c0.22489,2.83452 -14.1586,8.31536 -14.1586,8.31536l4.94428,6.74219c0,0 -10.66989,-3.35412 -13.28841,-5.58472c-2.6175,-2.22972 9.46783,-9.24809 9.46783,-9.24809c0,0 -15.28385,-9.24469 -15.2823,-11.68646c0.00224,-3.52898 9.43906,-11.46172 9.43906,-11.46172l4.04533,-29.66563" data-paper-data="{&quot;index&quot;:null}" fill="#e1e2db" stroke-linecap="round"/><path d="M239.2432,156.24011l0.19263,-1.319l9.50327,1.54107v1.03006z" fill="#3a2f41" stroke-linecap="butt"/><path d="M240.39899,152.1948v-1.03006l8.37044,-1.54107l0.16967,1.31901z" data-paper-data="{&quot;index&quot;:null}" fill="#3a2f41" stroke-linecap="butt"/></g><path d="M194.4178,145.2765c3.97734,0 7.20162,3.06889 7.20162,6.85456c0,3.78566 -3.22427,6.85456 -7.20162,6.85456c-3.97734,0 -7.20162,-3.06889 -7.20162,-6.85456c0,-3.78566 3.22427,-6.85456 7.20162,-6.85456z" fill-opacity="0.41935" fill="#e1e2db" stroke="#3a2f41" stroke-width="1.5" stroke-linecap="butt"/><path d="M199.15924,160.38431c0,0 -6.27674,16.5153 -5.16901,-1.34844" fill="none" stroke="#3a2f41" stroke-width="1.5" stroke-linecap="round"/><path d="M229.92658,119.22848c0,0 -6.23943,-8.38274 -6.00613,-8.79225c3.31747,-5.82297 6.10746,-13.00845 8.37646,-20.14103c0.93184,2.95047 7.41695,11.56667 10.80084,12.263c-0.6288,4.7866 -1.676,9.63927 -3.2913,14.36916c-0.3058,0.89545 -9.87987,2.30113 -9.87987,2.30113z" data-paper-data="{&quot;index&quot;:null}" fill="#3a2f41" stroke="#3a2f41" stroke-width="1.5" stroke-linecap="butt"/><path d="M200.1202,141.51604c-0.34574,0.22282 -25.17659,-2.36679 -24.72136,-3.14636c5.63792,-9.65478 8.09062,-31.46355 8.09062,-31.46355h26.74401c0,0 -0.6708,28.52398 -10.11328,34.6099z" fill="#e1e2db" stroke="#3a2f41" stroke-width="1.5" stroke-linecap="butt"/><path d="M199.0274,117.88006c0,0 -9.57407,-1.40567 -9.87987,-2.30113c-9.20092,-26.94194 0.03025,-57.86814 0.03025,-57.86814c0,0 5.21416,32.6984 15.85576,51.37701c0.2333,0.40948 -6.00613,8.79225 -6.00613,8.79225z" fill="#3a2f41" stroke="#3a2f41" stroke-width="1.5" stroke-linecap="butt"/><path d="M198.09752,137.92018l-16.18126,-1.34844l10.33802,-9.88854z" fill="none" stroke="#3a2f41" stroke-width="2" stroke-linecap="round"/><path d="M198.09753,132.07696l-11.9112,-2.02266" fill="none" stroke="#3a2f41" stroke-width="1.5" stroke-linecap="round"/><path d="M198.32227,133.87487l-13.70911,-2.2474" fill="none" stroke="#3a2f41" stroke-width="1.5" stroke-linecap="round"/><path d="M217.01316,131.60437c0.15898,-0.91723 13.61988,4.47617 17.17871,5.09303c2.32031,0.40218 8.20483,1.75001 9.25724,2.42088c0.56174,0.35809 1.61387,0.71406 1.55853,1.03326c-0.04267,0.24609 -0.025,0.69563 -0.92492,0.76986c-2.45429,0.20246 -8.34621,-0.35433 -10.95022,-0.8057c-3.55884,-0.61685 -8.61222,-0.75466 -15.14232,-6.55719z" fill="#e1e2db" stroke="none" stroke-width="0" stroke-linecap="butt"/></g></g></svg>