<svg version="1.1" xmlns="http://www.w3.org/2000/svg" xmlns:xlink="http://www.w3.org/1999/xlink" width="385.60044" height="450.20105" viewBox="0,0,385.60044,450.20105"><g transform="translate(-26.20881,45.10052)"><g data-paper-data="{&quot;isPaintingLayer&quot;:true}" fill-rule="nonzero" stroke-linejoin="miter" stroke-miterlimit="10" stroke-dasharray="" stroke-dashoffset="0" style="mix-blend-mode: normal"><path d="M308.76189,184.53951c-15.19108,-10.92601 -24.85664,-64.69638 -24.85664,-64.69638l2.48922,-14.19896l5.99366,-7.99901l11.85677,11.03084c0,0 7.18664,34.3603 14.26718,43.95778c4.33907,5.88147 6.10918,-13.4345 13.40085,-26.1936c5.63642,-9.86269 12.46033,-4.23363 12.46033,-4.23363l18.80275,19.06139c0,0 2.29241,9.60924 -3.59107,18.67212c-10.77786,16.60216 -34.85757,36.08243 -50.82306,24.59944z" data-paper-data="{&quot;index&quot;:null}" fill="#e1e2db" stroke="#3a2f41" stroke-width="2" stroke-linecap="butt"/><g data-paper-data="{&quot;index&quot;:null}" stroke-linecap="round"><path d="M361.51559,137.95878c0,0 1.52414,0.30769 2.27364,0.37883c0.63807,0.06056 1.94311,0.02138 1.94311,0.02138c0,0 -1.2577,3.31778 -3.48053,4.194c-5.55667,2.19039 -18.04698,-1.08179 -20.81715,-6.65897c-2.57896,-5.19223 -2.51809,-9.25384 -1.41826,-12.18776c0.77508,-2.06758 2.06613,-3.57511 3.3129,-4.52363c1.94675,-1.48105 3.98135,-0.85115 3.98135,-0.85115c0,0 -0.19697,1.0345 -0.19765,1.54496c-0.00072,0.53521 0.07115,1.52218 0.07115,1.52218c0,0 0.22753,-4.1022 3.98727,-8.42625c3.1275,-3.59691 7.57601,-2.98744 12.41467,-11.50537c2.09442,-3.68701 3.2486,-8.23771 3.62292,-10.54814c0.61938,-3.82308 7.18286,-5.14027 6.92711,2.00897c-0.25576,7.14924 -4.88069,11.88758 -6.74252,14.34888c-1.13538,1.50093 -0.21919,4.27541 -0.21919,4.27541c0,0 -0.85029,0.39036 -1.80213,0.72723c-0.8259,0.29229 -1.73428,0.52015 -2.15512,0.71707c-1.02193,0.4782 -2.25948,1.37958 -2.25948,1.37958c0,0 1.27361,-0.46358 3.20659,-1.12336c1.92502,-0.65705 4.50379,-1.50608 7.22661,-3.54705c4.30701,-3.22845 7.99414,-6.89606 11.62203,-10.7336c3.16337,-3.34619 7.2511,-6.12 8.19029,-6.55175c8.66259,-3.9824 9.56362,1.49475 9.56362,1.49475c0,0 -5.63744,0.28387 -14.59925,6.09474c-1.49729,0.97086 -3.73359,2.42854 -5.66261,4.39929c-1.8508,1.89083 -3.38765,4.27922 -5.16066,5.99105c-3.31585,3.20144 -6.1243,5.00626 -6.1243,5.00626c0,0 3.15707,-1.52069 6.68718,-4.49919c2.12447,-1.79251 3.4787,-3.90793 5.85743,-5.98681c3.5152,-3.0721 8.0761,-5.90845 10.74097,-7.12928c2.47602,-1.13432 10.62143,-3.43823 14.89762,-1.76824c1.84691,0.72128 3.28579,2.08595 2.69852,4.70429c-0.16037,0.715 -1.29051,1.15151 -2.04294,1.49703c-1.94815,0.8946 -4.99144,0.90103 -9.08952,1.48272c-3.91149,0.55522 -8.50028,2.245 -11.13361,3.57148c-4.13099,2.08087 -7.97648,5.17435 -10.87733,7.85101c-3.21276,2.96447 -5.26685,5.41764 -5.26685,5.41764c0,0 6.15688,-6.37764 14.8435,-11.00681c4.23962,-2.25934 9.01502,-3.90138 13.01649,-4.4316c4.94637,-0.65543 10.5541,1.01749 8.59089,5.65187c-1.31514,3.10456 -15.79748,3.91271 -23.17069,8.35283c-9.34462,5.62731 -10.36695,13.79551 -14.74135,16.34618c-3.47102,2.02393 -8.71467,2.49936 -8.71467,2.49936z" fill="none" stroke="#3a2f41" stroke-width="3.5"/><path d="M361.51559,137.95878c0,0 1.52414,0.30769 2.27364,0.37883c0.63807,0.06056 1.94311,0.02138 1.94311,0.02138c0,0 -1.2577,3.31778 -3.48053,4.194c-5.55667,2.19039 -18.04698,-1.08179 -20.81715,-6.65897c-2.57896,-5.19223 -2.51809,-9.25384 -1.41826,-12.18776c0.77508,-2.06758 2.06613,-3.57511 3.3129,-4.52363c1.94675,-1.48105 3.98135,-0.85115 3.98135,-0.85115c0,0 -0.19697,1.0345 -0.19765,1.54496c-0.00072,0.53521 0.07115,1.52218 0.07115,1.52218c0,0 0.22753,-4.1022 3.98727,-8.42625c3.1275,-3.59691 7.57601,-2.98744 12.41467,-11.50537c2.09442,-3.68701 3.2486,-8.23771 3.62292,-10.54814c0.61938,-3.82308 7.18286,-5.14027 6.92711,2.00897c-0.25576,7.14924 -4.88069,11.88758 -6.74252,14.34888c-1.13538,1.50093 -0.21919,4.27541 -0.21919,4.27541c0,0 -0.85029,0.39036 -1.80213,0.72723c-0.8259,0.29229 -1.73428,0.52015 -2.15512,0.71707c-1.02193,0.4782 -2.25948,1.37958 -2.25948,1.37958c0,0 1.27361,-0.46358 3.20659,-1.12336c1.92502,-0.65705 4.50379,-1.50608 7.22661,-3.54705c4.30701,-3.22845 7.99414,-6.89606 11.62203,-10.7336c3.16337,-3.34619 7.2511,-6.12 8.19029,-6.55175c8.66259,-3.9824 9.56362,1.49475 9.56362,1.49475c0,0 -5.63744,0.28387 -14.59925,6.09474c-1.49729,0.97086 -3.73359,2.42854 -5.66261,4.39929c-1.8508,1.89083 -3.38765,4.27922 -5.16066,5.99105c-3.31585,3.20144 -6.1243,5.00626 -6.1243,5.00626c0,0 3.15707,-1.52069 6.68718,-4.49919c2.12447,-1.79251 3.4787,-3.90793 5.85743,-5.98681c3.5152,-3.0721 8.0761,-5.90845 10.74097,-7.12928c2.47602,-1.13432 10.62143,-3.43823 14.89762,-1.76824c1.84691,0.72128 3.28579,2.08595 2.69852,4.70429c-0.16037,0.715 -1.29051,1.15151 -2.04294,1.49703c-1.94815,0.8946 -4.99144,0.90103 -9.08952,1.48272c-3.91149,0.55522 -8.50028,2.245 -11.13361,3.57148c-4.13099,2.08087 -7.97648,5.17435 -10.87733,7.85101c-3.21276,2.96447 -5.26685,5.41764 -5.26685,5.41764c0,0 6.15688,-6.37764 14.8435,-11.00681c4.23962,-2.25934 9.01502,-3.90138 13.01649,-4.4316c4.94637,-0.65543 10.5541,1.01749 8.59089,5.65187c-1.31514,3.10456 -15.79748,3.91271 -23.17069,8.35283c-9.34462,5.62731 -10.36695,13.79551 -14.74135,16.34618c-3.47102,2.02393 -8.71467,2.49936 -8.71467,2.49936z" fill="#e1e2db" stroke="none" stroke-width="0"/><path d="M394.27493,95.70719c0,0 1.00846,-0.76432 2.30302,-1.43422c0.94135,-0.48713 2.19535,-0.86671 2.536,-1.147c0.83249,-0.68499 0.08784,-1.47263 0.08784,-1.47263c1.33611,0.87032 1.565,2.26163 1.565,2.26163c0,0 -2.37474,0.11957 -6.49185,1.79223z" fill="#8c9ca0" stroke="none" stroke-width="0"/><path d="M360.95763,114.37597c0,0 1.68976,-2.20328 2.13093,-3.42093c0.47622,-1.31435 -0.44889,-2.52838 1.24076,-4.24629c2.74957,-2.79554 5.57709,-6.4141 6.4502,-8.65892c3.63928,-9.35694 -0.79649,-10.13295 -0.79649,-10.13295c2.00079,-0.52252 4.30664,0.71743 4.15304,5.01093c-0.25576,7.14924 -4.88067,11.88757 -6.7425,14.34887c-1.13538,1.50093 -0.21919,4.27541 -0.21919,4.27541c0,0 -0.85029,0.39036 -1.80213,0.72724c-0.8259,0.29229 -1.73428,0.52015 -2.15512,0.71707c-1.02193,0.4782 -2.2595,1.37957 -2.2595,1.37957z" fill="#8c9ca0" stroke="none" stroke-width="0"/><path d="M339.56095,130.52094c0,0 2.0295,8.24243 8.77711,8.9428c5.08537,0.52783 3.06229,-4.91329 3.06229,-4.91329c0,0 9.29543,2.01918 16.11293,-1.84785c3.41807,-1.93881 4.04894,-6.11449 7.45623,-9.3739c4.30347,-4.11666 9.71772,-7.0353 14.30909,-8.93494c6.42136,-2.6568 14.45991,-2.5794 16.94554,-3.86601c2.44594,-1.26605 1.39507,-3.73715 1.39507,-3.73715c0.93719,0.9366 1.25201,2.24908 0.52308,3.96982c-1.31515,3.10456 -15.79747,3.9127 -23.17069,8.35283c-9.34463,5.62731 -10.36694,13.7955 -14.74135,16.34618c-3.47102,2.02393 -8.71466,2.49936 -8.71466,2.49936c0,0 1.52414,0.30769 2.27364,0.37882c0.63808,0.06055 1.9431,0.02138 1.9431,0.02138c0,0 -1.2577,3.31778 -3.48052,4.194c-5.55667,2.19039 -18.04698,-1.08179 -20.81715,-6.65897c-0.96882,-1.95053 -1.56509,-3.7415 -1.8737,-5.37307z" fill="#8c9ca0" stroke="none" stroke-width="0"/><path d="M391.12567,105.84694c0,0 1.43282,-1.26656 4.80523,-2.43635c2.67998,-0.9296 7.21573,-1.72615 8.71886,-2.29206c5.5506,-2.08975 4.63397,-3.92015 4.63397,-3.92015c0.78111,0.80262 1.17589,1.93278 0.81793,3.52869c-0.16037,0.71501 -1.2905,1.15152 -2.04293,1.49704c-1.94815,0.8946 -4.99145,0.90103 -9.08952,1.48272c-2.57111,0.36495 -5.43487,1.22014 -7.84353,2.14011z" fill="#8c9ca0" stroke="none" stroke-width="0"/><path d="M365.82794,121.16842c0,0 -5.16366,0.983 -6.2197,1.18403c-0.36086,0.0687 -0.72625,0.13826 -0.72625,0.13826c0,0 0.79413,-0.76841 2.08989,-1.42328c0.92971,-0.46987 2.19639,-0.95758 2.71266,-1.33063c1.09467,-0.79096 2.2404,-2.33503 2.2404,-2.33503c0,0 -0.21032,1.30223 0.61875,2.14378c0.68196,0.69222 2.53717,1.32864 2.53717,1.32864l-3.25293,0.29422z" fill="#8c9ca0" stroke="none" stroke-width="0"/><path d="M356.12508,126.01336c0,0 0.1877,-2.28595 3.32554,-3.74289c3.11933,-1.44834 6.28562,-1.05311 6.28562,-1.05311c0,0 -3.78164,0.4825 -6.2834,1.98631c-1.88094,1.13063 -3.32776,2.80968 -3.32776,2.80968z" fill="#3a2f41" stroke="none" stroke-width="0"/><path d="M354.39083,136.53092c0,0 -3.52242,-0.91781 -5.6506,-3.05608c-2.12818,-2.13827 -3.20551,-6.57864 -3.20551,-6.57864c0,0 0.87395,2.93438 3.57547,5.73404c2.3577,2.44336 5.28064,3.90068 5.28064,3.90068z" fill="#3a2f41" stroke="none" stroke-width="0"/></g><g><path d="M237.17393,98.65221l-1.66526,-57.97609l69.47135,-1.99544l1.66526,57.97609c0,0 -14.37877,2.74731 -33.40211,3.29371c-21.44456,0.61596 -36.06924,-1.29828 -36.06924,-1.29828z" fill="#8c9ca0" stroke="#3a2f41" stroke-width="2" stroke-linecap="butt"/><path d="M298.16816,9.33263l27.5641,15.5c6.00381,30.80065 26.46154,55 26.46154,55l-20.39744,15l-7.16667,-15.5l1.10256,18l-30.03846,2l-4.39744,-68.5z" data-paper-data="{&quot;index&quot;:null}" fill="#e1e2db" stroke="#3a2f41" stroke-width="2" stroke-linecap="round"/><path d="M244.59124,31.83263l1.10256,69h-13.78205l-3.30769,-6.5l-2.75641,6.5l-18.19231,-2.5l1.10256,-18l-7.16667,15.5l-20.39744,-15c0,0 20.45773,-24.19936 26.46154,-55l27.5641,-15.5z" fill="#e1e2db" stroke="#3a2f41" stroke-width="2" stroke-linecap="round"/><path d="M244.65018,98.4993l-0.5,-26.66667l2.33333,0.16667l0.33333,26.66667z" fill="#546f75" stroke="none" stroke-width="0" stroke-linecap="butt"/><path d="M294.22908,97.47805l-1.41774,-26.64416l2.2296,-0.47754l1.52405,26.83521z" data-paper-data="{&quot;index&quot;:null}" fill="#546f75" stroke="none" stroke-width="0" stroke-linecap="butt"/></g><path d="M281.06432,-12.13117c-14.36861,-4.4899 -20.51781,-9.13254 -20.51781,-9.13254c0,0 6.79017,-16.8131 25.54409,-22.88544c1.42557,-0.46158 7.91736,7.91405 10.43394,17.63278c2.31445,8.93813 0.96261,17.22581 0.96261,17.22581c0,0 -9.10237,-0.55311 -16.42282,-2.84062z" data-paper-data="{&quot;index&quot;:null}" fill="#b7c3c6" stroke="#3a2f41" stroke-width="2" stroke-linecap="butt"/><path d="M243.83999,-7.06315c-6.65479,3.81255 -15.42363,6.31585 -15.42363,6.31585c0,0 -3.10751,-7.80105 -2.77533,-17.02799c0.3612,-10.03278 4.89374,-19.61144 6.38531,-19.46818c19.62222,1.88456 29.87884,16.83743 29.87884,16.83743c0,0 -5.00315,5.85964 -18.06519,13.34291z" data-paper-data="{&quot;index&quot;:null}" fill="#e1e2db" stroke="#3a2f41" stroke-width="2" stroke-linecap="butt"/><g data-paper-data="{&quot;index&quot;:null}" stroke-linecap="butt"><path d="M307.23305,69.93391c-7.01309,5.76634 -20.06174,9.14576 -35.74462,9.02282c-31.40065,-0.24613 -43.77998,-12.62659 -43.24859,-31.35963c0.53137,-18.73304 15.35531,-46.15514 51.59376,-44.09329c23.83787,1.35628 36.37128,23.81201 35.8399,42.54507c-0.26945,9.49907 -1.22607,17.95316 -8.44044,23.88503z" fill="#e1e2db" stroke="none" stroke-width="0"/><path d="M265.02485,4.5986c43.24155,-4.48322 51.11545,24.99453 50.63662,41.87514h-0.00001c-0.25205,8.88585 -1.94854,17.2037 -8.21398,23.04438c-6.94326,6.47258 -19.24677,9.99456 -35.97108,9.86346c-31.40065,-0.24613 -44.02998,-12.62658 -43.49859,-31.35962c0.45104,-15.90077 11.72906,-39.17988 36.91253,-43.38518" fill="none" stroke="#3a2f41" stroke-width="2"/></g><g><path d="M195.20948,28.38301c0,0 5.82149,-4.93937 10.38042,-11.59946c4.62872,-6.76205 9.37153,-14.95428 15.06274,-20.51018c7.06291,-6.89495 16.53905,-15.12592 38.73576,-17.79427c12.69644,-1.52629 31.13717,1.20261 44.08053,7.53233c13.22001,6.46502 21.41329,17.55011 28.40713,28.50688c3.8572,6.04281 12.1768,9.23721 12.1768,9.23721l-8.3428,10.03973l-11.03777,-12.42243l11.06238,22.86791l-17.52414,-0.92299l-6.16911,-8.6822l2.37563,8.84178c0,0 -18.37547,-0.61228 -38.19076,-0.0768c-17.99864,0.48639 -35.41019,2.20757 -35.41019,2.20757l-0.40002,-19.81798l-5.39046,20.20527c0,0 -5.48581,0.17671 -12.065,1.55387c-7.35523,1.53961 -14.46982,3.62248 -14.46982,3.62248c0,0 2.57045,-9.36515 3.58227,-13.60091c0.88706,-3.71346 2.4971,-9.45352 2.4971,-9.45352l-8.12392,13.79008z" fill="#e1e2db" stroke="none" stroke-width="0" stroke-linecap="round"/><path d="M327.76971,26.19858l-11.18012,-17.35876" fill="none" stroke="#8c9ca0" stroke-width="2" stroke-linecap="round"/><path d="M213.92526,30.18451l5.1796,-12.69649" fill="none" stroke="#8c9ca0" stroke-width="2" stroke-linecap="round"/><path d="M195.20948,28.38301c0,0 5.82149,-4.93937 10.38042,-11.59946c4.62872,-6.76204 9.37153,-14.95427 15.06274,-20.51017c7.06291,-6.89495 16.53905,-15.12592 38.73576,-17.79427c12.69644,-1.52629 31.13717,1.20261 44.08053,7.53233c13.22002,6.46502 21.4133,17.55011 28.40714,28.50688c3.85719,6.0428 12.17679,9.23721 12.17679,9.23721l-8.3428,10.03973c0,0 -7.71875,-8.49933 -9.62852,-10.64868c-0.8734,-0.98296 -1.40925,-1.77376 -1.40925,-1.77376l11.06239,22.86791l-17.52414,-0.92299l-6.16911,-8.6822l2.37563,8.84178c0,0 -18.37546,-0.61228 -38.19076,-0.0768c-17.99864,0.48639 -35.41019,2.20757 -35.41019,2.20757l-0.40002,-19.81798l-5.39046,20.20527c0,0 -5.48581,0.17671 -12.065,1.55387c-7.35523,1.53961 -14.46981,3.62248 -14.46981,3.62248c0,0 3.5567,-14.57468 4.55585,-18.34797c0.48983,-1.84983 1.09494,-2.99218 1.09494,-2.99218l-7.69534,12.0758z" fill="none" stroke="#3a2f41" stroke-width="2" stroke-linecap="round"/><path d="M209.78233,49.76222c0,0 3.22657,-13.28491 4.806,-19.19471c1.3744,-5.14261 4.14127,-14.28359 4.14127,-14.28359c0,0 -3.90768,10.44041 -5.7512,13.84657c-1.493,2.75853 -6.8786,10.07617 -6.8786,10.07617l19.25396,-40.44444l-2.42857,30.28572z" fill="#e1e2db" stroke="none" stroke-width="0" stroke-linecap="butt"/><path d="M312.50435,11.63197l-0.125,-10.5c0,0 7.95906,6.1881 11.69601,11.25696c3.0622,4.15361 9.10722,16.96086 9.10722,16.96086c0,0 -6.61741,-6.78896 -8.64185,-9.39908c-2.35971,-3.0424 -6.04034,-8.00801 -6.04034,-8.00801l5.37896,10.18928l3.125,6.25z" fill="#e1e2db" stroke="none" stroke-width="0" stroke-linecap="butt"/></g><path d="" fill="#7c7984" stroke="none" stroke-width="0.5" stroke-linecap="butt"/><path d="" fill="#626171" stroke="none" stroke-width="0.5" stroke-linecap="butt"/><path d="" data-paper-data="{&quot;index&quot;:null}" fill="#e1e2db" stroke="#3a2f41" stroke-width="1" stroke-linecap="butt"/><g data-paper-data="{&quot;index&quot;:null}"><g stroke-linecap="butt"><path d="M304.73992,343.7534l-17.08988,-90.9103l24.77747,-6.58928l28.33988,93.97981z" fill="#e1e2db" stroke="none" stroke-width="0"/><path d="M290.09487,270.47109l-3.72186,-17.5382l26.52748,-6.84507l4.31531,18.07417z" fill="#8c9ca0" stroke="none" stroke-width="0"/><path d="M304.71287,344.61062l-18.08988,-91.93348l26.27748,-6.58927l26.83988,92.95663z" fill="none" stroke="#3a2f41" stroke-width="2.5"/></g><path d="M311.45216,383.29376l-9.75,-52.69288l34.25,-4.34845l26.25,76.22564z" fill="#3a2f41" stroke="#3a2f41" stroke-width="2.5" stroke-linecap="butt"/><path d="M333.20216,318.57872l-31.5,4.09265" fill="none" stroke="#3a2f41" stroke-width="2.5" stroke-linecap="round"/></g><g><g stroke-linecap="butt"><path d="M205.80779,340.74521l28.33988,-93.9798l24.77747,6.58928l-17.08988,90.91031z" fill="#e1e2db" stroke="none" stroke-width="0"/><path d="M229.35938,264.6736l4.31531,-18.07417l26.52748,6.84508l-3.72186,17.5382z" fill="#8c9ca0" stroke="none" stroke-width="0"/><path d="M206.83483,339.55608l26.83988,-92.95663l26.27748,6.58927l-18.08988,91.93349z" fill="none" stroke="#3a2f41" stroke-width="2.5"/></g><path d="M184.37301,402.98966l26.25,-76.22563l34.25,4.34844l-9.75,52.69289z" fill="#3a2f41" stroke="#3a2f41" stroke-width="2.5" stroke-linecap="butt"/><path d="M244.87301,323.18293l-31.5,-4.09265" fill="none" stroke="#3a2f41" stroke-width="2.5" stroke-linecap="round"/></g><g stroke="#3a2f41" stroke-width="2"><g data-paper-data="{&quot;index&quot;:null}"><path d="M280.80771,254.54381l-7.71623,-68.6579l31.51412,-3.91764l14.3246,67.0351c0,0 -5.14909,6.25656 -17.04221,7.49354c-13.02542,1.35474 -21.08027,-1.9531 -21.08027,-1.9531z" data-paper-data="{&quot;index&quot;:null}" fill="#e1e2db" stroke-linecap="butt"/><path d="M309.45153,211.00111l-12.32517,-1.63455l-2.97504,-22.33889" fill="none" stroke-linecap="round"/><path d="M308.60152,206.6423l-8.60012,-1.0897l-2.37502,-16.34553" fill="none" stroke-linecap="round"/></g><path d="M316.72301,237.78359c0,0 -2.86328,6.34413 -16.35599,9.99326c-11.47652,3.10384 -20.14401,-3.34269 -20.14401,-3.34269" data-paper-data="{&quot;index&quot;:null}" fill="none" stroke-linecap="round"/></g><g data-paper-data="{&quot;index&quot;:null}" stroke="#3a2f41" stroke-width="2"><path d="M226.85295,247.43155l17.43183,-65.30499l31.47675,7.24662l-8.33547,65.29603c0,0 -7.36192,8.16376 -20.40854,5.73651c-15.71471,-2.92363 -20.16457,-12.97417 -20.16457,-12.97417z" data-paper-data="{&quot;index&quot;:null}" fill="#e1e2db" stroke-linecap="butt"/><path d="M254.50132,188.27841l-4.33248,21.95303l-12.50034,0.32261" fill="none" stroke-linecap="round"/><path d="M250.87702,186.81022l-4.36794,19.64976l-8.224,0.0949" fill="none" stroke-linecap="round"/></g><g data-paper-data="{&quot;index&quot;:null}" stroke-linecap="butt"><path d="M265.681,210.95523v-23.07052h17.42024l1.8476,19.58817z" fill="#8c9ca0" stroke="#3a2f41" stroke-width="2"/><path d="M265.41706,208.34347v-23.07052h17.42024l1.8476,19.58818z" fill="#e1e2db" stroke="#e1e2db" stroke-width="3.5"/></g><path d="M268.12302,247.98047c0,0 -9.14242,6.44654 -21.24779,3.34269c-14.23204,-3.64913 -17.25221,-9.99325 -17.25221,-9.99325" fill="none" stroke="#3a2f41" stroke-width="2" stroke-linecap="round"/><path d="M273.79802,188.43241v9.61773l3.6,2.25096l-1.4,8.7992" fill="none" stroke="#3a2f41" stroke-width="2" stroke-linecap="round"/><path d="M283.39801,184.54438l-1.4,13.09649l-4.6,2.66023" fill="none" stroke="#3a2f41" stroke-width="2" stroke-linecap="round"/><g><g><path d="M305.34308,178.19977c0,0 0.37731,2.96185 0.11497,3.31144l-26.24764,11.78067l-36.69819,-9.60998l-1.39813,-5.76466c0,0 7.68006,-10.09801 7.80154,-10.80109c0.55252,-3.19811 -1.67101,-23.87676 -1.67101,-23.87676c0,0 -9.86134,-26.78953 -4.82698,-42.07207c1.5051,-4.56894 17.75189,-10.09222 26.66428,-10.04902c9.7781,0.04741 20.07161,0.85443 27.89132,9.98098c9.43825,11.0156 11.83555,32.8618 11.83555,32.8618l-9.37208,17.07525l-0.88204,13.8238z" fill="#e1e2db" stroke="none" stroke-width="0" stroke-linecap="round"/><g stroke="none" stroke-linecap="butt"><g fill="none" stroke-width="1" font-family="sans-serif" font-weight="normal" font-size="12" text-anchor="start"><g><g/></g></g><g><g><g fill="none" stroke-width="1" font-family="sans-serif" font-weight="normal" font-size="12" text-anchor="start"/><path d="M247.22837,111.01486c0,0.39965 -3.62666,3.8348 -2.51007,1.56508c1.03097,-2.0957 5.9935,-9.54422 5.9935,-9.54422c0,0 -2.86416,2.67578 -5.89282,6.09263c-0.49533,0.55881 7.37224,-10.94815 9.37624,-10.94815c2.00401,0 -6.96687,12.06608 -6.96687,12.8347z" fill="#ffffff" stroke-width="0"/></g></g></g><path d="M269.58194,91.11831c9.7781,0.04741 20.07161,0.85443 27.89132,9.98098c0.75942,0.88633 15.06229,24.50636 15.06229,24.50636l-8.08493,17.53222l-62.61972,-27.41993c0,0 -1.21456,-1.02893 -1.43821,-3.35005c-0.28426,-2.95009 0.41678,-7.37219 0.52495,-7.70056c0,0 -0.83306,-1.62643 0.73508,-3.49984c1.77811,-2.12425 6.07205,-4.56604 7.76549,-5.31428c5.60049,-2.47458 20.16374,-4.7349 20.16374,-4.7349z" fill="#8c9ca0" stroke="none" stroke-width="0" stroke-linecap="butt"/><g fill="none" stroke="none" stroke-width="1" stroke-linecap="butt" font-family="sans-serif" font-weight="normal" font-size="12" text-anchor="start"><g><g><g/></g></g><g><g><g/></g></g></g><path d="M299.99408,149.85406c-0.33429,6.76669 -1.27277,15.00605 -1.27277,15.00605l7.12175,13.33961c0,0 0.37731,2.96185 0.11497,3.31144l-27.24764,11.53067l-36.03152,-10.02665l-1.0648,-5.09799c0,0 7.68006,-10.76468 7.80154,-11.46776c0.65999,-3.82018 -1.53594,-21.53206 -1.53594,-21.53206c0,0 -10.47795,-29.54141 -5.96205,-43.2501c1.5051,-4.56894 18.75189,-10.59222 27.66428,-10.54902c9.7781,0.04741 20.07161,0.85443 27.89132,9.98098c0.29241,0.34128 0.57416,0.68256 0.8456,1.02393" fill="none" stroke="#3a2f41" stroke-width="2" stroke-linecap="round"/><g fill="none" stroke="none" stroke-width="1" stroke-linecap="butt" font-family="sans-serif" font-weight="normal" font-size="12" text-anchor="start"><g/></g></g><path d="M284.21238,115.8482c0,2.34721 -1.95875,4.25 -4.375,4.25c-2.41625,0 -4.375,-1.90279 -4.375,-4.25c0,-2.34721 1.95875,-4.25 4.375,-4.25c2.41625,0 4.375,1.90279 4.375,4.25z" fill="#8c9ca0" stroke="#3a2f41" stroke-width="1.5" stroke-linecap="butt"/><path d="M287.62903,135.26487c0,2.34721 -1.95875,4.25 -4.375,4.25c-2.41625,0 -4.375,-1.90279 -4.375,-4.25c0,-2.34721 1.95875,-4.25 4.375,-4.25c2.41625,0 4.375,1.90279 4.375,4.25z" fill="none" stroke="#3a2f41" stroke-width="1.5" stroke-linecap="butt"/><g><path d="M285.74566,107.71858l-9.91911,-8.96534c0,0 6.98372,-6.6646 10.00069,-8.90762c0.66064,-0.49117 0.92751,-0.09179 1.10496,-0.02339c0.4353,0.37091 3.16064,5.08093 2.694,5.39524z" data-paper-data="{&quot;index&quot;:null}" fill="#8c9ca0" stroke="#3a2f41" stroke-width="4.5" stroke-linecap="round"/><path d="M267.39047,107.8151c0,0 -9.56152,-9.66352 -10.43199,-12.58446c0.06358,-1.43863 2.09816,-7.62946 3.02998,-5.85925c0.96418,0.50341 16.79795,-3.0079 20.78337,-0.61156c3.34966,2.01407 -4.97335,10.03631 -4.97335,10.03631z" fill="#3a2f41" stroke="#3a2f41" stroke-width="4.5" stroke-linecap="round"/><path d="M258.9441,94.76515c0.03554,-1.38729 0.27159,-4.78803 0.81013,-5.06431c0.99698,-0.95842 10.66879,-5.54936 13.04024,-5.93378c1.50029,-0.2432 12.31016,5.35205 12.88798,5.96884c0.99973,0.50599 2.04214,4.51976 2.04214,5.01727" fill="none" stroke="#3a2f41" stroke-width="6.5" stroke-linecap="butt"/><g><path d="M285.74566,107.71858l-9.91911,-8.96534c0,0 6.98373,-6.6646 10.00069,-8.90762c0.66064,-0.49117 0.92751,-0.09179 1.10496,-0.02339c0.4353,0.37091 3.16064,5.08093 2.694,5.39524z" data-paper-data="{&quot;index&quot;:null}" fill="#8c9ca0" stroke="#12161a" stroke-width="0" stroke-linecap="round"/><path d="M267.39047,107.8151c0,0 -9.56152,-9.66352 -10.432,-12.58446c0.06358,-1.43863 2.09816,-7.62946 3.02998,-5.85926c1.77455,0.92652 15.81001,9.42475 15.81001,9.42475z" fill="#8c9ca0" stroke="#12161a" stroke-width="0" stroke-linecap="round"/><path d="M258.9441,94.76514c0.03554,-1.38729 0.27159,-4.78803 0.81013,-5.06431c0.99698,-0.95842 10.66879,-5.54935 13.04024,-5.93378c1.50029,-0.2432 12.31016,5.35205 12.88798,5.96884c0.99973,0.50599 2.04214,4.51976 2.04214,5.01727" fill="none" stroke="#8c9ca0" stroke-width="2" stroke-linecap="butt"/></g></g><g fill="none"><g stroke="none" stroke-width="1" stroke-linecap="butt" font-family="sans-serif" font-weight="normal" font-size="12" text-anchor="start"><g><g/></g></g><g stroke="#3a2f41" stroke-width="2" stroke-linecap="round"><g><g><path d="M297.82585,101.30759l14.78873,24.99783l-12.67948,24.52434"/></g></g></g></g></g><path d="M231.84558,55.8248c0,0 1.6728,-14.5615 18.50176,-15.10959c15.32091,-0.49898 18.254,15.17223 18.254,15.17223c0,0 -2.17007,5.47483 -17.47795,5.96936c-14.19116,-0.00686 -19.27782,-6.032 -19.27782,-6.032z" data-paper-data="{&quot;index&quot;:null}" fill="#e1e2db" stroke="#3a2f41" stroke-width="1" stroke-linecap="butt"/><path d="M232.00571,58.35062c0.89993,0.7282 2.55642,1.574 3.99863,2.12481" data-paper-data="{&quot;index&quot;:null}" fill="none" stroke="#3a2f41" stroke-width="0.5" stroke-linecap="round"/><text transform="translate(26.45882,53.28502) scale(0.5,0.5)" font-size="40" xml:space="preserve" fill="#3a2f41" fill-rule="nonzero" stroke="none" stroke-width="1" stroke-linecap="butt" stroke-linejoin="miter" stroke-miterlimit="10" stroke-dasharray="" stroke-dashoffset="0" font-family="Handwriting" font-weight="normal" text-anchor="start" style="mix-blend-mode: normal"><tspan x="0" dy="0">Better?</tspan></text><g><path d="M218.94763,163.79512c0,0 -0.19549,-4.05612 0.71228,-4.48668c1.48725,-0.70541 5.32774,-3.68474 8.89456,-6.24651c0.6089,-0.43733 2.85565,1.25989 5.30277,2.78386c3.10694,1.93488 6.66862,4.07922 6.66862,4.07922l-3.56171,1.79217c0,0 -3.12006,-1.27141 -5.11459,-1.32569c-0.4053,-0.01102 3.08125,1.15796 5.37149,2.56521c0.30249,0.18587 7.03129,-3.62264 7.03129,-3.62264c0,0 3.11617,0.09546 5.33666,0.59284c2.08121,0.46618 -5.70083,-1.91192 -5.70083,-1.91192l-2.176,1.14445l-7.22719,-4.388c0,0 0.35832,-1.67373 0.63008,-2.08332c0.41287,-0.62224 5.86042,-1.68669 9.04644,-2.5252c4.36044,-1.14758 9.66404,5.54334 14.80534,10.62948c3.03154,2.99901 1.71901,7.46563 -1.42886,10.41822c-2.67598,2.50997 -5.85451,3.89329 -5.85451,3.89329c0,0 5.02562,-1.53969 6.8037,-3.29075c0.63765,-0.62797 2.89402,5.24496 2.46364,7.02506c-0.82689,3.42005 -4.02981,6.57539 -4.02981,6.57539l-6.15675,2.40576l5.34688,-1.42196c0,0 0.04421,4.17801 -0.95367,4.95842c-4.04444,3.52095 -7.81038,5.86458 -12.39128,6.0005c-11.12279,0.33003 -19.92248,-1.18242 -29.68296,-8.71429c-7.15246,-5.51932 -7.00393,-13.79921 -1.86877,-18.74702c1.42871,-1.37659 4.1381,-5.22108 6.88488,-4.59596c2.8984,0.65963 8.43283,1.42952 11.4516,3.20186c1.51361,0.88866 4.60563,8.41134 4.60563,8.41134c0,0 -2.31083,-7.9252 -4.2465,-9.31642c-3.43414,-2.46822 -10.96244,-3.80069 -10.96244,-3.80069z" fill="none" stroke="#211727" stroke-width="4" stroke-linecap="round"/><path d="M218.72966,163.79426c0,0 -0.19549,-4.05612 0.71228,-4.48668c1.48725,-0.70541 5.32773,-3.68474 8.89455,-6.24651c0.6089,-0.43733 2.85565,1.25989 5.30278,2.78386c3.10694,1.93488 6.66863,4.07921 6.66863,4.07921l-3.56171,1.79218c0,0 -3.12007,-1.27142 -5.1146,-1.32569c-0.4053,-0.01102 3.08126,1.15796 5.3715,2.56521c0.30249,0.18587 7.03128,-3.62264 7.03128,-3.62264c0,0 3.11618,0.09545 5.33666,0.59283c2.08121,0.46618 -5.70083,-1.91191 -5.70083,-1.91191l-2.176,1.14444l-7.22719,-4.38799c0,0 0.35832,-1.67374 0.63008,-2.08333c0.41287,-0.62224 5.86042,-1.68668 9.04644,-2.52519c4.36044,-1.14758 9.66404,5.54334 14.80534,10.62947c3.03154,2.99901 1.719,7.46563 -1.42887,10.41822c-2.67598,2.50997 -5.8545,3.89329 -5.8545,3.89329c0,0 5.02563,-1.53968 6.8037,-3.29075c0.63765,-0.62797 2.89402,5.24496 2.46364,7.02506c-0.82689,3.42005 -4.02981,6.5754 -4.02981,6.5754l-6.15675,2.40576l5.34688,-1.42197c0,0 0.04423,4.17801 -0.95367,4.95842c-1.35793,1.18216 -4.8425,3.27421 -7.07274,3.69501c-6.7123,1.26646 -14.06375,-1.58137 -14.06375,-1.58137c0,0 0.68246,-1.8996 0.96121,-3.12076c0.78964,-3.45924 -1.75141,5.44808 -4.99687,6.35215c-4.25345,1.18487 -12.84355,1.93295 -15.82352,-0.3666c-7.15246,-5.51932 -8.08248,-21.49144 -2.94733,-26.43925c1.42871,-1.37659 4.13809,-5.22109 6.88488,-4.59597c1.20708,0.27471 0.84829,-1.5039 0.84829,-1.5039z" fill="#e1e2db" stroke="none" stroke-width="0" stroke-linecap="round"/><path d="M256.70526,172.92711c0.62029,-0.35177 1.17129,-0.72814 1.56395,-1.11482c0.63765,-0.62797 2.89402,5.24496 2.46364,7.02505c-0.82689,3.42005 -4.02981,6.57539 -4.02981,6.57539l-6.15674,2.40576l5.34688,-1.42196c0,0 0.04423,4.17801 -0.95367,4.95842c-1.35793,1.18216 -6.10682,5.13305 -8.33706,5.55385c-6.7123,1.26646 -18.72832,-0.66771 -18.72832,-0.66771c0,0 0.81343,-5.62661 1.09218,-6.84778c1.29516,-5.67383 3.13618,-14.57891 3.13618,-14.57891c0,0 0.07039,7.35621 3.62618,11.07547c2.20962,2.31119 7.32396,1.93699 9.86488,1.41457c3.79348,-0.77996 6.46431,-3.39919 8.80801,-6.07404c1.42751,-1.62921 3.60129,-7.71115 3.60129,-7.71115z" fill="#8c9ca0" stroke="none" stroke-width="0" stroke-linecap="round"/><path d="M238.90448,181.62634c-0.00751,-0.34044 1.44357,0.32531 3.53822,0.61117c2.09465,0.28587 4.03905,0.33328 4.04656,0.67372c0.00751,0.34044 -1.92471,0.84499 -4.01936,0.55913c-2.09465,-0.28586 -3.55791,-1.50358 -3.56541,-1.84402z" data-paper-data="{&quot;index&quot;:null}" fill="#211727" stroke="none" stroke-width="0" stroke-linecap="butt"/><path d="M239.404,175.01809c-0.09274,-0.34008 1.41612,-0.07991 3.42403,-0.38301c2.00791,-0.30309 3.81686,-0.80351 3.90958,-0.46343c0.09274,0.34008 -1.56586,1.39187 -3.57377,1.69497c-2.00791,0.30309 -3.66711,-0.50845 -3.75984,-0.84853z" data-paper-data="{&quot;index&quot;:null}" fill="#211727" stroke="none" stroke-width="0" stroke-linecap="butt"/><path d="M239.29196,187.46621c0.04831,-0.24614 1.16517,0.41191 2.88575,0.87549c1.72058,0.46359 3.3527,0.73693 3.30439,0.98306c-0.04831,0.24614 -1.75878,0.37184 -3.47935,-0.09173c-1.72058,-0.46358 -2.75911,-1.52068 -2.71079,-1.76682z" data-paper-data="{&quot;index&quot;:null}" fill="#211727" stroke="none" stroke-width="0" stroke-linecap="butt"/><path d="M249.37103,159.92603c2.08121,0.46618 -5.70083,-1.91191 -5.70083,-1.91191l-2.176,1.14444l-3.37583,-2.04963l0.59428,-1.62187l3.59878,1.77849l1.5699,-0.29051z" fill="#8c9ca0" stroke="none" stroke-width="0" stroke-linecap="round"/><path d="M259.33106,161.45311c2.2532,2.96557 0.91277,7.01421 -2.01104,9.75664c-2.67598,2.50997 -5.85451,3.89329 -5.85451,3.89329l-6.3115,2.36116c0,0 8.29222,-4.25592 11.4212,-8.50254c3.46329,-4.70033 2.75584,-7.50855 2.75584,-7.50855z" fill="#8c9ca0" stroke="none" stroke-width="0" stroke-linecap="round"/><path d="M229.76734,196.69998c-4.25345,1.18487 -12.84355,1.93296 -15.82352,-0.36659c-7.15246,-5.51932 -8.08249,-21.49145 -2.94733,-26.43925c1.42871,-1.37659 4.13809,-5.22109 6.88488,-4.59596c1.98522,0.4518 5.2071,0.95533 8.01025,1.79728c0,0 5.82206,9.21111 3.27119,20.44314c-0.17568,0.77359 3.39738,3.76925 3.39738,3.76925z" fill="#babad0" stroke="none" stroke-width="0" stroke-linecap="round"/><path d="M224.15824,161.48703c0.41527,2.59886 4.20702,5.30316 4.20702,5.30316c-3.73641,-1.95181 -9.63561,-2.99593 -9.63561,-2.99593v-0.00001c0,0 -0.19549,-4.05612 0.71228,-4.48668c1.1148,-0.52876 3.55178,-2.33512 6.2046,-4.28558c0,0 -2.03242,3.05972 -1.48829,6.46503z" fill="#8c9ca0" stroke="none" stroke-width="0" stroke-linecap="round"/><path d="M254.83705,190.25708c-0.67547,0.53447 -3.74375,-1.38637 -3.88532,-1.61469c-0.09853,-0.15891 3.92745,-1.25801 4.34927,-1.39668c0.32876,-0.10808 -0.21518,2.81453 -0.46395,3.01137z" fill="#e1e2db" stroke="none" stroke-width="0" stroke-linecap="butt"/></g><path d="M178.62082,165.13646c0.98288,-20.66151 44.51218,-61.99632 44.51218,-61.99632l14.66211,-6.24126l11.02429,0.74047l-3.08759,17.63349c0,0 -24.02737,21.35022 -28.66182,33.69284c-2.84006,7.56374 2.52291,3.38322 4.24164,2.46108c9.79549,-0.55693 14.4536,19.94994 13.76218,26.9873c-0.52437,5.33714 -2.98165,22.27251 -13.04873,22.38261c-6.2775,0.06866 -45.50113,-2.09163 -43.90426,-35.6602z" data-paper-data="{&quot;index&quot;:null}" fill="#e1e2db" stroke="#3a2f41" stroke-width="2" stroke-linecap="butt"/><path d="M232.125,55.78614c0,-2.27334 2.32831,-8.60017 6.48358,-11.50598c2.78492,-1.94752 7.49212,-3.11902 8.76642,-3.11902c2.11214,0 -1.72663,20.21551 -3.80393,19.8256c-11.5186,-2.16204 -11.44607,-5.20059 -11.44607,-5.20059z" fill="#3a2f41" stroke="none" stroke-width="0" stroke-linecap="butt"/><path d="M236.875,27.66114c0,0 9.91936,-15.79372 19.25,-12.75" fill="none" stroke="#3a2f41" stroke-width="1" stroke-linecap="round"/><path d="M271.125,80.41114c-7.95109,-1.62853 -5.5,-17 -5.5,-17c0,0 15.95988,5.10494 22,3.75c0.70328,-0.15776 -1.25,0.5 -1.25,0.5c0,0 -7.29891,14.37854 -15.25,12.75z" fill="#3a2f41" stroke="#3a2f41" stroke-width="1" stroke-linecap="butt"/></g></g></svg>