<svg version="1.1" xmlns="http://www.w3.org/2000/svg" xmlns:xlink="http://www.w3.org/1999/xlink" width="291.88516" height="556.10063" viewBox="0,0,291.88516,556.10063"><g transform="translate(-93.75549,97.12853)"><g data-paper-data="{&quot;isPaintingLayer&quot;:true}" fill-rule="nonzero" stroke-linejoin="miter" stroke-miterlimit="10" stroke-dasharray="" stroke-dashoffset="0" style="mix-blend-mode: normal"><g stroke="#3a2f41" stroke-width="2" stroke-linecap="butt"><g data-paper-data="{&quot;index&quot;:null}" fill="#e1e2db"><path d="M135.36636,107.46224l-35.36264,-10.0501l20.20714,-12.07672l-23.73357,-14.28393l28.36849,-5.72405l-5.41703,-30.10084l50.61124,42.61389l20.42409,-2.10785l-24.99926,28.38817l-0.46865,21.68211l-23.77573,6.01504z"/></g><path d="M136.73879,108.4192l11.01301,-27.08808l10.68517,19.33615l15.98172,-1.91099c0,0 -4.16922,27.79789 3.01206,44.33202c7.84201,18.0554 27.67943,23.44888 42.88681,-16.26809c7.50756,-19.60744 17.98711,3.69597 17.98711,3.69597c0,0 -9.13361,57.60976 -47.41905,58.42261c-66.61652,1.41436 -65.62966,-90.02182 -65.62966,-90.02182z" data-paper-data="{&quot;index&quot;:null}" fill="#7c7984"/></g><path d="M322.74807,419.48316l-3.42743,-44.89146l42.24833,7.70361l21.95374,73.93544z" data-paper-data="{&quot;index&quot;:null}" fill="#e1e2db" stroke="#3a2f41" stroke-width="2.5" stroke-linecap="butt"/><g data-paper-data="{&quot;index&quot;:null}" stroke="#3a2f41" stroke-width="2"><path d="M309.52251,397.73915c0,0 22.31976,-60.42458 15.66207,-105.58435c-5.86902,-39.81017 -50.83219,-133.02796 -50.83219,-133.02796l35.60035,-16.02414c0,0 53.12086,87.35277 68.0763,143.61012c16.18291,60.87469 -11.74348,100.57309 -11.74348,100.57309z" data-paper-data="{&quot;index&quot;:null}" fill="#e1e2db" stroke-linecap="butt"/><path d="M328.3925,177.46133l-19.7,-0.32563l-12.83123,-31.6059" fill="none" stroke-linecap="round"/><path d="M326.31954,173.42843l-15.38295,-0.22054l-12.11398,-30.0159" fill="none" stroke-linecap="round"/></g><path d="M247.68004,85.0076c-1.13624,20.90685 4.61629,47.93128 4.61629,47.93128l-23.00218,3.81886l-23.32266,-7.83161c0,0 4.03858,-11.94112 7.01703,-20.63142c1.7153,-5.00476 4.34402,-31.88576 4.34402,-31.88576l15.72132,-13.69066" fill="#3a2f41" stroke="#8c9ca0" stroke-width="2" stroke-linecap="round"/><path d="M201.6861,424.83482l34.30354,-28.73402l-16.0147,-29.82732l38.23494,-0.62875l27.59116,53.96213z" data-paper-data="{&quot;index&quot;:null}" fill="#e1e2db" stroke="#3a2f41" stroke-width="2.5" stroke-linecap="butt"/><g data-paper-data="{&quot;index&quot;:null}" stroke="#3a2f41" stroke-width="2"><path d="M225.94713,395.37964c0,0 -34.0872,-34.55299 -28.15835,-97.26234c5.47915,-57.95286 43.47698,-152.86596 43.47698,-152.86596l37.75447,9.93772c0,0 -28.98508,99.35345 -28.21273,139.5865c0.87614,45.63948 32.84926,101.55925 32.84926,101.55925z" data-paper-data="{&quot;index&quot;:null}" fill="#e1e2db" stroke-linecap="butt"/><path d="M255.56455,145.32284l-7.4468,33.28842l-19.37694,3.56794" fill="none" stroke-linecap="round"/><path d="M252.25841,143.50502l-7.0014,31.60195l-15.13625,2.75279" fill="none" stroke-linecap="round"/></g><g stroke-linecap="butt"><path d="M260.57174,189.03731l3.08,-21.68825h29.04007v25.54395z" fill="#8c9ca0" stroke="#3a2f41" stroke-width="2"/><path d="M261.01174,186.14552l3.08,-21.68825l6.95796,-18.09796l20.82364,0.10532l1.25847,17.99264v25.54395z" fill="#e1e2db" stroke="#e1e2db" stroke-width="3.5"/></g><g><path d="M248.81108,130.43901c0,0 -35.70915,-49.26841 -16.78633,-72.79562c11.3285,-14.0851 21.57455,-21.91965 39.58436,-23.45964c11.05882,-0.94561 33.0923,13.47454 35.37659,18.45337c18.2033,30.79706 0.73035,78.26552 0.73035,78.26552l10.35222,13.76392l-47.4077,16.76187l-31.44161,-12.01003z" data-paper-data="{&quot;index&quot;:null}" fill="#3a2f41" stroke="#8c9ca0" stroke-width="2" stroke-linecap="round"/><g data-paper-data="{&quot;index&quot;:null}"><path d="M243.61262,47.51071c-0.65925,-0.29166 1.86957,-6.6084 2.35047,-7.15003c0.21276,-0.11935 0.47287,-0.66213 1.41552,-0.19262c4.30483,2.14409 10.30024,9.50965 10.30024,9.50965l-8.16205,11.39419z" data-paper-data="{&quot;index&quot;:null}" fill="#8c9ca0" stroke="#3a2f41" stroke-width="4.5" stroke-linecap="round"/><path d="M261.99006,49.12635c0,0 -12.24618,-8.16251 -8.376,-11.30106c4.60474,-3.73425 25.52987,-2.60288 26.6593,-3.41278c0.83236,-2.35556 4.67986,4.8223 5.05147,6.57227c-0.52172,3.75321 -16.63208,19.16489 -16.63208,19.16489z" fill="#3a2f41" stroke="#3a2f41" stroke-width="4.5" stroke-linecap="round"/><path d="M245.94678,46.56104c-0.10043,-0.60958 0.42021,-5.73622 1.5945,-6.55639c0.61323,-0.87145 13.28552,-9.89183 15.25016,-9.8943c3.10543,-0.0039 16.38103,3.68429 17.84745,4.65893c0.74338,0.23065 1.73131,4.35015 2.05674,6.04282" fill="none" stroke="#3a2f41" stroke-width="6.5" stroke-linecap="butt"/><g><path d="M243.61262,47.51071c-0.65925,-0.29166 1.86957,-6.6084 2.35047,-7.15003c0.21276,-0.11935 0.47287,-0.66213 1.41552,-0.19262c4.30483,2.14409 9.4469,9.62933 9.4469,9.62933l-7.33627,10.84444z" data-paper-data="{&quot;index&quot;:null}" fill="#8c9ca0" stroke="#12161a" stroke-width="0" stroke-linecap="round"/><path d="M258.15002,49.66483c0,0 20.04466,-13.76172 22.12333,-15.25232c0.83236,-2.35556 4.67986,4.82232 5.05147,6.57228c-0.52173,3.75322 -16.2655,18.69558 -16.2655,18.69558z" fill="#8c9ca0" stroke="#12161a" stroke-width="0" stroke-linecap="round"/><path d="M245.94678,46.56101c-0.10043,-0.60958 0.42021,-5.7362 1.5945,-6.55638c0.61323,-0.87143 13.28551,-9.89183 15.25015,-9.8943c3.10543,-0.00389 16.38104,3.68429 17.84746,4.65893c0.74338,0.23065 1.73131,4.35015 2.05674,6.04282" fill="none" stroke="#8c9ca0" stroke-width="2" stroke-linecap="butt"/></g></g><path d="M228.81704,71.17631l-11.5,-8.25l13.5,-14.75c0,0 21.78368,15.48156 26.00494,19.99538c1.76158,1.88367 4.99506,7.50462 4.99506,7.50462z" fill="#8c9ca0" stroke="#3a2f41" stroke-width="2" stroke-linecap="butt"/><path d="M262.89482,75.70627c0,0 2.47436,-6.96658 4.13438,-9.5079c3.97788,-6.08973 26.57355,-29.20365 26.57355,-29.20365l20.44767,11.57842l-3.40828,10.28419z" data-paper-data="{&quot;index&quot;:null}" fill="#8c9ca0" stroke="#3a2f41" stroke-width="2" stroke-linecap="butt"/><g data-paper-data="{&quot;index&quot;:null}" stroke-linecap="butt"><g fill="none" stroke="none" stroke-width="1" font-family="sans-serif" font-weight="normal" font-size="12" text-anchor="start"><g><g/></g></g><g><g><g fill="none" stroke="none" stroke-width="1" font-family="sans-serif" font-weight="normal" font-size="12" text-anchor="start"/><path d="M262.62151,75.44155c3.32711,-0.26981 6.23546,2.11559 6.49595,5.32801c0.26049,3.21237 -2.22551,6.03522 -5.55261,6.30503c-3.32713,0.26981 -6.23546,-2.11558 -6.49595,-5.32799c-0.26049,-3.21237 2.22551,-6.03524 5.55261,-6.30505z" fill="#8c9ca0" stroke="#3a2f41" stroke-width="2"/><path d="M265.06968,98.63137c3.48307,-0.28245 6.51782,2.09268 6.77831,5.30509c0.26049,3.21237 -2.35189,6.04549 -5.83496,6.32793c-3.4831,0.28245 -6.51786,-2.09269 -6.77835,-5.3051c-0.26049,-3.21237 2.35193,-6.04547 5.835,-6.32792z" fill="#8c9ca0" stroke="#3a2f41" stroke-width="2"/></g></g></g></g><g><g><path d="M308.81806,45.07469c0,0 -2.75261,-3.59292 -7.65317,-4.49603c-4.37753,-0.80673 -12.36239,-1.15451 -12.36239,-1.15451l9.16732,14.97536l-25.51118,-16.9313c0,0 -15.91518,1.91688 -33.09405,3.87158c-12.94263,1.47268 -25.37955,1.47439 -25.37955,1.47439l-8.54063,21.16651c0,0 -14.73672,-10.91585 -12.34043,-23.79663c0.80669,-4.33613 -15.39751,13.03183 -15.39751,13.03183c0,0 -11.92513,-22.66028 2.37882,-44.95038c0.13706,-0.21358 -13.04245,0.2862 -18.73212,-10.69212c-6.64432,-12.8203 0.31721,-25.2639 0.31721,-25.2639c0,0 5.58906,3.54673 18.26524,1.12788c1.21276,-0.23141 -1.75053,-1.14808 -3.20915,-3.18656c-1.3652,-1.90791 -1.19558,-4.95321 -1.19558,-4.95321c0,0 13.73782,7.08948 23.88935,-6.92777c10.25842,-14.16484 31.82304,-30.3631 69.05209,-14.40162c12.18272,4.08592 24.40429,16.23959 35.75476,23.91143c12.15504,8.21567 23.03171,10.83172 23.03171,10.83172c0,0 -18.18223,5.3629 -14.277,10.33358c6.91332,8.79945 24.86886,8.13148 24.86886,8.13148c0,0 -8.70856,7.17548 -17.78239,12.57488c-5.63007,3.35018 -14.83215,5.66504 -14.83215,5.66504c0,0 4.61378,6.91321 6.97579,13.47895c3.41299,9.48723 -3.3938,16.17943 -3.3938,16.17943z" fill="#7c7984" stroke="#3a2f41" stroke-width="2" stroke-linecap="butt"/><g stroke="#3a2f41"><path d="M204.05409,-84.75663c0,0 23.00682,2.22426 25.62846,21.6803" fill="none" stroke-width="2" stroke-linecap="round"/><g><path d="M180.36485,-96.12852c13.76551,1.07105 22.58396,6.2405 22.25193,10.5078c-0.33202,4.2673 -10.30365,7.47324 -24.06917,6.40219c-13.76551,-1.07105 -25.78017,-10.28081 -25.78017,-10.28081c0,0 13.83188,-7.70022 27.5974,-6.62918z" fill="#4427e3" stroke-width="2" stroke-linecap="butt"/><path d="M165.77677,-89.11403c19.66203,-2.3987 30.40809,2.36596 30.40809,2.36596" fill="none" stroke-width="1.5" stroke-linecap="round"/><path d="M191.72068,-90.606l1.49261,3.37596l-2.14912,1.83883" fill="none" stroke-width="1.5" stroke-linecap="round"/><path d="M184.01342,-91.45642l1.81943,2.39837l-2.18791,2.33732" fill="none" stroke-width="1.5" stroke-linecap="round"/><path d="M175.78828,-92.0964l1.80005,2.64761l-1.7088,2.62536" fill="none" stroke-width="1.5" stroke-linecap="round"/><path d="M168.71241,-91.39316l1.60897,1.88048l-1.17151,2.16564" fill="none" stroke-width="1.5" stroke-linecap="round"/></g></g><path d="M258.25131,3.40894c0.46568,7.62573 -6.67933,14.26699 -15.95884,14.83366c-9.2795,0.56667 -17.17954,-5.15582 -17.64522,-12.78155c-0.46568,-7.62573 6.67933,-14.26699 15.95884,-14.83366c9.2795,-0.56667 17.17954,5.15582 17.64522,12.78155z" fill="#626171" stroke="none" stroke-width="0" stroke-linecap="butt"/><path d="M235.59552,5.47811c1.0854,8.0277 -6.55421,14.4603 -15.91682,16.52402c-9.36261,2.06373 -16.90278,-1.02291 -17.98818,-9.0506c-1.0854,-8.0277 5.69781,-15.00962 15.06042,-17.07334c9.36261,-2.06373 17.75917,1.57225 18.84457,9.59994z" fill="#e1e2db" stroke="#3a2f41" stroke-width="1" stroke-linecap="butt"/><path d="M280.57111,5.64022c-1.61958,8.2948 -10.90542,11.92672 -20.37279,10.64326c-9.46739,-1.28345 -15.53117,-6.9963 -13.9116,-15.2911c1.61958,-8.2948 10.28203,-12.77144 19.74941,-11.48796c9.46739,1.28345 16.15455,7.841 14.53497,16.1358z" fill="#e1e2db" stroke="#3a2f41" stroke-width="1" stroke-linecap="butt"/><path d="M218.42204,4.62132c5.06011,3.68419 6.50492,10.3204 3.22709,14.82242c-3.27784,4.50201 -10.03709,5.16499 -15.09719,1.4808c-5.06011,-3.68419 -6.50492,-10.3204 -3.22709,-14.82242c3.27784,-4.50201 10.03709,-5.16499 15.09719,-1.4808z" fill="#3a2f41" stroke="#3a2f41" stroke-width="1" stroke-linecap="butt"/><path d="M277.90844,-2.62692c3.80129,4.0697 3.17471,10.83242 -1.39951,15.10494c-4.57421,4.27253 -11.3639,4.43694 -15.16519,0.36724c-3.80129,-4.06971 -3.17471,-10.83242 1.39951,-15.10495c4.57422,-4.27252 11.3639,-4.43694 15.16519,-0.36723z" data-paper-data="{&quot;index&quot;:null}" fill="#3a2f41" stroke="#3a2f41" stroke-width="1" stroke-linecap="butt"/><g stroke="#3a2f41" stroke-width="1"><path d="M211.04963,22.70656c13.4676,-3.08183 60.63674,-10.78382 60.63674,-10.78382c0,0 -5.7514,38.83268 -16.11874,41.10138c-15.8373,3.46569 -44.55522,-30.23625 -44.55522,-30.23625" data-paper-data="{&quot;index&quot;:null}" fill="#3a2f41" stroke-linecap="round"/><path d="M266.09653,37.25608c0,0 -2.55757,7.27162 -5.25457,11.68439c-1.84827,3.0241 -3.60517,3.54684 -5.2743,4.08365c-3.86058,0.84482 -8.48656,-0.51893 -13.27537,-3.06469l-0.0691,-6.76747l7.27516,5.74619l2.04049,-8.6442l6.99504,5.79385l2.66003,-10.12035z" data-paper-data="{&quot;index&quot;:null}" fill="#e1e2db" stroke-linecap="round"/><path d="M243.29134,40.05915c-2.02877,-1.47774 0.43174,-6.13793 0.43174,-6.13793l1.26211,3.76648l2.10977,-3.41667l2.04189,4.10572l2.0679,-4.32755l2.73384,2.82362l2.21497,-4.48861l1.51458,4.48131c0,0 -1.28795,2.16158 -4.43921,3.2237c-3.26002,1.09877 -8.41163,1.08141 -9.93759,-0.0301z" fill="#e1e2db" stroke-linecap="butt"/><path d="M251.4041,23.95095c3.26293,0.2429 4.88895,2.03232 4.88895,2.03232l-0.72322,4.76713l-2.92693,-3.83189l-2.19674,3.45335l-2.75578,-3.71148l-1.30272,4.53289l-2.64255,-2.80971l-0.59721,4.00395c0,0 -3.19619,-3.93771 -1.46145,-5.89612c1.30482,-1.47305 6.34211,-2.79174 9.71764,-2.54045z" data-paper-data="{&quot;index&quot;:null}" fill="#e1e2db" stroke-linecap="butt"/><path d="M265.53833,20.87452l-3.39905,-6.60092l-7.37279,8.83197l-6.45629,-6.3169l-4.01383,7.97925l-6.85348,-5.98988l-3.33196,7.64304l-6.84164,-6.04833l-1.17404,6.09465l-9.96138,-4.83445c17.51089,-3.49863 55.55253,-9.71023 55.55253,-9.71023z" data-paper-data="{&quot;index&quot;:null}" fill="#e1e2db" stroke-linecap="round"/></g><path d="M211.45647,13.67076c-0.01683,-0.27563 0.19297,-0.51272 0.46859,-0.52955c0.27563,-0.01683 0.51272,0.19297 0.52955,0.46859c0.01683,0.27563 -0.19297,0.51272 -0.46859,0.52955c-0.27563,0.01683 -0.51272,-0.19297 -0.52955,-0.46859z" fill="#e1e2db" stroke="none" stroke-width="0.5" stroke-linecap="butt"/><path d="M271.4338,6.00065c-0.01683,-0.27563 0.19297,-0.51272 0.46859,-0.52955c0.27563,-0.01683 0.51272,0.19297 0.52955,0.46859c0.01683,0.27563 -0.19297,0.51272 -0.46859,0.52955c-0.27563,0.01683 -0.51272,-0.19297 -0.52955,-0.46859z" fill="#e1e2db" stroke="none" stroke-width="0.5" stroke-linecap="butt"/><path d="M239.22441,11.75088l-2.40517,-12.04246" fill="none" stroke="#3a2f41" stroke-width="1" stroke-linecap="round"/><path d="M238.41169,-1.55767l3.6103,12.63677" fill="none" stroke="#3a2f41" stroke-width="1" stroke-linecap="round"/><path d="M243.71605,11.47658l-2.51692,-13.87238" fill="none" stroke="#3a2f41" stroke-width="1" stroke-linecap="round"/><path d="M245.1015,9.55523l-1.11877,-10.11729" fill="none" stroke="#3a2f41" stroke-width="1" stroke-linecap="round"/><g stroke="#3a2f41"><path d="M188.5552,-68.8979c0,0 23.18974,-7.37526 33.59057,9.27506" fill="none" stroke-width="2" stroke-linecap="round"/><g><path d="M162.28487,-69.5059c12.98527,-4.69247 23.15006,-3.61301 24.60472,0.41243c1.45467,4.02543 -6.3121,11.05314 -19.29737,15.74561c-12.98527,4.69247 -27.72646,1.24732 -27.72646,1.24732c0,0 9.43383,-12.71288 22.41911,-17.40535z" fill="#e3264b" stroke-width="2" stroke-linecap="butt"/><path d="M151.87955,-57.10651c16.92983,-10.28251 28.68453,-10.36568 28.68453,-10.36568" fill="none" stroke-width="1.5" stroke-linecap="round"/><path d="M174.90731,-69.14956l2.75037,2.46179l-1.20124,2.56067" fill="none" stroke-width="1.5" stroke-linecap="round"/><path d="M167.53365,-66.75075l2.64563,1.43636l-1.03131,3.03091" fill="none" stroke-width="1.5" stroke-linecap="round"/><path d="M159.77472,-63.94692l2.73061,1.67148l-0.4761,3.0961" fill="none" stroke-width="1.5" stroke-linecap="round"/><path d="M153.61621,-60.39231l2.24058,1.05108l-0.17579,2.45592" fill="none" stroke-width="1.5" stroke-linecap="round"/></g></g></g><g stroke="#3a2f41" stroke-width="1.5" stroke-linecap="butt"><path d="M213.13339,-7.2698l6.91908,-43.93064h37.14451l2.91329,43.93064z" fill="#e1e2db"/><path d="M234.25479,-47.08194v-7.68786h6.91908v7.68786z" fill="#7c7984"/></g><path d="M254.23528,-32.2698l-28.5,17.25l13.25,-27.5l9.75,28l-25.25,-18.5z" fill="none" stroke="#3a2f41" stroke-width="1.5" stroke-linecap="round"/></g><g stroke-linecap="butt"><g data-paper-data="{&quot;index&quot;:null}"><g fill="#e1e2db" stroke="#3a2f41" stroke-width="2"><path d="M341.30775,335.71778c0,0 8.14762,14.20452 8.69577,17.21876c1.47071,8.08731 0.66575,14.76814 0.66575,14.76814l15.61028,0.62452l-9.54293,17.81878l-12.97273,3.39176l13.08493,9.99766l-39.4274,4.42076l-18.76698,-27.14032l7.69116,-76.13084l32.50083,2.00527z"/></g><g fill="none" stroke="none" stroke-width="1" font-family="sans-serif" font-weight="normal" font-size="12" text-anchor="start"/></g><path d="M297.08467,344.80429l6,-249l20,-1l23,246l-16.08611,-0.55177l-9.01063,20.17097l-13.26569,-26.05901z" fill="#7c7984" stroke="#3a2f41" stroke-width="2"/></g><path d="M309.65576,58.71828l15.72132,13.69067c0,0 2.62871,26.88101 4.34401,31.88577c2.97845,8.69029 7.01703,20.63142 7.01703,20.63142l-23.32267,7.83161l-23.00218,-3.81886c0,0 5.75253,-27.02442 4.61629,-47.93128" fill="#3a2f41" stroke="#8c9ca0" stroke-width="2" stroke-linecap="round"/></g></g></svg>