<svg version="1.1" xmlns="http://www.w3.org/2000/svg" xmlns:xlink="http://www.w3.org/1999/xlink" width="48.42845" height="48.42845" viewBox="0,0,48.42845,48.42845"><g transform="translate(2.82647,5.03727)"><g data-paper-data="{&quot;isPaintingLayer&quot;:true}" fill-rule="nonzero" stroke="#8c9ca0" stroke-linejoin="miter" stroke-miterlimit="10" stroke-dasharray="" stroke-dashoffset="0" style="mix-blend-mode: normal"><path d="M21.3877,-1.9461c5.8279,0 11.1077,2.3679 14.9325,6.1906c3.8227,3.8248 6.1906,9.1046 6.1906,14.9325c0,5.8279 -2.3679,11.1076 -6.1906,14.9324c-3.8248,3.8228 -9.1046,6.1906 -14.9325,6.1906c-5.8279,0 -11.1076,-2.3678 -14.9324,-6.1906c-3.8228,-3.8248 -6.1906,-9.1045 -6.1906,-14.9324c0,-5.8279 2.3678,-11.1077 6.1906,-14.9325c3.8248,-3.8227 9.1045,-6.1906 14.9324,-6.1906z" fill="#3a2f41" stroke-width="6.18235" stroke-linecap="butt"/><path d="M11.375,9l19,21" fill="none" stroke-width="3" stroke-linecap="round"/><path d="M11.625,29.625l20,-20.5" fill="none" stroke-width="3" stroke-linecap="round"/></g></g></svg>