<svg version="1.1" xmlns="http://www.w3.org/2000/svg" xmlns:xlink="http://www.w3.org/1999/xlink" width="257.10445" height="224.94965" viewBox="0,0,257.10445,224.94965"><defs><linearGradient x1="1077.66312" y1="216.06021" x2="1077.66312" y2="354.07601" gradientUnits="userSpaceOnUse" id="color-1"><stop offset="0" stop-color="#ffffff" stop-opacity="0.26046"/><stop offset="1" stop-color="#ffffff" stop-opacity="0"/></linearGradient><linearGradient x1="1077.66312" y1="216.06021" x2="1077.66312" y2="354.07601" gradientUnits="userSpaceOnUse" id="color-2"><stop offset="0" stop-color="#ffffff" stop-opacity="0.26046"/><stop offset="1" stop-color="#ffffff" stop-opacity="0"/></linearGradient><linearGradient x1="1077.66312" y1="216.06021" x2="1077.66312" y2="354.07601" gradientUnits="userSpaceOnUse" id="color-3"><stop offset="0" stop-color="#ffffff" stop-opacity="0.26046"/><stop offset="1" stop-color="#ffffff" stop-opacity="0"/></linearGradient><linearGradient x1="1036.02754" y1="220.12049" x2="1036.02754" y2="358.13627" gradientUnits="userSpaceOnUse" id="color-4"><stop offset="0" stop-color="#ffffff" stop-opacity="0.26046"/><stop offset="1" stop-color="#ffffff" stop-opacity="0"/></linearGradient><linearGradient x1="1036.02754" y1="220.12049" x2="1036.02754" y2="358.13627" gradientUnits="userSpaceOnUse" id="color-5"><stop offset="0" stop-color="#ffffff" stop-opacity="0.26046"/><stop offset="1" stop-color="#ffffff" stop-opacity="0"/></linearGradient><linearGradient x1="1036.02754" y1="220.12049" x2="1036.02754" y2="358.13627" gradientUnits="userSpaceOnUse" id="color-6"><stop offset="0" stop-color="#ffffff" stop-opacity="0.26046"/><stop offset="1" stop-color="#ffffff" stop-opacity="0"/></linearGradient><linearGradient x1="249.1849" y1="105.04022" x2="249.24928" y2="185.22867" gradientUnits="userSpaceOnUse" id="color-7"><stop offset="0" stop-color="#cedee0" stop-opacity="0"/><stop offset="1" stop-color="#cedee0" stop-opacity="0.19676"/></linearGradient></defs><g transform="translate(-182.82723,-60.01592)"><g data-paper-data="{&quot;isPaintingLayer&quot;:true}" fill-rule="nonzero" stroke-linejoin="miter" stroke-miterlimit="10" stroke-dasharray="" stroke-dashoffset="0" style="mix-blend-mode: normal"><g stroke="none"><path d="M331.12637,172.14516l21.20471,1.06794l-3.01612,59.88371l-21.20471,-1.06794z" fill="#3a2f41" stroke-width="0.78636" stroke-linecap="butt"/><path d="M346.86204,172.94519l55.17153,2.77884l-1.07787,21.40102l-55.1715,-2.77875z" fill="#3a2f41" stroke-width="0.78636" stroke-linecap="butt"/><path d="M344.40273,186.59999l7.46098,0.37581l-2.32388,46.13995l-7.46089,-0.37582z" fill="#8c9ca0" stroke-width="0.78636" stroke-linecap="butt"/><path d="M351.75607,187.0847l49.47764,2.49198l-0.39551,7.85365l-49.47775,-2.49204z" fill="#8c9ca0" stroke-width="0.84105" stroke-linecap="butt"/><g stroke-width="0.78636"><path d="M421.44801,168.82449c5.36239,0.27005 10.11258,2.69262 13.45369,6.38907c3.34197,3.69562 5.27509,8.66513 5.00494,14.02756c-0.27005,5.36239 -2.69266,10.1125 -6.38907,13.45369c-3.69562,3.34197 -8.66513,5.27509 -14.02756,5.00494c-5.36239,-0.27005 -10.11258,-2.69262 -13.45369,-6.38907c-3.34197,-3.69562 -5.27509,-8.66513 -5.00494,-14.02756c0.27005,-5.36239 2.69262,-10.11258 6.38904,-13.45378c3.69562,-3.34197 8.66515,-5.27499 14.02761,-5.00484z" fill="#3a2f41" stroke-linecap="butt"/><path d="M405.70455,167.06836c2.0851,0.10504 3.85858,2.52097 5.0378,6.33995c1.17926,3.81906 1.76584,9.03954 1.47801,14.75465c-0.28787,5.71501 -1.39602,10.85026 -2.95306,14.53142c-1.55692,3.68123 -3.56416,5.90676 -5.64926,5.80173c-2.0852,-0.10501 -3.85868,-2.52096 -5.0378,-6.33995c-1.17926,-3.81906 -1.76588,-9.03964 -1.47801,-14.75465c0.28783,-5.71511 1.39602,-10.85026 2.95297,-14.53139c1.55701,-3.68127 3.56426,-5.90681 5.64935,-5.80176z" fill="#3a2f41" stroke-linecap="butt"/><path d="M415.15507,181.32766c1.73325,0.08728 3.23091,1.61851 4.24994,4.0217c1.01978,2.40323 1.55448,6.12285 1.38028,9.25318c-0.23355,4.18399 -0.43895,9.05841 -2.61606,12.85959c-0.72122,1.23442 -3.01997,-0.28755 -4.48614,-0.81647c-1.5384,-0.69 -3.65523,-1.16674 -4.38727,-2.77988c-1.37922,-3.022 -1.29374,-6.62614 -1.07629,-9.89609c0.20875,-3.14364 1.04684,-6.7792 2.30298,-9.06767c1.25535,-2.28863 2.89929,-3.66165 4.63253,-3.57438z" fill="#8c9ca0" stroke-linecap="round"/></g></g><path d="" fill="#3a2f41" stroke="none" stroke-width="0" stroke-linecap="butt"/><path d="" fill="#3a2f41" stroke="url(#color-1)" stroke-width="0.5" stroke-linecap="butt"/><path d="" fill="#3a2f41" stroke="url(#color-2)" stroke-width="0.5" stroke-linecap="butt"/><path d="" fill="#3a2f41" stroke="url(#color-3)" stroke-width="0.5" stroke-linecap="butt"/><path d="" data-paper-data="{&quot;index&quot;:null}" fill="#3a2f41" stroke="url(#color-4)" stroke-width="0.5" stroke-linecap="butt"/><path d="" data-paper-data="{&quot;index&quot;:null}" fill="#3a2f41" stroke="url(#color-5)" stroke-width="0.5" stroke-linecap="butt"/><path d="" data-paper-data="{&quot;index&quot;:null}" fill="#3a2f41" stroke="url(#color-6)" stroke-width="0.5" stroke-linecap="butt"/><g data-paper-data="{&quot;index&quot;:null}" stroke="#3a2f41" stroke-linecap="butt"><path d="M183.75541,115.06745l3.91863,-12.64525l7.60977,5.4234l-5.66984,-9.06217l16.48841,-17.33458c0,0 2.14415,17.28099 8.17558,33.08817c2.34133,3.54917 -6.82257,9.11614 -6.82257,9.11614z" fill="#3a2f41" stroke-width="1.5"/><path d="M213.18676,120.95504c-1.97046,-1.54485 2.58622,-20.17728 5.8755,-24.1496c1.33046,-1.60672 14.50214,13.75226 12.81074,15.79488c-3.28928,3.97231 -15.76436,10.64545 -17.73481,9.10062z" data-paper-data="{&quot;index&quot;:null}" fill="#8c9ca0" stroke-width="2"/><path d="M213.9622,121.14707c1.6405,1.83307 -6.76788,15.15862 -10.74094,18.02025c-2.04302,1.47151 -16.22677,-13.15254 -14.61974,-14.31001c3.97304,-2.86162 22.92808,-6.42838 24.56857,-4.59531z" fill="#e1e2db" stroke-width="1.5"/><path d="M218.27181,117.58162c1.5555,2.67638 0.76411,6.03884 -1.76763,7.51027c-2.5317,1.47141 -5.84507,0.49459 -7.40056,-2.18182c-1.5555,-2.67638 -0.76411,-6.03884 1.76763,-7.51026c2.5317,-1.47141 5.84507,-0.49458 7.40056,2.18181z" fill="#e1e2db" stroke-width="2"/></g><path d="M293.12021,180.01001l-18.90972,-2.08344l-0.04835,-10.21871c0,0 -1.23904,10.37854 -1.65743,10.26383c-5.35055,-0.42416 -10.64694,-0.76364 -15.71218,-1.03535c-21.27908,-1.14138 -38.479,-1.08633 -38.479,-1.08633c0,0 -6.59365,-11.70244 -6.60246,-22.66941c-0.00616,-7.66392 0.86927,-22.80464 11.68915,-34.60266c8.72628,-9.51516 24.04564,-12.48243 27.22348,-12.61414c2.54102,-0.10533 13.27846,3.82643 19.64458,9.81278c10.59692,9.9648 22.48024,32.43343 22.48024,32.43343z" fill="#3a2f41" stroke="none" stroke-width="0" stroke-linecap="butt"/><g stroke-linecap="butt"><path d="M281.72184,151.03066c0.00545,6.79026 1.56468,12.84684 -3.283,17.23381c-4.71242,4.26456 -15.29303,5.74397 -26.09279,5.98256c-10.74908,0.23749 -21.54192,-2.18699 -26.29077,-6.62086c-4.80426,-4.48558 -3.88481,-9.81336 -3.89021,-16.54772c-0.01074,-13.39106 9.03584,-30.40792 34.0266,-29.6895c16.43907,0.47257 25.51945,16.25062 25.53019,29.6417z" fill="#e1e2db" stroke="none" stroke-width="0"/><path d="M281.72184,151.03066c0.01076,13.39106 -12.14853,4.97913 -25.63495,5.09621c-13.48371,0.11705 -33.9111,8.34266 -33.92184,-5.04841c-0.01074,-13.39106 9.03584,-30.40792 34.0266,-29.6895c16.43907,0.47257 25.51945,16.25063 25.53019,29.6417z" fill="#b8c1c0" stroke="none" stroke-width="0"/><path d="M260.85096,121.96101c13.48692,2.99763 21.88473,16.46538 21.89441,28.53226l0.00043,0.53656c0.0051,6.35193 0.28424,12.3272 -3.91192,16.62929c-4.65015,4.76752 -14.58688,6.33315 -26.10381,6.5876c-7.95641,0.17578 -17.58857,-1.2534 -22.16474,-3.81206c-7.8607,-4.39513 -8.39345,-10.8924 -8.40023,-19.35621c-0.00913,-11.36644 6.50735,-25.3452 23.76104,-28.87296" fill="none" stroke="#3a2f41" stroke-width="2"/></g><path d="M206.89843,172.48213l-9.14301,-7.09488c0,0 -2.20729,-23.61536 8.09762,-38.97363c13.29169,-19.80966 36.7568,-27.51427 59.92636,-21.83416c4.96345,1.21681 17.47988,5.39073 24.82695,13.82202c8.82593,10.12839 11.87669,23.01764 11.87669,23.01764l-4.92645,-0.7696l0.95129,10.18905c0,0 -2.70765,-0.68892 -2.7254,-0.90541c-0.39753,-4.85065 -1.4057,-9.66577 -1.4057,-9.66577c0,0 0.75878,3.93594 0.27738,9.75448c-2.8252,-0.52588 -18.54976,-2.16951 -18.54976,-2.16951l-2.14204,-4.37113l-0.37541,4.09544l-13.65921,-1.2472l-1.46807,-15.4024l-0.19947,14.99509c0,0 -12.2215,-0.10396 -18.13168,0.11771c-0.41687,0.01564 -2.00404,-6.46725 -2.00404,-6.46725c0,0 -0.14327,6.76685 -0.45468,6.77251c-3.68087,0.06673 -8.75358,0.73397 -8.75358,0.73397c0,0 0.09498,34.19596 -0.03986,34.21152c-2.09738,0.24238 -19.91403,-6.26066 -19.88544,-7.66995c0.04131,-2.03591 -1.25038,-13.49148 -1.25038,-13.49148z" fill="#3a2f41" stroke="url(#color-7)" stroke-width="0.5" stroke-linecap="butt"/><path d="M256.95549,115.74141c14.13421,-30.80693 41.94643,-42.22806 41.94643,-42.22806l-11.49679,55.55042" fill="#3a2f41" stroke="#3a2f41" stroke-width="1.5" stroke-linecap="round"/><path d="M201.82098,136.54652c11.39857,-46.58239 43.13293,-75.00141 43.13293,-75.00141l5.6515,50.43894" fill="#3a2f41" stroke="#3a2f41" stroke-width="1.5" stroke-linecap="round"/><g stroke="#3a2f41" stroke-linecap="butt"><path d="M227.37888,157.41628c0,0 4.20499,-4.16809 11.81636,-4.12907c8.06426,0.04136 12.32099,5.14637 12.32099,5.14637c0,0 -5.11656,-0.40873 -12.45677,-0.62516c-6.52255,-0.19233 -11.68057,-0.39213 -11.68057,-0.39213z" fill="#e1e2db" stroke-width="1"/><g fill="#3a2f41" stroke-width="0.5"><path d="M237.49263,157.90411l0.07166,-4.49531l2.98838,0.00181l-0.17671,4.5372z"/></g></g><g><path d="M226.29338,247.31905l48.0244,-0.7853c0,0 5.28896,11.94195 8.66624,19.41765c1.01081,2.23748 1.85037,4.07486 2.32563,5.07225c0.81872,3.0182 1.84682,7.23865 2.99369,12.18631c-24.42462,0.17215 -48.84703,0.47558 -72.95423,0.73453c5.114,-18.14585 10.94429,-36.62542 10.94429,-36.62542z" fill="#e1e2db" stroke="none" stroke-width="0" stroke-linecap="round"/><path d="M214.34089,272.40984c3.19534,-14.32135 15.26578,-29.93679 15.26578,-29.93679l42.83537,-0.96214c0,0 5.70033,10.82614 7.52847,14.99505c1.26759,2.8906 2.38841,7.61937 2.38841,7.61937l-25.25896,18.96617c-15.01087,0.15533 -29.97027,0.33204 -44.80503,0.48907c0.79018,-4.74878 1.51246,-8.77964 2.04595,-11.17073z" fill="#8c9ca0" stroke="none" stroke-width="0" stroke-linecap="butt"/><path d="M213.37644,283.96557c0.83389,-4.66219 1.66403,-8.92134 2.46666,-12.51874c2.8729,-12.87653 13.77556,-28.56137 13.77556,-28.56137l42.48231,-0.50823c0,0 6.72589,8.8977 12.12365,27.34887c0.89614,3.06331 2.10924,7.79848 3.49261,13.48799" fill="none" stroke="#3a2f41" stroke-width="2" stroke-linecap="round"/><path d="M275.84663,249.26053l-20.78879,10.78915l-29.25159,-9.74749" fill="none" stroke="#3a2f41" stroke-width="1.5" stroke-linecap="round"/></g><path d="M252.55479,252.08215c-9.21827,0.02957 -24.26341,-9.84864 -24.26341,-9.84864c0,0 1.23293,-5.14501 2.19457,-7.92908c0.87601,-2.53618 2.82277,-8.10118 2.82277,-8.10118c0,0 0.56263,-3.92979 -1.71349,-8.07906c-1.42604,-2.5996 -9.32627,-13.1153 -9.34163,-13.47799c-0.00295,-0.06973 1.0116,-3.80857 2.70832,-7.7925c1.96945,-4.62426 9.2059,-12.09043 12.48866,-13.84696c3.57641,-1.91366 8.42943,-2.78531 12.14934,-2.68693c5.68502,0.15033 11.56684,1.24983 16.71179,4.0374c1.93883,1.05047 5.45941,3.88028 5.45941,3.88028c0,0 5.97581,7.78965 8.48298,17.2921c-3.70751,10.18282 -12.06907,14.38888 -12.06907,14.38888l-1.02448,6.93058c0,0 2.04432,5.10097 2.85658,7.64502c0.80955,2.53552 2.00893,7.5938 2.00893,7.5938c0,0 -10.25297,9.96474 -19.47125,9.99431z" fill="#3a2f41" stroke="#8c9ca0" stroke-width="1.5" stroke-linecap="round"/><g data-paper-data="{&quot;index&quot;:null}" stroke="#3a2f41" stroke-linecap="butt"><g data-paper-data="{&quot;index&quot;:null}"><g stroke-width="0"><path d="" fill="#e1e2db"/><path d="" fill="#e1e2db"/><path d="" fill="#8c9ca0"/></g><path d="M278.49232,278.72668l37.25081,-2.26596l0.39182,6.61948c-12.44109,0.02396 -24.9126,0.09951 -37.37291,0.20328z" fill="#e1e2db" stroke-width="0"/><path d="M278.49231,278.72668l37.25083,-2.26596l0.3918,6.61949c-12.44109,0.02396 -24.91259,0.09951 -37.37291,0.20328z" fill="#8c9ca0" stroke-width="0"/><path d="M305.50345,277.36022l10.27956,-0.62529l0.37558,6.34523" fill="none" stroke-width="2"/><path d="M278.78566,283.28328l-0.25348,-4.28239l12.11137,-0.73672" fill="none" stroke-width="2"/></g><g data-paper-data="{&quot;index&quot;:null}"><path d="M281.08876,245.07217l-16.39806,-39.41936l5.59036,-15.49799c0,0 8.31892,9.81887 12.89119,16.20517c8.30224,11.5962 32.81026,47.62856 32.81026,47.62856l1.83977,29.08872c-13.03483,0.02017 -26.10513,0.09815 -39.163,0.20707z" fill="#3a2f41" stroke-width="1.5"/><path d="" fill="#8ea8ab" stroke-width="2"/></g></g><g fill="#8c9ca0" stroke="#3a2f41" stroke-width="1.5" stroke-linecap="butt"><path d="M254.70611,199.05986c-0.10718,1.84615 -1.75807,3.25193 -3.68737,3.13992c-1.92929,-0.11201 -3.4064,-1.6994 -3.29922,-3.54555c0.10718,-1.84615 1.75808,-3.25194 3.68738,-3.13993c1.92929,0.11201 3.4064,1.69942 3.29921,3.54556z"/><path d="M254.77201,209.10244c-0.11091,1.91031 -1.8357,3.364 -3.85243,3.24691c-2.01673,-0.1171 -3.56167,-1.76062 -3.45076,-3.67093c0.11091,-1.91031 1.83569,-3.36399 3.85241,-3.24691c2.01673,0.1171 3.5617,1.76062 3.45079,3.67093z"/></g><g stroke="#3a2f41" stroke-width="2"><g fill="#e1e2db"><path d="M341.03778,224.21664l9.8509,-25.07634l4.02187,26.43884z" stroke-linecap="round"/><path d="M346.47166,223.717l6.99908,-22.98919l6.01857,27.97434z" stroke-linecap="round"/><path d="M279.7269,228.88655l3.06411,-3.5778l-11.78457,-3.04186l8.67803,-2.96562l-2.45318,-3.52155c0,0 22.53147,0.02839 29.43182,-0.43532c4.42328,-0.29723 7.44892,-0.63031 7.44892,-0.63031l9.84025,-16.00581l27.32333,-0.06782c0,0 -21.17428,8.65358 -17.54224,12.6582c0.89018,0.98152 22.90489,7.05514 22.90489,7.05514l-4.1124,-18.96237l15.28691,29.83938c0,0 -13.73088,1.11968 -22.35837,0.77034c-8.6275,-0.34933 20.978,-0.59003 22.35301,-0.66853l-18.41951,6.27144c0,0 -13.20986,-1.23003 -17.76399,-1.36601c-13.28747,-0.39676 -51.89705,-5.35153 -51.89705,-5.35153z" stroke-linecap="butt"/></g><g stroke-linecap="butt"><path d="M314.91799,240.2105l-39.39073,-0.89029c0,0 -36.08452,-22.45896 -47.71394,-30.09122c-6.4046,-4.20327 5.85715,-15.74132 5.85715,-15.74132l31.78723,12.17963l51.04432,-5.33082z" fill="#3a2f41"/><path d="M308.08599,240.01241l-2.17486,-0.21585l-0.30804,-38.19221l2.11452,-0.05055z" fill="#8ea8ab"/></g></g><g><path d="M258.72466,179.9375c0,2.04567 -5.29309,5.83964 -7.54147,5.83964c-2.24839,0 -7.40799,-3.39354 -7.40799,-5.4392c0,-2.04567 5.35983,-3.17008 7.60821,-3.17008c2.24838,0 7.34127,0.72399 7.34127,2.76966z" fill="#3a2f41" stroke="none" stroke-width="0" stroke-linecap="butt"/><g fill="#8c9ca0" stroke="#8c9ca0" stroke-width="1.5" stroke-linecap="butt"><path d="M233.61624,194.1077c-0.77248,-0.75621 9.55472,-14.67052 9.55472,-14.67052l7.71232,5.82992l8.16733,-6.5042c0,0 10.42614,13.98379 9.82055,14.75081c-0.33485,0.42412 -3.99994,-1.51286 -8.56085,-2.90358c-4.19557,-1.27934 -9.32983,-2.0061 -9.32983,-2.0061c0,0 -5.43509,1.38827 -9.88163,2.90086c-4.06571,1.38303 -7.16051,2.91813 -7.48261,2.60284z"/></g><path d="M243.17454,181.10542l0.50723,-1.92207l7.31457,-2.21572l7.59486,1.64177l0.80087,1.96211" fill="none" stroke="#8c9ca0" stroke-width="2" stroke-linecap="round"/></g><path d="" fill="#3a2f41" stroke="#8c9ca0" stroke-width="2" stroke-linecap="butt"/><path d="" fill="#3a2f41" stroke="#8c9ca0" stroke-width="2" stroke-linecap="butt"/><path d="M247.96512,151.65395h-18.4" fill="none" stroke="#3a2f41" stroke-width="1" stroke-linecap="round"/></g></g></svg>