<svg version="1.1" xmlns="http://www.w3.org/2000/svg" xmlns:xlink="http://www.w3.org/1999/xlink" width="241.30592" height="380.5756" viewBox="0,0,241.30592,380.5756"><g transform="translate(-105.92546,-24.27074)"><g data-paper-data="{&quot;isPaintingLayer&quot;:true}" fill-rule="nonzero" stroke-linejoin="miter" stroke-miterlimit="10" stroke-dasharray="" stroke-dashoffset="0" style="mix-blend-mode: normal"><g fill="#3a2f41" stroke="#3a2f41" stroke-linecap="butt"><path d="M268.97247,188.72312c5.406,46.43992 51.54287,78.19522 50.8055,78.43346c-3.17785,1.90989 -39.02779,-18.46004 -56.41223,-38.65204c-7.03562,-8.17185 -40.50184,-26.58776 -49.37125,-42.10786c-7.25681,-12.69829 8.15872,-23.10656 16.07764,-27.31903c7.41523,-3.94453 35.99786,4.71187 38.90035,29.64546z" data-paper-data="{&quot;index&quot;:null}" stroke-width="1.5"/><path d="M257.05413,148.95622c0,12.04461 -18.20004,17.92467 -36.45999,18.75401c-1.51299,0.06872 -3.53653,-23.77248 -5.02074,-23.77248c-4.03196,0 -7.58041,23.60117 -11.49443,23.04981c-14.91527,-2.10106 -27.60194,-8.22866 -27.60194,-18.56011c0,-14.92289 14.10842,-27.70643 26.13632,-34.62273c6.7453,-3.87869 14.63867,-5.58442 14.63867,-5.58442c0,0 6.60507,1.47498 12.29073,4.60686c11.78109,6.48949 27.48701,19.30567 27.48701,35.3359z" stroke-width="2"/><path d="M210.75531,126.68821c2.93698,5.61482 -13.98215,19.17197 -27.90222,26.45323c-13.92008,7.28127 -32.67025,-3.09957 -33.76071,-9.35933c-0.35132,-0.44349 20.06469,1.2203 33.7262,-14.07654c13.66151,-15.29684 24.99975,-8.63219 27.93674,-3.01738z" stroke-width="1.5"/><path d="M212.95224,127.10786c14.52741,12.79168 -5.3064,25.66287 -20.62535,37.49513c-20.81853,16.08007 -55.10292,14.13018 -58.97097,7.46909c-0.64255,-0.38578 31.35742,-10.24614 43.55072,-32.18458c12.19331,-21.93844 29.92408,-18.16976 36.04561,-12.77963z" stroke-width="1.5"/><path d="M250.76586,128.64535c13.66151,15.29684 34.07752,13.63305 33.7262,14.07654c-1.09046,6.25976 -19.84063,16.6406 -33.76071,9.35933c-13.92007,-7.28126 -30.8392,-20.83841 -27.90222,-26.45323c2.93698,-5.61482 14.27522,-12.27947 27.93674,3.01738z" data-paper-data="{&quot;index&quot;:null}" stroke-width="1.5"/><path d="M257.17771,138.32719c12.19331,21.93845 44.19328,31.79882 43.55072,32.18459c-3.86806,6.66109 -38.15246,8.61098 -58.97097,-7.4691c-15.31896,-11.83226 -35.15277,-24.70344 -20.62535,-37.49512c6.12153,-5.39014 23.85231,-9.15882 36.04562,12.77962z" data-paper-data="{&quot;index&quot;:null}" stroke-width="1.5"/><path d="M217.23737,142.06521c6.53734,5.75627 18.77838,19.11558 9.15017,29.9926c-11.76777,13.2941 -47.35145,24.29653 -55.77686,30.80426c-20.81853,16.08007 -59.07784,28.4927 -61.65306,25.96868c-0.64255,-0.38578 49.81209,-21.76443 65.10819,-65.93964c8.21248,-23.71766 37.05002,-26.21604 43.17155,-20.82591z" stroke-width="1.5"/><path d="M260.20581,160.7398c15.29611,44.1752 65.75075,65.55385 65.10819,65.93963c-2.57522,2.52402 -50.15665,0.86768 -73.12643,-16.64657c-8.42541,-6.50773 -32.53573,-26.83226 -44.3035,-40.12636c-9.6282,-10.87701 2.61284,-24.23634 9.15019,-29.99261c6.12153,-5.39014 34.95907,-2.89175 43.17155,20.82591z" data-paper-data="{&quot;index&quot;:null}" stroke-width="1.5"/><path d="M209.27344,155.89963c7.35591,4.37233 21.53266,14.94869 13.72081,26.42734c-9.5478,14.02942 -28.75491,45.11094 -36.06091,52.3686c-33.57814,26.29662 -72.42947,15.30209 -75.3672,13.34227c-0.69491,-0.26311 24.29047,-14.66846 33.21884,-40.32847c32.37498,-22.48688 57.60043,-55.90394 64.48846,-51.80972z" data-paper-data="{&quot;index&quot;:null}" stroke-width="1.5"/><path d="M276.96155,216.59882c9.40292,61.65975 70.44547,101.89713 69.50917,102.24817c-3.9887,2.69005 -36.45339,-3.16535 -59.88767,-29.29294c-9.48403,-10.57405 -68.2598,-53.27642 -80.49069,-73.56257c-10.00711,-16.59779 9.28157,-31.1714 19.24988,-37.14588c9.33426,-5.59446 46.57089,4.64811 51.61933,37.75323z" data-paper-data="{&quot;index&quot;:null}" stroke-width="1.5"/><path d="M175.61595,304.79724c-1.50362,0.30085 -7.50033,-3.34439 -8.93078,-2.58286c-24.95816,13.28701 -59.79151,26.34722 -59.94764,25.66372c31.06537,-38.60391 20.26838,-57.84061 45.04985,-85.73767c8.18976,-6.24334 43.04285,-49.69664 58.24757,-57.23332c12.44025,-6.16639 23.12689,46.61356 26.45072,54.49892c3.11241,7.3838 -34.16127,36.40055 -60.86971,65.39121zM129.75466,295.8352c0.20815,0 3.81563,-4.27104 7.24015,-11.88426c2.59493,-5.76893 4.67768,-14.16936 7.43384,-19.99479c3.98737,-8.42774 7.67518,-14.3838 7.67518,-14.61199c0,0 -5.47441,4.87819 -10.10161,13.55923c-2.91036,5.46009 -4.60607,12.36625 -6.84919,18.75866c-2.64476,7.53695 -5.5842,14.17316 -5.39837,14.17316z" data-paper-data="{&quot;index&quot;:null}" stroke-width="1.5"/><path d="M299.80314,294.92905c7.52233,33.29291 -15.61114,80.35461 -19.32887,83.82119c-4.10363,3.82639 -4.80703,-40.81783 -36.78507,-68.35077c-25.58271,-22.02659 -14.37818,-67.6173 -1.25757,-70.70755c13.12062,-3.09025 49.84919,21.94422 57.37151,55.23714zM288.23294,358.92c4.3838,-9.80017 11.79369,-44.4593 9.32211,-57.60587c0,0 -1.17299,12.7048 -3.39668,26.32155c-2.48945,15.24416 -6.05356,31.57074 -5.92543,31.28431z" stroke-width="1.5"/><path d="M262.71817,332.3035c-13.51106,36.14985 -63.49965,70.69149 -69.78864,71.77042c-6.94176,1.19092 9.88097,-45.27179 -6.88403,-90.5331c-13.41214,-36.20943 34.15312,-72.88304 50.39639,-67.9947c16.24326,4.88835 39.78735,50.60752 26.27629,86.75738z" stroke-width="1.5"/><path d="M211.07642,319.3874c-19.59288,32.21324 -66.72524,59.24691 -72.59876,58.89223c-1.46355,0.3256 18.45981,-45.17785 12.72595,-93.0419c-4.58713,-38.29165 40.55889,-64.68329 54.14682,-56.28654c13.58793,8.39675 25.31887,58.22298 5.72599,90.43622z" stroke-width="1.5"/><path d="M178.09359,117.37855c1.68145,-8.45373 4.84021,-18.89113 8.13201,-28.63613c1.39275,-0.19624 3.64389,-0.51342 4.88374,-0.68811l-0.22511,-1.59766c-0.87423,0.12318 -3.28695,0.46313 -4.16118,0.58631c0.1166,-0.33944 0.51324,-1.26035 0.62984,-1.59743c1.17148,-0.16506 2.49077,-0.35095 3.47082,-0.48905l-0.22512,-1.59766c-0.58429,0.08232 -1.87867,0.26471 -2.46295,0.34703c4.84926,-13.80647 16.76125,-34.32113 16.60529,-29.35307c-0.15596,4.96805 4.20802,71.96275 4.20802,71.96275c0,0 -33.48117,25.29415 -35.58712,14.11099z" data-paper-data="{&quot;index&quot;:null}" stroke-width="0.5"/><path d="M258.66677,139.23131c-2.10595,11.18316 -35.58712,-14.11099 -35.58712,-14.11099c0,0 4.36398,-66.99469 4.20802,-71.96275c-0.15596,-4.96807 20.99599,34.61289 26.64735,63.02578z" data-paper-data="{&quot;index&quot;:null}" stroke-width="0.5"/></g><g stroke-linecap="butt"><path d="M170.61851,144.46134c1.84436,-0.30675 6.45121,2.49433 6.45121,2.49433l3.66099,46.71497l-14.58064,2.73778l-4.27105,-48.71397z" data-paper-data="{&quot;index&quot;:null}" fill="#e1e2db" stroke="none" stroke-width="0"/><path d="M180.26472,185.36034c0.36121,2.89191 0.87505,8.27566 0.87505,8.27566l-15.21395,2.6022l-0.82946,-9.10746c0,0 3.94845,-4.42798 7.31104,-4.82043c3.3626,-0.39249 7.85732,3.05005 7.85732,3.05005z" data-paper-data="{&quot;index&quot;:null}" fill="#8c9ca0" stroke="none" stroke-width="0"/><path d="M161.6875,147.74177c0,0 6.58894,-2.98517 8.65987,-3.32959c2.31954,-0.38576 6.57739,2.31048 6.57739,2.31048l3.61057,46.10522l-14.58067,2.73778z" data-paper-data="{&quot;index&quot;:null}" fill="none" stroke="#3a2f41" stroke-width="2.5"/></g><path d="M240.9664,199.72003c-1.07949,7.18501 -7.10309,18.71999 -7.10309,18.71999l-32.33495,-0.5156c0,0 -10.4494,-17.0364 -7.86136,-29.77441c1.01597,-5.00047 13.19048,-11.78245 19.30054,-11.75359c3.79378,0.01791 10.53704,-0.88685 16.30149,1.06924c0,0 8.50861,3.28168 10.62533,7.2399c3.30521,6.18067 1.07203,15.01447 1.07203,15.01447z" fill="#3a2f41" stroke="#8c9ca0" stroke-width="2" stroke-linecap="round"/><g stroke="#8c9ca0" stroke-width="2" stroke-linecap="round"><path d="M200.67251,212.85852c0,0 -10.5084,5.91759 -17.83933,0.50655c-8.83519,-6.52135 -19.60244,-18.11992 -19.60244,-18.11992c0,0 -0.73305,-6.897 5.15019,-11.95966c5.88323,-5.06267 13.46437,-4.13195 13.46437,-4.13195l14.00981,5.72562" fill="#3a2f41"/><path d="M167.30077,198.60352c0,0 0.9495,-6.92992 6.47474,-11.65928c5.32134,-4.55484 14.31253,-4.94804 14.31253,-4.94804" fill="none"/></g><g data-paper-data="{&quot;index&quot;:null}"><g stroke-linecap="butt"><path d="M264.25516,263.51153c-1.71812,0.73746 -7.79588,-4.03603 -7.79588,-4.03603l-13.75288,-41.34527l13.50802,-6.13386l15.75786,46.29236z" data-paper-data="{&quot;index&quot;:null}" fill="#e1e2db" stroke="none" stroke-width="0"/><path d="M253.49745,227.17967c-3.17217,1.18257 -8.35783,-1.08952 -8.35783,-1.08952c-1.04001,-2.72249 -2.82214,-7.82864 -2.82214,-7.82864l14.15537,-6.15313l2.97612,8.64735c0,0 -2.77935,5.24139 -5.95152,6.42395z" data-paper-data="{&quot;index&quot;:null}" fill="#8c9ca0" stroke="none" stroke-width="0"/><path d="M271.74181,257.75334c0,0 -5.68762,4.4695 -7.6168,5.29755c-2.16075,0.92745 -6.9385,-0.67634 -6.9385,-0.67634l-14.4947,-43.9162l13.50803,-6.13387z" data-paper-data="{&quot;index&quot;:null}" fill="none" stroke="#3a2f41" stroke-width="2.5"/></g><g stroke="#8c9ca0" stroke-width="2" stroke-linecap="round"><path d="M234.01076,179.83654c0,0 9.97012,0.07395 14.54241,7.95532c5.51049,9.49859 10.77313,24.42391 10.77313,24.42391c0,0 -2.07199,6.6191 -9.48395,8.92257c-7.41196,2.30346 -13.99665,-1.56717 -13.99665,-1.56717l-5.79291,-21.02716" fill="#3a2f41"/><path d="M256.92868,207.51515c0,0 -2.34791,5.85408 -9.29881,7.99422c-6.6944,2.06117 -12.8322,-1.67131 -12.8322,-1.67131" fill="none"/></g></g><g fill="#3a2f41"><path d="M231.43879,218.17993l-0.41524,8.07273c0,0 1.4509,3.27779 2.90452,8.01485c1.42964,4.65891 1.81387,8.19332 1.81387,8.19332c0,0 -2.97914,2.22717 -6.6491,4.14565c-3.77145,1.97153 -8.27246,3.6352 -11.01958,3.58936c-2.35891,-0.03937 -6.51268,-1.50585 -9.99415,-3.09687c-4.19486,-1.91705 -7.55996,-4.01489 -7.55996,-4.01489c0,0 0.17696,-3.9586 1.65863,-9.39837c1.17758,-4.32333 2.08503,-7.20846 2.08503,-7.20846c0,0 0.06421,-8.90298 0.05192,-8.90944" stroke="#8c9ca0" stroke-width="1.5" stroke-linecap="round"/><path d="M237.1918,188.63189c7.58612,8.99599 10.09853,19.79766 10.09853,19.79766c0,0 -6.81333,9.3107 -16.25202,15.15024l-26.31369,-0.12982c-13.62973,-7.22603 -16.18425,-14.65137 -16.18425,-14.65137c0,0 2.54784,-9.91585 9.80468,-19.13437" stroke="#8c9ca0" stroke-width="1.5" stroke-linecap="round"/><path d="M204.73543,227.58032v-9.58487h25.90505v9.58487z" stroke="none" stroke-width="0" stroke-linecap="butt"/></g><path d="M222.14186,195.17145c0,2.14604 -1.77596,3.88575 -3.96671,3.88575c-2.19075,0 -3.96671,-1.73971 -3.96671,-3.88575c0,-2.14604 1.77596,-3.88576 3.96671,-3.88576c2.19075,0 3.96671,1.73971 3.96671,3.88576z" fill="#8c9ca0" stroke="#3a2f41" stroke-width="1" stroke-linecap="butt"/><path d="M222.30376,205.69537c0,2.14604 -1.77596,3.88575 -3.96671,3.88575c-2.19075,0 -3.96671,-1.73971 -3.96671,-3.88575c0,-2.14604 1.77596,-3.88576 3.96671,-3.88576c2.19075,0 3.96671,1.73972 3.96671,3.88576z" fill="#8c9ca0" stroke="#3a2f41" stroke-width="1" stroke-linecap="butt"/><g><path d="M254.37426,142.57603c0,10.87793 -16.43712,16.18843 -32.92835,16.93744c-1.36644,0.06206 -3.19396,-21.46979 -4.5344,-21.46979c-3.6414,0 -6.84615,21.31507 -10.38103,20.81713c-13.47053,-1.89754 -24.92832,-7.4316 -24.92832,-16.76232c0,-13.47741 12.74183,-25.02269 23.60467,-31.26905c6.09193,-3.50299 13.22072,-5.04349 13.22072,-5.04349c0,0 5.96529,1.3321 11.1002,4.16062c10.63994,5.8609 24.82453,17.43565 24.82453,31.91313z" fill="#3a2f41" stroke="none" stroke-width="0" stroke-linecap="butt"/><path d="M250.84227,145.70506c-0.50785,19.20908 -11.76784,27.15093 -11.76784,27.15093c0,0 2.15566,-16.79912 0.55293,-31.14693" data-paper-data="{&quot;index&quot;:null}" fill="#3a2f41" stroke="#b8c1c0" stroke-width="2" stroke-linecap="round"/><path d="M246.09796,160.89265c-1.75043,2.80031 4.06409,-25.13505 4.60674,-25.2213c0.69047,-0.10976 1.89337,3.39469 2.68677,7.82739c0.79338,4.4327 -5.02133,17.43645 -4.88439,16.8344c2.18034,-5.32263 3.21616,-11.5918 2.42278,-16.0245c-0.16985,-0.94896 -0.87126,10.24793 -4.83188,16.58403z" data-paper-data="{&quot;index&quot;:null}" fill="#3a2f41" stroke="none" stroke-width="0" stroke-linecap="butt"/><path d="M198.56298,140.71188c-1.2922,12.17918 -0.4998,31.59881 -0.4998,31.59881c0,0 -11.52654,-6.90163 -13.5531,-28.4113" fill="#3a2f41" stroke="#b8c1c0" stroke-width="2" stroke-linecap="round"/><path d="M184.36568,144.30203c0,4.42877 1.66606,10.32956 3.04427,15.35843c0.1545,0.56374 -4.66788,-10.92966 -4.66788,-15.35843c0,-4.42877 0.36345,-8.019 0.8118,-8.019c0.35236,0 7.05703,25.84382 5.6354,23.39369c-3.21664,-5.54377 -4.8236,-16.3228 -4.8236,-15.37468z" fill="#3a2f41" stroke="none" stroke-width="0" stroke-linecap="butt"/><g stroke-linecap="butt"><path d="M243.35747,145.19834c0,5.28987 -0.39149,10.00915 -4.55966,13.42374c-4.05185,3.3193 -11.41675,4.4652 -20.69609,4.64433c-9.23579,0.1783 -17.16766,-1.93309 -21.24482,-5.39022c-4.12473,-3.49744 -4.67075,-7.43154 -4.67075,-12.67785c0,-10.43215 7.78457,-23.68327 29.25618,-23.10797c14.12414,0.37843 21.91514,12.67581 21.91514,23.10797z" fill="#e1e2db" stroke="none" stroke-width="0"/><path d="M244.167,147.08722c-0.48572,6.22258 -11.25101,1.76655 -22.83863,1.84932c-11.5853,0.08276 -29.14221,6.47805 -29.14221,-3.9541c0,-10.43215 7.78457,-23.68328 29.25618,-23.10798c14.12414,0.37843 22.72467,12.51391 22.72467,22.94607z" fill="#b8c1c0" stroke="none" stroke-width="0"/><path d="M225.66108,122.53898c10.08596,2.04027 16.42188,7.63245 17.66676,17.0165c0.31602,2.3822 0.78968,7.32259 0.42759,9.90963c-0.52509,3.7517 -0.59604,5.73122 -3.43049,8.36184c-3.9987,3.71117 -11.78188,5.24845 -21.67742,5.43948c-6.83629,0.13197 -14.63508,-1.20332 -18.56516,-3.19948c-6.7509,-3.42889 -7.68032,-8.59878 -7.68032,-15.19241c0,-8.8549 5.6086,-19.41698 20.43542,-22.15446" fill="none" stroke="#3a2f41" stroke-width="2"/></g><path d="M252.53151,138.80042c-2.52465,1.52461 -4.03483,4.38188 -7.15118,4.51226c-7.80142,0.32636 -15.98261,-2.79994 -20.40163,-7.7072c-6.23209,-6.36329 -4.92488,-17.82342 -2.64545,-20.14082c2.31464,-2.35321 10.58151,0.42725 17.08744,6.82654z" data-paper-data="{&quot;index&quot;:null}" fill="#3a2f41" stroke="none" stroke-width="0" stroke-linecap="butt"/><path d="M223.38615,117.71217c2.57667,4.34115 -4.19539,15.3138 -13.42034,20.78923c-3.64119,2.16121 -11.29272,4.42488 -12.32371,5.08594c-0.85804,0.55018 -6.50049,2.09552 -6.01631,3.43395c1.34974,3.73113 -2.76434,-4.6976 -4.01859,-6.81075c-2.57667,-4.34115 2.81282,-12.29906 12.03777,-17.77449c9.22495,-5.47541 21.1645,-9.06503 23.74118,-4.72388z" fill="#3a2f41" stroke="none" stroke-width="0" stroke-linecap="butt"/><path d="M228.69776,131.7766c-2.22657,10.2432 -13.30149,18.82879 -24.43222,18.63914c-0.24538,-0.01791 8.93871,-8.16921 8.93871,-19.20656c0,-7.3135 4.75914,-12.6748 8.28644,-12.6748c3.47201,0 7.00006,5.27557 7.08777,12.43058c0.00139,0.11396 0.14364,0.69964 0.11929,0.81168z" data-paper-data="{&quot;index&quot;:null}" fill="#3a2f41" stroke="none" stroke-width="0" stroke-linecap="butt"/><path d="M218.58281,131.95982c-7.14282,10.86301 -21.22452,14.03213 -24.42474,14.58684c-3.20022,0.55471 -2.51037,-2.57857 -2.65334,-3.40336c-0.14297,-0.8248 2.17352,-10.03844 5.37374,-10.59314c3.20022,-0.5547 21.56139,-1.41512 21.70435,-0.59033z" fill="#3a2f41" stroke="none" stroke-width="0" stroke-linecap="butt"/><g stroke-width="1" stroke-linecap="butt"><path d="M195.1356,148.35219c0,0 3.49198,-3.07458 9.46089,-2.69086c6.32408,0.40655 9.42646,4.60866 9.42646,4.60866c0,0 -3.99473,-0.55799 -9.74272,-1.06829c-5.10769,-0.45345 -9.14463,-0.8495 -9.14463,-0.8495z" fill="#e1e2db" stroke="#3a2f41"/><g fill="none" stroke="none" font-family="sans-serif" font-weight="normal" font-size="12" text-anchor="start"/></g><path d="M248.3977,142.16809c0,0 -5.00531,6.37572 -16.34179,2.13271c-6.05182,-2.26507 -8.91564,-10.41799 -8.91564,-14.05982c0,0 2.868,9.81073 11.45991,12.45906c6.5054,2.0052 11.56707,-0.16427 13.17127,-0.75557c0.33855,-0.12479 0.62625,0.22362 0.62625,0.22362z" fill="#3a2f41" stroke="none" stroke-width="0" stroke-linecap="butt"/></g><g><path d="M224.74119,173.88917c0,1.80463 -4.66942,5.15157 -6.65288,5.15157c-1.98346,0 -6.53514,-2.99369 -6.53514,-4.79832c0,-1.80463 4.7283,-2.79657 6.71176,-2.79657c1.98346,0 6.47626,0.63869 6.47626,2.44332z" fill="#3a2f41" stroke="none" stroke-width="0" stroke-linecap="butt"/><g fill="#8c9ca0" stroke="#8c9ca0" stroke-width="1.5" stroke-linecap="butt"><path d="M202.59122,186.38974c-0.68147,-0.66711 8.42891,-12.94195 8.42891,-12.94195l6.8036,5.14301l7.20499,-5.73784c0,0 9.19766,12.33612 8.66343,13.01277c-0.29539,0.37414 -3.52864,-1.3346 -7.55214,-2.56146c-3.70122,-1.12859 -8.23054,-1.76973 -8.23054,-1.76973c0,0 -4.7947,1.22469 -8.71731,2.55905c-3.58667,1.22008 -6.31681,2.57431 -6.60095,2.29615z"/></g><path d="M211.02329,174.91948l0.44745,-1.6956l6.45271,-1.95465l6.69998,1.44832l0.7065,1.73093" fill="none" stroke="#8c9ca0" stroke-width="1.5" stroke-linecap="round"/></g><path d="M204.75981,148.55266l0.17345,-2.50635l0.64165,0.04815l-0.09526,2.77942z" fill="#3a2f41" stroke="#3a2f41" stroke-width="0.5" stroke-linecap="butt"/><g data-paper-data="{&quot;index&quot;:null}" fill="#3a2f41"><path d="M165.52758,59.98551l23.88264,-17.88873l-22.17924,35.5277z" stroke-opacity="0.07705" stroke="#ffffff" stroke-width="2" stroke-linecap="round"/><path d="M162.67285,52.90292l23.52307,-16.04799l-17.11848,33.06586z" stroke-opacity="0.08512" stroke="#ffffff" stroke-width="2" stroke-linecap="round"/><path d="M163.64596,164.2317l-11.47253,-81.53895l3.3243,-25.68958l9.32131,-5.94028l-5.63282,14.96782l6.00399,-19.50877l22.6165,-19.13098l-14.12359,26.29333l7.06245,31.64372l12.03356,-1.18845l12.11005,-17.48545l-5.8817,30.65693l-20.79889,10.37695c0,0 -0.44568,3.76775 -0.85129,9.29983c-0.63274,8.63013 0.25565,42.16853 0.25565,42.16853l-3.38033,-5.33668l-0.23,16.9597l-5.57019,-20.76525l-3.25186,10.19424l-1.76343,-12.92741z" stroke-opacity="0.08254" stroke="#ffffff" stroke-width="1.5" stroke-linecap="butt"/></g><path d="M232.81645,153.14443c0,0 0.15017,2.30304 -0.07053,2.88197c-0.11694,0.30673 -0.24835,0.57792 -0.37661,0.68953c-0.39225,0.34142 -0.88564,0.72639 -1.25456,0.86384c-0.55435,0.20658 -1.1575,0.40702 -1.55351,0.46815c-0.99572,0.15376 -2.11497,0.26365 -2.59728,0.22292c-1.24996,-0.10562 -2.82463,-0.29086 -3.30803,-0.37581c-1.08446,-0.19053 -2.41415,-0.42785 -2.81517,-0.51536c-0.8641,-0.18846 -2.52079,-1.1437 -2.78966,-1.06391c-0.41527,0.12315 -1.59874,0.96511 -1.93769,1.07238c-1.2155,0.38469 -2.75979,0.86971 -3.24072,1.00421c-0.8691,0.24306 -1.90704,0.61042 -2.48751,0.58688c-1.13963,-0.04621 -2.78944,-0.10745 -4.06923,-0.2481c-0.93436,-0.10265 -1.68635,-0.39476 -1.79723,-0.51779c-0.19033,-0.21131 -0.89422,-0.70649 -1.11434,-1.24301c-0.35496,-0.86512 -0.15331,-3.14626 -0.15331,-3.14626" fill="none" stroke="#3b3045" stroke-width="1" stroke-linecap="round"/></g></g></svg>