<svg version="1.1" xmlns="http://www.w3.org/2000/svg" xmlns:xlink="http://www.w3.org/1999/xlink" width="334.65108" height="601.18151" viewBox="0,0,334.65108,601.18151"><g transform="translate(-72.72615,119.99403)"><g data-paper-data="{&quot;isPaintingLayer&quot;:true}" fill-rule="nonzero" stroke-linejoin="miter" stroke-miterlimit="10" stroke-dasharray="" stroke-dashoffset="0" style="mix-blend-mode: normal"><path d="M378.45013,-18.11175c7.6187,6.14571 27.60821,38.18874 27.60821,38.18874c0,0 -97.77802,78.32075 -98.68332,77.59049c-7.65188,-6.17248 -34.27743,-40.19899 -26.41192,-63.33646l66.97995,-53.73138z" data-paper-data="{&quot;index&quot;:null}" fill="#e1e2db" stroke="#3a2f41" stroke-width="2" stroke-linecap="butt"/><g><g stroke-linecap="butt"><path d="M156.01618,401.7347l29.93971,-109.50584l28.84434,6.87328l-17.0254,105.61887z" fill="#e1e2db" stroke="none" stroke-width="0"/><path d="M180.95832,313.07719l4.44577,-21.02601l30.87526,7.11641l-3.77577,20.38852z" fill="#8c9ca0" stroke="none" stroke-width="0"/><path d="M157.16785,400.32902l28.23626,-108.27781l30.57856,6.82819l-18.15078,106.83187z" fill="none" stroke="#3a2f41" stroke-width="2"/></g><path d="M207.74366,335.17823l-31.47273,-4.58271" fill="none" stroke="#3a2f41" stroke-width="2" stroke-linecap="round"/><g><path d="M116.93472,478.7217l27.85607,-48.00202l16.51627,-46.28352l39.72854,3.99781l-9.68834,61.21348z" fill="#3a2f41" stroke="#3a2f41" stroke-width="2.5" stroke-linecap="butt"/><path d="M165.10248,364.84657l5.5123,10.62047l23.29237,3.87334l10.0333,-6.63979l7.77443,14.30057l-5.92915,7.62112l3.0232,9.92512l-17.49161,6.90475l-30.03942,-4.77936l-12.64116,-10.80214l6.22015,-9.03117l-3.35264,-10.67644z" fill="#3a2f41" stroke="#3a2f41" stroke-width="2.5" stroke-linecap="butt"/><path d="M197.06218,410.36934l-9.60009,1.71875l-22.83371,-3.71436l-7.83724,-5.03692" fill="none" stroke="#8c9ca0" stroke-width="1.5" stroke-linecap="round"/></g></g><g data-paper-data="{&quot;index&quot;:null}"><g stroke-linecap="butt"><path d="M267.64251,394.94929l4.88534,-106.87067l29.63996,-0.84271l6.96406,113.31115z" fill="#e1e2db" stroke="none" stroke-width="0"/><path d="M270.60237,308.57086l0.46414,-20.73l31.67777,-0.66629l0.06168,21.49079z" fill="#8c9ca0" stroke="none" stroke-width="0"/><path d="M267.38461,395.90707l4.03116,-108.2878l31.32849,-0.44467l5.54704,111.76135z" fill="none" stroke="#3a2f41" stroke-width="2"/></g><path d="M272.07431,324.83556l31.74564,1.93602" fill="none" stroke="#3a2f41" stroke-width="2" stroke-linecap="round"/><g><path d="M264.70634,441.24016l3.00669,-61.90246l39.70839,4.19329l2.3403,29.455l39.05373,34.66878z" fill="#3a2f41" stroke="#3a2f41" stroke-width="2.5" stroke-linecap="butt"/><path d="M318.76707,376.43417l-5.46072,9.76766l4.24637,10.11041l-14.57945,7.99531l-30.38262,-1.45103l-15.71459,-10.32879l4.98489,-9.09937l-4.24923,-8.67066l10.52901,-12.41323l8.46727,8.54747l23.59265,0.96119l7.56351,-9.27216z" fill="#3a2f41" stroke="#3a2f41" stroke-width="2.5" stroke-linecap="butt"/><path d="M308.04633,401.95731l-8.70017,3.33168l-23.1112,-1.02322l-9.04736,-3.64157" fill="none" stroke="#8c9ca0" stroke-width="1.5" stroke-linecap="round"/></g></g><g stroke="#3a2f41" stroke-width="2"><g data-paper-data="{&quot;index&quot;:null}"><path d="M256.25427,292.19922l3.62016,-88.58582l47.69164,-2.17346l9.97046,91.47907c0,0 -8.33002,10.38186 -31.97533,10.53873c-23.64531,0.15687 -29.30693,-11.2585 -29.30693,-11.2585z" data-paper-data="{&quot;index&quot;:null}" fill="#e1e2db" stroke-linecap="butt"/><path d="M310.48684,241.02903l-18.18066,-3.41607l-1.12081,-30.38703" fill="none" stroke-linecap="round"/><path d="M310.53486,235.53468l-11.98892,-2.09054l-1.71891,-27.3159" fill="none" stroke-linecap="round"/></g><path d="M315.60467,278.53716c0,0 -5.2331,8.16963 -26.6675,11.19348c-18.23149,2.572 -30.92021,-7.36685 -30.92021,-7.36685" data-paper-data="{&quot;index&quot;:null}" fill="none" stroke-linecap="round"/></g><g data-paper-data="{&quot;index&quot;:null}" stroke="#3a2f41" stroke-width="2"><g data-paper-data="{&quot;index&quot;:null}"><path d="M232.49411,301.21261c0,0 -11.65425,6.56631 -32.29246,5.02344c-18.84413,-1.40876 -28.18407,-11.62179 -28.18407,-11.62179l19.51581,-88.89367l49.96245,4.57886l-9.00171,90.91316z" data-paper-data="{&quot;index&quot;:null}" fill="#e1e2db" stroke-linecap="butt"/><path d="M205.88947,211.57761l-6.79855,30.28792l-13.86461,2.32899" fill="none" stroke-linecap="round"/><path d="M199.57227,210.56848l-5.19988,26.30972l-8.00572,1.53774" fill="none" stroke-linecap="round"/></g><path d="M232.94844,287.83642c0,0 -15.44294,7.27919 -33.71566,3.3945c-21.48287,-4.56716 -24.2495,-11.49135 -24.2495,-11.49135" data-paper-data="{&quot;index&quot;:null}" fill="none" stroke-linecap="round"/></g><g><g data-paper-data="{&quot;index&quot;:null}" stroke-linecap="butt"><path d="M234.17321,250.37457v-39.09696h29.52159l3.13108,33.19552z" fill="#8c9ca0" stroke="#3a2f41" stroke-width="2"/><path d="M233.72595,247.94848v-39.09696h29.52159l3.13108,33.19554z" fill="#e1e2db" stroke="#e1e2db" stroke-width="3.5"/></g><path d="M255.55493,209.9691l-1.5252,24.35022l-2.37254,14.91176" data-paper-data="{&quot;index&quot;:null}" fill="none" stroke="#3a2f41" stroke-width="2" stroke-linecap="round"/><path d="M264.19773,207.61683l-2.37254,22.19426l-7.79549,4.50822" data-paper-data="{&quot;index&quot;:null}" fill="none" stroke="#3a2f41" stroke-width="2" stroke-linecap="round"/></g><path d="M309.71385,153.41959c-0.91545,1.56658 -2.3372,52.01323 -2.3372,52.01323c0,0 -57.26182,26.51103 -119.56798,4.39189c-3.69455,-21.66048 -11.14358,-56.21515 -20.28879,-82.80282c-9.63943,-28.0245 -12.91078,-51.64639 -13.22688,-58.67826c-0.85566,-19.0346 38.25714,-36.25462 87.36089,-38.46198c12.59495,-0.56619 28.7468,0.30285 44.19567,-4.66924c12.02917,-3.87148 26.58794,17.28713 31.38873,29.7252c12.92756,33.49312 -7.52444,98.48199 -7.52444,98.48199z" fill="#3a2f41" stroke="#3a2f41" stroke-width="2" stroke-linecap="butt"/><path d="M145.5211,170.51785c0,0 -21.09804,7.62882 -29.9281,2.59534c-8.50387,-4.84753 -34.63466,-2.73672 -34.63466,-2.73672l39.12342,-107.45573l52.12856,-17.47237l22.29476,48.19255l-12.94855,41.31511l-13.92584,-3.56109z" fill="#e1e2db" stroke="#3a2f41" stroke-width="2" stroke-linecap="butt"/><path d="M117.15961,153.13762l19.42107,0.04303l38.32146,29.81442l14.99249,-5.19958l11.51798,15.74227l-9.42383,-4.00528l20.87566,10.53334l-6.15559,19.96627l-7.39404,-2.13335l-15.48648,29.87644l-25.11253,-7.1057l-84.77415,-52.94445l34.31371,-94.78631" fill="#e1e2db" stroke="#3a2f41" stroke-width="2" stroke-linecap="round"/><g fill="#e1e2db" stroke="#3a2f41" stroke-width="2"><path d="M332.24912,-6.21347l-13.70183,-37.81794l-23.75132,-5.22069l-1.41311,-24.50359c0,0 17.0814,6.65456 16.25747,4.29508c-0.82393,-2.35948 -14.83418,-31.77734 -14.83418,-31.77734l17.7156,-5.08103l12.60307,26.02564l-12.48516,-26.50902l19.801,-3.68216l13.48062,25.27663l14.85318,-3.04747l44.82137,107.66637" stroke-linecap="round"/><path d="M334.22294,-72.7217l4.5,-25l21,8l-5,20.5z" stroke-linecap="butt"/></g><g stroke="#8c9ca0" stroke-linecap="butt"><path d="M270.97745,41.90108c10.50939,29.38108 3.53664,58.74062 -15.57406,65.57638c-19.1107,6.83575 -43.12253,-11.44085 -53.63192,-40.82193c-10.50939,-29.38108 -3.53664,-58.74062 15.57406,-65.57638c19.1107,-6.83575 43.12253,11.44085 53.63192,40.82193z" fill="none" stroke-width="2"/><path d="M252.06065,133.16608l-5.10203,-13.67562c0,0 -5.85982,-0.45495 -7.87058,-7.07686c-1.85943,-6.12354 3.33706,-11.24957 4.6184,-11.77255c5.90412,-2.4098 15.4788,-3.45053 15.4788,-3.45053l8.35421,31.92502z" fill="#3a2f41" stroke-width="0.5"/><path d="M249.93006,109.99246l-0.38826,-1.75763l9.37402,-2.0707l0.38826,1.75763z" fill="#8c9ca0" stroke-width="0.5"/></g><g stroke="#3a2f41"><g stroke-width="2" stroke-linecap="butt"><path d="M226.43709,-11.36044l5.8257,-4.69953l65.1743,11.06585l-9.0034,22.70398z" data-paper-data="{&quot;index&quot;:null}" fill="#3a2f41"/><path d="M289.17854,-53.55265l7.02909,23.80706c0,0 -49.08098,19.84242 -82.32463,19.70307c-10.73178,-1.42033 -6.65414,-10.09579 -1.4717,-10.44961c47.65351,-15.63676 76.76725,-33.06051 76.76725,-33.06051z" data-paper-data="{&quot;index&quot;:null}" fill="#3a2f41"/><path d="M264.27626,-92.06535l15.73432,20.80486c0,0 -21.42351,40.89893 -72.64637,50.5785c-10.65415,2.01331 -7.19432,-8.81991 -2.38374,-10.7862c47.6027,-19.4572 59.2958,-60.59716 59.2958,-60.59716z" data-paper-data="{&quot;index&quot;:null}" fill="#3a2f41"/><path d="M222.53619,-116.99499l21.71977,10.15735c0,0 -3.22963,42.93031 -29.99571,79.43121c-7.53791,6.89281 -13.92684,-5.04418 -11.04723,-9.00341c18.54177,-41.04492 19.32317,-80.58512 19.32317,-80.58512z" data-paper-data="{&quot;index&quot;:null}" fill="#3a2f41"/><path d="M165.29254,-106.4632l23.50052,-12.2585c0,0 30.96007,39.78174 19.08658,90.54093c-2.46964,10.55772 -10.97661,3.01049 -10.82836,-2.1843c1.46722,-51.40474 -31.75873,-76.09811 -31.75873,-76.09811z" fill="#3a2f41"/><path d="M123.56588,-62.39224l10.02599,-24.53618c0,0 49.32938,10.37909 73.04467,56.80172c4.93269,9.65574 -6.43645,9.38728 -9.67807,5.3253c-32.07737,-40.19502 -73.39258,-37.59082 -73.39258,-37.59082z" fill="#3a2f41"/><path d="M115.76242,-7.53625l-4.74629,-26.07716c0,0 47.16782,-17.78508 92.13103,8.59267c9.35217,5.48648 -0.37643,11.37573 -5.29411,9.69518c-48.66259,-16.62983 -82.0906,7.78931 -82.0906,7.78931z" fill="#3a2f41"/><path d="M134.56117,35.69749l-14.63008,-22.10217c0,0 36.35565,-34.91961 88.07266,-28.3754c10.75695,1.36118 4.13284,10.60512 -1.0493,10.9965c-51.27963,3.87291 -72.39327,39.48109 -72.39327,39.48109z" fill="#3a2f41"/><path d="M176.0316,68.02324l-22.94206,-13.27429c0,0 17.00081,-47.45614 66.22079,-64.62786c10.23756,-3.57166 8.42321,7.65496 3.95757,10.31317c-44.18929,26.30409 -47.23629,67.58902 -47.23629,67.58902z" fill="#3a2f41"/><path d="M266.29193,-35.0506c8.08836,27.04914 -7.76965,55.6794 -35.41988,63.94752c-27.65023,8.26812 -56.62209,-6.95692 -64.71046,-34.00604c-8.08836,-27.04914 7.76966,-55.67941 35.41988,-63.94752c27.65023,-8.26812 56.62208,6.95692 64.71045,34.00605z" fill="#e1e2db"/></g><path d="M268.26614,-21.27142c0,0 -10.12714,15.96057 -44.79126,21.41955c-35.87217,5.64924 -59.32753,-20.05484 -59.32753,-20.05484" fill="none" stroke-width="2" stroke-linecap="round"/><path d="M175.93243,-10.14327l8.44792,32.18079" fill="none" stroke-width="2" stroke-linecap="round"/><path d="M204.7115,29.52677l-6.03204,-30.11811" fill="none" stroke-width="2" stroke-linecap="round"/><path d="M223.23823,0.92657l5.54747,27.66391" fill="none" stroke-width="2" stroke-linecap="round"/><path d="M249.13242,18.67922l-1.65038,-24.39653" fill="none" stroke-width="2" stroke-linecap="round"/><path d="M260.47752,6.58882l-0.98771,-18.41312" fill="none" stroke-width="2" stroke-linecap="round"/><path d="M176.63212,-23.47662l40.28429,10.73432c0,0 -7.19313,6.52759 -21.76588,3.49874c-14.60655,-3.03587 -18.51841,-14.23306 -18.51841,-14.23306z" fill="none" stroke-width="2" stroke-linecap="butt"/><g stroke-linecap="butt"><path d="M255.69916,-62.15047c0,0 -48.18526,16.22968 -65.26162,23.35646c-12.1748,5.08112 -28.24301,19.58593 -28.24301,19.58593c0,0 -8.75624,-10.11674 -7.55267,-18.53506c0.98407,-6.883 13.96857,-13.47837 13.96857,-13.47837c0,0 -1.0474,-28.94262 25.93671,-44.25464c23.97041,-13.60191 46.49006,-0.89493 55.58245,10.87628c7.9495,10.29163 5.56957,22.44939 5.56957,22.44939z" fill="#8c9ca0" stroke-width="2"/><path d="M208.62306,-83.80968c5.89172,-7.0504 16.64023,-7.77501 24.0075,-1.6185c7.36726,6.15651 8.56342,16.86282 2.6717,23.91322c-5.89172,7.05038 -16.64025,7.77502 -24.00751,1.6185c-7.36726,-6.15651 -8.56342,-16.86282 -2.6717,-23.91322z" fill="#e1e2db" stroke-width="2"/><path d="M201.45381,-43.61025c0,0 40.28705,-25.05219 67.09178,-38.15477c26.80473,-13.10258 30.22151,-11.85467 32.5042,-7.59066c2.28269,4.26401 5.97288,9.76153 -20.83185,22.86412c-26.80473,13.10258 -78.76412,22.88129 -78.76412,22.88129z" fill="#8c9ca0" stroke-width="2"/><text transform="translate(218.57166,-62.3087) rotate(-23.7513) scale(0.57367,0.57367)" font-size="40" xml:space="preserve" data-paper-data="{&quot;index&quot;:null}" fill="#3a2f41" fill-rule="nonzero" stroke="#3a2f41" stroke-width="3" stroke-linecap="butt" stroke-linejoin="miter" stroke-miterlimit="10" stroke-dasharray="" stroke-dashoffset="0" font-family="Handwriting" font-weight="normal" text-anchor="start" style="mix-blend-mode: normal"><tspan x="0" dy="0">B</tspan></text></g><path d="M247.2053,-19.60105c-10.21157,7.71797 -17.93916,4.01334 -17.93916,4.01334l27.43746,-23.54709c0,0 0.73695,11.79788 -9.4983,19.53375z" data-paper-data="{&quot;index&quot;:null}" fill="none" stroke-width="2" stroke-linecap="butt"/></g></g></g></svg>