<svg version="1.1" xmlns="http://www.w3.org/2000/svg" xmlns:xlink="http://www.w3.org/1999/xlink" width="143.60287" height="225.99598" viewBox="0,0,143.60287,225.99598"><defs><linearGradient x1="1077.66312" y1="216.06021" x2="1077.66312" y2="354.07601" gradientUnits="userSpaceOnUse" id="color-1"><stop offset="0" stop-color="#ffffff" stop-opacity="0.26046"/><stop offset="1" stop-color="#ffffff" stop-opacity="0"/></linearGradient><linearGradient x1="1077.66312" y1="216.06021" x2="1077.66312" y2="354.07601" gradientUnits="userSpaceOnUse" id="color-2"><stop offset="0" stop-color="#ffffff" stop-opacity="0.26046"/><stop offset="1" stop-color="#ffffff" stop-opacity="0"/></linearGradient><linearGradient x1="1077.66312" y1="216.06021" x2="1077.66312" y2="354.07601" gradientUnits="userSpaceOnUse" id="color-3"><stop offset="0" stop-color="#ffffff" stop-opacity="0.26046"/><stop offset="1" stop-color="#ffffff" stop-opacity="0"/></linearGradient><linearGradient x1="1036.02754" y1="220.12049" x2="1036.02754" y2="358.13627" gradientUnits="userSpaceOnUse" id="color-4"><stop offset="0" stop-color="#ffffff" stop-opacity="0.26046"/><stop offset="1" stop-color="#ffffff" stop-opacity="0"/></linearGradient><linearGradient x1="1036.02754" y1="220.12049" x2="1036.02754" y2="358.13627" gradientUnits="userSpaceOnUse" id="color-5"><stop offset="0" stop-color="#ffffff" stop-opacity="0.26046"/><stop offset="1" stop-color="#ffffff" stop-opacity="0"/></linearGradient><linearGradient x1="1036.02754" y1="220.12049" x2="1036.02754" y2="358.13627" gradientUnits="userSpaceOnUse" id="color-6"><stop offset="0" stop-color="#ffffff" stop-opacity="0.26046"/><stop offset="1" stop-color="#ffffff" stop-opacity="0"/></linearGradient><linearGradient x1="245.65175" y1="104.44022" x2="245.71097" y2="184.62867" gradientUnits="userSpaceOnUse" id="color-7"><stop offset="0" stop-color="#cedee0" stop-opacity="0"/><stop offset="1" stop-color="#cedee0" stop-opacity="0.19676"/></linearGradient></defs><g transform="translate(-175.01827,-59.26035)"><g data-paper-data="{&quot;isPaintingLayer&quot;:true}" fill-rule="nonzero" stroke-linejoin="miter" stroke-miterlimit="10" stroke-dasharray="" stroke-dashoffset="0" style="mix-blend-mode: normal"><path d="" fill="#3a2f41" stroke="none" stroke-width="0" stroke-linecap="butt"/><path d="" fill="#3a2f41" stroke="url(#color-1)" stroke-width="0.5" stroke-linecap="butt"/><path d="" fill="#3a2f41" stroke="url(#color-2)" stroke-width="0.5" stroke-linecap="butt"/><path d="" fill="#3a2f41" stroke="url(#color-3)" stroke-width="0.5" stroke-linecap="butt"/><path d="" data-paper-data="{&quot;index&quot;:null}" fill="#3a2f41" stroke="url(#color-4)" stroke-width="0.5" stroke-linecap="butt"/><path d="" data-paper-data="{&quot;index&quot;:null}" fill="#3a2f41" stroke="url(#color-5)" stroke-width="0.5" stroke-linecap="butt"/><path d="" data-paper-data="{&quot;index&quot;:null}" fill="#3a2f41" stroke="url(#color-6)" stroke-width="0.5" stroke-linecap="butt"/><g data-paper-data="{&quot;index&quot;:null}" stroke="#3a2f41" stroke-linecap="butt"><path d="M185.15541,114.46745l3.44775,-12.64525l6.69535,5.4234l-4.98853,-9.06217l14.50709,-17.33458c0,0 1.8865,17.28099 7.19317,33.08817c2.05998,3.54917 -6.00274,9.11614 -6.00274,9.11614z" fill="#3a2f41" stroke-width="1.5"/><path d="M211.05016,120.35504c-1.73369,-1.54485 2.27545,-20.17728 5.16947,-24.1496c1.17059,-1.60672 12.75951,13.75226 11.27135,15.79488c-2.89402,3.97231 -13.87004,10.64545 -15.60372,9.10062z" data-paper-data="{&quot;index&quot;:null}" fill="#8c9ca0" stroke-width="2"/><path d="M211.73242,120.54707c1.44337,1.83307 -5.95462,15.15862 -9.45026,18.02025c-1.79752,1.47151 -14.27689,-13.15254 -12.86297,-14.31001c3.49563,-2.86162 20.17295,-6.42838 21.61631,-4.59531z" fill="#e1e2db" stroke-width="1.5"/><path d="M215.52418,116.98162c1.36858,2.67638 0.67229,6.03884 -1.55523,7.51027c-2.22748,1.47141 -5.1427,0.49459 -6.51128,-2.18182c-1.36858,-2.67638 -0.67229,-6.03884 1.55523,-7.51026c2.22748,-1.47141 5.1427,-0.49458 6.51128,2.18181z" fill="#e1e2db" stroke-width="2"/></g><path d="M290.32021,179.41001l-17.93414,-2.08344l-0.04586,-10.21871c0,0 -1.17512,10.37854 -1.57192,10.26383c-5.07451,-0.42416 -10.09765,-0.76364 -14.90157,-1.03535c-20.18127,-1.14138 -36.49382,-1.08633 -36.49382,-1.08633c0,0 -6.25348,-11.70244 -6.26183,-22.66941c-0.00584,-7.66392 0.82442,-22.80464 11.08609,-34.60266c8.27608,-9.51516 22.8051,-12.48243 25.81899,-12.61414c2.40993,-0.10533 12.59341,3.82643 18.63109,9.81278c10.05021,9.9648 21.32046,32.43343 21.32046,32.43343z" fill="#3a2f41" stroke="none" stroke-width="0" stroke-linecap="butt"/><g stroke-linecap="butt"><path d="M279.97615,150.43066c0.00516,6.79026 1.48213,12.84684 -3.10979,17.23381c-4.4638,4.26456 -14.48619,5.74397 -24.71616,5.98256c-10.18197,0.23749 -20.40539,-2.18699 -24.9037,-6.62086c-4.55079,-4.48558 -3.67985,-9.81336 -3.68497,-16.54772c-0.01017,-13.39106 8.55912,-30.40792 32.2314,-29.6895c15.57176,0.47257 24.17307,16.25062 24.18325,29.6417z" fill="#e1e2db" stroke="none" stroke-width="0"/><path d="M279.97615,150.43066c0.01019,13.39106 -11.50759,4.97913 -24.28248,5.09621c-12.77232,0.11705 -32.12199,8.34266 -32.13216,-5.04841c-0.01017,-13.39106 8.55912,-30.40792 32.2314,-29.6895c15.57176,0.47257 24.17307,16.25063 24.18325,29.6417z" fill="#b8c1c0" stroke="none" stroke-width="0"/><path d="M260.20639,121.36101c12.77537,2.99763 20.73012,16.46538 20.73929,28.53226l0.00041,0.53656c0.00483,6.35193 0.26924,12.3272 -3.70553,16.62929c-4.40481,4.76752 -13.81729,6.33315 -24.7266,6.5876c-7.53664,0.17578 -16.66062,-1.2534 -20.99535,-3.81206c-7.44598,-4.39513 -7.95062,-10.8924 -7.95704,-19.35621c-0.00865,-11.36644 6.16403,-25.3452 22.50743,-28.87296" fill="none" stroke="#3a2f41" stroke-width="2"/></g><path d="M206.75057,171.88213l-8.41105,-7.09488c0,0 -2.03058,-23.61536 7.44935,-38.97363c12.22761,-19.80966 33.81419,-27.51427 55.12888,-21.83416c4.56609,1.21681 16.08051,5.39073 22.8394,13.82202c8.11936,10.12839 10.92589,23.01764 10.92589,23.01764l-4.53206,-0.7696l0.87513,10.18905c0,0 -2.49089,-0.68892 -2.50721,-0.90541c-0.36571,-4.85065 -1.29316,-9.66577 -1.29316,-9.66577c0,0 0.69803,3.93594 0.25517,9.75448c-2.59902,-0.52588 -17.06473,-2.16951 -17.06473,-2.16951l-1.97056,-4.37113l-0.34536,4.09544l-12.5657,-1.2472l-1.35054,-15.4024l-0.1835,14.99509c0,0 -11.24309,-0.10396 -16.68012,0.11771c-0.3835,0.01564 -1.8436,-6.46725 -1.8436,-6.46725c0,0 -0.1318,6.76685 -0.41828,6.77251c-3.38619,0.06673 -8.0528,0.73397 -8.0528,0.73397c0,0 0.08738,34.19596 -0.03667,34.21152c-1.92947,0.24238 -18.31979,-6.26066 -18.29349,-7.66995c0.038,-2.03591 -1.15028,-13.49148 -1.15028,-13.49148z" fill="#3a2f41" stroke="url(#color-7)" stroke-width="0.5" stroke-linecap="butt"/><path d="M257.35549,114.54141c12.44942,-30.80693 36.94643,-42.22806 36.94643,-42.22806l-10.12638,55.55042" fill="#3a2f41" stroke="#3a2f41" stroke-width="1.5" stroke-linecap="round"/><path d="M203.22098,135.94652c9.9032,-46.58239 37.47435,-75.00141 37.47435,-75.00141l4.91008,50.43894" fill="#3a2f41" stroke="#3a2f41" stroke-width="1.5" stroke-linecap="round"/><g stroke="#3a2f41" stroke-linecap="butt"><path d="M226.44885,157.4864c0,0 3.6712,-4.32913 10.58555,-4.58737c7.32577,-0.2736 11.37311,4.66129 11.37311,4.66129c0,0 -4.66158,-0.20861 -11.33595,-0.13823c-5.93088,0.06253 -10.6227,0.06431 -10.6227,0.06431z" fill="#e1e2db" stroke-width="1"/><g fill="#3a2f41" stroke-width="0.5"><path d="M240.08401,157.51342l0.13258,-4.50444l2.74086,0.63453l-0.25313,3.80097z"/></g></g><g><path d="M226.29338,247.31905l48.0244,-0.7853c0,0 5.28896,11.94195 8.66624,19.41765c1.01081,2.23748 1.85037,4.07486 2.32563,5.07225c0.81872,3.0182 1.84682,7.23865 2.99369,12.18631c-24.42462,0.17215 -48.84703,0.47558 -72.95423,0.73453c5.114,-18.14585 10.94429,-36.62542 10.94429,-36.62542z" fill="#e1e2db" stroke="none" stroke-width="0" stroke-linecap="round"/><path d="M214.34089,272.40984c3.19534,-14.32135 15.26578,-29.93679 15.26578,-29.93679l42.83537,-0.96214c0,0 5.70033,10.82614 7.52847,14.99505c1.26759,2.8906 2.38841,7.61937 2.38841,7.61937l-25.25896,18.96617c-15.01087,0.15533 -29.97027,0.33204 -44.80503,0.48907c0.79018,-4.74878 1.51246,-8.77964 2.04595,-11.17073z" fill="#8c9ca0" stroke="none" stroke-width="0" stroke-linecap="butt"/><path d="M213.37644,283.96557c0.83389,-4.66219 1.66403,-8.92134 2.46666,-12.51874c2.8729,-12.87653 13.77556,-28.56137 13.77556,-28.56137l42.48231,-0.50823c0,0 6.72589,8.8977 12.12365,27.34887c0.89614,3.06331 2.10924,7.79848 3.49261,13.48799" fill="none" stroke="#3a2f41" stroke-width="2" stroke-linecap="round"/><path d="M275.84663,249.26053l-20.78879,10.78915l-29.25159,-9.74749" fill="none" stroke="#3a2f41" stroke-width="1.5" stroke-linecap="round"/></g><path d="M252.55479,252.08215c-9.21827,0.02957 -24.26341,-9.84864 -24.26341,-9.84864c0,0 1.23293,-5.14501 2.19457,-7.92908c0.87601,-2.53618 2.82277,-8.10118 2.82277,-8.10118c0,0 0.56263,-3.92979 -1.71349,-8.07906c-1.42604,-2.5996 -9.32627,-13.1153 -9.34163,-13.47799c-0.00295,-0.06973 1.0116,-3.80857 2.70832,-7.7925c1.96945,-4.62426 9.2059,-12.09043 12.48866,-13.84696c3.57641,-1.91366 8.42943,-2.78531 12.14934,-2.68693c5.68502,0.15033 11.56684,1.24983 16.71179,4.0374c1.93883,1.05047 5.45941,3.88028 5.45941,3.88028c0,0 5.97581,7.78965 8.48298,17.2921c-3.70751,10.18282 -12.06907,14.38888 -12.06907,14.38888l-1.02448,6.93058c0,0 2.04432,5.10097 2.85658,7.64502c0.80955,2.53552 2.00893,7.5938 2.00893,7.5938c0,0 -10.25297,9.96474 -19.47125,9.99431z" fill="#3a2f41" stroke="#8c9ca0" stroke-width="1.5" stroke-linecap="round"/><g data-paper-data="{&quot;index&quot;:null}" stroke="#3a2f41" stroke-linecap="butt"><g data-paper-data="{&quot;index&quot;:null}"><g stroke-width="0"><path d="" fill="#e1e2db"/><path d="" fill="#e1e2db"/><path d="" fill="#8c9ca0"/></g><path d="M278.49232,278.72668l37.25081,-2.26596l0.39182,6.61948c-12.44109,0.02396 -24.9126,0.09951 -37.37291,0.20328z" fill="#e1e2db" stroke-width="0"/><path d="M278.49231,278.72668l37.25083,-2.26596l0.3918,6.61949c-12.44109,0.02396 -24.91259,0.09951 -37.37291,0.20328z" fill="#8c9ca0" stroke-width="0"/><path d="M305.50345,277.36022l10.27956,-0.62529l0.37558,6.34523" fill="none" stroke-width="2"/><path d="M278.78566,283.28328l-0.25348,-4.28239l12.11137,-0.73672" fill="none" stroke-width="2"/></g><g data-paper-data="{&quot;index&quot;:null}"><path d="M281.08876,245.07217l-16.39806,-39.41936l5.59036,-15.49799c0,0 8.31892,9.81887 12.89119,16.20517c8.30224,11.5962 32.81026,47.62856 32.81026,47.62856l1.83977,29.08872c-13.03483,0.02017 -26.10513,0.09815 -39.163,0.20707z" fill="#3a2f41" stroke-width="1.5"/><path d="" fill="#8ea8ab" stroke-width="2"/></g></g><g stroke="#3a2f41"><g fill="#e1e2db" stroke-width="2"><path d="" stroke-linecap="round"/><path d="" stroke-linecap="round"/><path d="M195.7209,255.36315l4.91052,-11.47163l1.65973,9.25492l3.94948,-1.9401c0,0 -3.52313,22.83075 -4.12333,29.89603c-0.09192,1.08207 -0.1694,2.08362 -0.23409,2.98133c-6.10541,0.06014 -12.18661,0.11527 -18.2384,0.16249c3.99509,-15.36284 8.91544,-32.50889 8.92531,-32.5433z" stroke-linecap="butt"/><path d="M192.5701,251.70289v0c0.00001,-0.00004 0.00002,-0.00006 0.00002,-0.00006z" stroke-linecap="butt"/></g><g stroke-linecap="butt"><path d="M182.65743,246.0333c0,0 28.35798,-33.08776 37.89666,-43.69023c5.2532,-5.83904 13.81976,-14.25448 13.81976,-14.25448l1.22534,22.63187l-17.27361,30.32674l-2.05114,42.88734c-13.57095,0.14635 -27.04333,0.27932 -40.36139,0.36757z" fill="#3a2f41" stroke-width="1.5"/><path d="M176.89611,278.7187l0.55606,-2.17071l38.75476,5.61099l-0.22884,1.77873c-0.82096,0.00884 -1.64156,0.01764 -2.46178,0.02637z" fill="#8ea8ab" stroke-width="2"/></g></g><g><path d="M258.52466,179.9375c0,2.04567 -5.29309,5.83964 -7.54147,5.83964c-2.24839,0 -7.40799,-3.39354 -7.40799,-5.4392c0,-2.04567 5.35983,-3.17008 7.60821,-3.17008c2.24838,0 7.34127,0.72399 7.34127,2.76966z" fill="#3a2f41" stroke="none" stroke-width="0" stroke-linecap="butt"/><g fill="#8c9ca0" stroke="#8c9ca0" stroke-width="1.5" stroke-linecap="butt"><path d="M233.41624,194.1077c-0.77248,-0.75621 9.55472,-14.67052 9.55472,-14.67052l7.71232,5.82992l8.16733,-6.5042c0,0 10.42614,13.98379 9.82055,14.75081c-0.33485,0.42412 -3.99994,-1.51286 -8.56085,-2.90358c-4.19557,-1.27934 -9.32983,-2.0061 -9.32983,-2.0061c0,0 -5.43509,1.38827 -9.88163,2.90086c-4.06571,1.38303 -7.16051,2.91813 -7.48261,2.60284z"/></g><path d="M242.97454,181.10542l0.50723,-1.92207l7.31457,-2.21572l7.59486,1.64177l0.80087,1.96211" fill="none" stroke="#8c9ca0" stroke-width="2" stroke-linecap="round"/></g><g fill="#8c9ca0" stroke="#3a2f41" stroke-width="1.5" stroke-linecap="butt"><path d="M254.70611,199.05986c-0.10718,1.84615 -1.75807,3.25193 -3.68737,3.13992c-1.92929,-0.11201 -3.4064,-1.6994 -3.29922,-3.54555c0.10718,-1.84615 1.75808,-3.25194 3.68738,-3.13993c1.92929,0.11201 3.4064,1.69942 3.29921,3.54556z"/><path d="M254.77201,209.10244c-0.11091,1.91031 -1.8357,3.364 -3.85243,3.24691c-2.01673,-0.1171 -3.56167,-1.76062 -3.45076,-3.67093c0.11091,-1.91031 1.83569,-3.36399 3.85241,-3.24691c2.01673,0.1171 3.5617,1.76062 3.45079,3.67093z"/></g><path d="" fill="#3a2f41" stroke="#8c9ca0" stroke-width="2" stroke-linecap="butt"/><path d="" fill="#3a2f41" stroke="#8c9ca0" stroke-width="2" stroke-linecap="butt"/><path d="M230.92212,150.575l18.61632,3.725" fill="none" stroke="#3a2f41" stroke-width="1" stroke-linecap="round"/></g></g></svg>