<svg version="1.1" xmlns="http://www.w3.org/2000/svg" xmlns:xlink="http://www.w3.org/1999/xlink" width="213.82798" height="389.50268" viewBox="0,0,213.82798,389.50268"><g transform="translate(-133.21101,14.62634)"><g data-paper-data="{&quot;isPaintingLayer&quot;:true}" fill-rule="nonzero" stroke-linejoin="miter" stroke-miterlimit="10" stroke-dasharray="" stroke-dashoffset="0" style="mix-blend-mode: normal"><g><g><path d="M142.54371,167.77087c0,0 -6.15248,-0.15456 -7.27836,-2.61011c-2.39518,-5.22388 2.89473,-19.9784 2.89473,-19.9784l18.29159,0.5694l13.34563,-8.2193l15.49806,14.27467l3.8172,15.70163l7.91441,2.60771l6.12125,-32.44892l21.10013,4.93793l-12.97598,59.86991l-33.68407,-6.76254l-27.25815,-0.63909z" data-paper-data="{&quot;index&quot;:null}" fill="#e1e2db" stroke="#3a2f41" stroke-width="2" stroke-linecap="butt"/><path d="M154.02408,207.05208l-3.59036,-61.3951l20.96418,-1.22598l3.59036,61.3951z" fill="#595564" stroke="#3a2f41" stroke-width="2" stroke-linecap="butt"/><path d="M183.71101,127.24154c0,13.11676 -11.08095,23.75 -24.75,23.75c-13.66905,0 -24.75,-10.63324 -24.75,-23.75c0,-13.11676 11.08095,-23.75 24.75,-23.75c13.66905,0 24.75,10.63324 24.75,23.75z" fill="#595564" stroke="#3a2f41" stroke-width="2" stroke-linecap="butt"/><path d="M153.11157,171.37926c0,0 -2.27592,1.03451 -3.31042,-1.2414c-0.22555,-0.49621 -0.29373,-0.93341 -0.26246,-1.31374c-0.58535,-0.45756 -0.96162,-1.17023 -0.96162,-1.97078v-2.90626c-0.26503,-2.62969 -0.54507,-5.35419 -1.31301,-7.89505c-0.55274,-1.82883 -2.69061,-3.69316 -1.86938,-5.41819c0.9254,-1.94386 5.84646,-1.22023 7.68115,-1.01808c4.12172,0.45414 9.00743,3.04756 10.37295,7.44702c0.59573,1.91933 0.30372,3.22259 -0.20484,4.64885c0.05423,0.20478 0.08312,0.41988 0.08312,0.64172c0,0.09542 -0.00534,0.18959 -0.01575,0.28223l-0.24666,2.46653l-0.04135,-0.00413c0.00352,0.08022 0.00559,0.1606 0.0061,0.24117c0.00767,1.21087 -0.76823,2.29673 -1.15233,3.4451l-0.7729,0.27193l0.22288,0.29718l-1.97979,1.48485c-0.42123,0.32311 -0.9483,0.51515 -1.52021,0.51515c-0.92897,0 -1.7396,-0.50669 -2.1706,-1.25878c-0.78306,0.44236 -1.62002,0.86148 -2.54489,1.28469z" fill="#e1e2db" stroke="none" stroke-width="0.5" stroke-linecap="butt"/><path d="M142.97585,167.97142l18.77431,-0.11304l0.2924,-2.4992l-0.33417,2.85622l4.63887,27.51795l-16.02018,-0.63001l-7.25,-26.75" fill="#e1e2db" stroke="#3a2f41" stroke-width="2" stroke-linecap="round"/><path d="M163.88131,183.42006l-15.87631,-0.40983" fill="none" stroke="#3a2f41" stroke-width="2" stroke-linecap="round"/><path d="M143.32708,148.85334l17.25,1.25" fill="none" stroke="#3a2f41" stroke-width="2" stroke-linecap="round"/><path d="M172.8251,147.18918l4.16691,13.87838l-14.6342,4.44041l-5.68252,-19.48443l15.90178,-6.6702l10.25,10.25" fill="#e1e2db" stroke="#3a2f41" stroke-width="2" stroke-linecap="round"/></g><path d="M197.69346,171.4604l3.25,-19.25l10.5,4l-4,42.5z" fill="#8c9ca0" stroke="none" stroke-width="0" stroke-linecap="butt"/></g><g data-paper-data="{&quot;index&quot;:null}" stroke-linecap="round"><path d="M227.42613,137.72633l-1.29317,27.21654c0,0 -14.71997,2.1743 -20.49578,-0.32023c-5.43239,-2.34622 -13.19196,-14.22927 -13.19196,-14.22927c0,0 8.55832,-15.3019 13.86316,-28.85824c0.84862,-2.16864 20.72862,-8.24994 20.72862,-8.24994" fill="#8c9ca0" stroke="none" stroke-width="0"/><path d="M226.32651,157.28638c0,0 -12.5598,2.0867 -17.69729,-0.09309c-5.06939,-2.15089 -12.92608,-12.90014 -12.92608,-12.90014" fill="none" stroke="#3a2f41" stroke-width="2"/><path d="M227.42613,137.72633l-1.29317,27.21654c0,0 -14.71997,2.1743 -20.49578,-0.32023c-5.43238,-2.3462 -13.19196,-14.22926 -13.19196,-14.22926c0,0 4.84253,-8.65823 9.50021,-18.71889c1.53427,-3.31405 3.04849,-6.78028 4.36295,-10.13934c0.84862,-2.16864 19.47862,-8.24994 19.47862,-8.24994" fill="none" stroke="#3a2f41" stroke-width="2"/></g><g stroke-linecap="butt"><path d="M246.69151,342.97789c-0.36664,9.2681 -10.12435,6.26947 -17.88959,8.9152c-7.4753,2.54693 -10.93567,6.49052 -19.86756,8.59775c-7.09619,1.67415 -19.73587,1.82038 -25.65952,1.82038c-21.12489,0 -30.25,-4.76801 -27.75,-12.5c2.37875,-7.35698 17.12511,-14 38.25,-14c12.85339,0 28.9341,0.66688 39.3948,2.92326c6.73173,1.45204 13.80274,1.22899 13.52186,4.24341z" fill="#e1e2db" stroke="#3a2f41" stroke-width="2.5"/><g><g><g><path d="M204.23015,299.92072l0.00239,-78.37016l26.88791,-0.53247l-0.00239,78.37016z" fill="#e1e2db" stroke="none" stroke-width="0"/><path d="M203.96463,246.63511l-0.21038,-17.44729l26.88792,-0.53247l-0.00053,17.2302z" fill="#8c9ca0" stroke="none" stroke-width="0"/><path d="M203.75186,299.88301l0.0024,-78.37016l26.88792,-0.53248l-0.00239,78.37016z" fill="none" stroke="#3a2f41" stroke-width="2.5"/></g><path d="M158.60707,352.2304c-8.33513,-5.8213 -7.5597,-25.70958 -3.74828,-29.66316c11.73082,-12.16833 35.60206,-12.00034 35.60206,-12.00034l-7.3933,-18.6599c0,0 37.64866,-5.24003 44.59368,-2.62867c5.49099,2.06464 4.74856,16.04552 4.74856,16.04552l10.08168,-10.23856c0,0 10.71855,7.09043 10.53145,13.13301c-0.08459,2.73203 -8.76685,11.33105 -8.76685,11.33105c0,0 5.76375,22.65007 -3.96491,24.45655c-2.8338,0.5262 -11.64059,0.63685 -15.42707,1.77232c-6.07039,1.82035 -13.05163,7.65936 -21.89235,8.83668c-34.34091,4.5732 -44.36467,-2.38449 -44.36467,-2.38449z" fill="#7c7984" stroke="#3a2f41" stroke-width="2.5"/></g></g><path d="M179.21943,310.3972l7.6378,-5.42781c0,0 7.24322,-0.23604 12.63595,1.92105c2.06613,0.82645 5.36885,2.51885 7.87181,4.16402c3.23265,2.12479 5.46529,4.17082 5.46529,4.17082c0,0 -1.68907,8.46835 -2.97113,7.42781c-11.50715,-9.33938 -30.63973,-12.25589 -30.63973,-12.25589z" fill="#e1e2db" stroke="#3a2f41" stroke-width="2.5"/><path d="M172.14178,314.87664c0,0 1.39085,-4.11741 6.4849,-4.76723c3.80888,-0.48587 11.01089,2.0692 14.06453,3.74582c1.95062,1.071 5.02363,3.15156 7.30852,5.08822c2.95101,2.50126 4.91896,4.80303 4.91896,4.80303c0,0 -2.70391,8.2009 -3.85027,7.01252c-10.28918,-10.66637 -28.92664,-15.88236 -28.92664,-15.88236z" fill="#e1e2db" stroke="#3a2f41" stroke-width="2.5"/></g><g stroke-linecap="butt"><path d="M260.86286,345.5013c-1.31719,-4.37033 1.3591,-10.59019 1.3591,-10.59019c25.23355,0.18564 50.46865,0.24027 75.70293,0.1495c6.36132,12.09339 7.86012,29.16912 -1.16934,34.56889c0,0 -13.15503,9.08018 -43.736,-0.13188c-6.78198,-2.04297 -15.44134,-11.33679 -21.98774,-15.91161c-4.60575,-3.21863 -8.22147,-1.62317 -10.16895,-8.08471z" fill="#e1e2db" stroke="#3a2f41" stroke-width="2.5"/><g><path d="M270.09204,314.13676l-17.22285,-88.06876l26.53819,-4.35525l14.22285,77.06876z" fill="#e1e2db" stroke="none" stroke-width="0"/><path d="M256.45969,242.88824l-3.12699,-16.94407l26.5382,-4.35527l2.95897,17.19583z" fill="#8c9ca0" stroke="none" stroke-width="0"/><path d="M269.55554,311.01289l-16.22285,-85.06875l26.53819,-4.35525l14.22285,77.06875z" fill="none" stroke="#3a2f41" stroke-width="2.5"/></g><path d="M262.19619,341.5013c-2.91815,-5.89996 -0.13492,-21.08333 -0.13492,-21.08333l-9.45406,-18.34508l11.35281,-3.60626l7.33987,11.91994l3.75103,-16.96697l41.54251,-0.29916l-3.16673,16.63195c0,0 5.29086,4.95531 14.44155,11.53765c4.32975,3.11451 9.96145,4.11567 13.22939,9.14526c7.83447,12.05781 5.49818,27.30953 -4.34211,33.19419c-12.67557,7.5802 -42.32845,1.47991 -47.48818,-2.3171c-6.59441,-4.85279 -7.81363,-6.27955 -16.25273,-13.59833c-2.72737,-2.36531 -9.4008,-3.34658 -10.81843,-6.21276z" fill="#7c7984" stroke="#3a2f41" stroke-width="2.5"/><path d="M291.74428,329.37429c-1.36987,0.92186 -2.29579,-7.6635 -2.29579,-7.6635c0,0 2.40647,-1.83842 5.81599,-3.66598c2.6399,-1.41503 6.08058,-2.80566 8.21228,-3.44426c5.56385,-1.66679 12.5837,-1.35989 12.5837,-1.35989l7.29579,6.66351c0,0 -19.31661,1.19591 -31.61197,9.47013z" data-paper-data="{&quot;index&quot;:null}" fill="#e1e2db" stroke="#3a2f41" stroke-width="2.5"/><path d="M300.96013,339.82388c-1.35106,0.94923 -2.44947,-7.61578 -2.44947,-7.61578c0,0 2.36902,-1.88646 5.74108,-3.78222c2.61091,-1.46785 6.02292,-2.92739 8.14134,-3.60874c5.5292,-1.77836 13.19934,-1.37975 13.19934,-1.37975l6.78279,6.28245c0,0 -19.28865,1.58419 -31.4151,10.10404z" data-paper-data="{&quot;index&quot;:null}" fill="#e1e2db" stroke="#3a2f41" stroke-width="2.5"/></g><g data-paper-data="{&quot;index&quot;:null}" stroke="#8c9ca0" stroke-width="2"><path d="M189.04671,259.47639l14.29949,-70.80859l36.84841,1.91187l1.30658,69.64042z" data-paper-data="{&quot;index&quot;:null}" fill="#3a2f41" stroke-linecap="butt"/><path d="M215.70834,192.6098l-2.64321,19.79811l-14.2949,2.03829" fill="none" stroke-linecap="round"/><path d="M212.32351,194.67208l-1.87368,14.4839l-10.84993,1.41404" fill="none" stroke-linecap="round"/></g><g stroke="#8c9ca0" stroke-width="2"><path d="M242.67025,262.67608l-1.00001,-68.96922l37.06322,-3.66009l18.16016,69.96399z" data-paper-data="{&quot;index&quot;:null}" fill="#3a2f41" stroke-linecap="butt"/><path d="M284.58076,215.57869l-14.51123,-1.35697l-3.6124,-19.65022" fill="none" stroke-linecap="round"/><path d="M283.55878,211.74631l-11.00777,-0.89706l-2.58221,-14.37855" fill="none" stroke-linecap="round"/></g><g stroke-linecap="butt"><path d="M227.0978,205.82081l1.23334,-17.41208l25.20913,-2.1125l1.6964,20.24369z" fill="#8c9ca0" stroke="#8c9ca0" stroke-width="2"/><path d="M227.2877,203.49708l1.23334,-17.41208l25.20913,-2.11249l1.6964,20.24367z" fill="#3a2f41" stroke="#3a2f41" stroke-width="3.5"/></g><g><g data-paper-data="{&quot;index&quot;:null}" stroke-linecap="butt"><path d="M201.59958,192.88335l1.59113,-5.97319l4.72147,-24.57158l5.12028,-44.48399c0,0 21.2264,-8.65132 32.24233,-8.60402c11.58042,0.04972 34.63139,9.16862 34.63139,9.16862l1.34853,76.54051z" fill="#e1e2db" stroke="none" stroke-width="0"/><path d="M280.07434,127.96438c-25.07053,5.77399 -27.66284,7.63051 -62.70735,17.56735c-2.58851,0.73397 -5.17891,1.46401 -7.77208,2.18752l3.43754,-29.86468c0,0 21.2264,-8.65132 32.24233,-8.60402c11.58043,0.04972 34.6314,9.16863 34.6314,9.16863z" fill="#8c9ca0" stroke="none" stroke-width="0"/><path d="M201.59955,192.88333l1.59113,-5.97319l4.72147,-24.57158l5.12028,-44.48399c0,0 21.2264,-8.65133 32.24233,-8.60403c11.58043,0.04972 34.6314,9.16863 34.6314,9.16863l1.34853,76.54051z" fill="none" stroke="#3a2f41" stroke-width="2"/></g><g data-paper-data="{&quot;index&quot;:null}"><path d="M231.82253,111.7998c-0.44877,-0.24262 2.41269,-3.55065 2.85571,-3.80373c0.17757,-0.0434 0.4555,-0.32267 1.08914,0.05415c2.89372,1.72088 9.53805,6.76726 9.53805,6.76726l-10.11417,6.13715z" data-paper-data="{&quot;index&quot;:null}" fill="#8c9ca0" stroke="#3a2f41" stroke-width="4.5" stroke-linecap="round"/><path d="M245.33157,114.84943c0,0 -7.91561,-6.07157 -4.53732,-7.41248c4.0195,-1.59542 19.50989,1.47324 20.47952,1.14236c0.98425,-1.24641 2.76383,3.29107 2.77371,4.33171c-0.96599,2.07915 -10.75305,8.73234 -10.75305,8.73234z" fill="#3a2f41" stroke="#3a2f41" stroke-width="4.5" stroke-linecap="round"/><path d="M233.71544,111.52881c0.01827,-0.35913 1.19403,-3.22133 2.1988,-3.55288c0.59264,-0.42575 11.46173,-4.10016 12.93277,-3.87401c2.32522,0.35747 11.69744,3.99762 12.6457,4.7231c0.5211,0.21759 0.62902,2.6804 0.61312,3.68302" fill="none" stroke="#3a2f41" stroke-width="6.5" stroke-linecap="butt"/><g><path d="M231.82253,111.7998c-0.44877,-0.24262 2.41269,-3.55065 2.85571,-3.80373c0.17757,-0.0434 0.45548,-0.32267 1.08914,0.05415c2.89371,1.72088 9.53805,6.76726 9.53805,6.76726l-10.11417,6.13715z" data-paper-data="{&quot;index&quot;:null}" fill="#8c9ca0" stroke="#12161a" stroke-width="0" stroke-linecap="round"/><path d="M245.33157,114.84941c0,0 14.15763,-5.66115 15.94219,-6.27012c0.98425,-1.2464 2.76384,3.29109 2.77372,4.33172c-0.966,2.07914 -10.75306,8.73234 -10.75306,8.73234z" fill="#8c9ca0" stroke="#12161a" stroke-width="0" stroke-linecap="round"/><path d="M233.71544,111.52874c0.01827,-0.35913 1.19403,-3.22134 2.1988,-3.55288c0.59264,-0.42575 11.46173,-4.10015 12.93277,-3.874c2.32522,0.35747 11.69744,3.99762 12.6457,4.72309c0.5211,0.21759 0.62902,2.6804 0.61312,3.68302" fill="none" stroke="#8c9ca0" stroke-width="2" stroke-linecap="butt"/></g></g></g><g><path d="M271.51846,212.5604l-3.4,-18l17,-13l-4.67426,-26.497l20.36103,-4.32007l14.51323,40.81707l-30.00443,22.13143z" fill="#e1e2db" stroke="#3a2f41" stroke-width="2" stroke-linecap="butt"/><path d="M285.19346,176.2104l-1.5,-9.25l18.25,-11.25l4.75,14.5c0,0 -6.24496,3.9427 -9.53615,4.87197c-3.73569,1.05478 -11.96385,1.12803 -11.96385,1.12803z" fill="#8c9ca0" stroke="none" stroke-width="0" stroke-linecap="butt"/><g><path d="M270.58945,115.09806c0,0 20.57843,7.66913 21.60209,9.76085c6.39896,13.0755 16.18363,27.62381 16.18363,27.62381c0,0 -6.75868,12.47951 -11.9803,15.26343c-5.55173,2.9599 -20.40044,2.00039 -20.40044,2.00039l-3.52134,-27.01874" fill="#e1e2db" stroke="none" stroke-width="0" stroke-linecap="round"/><path d="M304.62782,146.67032c0,0 -6.94847,11.3575 -11.82434,13.91697c-4.94137,2.59386 -17.63001,1.54446 -17.63001,1.54446" fill="none" stroke="#3a2f41" stroke-width="2" stroke-linecap="round"/><path d="M270.76329,130.19057l-0.48263,-16.11745l21.774,10.16577z" fill="#8c9ca0" stroke="none" stroke-width="0" stroke-linecap="butt"/><path d="M270.58944,115.09807c0,0 20.57843,7.66913 21.60209,9.76085c6.39896,13.0755 16.18363,27.62381 16.18363,27.62381c0,0 -6.75868,12.47952 -11.9803,15.26342c-5.55173,2.9599 -20.40044,2.00039 -20.40044,2.00039l-3.52134,-27.01874" fill="none" stroke="#3a2f41" stroke-width="2" stroke-linecap="round"/></g></g><g><path d="M290.62331,64.51496l3.50295,-8.29032l47.56228,18.46833l-12.79874,13.59015z" fill="#3a2f41" stroke="#3a2f41" stroke-width="2" stroke-linecap="butt"/><path d="M279.79367,92.57798l-14.5,-32h30c0,0 3.54401,13.30194 2.05294,20.01176c-1.50872,6.78924 -11.05294,20.48824 -11.05294,20.48824z" fill="#8c9ca0" stroke="#3a2f41" stroke-width="2" stroke-linecap="butt"/><g data-paper-data="{&quot;index&quot;:null}" stroke-linecap="butt"><path d="M204.91284,67.62661c-1.34254,-18.19656 11.14867,-40.50317 36.61415,-42.71622c38.71272,-3.36427 54.48026,18.89341 55.82278,37.08996c1.34256,18.19655 -10.16397,34.55215 -43.77221,35.96929c-16.78545,0.70781 -30.89524,-2.08896 -38.64177,-7.43325c-7.96887,-5.49768 -9.34219,-13.68277 -10.02297,-22.90979z" fill="#e1e2db" stroke="none" stroke-width="0"/><path d="M204.91284,67.62661c-1.34254,-18.19656 11.14867,-40.50317 36.61415,-42.71622c38.71272,-3.36427 54.48026,18.89341 55.82278,37.08996c1.34256,18.19655 -31.19566,8.97178 -52.13426,10.10123c-20.94276,1.12968 -38.96015,13.72158 -40.30269,-4.47497z" fill="#b8c1c0" stroke="none" stroke-width="0"/><path d="M257.57246,25.45159c27.13576,3.1447 38.66821,21.51605 39.80777,36.96143c1.34256,18.19655 -10.16399,34.55213 -43.77222,35.96928c-17.90007,0.75481 -31.21801,-2.20855 -38.91894,-8.24221c-6.94915,-5.44461 -9.10897,-13.46945 -9.74579,-22.10082h-0.00001c-1.20977,-16.39716 6.00286,-45.35738 52.4836,-42.61978" fill="none" stroke="#3a2f41" stroke-width="2"/></g><g data-paper-data="{&quot;index&quot;:null}" stroke="#3a2f41" stroke-width="1" stroke-linecap="round"><path d="M232.46476,92.83652c14.26432,-5.93403 34.34189,-13.48114 34.34189,-13.48114c0,0 1.40603,10.26382 -5.7113,13.14858c-7.36224,2.98404 -19.58625,1.79451 -25.52411,0.9591c-2.12814,-0.29941 -3.10854,-0.57226 -3.10854,-0.57226" data-paper-data="{&quot;index&quot;:null}" fill="#e1e2db"/><path d="M233.99779,92.96131c-0.79656,-0.10761 -0.77506,-0.26545 -0.77506,-0.26545c1.46206,-0.40079 2.66096,-0.95306 2.66096,-0.95306l5.64506,2.07507c0,0 -6.03249,-0.65414 -7.53096,-0.85656z" data-paper-data="{&quot;index&quot;:null}" fill="#3a2f41"/></g><path d="M280.07938,90.57798l-4.28571,-32l30,4l-2.72727,31l-13.99178,-16.71794z" fill="#e1e2db" stroke="#3a2f41" stroke-width="2" stroke-linecap="butt"/><path d="M197.79367,57.57798c0,0 -3.64153,-56.28027 2.5,-63c12.07397,-13.21069 78,-6.5 78,-6.5c0,0 32,28.11937 32,38c0,14.38641 -3.5,38.5 -3.5,38.5l-41.85353,-5.41588c0,0 -14.853,-6.32682 -23.67122,-6.53486c-12.35102,-0.29138 -43.47525,4.95074 -43.47525,4.95074z" fill="#7c7984" stroke="#3a2f41" stroke-width="2" stroke-linecap="butt"/><path d="M181.50409,55.39505c1.00707,-0.85092 -30.27372,-7.06979 -30.27372,-7.06979c0,0 28.96579,-56.21542 60.05731,-49.24727c9.07527,2.03393 24.72674,15.09885 24.72674,15.09885l6.43278,-22.87479l31.67981,69.20721l-41.16166,10.1206l5.73632,-13.30661l-30.63356,4.91034c0,0 -1.38173,12.07966 -0.00139,18.13958c-32.70101,1.00767 -43.6704,9.34596 -43.6704,9.34596c0,0 -3.75566,-16.69558 17.10777,-34.32408z" fill="#e1e2db" stroke="#3a2f41" stroke-width="2" stroke-linecap="butt"/><path d="M310.29367,26.07799c0,14.38641 -3.5,38.5 -3.5,38.5l-34.01694,-4.40183c-2.40582,-11.81921 2.52558,-56.10277 7.47403,-70.34472c6.95195,6.29908 30.04291,27.85329 30.04291,36.24654z" fill="#595564" stroke="#3a2f41" stroke-width="2" stroke-linecap="butt"/><g data-paper-data="{&quot;index&quot;:null}" stroke="#3a2f41" stroke-linecap="butt"><path d="M250.34304,78.89039c0,0 4.41555,-6.27729 14.13687,-7.96268c10.29977,-1.78567 16.89537,3.75813 16.89537,3.75813c0,0 -6.62215,0.64488 -16.0379,2.04209c-8.3669,1.24157 -14.99431,2.16246 -14.99431,2.16246z" fill="#e1e2db" stroke-width="1"/><g fill="#3a2f41" stroke-width="0.5"><path d="M273.57345,75.2861l-0.68792,-4.08674l1.04769,-0.17011l6.91859,3.49455z"/></g></g></g><path d="M251.13862,163.03727c-5.60827,7.42657 -15.10617,9.7078 -21.21414,5.09528c-6.10797,-4.61252 -6.51306,-14.37212 -0.90479,-21.79869c5.60827,-7.42657 15.10617,-9.70781 21.21414,-5.09529c6.10797,4.61252 6.51306,14.37213 0.90479,21.7987z" fill="none" stroke-opacity="0.3619" stroke="#ff0000" stroke-width="4" stroke-linecap="butt"/><path d="M224.98236,145.40672l31.75,18.75" fill="none" stroke="#ec908c" stroke-width="3" stroke-linecap="round"/></g></g></svg>