<svg version="1.1" xmlns="http://www.w3.org/2000/svg" xmlns:xlink="http://www.w3.org/1999/xlink" width="160.41064" height="392.96866" viewBox="0,0,160.41064,392.96866"><g transform="translate(-160.11527,16.35933)"><g data-paper-data="{&quot;isPaintingLayer&quot;:true}" fill-rule="nonzero" stroke-linejoin="miter" stroke-miterlimit="10" stroke-dasharray="" stroke-dashoffset="0" style="mix-blend-mode: normal"><path d="M237.26971,375.26724c-2.80035,0.09844 -36.04856,-64.36527 -38.09059,-99.72389c-1.2018,-20.80957 6.01969,-33.30877 14.21058,-40.96833c12.05871,-11.27649 27.61679,-10.66522 32.9293,0.79862c6.3871,13.7827 7.1822,24.87867 6.15332,42.71618c-2.13794,37.06531 -12.40226,97.07897 -15.20261,97.17742z" fill="#3a2f41" stroke="#3a2f41" stroke-width="2.5" stroke-linecap="butt"/><path d="M163.23329,92.77937c0,0 7.56933,-7.67291 13.10094,-17.56226c3.80766,-6.80729 10.31796,-21.64467 10.31796,-21.64467c0,0 2.30128,-0.6316 2.7181,-1.20473c1.03852,-1.42796 7.80725,-4.58421 7.80725,-4.58421c0,0 3.7663,80.84239 -9.47281,62.88895c-10.13162,-13.73938 -24.47143,-17.89308 -24.47143,-17.89308z" fill="#e1e2db" stroke="#3a2f41" stroke-width="2" stroke-linecap="butt"/><g data-paper-data="{&quot;index&quot;:null}" stroke="#3a2f41" stroke-width="2"><g><g data-paper-data="{&quot;index&quot;:null}" stroke-linecap="butt"><path d="M224.32124,23.32427c-0.54006,2.19457 2.16732,6.28135 -0.75652,9.83307c-10.33597,12.55556 -36.63556,28.36338 -43.53205,18.30457c-5.51977,-8.0508 -11.08689,-36.09937 -8.63768,-46.05192c2.44921,-9.95256 55.37546,7.96174 52.92626,17.91431z" fill="#e1e2db"/><path d="M184.81568,3.01902c15.15029,0.94095 40.30043,14.92407 39.92436,17.56543c-0.37606,2.64137 -12.49198,1.92781 -27.06166,-1.59376c-8.45438,-2.04346 -25.50894,-8.80772 -25.82654,-12.72165c-0.39287,-4.84162 9.60925,-3.45837 12.96382,-3.25002z" fill="#8c9ca0"/></g><path d="M210.13708,34.8295c-6.01812,3.36933 -22.0928,7.02496 -21.43026,0.31568c0.27494,-2.78419 3.15491,-2.78896 14.15658,-3.17969c11.00167,-0.39073 18.3162,-3.40159 18.3162,-3.40159" data-paper-data="{&quot;index&quot;:null}" fill="#b8c1c0" stroke-linecap="round"/></g><g><g stroke-linecap="butt"><path d="M231.61799,22.9573c-5.80331,-8.14968 28.94613,-45.30569 34.74943,-37.15602c5.8033,8.14968 12.32898,36.00791 11.1106,45.54224c-1.38873,10.86729 -28.78343,5.64548 -42.11896,-0.91225c-5.41753,-2.66406 -2.06457,-5.11964 -3.74108,-7.47398z" fill="#e1e2db"/><path d="M230.15225,20.37896c-1.32422,-2.27034 13.05984,-24.934 24.63621,-31.73729c2.56323,-1.50639 9.90935,-6.69544 11.4836,-2.10948c1.27262,3.70727 -9.53891,16.5879 -15.40809,21.77425c-10.11455,8.9378 -19.38751,14.34286 -20.71173,12.07253z" fill="#8c9ca0"/></g><path d="M235.70551,25.43905c0,0 8.15592,-1.25871 16.0386,-2.90602c5.31004,-1.10969 11.386,-4.24184 12.59034,-1.73157c1.25411,2.61404 -1.52301,4.83152 -5.08155,5.67284c-4.6764,1.10561 -10.70225,0.3686 -10.70225,0.3686" fill="#b8c1c0" stroke-linecap="round"/></g><path d="M219.79911,26.7452c-1.57267,-8.25322 1.86005,-9.73611 6.29865,-10.49424c4.43859,-0.75813 8.20224,-0.5044 9.77492,7.74882c1.57267,8.25322 -1.49474,9.67372 -5.93334,10.43185c-4.4386,0.75814 -8.56756,0.56681 -10.14024,-7.68642z" fill="#e1e2db" stroke-linecap="butt"/></g><path d="M247.25211,144.69395c-68.19627,4.04844 -79.17978,-53.5244 -79.17978,-53.5244c0,0 30.9938,28.0298 75.36371,26.78231c39.44444,-1.10901 75.69871,-24.84362 75.69871,-24.84362c0,0 -8.18885,45.9384 -70.54929,51.58572z" fill="#3a2f41" stroke="#3a2f41" stroke-width="2" stroke-linecap="butt"/><path d="M308.71901,82.08576c0,25.35935 -35.66411,56.41003 -68.47612,56.41003c-33.5053,0 -59.41141,-24.03783 -59.41141,-57.54313c0,-31.78019 26.5994,-57.54312 59.41141,-57.54312c12.37896,0 28.18542,4.68829 39.30804,11.90939c18.35932,11.91936 29.16808,30.73956 29.16808,46.76682z" fill="#3a2f41" stroke="#3a2f41" stroke-width="2" stroke-linecap="butt"/><path d="M290.96376,88.59709c0,9.13907 -2.56101,17.92669 -8.1725,24.65645c-7.92958,9.50981 -21.17852,15.27487 -35.20863,15.27487c-12.46528,0 -24.86425,-4.29094 -32.77712,-12.03997c-7.29597,-7.14489 -10.60401,-17.31188 -10.60401,-27.89135c0,-22.05345 19.42239,-39.93132 43.38113,-39.93132c23.95874,0 43.38113,17.87786 43.38113,39.93132z" fill="#e1e2db" stroke="none" stroke-width="0" stroke-linecap="butt"/><path d="M234.57794,104.57707c0,7.26389 -5.59621,13.15244 -12.49949,13.15244c-4.08294,0 -7.70864,-2.05988 -9.98972,-5.24588c-1.57568,-2.20077 -2.50977,-4.93888 -2.50977,-7.90655c0,-7.26389 5.59621,-13.15243 12.49949,-13.15243c6.90328,0 12.49949,5.88854 12.49949,13.15243z" fill="#b8c1c0" stroke="none" stroke-width="0" stroke-linecap="butt"/><path d="M278.27258,116.37813c-5.66852,-1.24848 -9.92573,-6.53776 -9.92573,-12.87332c0,-7.26389 5.59621,-13.15244 12.49949,-13.15244c3.91183,0 7.62385,1.73299 9.69592,4.85135c0.35858,0.53964 -1.59845,8.07595 -5.06139,13.71042c-2.79248,4.54356 -7.20828,7.46398 -7.20828,7.46398z" fill="#b8c1c0" stroke="none" stroke-width="0" stroke-linecap="butt"/><path d="M290.71376,88.59709c0,9.70216 -2.59748,18.77898 -8.84821,25.69808c-7.95747,8.80833 -21.11455,14.23324 -34.53292,14.23324c-12.99887,0 -25.63043,-4.34848 -33.58123,-12.68529c-6.70364,-7.0291 -9.79991,-17.15773 -9.79991,-27.24603c0,-22.05345 19.42239,-39.93132 43.38113,-39.93132c23.95874,0 43.38113,17.87786 43.38113,39.93132z" fill="none" stroke="#3a2f41" stroke-width="2.5" stroke-linecap="butt"/><path d="M297.04062,87.79665c-10.86329,12.89896 -30.09834,7.19757 -41.93979,-4.49639c-11.84146,-11.69394 -15.72772,-31.37087 -7.36057,-39.99072c8.36714,-8.61984 28.67197,-4.34483 40.51342,7.34913c11.84146,11.69394 17.1541,28.51813 8.78695,37.13797z" fill="#3a2f41" stroke="#3a2f41" stroke-width="2" stroke-linecap="butt"/><path d="M226.55759,104.52999c0,0 -2.51467,16.25725 -18.67261,13.47029c-6.15809,-1.37939 -6.41,-5.09942 -6.41,-8.63957c0,-3.54015 1.40217,-24.88561 2.50826,-18.67261c2.96635,18.9513 22.57435,13.84188 22.57435,13.84188z" fill="#3a2f41" stroke="#3a2f41" stroke-width="2" stroke-linecap="butt"/><g><path d="M256.56495,104.5425c0,0.51307 -2.26707,7.24609 -4.07045,7.24609c-1.80338,0 -2.46016,-6.73302 -2.46016,-7.24609c0,-0.51307 -1.84811,-0.63171 -0.04473,-0.63171c1.80338,0 6.57533,0.11864 6.57533,0.63171z" fill="#3a2f41" stroke="#3a2f41" stroke-width="2" stroke-linecap="butt"/><path d="M253.25489,112.32121c-2.43647,5.52701 -5.03088,6.5029 -8.03652,6.5029c-3.00562,0 -4.5063,-3.48787 -4.90541,-6.65154c-0.53676,-4.25475 0.16655,-10.25263 0.77887,-10.59504c0.77239,-0.43192 4.73166,-0.11319 6.38638,0.38821c4.48255,1.35827 7.93022,5.47028 5.77668,10.35547z" fill="#595564" stroke="none" stroke-width="0" stroke-linecap="butt"/><path d="M244.54747,118.74979c-7.10862,-1.66091 -3.57841,-17.46493 -3.57841,-17.46493l16.84835,2.97276c0,0 -6.16132,16.15309 -13.26994,14.49217z" fill="none" stroke="#3a2f41" stroke-width="1.5" stroke-linecap="round"/></g><path d="M253.04397,275.64776c-1.84636,-17.77149 -1.56131,-28.89227 4.18657,-42.95355c8.02822,-19.63978 45.9878,-12.60111 45.38071,38.92669c-0.41726,35.41508 -28.48992,103.70827 -31.29184,103.73844c-2.80191,0.03017 -14.4388,-62.78342 -18.27544,-99.71157z" data-paper-data="{&quot;index&quot;:null}" fill="#3a2f41" stroke="#3a2f41" stroke-width="2.5" stroke-linecap="butt"/><path d="M318.49177,285.45946c0.01052,1.43369 -14.89975,19.20927 -63.20034,21.16752c-42.28235,1.71426 -71.27639,-13.37169 -71.3414,-14.89567c-2.59833,-60.91714 33.75112,-101.65634 65.34272,-101.65634c31.5916,0 68.77054,36.98139 69.19902,95.38449z" fill="#e1e2db" stroke="#3a2f41" stroke-width="2.5" stroke-linecap="butt"/><path d="M228.10132,195.69342c-5.2031,-5.99343 -11.82618,-33.05137 -11.82618,-36.55683c0,-10.19708 12.9585,-16.4885 26.41297,-16.4885c3.22648,0 17.65966,1.01259 21.59889,2.50842c9.88413,5.11651 22.38211,29.26045 21.8412,31.69959c-0.3892,1.75503 -11.30182,18.2041 -19.13647,20.7383c-20.1085,6.50431 -38.89041,-1.90099 -38.89041,-1.90099z" fill="#3a2f41" stroke="#3a2f41" stroke-width="2.5" stroke-linecap="butt"/><g stroke="#3a2f41" stroke-width="1.5"><path d="M166.57325,76.52794c-5.7527,-4.11365 -5.70797,-10.18461 -5.70797,-10.18461l56.61844,-40.01159l15.13626,-4.92563l-8.79131,14.32556c0,0 -56.91379,41.04056 -57.25541,40.79628z" fill="#e1e2db" stroke-linecap="butt"/><path d="M229.13401,26.37873l-2.73402,-0.07521l0.22854,-2.8379l5.05132,-1.43328z" fill="#3a2f41" stroke-linecap="round"/><path d="M173.76288,70.99075c0,0 -4.34716,-3.92878 -5.25231,-10.17208" fill="none" stroke-linecap="round"/><path d="M175.43103,69.97919c0,0 -4.34716,-3.92877 -5.25231,-10.17208" fill="none" stroke-linecap="round"/><path d="M216.84002,27.16665l2.03869,0.56657l-0.01565,4.19294l3.81726,1.81882l-0.32788,2.9081" fill="none" stroke-linecap="round"/></g><g data-paper-data="{&quot;index&quot;:null}" stroke-linecap="butt"><path d="M261.07473,187.53491c-0.13052,0.16669 -8.39341,-2.35369 -19.37871,-12.39055c-7.48598,-6.83965 -14.45054,-18.99411 -14.45054,-18.99411c0,0 4.88036,-4.41173 7.65409,-6.53911c3.19292,-2.44888 12.89033,-7.99382 12.89033,-7.99382l20.35181,5.04967c0,0 2.17848,25.15629 -7.06698,40.86792z" fill="#e1e2db" stroke="none" stroke-width="0"/><path d="M267.64349,145.93946c0,0 1.588,13.11187 -1.04518,26.03822c-4.29618,-1.22845 -8.44908,-2.24221 -13.45098,-3.46746c-7.73487,-1.89472 -14.45089,-3.51036 -21.01735,-4.95441c-2.93932,-4.21086 -9.51607,-13.69092 -9.51607,-13.69092c0,0 2.7102,-2.92423 5.48393,-5.0516c3.19292,-2.44888 29.82934,-3.12743 29.82934,-3.12743z" fill="#8c9ca0" stroke="none" stroke-width="0"/><path d="M247.58587,176.98643c-0.22019,-0.22051 2.6018,-12.17691 2.6018,-12.17691l6.6834,-1.34641c0,0 1.05136,1.22642 2.34353,2.80342c2.07832,2.53644 4.77963,5.9798 4.73136,6.68574c-0.28379,4.1502 -3.84798,11.48047 -3.84798,11.48047c0,0 -9.94048,-4.87097 -12.51211,-7.44631z" fill="#3a2f41" stroke="#3a2f41" stroke-width="2"/><path d="M222.57711,149.71022c0,0 3.40674,-2.72106 6.18047,-4.84844c3.19292,-2.44888 19.03234,-3.24445 19.03234,-3.24445c0,0 8.41478,0.49609 11.91402,0.76407c2.17423,0.16651 7.8702,3.88981 7.8702,3.88981c0,0 3.8384,28.71254 -6.4994,41.26371c-0.37939,0.46062 -10.84079,-4.23902 -17.98148,-11.20269c-10.13868,-9.88734 -20.51616,-26.62201 -20.51616,-26.62201z" fill="none" stroke="#3a2f41" stroke-width="2"/><path d="M249.89918,161.91953l-1.75233,-8.35113l6.11793,-1.28373l1.75233,8.35113z" fill="#3a2f41" stroke="#3a2f41" stroke-width="2"/></g><g stroke-linecap="butt"><path d="M241.8432,164.60833l-13.69527,-18.58117l2.03092,-4.59995c0,0 13.3947,-6.39376 15.29385,-6.47354c1.94128,-0.08155 16.81014,6.95157 16.81014,6.95157l1.97743,4.86258l-2.58556,16.29919l-12.08263,-9.05668z" fill="#8c9ca0" stroke="#3a2f41" stroke-width="1.5"/><path d="M248.74934,151.4331l-15.6846,-9.18179l12.41466,-5.29346l13.55871,5.62976z" fill="#3a2f41" stroke="none" stroke-width="0"/></g><path d="M246.34697,58.96761c-0.75,9.55102 6,25.875 6,25.875c0,0 -14.10514,-6.82943 -15,-27.125c-0.39883,-9.04568 2.40279,-12.875 4.75,-12.875c2.34721,0 4.8607,6.34792 4.25,14.125z" fill="#3a2f41" stroke="#3a2f41" stroke-width="2" stroke-linecap="butt"/><path d="M234.34697,96.51225c0,1.70124 -1.28718,3.08036 -2.875,3.08036c-1.58782,0 -2.875,-1.37912 -2.875,-3.08036c0,-1.70124 1.28718,-3.08036 2.875,-3.08036c1.58782,0 2.875,1.37912 2.875,3.08036z" fill="#3a2f41" stroke="#3a2f41" stroke-width="2" stroke-linecap="butt"/><path d="M269.84697,95.51226c0,1.70123 -1.28718,3.08035 -2.875,3.08035c-1.58782,0 -2.875,-1.37912 -2.875,-3.08035c0,-1.70123 1.28718,-3.08036 2.875,-3.08036c1.58782,0 2.875,1.37913 2.875,3.08036z" fill="#3a2f41" stroke="#3a2f41" stroke-width="2" stroke-linecap="butt"/><path d="M230.84697,95.96761c0,0.20711 -1.00736,0.375 -2.25,0.375c-1.24264,0 -2.25,-0.16789 -2.25,-0.375c0,-0.20711 1.00736,-0.375 2.25,-0.375c1.24264,0 2.25,0.16789 2.25,0.375z" fill="#3a2f41" stroke="#3a2f41" stroke-width="2" stroke-linecap="butt"/><path d="M269.59697,94.84261c1.24264,0 2.25,0.1679 2.25,0.375c0,0.2071 -1.00736,0.375 -2.25,0.375c-1.24264,0 -2.25,-0.1679 -2.25,-0.375c0,-0.2071 1.00736,-0.375 2.25,-0.375z" data-paper-data="{&quot;index&quot;:null}" fill="#3a2f41" stroke="#3a2f41" stroke-width="2" stroke-linecap="butt"/><g data-paper-data="{&quot;index&quot;:null}" stroke="#3a2f41" stroke-linecap="butt"><path d="M315.67334,206.3288l-26.13985,23.42673l-33.47152,-13.51659l6.80451,-29.52677l11.74084,-18.89304l-8.11052,-22.04696l12.64644,3.27427z" fill="#3a2f41" stroke-width="2"/><path d="M295.20887,203.05501l-8.19934,21.76752l-22.89917,-5.70855l-9.21838,-16.24653l7.8553,-21.48577l23.92339,1.39033z" fill="#8c9ca0" stroke-width="2.5"/></g><g stroke="#3a2f41" stroke-linecap="butt"><path d="M209.90111,154.58345c0,0 8.66599,-7.3604 11.90133,-5.38623c3.72633,2.27375 6.67839,18.68078 6.67839,18.68078l3.89133,21.03754l11.74784,27.93063l-30.67096,19.03507l-29.75712,-18.61765z" fill="#3a2f41" stroke-width="2"/><path d="M216.12721,187.73272l21.36375,-5.11452l11.40974,19.82831l-6.30792,17.58233l-19.29517,8.12364l-14.90381,-17.47872z" fill="#8c9ca0" stroke-width="2.5"/></g><g stroke="#3a2f41" stroke-width="2" stroke-linecap="butt"><path d="M227.00023,226.7837c0,0 -4.1955,-19.9663 -3.39308,-39.85309c0.64031,-15.86875 4.81933,-22.23433 5.47982,-22.65801c11.37883,-7.29873 31.75451,-4.76667 41.87068,-2.4314c4.18697,0.96654 5.43038,2.22126 5.43038,2.22126c0,0 -5.54148,17.69646 -6.50751,27.41738c-1.57214,15.81991 0.19205,37.74145 0.19205,37.74145z" fill="#8c9ca0"/><path d="M235.70564,232.9511c0,0 -7.99938,-18.52344 -11.16159,-38.27891c-2.5233,-15.76399 0.24816,-23.1157 0.80147,-23.70526c9.5323,-10.1563 29.68957,-13.00918 39.91073,-13.36598c4.23043,-0.1477 5.67828,0.75953 5.67828,0.75953c0,0 -1.84302,18.84514 -0.85083,28.65231c1.61473,15.96025 7.65565,37.04271 7.65565,37.04271z" fill="#8c9ca0"/><path d="M233.72439,229.6678c0,0 -4.19553,-19.9663 -3.39308,-39.85308c0.64031,-15.86875 4.8193,-22.23435 5.47982,-22.65801c11.37883,-7.29873 31.75451,-4.76666 41.87069,-2.43139c4.18697,0.96654 5.43039,2.22124 5.43039,2.22124c0,0 -5.54149,17.69648 -6.50752,27.4174c-1.57214,15.81991 0.19205,37.74145 0.19205,37.74145z" fill="#8c9ca0"/><path d="M234.60569,169.02569c0,0 -4.40709,-2.9411 -9.92122,4.94269c-0.67305,0.9623 3.49517,-15.53424 33.5273,-17.39144c15.48772,-0.95776 17.12999,5.64421 17.12999,5.64421c0,0 -6.06574,-2.13295 -18.00391,-0.527c-13.76206,1.85129 -22.73216,7.33153 -22.73216,7.33153z" fill="#e1e2db"/><path d="M238.91682,179.33645c0,0 2.00802,-16.1194 -4.72236,-9.60797c-0.82152,0.79477 5.79601,-14.58717 35.82875,-9.98546c5.25107,0.80459 11.95186,3.44201 14.26359,6.62919c4.5067,6.21339 1.34094,14.40554 1.34094,14.40554c0,0 -5.91169,-5.41198 -17.98999,-6.395c-13.92361,-1.13319 -28.72092,4.95375 -28.72092,4.95375z" fill="#e1e2db"/><path d="M238.05215,162.90851c0,0 -4.07974,-3.53005 -10.4242,3.47183c-0.77441,0.85465 5.15124,-14.84306 35.3009,-12.41222c15.54833,1.2536 16.47826,8.00598 16.47826,8.00598c0,0 -5.82056,-2.96756 -17.89848,-3.07706c-13.92317,-0.12622 -23.45648,4.01146 -23.45648,4.01146z" fill="#e1e2db"/></g><path d="M222.68402,219.14067l-4.5,-11.5l2,-18c0,0 1.97328,-9.21146 10.93557,-8.69394c5.44575,0.31446 12.01132,3.733 13.06443,20.19394c0.95597,14.94262 -5.97167,24.36786 -11.39823,25.45974c-8.65679,1.74183 -10.10177,-7.45974 -10.10177,-7.45974z" fill="#e1e2db" stroke="#3a2f41" stroke-width="2" stroke-linecap="butt"/><path d="M273.35047,224.10041c-4.80256,-1.09188 -10.93359,-10.51713 -10.08754,-25.45974c0.93201,-16.46094 6.74262,-19.87948 11.56216,-20.19394c7.9317,-0.51752 9.67808,8.69394 9.67808,8.69394l2.77002,14l-4.98254,15.5c0,0 -1.27882,9.20157 -8.94016,7.45974z" data-paper-data="{&quot;index&quot;:null}" fill="#e1e2db" stroke="#3a2f41" stroke-width="2" stroke-linecap="butt"/><path d="M243.53786,274.71711c0,0 8.42327,-1.60307 5.70254,1.34328c-2.72073,2.94632 -6.87885,-0.06943 -6.87885,-0.06943l-2.39515,-30.61376l32.32294,-3.04871l3.17506,27.88944c0,0 7.37565,-1.41444 5.23583,1.37877c-2.16782,2.82976 -5.01208,-0.21132 -5.01208,-0.21132" fill="none" stroke="#3a2f41" stroke-width="4.5" stroke-linecap="round"/></g></g></svg>