<svg version="1.1" xmlns="http://www.w3.org/2000/svg" xmlns:xlink="http://www.w3.org/1999/xlink" width="362.04916" height="559.87541" viewBox="0,0,362.04916,559.87541"><g transform="translate(-59.1193,99.27702)"><g data-paper-data="{&quot;isPaintingLayer&quot;:true}" fill-rule="nonzero" stroke-linejoin="miter" stroke-miterlimit="10" stroke-dasharray="" stroke-dashoffset="0" style="mix-blend-mode: normal"><g><g data-paper-data="{&quot;index&quot;:null}" stroke-width="2"><path d="M373.75843,276.02866c0,0 -5.82058,-5.32613 -2.88202,-6.15325c14.55986,-5.67013 37.69516,-5.28232 48.51454,-1.45282c4.40271,1.55832 -11.14963,23.61467 -15.18736,30.37438c-1.30935,2.19199 -3.48356,-12.68052 -3.48356,-12.68052" fill="#595564" stroke="#3a2f41" stroke-linecap="round"/><path d="M412.35244,272.35249c0.76298,1.44614 -4.03762,12.15889 -6.83378,14.37631c-1.14528,0.90825 -8.87378,0.01375 -10.25139,0.67953c-4.74107,2.29131 -5.75236,-1.15605 -6.82786,-3.19445c-0.75734,-1.43546 12.62093,-13.45195 19.88561,-16.45934c3.05151,-1.26325 4.02742,4.59793 4.02742,4.59793z" data-paper-data="{&quot;index&quot;:null}" fill="#595564" stroke="none" stroke-linecap="butt"/><path d="M382.59076,279.72661c5.99504,-4.5435 25.40856,-6.85503 28.61201,-5.34781c1.98592,0.93436 -8.98766,16.21301 -12.4297,22.68484z" fill="#8c9ca0" stroke="#3a2f41" stroke-linecap="butt"/></g><g><g><path d="M386.15844,379.15052l2.86971,44.4327l-14.29295,6.94346l-2.05496,-50.46065" fill="#8c9ca0" stroke="none" stroke-width="0" stroke-linecap="round"/><path d="M375.19183,408.63124l-1.20114,-19.96921l11.89132,-0.61017l1.20114,19.96921z" fill="#595564" stroke="#595564" stroke-width="1" stroke-linecap="butt"/><path d="M386.15844,379.15052l2.86971,44.4327l-14.29295,6.94346l-2.05496,-50.46065" fill="none" stroke="#3a2f41" stroke-width="2" stroke-linecap="round"/></g><path d="M397.32339,439.92272l-17.24835,-8.20283l-9.77608,6.36833l-4.53528,-8.96141l8.06151,-5.29987l16.90173,-8.61373l3.80073,3.20105l14.24081,5.04482z" data-paper-data="{&quot;index&quot;:null}" fill="#8c9ca0" stroke="#3a2f41" stroke-width="2" stroke-linecap="butt"/><path d="M371.98068,425.09189l-2.50961,-9.16253l23.14743,-6.34006l2.50961,9.16253z" data-paper-data="{&quot;index&quot;:null}" fill="#8c9ca0" stroke="#3a2f41" stroke-width="2" stroke-linecap="butt"/></g><g stroke-width="2" stroke-linecap="butt"><path d="M291.00374,341.83438c-8.99673,-3.10683 -101.19256,-2.46 -154.71289,-48.08069c-9.99271,-8.06324 -22.15913,-24.21885 -26.2439,-39.97807c-3.36178,-12.96985 -3.24028,-26.83529 -0.86436,-39.03246c5.61632,-28.83242 22.48492,-51.91344 40.27703,-67.67757c13.85591,-12.27656 28.66791,-20.08842 36.59453,-22.89982c16.6824,-5.91688 33.94431,-4.92078 41.81465,-19.30588c9.66875,-17.67215 4.70234,-40.93184 4.70234,-40.93184l10.42746,5.3212c0,0 -5.74895,-18.27183 -5.53326,-18.79985c1.1942,-2.92372 42.22603,15.95206 58.67475,52.83614c0.57761,1.29524 5.3894,-4.57475 5.3894,-4.57475c0,0 19.76222,25.56059 2.28547,78.6207c-5.03767,14.17785 -14.18538,22.36027 -25.56044,31.2352c-22.47756,17.53722 -57.46529,47.16121 -49.16798,75.71195c2.88055,9.91185 22.83104,17.61929 38.7924,30.53486c17.09075,13.82947 23.12479,27.02087 23.12479,27.02087z" fill="#e1e2db" stroke="none"/><path d="M227.90177,105.55911c9.66875,-17.67215 4.70233,-40.93183 4.70233,-40.93183l10.42745,5.3212c0,0 -5.74893,-18.27184 -5.53326,-18.79986c1.1942,-2.92372 42.22603,15.95205 58.67474,52.83613c0.57761,1.29524 5.3894,-4.57474 5.3894,-4.57474c0,0 22.58844,21.93699 -0.25213,86.94583c-0.81743,0.1771 -11.45488,-19.2812 -11.45488,-19.2812l-44.1001,49.75619l2.39858,-47.09287l-20.90271,12.19081l6.30216,-22.28186l-71.31656,7.75064l40.98189,-33.8969l-31.31217,-3.43753c0,0 12.18317,-4.99175 19.73887,-7.30573c7.78228,-2.38336 15.81419,-3.18501 21.66748,-5.90956c11.09506,-5.16446 13.91223,-10.05196 14.58887,-11.28869z" fill="#595564" stroke="none"/><path d="M286.47098,339.64297c0,0 -127.10339,-1.11636 -167.4031,-66.23447c-31.14639,-50.32775 6.27581,-125.4472 66.64871,-148.17857c16.80203,-6.32623 34.09158,-4.97606 42.08643,-19.58874c9.66875,-17.67215 4.63439,-41.68058 4.63439,-41.68058l10.42746,5.3212c0,0 -5.74894,-18.27184 -5.53326,-18.79986c1.1942,-2.92372 42.22603,15.95206 58.67475,52.83614c0.57761,1.29524 5.3894,-4.57474 5.3894,-4.57474c0,0 22.34082,22.36759 0.5979,83.56006c-3.0699,8.6398 -16.05712,18.95827 -29.91418,30.72025c-23.9085,20.29372 -51.40099,44.81618 -42.18221,71.93502c4.30732,12.67085 21.96132,17.04891 45.43207,32.91243z" fill="none" stroke="#3a2f41"/></g><g stroke="#3a2f41" stroke-width="2"><path d="M316.5876,373.58214l-0.692,44.51989l-14.80234,5.77847l1.98609,-50.46341" fill="#8c9ca0" stroke-linecap="round"/><path d="M304.66217,431.37872l-4.38801,-3.34024l-0.43324,-24.51252l22.11913,-0.19278l-3.34206,16.30905l7.30221,1.81232l-0.85089,9.98478z" data-paper-data="{&quot;index&quot;:null}" fill="#595564" stroke-linecap="butt"/></g><path d="M312.76355,272.02209c0,0 30.52423,-10.95029 50.55927,-6.88857c37.9305,7.68968 55.27133,34.44685 49.95028,75.14573c-3.82612,29.26468 -17.07089,37.38084 -39.87024,43.34997c-25.22965,6.60541 -64.09706,4.16164 -84.28957,2.15434c-38.43993,-3.82126 -57.40766,-34.4946 -52.97716,-64.92856c2.43809,-16.74772 13.22058,-37.88432 36.47053,-45.95607c18.99989,-6.59625 40.1569,-2.87683 40.1569,-2.87683z" data-paper-data="{&quot;index&quot;:null}" fill="#e1e2db" stroke="#3a2f41" stroke-width="2" stroke-linecap="butt"/><path d="M366.76286,301.17626c-4.3006,27.89104 -30.34375,39.61027 -40.67487,41.11108c-16.91672,2.45755 -38.86248,-13.61341 -33.89549,-29.97017c3.59988,-11.85473 3.17298,-30.39213 18.6918,-38.48182c9.1865,-4.78877 32.33353,-10.93971 41.40621,-8.07998c14.60714,4.60422 15.5461,28.45729 14.47236,35.42087z" fill="#595564" stroke="none" stroke-width="2" stroke-linecap="butt"/><g stroke="#3a2f41"><path d="M388.52695,305.72938c10.01594,-2.69695 21.28688,3.30397 25.17001,11.32231c3.88312,8.01835 1.55264,17.11903 -8.4633,19.816c-4.90756,1.32145 -10.86001,1.6403 -15.99941,-0.117c-5.34972,-1.82923 -9.82768,-5.84286 -11.80816,-9.93241c-3.88312,-8.01835 1.08491,-18.39194 11.10085,-21.0889z" data-paper-data="{&quot;index&quot;:null}" fill="#b8c1c0" stroke-width="2" stroke-linecap="butt"/><path d="M386.4358,328.40123l-0.49999,-16.4042" fill="none" stroke-width="9.5" stroke-linecap="round"/></g><g stroke="#3a2f41"><path d="M362.64686,321.50429c0,4.54946 -3.04137,9.68602 -8.3985,12.90385c-5.14652,3.09134 -12.47543,4.35489 -19.13306,4.35489c-13.58768,0 -21.6738,-8.33868 -21.6738,-17.25874c0,-8.92007 13.16288,-18.18165 26.75056,-18.18165c13.58768,0 22.45482,9.26158 22.45482,18.18166z" fill="#b8c1c0" stroke-width="2" stroke-linecap="butt"/><path d="M350.44562,328.55799l-0.39052,-16.2435" fill="none" stroke-width="9.5" stroke-linecap="round"/></g><path d="M395.03692,338.84155c0,6.62742 -9.96166,12 -22.25,12c-12.28834,0 -22.25,-5.37258 -22.25,-12c0,-6.62742 9.96166,-12 22.25,-12c12.28834,0 22.25,5.37258 22.25,12z" fill="#595564" stroke="#3a2f41" stroke-width="2" stroke-linecap="butt"/><path d="M390.14587,339.67484c-2.23592,7.97753 -14.94445,0.79442 -14.94445,0.79442l-0.03071,-7.28008l-0.08656,7.33137c0,0 -17.76605,4.47964 -16.35495,-6.09571" fill="none" stroke="#3a2f41" stroke-width="1.5" stroke-linecap="round"/><path d="M378.77277,331.84155h-7.25" fill="none" stroke="#3a2f41" stroke-width="4" stroke-linecap="round"/><path d="M303.27277,386.67488c-10.9539,0 -25.65911,-1.26304 -37.69301,-7.94457c-21.3516,-11.85496 -25.64032,-29.38876 -25.64032,-29.38876c0,0 8.30616,27.33333 52.66667,27.33333c21.35501,0 32.02168,10 10.66667,10z" fill="#595564" stroke="none" stroke-width="0" stroke-linecap="butt"/><path d="M297.93944,386.67488c0,0 -10.69438,-3.89672 -17.55922,-13.70888c-13.27963,-18.98105 -17.36028,-69.43566 21.89255,-101.79112c5.36753,-2.62185 14.33333,-0.16667 14.33333,-0.16667c0,0 -28.78496,23.36235 -31.54001,58.3346c-3.86355,49.04348 30.37335,58.33207 30.37335,58.33207z" fill="#e1e2db" stroke="#3a2f41" stroke-width="1.5" stroke-linecap="butt"/><g fill="#595564" stroke="#3a2f41" stroke-width="1.5" stroke-linecap="butt"><path d="M264.16571,332.42488l-0.33651,-20.35873l15.31111,7.90794l16.48889,-8.24444l-0.84127,20.19048l-15.47937,-7.06667z"/><path d="M275.27047,327.88203v-10.93651h8.4127v10.93651z"/></g><g stroke="#3a2f41" stroke-width="2"><path d="M272.82571,371.90826l-2.89029,48.40842l-15.1071,4.92701l4.85374,-55.93536" fill="#e1e2db" stroke-linecap="round"/><path d="M257.96489,432.9328l-4.46353,-4.38225l0.57362,-26.81339l22.46877,0.28652l-3.97794,19.98559l7.18728,2.22481l-1.41755,9.92019z" data-paper-data="{&quot;index&quot;:null}" fill="#595564" stroke-linecap="butt"/></g><g><path d="M335.5071,384.01081l-0.4058,44.52342l-14.76489,5.8735l1.66166,-50.47513" fill="#e1e2db" stroke="none" stroke-width="0" stroke-linecap="round"/><path d="M321.53692,418.67488v-14h13.5v14z" fill="#595564" stroke="none" stroke-width="0" stroke-linecap="butt"/><path d="M335.50711,384.01081l-0.4058,44.52342l-14.76489,5.8735l1.66166,-50.47513" fill="none" stroke="#3a2f41" stroke-width="2" stroke-linecap="round"/><path d="M304.70345,439.88287l11.5009,-9.79695l2.40728,-4.34711l18.86318,2.01125l9.42245,2.07219l-1.03669,9.99004l-11.4055,-2.45804l-13.18264,13.82063z" data-paper-data="{&quot;index&quot;:null}" fill="#e1e2db" stroke="#3a2f41" stroke-width="2" stroke-linecap="butt"/><path d="M315.49878,428.64358l-0.35681,-9.4933l23.98307,-0.90142l0.35681,9.4933z" fill="#e1e2db" stroke="#3a2f41" stroke-width="2" stroke-linecap="butt"/></g><g data-paper-data="{&quot;index&quot;:null}" stroke-width="2"><path d="M316.03874,282.69819c0,0 -7.63788,1.97728 -6.72978,-0.93727c3.18142,-15.29766 16.11572,-34.4835 25.22323,-41.46758c3.7061,-2.84202 13.72236,22.21855 17.18923,29.28804c1.1242,2.29246 -12.53026,-3.99042 -12.53026,-3.99042" fill="#595564" stroke="#3a2f41" stroke-linecap="round"/><path d="M356.10875,274.30161c0.17084,2.27344 -27.64776,10.23946 -32.94034,10.80237c-1.53787,0.16354 -3.11554,0.14706 -4.58422,-0.01449c-3.58573,-0.39443 -10.0797,1.18812 -10.2009,-0.42472c-0.07792,-1.03688 -12.43911,-14.39226 2.93303,-14.07791c1.32326,0.02706 2.36633,0.70172 2.36633,0.70172c0,0 6.10577,-12.6737 8.46675,-12.92481c3.4986,-0.37212 15.49718,9.15921 24.31836,6.75871c1.32972,-0.36185 2.7057,-0.25894 3.81096,0.13558c0.61214,0.2185 1.14123,0.4242 1.53343,0.47442c3.97958,0.5096 1.9179,5.29878 1.96327,5.90247z" fill="#595564" stroke="none" stroke-linecap="butt"/><path d="M333.99099,248.33646c1.62831,0.14847 7.99374,10.01205 8.32891,13.56495c0.1373,1.45523 -4.82484,7.44748 -5.01745,8.96537c-0.66288,5.22384 -4.1044,4.19285 -6.39962,3.9836c-1.61629,-0.14738 -4.3998,-17.91325 -2.96189,-25.64322c0.60399,-3.24695 6.05004,-0.87073 6.05004,-0.87073z" data-paper-data="{&quot;index&quot;:null}" fill="#595564" stroke="none" stroke-linecap="butt"/><path d="M323.95297,277.30841c-0.54197,-7.50268 8.1007,-25.03927 11.11033,-26.90365c1.86575,-1.1558 8.69495,16.37186 12.24511,22.78501z" fill="#8c9ca0" stroke="#3a2f41" stroke-linecap="butt"/></g><g stroke="#3a2f41" stroke-width="1.5"><path d="M314.76809,273.37052c2.29345,4.10934 -2.25333,11.18464 -10.15549,15.80311c-7.90217,4.61849 -16.16736,5.0312 -18.4608,0.92186c-2.29345,-4.10934 2.25333,-11.18464 10.15549,-15.80311c7.90217,-4.61849 16.16736,-5.0312 18.4608,-0.92186z" fill="#e1e2db" stroke-linecap="butt"/><path d="M311.33414,275.37752c1.76233,3.1577 -1.67755,8.56299 -7.68321,12.07302c-6.00566,3.51005 -12.30284,3.79566 -14.06519,0.63795c-1.76233,-3.1577 1.67755,-8.56299 7.68321,-12.07302c6.00566,-3.51005 12.30284,-3.79566 14.06519,-0.63795z" fill="#e1e2db" stroke-linecap="butt"/><path d="M307.14895,278.75841l-6.86791,4.01399l-2.1856,-3.91612" fill="none" stroke-linecap="round"/></g></g><g data-paper-data="{&quot;index&quot;:null}" fill="#e1e2db" stroke="#3a2f41" stroke-width="2" stroke-linecap="butt"><path d="M181.70207,221.87161c9.29293,-0.46434 16.98446,-0.88424 18.72903,-0.96492c2.62856,-0.12155 5.3334,-0.38452 8.02085,-0.80412c6.90886,34.0266 3.9521,59.52918 -0.57078,61.44057c-4.41072,1.86401 -4.68201,-11.34625 -5.14097,-7.39774c-0.46171,3.97199 -0.66926,10.33702 -3.67142,11.82223c-5.1588,2.55214 -6.27188,-6.39358 -5.69522,-12.19765c0.23796,-2.39517 -3.60994,7.00297 -7.75595,2.6698c-2.16337,-2.26103 -0.66066,-30.8345 -3.91554,-54.56817z"/><path d="M183.15612,234.30793l-6.36895,-8.47037c0,0 1.72607,-17.30851 -0.35769,-37.73601c-3.18078,-31.18185 -9.82166,-70.48567 -2.49522,-73.29658c22.3099,-8.55956 40.99221,108.82601 40.99221,108.82601l-3.87428,10.92482z"/></g><g><g stroke-linecap="butt"><path d="M173.37517,384.1563l-5.94978,-94.22904l26.85728,-1.6137l5.94979,94.22904z" fill="#e1e2db" stroke="none" stroke-width="0"/><path d="M169.56241,316.17965l-1.3081,-20.71689l26.85729,-1.6137l1.11423,20.99557z" fill="#8c9ca0" stroke="none" stroke-width="0"/><path d="M173.84931,384.07085l-5.94978,-94.22905l26.85729,-1.61368l5.94979,94.22904c0,0 0.45681,6.11414 -13.0885,6.88981c-12.64935,0.72436 -13.7688,-5.27612 -13.7688,-5.27612z" fill="none" stroke="#3a2f41" stroke-width="2.5"/></g><g fill="#3a2f41" stroke="#3a2f41" stroke-width="2.5" stroke-linecap="butt"><path d="M170.92464,430.89954l-2.53825,-48.50489l38.24847,-17.05901l2.95459,32.75332l21.86524,39.80873z"/></g><path d="M195.02278,318.74512l-24,5" fill="none" stroke="#3a2f41" stroke-width="2.5" stroke-linecap="round"/><path d="M196.02278,323.74512l-25,5" fill="none" stroke="#3a2f41" stroke-width="1.5" stroke-linecap="round"/><path d="M171.02278,333.24512l25.5,-5.5" fill="none" stroke="#3a2f41" stroke-width="1.5" stroke-linecap="round"/></g><g><g data-paper-data="{&quot;index&quot;:null}" stroke-linecap="butt"><path d="M91.1834,391.39441l14.06478,-112.75523l26.60833,4.56684l-14.06477,112.75524c0,0 -7.73858,20.01889 -11.75522,29.33619c-2.79636,6.48665 -20.11846,0.86845 -21.71069,0.59517c-4.12413,-0.70783 6.85756,-34.49822 6.85756,-34.49822z" fill="#e1e2db" stroke="none" stroke-width="0"/><path d="M101.02126,310.36031l2.92322,-25.14414l26.60835,4.56684l-3.09223,24.79z" fill="#8c9ca0" stroke="none" stroke-width="0"/><path d="M90.71857,391.2453l14.06478,-112.75521l26.60835,4.56681l-14.06477,112.75524c0,0 -7.35439,19.11796 -11.52038,31.26382c-0.84939,2.4764 -21.31848,2.47275 -22.648,-2.76402c-0.53519,-2.108 7.56002,-33.06664 7.56002,-33.06664z" fill="none" stroke="#3a2f41" stroke-width="2.5"/></g><path d="M63.02338,458.27702l16.58304,-35.73519l1.65754,-49.2134l47.54513,9.48918l-9.05275,52.9028z" fill="#3a2f41" stroke="#3a2f41" stroke-width="2.5" stroke-linecap="butt"/><path d="M99.52278,319.24512l25,3.5" fill="none" stroke="#3a2f41" stroke-width="2.5" stroke-linecap="round"/><path d="M125.52278,328.74512l-25.5,-4.5" fill="none" stroke="#3a2f41" stroke-width="1.5" stroke-linecap="round"/><path d="M98.52278,327.74512l25.5,4.5" fill="none" stroke="#3a2f41" stroke-width="1.5" stroke-linecap="round"/></g><g data-paper-data="{&quot;index&quot;:null}" stroke="#8c9ca0" stroke-width="2"><path d="M177.08066,300.68663c-15.05072,1.27716 -22.32127,-10.13826 -22.32127,-10.13826l-5.96871,-83.08221l41.41321,-6.04978l11.32126,85.5558c0,0 -6.31583,12.17612 -24.44449,13.71446z" data-paper-data="{&quot;index&quot;:null}" fill="#3a2f41" stroke-linecap="butt"/><path d="M194.0341,238.52409l-14.08102,-2.14753l-2.08014,-28.54835" fill="none" stroke-linecap="round"/><path d="M193.85024,233.34746l-9.27897,-1.26349l-2.41551,-25.62119" fill="none" stroke-linecap="round"/></g><g stroke="#3a2f41" stroke-linecap="butt"><path d="M174.80727,142.38612c-0.83551,15.81439 -82.71005,27.1594 -94.37005,26.41102c-11.65999,-0.74838 -20.43497,-14.17517 -19.59946,-29.98955c0.83551,-15.81437 16.02988,-53.32323 52.4352,-59.03874c6.37014,-1.00008 35.48346,-4.68737 50.9403,19.02324c6.88133,12.78374 16.96888,32.49909 16.59403,39.59407z" fill="#e1e2db" stroke-width="0"/><path d="M163.76233,171.72893c-12.87276,28.51949 -41.20411,27.95416 -58.46089,26.84655c-23.68052,-1.51991 -39.37696,-17.20842 -44.81219,-42.1573c-1.77389,-8.14249 0.6023,-25.87006 0.6023,-25.87006c0,0 15.75654,10.77861 40.33184,14.36944c17.5647,2.56647 39.63437,1.58345 63.67594,-10.19137z" fill="#b8c1c0" stroke-width="0"/><path d="M171.51535,152.13644c0.42248,20.40778 -16.89222,36.73503 -30.70223,42.48469c-4.15699,1.73073 -18.03253,5.18571 -29.59831,4.37127c-37.93018,-2.67096 -52.71278,-27.12733 -50.95663,-60.36776c1.75615,-33.24043 34.12832,-62.59281 63.9611,-60.67803c32.59678,2.09219 52.23687,26.04009 50.1231,54.45777" fill="none" stroke-width="2"/></g><g stroke="#3a2f41"><path d="M195.40192,125.37788c0.01846,3.62453 0.40922,8.37626 -0.61626,11.59212c-2.35592,7.38796 -8.36382,11.88802 -16.25199,13.23085c-11.32177,1.92735 -16.34925,-7.38779 -18.35494,-19.16979c-2.00569,-11.782 -11.61683,-35.06545 -0.29507,-36.9928c2.46235,-0.41917 6.22962,-1.04918 10.23499,-0.52328c5.71915,0.75092 12.00842,3.30967 16.40006,7.52204c6.67442,6.40197 8.85147,18.10992 8.88321,24.34086z" fill="#e1e2db" stroke-width="0" stroke-linecap="butt"/><path d="M195.79743,131.22713c2.94059,7.218 -7.23759,41.10479 -43.0029,26.44228c-4.53563,-1.85945 3.18049,-18.0875 2.74957,-20.6188c-0.15063,-0.88483 2.69826,0.21705 6.00669,-0.68535c6.15618,-1.67914 14.77683,-5.16788 14.77683,-5.16788c0,0 10.69508,3.89223 19.46981,0.02975z" fill="#b8c1c0" stroke-width="0" stroke-linecap="butt"/><path d="M157.15737,94.86278c0,0 9.62351,-3.54091 19.37695,-0.0239c10.42041,3.75751 21.2327,17.00214 19.5113,39.70235c-1.24202,14.07133 -10.96276,22.33814 -18.12993,24.707c-15.16467,5.01215 -24.15243,-1.21179 -24.15243,-1.21179" fill="none" stroke-width="2" stroke-linecap="round"/></g><g data-paper-data="{&quot;index&quot;:null}" stroke="#8c9ca0" stroke-width="2"><path d="M94.69161,287.1406l14.37077,-85.16975l43.17967,7.32374l-8.69411,82.86223c0,0 -7.94789,11.18636 -23.66771,9.44581c-18.9346,-2.0965 -25.18861,-14.46204 -25.18861,-14.46204z" data-paper-data="{&quot;index&quot;:null}" fill="#3a2f41" stroke-linecap="butt"/><path d="M121.7836,208.76001l-3.018,28.47186l-14.80537,1.71255" fill="none" stroke-linecap="round"/><path d="M117.33987,207.26313l-3.28295,25.53564l-9.75184,0.97691" fill="none" stroke-linecap="round"/></g><g data-paper-data="{&quot;index&quot;:null}" stroke-linecap="butt"><path d="M143.55185,246.82024l0.84806,-20.24369l12.60253,2.1125l0.61657,17.41208z" fill="#8c9ca0" stroke="#8c9ca0" stroke-width="2"/><path d="M143.45691,244.49649l-0.65194,-26.24367l14.10253,0.11249l0.61657,25.41208z" fill="#3a2f41" stroke="#3a2f41" stroke-width="3.5"/></g><g><g><path d="M154.50405,218.01431l-46.57007,-16.06366l11.31821,-19.38939l-2.13243,-21.21602c0,0 -9.23038,-30.20747 -4.14725,-42.64581c2.07698,-5.08228 21.86592,-15.9295 33.81037,-15.7599c9.51793,0.13512 19.38304,1.74687 28.04649,6.00373c3.26476,1.60417 9.21022,5.95526 9.21022,5.95526c0,0 17.69414,32.05832 17.03899,33.59578c-3.32905,7.81218 -20.66513,19.41413 -20.66513,19.41413l-2.9411,13.75602l13.78613,20.43111z" fill="#7c7984" stroke="none" stroke-width="0" stroke-linecap="round"/><path d="M113.26625,119.07967c1.71421,-5.03719 21.14797,-16.58454 31.65642,-16.6467c5.7368,-0.03394 16.45682,0.91601 25.01713,4.09484c8.64326,3.20962 15.09962,8.64852 15.09962,8.64852l15.90355,33.49394l-8.91472,10.60145c0,0 -79.84046,-31.35127 -80.04092,-32.54843c0.35748,-3.22643 0.23317,-4.57068 1.27892,-7.64361z" fill="#595564" stroke="none" stroke-width="0" stroke-linecap="butt"/><path d="M154.50404,218.01431l-46.24917,-14.96515l10.9973,-20.4879l-1.83391,-20.44695c0,0 -9.75762,-30.41685 -4.44576,-43.41488c2.07698,-5.08228 21.86592,-15.9295 33.81038,-15.7599c9.51793,0.13512 19.38303,1.74687 28.04648,6.00373c3.26476,1.60417 9.21023,5.95525 9.21023,5.95525c0,0 17.69414,32.05833 17.03899,33.59578c-3.32905,7.81218 -20.66513,19.41413 -20.66513,19.41413l-2.9411,13.75602l13.28612,19.96528z" fill="none" stroke="#3a2f41" stroke-width="2" stroke-linecap="round"/></g><g stroke-linecap="butt"><path d="M144.89456,123.62973l-14.4346,-17.36109l1.96105,-4.42118c0,0 13.51826,-6.38563 15.4551,-6.50468c1.9798,-0.1217 17.33067,6.22941 17.33067,6.22941l2.13736,4.57982l-2.24176,15.56088l-12.55585,-8.33906z" fill="#595564" stroke="#3a2f41" stroke-width="1.5"/><path d="M151.62332,110.94179l-16.23606,-8.37614l12.54462,-5.31686l13.9791,5.04616z" fill="#3a2f41" stroke="none" stroke-width="0"/></g></g><g stroke="#3a2f41"><path d="M140.96026,127.37788c0.01723,3.62453 0.38189,8.37626 -0.5751,11.59212c-2.19856,7.38795 -7.80517,11.88802 -15.16646,13.23085c-10.56555,1.92735 -15.25723,-7.38779 -17.12895,-19.16979c-1.87172,-11.782 -10.8409,-35.06545 -0.27536,-36.9928c2.29788,-0.41917 5.81353,-1.04918 9.55136,-0.52328c5.33714,0.75092 11.20634,3.30967 15.30464,7.52204c6.22862,6.40197 8.26025,18.10992 8.28987,24.34086z" fill="#e1e2db" stroke-width="0" stroke-linecap="butt"/><path d="M141.32936,133.22713c2.74418,7.218 -6.75416,41.10479 -40.13057,26.44228c-4.23268,-1.85945 2.96805,-18.0875 2.56592,-20.6188c-0.14057,-0.88483 2.51803,0.21705 5.60548,-0.68535c5.74499,-1.67914 13.78983,-5.16788 13.78983,-5.16788c0,0 9.98071,3.89223 18.16935,0.02975z" fill="#b8c1c0" stroke-width="0" stroke-linecap="butt"/><path d="M105.27021,96.86278c0,0 8.98073,-3.54091 18.08269,-0.0239c9.72439,3.75751 19.81449,17.00214 18.20807,39.70235c-1.15906,14.07133 -10.23052,22.33814 -16.91897,24.707c-14.15177,5.01215 -22.53921,-1.21179 -22.53921,-1.21179" fill="none" stroke-width="2" stroke-linecap="round"/></g><g fill="#e1e2db" stroke="#3a2f41" stroke-width="2" stroke-linecap="butt"><path d="M108.42677,281.43978c-4.14601,4.33317 -7.99391,-5.06498 -7.75595,-2.6698c0.57666,5.80406 -0.53642,14.74979 -5.69522,12.19765c-3.00216,-1.48521 -3.20971,-7.85023 -3.67142,-11.82223c-0.45897,-3.94851 -0.73025,9.26175 -5.14097,7.39774c-4.52289,-1.91139 -7.47965,-27.41397 -0.57078,-61.44057c2.68746,0.4196 5.3923,0.68257 8.02086,0.80412c1.74457,0.08068 9.4361,0.50059 18.72903,0.96492c-3.25487,23.73367 -1.75217,52.30714 -3.91554,54.56817z"/><path d="M82.99219,239.5558l-3.87428,-10.92482c0,0 18.68231,-117.38557 40.99221,-108.826c7.32644,2.81091 0.68556,42.11473 -2.49522,73.29658c-2.08375,20.4275 -0.35769,37.73601 -0.35769,37.73601l-6.36895,8.47037z"/></g><g><g><g><path d="M151.37596,1.38422c0,0 5.2501,-19.03889 12.59718,-38.02878c6.83272,-17.66043 16.03504,-36.67875 20.86309,-43.32011c6.38309,-8.78045 17.61052,-12.76638 22.49509,-6.9154c9.5904,11.48789 -3.13295,38.49957 -13.7536,59.08349c-7.03742,13.63925 -13.00919,26.424 -13.00919,26.424" fill="#e1e2db" stroke="#3a2f41" stroke-width="2" stroke-linecap="round"/><path d="M152.06044,1.68683c0,0 3.06559,-9.89827 4.22333,-13.47299c0.76933,-2.37543 5.04982,-14.60145 5.04982,-14.60145l22.7754,15.49831l-5.60857,11.64472z" fill="#8c9ca0" stroke="none" stroke-width="0" stroke-linecap="butt"/></g><path d="M206.31137,40.46168c1.57271,31.35856 -9.06235,54.83371 -46.18909,56.10413c-43.05597,1.47332 -72.14185,-17.24718 -73.71455,-48.60575c-1.57271,-31.35856 22.60113,-57.89101 57.23187,-59.62782c34.63075,-1.73681 61.09907,20.77089 62.67177,52.12944z" fill="#e1e2db" stroke="#3a2f41" stroke-width="2" stroke-linecap="butt"/><g data-paper-data="{&quot;index&quot;:null}" stroke-linecap="butt"><path d="M197.91944,58.87868c-0.18989,9.14387 -1.08943,17.29187 -8.38901,23.10042c-7.09591,5.64649 -20.3642,9.0806 -36.3484,9.18155c-32.00396,0.20216 -43.74719,-15.40022 -43.3727,-33.43279c0.37446,-18.03257 14.25413,-40.7628 51.20468,-39.28547c24.30631,0.97181 37.27989,22.40372 36.9054,40.43631z" fill="#e1e2db" stroke="none" stroke-width="0"/><path d="M197.91944,58.87868c-0.37449,18.03258 -18.31552,4.98199 -38.2708,4.86446c-19.9513,-0.1175 -50.21381,12.01729 -49.83931,-6.01529c0.37446,-18.03257 14.25413,-40.7628 51.20468,-39.28547c24.30631,0.97181 37.27989,22.40372 36.9054,40.43631z" fill="#b8c1c0" stroke="none" stroke-width="0"/><path d="M145.93155,19.70279c44.02935,-4.91828 52.31686,23.33543 51.97942,39.58484h-0.00001c-0.17762,8.55359 -1.83241,16.58082 -8.1657,22.28838c-7.01844,6.32505 -19.52608,9.88593 -36.57169,9.99358c-32.00395,0.20215 -43.7472,-15.40021 -43.37271,-33.43277c0.31786,-15.3062 10.36591,-33.99696 35.99395,-38.39538" fill="none" stroke="#3a2f41" stroke-width="2"/></g><g><path d="M103.84979,6.25348c0,0 -1.1318,-19.85316 -0.14346,-40.42632c0.91916,-19.13285 3.75911,-40.41062 6.37053,-48.43088c3.45251,-10.60347 13.37624,-18.46034 20.24285,-14.73324c13.48197,7.31786 9.79619,37.41194 6.05952,60.68274c-2.47598,15.41961 -4.02947,28.15714 -4.02947,28.15714" fill="#e1e2db" stroke="#3a2f41" stroke-width="2" stroke-linecap="round"/><path d="M104.63815,6.28847c0,0 -0.25126,-10.4444 -0.29124,-14.23486c-0.02657,-2.51879 -0.06631,-6.2888 -0.06631,-6.2888l29.51499,-12.12227l-2.17678,17.92839z" fill="#8c9ca0" stroke="none" stroke-width="0" stroke-linecap="butt"/></g><path d="M147.4028,-7.02375c1.58103,5.48897 -7.54783,15.99599 -20.799,22.26742c-13.25118,6.27142 -25.7124,6.64481 -27.29344,1.15583c-1.58103,-5.48897 8.31683,-14.76175 21.56801,-21.03318c13.25118,-6.27142 24.9434,-7.87903 26.52443,-2.39006z" fill="#e1e2db" stroke="none" stroke-width="0" stroke-linecap="butt"/><g data-paper-data="{&quot;index&quot;:null}" fill="#d6d6d6"><path d="M165.19339,23.44094c7.54683,18.63547 -16.03293,31.68492 -16.03293,31.68492c0,0 2.0158,-7.42415 1.09129,-6.62976c-16.62304,14.28337 -30.12014,12.48928 -30.12014,12.48928l1.35312,-10.56092c0,0 -2.29835,7.15557 -1.23391,20.13827c0.7806,9.52074 7.04778,21.58521 13.27516,29.19019c4.55628,5.56422 9.68007,8.25166 9.68007,8.25166c0,0 -4.03443,0.16274 -5.73577,-0.21845c-1.49506,-0.33496 -3.93366,-1.94795 -3.93366,-1.94795c0,0 1.20287,7.46175 -0.37,17.65671c-1.43047,9.27196 -7.02696,11.83764 -7.02696,11.83764c0,0 4.00889,-20.44914 -10.55311,-32.02003c-14.562,-11.57089 -24.46833,-12.76458 -28.26036,-28.09921c-5.31579,-21.49671 7.17064,-48.44998 19.07046,-53.02265c-5.05549,-2.45804 -6.05796,-5.02886 -6.05796,-5.02886c0,0 6.40342,-0.45163 16.19906,-6.26533c8.47047,-5.0272 18.35894,4.10371 17.46987,3.37619c-5.65828,-4.63007 -0.43664,-9.93359 -0.43664,-9.93359c0,0 5.47428,4.30097 14.12694,7.62589c6.97022,2.67842 12.11384,4.72621 17.49539,11.47597z" stroke="#9aa5a4" stroke-width="2" stroke-linecap="round"/><path d="M119.9206,77.79168c-1.18925,-0.07247 -5.21961,-9.8361 -4.60639,-19.89909c0.61323,-10.063 10.14638,-19.66511 11.33565,-19.59265c0.56034,0.03415 -3.01752,8.37932 -5.55683,17.28143c-2.84998,9.99126 -1.17243,22.21032 -1.17243,22.21032z" stroke="none" stroke-width="0" stroke-linecap="butt"/><path d="M131.85043,13.32522c4.34198,1.14697 7.53927,3.29796 7.14134,4.80436c-0.39793,1.50639 -4.2404,1.79779 -8.58237,0.65082c-4.34199,-1.14698 -7.53928,-3.29795 -7.14135,-4.80436c0.39793,-1.50639 4.24041,-1.79779 8.58238,-0.65082z" stroke="none" stroke-width="0" stroke-linecap="butt"/></g></g><g fill="#e1e2db"><g data-paper-data="{&quot;index&quot;:null}" stroke="#3a2f41" stroke-width="1.5"><path d="M175.55071,70.50115c-15.23411,-2.33255 -14.75908,-16.59519 -14.75908,-16.59519l34.80241,10.11393c0,0 -1.0759,9.38542 -20.04334,6.48126z" stroke-linecap="butt"/><path d="M191.1636,68.70012l-1.06609,11.2382c0,0 2.79134,0.6678 2.2055,3.88384c-0.26923,1.47793 -1.90612,3.0866 -5.13446,2.64286c-3.31324,-0.45542 -4.33751,-2.50994 -4.31463,-3.68482c0.05743,-2.94778 2.86578,-3.54446 2.86578,-3.54446l0.81695,-9.40648" stroke-linecap="round"/></g><path d="M183.0282,64.65979c5.37527,-0.51848 9.84121,0.3096 9.97495,1.84956c0.13374,1.53996 -4.11536,3.20866 -9.49063,3.72713c-5.37527,0.51848 -11.92874,-1.9096 -12.06249,-3.44956c-0.13375,-1.53996 6.2029,-1.60866 11.57817,-2.12713z" data-paper-data="{&quot;index&quot;:null}" stroke="none" stroke-width="0" stroke-linecap="butt"/></g><g data-paper-data="{&quot;index&quot;:null}" fill="#e1e2db"><g data-paper-data="{&quot;index&quot;:null}" stroke="#3a2f41" stroke-width="1.5"><path d="M135.03812,70.50948c-19.98927,2.90416 -21.12313,-6.48126 -21.12313,-6.48126l36.67732,-10.11393c0,0 0.50062,14.26264 -15.5542,16.59519z" stroke-linecap="butt"/><path d="M123.46031,69.96259l0.86096,9.40648c0,0 2.95964,0.59668 3.02017,3.54446c0.02412,1.17488 -1.05534,3.2294 -4.54707,3.68482c-3.40226,0.44374 -5.12734,-1.16493 -5.41107,-2.64286c-0.6174,-3.21604 2.32432,-3.88384 2.32432,-3.88384l-1.12353,-11.2382" stroke-linecap="round"/></g><path d="M139.35969,67.04525c-0.14095,1.53996 -7.54747,3.84304 -13.21233,3.32456c-5.66485,-0.51847 -9.64287,-2.06217 -9.50192,-3.60213c0.14095,-1.53996 4.84747,-2.36804 10.51233,-1.84956c5.66485,0.51847 12.34287,0.58717 12.20192,2.12713z" data-paper-data="{&quot;index&quot;:null}" stroke="none" stroke-width="0" stroke-linecap="butt"/></g><path d="M153.55204,72.84205c2.26332,-1.88832 4.125,0 4.125,0" fill="none" stroke="#3a2f41" stroke-width="1" stroke-linecap="round"/><path d="M148.55696,55.59008c0,0 -0.88094,9.60253 -2.98538,9.65499c-2.10445,0.05246 -3.02501,-5.11817 -3.13549,-8.46502z" fill="#3a2f41" stroke="#3a2f41" stroke-width="1.5" stroke-linecap="butt"/><path d="M165.04956,64.57844c-2.49245,-0.16383 -2.61039,-10.02999 -2.61039,-10.02999c0,0 4.0144,1.13196 5.32749,1.50174c0.3515,0.09899 -0.44165,8.67782 -2.7171,8.52825z" data-paper-data="{&quot;index&quot;:null}" fill="#3a2f41" stroke="#3a2f41" stroke-width="1.5" stroke-linecap="butt"/></g></g></g></svg>