<svg version="1.1" xmlns="http://www.w3.org/2000/svg" xmlns:xlink="http://www.w3.org/1999/xlink" width="363.1197" height="237.58705" viewBox="0,0,363.1197,237.58705"><defs><linearGradient x1="109.30322" y1="93.2135" x2="177.92354" y2="130.74094" gradientUnits="userSpaceOnUse" id="color-1"><stop offset="0" stop-color="#cedee0" stop-opacity="0"/><stop offset="1" stop-color="#cedee0" stop-opacity="0.19676"/></linearGradient><linearGradient x1="300.38485" y1="186.27783" x2="429.43219" y2="168.10223" gradientUnits="userSpaceOnUse" id="color-2"><stop offset="0" stop-color="#ffffff" stop-opacity="0.26046"/><stop offset="1" stop-color="#ffffff" stop-opacity="0"/></linearGradient><linearGradient x1="290.68363" y1="227.31985" x2="414.13971" y2="185.58074" gradientUnits="userSpaceOnUse" id="color-3"><stop offset="0" stop-color="#ffffff" stop-opacity="0.26046"/><stop offset="1" stop-color="#ffffff" stop-opacity="0"/></linearGradient></defs><g transform="translate(-67.33655,-14.5898)"><g data-paper-data="{&quot;isPaintingLayer&quot;:true}" fill-rule="nonzero" stroke-linejoin="miter" stroke-miterlimit="10" stroke-dasharray="" stroke-dashoffset="0" style="mix-blend-mode: normal"><g data-paper-data="{&quot;index&quot;:null}" stroke="#3a2f41" stroke-width="2" stroke-linecap="butt"><path d="M87.2148,153.87893l-8.9797,-9.27839l8.2055,-3.96728l-10.40876,0.60253l-7.09961,-22.22788c0,0 15.78641,6.26519 32.13408,8.51459c4.13315,-0.33928 4.60001,10.1083 4.60001,10.1083z" fill="#3a2f41"/><path d="M106.04463,131.46383c-2.24491,0.96142 -16.04679,-11.66877 -17.90294,-16.34403c-0.75078,-1.89105 18.56,-5.95921 19.51447,-3.55511c1.85614,4.67525 1.7173,18.47352 -0.52758,19.43494z" data-paper-data="{&quot;index&quot;:null}" fill="#8c9ca0"/><path d="M106.57233,130.89058c2.3368,-0.54412 9.79414,12.8935 10.37978,17.63308c0.30114,2.43718 -18.8553,7.71546 -19.09217,5.79839c-0.58564,-4.73957 5.24729,-22.62463 7.58409,-23.16874z" fill="#e1e2db"/><path d="M105.54238,125.53325c3.0183,-0.07615 5.52352,2.17668 5.59555,5.03184c0.07205,2.85515 -2.31641,5.23145 -5.33471,5.30759c-3.0183,0.07615 -5.52351,-2.17668 -5.59554,-5.03184c-0.07205,-2.85515 2.3164,-5.23145 5.3347,-5.30759z" fill="#e1e2db"/></g><path d="M194.02101,90.76955l-10.64465,15.19819l-8.76336,-4.74793c0,0 8.2967,5.92402 8.00249,6.22813c-2.8705,4.37786 -5.64318,8.74909 -8.24954,12.95437c-10.94931,17.66637 -18.96343,32.40434 -18.96343,32.40434c0,0 -13.10012,0.15529 -22.48498,-4.97716c-6.5583,-3.58664 -19.09883,-11.43156 -24.11935,-26.21594c-4.04909,-11.92366 0.59266,-26.41796 1.96938,-29.1979c1.10083,-2.22286 9.49629,-9.56452 17.60045,-12.20419c13.49004,-4.39391 38.2783,-4.02792 38.2783,-4.02792z" fill="#3a2f41" stroke="none" stroke-width="0" stroke-linecap="butt"/><g stroke-linecap="butt"><path d="M163.89101,86.9373c5.81069,3.17777 11.72202,4.68266 13.20248,10.88526c1.43914,6.02953 -2.25433,15.77315 -7.11184,25.12268c-4.83471,9.30567 -11.96686,17.40115 -17.98511,19.38507c-6.08844,2.00711 -10.21471,-1.27639 -15.97754,-4.42801c-11.45924,-6.2669 -21.77488,-21.98041 -9.44777,-43.01986c8.10884,-13.83987 25.86056,-14.21206 37.31981,-7.94516z" fill="#e1e2db" stroke="none" stroke-width="0"/><path d="M163.89101,86.9373c11.45924,6.2669 -1.43478,12.72501 -7.65541,24.31564c-6.21939,11.58831 -8.75737,32.91628 -20.21661,26.64939c-11.45924,-6.2669 -21.77488,-21.98041 -9.44777,-43.01986c8.10884,-13.83987 25.86056,-14.21206 37.31981,-7.94516z" fill="#b8c1c0" stroke="none" stroke-width="0"/><path d="M129.24424,91.16518c8.88507,-10.13129 24.34073,-11.00242 34.66681,-5.35522l0.45916,0.25112c5.43559,2.97264 10.67744,5.53435 12.39064,11.13988c1.89853,6.21199 -1.41941,15.44527 -6.59948,25.41567c-3.57864,6.888 -9.31547,14.45715 -13.6488,17.17223c-7.44356,4.66385 -13.25076,2.07442 -20.49356,-1.88657c-9.72671,-5.31938 -18.62947,-17.44486 -13.56057,-33.85639" fill="none" stroke="#3a2f41" stroke-width="2"/></g><path d="M147.17175,160.99222l-10.35381,4.49537c0,0 -21.23419,-9.17995 -29.54139,-25.19245c-10.71493,-20.65354 -6.30758,-44.33569 9.41001,-61.49191c3.36707,-3.67525 12.80345,-12.4251 23.45866,-14.75796c12.79996,-2.80241 25.25475,0.62897 25.25475,0.62897l-2.96721,3.8532l9.16118,3.96168c0,0 -1.85829,1.99313 -2.05178,1.90686c-4.33538,-1.93336 -8.92655,-3.32775 -8.92655,-3.32775c0,0 3.72227,1.19565 8.47361,4.33445c-1.77394,2.17011 -10.54957,14.84995 -10.54957,14.84995l-4.74282,-0.21643l3.32714,2.24055l-7.46857,11.09903l-13.86268,-5.96302l12.73276,7.19847c0,0 -5.81686,10.40509 -8.39723,15.56432c-0.18201,0.36391 -6.47108,-1.31688 -6.47108,-1.31688c0,0 5.72096,3.29403 5.57985,3.56305c-1.66806,3.17976 -3.47478,7.83147 -3.47478,7.83147c0,0 29.29443,15.94564 29.24456,16.06827c-0.77567,1.90762 -14.68839,14.09947 -15.88045,13.41452c-1.72207,-0.98952 -12.12611,-5.25362 -12.12611,-5.25362z" fill="#3a2f41" stroke="url(#color-1)" stroke-width="0.5" stroke-linecap="butt"/><path d="M121.74312,91.82844c-19.72669,-26.52838 -16.46094,-55.67071 -16.46094,-55.67071l42.12743,35.86912" fill="#3a2f41" stroke="#3a2f41" stroke-width="2" stroke-linecap="round"/><path d="M114.05411,148.49307c-34.50256,-31.58202 -43.93793,-72.04572 -43.93793,-72.04572l45.79229,18.8055" fill="#3a2f41" stroke="#3a2f41" stroke-width="2" stroke-linecap="round"/><g stroke-width="1" stroke-linecap="butt"><path d="M143.88372,136.41301c0,0 1.68057,-3.3953 5.28121,-9.88748c3.81491,-6.87847 6.90157,-10.28191 6.90157,-10.28191c0,0 -2.74763,4.18496 -6.37295,10.36206c-3.22148,5.489 -5.80983,9.80733 -5.80983,9.80733z" fill="#e1e2db" stroke="#3a2f41"/><g fill="none" stroke="none" font-family="sans-serif" font-weight="normal" font-size="12" text-anchor="start"/></g><path d="M348.26861,162.56743c4.76753,2.47996 -1.01061,22.25938 -13.66881,46.61177c-12.6582,24.3524 -27.30725,44.72485 -32.07477,42.24489c-4.76753,-2.47996 1.69406,-24.35039 14.35225,-48.70277c12.6582,-24.3524 26.6238,-42.63385 31.39133,-40.15389z" fill="#3a2f41" stroke="none" stroke-width="0" stroke-linecap="butt"/><path d="M302.80498,203.46081l4.65125,-35.70278l121.181,-5.29982z" fill="#3a2f41" stroke="url(#color-2)" stroke-width="0.5" stroke-linecap="butt"/><path d="M414.73731,187.34832l-109.41576,53.3401l-20.19559,-29.80704z" data-paper-data="{&quot;index&quot;:null}" fill="#3a2f41" stroke="url(#color-3)" stroke-width="0.5" stroke-linecap="butt"/><g><path d="M301.86985,249.67257c0,0 -25.77656,-17.44958 -37.47054,-26.8756c-14.93094,-12.84492 -44.12494,-43.32009 -44.12494,-43.32009l21.83622,-41.4463c0,0 12.6935,1.07294 20.67078,1.68785c2.3876,0.18405 4.35271,0.32705 5.42858,0.38799c18.09693,4.3589 78.14789,23.03358 78.14789,23.03358c0,0 -10.34116,7.40605 -21.86453,28.8344c-17.1742,31.93635 -22.62348,57.69818 -22.62348,57.69818z" fill="#e1e2db" stroke="none" stroke-width="0" stroke-linecap="round"/><path d="M274.41879,231.06179c0,0 -30.44429,-22.8266 -37.94543,-29.41589c-10.75235,-9.44525 -18.45207,-27.08846 -18.45207,-27.08846l19.25298,-37.09067c0,0 11.93188,0.19814 16.35463,0.58827c3.0666,0.2705 7.63672,1.52807 7.63672,1.52807z" fill="#8c9ca0" stroke="none" stroke-width="0" stroke-linecap="butt"/><path d="M237.51631,137.97871c0,0 10.76302,-1.58292 29.07526,2.44769c16.55228,3.64323 79.89624,22.47659 79.89624,22.47659c0,0 -10.47104,7.64307 -21.99441,29.07142c-17.1742,31.93635 -22.51633,58.06508 -22.51633,58.06508c0,0 -46.84206,-33.51976 -65.96252,-50.31568c-9.66764,-8.4923 -17.97403,-25.16916 -17.97403,-25.16916z" fill="none" stroke="#3a2f41" stroke-width="2.5" stroke-linecap="round"/><path d="M245.15954,138.00085l-0.5146,22.83858l-22.04719,20.45227" fill="none" stroke="#3a2f41" stroke-width="1.5" stroke-linecap="round"/></g><path d="M236.65668,159.24624c-4.29509,7.89882 -19.79586,16.13817 -19.79586,16.13817c0,0 -3.823,-3.46595 -5.7537,-5.59333c-1.75879,-1.93797 -5.60647,-6.21134 -5.60647,-6.21134c0,0 -3.0977,-2.32306 -7.7136,-2.32082c-2.89195,0.00141 -15.58933,1.83048 -15.90678,1.67364c-0.06102,-0.03015 -2.78359,-2.65027 -5.39607,-5.96876c-3.03237,-3.85186 -6.0271,-13.54088 -5.99101,-17.17209c0.03932,-3.95601 1.56824,-8.51564 3.39582,-11.65139c2.79303,-4.79229 6.49017,-9.30806 11.28587,-12.40238c1.80723,-1.16607 5.87775,-2.85117 5.87775,-2.85117c0,0 9.4637,-1.46065 18.76678,0.8484c6.97238,7.94372 6.6512,17.06717 6.6512,17.06717l5.44801,4.12451c0,0 5.32129,0.64207 7.87807,1.13963c2.54821,0.49588 7.43698,1.84069 7.43698,1.84069c0,0 3.71811,13.44025 -0.57699,21.33907z" fill="#3a2f41" stroke="#8c9ca0" stroke-width="2" stroke-linecap="round"/><g data-paper-data="{&quot;index&quot;:null}" stroke="#3a2f41"><g data-paper-data="{&quot;index&quot;:null}"><g><path d="M309.04648,91.94664l-14.85662,-21.83213l78.46695,-52.87375l-9.56029,37.79584z" fill="#e1e2db" stroke-width="0" stroke-linecap="butt"/><path d="M309.04648,91.94665l-14.85662,-21.83213l33.00401,-22.53798l-2.36287,33.59106z" fill="#8c9ca0" stroke-width="0" stroke-linecap="butt"/><path d="M320.54773,52.22328l3.93206,28.42808" fill="none" stroke-width="1.5" stroke-linecap="round"/><path d="M339.30769,70.52562l-2.05718,-29.27628" fill="none" stroke-width="1.5" stroke-linecap="round"/><path d="M353.59019,29.22694l0.50703,31.63124" fill="none" stroke-width="1.5" stroke-linecap="round"/><path d="M298.4382,76.35747l-4.24829,-6.24294l77.96598,-53.24189l-9.05933,38.16399l-54.05004,36.91001l-1.93654,-2.84578" fill="none" stroke-width="2" stroke-linecap="butt"/></g><path d="M288.41961,112.08224l-20.47803,-30.09293l37.30886,-25.47772l20.47804,30.09292z" fill="#e1e2db" stroke-width="0" stroke-linecap="butt"/><path d="M288.41961,112.08225l-20.47804,-30.09294l21.52436,-14.69867l5.65015,40.21868z" fill="#8c9ca0" stroke-width="0" stroke-linecap="butt"/><path d="M289.79283,101.74586l-12.04591,-17.70171l24.15511,-16.49518l12.04592,17.70171z" fill="none" stroke-width="1.5" stroke-linecap="butt"/><path d="M289.46576,76.04152l0.32709,25.70433" fill="none" stroke-width="1.5" stroke-linecap="round"/><path d="M302.02839,92.95822l0.27521,-24.81925" fill="none" stroke-width="1.5" stroke-linecap="round"/><path d="M274.83497,91.64058l-6.65803,-9.78411l37.30886,-25.47772l20.47804,30.09293l-37.30888,25.47771l-5.65103,-8.3043" fill="none" stroke-width="2" stroke-linecap="butt"/></g><g data-paper-data="{&quot;index&quot;:null}" stroke-width="2" stroke-linecap="butt"><path d="M303.85136,103.5874l-32.62735,22.08794c0,0 -42.42393,2.59014 -56.32466,3.10361c-7.65548,0.28277 -20.19487,-0.27712 -20.19487,-0.27712l8.6219,-13.56039l40.19824,-10.8683l38.52443,-33.90883z" fill="#3a2f41"/><path d="M298.03065,107.529l-1.89801,1.08363l-22.37073,-30.95628l1.69451,-1.26587z" fill="#8ea8ab"/></g></g><g stroke="#3a2f41" stroke-width="2"><g fill="#e1e2db"><path d="M301.25948,128.28712l3.40758,-30.28986l9.7625,25.72268z" stroke-linecap="round"/><path d="M305.98576,125.55968l11.30186,-28.30822l2.60735,27.38913z" stroke-linecap="round"/><path d="M247.52767,158.18237l1.28596,-4.53162l-11.97616,2.16814l6.64097,-6.32461l-3.7016,-2.17199c0,0 20.47615,-9.40187 26.54939,-12.7103c3.89308,-2.12077 6.50176,-3.68927 6.50176,-3.68927l2.24026,-18.6547l20.6561,-14.41427c0,0 -13.2087,20.66277 -8.23427,22.78027c1.2192,0.519 25.48541,-4.19942 25.48541,-4.19942l16.25359,-15.67244l-7.66719,24.37704c0,0 -5.88853,3.26109 -13.87065,6.55373c-7.98213,3.29265 10.72553,-5.11134 11.94153,-5.75796l-6.02453,9.20096c0,0 -12.51257,4.4101 -16.70578,6.19215c-12.2344,5.1994 -49.37483,16.85431 -49.37483,16.85431z" stroke-linecap="butt"/></g><g stroke-linecap="butt"><path d="M284.38942,153.62424l-36.14926,15.6733c0,0 -42.1712,-5.29987 -55.92713,-7.36588c-7.57573,-1.1378 -13.24344,-6.35302 -13.24344,-6.35302l11.9767,-10.39483l33.96705,-2.23828l44.13062,-26.19979z" fill="#3a2f41"/><path d="M277.9402,156.42142l-2.06565,0.71397l-16.26022,-34.55931l1.89937,-0.93067z" fill="#8ea8ab"/></g></g><g><path d="M177.74483,120.32727c1.74979,0.95876 2.51425,7.26441 1.46049,9.18759c-1.05376,1.92318 -6.37467,4.74605 -8.12445,3.78729c-1.74979,-0.95876 -0.19955,-6.07034 0.85423,-7.99352c1.05376,-1.92318 4.05996,-5.94012 5.80975,-4.98136z" fill="#3a2f41" stroke="none" stroke-width="0" stroke-linecap="butt"/><g fill="#8c9ca0" stroke="#8c9ca0" stroke-width="1.5" stroke-linecap="butt"><path d="M178.09774,148.4453c-1.00888,0.30634 -8.07053,-15.04848 -8.07053,-15.04848l8.60129,-3.86447l-1.7356,-10.03439c0,0 16.84769,-2.36424 17.21995,-1.48676c0.20584,0.48518 -3.16872,2.71235 -6.49589,5.96178c-3.06067,2.98914 -6.08863,7.04016 -6.08863,7.04016c0,0 -1.35983,5.29962 -2.15002,9.81193c-0.72251,4.12586 -0.8599,7.4925 -1.28056,7.62023z"/></g><path d="M171.45584,134.17564l-1.40635,-1.33468l1.53292,-7.29506l4.96385,-5.72689l2.05367,0.23458" fill="none" stroke="#8c9ca0" stroke-width="2" stroke-linecap="round"/></g><g fill="#8c9ca0" stroke="#3a2f41" stroke-width="2" stroke-linecap="butt"><path d="M192.31171,132.55573c1.52888,0.95692 1.9576,3.0279 0.95758,4.62565c-1.00002,1.59775 -3.05012,2.11724 -4.579,1.16031c-1.52888,-0.95692 -1.9576,-3.0279 -0.95758,-4.62565c1.00002,-1.59774 3.05013,-2.11723 4.579,-1.16031z"/><path d="M200.93263,137.20609c1.58203,0.99019 2.01708,3.14682 0.97174,4.81697c-1.04535,1.67014 -3.17524,2.22136 -4.75726,1.23117c-1.58203,-0.99019 -2.01708,-3.14681 -0.97174,-4.81695c1.04535,-1.67014 3.17525,-2.22138 4.75728,-1.23119z"/></g><path d="" fill="#3a2f41" stroke="#8c9ca0" stroke-width="2" stroke-linecap="butt"/><path d="" fill="#3a2f41" stroke="#8c9ca0" stroke-width="2" stroke-linecap="butt"/></g></g></svg>