<svg version="1.1" xmlns="http://www.w3.org/2000/svg" xmlns:xlink="http://www.w3.org/1999/xlink" width="357.74898" height="507.74627" viewBox="0,0,357.74898,507.74627"><g transform="translate(-66.09101,75.12245)"><g data-paper-data="{&quot;isPaintingLayer&quot;:true}" fill-rule="nonzero" stroke-linejoin="miter" stroke-miterlimit="10" stroke-dasharray="" stroke-dashoffset="0" style="mix-blend-mode: normal"><g data-paper-data="{&quot;index&quot;:null}"><g fill="#e1e2db" stroke="#3a2f41" stroke-width="2" stroke-linecap="butt"><path d="M122.28986,132.77185l-36.9155,9.10887l11.95581,-21.20994l-28.642,-0.65767l22.54394,-19.68971l-20.30239,-24.25732l67.31133,12.31852l17.26314,-12.36754l-7.8947,38.31788l10.6986,19.71438l-18.26967,17.5957z"/><path d="M128.43233,155.41496l-15.60868,-19.1001l38.20019,-31.21735l15.60868,19.1001z"/></g><g stroke-width="2.5"><path d="M209.45297,112.73636c3.98501,3.28304 -1.09684,26.06464 -1.09684,26.06464c0,0 -12.90792,53.72597 -27.04397,55.53252c-22.48341,2.87334 -54.18712,-35.32671 -63.49574,-42.25733c-4.99458,-4.11479 41.71632,-42.65351 46.44258,-41.17768c3.10973,2.96551 18.22518,30.59792 18.22518,30.59792c0,0 6.38484,-12.186 13.34834,-20.92937c4.93988,-6.20252 10.17097,-10.67256 13.62045,-7.83071z" fill="#3a2f41" stroke="#3a2f41" stroke-linecap="butt"/><path d="M168.06142,118.25628l-43,39.33334" fill="none" stroke="#8c9ca0" stroke-linecap="round"/></g></g><g stroke-linecap="butt"><path d="M269.22542,394.94449l-5.33911,-33.83061l43.99763,-9.59098l61.20087,78.50923z" data-paper-data="{&quot;index&quot;:null}" fill="#3a2f41" stroke="#3a2f41" stroke-width="2.5"/><g data-paper-data="{&quot;index&quot;:null}"><g><path d="M266.60821,348.38689l-20.33988,-79.10224l27.27747,-6.44011l20.33988,79.10225z" fill="#7c7984" stroke="none" stroke-width="0"/><path d="M251.21317,286.5136l-4.47186,-17.39116l27.27748,-6.44011l4.31531,17.665z" fill="#626171" stroke="none" stroke-width="0"/><path d="M267.08117,348.2247l-20.33988,-79.10225l27.27748,-6.4401l20.33988,79.10224z" fill="none" stroke="#3a2f41" stroke-width="2.5"/></g><path d="M309.78729,347.46138c0,0 -5.48543,7.7922 -21.67368,12.21007c-18.89326,5.15609 -27.1077,1.90689 -27.1077,1.90689c0,0 -1.61044,-1.21483 -2.78675,-4.48966c-0.34962,-0.97329 0.49531,-3.40914 0.07514,-4.39284c-0.97993,-2.29428 -2.37463,-2.93922 -2.56382,-4.35381c-0.3461,-2.58713 3.28916,-7.23807 3.28916,-7.23807l43.21047,-10.35973c0,0 4.29494,0.15257 5.16128,4.20296c0.79741,3.72803 -0.11961,3.95882 0.18846,5.20493c0.38267,1.54781 3.10837,3.5479 2.20738,7.30928z" fill="#e1e2db" stroke="#3a2f41" stroke-width="2.5"/></g><path d="M315.79058,361.6656l23.51125,30.16053l-30.75658,16.93418l-26.27033,-9.23062z" data-paper-data="{&quot;index&quot;:null}" fill="#e1e2db" stroke="#3a2f41" stroke-width="2.5"/></g><g stroke-linecap="butt"><path d="M109.13989,413.29855l76,-54l45,-1.66667l4,37z" fill="#3a2f41" stroke="#3a2f41" stroke-width="2.5"/><g><g><path d="M195.84227,348.72443l0.0025,-81.67543l28.02191,-0.55492l-0.0025,81.67543z" fill="#7c7984" stroke="none" stroke-width="0"/><path d="M195.56556,285.19286l-0.21925,-18.18313l28.02192,-0.55492l-0.00055,17.95689z" fill="#626171" stroke="none" stroke-width="0"/><path d="M195.34381,348.68516l0.0025,-81.67543l28.02192,-0.55493l-0.0025,81.67543z" fill="none" stroke="#3a2f41" stroke-width="2.5"/></g><path d="M181.8147,358.0249c-1.80921,-3.41855 0.33261,-6.03436 0.31782,-7.6287c-0.01192,-1.28357 -0.95752,-1.27874 -1.11352,-5.08791c-0.16951,-4.13854 3.95216,-5.35576 3.95216,-5.35576l44.42906,-0.72613c0,0 4.67886,3.59926 4.98787,6.19108c0.169,1.41715 -1.02118,2.38906 -1.39896,4.85508c-0.16199,1.05734 1.26287,3.20608 1.16661,4.23577c-0.32381,3.46459 -1.58103,5.04216 -1.58103,5.04216c0,0 -7.14664,5.19228 -26.7287,4.90308c-16.77843,-0.24779 -24.03136,-6.42866 -24.03136,-6.42866z" fill="#e1e2db" stroke="#3a2f41" stroke-width="2.5"/></g><path d="M154.79626,380.85848l23.50299,-16.69949l32.09515,34.01887l-32.86444,4.90776z" fill="#e1e2db" stroke="#3a2f41" stroke-width="2.5"/></g><g data-paper-data="{&quot;index&quot;:null}" stroke="#3a2f41" stroke-width="2"><path d="M174.57929,267.4636l17.4026,-61.51693l38.28572,3.59515l-0.87013,63.00614z" data-paper-data="{&quot;index&quot;:null}" fill="#e1e2db" stroke-linecap="butt"/><path d="M204.68252,210.58963l-3.6143,20.5l-14.97354,1.5" fill="none" stroke-linecap="round"/><path d="M201.06821,212.58963l-2.58164,15l-11.35923,1" fill="none" stroke-linecap="round"/></g><g stroke="#3a2f41" stroke-width="2"><path d="M232.89832,274.10336l-5.87449,-62.73783l38.24033,-6.6501l22.39237,59.92924z" data-paper-data="{&quot;index&quot;:null}" fill="#e1e2db" stroke-linecap="butt"/><path d="M273.30208,230.80284l-15.18635,-0.29605l-5.26342,-20.14591" fill="none" stroke-linecap="round"/><path d="M271.94561,226.89816l-11.50973,-0.08709l-3.78791,-14.74595" fill="none" stroke-linecap="round"/></g><g stroke-linecap="butt"><path d="M215.34228,223.65621l2.79622,-17.97572h26.3644v21.17141z" fill="#8c9ca0" stroke="#3a2f41" stroke-width="2"/><path d="M215.74173,221.25944l2.79622,-17.97572h26.3644v21.17141z" fill="#e1e2db" stroke="#e1e2db" stroke-width="3.5"/></g><g><path d="M281.2621,119.18568c-0.37978,6.02781 -19.93786,9.70145 -43.68418,8.20531c-23.74632,-1.49614 -42.68865,-7.5955 -42.30887,-13.62331c0.37978,-6.02781 19.93786,-9.70145 43.68418,-8.20531c23.74632,1.49614 42.68865,7.5955 42.30887,13.62331z" fill="#3a2f41" stroke="#3a2f41" stroke-width="2.5" stroke-linecap="butt"/><g data-paper-data="{&quot;index&quot;:null}"><path d="M267.85148,149.06242c-2.02806,-0.26308 -4.02357,-0.37293 -5.54724,-0.51449c-17.54065,-1.62965 -36.44949,-2.45728 -53.96332,-3.46141c-2.10568,-0.12072 -4.24317,-0.23759 -6.40164,-0.35189c-0.92203,-11.9613 -2.97765,-21.62059 7.97346,-30.45136c8.49364,-6.84912 19.10526,-6.83349 29.14902,-6.23904c9.15453,0.54183 29.48825,9.12366 30.80188,12.90314c3.18921,9.17579 1.02138,19.25238 -2.01217,28.11506z" fill="#8c9ca0" stroke="#3a2f41" stroke-width="2" stroke-linecap="butt"/><g><path d="M221.47947,109.97555c-0.46104,-0.31837 2.60975,-4.46045 3.07819,-4.77238c0.18618,-0.05123 0.48331,-0.40014 1.13336,0.09294c2.96862,2.25173 9.75537,8.81409 9.75537,8.81409l-10.70405,7.57817z" data-paper-data="{&quot;index&quot;:null}" fill="#8c9ca0" stroke="#3a2f41" stroke-width="4.5" stroke-linecap="round"/><path d="M235.47274,114.15134c0,0 -8.08366,-7.89378 -4.52748,-9.52367c4.23114,-1.93924 20.28837,2.3046 21.30758,1.90543c1.05917,-1.56274 2.7909,4.24501 2.77309,5.56815c-1.06264,2.62177 -11.43981,10.86322 -11.43981,10.86322z" fill="#3a2f41" stroke="#3a2f41" stroke-width="4.5" stroke-linecap="round"/><path d="M223.45909,109.67286c0.02874,-0.45615 1.33108,-4.06876 2.38695,-4.468c0.629,-0.52812 12.05313,-4.95877 13.57976,-4.63872c2.41309,0.5059 12.08009,5.34092 13.04854,6.28416c0.53708,0.28815 0.58303,3.42142 0.53939,4.69568" fill="none" stroke="#3a2f41" stroke-width="6.5" stroke-linecap="butt"/><g><path d="M221.47947,109.97554c-0.46104,-0.31837 2.60975,-4.46045 3.07819,-4.77238c0.18618,-0.05123 0.48331,-0.40014 1.13336,0.09294c2.96861,2.25173 9.75537,8.81409 9.75537,8.81409l-10.70405,7.57817z" data-paper-data="{&quot;index&quot;:null}" fill="#8c9ca0" stroke="#12161a" stroke-width="0" stroke-linecap="round"/><path d="M235.47274,114.15133c0,0 14.90425,-6.88357 16.78009,-7.61824c1.05917,-1.56273 2.7909,4.24502 2.77309,5.56816c-1.06265,2.62177 -11.43982,10.86322 -11.43982,10.86322z" fill="#8c9ca0" stroke="#12161a" stroke-width="0" stroke-linecap="round"/><path d="M223.45909,109.67286c0.02874,-0.45615 1.33108,-4.06876 2.38695,-4.468c0.629,-0.52812 12.05313,-4.95877 13.57976,-4.63872c2.41309,0.5059 12.08009,5.34092 13.04854,6.28416c0.53708,0.28815 0.58303,3.42142 0.53939,4.69568" fill="none" stroke="#8c9ca0" stroke-width="2" stroke-linecap="butt"/></g></g></g><path d="M273.6169,138.50275c-17.79391,-1.12111 -48.84202,4.01784 -48.39676,-3.04924c0.20656,-3.27843 11.76001,-6.18436 20.56816,-10.60529c10.17896,-5.10896 16.6627,-11.60918 26.20198,-11.00815c17.79391,1.12111 12.63763,25.35645 1.62661,24.6627z" fill="#3a2f41" stroke="#3a2f41" stroke-width="2.5" stroke-linecap="butt"/><path d="M204.01689,109.42158c3.05611,0.19255 7.11863,7.95367 13.10287,14.48718c4.56896,4.98833 11.22264,8.53385 11.02986,11.5935c-0.44526,7.06709 -21.33176,2.81234 -31.96211,-2.39162c-6.19887,-3.03457 -3.50705,-24.40332 7.82938,-23.68906z" data-paper-data="{&quot;index&quot;:null}" fill="#3a2f41" stroke="#3a2f41" stroke-width="2.5" stroke-linecap="butt"/><path d="M187.45248,212.37848l1.81913,-7.55832l-5.85803,-15.60069l11.44092,-15.53197l4.51181,-42.92956l73.347,4.62123l-0.50869,81.96127z" fill="#3a2f41" stroke="#3a2f41" stroke-width="2.5" stroke-linecap="butt"/><path d="M216.50363,213.3464l0.97329,-6.96743l-10.17462,-17.05028l12.01165,-16.09887l4.51406,-42.54881c0,0 1.92057,1.00304 3.32348,1.15449c1.39941,0.15106 3.8189,-0.32663 3.8189,-0.32663l-4.25803,43.2989l-11.64138,15.02687l10.18368,16.11355l-2.00646,7.82315z" fill="#8c9ca0" stroke="#3a2f41" stroke-width="2" stroke-linecap="butt"/><path d="M192.85555,205.81087l60.79582,2.31905" fill="none" stroke="#3a2f41" stroke-width="2" stroke-linecap="round"/><path d="M245.15227,175.09938l-42.99652,-2.709" fill="none" stroke="#3a2f41" stroke-width="2" stroke-linecap="round"/></g><g><g fill="#e1e2db" stroke="#3a2f41" stroke-width="2" stroke-linecap="butt"><path d="M339.96158,158.97837l-18.26967,-17.5957l10.6986,-19.71438l-7.8947,-38.31787l17.26314,12.36754l67.31133,-12.31852l-20.30239,24.25732l22.54394,19.68971l-28.642,0.65767l11.95581,21.20994l-36.9155,-9.10888z"/><path d="M313.36744,131.53098l15.60868,-19.10009l38.20019,31.21736l-15.60868,19.10009z"/></g><g stroke-width="2.5"><path d="M297.5158,148.8297c0,0 15.11545,-27.63241 18.22518,-30.59792c4.72625,-1.47583 51.43716,37.06289 46.44257,41.17768c-9.30862,6.93062 -41.01232,45.13067 -63.49574,42.25733c-14.13605,-1.80656 -27.04397,-55.53252 -27.04397,-55.53252c0,0 -5.08186,-22.7816 -1.09684,-26.06464c8.31205,-6.84785 26.9688,28.76008 26.9688,28.76008z" fill="#3a2f41" stroke="#3a2f41" stroke-linecap="butt"/><path d="M354.93854,164.9229l-43,-39.33334" fill="none" stroke="#8c9ca0" stroke-linecap="round"/></g></g><path d="M193.212,121.97942c-0.35782,1.73228 -0.18027,3.66514 0.13965,5.59668c0.98493,5.94659 5.25357,7.68017 5.25357,7.68017l-3.33333,38.33333l-12,16l2,5" fill="none" stroke="#8c9ca0" stroke-width="2" stroke-linecap="round"/><g><path d="M166.99351,-24.84431c0,0 34.88454,11.34027 57.21013,33.97374c13.23475,13.41728 -10.80945,4.06763 -21.64427,14.13066c-5.02913,4.6709 -21.73006,15.0288 -21.73006,15.0288z" data-paper-data="{&quot;index&quot;:null}" fill="#3a2f41" stroke="#3a2f41" stroke-width="2.5" stroke-linecap="butt"/><g stroke="#3a2f41" stroke-width="2.5" stroke-linecap="butt"><g fill="#3a2f41"><g><path d="M284.23116,78.59636c-18.12224,9.29807 -27.15193,14.30553 -43.80048,-3.32379c-16.64855,-17.62931 -31.91208,-41.04098 -14.46804,-51.55645c88.40236,-53.28999 126.53212,41.74957 126.53212,41.74957c0,0 -37.4597,-2.67403 -68.26361,13.13068z"/><path d="M226.69974,49.99152c6.89032,10.00653 10.56592,14.9801 -0.04091,25.03554c-4.5879,4.3494 3.44051,19.39705 -6.8873,20.67962c-32.21359,4.00047 -40.37173,-11.20403 -40.37173,-11.20403c0,0 10.05848,-0.03732 8.59108,-1.8761c-38.74562,-48.55154 21.51829,-88.43419 21.51829,-88.43419c0,0 5.47852,38.79018 17.19057,55.79914z"/><path d="M269.02991,50.54306c-6.97516,20.33731 -10.196,30.75989 -34.39605,29.23517c-24.20004,-1.52473 -53.10683,-3.35375 -47.45691,-24.13866c2.75054,-67.55139 60.58197,-77.93143 94.47596,-74.18224c26.82394,2.96715 47.72345,18.98097 47.72345,18.98097c0,0 -48.49019,15.53571 -60.34646,50.10475z"/></g><path d="M248.45313,98.85699c-10.24709,0.5374 -28.23846,-3.14232 -34.37268,-5.71784c-6.04215,-2.53686 -3.70784,-0.57524 -7.66525,-11.93818c-7.97513,-22.89901 -12.32002,-50.50704 7.89983,-52.9621c102.46953,-12.44177 100.13361,89.69725 100.13361,89.69725c0,0 -32.00782,-16.23683 -65.99551,-19.07914z"/></g><g fill="#8c9ca0"><g><path d="M352.49477,65.46569c0,0 -15.42099,-1.10082 -34.61063,2.28468c0.5079,-0.28773 1.00107,-0.57284 1.47281,-0.84116c1.21325,-0.56116 2.65773,-1.11893 3.74275,-1.88272l0.37903,-0.04098c0.1027,-0.00924 0.18613,-0.09223 0.19281,-0.19831c0.0055,-0.08728 -0.04249,-0.16556 -0.11577,-0.20286l-0.37023,-0.19885l-0.01085,0.0202c-1.97045,-1.53893 -4.73076,-2.69641 -6.8841,-4.01468c-0.35888,-0.11845 -0.52084,-0.27624 -0.72608,-0.50761c2.18313,0.83868 5.67709,-0.50389 7.75656,-0.65075c0.84809,-0.25292 3.44584,-0.24855 3.63463,-1.39421c0.15277,-0.92712 -1.73332,-1.67036 -1.5115,-2.44829c0.01294,-0.04537 1.58913,0.41747 1.78634,0.4383c0.86805,0.02436 1.16599,-0.59206 0.90623,-1.40771c-0.64758,-2.03354 -1.70974,-4.28548 -1.7826,-6.4309c1.41741,1.50596 5.68211,2.38838 7.47181,2.69214c0.22551,0.1579 1.19909,0.60522 1.44866,0.2352c0.27842,-0.41277 -0.7306,-1.26936 -0.86791,-1.6265c-0.63336,-1.64724 -1.06315,-4.02159 -1.16695,-5.77234c-0.9223,-2.75265 -1.70733,-5.69173 -2.80367,-8.43926c-0.33546,-1.50015 -0.87672,-2.9471 -1.42537,-4.38894c16.00746,16.14 23.48402,34.77556 23.48402,34.77556z"/><path d="M281.6529,-18.54266c26.82394,2.96715 47.72345,18.98098 47.72345,18.98098c0,0 -9.97656,3.19639 -21.98562,9.91556c-1.93358,-0.35336 -3.88367,-0.72391 -5.7717,-0.39008c-0.52699,0.48302 -0.84079,0.21677 -1.24379,0.68455c-0.12259,0.1423 -0.72384,-0.11745 -0.54062,-0.1588c1.38953,-0.31365 2.15305,-2.00558 3.33491,-3.61575c0.69155,-2.3037 5.93622,-5.90074 0.95607,-6.27291c-1.3891,-0.08752 -2.86691,-0.33493 -4.25601,-0.26586c-0.12785,0.00635 -1.41848,1.00942 -1.55338,0.74429c-0.24222,-0.47607 0.93426,-1.5419 1.17272,-1.88754c1.02129,-0.81633 3.91903,-2.7632 4.32891,-4.00745c0.27521,-0.83544 -1.59474,-1.92527 -2.24442,-1.98439c-0.99015,-0.06238 -1.98358,-0.154 -2.97522,-0.18479c-0.1743,-0.00541 -1.40748,0.3944 -1.4566,0.3444c-0.12954,-0.13185 0.35643,-0.11834 0.50584,-0.22714c0.37589,-0.2737 0.48638,-0.57091 0.29726,-1.00984c-0.07357,-0.17074 -0.22514,-0.30324 -0.41484,-0.39672c1.50536,-0.469 3.54275,-1.41029 2.86095,-1.99101c-0.79642,-0.67834 -2.68348,-0.49856 -3.68411,-0.79981c-0.77435,-0.72766 -2.06414,0.04959 -2.82174,-0.53509c-1.11931,-0.86384 -4.11735,-1.48033 -5.60784,-1.57434c-0.42406,-0.02675 -0.84814,-0.0529 -1.27214,-0.08055c-3.33859,-0.21776 0.21961,-0.20155 2.24485,-0.3149c0.14485,0.02898 0.29242,0.0493 0.44346,0.05882h0.00001v0v0v0l0.42421,0.02673c0.11714,0.00738 0.21808,-0.0816 0.22546,-0.19874c0.00738,-0.11714 -0.0816,-0.21808 -0.19874,-0.22546v0v0l-0.42421,-0.02673c-1.2331,-0.07776 -2.17828,-0.96443 -3.40806,-1.2126c-1.36112,-1.5435 -5.04758,-2.8661 -7.3249,-3.6557c0.90359,0.0771 1.79264,0.1643 2.66581,0.26089z"/></g><path d="M314.44865,117.93608c0,0 -9.55726,-4.84818 -23.77239,-9.70985c-0.72581,-1.44826 -1.58823,-2.8703 -2.10879,-4.3391c-0.72759,-1.00763 2.3772,1.1893 3.29466,0.57428c0.50193,-0.33648 -0.42706,-3.55729 -0.47749,-4.28556c-0.01093,-2.06465 -0.29463,-4.27145 -0.50137,-6.33589c-0.08768,-0.87557 -0.70389,-1.57098 -0.70429,-2.40707c-0.36166,-1.51603 -0.65865,-3.36749 -0.71882,-4.97936c0.35376,0.45331 0.9796,0.79504 1.41913,1.00987c1.77952,0.86976 3.47435,1.88452 5.18663,2.87986c2.56622,1.49173 5.39838,2.55735 7.98925,3.98763c0.28089,0.12002 1.86313,0.87584 2.07563,0.81301c0.73514,-0.21735 0.28417,-1.00215 0.15243,-1.41438c-0.5574,-1.74403 -0.31187,-3.6207 -0.71953,-5.40185c-0.00731,-0.13761 -0.01462,-0.27522 -0.02193,-0.41284c1.3896,1.42127 3.57842,2.32545 5.52572,3.199c3.65024,15.05752 3.38118,26.82227 3.38118,26.82227z"/></g></g><g data-paper-data="{&quot;index&quot;:null}" stroke-linecap="butt"><path d="M188.31677,60.23351c1.17842,-18.70351 15.70657,-39.92328 39.56883,-39.10101c36.27553,1.25 47.9069,25.83469 46.72848,44.53818c-1.17841,18.70349 -14.0035,33.97849 -45.29586,31.36131c-15.6288,-1.30713 -28.31508,-5.86191 -34.77335,-12.24351c-6.64363,-6.56479 -6.82564,-15.07089 -6.2281,-24.55497z" fill="#7c7984" stroke="none" stroke-width="0"/><path d="M188.31677,60.23351c1.17842,-18.70351 15.70657,-39.92328 39.56883,-39.10101c36.27553,1.25 47.9069,25.83469 46.72848,44.53818c-1.17841,18.70349 -30.06467,5.37209 -49.59324,3.99273c-19.53246,-1.37964 -37.88248,9.27361 -36.70407,-9.4299z" fill="#626171" stroke="none" stroke-width="0"/><path d="M242.66341,23.62289c24.6953,6.48335 32.92421,26.59629 31.92396,42.47198c-1.17841,18.70349 -14.0035,33.97849 -45.29586,31.36131c-16.66664,-1.39393 -28.59789,-6.02276 -34.92224,-13.10129c-5.70695,-6.38748 -6.63817,-14.82535 -6.0792,-23.69718h-0.00001c1.06189,-16.85398 11.59001,-45.49127 54.24288,-37.0851" fill="none" stroke="#3a2f41" stroke-width="2"/></g><path d="M191.98585,76.0746c-0.24018,0.82328 -9.59669,0.58238 -13.53867,-0.46965c-5.85041,-1.56133 -5.47433,-2.90952 -5.23414,-3.73279c0.24018,-0.82328 18.77281,4.20243 18.77281,4.20243z" data-paper-data="{&quot;index&quot;:null}" fill="#3a2f41" stroke="#8c9ca0" stroke-width="0.5" stroke-linecap="butt"/><path d="M209.03421,-33.78768l-11.24617,-26.54596l19.82854,7.4957l11.09384,-20.19417l16.66301,17.29977l18.15574,-13.80387l-3.44415,29.8793z" fill="#e1e2db" stroke="#3a2f41" stroke-width="2.5" stroke-linecap="butt"/><path d="M235.01649,21.36962c-0.04009,0.63631 -0.6764,0.59622 -0.6764,0.59622c-0.37707,-0.02376 -1.31976,-0.08315 -1.69683,-0.10691c-3.07509,-0.19375 -6.12233,-0.16268 -9.18028,0.01859c-3.05349,0.18099 -5.6584,1.034 -8.76115,0.83851c0,0 -0.63631,-0.04009 -0.59622,-0.6764c0.04009,-0.63631 0.6764,-0.59622 0.6764,-0.59622c3.04763,0.19202 5.60423,-0.64781 8.61451,-0.8393c3.10205,-0.19733 6.20745,-0.21434 9.32692,-0.0178c0.37707,0.02376 0.75414,0.04751 1.13122,0.07127l0.56561,0.03564c0,0 0.63631,0.04009 0.59622,0.6764z" fill="#3a2f41" stroke="#3a2f41" stroke-width="2.5" stroke-linecap="butt"/><path d="M268.19212,77.33291c0,0 -8.1094,-0.18978 -18.35819,-0.52445c-11.53357,-0.37662 -19.59834,-0.23471 -19.59834,-0.23471c0,0 2.62808,-2.29946 7.54066,-3.93475c3.15444,-1.05005 7.2508,-1.82624 12.19814,-1.54398c11.94155,0.6813 18.21774,6.23788 18.21774,6.23788z" data-paper-data="{&quot;index&quot;:null}" fill="#3a2f41" stroke="#3a2f41" stroke-width="1" stroke-linecap="butt"/><g data-paper-data="{&quot;index&quot;:null}" stroke="#3a2f41" stroke-width="1" stroke-linecap="round"><path d="M198.98313,85.67383c22.95601,-1.31345 53.21254,-7.82576 53.21254,-7.82576c0,0 3.25156,16.24935 -16.80858,18.58978c-17.21823,1.91479 -36.45024,-10.66148 -36.45024,-10.66148" data-paper-data="{&quot;index&quot;:null}" fill="#ffffff"/><path d="M200.09721,86.665c-0.8908,-0.59661 -0.73715,-0.88718 -0.73715,-0.88718c2.11737,-0.04637 4.03391,-0.51102 4.03391,-0.51102l5.5881,5.73205c0,0 -7.20911,-3.21153 -8.88486,-4.33385z" data-paper-data="{&quot;index&quot;:null}" fill="#3a2f41"/></g><path d="M245.81422,45.7991c-15.90554,7.63928 -39.09525,28.30887 -39.09525,28.30887c0,0 -18.81812,-3.33154 -23.99465,-12.31762c-1.10778,-3.54916 0.96641,8.49975 0.96641,8.49975c0,0 -17.52344,-8.06234 -15.57774,-26.92248c1.80553,-12.24305 10.35289,-27.30508 28.7962,-31.24175c0.89176,-0.19035 -1.76189,-1.61705 -3.24509,-4.04256c-2.10611,-3.44416 -3.35577,-8.02094 -1.6772,-6.35045c8.04765,8.00894 37.86549,12.82107 52.00244,22.13698c10.1269,6.67338 8.6357,18.65809 1.82488,21.92926z" data-paper-data="{&quot;index&quot;:null}" fill="#3a2f41" stroke="#626171" stroke-width="1.5" stroke-linecap="butt"/><path d="M291.47643,66.09481c-4.56706,4.92881 -30.31037,-1.83528 -40.64062,-11.40735c-10.33024,-9.57206 -15.00222,-24.66067 -10.43516,-29.58948c4.56706,-4.92881 16.64371,-4.49805 26.97395,5.07401c10.33024,9.57206 28.66889,30.994 24.10183,35.92281z" fill="#3a2f41" stroke="#3a2f41" stroke-width="2.5" stroke-linecap="butt"/><path d="M247.19244,25.19684c-1.60046,1.92056 -3.52102,0.32009 -3.52102,0.32009l-2,-1.66667c-3.39903,-2.9005 -7.72687,-3.15216 -11.97392,-4.1541c-5.70622,-1.34617 -11.64953,-1.65999 -17.34036,-3.00167c-2.77651,-0.6546 -5.47425,-1.69786 -8.29425,-2.32431c0,0 -2.44047,-0.54233 -1.89814,-2.9828c0.54233,-2.44047 2.9828,-1.89814 2.9828,-1.89814c6.68026,1.48499 13.10056,3.17957 19.86747,4.30761c6.73901,1.12339 14.4266,1.76745 19.85733,6.2123l2,1.66666c0,0 1.92055,1.60046 0.32009,3.52102z" fill="#3a2f41" stroke="none" stroke-width="0.5" stroke-linecap="butt"/><path d="M239.93855,54.26304c-8,8.97057 -24.83334,15.66666 -24.83334,15.66666c0,0 -1.16667,-14.69611 7.16666,-21.66667c3.81261,-3.18912 10.567,-4.66667 12.5,-4.66667c0.93371,0 15.91281,-6.83115 18.53649,-2.61859c2.80798,4.50845 -3.17296,13.06696 -14.03648,17.61859z" fill="#3a2f41" stroke="#3a2f41" stroke-width="2.5" stroke-linecap="butt"/><path d="M278.93854,95.08958c0,1.933 -6.11878,3.5 -13.66667,3.5c-7.54789,0 -14.33333,-10.83334 -14.33333,-10.83334c0,0 11.11877,2.16667 19,-2.83333c6.37347,-4.04345 9,8.23367 9,10.16667z" fill="#3a2f41" stroke="#3a2f41" stroke-width="2.5" stroke-linecap="butt"/><path d="M241.13057,19.9549c-0.74872,-28.12612 16.53389,-60.73848 16.53389,-60.73848c0,0 33.31582,32.79953 36.07276,74.04047" data-paper-data="{&quot;index&quot;:null}" fill="#3a2f41" stroke="#8c9ca0" stroke-width="2.5" stroke-linecap="butt"/><path d="M255.28555,93.44665c0.1179,0.11133 0.20873,0.25101 0.2616,0.40814c0.03603,-0.15821 0.0746,-0.31527 0.11513,-0.47143c-0.07311,-0.07005 -0.14716,-0.14787 -0.22214,-0.23386c-0.04946,0.10148 -0.10095,0.20091 -0.15458,0.29715zM254.76451,95.72855l-0.1129,-0.07527l-0.11216,0.31527c-1.45021,0.52695 -2.07913,0.6649 -2.8676,0.32046l-0.05562,0.16685l-0.97812,-0.32604c-0.40862,-0.12567 -0.70565,-0.50614 -0.70565,-0.95598c0,-0.44984 0.29702,-0.83031 0.70565,-0.95598l0.97812,-0.32604c1.48654,-0.37593 1.99267,-2.99193 1.98289,-4.38465c-0.01102,-1.56993 0.43027,-2.67167 0.67958,-4.16018c0.36065,-2.15325 -0.3353,-4.38074 -0.34625,-6.50648c0,0 0,-0.09621 0.02984,-0.22895c-0.22183,-0.18342 -0.36318,-0.46073 -0.36318,-0.77105c0,-0.55228 0.44772,-1 1,-1c0.10227,0 0.20095,0.01535 0.29387,0.04388l-0.23517,-0.7055c-0.03799,-0.10568 -0.0587,-0.21961 -0.0587,-0.33837c0,-0.55228 0.44772,-1 1,-1c0.27614,0 0.52614,0.11193 0.70711,0.29289l0.27238,0.27238c0.43531,0.31026 0.79008,0.64606 1.07922,1.00466c0.94749,0.27377 3.06369,-1.16502 3.76603,0.41364c0.7167,-0.10387 1.51974,-0.13537 2.20424,-0.06492c0.24435,-0.08276 0.50925,-0.22934 0.86501,-0.48364c1.6163,-0.43816 4.42955,0.0319 3.42746,2.44476c-0.03887,0.14128 -0.10533,0.26091 -0.16385,0.34704c-0.0043,0.00817 -0.00863,0.01635 -0.01301,0.02456c-0.08922,0.16723 -0.19702,0.31582 -0.31984,0.44652c-0.32852,1.08972 -0.50435,2.35436 -0.504,3.46032c-0.04601,0.14392 -0.08759,0.31705 -0.12626,0.51398c0.10174,0.79478 0.22616,1.57733 0.32889,2.37557l0.09198,-0.03066l0.32595,0.97786c0.03799,0.10568 0.0587,0.21961 0.0587,0.33837c0,0.55228 -0.44772,1 -1,1c-0.11876,0 -0.23269,-0.0207 -0.33837,-0.0587l-0.10675,-0.03558c-0.30016,1.64412 -0.77538,3.09335 -1.6921,3.40819c-0.5985,0.20555 -3.93469,-1.48331 -4.12884,-1.95332c-0.44183,-1.0696 0.45852,-1.91017 0.6123,-2.85411c0.36389,-2.23371 0.3302,-4.7247 0.72935,-7.03311c-0.24796,-0.18199 -0.40893,-0.47555 -0.40893,-0.8067h-0.1761c-0.07857,0.03082 -0.15139,0.07261 -0.21691,0.12804c-0.95296,0.80627 -0.779,2.65055 -0.95324,3.69881c-0.34166,2.0555 -0.65375,4.05606 -0.65375,6.17315c0,0.88214 -0.4702,3.0478 -1.31589,4.23935c0.0741,1.10889 0.23748,2.93361 -0.06035,3.38377c-0.05371,0.08118 -0.11195,0.15839 -0.17393,0.23232l0.04889,0.03259l-0.65806,0.98709c-0.17805,0.2757 -0.48804,0.4582 -0.84065,0.4582c-0.55228,0 -1,-0.44772 -1,-1v-1c0,-0.46359 0.0365,-0.91049 0.0989,-1.34557zM263.97033,88.45344c-0.05027,0.01617 -0.10061,0.03203 -0.15104,0.04756l0.09607,0.2882l-0.32833,0.10944c0.22549,0.12309 0.2771,0.46442 0.48266,0.62796c0.29511,0.23478 0.00926,-0.54393 -0.09935,-1.07316z" fill="#3a2f41" stroke="none" stroke-width="0.5" stroke-linecap="butt"/><path d="M268.19212,77.33291l-16.1992,-0.53142c0,0 1.51137,-2.65635 2.6848,-5.15823c8.88042,1.58698 13.5144,5.68965 13.5144,5.68965z" data-paper-data="{&quot;index&quot;:null}" fill="#e1e2db" stroke="#3a2f41" stroke-width="1" stroke-linecap="butt"/></g><text transform="translate(387.25,194.46789) scale(0.5,0.5)" font-size="40" xml:space="preserve" fill="#3a2f41" fill-rule="nonzero" stroke="none" stroke-width="1" stroke-linecap="butt" stroke-linejoin="miter" stroke-miterlimit="10" stroke-dasharray="" stroke-dashoffset="0" font-family="Handwriting" font-weight="normal" text-anchor="start" style="mix-blend-mode: normal"><tspan x="0" dy="0">Xain</tspan></text></g></g></svg>