<svg version="1.1" xmlns="http://www.w3.org/2000/svg" xmlns:xlink="http://www.w3.org/1999/xlink" width="228.67183" height="465.53249" viewBox="0,0,228.67183,465.53249"><g transform="translate(-125.66408,52.80852)"><g data-paper-data="{&quot;isPaintingLayer&quot;:true}" fill-rule="nonzero" stroke-linejoin="miter" stroke-miterlimit="10" stroke-dasharray="" stroke-dashoffset="0" style="mix-blend-mode: normal"><g data-paper-data="{&quot;index&quot;:null}"><g stroke-linecap="butt"><path d="M178.32943,204.93676l21.45782,9.25493l-2.83859,20.46886l19.22491,30.48809l-18.89566,-5.07221l-54.05928,32.435l9.64906,-27.49877l-25.82258,-9.67585l24.48844,-9.84819l-17.18373,-14.41786l34.7884,-4.1062z" fill="#3a2f41" stroke="#aba9b0" stroke-width="1"/><path d="M210.15873,219.9906l-7.27221,21.53013l-43.06026,-14.5444l7.27221,-21.53013z" fill="#e1e2db" stroke="#3a2f41" stroke-width="2"/></g><g stroke="#3a2f41" stroke-width="2.5"><path d="M211.90377,232.42365c-3.59781,2.80426 -56.3703,-15.2965 -53.39617,-20.4636c2.71495,-8.33411 16.42192,-36.4799 27.38536,-62.8955c8.51396,-20.51376 17.80746,-37.56762 31.61338,-34.80871c11.12072,2.22232 3.59382,26.70606 1.69907,49.459c-1.59417,19.14355 -7.30164,68.70881 -7.30164,68.70881z" fill="#7c7984" stroke-linecap="butt"/><path d="M212.79891,224.84601l-49.82958,-19.98852" fill="none" stroke-linecap="round"/></g></g><g><g stroke-linecap="butt"><path d="M261.4942,36.95466c1.24125,3.00348 -23.45897,50.03146 -36.38445,55.73981c-23.97741,10.58927 -45.68967,1.79204 -45.68967,1.79204c0,0 4.99352,-9.19487 4.03448,-8.61736c-9.56098,5.75731 -18.53432,-1.2793 -18.53432,-1.2793c0,0 6.95333,-3.41701 7.80819,-9.47442c0.55836,-3.95649 -5.9228,-12.10773 -1.30579,-16.11613c4.54473,-3.94565 12.33017,-4.33027 15.15781,-8.72384c9.06792,-14.08966 12.53737,-30.45125 19.09868,-33.16285c7.33152,-3.02991 25.92844,0.1668 38.05298,3.88374c9.47123,2.90354 15.50348,10.49314 17.76208,15.95832z" fill="#7c7984" stroke="#3a2f41" stroke-width="2"/><path d="M291.52644,54.72832c1.60108,6.91665 -4.69125,5.63373 -7.52707,20.41591c-2.80815,14.63804 13.04228,23.60195 13.04228,23.60195c0,0 -28.25192,9.74489 -44.51194,4.79265c-5.14923,-1.56826 -20.34947,-1.62943 -31.16379,-6.90879c-10.45883,-5.10581 -16.55669,-15.20554 -20.47081,-29.71677c-0.74883,-3.37976 -3.58889,-18.46611 1.50693,-23.65358c15.70275,-15.98512 56.53148,-26.15543 58.05613,-26.50836c8.37866,-1.9395 27.88172,24.21113 31.06827,37.97701z" data-paper-data="{&quot;index&quot;:null}" fill="#7c7984" stroke="#3a2f41" stroke-width="2"/><path d="M225.64473,87.4356c0.53086,3.20095 -5.4432,6.85796 -13.34342,8.16815c-7.90023,1.31019 -14.73496,-0.22257 -15.26582,-3.42352c-0.53086,-3.20095 5.4432,-6.85796 13.34342,-8.16815c7.90023,-1.31019 14.73496,0.22257 15.26582,3.42352z" fill="#7c7984" stroke="none" stroke-width="0"/><path d="M325.45597,19.68585c0,0 -6.00397,14.78586 -16.58398,25.50544c-10.56219,10.70152 -25.68992,17.34687 -38.14515,5.41689c-10.74419,-10.29109 -12.57481,-27.17231 -7.45861,-37.95802c8.43796,-17.78849 36.47318,-19.39658 36.47318,-19.39658c0,0 -17.46206,12.9968 -10.7831,9.44085c14.66493,-7.80777 38.90064,-11.27529 38.90064,-11.27529c0,0 -4.81703,19.88885 -12.29281,30.17514c-1.33609,1.83839 9.88982,-1.90844 9.88982,-1.90844z" data-paper-data="{&quot;index&quot;:null}" fill="#605967" stroke="#3a2f41" stroke-width="2"/><path d="M198.99324,-26.12809c5.60873,-11.41215 20.95101,-24.9541 20.95101,-24.9541c0,0 8.24343,23.05298 8.18178,39.66675c-0.02808,7.56653 3.31755,-13.9427 3.31755,-13.9427c0,0 11.66111,25.54561 -0.13376,41.30983c-7.15159,9.55833 -22.93612,15.81733 -37.05191,11.11746c-16.36376,-5.44834 -17.54616,-21.92896 -13.01054,-36.2646c4.54327,-14.35983 14.81841,-26.5701 14.81841,-26.5701c0,0 1.92505,11.67707 2.92746,9.63747z" data-paper-data="{&quot;index&quot;:null}" fill="#605967" stroke="#3a2f41" stroke-width="2"/><path d="M283.71403,21.90374c5.70962,4.21946 4.36505,17.18984 11.80938,30.27177c7.37175,12.95435 14.49516,6.15286 14.49516,6.15286c0,0 -4.25392,13.36162 -14.42633,20.16856c-10.07444,6.74137 -26.00085,6.97957 -39.74898,-3.38234c-11.28309,-8.50404 -21.65006,-60.24284 -20.4181,-61.90989c5.11134,-6.91649 36.92533,0.30128 48.28888,8.69904z" data-paper-data="{&quot;index&quot;:null}" fill="#7c7984" stroke="#3a2f41" stroke-width="2"/><path d="M285.34012,88.30792c1.94556,4.24473 -4.71244,3.375 -7.75,3.375c-3.03756,0 -15.25,-4.18997 -15.25,-8.125c0,-3.93503 12.21244,-6.125 15.25,-6.125c2.64643,0 4.8563,-4.07867 5.38154,-0.85283c0.07763,0.47678 -0.56425,5.32937 2.36846,11.72783z" fill="#7c7984" stroke="none" stroke-width="0"/><path d="M254.04374,32.91579c0.3258,3.2335 -31.29863,25.96045 -45.33482,27.58473c-47.37177,5.97753 -58.52261,-18.59754 -58.52261,-18.59754l12.77552,-5.25582l-9.06159,-12.60364c0,0 16.51387,-0.11719 20.77493,-2.65481c13.52012,-8.05174 28.34065,-23.18796 31.60962,-23.51733c7.89298,-0.79529 27.28687,3.61069 37.8319,10.65502c8.23735,5.50278 9.3342,18.50573 9.92704,24.38943z" fill="#7c7984" stroke="#3a2f41" stroke-width="2.5"/><g data-paper-data="{&quot;index&quot;:null}"><path d="M199.07432,65.12544c-0.63539,-15.9722 9.83592,-35.2465 30.15399,-36.6351c30.88761,-2.11095 42.90577,17.73124 43.54116,33.70343c0.6354,15.97219 -8.91068,30.05371 -35.68983,30.56897c-13.37469,0.25737 -24.5367,-2.49803 -30.57422,-7.34793c-6.21081,-4.98911 -7.10892,-12.19028 -7.43111,-20.28938z" fill="#e1e2db" stroke="none" stroke-width="0"/><path d="M199.07432,65.12544c-0.63539,-15.9722 9.83592,-35.2465 30.15399,-36.6351c30.88761,-2.11095 42.90577,17.73124 43.54116,33.70343c0.6354,15.97219 -25.03898,7.18652 -41.72878,7.72355c-16.69312,0.53714 -31.33098,11.18031 -31.96638,-4.79188z" fill="#b8c1c0" stroke="none" stroke-width="0"/><path d="M241.98441,29.31131c21.5198,3.34177 30.26015,19.68735 30.79948,33.24468c0.6354,15.97219 -8.9107,30.05369 -35.68983,30.56896c-14.26283,0.27446 -24.79071,-2.60978 -30.77554,-8.06269c-5.40057,-4.92057 -6.9284,-11.99834 -7.22978,-19.5746h-0.00001c-0.57255,-14.39277 5.85639,-39.6108 42.78059,-36.20762" fill="none" stroke="#3a2f41" stroke-width="2"/></g><path d="M248.70143,18.14006c8.07859,0.72175 19.92218,3.30552 23.65333,6.85377c3.33919,3.17549 1.84114,13.65662 4.19485,24.14339c2.33076,10.38449 12.94412,18.81791 12.94412,18.81791c0,0 -20.46879,1.68977 -39.94967,-9.48416c-7.37732,-4.23152 -11.97699,-13.66337 -14.56105,-18.15481c-6.23637,-10.83959 -1.40522,-15.99323 -0.415,-17.03449c2.54838,-2.67977 7.82273,-5.70539 14.13341,-5.1416z" data-paper-data="{&quot;index&quot;:null}" fill="#7c7984" stroke="#3a2f41" stroke-width="2"/><path d="M234.2017,21.49307c6.14267,1.55247 10.12149,6.15053 11.6416,9.52168c0.59067,1.30992 3.44822,7.77013 -6.01872,15.94117c-3.92267,3.38572 -33.57977,21.3687 -41.94077,22.92573c-9.17541,1.70869 -18.64001,-9.84484 -18.64001,-9.84484c0,0 12.80341,-9.45409 18.43364,-18.48572c5.68569,-9.1206 7.73398,-19.50822 11.93469,-21.40242c4.6938,-2.11656 16.72605,-0.64298 24.58956,1.34439z" data-paper-data="{&quot;index&quot;:null}" fill="#7c7984" stroke="#3a2f41" stroke-width="2.5"/><path d="M258.23946,17.12517c1.17804,0.82278 6.94019,4.90907 2.99159,16.77488c-1.63612,4.91665 -4.26177,15.07651 -10.64666,20.69469c-16.86019,14.83561 -30.75464,15.26316 -30.75464,15.26316c0,0 2.21763,-8.38118 2.42992,-19.0219c0.21438,-10.74552 -3.34444,-20.71711 -0.70587,-24.49492c2.94832,-4.22127 14.0384,-9.1158 21.81062,-11.43466c6.07137,-1.8114 11.84326,0.10124 14.87503,2.21875z" data-paper-data="{&quot;index&quot;:null}" fill="#7c7984" stroke="#3a2f41" stroke-width="2"/><path d="M274.41856,67.82051c0,0 6.42964,0.71372 5.98565,-0.1698c-0.27296,-0.54318 -3.47656,-0.7749 -7.45932,-1.52451c-7.35543,-1.38439 -14.56169,-4.20061 -17.77251,-5.89523c-6.6123,-3.48987 -15.39644,-10.70848 -20.98782,-10.64925c-6.12492,0.06488 -4.41854,5.26309 -10.91601,7.0888c-8.39746,5.7662 -26.10639,15.69375 -33.13966,15.59712c-6.32212,-0.08686 -16.90444,-7.29743 -16.90444,-7.29743c0,0 -2.71394,-1.98757 -1.44796,-4.48537c0.88737,-1.75079 5.39205,-4.75661 5.39205,-5.66433c0,-4.41828 22.52131,-38.75 35.5,-38.75c4.60242,0 11.25973,-4.74573 22.97688,-5.40868c7.59096,-0.42949 21.3676,2.59547 24.34029,3.84399c1.80136,0.75656 12.82572,5.07099 18.95677,13.78101c9.08123,12.90117 13.99346,32.46109 15.60984,40.15403c0.35293,1.67972 -7.94803,2.25923 -13.41471,1.74089c-3.06135,-0.29027 -6.71907,-2.36123 -6.71907,-2.36123z" fill="#7c7984" stroke="none" stroke-width="0"/></g><path d="M251.27097,55.7626c9.57606,0 15.23729,8.26065 15.23729,14.75c0,0.3049 5.10876,-0.13329 5.10876,-0.13329c0,0 -0.53321,4.39997 -7.61572,7.59637c-4.33334,1.95568 -9.69981,1.53691 -12.98033,1.53691c-9.57606,0 -15.51271,-3.01065 -15.51271,-9.5c0,-6.48935 6.18665,-14.25 15.76271,-14.25z" fill="#3a2f41" stroke="#3a2f41" stroke-width="1" stroke-linecap="butt"/><path d="M255.32665,57.43634c3.17829,-0.76655 8.11337,3.6163 9.61206,8.34649c1.49869,4.73019 0.88916,9.49919 -2.28913,10.26574c-3.17829,0.76655 -8.0673,-3.71881 -9.56598,-8.449c-1.49869,-4.73019 -0.93523,-9.39668 2.24306,-10.16323z" fill="#e1e2db" stroke="#3a2f41" stroke-width="1.5" stroke-linecap="butt"/><path d="M241.09953,82.69551c0,0 -0.6814,2.43267 -7.9985,1.73634c-1.83378,-0.17451 -5.93421,1.03608 -8.5015,-0.73634" fill="none" stroke="#3a2f41" stroke-width="1" stroke-linecap="round"/><g><g data-paper-data="{&quot;index&quot;:null}" fill="none" stroke-linecap="round"><path d="M280.23784,65.05134c-7.27304,-3.35382 -4.66484,-31.49484 -0.69112,-28.2c5.29951,4.39413 12.16355,15 12.16355,15c0,0 -8.37511,14.62827 -11.47243,13.2z" stroke="#3a2f41" stroke-width="6.5"/><path d="M280.23784,65.05133c-7.27304,-3.35382 -4.66483,-31.49484 -0.69111,-28.2c5.29951,4.39413 12.16355,15 12.16355,15c0,0 -8.37511,14.62827 -11.47244,13.2z" stroke="#e1e2db" stroke-width="3"/></g><g fill="none" stroke-linecap="round"><path d="M295.82517,51.45134c0,0 6.86404,-10.60587 12.16355,-15c3.97372,-3.29484 6.58193,24.84618 -0.69111,28.2c-3.09733,1.42827 -11.47244,-13.2 -11.47244,-13.2z" stroke="#3a2f41" stroke-width="6.5"/><path d="M295.82517,51.45133c0,0 6.86404,-10.60588 12.16355,-15c3.97373,-3.29484 6.58193,24.84618 -0.69111,28.2c-3.09732,1.42827 -11.47244,-13.2 -11.47244,-13.2z" stroke="#e1e2db" stroke-width="3"/></g><path d="M290.26172,57.15133v-11h6.56556v11z" fill="#e1e2db" stroke="#3a2f41" stroke-width="1.5" stroke-linecap="butt"/></g><path d="M241.09376,7.40233c13.69807,12.76411 -10.07411,39.6143 -33.87216,43.70149c-20.49822,3.52046 -44.59612,-8.34755 -50.89483,-24.84179c-1.27679,-3.34349 3.18504,-1.55942 9.46133,-2.26544c6.79868,-0.76478 15.72644,-4.10461 21.79545,-10.6177c4.83646,-5.19035 19.28012,-15.60169 19.28012,-15.60169c0,0 9.12648,0.45509 17.99068,2.71953c7.48205,1.91136 14.77722,5.54313 16.23939,6.9056z" fill-opacity="0.42742" fill="#3a2f41" stroke="none" stroke-width="NaN" stroke-linecap="butt"/><path d="M267.46027,30.08217c0,5.52285 -4.92487,10 -11,10c-6.07513,0 -11,-4.47715 -11,-10c0,-5.52285 4.92487,-10 11,-10c6.07513,0 11,4.47715 11,10z" fill-opacity="0.42742" fill="#3a2f41" stroke="none" stroke-width="0" stroke-linecap="butt"/></g><g data-paper-data="{&quot;index&quot;:null}" stroke="#3a2f41" stroke-linecap="butt"><g><path d="M239.77249,345.49249c0,0 -3.90602,-84.73566 -3.2187,-115.40559c0.74333,-33.16911 33.55484,-4.83468 33.55484,-4.83468v116.89319z" fill="#e1e2db" stroke-width="2"/><path d="M236.55378,230.0869c0.74333,-33.1691 33.55484,-28.97484 33.55484,-28.97484v51.18942c-11.06113,0 -22.41962,0 -33.48073,0c-0.1647,-8.34716 -0.21252,-16.03902 -0.07412,-22.21456z" fill="#8c9ca0" stroke-width="0"/><path d="M270.10863,239.61923v102.52618l-30.33614,3.34708c0,0 -3.43413,-76.51223 -3.29575,-109.25831" fill="none" stroke-width="2"/></g><g fill="#3a2f41" stroke-width="2"><path d="M236.87942,389.73955l1.16975,-46.61827c0,0 35.92656,-8.15141 35.94369,-4.02897c0.07266,17.48665 32.97288,71.98988 32.97288,71.98988l-57.81776,-16.15979c0,0 -2.16502,-6.93921 -3.12749,-6.95513c-0.96292,-0.01594 -1.51115,5.35957 -1.51115,5.35957z"/></g></g><g data-paper-data="{&quot;index&quot;:null}" stroke="#3a2f41" stroke-linecap="butt"><g><path d="M192.83971,352.47876l2,-127.22652c0,0 32.81151,-28.33443 33.55484,4.83468c0.68732,30.66993 -5.2187,127.73892 -5.2187,127.73892z" fill="#e1e2db" stroke-width="2"/><path d="M228.39455,230.08692c0.1384,6.17554 0.09058,13.8674 -0.07412,22.21456c-11.06111,0 -22.4196,0 -33.48073,0v-51.18942c0,0 32.81151,-4.19426 33.55484,28.97484z" fill="#8c9ca0" stroke-width="0"/><path d="M228.4716,236.23419c0.13838,32.74608 -4.29575,113.59164 -4.29575,113.59164l-30.33614,-1.34708l1,-108.85951" fill="none" stroke-width="2"/></g><g fill="#3a2f41" stroke-width="2"><path d="M221.93899,389.82683c0,0 -2.04823,-5.20885 -3.01115,-5.19291c-0.96247,0.01592 -3.62749,5.28847 -3.62749,5.28847l-64.31776,0.78276c0,0 34.30723,-31.0933 38.97289,-47.94619c0.27582,-7.0568 36.94369,0.3623 36.94369,0.3623l1.16975,46.61827z"/></g></g><g stroke-linecap="round"><path d="M314.58484,290.79472c0,0 -29.02452,21.37383 -87.46199,17.88296c-74.38111,-4.44328 -78.10702,-32.00279 -78.10702,-32.00279c0,0 17.16336,-38.54302 26.5093,-54.16655c9.07411,-15.16912 28.77489,-38.25163 28.77489,-38.25163c0,0 48.12254,-1.61011 58.97089,-1.4776c4.13434,0.05051 4.31494,1.44414 4.31494,1.44414c0,0 17.75152,31.01542 24.09255,46.69604c4.02987,9.96534 12.33048,25.55613 16.44872,38.70308c3.70819,11.8379 6.45773,21.17237 6.45773,21.17237z" fill="#3a2f41" stroke="none" stroke-width="0.5"/><path d="M269.72439,190.18725c0,0 -37.14399,11.04026 -45.74353,11.17963c-10.42218,0.16892 -24.94832,-9.22638 -24.94832,-9.22638" fill="none" stroke="#e1e2db" stroke-width="1.5"/><path d="M267.83586,184.6525c29.88044,49.45985 47.13867,105.77591 47.13867,105.77591c0,0 -28.22241,22.48472 -94.86606,17.88298c-66.64365,-4.60173 -71.09264,-31.63646 -71.09264,-31.63646c0,0 11.51274,-29.28507 27.56129,-56.04943c10.45647,-17.43837 29.47291,-38.94416 29.47291,-38.94416z" fill="none" stroke="#3a2f41" stroke-width="2.5"/></g><g data-paper-data="{&quot;index&quot;:null}"><g><path d="M207.25894,170.14319c0,0 -0.43556,-6.39296 -0.88204,-14.96908c-0.86785,-16.6695 -6.92871,-28.9627 5.13013,-41.24196c7.81971,-7.96264 18.11322,-8.66673 27.89132,-8.7081c8.91239,-0.03769 29.15918,7.83484 30.66428,11.8211c5.34679,14.16101 -2.90742,31.78378 -6.84762,43.93111c-1.73401,5.34582 -0.7337,12.09441 -0.7337,12.09441l3.48674,9.71323l0.83798,2.9901c0,0 -26.84817,9.10743 -44.53617,8.37526c-9.14957,-0.37873 -19.24764,-10.06016 -19.24764,-10.06016c-0.26234,-0.305 0.11497,-2.88913 0.11497,-2.88913z" fill="#aba9b0" stroke="none" stroke-width="0" stroke-linecap="round"/><g stroke="none"><g fill="#aba9b0" stroke-width="0" stroke-linecap="round"><g><g><path d="M261.88749,119.7641c0,0 2.03186,1.97619 4.77947,6.48694c0.46305,0.76018 0.8862,1.57635 1.26828,2.4263c2.37803,5.29003 3.16464,11.888 2.07362,14.4346c-1.01216,3.39107 -2.3278,6.85901 -6.38197,9.58051c-2.97672,1.9982 -6.41645,2.29065 -9.795,2.84902c-6.43611,1.06365 -14.50449,-0.30435 -22.71939,-0.95845c-7.8135,-0.62214 -17.68775,3.22502 -23.35125,1.22523c-2.74767,-0.9702 -1.99662,-0.94165 -4.63095,-3.26957c-5.7081,-5.0442 -9.45636,-16.29585 -8.8768,-16.93037c0.69721,-2.70972 3.09551,-4.71316 4.79677,-7.06402c5.04195,-6.96714 11.74482,-12.45867 11.74482,-12.45867"/></g></g></g><g stroke-linecap="butt"><g><g fill="none" stroke-width="1" font-family="sans-serif" font-weight="normal" font-size="12" text-anchor="start"/><path d="M261.75191,122.58322c0,-0.67059 -8.97088,-11.19788 -6.96687,-11.19788c2.004,0 9.87157,10.03947 9.37624,9.55192c-3.02866,-2.98109 -5.89282,-5.31563 -5.89282,-5.31563c0,0 4.96253,6.4986 5.9935,8.32704c1.11659,1.98025 -2.51007,-1.01681 -2.51007,-1.36549z" fill="#ffffff" stroke-width="0"/></g><path d="M218.3394,111.13417c1.91822,0.53921 -9.94697,8.20202 -10.15579,8.84391c-0.10859,0.33374 -4.51333,2.22669 -2.82783,0.63162c1.55623,-1.47275 8.33007,-6.35788 8.33007,-6.35788c0,0 1.00408,-0.95135 -2.82327,1.08718c-0.62597,0.33341 5.55857,-4.74402 7.47679,-4.20481z" data-paper-data="{&quot;index&quot;:null}" fill="#ffffff" stroke-width="0"/></g></g><path d="M270.06263,117.04517c0.91818,2.43181 1.51176,4.94793 1.84781,7.50736c-0.1578,0.95243 -68.88079,26.20242 -68.88079,26.20242l-9.75159,-15.32541c0,0 17.46954,-20.72409 18.22896,-21.49738c7.81971,-7.96264 18.11322,-8.66673 27.89132,-8.7081c8.91239,-0.03769 29.15918,7.83484 30.66428,11.8211z" fill="#7c7984" stroke="none" stroke-width="0" stroke-linecap="butt"/><g stroke="none"><g fill="#7c7984" stroke-width="0" stroke-linecap="round"><g><g><path d="M261.88747,119.7641l4.77947,6.48693l-65.93666,23.84475c0,0 -2.65379,-5.08416 -3.58606,-7.66887c-1.28902,-3.57374 -3.38713,-6.22714 -2.89074,-8.15637c8.1635,-8.99546 15.94159,-18.70839 15.94159,-18.70839"/></g></g></g><g fill="none" stroke-width="1" stroke-linecap="butt" font-family="sans-serif" font-weight="normal" font-size="12" text-anchor="start"><g><g/></g></g></g><path d="M210.66144,114.82547c0.27144,-0.29784 0.55319,-0.5956 0.8456,-0.89335c7.81971,-7.96264 18.11322,-8.66673 27.89132,-8.7081c8.91239,-0.03769 29.15918,7.83484 30.66428,11.8211c5.68616,15.05986 -3.03086,31.48954 -6.81324,43.34516c-1.33946,4.19844 -0.76808,13.68036 -0.76808,13.68036l4.32472,11.70333c0,0 -26.84817,9.10742 -44.53617,8.37525c-9.14957,-0.37873 -19.24764,-10.06016 -19.24764,-10.06016l4.23672,-13.94588c0,0 -0.27181,-7.98954 -0.6061,-13.89327" fill="none" stroke="#3a2f41" stroke-width="2" stroke-linecap="round"/><g fill="none" stroke="none" stroke-width="1" stroke-linecap="butt" font-family="sans-serif" font-weight="normal" font-size="12" text-anchor="start"><g/></g></g><g fill="none"><g stroke="none" stroke-width="1" stroke-linecap="butt" font-family="sans-serif" font-weight="normal" font-size="12" text-anchor="start"><g><g/></g></g><g stroke="#3a2f41" stroke-width="2" stroke-linecap="round"><g><g><path d="M206.97848,156.15721c-9.39672,-7.91464 -13.07948,-20.87326 -13.07948,-20.87326c0,0 8.2689,-11.65509 17.2554,-20.58839"/></g></g></g></g></g><g data-paper-data="{&quot;index&quot;:null}"><path d="M219.52076,108.65653c-0.46664,-0.31431 2.2587,-5.02433 2.694,-5.39524c0.17745,-0.0684 0.44432,-0.46778 1.10496,0.02339c3.01697,2.24302 10.00069,8.90762 10.00069,8.90762l-9.91911,8.96534z" data-paper-data="{&quot;index&quot;:null}" fill="#8c9ca0" stroke="#3a2f41" stroke-width="4.5" stroke-linecap="round"/><path d="M233.34845,112.23521c0,0 -8.32301,-8.02224 -4.97335,-10.03631c3.98542,-2.39634 19.81919,1.11497 20.78337,0.61156c0.93182,-1.77021 2.9664,4.42062 3.02998,5.85925c-0.87047,2.92094 -10.43199,12.58446 -10.43199,12.58446z" fill="#3a2f41" stroke="#3a2f41" stroke-width="4.5" stroke-linecap="round"/><path d="M221.42233,108.19222c0,-0.49751 1.04241,-4.51128 2.04214,-5.01727c0.57782,-0.61679 11.38769,-6.21204 12.88798,-5.96884c2.37145,0.38442 12.04326,4.97536 13.04024,5.93378c0.53854,0.27628 0.77459,3.67702 0.81013,5.06431" fill="none" stroke="#3a2f41" stroke-width="6.5" stroke-linecap="butt"/><g><path d="M219.52076,108.65653c-0.46664,-0.31431 2.2587,-5.02433 2.694,-5.39524c0.17745,-0.0684 0.44432,-0.46778 1.10496,0.02339c3.01696,2.24302 10.00069,8.90762 10.00069,8.90762l-9.91911,8.96534z" data-paper-data="{&quot;index&quot;:null}" fill="#7c7984" stroke="#12161a" stroke-width="0" stroke-linecap="round"/><path d="M233.34845,112.2352c0,0 14.03546,-8.49823 15.81001,-9.42475c0.93182,-1.7702 2.9664,4.42063 3.02998,5.85926c-0.87048,2.92094 -10.432,12.58446 -10.432,12.58446z" fill="#7c7984" stroke="#12161a" stroke-width="0" stroke-linecap="round"/><path d="M221.42233,108.19222c0,-0.49751 1.04241,-4.51128 2.04214,-5.01727c0.57782,-0.61679 11.38769,-6.21204 12.88798,-5.96884c2.37145,0.38443 12.04326,4.97536 13.04024,5.93378c0.53854,0.27628 0.77459,3.67702 0.81013,5.06431" fill="none" stroke="#7c7984" stroke-width="2" stroke-linecap="butt"/></g></g><g data-paper-data="{&quot;index&quot;:null}"><g stroke-linecap="butt"><path d="M310.86179,225.96457l34.7884,4.1062l-17.18373,14.41787l24.48843,9.84819l-25.82258,9.67585l9.64906,27.49877l-54.05928,-32.435l-18.89566,5.07221l19.22491,-30.4881l-2.83859,-20.46886l21.45782,-9.25493z" fill="#3a2f41" stroke="#aba9b0" stroke-width="1"/><path d="M312.90154,204.44621l7.27221,21.53013l-43.06026,14.5444l-7.2722,-21.53013z" fill="#e1e2db" stroke="#3a2f41" stroke-width="2"/></g><g stroke="#3a2f41" stroke-width="2.5"><path d="M268.09625,231.42367c0,0 -5.70747,-49.56526 -7.30165,-68.70881c-1.89475,-22.75293 -9.42165,-47.23669 1.69908,-49.459c13.80592,-2.75892 23.09943,14.29495 31.61338,34.8087c10.96344,26.41559 24.67041,54.56139 27.38536,62.8955c2.97412,5.1671 -49.79836,23.26786 -53.39617,20.4636z" fill="#aba9b0" stroke-linecap="butt"/><path d="M267.20112,223.84601l49.82958,-19.98852" fill="none" stroke-linecap="round"/></g></g></g></g></svg>