<svg version="1.1" xmlns="http://www.w3.org/2000/svg" xmlns:xlink="http://www.w3.org/1999/xlink" width="97.544" height="113.67759" viewBox="0,0,97.544,113.67759"><g transform="translate(-197.25,-126.82241)"><g data-paper-data="{&quot;isPaintingLayer&quot;:true}" fill="#3a2f41" fill-rule="nonzero" stroke="#3a2f41" stroke-width="2" stroke-linecap="round" stroke-linejoin="miter" stroke-miterlimit="10" stroke-dasharray="" stroke-dashoffset="0" style="mix-blend-mode: normal"><path d="M198.25,236.75c-0.143,-2.078 0.269,-5.909 0.75,-9.25c0.437,-3.039 1.382,-5.993 2,-9c0.631,-3.071 1.185,-6.166 1.75,-9.25c0.518,-2.827 1.049,-5.661 1.5,-8.5c0.382,-2.407 0.688,-4.833 1,-7.25c0.354,-2.745 0.657,-5.504 1,-8.25c0.156,-1.25 0.344,-2.5 0.5,-3.75c0.094,-0.748 0.162,-1.501 0.25,-2.25c0.078,-0.667 0.118,-1.342 0.25,-2c0.202,-1.01 0.51,-1.999 0.75,-3c0.259,-1.08 0.439,-2.184 0.75,-3.25c0.273,-0.935 0.852,-1.787 1,-2.75c0.19,-1.234 -0.138,-2.509 0,-3.75c0.114,-1.023 0.522,-1.996 0.75,-3c0.188,-0.828 0.46,-2.52 0.5,-2.5c0.04,0.02 0,1.834 0,2.75c0,0.999 0,2.001 0,3c0,1.665 0,3.335 0,5c0,1.748 0,3.502 0,5.25c0,3.413 0,6.837 0,10.25c0,2.248 -0.176,4.509 0,6.75c0.158,2.019 0.812,3.983 1,6c0.147,1.575 0,3.168 0,4.75c0,1.415 0,2.835 0,4.25c0,1.332 0,2.668 0,4c0,1.665 0,3.335 0,5c0,1.748 0.103,3.505 0,5.25c-0.064,1.093 -0.442,3.162 -0.5,3.25c-0.058,0.088 0,-1.667 0,-2.5c0,-1.582 0,-3.168 0,-4.75c0,-3.413 0,-6.837 0,-10.25c0,-3.663 -0.226,-7.344 0,-11c0.192,-3.102 0.81,-6.173 1.25,-9.25c0.393,-2.751 0.85,-5.5 1.25,-8.25c0.266,-1.829 0.406,-3.684 0.75,-5.5c0.24,-1.27 0.808,-4.518 1,-3.75c0.383,1.531 0.293,5.835 0.25,8.75c-0.04,2.752 -0.234,5.511 -0.5,8.25c-0.317,3.258 -0.774,6.512 -1.25,9.75c-0.356,2.424 -0.847,4.833 -1.25,7.25c-0.263,1.58 -0.524,3.165 -0.75,4.75c-0.107,0.746 -0.25,2.678 -0.25,2.25c0,-0.781 0.164,-3.335 0.25,-5c0.164,-3.164 0.424,-6.333 0.5,-9.5c0.09,-3.745 -0.139,-7.506 0,-11.25c0.111,-3.005 0.396,-6.014 0.75,-9c0.229,-1.93 0.628,-3.842 1,-5.75c0.294,-1.507 0.731,-3.894 1,-4.5c0.164,-0.369 0,0.939 0,2.25c0,5.245 0,10.505 0,15.75c0,6.41 0.158,12.842 0,19.25c-0.092,3.753 -0.297,7.523 -0.75,11.25c-0.298,2.447 -1.121,4.814 -1.5,7.25c-0.205,1.319 -0.282,4.016 -0.25,4c0.03,-0.015 0.563,-2.825 0.75,-4.25c0.645,-4.904 1.072,-9.85 1.75,-14.75c0.405,-2.928 1.095,-5.822 1.5,-8.75c0.344,-2.486 0.359,-5.021 0.75,-7.5c0.359,-2.274 1.187,-4.469 1.5,-6.75c0.272,-1.981 0.063,-4.009 0.25,-6c0.064,-0.683 0.359,-1.328 0.5,-2c0.192,-0.911 0.466,-2.75 0.5,-2.75c0.034,0 0,1.293 0,2.75c0,5.827 0.51,11.695 0,17.5c-0.576,6.558 -2.319,12.983 -3.25,19.5c-0.568,3.977 -0.812,8.006 -1.25,12c-0.228,2.084 -0.448,5.194 -0.75,6.25c-0.152,0.534 -0.145,-1.837 -0.25,-2.75c-0.144,-1.251 -0.371,-2.497 -0.5,-3.75c-0.454,-4.409 -0.967,-8.827 -1.25,-13.25c-0.383,-5.987 -0.592,-12.003 -0.75,-18c-0.092,-3.495 0,-7.004 0,-10.5c0,-2.914 0,-5.836 0,-8.75c0,-2.331 0,-4.669 0,-7c0,-1.499 0,-3.001 0,-4.5c0,-0.999 -0.016,-3 0,-3c0.016,0 0.164,1.793 0.25,3c0.345,4.828 0.844,9.663 1,14.5c0.177,5.492 0,11.006 0,16.5c0,3.663 0,7.337 0,11c0,2.498 0,5.002 0,7.5c0,1.832 0.137,3.674 0,5.5c-0.114,1.515 -0.261,4.696 -0.75,4.5c-0.489,-0.196 -1.434,-3.604 -1.75,-5.5c-0.274,-1.642 0.043,-3.336 0,-5c-0.041,-1.583 -0.206,-3.167 -0.25,-4.75c-0.039,-1.415 -0.097,-2.838 0,-4.25c0.07,-1.01 0.18,-2.039 0.5,-3c0.353,-1.06 0.912,-2.05 1.5,-3c0.5,-0.807 1.18,-1.491 1.75,-2.25c0.679,-0.906 1.353,-1.82 2,-2.75c0.686,-0.986 1.42,-1.949 2,-3c0.756,-1.37 1.411,-2.801 2,-4.25c0.495,-1.22 0.92,-2.476 1.25,-3.75c0.254,-0.98 0.222,-2.026 0.5,-3c0.225,-0.788 0.703,-1.486 1,-2.25c0.286,-0.736 0.55,-2.691 0.75,-2.25c0.383,0.843 0.368,3.332 0.5,5c0.118,1.496 0.205,3 0.25,4.5c0.038,1.248 0,2.501 0,3.75c0,1.582 0,3.168 0,4.75c0,1.832 0,3.668 0,5.5c0,1.332 0,2.668 0,4c0,0.749 0,1.501 0,2.25c0,0.666 0,2.579 0,2c0,-2.171 0,-5.002 0,-7.5c0,-1.998 0,-4.002 0,-6c0,-5.245 0,-10.505 0,-15.75c0,-3.163 0,-6.337 0,-9.5c0,-3.33 0,-6.67 0,-10c0,-2.331 0,-4.669 0,-7c0,-0.916 0,-3.369 0,-2.75c0,1.52 -0.154,4.459 0,7.25c0.616,11.164 1.655,22.335 2.25,33.5c0.155,2.91 0,5.836 0,8.75c0,5.661 0,11.339 0,17c0,2.081 0,4.169 0,6.25c0,0.999 0.458,3.153 0,3c-0.543,-0.181 -1.85,-2.35 -2.25,-3.75c-0.621,-2.175 -0.464,-4.507 -0.75,-6.75c-0.297,-2.336 -0.848,-4.65 -1,-7c-0.182,-2.825 0,-5.669 0,-8.5c0,-2.664 0,-5.336 0,-8c0,-2.664 0,-5.336 0,-8c0,-2.498 -0.249,-5.015 0,-7.5c0.253,-2.534 0.927,-5.018 1.5,-7.5c0.427,-1.85 1.01,-5.304 1.5,-5.5c0.49,-0.196 0.678,2.999 1,4.5c0.428,1.996 1.123,3.963 1.25,6c0.291,4.653 0,9.338 0,14c0,4.912 0,9.838 0,14.75c0,3.58 0,7.17 0,10.75c0,2.581 0.103,5.171 0,7.75c-0.064,1.589 -0.331,3.169 -0.5,4.75c-0.08,0.75 0.176,2.303 -0.25,2.25c-0.569,-0.071 -1.575,-1.499 -1.75,-2.5c-0.431,-2.46 0,-5.002 0,-7.5c0,-2.997 0,-6.003 0,-9c0,-2.914 -0.042,-5.837 0,-8.75c0.041,-2.831 -0.163,-5.699 0.25,-8.5c0.342,-2.319 1.311,-4.509 2,-6.75c0.643,-2.089 1.342,-4.166 2,-6.25c0.341,-1.08 0.361,-3.308 1,-3.25c0.736,0.067 1.446,2.183 1.75,3.5c1.216,5.268 1.979,10.649 2.75,16c0.645,4.477 1.226,8.985 1.5,13.5c0.227,3.739 0.21,7.51 0,11.25c-0.207,3.681 -0.665,7.36 -1.25,11c-0.167,1.04 -0.591,2.029 -1,3c-0.26,0.619 -0.633,2.217 -1,1.75c-1.008,-1.283 -1.494,-3.425 -1.75,-5.25c-0.335,-2.391 0,-4.836 0,-7.25c0,-2.831 0,-5.669 0,-8.5c0,-2.081 -0.036,-4.169 0,-6.25c0.047,-2.748 0.092,-5.506 0.25,-8.25c0.092,-1.588 0.275,-3.175 0.5,-4.75c0.192,-1.342 0.411,-2.688 0.75,-4c0.329,-1.275 0.807,-2.51 1.25,-3.75c0.39,-1.092 0.883,-2.15 1.25,-3.25c0.217,-0.651 0.43,-2.105 0.5,-2c0.07,0.105 0,1.834 0,2.75c0,2.165 0,4.335 0,6.5c0,3.58 0,7.17 0,10.75c0,2.831 0.096,5.671 0,8.5c-0.071,2.087 -0.205,4.183 -0.5,6.25c-0.206,1.439 -0.622,2.846 -1,4.25c-0.205,0.763 -0.625,2.417 -0.75,2.25c-0.125,-0.167 0,-2.168 0,-3.25c0,-1.499 0,-3.001 0,-4.5c0,-3.33 0,-6.67 0,-10c0,-3.247 0,-6.503 0,-9.75c0,-3.08 0,-6.17 0,-9.25c0,-2.831 0,-5.669 0,-8.5c0,-2.747 0,-5.503 0,-8.25c0,-2.914 -0.062,-5.837 0,-8.75c0.021,-1.002 0.2,-3.902 0.25,-3c0.2,3.598 0.2,8.003 0.25,12c0.033,2.664 0,5.336 0,8c0,1.748 0.109,3.505 0,5.25c-0.058,0.929 -0.326,1.836 -0.5,2.75c-0.159,0.834 -0.217,1.699 -0.5,2.5c-0.223,0.633 -0.85,2.001 -1,1.75c-0.163,-0.272 0.156,-2.002 0.25,-3c0.156,-1.666 0.302,-3.338 0.5,-5c0.219,-1.835 0.511,-3.667 0.75,-5.5c0.26,-1.997 0.579,-3.994 0.75,-6c0.163,-1.91 0.207,-3.834 0.25,-5.75c0.041,-1.831 -0.042,-3.669 0,-5.5c0.042,-1.833 0.068,-3.676 0.25,-5.5c0.151,-1.512 0.599,-2.988 0.75,-4.5c0.099,-0.994 -0.015,-2.985 0,-3c0.016,-0.016 0.102,1.842 0.25,2.75c0.518,3.175 1.032,6.364 1.75,9.5c0.865,3.779 2.265,7.443 3,11.25c1.1,5.699 1.793,11.489 2.5,17.25c0.458,3.733 0.655,7.505 1,11.25c0.238,2.582 0.603,5.161 0.75,7.75c0.104,1.829 0,4.812 0,5.5c0,0.458 0.156,-1.848 0,-2.75c-0.264,-1.533 -1.026,-2.961 -1.25,-4.5c-0.445,-3.058 -0.342,-6.187 -0.75,-9.25c-0.591,-4.436 -1.576,-8.826 -2.25,-13.25c-0.658,-4.318 -1.132,-8.676 -1.75,-13c-0.548,-3.835 -1.297,-7.653 -1.75,-11.5c-0.38,-3.234 -0.463,-6.506 -0.75,-9.75c-0.295,-3.334 -0.753,-6.663 -1,-10c-0.086,-1.162 0,-2.334 0,-3.5c0,-0.666 0.207,-2.802 0,-2c-0.828,3.209 -1.862,6.439 -2,9.75c-0.281,6.742 0.143,13.529 0.75,20.25c0.477,5.289 1.656,10.507 2.5,15.75c0.738,4.581 1.455,9.179 2.25,13.75c0.537,3.089 1.118,6.18 1.75,9.25c0.534,2.591 1.133,5.177 1.75,7.75c0.382,1.59 1.031,4.312 1.25,4.75c0.18,0.36 -0.143,-1.837 -0.25,-2.75c-0.226,-1.918 -0.493,-3.836 -0.75,-5.75c-0.659,-4.913 -1.62,-9.808 -2,-14.75c-0.287,-3.735 0,-7.504 0,-11.25c0,-4.912 0,-9.838 0,-14.75c0,-2.581 -0.181,-5.176 0,-7.75c0.153,-2.185 0.458,-4.378 1,-6.5c0.463,-1.813 1.314,-3.509 2,-5.25c0.397,-1.007 0.75,-3.542 1.25,-3c1,1.083 1.496,4.104 1.75,6.25c0.666,5.632 0.866,11.331 1,17c0.199,8.406 0,16.842 0,25.25c0,3.496 0.246,7.012 0,10.5c-0.172,2.444 -0.856,4.832 -1.25,7.25c-0.189,1.162 -0.3,4.139 -0.5,3.5c-0.355,-1.137 -0.666,-4.991 -0.75,-7.5c-0.166,-4.992 -0.125,-10.007 0,-15c0.125,-5 0.096,-10.042 0.75,-15c0.351,-2.664 1.387,-5.205 2.25,-7.75c0.72,-2.123 1.623,-4.187 2.5,-6.25c0.539,-1.268 1.134,-2.517 1.75,-3.75c0.3,-0.6 0.526,-1.809 1,-1.75c0.526,0.066 0.786,1.287 1,2c0.54,1.799 0.995,3.639 1.25,5.5c0.329,2.398 0.416,4.831 0.5,7.25c0.165,4.743 0.209,9.504 0.25,14.25c0.042,4.912 0.364,9.852 0,14.75c-0.387,5.201 -1.302,10.371 -2.25,15.5c-0.47,2.542 -1.268,5.021 -2,7.5c-0.351,1.187 -0.269,2.745 -1.25,3.5c-0.59,0.454 -1.723,-0.115 -2,-1c-1.106,-3.54 -1.234,-7.327 -1.75,-11c-0.899,-6.401 -1.655,-12.841 -2.5,-19.25c-0.571,-4.331 -1.515,-8.638 -1.75,-13c-0.183,-3.412 -0.17,-6.899 0.5,-10.25c0.431,-2.155 1.724,-4.056 2.75,-6c0.56,-1.062 1.339,-3.519 2,-3c1.089,0.856 1.112,3.81 1.5,5.75c0.612,3.06 1.281,6.137 1.5,9.25c0.532,7.561 0.617,15.171 0.75,22.75c0.117,6.659 0,13.34 0,20c0,3.496 0.092,7.005 0,10.5c-0.075,2.834 -0.122,5.69 -0.5,8.5c-0.207,1.541 -0.765,5.034 -1.25,4.5c-0.58,-0.638 -0.868,-4.83 -1.25,-7.25c-0.867,-5.489 -1.853,-10.981 -2.5,-16.5c-0.603,-5.143 -0.989,-10.328 -1.25,-15.5c-0.155,-3.076 -0.095,-6.171 0,-9.25c0.072,-2.336 0.253,-4.676 0.5,-7c0.169,-1.592 0.403,-3.187 0.75,-4.75c0.154,-0.694 0.673,-2.765 0.75,-2c0.306,3.062 0,6.337 0,9.5c0,4.912 0,9.838 0,14.75c0,3.58 0,7.17 0,10.75c0,2.414 0.196,4.844 0,7.25c-0.138,1.692 -0.463,3.389 -1,5c-0.307,0.921 -0.571,2.442 -1.5,2.5c-1.071,0.067 -2.117,-1.197 -2.5,-2.25c-1.339,-3.683 -1.768,-7.65 -2.5,-11.5c-0.851,-4.477 -1.734,-8.972 -2.25,-13.5c-0.236,-2.068 -0.336,-4.196 0,-6.25c0.421,-2.573 1.079,-7.559 2.25,-7.5c1.171,0.059 2.317,5.046 2.75,7.75c0.579,3.618 0.204,7.336 0.25,11c0.037,2.914 0.34,5.856 0,8.75c-0.496,4.216 -1.414,8.396 -2.5,12.5c-0.42,1.585 -1.243,3.045 -2,4.5c-0.33,0.635 -0.744,2.222 -1.25,1.75c-1.369,-1.278 -2.03,-3.371 -2.5,-5.25c-0.629,-2.515 -0.629,-5.16 -0.75,-7.75c-0.129,-2.744 -0.142,-5.506 0,-8.25c0.108,-2.093 0.087,-4.261 0.75,-6.25c0.614,-1.842 1.85,-3.436 3,-5c0.942,-1.281 1.964,-2.565 3.25,-3.5c0.621,-0.451 1.759,-1.09 2.25,-0.5c1.113,1.335 1.277,3.276 1.5,5c0.364,2.808 0.21,5.669 0.25,8.5c0.043,3.08 0.367,6.192 0,9.25c-0.387,3.228 -1.291,6.394 -2.25,9.5c-0.794,2.57 -1.797,5.094 -3,7.5c-0.641,1.281 -1.357,3.864 -2.5,3.5c-1.607,-0.511 -2.425,-3.32 -3,-5.25c-0.865,-2.9 -1.021,-5.983 -1.25,-9c-0.189,-2.49 -0.188,-5.01 0,-7.5c0.146,-1.938 0.356,-3.916 1,-5.75c0.459,-1.307 1.445,-2.373 2.25,-3.5c0.446,-0.625 0.875,-1.304 1.5,-1.75c0.579,-0.413 1.297,-0.644 2,-0.75c0.988,-0.148 2.139,-0.507 3,0c0.802,0.472 1.105,1.581 1.25,2.5c0.364,2.304 0.207,4.668 0.25,7c0.04,2.164 0.215,4.346 0,6.5c-0.121,1.206 -0.527,2.384 -1,3.5c-0.698,1.645 -1.561,3.229 -2.5,4.75c-0.814,1.317 -1.626,2.685 -2.75,3.75c-0.516,0.489 -1.368,1.077 -2,0.75c-2.045,-1.058 -4.108,-2.501 -5.25,-4.5c-1.634,-2.859 -1.974,-6.299 -2.75,-9.5c-0.558,-2.301 -1.205,-4.633 -1.25,-7c-0.04,-2.107 0.1,-4.344 1,-6.25c0.605,-1.282 1.993,-2.094 3.25,-2.75c0.742,-0.387 1.831,-0.752 2.5,-0.25c0.954,0.715 1.291,2.076 1.5,3.25c0.467,2.628 0.417,5.332 0.5,8c0.083,2.663 0.253,5.348 0,8c-0.249,2.617 -0.642,5.265 -1.5,7.75c-0.742,2.148 -2.056,4.067 -3.25,6c-0.56,0.907 -1.121,1.896 -2,2.5c-0.553,0.38 -1.393,0.536 -2,0.25c-0.959,-0.451 -1.757,-1.312 -2.25,-2.25c-1.286,-2.45 -2.349,-5.06 -3,-7.75c-0.61,-2.52 -0.611,-5.161 -0.75,-7.75c-0.111,-2.078 -0.135,-4.173 0,-6.25c0.115,-1.762 0.177,-3.579 0.75,-5.25c0.449,-1.311 1.27,-2.52 2.25,-3.5c0.818,-0.818 1.957,-1.251 3,-1.75c0.879,-0.42 1.795,-0.809 2.75,-1c0.735,-0.147 1.515,-0.147 2.25,0c0.955,0.191 2.172,0.216 2.75,1c0.755,1.025 0.701,2.477 0.75,3.75c0.118,3.079 0.408,6.24 -0.25,9.25c-0.533,2.437 -1.947,4.622 -3.25,6.75c-1.209,1.974 -2.707,3.775 -4.25,5.5c-1.296,1.448 -2.817,2.687 -4.25,4c-0.566,0.519 -0.986,1.573 -1.75,1.5c-1.336,-0.127 -2.678,-0.939 -3.5,-2c-1.278,-1.651 -1.827,-3.773 -2.5,-5.75c-0.664,-1.95 -1.215,-3.96 -1.5,-6c-0.219,-1.567 -0.23,-3.185 0,-4.75c0.192,-1.302 0.414,-2.733 1.25,-3.75c1.173,-1.428 2.859,-2.399 4.5,-3.25c0.669,-0.347 1.501,-0.162 2.25,-0.25c0.667,-0.078 1.357,-0.443 2,-0.25c1.108,0.332 2.306,0.825 3,1.75c0.9,1.201 1.183,2.783 1.5,4.25c0.354,1.636 0.418,3.329 0.5,5c0.085,1.746 0.266,3.522 0,5.25c-0.24,1.561 -0.794,3.087 -1.5,4.5c-0.641,1.281 -1.134,3.069 -2.5,3.5c-0.956,0.302 -2.028,-1.022 -2.25,-2c-0.664,-2.924 -0.21,-6.002 -0.25,-9c-0.043,-3.246 -0.266,-6.514 0,-9.75c0.235,-2.865 0.456,-5.822 1.5,-8.5c0.914,-2.345 2.572,-4.374 4.25,-6.25c1.188,-1.328 2.714,-2.347 4.25,-3.25c1.319,-0.776 2.792,-1.284 4.25,-1.75c0.639,-0.205 1.385,-1.261 2,-0.25c2.459,4.045 4.512,8.431 5.75,13c1.205,4.446 1.219,9.153 1.5,13.75c0.219,3.573 0.098,7.172 0,10.75c-0.069,2.502 -0.119,5.026 -0.5,7.5c-0.125,0.81 -0.76,2.298 -1,2.25c-0.24,-0.048 -0.146,-1.67 -0.25,-2.5c-0.146,-1.168 -0.452,-2.324 -0.5,-3.5c-0.119,-2.911 0,-5.836 0,-8.75c0,-3.496 -0.528,-7.044 0,-10.5c0.402,-2.63 1.649,-5.078 2.75,-7.5c1.402,-3.085 2.988,-6.105 4.75,-9c0.582,-0.957 1.433,-1.734 2.25,-2.5c0.522,-0.49 1.076,-1.491 1.75,-1.25c0.957,0.342 1.53,1.508 1.75,2.5c0.47,2.115 0.213,4.334 0.25,6.5c0.046,2.664 0,5.336 0,8c0,2.165 0.362,4.366 0,6.5c-0.397,2.336 -1.53,6.03 -2.25,6.75c-0.497,0.497 -0.338,-2.667 -0.5,-4c-0.171,-1.415 -0.449,-2.826 -0.5,-4.25c-0.116,-3.245 -0.093,-6.505 0,-9.75c0.074,-2.585 -0.139,-5.244 0.5,-7.75c0.469,-1.841 1.772,-3.371 2.75,-5c0.523,-0.871 0.953,-2.961 1.75,-2.5c1.578,0.914 2.499,3.3 3,5.25c1.769,6.88 2.612,13.988 3.75,21c1.049,6.467 2.48,14.301 2.75,18.5c0.103,1.857 -0.415,-4.901 -2,-6.25c-0.978,-0.694 -2.311,4.96 -3,3.75c-1.317,-2.091 -1.056,-6.315 -1.25,-9.5c-0.223,-3.656 -0.434,-7.363 0,-11c0.24,-2.013 1.231,-3.874 2,-5.75c0.565,-1.378 1.226,-2.728 2,-4c0.399,-0.656 0.733,-1.779 1.5,-1.75c1.792,0.069 3.716,0.748 5,2c2.199,2.144 3.458,5.094 5,7.75c1.458,2.512 3.082,4.995 4,7.75c1.017,3.052 1.321,6.312 1.75,9.5c0.155,1.155 0.208,2.353 0,3.5c-0.133,0.733 -0.327,1.681 -1,2c-1.131,0.536 -2.647,0.841 -3.75,0.25c-1.513,-0.81 -2.433,-2.491 -3.25,-4c-1.37,-2.528 -2.291,-5.289 -3.25,-8c-0.958,-2.706 -1.918,-5.439 -2.5,-8.25c-0.423,-2.045 -0.409,-4.164 -0.5,-6.25c-0.076,-1.747 -0.254,-3.52 0,-5.25c0.169,-1.147 0.513,-2.355 1.25,-3.25c0.521,-0.633 1.446,-1.161 2.25,-1c0.753,0.151 1.377,0.992 1.5,1.75c0.4,2.465 0.431,5.04 0,7.5c-0.993,5.668 -2.491,11.275 -4.25,16.75c-1.656,5.364 -3.943,11.554 -5.5,9.75c-1.597,2.945 0.189,-5.5 -1.5,-7.5c-1.286,-0.864 -3.799,4.342 -5,7.25c-0.546,1.021 -0.295,5.16 0,4c0.457,-1.623 1.208,-6.496 1.75,-9.75c0.457,-2.741 0.864,-5.498 1.25,-8.25c0.28,-1.994 0.419,-4.014 0.75,-6c0.252,-1.514 0.667,-3.001 1,-4.5c0.166,-0.749 0.267,-1.519 0.5,-2.25c0.352,-1.105 1.023,-4.384 1.25,-3.25c0.908,4.538 1.053,9.66 1,14.5c-0.031,2.861 -0.84,10.449 -1.25,8.5c-1.044,-4.96 -1.414,-15.159 -1.75,-22.75c-0.247,-5.572 -0.114,-11.173 0,-16.75c0.053,-2.586 0.119,-5.192 0.5,-7.75c0.206,-1.38 0.963,-4.164 1.25,-4c0.287,0.164 0.465,3.327 0.5,5c0.132,6.326 0.22,12.677 0,19c-0.113,3.262 -0.72,6.498 -1,9.75c-0.136,1.578 -0.168,4.64 -0.25,4.75c-0.082,0.11 -0.293,-2.507 -0.5,-3.75c-0.376,-2.255 -1.017,-4.476 -1.25,-6.75c-0.518,-5.063 -0.81,-10.164 -1,-15.25c-0.143,-3.827 0,-7.671 0,-11.5c0,-4.079 0,-8.171 0,-12.25c0,-1.748 0,-3.502 0,-5.25c0,-0.999 -0.036,-2.982 0,-3c0.036,-0.018 0.442,1.821 0.5,2.75c0.109,1.745 0,3.502 0,5.25c0,1.748 0,3.502 0,5.25c0,3.913 0,7.837 0,11.75c0,1.748 0,3.502 0,5.25c0,0.749 0,2.266 0,2.25c0,-0.015 0,-1.667 0,-2.5c0,-1.748 0,-3.502 0,-5.25c0,-2.248 0,-4.502 0,-6.75c0,-1.166 0,-2.334 0,-3.5c0,-0.666 0.023,-2.047 0,-2c-0.023,0.047 -0.109,1.675 -0.25,2.5c-0.359,2.092 -0.963,4.147 -1.25,6.25c-0.214,1.569 -0.211,3.167 -0.25,4.75c-0.045,1.831 0,3.668 0,5.5c0,1.166 0.053,2.336 0,3.5c-0.03,0.67 -0.126,2.124 -0.25,2c-0.124,-0.124 -0.431,-1.822 -0.5,-2.75c-0.098,-1.328 -0.036,-2.668 0,-4c0.047,-1.75 -0.099,-3.535 0.25,-5.25c0.656,-3.227 1.883,-6.323 2.75,-9.5c0.383,-1.403 0.524,-2.876 1,-4.25c0.28,-0.81 0.622,-1.667 1.25,-2.25c0.601,-0.558 1.866,-1.64 2.25,-1c0.741,1.235 0,3.168 0,4.75c0,2.664 0,5.336 0,8c0,2.997 0,6.003 0,9c0,1.499 0,3.001 0,4.5c0,0.916 0,1.834 0,2.75c0,0.666 0.249,2.149 0,2c-0.272,-0.163 -0.942,-1.792 -1.25,-2.75c-0.445,-1.384 -0.753,-2.817 -1,-4.25c-0.586,-3.399 -1.173,-6.816 -1.5,-10.25c-0.34,-3.567 -0.544,-7.167 -0.5,-10.75c0.039,-3.173 0.177,-6.379 0.75,-9.5c0.188,-1.026 0.956,-1.86 1.5,-2.75c0.373,-0.611 0.698,-1.811 1.25,-1.75c0.573,0.064 0.771,1.291 1,2c0.608,1.883 1.163,3.8 1.5,5.75c0.414,2.392 0.52,4.834 0.75,7.25c0.269,2.829 0.651,5.66 0.75,8.5c0.151,4.326 0,8.671 0,13c0,1.582 0.113,3.172 0,4.75c-0.055,0.766 -0.04,2.543 -0.5,2.25c-0.915,-0.582 -1.696,-2.576 -2.25,-4c-0.622,-1.6 -0.964,-3.308 -1.25,-5c-0.631,-3.726 -1.24,-7.48 -1.5,-11.25c-0.241,-3.488 -0.501,-7.04 0,-10.5c0.344,-2.372 1.496,-4.574 2.5,-6.75c1,-2.166 2.147,-4.286 3.5,-6.25c1.24,-1.8 2.61,-3.556 4.25,-5c0.515,-0.454 1.473,-0.939 2,-0.5c1.261,1.051 1.853,2.741 2.5,4.25c0.861,2.009 1.478,4.128 2,6.25c0.729,2.965 1.241,5.99 1.75,9c0.491,2.902 1.021,5.816 1.25,8.75c0.188,2.407 0,4.836 0,7.25c0,1.832 0.727,4.369 0,5.5c-0.398,0.619 -1.823,-1.093 -2.25,-2c-0.954,-2.028 -1.298,-4.304 -1.75,-6.5c-0.715,-3.472 -1.273,-6.988 -1.75,-10.5c-0.439,-3.234 -0.85,-6.49 -1,-9.75c-0.1,-2.164 -0.133,-4.368 0.25,-6.5c0.211,-1.173 0.963,-3.787 1.5,-3.25c0.955,0.955 1.167,4.136 1.5,6.25c1.084,6.885 1.843,13.839 2.75,20.75c0.841,6.409 1.862,12.817 2.5,19.25c0.362,3.649 0.392,7.335 0.5,11c0.059,1.997 0,4.002 0,6c0,0.833 0,2.76 0,2.5c0,-0.26 0.147,-2.676 0,-4c-0.354,-3.183 -1.241,-6.308 -1.5,-9.5c-0.242,-2.987 0,-6.003 0,-9c0,-2.581 -0.046,-5.17 0,-7.75c0.037,-2.083 0.007,-4.181 0.25,-6.25c0.258,-2.189 0.767,-4.349 1.25,-6.5c0.433,-1.931 0.944,-3.851 1.5,-5.75c0.444,-1.516 0.922,-3.03 1.5,-4.5c0.34,-0.866 1.025,-3.101 1.25,-2.5c0.517,1.379 0.222,4.334 0.25,6.5c0.055,4.245 0,8.504 0,12.75c0,4.329 0.415,8.691 0,13c-0.256,2.653 -1.289,5.181 -2,7.75c-0.372,1.345 -0.515,2.813 -1.25,4c-0.413,0.668 -1.428,1.788 -2,1.25c-1.385,-1.304 -1.609,-3.459 -2.25,-5.25c-1.358,-3.792 -2.736,-7.602 -3.75,-11.5c-1.154,-4.44 -2.126,-8.955 -2.75,-13.5c-0.544,-3.967 -0.652,-7.997 -0.75,-12c-0.069,-2.831 -0.216,-5.707 0.25,-8.5c0.377,-2.259 1.366,-4.387 2.25,-6.5c0.618,-1.477 1.343,-4.754 2.25,-4.25c1.343,0.746 1.96,4.398 2.25,6.75c0.469,3.801 0,7.671 0,11.5c0,5.245 0.23,10.51 0,15.75c-0.187,4.262 -0.785,8.509 -1.25,12.75c-0.284,2.587 -0.713,5.164 -1,7.75c-0.212,1.91 -0.22,3.848 -0.5,5.75c-0.138,0.939 -0.477,1.841 -0.75,2.75c-0.227,0.756 -0.548,2.502 -0.75,2.25c-0.204,-0.255 -0.706,-0.596 -0.25,-3.5c1.822,-11.615 4.008,-27.857 6.25,-34.75c0.959,-2.947 0.406,9.336 0.5,14c0.072,3.579 0,7.17 0,10.75c0,2.581 0,5.169 0,7.75c0,3.247 0,6.503 0,9.75c0,1.832 0,3.668 0,5.5c0,1.166 0.049,2.336 0,3.5c-0.035,0.836 0.144,1.762 -0.25,2.5c-0.337,0.632 -1.079,0.999 -1.75,1.25c-0.706,0.265 -1.576,0.587 -2.25,0.25c-1.64,-0.82 -3.095,-2.076 -4.25,-3.5c-1.385,-1.708 -2.34,-3.748 -3.25,-5.75c-0.763,-1.678 -1.292,-3.465 -1.75,-5.25c-0.377,-1.472 -0.519,-2.998 -0.75,-4.5c-0.269,-1.745 -0.488,-3.504 -0.75,-5.25c-0.238,-1.584 -0.534,-3.163 -0.75,-4.75c-0.283,-2.077 -0.5,-4.169 -0.75,-6.25c-0.25,-2.081 -0.564,-4.162 -0.75,-6.25c-0.148,-1.661 -0.2,-3.334 -0.25,-5c-0.033,-1.082 0,-2.168 0,-3.25c0,-1.332 0,-2.668 0,-4c0,-1.582 -0.26,-3.19 0,-4.75c0.165,-0.992 0.661,-1.935 1.25,-2.75c0.518,-0.717 1.182,-1.413 2,-1.75c0.693,-0.285 1.633,-0.424 2.25,0c0.894,0.615 1.495,1.695 1.75,2.75c0.928,3.845 1.384,7.811 1.75,11.75c0.301,3.234 0.207,6.502 0.25,9.75c0.04,2.997 0,6.003 0,9c0,2.581 0,5.169 0,7.75c0,1.915 0,3.835 0,5.75c0,1.582 0,3.168 0,4.75c0,0.916 -0.046,1.835 0,2.75c0.038,0.753 0.208,1.497 0.25,2.25c0.042,0.748 0,1.501 0,2.25c0,0.916 0.087,1.838 0,2.75c-0.08,0.845 -0.316,1.671 -0.5,2.5c-0.149,0.67 -0.109,1.436 -0.5,2c-0.408,0.589 -1.206,1.71 -1.75,1.25c-1.081,-0.915 -1.204,-2.609 -1.5,-4c-0.542,-2.545 -0.867,-5.151 -1,-7.75c-0.2,-3.908 0,-7.837 0,-11.75c0,-2.414 0,-4.836 0,-7.25c0,-1.915 0,-3.835 0,-5.75c0,-2.081 0,-4.169 0,-6.25c0,-1.748 0,-3.502 0,-5.25c0,-1.415 0,-2.835 0,-4.25c0,-0.999 -0.174,-2.016 0,-3c0.33,-1.87 0.916,-3.694 1.5,-5.5c0.333,-1.03 0.818,-2.008 1.25,-3c0.401,-0.922 0.841,-1.831 1.25,-2.75c0.59,-1.329 1.1,-2.7 1.75,-4c0.434,-0.868 1.014,-1.66 1.5,-2.5c0.429,-0.742 0.764,-1.544 1.25,-2.25c0.435,-0.632 0.732,-1.75 1.5,-1.75c1.378,0 2.757,0.794 3.75,1.75c1.348,1.298 2.163,3.077 3,4.75c1.085,2.171 1.937,4.463 2.75,6.75c0.521,1.465 0.849,2.997 1.25,4.5c0.265,0.995 0.597,1.982 0.75,3c0.099,0.659 0,1.334 0,2c0,1.166 0.034,2.335 0,3.5c-0.049,1.666 0.186,3.391 -0.25,5c-0.663,2.448 -2.032,4.656 -3,7c-0.614,1.486 -1.132,3.016 -1.75,4.5c-0.631,1.514 -1.252,3.041 -2,4.5c-0.919,1.792 -2.06,3.469 -3,5.25c-0.643,1.219 -1.27,2.458 -1.75,3.75c-0.605,1.63 -1.136,3.3 -1.5,5c-0.14,0.651 0.333,2 0,2c-0.375,0 -1.208,-1.221 -1.5,-2c-0.234,-0.624 0,-1.334 0,-2c0,-0.749 0,-1.501 0,-2.25c0,-1.582 0,-3.168 0,-4.75c0,-1.998 0,-4.002 0,-6c0,-1.582 0,-3.168 0,-4.75c0,-1.665 0,-3.335 0,-5c0,-1.415 0,-2.835 0,-4.25c0,-1.082 0.074,-2.17 0,-3.25c-0.092,-1.339 -0.31,-2.671 -0.5,-4c-0.143,-1.003 -0.34,-2 -0.5,-3c-0.173,-1.081 -0.419,-2.158 -0.5,-3.25c-0.086,-1.162 0,-2.334 0,-3.5c0,-1.166 -0.198,-2.351 0,-3.5c0.224,-1.297 0.883,-2.486 1.25,-3.75c0.383,-1.319 0.655,-2.671 1,-4c0.238,-0.919 0.51,-1.832 0.75,-2.75c0.26,-0.996 0.454,-2.014 0.75,-3c0.204,-0.681 0.587,-1.308 0.75,-2c0.173,-0.734 0.048,-1.524 0.25,-2.25c0.219,-0.79 0.633,-1.517 1,-2.25c0.3,-0.6 0.566,-2.105 1,-1.75c0.941,0.77 1.307,2.615 1.75,4c0.23,0.718 0.162,1.501 0.25,2.25c0.078,0.667 0.194,1.331 0.25,2c0.111,1.33 0.172,2.668 0.25,4c0.088,1.498 0.203,3 0.25,4.5c0.036,1.165 0,2.334 0,3.5c0,1.499 0.165,3.011 0,4.5c-0.087,0.785 -0.579,1.479 -0.75,2.25c-0.33,1.483 -0.57,2.991 -0.75,4.5c-0.237,1.991 -0.415,3.997 -0.5,6c-0.081,1.913 0,3.835 0,5.75c0,1.415 0,2.835 0,4.25c0,1.415 0,2.835 0,4.25c0,0.666 0,1.334 0,2c0,1.332 0.034,2.668 0,4c-0.049,1.916 -0.161,3.836 -0.25,5.75c-0.077,1.665 -0.033,3.347 -0.25,5c-0.2,1.522 -0.708,2.993 -1,4.5c-0.208,1.075 -0.301,2.173 -0.5,3.25c-0.217,1.172 -0.613,2.316 -0.75,3.5c-0.115,0.992 0,2.001 0,3c0,0.916 0,1.834 0,2.75c0,0.749 0.182,1.523 0,2.25c-0.163,0.651 -0.484,1.32 -1,1.75c-0.546,0.455 -1.334,0.5 -2,0.75c-0.666,0.25 -1.298,0.633 -2,0.75c-0.821,0.137 -1.668,0 -2.5,0c-0.916,0 -1.835,-0.04 -2.75,0c-1.002,0.044 -1.998,0.219 -3,0.25c-1.664,0.052 -3.335,0 -5,0c-1.582,0 -3.168,0 -4.75,0c-1.166,0 -2.334,0 -3.5,0c-0.666,0 -1.334,0 -2,0c-0.999,0 -2.001,0 -3,0c-0.833,0 -1.667,0 -2.5,0c-0.833,0 -1.673,0.092 -2.5,0c-0.682,-0.076 -1.319,-0.415 -2,-0.5c-0.661,-0.083 -1.334,0 -2,0c-0.666,0 -1.335,-0.042 -2,0c-0.67,0.042 -1.351,0.079 -2,0.25c-0.942,0.248 -1.83,0.678 -2.75,1c-0.745,0.261 -1.472,0.613 -2.25,0.75c-0.656,0.116 -1.337,0.066 -2,0c-1.008,-0.101 -2.004,-0.319 -3,-0.5c-0.835,-0.152 -1.656,-0.411 -2.5,-0.5c-0.745,-0.078 -1.501,0 -2.25,0c-0.833,0 -1.667,0 -2.5,0c-0.666,0 -1.335,0.042 -2,0c-0.67,-0.042 -1.332,-0.186 -2,-0.25c-1.081,-0.103 -2.166,-0.198 -3.25,-0.25c-0.665,-0.032 -1.335,-0.039 -2,0c-0.753,0.044 -1.513,0.09 -2.25,0.25c-1.184,0.257 -2.331,0.681 -3.5,1c-0.662,0.181 -1.345,0.295 -2,0.5c-0.679,0.212 -1.348,0.465 -2,0.75c-0.682,0.298 -1.288,0.781 -2,1c-0.398,0.122 -1.214,0.734 -1.25,0z"/></g></g></svg>