<svg version="1.1" xmlns="http://www.w3.org/2000/svg" xmlns:xlink="http://www.w3.org/1999/xlink" width="301.39936" height="562.99448" viewBox="0,0,301.39936,562.99448"><g transform="translate(-90.60847,86.70003)"><g data-paper-data="{&quot;isPaintingLayer&quot;:true}" fill-rule="nonzero" stroke-linejoin="miter" stroke-miterlimit="10" stroke-dasharray="" stroke-dashoffset="0" style="mix-blend-mode: normal"><path d="M334.25459,111.44802c0,0 -18.13569,6.62776 -36.61428,0.37182c-16.47725,-5.5784 -4.68761,-26.63078 7.43642,-14.15575c6.96947,7.17124 29.17786,13.78393 29.17786,13.78393z" data-paper-data="{&quot;index&quot;:null}" fill="#7e6c69" stroke="#7e6c69" stroke-width="2.5" stroke-linecap="butt"/><path d="M305.85231,51.50148c16.77214,30.06593 50.73871,48.99693 50.73871,48.99693c0,0 -110.74044,46.69432 -141.22025,-52.29313c-6.01447,-19.53274 31.02915,-26.50566 56.21852,-28.27715c12.49946,-0.87906 9.65885,-2.24273 14.58269,2.29568c4.99888,4.60756 15.95664,19.6594 19.68036,29.27767z" data-paper-data="{&quot;index&quot;:null}" fill="#7e6c69" stroke="#7e6c69" stroke-width="2.5" stroke-linecap="butt"/><path d="M342.4919,73.67297c0,0 -13.17232,14.11809 -32.48142,16.90271c-17.21781,2.48302 -16.23278,-21.62566 0.2245,-15.9886c9.46043,3.24045 32.25692,-0.91411 32.25692,-0.91411z" data-paper-data="{&quot;index&quot;:null}" fill="#7e6c69" stroke="#7e6c69" stroke-width="2.5" stroke-linecap="butt"/><g stroke-width="0" stroke-linecap="butt"><path d="M115.65874,110.23192l-4.52403,-24.58727l13.76887,-2.53344l4.52403,24.58727z" fill="#905e57" stroke="none"/><path d="M130.47342,130.29416l-10.89225,1.92157l-15.57902,-8.37027l-4.45559,-30.39089l13.2614,-4.46142l3.8962,13.05009l6.25149,-18.57475l12.7696,1.49254l-0.97502,11.66748l4.64972,-10.40016l13.15276,2.88461l-2.32386,8.76052l8.01387,2.47565l8.41275,30.61397l-27.53647,18.22931z" fill="#ad7e72" stroke="#ad7e72"/></g><g stroke="none" stroke-width="0" stroke-linecap="butt"><path d="M137.41047,150.34665l-9.03761,-15.43514l40.51664,-23.12792l9.03761,15.43515z" fill="#d69d00"/><path d="M137.41047,150.34656l-9.0376,-15.43515l19.22524,-10.97425c-1.63144,7.75922 -3.42928,15.49379 -4.73489,23.29683z" fill="#a55900"/><path d="M177.92719,127.21874l-11.89238,6.78847c1.247,-6.94585 2.47046,-13.88963 3.66702,-20.83641z" fill="#ffcb3e"/></g><g stroke="none" stroke-width="0" stroke-linecap="butt"><path d="M209.0512,207.06809c-11.8015,19.50987 -46.25904,-17.6491 -46.25904,-17.6491c0,0 -23.57649,-6.50718 -25.24373,-8.66725c-1.00382,-1.30053 -5.05456,-18.04126 -5.05456,-18.04126l-12.21542,-8.52985c0,0 33.59717,-33.84393 64.58902,-41.16657c1.1685,1.43576 3.44915,17.7982 3.44915,17.7982c0,0 9.77819,2.57823 10.26498,3.42134c0.96482,1.67109 -0.54027,17.14079 -0.54027,17.14079c0,0 4.00913,5.63124 5.5969,3.4432c1.38481,-1.90835 3.21221,-4.59846 5.34362,-7.65841c0.1223,1.96467 0.2558,3.87809 0.38053,5.69637c0.52692,7.68122 3.10634,18.80814 4.248,26.01526c0.86228,5.44362 -0.88543,7.45774 -0.13818,12.93052c-2.53574,4.42557 -2.37956,11.89192 -4.42098,15.26675z" fill="#3d4d50"/><path d="M179.02448,204.17671c0,0 0.2905,-7.7262 3.68578,-15.15417c4.3816,-9.5858 9.33963,-13.59428 9.33963,-13.59428c0,0 -9.94088,13.23882 -8.75816,31.47262z" data-paper-data="{&quot;index&quot;:null}" fill="#ad7e72"/><path d="M171.01471,197.4593c0,0 -1.11388,-4.98184 2.19168,-15.03961c4.26584,-12.97956 17.28922,-23.94327 17.28922,-23.94327c0,0 -16.58405,18.11265 -15.18024,42.49198z" data-paper-data="{&quot;index&quot;:null}" fill="#ad7e72"/></g><g stroke-linecap="butt"><path d="M205.54216,152.25063c2.56474,-3.69148 5.96531,-8.7039 9.75575,-13.7117c1.45164,1.44557 2.85364,2.94281 4.21272,4.48719c1.80383,2.04975 3.51933,6.46374 4.72129,10.852c-5.90124,-2.27342 -12.45465,-2.67639 -18.68976,-1.6275z" fill="#a28b87" stroke="none" stroke-width="0"/><g><path d="" fill="#e1e2db" stroke="#3a2f41" stroke-width="2"/><path d="" fill="#e1e2db" stroke="#3a2f41" stroke-width="2"/><path d="M226.83818,169.27182c-7.27845,12.45057 -11.97163,28.35786 -17.81227,38.01345c-1.62262,2.68246 -4.56665,4.65407 -4.56665,4.65407c0,0 -1.42988,-51.36544 -0.84632,-56.90456c2.7655,-3.81101 13.31722,-21.02344 22.44983,-34.74303c1.39874,1.07738 4.59954,0.498 5.99861,1.33774c6.95601,5.04772 10.32707,7.51995 17.57262,12.14247c-2.1471,4.36081 -5.92945,9.87879 -10.36557,16.35258c-1.74358,2.54447 -3.73501,5.31967 -5.60077,8.10824c-2.3349,3.48973 -4.57769,7.18713 -6.82946,11.03904z" fill="#1f2d34" stroke="none" stroke-width="0"/><path d="M250.34535,131.322c-0.02481,0.8044 -0.79418,2.63622 -0.79418,2.63622l-23.54565,-13.31152c0,0 8.13459,-11.87475 20.15682,-6.40785c5.80118,2.63799 4.3171,12.73393 4.18302,17.08316z" fill="#3d4d50" stroke="none" stroke-width="0"/><path d="" fill="#3d4d50" stroke="none" stroke-width="0"/></g><path d="M237.41245,152.76291c0,0 -9.73838,1.09363 -16.05675,-7.13168c-0.03799,-0.18942 2.33326,1.40353 6.37459,2.58424c7.68973,2.24659 12.56792,0.40591 12.56792,0.40591z" fill="#ad7e72" stroke="none" stroke-width="0"/><path d="M233.49399,158.48359c0,0 -6.58756,-0.51475 -12.81332,-3.67045c-8.03433,-4.07243 -10.52261,-9.41217 -10.52261,-9.41217c0,0 10.19831,9.91332 25.80944,9.53272z" fill="#905e57" stroke="none" stroke-width="0"/></g><g stroke="none" stroke-width="0" stroke-linecap="butt"><path d="M335.82284,204.94793c5.89551,22.0262 -44.77322,21.13643 -44.77322,21.13643c0,0 -21.02493,12.49586 -23.73772,12.20197c-1.63332,-0.17694 -16.51287,-8.85216 -16.51287,-8.85216l-14.61365,2.90104c0,0 -1.13502,-47.67487 15.05252,-75.09893c1.84492,0.15185 15.22548,9.84162 15.22548,9.84162c0,0 8.63299,-5.2661 9.57825,-5.03313c1.87355,0.46177 11.98779,12.26342 11.98779,12.26342c0,0 6.83849,1.00946 6.36034,-1.65135c-0.41703,-2.32069 -1.09128,-5.50212 -1.82166,-9.15899c1.50165,1.27276 2.9741,2.50195 4.37186,3.67155c5.90476,4.94091 15.71638,10.78846 21.70504,14.95761c4.52329,3.14902 4.76522,5.80471 9.22985,9.05689c1.43519,4.89448 6.92816,9.95392 7.94798,13.76403z" fill="#1f2d34"/><path d="M312.93742,224.60046c0,0 -5.37095,-5.56161 -8.37608,-13.15581c-3.87812,-9.80032 -3.33453,-16.15283 -3.33453,-16.15283c0,0 2.66167,16.34023 16.6313,28.11816z" data-paper-data="{&quot;index&quot;:null}" fill="#905e57"/><path d="M302.54427,225.72389c0,0 -4.36455,-2.64768 -9.32844,-11.99889c-6.40591,-12.06776 -5.29145,-29.05509 -5.29145,-29.05509c0,0 1.57485,24.50752 20.12983,40.38314z" data-paper-data="{&quot;index&quot;:null}" fill="#905e57"/></g><g stroke-linecap="butt"><g><g data-paper-data="{&quot;index&quot;:null}" fill="#333140" stroke="#333140" stroke-width="2"><path d="M212.57194,349.03216l3.12834,-149.54559l38.87446,0.54646l0.06464,147.6188z" data-paper-data="{&quot;index&quot;:null}"/></g><path d="M133.73989,439.6953l76,-56.61237l45,-1.7473l4,38.78996z" fill="#7e6c69" stroke="#7e6c69" stroke-width="2.5"/><path d="M179.39635,405.68587l23.50299,-17.50737l32.09515,35.66461l-32.86444,5.14518z" fill="#a72100" stroke="#a72100" stroke-width="2.5"/><path d="M206.39926,365.3629c-0.01192,-1.34567 -6.95752,-12.34856 -7.11352,-16.34201c-0.16951,-4.33875 12.11882,-18.19538 12.11882,-18.19538l-0.61641,8.53703l20.23223,10.12331l25.01689,-4.50487l0.29635,-6.86304l10.72848,20.93655l-6.90727,11.04842l7.68662,12.19578l-9.44397,13.17096c0,0 -4.22689,1.48302 -9.28473,1.40471c-16.77843,-0.25978 -45.03136,-11.98155 -45.03136,-11.98155l-3.84148,-7.09629z" fill="#aa928e" stroke="#aa928e" stroke-width="2"/></g><path d="M214.03316,232.97936l0.07038,-1.40752h8.23398l4.85594,-26.03909l1.73235,-0.56764l-5.25115,27.94387z" fill="#1c1a29" stroke="none" stroke-width="0"/><path d="M214.03316,230.17087l0.05393,-1.37004h5.19153l4.47503,-25.34568l1.69299,-0.55252l-4.64091,27.19974z" fill="#1c1a29" stroke="none" stroke-width="0"/></g><path d="M286.71862,214.03317c10.24829,3.37551 28.27858,1.85758 28.27858,1.85758c0,0 -8.09901,8.1637 -22.90264,12.65585c-13.85404,4.20398 -30.10705,6.15045 -41.11554,-1.45039c-6.60013,-3.1969 7.52748,-10.04477 17.15215,-12.82506c4.77595,-1.37964 3.35353,-1.36858 6.28793,-0.96703c0,0 11.4691,0.45554 12.29952,0.72906z" data-paper-data="{&quot;index&quot;:null}" fill="#7e6c69" stroke="#7e6c69" stroke-width="2.5" stroke-linecap="butt"/><g stroke-linecap="butt"><g stroke-width="2.5"><path d="M273.44159,422.61385l-0.27791,-35.97146l44.97924,-3.79095l48.96947,90.34886z" data-paper-data="{&quot;index&quot;:null}" fill="#7e6c69" stroke="#7e6c69"/><path d="M324.46943,394.5237l18.81237,34.7089l-32.95709,13.29973l-24.64228,-13.30793z" data-paper-data="{&quot;index&quot;:null}" fill="#a72100" stroke="#a72100"/></g><g data-paper-data="{&quot;index&quot;:null}"><path d="M271.17976,350.95305l-15.3965,-146.8137l38.60343,-4.61495l18.77371,148.39547c0,0 -12.00755,12.0482 -19.10351,12.56089c-6.89161,0.49793 -22.87713,-9.52771 -22.87713,-9.52771z" data-paper-data="{&quot;index&quot;:null}" fill="#333140" stroke="#333140" stroke-width="2"/><path d="M328.8112,378.39861l-3.07713,7.4596c0,0 -26.86987,14.61636 -43.52882,16.63199c-5.02182,0.60761 -9.38079,-0.42455 -9.38079,-0.42455l-10.77149,-12.10942l6.36703,-12.93376l-8.02643,-10.26423l8.4767,-21.94504l1.01351,6.79425l25.35111,1.85997l19.0607,-12.18665l-1.50714,-8.42552c0,0 13.67201,12.49342 13.95785,16.82605c0.26312,3.98782 -5.4919,15.65765 -5.36282,16.99716z" fill="#aa928e" stroke="#aa928e" stroke-width="2"/><path d="M289.95672,233.59824l-8.14896,-27.24021l1.78229,0.38308l7.55641,25.3873l8.18871,-0.86238l0.2174,1.39241z" fill="#1c1a29" stroke="none" stroke-width="0"/><path d="M292.5159,230.50656l-7.46414,-26.56408l1.74155,0.37216l7.10498,24.7376l5.16298,-0.54373l0.19713,1.35685z" fill="#1c1a29" stroke="none" stroke-width="0"/></g></g><g stroke-linecap="butt"><path d="M240.94235,236.2648l2.79622,-25.22147h26.3644v29.7053z" fill="#8c9ca0" stroke="#1c1a29" stroke-width="2"/><path d="M241.34181,233.90191l2.79622,-25.22147h26.3644v29.70531z" fill="#333140" stroke="#333140" stroke-width="3.5"/></g><path d="" fill="#7c7984" stroke="none" stroke-width="0.5" stroke-linecap="butt"/><path d="" fill="#626171" stroke="none" stroke-width="0.5" stroke-linecap="butt"/><path d="" data-paper-data="{&quot;index&quot;:null}" fill="#e1e2db" stroke="#3a2f41" stroke-width="1" stroke-linecap="butt"/><path d="M258.34389,238.9287l-2.5,-25" fill="none" stroke="#1c1a29" stroke-width="2" stroke-linecap="round"/><path d="M249.84397,211.9287l1.5,26" fill="none" stroke="#1c1a29" stroke-width="2" stroke-linecap="round"/><path d="" fill="#3a2f41" stroke="#3a2f41" stroke-width="2.5" stroke-linecap="butt"/><g><path d="M267.55146,164.01156c-3.35861,0.37626 -1.73056,0.38663 -7.19694,-0.90613c-11.01605,-2.6052 -27.18601,-9.02182 -19.63173,-12.01739c12.59992,-7.12216 31.20254,-5.29828 47.05938,-1.35905c16.94371,4.20924 26.21354,11.85882 26.21354,11.85882c0,0 -20.63683,-1.42234 -32.36665,1.7406c-0.95047,0.25629 -14.07759,0.68315 -14.07759,0.68315z" data-paper-data="{&quot;index&quot;:null}" fill="#7e6c69" stroke="#7e6c69" stroke-width="2.5" stroke-linecap="butt"/><path d="M269.98312,156.99457c-4.80986,1.25869 -2.47833,1.29336 -10.30671,-3.03122c-15.77605,-8.71505 -38.93298,-30.1802 -28.11453,-40.20115c18.04429,-23.82541 44.68503,-17.72407 67.39355,-4.54635c24.26502,14.08095 37.54031,39.6707 37.54031,39.6707c0,0 -29.55392,-4.75807 -46.35215,5.82273c-1.36117,0.85737 -20.16046,2.2853 -20.16046,2.2853z" data-paper-data="{&quot;index&quot;:null}" fill="#7e6c69" stroke="#7e6c69" stroke-width="2.5" stroke-linecap="butt"/><g><g data-paper-data="{&quot;index&quot;:null}"><path d="M213.1946,199.9726c5.7981,-11.2778 7.30097,-49.38486 11.46101,-74.19289c1.98149,0 3.96298,0 5.94446,0c3.5239,0 7.02371,0.48887 10.33991,0.49949c0.41301,-0.05594 0.73011,0.47282 1.146,0.50006c2.90618,0.19035 5.74702,0.99502 8.78803,1.00008c1.50447,0.00078 2.07767,0.72926 3.51613,0.95721c2.23785,0.35462 4.34553,-0.232 6.4346,-0.42938c2.97948,-0.10474 7.40295,-1.23551 10.12667,-2.43881c2.9622,-1.03019 6.99708,-2.07167 10.15204,-2.08981c3.4012,-0.66676 6.86922,-1.17129 10.26914,-1.43616c0.5066,-0.04319 1.00955,-0.0693 1.50964,-0.0818c0.05406,20.86516 -2.7919,60.68358 2.31443,80.58928l-45.31996,11.41565z" fill="#3d4d50" stroke="#3d4d50" stroke-width="1" stroke-linecap="butt"/><path d="M231.88932,104.47251c8.44695,-7.03239 19.06218,-7.21798 29.11354,-6.81211c9.16146,0.36995 29.56388,8.59389 30.90525,12.3607c0.69412,1.94923 0.94455,6.1263 0.97224,11.73988c-0.51355,0.01264 -1.02997,0.03919 -1.55007,0.08319c-3.40546,0.30951 -6.86855,0.75236 -10.27659,1.43685c-3.18058,0.00357 -7.29843,1.08056 -10.28558,2.12214c-2.68497,1.18358 -7.04279,2.3008 -9.97609,2.40507c-2.08034,0.20236 -4.0965,0.72298 -6.32981,0.43353c-1.44036,-0.18668 -2.01914,-0.96162 -3.58765,-0.96243c-3.45551,-0.00574 -7.06375,-1.28469 -9.93359,-1.50013c-3.31629,-0.01058 -6.82269,-0.49949 -10.3409,-0.49949c-1.95332,0 -3.90663,0 -5.85995,0c1.74708,-10.25336 3.96288,-18.15447 7.1492,-20.80719z" fill="#1f2d34" stroke="none" stroke-width="0" stroke-linecap="butt"/><g fill="#7e6c69" stroke="#12161a" stroke-width="0" stroke-linecap="round"><g><path d="M242.97875,99.7314c-0.4635,-0.31065 2.57838,-4.32438 3.04472,-4.64622c0.18587,-0.05492 7.68058,-2.6106 8.33441,-2.12826c2.98586,2.20271 5.62226,12.37189 5.62226,12.37189l-9.00282,9.34144z" data-paper-data="{&quot;index&quot;:null}"/><path d="M254.88537,104.79818l7.94251,-12.33065c0,0 7.22195,-0.39685 11.42041,2.24689c2.04781,1.28949 2.76664,4.36928 2.7533,6.51333c-1.04406,2.65042 -15.11509,14.86538 -15.11509,14.86538z"/></g></g></g><path d="M249.61728,213.51322l1.87929,-8.30708l-11.35467,-36.11236l17.05992,-39.39242" fill="none" stroke="#18292c" stroke-width="1" stroke-linecap="round"/><path d="M250.96628,169.24153c-0.13841,2.2832 -1.7594,4.05971 -3.62058,3.96793c-1.86118,-0.09178 -3.25776,-2.01708 -3.11935,-4.30029c0.13841,-2.2832 1.7594,-4.05971 3.62058,-3.96793c1.86118,0.09178 3.25776,2.01708 3.11935,4.30029z" fill="#a28b87" stroke="#3a2f41" stroke-width="0" stroke-linecap="butt"/><path d="M224.43999,127.10345l-6.98162,-11.83446l15.87601,-13.61785l22.94967,27.25379z" fill="#7e6c69" stroke="#7e6c69" stroke-width="0.5" stroke-linecap="butt"/><path d="M256.86513,128.74598l32.11978,-24.63613l14.62842,9.54812l-9.22586,14.61609z" data-paper-data="{&quot;index&quot;:null}" fill="#7e6c69" stroke="#7e6c69" stroke-width="0.5" stroke-linecap="butt"/></g></g><g stroke-linecap="butt"><path d="M252.20933,99.11059l0.14074,-15.65736l12.75,-0.5l-0.42857,17.35714l-6.96429,3.5z" fill="#905e57" stroke="none" stroke-width="0"/><path d="M252.25415,98.37044v-7.33333h12.33333v4.66667z" fill="#1a1a1a" stroke="#1a1a1a" stroke-width="0.5"/></g><path d="" fill="#a55900" stroke="none" stroke-width="0" stroke-linecap="butt"/><g data-paper-data="{&quot;index&quot;:null}"><path d="M251.46958,167.25c2.46785,0.29385 4.0567,3.98987 3.54882,8.25528c-0.50788,4.26541 -2.92021,7.48501 -5.38806,7.19116c-2.46785,-0.29385 -4.0567,-3.98988 -3.54882,-8.25529c0.50788,-4.26541 2.92021,-7.485 5.38806,-7.19115z" fill="none" stroke="#1a1a1a" stroke-width="2" stroke-linecap="butt"/><g data-paper-data="{&quot;index&quot;:null}"><path d="M263.28615,92.19567c0,0 29.33751,7.92383 10.73532,35.17639c-6.29991,9.22948 -18.66995,15.18461 -23.04988,16.34695c-0.19036,0.05051 -0.38223,0.0885 -0.57548,0.11442" fill="none" stroke="#1a1a1a" stroke-width="2" stroke-linecap="round"/><g stroke="none" stroke-width="0" stroke-linecap="butt"><path d="M261.20669,154.92677c-0.89021,12.6762 -5.46635,23.16482 -13.23905,22.6347c-7.51341,-0.51243 -10.1766,-11.86786 -9.28641,-24.54407c0.89022,-12.67621 5.41885,-22.43016 12.99608,-22.20998c7.84817,0.22805 10.41957,11.44313 9.52937,24.11934zM244.968,154.70816c-0.5126,10.01862 1.10873,16.89904 3.7916,16.97787c2.75788,0.08102 5.50567,-9.14785 5.81802,-16.38187c0.32481,-7.52299 -0.47964,-18.48639 -3.43438,-18.3328c-2.81278,0.14621 -5.65789,7.62536 -6.17524,17.73678z" fill="#d69d00"/><path d="M247.96768,177.56149c-7.51341,-0.51243 -10.17661,-11.86785 -9.28639,-24.54406c0.14936,-2.12697 0.40117,-4.17165 0.75263,-6.10076c0.3325,1.16673 0.68211,2.3284 1.05337,3.48306c0.44861,1.39523 2.57653,7.23155 4.39836,9.09408c0.08057,4.03081 0.56576,7.28332 1.35448,9.41206c0.01603,0.13209 0.0418,0.26464 0.07778,0.39681c0.13732,0.50444 0.40559,0.93814 0.75817,1.27444c0.49501,0.70567 1.06067,1.09058 1.68352,1.10888c0.39819,0.0117 0.79616,-0.17067 1.18662,-0.51308c0.441,-0.16201 0.81926,-0.42768 1.11429,-0.76123c1.56469,-1.40073 2.88851,-4 3.87402,-5.42354c3.12911,-4.51988 5.17242,-9.26147 6.43912,-14.34475c-0.00842,1.39909 -0.06498,2.83167 -0.16692,4.28341c-0.89021,12.6762 -5.46633,23.16482 -13.23905,22.6347z" fill="#a55900"/><path d="M247.96769,177.56149c-6.72376,-0.45857 -9.56322,-9.6007 -9.44782,-20.60206c1.36101,4.50764 4.29195,10.42561 6.89524,12.50286c0.33292,0.26566 1.09587,0.93382 1.8221,1.33005c0.45546,0.56854 0.96612,0.87732 1.5224,0.89366c0.26185,0.00768 0.52361,-0.06855 0.7832,-0.21902c1.31238,0.11676 3.90481,-1.37885 4.69213,-1.98798c2.06648,-1.59874 3.99429,-3.09099 5.45548,-4.94137c-2.07647,7.92381 -6.04753,13.41093 -11.72272,13.02387z" fill="#732d00"/><path d="M241.65915,139.17422c2.22838,-5.24211 5.60659,-8.49496 10.01821,-8.36677c2.34151,0.06804 4.21332,1.11409 5.66362,2.88513c1.64466,2.00835 2.74729,4.94903 3.37817,8.45311c-1.98969,2.45464 -4.02701,4.87759 -6.12087,7.23193c-0.19382,-5.59174 -1.00831,-11.12888 -2.75175,-12.21603c-0.03927,-0.04005 -0.08064,-0.07836 -0.12438,-0.1147c-1.91537,-1.59107 -2.74896,-1.04327 -4.73916,-0.53899c-1.94776,0.49353 -3.72707,1.4478 -5.32383,2.66633z" fill="#ffcb3e"/><path d="M258.73339,139.37832c0.56749,1.96592 0.20584,2.60196 -1.2207,0.58509c-0.98742,-1.39602 -2.65669,-5.20792 -4.17521,-6.02098c-3.00813,-1.61065 -5.04146,1.8823 -5.90804,-0.1147c-0.4249,-0.97916 1.31078,-2.37673 3.88039,-2.38613c3.26412,-0.01194 6.1636,3.57189 7.42358,7.93673z" fill="#ffeab1"/></g><path d="M249.89724,143.87363c-10.686,0.30226 -26.13837,-28.6541 2.36365,-50.38826" fill="none" stroke="#1a1a1a" stroke-width="2" stroke-linecap="round"/></g><path d="M249.53576,182.68343c-2.41369,-0.37583 -3.95561,-4.03163 -3.45423,-8.2423c0.50789,-4.26542 2.92022,-7.48501 5.38806,-7.19116c0.05922,0.00706 0.11794,0.01607 0.17614,0.027" fill="none" stroke="#1a1a1a" stroke-width="2" stroke-linecap="butt"/><g><g><path d="M229.85477,209.84065l18.48981,-27.91085l16.42012,28.06732z" fill="#c53939" stroke="none" stroke-width="0" stroke-linecap="butt"/><path d="M249.43853,210.46526l8.27252,-13.03642l7.05706,12.67934z" fill-opacity="0.77419" fill="#6b1a1e" stroke="none" stroke-width="0" stroke-linecap="butt"/><path d="M229.40374,209.63212l18.8569,-28.26613l4.95309,8.28305l-8.62986,0.29835l-10.03159,17.19303l12.60397,1.39362l-5.19604,0.93687z" fill-opacity="0.43548" fill="#ffffff" stroke="none" stroke-width="0" stroke-linecap="butt"/><path d="M248.31416,181.38882l16.62804,28.50562" fill="none" stroke="#1a1a1a" stroke-width="2" stroke-linecap="round"/><path d="M229.62955,209.41212l18.68462,-28.0233" fill="none" stroke="#1a1a1a" stroke-width="2" stroke-linecap="round"/><path d="M229.42058,209.72885l35.27173,0.17322" fill="none" stroke="#1a1a1a" stroke-width="2" stroke-linecap="round"/></g><path d="M254.07538,188.57779l-12.02472,0.05625" fill="none" stroke="#1a1a1a" stroke-width="2" stroke-linecap="round"/><path d="M242.18458,185.73972l12.02472,-0.05626" fill="none" stroke="#1a1a1a" stroke-width="2" stroke-linecap="round"/></g></g><g stroke-linecap="butt"><path d="M294.20372,169.14491c-0.88567,-4.40687 -2.14502,-10.33159 -3.13096,-16.53428c2.04814,-0.04556 4.09914,-0.01952 6.15443,0.07013c2.72784,0.11897 7.0996,1.9394 11.09706,4.11237c-5.72751,2.68117 -10.55781,7.12839 -14.12053,12.35178z" fill="#a28b87" stroke="none" stroke-width="0"/><g><path d="" fill="#e1e2db" stroke="#3a2f41" stroke-width="2"/><path d="" fill="#e1e2db" stroke="#3a2f41" stroke-width="2"/><path d="M321.23168,165.577c3.9375,13.87403 12.15888,28.27808 15.07663,39.17901c0.81059,3.02844 0.19313,6.51747 0.19313,6.51747c0,0 -38.03559,-34.55064 -41.6262,-38.80857c-0.83281,-4.63446 -5.93713,-24.16783 -9.50544,-40.25816c1.74595,-0.26246 3.54536,-2.97224 5.12014,-3.39955c8.45902,-1.52006 12.5772,-2.23873 20.93014,-4.26216c1.65771,4.56932 3.0172,11.1196 4.61314,18.80347c0.62727,3.02008 1.24926,6.37876 1.96795,9.65605c0.89938,4.10136 2.01235,8.28013 3.23053,12.57242z" fill="#3d4d50" stroke="none" stroke-width="0"/><path d="M310.14593,122.33488c0.56295,0.57511 1.35111,2.39893 1.35111,2.39893l-25.9109,7.76012c0,0 -2.92915,-14.09261 9.34166,-18.97608c5.92113,-2.35646 12.17433,5.70754 15.21814,8.81703z" fill="#3d4d50" stroke="none" stroke-width="0"/><path d="" fill="#3d4d50" stroke="none" stroke-width="0"/></g><path d="M316.65036,146.51474c0,0 -5.95724,7.78096 -16.26625,6.63997c-0.16293,-0.10381 2.62853,-0.7105 6.27958,-2.80724c6.94709,-3.98962 8.9988,-8.78288 8.9988,-8.78288z" fill="#ad7e72" stroke="none" stroke-width="0"/><path d="M318.06174,153.30356c0,0 -4.93458,4.39441 -11.5232,6.69845c-8.50261,2.97336 -14.07734,1.06897 -14.07734,1.06897c0,0 14.21412,-0.48793 24.75378,-12.01042z" fill="#ad7e72" stroke="none" stroke-width="0"/></g><g><g><path d="M297.09628,34.98022c-12.91269,10.10058 -19.19739,15.3843 -41.4876,7.12854c-22.2902,-8.25577 -48.91328,-18.12188 -37.10755,-28.89327c22.91933,-38.4625 137.60902,2.54962 137.60902,2.54962c0,0 -37.06509,2.0463 -59.01386,19.21511z" fill="#aa928e" stroke="#aa928e" stroke-width="2.5" stroke-linecap="butt"/><path d="M188.99353,-29.84428c0,0 34.88454,11.34027 57.21013,33.97374c13.23475,13.41728 -10.80945,4.06763 -21.64427,14.13066c-5.02913,4.6709 -21.73006,15.0288 -21.73006,15.0288z" data-paper-data="{&quot;index&quot;:null}" fill="#7e6c69" stroke="#7e6c69" stroke-width="2.5" stroke-linecap="butt"/><path d="M286.61582,50.23639c-10.93506,18.51171 -16.19256,28.0701 -39.58728,21.69403c-23.39471,-6.37608 -51.33797,-13.99984 -41.61059,-33.21734c15.79777,-63.49442 135.9126,-32.87524 135.9126,-32.87524c0,0 -36.1275,12.93261 -54.71473,44.39854z" fill="#aa928e" stroke="#aa928e" stroke-width="2.5" stroke-linecap="butt"/><path d="M313.56659,7.49793c29.33589,18.38683 76.22026,17.93341 76.22026,17.93341c0,0 -55.46886,92.4216 -138.97826,31.75053c-16.47853,-11.97195 0.7355,-33.98918 18.83383,-50.12662c18.09833,-16.13745 26.6656,-10.37446 43.92419,0.4427z" data-paper-data="{&quot;index&quot;:null}" fill="#aa928e" stroke="#aa928e" stroke-width="2.5" stroke-linecap="butt"/><path d="M253.79514,43.94428c7.72265,9.37911 11.81103,14.01934 2.10511,24.94691c-4.19822,4.72664 5.09042,19.03077 -5.08945,21.19384c-31.75215,6.74686 -46.18348,-11.20243 -46.18348,-11.20243c0,0 15.01826,2.60068 13.39866,0.89444c-42.76452,-45.05187 13.85917,-89.95313 13.85917,-89.95313c0,0 8.78317,38.17785 21.91,54.12035z" fill="#a28b87" stroke="#a28b87" stroke-width="2.5" stroke-linecap="butt"/><path d="M296.01671,40.53214c-5.20632,20.86033 -7.52197,31.52062 -31.76365,32.07576c-24.24167,0.55513 -53.19885,1.21052 -49.35125,-19.98217c-3.04959,-67.53855 53.67931,-82.83727 87.76992,-82.00702c26.97954,0.65708 55.50806,14.48729 55.50806,14.48729c0,0 -53.31347,19.96809 -62.1631,55.42615z" fill="#aa928e" stroke="#aa928e" stroke-width="2.5" stroke-linecap="butt"/><g data-paper-data="{&quot;index&quot;:null}" stroke="none" stroke-width="0" stroke-linecap="butt"><path d="M216.43129,57.60516c-0.42905,-18.73569 12.22684,-41.12261 36.07176,-42.34866c36.24918,-1.86387 49.94496,21.63339 50.374,40.36905c0.23861,10.41985 -0.20276,19.63955 -8.70635,26.18554c-17.5973,13.54626 -59.61894,12.10375 -71.07242,-1.39419c-7.35364,-8.66627 -6.44943,-13.31133 -6.66699,-22.81173z" fill="#ad7e72"/><path d="M216.43129,57.60516c-0.42905,-18.73569 12.22684,-41.12261 36.07176,-42.34866c36.24918,-1.86387 49.94496,23.63339 50.374,42.36905c0.3358,14.66371 -18.53322,13.98761 -36.13575,13.1447c-4.88803,-0.23407 -9.6784,-0.481 -13.93276,-0.41589c-19.57883,0.29962 -35.9482,5.98649 -36.37725,-12.74919z" fill="#905e57"/></g><path d="M224.34538,80.28531c-0.16873,0.84083 -9.51146,1.40279 -13.5291,0.69252c-5.9627,-1.05413 -5.70356,-2.42959 -5.53482,-3.27042c0.16873,-0.84083 19.06392,2.57789 19.06392,2.57789z" data-paper-data="{&quot;index&quot;:null}" fill="#1a1a1a" stroke="#020202" stroke-width="0.5" stroke-linecap="butt"/><path d="M259.62792,14.71488c0.0146,0.63741 -0.62281,0.652 -0.62281,0.652c-0.37772,0.00865 -1.32203,0.03028 -1.69975,0.03892c-3.08038,0.07053 -6.11374,0.36268 -9.1449,0.80539c-3.02674,0.44205 -5.54895,1.51519 -8.65704,1.58637c0,0 -0.6374,0.0146 -0.652,-0.6228c-0.0146,-0.63741 0.6228,-0.65201 0.6228,-0.65201c3.05288,-0.0699 5.52808,-1.12577 8.51087,-1.57458c3.07372,-0.46249 6.16624,-0.74561 9.29107,-0.81717c0.37772,-0.00865 0.75544,-0.0173 1.13317,-0.02595l0.56658,-0.01297c0,0 0.63741,-0.01459 0.65201,0.62281z" fill="#3a2f41" stroke="#3a2f41" stroke-width="2.5" stroke-linecap="butt"/><path d="M298.48018,22.40128c-0.98212,2.89913 -2.74009,5.79944 -4.99704,8.62461c-11.68768,14.63025 -36.7566,27.24537 -36.7566,27.24537c0,0 6.91006,-32.43887 10.97812,-38.85124c0,0 33.21206,-4.21117 30.77553,2.98125z" fill="#aa928e" stroke="none" stroke-width="0" stroke-linecap="butt"/><path d="M309.17026,61.93134c-5.52231,5.21264 -18.9882,-0.08486 -30.07692,-11.83232c-11.08872,-11.74746 -15.60118,-25.49633 -10.07888,-30.70897c0.89874,-0.84835 -29.99211,-15.41832 -28.71705,-15.7274c3.05676,-0.74099 25.51623,5.55763 37.28871,10.82115c13.49004,6.03145 16.54763,11.48643 21.50526,16.73857c11.08872,11.74745 15.60118,25.49633 10.07887,30.70898z" fill="#aa928e" stroke="none" stroke-width="0" stroke-linecap="butt"/><path d="M345.60007,65.55358c0,0.82842 -33.97082,22.16753 -48.625,21.25c-7.90436,-0.49491 -12.76143,-10.06657 -12.76143,-10.06657l14.3213,-1.10124c0,0 1.17496,-1.88468 2.26415,-3.97867c0.63348,-1.21787 1.23794,-2.67197 1.56536,-3.43434c0.22526,-0.5245 0.17195,0.41649 0.36063,-0.16918c3.19655,-9.92218 42.875,-3.32842 42.875,-2.5z" fill="#aa928e" stroke="#aa928e" stroke-width="2.5" stroke-linecap="butt"/><g stroke="none" stroke-width="0" stroke-linecap="butt"><path d="M221.72468,-44.51981l-4.45489,-9.18978l1.67647,-17.85935l21.00191,11.06612l10.8863,-26.19721l13.97546,22.5414l13.80011,-17.05748l8.27396,17.14092l-0.48219,12.23395c0,0 -6.44034,9.41633 -30.73894,13.1487c-15.61853,2.39908 -33.9382,-5.82726 -33.9382,-5.82726z" fill="#723d00"/><g><path d="M225.24778,-31.41361l-13.47946,-29.85154l19.4368,13.62808l5.90404,-24.21046l16.9819,23.48262l9.33969,-24.55752l13.25997,18.31545l13.3921,-22.37148l-2.12865,37.7376c0,0 -6.31118,10.36821 -30.60319,14.14905c-15.61429,2.43023 -32.10321,-6.3218 -32.10321,-6.3218z" fill="#d69d00"/><path d="M276.69069,-54.60698l13.3921,-22.37148l-2.12865,37.7376c0,0 -5.06882,8.32723 -23.60598,12.77754c2.6938,-11.04861 5.17152,-21.37666 6.98062,-29.29761c0.2917,-1.27719 0.71592,-2.82638 1.2107,-4.57994z" fill="#ffcb3e"/><path d="M225.24778,-31.41363l-13.47946,-29.85154l19.4368,13.62808l5.90404,-24.21046l2.60557,3.60298c-0.2621,1.57513 -0.40505,2.51765 -0.41001,2.53922c-2.53827,11.03142 -5.27098,22.00104 -7.95439,32.98585c-0.29399,1.20348 -0.59025,2.41302 -0.88846,3.6279c-3.23548,-1.27181 -5.21409,-2.32203 -5.21409,-2.32203z" fill="#a55900"/></g><path d="M260.72875,-36.39287l-3.76581,5.989l-5.78343,-4.84359l3.49187,-9.25146z" fill="#d62b00"/><path d="M236.75303,-34.98991l-1.86991,5.07899l-4.38912,-4.18321l1.0635,-9.54155z" fill="#004fd6"/><path d="M277.89162,-48.79242l2.63625,9.23159l-3.63191,4.85518l-2.68891,-4.69707z" data-paper-data="{&quot;index&quot;:null}" fill="#004fd6"/></g><g data-paper-data="{&quot;index&quot;:null}"><path d="M265.14189,74.49354c-2.6394,-1.01956 -5.7927,-3.18962 -5.7927,-3.18962l35.64163,-0.88951c0,0 -0.75671,1.6723 -6.4347,3.54471c-1.35869,0.44805 -5.99118,1.50152 -10.92654,1.68387c-5.26184,0.19441 -10.84728,-0.51578 -12.48769,-1.14944z" fill="#f1f1f1" stroke="none" stroke-width="0" stroke-linecap="butt"/><path d="M259.18084,71.16297l35.62179,-0.94083" fill="none" stroke="#1a1a1a" stroke-width="1" stroke-linecap="round"/><path d="M264.91265,74.36366c0,0 5.6687,1.45913 13.02477,1.06252c6.93722,-0.37403 12.22168,-1.89802 12.22168,-1.89802c0,0 -3.48041,1.83583 -12.2966,2.44064c-8.19739,0.56236 -12.94983,-1.60513 -12.94983,-1.60513z" fill="#1a1a1a" stroke="#000000" stroke-width="0" stroke-linecap="round"/></g><path d="M287.6355,74.45947c0,0 0.6838,-3.42145 1.93788,-3.64689c1.60939,-0.28931 0.31478,2.96832 0.31478,2.96832l-2.25265,0.67858z" data-paper-data="{&quot;index&quot;:null}" fill="none" stroke="#1a1a1a" stroke-width="0.5" stroke-linecap="butt"/><path d="M286.59997,88.18547v0.00568l0.16424,0.05292l-0.19567,0.39403c-0.0709,0.15296 -0.25394,0.26188 -0.46857,0.26188c-0.27614,0 -0.5,-0.18032 -0.5,-0.40274c0,-0.24227 0,-0.61261 0,-0.96658h-0.2c-0.27614,0 -0.5,-0.18032 -0.5,-0.40274c0,-0.11122 0.05596,-0.21191 0.14644,-0.28478l0.4,-0.32219c1.54386,-1.19012 2.19703,-3.18333 2.97205,-4.73718c0.25063,-1.21129 0.53645,-2.86544 0.34163,-4.36388c-0.13315,-0.44888 -0.26475,-0.90272 -0.33909,-1.34064c-0.08046,-0.19805 -0.17488,-0.38866 -0.28492,-0.56987c-1.22148,1.24077 -1.44093,0.41982 -2.58966,-0.50109c0,0 -0.01101,-0.00887 -0.0272,-0.02504l-0.0673,-0.02711c-0.55915,0.187 -1.1403,0.36851 -1.79131,0.49971c0,0 -0.24254,0.04884 -0.30317,-0.14652c-0.06063,-0.19536 0.1819,-0.2442 0.1819,-0.2442c0.61056,-0.12284 1.16261,-0.28871 1.6936,-0.46208c0.0248,-0.02672 0.05764,-0.04831 0.09564,-0.06245l0.18338,-0.0721c0.01065,-0.00992 0.02212,-0.01985 0.03445,-0.02978c0.15981,-0.12873 0.31962,-0.14108 0.44678,-0.11597c0.07902,-0.01802 0.15854,-0.03496 0.2385,-0.05092c0.93077,-0.30192 1.87055,-0.55519 3.03495,-0.55519h0.5v0.08503l0.23097,0.03928c-0.04476,0.05078 -0.09193,0.09785 -0.14132,0.1415c0.05302,0.02648 0.09461,0.059 0.12302,0.09819c0.21393,0.29512 0.10354,0.43913 -0.0996,0.50896l0.11055,0.17809l-0.02016,0.00812l0.03987,0.03567c0,0.09431 0.00117,0.18902 0.00338,0.2841c0.20626,0.44246 0.16997,1.22619 0.16997,1.50737c0,0.31618 0.01119,0.64074 0.02549,0.97016c0.07439,0.74796 0.14118,1.50272 0.14118,2.25177c0,0.81672 -0.18687,1.72319 -0.48721,2.63706c-0.02366,0.11487 -0.07083,0.24249 -0.12516,0.36338c-0.17343,0.48185 -0.37567,0.96271 -0.59597,1.43056l0.0203,0.04905l-0.04984,0.01338c-0.02905,0.06109 -0.0584,0.12195 -0.08803,0.18256c0.00127,0.39137 -0.1988,0.73928 -0.29628,1.18457c0.02984,0.02136 0.0582,0.04617 0.08486,0.07469c0.11933,0.12759 0.11287,0.24426 0.02489,0.34999c0.03803,0.05401 0.06245,0.12333 0.06245,0.21232c0,0.40274 -0.5,0.40274 -0.5,0.40274l-0.40544,-0.00727c-0.46472,0.15863 -0.83257,0.31863 -1.18522,0.43966c0.00156,0.39073 -0.02688,0.69849 -0.20934,1.0279z" fill="#1a1a1a" stroke="none" stroke-width="0.5" stroke-linecap="butt"/><path d="M289.91274,32.17769c-15.90554,7.63928 -66.09525,46.97554 -66.09525,46.97554c0,0 -6.81812,-2.4982 -15.82799,-19.65095c-1.10778,-3.54916 2.29975,13.16641 2.29975,13.16641c0,0 -25.62314,-21.33174 -25.07774,-30.42248c1.33904,-22.31921 41.35285,-35.92729 39.2962,-37.24175c-4.72935,-3.02267 -8.92229,-11.89301 -8.92229,-11.89301c0,0 13.44191,3.19699 24.6563,7.55808c11.24343,4.37239 24.76853,8.41493 31.84614,13.0789c10.1269,6.67338 24.6357,15.15809 17.82488,18.42926z" data-paper-data="{&quot;index&quot;:null}" fill="#aa928e" stroke="#aa928e" stroke-width="1.5" stroke-linecap="butt"/><path d="M259.13059,12.95492c-0.74872,-28.12612 16.53389,-60.73848 16.53389,-60.73848c0,0 33.31582,32.79953 36.07276,74.04047" data-paper-data="{&quot;index&quot;:null}" fill="#aa928e" stroke="#7e6c69" stroke-width="2.5" stroke-linecap="butt"/></g><g stroke-linecap="butt"><path d="M266.20082,88.67275c0,1.05737 -4.77869,1.91452 -10.67352,1.91452c-5.89482,0 -7.65982,-0.1734 -7.65982,-1.23076c0,-1.05737 3.8997,-3.21367 9.79452,-3.21367c5.89482,0 8.53881,1.47255 8.53881,2.52991z" fill="#f1f1f1" stroke="none" stroke-width="0"/><path d="M250.31469,90.4611c-1.80461,-0.15045 -2.44717,-0.46661 -2.44717,-1.1046c0,-0.5025 0.88075,-1.2532 2.43784,-1.9027z" fill="#1a1a1a" stroke="#000000" stroke-width="0.05"/></g></g><text transform="translate(92,64.4208) scale(0.92768,0.92768)" font-size="40" xml:space="preserve" fill="#000000" fill-rule="nonzero" stroke="none" stroke-width="1" stroke-linecap="butt" stroke-linejoin="miter" stroke-miterlimit="10" stroke-dasharray="" stroke-dashoffset="0" font-family="Handwriting" font-weight="normal" text-anchor="start" style="mix-blend-mode: normal"><tspan x="0" dy="0">X</tspan></text></g></g></svg>