<svg version="1.1" xmlns="http://www.w3.org/2000/svg" xmlns:xlink="http://www.w3.org/1999/xlink" width="176.47295" height="448.54888" viewBox="0,0,176.47295,448.54888"><g transform="translate(-160.8427,22.86242)"><g data-paper-data="{&quot;isPaintingLayer&quot;:true}" fill-rule="nonzero" stroke-linejoin="miter" stroke-miterlimit="10" stroke-dasharray="" stroke-dashoffset="0" style="mix-blend-mode: normal"><path d="" fill="#7c7984" stroke="none" stroke-width="0.5" stroke-linecap="butt"/><path d="" fill="#626171" stroke="none" stroke-width="0.5" stroke-linecap="butt"/><path d="" data-paper-data="{&quot;index&quot;:null}" fill="#e1e2db" stroke="#3a2f41" stroke-width="1" stroke-linecap="butt"/><path d="" fill="#3a2f41" stroke="#3a2f41" stroke-width="2.5" stroke-linecap="butt"/><path d="" fill="#a55900" stroke="none" stroke-width="0" stroke-linecap="butt"/><g data-paper-data="{&quot;index&quot;:null}" stroke-linecap="butt"><path d="M209.61758,183.6231c3.70045,-2.45659 4.07691,-4.82443 7.81563,-7.18179c4.94992,-3.12106 12.98991,-7.34847 17.92938,-11.17404c1.16925,-0.90558 2.40079,-1.85692 3.65811,-2.84443c-0.82712,3.21825 -1.57686,6.01397 -2.06563,8.06125c-0.56041,2.34733 4.82573,2.1644 4.82573,2.1644c0,0 8.69768,-9.56163 10.18648,-9.77866c0.75115,-0.1095 7.08654,5.5544 7.08654,5.5544c0,0 11.08624,-7.31102 12.53079,-7.25178c10.63404,26.43761 6.36889,69.28575 6.36889,69.28575l-11.15107,-4.168c0,0 -12.17919,6.23728 -13.46107,6.22315c-2.12909,-0.02347 -17.58179,-13.52064 -17.58179,-13.52064c0,0 -39.44011,-4.58379 -33.29543,-23.80909c1.06291,-3.3256 5.69078,-7.30175 7.15345,-11.56053z" fill="#2a292e" stroke="none" stroke-width="0"/><path d="M227.51167,154.70484c3.26081,-1.53358 6.7875,-2.70962 8.91586,-2.5269c1.60362,0.13767 3.19939,0.33221 4.78785,0.59097c-1.20638,5.4856 -2.6055,10.69162 -3.60651,14.56935c-2.39809,-5.08647 -5.83637,-9.60812 -10.09721,-12.63342z" fill="#a28b87" stroke="none" stroke-width="0"/><g><path d="" fill="#e1e2db" stroke="#3a2f41" stroke-width="2"/><path d="" fill="#e1e2db" stroke="#3a2f41" stroke-width="2"/><path d="M251.57334,114.75044c0.06874,6.7717 -13.07721,48.71766 -14.71818,55.59119c-3.09257,3.45597 -35.10352,30.55314 -35.10352,30.55314c0,0 -0.23227,-3.21026 0.61258,-5.85359c3.04105,-9.51475 10.45239,-21.62306 14.49692,-33.70904c5.97022,-17.84036 8.60945,-34.93435 11.68002,-37.87775c2.35773,-2.26009 23.51726,-16.02246 23.03219,-8.70394z" fill="#2a292e" stroke="none" stroke-width="0"/><path d="" fill="#3d4d50" stroke="none" stroke-width="0"/></g><path d="M222.8894,140.19952c0,0 1.25435,4.5382 6.37013,8.87242c2.6886,2.27784 4.81492,3.12136 4.68093,3.19761c-8.09256,-0.0674 -12.17006,-7.71351 -12.17006,-7.71351z" fill="#ad7e72" stroke="none" stroke-width="0"/><path d="M221.15097,146.79055c7.3732,11.50536 18.38502,13.456 18.38502,13.456c0,0 -4.46752,1.12384 -10.86427,-2.45977c-4.95681,-2.77692 -8.47987,-7.26206 -8.47987,-7.26206z" fill="#905e57" stroke="none" stroke-width="0"/><path d="M215.37524,213.73243c11.69221,-9.13044 14.92024,-23.57478 14.92024,-23.57478c0,0 -0.02832,5.78323 -3.73764,14.20393c-2.87432,6.52514 -7.44299,10.96686 -7.44299,10.96686z" data-paper-data="{&quot;index&quot;:null}" fill="#905e57" stroke="none" stroke-width="0"/><path d="M222.87772,216.25539c15.54648,-12.33625 18.50945,-34.2572 18.50945,-34.2572c0,0 -0.33935,15.42895 -6.17401,25.62457c-4.52124,7.90052 -8.10102,9.82293 -8.10102,9.82293z" data-paper-data="{&quot;index&quot;:null}" fill="#905e57" stroke="none" stroke-width="0"/></g><g stroke-width="0.5" stroke-linecap="round"><path d="M325.15614,66.70015c-6.3283,-4.63241 -12.33187,-10.88941 -12.12918,-9.14998c5.69362,48.86236 17.19364,51.58414 17.19364,51.58414l-33.21736,-8.34813l3.268,23.75433l-24.88999,-17.54132l-6.96208,17.78757l-9.13386,-16.50634l-8.51905,18.17066l-7.23706,-19.20562l-13.20098,15.30398l-5.37859,-20.1094l-10.96433,10.2885l0.59712,-18.9006c0,0 -7.74742,2.90647 -11.06994,3.78773c-4.21753,1.11864 -12.19674,2.38344 -12.19674,2.38344c0,0 5.52433,-11.8626 7.41537,-20.88146c1.04169,-4.96813 1.69617,-14.0662 2.83821,-21.88713c1.06886,-7.31972 2.66139,-13.54452 2.66139,-13.54452c0,0 -5.82297,5.83803 -9.15144,9.47277c-4.08204,4.45763 -13.54466,15.3117 -13.54466,15.3117c0,0 1.38801,-34.7583 31.30179,-53.96207c7.42333,-4.76557 17.04242,-7.99903 28.62113,-10.38383c0.75725,-0.15597 -8.95338,-10.9415 -38.17369,-8.78318c-20.92138,1.54533 -41.11919,12.48854 -41.11919,12.48854c0,0 18.86132,-19.39183 41.85397,-21.74387c28.61315,-2.92698 44.79259,16.73274 45.39905,16.63286c1.39445,-0.22968 2.82556,-0.45515 4.29519,-0.6778c22.20155,-3.36356 36.88349,3.04516 47.24303,11.75332c11.73918,9.86788 17.8922,23.07783 22.49232,35.48585c1.84462,4.97555 3.84719,10.74643 6.28576,14.95981c3.10568,5.36599 6.48893,8.58918 6.48893,8.58918c0,0 -5.78356,-2.2617 -11.06673,-6.12905z" data-paper-data="{&quot;index&quot;:null}" fill="#603939" stroke="#603939"/><path d="M298.01663,55.5488c10.69704,45.19317 32.20393,53.58552 32.20393,53.58552l-33.21735,-8.34813l3.26799,23.75433l-24.88998,-17.5413l-6.96208,17.78757l-9.13387,-16.50634l-8.51905,18.17066l-7.23706,-19.20562l-13.20098,15.30398l-5.37859,-20.1094l-10.96433,10.2885l0.59712,-18.9006c0,0 -7.74741,2.90647 -11.06993,3.78773c-4.21753,1.11864 -12.19674,2.38344 -12.19674,2.38344c0,0 10.40764,-6.48087 17.71937,-18.33366c2.73352,-4.43121 9.05444,-14.53561 9.05444,-14.53561z" data-paper-data="{&quot;index&quot;:null}" fill="#302524" stroke="#302524"/></g><g stroke-linecap="butt"><path d="M329.44543,192.72202c8.17059,19.03379 -37.49776,24.83686 -37.49776,24.83686c0,0 -17.27349,13.97398 -19.75066,14.06328c-1.49145,0.05377 -15.99905,-5.8064 -15.99905,-5.8064l-12.75997,4.51252c0,0 -7.23325,-42.71294 3.74592,-69.47734c1.67841,-0.10391 14.9706,6.86372 14.9706,6.86372c0,0 7.075,-5.85938 7.95518,-5.77312c1.74455,0.17097 12.37544,9.46289 12.37544,9.46289c0,0 6.27952,0.01636 5.5029,-2.31346c-0.67734,-2.03201 -1.6981,-4.80432 -2.83128,-7.99676c1.51588,0.94855 2.99983,1.86173 4.40887,2.73108c5.9524,3.67251 15.53532,7.65098 21.46258,10.61872c4.47692,2.24158 5.04049,4.59758 9.47813,6.93956c1.9281,4.21322 7.52575,8.04596 8.93911,11.33843z" fill="#2a292e" stroke="none" stroke-width="0"/><path d="M287.0604,165.9656c-1.37052,-3.84647 -3.2748,-9.00882 -4.9695,-14.45669c1.83539,-0.30786 3.68268,-0.55174 5.54212,-0.73898c2.4679,-0.24853 6.63545,0.81837 10.51244,2.25099c-4.79976,3.15682 -8.56278,7.78445 -11.08506,12.94468z" fill="#a28b87" stroke="none" stroke-width="0"/><g><path d="" fill="#e1e2db" stroke="#3a2f41" stroke-width="2"/><path d="" fill="#e1e2db" stroke="#3a2f41" stroke-width="2"/><path d="M310.89425,159.23576c5.34793,11.95997 14.61624,23.83816 18.65993,33.25813c1.1234,2.617 1.02296,5.83419 1.02296,5.83419c0,0 -38.69744,-26.10518 -42.48037,-29.46524c-1.35266,-4.05797 -8.10054,-20.39783 -13.40539,-34.39842c1.53545,-0.46348 2.41347,-3.69006 3.77356,-4.27943c7.40677,-2.46892 11.01546,-3.65169 18.26126,-6.55933c2.08578,3.89191 4.16161,9.60359 6.59774,16.3036c0.9575,2.63338 1.95437,5.57186 3.02757,8.42457c1.34304,3.57001 2.88819,7.18179 4.54272,10.88192z" fill="#393840" stroke="none" stroke-width="0"/><path d="M295.29271,121.80471c0.58106,0.44368 1.5273,1.98062 1.5273,1.98062l-22.28325,10.35316c0,0 -6.40467,-17.6196 -6.51589,-20.3248c-0.95209,-7.30295 24.40762,5.80402 27.27184,7.99102z" fill="#2a292e" stroke="none" stroke-width="0"/><path d="" fill="#3d4d50" stroke="none" stroke-width="0"/></g><path d="M304.29141,142.69536c0,0 -4.34171,7.7716 -13.75845,8.08926c-0.16001,-0.0721 2.27052,-0.9813 5.27965,-3.34211c5.72568,-4.49208 6.94558,-9.06872 6.94558,-9.06872z" fill="#ad7e72" stroke="none" stroke-width="0"/><path d="M306.44496,148.61475c0,0 -3.86365,4.59374 -9.48671,7.52373c-7.25657,3.78115 -12.51655,2.79554 -12.51655,2.79554c0,0 12.71525,-2.29101 20.68908,-14.0235z" fill="#ad7e72" stroke="none" stroke-width="0"/><path d="M311.12926,213.38016c0,0 -5.55338,-4.3001 -9.24472,-10.73585c-4.76367,-8.30534 -5.10281,-14.08724 -5.10281,-14.08724c0,0 4.52231,14.3434 18.61621,23.11156z" data-paper-data="{&quot;index&quot;:null}" fill="#905e57" stroke="none" stroke-width="0"/><path d="M301.93195,215.74455c0,0 -4.26886,-1.81155 -9.95015,-9.57165c-7.33169,-10.0144 -8.54351,-25.43166 -8.54351,-25.43166c0,0 4.60958,21.82763 23.35981,33.68216z" data-paper-data="{&quot;index&quot;:null}" fill="#905e57" stroke="none" stroke-width="0"/></g><g stroke="none" stroke-width="0" stroke-linecap="butt"><path d="M263.17208,398.35533l-0.25246,-32.67719l34.04689,-1.85404l39.26142,61.86236z" data-paper-data="{&quot;index&quot;:null}" fill="#1a1a1a"/><path d="M263.07352,368.27415l-2.04394,-62.45387l27.2526,3.63368l8.62999,54.50519l17.32862,26.77011c0,0 -13.16258,1.37819 -21.01661,7.46328c-1.27802,0.99017 -30.15065,-29.91839 -30.15065,-29.91839z" fill="#a28b87"/><path d="M261.02957,305.82027l27.2526,3.63368l4.37511,27.63231l-30.91715,-7.3439z" fill="#1a1a1a"/><path d="M278.76871,394.39121c-0.76137,1.48171 -10.44294,-5.0891 -9.0842,-10.44683c3.11601,-12.28688 29.97786,-15.67024 29.97786,-15.67024l8.40288,12.26367c0,0 -21.57328,-1.17684 -29.29654,13.8534z" fill="#1a1a1a"/></g><g stroke="none" stroke-width="0" stroke-linecap="butt"><path d="M161.39721,411.14721l50.87151,-46.43149l38.15363,-2.04149l3.17947,35.23757z" fill="#1a1a1a"/><path d="M194.03384,393.48281l-7.49446,-5.22341l30.20496,-28.84233l4.45931,-53.42226c0,0 11.5067,3.10442 16.3883,4.42143c3.9428,1.06373 10.69101,2.88436 10.69101,2.88436l2.30004,53.61093c0,0 -4.89495,9.63995 -7.59066,10.66444c-10.80556,4.10661 -48.95848,15.90684 -48.95848,15.90684z" fill="#a28b87"/><path d="M221.20363,305.99479l27.07931,7.30579l0.5576,12.99697c-11.27168,-3.10022 -17.48492,-5.28317 -28.58432,-8.95268z" fill="#1a1a1a"/><path d="M219.69647,388.9407l-13.17209,-19.96459l9.99262,-9.55906l19.07682,23.61892z" fill="#1a1a1a"/></g><g><g stroke="none" stroke-width="0" stroke-linecap="round"><path d="M282.37744,173.87231c0,0 16.37163,79.79734 34.51995,127.63299c0.18573,0.48955 -18.02171,14.24302 -61.69446,14.42912c-47.42942,0.20211 -65.81653,-10.15127 -65.48432,-10.79544c27.49679,-53.31746 46.78362,-132.17509 46.78362,-132.17509z" fill="#1a1a1a"/><path d="M251.42628,203.85016l-18.52866,-17.13918l3.60463,-13.7471l45.8752,0.90842l2.4377,11.38194z" fill="#a28b87"/><path d="M314.01501,293.60708c0.95429,2.71214 1.91582,5.35051 2.88239,7.89821c0.18574,0.48955 -18.02171,14.24302 -61.69446,14.42912c-47.42942,0.20211 -65.81653,-10.15127 -65.48432,-10.79544c1.45097,-2.8135 2.87909,-5.69813 4.28272,-8.63853c0,0 23.07699,7.8239 62.02358,7.13469c39.64434,-0.70155 57.99008,-10.02806 57.99008,-10.02806z" fill="#a28b87"/></g><path d="M308.57043,277.76538c-8.91044,3.51623 -6.05614,21.49927 -6.05614,21.49927c0,0 -2.07393,-18.17004 -13.02068,-17.25998c-12.73452,1.05869 -16.35156,21.80208 -16.35156,21.80208c0,0 -3.51985,-19.21236 -16.65436,-18.62261c-14.02933,0.62993 -16.35156,19.22822 -16.35156,19.22822c0,0 -4.22993,-19.67428 -16.50296,-19.98524c-13.15367,-0.33327 -15.59454,17.86559 -15.59454,17.86559c0,0 2.7029,-16.43757 -6.66174,-22.10488" fill="none" stroke="#a28b87" stroke-width="2" stroke-linecap="round"/><path d="M209.85527,277.73495c0,-1.25426 1.01679,-2.27105 2.27105,-2.27105c1.25426,0 2.27105,1.01679 2.27105,2.27105c0,1.25426 -1.01679,2.27105 -2.27105,2.27105c-1.25426,0 -2.27105,-1.01679 -2.27105,-2.27105z" fill="#a28b87" stroke="none" stroke-width="0.5" stroke-linecap="butt"/><path d="M238.62188,280.15742c0,-1.25426 1.01679,-2.27105 2.27105,-2.27105c1.25426,0 2.27105,1.01679 2.27105,2.27105c0,1.25426 -1.01679,2.27105 -2.27105,2.27105c-1.25426,0 -2.27105,-1.01679 -2.27105,-2.27105z" fill="#a28b87" stroke="none" stroke-width="0.5" stroke-linecap="butt"/><path d="M270.41657,280.15742c0,-1.25426 1.01679,-2.27105 2.27105,-2.27105c1.25426,0 2.27105,1.01679 2.27105,2.27105c0,1.25426 -1.01679,2.27105 -2.27105,2.27105c-1.25426,0 -2.27105,-1.01679 -2.27105,-2.27105z" fill="#a28b87" stroke="none" stroke-width="0.5" stroke-linecap="butt"/><path d="M296.76075,275.91811c0,-1.25426 1.01679,-2.27105 2.27105,-2.27105c1.25426,0 2.27105,1.01679 2.27105,2.27105c0,1.25426 -1.01679,2.27105 -2.27105,2.27105c-1.25426,0 -2.27105,-1.01679 -2.27105,-2.27105z" fill="#a28b87" stroke="none" stroke-width="0.5" stroke-linecap="butt"/></g><g data-paper-data="{&quot;index&quot;:null}" stroke="none"><g stroke-width="0"><path d="M237.35337,173.10337l-2.26594,-11.37571c0,0 -13.35639,-9.59437 -15.92122,-16.05475c-0.50475,-1.27141 13.1275,-27.78245 13.1275,-27.78245c0,0 4.58062,-3.59818 7.09591,-4.92477c6.67466,-3.52026 14.27512,-4.85312 21.6081,-4.96486c9.20247,-0.14026 24.44865,8.82999 26.04883,13.03285c3.91624,10.28605 -3.1952,35.26649 -3.1952,35.26649l-1.6429,17.54487l-28.97625,17.50889z" fill="#393840" stroke-linecap="round"/><path d="M288.25977,127.66909c-0.15444,0.99001 -61.96944,26.76494 -61.96944,26.76494l-7.92807,-8.4642l13.16113,-27.84963c0,0 4.97423,-4.49777 11.63333,-7.152c6.5952,-2.62877 14.85432,-3.41435 19.27417,-3.38628c8.09612,0.05142 23.52285,9.60064 24.84355,13.7662c0.80569,2.5412 0.70991,3.65284 0.98533,6.32098z" fill="#2a292e" stroke-linecap="butt"/></g><g fill="#7e6c69" stroke-width="0" stroke-linecap="butt"><path d="M257.617,115.41838l-15.88105,8.10732l0.52518,-14.99016l17.89432,-6.81692l15.68913,7.97545l-4.45923,15.11398z"/></g><path d="M253.5466,123.32536c2.19497,0 3.97434,1.72853 3.97434,3.86078c0,2.13225 -1.77937,3.86078 -3.97434,3.86078c-2.19497,0 -3.97434,-1.72853 -3.97434,-3.86078c0,-2.13225 1.77937,-3.86078 3.97434,-3.86078z" fill="#7e6c69" stroke-width="2" stroke-linecap="butt"/><path d="M251.50265,135.51333c2.19497,0 3.97434,1.72853 3.97434,3.86078c0,2.13225 -1.77937,3.86078 -3.97434,3.86078c-2.19497,0 -3.97434,-1.72853 -3.97434,-3.86078c0,-2.13225 1.77937,-3.86078 3.97434,-3.86078z" fill="#7e6c69" stroke-width="2" stroke-linecap="butt"/></g><g stroke-linecap="butt"><path d="M252.36278,107.65804l0.12785,-14.22346l11.58235,-0.45421l-0.38932,15.76757l-6.3265,3.17947z" fill="#905e57" stroke="none" stroke-width="0"/><path d="M252.40348,106.98567v-9.75037l12.11226,-6.90399l-0.90842,14.23191z" fill="#1a1a1a" stroke="#1a1a1a" stroke-width="0.5"/></g><g stroke-linecap="butt"><g><g data-paper-data="{&quot;index&quot;:null}" stroke="none" stroke-width="0"><path d="M214.2594,64.86654c-0.38976,-17.01987 11.1071,-37.3566 32.7683,-38.47036c32.92948,-1.69318 45.37099,19.6522 45.76074,36.67205c0.21676,9.4656 0.11861,18.44657 -1.85289,20.45659c-6.60417,5.08384 -38.75727,15.13572 -38.75727,15.13572c0,0 -32.71493,-8.39569 -36.22288,-12.58687c-2.21242,-2.64333 -1.49837,-12.57676 -1.69601,-21.20712z" fill="#ad7e72"/><path d="M214.16856,64.86654c-0.38976,-17.01987 11.1071,-37.3566 32.7683,-38.47036c20.74457,-1.06665 33.96387,7.42805 40.55581,18.33993c3.87196,6.4094 5.06072,13.8511 5.20494,20.14895c0.31523,13.76552 1.25641,8.12641 -15.56926,6.60006c-21.84114,-1.98133 -62.83348,-2.63315 -62.83348,-2.63315c0,0 -0.09211,-2.4923 -0.12631,-3.98543z" fill="#905e57"/></g><path d="M293.56615,83.60472l0.82265,-19.19476l5.23349,-7.75503l9.68981,8.47858l-6.35894,16.35156z" fill="#ad7e72" stroke="none" stroke-width="0"/><path d="M299.74014,59.93637c-4.39614,5.15247 -24.36777,1.3167 -36.39021,-8.94097c-12.02243,-10.25767 -11.54301,-23.05286 -7.14687,-28.20533c4.39614,-5.15247 17.70603,-1.01389 29.72846,9.24378c12.02243,10.25767 18.20475,22.75006 13.80861,27.90252z" fill="#603939" stroke="#603939" stroke-width="0.5"/><path d="M235.26112,48.17638c-6.84566,-12.46262 -5.60555,-24.22453 -5.60555,-24.22453c0,0 26.9716,-12.77173 26.53296,-10.59823c-6.9989,34.67997 10.09001,52.38555 10.09001,52.38555c0,0 -21.18212,-2.98052 -31.01741,-17.56278z" data-paper-data="{&quot;index&quot;:null}" fill="#603939" stroke="#603939" stroke-width="0.5"/><path d="M206.37447,56.6055c-3.61637,-5.15247 1.46935,-17.64486 11.3593,-27.90252c9.88995,-10.25767 20.83898,-14.39625 24.45535,-9.24378c3.61637,5.15247 4.01076,17.94767 -5.87918,28.20534c-9.88996,10.25767 -26.3191,14.09344 -29.93548,8.94097z" data-paper-data="{&quot;index&quot;:null}" fill="#603939" stroke="#603939" stroke-width="0.5"/><path d="M283.13307,58.07663c0,0 -6.29219,-1.61122 -12.82709,-5.84515c-6.83749,-4.42998 -11.33842,-11.08454 -11.33842,-11.08454c0,0 5.92922,5.74346 12.18611,9.68142c6.59528,4.15094 11.97941,7.24827 11.97941,7.24827z" fill="#905e57" stroke="none" stroke-width="0"/><path d="M286.45018,79.92297c0,4.6826 -3.796,8.47858 -8.47858,8.47858c-4.6826,0 -8.47858,-3.796 -8.47858,-8.47858c0,-4.6826 3.796,-8.47858 8.47858,-8.47858c4.6826,0 8.47858,3.796 8.47858,8.47858z" fill="#ac6b66" stroke="none" stroke-width="0"/><path d="M280.54545,98.44226c0,0 4.14906,-36.01614 0,-50.87151c-5.34056,-19.12147 21.59965,-7.58587 22.40769,-0.3028c1.04798,9.44578 -4.85311,32.67558 -5.87128,35.43631c-2.34331,6.35381 -16.53641,15.738 -16.53641,15.738z" fill="#603939" stroke="#603939" stroke-width="0.5"/></g><path d="M230.77981,78.62448c0,4.38993 -3.55874,7.94867 -7.94867,7.94867c-4.38993,0 -7.94867,-3.55874 -7.94867,-7.94867c0,-4.38993 3.55874,-7.94867 7.94867,-7.94867c4.38993,0 7.94867,3.55874 7.94867,7.94867z" fill="#ac6b66" stroke="none" stroke-width="0"/></g><g data-paper-data="{&quot;index&quot;:null}" fill="none" stroke="#aa938d" stroke-width="2.5" stroke-linecap="round"><path d="M218.03171,18.32088c1.72736,-0.05516 7.10442,2.50759 7.10442,2.50759c0,0 7.19992,-11.54801 13.49474,-16.9641c2.56553,-2.20738 5.24714,1.28801 5.4048,1.70049c0.40024,1.04718 1.65089,5.67771 -3.58299,5.78974c-0.97747,0.0209 0.92055,0.10199 2.34078,-1.12833c0.55078,-0.47714 1.00266,-1.35376 1.22745,-2.206c0.50161,-1.9018 -2.10405,-4.5331 -3.68359,-4.16911c-3.07924,0.70958 -4.92256,5.39864 -4.31705,8.52482c0.60552,3.12618 6.22421,4.78279 6.22421,4.78279l11.23032,-2.06977c0,0 -7.38938,-11.68679 -8.17786,-16.22409c-0.78051,-4.49145 10.41472,-19.55138 10.41472,-19.55138c0,0 10.93114,16.53588 10.89107,19.74496c-0.04367,3.49566 -11.07006,15.91761 -11.07006,15.91761c0,0 3.493,1.74824 7.13948,2.13381c3.2719,0.34596 6.62756,0.87841 8.12343,-0.30779c1.68774,-1.33834 6.04071,-8.1619 2.61061,-11.64734c-2.58376,-2.62548 -8.76334,1.58521 -8.07864,3.9785c0.41712,1.45795 0.95297,2.66703 3.92955,1.22819c1.35395,-0.65448 -2.9611,1.27579 -3.09796,-1.49589c-0.22483,-4.5536 6.81681,-5.46791 8.42184,-4.24648c4.96802,3.78067 10.96902,17.48149 10.96902,17.48149c0,0 10.38046,-2.78096 12.02358,-1.20002c3.46324,3.33221 9.86292,13.00813 9.86292,13.00813c0,0 -9.36542,-7.96646 -25.57781,-12.84014c-18.92423,-5.68888 -48.08321,-7.19774 -76.26953,8.60249z"/><path d="M287.13208,17.03175c0,0 -1.26789,-0.53416 -1.59107,-2.38492c-0.24139,-1.38238 0.09517,-2.93573 1.39892,-3.17043c3.88848,-0.69997 7.58392,9.68019 1.17758,9.75926"/><path d="M222.01216,19.30474c-5.26485,-0.73858 -2.81904,-10.56911 1.07391,-10.0506c1.30525,0.17385 1.65317,1.71126 1.42197,3.10466c-0.30953,1.86553 -1.5733,2.45869 -1.5733,2.45869" data-paper-data="{&quot;index&quot;:null}"/><path d="M253.74016,14.09193c0,0 -1.88325,-7.30463 -2.65472,-11.93828c-0.51484,-3.09215 3.81458,-11.01583 3.81458,-11.01583c0,0 3.65718,9.30491 3.54048,11.3087c-0.23425,4.02232 -4.70036,11.64542 -4.70036,11.64542z"/></g><g data-paper-data="{&quot;index&quot;:null}"><path d="M259.58165,99.74967c14.40589,6.71026 18.8126,25.57767 14.1438,35.71385c-3.62492,7.86988 -13.80316,8.13117 -22.10082,8.34405c-29.96447,0.76879 -18.29578,-33.71589 5.98114,-43.32226" fill="none" stroke="#1a1a1a" stroke-width="2" stroke-linecap="round"/><g><g><path d="M231.48302,167.38903l17.94131,-24.55803l13.7317,26.15398z" fill="#c53939" stroke="none" stroke-width="0" stroke-linecap="butt"/><path d="M249.22858,168.77149l8.04996,-11.48554l5.87595,11.79997z" fill-opacity="0.77419" fill="#6b1a1e" stroke="none" stroke-width="0" stroke-linecap="butt"/><path d="M231.08242,167.18101l18.28923,-24.86513l4.14977,7.72287l-7.84372,-0.08869l-9.81938,15.18427l11.37962,1.78961l-4.75424,0.63376z" fill-opacity="0.43548" fill="#ffffff" stroke="none" stroke-width="0" stroke-linecap="butt"/><path d="M249.41928,142.33882l13.90212,26.56038" fill="none" stroke="#1a1a1a" stroke-width="2" stroke-linecap="round"/><path d="M231.2965,166.99078l18.12277,-24.65196" fill="none" stroke="#1a1a1a" stroke-width="2" stroke-linecap="round"/><path d="M231.0937,167.2695l32.00062,1.62623" fill="none" stroke="#1a1a1a" stroke-width="2" stroke-linecap="round"/></g><path d="M254.34796,149.1025l-10.91436,-0.44977" fill="none" stroke="#1a1a1a" stroke-width="2" stroke-linecap="round"/><path d="M243.67568,146.03182l10.91436,0.44977" fill="none" stroke="#1a1a1a" stroke-width="2" stroke-linecap="round"/></g></g><path d="M283.67519,139.86162c0,0 5.78292,-7.36983 8.43532,-9.99262c3.62889,-3.58837 -7.32781,10.44213 -7.32781,10.44213l-0.7182,17.32956c0,0 -0.76007,2.39279 -0.82971,-0.0098c-0.09525,-3.28592 0.44038,-17.76927 0.44038,-17.76927z" fill="#2a292e" stroke="none" stroke-width="0" stroke-linecap="butt"/><g data-paper-data="{&quot;index&quot;:null}"><path d="M258.33761,78.05699c-2.51908,-1.07362 -5.65342,-3.58496 -5.65342,-3.58496l32.0952,-4.41998c0,0 -0.46466,2.22785 -5.35077,5.16575c-1.1692,0.70301 -5.2178,2.48795 -9.65432,3.17637c-4.73001,0.73397 -9.87105,0.33008 -11.43669,-0.33716z" fill="#f1f1f1" stroke="none" stroke-width="0" stroke-linecap="butt"/><path d="M284.58408,69.82117l-32.07054,4.4844" fill="none" stroke="#1a1a1a" stroke-width="1" stroke-linecap="round"/><path d="M258.11341,77.91047c0,0 5.31449,1.36287 11.91068,0.17567c6.2206,-1.11959 10.79675,-3.57166 10.79675,-3.57166c0,0 -2.90481,2.68895 -10.79332,4.27888c-7.33483,1.47834 -11.9141,-0.88288 -11.9141,-0.88288z" fill="#1a1a1a" stroke="#000000" stroke-width="0" stroke-linecap="round"/></g><path d="M271.91956,73.62891l-0.04694,-2.09089l0.05944,1.95026" data-paper-data="{&quot;index&quot;:null}" fill="none" stroke="#1a1a1a" stroke-width="2" stroke-linecap="round"/><path d="M237.94078,93.52254c2.21844,-0.29487 5.54136,1.18095 5.54136,1.18095" fill="none" stroke="#1a1a1a" stroke-width="1" stroke-linecap="round"/><path d="M258.0461,33.96158c8.00055,-3.37302 18.89513,17.98671 18.89513,17.98671" fill="none" stroke="#1a1a1a" stroke-width="1" stroke-linecap="round"/><g fill="#1a1a1a" stroke="none" stroke-width="0" stroke-linecap="butt"><path d="M291.23996,70.31242l0.17405,-24.98155l12.01004,14.53472z"/><path d="M302.90189,59.86559l12.01004,-14.53472l0.17406,24.98155z" data-paper-data="{&quot;index&quot;:null}"/></g></g></g></svg>