<svg xmlns="http://www.w3.org/2000/svg" xmlns:xlink="http://www.w3.org/1999/xlink" version="1.1" width="189.70969993684733" height="109.70969993684731" viewBox="-0.8548499684236591 -0.8548499684236591 189.70969993684733 109.70969993684731">
  <!-- Exported by Scratch - http://scratch.mit.edu/ -->
  <path id="ID0.9129331279546022" fill="#003FFF" stroke="none" d="M 0 0 L 188 0 L 188 108 L 0 108 L 0 0 Z " stroke-width="1"/>
  <path id="ID0.6980754300020635" fill="none" stroke="#FFFFFF" stroke-width="1.7096999368473182" stroke-linecap="round" d="M 5.7103 11.5 C 5.7103 11.5 9.7777 10.631 11.8246 10.5 C 12.4007 10.463 13.0074 10.62 13.523 11 C 13.9524 11.316 14.1012 12.222 14.5421 12.5 C 14.9578 12.762 14.7411 12.5 15.9008 12.5 C 20.5388 12.5 25.1898 12.5 29.8278 12.5 C 30.9875 12.5 31.6675 12.823 32.5452 12.5 C 33.0942 12.298 33.353 11.187 33.904 11 C 34.8958 10.663 35.9427 11 36.9611 11 C 38.8844 11 40.8124 11 42.7357 11 C 43.6406 11 44.5503 11.095 45.4532 11 C 46.1393 10.928 46.8384 10.82 47.4913 10.5 C 48.2114 10.147 48.797 9.294 49.5294 9 C 50.0749 8.781 50.6646 8.925 51.2278 9 C 51.9133 9.092 52.5892 9.319 53.2659 9.5 C 53.8331 9.652 54.4011 9.816 54.9643 10 C 55.4195 10.149 55.8577 10.462 56.323 10.5 C 57.9039 10.629 59.497 10.616 61.0786 10.5 C 61.7661 10.449 62.4326 10.106 63.1167 10 C 64.5834 9.773 66.0604 9.373 67.5325 9.5 C 68.0373 9.544 68.4246 10.214 68.8913 10.5 C 69.7833 11.047 70.6461 11.871 71.6087 12 C 74.4247 12.377 77.2774 12.231 80.1008 12 C 81.3637 11.897 82.5825 11.231 83.8373 11 C 84.3985 10.897 84.9718 11.069 85.5357 11 C 86.3326 10.902 87.1166 10.598 87.9135 10.5 C 88.4774 10.431 89.0487 10.575 89.6119 10.5 C 90.2974 10.408 90.9632 10.059 91.65 10 C 92.8919 9.892 94.1453 10.122 95.3865 10 C 95.8519 9.954 96.2806 9.553 96.7452 9.5 C 97.7602 9.385 98.7901 9.343 99.8024 9.5 C 100.9498 9.678 102.0898 10.034 103.1992 10.5 C 103.6856 10.705 104.0844 11.239 104.5579 11.5 C 104.9948 11.741 105.4798 11.759 105.9167 12 C 106.3902 12.261 106.8019 12.739 107.2754 13 C 107.7122 13.241 108.1858 13.311 108.6341 13.5 C 108.9779 13.645 109.6532 14 109.6532 14 "/>
  <path id="ID0.3936794251203537" fill="none" stroke="#FFFFFF" stroke-width="1.7096999368473182" stroke-linecap="round" d="M 5.3706 25 C 5.3706 25 31.8767 27.079 45.1135 28 C 48.4227 28.23 47.3792 28 48.5103 28 C 51.3378 28 54.236 28.864 57.0024 28 C 58.1784 27.633 58.656 25.324 59.7198 24.5 C 60.8612 23.616 62.1683 23.1 63.4564 23 C 66.5081 22.764 69.572 23.418 72.6278 23.5 C 75.7943 23.585 78.9717 23.5 82.1389 23.5 C 83.1566 23.5 84.1899 23.272 85.196 23.5 C 85.696 23.613 86.0751 24.265 86.5548 24.5 C 87.44 24.934 89.2722 25.5 89.2722 25.5 "/>
  <path id="ID0.18557798396795988" fill="none" stroke="#FFFFFF" stroke-width="1.7096999368473182" stroke-linecap="round" d="M 4.0119 40.5 C 4.0119 40.5 12.6256 47.672 16.5802 52 C 17.5686 53.082 17.0537 53.991 17.2595 55 C 17.3934 55.658 17.2262 56.588 17.5992 57 C 18.2582 57.727 19.1726 58.257 19.977 58 C 21.9071 57.382 23.6673 55.864 25.4119 54.5 C 27.2965 53.026 29.1803 51.462 30.8468 49.5 C 31.4841 48.75 31.5914 47.291 32.2056 46.5 C 32.5568 46.048 33.2131 45.548 33.5643 46 C 34.3259 46.981 34.3795 48.744 34.923 50 C 35.1805 50.596 35.5514 51.089 35.9421 51.5 C 36.3538 51.933 36.8069 52.338 37.3008 52.5 C 37.8531 52.681 38.4333 52.5 38.9992 52.5 C 39.4517 52.5 39.9089 52.583 40.3579 52.5 C 40.8206 52.415 41.3091 52.333 41.7167 52 C 42.3498 51.482 42.7534 50.433 43.4151 50 C 43.8288 49.73 44.3214 50 44.7738 50 C 45.3397 50 45.9063 50 46.4722 50 C 46.9247 50 47.3921 49.838 47.831 50 C 49.2189 50.511 50.5043 51.587 51.9071 52 C 52.7944 52.261 53.7503 52.343 54.6246 52 C 55.5057 51.654 56.2904 50.839 57.0024 50 C 57.444 49.48 57.6213 48.589 58.0214 48 C 58.4216 47.411 58.8856 46.904 59.3802 46.5 C 59.9128 46.065 60.4814 45.676 61.0786 45.5 C 61.6329 45.337 62.2281 45.298 62.777 45.5 C 63.6126 45.808 64.3986 46.393 65.1548 47 C 65.6514 47.399 66.0427 48.038 66.5135 48.5 C 67.0624 49.039 67.5801 49.721 68.2119 50 C 68.7534 50.239 69.3444 50 69.9103 50 C 70.3628 50 70.8533 50.262 71.2691 50 C 72.4817 49.235 73.4451 47.735 74.6659 47 C 75.9607 46.22 77.3602 45.825 78.7421 45.5 C 80.1986 45.157 81.6946 45.269 83.1579 45 C 84.4127 44.769 85.6499 44.333 86.8944 44 C 87.2056 43.917 86.8944 44 86.8944 44 "/>
  <path id="ID0.4253271287307143" fill="none" stroke="#FFFFFF" stroke-width="1.7096999368473182" stroke-linecap="round" d="M 6.3897 76.5 C 6.3897 76.5 12.771 76.287 15.9008 75.5 C 17.4538 75.11 18.8017 73.637 20.3167 73 C 21.1937 72.631 22.1326 72.296 23.0341 72.5 C 23.6863 72.648 24.1578 73.524 24.7325 74 C 25.9676 75.023 27.0628 76.741 28.4691 77 C 33.5208 77.93 38.6636 77.5 43.7548 77.5 C 45.0279 77.5 44.6475 77 45.1135 77 C 45.9131 77 46.7324 77.128 47.4913 77.5 C 48.4512 77.971 49.1095 79.362 50.2087 79.5 C 54.6042 80.051 59.0459 79.63 63.4564 79.5 C 64.7057 79.463 65.9442 79.053 67.1929 79 C 69.9062 78.886 75.3452 79 75.3452 79 "/>
  <path id="ID0.6795461629517376" fill="none" stroke="#FFFFFF" stroke-width="1.7096999368473182" stroke-linecap="round" d="M 12.504 92.5 C 12.504 92.5 28.8094 94.95 36.9611 96 C 38.9992 96.262 38.775 95.926 39.6786 96 C 40.8138 96.093 41.9769 96.069 43.0754 96.5 C 43.7126 96.75 44.1617 97.639 44.7738 98 C 45.3092 98.315 45.8221 98.466 46.4722 98.5 C 49.0722 98.637 51.6836 98.5 54.2849 98.5 C 55.3033 98.5 57.3421 98.5 57.3421 98.5 "/>
</svg>