<svg version="1.1" xmlns="http://www.w3.org/2000/svg" xmlns:xlink="http://www.w3.org/1999/xlink" width="365.70063" height="351.1497" viewBox="0,0,365.70063,351.1497"><defs><radialGradient cx="48.37279" cy="130.62169" r="62.07209" gradientUnits="userSpaceOnUse" id="color-1"><stop offset="0" stop-color="#b8c1c0"/><stop offset="1" stop-color="#b8c1c0" stop-opacity="0"/></radialGradient><linearGradient x1="-19.67915" y1="73.07338" x2="25.97976" y2="73.07338" gradientUnits="userSpaceOnUse" id="color-2"><stop offset="0" stop-color="#e5e5e5"/><stop offset="1" stop-color="#e5e5e5" stop-opacity="0"/></linearGradient><linearGradient x1="22.15076" y1="93.87128" x2="49.32955" y2="93.87128" gradientUnits="userSpaceOnUse" id="color-3"><stop offset="0" stop-color="#e5e5e5"/><stop offset="1" stop-color="#e5e5e5" stop-opacity="0"/></linearGradient></defs><g transform="translate(22.2363,-51.54894)"><g data-paper-data="{&quot;isPaintingLayer&quot;:true}" fill-rule="nonzero" stroke-miterlimit="10" stroke-dasharray="" stroke-dashoffset="0" style="mix-blend-mode: normal"><path d="M274.49879,192.43806c2.14344,46.70435 45.94539,81.60993 45.19316,81.796c-3.30369,1.68286 -37.64053,-21.14549 -53.56957,-42.50436c-6.44661,-8.64409 -38.54229,-29.35643 -46.30405,-45.45907c-6.35055,-13.17491 9.75544,-22.47908 17.9497,-26.12716c7.67305,-3.41603 35.57996,7.21902 36.73078,32.29459z" data-paper-data="{&quot;index&quot;:null}" fill="#3a2f41" stroke="#3a2f41" stroke-width="1.5" stroke-linecap="butt" stroke-linejoin="miter"/><path d="M265.39207,151.93479c-0.84274,12.01509 -19.40959,16.60732 -37.68282,16.15702c-1.51409,-0.03731 -1.86455,-23.96166 -3.34512,-24.06551c-4.02208,-0.28211 -9.21316,23.01294 -13.07901,22.18908c-14.73171,-3.1395 -26.95855,-10.13975 -26.23568,-20.44588c1.04412,-14.88632 16.01241,-26.65139 28.49475,-32.70917c7.00015,-3.39723 14.99352,-4.5465 14.99352,-4.5465c0,0 6.48568,1.93351 11.93828,5.45553c11.29816,7.29788 26.06887,21.18157 24.94726,37.17251z" fill="#3a2f41" stroke="#3a2f41" stroke-width="2" stroke-linecap="butt" stroke-linejoin="miter"/><path d="M220.76477,126.48185c2.53692,5.80655 -15.28931,18.14668 -29.68472,24.43614c-14.39542,6.28947 -32.37331,-5.37785 -33.02312,-11.69856c-0.31943,-0.46698 19.93013,2.6212 34.62845,-11.68229c14.69832,-14.30348 25.54246,-6.86185 28.07939,-1.05531z" fill="#3a2f41" stroke="#3a2f41" stroke-width="1.5" stroke-linecap="butt" stroke-linejoin="miter"/><path d="M222.92695,127.05418c13.5968,13.77678 -7.08897,25.2287 -23.19826,35.96012c-21.8926,14.58403 -55.95654,10.24011 -59.34904,3.3247c-0.61398,-0.42979 31.99747,-8.02701 45.69588,-29.05855c13.69842,-21.03153 31.12204,-16.0315 36.85144,-10.22627z" fill="#3a2f41" stroke="#3a2f41" stroke-width="1.5" stroke-linecap="butt" stroke-linejoin="miter"/><path d="M260.54031,131.23367c12.55774,16.21522 33.04013,15.98397 32.65864,16.4018c-1.52577,6.16812 -20.95631,15.21161 -34.33282,6.97422c-13.3765,-8.23737 -29.3056,-22.9451 -25.98296,-28.34066c3.32264,-5.39556 15.0994,-11.25057 27.65715,4.96466z" data-paper-data="{&quot;index&quot;:null}" fill="#3a2f41" stroke="#3a2f41" stroke-width="1.5" stroke-linecap="butt" stroke-linejoin="miter"/><path d="M266.25906,141.34044c10.62844,22.73783 41.86007,34.813 41.1921,35.15287c-4.32464,6.37412 -38.66145,5.92043 -58.30385,-11.57688c-14.45354,-12.8751 -33.33817,-27.10247 -17.95134,-38.84634c6.48366,-4.94862 24.43468,-7.46748 35.06312,15.27034z" data-paper-data="{&quot;index&quot;:null}" fill="#3a2f41" stroke="#3a2f41" stroke-width="1.5" stroke-linecap="butt" stroke-linejoin="miter"/><path d="M226.15504,142.27471c6.11856,6.19957 17.39488,20.38262 7.02922,30.55931c-12.66909,12.43815 -48.93538,20.9239 -57.79548,26.82617c-21.8926,14.58403 -60.92663,24.28931 -63.31894,21.5913c-0.61398,-0.42979 51.21283,-18.22584 69.56229,-61.22255c9.85183,-23.08492 38.7935,-23.55948 44.52289,-17.75424z" fill="#3a2f41" stroke="#3a2f41" stroke-width="1.5" stroke-linecap="butt" stroke-linejoin="miter"/><path d="M267.71155,163.91001c12.16777,45.13718 61.00294,69.99364 60.33496,70.33352c-2.74551,2.33765 -50.09444,-2.64381 -71.78249,-21.72228c-7.94943,-7.08129 -30.57859,-29.04296 -41.38736,-43.12785c-8.84356,-11.52402 4.3022,-23.99413 11.22629,-29.27888c6.48366,-4.94862 35.07572,-0.43865 41.6086,23.7955z" data-paper-data="{&quot;index&quot;:null}" fill="#3a2f41" stroke="#3a2f41" stroke-width="1.5" stroke-linecap="butt" stroke-linejoin="miter"/><path d="M217.24266,155.518c7.03196,4.87629 20.43396,16.41865 11.83812,27.32259c-10.50601,13.327 -31.84076,42.98846 -39.63666,49.71715c-35.33577,23.88278 -73.32262,10.19684 -76.11602,8.03628c-0.6748,-0.31109 25.25726,-12.93296 35.95913,-37.90538c33.869,-20.16656 61.37075,-51.73675 67.95544,-47.17062z" data-paper-data="{&quot;index&quot;:null}" fill="#3a2f41" stroke="#3a2f41" stroke-width="1.5" stroke-linecap="butt" stroke-linejoin="miter"/><path d="M280.51788,220.80443c5.06567,62.16654 63.14329,106.57633 62.18472,106.861c-4.16714,2.40438 -36.14258,-5.70816 -57.69133,-33.41137c-8.72094,-11.21171 -64.36487,-57.92185 -75.1464,-79.01406c-8.82127,-17.25729 11.43982,-30.44559 21.80173,-35.70797c9.70282,-4.92765 46.13154,7.89519 48.85131,41.27241z" data-paper-data="{&quot;index&quot;:null}" fill="#3a2f41" stroke="#3a2f41" stroke-width="1.5" stroke-linecap="butt" stroke-linejoin="miter"/><path d="M173.24959,301.69577c-1.52098,0.19491 -7.24795,-3.86098 -8.72818,-3.2014c-25.82666,11.50817 -61.48844,22.09916 -61.59636,21.40641c33.69027,-36.33572 24.2657,-56.28072 50.93834,-82.3755c8.60652,-5.65502 46.41454,-46.56322 62.10932,-53.01759c12.84121,-5.28086 19.80875,48.11746 22.57272,56.21606c2.58815,7.58347 -36.62442,33.92115 -65.29582,60.97202zM128.12777,289.5469c0.20764,0.01456 4.10511,-3.9936 8.05392,-11.34856c2.99221,-5.57323 5.65762,-13.80735 8.81462,-19.42566c4.56727,-8.1281 8.66278,-13.81153 8.67874,-14.03916c0,0 -5.80231,4.4832 -11.02557,12.81921c-3.28526,5.24308 -5.46002,12.01367 -8.14491,18.23346c-3.16562,7.33343 -6.56218,13.74771 -6.37681,13.76071z" data-paper-data="{&quot;index&quot;:null}" fill="#3a2f41" stroke="#3a2f41" stroke-width="1.5" stroke-linecap="butt" stroke-linejoin="miter"/><path d="M297.82291,300.54096c5.17446,33.73764 -21.19513,79.0654 -25.1463,82.26336c-4.3613,3.52989 -1.93931,-41.05413 -31.91255,-70.75704c-23.97886,-23.76258 -9.6119,-68.4576 3.69278,-70.62225c13.30468,-2.16465 48.19163,25.37829 53.36607,59.11594zM281.80375,363.56545c5.05875,-9.46943 14.87551,-43.52516 13.32983,-56.81244c0,0 -2.05904,12.59159 -5.23002,26.01938c-3.54995,15.03262 -8.24767,31.06981 -8.09981,30.79305z" fill="#3a2f41" stroke="#3a2f41" stroke-width="1.5" stroke-linecap="butt" stroke-linejoin="miter"/><path d="M258.21378,335.229c-16.00728,35.11591 -68.29017,66.0753 -74.63924,66.71156c-7.00807,0.7023 13.02433,-44.46949 -0.53274,-90.79289c-10.84577,-37.05911 39.1689,-70.3148 55.03033,-64.30193c15.86142,6.01288 36.14893,53.26733 20.14165,88.38326z" fill="#3a2f41" stroke="#3a2f41" stroke-width="1.5" stroke-linecap="butt" stroke-linejoin="miter"/><path d="M207.60231,318.73128c-21.79876,30.76342 -70.7071,54.43308 -76.54141,53.66831c-1.48274,0.2224 21.57557,-43.77553 19.20472,-91.92347c-1.8967,-38.51876 44.98525,-61.68694 57.95238,-52.36005c12.96713,9.32689 21.18307,59.8518 -0.61568,90.61522z" fill="#3a2f41" stroke="#3a2f41" stroke-width="1.5" stroke-linecap="butt" stroke-linejoin="miter"/><path d="M190.05601,113.46903c2.30058,-8.30663 6.22081,-18.48253 10.22261,-27.95811c1.40344,-0.09295 3.67184,-0.24318 4.92121,-0.32592l-0.10662,-1.60992c-0.88094,0.05834 -3.31216,0.21935 -4.19309,0.2777c0.14133,-0.32991 0.60483,-1.21904 0.74598,-1.54661c1.18047,-0.07818 2.50988,-0.16624 3.49744,-0.23165l-0.10663,-1.60992c-0.58878,0.03898 -1.89308,0.12538 -2.48184,0.16437c5.85469,-13.41106 19.24778,-32.99095 18.7257,-28.04793c-0.52207,4.943 -1.11285,72.07708 -1.11285,72.07708c0,0 -35.25611,22.75498 -36.53123,11.44692z" data-paper-data="{&quot;index&quot;:null}" fill="#3a2f41" stroke="#3a2f41" stroke-width="0.5" stroke-linecap="butt" stroke-linejoin="miter"/><path d="M266.87219,145.00978c-3.9538,10.67078 -32.71253,-19.88603 -32.71253,-19.88603c0,0 15.55099,-65.31079 16.23142,-70.23451c0.68043,-4.92373 14.88611,37.64688 15.68648,66.60529z" data-paper-data="{&quot;index&quot;:null}" fill="#3a2f41" stroke="#3a2f41" stroke-width="0.5" stroke-linecap="butt" stroke-linejoin="miter"/><path d="M245.79193,201.44849c-1.57957,7.09187 -8.39548,18.17712 -8.39548,18.17712l-32.21963,-2.77675c0,0 -9.23179,-17.72577 -5.75884,-30.25148c1.36335,-4.91713 13.98255,-10.83066 20.07561,-10.37436c3.78323,0.28331 10.57327,-0.14742 16.18673,2.2072c0,0 8.25814,3.86897 10.09273,7.96559c2.86466,6.39678 0.01887,15.05268 0.01887,15.05268z" fill="#3a2f41" stroke="#8c9ca0" stroke-width="2" stroke-linecap="round" stroke-linejoin="miter"/><g data-paper-data="{&quot;index&quot;:null}" stroke-linejoin="miter"><g stroke-linecap="butt"><path d="M129.91107,178.8215c0.23666,-1.85467 7.43442,-4.66847 7.43442,-4.66847l42.6041,9.13591l-1.57123,14.75203l-47.88423,-9.91939z" data-paper-data="{&quot;index&quot;:null}" fill="#e1e2db" stroke="none" stroke-width="0"/><path d="M171.85633,181.34521c2.87361,0.48576 8.17768,1.54198 8.17768,1.54198l-1.88321,15.31956l-8.96124,-1.82487c0,0 -3.10534,-5.05506 -2.51415,-8.38849c0.59118,-3.33342 5.18092,-6.6482 5.18092,-6.6482z" data-paper-data="{&quot;index&quot;:null}" fill="#8c9ca0" stroke="none" stroke-width="0"/><path d="M131.07244,188.1948c0,0 -0.96411,-7.16911 -0.69839,-9.2516c0.29763,-2.33247 4.1045,-5.635 4.1045,-5.635l45.19576,9.80167l-1.57123,14.75203z" data-paper-data="{&quot;index&quot;:null}" fill="none" stroke="#3a2f41" stroke-width="2.5"/></g><g stroke="#8c9ca0" stroke-width="2" stroke-linecap="round"><path d="M217.35762,195.23329c0,0 -5.12423,8.55284 -14.23567,8.49204c-10.98105,-0.07328 -26.51202,-3.11453 -26.51202,-3.11453c0,0 -4.65143,-5.14489 -2.87404,-12.70029c1.77739,-7.5554 8.45455,-11.26423 8.45455,-11.26423l21.05755,5.68149" fill="#3a2f41"/><path d="M181.87695,200.93096c0,0 -3.85223,-4.99433 -2.16814,-12.06957c1.62194,-6.81415 7.95324,-10.20807 7.95324,-10.20807" fill="none"/></g></g><path d="M69.67865,168.14131l22.71569,-21.62816l-10.17254,23.29244z" fill="#3a2f41" stroke-opacity="0.07705" stroke="#ffffff" stroke-width="2" stroke-linecap="round" stroke-linejoin="miter"/><g data-paper-data="{&quot;index&quot;:null}" stroke-linejoin="miter"><g stroke-linecap="butt"><path d="M264.56023,266.7132c-1.76551,0.61544 -7.49438,-4.5716 -7.49438,-4.5716l-10.82633,-42.2062l13.90409,-5.1737l12.48026,47.28145z" data-paper-data="{&quot;index&quot;:null}" fill="#e1e2db" stroke="none" stroke-width="0"/><path d="M256.37093,229.71761c-3.24714,0.95772 -8.26112,-1.67163 -8.26112,-1.67163c-0.84697,-2.78859 -2.26747,-8.00691 -2.26747,-8.00691l14.5512,-5.14763l2.36379,8.83439c0,0 -3.13927,5.03408 -6.38641,5.99179z" data-paper-data="{&quot;index&quot;:null}" fill="#8c9ca0" stroke="none" stroke-width="0"/><path d="M272.43147,261.49289c0,0 -5.9864,4.06059 -7.96879,4.75163c-2.22035,0.77399 -6.87417,-1.16016 -6.87417,-1.16016l-11.38645,-44.82274l13.9041,-5.17371z" data-paper-data="{&quot;index&quot;:null}" fill="none" stroke="#3a2f41" stroke-width="2.5"/></g><g stroke="#8c9ca0" stroke-width="2" stroke-linecap="round"><path d="M240.24454,181.12706c0,0 9.94051,0.77136 13.95015,8.95333c4.83239,9.86087 9.03784,25.11783 9.03784,25.11783c0,0 -2.53004,6.45791 -10.085,8.23713c-7.55496,1.77921 -13.8527,-2.54265 -13.8527,-2.54265l-4.30748,-21.38095" fill="#3a2f41"/><path d="M261.16972,210.34136c0,0 -2.75175,5.67545 -9.83536,7.32401c-6.82221,1.58772 -12.68381,-2.56506 -12.68381,-2.56506" fill="none"/></g></g><g stroke-linejoin="miter"><path d="M231.41382,174.54569c-0.12627,1.80021 -5.01842,4.81223 -6.99702,4.67346c-1.9786,-0.13878 -6.30966,-3.4436 -6.1834,-5.24381c0.12627,-1.80021 4.91238,-2.45889 6.89098,-2.32011c1.9786,0.13878 6.4157,1.09026 6.28943,2.89046z" fill="#3a2f41" stroke="none" stroke-width="0" stroke-linecap="butt"/><g fill="#8c9ca0" stroke="#8c9ca0" stroke-width="1.5" stroke-linecap="butt"><path d="M208.44349,185.46584c-0.63312,-0.71316 9.31377,-12.32048 9.31377,-12.32048l6.42708,5.60644l7.5888,-5.21966c0,0 8.31199,12.94943 7.73172,13.58704c-0.32084,0.35256 -3.42661,-1.57822 -7.35441,-3.08359c-3.61318,-1.38479 -8.08654,-2.34127 -8.08654,-2.34127c0,0 -4.86864,0.88621 -8.875,1.94285c-3.66325,0.96614 -6.48145,2.12603 -6.74543,1.82867z"/></g><path d="M217.65744,174.61366l0.56499,-1.66014l6.57366,-1.49838l6.58222,1.91355l0.58366,1.77612" fill="none" stroke="#8c9ca0" stroke-width="1.5" stroke-linecap="round"/></g><g><path d="M87.70427,132.76608l-8.00964,0.17598l2.14885,-8.22252l-8.57306,-1.87232l-21.7006,2.24102l-4.34144,5.6757l-3.37881,-8.78808l3.73748,-11.48862l5.33636,6.26012l44.29627,1.54508l4.08939,-5.62786l4.7713,0.70928l3.59185,8.4781l-2.88643,6.74613l-6.88444,0.77047l-3.33812,-5.0235l-9.52211,0.46376z" fill="#3a2f41" stroke="url(#color-1)" stroke-width="1.5" stroke-linecap="round" stroke-linejoin="round"/><path d="M76.64506,131.66064l12.75264,-0.16657l-0.60155,41.02166l-12.75264,0.16657z" fill="#3a2f41" stroke="#8c9ca0" stroke-width="1.5" stroke-linecap="butt" stroke-linejoin="miter"/><g fill="none" stroke="none" stroke-width="1" stroke-linecap="butt" stroke-linejoin="miter" font-family="sans-serif" font-weight="normal" font-size="12" text-anchor="start"><g/><g/><g/><g/></g></g><g fill="#3a2f41" stroke-linejoin="miter"><path d="M234.99607,219.19652l-0.97906,8.02389c0,0 1.218,3.37127 2.33662,8.19843c1.10016,4.74752 1.23615,8.30015 1.23615,8.30015c0,0 -3.12767,2.01327 -6.92287,3.67027c-3.90015,1.70282 -8.50653,3.04748 -11.24371,2.80955c-2.35037,-0.20432 -6.39136,-1.95784 -9.75297,-3.78855c-4.05045,-2.20586 -7.26052,-4.53401 -7.26052,-4.53401c0,0 0.4535,-3.93652 2.31215,-9.25929c1.47719,-4.23034 2.58428,-7.04491 2.58428,-7.04491c0,0 0.68698,-8.87667 0.67517,-8.88397" stroke="#8c9ca0" stroke-width="1.5" stroke-linecap="round"/><path d="M242.69359,189.99821c6.9381,9.50473 8.68858,20.45571 8.68858,20.45571c0,0 -7.44808,8.81117 -17.27222,13.97599l-26.24012,-1.97062c-13.09074,-8.16197 -15.11946,-15.74784 -15.11946,-15.74784c0,0 3.23539,-9.71328 11.11944,-18.40146" stroke="#8c9ca0" stroke-width="1.5" stroke-linecap="round"/><path d="M207.70042,226.70549l0.67063,-9.56138l25.84156,1.81252l-0.67063,9.56138z" stroke="none" stroke-width="0" stroke-linecap="butt"/></g><path d="M227.33178,195.59394c-0.15015,2.14078 -2.04349,3.75197 -4.22887,3.59868c-2.18538,-0.15328 -3.83526,-2.01299 -3.68511,-4.15377c0.15015,-2.14078 2.04349,-3.75198 4.22887,-3.59869c2.18538,0.15328 3.83526,2.01299 3.68511,4.15378z" fill="#8c9ca0" stroke="#3a2f41" stroke-width="1" stroke-linecap="butt" stroke-linejoin="miter"/><path d="M226.75694,206.1034c-0.15015,2.14078 -2.04349,3.75197 -4.22887,3.59868c-2.18538,-0.15328 -3.83526,-2.01299 -3.68511,-4.15377c0.15015,-2.14078 2.04349,-3.75198 4.22887,-3.59869c2.18538,0.15328 3.83526,2.013 3.68511,4.15378z" fill="#8c9ca0" stroke="#3a2f41" stroke-width="1" stroke-linecap="butt" stroke-linejoin="miter"/><path d="M263.16517,145.3827c-0.76111,10.85127 -17.52951,14.99868 -34.03273,14.592c-1.36743,-0.0337 -1.68393,-21.64065 -3.02109,-21.73444c-3.63248,-0.25478 -8.32074,20.78382 -11.81212,20.03977c-13.30475,-2.8354 -24.34725,-9.15757 -23.6944,-18.46542c0.94299,-13.44438 14.46139,-24.06985 25.73465,-29.54085c6.3221,-3.06816 13.5412,-4.1061 13.5412,-4.1061c0,0 5.85747,1.74621 10.78189,4.92708c10.20379,6.59099 23.54375,19.12984 22.53079,33.57184z" fill="#3a2f41" stroke="none" stroke-width="0" stroke-linecap="butt" stroke-linejoin="miter"/><path d="M259.42287,148.25694c-1.85063,19.12647 -13.6387,26.26102 -13.6387,26.26102c0,0 3.32578,-16.60712 2.73086,-31.03191" data-paper-data="{&quot;index&quot;:null}" fill="#3a2f41" stroke="#b8c1c0" stroke-width="2" stroke-linecap="round" stroke-linejoin="miter"/><path d="M253.62758,163.07531c-1.94207,2.67097 5.81278,-24.78909 6.36013,-24.83716c0.69646,-0.06118 1.65121,3.51885 2.13252,7.99619c0.48129,4.47735 -6.22902,17.04239 -6.05029,16.45139c2.54741,-5.15703 4.01933,-11.33836 3.53804,-15.81571c-0.10304,-0.95852 -1.58615,10.16185 -5.98039,16.20531z" data-paper-data="{&quot;index&quot;:null}" fill="#3a2f41" stroke="none" stroke-width="0" stroke-linecap="butt" stroke-linejoin="miter"/><path d="M207.62111,139.61807c-2.14119,12.05892 -2.70948,31.4864 -2.70948,31.4864c0,0 -11.0154,-7.6912 -11.532,-29.28995" fill="#3a2f41" stroke="#b8c1c0" stroke-width="2" stroke-linecap="round" stroke-linejoin="miter"/><path d="M193.20741,142.20608c-0.30987,4.41792 0.93924,10.42082 1.96221,15.53379c0.11468,0.57317 -3.89171,-11.22948 -3.58184,-15.64739c0.30987,-4.41792 0.92363,-7.97392 1.37088,-7.94255c0.3515,0.02465 5.23149,26.27425 3.98478,23.73066c-2.82087,-5.75525 -3.6697,-16.62029 -3.73604,-15.6745z" fill="#3a2f41" stroke="none" stroke-width="0" stroke-linecap="butt" stroke-linejoin="miter"/><g stroke-linecap="butt" stroke-linejoin="miter"><path d="M251.99191,147.22775c-0.37012,5.27691 -1.09085,9.95723 -5.48772,13.07181c-4.27416,3.02767 -11.70119,3.65545 -20.97032,3.18488c-9.22563,-0.46835 -16.99033,-3.12954 -20.81561,-6.86347c-3.86991,-3.77747 -4.13933,-7.74013 -3.77226,-12.97358c0.72992,-10.40658 9.42256,-23.08056 30.8013,-21.00434c14.06305,1.36574 20.97453,14.1781 20.24461,24.5847z" fill="#e1e2db" stroke="none" stroke-width="0"/><path d="M252.66729,149.16868c-0.91991,6.17335 -11.34704,0.97501 -22.91205,0.24681c-11.5627,-0.72804 -29.52405,4.42315 -28.79413,-5.98343c0.72992,-10.40658 9.42256,-23.08057 30.8013,-21.00435c14.06305,1.36574 21.7934,14.07324 21.06349,24.47983z" fill="#b8c1c0" stroke="none" stroke-width="0"/><path d="M235.92432,123.38571c9.91849,2.74096 15.84761,8.76275 16.43285,18.2109c0.14857,2.39847 0.2754,7.3599 -0.26681,9.91526c-0.7863,3.70577 -0.99558,5.67547 -4.00714,8.10132c-4.24856,3.42229 -12.12023,4.41123 -22.00488,3.90942c-6.82877,-0.34667 -14.51502,-2.22436 -18.2958,-4.49061c-6.49444,-3.89283 -7.05986,-9.11508 -6.59851,-15.69255c0.61956,-8.8332 6.95342,-18.97697 21.93544,-20.67034" fill="none" stroke="#3a2f41" stroke-width="2"/></g><path d="M261.5911,141.48743c-2.62514,1.34423 -4.33153,4.08883 -7.44937,4.00085c-7.80514,-0.22029 -15.74753,-3.91135 -19.81237,-9.11577c-5.77159,-6.78374 -3.66574,-18.12432 -1.22975,-20.27656c2.47362,-2.18549 10.52568,1.16657 16.56792,8.00538z" data-paper-data="{&quot;index&quot;:null}" fill="#3a2f41" stroke="none" stroke-width="0" stroke-linecap="butt" stroke-linejoin="miter"/><path d="M233.99269,118.41156c2.26661,4.5108 -5.25658,14.98273 -14.84203,19.79929c-3.78348,1.90115 -11.57464,3.62391 -12.64936,4.21121c-0.89443,0.4888 -6.63118,1.63556 -6.24183,3.00459c1.08537,3.81642 -2.42888,-4.8795 -3.53221,-7.07523c-2.26661,-4.5108 3.66647,-12.07211 13.25191,-16.88867c9.58545,-4.81654 21.74689,-7.56198 24.01352,-3.05118z" fill="#3a2f41" stroke="none" stroke-width="0" stroke-linecap="butt" stroke-linejoin="miter"/><path d="M238.30722,132.81321c-2.93781,10.06231 -14.5863,17.85197 -25.67649,16.88399c-0.24353,-0.03503 9.48839,-7.52377 10.26065,-18.53407c0.51171,-7.29558 5.63431,-12.31075 9.15296,-12.06395c3.4635,0.24293 6.61378,5.75242 6.20066,12.89603c-0.00659,0.11378 0.09434,0.70798 0.06221,0.81804z" data-paper-data="{&quot;index&quot;:null}" fill="#3a2f41" stroke="none" stroke-width="0" stroke-linecap="butt" stroke-linejoin="miter"/><path d="M228.20424,132.28822c-7.88538,10.33662 -22.1543,12.5127 -25.38549,12.84214c-3.23119,0.32944 -2.3238,-2.7479 -2.40871,-3.58067c-0.08491,-0.83278 2.87056,-9.86176 6.10175,-10.19119c3.23119,-0.32943 21.60756,0.09696 21.69246,0.92973z" fill="#3a2f41" stroke="none" stroke-width="0" stroke-linecap="butt" stroke-linejoin="miter"/><g stroke="#3a2f41" stroke-linecap="butt" stroke-linejoin="miter"><path d="M203.66755,146.99983c0,0 3.69854,-2.82272 9.62598,-2.02231c6.28014,0.84804 9.0809,5.25692 9.0809,5.25692c0,0 -3.9459,-0.83613 -9.6441,-1.74735c-5.06345,-0.80971 -9.06278,-1.48725 -9.06278,-1.48725z" fill="#e1e2db" stroke-width="1"/><g fill="#3a2f41" stroke-width="0.5"><path d="M207.4573,147.57405l0.34839,-2.48807l0.63671,0.09293l-0.2895,2.76594z"/></g></g><path d="M257.23179,144.55758c0,0 -5.43914,6.00988 -16.45096,0.98408c-5.87851,-2.68295 -8.16486,-11.01627 -7.91005,-14.64917c0,0 2.17453,9.98735 10.56009,13.23035c6.34916,2.45546 11.55022,0.64546 13.19186,0.16785c0.34645,-0.1008 0.60907,0.26689 0.60907,0.26689z" fill="#3a2f41" stroke="none" stroke-width="0" stroke-linecap="butt" stroke-linejoin="miter"/><path d="M240.89459,154.79098c0,0 -0.00098,2.16028 -0.25905,2.68524c-0.13674,0.27813 -0.28558,0.52208 -0.42083,0.61729c-0.41364,0.29125 -0.93103,0.61608 -1.30804,0.71857c-0.56652,0.15405 -1.18131,0.29895 -1.58036,0.3283c-1.00335,0.07386 -2.12704,0.09813 -2.6055,0.02636c-1.23998,-0.18604 -2.79866,-0.46914 -3.27532,-0.58225c-1.06933,-0.25373 -2.38023,-0.56829 -2.77454,-0.67803c-0.84964,-0.23638 -2.43973,-1.24396 -2.71316,-1.1883c-0.42232,0.0859 -1.65801,0.78902 -2.00315,0.86543c-1.23771,0.27404 -2.80997,0.61873 -3.29853,0.71063c-0.88288,0.16607 -1.94233,0.43637 -2.51984,0.37378c-1.13381,-0.12287 -2.77557,-0.29548 -4.04302,-0.51631c-0.92535,-0.16119 -1.65637,-0.48648 -1.75892,-0.60908c-0.17603,-0.21056 -0.84577,-0.72204 -1.03023,-1.23826c-0.29745,-0.83238 0.05306,-2.9476 0.05306,-2.9476" fill="none" stroke="#3b3045" stroke-width="1" stroke-linecap="round" stroke-linejoin="miter"/><path d="M224.7006,149.93247l-16.67871,-8.67038" fill="none" stroke="#3a2f41" stroke-width="1" stroke-linecap="round" stroke-linejoin="miter"/><path d="M65.61777,168.35427l10.34922,-26.51403l1.48529,24.81471z" fill="#3a2f41" stroke-opacity="0.08512" stroke="#ffffff" stroke-width="2" stroke-linecap="round" stroke-linejoin="miter"/><path d="M139.78782,190.46927l-58.13397,-5.69291l-16.68005,-7.85552l-7.46041,-14.38005l14.65043,12.59637l-15.3726,-12.6605l19.76225,-21.58898l-7.06542,18.71482l19.60447,-1.11786l0.39633,-7.52064l-0.12145,-14.11261l6.40672,9.80852l10.11544,18.37333c0,0 2.45785,1.11294 6.13465,2.51427c5.73587,2.1861 29.57917,5.36387 29.57917,5.36387l-4.39612,2.81422l3.39203,4.36646l-7.24198,0.24152l7.08915,5.25411l-7.3886,-0.55763z" fill="#3a2f41" stroke-opacity="0.08254" stroke="#ffffff" stroke-width="1.5" stroke-linecap="butt" stroke-linejoin="miter"/><path d="M3.1503,73.07338c6.29859,0 12.00596,6.0647 16.13856,15.8636c4.13251,9.7981 6.6909,23.3297 6.6909,38.2625c0,14.9329 -2.55839,28.4645 -6.6909,38.2626c-4.1326,9.7989 -9.83997,15.8636 -16.13856,15.8636c-6.29859,0 -12.00596,-6.0647 -16.13847,-15.8636c-4.1326,-9.7981 -6.69098,-23.3297 -6.69098,-38.2626c0,-14.9328 2.55839,-28.4644 6.69098,-38.2625c4.13251,-9.7989 9.83988,-15.8636 16.13847,-15.8636z" fill="none" stroke="url(#color-2)" stroke-width="5.11429" stroke-linecap="round" stroke-linejoin="round"/><path d="M35.7401,93.87128c3.74929,0 7.14667,3.6101 9.60655,9.443c2.45997,5.8324 3.98289,13.8871 3.98289,22.776c0,8.8889 -1.52293,16.9436 -3.98289,22.776c-2.45988,5.8329 -5.85726,9.443 -9.60655,9.443c-3.74929,0 -7.14666,-3.6101 -9.60654,-9.443c-2.45988,-5.8324 -3.98281,-13.8871 -3.98281,-22.776c0,-8.8889 1.52293,-16.9436 3.98281,-22.776c2.45988,-5.8329 5.85725,-9.443 9.60654,-9.443z" fill="none" stroke="url(#color-3)" stroke-width="3.04432" stroke-linecap="round" stroke-linejoin="round"/></g></g></svg>