<svg version="1.1" xmlns="http://www.w3.org/2000/svg" xmlns:xlink="http://www.w3.org/1999/xlink" width="390.25473" height="432.34422" viewBox="0,0,390.25473,432.34422"><g transform="translate(-36.87548,-55.29705)"><g data-paper-data="{&quot;isPaintingLayer&quot;:true}" fill-rule="nonzero" stroke-linejoin="miter" stroke-miterlimit="10" stroke-dasharray="" stroke-dashoffset="0" style="mix-blend-mode: normal"><path d="M219.8815,186.4551c0,0 -3.44766,28.05128 -18.58077,48.14966c-10.8406,14.39747 -35.55435,26.35154 -35.55435,26.35154l31.3159,-31.59557c0,0 -5.81357,6.525 -17.06322,13.37327c-10.50187,6.39305 -26.27189,12.97489 -32.0242,17.32291c-7.43409,5.61924 -15.53437,18.14979 -15.53437,18.14979c0,0 -3.12566,-33.34146 -1.35919,-45.17846c1.49247,-10.00093 11.27522,-21.26811 11.27522,-21.26811c0,0 -8.05027,1.72966 -13.34924,3.02192c-9.98298,2.43455 -19.32252,6.39985 -19.32252,6.39985c0,0 5.27134,-8.88853 12.65012,-15.2236c10.3424,-8.87952 17.1009,-13.0445 17.1009,-13.0445c0,0 -6.13997,-1.3074 -11.97486,-8.60994c-4.84637,-6.06539 -6.20203,-11.92554 -6.20203,-11.92554c0,0 28.67109,7.26671 51.40933,-16.86342c15.4366,-16.38153 47.21329,30.9402 47.21329,30.9402z" fill="#e1e2db" stroke="#3a2f41" stroke-width="2" stroke-linecap="round"/><path d="M236.45156,111.23187c0,0 -7.1327,50.01611 -12.38889,67.20719c-3.23065,10.56629 -20.59972,21.23041 -20.59972,21.23041c0,0 5.14868,-19.03895 4.87864,-18.63274c-9.39137,14.12677 -34.71378,10.90383 -34.71378,10.90383c0,0 4.98789,-5.91274 7.41216,-13.03184c1.54165,-4.52721 1.46796,-6.17938 1.3048,-6.11583c-8.5904,3.34644 -31.91621,-10.64059 -31.91621,-10.64059c0,0 21.76556,-2.76004 23.99517,-9.75018c1.02682,-3.21921 -4.0287,-36.68335 -3.2946,-39.93231c0.93753,-4.14932 20.87858,-17.71636 33.94805,-24.14321c8.09065,-3.97854 22.15504,-10.60345 29.11249,-13.144c2.86567,-1.04641 4.37125,-1.01217 4.37125,-1.01217l-2.10934,37.06144z" data-paper-data="{&quot;index&quot;:null}" fill="#3a2f41" stroke="#3a2f41" stroke-width="2" stroke-linecap="butt"/><path d="M224.13391,120.16254c-0.17266,-7.17763 13.15768,-45.5796 13.15768,-45.5796c0,0 25.37492,-5.85309 59.46535,15.25243c9.03622,6.13438 21.68939,-2.19469 21.68939,-2.19469c0,0 1.646,12.35442 -3.07428,16.14646c-0.35395,0.28435 57.15134,20.39133 57.15134,20.39133c0,0 -23.73936,20.78799 -52.53895,27.8692c6.42195,2.83101 20.08616,5.67094 20.08616,5.67094c0,0 -15.77729,13.40427 -41.16169,12.69379c-0.15004,-0.02498 6.63456,12.22412 6.63456,12.22412c0,0 -14.01279,3.5452 -29.29311,-4.53099c-24.56295,-12.98239 -52.04694,-55.0533 -52.11646,-57.943z" data-paper-data="{&quot;index&quot;:null}" fill="#e1e2db" stroke="#3a2f41" stroke-width="2" stroke-linecap="butt"/><g data-paper-data="{&quot;index&quot;:null}" stroke-linecap="butt"><path d="M288.55062,146.59274c-0.32153,8.95629 3.66284,16.80613 -3.69409,22.38986c-7.15168,5.42793 -22.42054,8.64546 -38.3477,8.5091c-12.52767,-0.10724 -24.7872,-1.5197 -31.51726,-5.52723c-10.40164,-6.19382 -11.59788,-17.14431 -11.21286,-27.86831c0.63409,-17.66264 14.79193,-39.72923 51.58589,-37.73789c24.20329,1.30993 33.32022,22.58386 32.68613,40.24652z" fill="#e1e2db" stroke="none" stroke-width="0"/><path d="M240.32242,107.50957c43.93941,-4.17082 48.20451,20.21908 47.63312,36.13513c0,0 4.84817,17.74562 -1.91219,23.56087c-7.0843,6.09391 -22.56076,10.97045 -39.54556,10.82503c-11.74755,-0.10056 -24.11472,-2.18047 -30.73666,-5.7538c-11.35393,-6.12677 -12.39398,-16.48563 -11.99346,-27.64172c0.53823,-14.9922 10.82001,-33.15735 36.41794,-37.08967" fill="none" stroke="#3a2f41" stroke-width="2"/></g><path d="M292.02387,114.38009c12.65241,11.93089 18.22206,26.57339 12.44018,32.70494c-5.78188,6.13155 -20.72584,1.43027 -33.37825,-10.50062c-12.65241,-11.93088 -18.22206,-26.57339 -12.44018,-32.70494c5.78188,-6.13155 20.72584,-1.43027 33.37825,10.50061z" data-paper-data="{&quot;index&quot;:null}" fill="#e1e2db" stroke="#8c9ca0" stroke-width="2" stroke-linecap="butt"/><path d="M215.74012,111.0124c17.69948,-9.85197 35.39963,-11.81674 39.53439,-4.38847c4.13477,7.42829 -6.86163,21.43668 -24.5611,31.28865c-17.69948,9.85197 -35.39963,11.81674 -39.53439,4.38846c-4.13476,-7.42828 6.86163,-21.43668 24.56111,-31.28865z" data-paper-data="{&quot;index&quot;:null}" fill="#e1e2db" stroke="#3a2f41" stroke-width="2" stroke-linecap="butt"/><path d="M269.99307,84.80296c0.9717,0.61734 5.73493,3.7037 4.91597,17.44031c-0.33934,5.69182 -0.50553,17.27915 -4.09199,24.82552c-9.47055,19.92728 -20.74979,22.83168 -20.74979,22.83168c0,0 1.68123,-8.80528 0.0576,-20.3552c-1.63962,-11.66367 -5.8232,-21.61976 -4.58383,-26.31212c1.38485,-5.24316 8.42516,-13.09362 13.54449,-17.39424c3.99903,-3.35946 8.40678,-2.62472 10.90754,-1.03595z" data-paper-data="{&quot;index&quot;:null}" fill="#e1e2db" stroke="#8c9ca0" stroke-width="2" stroke-linecap="butt"/><path d="M221.38795,80.6986c0.44753,-0.71707 9.24587,-4.85628 15.40666,-5.96611c15.24333,7.14525 12.75596,21.46949 13.11773,38.3005c0.08766,3.64414 -0.38808,8.46945 -1.35518,11.81982c-2.71635,3.13971 -7.28529,8.03711 -16.03735,13.12537c-2.7757,1.61374 -5.93238,2.39194 -9.48034,3.35226c-2.39092,0.64714 -4.95955,1.37701 -7.70906,2.50101c-1.32103,0.54003 -10.60735,2.21578 -10.60735,2.21578l-2.94625,7.76699c0,0 -16.15938,21.00483 -16.70012,19.63974c-1.03795,-2.62025 4.58712,-43.26699 6.33888,-48.27249c6.60231,-18.86552 28.50062,-42.12474 29.97239,-44.48286z" data-paper-data="{&quot;index&quot;:null}" fill="#3a2f41" stroke="none" stroke-width="0" stroke-linecap="butt"/><path d="M249.5639,122.18372c0.48728,-2.83599 0.42878,-5.8109 0.35646,-8.8175c-0.42069,-15.94963 -13.01826,-37.99725 -13.01826,-37.99725c0,0 7.783,-0.89015 11.81938,-0.65948c8.7348,0.49917 17.51531,5.4596 21.68021,7.90326c10.26357,6.02195 18.58977,23.81681 24.64674,27.59713c12.14277,7.57865 20.67615,26.17184 16.46186,32.92412c-4.21429,6.75228 -8.21937,10.00893 -21.47475,4.60734c-4.31018,-1.75641 -9.69558,-4.9689 -14.85863,-8.99169c-7.86688,-6.12947 -15.13116,-14.14217 -23.05059,-21.61294c-0.37151,-0.35048 -0.07927,1.54356 -2.56241,5.047z" data-paper-data="{&quot;index&quot;:null}" fill="#e1e2db" stroke="none" stroke-width="0" stroke-linecap="butt"/><path d="M209.05198,156.50141c0,0 5.88342,-5.96646 16.77915,-6.16544c11.54404,-0.21081 17.80269,6.78346 17.80269,6.78346c0,0 -7.33683,-0.40091 -17.85019,-0.45895c-9.34223,-0.05158 -16.73162,-0.15908 -16.73162,-0.15908z" fill="#e1e2db" stroke="#3a2f41" stroke-width="1" stroke-linecap="butt"/><path d="M211.88897,91.46384l-36.57411,-5.909l4.74991,-29.39575l23.29353,3.82846l-3.06292,17.90728l-12.43285,-1.62986l1.04245,-8.63903l8.27408,1.20656l-0.7314,3.56936l-4.70943,-0.84373" data-paper-data="{&quot;index&quot;:null}" fill="none" stroke="#3a2f41" stroke-width="1.5" stroke-linecap="round"/><text transform="translate(259.79564,119.35984) rotate(6.80038) scale(0.5,0.5)" font-size="40" xml:space="preserve" data-paper-data="{&quot;index&quot;:null}" fill="#525585" fill-rule="nonzero" stroke="none" stroke-width="1" stroke-linecap="butt" stroke-linejoin="miter" stroke-miterlimit="10" stroke-dasharray="" stroke-dashoffset="0" font-family="Handwriting" font-weight="normal" text-anchor="start" style="mix-blend-mode: normal"><tspan x="0" dy="0">2 + 2 = 8</tspan></text><path d="M371.50524,276.33188l32.34178,-12.44987l-8.39058,20.54384l25.97497,-2.67409l-18.13855,20.37754l21.12712,19.61797l-62.27307,-3.45718l-14.19896,13.15369l2.7658,-35.55044l-73.79939,-57.60067l8.45221,-16.81137z" data-paper-data="{&quot;index&quot;:null}" fill="#3a2f41" stroke="#3a2f41" stroke-width="2" stroke-linecap="butt"/><path d="M308.77067,354.8469c0,0 -25.77306,6.5 -62.5,6.5c-36.72694,0 -65.83333,-3.83333 -65.83333,-3.83333c0,0 26.1064,-49.83333 62.83333,-49.83333c41.3936,0 65.5,47.16667 65.5,47.16667z" fill="#8c9ca0" stroke="#3a2f41" stroke-width="2.5" stroke-linecap="butt"/><g stroke="#3a2f41" stroke-width="2.5"><path d="M68.23216,392.94986l13.54255,17.24862l-32.39823,-2.0004z" fill="#e1e2db" stroke-linecap="butt"/><path d="M97.98415,386.30746l25.12362,13.28646l-39.41406,14.70354z" fill="#e1e2db" stroke-linecap="butt"/><path d="M126.69623,371.07126l28.8273,5.02361l-31.31381,26.41391z" fill="#e1e2db" stroke-linecap="butt"/><path d="M155.50681,343.23859l28.14286,-1.07884c0,0 -5.96745,19.37458 -10.9764,25.00458c-3.57489,4.01813 -16.25391,5.60195 -16.25391,5.60195z" fill="#e1e2db" stroke-linecap="butt"/><g><path d="M38.12548,402.34612c0,0 78.24718,37.06989 146.5298,-64.85381c26.03657,-38.86411 69.44104,9.20797 69.44104,9.20797c0,0 -25.87144,70.64456 -95.70718,91.93841c-69.83574,21.29385 -120.26367,-36.29258 -120.26367,-36.29258z" fill="#e1e2db" stroke-linecap="butt"/><path d="M242.50159,337.2565c0,0 -59.1076,118.82935 -142.23574,102.45728" fill="none" stroke-linecap="round"/></g></g><g fill="#3a2f41" stroke="#3a2f41" stroke-width="2" stroke-linecap="butt"><g data-paper-data="{&quot;index&quot;:null}"><path d="M142.37778,484.91556l34.7131,-37.62253l6.75099,-65.23741l47.67899,5.67392l-16.99007,91.06589l-5.46315,0.46339c0,0 -0.95858,-5.41155 -1.88179,-5.45254c-1.4266,-0.06334 -3.67993,5.92429 -3.67993,5.92429z"/><path d="M212.28407,419.34307l0.85579,-5.65108l22.64908,0.70959l-1.25851,8.31042z"/><path d="M233.90308,426.85443l-1.25851,8.31042l-21.84363,-6.02827l0.85579,-5.65108z" data-paper-data="{&quot;index&quot;:null}"/></g><path d="M195.09273,408.40723l11.97843,-79.09815l23.39987,3.54362l-11.97843,79.09815z"/></g><g fill="#3a2f41" stroke="#3a2f41" stroke-linecap="butt"><g data-paper-data="{&quot;index&quot;:null}" stroke-width="2.5"><path d="M283.58716,479.52805c0,0 -2.12112,-6.03573 -3.54877,-6.00377c-0.92389,0.02067 -2.00123,5.40984 -2.00123,5.40984l-5.45164,-0.58341l-14.9835,-91.41747l47.79223,-4.62413l5.31485,65.37009l33.87742,38.37674z"/><path d="M253.82401,421.84106l-1.07547,-8.33608l22.65921,-0.21139l0.73132,5.66854z"/><path d="M276.6751,423.11734l0.73132,5.66854l-21.97091,5.54649l-1.07547,-8.33608z" data-paper-data="{&quot;index&quot;:null}"/></g><path d="M269.62852,411.49528l-10.23623,-79.34242l23.47213,-3.02822l10.23623,79.34242z" stroke-width="2"/></g><g><g fill="#e1e2db" stroke="#3a2f41" stroke-width="2.5"><path d="M173.53806,328.576l26.1501,-9.85806l-13.42656,35.30805z" stroke-linecap="butt"/><g><path d="M192.91256,269.11026l22.78998,-14.65467c0,0 5.81461,17.20006 4.78245,23.81109c-0.73665,4.71829 -10.3936,12.1286 -10.3936,12.1286z" stroke-linecap="butt"/><path d="M184.78005,296.87525l27.22492,-9.49967l-12.9733,34.41429z" stroke-linecap="butt"/><g stroke-linecap="round"><path d="M276.43442,278.30197l33.49401,75.14914c0,0 -28.19212,-6.22581 -59.69068,-6.04068c-46.94478,0.27592 -66.93468,8.78917 -66.93468,8.78917l29.48694,-78.20302l-1.02678,-57.29516l61.49851,-3.9031l18.37269,35.6535z"/></g></g></g><path d="M248.52066,288.57841c18.89894,4.29518 31,9.74207 31,9.74207l-2,2.65693c0,0 -23.59691,-9.69977 -55,-11.95617" fill="none" stroke="#8c9ca0" stroke-width="1.5" stroke-linecap="round"/></g><path d="M214.0679,222.45913l8.72118,16.67342l-72.86453,58.7788l3.33655,35.50144l-14.40844,-12.9239l-62.20949,4.45713l20.80923,-19.95484l-18.46355,-20.08353l26.01457,2.25647l-8.71952,-20.4064l32.5376,11.9287z" fill="#3a2f41" stroke="#3a2f41" stroke-width="2" stroke-linecap="butt"/><g><path d="M180.67068,237.14692c0,0 36.50755,-54.67705 66,-55c29.44882,-0.32248 69,49 69,49c0,0 -23.57995,22.53134 -65.00027,22.98831c-41.58564,0.45879 -69.99973,-16.98831 -69.99973,-16.98831z" fill="#e1e2db" stroke="none" stroke-width="0" stroke-linecap="butt"/><path d="M228.54071,236.56671c-4.57627,8.56041 -14.33465,12.10692 -21.79596,7.92134c-7.46131,-4.18558 -9.80009,-14.51824 -5.22383,-23.07865c4.57627,-8.56041 14.33465,-12.10692 21.79596,-7.92134c7.46131,4.18558 9.80009,14.51824 5.22383,23.07865z" fill="none" stroke="#525585" stroke-width="1.5" stroke-linecap="butt"/><path d="M209.22516,220.23805l-2,4.5" fill="none" stroke="#525585" stroke-width="1.5" stroke-linecap="round"/><path d="M221.72516,222.23805l-1,4.5" fill="none" stroke="#525585" stroke-width="1.5" stroke-linecap="round"/><path d="M222.72516,233.23805c0,0 -2.56077,9.62481 -12.32833,7.27897c-9.21317,-2.2127 -7.17167,-12.77897 -7.17167,-12.77897" fill="none" stroke="#525585" stroke-width="1.5" stroke-linecap="round"/><path d="M241.22516,246.23805v-14.5l8.5,-12l10.79185,-1.97425l8.70815,9.97425v14z" fill="none" stroke="#525585" stroke-width="1.5" stroke-linecap="butt"/><path d="M241.72516,232.73805l28,-4.5" fill="none" stroke="#525585" stroke-width="1.5" stroke-linecap="round"/><path d="M250.22516,220.23805l6.5,10" fill="none" stroke="#525585" stroke-width="1.5" stroke-linecap="round"/><path d="M284.06041,214.1935c5.38906,-5.00977 10.08635,3.64455 10.08635,3.64455c0,0 2.0266,-5.44835 6.24766,-3.14293c4.17032,2.27771 1.979,7.34293 1.979,7.34293c0,0 4.36514,1.74693 4.25354,5.4776c-0.16421,5.48974 -6.2871,3.4224 -6.2871,3.4224c0,0 2.5856,4.35165 -0.92434,7.3c-4.65366,3.90907 -9.05856,-2.3 -9.05856,-2.3c0,0 -1.40681,6.93374 -5.99892,4.87319c-5.21081,-2.33818 -0.74878,-7.57319 -0.74878,-7.57319c0,0 -6.31915,1.39853 -6.30218,-3.51363c0.02237,-6.47471 5.68705,-6.48637 5.68705,-6.48637c0,0 -4.32278,-4.03478 1.06628,-9.04455z" fill="none" stroke="#855252" stroke-width="1.5" stroke-linecap="round"/><path d="M180.67068,237.14693c0,0 36.50755,-54.67705 66,-55c29.44882,-0.32248 69,49 69,49c0,0 -23.57995,22.53134 -65.00027,22.98831c-41.58564,0.45879 -69.99973,-16.98831 -69.99973,-16.98831z" fill="none" stroke="#3a2f41" stroke-width="2" stroke-linecap="butt"/></g><path d="M229.29966,153.30137c0.20078,1.44734 -0.98215,2.71721 -2.64215,2.83637c-1.66,0.11914 -3.16845,-0.95759 -3.36924,-2.40493c-0.20078,-1.44734 0.98215,-2.71721 2.64215,-2.83637c1.66,-0.11913 3.16845,0.95759 3.36924,2.40493z" fill="#3a2f41" stroke="#3a2f41" stroke-width="2" stroke-linecap="butt"/><g data-paper-data="{&quot;index&quot;:null}" stroke="#3a2f41"><path d="M264.88534,165.40015c0,0 -14.90008,23.249 -26.92265,21.32055c-11.45013,-1.83657 -2.48676,-24.39175 -2.48676,-24.39175z" fill="#3a2f41" stroke-width="1" stroke-linecap="round"/><path d="M246.19921,163.86468l-8.97583,10.67603l0.01714,-11.57309z" data-paper-data="{&quot;index&quot;:null}" fill="#ffffff" stroke-width="1.25" stroke-linecap="butt"/></g><path d="M215.81588,147.10609l26.10787,5.6875" fill="none" stroke="#3a2f41" stroke-width="1" stroke-linecap="round"/></g></g></svg>