<svg version="1.1" xmlns="http://www.w3.org/2000/svg" xmlns:xlink="http://www.w3.org/1999/xlink" width="325.00131" height="225.23622" viewBox="0,0,325.00131,225.23622"><defs><linearGradient x1="235.55949" y1="106.16594" x2="241.06742" y2="186.16504" gradientUnits="userSpaceOnUse" id="color-1"><stop offset="0" stop-color="#cedee0" stop-opacity="0"/><stop offset="1" stop-color="#cedee0" stop-opacity="0.19676"/></linearGradient></defs><g transform="translate(-170.06693,-61.49315)"><g data-paper-data="{&quot;isPaintingLayer&quot;:true}" fill-rule="nonzero" stroke-linejoin="miter" stroke-miterlimit="10" stroke-dasharray="" stroke-dashoffset="0" style="mix-blend-mode: normal"><g><g fill="none" stroke="#8c9ca0" stroke-width="2" stroke-linecap="round"><path d="M448.13807,144.05364l-11.78093,18.1643l-17.90631,-11.25364l-5.97683,15.43499l-16.66528,-10.44368l-8.1037,15.78479"/><path d="M385.70599,157.61708l12.76617,11.59191l8.14815,-15.53844l15.20325,11.44461l11.24919,-18.07677l17.95075,11.49989"/></g><g stroke="none" stroke-width="0.78636"><path d="M469.94509,128.03338c5.67537,-1.11273 11.2822,0.01288 15.75485,2.73131c4.47335,2.71758 7.8124,7.0278 8.95352,12.28262c1.14111,5.25472 -0.12971,10.4688 -3.10558,14.64681c-2.97486,4.17855 -7.65488,7.32105 -13.33026,8.43377c-5.67537,1.11273 -11.2822,-0.01288 -15.75485,-2.73131c-4.47334,-2.71748 -7.8123,-7.02781 -8.95341,-12.28253c-1.14111,-5.25472 0.12959,-10.46889 3.10546,-14.64691c2.97486,-4.17855 7.65488,-7.32105 13.33026,-8.43377z" fill="#3a2f41" stroke-linecap="butt"/><path d="M453.0391,130.36226c2.20674,-0.43271 4.70134,1.44916 6.94726,4.84002c2.24592,3.39096 4.24464,8.28899 5.46085,13.88921c1.2161,5.60032 1.42103,10.85003 0.77118,14.80872c-0.64997,3.9586 -2.15675,6.62502 -4.36359,7.05774c-2.20685,0.43262 -4.70135,-1.44926 -6.94737,-4.84011c-2.24591,-3.39086 -4.24464,-8.28899 -5.46074,-13.88921c-1.21621,-5.60032 -1.42114,-10.85002 -0.77118,-14.80872c0.64986,-3.95859 2.15675,-6.62502 4.3636,-7.05764z" fill="#3a2f41" stroke-linecap="butt"/><path d="M466.66792,141.73356c1.83444,-0.35965 3.80589,0.73735 5.50864,2.80014c1.70361,2.06263 3.24961,5.5225 3.89843,8.59432c0.86646,4.10582 1.94577,8.87201 0.67953,13.10551c-0.426,1.37852 -3.23212,0.49572 -4.90473,0.35993c-1.79072,-0.27318 -4.12926,-0.19172 -5.32243,-1.56414c-2.24346,-2.56903 -3.11077,-6.07611 -3.75148,-9.29392c-0.61623,-3.09338 -0.70539,-6.82374 -0.00009,-9.35861c0.70433,-2.5347 2.05771,-4.28359 3.89214,-4.64324z" fill="#8c9ca0" stroke-linecap="round"/></g></g><path d="M318.97058,162.26647l21.0373,-2.8653l8.0918,59.4111l-21.0374,2.8652z" fill="#3a2f41" stroke="none" stroke-width="0.78636" stroke-linecap="butt"/><path d="M334.67728,160.14917l54.7361,-7.455l2.8918,21.2322l-54.7361,7.455z" fill="#3a2f41" stroke="none" stroke-width="0.78636" stroke-linecap="butt"/><path d="M338.11461,174.02327l7.402,-1.0081l6.2347,45.7757l-7.4021,1.0082z" fill="#8c9ca0" stroke="none" stroke-width="0.78636" stroke-linecap="butt"/><path d="M342.11568,173.21187l49.0872,-6.6856l1.0612,7.7916l-49.0872,6.6857z" fill="#8c9ca0" stroke="none" stroke-width="0.84105" stroke-linecap="butt"/><g data-paper-data="{&quot;index&quot;:null}" stroke="#3a2f41" stroke-linecap="butt"><path d="M170.96165,120.61181l3.05115,-12.8821l7.96039,4.89429l-6.27195,-8.65636l15.27359,-18.41392c0,0 3.31234,17.09556 10.40294,32.45683c2.57686,3.38204 -6.18797,9.55828 -6.18797,9.55828z" fill="#3a2f41" stroke-width="1.5"/><path d="M200.7248,124.48783c-2.07078,-1.40752 1.21049,-20.30631 4.22252,-24.49276c1.21832,-1.69333 15.40228,12.73605 13.85344,14.88877c-3.01203,4.18644 -15.00531,11.69108 -17.07609,10.28358z" data-paper-data="{&quot;index&quot;:null}" fill="#8c9ca0" stroke-width="2"/><path d="M201.51148,124.62678c1.76116,1.71748 -5.72321,15.5831 -9.49284,18.70784c-1.93841,1.60681 -17.08221,-12.02062 -15.55747,-13.28452c3.76961,-3.12474 22.43879,-7.97005 24.19993,-6.25258z" fill="#e1e2db" stroke-width="1.5"/><path d="M205.56911,120.77699c1.7336,2.5646 1.17229,5.97304 -1.25371,7.61295c-2.42598,1.63988 -5.79801,0.89025 -7.5316,-1.67439c-1.7336,-2.5646 -1.1723,-5.97303 1.25371,-7.61293c2.42598,-1.63988 5.79801,-0.89024 7.5316,1.67437z" fill="#e1e2db" stroke-width="2"/></g><path d="M284.48285,177.98019l-19.00753,-0.79492l-0.74194,-10.19185c0,0 -0.53161,10.43871 -0.95683,10.35267c-5.367,-0.05995 -10.67422,-0.0391 -15.74622,0.03368c-21.30748,0.30582 -38.46398,1.52837 -38.46398,1.52837c0,0 -7.37288,-11.22782 -8.12617,-22.1689c-0.52642,-7.64582 -0.68085,-22.81104 9.31314,-35.31637c8.0602,-10.0856 23.14278,-14.086 26.30435,-14.43314c2.52801,-0.27759 13.50759,2.91618 20.26541,8.45654c11.24895,9.22242 24.63017,30.83251 24.63017,30.83251z" fill="#3a2f41" stroke="none" stroke-width="0" stroke-linecap="butt"/><g stroke-linecap="butt"><path d="M271.14349,149.84148c0.46641,6.77423 2.4332,12.71099 -2.10549,17.41693c-4.41205,4.57463 -14.86781,6.7689 -25.62646,7.7401c-10.70816,0.96666 -21.64069,-0.71955 -26.67958,-4.82081c-5.09769,-4.14909 -4.54204,-9.527 -5.0046,-16.24546c-0.91978,-13.35944 6.95072,-30.95118 31.9326,-31.93094c16.43322,-0.64451 26.56377,14.48071 27.48356,27.84016z" fill="#e1e2db" stroke="none" stroke-width="0"/><path d="M271.14349,149.84148c0.9198,13.35944 -11.78249,5.79236 -25.22984,6.82471c-13.44465,1.03214 -33.26652,10.62551 -34.1863,-2.73394c-0.91978,-13.35944 6.95072,-30.95118 31.93259,-31.93094c16.43322,-0.64451 26.56377,14.48072 27.48356,27.84017z" fill="#b8c1c0" stroke="none" stroke-width="0"/><path d="M248.34733,122.25574c13.6593,2.07514 22.95202,14.94172 23.78084,26.9801l0.03685,0.53529c0.4363,6.33693 1.12043,12.27947 -2.77399,16.8565c-4.31578,5.0722 -14.1233,7.30878 -25.59638,8.34448c-7.92613,0.71551 -17.63308,-0.05648 -22.37239,-2.29858c-8.14093,-3.85136 -9.11353,-10.29747 -9.69487,-18.74129c-0.78074,-11.33959 4.77176,-25.72849 21.74615,-30.4194" fill="none" stroke="#3a2f41" stroke-width="2"/></g><path d="M197.94895,176.32295l-9.60357,-6.45783c0,0 -3.80536,-23.41103 5.43316,-39.43344c11.91623,-20.66628 34.80416,-29.94608 58.30587,-25.85196c5.0346,0.87705 17.80551,4.19165 25.708,12.10473c9.49315,9.50587 13.41187,22.15827 13.41187,22.15827l-4.96733,-0.43339l1.6408,10.10097c0,0 -2.74817,-0.50352 -2.78058,-0.7183c-0.7259,-4.81247 -2.05863,-9.54805 -2.05863,-9.54805c0,0 1.02422,3.87535 0.93893,9.71315c-2.85439,-0.33288 -18.65424,-0.90524 -18.65424,-0.90524l-2.43384,-4.21562l-0.09651,4.11148l-13.71237,-0.31705l-2.51029,-15.26721l0.81895,14.97405c0,0 -12.20036,0.72595 -18.08185,1.34833c-0.41484,0.0439 -2.43845,-6.31629 -2.43845,-6.31629c0,0 0.31644,6.76096 0.00613,6.78775c-3.66785,0.31646 -8.68356,1.32652 -8.68356,1.32652c0,0 2.41619,34.11063 2.28272,34.13531c-2.07609,0.3842 -20.2931,-4.89433 -20.36025,-6.30231c-0.09699,-2.03402 -2.16337,-13.37547 -2.16337,-13.37547z" fill="#3a2f41" stroke="url(#color-1)" stroke-width="0.5" stroke-linecap="butt"/><path d="M244.03862,116.31494c12.01023,-31.69538 38.98296,-44.97822 38.98296,-44.97822l-7.69916,56.20274" fill="#3a2f41" stroke="#3a2f41" stroke-width="1.5" stroke-linecap="round"/><path d="M190.44368,140.81493c8.20997,-47.24873 37.94186,-77.75652 37.94186,-77.75652l9.06258,49.93893" fill="#3a2f41" stroke="#3a2f41" stroke-width="1.5" stroke-linecap="round"/><g stroke="#3a2f41" stroke-linecap="butt"><path d="M217.35939,159.90151c0,0 3.91234,-4.44393 11.5088,-4.92171c8.04846,-0.50619 12.64193,4.29807 12.64193,4.29807c0,0 -5.1325,-0.06044 -12.47048,0.22193c-6.52056,0.2509 -11.68025,0.40173 -11.68025,0.40173z" fill="#e1e2db" stroke-width="1"/><g fill="#3a2f41" stroke-width="0.5"><path d="M227.48293,159.70163l-0.23367,-4.4898l2.98161,-0.20106l0.13171,4.53873z"/></g></g><g><path d="M223.12552,248.47781l47.92361,-3.2073c0,0 5.88474,11.65989 9.63489,18.95568c1.12242,2.18363 2.05361,3.97631 2.57858,4.94846c0.96996,2.97305 2.20969,7.13625 3.60472,12.01974c-24.38483,1.40425 -48.76082,2.93949 -72.82425,4.41441c4.19196,-18.38076 9.08246,-37.13095 9.08246,-37.13095z" fill="#e1e2db" stroke="none" stroke-width="0" stroke-linecap="round"/><path d="M212.45417,274.13969c2.4687,-14.46433 13.73591,-30.66888 13.73591,-30.66888l42.73227,-3.12212c0,0 6.23929,10.52475 8.27544,14.59611c1.41182,2.82296 2.7698,7.48916 2.7698,7.48916l-24.26987,20.21642c-14.98392,0.91249 -29.91535,1.84373 -44.72329,2.74903c0.54958,-4.7826 1.06757,-8.84477 1.47974,-11.25973z" fill="#8c9ca0" stroke="none" stroke-width="0" stroke-linecap="butt"/><path d="M212.07398,285.72937c0.5976,-4.69833 1.2118,-8.99394 1.83191,-12.62725c2.21957,-13.00508 12.31699,-29.22002 12.31699,-29.22002l42.40256,-2.65097c0,0 7.16625,8.54702 13.48806,26.70235c1.04956,3.0142 2.50002,7.68213 4.16868,13.29459" fill="none" stroke="#3a2f41" stroke-width="2" stroke-linecap="round"/><path d="M272.7136,247.91668l-20.21796,11.82428l-29.70613,-8.25923" fill="none" stroke="#3a2f41" stroke-width="1.5" stroke-linecap="round"/></g><path d="M250.41639,253.166c-9.1631,1.0074 -25.17135,-7.21889 -25.17135,-7.21889c0,0 0.68012,-5.24678 1.34096,-8.11715c0.602,-2.6148 1.94736,-8.35493 1.94736,-8.35493c0,0 0.14253,-3.9673 -2.56096,-7.85168c-1.69378,-2.43364 -10.66506,-12.05183 -10.71883,-12.41084c-0.01034,-0.06902 0.60183,-3.8944 1.86631,-8.03585c1.46773,-4.80711 7.87124,-12.99888 10.94912,-15.09377c3.3532,-2.28229 8.08635,-3.66389 11.7957,-3.96072c5.66888,-0.45366 11.63416,0.01562 17.04581,2.24162c2.03934,0.83885 5.84027,3.27917 5.84027,3.27917c0,0 6.7685,7.11169 10.26967,16.29453c-2.60626,10.51868 -10.4744,15.58811 -10.4744,15.58811l-0.28342,7.00016c0,0 2.57396,4.85529 3.65154,7.29881c1.07398,2.43532 2.80324,7.33781 2.80324,7.33781c0,0 -9.13792,10.99626 -18.30104,12.00366z" fill="#3a2f41" stroke="#8c9ca0" stroke-width="1.5" stroke-linecap="round"/><g data-paper-data="{&quot;index&quot;:null}" stroke="#3a2f41" stroke-linecap="butt"><g data-paper-data="{&quot;index&quot;:null}"><g stroke-width="0"><path d="" fill="#e1e2db"/><path d="" fill="#e1e2db"/><path d="" fill="#8c9ca0"/></g><path d="M273.1214,279.92232l37.19826,-3.00788l0.52366,6.61036c-12.43814,0.27189 -24.90567,0.59597 -37.36143,0.94804z" fill="#e1e2db" stroke-width="0"/><path d="M273.12138,279.92232l37.19828,-3.00788l0.52364,6.61037c-12.43814,0.27189 -24.90566,0.59597 -37.36143,0.94804z" fill="#8c9ca0" stroke-width="0"/><path d="M300.09994,278.01783l10.26506,-0.83002l0.50196,6.33648" fill="none" stroke-width="2"/><path d="M273.50549,284.47217l-0.33877,-4.27649l12.09429,-0.97794" fill="none" stroke-width="2"/></g><g data-paper-data="{&quot;index&quot;:null}"><path d="M275.04663,246.22275l-17.18039,-39.08474l5.2804,-15.60632c0,0 8.51295,9.65114 13.21158,15.94505c8.53169,11.42845 33.75292,46.96523 33.75292,46.96523l2.41911,29.04627c-13.03184,0.27993 -26.09799,0.61837 -39.1511,0.9875z" fill="#3a2f41" stroke-width="1.5"/><path d="" fill="#8ea8ab" stroke-width="2"/></g></g><g fill="#8c9ca0" stroke="#3a2f41" stroke-width="1.5" stroke-linecap="butt"><path d="M246.93029,200.21472c0.08929,1.8471 -1.40314,3.4201 -3.33344,3.5134c-1.93029,0.0933 -3.56748,-1.32841 -3.65676,-3.17552c-0.08929,-1.8471 1.40315,-3.42011 3.33345,-3.51341c1.93029,-0.0933 3.56747,1.32843 3.65674,3.17553z"/><path d="M248.06126,210.19362c0.09239,1.91129 -1.46845,3.53978 -3.48621,3.6373c-2.01778,0.09753 -3.72835,-1.37282 -3.82074,-3.28411c-0.09239,-1.91129 1.46844,-3.53976 3.48619,-3.6373c2.01778,-0.09753 3.72838,1.37282 3.82077,3.28411z"/></g><g stroke="#3a2f41" stroke-width="2"><g fill="#e1e2db"><path d="M336.28286,212.26419l6.1257,-26.23621l7.7984,25.58072z" stroke-linecap="round"/><path d="M341.58759,210.98494l3.60524,-23.75905l9.99593,26.81172z" stroke-linecap="round"/><path d="M276.28936,225.74057l2.51522,-3.98285l-12.10035,-1.30786l8.1587,-4.18793l-2.93609,-3.1303c0,0 22.29932,-3.22624 29.06033,-4.68174c4.33396,-0.93299 7.27978,-1.69958 7.27978,-1.69958l7.42527,-17.25926l27.02703,-4.01356c0,0 -19.70237,11.62115 -15.53001,15.05919c1.02261,0.84265 23.68373,3.6729 23.68373,3.6729l-6.8081,-18.16956l19.43647,27.31852c0,0 -13.42518,3.09116 -22.01267,3.99159c-8.58749,0.90045 20.67281,-3.6138 22.02206,-3.89007l-17.32055,8.86611c0,0 -13.249,0.69083 -17.77502,1.21405c-13.20544,1.52658 -52.12582,2.20033 -52.12582,2.20033z" stroke-linecap="butt"/></g><g stroke-linecap="butt"><path d="M312.74703,231.86294l-39.10628,4.80845c0,0 -38.95001,-17.01159 -51.55986,-22.88413c-6.94455,-3.23415 3.52214,-16.42224 3.52214,-16.42224l33.21309,7.46072l49.73912,-12.64751z" fill="#3a2f41"/><path d="M305.95804,232.65371l-2.18323,0.10054l-5.8211,-37.74724l2.08505,-0.35544z" fill="#8ea8ab"/></g></g><g><path d="M248.89743,180.77394c0.21703,2.03412 -4.64368,6.36824 -6.87937,6.60678c-2.2357,0.23853 -7.72621,-2.58846 -7.94324,-4.62257c-0.21703,-2.03412 4.99326,-3.72082 7.22895,-3.95935c2.23569,-0.23853 7.37665,-0.05895 7.59368,1.97517z" fill="#3a2f41" stroke="none" stroke-width="0" stroke-linecap="butt"/><g fill="#8c9ca0" stroke="#8c9ca0" stroke-width="1.5" stroke-linecap="butt"><path d="M225.43406,197.52798c-0.84835,-0.66999 7.94437,-15.60141 7.94437,-15.60141l8.2873,4.9788l7.43119,-7.33398c0,0 11.85087,12.79873 11.33007,13.62567c-0.28796,0.45725 -4.13787,-1.07996 -8.82058,-1.97895c-4.30762,-0.827 -9.49001,-1.00496 -9.49001,-1.00496c0,0 -5.25713,1.95706 -9.5181,3.93286c-3.89603,1.80657 -6.8105,3.66134 -7.16424,3.38199z"/></g><path d="M233.55897,183.58502l0.30045,-1.96504l7.03822,-2.97924l7.72618,0.82675l1.00452,1.86607" fill="none" stroke="#8c9ca0" stroke-width="2" stroke-linecap="round"/></g><path d="M237.50696,152.75495l-18.35755,1.2491" fill="none" stroke="#3a2f41" stroke-width="1" stroke-linecap="round"/></g></g></svg>