<svg version="1.1" xmlns="http://www.w3.org/2000/svg" xmlns:xlink="http://www.w3.org/1999/xlink" width="404.63609" height="421.25185" viewBox="0,0,404.63609,421.25185"><g transform="translate(-33.33585,-49.10387)"><g data-paper-data="{&quot;isPaintingLayer&quot;:true}" fill-rule="nonzero" stroke-linejoin="miter" stroke-miterlimit="10" stroke-dasharray="" stroke-dashoffset="0" style="mix-blend-mode: normal"><path d="M220.57049,177.43481c0,0 -1.66254,28.21341 -15.49117,49.23066c-9.90614,15.0557 -33.81241,28.55234 -33.81241,28.55234l29.25007,-33.51715c0,0 -5.38826,6.8804 -16.18116,14.42802c-10.0755,7.04591 -25.39657,14.61418 -30.86169,19.3181c-7.06293,6.0792 -14.35261,19.09802 -14.35261,19.09802c0,0 -5.2329,-33.07627 -4.22033,-45.00143c0.8555,-10.07542 9.90435,-21.94007 9.90435,-21.94007c0,0 -7.92443,2.23649 -13.13083,3.86206c-9.80858,3.06248 -18.87797,7.61184 -18.87797,7.61184c0,0 4.6973,-9.20481 11.65966,-15.99489c9.75872,-9.51728 16.23961,-14.1023 16.23961,-14.1023c0,0 -6.21049,-0.91556 -12.49656,-7.83353c-5.22111,-5.74598 -6.94553,-11.50841 -6.94553,-11.50841c0,0 29.07406,5.43462 50.23696,-20.08836c14.36712,-17.32711 49.07965,27.88511 49.07965,27.88511z" fill="#e1e2db" stroke="#3a2f41" stroke-width="2" stroke-linecap="round"/><path d="M232.3388,101.31249c0,0 -3.94782,50.36767 -8.10368,67.85736c-2.55435,10.74983 -19.21249,22.49353 -19.21249,22.49353c0,0 3.93144,-19.32704 3.6877,-18.90452c-8.47698,14.69368 -33.95277,13.08241 -33.95277,13.08241c0,0 4.60305,-6.21702 6.57116,-13.47548c1.25158,-4.61583 1.0733,-6.26001 0.91449,-6.18625c-8.361,3.88426 -32.52653,-8.596 -32.52653,-8.596c0,0 21.54682,-4.13421 23.32885,-11.25163c0.82069,-3.27783 -6.34597,-36.35419 -5.81929,-39.64315c0.67262,-4.20041 19.71355,-19.00423 32.34933,-26.24663c7.82217,-4.4834 21.43832,-11.98654 28.22073,-14.96301c2.79358,-1.22596 4.2983,-1.28723 4.2983,-1.28723l0.24424,37.12062z" data-paper-data="{&quot;index&quot;:null}" fill="#3a2f41" stroke="#3a2f41" stroke-width="2" stroke-linecap="butt"/><path d="M220.61204,111.00601c-0.62731,-7.15225 10.24191,-46.322 10.24191,-46.322c0,0 24.95286,-7.44984 60.31261,11.45223c9.40691,5.54924 21.50664,-3.56517 21.50664,-3.56517c0,0 2.42583,12.22523 -2.04457,16.30887c-0.33522,0.30622 58.32902,16.72747 58.32902,16.72747c0,0 -22.37386,22.25103 -50.66665,31.14361c6.58849,2.41823 20.40524,4.38627 20.40524,4.38627c0,0 -14.89586,14.37744 -40.27424,15.27752c-0.15132,-0.01542 7.39611,11.77897 7.39611,11.77897c0,0 -13.75987,4.42635 -29.52141,-2.66498c-25.33651,-11.39923 -55.43212,-51.64331 -55.68467,-54.52279z" data-paper-data="{&quot;index&quot;:null}" fill="#e1e2db" stroke="#3a2f41" stroke-width="2" stroke-linecap="butt"/><g data-paper-data="{&quot;index&quot;:null}" stroke-linecap="butt"><path d="M286.57461,133.29966c0.24687,8.95866 4.72082,16.54014 -2.26736,22.57901c-6.79322,5.87036 -21.82741,10.04932 -37.73119,10.92286c-12.50927,0.68711 -24.83367,0.05463 -31.80424,-3.51822c-10.77335,-5.522 -12.66134,-16.37463 -12.9569,-27.10147c-0.48682,-17.66731 12.24373,-40.58699 49.08993,-40.93204c24.23765,-0.22697 34.6848,20.42627 35.17164,38.09359z" fill="#e1e2db" stroke="none" stroke-width="0"/><path d="M235.96592,97.3523c43.58665,-6.94777 49.38926,17.12272 49.82794,33.04298c0,0 5.96332,17.40261 -0.41481,23.6347c-6.68376,6.53074 -21.81997,12.37852 -38.77983,13.31006c-11.7303,0.64432 -24.20444,-0.64744 -31.03957,-3.79382c-11.71948,-5.39472 -13.41408,-15.66682 -13.72155,-26.82586c-0.41322,-14.99617 8.6964,-33.77655 33.99357,-39.32362" fill="none" stroke="#3a2f41" stroke-width="2"/></g><path d="M287.99891,100.93163c13.38327,11.10485 19.8699,25.36484 14.48834,31.85058c-5.38157,6.48573 -20.59349,2.74121 -33.97675,-8.36364c-13.38326,-11.10485 -19.86991,-25.36485 -14.48834,-31.85058c5.38157,-6.48573 20.59349,-2.74121 33.97675,8.36363z" data-paper-data="{&quot;index&quot;:null}" fill="#e1e2db" stroke="#8c9ca0" stroke-width="2" stroke-linecap="butt"/><path d="M211.6551,102.40636c17.03937,-10.95413 34.57938,-14.03697 39.1767,-6.88573c4.59733,7.15125 -5.48894,21.82852 -22.5283,32.78265c-17.03937,10.95413 -34.57938,14.03697 -39.1767,6.88573c-4.59732,-7.15124 5.48894,-21.82853 22.52832,-32.78266z" data-paper-data="{&quot;index&quot;:null}" fill="#e1e2db" stroke="#3a2f41" stroke-width="2" stroke-linecap="butt"/><path d="M264.13751,72.81052c1.00888,0.55451 5.95818,3.33272 6.01162,17.0936c0.02216,5.70189 0.59082,17.27644 -2.51006,25.03498c-8.1883,20.48755 -19.26074,24.1011 -19.26074,24.1011c0,0 1.11968,-8.89415 -1.23285,-20.31791c-2.37568,-11.53627 -7.18197,-21.20715 -6.24254,-25.96863c1.0497,-5.3204 7.5782,-13.60136 12.41461,-18.21785c3.77803,-3.6062 8.22349,-3.15235 10.81994,-1.7253z" data-paper-data="{&quot;index&quot;:null}" fill="#e1e2db" stroke="#8c9ca0" stroke-width="2" stroke-linecap="butt"/><path d="M215.36997,71.79552c0.40117,-0.744 8.91944,-5.43261 14.99748,-6.93075c15.66561,6.1646 14.09127,20.6177 15.51923,37.39194c0.31848,3.63125 0.14958,8.47702 -0.6032,11.88196c-2.51186,3.30558 -6.76116,8.48276 -15.17307,14.11558c-2.66783,1.78644 -5.76882,2.76318 -9.24876,3.94648c-2.3451,0.7974 -4.86229,1.68863 -7.53502,2.98467c-1.28414,0.62269 -10.44556,2.88372 -10.44556,2.88372l-2.44798,7.93814c0,0 -14.79538,21.98693 -15.42156,20.65887c-1.20196,-2.54919 1.83518,-43.47075 3.26612,-48.57723c5.39314,-19.2461 25.773,-43.84668 27.09233,-46.29335z" data-paper-data="{&quot;index&quot;:null}" fill="#3a2f41" stroke="none" stroke-width="0" stroke-linecap="butt"/><path d="M246.11901,111.41112c0.30652,-2.86117 0.05957,-5.8264 -0.2032,-8.82237c-1.4309,-15.89088 -15.40074,-37.09559 -15.40074,-37.09559c0,0 7.71092,-1.38173 11.75381,-1.40739c8.74888,-0.05553 17.82617,4.33832 22.13759,6.51305c10.62466,5.35923 20.06214,22.5905 26.34657,25.97926c12.59876,6.79367 22.2936,24.80854 18.51581,31.81439c-3.77779,7.00585 -7.56837,10.50982 -21.1395,5.95936c-4.41285,-1.47965 -9.99106,-4.34431 -15.39874,-8.03171c-8.23961,-5.61845 -15.9972,-13.15456 -24.37428,-20.10828c-0.39298,-0.32622 0.01873,1.54548 -2.23732,5.19928z" data-paper-data="{&quot;index&quot;:null}" fill="#e1e2db" stroke="none" stroke-width="0" stroke-linecap="butt"/><path d="M207.86397,148.22785c0,0 5.49337,-6.32742 16.35458,-7.21668c11.50746,-0.94217 18.19689,5.6413 18.19689,5.6413c0,0 -7.34748,0.06498 -17.84338,0.6735c-9.32671,0.54072 -16.70805,0.90186 -16.70805,0.90186z" fill="#e1e2db" stroke="#3a2f41" stroke-width="1" stroke-linecap="butt"/><path d="M206.5725,83.14124l-36.87513,-3.57866l2.87695,-29.63773l23.48937,2.34418l-1.92161,18.06543l-12.51117,-0.83846l0.49272,-8.68774l8.33393,0.67964l-0.50367,3.60854l-4.75345,-0.5435" data-paper-data="{&quot;index&quot;:null}" fill="none" stroke="#3a2f41" stroke-width="1.5" stroke-linecap="round"/><text transform="translate(256.15117,107.94432) rotate(3.16599) scale(0.5,0.5)" font-size="40" xml:space="preserve" data-paper-data="{&quot;index&quot;:null}" fill="#525585" fill-rule="nonzero" stroke="none" stroke-width="1" stroke-linecap="butt" stroke-linejoin="miter" stroke-miterlimit="10" stroke-dasharray="" stroke-dashoffset="0" font-family="Handwriting" font-weight="normal" text-anchor="start" style="mix-blend-mode: normal"><tspan x="0" dy="0">2 + 2 = 8</tspan></text><path d="M376.46313,256.15254l30.31874,-16.78583l-5.48099,21.50372l25.35908,-6.22628l-15.15895,22.68164l23.62785,16.52104l-62.15573,5.153l-12.2519,14.98402l-2.15713,-35.59256l-81.02968,-46.88687l6.05613,-17.81531z" data-paper-data="{&quot;index&quot;:null}" fill="#3a2f41" stroke="#3a2f41" stroke-width="2" stroke-linecap="butt"/><path d="M308.77068,343.51357c0,0 -25.77306,6.5 -62.5,6.5c-36.72694,0 -65.83333,-3.83333 -65.83333,-3.83333c0,0 26.1064,-49.83333 62.83333,-49.83333c41.3936,0 65.5,47.16667 65.5,47.16667z" fill="#8c9ca0" stroke="#3a2f41" stroke-width="2.5" stroke-linecap="butt"/><g stroke="#3a2f41" stroke-width="2.5"><path d="M65.90355,349.6349l10.15782,19.43539l-31.48523,-7.89475z" fill="#e1e2db" stroke-linecap="butt"/><path d="M96.36865,348.54857l22.26835,17.65919l-41.43905,7.24343z" fill="#e1e2db" stroke-linecap="butt"/><path d="M127.38386,338.82324l27.42141,10.21353l-35.61828,20.23826z" fill="#e1e2db" stroke-linecap="butt"/><path d="M160.80078,316.73214l27.86513,4.08887c0,0 -9.41181,17.95558 -15.36634,22.574c-4.24976,3.29617 -17.00452,2.53329 -17.00452,2.53329z" fill="#e1e2db" stroke-linecap="butt"/><g><path d="M34.58585,353.36369c0,0 70.14321,50.76147 155.92272,-36.94732c32.70823,-33.44388 66.58384,21.75863 66.58384,21.75863c0,0 -38.36099,64.71801 -110.91399,72.87402c-72.553,8.15602 -111.59257,-57.68534 -111.59257,-57.68534z" fill="#e1e2db" stroke-linecap="butt"/><path d="M247.42143,326.76908c0,0 -79.85273,106.00785 -158.58173,74.70165" fill="none" stroke-linecap="round"/></g></g><g fill="#3a2f41" stroke="#3a2f41" stroke-width="2" stroke-linecap="butt"><g data-paper-data="{&quot;index&quot;:null}"><path d="M121.17514,459.31309l40.84342,-30.85886l18.23064,-63.00111l45.91315,14.0521l-32.89439,86.60033l-5.45859,-0.5143c0,0 0.01782,-5.49576 -0.88343,-5.70007c-1.39267,-0.31571 -4.67365,5.17649 -4.67365,5.17649z"/><path d="M201.61647,407.19941l1.84588,-5.40923l22.16294,4.72107l-2.71453,7.95476z"/><path d="M221.55764,418.43115l-2.71453,7.95476l-20.42563,-9.81213l1.84588,-5.40923z" data-paper-data="{&quot;index&quot;:null}"/></g><path d="M186.64081,393.38404l25.83681,-75.71301l22.39843,7.64339l-25.83681,75.71301z"/></g><g fill="#3a2f41" stroke="#3a2f41" stroke-linecap="butt"><g data-paper-data="{&quot;index&quot;:null}" stroke-width="2.5"><path d="M307.50073,468.12128c0,0 -3.2172,-5.52981 -4.61344,-5.23021c-0.90356,0.19386 -0.94933,5.68947 -0.94933,5.68947l-5.46418,0.4511l-31.89013,-86.97517l46.07269,-13.51989l17.50044,63.20784l40.48361,31.3294z"/><path d="M267.43059,417.05253l-2.62232,-7.98564l22.21608,-4.46432l1.78317,5.43023z"/><path d="M290.1146,414.01336l1.78317,5.43023l-20.5378,9.57512l-2.62232,-7.98564z" data-paper-data="{&quot;index&quot;:null}"/></g><path d="M281.0102,403.92195l-24.95899,-76.0069l22.48537,-7.3837l24.95899,76.0069z" stroke-width="2"/></g><g><g fill="#e1e2db" stroke="#3a2f41" stroke-width="2.5"><path d="M173.53807,317.24267l26.1501,-9.85806l-13.42656,35.30805z" stroke-linecap="butt"/><g><path d="M192.91257,257.77693l22.78998,-14.65467c0,0 5.81461,17.20006 4.78245,23.81109c-0.73665,4.71829 -10.3936,12.1286 -10.3936,12.1286z" stroke-linecap="butt"/><path d="M184.78006,285.54192l27.22492,-9.49967l-12.9733,34.41429z" stroke-linecap="butt"/><g stroke-linecap="round"><path d="M276.43442,266.96864l33.49401,75.14914c0,0 -28.19212,-6.22581 -59.69068,-6.04068c-46.94478,0.27592 -66.93468,8.78917 -66.93468,8.78917l29.48694,-78.20302l-1.02678,-57.29516l61.49851,-3.9031l18.37269,35.6535z"/></g></g></g><path d="M248.52067,277.24508c18.89894,4.29518 31,9.74207 31,9.74207l-2,2.65693c0,0 -23.59691,-9.69977 -55,-11.95617" fill="none" stroke="#8c9ca0" stroke-width="1.5" stroke-linecap="round"/></g><path d="M220.16037,215.82983l5.61769,17.95838l-82.15443,44.88693l-3.02877,35.52902l-11.88099,-15.2798l-62.01076,-6.67475l24.02564,-15.93701l-14.59851,-23.04635l25.19887,6.84591l-4.95233,-21.63159l29.89824,17.52382z" fill="#3a2f41" stroke="#3a2f41" stroke-width="2" stroke-linecap="butt"/><g><path d="M181.08736,224.81359c0,0 36.50755,-54.67705 66,-55c29.44882,-0.32248 69,49 69,49c0,0 -23.57995,22.53134 -65.00027,22.98831c-41.58564,0.45879 -69.99973,-16.98831 -69.99973,-16.98831z" fill="#e1e2db" stroke="none" stroke-width="0" stroke-linecap="butt"/><path d="M228.95739,224.23338c-4.57627,8.56041 -14.33465,12.10692 -21.79596,7.92134c-7.46131,-4.18558 -9.80009,-14.51824 -5.22383,-23.07865c4.57627,-8.56041 14.33465,-12.10692 21.79596,-7.92134c7.46131,4.18558 9.80009,14.51824 5.22383,23.07865z" fill="none" stroke="#525585" stroke-width="1.5" stroke-linecap="butt"/><path d="M207.64184,212.40472l2,-4.5" fill="none" stroke="#525585" stroke-width="1.5" stroke-linecap="round"/><path d="M221.14184,214.40472l1,-4.5" fill="none" stroke="#525585" stroke-width="1.5" stroke-linecap="round"/><path d="M223.14184,220.90472c0,0 -2.56077,9.62481 -12.32833,7.27897c-9.21317,-2.2127 -7.17167,-12.77897 -7.17167,-12.77897" fill="none" stroke="#525585" stroke-width="1.5" stroke-linecap="round"/><path d="M241.64184,233.90472v-14.5l8.5,-12l10.79185,-1.97425l8.70815,9.97425v14z" fill="none" stroke="#525585" stroke-width="1.5" stroke-linecap="butt"/><path d="M270.14184,215.90472l-28,4.5" fill="none" stroke="#525585" stroke-width="1.5" stroke-linecap="round"/><path d="M257.14184,217.90472l-6.5,-10" fill="none" stroke="#525585" stroke-width="1.5" stroke-linecap="round"/><path d="M284.47708,201.86017c5.38906,-5.00977 10.08635,3.64455 10.08635,3.64455c0,0 2.0266,-5.44835 6.24766,-3.14293c4.17032,2.27771 1.979,7.34293 1.979,7.34293c0,0 4.36514,1.74693 4.25354,5.4776c-0.16421,5.48974 -6.2871,3.4224 -6.2871,3.4224c0,0 2.5856,4.35165 -0.92434,7.3c-4.65366,3.90907 -9.05856,-2.3 -9.05856,-2.3c0,0 -1.40681,6.93374 -5.99892,4.87319c-5.21081,-2.33818 -0.74878,-7.57319 -0.74878,-7.57319c0,0 -6.31915,1.39853 -6.30218,-3.51363c0.02237,-6.47471 5.68705,-6.48637 5.68705,-6.48637c0,0 -4.32278,-4.03478 1.06628,-9.04455z" fill="none" stroke="#855252" stroke-width="1.5" stroke-linecap="round"/><path d="M181.08736,224.8136c0,0 36.50755,-54.67705 66,-55c29.44882,-0.32248 69,49 69,49c0,0 -23.57995,22.53134 -65.00027,22.98831c-41.58564,0.45879 -69.99973,-16.98831 -69.99973,-16.98831z" fill="none" stroke="#3a2f41" stroke-width="2" stroke-linecap="butt"/></g><path d="M227.86808,143.75074c0.29212,1.4317 -0.80793,2.774 -2.45704,2.99815c-1.64911,0.22413 -3.22278,-0.75481 -3.51491,-2.18651c-0.29212,-1.4317 0.80793,-2.774 2.45704,-2.99815c1.64911,-0.22412 3.22278,0.75481 3.51492,2.18651z" fill="#3a2f41" stroke="#3a2f41" stroke-width="2" stroke-linecap="butt"/><g data-paper-data="{&quot;index&quot;:null}" stroke="#3a2f41"><path d="M264.14914,153.56939c0,0 -13.39635,24.14676 -25.51699,22.98431c-11.54352,-1.10705 -4.02796,-24.18505 -4.02796,-24.18505z" fill="#3a2f41" stroke-width="1" stroke-linecap="round"/><path d="M245.40326,153.22154l-8.28102,11.22354l-0.71652,-11.5509z" data-paper-data="{&quot;index&quot;:null}" fill="#ffffff" stroke-width="1.25" stroke-linecap="butt"/></g><path d="M214.0187,138.42266l26.41589,4.02107" fill="none" stroke="#3a2f41" stroke-width="1" stroke-linecap="round"/></g></g></svg>