<svg xmlns="http://www.w3.org/2000/svg" xmlns:xlink="http://www.w3.org/1999/xlink" version="1.1" width="523.0311760942622" height="361.0311760942622" viewBox="-0.5155880471310901 -0.5155880471310901 523.0311760942622 361.0311760942622">
  <defs>
    <linearGradient id="grad_1" x2="1">
      <stop offset="0" stop-color="#E5E5E5" stop-opacity="1"/>
      <stop offset="1" stop-color="#000000" stop-opacity="1"/>
    </linearGradient>
    <linearGradient id="grad_2" x2="1">
      <stop offset="0" stop-color="#E5E5E5" stop-opacity="1"/>
      <stop offset="1" stop-color="#000000" stop-opacity="1"/>
    </linearGradient>
  <linearGradient id="grad_1-,0,0,1,20,0" x2="316" x1="20" y1="248" y2="248" gradientUnits="userSpaceOnUse">
      <stop offset="0" stop-color="#E5E5E5" stop-opacity="1"/>
      <stop offset="1" stop-color="#000000" stop-opacity="1"/>
    </linearGradient><linearGradient id="grad_2-.6283783912658691,0,0,1,316,0" x2="502" x1="316" y1="248" y2="248" gradientUnits="userSpaceOnUse">
      <stop offset="0" stop-color="#E5E5E5" stop-opacity="1"/>
      <stop offset="1" stop-color="#000000" stop-opacity="1"/>
    </linearGradient></defs>
  <!-- Exported by Scratch - http://scratch.mit.edu/ -->
  <path id="ID0.6401883708313107" fill="#000000" stroke="none" d="M 314 303 L 500 303 L 500 360 L 314 360 L 314 303 Z " stroke-width="1"/>
  <path id="ID0.19461956433951855" fill="#FFFFFF" stroke="none" d="M 225 302 L 316 302 L 316 360 L 225 360 L 225 302 Z " stroke-width="1"/>
  <path id="ID0.11282154591754079" fill="#CCCCCC" stroke="none" d="M 153 303 L 191 303 L 191 360 L 153 360 L 153 303 Z " stroke-width="1"/>
  <path id="ID0.46938667725771666" fill="#B2B2B2" stroke="none" d="M 119 303 L 153 303 L 153 360 L 119 360 L 119 303 Z " stroke-width="1"/>
  <path id="ID0.7868730197660625" fill="#FFFF00" stroke="none" d="M 0 0 L 88 0 L 88 224 L 0 224 L 0 0 Z " stroke-width="1"/>
  <path id="ID0.7840382824651897" fill="#000000" stroke="none" d="M 0 223 L 88 223 L 88 249 L 0 249 L 0 223 Z " stroke-width="1"/>
  <path id="ID0.3256101431325078" fill="#00FFFF" stroke="none" d="M 87 0 L 174 0 L 174 223 L 87 223 L 87 0 Z " stroke-width="1"/>
  <path id="ID0.07774582225829363" fill="#FF00BF" stroke="none" d="M 85 223 L 174 223 L 174 249 L 85 249 L 85 223 Z " stroke-width="1"/>
  <path id="ID0.7868730197660625" fill="#00FF55" stroke="none" d="M 174 0 L 262 0 L 262 224 L 174 224 L 174 0 Z " stroke-width="1"/>
  <path id="ID0.7840382824651897" fill="#000000" stroke="none" d="M 174 223 L 262 223 L 262 249 L 174 249 L 174 223 Z " stroke-width="1"/>
  <path id="ID0.3256101431325078" fill="#FF00BF" stroke="none" d="M 261 0 L 348 0 L 348 223 L 261 223 L 261 0 Z " stroke-width="1"/>
  <path id="ID0.07774582225829363" fill="#00FFFF" stroke="none" d="M 259 223 L 348 223 L 348 249 L 259 249 L 259 223 Z " stroke-width="1"/>
  <path id="ID0.7868730197660625" fill="#FF0000" stroke="none" d="M 348 0 L 436 0 L 436 224 L 348 224 L 348 0 Z " stroke-width="1"/>
  <path id="ID0.7840382824651897" fill="#000000" stroke="none" d="M 348 223 L 436 223 L 436 249 L 348 249 L 348 223 Z " stroke-width="1"/>
  <path id="ID0.3256101431325078" fill="#003FFF" stroke="none" d="M 435 0 L 522 0 L 522 223 L 435 223 L 435 0 Z " stroke-width="1"/>
  <path id="ID0.07774582225829363" fill="#FFFF00" stroke="none" d="M 433 223 L 522 223 L 522 249 L 433 249 L 433 223 Z " stroke-width="1"/>
  <path id="ID0.7259363862685859" fill="url(#grad_1-,0,0,1,20,0)" stroke="none" d="M 20 248 L 316 248 L 316 304 L 20 304 L 20 248 Z " stroke-width="1"/>
  <path id="ID0.7259363862685859" fill="url(#grad_2-.6283783912658691,0,0,1,316,0)" stroke="none" d="M 316 248 L 502 248 L 502 304 L 316 304 L 316 248 Z " stroke-width="0.835122566636144"/>
  <path id="ID0.5471603628247976" fill="#000000" stroke="none" d="M 20 304 L 54 304 L 54 360 L 20 360 L 20 304 Z " stroke-width="1"/>
  <path id="ID0.4266383582726121" fill="#666666" stroke="none" d="M 53 304 L 86 304 L 86 360 L 53 360 L 53 304 Z " stroke-width="1"/>
  <path id="ID0.42120893159881234" fill="#7F7F7F" stroke="none" d="M 86 304 L 120 304 L 120 360 L 86 360 L 86 304 Z " stroke-width="1"/>
  <path id="ID0.17557339603081346" fill="#E5E5E5" stroke="none" d="M 191 304 L 225 304 L 225 360 L 191 360 L 191 304 Z " stroke-width="1"/>
  <path id="ID0.28094583889469504" fill="#000000" stroke="none" d="M 84.0953 62 L 446.0453 62 L 446.0453 147 L 84.0953 147 L 84.0953 62 Z " stroke-width="1.0311760942621802"/>
  <text id="ID0.23493117978796363" fill="#FFFFFF" text-anchor="start" font-family="Sans Serif" font-size="22" transform="matrix(1.23085 0 0 1.23085 90.4617 83.7574)" stroke-width="1" alignment-baseline="text-before-edge" xml:space="preserve"><tspan x="0" style="white-space: pre" dy="1.13em">TECHNICAL DIFFICULTIES</tspan></text>
</svg>