<svg version="1.1" xmlns="http://www.w3.org/2000/svg" xmlns:xlink="http://www.w3.org/1999/xlink" width="377.60505" height="701.82972" viewBox="0,0,377.60505,701.82972"><defs><linearGradient x1="316.45473" y1="184.53595" x2="295.80492" y2="129.60235" gradientUnits="userSpaceOnUse" id="color-1"><stop offset="0" stop-color="#8c9ca0"/><stop offset="1" stop-color="#3a2f41"/></linearGradient></defs><g transform="translate(-53.97131,182.34847)"><g data-paper-data="{&quot;isPaintingLayer&quot;:true}" fill-rule="nonzero" stroke-linejoin="miter" stroke-miterlimit="10" stroke-dasharray="" stroke-dashoffset="0" style="mix-blend-mode: normal"><g fill="#3a2f41" stroke="#3a2f41" stroke-linecap="butt"><path d="M305.56138,28.13569c8.34741,71.70793 79.58739,120.7413 78.44881,121.10917c-4.90692,2.94906 -60.26285,-28.50416 -87.10617,-59.68264c-10.8637,-12.61817 -62.53892,-41.05419 -76.23418,-65.01878c-11.20525,-19.60744 12.59789,-35.67886 24.82551,-42.18334c11.44986,-6.09075 55.58432,7.27561 60.06605,45.77558z" data-paper-data="{&quot;index&quot;:null}" stroke-width="2"/><path d="M287.15825,-33.26831c0,18.59809 -28.10269,27.6775 -56.2979,28.95809c-2.33621,0.10611 -5.46075,-36.7071 -7.75252,-36.7071c-6.22575,0 -11.70491,36.44258 -17.74855,35.59124c-23.03068,-3.24424 -42.62019,-12.70588 -42.62019,-28.65869c0,-23.04244 21.78483,-42.78153 40.35712,-53.46099c10.41542,-5.98909 22.60358,-8.62291 22.60358,-8.62291c0,0 10.1989,2.27752 18.97812,7.11347c18.19119,10.02043 42.44271,29.80989 42.44271,54.56219z" stroke-width="2"/><path d="M215.66802,-67.65247c4.535,8.66985 -21.58985,29.60346 -43.08384,40.84646c-21.49401,11.24302 -50.44616,-4.78605 -52.12994,-14.45175c-0.54247,-0.68479 30.9819,1.88427 52.07665,-21.73559c21.09475,-23.61986 38.60214,-13.32898 43.13714,-4.65913z" stroke-width="2"/><path d="M218.28825,-68.16255c22.43179,19.75164 -8.19361,39.62606 -31.84762,57.89626c-32.14591,24.82926 -85.08446,21.81842 -91.05712,11.53303c-0.99216,-0.59568 48.41901,-15.82108 67.24669,-49.69625c18.82769,-33.87517 46.2058,-28.05594 55.65806,-19.73303z" stroke-width="2"/><path d="M277.44835,-64.24439c21.09475,23.61986 52.61912,21.05081 52.07665,21.7356c-1.68378,9.66569 -30.63593,25.69477 -52.12994,14.45175c-21.49399,-11.24301 -47.61884,-32.17661 -43.08384,-40.84646c4.535,-8.66985 22.04238,-18.96073 43.13714,4.65913z" data-paper-data="{&quot;index&quot;:null}" stroke-width="2"/><path d="M287.34902,-49.68057c18.8277,33.87518 68.23887,49.10058 67.24669,49.69625c-5.97267,10.2854 -58.91123,13.29623 -91.05712,-11.53303c-23.65402,-18.2702 -54.27942,-38.14461 -31.84762,-57.89626c9.45227,-8.32291 36.83037,-14.14214 55.65806,19.73303z" data-paper-data="{&quot;index&quot;:null}" stroke-width="2"/><path d="M225.67698,-43.90879c10.09432,8.88825 28.99571,29.51639 14.12879,46.31161c-18.17062,20.52743 -73.11541,37.51628 -86.1251,47.56487c-32.14591,24.82926 -91.22214,43.9956 -95.19855,40.09826c-0.99216,-0.59568 76.91489,-33.60647 100.53362,-101.81744c12.6809,-36.62245 57.20896,-40.48021 66.66123,-32.1573z" stroke-width="2"/><path d="M292.02476,-15.07325c23.61873,68.21096 101.5258,101.22176 100.53362,101.81744c-3.9764,3.89734 -77.44693,1.33979 -112.91459,-25.70398c-13.00969,-10.04859 -50.23844,-41.43172 -68.40906,-61.95915c-14.86691,-16.79521 4.03448,-37.42335 14.12881,-46.31161c9.45227,-8.32291 53.98032,-4.46515 66.66122,32.1573z" data-paper-data="{&quot;index&quot;:null}" stroke-width="2"/><path d="M213.37987,-22.54705c11.35827,6.75132 33.2486,23.08229 21.18631,40.80647c-14.74276,21.66283 -44.40047,69.65583 -55.68168,80.86239c-51.84803,40.60464 -111.83842,23.62797 -116.37456,20.60181c-1.07301,-0.40627 37.50693,-22.64958 51.29324,-62.27123c49.99023,-34.72202 88.94087,-86.32133 99.57669,-79.99944z" data-paper-data="{&quot;index&quot;:null}" stroke-width="2"/><path d="M317.89721,71.17859c14.51906,95.20888 108.77492,157.33944 107.32916,157.88148c-6.15895,4.15371 -56.28772,-4.88761 -92.4726,-45.23126c-14.6443,-16.32739 -105.40002,-82.26417 -124.28574,-113.58802c-15.45199,-25.62867 14.33168,-48.13178 29.72375,-57.35698c14.41304,-8.63842 71.91015,7.17715 79.70544,58.29479z" data-paper-data="{&quot;index&quot;:null}" stroke-width="2"/><path d="M161.4093,207.36589c-2.32175,0.46454 -11.58125,-5.16408 -13.79002,-3.9882c-38.53791,20.51648 -92.32412,40.68277 -92.56521,39.62737c47.96806,-59.60833 31.29642,-89.31173 69.56151,-132.38761c12.64582,-9.64034 66.4625,-76.73663 89.94012,-88.37402c19.209,-9.52153 35.71025,71.97605 40.84258,84.15184c4.80587,11.40134 -52.74844,56.20612 -93.98897,100.97062zM90.59499,193.52763c0.3214,0 5.89171,-6.59492 11.17952,-18.3505c4.00683,-8.9078 7.2228,-21.87892 11.47859,-30.87397c6.15691,-13.01328 11.85125,-22.21004 11.85125,-22.56238c0,0 -8.45304,7.53242 -15.5979,20.93681c-4.49388,8.43094 -7.11224,19.09474 -10.57585,28.96526c-4.08377,11.6378 -8.62257,21.88479 -8.33562,21.88479z" data-paper-data="{&quot;index&quot;:null}" stroke-width="2"/><path d="M353.16703,192.1285c11.61523,51.40762 -24.10517,124.07563 -29.84573,129.42838c-6.33641,5.90833 -7.42254,-63.02685 -56.79985,-105.54048c-39.50228,-34.01127 -22.20136,-104.40793 -1.94181,-109.17959c20.25956,-4.77166 76.97217,33.88408 88.5874,85.29171zM335.30148,290.93683c6.76904,-15.13245 18.21065,-68.64965 14.39428,-88.94927c0,0 -1.81122,19.61749 -5.24481,40.64313c-3.84396,23.53852 -9.3473,48.74841 -9.14947,48.30614z" stroke-width="1.5"/><path d="M295.9041,249.83835c-20.86245,55.81901 -98.04986,109.15479 -107.7607,110.82077c-10.71878,1.8389 15.2572,-69.90421 -10.62964,-139.79223c-20.70969,-55.91101 52.73587,-112.53876 77.81711,-104.99067c25.08124,7.54811 61.43569,78.14313 40.57324,133.96214z" stroke-width="2"/><path d="M216.16385,229.89458c-30.25338,49.7405 -103.03051,91.48321 -112.0998,90.93555c-2.25986,0.50275 28.50381,-69.75915 19.65015,-143.66608c-7.08299,-59.12618 62.62702,-99.87752 83.60815,-86.9121c20.98113,12.96542 39.09489,89.90214 8.8415,139.64264z" stroke-width="2"/><path d="M165.23503,-82.02751c2.59633,-13.05341 7.47377,-29.16982 12.55665,-44.21708c2.15055,-0.30301 5.62653,-0.79277 7.54098,-1.06252l-0.3476,-2.46695c-1.34991,0.1902 -5.07538,0.71512 -6.42529,0.90532c0.18005,-0.52414 0.79249,-1.94611 0.97254,-2.46659c1.80888,-0.25487 3.846,-0.54191 5.3593,-0.75514l-0.3476,-2.46695c-0.90221,0.12712 -2.90086,0.40873 -3.80305,0.53584c7.48775,-21.31859 25.88106,-52.99529 25.64024,-45.3241c-0.24082,7.67118 6.4976,111.11775 6.4976,111.11775c0,0 -51.6983,39.05672 -54.95009,21.78879z" data-paper-data="{&quot;index&quot;:null}" stroke-width="1"/><path d="M289.64832,-48.28456c-3.2518,17.26793 -54.9501,-21.78879 -54.9501,-21.78879c0,0 6.73842,-103.44656 6.4976,-111.11775c-0.24082,-7.67119 32.41994,53.44579 41.1462,97.31816z" data-paper-data="{&quot;index&quot;:null}" stroke-width="1"/></g><g data-paper-data="{&quot;index&quot;:null}"><g data-paper-data="{&quot;index&quot;:null}" stroke-linecap="butt"><path d="M253.15472,358.50543l-2.26748,-62.03227l34.0052,2.93822l3.15834,58.32461z" fill="#e1e2db" stroke="#3a2f41" stroke-width="2.5"/><g><path d="M235.45787,347.98861l63.54288,-15.30209l-0.04616,95.92456l42.7481,90.699l-90.27573,-36.46857l-3.59184,-50.9996z" fill="#3a2f41" stroke="none" stroke-width="0"/><path d="M235.82179,401.7773l-1.09615,-12.79221l24.14768,9.01887l1.09615,12.7922z" fill="#3a2f41" stroke="#3a2f41" stroke-width="2.5"/><path d="M236.66053,416.59583l-0.94641,-11.04456l20.84866,7.78672l0.94641,11.04456z" fill="#3a2f41" stroke="#3a2f41" stroke-width="2.5"/><path d="M263.27465,405.71028l-0.63729,-7.43734c0,0 8.55189,3.01317 17.62552,2.23565c8.08872,-0.69311 13.61127,-4.91231 13.61127,-4.91231l-0.62906,7.54585c0,0 -3.8526,3.70151 -13.22101,4.50427c-9.43757,0.8087 -16.74943,-1.93612 -16.74943,-1.93612z" fill="#8c9ca0" stroke="#3a2f41" stroke-width="2"/><path d="M265.02778,417.81062l-0.63729,-7.43734c0,0 8.15983,3.04677 16.80138,2.30627c7.70354,-0.66011 12.94795,-4.85548 12.94795,-4.85548l-0.56875,7.54067c0,0 -3.6555,3.68462 -12.57779,4.44916c-8.98816,0.7702 -15.96548,-2.0033 -15.96548,-2.0033z" fill="#8c9ca0" stroke="#3a2f41" stroke-width="2"/><path d="M266.87644,430.19742l-0.63729,-7.43734c0,0 7.96379,3.06356 16.38932,2.34157c7.51097,-0.64361 12.61629,-4.82706 12.61629,-4.82706l-0.5386,7.5381c0,0 -3.55693,3.67617 -12.25618,4.4216c-8.76346,0.75094 -15.57352,-2.03689 -15.57352,-2.03689z" fill="#8c9ca0" stroke="#3a2f41" stroke-width="2"/></g></g><g data-paper-data="{&quot;index&quot;:null}"><g><path d="M235.58179,108.62647c0,0 14.15311,0.72422 16.39283,2.21272c4.60097,3.05776 12.38079,9.34074 16.98382,19.1962c5.36699,11.49115 8.98011,61.28177 12.82261,88.88424c4.33194,31.11826 16.99746,69.50348 16.99746,69.50348l-8.47974,13.47463l-48.61411,6.21133l-9.91649,-14.09409c0,0 3.47442,-40.77934 3.46275,-62.47614c-0.01219,-22.66202 -3.39647,-68.13646 -3.39647,-68.13646" fill="#e1e2db" stroke="#3a2f41" stroke-width="2.5" stroke-linecap="round"/><path d="M269.59524,135.00658l-13.33749,1.96944l-6.63016,-23.0655" fill="none" stroke="#3a2f41" stroke-width="2" stroke-linecap="round"/><path d="M270.98679,139.09883l-17.71193,2.75686l-10.0022,-35.4382" fill="none" stroke="#3a2f41" stroke-width="2" stroke-linecap="round"/><path d="M264.77608,238.91361l19.87054,2.96004l3.29645,13.33017z" fill="#8c9ca0" stroke="none" stroke-width="0" stroke-linecap="butt"/></g><path d="M264.52984,298.4672c13.09456,-0.88115 38.92925,-0.20668 38.92925,-0.20668l-9.46707,17.68298l7.77665,7.01719l-33.44322,11.30464l-37.32423,-5.55071l7.14726,-7.68266l-10.54461,-17.66703c0,0 24.81183,-4.08254 36.92597,-4.89772z" fill="#e1e2db" stroke="#3a2f41" stroke-width="2.5" stroke-linecap="butt"/></g></g><g><g data-paper-data="{&quot;index&quot;:null}" stroke-linecap="butt"><path d="M168.14767,357.90716l3.15834,-58.32461l34.0052,-2.93822l-2.26748,62.03227z" fill="#e1e2db" stroke="#3a2f41" stroke-width="2.5"/><g><path d="M208.36333,432.01308l-3.59184,50.9996l-90.27573,36.46857l42.7481,-90.699l-0.04616,-95.92456l63.54288,15.30209z" fill="#3a2f41" stroke="none" stroke-width="0"/><path d="M196.22898,410.96733l1.09615,-12.7922l24.14768,-9.01887l-1.09615,12.79221z" fill="#3a2f41" stroke="#3a2f41" stroke-width="2.5"/><path d="M198.68926,424.55372l0.94641,-11.04456l20.84866,-7.78672l-0.94641,11.04456z" fill="#3a2f41" stroke="#3a2f41" stroke-width="2.5"/><path d="M176.17437,407.81757c-9.36841,-0.80276 -13.22101,-4.50427 -13.22101,-4.50427l-0.62906,-7.54585c0,0 5.52255,4.2192 13.61127,4.91231c9.07363,0.77752 17.62552,-2.23565 17.62552,-2.23565l-0.63729,7.43734c0,0 -7.31186,2.74482 -16.74943,1.93612z" fill="#8c9ca0" stroke="#3a2f41" stroke-width="2"/><path d="M191.17065,417.98177c0,0 -6.97732,2.7735 -15.96548,2.0033c-8.92229,-0.76454 -12.57779,-4.44916 -12.57779,-4.44916l-0.56875,-7.54067c0,0 5.24441,4.19537 12.94795,4.85548c8.64155,0.7405 16.80138,-2.30627 16.80138,-2.30627l-0.63729,7.43734z" fill="#8c9ca0" stroke="#3a2f41" stroke-width="2"/><path d="M189.32199,430.36857c0,0 -6.81006,2.78783 -15.57352,2.03689c-8.69925,-0.74543 -12.25618,-4.4216 -12.25618,-4.4216l-0.5386,-7.5381c0,0 5.10532,4.18345 12.61629,4.82706c8.42553,0.72199 16.38932,-2.34157 16.38932,-2.34157l-0.63729,7.43734z" fill="#8c9ca0" stroke="#3a2f41" stroke-width="2"/></g></g><g data-paper-data="{&quot;index&quot;:null}"><g><path d="M224.364,163.57355c0,0 -3.38428,45.47444 -3.39647,68.13646c-0.01167,21.6968 3.46275,62.47614 3.46275,62.47614l-9.91649,14.09409l-48.61411,-6.21133l-8.47974,-13.47463c0,0 12.66552,-38.38522 16.99746,-69.50348c3.8425,-27.60247 7.45562,-77.39309 12.82261,-88.88424c4.60303,-9.85546 12.38285,-16.13844 16.98382,-19.1962c2.23972,-1.4885 16.39283,-2.21272 16.39283,-2.21272" fill="#e1e2db" stroke="#3a2f41" stroke-width="2.5" stroke-linecap="round"/><path d="M206.57086,114.08169l-6.63016,23.0655l-13.33749,-1.96944" fill="none" stroke="#3a2f41" stroke-width="2" stroke-linecap="round"/><path d="M212.92579,106.58866l-10.0022,35.4382l-17.71193,-2.75686" fill="none" stroke="#3a2f41" stroke-width="2" stroke-linecap="round"/><path d="M168.25538,255.37499l3.29645,-13.33017l19.87054,-2.96004z" fill="#8c9ca0" stroke="none" stroke-width="0" stroke-linecap="butt"/></g><path d="M191.66861,298.63839c12.11414,0.81518 36.92597,4.89772 36.92597,4.89772l-10.54461,17.66703l7.14726,7.68266l-37.32423,5.55071l-33.44322,-11.30464l7.77665,-7.01719l-9.46707,-17.68298c0,0 25.83469,-0.67447 38.92925,0.20668z" fill="#e1e2db" stroke="#3a2f41" stroke-width="2.5" stroke-linecap="butt"/></g></g><g><path d="M216.3435,166.52843c-7.15738,-6.06136 -3.28692,-55.86553 -3.28692,-55.86553l30.31948,-4.6458c0,0 0.68569,27.75139 0.09423,38.43982c-0.51516,9.30964 -3.4458,22.12751 -3.4458,22.12751c0,0 -14.29908,7.88926 -23.68099,-0.05599z" fill="#e1e2db" stroke="none" stroke-width="0" stroke-linecap="butt"/><path d="M239.59923,166.76549c0,0 -3.2596,2.29643 -11.44001,2.65379c-6.33893,0.27692 -11.69863,-2.40153 -11.69863,-2.40153" fill="none" stroke="#3a2f41" stroke-width="2.5" stroke-linecap="round"/></g><path d="M262.317,45.11603c-1.66684,11.09438 -10.96789,28.90555 -10.96789,28.90555l-49.92842,-0.79614c0,0 -16.13493,-26.30592 -12.13873,-45.97469c1.56876,-7.72124 20.36742,-18.19329 29.80198,-18.14873c5.85798,0.02766 16.27026,-1.36939 25.17115,1.65102c0,0 13.13815,5.06724 16.40658,11.17914c5.10357,9.54358 1.65533,23.18385 1.65533,23.18385z" fill="#3a2f41" stroke="#8c9ca0" stroke-width="2" stroke-linecap="round"/><g><g stroke-linecap="butt"><path d="M142.46526,136.55216l24.33172,-71.48008l20.85775,9.47131l-21.23584,63.84126c0,0 -9.38467,7.37075 -12.03763,6.23204z" data-paper-data="{&quot;index&quot;:null}" fill="#e1e2db" stroke="none" stroke-width="0"/><path d="M170.99239,88.51649c-4.89816,-1.82599 -9.18975,-9.91922 -9.18975,-9.91922l4.59544,-13.35238l21.85731,9.50105c0,0 -2.75177,7.88441 -4.35766,12.08821c0,0 -8.00717,3.50834 -12.90533,1.68234z" data-paper-data="{&quot;index&quot;:null}" fill="#8c9ca0" stroke="none" stroke-width="0"/><path d="M166.81945,65.57864l20.85775,9.47131l-22.38127,67.81104c0,0 -7.37733,2.47642 -10.71375,1.04434c-2.97884,-1.2786 -11.7611,-8.17995 -11.7611,-8.17995z" data-paper-data="{&quot;index&quot;:null}" fill="none" stroke="#3a2f41" stroke-width="2.5"/></g><g stroke="#8c9ca0" stroke-width="2" stroke-linecap="round"><path d="M207.19333,44.30015l-8.94484,32.46805c0,0 -10.16743,5.97664 -21.61224,2.41987c-11.44481,-3.55678 -14.64418,-13.77735 -14.64418,-13.77735c0,0 8.12605,-23.04619 16.63481,-37.71297c7.06008,-12.16964 22.45494,-12.28382 22.45494,-12.28382" fill="#3a2f41"/><path d="M199.86658,67.91571c0,0 -9.47738,5.76332 -19.81421,2.58066c-10.73289,-3.3046 -14.35829,-12.34388 -14.35829,-12.34388" fill="none"/></g></g><g><g data-paper-data="{&quot;index&quot;:null}"><g stroke-linecap="butt"><path d="M298.27734,143.61667c-2.65296,1.13871 -12.03763,-6.23204 -12.03763,-6.23204l-21.23584,-63.84126l20.85775,-9.47131l24.33172,71.48008z" data-paper-data="{&quot;index&quot;:null}" fill="#e1e2db" stroke="none" stroke-width="0"/><path d="M281.6662,87.51649c-4.89816,1.826 -12.90533,-1.68234 -12.90533,-1.68234c-1.60589,-4.2038 -4.35766,-12.08821 -4.35766,-12.08821l21.85731,-9.50105l4.59544,13.35238c0,0 -4.29159,8.09323 -9.18975,9.91922z" data-paper-data="{&quot;index&quot;:null}" fill="#8c9ca0" stroke="none" stroke-width="0"/><path d="M309.83752,134.72538c0,0 -8.78226,6.90135 -11.7611,8.17995c-3.33642,1.43208 -10.71375,-1.04434 -10.71375,-1.04434l-22.38127,-67.81104l20.85775,-9.47131z" data-paper-data="{&quot;index&quot;:null}" fill="none" stroke="#3a2f41" stroke-width="2.5"/></g><g stroke="#8c9ca0" stroke-width="2" stroke-linecap="round"><path d="M251.57678,14.41392c0,0 15.39486,0.11418 22.45494,12.28382c8.50876,14.66678 16.63481,37.71297 16.63481,37.71297c0,0 -3.19937,10.22057 -14.64418,13.77735c-11.44481,3.55677 -21.61224,-2.41987 -21.61224,-2.41987l-8.94484,-32.46805" fill="#3a2f41"/><path d="M286.96452,57.15248c0,0 -3.6254,9.03928 -14.35829,12.34388c-10.33683,3.18266 -19.81421,-2.58066 -19.81421,-2.58066" fill="none"/></g></g><g><g stroke-linecap="butt"><path d="M319.42821,174.87601l11.95326,-5.67392l47.54084,109.87934l-17.16424,5.9818z" fill="#e1e2db" stroke="none" stroke-width="0"/><path d="M352.64693,217.88402l26.27538,61.19738l-17.16424,5.98181l-14.11973,-36.75452z" fill="#8c9ca0" stroke="none" stroke-width="0"/><path d="M319.42821,174.87601l11.95326,-5.67392l47.54084,109.87934l-17.16424,5.98182z" fill="none" stroke="#3a2f41" stroke-width="2"/></g><g stroke="#3a2f41" stroke-width="2"><path d="M347.14619,220.35687c8.51389,-8.97925 19.21843,-4.66796 19.21843,-4.66796l58.27287,144.31999l5.39366,34.57143l-23.36609,-28.04733c0,0 -60.02446,-145.64289 -59.51887,-146.17613z" fill="#e1e2db" stroke-linecap="butt"/><path d="M422.0151,383.95076l0.72868,-5.57393l4.95864,2.44261l1.42847,11.39098z" fill="#3a2f41" stroke-linecap="round"/><path d="M355.35129,239.00031c0,0 7.88124,-6.21535 19.097,-3.73899" fill="none" stroke-linecap="round"/><path d="M356.77294,243.13616c0,0 7.88123,-6.21536 19.09699,-3.73898" fill="none" stroke-linecap="round"/><path d="M423.3043,358.10402l-1.4443,3.80157l-7.39647,-2.94624l-4.04199,6.59129l-5.06087,-2.69582" fill="none" stroke-linecap="round"/></g><path d="M352.7837,266.66643l27.46037,-21.63522l11.24923,27.05767l-28.26351,20.6229z" fill="#3a2f41" stroke="#3a2f41" stroke-width="2" stroke-linecap="butt"/><g><g><path d="M349.6453,355.34431l6.80721,-1.93399l10.39369,47.2456z" fill="#e1e2db" stroke="#3a2f41" stroke-width="2" stroke-linecap="butt"/><path d="M367.75392,400.41519l2.45892,11.10147l-4.31705,-10.56006z" fill="#16121a" stroke="#16121a" stroke-width="0" stroke-linecap="round"/></g><path d="M295.83511,184.98426l13.61444,-3.86798l51.14826,172.41454l-4.75496,6.11113l-13.54629,-3.50805z" fill="#e1e2db" stroke="#3a2f41" stroke-width="2" stroke-linecap="butt"/><path d="M356.75603,341.53177l-4.84751,4.26219l-12.61349,-2.76334" fill="none" stroke="#3a2f41" stroke-width="1" stroke-linecap="round"/><path d="M350.11827,319.18372l-7.08336,-4.62299l-26.15976,-96.13829l2.40553,-2.70291" fill="none" stroke="#3a2f41" stroke-width="1" stroke-linecap="round"/></g><g stroke-linecap="butt"><path d="M338.68113,176.18092l-44.45279,16.71004l-14.86733,-57.10718l35.41766,-13.31369z" fill="#3a2f41" stroke="url(#color-1)" stroke-width="0.5"/><path d="M315.30028,170.62683c-0.13153,2.63603 -2.37509,4.66634 -5.01111,4.53479c-2.63603,-0.13153 -4.66632,-2.37508 -4.53479,-5.01111c0.13153,-2.63603 2.37509,-4.66633 5.0111,-4.5348c2.63603,0.13153 4.66633,2.37509 4.5348,5.0111z" fill="#8c9ca0" stroke="none" stroke-width="0"/></g></g></g><g fill="#3a2f41" stroke-width="2"><path d="M125.04926,245.68682l21.35127,62.41768l-30.5018,-36.578z" stroke-opacity="0.07705" stroke="#ffffff" stroke-linecap="round"/><path d="M124.77101,258.29576l17.21042,60.57723l-32.87281,-38.08033z" stroke-opacity="0.08512" stroke="#ffffff" stroke-linecap="round"/><path d="M145.13023,138.31201l8.37054,-18.72711l0.79219,17.09848l15.88927,-28.59786l-6.11716,25.79906l6.88077,-6.35384c0,0 -14.02493,50.33217 -16.39748,63.72382c-1.52085,8.5843 -2.31348,14.51745 -2.31348,14.51745l25.90915,26.3415l-3.21197,49.42835l-10.73517,-32.66582l-16.82075,-7.94862l-22.16667,44.30826l12.79194,43.54258l-27.70515,-37.03671l-1.20155,-32.6095l0.34713,24.66892l-9.0733,-12.88357l4.99437,-40.59964l45.05069,-116.54421z" stroke-opacity="0.08254" stroke="#ffffff" stroke-linecap="butt"/></g><g><path d="M237.26364,5.23058c0,2.78653 -7.21006,7.95455 -10.27273,7.95455c-3.06267,0 -10.09091,-4.62256 -10.09091,-7.40909c0,-2.78653 7.30097,-4.31818 10.36364,-4.31818c3.06267,0 10,0.9862 10,3.77273z" fill="#3a2f41" stroke="none" stroke-width="0" stroke-linecap="butt"/><g fill="#8c9ca0" stroke="#8c9ca0" stroke-width="1.5" stroke-linecap="butt"><path d="M203.06185,24.53272c-1.05226,-1.03009 13.01509,-19.98367 13.01509,-19.98367l10.50544,7.94132l11.12524,-8.85979c0,0 14.20212,19.04821 13.37722,20.09302c-0.45612,0.57772 -5.44858,-2.06076 -11.66128,-3.95516c-5.71506,-1.74266 -12.70877,-2.73264 -12.70877,-2.73264c0,0 -7.4035,1.89105 -13.4604,3.95143c-5.53817,1.88392 -9.75379,3.97499 -10.19254,3.54549z"/></g><path d="M216.08182,6.82148l0.69091,-2.61818l9.96364,-3.01818l10.34545,2.23636l1.09091,2.67273" fill="none" stroke="#8c9ca0" stroke-width="2" stroke-linecap="round"/></g><g fill="#3a2f41"><path d="M247.60541,73.61996l-0.64117,12.46512c0,0 2.24033,5.06123 4.48487,12.37573c2.2075,7.19382 2.8008,12.65131 2.8008,12.65131c0,0 -4.60009,3.43898 -10.26688,6.4013c-5.8235,3.04424 -12.77351,5.61312 -17.01533,5.54234c-3.6424,-0.06078 -10.05624,-2.32519 -15.43198,-4.78189c-6.47729,-2.96011 -11.67334,-6.19939 -11.67334,-6.19939c0,0 0.27324,-6.11248 2.56109,-14.51204c1.8183,-6.67566 3.21949,-11.13059 3.21949,-11.13059c0,0 0.09915,-13.7471 0.08017,-13.75707" stroke="#8c9ca0" stroke-width="2" stroke-linecap="round"/><path d="M256.30751,27.81371c11.71373,13.89072 15.59314,30.56958 15.59314,30.56958c0,0 -10.52047,14.37665 -25.09475,23.3935l-40.63099,-0.20046c-21.04568,-11.15772 -24.99012,-22.62319 -24.99012,-22.62319c0,0 3.93412,-15.31108 15.13942,-29.5454" stroke="#8c9ca0" stroke-width="2" stroke-linecap="round"/><path d="M206.37273,88.13512v-14.8h40v14.8z" stroke="none" stroke-width="0" stroke-linecap="butt"/></g><path d="M233.25,38.09255c0,3.31371 -2.74225,6 -6.125,6c-3.38274,0 -6.125,-2.68629 -6.125,-6c0,-3.31371 2.74226,-6 6.125,-6c3.38275,0 6.125,2.68629 6.125,6z" fill="#8c9ca0" stroke="#3a2f41" stroke-width="1.5" stroke-linecap="butt"/><path d="M233.5,54.34256c0,3.31371 -2.74225,6 -6.125,6c-3.38274,0 -6.125,-2.68629 -6.125,-6c0,-3.31371 2.74226,-6 6.125,-6c3.38275,0 6.125,2.68629 6.125,6z" fill="#8c9ca0" stroke="#3a2f41" stroke-width="1.5" stroke-linecap="butt"/><g><path d="M283.02009,-43.11999c0,16.79661 -25.38056,24.99656 -50.84469,26.15311c-2.10992,0.09583 -4.9318,-33.15152 -7.00158,-33.15152c-5.6227,0 -10.57113,32.91262 -16.02936,32.14375c-20.79985,-2.92999 -38.49185,-11.47514 -38.49185,-25.88271c0,-20.81047 19.67467,-38.63756 36.44799,-48.28257c9.40655,-5.40897 20.41412,-7.78766 20.41412,-7.78766c0,0 9.211,2.05691 17.13983,6.42442c16.42913,9.04982 38.33157,26.9224 38.33157,49.2771z" fill="#3a2f41" stroke="none" stroke-width="0" stroke-linecap="butt"/><path d="M277.56633,-38.28845c-0.78417,29.66075 -18.17073,41.92377 -18.17073,41.92377c0,0 3.32855,-25.93954 0.85377,-48.09401" data-paper-data="{&quot;index&quot;:null}" fill="#3a2f41" stroke="#b8c1c0" stroke-width="2" stroke-linecap="round"/><path d="M270.24064,-14.83733c-2.70285,4.32396 6.27537,-38.81105 7.11327,-38.94424c1.06615,-0.16947 2.92355,5.24174 4.14863,12.08628c1.22506,6.84454 -7.75344,26.92364 -7.54199,25.99401c3.36667,-8.21868 4.96609,-17.89891 3.74103,-24.74344c-0.26226,-1.46528 -1.34532,15.82383 -7.46092,25.60741z" data-paper-data="{&quot;index&quot;:null}" fill="#3a2f41" stroke="none" stroke-width="0" stroke-linecap="butt"/><path d="M196.84183,-45.9985c-1.99529,18.80588 -0.77173,48.79174 -0.77173,48.79174c0,0 -17.79814,-10.65681 -20.92736,-43.86992" fill="#3a2f41" stroke="#b8c1c0" stroke-width="2" stroke-linecap="round"/><path d="M174.91977,-40.45494c0,6.83847 2.57256,15.94989 4.70067,23.71497c0.23856,0.87046 -7.20768,-16.8765 -7.20768,-23.71497c0,-6.83847 0.56121,-12.38214 1.25351,-12.38214c0.54409,0 10.89676,39.90546 8.70163,36.12221c-4.96682,-8.56013 -7.44812,-25.20405 -7.44812,-23.74006z" fill="#3a2f41" stroke="none" stroke-width="0" stroke-linecap="butt"/><g stroke-linecap="butt"><path d="M266.00905,-39.07091c0,8.1681 -0.6045,15.45514 -7.04057,20.72761c-6.25647,5.12534 -17.62861,6.89472 -31.95685,7.17131c-14.26099,0.27531 -26.5086,-2.98489 -32.80415,-8.32304c-6.36901,-5.4004 -7.2121,-11.47504 -7.2121,-19.57588c0,-16.10829 12.02017,-36.56936 45.17449,-35.68104c21.8091,0.58434 33.83918,19.57273 33.83918,35.68104z" fill="#e1e2db" stroke="none" stroke-width="0"/><path d="M267.25905,-36.15421c-0.75,9.60829 -17.37269,2.72773 -35.26514,2.85554c-17.88887,0.12779 -44.99852,10.00275 -44.99852,-6.10554c0,-16.10829 12.02017,-36.56936 45.17449,-35.68104c21.8091,0.58434 35.08918,19.32273 35.08918,35.43104z" fill="#b8c1c0" stroke="none" stroke-width="0"/><path d="M238.68404,-74.0593c15.57374,3.15039 25.35704,11.78528 27.27925,26.27519c0.48797,3.67836 1.21934,11.30682 0.66024,15.30147c-0.81079,5.793 -0.92035,8.84958 -5.29703,12.91153c-6.1744,5.73042 -18.19241,8.10414 -33.47212,8.39911c-10.55591,0.20377 -22.59803,-1.85804 -28.66648,-4.94031c-10.42407,-5.29455 -11.85919,-13.27738 -11.85919,-23.45861c0,-13.67286 8.66025,-29.98178 31.55435,-34.20872" fill="none" stroke="#3a2f41" stroke-width="2"/></g><path d="M280.17469,-48.94989c-3.89832,2.35414 -6.23019,6.76606 -11.04215,6.96737c-12.04618,0.50393 -24.67876,-4.32338 -31.50217,-11.90068c-9.62298,-9.82555 -7.60451,-27.52116 -4.08485,-31.09947c3.57403,-3.63359 16.33892,0.65972 26.38473,10.54088z" data-paper-data="{&quot;index&quot;:null}" fill="#3a2f41" stroke="none" stroke-width="0" stroke-linecap="butt"/><path d="M235.17132,-81.51238c3.97864,6.70317 -6.47811,23.64606 -20.72236,32.10067c-5.62236,3.33713 -17.43711,6.83246 -19.02906,7.8532c-1.32489,0.84954 -10.03741,3.23569 -9.28978,5.30237c2.08413,5.76125 -4.26842,-7.25358 -6.20511,-10.51649c-3.97864,-6.70317 4.34329,-18.99098 18.58754,-27.4456c14.24426,-8.45459 32.68012,-13.99733 36.65878,-7.29416z" fill="#3a2f41" stroke="none" stroke-width="0" stroke-linecap="butt"/><path d="M243.37297,-59.79539c-3.43805,15.81653 -20.53885,29.07355 -37.72582,28.78071c-0.3789,-0.02765 13.80228,-12.61409 13.80228,-29.65687c0,-11.29277 7.34859,-19.57117 12.7951,-19.57117c5.36113,0 10.80879,8.14602 10.94423,19.19407c0.00215,0.17596 0.22179,1.08031 0.1842,1.25331z" data-paper-data="{&quot;index&quot;:null}" fill="#3a2f41" stroke="none" stroke-width="0" stroke-linecap="butt"/><path d="M227.75448,-59.51255c-11.02924,16.77358 -32.77281,21.66703 -37.71427,22.52355c-4.94146,0.85652 -3.87628,-3.98157 -4.09703,-5.25514c-0.22076,-1.27358 3.35615,-15.50036 8.29761,-16.35688c4.94146,-0.85652 33.29295,-2.1851 33.5137,-0.91153z" fill="#3a2f41" stroke="none" stroke-width="0" stroke-linecap="butt"/><g stroke="#3a2f41" stroke-linecap="butt"><path d="M191.54961,-34.2011c0,0 5.39197,-4.74746 14.60858,-4.15496c9.76502,0.62776 14.5554,7.11624 14.5554,7.11624c0,0 -6.16827,-0.8616 -15.04373,-1.64955c-7.88679,-0.70018 -14.12023,-1.31172 -14.12023,-1.31172z" fill="#e1e2db" stroke-width="1"/><g fill="#3a2f41" stroke-width="0.5"><path d="M211.81472,-32.73341l0.26783,-3.87006l0.99077,0.07434l-0.14709,4.2917z"/></g></g><path d="M273.79167,-43.74991c0,0 -7.72869,9.84476 -25.23336,3.29312c-9.34461,-3.4975 -13.76664,-16.08643 -13.76664,-21.70978c0,0 4.42848,15.14875 17.69525,19.23805c10.04499,3.09624 17.86072,-0.25364 20.33777,-1.16667c0.52276,-0.19268 0.96698,0.34529 0.96698,0.34529z" fill="#3a2f41" stroke="none" stroke-width="0" stroke-linecap="butt"/></g></g></g></svg>