<svg version="1.1" xmlns="http://www.w3.org/2000/svg" xmlns:xlink="http://www.w3.org/1999/xlink" width="198.66053" height="486.12987" viewBox="0,0,198.66053,486.12987"><g transform="translate(-140.66974,63.56493)"><g data-paper-data="{&quot;isPaintingLayer&quot;:true}" fill-rule="nonzero" stroke-linejoin="miter" stroke-miterlimit="10" stroke-dasharray="" stroke-dashoffset="0" style="mix-blend-mode: normal"><g data-paper-data="{&quot;index&quot;:null}" stroke="#3a2f41" stroke-linecap="butt"><g><path d="M196.20257,342.54985l13.1762,-99.35665c0,0 36.2517,-23.77497 32.62803,9.20398c-3.35064,30.4941 -16.1714,97.45881 -16.1714,97.45881z" fill="#e1e2db" stroke-width="2"/><path d="M242.00679,252.3972c-0.67467,6.14013 -1.73327,13.75895 -2.9939,22.01201c-10.96511,-1.45414 -22.22502,-2.94737 -33.19015,-4.40152l6.72958,-50.74514c0,0 33.07813,0.15568 29.45446,33.13463z" fill="#8c9ca0" stroke-width="0"/><path d="M241.27503,258.50124c-4.16776,32.48007 -15.43963,91.35476 -15.43963,91.35476l-29.63283,-7.30615l11.28745,-85.11433" fill="none" stroke-width="2"/></g><g fill="#3a2f41" stroke-width="0"><path d="M212.66008,413.17446c0,0 1.36653,-17.01016 0.40987,-17.12095c-0.95621,-0.11075 -5.21801,18.09285 -5.21801,18.09285l-59.44039,8.41857c0,0 26.76602,-47.36261 33.60674,-63.45587c6.84072,-16.09325 5.11932,-44.01132 5.11932,-44.01132l46.70277,14.63403l-8.17596,34.52215l-4.96904,46.36745z"/></g></g><g data-paper-data="{&quot;index&quot;:null}" stroke="#3a2f41" stroke-linecap="butt"><g><path d="M248.69991,349.98497c0,0 -3.90602,-68.06899 -3.2187,-98.73892c0.74333,-33.16911 33.55484,-4.83468 33.55484,-4.83468v100.22652z" fill="#e1e2db" stroke-width="2"/><path d="M245.48122,251.24604c0.74333,-33.1691 33.55484,-28.97484 33.55484,-28.97484v51.18942c-11.06113,0 -22.41962,0 -33.48073,0c-0.1647,-8.34716 -0.21252,-16.03902 -0.07412,-22.21456z" fill="#8c9ca0" stroke-width="0"/><path d="M279.03605,260.77838v85.85951l-30.33614,3.34708c0,0 -3.43413,-59.84556 -3.29575,-92.59164" fill="none" stroke-width="2"/></g><g fill="#3a2f41" stroke-width="0"><path d="M245.80685,410.89867l1.16975,-46.61827l-3.56657,-35.29737l48.22129,-8.36728c0,0 -5.3767,27.44946 -0.71103,44.30235c4.66566,16.85289 31.97289,46.94619 31.97289,46.94619l-64.31776,-0.78276c0,0 -4.33169,-17.60588 -5.29416,-17.6218c-0.96292,-0.01594 -1.34448,17.52624 -1.34448,17.52624z"/></g></g><g><g stroke-linecap="round"><path d="M160.29091,300.51974c0,0 2.74954,-10.06726 6.45773,-22.83449c4.11824,-14.17904 12.41885,-30.99377 16.44872,-41.74143c6.34103,-16.91161 24.09255,-50.36187 24.09255,-50.36187c0,0 0.1806,-1.50304 4.31494,-1.55751c10.84835,-0.14291 58.97089,1.5936 58.97089,1.5936c0,0 19.70078,24.89458 28.77489,41.25454c9.34594,16.85004 26.5093,58.41885 26.5093,58.41885c0,0 -3.72591,29.72304 -78.10702,34.51514c-58.43747,3.76491 -87.46199,-19.28685 -87.46199,-19.28685z" fill="#3a2f41" stroke="none" stroke-width="0.5"/><path d="M275.84321,194.12074c0,0 -14.52614,10.13287 -24.94832,9.95069c-8.59954,-0.15032 -39.74353,-8.82177 -39.74353,-8.82177l-9.88465,1.01037" fill="none" stroke="#e1e2db" stroke-width="1.5"/><path d="M268.82572,182.84047c0,0 19.01644,23.19408 29.47291,42.00144c16.04855,28.86548 27.56129,60.44955 27.56129,60.44955c0,0 -4.44899,29.15708 -71.09264,34.12006c-66.64365,4.96299 -94.86606,-19.28687 -94.86606,-19.28687c0,0 17.25823,-60.7371 47.13867,-114.07976z" fill="none" stroke="#3a2f41" stroke-width="2.5"/></g><path d="M206.97661,292.17625c-1.63188,7.47059 -8.34149,12.51801 -14.98634,11.27373c-6.64485,-1.24428 -10.70867,-8.30906 -9.07678,-15.77965c1.63188,-7.47059 8.34149,-12.51801 14.98634,-11.27373c6.64485,1.24428 10.70867,8.30906 9.07678,15.77965z" fill="#e1e2db" stroke="#3a2f41" stroke-width="2" stroke-linecap="butt"/><path d="M189.38673,261.48769c-1.53497,4.72257 -5.78652,7.7131 -9.49614,6.67952c-3.7096,-1.03358 -5.47249,-5.69987 -3.93753,-10.42245c1.53497,-4.72257 5.78652,-7.7131 9.49614,-6.67952c3.7096,1.03358 5.47249,5.69987 3.93753,10.42245z" fill="#e1e2db" stroke="#3a2f41" stroke-width="2" stroke-linecap="butt"/><path d="M223.00259,265.29875c0,2.69006 -2.22448,4.87079 -4.96852,4.87079c-2.74404,0 -4.96852,-2.18074 -4.96852,-4.87079c0,-2.69006 2.22448,-4.87078 4.96852,-4.87078c2.74404,0 4.96852,2.18073 4.96852,4.87078z" fill="#e1e2db" stroke="#3a2f41" stroke-width="2" stroke-linecap="butt"/><path d="M318.28123,283.15834c0,7.77128 -5.88834,14.07115 -13.15196,14.07115c-7.26362,0 -13.15196,-6.29987 -13.15196,-14.07115c0,-7.77128 5.88834,-14.07116 13.15196,-14.07116c7.26362,0 13.15196,6.29988 13.15196,14.07116z" fill="#e1e2db" stroke="#3a2f41" stroke-width="2" stroke-linecap="butt"/></g><g data-paper-data="{&quot;index&quot;:null}" stroke="#3a2f41" stroke-linecap="butt"><path d="M336.66327,189.64683c0.93047,3.57253 2.87912,5.91849 -0.86383,10.48103c-10.04753,12.24765 -35.17788,27.51865 -35.17788,27.51865l-4.69873,-2.64817c0,0 -14.46882,11.13611 -16.34109,7.15239c-0.94752,-2.0161 -14.80339,-16.48196 -13.49913,-21.10382c0.12021,-0.426 0.79015,-1.68614 2.0105,-3.02789c1.43733,-1.58033 5.07041,-4.06196 5.07041,-4.06196l-9.05321,2.40742l-6.28557,-9.63748c0,0 12.22699,-9.78828 18.87876,-8.83274c6.96535,1.00059 13.23674,10.03133 13.29345,9.52117c0.67074,-6.03339 15.10315,-10.05382 15.10315,-10.05382l-16.62727,-17.02176l16.56671,-13.67474c0,0 27.91635,18.74706 31.62375,32.98171z" data-paper-data="{&quot;index&quot;:null}" fill="#e1e2db" stroke-width="0"/><path d="M298.97137,180.16777c-3.27963,-2.60685 -9.74145,-9.35012 -9.74145,-9.35012l15.85158,-14.08833l9.19579,6.2989l-2.74272,13.02017z" data-paper-data="{&quot;index&quot;:null}" fill="#8c9ca0" stroke-width="0"/><path d="M304.82269,156.48186c0,0 45.66063,29.22007 30.37841,45.34048c-7.34705,7.75001 -34.91017,26.17844 -34.91017,26.17844l-3.25889,-3.119c0,0 -13.01866,8.67639 -15.62047,7.64158c-2.89227,-1.15033 -13.3868,-13.5867 -15.70038,-21.27532c-0.65975,-2.19252 8.70995,-7.08707 7.96383,-8.06648c-0.52041,-0.68311 -9.35722,3.44031 -9.35722,3.44031l-5.69675,-9.8745c0,0 12.09332,-9.90815 18.5987,-9.00958c5.57916,0.77063 12.95544,10.2037 12.92843,9.19438c-0.10246,-3.82738 15.94209,-9.73554 15.94209,-9.73554l-17.32245,-16.93488l16.05491,-13.77986z" data-paper-data="{&quot;index&quot;:null}" fill="none" stroke-width="2"/></g><g data-paper-data="{&quot;index&quot;:null}" stroke="#3a2f41" stroke-width="2"><path d="M277.10458,162.67275c1.82148,-0.87331 6.97905,7.16877 8.46467,12.15171c0.14747,0.49464 -9.87631,2.2811 -10.57917,1.40126c-0.23497,-0.29413 0.4465,-12.75326 2.1145,-13.55298z" data-paper-data="{&quot;index&quot;:null}" fill="#8c9ca0" stroke-linecap="butt"/><path d="M313.79837,145.24704c0.75018,0.83988 -2.68421,10.42488 -3.14732,10.19691c-4.6651,-2.29645 -11.73354,-8.72395 -10.56848,-10.37411c1.06691,-1.51113 13.46501,-0.10357 13.7158,0.1772z" fill="#8c9ca0" stroke-linecap="butt"/><path d="M284.48869,176.09872c-0.30021,-0.22713 -2.71071,-12.46986 -1.29129,-13.65605c1.55001,-1.29531 8.53071,5.22742 11.19869,9.69044c0.26484,0.44304 -9.00937,4.64506 -9.9074,3.96562z" data-paper-data="{&quot;index&quot;:null}" fill="#8c9ca0" stroke-linecap="butt"/><path d="M299.2331,150.50128c1.53836,-1.02724 12.6042,4.73831 12.73745,5.0904c0.39859,1.05321 -6.24855,8.76577 -6.59888,8.38673c-3.52938,-3.81842 -7.81847,-12.35537 -6.13858,-13.47713z" fill="#8c9ca0" stroke-linecap="butt"/><path d="M296.89993,155.9785c1.7611,-0.56603 10.82171,8.013 10.8533,8.38811c0.09448,1.12215 -8.41276,6.7163 -8.64574,6.25571c-2.34701,-4.63987 -4.13066,-14.02571 -2.20757,-14.64381z" fill="#8c9ca0" stroke-linecap="butt"/><path d="M301.84389,169.11326c-0.04546,1.1252 -9.18096,5.62077 -9.355,5.13484c-0.98445,-2.74862 -4.78101,-9.44506 -4.78636,-12.67625c-0.00417,-2.52343 3.54208,-1.96397 4.41249,-2.1283c1.8177,-0.34319 9.74408,9.29357 9.72888,9.66971z" data-paper-data="{&quot;index&quot;:null}" fill="#8c9ca0" stroke-linecap="butt"/><path d="M251.24932,113.04758c0,0 19.12698,3.70083 21.43558,7.1949c5.83008,8.82385 35.68883,24.04001 35.68883,24.04001c0,0 -2.74406,9.76421 -10.58676,16.17179c-7.84269,6.40758 -22.85488,11.15046 -22.85488,11.15046l-19.42413,-36.59116l4.13339,-12.62301" fill="#677479" stroke-linecap="round"/></g><g data-paper-data="{&quot;index&quot;:null}"><g><path d="M269.47351,179.77152l2.64648,1.45951l-1.38142,3.12807c0,0 0.37731,2.58413 0.11497,2.88913c0,0 -10.09807,9.68143 -19.24764,10.06016c-7.1236,0.29487 -29.41521,-5.45014 -31.94267,-6.47877c-1.45723,-0.59308 -5.49014,0.87098 -7.07898,0.81572c-1.33807,-0.04653 -5.51452,-2.71221 -5.51452,-2.71221l0.83798,-2.9901l-1.39813,-1.83043c0,0 3.01339,-8.51938 3.13487,-9.1328c1.59608,-8.06035 -13.53113,-34.38251 -5.83132,-54.77552c1.5051,-3.98626 21.75189,-11.85879 30.66428,-11.8211c9.7781,0.04137 20.07161,0.74546 27.89132,8.7081c12.05884,12.27926 5.99798,24.57246 5.13013,41.24196c-0.44648,8.57612 -0.88204,14.96908 -0.88204,14.96908l4.14162,4.67767z" fill="#9aac9c" stroke="#3a2f41" stroke-width="2" stroke-linecap="round"/><g stroke="none"><g fill="#9aac9c" stroke-width="0" stroke-linecap="round"><g><g><path d="M263.08067,119.24477c0,0 6.70287,5.49153 11.74482,12.45867c1.70126,2.35086 4.09956,4.3543 4.79677,7.06402c0.57956,0.63452 -3.1687,11.88617 -8.8768,16.93037c-2.63433,2.32792 -1.88328,2.29937 -4.63095,3.26957c-5.6635,1.99979 -15.53775,-1.84737 -23.35125,-1.22523c-8.2149,0.6541 -16.28328,2.0221 -22.71939,0.95845c-3.37855,-0.55837 -6.81828,-0.85082 -9.795,-2.84902c-4.05417,-2.7215 -5.36981,-6.18944 -6.38197,-9.58051c-1.09102,-2.5466 -0.30441,-9.14457 2.07362,-14.4346c0.38208,-0.84995 0.80523,-1.66612 1.26828,-2.4263c2.74761,-4.51075 4.77947,-6.48694 4.77947,-6.48694"/></g></g></g><g stroke-linecap="butt"><g><g fill="none" stroke-width="1" font-family="sans-serif" font-weight="normal" font-size="12" text-anchor="start"/><path d="M212.12385,125.74232c0,0.34868 -3.62666,3.34574 -2.51007,1.36549c1.03097,-1.82844 5.9935,-8.32704 5.9935,-8.32704c0,0 -2.86416,2.33454 -5.89282,5.31563c-0.49533,0.48755 7.37224,-9.55192 9.37624,-9.55192c2.00401,0 -6.96687,10.52729 -6.96687,11.19788z" fill="#ffffff" stroke-width="0"/></g><path d="M255.53639,114.29333c1.91822,-0.53921 8.10276,4.53822 7.47679,4.20481c-3.82735,-2.03853 -2.82327,-1.08718 -2.82327,-1.08718c0,0 6.77384,4.88513 8.33007,6.35788c1.6855,1.59507 -2.71924,-0.29788 -2.82783,-0.63162c-0.20882,-0.64189 -12.07401,-8.3047 -10.15579,-8.84391z" data-paper-data="{&quot;index&quot;:null}" fill="#ffffff" stroke-width="0"/></g></g><path d="M203.81314,120.20429c1.5051,-3.98626 21.75189,-11.85879 30.66428,-11.8211c9.7781,0.04137 20.07161,0.74546 27.89132,8.7081c0.75942,0.77329 18.22896,21.49738 18.22896,21.49738l-9.75159,15.32541c0,0 -68.72299,-25.24999 -68.88079,-26.20242c0.33605,-2.55943 0.92963,-5.07555 1.84781,-7.50736z" fill="#677479" stroke="none" stroke-width="0" stroke-linecap="butt"/><g stroke="none"><g fill="#677479" stroke-width="0" stroke-linecap="round"><g><g><path d="M263.68067,118.72128c0,0 7.77809,9.71293 15.94159,18.70839c0.49639,1.92923 -1.60172,4.58263 -2.89074,8.15637c-0.93227,2.58471 -3.58606,7.66887 -3.58606,7.66887l-65.93666,-23.84475l4.77947,-6.48693"/></g></g></g><g fill="none" stroke-width="1" stroke-linecap="butt" font-family="sans-serif" font-weight="normal" font-size="12" text-anchor="start"><g><g/></g></g></g><path d="M240.14083,115.57474c0,0 9.00721,14.22222 11.6874,24.20064c0.63392,2.36007 -2.18507,11.49551 -4.34894,15.57054c-0.62769,1.18206 -0.48185,6.31882 -0.48185,6.31882" fill="none" stroke="#3a2f41" stroke-width="1.5" stroke-linecap="round"/><path d="M256.94642,134.67132c1.21249,1.97252 1.50859,4.15237 0.66136,4.86881c-0.84724,0.71644 -2.51698,-0.30182 -3.72947,-2.27434c-1.21249,-1.97252 -1.50859,-4.15237 -0.66136,-4.86881c0.84724,-0.71644 2.51698,0.30182 3.72947,2.27434z" fill="none" stroke="#3a2f41" stroke-width="1.5" stroke-linecap="butt"/><path d="M267.22291,163.40904c-0.33429,5.90373 -0.6061,9.89327 -0.6061,9.89327l4.14162,4.67768l-1.28493,1.79149l2.64648,1.45951l-1.38142,3.12807c0,0 0.37731,2.58413 0.11497,2.88913c0,0 -10.09807,9.68143 -19.24764,10.06016c-7.1236,0.29487 -29.41521,-5.45014 -31.94267,-6.47877c-1.45723,-0.59308 -5.49014,0.87099 -7.07898,0.81573c-1.33807,-0.04653 -5.51452,-2.71221 -5.51452,-2.71221l0.83798,-2.9901l-1.39813,-1.83043c0,0 3.01339,-8.51938 3.13487,-9.1328c1.59608,-8.06035 -13.53113,-34.3825 -5.83132,-54.77552c1.5051,-3.98626 21.75189,-11.85879 30.66428,-11.8211c9.7781,0.04137 20.07161,0.74546 27.89132,8.7081c0.29241,0.29775 0.57416,0.59551 0.8456,0.89335" fill="none" stroke="#3a2f41" stroke-width="2" stroke-linecap="round"/><g fill="none" stroke="none" stroke-width="1" stroke-linecap="butt" font-family="sans-serif" font-weight="normal" font-size="12" text-anchor="start"><g/></g></g><g fill="none"><g stroke="none" stroke-width="1" stroke-linecap="butt" font-family="sans-serif" font-weight="normal" font-size="12" text-anchor="start"><g><g/></g></g><g stroke="#3a2f41" stroke-width="2" stroke-linecap="round"><g><g><path d="M262.72136,117.85469c8.9865,8.9333 17.2554,20.58839 17.2554,20.58839c0,0 -3.68276,12.95862 -13.07948,20.87326"/></g></g></g></g></g><g data-paper-data="{&quot;index&quot;:null}"><path d="M250.47447,124.31679l-9.91911,-8.96534c0,0 6.98372,-6.6646 10.00069,-8.90762c0.66064,-0.49117 0.92751,-0.09179 1.10496,-0.02339c0.4353,0.37091 3.16064,5.08093 2.694,5.39524z" data-paper-data="{&quot;index&quot;:null}" fill="#8c9ca0" stroke="#3a2f41" stroke-width="4.5" stroke-linecap="round"/><path d="M232.11929,124.41332c0,0 -9.56152,-9.66352 -10.43199,-12.58446c0.06358,-1.43863 2.09816,-7.62946 3.02998,-5.85925c0.96418,0.50341 16.79795,-3.0079 20.78337,-0.61156c3.34966,2.01407 -4.97335,10.03631 -4.97335,10.03631z" fill="#3a2f41" stroke="#3a2f41" stroke-width="4.5" stroke-linecap="round"/><path d="M223.67294,111.36335c0.03554,-1.38729 0.27159,-4.78803 0.81013,-5.06431c0.99698,-0.95842 10.66879,-5.54936 13.04024,-5.93378c1.50029,-0.2432 12.31016,5.35205 12.88798,5.96884c0.99973,0.50599 2.04214,4.51976 2.04214,5.01727" fill="none" stroke="#3a2f41" stroke-width="6.5" stroke-linecap="butt"/><g><path d="M250.47447,124.31679l-9.91911,-8.96534c0,0 6.98373,-6.6646 10.00069,-8.90762c0.66064,-0.49117 0.92751,-0.09179 1.10496,-0.02339c0.4353,0.37091 3.16064,5.08093 2.694,5.39524z" data-paper-data="{&quot;index&quot;:null}" fill="#677479" stroke="#12161a" stroke-width="0" stroke-linecap="round"/><path d="M232.1193,124.41332c0,0 -9.56152,-9.66352 -10.432,-12.58446c0.06358,-1.43863 2.09816,-7.62946 3.02998,-5.85926c1.77455,0.92652 15.81001,9.42475 15.81001,9.42475z" fill="#677479" stroke="#12161a" stroke-width="0" stroke-linecap="round"/><path d="M223.67294,111.36335c0.03554,-1.38729 0.27159,-4.78803 0.81013,-5.06431c0.99698,-0.95842 10.66879,-5.54935 13.04024,-5.93378c1.50029,-0.2432 12.31016,5.35205 12.88798,5.96884c0.99973,0.50599 2.04214,4.51976 2.04214,5.01727" fill="none" stroke="#677479" stroke-width="2" stroke-linecap="butt"/></g></g><g stroke="#3a2f41" stroke-linecap="butt"><path d="M167.41092,156.90426l18.87389,10.2582l-13.06943,19.88458c0,0 14.93465,1.18939 16.74559,6.98354c0.15312,0.48992 4.5839,-9.57252 11.22984,-11.88527c6.34673,-2.20863 20.2184,5.06369 20.2184,5.06369l-4.32879,10.66073l-9.34638,-0.63367c0,0 4.04023,1.74191 5.75298,3.01856c1.45418,1.08392 2.35252,2.19289 2.55189,2.58808c2.16315,4.2876 -8.67417,21.13392 -9.21911,23.29389c-1.07678,4.26801 -17.40647,-3.89906 -17.40647,-3.89906l-4.10633,3.49699c0,0 -27.58477,-10.18917 -39.78691,-20.2919c-4.5456,-3.76352 -3.08097,-6.43851 -2.8501,-10.12301c0.91991,-14.68073 24.74094,-38.41537 24.74094,-38.41537z" data-paper-data="{&quot;index&quot;:null}" fill="#e1e2db" stroke-width="0"/><path d="M164.73825,177.1713l-5.17944,-12.25646l7.82317,-7.93956l18.25093,10.80079c0,0 -5.05467,7.85348 -7.77592,11.03883z" data-paper-data="{&quot;index&quot;:null}" fill="#8c9ca0" stroke-width="0"/><path d="M167.58871,156.68297l18.3916,10.45915l-13.76841,19.9321c0,0 16.87772,2.73438 17.50828,6.51086c0.16628,0.99589 5.60475,-9.67254 10.93395,-11.49475c6.21392,-2.12473 19.97728,5.29079 19.97728,5.29079l-3.70553,10.78089c0,0 -9.46177,-2.35941 -9.8421,-1.58946c-0.54529,1.1039 9.58687,4.11844 9.3581,6.39661c-0.80222,7.98899 -8.7278,22.2011 -11.34706,23.88275c-2.35622,1.51278 -16.79257,-4.51691 -16.79257,-4.51691l-2.60306,3.68411c0,0 -30.57588,-12.82371 -39.26811,-19.02751c-18.08024,-12.9042 21.15765,-50.30865 21.15765,-50.30865z" data-paper-data="{&quot;index&quot;:null}" fill="none" stroke-width="2"/></g><g><path d="M272.44389,-26.07931c-11.57673,0.88541 -23.02563,5.17526 -23.05978,4.35885c-0.03415,-0.81641 10.89569,-17.51671 22.47242,-18.40212c11.57673,-0.8854 19.41645,14.37936 19.45061,15.19577c0.03415,0.81641 -7.28652,-2.0379 -18.86324,-1.15249z" data-paper-data="{&quot;index&quot;:null}" fill="#3a2f41" stroke="#3a2f41" stroke-width="2" stroke-linecap="butt"/><path d="M272.10095,-58.50388c0.50462,0.73311 -6.25598,3.56926 -13.76651,13.0719c-7.51053,9.50264 -12.92692,22.07331 -13.43153,21.3402c-0.50462,-0.73311 -2.75909,-24.448 4.75143,-33.95064c7.51053,-9.50264 21.94198,-1.19455 22.4466,-0.46144z" data-paper-data="{&quot;index&quot;:null}" fill="#3a2f41" stroke="#3a2f41" stroke-width="2" stroke-linecap="butt"/><g><path d="M243.60562,12.31348c0,0 6.36978,-22.12585 15.2371,-19.45486c30.13329,9.07665 36.01537,-4.60935 36.01537,-4.60935c0,0 9.66769,20.32612 -12.07108,43.37343c-2.80259,2.9713 -17.46836,18.87814 -22.72083,17.09774c-5.94561,-2.01535 2.94465,-17.40312 -0.6844,-23.3471c-0.29613,-0.48502 -0.67562,-0.90719 -1.15335,-1.25406c-8.22961,-5.97546 -14.62282,-11.80582 -14.62282,-11.80582z" data-paper-data="{&quot;index&quot;:null}" fill="#3a2f41" stroke="#3a2f41" stroke-width="2" stroke-linecap="round"/><path d="M190.61953,36.22708c0,0 32.71036,-60.96168 82.51464,-39.48486c4.02208,1.73442 11.20088,12.46378 19.02193,14.00342c15.93502,3.13695 26.53615,-5.01367 26.53615,-5.01367c0,0 14.37253,55.69507 -15.15607,67.6301c-0.98619,7.7 0.93819,2.77303 0.93819,2.77303c0,0 -22.08713,-26.34539 -70.97301,-18.14843c-14.38566,2.41213 -38.61824,-19.97069 -38.61824,-19.97069z" data-paper-data="{&quot;index&quot;:null}" fill="#3a2f41" stroke="#3a2f41" stroke-width="2" stroke-linecap="round"/><path d="M255.94185,31.45096c0,0 -18.89805,20.8014 -30.11687,18.5597c-38.12422,-7.6178 -45.40908,11.71602 -45.40908,11.71602c0,0 -14.19194,-18.07777 -10.86639,-37.28316c2.23592,-12.91268 16.77423,-26.60908 32.38957,-34.63352c20.29261,-10.42801 42.67007,3.34026 53.94809,15.73225c10.30832,11.32651 3.37968,24.2462 3.37968,24.2462z" data-paper-data="{&quot;index&quot;:null}" fill="#3a2f41" stroke="#3a2f41" stroke-width="2" stroke-linecap="round"/><path d="M218.27328,71.39894c0,0 -9.87594,3.97587 -21.92705,7.14251c-0.69955,0.18382 -1.31869,0.51687 -1.86912,0.97524c-6.7455,5.61748 13.23861,5.1367 5.52769,4.48831c-6.81199,-0.5728 -33.13743,5.53924 -35.07601,0.23142c-4.07274,-11.15105 -3.81907,-20.49107 -4.92959,-29.64134c-2.98961,-24.63344 17.75251,-45.64441 17.75251,-45.64441c0,0 11.14956,26.89338 31.40953,29.38054c11.35534,1.39399 9.11204,33.06774 9.11204,33.06774z" data-paper-data="{&quot;index&quot;:null}" fill="#3a2f41" stroke="#3a2f41" stroke-width="2" stroke-linecap="round"/><path d="M219.36661,68.56009c0,0 -8.12825,6.87554 -18.57577,13.66571c-0.60647,0.39416 -1.08972,0.90476 -1.46841,1.51278c-4.6407,7.45128 14.18193,0.72047 6.65735,2.52583c-6.64737,1.5949 -11.72266,6.66321 -15.22971,2.23243c-0.72414,-0.91485 -13.77552,7.0382 -14.60938,6.27249c-37.93777,-17.49106 -26.86665,-49.14744 -26.86665,-49.14744c0,0 8.93489,14.52127 43.55911,6.90347c11.21882,-2.2417 26.53347,16.03477 26.53347,16.03477z" data-paper-data="{&quot;index&quot;:null}" fill="#3a2f41" stroke="#3a2f41" stroke-width="2" stroke-linecap="round"/><path d="M207.81906,49.12609c0,0 7.9292,7.10421 16.09316,16.51731c0.47391,0.54641 1.04617,0.95477 1.70054,1.24612c8.01928,3.57058 28.37157,-10.42921 31.19578,-3.22487c2.49494,6.36447 -18.42172,27.79689 -22.32743,31.88058c-30.2951,31.67572 -57.15673,27.05989 -57.15673,27.05989c0,0 17.64668,-13.9858 4.85231,-50.69808c-3.765,-10.80332 25.64237,-22.781 25.64237,-22.781z" data-paper-data="{&quot;index&quot;:null}" fill="#3a2f41" stroke="#3a2f41" stroke-width="2" stroke-linecap="round"/><path d="M259.34355,52.44435c0,0 25.40353,2.46096 25.23797,13.90035c-0.56266,38.87378 2.25363,49.26271 2.25363,49.26271c0,0 -10.49692,3.51957 -49.23607,-16.98467c-4.99434,-2.64344 -20.51964,-10.10446 -20.15932,-16.93099c0.40787,-7.7274 24.13684,-0.86104 30.6207,-6.77859c0.52909,-0.48288 0.94335,-1.05089 1.22074,-1.71888c4.77847,-11.50752 10.06238,-20.74993 10.06238,-20.74993z" data-paper-data="{&quot;index&quot;:null}" fill="#3a2f41" stroke="#3a2f41" stroke-width="2" stroke-linecap="round"/><path d="M264.76152,57.36136c2.04825,6.38286 -21.71157,36.93433 -22.2578,42.96342c-0.44615,4.92439 -43.86965,-3.46052 -48.24451,-1.54688c-27.34943,10.60487 -45.27002,6.38256 -45.27002,6.38256c0,0 22.23166,-17.66556 27.51448,-44.02212c0.05893,-0.43957 -6.22916,4.82726 -6.06879,4.39356c2.85071,-7.7086 15.09783,-11.99896 15.09783,-11.99896c0,0 76.56679,-4.46717 79.2288,3.82842z" data-paper-data="{&quot;index&quot;:null}" fill="#3a2f41" stroke="#3a2f41" stroke-width="2" stroke-linecap="round"/><path d="M265.75796,66.10926c0,0 18.53153,7.22944 20.3854,12.91238c4.53322,13.94213 17.87379,29.87734 17.87379,29.87734c0,0 -5.44554,3.5464 -38.47919,-12.58579c-6.70614,-3.27499 -7.22657,-13.89548 -6.39266,-18.29747c0.56644,-2.99013 -42.99836,11.4595 -41.55132,9.29884c1.18232,-1.7654 4.14939,-29.02103 17.39147,-34.45982c4.50501,-1.85029 30.77248,13.25451 30.77248,13.25451z" data-paper-data="{&quot;index&quot;:null}" fill="#3a2f41" stroke="#3a2f41" stroke-width="2" stroke-linecap="round"/><path d="M276.88801,38.86414c0,0 18.66405,6.90667 18.79972,16.77422c0.31573,24.21359 20.73868,18.79505 20.73868,18.79505c0,0 -15.28892,27.51283 -47.42587,9.19681c-6.5241,-3.71832 -6.31991,-11.99203 -3.8297,-20.42786c1.6915,-5.73018 -53.16245,36.21367 -50.7537,31.7108c1.9681,-3.67914 14.87559,-55.14415 31.91454,-69.83004c5.79672,-4.9962 30.5563,13.78104 30.5563,13.78104z" data-paper-data="{&quot;index&quot;:null}" fill="#3a2f41" stroke="#3a2f41" stroke-width="2" stroke-linecap="round"/><g stroke-linecap="butt"><path d="M275.20189,73.09988c0,16.03403 -10.20857,28.65727 -38.63439,29.21581c-28.05478,0.55127 -43.13439,-16.18178 -43.13439,-32.21581c0,-16.03403 16.25473,-33.40075 48.67687,-32.51652c21.32747,0.58164 33.09189,19.48247 33.09189,35.51651z" fill="#e1e2db" stroke="none" stroke-width="0"/><path d="M275.70189,73.09988c0,16.03402 -15.76664,5.95017 -33.26396,6.07738c-17.49383,0.12719 -47.50481,9.95662 -47.50481,-6.07739c0,-5.73927 1.21499,-20.38208 4.63584,-26.05829c6.13613,-10.18166 22.22417,-10.02594 43.04102,-9.45822c21.32747,0.58164 33.09189,19.48247 33.09189,35.51651z" fill="#b8c1c0" stroke="none" stroke-width="0"/><path d="M275.70188,73.09988c0,16.03403 -10.20857,28.65727 -38.63439,29.21581c-28.05478,0.55127 -42.63439,-15.18178 -42.63439,-31.21581c0,-4.65586 1.95824,-20.38109 4.15871,-25.14121c5.37755,-11.63298 21.01054,-9.00278 44.01817,-8.37532c21.32747,0.58164 33.0919,19.48247 33.0919,35.51651z" fill="none" stroke="#3a2f41" stroke-width="2"/></g><path d="M193.04425,-1.49522c0,0 10.64519,0.14778 22.98409,1.88222c0.71625,0.10068 1.41598,0.03265 2.10076,-0.17752c8.39189,-2.57567 14.54075,-1.00876 21.40264,2.56799c6.06194,3.15978 4.37001,7.56766 4.10773,13.21234c-2.03435,43.78363 -28.39538,55.17948 -28.39538,55.17948c0,0 7.19382,-19.36789 -26.56902,-38.64372c-9.93539,-5.6723 4.36919,-34.02081 4.36919,-34.02081z" data-paper-data="{&quot;index&quot;:null}" fill="#3a2f41" stroke="#3a2f41" stroke-width="2" stroke-linecap="round"/><path d="M234.82225,24.03407c0,0 10.54433,-1.46934 23.00354,-1.62742c0.72325,-0.00918 1.40454,-0.18258 2.04949,-0.49425c7.90383,-3.81932 4.80917,-24.52106 12.13437,-22.02704c6.47124,2.20327 14.8779,28.13427 15.47525,33.75337c4.63341,43.58528 -14.15131,59.40362 -14.15131,59.40362c0,0 -5.80365,-36.30621 -38.22141,-51.89776c-10.68112,-4.09891 -0.28994,-17.11056 -0.28994,-17.11056z" data-paper-data="{&quot;index&quot;:null}" fill="#3a2f41" stroke="#3a2f41" stroke-width="2" stroke-linecap="round"/><path d="M185.57769,8.97317c0,0 10.01411,3.61374 21.11142,9.28003c0.64418,0.32892 1.3278,0.49297 2.04367,0.51778c8.77299,0.30405 14.07383,3.79185 19.39276,9.41215c4.69885,4.96509 1.66105,8.57948 -0.42901,13.82951c-16.21177,40.72252 -44.84854,42.89151 -44.84854,42.89151c0,0 13.12066,-15.95978 -12.50295,-45.19874c-7.54028,-8.60414 15.23266,-30.73224 15.23266,-30.73224z" data-paper-data="{&quot;index&quot;:null}" fill="#3a2f41" stroke="#3a2f41" stroke-width="2" stroke-linecap="round"/></g><path d="M243.1901,92.37104c-3.71205,2.3806 -5.23195,-1.04723 -5.23195,-1.04723" data-paper-data="{&quot;index&quot;:null}" fill="none" stroke="#3a2f41" stroke-width="1" stroke-linecap="round"/><path d="M275.8675,75.42174c0,6.48935 -5.8873,9.25 -15,9.25c-9.1127,0 -14.5,-2.26065 -14.5,-8.75c0,-6.48935 5.3873,-14.75 14.5,-14.75c9.1127,0 15,7.76065 15,14.25z" fill="#e1e2db" stroke="#3a2f41" stroke-width="1" stroke-linecap="butt"/><path d="M263.51304,74.71389c-2.86953,5.2934 -9.72629,9.19591 -13.34129,7.23623c-3.615,-1.95968 -4.21932,-7.83945 -1.34978,-13.13285c2.86953,-5.2934 10.72629,-9.19591 14.34129,-7.23623c3.615,1.95968 3.21932,7.83945 0.34978,13.13285z" fill="#3a2f41" stroke="#3a2f41" stroke-width="2" stroke-linecap="butt"/></g><path d="M251.53176,22.6307c0,0 1.966,-1.61281 4.44416,0.23845c6.03068,4.50509 12.81963,17.1949 12.81963,17.1949" fill="none" stroke="#e1e2db" stroke-width="1" stroke-linecap="round"/><g data-paper-data="{&quot;index&quot;:null}" stroke="#3a2f41" stroke-width="2"><path d="M195.7051,175.08652c-0.64336,0.85628 -10.22305,-0.55918 -10.09682,-1.03357c1.2717,-4.77905 5.94787,-12.56995 7.70414,-11.79113c1.60828,0.71318 2.60777,12.53845 2.39269,12.8247z" data-paper-data="{&quot;index&quot;:null}" fill="#e1e2db" stroke-linecap="butt"/><path d="M170.9712,146.17579c1.15415,1.53589 -5.38419,7.84579 -9.75434,10.1606c-0.43382,0.22979 -3.9693,-8.78545 -3.27983,-9.60506c0.2305,-0.27399 11.97724,-1.96203 13.03417,-0.55554z" fill="#e1e2db" stroke-linecap="butt"/><path d="M186.67149,175.23384c-0.83457,0.67127 -9.76984,-3.06171 -9.53056,-3.49037c2.41041,-4.31814 8.86265,-10.7161 10.37276,-9.52843c1.38288,1.08762 -0.5632,12.79441 -0.84218,13.01881z" data-paper-data="{&quot;index&quot;:null}" fill="#e1e2db" stroke-linecap="butt"/><path d="M171.93205,151.31529c1.62869,1.01901 -2.20788,9.25586 -5.45539,12.98552c-0.32235,0.37022 -6.85923,-6.77426 -6.51003,-7.78676c0.11674,-0.33848 10.47395,-6.1319 11.96542,-5.19875z" fill="#e1e2db" stroke-linecap="butt"/><path d="M172.61934,170.44016c-0.20848,0.44444 -8.45392,-4.63364 -8.39576,-5.70309c0.01944,-0.3575 8.39095,-8.76901 10.08114,-8.28061c1.84565,0.53333 0.4149,9.50649 -1.68538,13.9837z" fill="#e1e2db" stroke-linecap="butt"/><path d="M169.97533,169.08281c-0.02507,-0.35718 7.23831,-9.74221 8.97603,-9.46726c0.83211,0.13166 4.18763,-0.50028 4.25488,1.89878c0.0861,3.07194 -3.33417,9.54518 -4.19249,12.18598c-0.15175,0.46686 -8.96346,-3.5491 -9.03842,-4.61751z" data-paper-data="{&quot;index&quot;:null}" fill="#e1e2db" stroke-linecap="butt"/><path d="M208.77728,123.47399l4.28574,11.88363l-17.4332,35.33422c0,0 -14.40546,-4.08523 -22.04209,-9.95537c-7.63663,-5.87013 -10.52088,-15.07521 -10.52088,-15.07521c0,0 27.95631,-15.30818 33.24975,-23.86127c2.0961,-3.38686 20.17506,-7.44492 20.17506,-7.44492" fill="#9aac9c" stroke-linecap="round"/></g></g></g></svg>