<svg version="1.1" xmlns="http://www.w3.org/2000/svg" xmlns:xlink="http://www.w3.org/1999/xlink" width="168.85599" height="414.61161" viewBox="0,0,168.85599,414.61161"><g transform="translate(-156.14874,26.11978)"><g data-paper-data="{&quot;isPaintingLayer&quot;:true}" fill-rule="nonzero" stroke-linejoin="miter" stroke-miterlimit="10" stroke-dasharray="" stroke-dashoffset="0" style="mix-blend-mode: normal"><g stroke="#3a2f41"><path d="M223.84724,236.13317l18.34976,12.30231l-5.14486,18.52797l16.65965,4.05645l-18.02454,13.35553l-27.47187,-2.60452l-16.88708,-23.54849l6.55321,-116.57966l22.62402,3.05401z" data-paper-data="{&quot;index&quot;:null}" fill="#8c9ca0" stroke-width="2" stroke-linecap="butt"/><g data-paper-data="{&quot;index&quot;:null}" stroke-width="2.5"><path d="M190.50015,178.09641c0,0 3.18053,-27.40321 6.64911,-44.32068c3.79891,-18.52862 26.37911,-13.19703 26.8993,5.74031c0.70714,25.74302 2.94099,31.16224 2.69772,39.08047z" fill="#8c9ca0" stroke-linecap="butt"/><path d="M225.60719,167.76035l-35.89961,3.56726" fill="none" stroke-linecap="round"/></g></g><g stroke-linecap="butt"><path d="M198.85691,-5.27026c-0.54036,1.22985 -0.84028,2.58925 -0.84028,4.0187c0,4.46662 2.92842,8.24927 6.97006,9.53274c1.73701,4.98769 3.49571,9.21442 4.99843,11.20357c3.27361,4.33326 -2.02373,14.44091 -9.4797,16.48839c-7.45597,2.04747 -14.5208,-3.38416 -14.77123,-5.80848c-1.11838,-10.82648 0.10952,-20.58793 2.09369,-28.57984c4.65819,-0.85224 8.18875,-4.932 8.18875,-9.83638c0,-0.06697 -0.00066,-0.13378 -0.00197,-0.20044c0.26414,0.05368 0.53206,0.09693 0.80332,0.12934c0.48865,1.14258 1.18395,2.17571 2.03893,3.0524z" data-paper-data="{&quot;index&quot;:null}" fill="#3a2f41" stroke="none" stroke-width="NaN"/><path d="M238.50903,27.43902c0.17445,12.56647 -1.9408,31.14677 -6.85653,37.28213c-4.39931,5.4908 -4.19473,-19.83946 -20.11467,-15.11877c-17.8923,31.56754 -49.79873,25.72086 -49.79873,25.72086l2.99178,-12.70567l-7.46984,1.70072c0,0 2.16959,-25.52672 14.38904,-36.62556c8.91636,-10.7974 77.42316,-10.50724 79.93661,-8.49344z" data-paper-data="{&quot;index&quot;:null}" fill="#e1e2db" stroke="#3a2f41" stroke-width="2"/><path d="M273.95468,43.44809c4.68341,5.25057 -1.39695,7.12985 3.17274,21.32931c4.52513,14.06099 17.04516,18.02745 17.04516,18.02745c0,0 -15.8339,18.11629 -31.45495,22.27105c-16.03909,4.26594 -50.93721,7.88407 -71.90427,-13.98466c-2.25936,-2.5816 -1.75191,-8.26404 0.2091,-15.19852c6.04285,-21.3685 36.69453,-49.63968 37.85193,-50.67206c6.36042,-5.67337 35.75914,7.77747 45.08029,18.22744z" data-paper-data="{&quot;index&quot;:null}" fill="#8c9ca0" stroke="#3a2f41" stroke-width="2"/><path d="M271.44966,24.36547c6.05678,3.58028 4.97234,13.52918 13.63848,25.67022c8.58164,12.02263 15.98889,7.56877 15.98889,7.56877c0,0 -3.77892,15.96146 -13.11639,23.70403c-9.24753,7.66799 -23.9828,7.16111 -38.58734,-1.65887c-11.98595,-7.23857 -27.45567,-57.19168 -26.41032,-58.96009c4.33705,-7.33702 36.4322,-3.44969 48.48668,3.67595z" data-paper-data="{&quot;index&quot;:null}" fill="#e1e2db" stroke="#3a2f41" stroke-width="2"/><path d="M255.15854,21.60888c2.81747,1.56039 -15.82509,36.80423 -22.42749,49.15306c-6.8254,12.76591 -40.94576,36.50874 -40.94576,36.50874l-0.35631,-6.89379l-12.45576,10.02425c0,0 1.42052,-26.49575 -0.24184,-42.85467c-1.67873,-16.52003 -14.37228,-28.87505 -10.9635,-35.02997c3.80892,-6.87744 30.91205,-28.5172 47.72125,-27.2342c12.10151,0.92368 27.74431,8.32301 32.87099,11.16231z" data-paper-data="{&quot;index&quot;:null}" fill="#e1e2db" stroke="#3a2f41" stroke-width="2"/><g data-paper-data="{&quot;index&quot;:null}"><path d="M192.25312,75.5659c-2.24703,-15.6812 6.12007,-35.74464 26.00908,-39.17516c30.23535,-5.21508 44.09639,13.12624 46.34341,28.80744c2.24704,15.68119 -5.73485,30.53161 -32.0819,33.75677c-13.15889,1.6108 -24.44218,0.02706 -30.88618,-4.14144c-6.62895,-4.28817 -8.24501,-11.29608 -9.38442,-19.24761z" fill="#e1e2db" stroke="none" stroke-width="0"/><path d="M192.39594,75.56231c-2.24703,-15.6812 6.12007,-35.74464 26.00908,-39.17516c30.23536,-5.21508 44.0964,13.12624 46.34342,28.80744c2.24704,15.68119 -23.95467,9.62524 -40.35328,11.84811c-16.40187,2.22333 -29.75219,14.20081 -31.99923,-1.48038z" fill="#b8c1c0" stroke="none" stroke-width="0"/><path d="M231.0635,35.90217c21.55367,1.11082 31.8286,16.33772 33.7359,29.64806c2.24704,15.68119 -5.73487,30.53159 -32.08192,33.75676c-14.0327,1.71777 -24.70392,-0.05733 -31.15716,-4.82564c-5.82325,-4.30281 -8.04757,-11.12517 -9.11342,-18.5634h-0.00001c-2.02482,-14.13055 1.75415,-39.64325 38.49998,-40.03492" fill="none" stroke="#3a2f41" stroke-width="2"/></g><path d="M283.76368,58.14347c1.08303,35.57456 -14.69454,46.18611 -14.69454,46.18611l-0.3563,-6.89379l-12.45576,10.02425c0,0 1.72864,-27.5038 0.06628,-43.86272z" data-paper-data="{&quot;index&quot;:null}" fill="#e1e2db" stroke="#3a2f41" stroke-width="2"/><path d="M238.50926,22.49145c8.03724,-0.1082 19.97503,1.23719 24.0133,4.35652c3.61403,2.79164 19.75485,21.86325 23.13924,31.96247c3.35138,10.00072 -1.88419,8.65049 -1.88419,8.65049c0,0 -20.00704,3.74271 -40.34541,-5.29608c-7.70205,-3.42295 -13.19351,-12.25433 -16.19666,-16.41987c-7.24778,-10.05307 -3.00806,-15.62381 -2.13754,-16.75078c2.24033,-2.90033 7.13287,-6.41822 13.41125,-6.50275z" data-paper-data="{&quot;index&quot;:null}" fill="#e1e2db" stroke="#3a2f41" stroke-width="2"/><path d="M190.01,68.68262c-0.94623,0.02376 -1.39351,-0.47713 -1.60478,-0.94207c-1.65803,-0.90345 -3.3063,-1.73989 -4.54828,-3.24448c-1.57529,-1.90838 -2.75896,-4.42269 -3.65904,-7.07006c-0.17732,0.5364 -0.61263,0.89992 -1.38018,1.02836c0.04735,0.08372 0.09525,0.1678 0.14377,0.25226c0.75785,1.31946 1.85006,2.50458 2.24699,3.97351c0.52434,1.94039 0.99965,4.173 -1.18026,5.58774c0.07615,0.15302 0.14953,0.3072 0.21749,0.46339l0.40475,-0.17382c0.20854,-0.09533 0.43935,-0.15098 0.68305,-0.1571c0.41538,-0.01043 0.80059,0.12475 1.10672,0.35906c0.76282,0.17279 1.34095,0.84533 1.36148,1.66295c0.01629,0.64843 -0.32227,1.22331 -0.83877,1.53866l-1.61395,1.02434l-0.18762,-0.29561c-0.19278,0.06787 -0.38371,0.14798 -0.5737,0.23238l-0.34658,0.3274c-0.04635,-0.03581 -0.09317,-0.07111 -0.14039,-0.10601c-0.64668,0.29375 -1.29189,0.55787 -1.97294,0.47405c-0.11163,-0.01374 -0.22237,-0.0312 -0.33234,-0.05196l0.00231,0.09185l-1.99937,0.0502c-0.96619,0.02426 -1.76911,-0.73932 -1.79338,-1.70551c-0.01043,-0.41538 0.12475,-0.80059 0.35906,-1.10672c0.15418,-0.68063 0.70622,-1.21424 1.40419,-1.3359l0.79188,-0.1525c-0.08048,-0.1684 -0.16063,-0.34284 -0.23929,-0.52155c-1.0725,-0.45605 -1.85715,-1.56999 -2.14159,-3.22303c-0.14971,-0.87001 0.70334,-1.61147 1.09202,-2.41246l0.58506,-1.57631c0.10251,-0.29708 0.28292,-0.55855 0.5174,-0.75931c-0.79765,-1.24686 -1.55691,-2.43199 -1.9702,-3.68833c-0.90078,-0.98627 -1.35939,-2.44575 -1.82694,-3.52952l0.11094,-0.33383l-0.15081,0.00378l-0.05021,-1.99937c-0.00388,-0.15453 0.01239,-0.30488 0.04643,-0.44855c-0.36293,-0.62568 -0.73057,-1.26059 -1.15365,-1.89987c-0.60823,-0.91904 -1.73597,-1.56408 -1.99729,-2.63471c-0.109,-0.44657 -0.00019,-0.89458 0.1719,-1.33961c-0.29828,0.49526 -0.83542,0.83228 -1.45621,0.84788c-0.96619,0.02426 -1.76912,-0.73932 -1.79339,-1.70552c-0.00852,-0.33952 0.08023,-0.65888 0.24088,-0.93137l0.41824,-0.73848c-0.30456,0.12255 -0.68974,0.15616 -1.17104,0.00905c-1.67356,-0.51154 -1.16202,-2.18511 -1.16202,-2.18511c0.85477,-2.77685 2.14726,-6.4612 4.48019,-8.3955c0.9399,-0.7793 1.98638,-2.35415 3.12436,-1.91177c1.2753,0.49576 1.4368,2.41018 1.63891,3.76345c0.17169,1.14968 -0.41614,2.8846 -1.15262,4.61239c0.13705,-0.00331 0.24582,0.01164 0.3188,0.04701c2.80104,1.35764 1.01321,5.00385 0.32071,6.55649c-0.12377,0.27751 -0.66034,0.4593 -0.53668,0.73686c0.26092,0.58566 1.04769,0.7697 1.43541,1.28033c0.83193,1.09569 1.24628,2.46748 2.06261,3.57482c0.73564,0.99787 1.91723,1.66078 2.67933,2.61909c-0.36715,-1.54211 -0.65782,-3.04559 -0.89314,-4.41797c0,0 -0.2909,-1.72566 1.43475,-2.01655c1.72565,-0.2909 2.01655,1.43476 2.01655,1.43476c0.72223,4.36991 2.1226,10.49119 5.00123,14.0494c1.07065,1.32341 2.81892,1.98781 4.25941,2.80364l0.8954,1.81204c0,0 0.04394,1.74944 -1.70551,1.79338z" fill="#e1e2db" stroke="none" stroke-width="0.5"/><path d="M221.89679,43.65632c3.43484,3.85412 -14.56956,12.18558 -14.56956,12.18558l-1.40077,10.86677l-6.09615,-8.19809l-4.30172,17.13064c0,0 -15.50643,-7.58951 -14.97353,-24.76343c0,0 4.13153,-4.60815 7.13454,-5.13271c2.64946,-0.46281 13.14172,-16.67043 19.01824,-17.00366c9.63044,-0.54612 15.18894,14.91491 15.18894,14.91491z" data-paper-data="{&quot;index&quot;:null}" fill="#e1e2db" stroke="#3a2f41" stroke-width="2"/><path d="M243.10976,26.62385c1.14582,4.42057 -5.60463,12.45344 -9.11759,22.50864c-5.01784,28.33491 -23.64453,29.3602 -23.64453,29.3602c0,0 2.95285,-9.59381 -8.11939,-35.47824c0,0 4.9135,-7.96104 9.33905,-9.67645c10.30322,-3.9937 31.54247,-6.71413 31.54247,-6.71413z" data-paper-data="{&quot;index&quot;:null}" fill="#e1e2db" stroke="#3a2f41" stroke-width="2"/><path d="M193.85138,54.71674c1.77535,7.05169 0.68231,19.11552 0.68231,19.11552c0,0 -11.76121,-4.17521 -15.47048,-21.84838c-1.49366,-7.11669 2.79263,-7.82465 5.9168,-8.6112c1.77016,-0.44566 25.86946,-23.56977 27.63015,-20.95746c0.13243,0.19649 21.49736,-3.63296 36.17205,-3.2404c7.16992,0.1918 13.80205,3.14176 13.53201,4.6773c-0.29051,1.65199 -5.7819,40.46009 -11.99623,38.04957c-20.5854,-7.98501 -15.61718,-11.38105 -23.22025,-13.63935c-9.25078,-2.74772 -18.3452,-2.92255 -18.73365,-0.93458c-1.43484,7.34319 -2.67657,13.45151 -2.67657,13.45151c0,0 -2.66939,-12.74836 -5.25749,-13.07171c-3.59846,-0.44958 -6.80251,6.12004 -6.57866,7.00918z" fill="#e1e2db" stroke="none" stroke-width="0"/><path d="M282.99265,66.82393c0.06504,2.58998 -2.15778,16.86612 -4.63943,19.74719c-5.10091,5.92191 -12.80242,0.03024 -14.53569,0.07377c-2.57652,0.06471 -6.45376,-6.28211 -6.02472,-14.18655c0.91186,-16.79968 -10.98717,-21.73102 -2.21845,-21.95122c1.72067,-0.04321 0.43308,-29.96895 7.98369,-25.1077c0.50014,0.322 9.04831,8.2538 15.45237,17.54842c5.73477,8.32322 9.36074,18.0133 10.31425,19.83169c0.93502,1.78316 7.39368,-0.17132 6.93297,3.79635c-0.3712,3.19676 -8.0237,13.96164 -8.0237,13.96164l2.67207,2.33086c0,0 -10.72434,6.72049 -10.44638,5.97134c4.80131,-12.94034 2.5104,-22.91532 2.53299,-22.01577z" fill="#e1e2db" stroke="none" stroke-width="0"/><path d="M268.29227,24.87469c-0.36382,2.40991 -7.67555,7.50436 -15.02732,5.10957c-7.35177,-2.39479 -12.1694,-12.7397 -8.69624,-16.91471c5.45913,-6.56229 15.1462,-39.18933 15.1462,-39.18933c0,0 12.94755,22.04673 8.57736,50.99447z" fill="#3a2f41" stroke="none" stroke-width="NaN"/></g><path d="M279.3983,334.27419l-15.41054,-48.3467l22.31386,-7.11256l15.41055,48.3467z" fill="#8c9ca0" stroke="#3a2f41" stroke-width="2" stroke-linecap="butt"/><path d="M217.47046,328.08356l-10.18442,-49.71082l22.94346,-4.7005l10.18442,49.71082z" fill="#8c9ca0" stroke="#3a2f41" stroke-width="2" stroke-linecap="butt"/><path d="M175.8805,361.53987l34.67707,-35.71725l-12.50234,-18.74068l54.6571,6.61776l-1.31472,39.55712z" fill="#3a2f41" stroke="#3a2f41" stroke-width="2.5" stroke-linecap="butt"/><path d="M192.82713,267.38726l25.17229,-80.63802l33.38211,-0.67871l-16.20958,77.6327l11.20546,38.09153l-42.51408,-4.14706z" data-paper-data="{&quot;index&quot;:null}" fill="#3a2f41" stroke="#8c9ca0" stroke-width="1.5" stroke-linecap="butt"/><path d="M249.22433,270.67806l1.22005,-85.26711l33.65737,1.88197l4.59989,78.08094l15.36352,34.66383l-42.37676,5.37175z" data-paper-data="{&quot;index&quot;:null}" fill="#3a2f41" stroke="#8c9ca0" stroke-width="1.5" stroke-linecap="butt"/><path d="M245.54729,386.11977l18.32922,-63.72732l-7.38263,-12.28876l50.64592,3.64824l-0.88164,42.41758z" data-paper-data="{&quot;index&quot;:null}" fill="#3a2f41" stroke="#3a2f41" stroke-width="2.5" stroke-linecap="butt"/><path d="M235.96753,226.1655l1.07131,-15.12452l21.8972,-1.83497l1.47353,17.58411z" fill="#8c9ca0" stroke="#8c9ca0" stroke-width="2" stroke-linecap="butt"/><path d="M235.79915,224.14705l2.40464,-23.12452l20.56387,-0.83496l1.47353,24.5841z" fill="#3a2f41" stroke="#3a2f41" stroke-width="3.5" stroke-linecap="butt"/><path d="M225.27261,71.30605l31.65995,-0.65258c0,0 -4.3459,6.06259 -15.5397,6.32158c-11.85084,0.2742 -16.12025,-5.669 -16.12025,-5.669z" fill="#e1e2db" stroke="#3a2f41" stroke-width="1.5" stroke-linecap="butt"/><path d="M246.93105,76.45311l0.85503,-5.7852l6.43014,-0.01857l-0.45034,3.07821c0,0 -2.85216,1.77853 -3.83968,2.09923c-1.05433,0.3424 -2.99514,0.62633 -2.99514,0.62633z" fill="#3a2f41" stroke="none" stroke-width="0" stroke-linecap="butt"/><path d="M224.52807,98.16632c0,0 0.33448,-0.86652 0.84054,-0.93049c0.86577,-0.10944 1.76827,0.70583 1.76827,0.70583" fill="none" stroke="#3a2f41" stroke-width="1" stroke-linecap="round"/><path d="M238.50742,148.88022c0,-1.24264 1.00736,-2.25 2.25,-2.25c1.24264,0 2.25,1.00736 2.25,2.25c0,1.24264 -1.00736,2.25 -2.25,2.25c-1.24264,0 -2.25,-1.00736 -2.25,-2.25z" fill="#3a2f41" stroke="none" stroke-width="0.5" stroke-linecap="butt"/><g><g><g><path d="M216.9228,176.51293c-1.09959,-5.77869 -1.38952,-8.56086 -1.38952,-8.56086c-0.35287,-1.77625 -1.13456,-4.4595 -2.48042,-7.32756c-2.4686,-5.2606 -6.04096,-11.23823 -6.73418,-14.05431c-2.67929,-10.88421 -4.85724,-11.99139 3.14771,-22.50756c7.14048,-9.38053 18.02718,-11.44002 28.4642,-12.7361c5.56921,-0.69159 15.87671,2.19611 23.76333,4.49726c5.58481,1.62953 9.86743,2.35468 10.78522,4.0137c1.94403,7.78206 12.47319,32.2578 11.71159,74.92447c0,0 -18.6461,8.82389 -37.81152,10.33203c-9.82963,0.77352 -31.6103,-5.62934 -31.6103,-5.62934c0,0 3.14624,-17.73676 2.15392,-22.95172z" fill="#e1e2db" stroke="none" stroke-width="0" stroke-linecap="round"/><g stroke="none" stroke-linecap="butt"><g fill="none" stroke-width="1" font-family="sans-serif" font-weight="normal" font-size="12" text-anchor="start"><g><g/></g></g><g><g><g fill="none" stroke-width="1" font-family="sans-serif" font-weight="normal" font-size="12" text-anchor="start"/><path d="M264.11211,126.72963c-0.10201,-0.70565 -11.28451,-10.63405 -9.14417,-10.89076c2.14034,-0.25671 12.07028,9.2997 11.46708,8.85012c-3.68816,-2.74895 -7.10229,-4.83862 -7.10229,-4.83862c0,0 6.28866,6.2026 7.66789,7.99454c1.49378,1.94073 -2.8355,-0.74841 -2.88854,-1.11532z" fill="#ffffff" stroke-width="0"/></g><path d="M216.00461,120.24319c2.13073,0.32167 -9.37605,9.90493 -9.50144,10.60711c-0.06521,0.3651 -4.48166,2.92123 -2.92413,1.02688c1.43808,-1.74908 7.92967,-7.75727 7.92967,-7.75727c0,0 0.92768,-1.12971 -2.84996,1.50565c-0.61784,0.43102 5.2151,-5.70403 7.34584,-5.38236z" data-paper-data="{&quot;index&quot;:null}" fill="#ffffff" stroke-width="0"/></g></g><path d="M272.14578,119.83749c1.35055,2.44131 2.17105,10.56256 2.91928,13.21272c-0.02366,1.02243 -61.06666,28.29153 -61.06666,28.29153c0,0 -9.58481,-14.40201 -10.24955,-19.07634c-0.99406,-6.99004 0.01096,-18.17225 0.01096,-18.17225c0,0 17.9033,-10.78791 33.83741,-12.76663c5.88006,-0.73019 16.64159,2.12342 24.68154,4.6225c4.96739,1.54403 9.02156,2.3602 9.86701,3.88846z" fill="#8c9ca0" stroke="none" stroke-width="0" stroke-linecap="butt"/><g fill="none" stroke="none" stroke-width="1" stroke-linecap="butt" font-family="sans-serif" font-weight="normal" font-size="12" text-anchor="start"><g><g><g/></g></g><g><g><g/></g></g></g><path d="M205.00956,123.65246c0.2366,-0.33679 20.11468,-10.77711 32.58766,-12.32602c9.51297,-1.18132 34.54855,8.51096 34.54855,8.51096c0,0 7.0407,22.56472 9.31919,35.87479c1.85098,10.8127 3.33767,38.0616 3.33767,38.0616c0,0 -21.4953,10.0151 -38.07906,11.3201c-9.82963,0.77352 -32.60974,-5.74854 -32.60974,-5.74854c0.00898,-0.32725 4.18866,-14.72203 1.73608,-29.81776c-1.63375,-10.05578 -8.75309,-17.84107 -11.44309,-25.65914c-2.89767,-8.42165 0.07115,-20.3117 0.07115,-20.3117" fill="none" stroke="#3a2f41" stroke-width="2" stroke-linecap="round"/><g fill="none" stroke="none" stroke-width="1" stroke-linecap="butt" font-family="sans-serif" font-weight="normal" font-size="12" text-anchor="start"><g/></g></g><g fill="none" stroke="none" stroke-width="1" stroke-linecap="butt" font-family="sans-serif" font-weight="normal" font-size="12" text-anchor="start"><g><g><g/></g></g><g><g><g/></g></g></g></g><g><path d="M215.33437,120.14716c-0.56967,-0.19347 1.31423,-5.44816 1.69922,-5.91545c0.1752,-0.10972 0.3733,-0.56396 1.18999,-0.245c3.72959,1.45657 12.68754,6.26448 12.68754,6.26448l-6.19252,12.45648z" data-paper-data="{&quot;index&quot;:null}" fill="#8c9ca0" stroke="#3a2f41" stroke-width="4.5" stroke-linecap="round"/><path d="M230.95065,120.28623l-7.74563,-6.78391l7.96677,-7.28651c0,0 14.13072,1.45635 14.65383,1.04557c0.60889,-1.95251 4.15548,3.59284 4.54084,4.98066c-0.2894,3.06005 -7.87567,17.44118 -7.87567,17.44118z" fill="#3a2f41" stroke="#3a2f41" stroke-width="4.5" stroke-linecap="round"/><path d="M217.27103,119.23337c-0.10969,-0.48526 0.12314,-4.65293 1.08358,-5.38878c0.48361,-0.74167 10.84128,-8.81931 12.50364,-8.94573c2.62763,-0.19983 14.0108,1.9339 15.29115,2.62709c0.63838,0.13895 1.64127,3.39879 1.98525,4.74333" fill="none" stroke="#3a2f41" stroke-width="6.5" stroke-linecap="butt"/><g><path d="M215.33437,120.48049c-0.56967,-0.19347 1.31423,-5.44816 1.69922,-5.91545c0.1752,-0.10972 0.3733,-0.56396 1.18999,-0.245c3.72958,1.45658 12.68754,6.26448 12.68754,6.26448l-6.41562,12.21084z" data-paper-data="{&quot;index&quot;:null}" fill="#8c9ca0" stroke="#12161a" stroke-width="0" stroke-linecap="round"/><path d="M230.75068,120.48621c0,0 13.37639,-11.891 15.07495,-13.22484c0.6089,-1.95249 4.15548,3.59285 4.54084,4.98067c-0.28941,3.06005 -7.41183,17.56237 -7.41183,17.56237z" fill="#8c9ca0" stroke="#12161a" stroke-width="0" stroke-linecap="round"/><path d="M217.27103,119.23337c-0.10969,-0.48526 0.12314,-4.65293 1.08358,-5.38878c0.48361,-0.74167 10.84128,-8.81931 12.50364,-8.94573c2.62763,-0.19982 14.0108,1.9339 15.29115,2.62709c0.63838,0.13895 1.64127,3.39879 1.98525,4.74333" fill="none" stroke="#8c9ca0" stroke-width="2" stroke-linecap="butt"/></g></g><path d="M219.82943,215.33333c0,0 4.54118,-31.25648 1.1832,-47.03898c-1.47849,-6.94888 -7.93556,-17.86874 -10.56982,-25.60956c-3.25958,-9.57835 -2.61338,-20.68479 -2.61338,-20.68479l6.33333,-3c0,0 -1.73651,10.39595 1.92853,21.13811c2.53635,7.43396 8.7465,18.31343 10.53757,25.36787c4.4373,17.47708 1.20056,48.49402 1.20056,48.49402z" fill="#7a797e" stroke="#3a2f41" stroke-width="2" stroke-linecap="butt"/><path d="M260.96276,214.46667c0,0 -3.97789,-15.42081 -7.39211,-31.91886c-2.2984,-11.10625 -3.53961,-25.03776 -3.26794,-37.54767c0.38412,-17.6877 2.99338,-32.53348 2.99338,-32.53348l9,3.73333c0,0 -4.01531,14.304 -4.86821,30.41756c-0.60433,11.41752 1.67535,23.94522 3.71182,34.10743c3.36998,16.81661 7.82305,32.40835 7.82305,32.40835z" fill="#7a797e" stroke="#3a2f41" stroke-width="2" stroke-linecap="butt"/><path d="M230.75742,123.88021c0,0 0.18873,7.93561 2.28835,18.14634c2.73448,13.29817 7.6659,30.45535 8.97139,38.9672c1.50807,9.83262 1.24026,24.38646 1.24026,24.38646" fill="none" stroke="#3a2f41" stroke-width="2" stroke-linecap="round"/><path d="M236.00742,138.88021c0,-1.24264 1.00736,-2.25 2.25,-2.25c1.24264,0 2.25,1.00736 2.25,2.25c0,1.24264 -1.00736,2.25 -2.25,2.25c-1.24264,0 -2.25,-1.00736 -2.25,-2.25z" fill="#3a2f41" stroke="none" stroke-width="0.5" stroke-linecap="butt"/></g><path d="M228.62943,215.11829c0,2.8505 -2.23857,5.16129 -5,5.16129c-2.76143,0 -5,-2.31079 -5,-5.16129c0,-2.8505 2.23857,-5.16129 5,-5.16129c2.76143,0 5,2.31079 5,5.16129z" fill="#e1e2db" stroke="#3a2f41" stroke-width="2" stroke-linecap="butt"/><path d="M269.62943,214.78494c0,2.8505 -2.23858,5.16129 -5,5.16129c-2.76142,0 -5,-2.31079 -5,-5.16129c0,-2.8505 2.23858,-5.16129 5,-5.16129c2.76142,0 5,2.31079 5,5.16129z" fill="#e1e2db" stroke="#3a2f41" stroke-width="2" stroke-linecap="butt"/><path d="M290.21841,235.49505l19.26205,10.81823l-3.66898,18.87575l16.92748,2.73117l-16.91618,14.73422l-27.59168,-0.43183l-18.69003,-22.14469l-2.65283,-116.73356l22.79432,1.26189z" data-paper-data="{&quot;index&quot;:null}" fill="#e1e2db" stroke="#3a2f41" stroke-width="2" stroke-linecap="butt"/><g data-paper-data="{&quot;index&quot;:null}" stroke="#3a2f41" stroke-width="2.5"><path d="M249.849,169.32433c0.38139,-7.91278 2.25952,-23.65003 9.99283,-49.75729c1.51071,-4.83747 21.4408,3.62667 23.26797,14.89702c2.12481,17.13818 4.63005,40.86438 4.63005,40.86438c-1.86359,3.26246 -38.9618,-0.80969 -37.89085,-6.00411z" fill="#e1e2db" stroke-linecap="butt"/><path d="M251.5626,162.10073l35.50692,6.38482" fill="none" stroke-linecap="round"/></g></g></g></svg>