<svg version="1.1" xmlns="http://www.w3.org/2000/svg" xmlns:xlink="http://www.w3.org/1999/xlink" width="209.1756" height="421.39245" viewBox="0,0,209.1756,421.39245"><defs><linearGradient x1="272.83672" y1="304.67112" x2="272.83672" y2="444.23976" gradientUnits="userSpaceOnUse" id="color-1"><stop offset="0" stop-color="#ffffff" stop-opacity="0.26046"/><stop offset="1" stop-color="#ffffff" stop-opacity="0"/></linearGradient><linearGradient x1="235.1465" y1="304.29786" x2="235.1465" y2="443.86649" gradientUnits="userSpaceOnUse" id="color-2"><stop offset="0" stop-color="#ffffff" stop-opacity="0.26046"/><stop offset="1" stop-color="#ffffff" stop-opacity="0"/></linearGradient><linearGradient x1="255.23605" y1="225.27029" x2="255.23605" y2="370.80606" gradientUnits="userSpaceOnUse" id="color-3"><stop offset="0" stop-color="#3a2f41"/><stop offset="1" stop-color="#e1e2db" stop-opacity="0.29839"/></linearGradient></defs><g transform="translate(-153.28536,-24.99041)"><g data-paper-data="{&quot;isPaintingLayer&quot;:true}" fill-rule="nonzero" stroke-linejoin="miter" stroke-miterlimit="10" stroke-dasharray="" stroke-dashoffset="0" style="mix-blend-mode: normal"><g stroke-linecap="butt"><path d="M232.88632,76.73111c0,1.74594 -3.56196,26.82862 -3.92621,54.10573c-0.32169,24.0895 3.00063,49.8905 -3.02741,62.84035c-22.54115,-6.50472 -63.46008,-4.39871 -63.46008,-4.39871l14.02666,-18.16865c0,0 -8.36118,-3.39087 -13.35897,-10.88998c-5.17387,-7.7633 -8.66454,-21.18601 -8.66454,-21.18601c0,0 26.85004,10.98549 27.72213,8.07354c0.40384,-1.34844 -6.28325,-82.63 -5.36982,-90.02099c0.33711,-2.72769 27.54115,-12.47304 41.97013,-12.47304c2.69239,0 7.78837,11.00852 7.78837,11.00852l-0.39634,-11.65776c0,0 10.30621,6.84404 10.30621,24.10266z" fill="#e1e2db" stroke="none" stroke-width="0"/><path d="M232.88632,77.21246c0,1.64231 -3.15207,20.10703 -3.2604,44.67448c-0.04876,11.0569 2.67719,24.44261 3.12172,36.55971c0.22995,6.26799 -0.97072,11.64977 -1.75228,17.34708c-0.45608,3.32461 -55.18477,-29.33988 -55.18477,-29.33988c0,0 6.15709,0.80846 6.38734,0.0396c0.40384,-1.34844 -6.28325,-82.25674 -5.36982,-89.64772c0.33711,-2.72769 27.54115,-12.47304 41.97013,-12.47304c2.69239,0 7.78837,11.00852 7.78837,11.00852l-0.39634,-11.65776c0,0 10.06555,4.43726 10.06555,23.62133z" fill="#8c9ca0" stroke="none" stroke-width="0"/><path d="M232.49819,76.7059c0.06917,7.17537 -4.7871,19.04427 -4.57816,31.74797c0.3925,23.86415 7.20065,52.47103 4.77962,71.61705c-0.64919,5.13397 -5.42627,9.9341 -7.02362,13.3656c-22.54115,-6.50472 -63.46008,-4.39872 -63.46008,-4.39872l13.65339,-17.79539c0,0 -5.30152,-0.6551 -11.93944,-9.36246c-7.79029,-10.21898 -9.71079,-23.0868 -9.71079,-23.0868c0,0 26.85004,10.61223 27.72213,7.70027c0.40384,-1.34844 -6.28325,-82.25673 -5.36982,-89.64772c0.33711,-2.72769 27.54115,-12.47304 41.97013,-12.47304c2.69239,0 7.78837,11.00852 7.78837,11.00852l-0.39635,-11.65776c0,0 9.82488,8.52876 10.30622,20.7332c0.13951,3.53733 -3.74161,12.24927 -3.74161,12.24927z" fill="none" stroke="#3a2f41" stroke-width="1.5"/></g><g data-paper-data="{&quot;index&quot;:null}" stroke="#3a2f41"><g><g fill="#3a2f41"><path d="" stroke-width="2" stroke-linecap="round"/><path d="" stroke-width="2" stroke-linecap="round"/><path d="" stroke-width="1.5" stroke-linecap="butt"/></g><g fill="#677479" stroke-width="1.5" stroke-linecap="butt"><path d="M285.76553,210.99662c-10.01328,-23.42648 -24.00223,-44.67909 -24.9626,-48.01516c-1.95163,-6.7793 0.4865,-14.30152 10.5388,-9.55814c10.23849,6.70873 19.51058,26.4425 32.35158,42.55111c12.46397,15.63564 19.58827,30.61289 23.20075,40.54346c-5.38628,1.9619 -15.41471,5.49883 -22.29716,1.76671c-9.57118,-5.19014 -15.56256,-19.64053 -18.83136,-27.28799z"/></g></g><path d="" fill="#8c9ca0" stroke-width="1.5" stroke-linecap="butt"/><path d="" fill="#3a2f41" stroke-width="1.5" stroke-linecap="butt"/></g><path d="M256.85996,304.67112l31.95347,10.26535l-10.72891,129.30327z" fill="#3a2f41" stroke="url(#color-1)" stroke-width="0.5" stroke-linecap="butt"/><path d="M233.42858,443.86649l-14.25881,-129.30327l31.95347,-10.26535z" data-paper-data="{&quot;index&quot;:null}" fill="#3a2f41" stroke="url(#color-2)" stroke-width="0.5" stroke-linecap="butt"/><g stroke-linecap="round"><g><path d="M195.8446,354.52222l30.03395,-127.5919l13.04744,-14.52224l25.04792,-0.15508l12.88648,13.66935l37.7671,125.70396c0,0 -16.23995,18.95954 -45.95186,19.17515c-44.28202,0.32133 -72.83103,-16.27924 -72.83103,-16.27924z" fill="#3a2f41" stroke="none" stroke-width="0"/><path d="M195.8446,354.52222c0,0 0.62529,-2.69964 1.3771,-5.94549c3.39965,-14.67764 23.94243,-99.30642 27.66147,-119.08522c0.78399,-4.16945 13.38107,-16.73574 13.38107,-16.73574l25.79083,-0.16828c0,0 12.32329,12.59722 13.55184,16.16665c2.86581,8.3264 37.02056,122.87218 37.02056,122.87218c0,0 -14.74687,18.95954 -44.45879,19.17515c-44.28202,0.32133 -74.32409,-16.27924 -74.32409,-16.27924z" fill="none" stroke="url(#color-3)" stroke-width="2"/><path d="M278.14571,230.28219l-22.18539,9.53318l-30.93072,-7.47052" fill="none" stroke="#e1e2db" stroke-width="1"/></g><path d="M311.01895,343.53462c0,0 -33.77643,39.1223 -113.84637,3.64793" fill="none" stroke="#e1e2db" stroke-width="1"/></g><g stroke="#3a2f41"><g><g fill="#3a2f41"><path d="M187.38589,306.89617l28.35037,21.49148l-31.6274,-5.55548z" stroke-width="2" stroke-linecap="round"/><path d="M186.63774,312.6005l21.65224,28.2278l-29.02966,-13.72713z" stroke-width="2" stroke-linecap="round"/><path d="M187.02426,236.48805l3.77832,3.99386l4.97109,-13.30689l2.38165,10.43529l4.38738,-2.41708c0,0 -2.78672,26.14943 -3.09185,34.21556c-0.19559,5.17055 -0.17879,8.7232 -0.17879,8.7232l19.61532,14.12462l-0.10581,30.06728l-7.21639,-19.08836c0,0 -8.45246,-5.9172 -10.72116,-4.257c-1.24808,0.91331 -10.99422,28.07001 -10.99422,28.07001l6.02274,25.65533l-19.87763,-22.23622c0,0 0.24239,-7.85258 1.70233,-17.82407c1.45994,-9.9715 -1.27254,13.80856 -1.34949,15.41415l-5.63474,-11.53322c0,0 3.04226,-15.18273 3.7567,-20.4522c2.08454,-15.37464 12.55453,-59.58431 12.55453,-59.58431z" stroke-width="1.5" stroke-linecap="butt"/></g><g fill="#9aac9c" stroke-width="1.5" stroke-linecap="butt"><path d="M175.35629,255.60045c0,0 13.81295,-25.11036 24.42002,-52.13988c7.27824,-18.54684 10.08127,-39.1836 17.74138,-48.48573c8.07875,-7.48472 12.66325,-1.54538 12.86799,5.1461c0.10075,3.29284 -6.70704,26.8096 -9.09388,50.98739c-2.46353,24.9546 -0.5102,50.54018 -0.5102,50.54018l-12.36567,14.39699l-27.19163,-4.48457z"/></g></g><path d="M176.7078,278.41866l3.14607,-14.94383l33.78602,7.11284l-3.14607,14.94383z" fill="#e1e2db" stroke-width="1.5" stroke-linecap="butt"/><path d="M185.21423,280.14694l3.31987,-14.16476" fill="none" stroke-width="1.5" stroke-linecap="round"/><path d="M184.52861,271.74386c-0.32134,1.68084 -1.11714,2.9411 -1.77747,2.81485c-0.66032,-0.12624 -0.93514,-1.59116 -0.6138,-3.272c0.32134,-1.68084 1.11714,-2.94109 1.77747,-2.81485c0.66032,0.12624 0.93514,1.59116 0.6138,3.272z" fill="#3a2f41" stroke-width="1.5" stroke-linecap="butt"/></g><g><g><path d="M269.32567,192.25976l-4.21132,12.10513l6.5588,14.70201l-17.50537,10.09834l-23.09675,-9.50433l5.62184,-14.85052c0,0 -4.96508,-12.50227 -4.97925,-12.50971" fill="#9aac9c" stroke="#3a2f41" stroke-width="1.5" stroke-linecap="round"/><g><path d="M276.13579,167.54276c-0.11214,1.45066 -0.27587,2.92406 -0.49327,4.37096c-1.24435,8.28232 -6.69482,20.83243 -6.69482,20.83243l-37.27324,-0.59434c0,0 -16.46832,-25.9217 -12.83196,-36.67323c1.27705,-3.77583 18.45614,-11.23277 26.01817,-11.19705c4.37318,0.02065 13.19145,0.32147 19.83626,2.5763c5.31914,1.80499 9.48474,4.92004 9.48474,4.92004" fill="#677479" stroke="none" stroke-width="0" stroke-linecap="round"/><path d="M274.27404,155.16152l-1.27637,3.76078c0,0 11.77108,14.73756 14.21634,20.09637c0.59433,1.30247 -5.15211,8.44145 -8.19331,11.25049c-4.40207,4.42886 -9.07401,6.23557 -10.80205,7.20892l-33.50517,-0.39849c-1.60273,-0.90041 -7.9276,-4.52369 -10.88568,-7.25597c-3.0412,-2.80904 -7.6533,-9.80963 -7.69563,-10.7528c-0.14398,-3.20802 11.56337,-20.38938 11.56337,-20.38938l-1.33253,-3.70863" fill="#9aac9c" stroke="none" stroke-width="0" stroke-linecap="round"/><path d="M274.27404,155.41035l-1.27637,3.76078c0,0 11.77108,14.73756 14.21634,20.09637c0.25684,0.56286 -2.05193,4.13809 -2.05193,4.13809l-60.26608,-20.25647l2.79954,-4.21886l-1.33253,-3.70863" fill="#677479" stroke="none" stroke-width="0" stroke-linecap="round"/><path d="M274.27404,155.04744l-1.27637,3.76079c0,0 11.77108,14.73756 14.21634,20.09637c0.59433,1.30247 -5.15211,8.44145 -8.19331,11.25049c-4.40207,4.42886 -9.07401,6.23557 -10.80205,7.20892l-33.50517,-0.39849c-1.60273,-0.90041 -7.9276,-4.52369 -10.88568,-7.25597c-3.0412,-2.80904 -7.6533,-9.80962 -7.69563,-10.7528c-0.14398,-3.20802 11.56337,-20.38938 11.56337,-20.38938l-1.33253,-3.70863" fill="none" stroke="#3a2f41" stroke-width="1.5" stroke-linecap="round"/><path d="M273.95384,160.02926c0,0 10.31873,7.8642 9.84268,8.11325c-0.4439,0.23222 -19.00454,12.31051 -19.00454,12.31051l0.11089,7.89804l-10.86468,2.51808l18.01893,-41.75658l8.23723,4.32964z" data-paper-data="{&quot;index&quot;:null}" fill="#8c9ca0" stroke="none" stroke-width="0" stroke-linecap="butt"/><path d="M217.90024,154.62616l8.17431,-4.53838l25.33086,40.7143l-12.68863,-2.88553l-1.0094,-7.83406c0,0 -20.08487,-9.32632 -20.55721,-9.49329c-0.50654,-0.17907 8.5937,-9.42611 8.5937,-9.42611z" fill="#e1e2db" stroke="#3a2f41" stroke-width="0" stroke-linecap="butt"/><path d="M268.81325,177.98718l-4.02128,2.46583l0.1109,7.89804l-10.86469,2.51808l6.97262,-16.15816z" data-paper-data="{&quot;index&quot;:null}" fill="#e1e2db" stroke="none" stroke-width="0" stroke-linecap="butt"/><path d="M217.90024,154.62616l8.17431,-4.53838l9.91391,15.93463l-11.66085,-3.40931l1.41627,-1.45z" fill="#8c9ca0" stroke="none" stroke-width="0" stroke-linecap="butt"/><path d="M217.90024,154.88285l8.17431,-4.53837l25.33086,40.7143l-12.68863,-2.88553l-1.0094,-7.83406c0,0 -20.08487,-9.32632 -20.55721,-9.49329c-0.50654,-0.17907 8.5937,-9.42611 8.5937,-9.42611z" fill="none" stroke="#3a2f41" stroke-width="1.5" stroke-linecap="butt"/><path d="M273.95383,160.02926c0,0 10.31874,7.8642 9.84269,8.11325c-0.4439,0.23222 -19.00454,12.31051 -19.00454,12.31051l0.1109,7.89804l-10.86469,2.51808l18.01894,-41.75658l8.23723,4.32964z" data-paper-data="{&quot;index&quot;:null}" fill="none" stroke="#3a2f41" stroke-width="1.5" stroke-linecap="butt"/><path d="M252.48514,191.16419c-13.90109,-15.9726 -26.4074,-41.39722 -26.4074,-41.39722c0,0 6.83285,-3.61875 9.80112,-4.94234c3.41687,-1.52363 13.46284,-4.61295 13.46284,-4.61295l18.16014,7.07727c0,0 -1.78718,18.11418 -4.51837,26.09409c-1.51425,4.42428 -10.49833,17.78116 -10.49833,17.78116z" data-paper-data="{&quot;index&quot;:null}" fill="#e1e2db" stroke="none" stroke-width="0" stroke-linecap="butt"/><path d="M261.58853,175.26053l-26.54892,-9.88952l-9.2107,-15.60402c0,0 7.0817,-3.61875 10.04997,-4.94234c3.41687,-1.52363 13.46285,-4.61295 13.46285,-4.61295c0,0 11.21595,3.95042 15.51864,5.84774c3.06354,1.35091 7.86722,4.4645 7.86722,4.4645z" data-paper-data="{&quot;index&quot;:null}" fill="#8c9ca0" stroke="none" stroke-width="0" stroke-linecap="butt"/><path d="M242.45704,175.89289c-0.18404,-0.20066 5.06558,-16.48332 5.06558,-16.48332l6.49004,-0.11769l7.94431,15.46405l-9.09586,15.73526z" data-paper-data="{&quot;index&quot;:null}" fill="#3a2f41" stroke="#3a2f41" stroke-width="1.5" stroke-linecap="butt"/><path d="M247.75893,157.0188l-0.17681,-7.04274l5.94989,-0.14937l0.17682,7.04274z" data-paper-data="{&quot;index&quot;:null}" fill="#3a2f41" stroke="#3a2f41" stroke-width="1.5" stroke-linecap="butt"/><path d="M240.93985,165.29176v-2.7373h7.71418v2.7373z" fill="#8c9ca0" stroke="#3a2f41" stroke-width="1.5" stroke-linecap="butt"/><path d="M225.58007,150.01581c0,0 7.33054,-3.86759 10.29881,-5.19119c3.41687,-1.52363 13.46284,-4.61295 13.46284,-4.61295c0,0 11.96257,4.04484 16.27829,5.81012c2.92366,1.19589 7.10758,3.75559 7.10758,3.75559c0,0 -10.60837,29.44359 -19.74475,40.88912c-1.94415,2.43552 -27.40276,-40.65069 -27.40276,-40.65069z" data-paper-data="{&quot;index&quot;:null}" fill="none" stroke="#3a2f41" stroke-width="1.5" stroke-linecap="butt"/><g data-paper-data="{&quot;index&quot;:null}" fill="none" stroke="none" stroke-width="1" stroke-linecap="butt" font-family="sans-serif" font-weight="normal" font-size="12" text-anchor="start"><g/></g></g><path d="M235.70077,199.89656l-4.34037,-9.15723l21.17823,4.20417l17.14382,-4.70185l-2.57891,6.28609l-1.4026,3.41885z" fill="#9aac9c" stroke="#3a2f41" stroke-width="0" stroke-linecap="butt"/><path d="M254.53073,228.64105l-2.48845,-21.89831l0.24884,-15.42836" fill="none" stroke="#3a2f41" stroke-width="1.5" stroke-linecap="round"/><g fill="#9aac9c" stroke="#3a2f41" stroke-width="1" stroke-linecap="butt"><path d="M258.47373,205.34383c0,0.96998 -0.82174,1.7563 -1.83541,1.7563c-1.01367,0 -1.83542,-0.78633 -1.83542,-1.7563c0,-0.96998 0.82174,-1.75631 1.83542,-1.75631c1.01367,0 1.83541,0.78633 1.83541,1.75631z"/><path d="M258.87315,211.2468c0,1.0037 -0.85899,1.81734 -1.91859,1.81734c-1.05961,0 -1.91858,-0.81365 -1.91858,-1.81734c0,-1.0037 0.85898,-1.81735 1.91858,-1.81735c1.05961,0 1.91859,0.81366 1.91859,1.81735z"/></g></g><g fill="none" stroke="#3a2f41" stroke-width="3" stroke-linecap="butt"><path d="M243.6123,157.5581l-6.84707,-13.45845l1.43279,-3.43385c0,0 9.83593,-3.79417 11.23971,-3.88198c1.43493,-0.08976 11.95462,4.04551 11.95462,4.04551l2.10025,3.27099l-4.17892,13.30002l-8.07216,-7.46368z"/></g><g stroke="none" stroke-width="0" stroke-linecap="butt"><path d="M243.463,157.5581l-6.84706,-13.45845l1.43278,-3.43385c0,0 9.83591,-3.79417 11.2397,-3.88198c1.43493,-0.08976 11.95462,4.04551 11.95462,4.04551l2.10025,3.27099l-4.17892,13.30001l-8.07216,-7.46368z" fill="#8c9ca0"/><path d="M250.75086,147.98409l-10.54681,-6.36973l9.10423,-4.10427l10.11613,3.95945z" fill="#3a2f41"/></g></g><g><path d="M258.67748,127.66112c-1.52017,0.05378 -1.19209,-20.19135 -2.68275,-20.19135c-4.04944,0 -13.0613,16.40765 -13.0613,16.40765c0,0 -4.48673,4.29375 -8.1397,5.3295c-12.35619,3.5034 -27.64772,14.90638 -27.64772,14.90638c0,0 -4.41513,-7.21909 2.57859,-19.99549c-6.1067,2.7661 -19.46641,-4.04279 -24.73274,-6.76673c6.14633,-6.43682 11.10813,-18.25061 16.94489,-22.84602c3.63634,-2.86295 5.66838,-3.45015 5.66838,-3.45015c0,0 -2.03177,-0.2862 -4.28521,-0.76676c-4.58412,-0.9776 -8.08482,-2.67687 -8.08482,-2.67687c0,0 5.50645,-3.35104 13.27039,-8.61728c7.15367,-4.8523 20.89556,-12.33076 30.55863,-13.83191c7.00164,-1.0877 13.97249,2.08698 20.41263,3.19401c16.75772,2.88057 25.13712,7.80668 36.54643,4.68362c4.21103,14.83964 -3.1121,21.8687 -3.1121,21.8687l20.02147,11.44626c0,0 -6.10877,12.79076 -23.24147,13.81129c3.09747,11.61831 -1.38056,19.47442 -1.38056,19.47442c0,0 -20.64816,-12.29712 -29.63305,-11.97926z" fill="#e1e2db" stroke="#3a2f41" stroke-width="1.5" stroke-linecap="butt"/><path d="M279.90684,109.0666l4.04532,29.66563c0,0 9.43682,7.93274 9.43906,11.46172c0.00155,2.44177 -15.28229,11.68646 -15.28229,11.68646c0,0 12.08533,7.01837 9.46783,9.24809c-2.61852,2.2306 -13.28841,5.58472 -13.28841,5.58472l4.94428,-6.74219c0,0 -14.38348,-5.48085 -14.15859,-8.31537c0.26355,-3.32166 6.74219,-9.6638 6.74219,-9.6638c0,0 -3.70138,-1.31684 -5.16901,-4.49479c-1.03872,-2.24921 4.94427,-8.31537 4.94427,-8.31537l0.67422,-29.66562" data-paper-data="{&quot;index&quot;:null}" fill="#e1e2db" stroke="#3a2f41" stroke-width="1.5" stroke-linecap="round"/><g stroke-linecap="butt"><path d="M275.45441,112.01346c0,5.76981 1.65459,10.67657 -2.77508,14.40095c-4.30606,3.62046 -14.55431,6.13681 -24.41582,6.33219c-13.3913,0.26533 -22.15501,-2.99471 -25.74582,-9.4019c-1.7037,-3.03999 -1.44511,-7.66975 -1.44511,-11.33124c0,-11.37864 8.273,-25.83197 31.09173,-25.20448c15.01029,0.41276 23.2901,13.82585 23.2901,25.20448z" fill="#e1e2db" stroke="none" stroke-width="0"/><path d="M276.48264,108.50989c-0.9017,2.06402 4.76268,11.69625 -9.02738,11.57248c-13.60244,-0.12208 -46.96146,4.46166 -46.96146,-8.67079c0,-11.37864 8.67373,-25.15492 31.49249,-24.52744c15.01029,0.41276 23.2901,10.92418 23.2901,22.3028z" fill="#8c9ca0" stroke="none" stroke-width="0"/><path d="M256.41836,87.29826c12.39193,2.57276 20.34252,23.5954 20.34252,23.5954c0.18664,4.46417 -0.7909,11.56336 -4.62563,15.21605c-4.24959,4.04787 -13.35534,6.42855 -23.87173,6.63691c-10.04096,0.00252 -19.3611,-2.29331 -23.94086,-7.24098c-3.23795,-3.49809 -3.25007,-8.77934 -3.25007,-13.49216c0,-9.65828 5.9605,-21.53182 21.71756,-24.51766" fill="none" stroke="#3a2f41" stroke-width="2"/></g><path d="M276.62568,108.71161c0,0 -5.06214,2.10569 -11.20198,-0.54799c-7.24713,-3.13227 -7.92328,-8.40427 -7.92328,-8.40427" fill="none" stroke="#3a2f41" stroke-width="3.5" stroke-linecap="round"/><path d="M254.5962,116.54099c0,0 0.96723,-7.46301 0.96723,-13.68626c0,-6.22324 1.00326,-8.26977 1.64429,-8.26977c0.64102,0 1.64428,1.56292 1.64428,7.78616c0,6.22324 -4.2558,14.16987 -4.2558,14.16987z" fill="#3a2f41" stroke="none" stroke-width="0" stroke-linecap="butt"/><path d="M270.4626,83.02308c7.23498,7.11637 9.14373,18.89766 6.56973,21.51457c-0.69594,0.70753 0.1755,6.1393 -0.04724,4.50755c-0.59242,-0.13045 -1.42694,-0.03007 -2.33778,-0.16014c-1.85696,-0.26519 -4.03109,-0.77655 -5.11729,-1.1707c-3.95871,-1.43652 -8.29586,-2.98896 -12.04248,-6.67417c-7.23498,-7.11637 -7.88094,-16.50992 -5.30693,-19.12682c2.574,-2.61689 11.04705,-6.00665 18.28201,1.10974z" data-paper-data="{&quot;index&quot;:null}" fill="#e1e2db" stroke="#3a2f41" stroke-width="1" stroke-linecap="butt"/><path d="M242.10479,102.35692c0,-6.22324 1.00326,-7.78616 1.64428,-7.78616c0.64102,0 1.64428,2.04653 1.64428,8.26978c0,6.22325 0.96723,13.68626 0.96723,13.68626c0,0 -4.2558,-7.94661 -4.2558,-14.16986z" data-paper-data="{&quot;index&quot;:null}" fill="#3a2f41" stroke="none" stroke-width="0" stroke-linecap="butt"/><path d="M252.4825,104.60994c0,6.22324 -1.64428,12.81574 -1.64428,12.81574c0,0 -2.1279,-8.04334 -2.1279,-14.26659c0,-6.22324 1.48687,-8.26977 2.1279,-8.26977c0.64102,0 1.64428,3.49737 1.64428,9.72062z" fill="#3a2f41" stroke="none" stroke-width="0" stroke-linecap="butt"/><path d="M276.39984,109.27621c0,0 -5.06214,2.10569 -11.20198,-0.54798c-7.24713,-3.13227 -7.92328,-8.40427 -7.92328,-8.40427" fill="none" stroke="#3a2f41" stroke-width="3.5" stroke-linecap="round"/><path d="M255.92797,88.1279c2.22255,5.15524 -6.81124,16.58094 -17.76615,21.30385c-9.72821,2.91451 -16.13426,2.13329 -17.51592,2.18919c-0.7646,-0.01028 -0.05393,0.25205 0.65909,0.22536c0.60543,-0.02266 1.19159,-0.07889 1.09914,0.34024c-0.37654,1.70711 0.11898,3.91831 0.31585,4.80495c0.95641,4.30748 -8.37878,-6.6446 -9.46064,-9.15402c-2.22255,-5.15524 4.85644,-13.16308 15.81135,-17.886c10.9549,-4.7229 24.63471,-6.97882 26.85726,-1.82357z" fill="#e1e2db" stroke="#3a2f41" stroke-width="2.5" stroke-linecap="butt"/><path d="M243.94413,98.91378c0,-8.13302 4.09211,-14.41033 8.01467,-14.41033c3.86109,0 7.78446,5.86673 7.882,13.8235c0.00155,0.12672 -1.83557,-0.19528 -1.97177,0.602c-1.25499,7.34589 1.01957,14.04971 1.01957,14.04971c0,0 -14.94447,-3.60195 -14.94447,-14.06488z" fill="#e1e2db" stroke="#3a2f41" stroke-width="2" stroke-linecap="butt"/><g stroke="#3a2f41" stroke-width="1"><path d="M238.19795,115.32548c5.91234,0.97201 8.01872,3.02086 8.01872,3.02086l-20.74146,-1.19318c0,0 6.81041,-2.79969 12.72274,-1.82769z" fill="#e1e2db" stroke-linecap="butt"/><path d="M240.62017,116.08381l0.09775,1.44961" fill="none" stroke-linecap="round"/></g><path d="M219.48865,113.91351c0.9743,1.18864 2.7147,1.49304 2.9267,3.49226c0.07143,0.67359 1.13453,2.34932 0.79136,2.8569c-2.48766,3.67951 -6.11392,-3.5993 -7.37441,-5.72172c-0.30632,-0.51577 -2.1356,-2.31472 -2.01329,-2.75695c-0.03535,-0.13502 -0.05416,-0.27661 -0.05416,-0.42253c0,-0.23227 0.04764,-0.45355 0.13382,-0.65489c-0.89547,-0.67618 -2.58135,-2.28275 -2.84294,-4.11667c-0.39059,-2.73839 1.0175,-5.98375 1.90187,-7.39552c0.54957,-0.87732 2.12024,-2.18523 3.47498,-2.7956c0.00173,-0.47413 0.20196,-0.9021 0.52303,-1.20735c0.89247,-1.26599 2.67498,-2.40786 3.62165,-3.16674c4.52661,-3.62874 9.99534,-4.61314 15.51965,-5.97535c1.06408,-0.26237 1.73273,-1.41749 2.67171,-1.97748c0.28465,-0.16976 1.22313,0.61848 1.40163,0.39351c0.07049,-0.14274 0.15366,-0.27291 0.2629,-0.37719c0.05263,-0.05024 0.1113,-0.09445 0.17753,-0.13119c0.00285,-0.00157 0.01766,-0.0047 0.04356,-0.00921c0.24134,-0.12853 0.51759,-0.20148 0.81112,-0.20148c0.11937,0 0.23591,0.01206 0.34836,0.03503c2.3654,-0.32456 7.4024,-0.97951 7.52166,-0.94743c0.15415,0.04146 -0.81633,-4.75772 2.0516,-6.39427c3.63783,-2.07587 11.36282,-1.07699 12.44394,-0.78173c0.73829,0.20164 6.14199,1.28238 10.0269,4.38533c5.4094,4.32059 7.31241,9.12803 7.10773,10.43118c-0.11671,0.74303 0.57882,7.42686 -0.40569,13.15339c-0.62924,3.66008 -0.20488,9.61639 -1.63654,9.18843c-0.63911,-0.19105 -1.00224,2.81114 -1.24264,1.88644c-0.28246,-1.08648 0.1248,-6.01885 -0.66208,-8.79097c-1.44054,-5.07491 -2.59955,-9.30224 -4.16625,-11.50608c-3.64006,-5.12031 -3.18813,-6.07046 -6.56442,-3.53306c-8.16192,6.13402 -0.36445,14.53609 -4.81083,12.08604c-4.33844,-2.39057 -3.82092,-3.6775 -5.69821,-4.11896c-3.98229,-0.93647 -7.71032,1.18245 -8.28696,2.69817c-0.6607,1.73669 -4.64176,1.78954 -5.04724,1.832c-1.4993,0.15693 1.58287,-16.34019 0.57366,-16.27824c-0.02969,0.00181 -0.26712,0.02639 -0.58328,0.04403c-0.08062,0.09232 -0.16421,0.17511 -0.24896,0.24594c-1.99527,1.66747 -4.15665,6.02945 -6.63272,6.58326c-2.5235,0.56442 -5.86454,0.42743 -8.17106,1.47907c-2.51283,1.14569 -4.68531,4.89397 -6.99984,5.95122c-0.16071,0.1073 -1.6243,-3.40508 -1.81768,-3.35655c-0.04508,0.21281 1.6906,3.26888 1.6123,3.52258c-0.13581,0.44001 2.53919,-0.91073 2.27766,-0.73098c-1.17577,0.80813 -7.28616,1.62498 -7.32913,2.93528c-0.06965,2.12341 1.7168,3.84423 1.78337,5.02601c0.17369,0.26383 0.27458,0.57857 0.27458,0.91655c0,0.29077 -0.07467,0.56434 -0.20613,0.80309c1.0154,0.98398 1.58116,2.26781 2.51118,3.40244z" fill="#e1e2db" stroke="none" stroke-width="0.5" stroke-linecap="butt"/><path d="M276.62568,108.71161c0,0 -5.06214,2.10569 -11.20198,-0.54799c-7.24713,-3.13227 -7.92328,-8.40427 -7.92328,-8.40427" fill="none" stroke="#e1e2db" stroke-width="2" stroke-linecap="round"/><g stroke="#3a2f41" stroke-width="1.5"><path d="M222.12658,110.99364l4.04532,29.66563c0,0 9.43682,7.93275 9.43906,11.46173c0.00155,2.44177 -15.2823,11.68645 -15.2823,11.68645c0,0 12.08533,7.01837 9.46783,9.24809c-2.61852,2.2306 -13.28841,5.58472 -13.28841,5.58472l4.94428,-6.74219c0,0 -14.38348,-5.48084 -14.15859,-8.31536c0.26354,-3.32166 6.74219,-9.66381 6.74219,-9.66381c0,0 -3.70138,-1.31684 -5.16901,-4.49479c-1.03872,-2.24921 4.94428,-8.31536 4.94428,-8.31536l0.67422,-29.66563" data-paper-data="{&quot;index&quot;:null}" fill="#e1e2db" stroke-linecap="round"/><path d="M214.48545,128.1394v-1.03006l9.50327,-1.54107l0.19263,1.319z" fill="#3a2f41" stroke-linecap="butt"/><path d="M214.48545,121.58984l0.16967,-1.31901l8.37044,1.54107v1.03006z" data-paper-data="{&quot;index&quot;:null}" fill="#3a2f41" stroke-linecap="butt"/></g><path d="M276.20837,122.77822c0,3.78567 -3.22428,6.85456 -7.20163,6.85456c-3.97735,0 -7.20162,-3.0689 -7.20162,-6.85456c0,-3.78567 3.22427,-6.85456 7.20162,-6.85456c3.97735,0 7.20163,3.0689 7.20163,6.85456z" fill-opacity="0.41935" fill="#e1e2db" stroke="#3a2f41" stroke-width="1.5" stroke-linecap="butt"/><path d="M269.43431,129.68302c1.10773,17.86374 -5.16902,1.34844 -5.16902,1.34844" fill="none" stroke="#3a2f41" stroke-width="1.5" stroke-linecap="round"/><path d="M233.49796,89.87566c0,0 -9.57407,-1.40568 -9.87987,-2.30114c-1.6153,-4.72988 -2.6625,-9.58256 -3.2913,-14.36916c3.38388,-0.69633 9.869,-9.31253 10.80084,-12.263c2.269,7.13258 5.05899,14.31807 8.37646,20.14103c0.23329,0.40951 -6.00613,8.79225 -6.00613,8.79225z" data-paper-data="{&quot;index&quot;:null}" fill="#3a2f41" stroke="#3a2f41" stroke-width="1.5" stroke-linecap="butt"/><path d="M263.30435,112.16319c-9.44248,-6.08593 -10.11329,-34.6099 -10.11329,-34.6099h26.74401c0,0 2.4527,21.80876 8.09062,31.46354c0.45522,0.77957 -24.37561,3.36919 -24.72135,3.14637z" fill="#e1e2db" stroke="#3a2f41" stroke-width="1.5" stroke-linecap="butt"/><path d="M264.39714,88.52721c0,0 -6.23942,-8.38276 -6.00613,-8.79225c10.6416,-18.67861 15.85575,-51.37701 15.85575,-51.37701c0,0 9.23116,30.9262 0.03024,57.86814c-0.3058,0.89547 -9.87987,2.30114 -9.87987,2.30114z" fill="#3a2f41" stroke="#3a2f41" stroke-width="1.5" stroke-linecap="butt"/><path d="M271.17026,97.33036l10.33801,9.88854l-16.18126,1.34844z" fill="none" stroke="#3a2f41" stroke-width="2" stroke-linecap="round"/><path d="M277.23822,100.70146l-11.91121,2.02266" fill="none" stroke="#3a2f41" stroke-width="1.5" stroke-linecap="round"/><path d="M265.10228,104.52204l13.70911,-2.24739" fill="none" stroke="#3a2f41" stroke-width="1.5" stroke-linecap="round"/><path d="M245.43436,104.20567c-6.5301,5.80253 -11.58349,5.94034 -15.14232,6.55719c-2.60401,0.45136 -8.49592,1.00817 -10.95022,0.8057c-0.89992,-0.07423 -0.88225,-0.52377 -0.92492,-0.76986c-0.05534,-0.3192 0.99679,-0.67517 1.55854,-1.03326c1.05241,-0.67087 6.93693,-2.0187 9.25724,-2.42087c3.55883,-0.61686 17.01973,-6.01026 17.17871,-5.09302z" fill="#e1e2db" stroke="none" stroke-width="0" stroke-linecap="butt"/></g><path d="M232.22709,113.16233l14.31506,3.67536" fill="none" stroke="#3a2f41" stroke-width="1" stroke-linecap="round"/><g stroke="#3a2f41"><g fill="#3a2f41"><path d="M344.00405,145.82952l-25.44827,-20.38638l30.52764,4.93014z" stroke-width="2" stroke-linecap="round"/><path d="M345.40013,140.2483l-21.24365,-27.1719l30.23219,13.61087z" stroke-width="2" stroke-linecap="round"/><path d="M336.30508,215.81637l-3.2964,-4.40004l-6.46142,12.65051l-1.17167,-10.63931l-4.6352,1.89906c0,0 5.76122,-25.65867 6.98752,-33.63688c0.78608,-5.11419 1.17597,-8.64541 1.17597,-8.64541l-17.86986,-16.27679l3.54631,-29.8576l4.98432,19.78885c0,0 7.7197,6.84569 10.1635,5.45606c1.3444,-0.76446 14.13459,-26.62727 14.13459,-26.62727l10.97713,-28.85276l3.17804,27.04181c0,0 -1.13951,7.77325 -3.7311,17.51211c-2.59157,9.73889 2.84457,-13.57219 3.10477,-15.15842l4.27773,12.10233c0,0 -4.75994,14.73477 -6.07277,19.88786c-3.83048,15.03506 -19.29145,57.7559 -19.29145,57.7559z" stroke-width="1.5" stroke-linecap="butt"/></g><g stroke-linecap="butt"><g fill="#677479" stroke-width="0"><path d="M350.28782,198.04692c0,0 -11.78132,16.99537 -23.8141,37.96033c-5.13484,-1.68678 -21.35644,-6.94105 -25.31379,-7.98861c3.80252,-21.47955 4.6933,-41.17892 4.6933,-41.17892l13.93215,-12.88713l26.4997,7.56717z"/><path d=""/></g><g fill="none" stroke-width="1.5"><path d="M301.285,228.19506c3.80252,-21.47955 4.56821,-41.35534 4.56821,-41.35534l13.93214,-12.88713l26.4997,7.56717l4.00276,16.52716c0,0 -12.12146,17.06501 -24.15424,38.02996"/><path d=""/></g></g><path d="M351.35272,175.34205l-4.83573,14.48555l-32.74996,-10.9329l4.83571,-14.48556z" fill="#8c9ca0" stroke-width="1.5" stroke-linecap="butt"/><path d="M343.1,172.65154l-4.91921,13.69173" fill="none" stroke-width="1.5" stroke-linecap="round"/><path d="M342.81938,181.07787c0.51159,-1.633 1.44641,-2.79392 2.08795,-2.59293c0.64153,0.20099 0.74688,1.68773 0.23528,3.32074c-0.51159,1.633 -1.44641,2.79393 -2.08794,2.59293c-0.64152,-0.201 -0.74688,-1.68774 -0.23529,-3.32076z" fill="#3a2f41" stroke-width="1.5" stroke-linecap="butt"/></g></g></g></svg>