<svg version="1.1" xmlns="http://www.w3.org/2000/svg" xmlns:xlink="http://www.w3.org/1999/xlink" width="345.04237" height="522.02986" viewBox="0,0,345.04237,522.02986"><g transform="translate(-15,59.79078)"><g data-paper-data="{&quot;isPaintingLayer&quot;:true}" fill-rule="nonzero" stroke-linejoin="miter" stroke-miterlimit="10" stroke-dasharray="" stroke-dashoffset="0" style="mix-blend-mode: normal"><path d="M122.02396,254.54028l-12.3629,-57.23841l28.91662,-8.36748l12.3629,57.23841z" fill="#e1e2db" stroke="#3a2f41" stroke-width="2" stroke-linecap="butt"/><g stroke-linecap="butt"><path d="M142.42582,201.86233v-14.25c0,0 -1.1162,-1.36559 -0.00983,-1.30874c3.72804,0.19156 16.55982,1.17081 25.31083,-8.11443c7.8188,-8.29611 11.72439,-25.03843 13.44899,-53.82684c1.08281,-18.07498 11.99301,5.34561 10.83269,33.96617c-0.69891,17.23945 -13.58269,43.53383 -13.58269,43.53383z" fill="#7c7984" stroke="#3a2f41" stroke-width="2"/><g data-paper-data="{&quot;index&quot;:null}"><g fill="none" stroke="none" stroke-width="1" font-family="sans-serif" font-weight="normal" font-size="12" text-anchor="start"/><g fill="#3a2f41" stroke="#3a2f41" stroke-width="2.5"><path d="M184.35006,99.26628c4.65144,-18.31936 29.85387,72.41292 18.57099,110.43228c-0.59585,2.59911 -2.81611,7.4569 -2.81611,7.4569c0,0 0.1802,-9.26536 -1.46284,-17.58584c-2.3117,-11.70664 -6.76325,-23.50195 -7.57904,-22.08929c-0.13286,0.23007 3.11494,10.72166 4.46843,21.46319c1.51123,11.99343 1.15422,24.36011 1.15422,24.36011l-9.23819,-0.36347c0,0 4.90708,8.76928 4.06962,9.7027c-15.40302,17.16816 -39.59458,17.5291 -47.36006,22.10597c-5.88425,3.06127 -20.12428,-63.84311 -16.73076,-67.94143c0,0 8.03678,-0.09034 17.15257,-0.92881c0.48806,-0.04489 16.47721,15.12955 16.47721,15.12955l-0.07908,-13.80495l9.35273,2.84035c0,0 -3.16833,-11.99702 -2.20375,-13.28924c5.36282,-7.18444 8.34438,-18.38913 10.27037,-30.31598c0.33169,-2.05403 6.40792,14.79052 6.40792,14.79052c0,0 0.15879,-7.38136 -1.06462,-14.75262c-1.09456,-6.59493 -3.59483,-13.18177 -3.45595,-14.46716c1.40873,-13.03757 2.19425,-25.3697 4.06634,-32.74278z"/></g></g></g><g stroke-linecap="butt"><path d="M211.03711,458.80429l38.85145,-91.65048l44.98206,-2.09595l3.57815,34.0619z" data-paper-data="{&quot;index&quot;:null}" fill="#e1e2db" stroke="#3a2f41" stroke-width="2.5"/><g data-paper-data="{&quot;index&quot;:null}"><g><path d="M257.61821,356.36958l-9.58701,-81.11082l27.76295,-3.84113l9.58701,81.11082z" fill="#7c7984" stroke="none" stroke-width="0"/><path d="M249.88416,293.30985l-2.35262,-18.03162l27.76295,-3.84113l2.10777,17.83276z" fill="#626171" stroke="none" stroke-width="0"/><path d="M257.11858,356.38906l-9.58701,-81.11082l27.76295,-3.84114l9.58701,81.11082z" fill="none" stroke="#3a2f41" stroke-width="2.5"/></g><path d="M244.77966,367.25268c-2.19807,-3.18249 -0.37818,-6.03167 -0.58006,-7.61325c-0.16254,-1.27329 -1.10104,-1.15748 -1.70319,-4.92199c-0.65424,-4.09001 3.29601,-5.78273 3.29601,-5.78273l44.03652,-5.93751c0,0 5.06909,3.02502 5.68026,5.56263c0.33422,1.3875 -0.73361,2.49243 -0.81924,4.98575c-0.03673,1.06905 1.63055,3.03563 1.65586,4.0695c0.0852,3.47864 -0.9781,5.19291 -0.9781,5.19291c0,0 -6.48759,5.99546 -25.96816,8.00738c-16.69147,1.72388 -24.61994,-3.56268 -24.61994,-3.56268z" fill="#3a2f41" stroke="#3a2f41" stroke-width="2.5"/></g><path d="M287.02591,406.91926l-22.99566,15.7014l-34.08636,-8.41746l14.92538,-35.20894z" data-paper-data="{&quot;index&quot;:null}" fill="#3a2f41" stroke="#3a2f41" stroke-width="2.5"/></g><g stroke-linecap="butt"><path d="M97.35837,406.00205l78.8488,-49.74804l45.02365,0.80527l1.96355,37.16375z" fill="#e1e2db" stroke="#3a2f41" stroke-width="2.5"/><g><g><path d="M185.4836,349.86602l-10.16494,-81.04042l27.73486,-4.03893l10.16494,81.04042z" fill="#7c7984" stroke="none" stroke-width="0"/><path d="M177.30027,286.86305l-2.48108,-18.0144l27.73487,-4.03893l2.23483,17.81728z" fill="#626171" stroke="none" stroke-width="0"/><path d="M184.98412,349.88911l-10.16494,-81.04042l27.73487,-4.03894l10.16494,81.04042z" fill="none" stroke="#3a2f41" stroke-width="2.5"/></g><path d="M172.72292,360.84038c-2.2207,-3.16674 -0.42117,-6.02883 -0.63432,-7.60892c-0.17161,-1.2721 -1.10926,-1.1496 -1.73823,-4.90972c-0.68338,-4.08525 3.2547,-5.80609 3.2547,-5.80609l43.99307,-6.25126c0,0 5.09052,2.98881 5.71977,5.522c0.3441,1.38509 -0.71583,2.4976 -0.78369,4.99146c-0.02911,1.06928 1.65216,3.02393 1.68483,4.0576c0.11,3.47795 -0.94106,5.19975 -0.94106,5.19975c0,0 -6.44468,6.04155 -25.91042,8.19228c-16.67876,1.84281 -24.64471,-3.38709 -24.64471,-3.38709z" fill="#3a2f41" stroke="#3a2f41" stroke-width="2.5"/></g><path d="M144.72613,376.11632l24.38398,-15.38457l30.17996,35.72887l-33.08424,3.09689z" fill="#3a2f41" stroke="#3a2f41" stroke-width="2.5"/></g><g data-paper-data="{&quot;index&quot;:null}" stroke="#3a2f41" stroke-width="2"><path d="M165.61375,277.09859l31.72061,-96.49541l37.34902,9.57897l-15.57786,100.53079c0,0 -8.78642,-4.11827 -8.44218,-2.40914c0.41217,2.04637 10.74829,13.85882 10.74829,13.85882c0,0 -22.29618,-16.67323 -23.05807,-16.14836c-2.17234,1.49654 5.43069,15.25363 5.43069,15.25363l-28.72268,-29.32602z" data-paper-data="{&quot;index&quot;:null}" fill="#e1e2db" stroke-linecap="butt"/><path d="M208.91872,189.29087l-8.39122,32.37531l-15.28567,0.89452" fill="none" stroke-linecap="round"/><path d="M204.84666,192.12249l-6.0771,23.69556l-11.56382,0.45833" fill="none" stroke-linecap="round"/></g><g stroke="#3a2f41" stroke-width="2"><path d="M232.66794,281.1569l6.86563,-95.49442l39.27119,-6.0096c0,0 4.94476,60.63313 7.99692,83.20755c2.07725,15.36375 8.54475,39.13806 8.54475,39.13806c0,0 -17.88605,-18.62925 -17.38137,-11.0254c0.68342,10.29687 14.912,43.94771 14.912,43.94771l-31.44357,-47.05163l-7.24725,24.65057l-13.14345,-39.94935z" data-paper-data="{&quot;index&quot;:null}" fill="#e1e2db" stroke-linecap="butt"/><path d="M281.61037,222.57291l-15.01347,-2.33472l-1.22989,-33.0293" fill="none" stroke-linecap="round"/><path d="M281.03821,216.13l-11.40592,-1.54879l-0.83602,-24.16813" fill="none" stroke-linecap="round"/></g><g stroke-linecap="butt"><path d="M219.11777,221.20089l1.0211,-29.52127l21.00881,-1.35586l1.4217,34.60013z" fill="#8c9ca0" stroke="#3a2f41" stroke-width="2"/><path d="M219.3572,219.26069l1.0211,-29.52127l21.00881,-1.35586l1.4217,34.60013z" fill="#e1e2db" stroke="#e1e2db" stroke-width="3.5"/></g><g><g><path d="M271.07963,90.26901c0.40847,6.02594 -18.50463,12.21536 -42.24356,13.82449c-23.73893,1.60913 -43.31427,-1.97139 -43.72273,-7.99733c-0.40847,-6.02594 18.50463,-12.21536 42.24356,-13.82449c23.73893,-1.60913 43.31427,1.97139 43.72273,7.99733z" fill="#3a2f41" stroke="#3a2f41" stroke-width="2.5" stroke-linecap="butt"/><g data-paper-data="{&quot;index&quot;:null}"><path d="M261.67411,121.6378c-2.04505,0.00328 -4.03787,0.15424 -5.567,0.21232c-17.6035,0.66857 -36.45909,2.31053 -53.95453,3.59581c-2.10347,0.15453 -4.23797,0.31703 -6.39295,0.48481c-2.47192,-11.73935 -5.76798,-21.04868 3.93982,-31.23042c7.52933,-7.89693 18.05261,-9.2634 28.08826,-9.98203c9.14713,-0.65499 30.42531,5.20564 32.21996,8.78186c4.35703,8.68231 3.51995,18.95541 1.66643,28.13767z" fill="#8c9ca0" stroke="#3a2f41" stroke-width="2" stroke-linecap="butt"/><g><path d="M210.60668,88.92292c-0.49858,-0.25562 2.00664,-4.76234 2.43046,-5.13261c0.17792,-0.07504 0.42709,-0.45967 1.13581,-0.05545c3.23659,1.84594 10.82016,7.46857 10.82016,7.46857l-9.62598,8.90764z" data-paper-data="{&quot;index&quot;:null}" fill="#8c9ca0" stroke="#3a2f41" stroke-width="4.5" stroke-linecap="round"/><path d="M225.0246,91.24077c0,0 -9.04284,-6.7738 -5.72921,-8.85293c3.94256,-2.47375 20.41571,-0.35722 21.37426,-0.88572c0.84663,-1.68736 3.31997,3.84539 3.47462,5.15959c-0.71215,2.73784 -9.92765,12.26053 -9.92765,12.26053z" fill="#3a2f41" stroke="#3a2f41" stroke-width="4.5" stroke-linecap="round"/><path d="M212.53002,88.36499c-0.03091,-0.45601 0.78987,-4.20746 1.78475,-4.74081c0.55486,-0.60554 11.30469,-6.48624 12.86,-6.36773c2.45843,0.18733 12.67277,3.72222 13.75581,4.53131c0.57003,0.21575 1.02365,3.31635 1.14633,4.58544" fill="none" stroke="#3a2f41" stroke-width="6.5" stroke-linecap="butt"/><g><path d="M210.60668,88.92291c-0.49858,-0.25562 2.00664,-4.76233 2.43046,-5.13261c0.17792,-0.07504 0.42709,-0.45967 1.13581,-0.05546c3.23658,1.84595 10.82016,7.46857 10.82016,7.46857l-9.62597,8.90764z" data-paper-data="{&quot;index&quot;:null}" fill="#8c9ca0" stroke="#12161a" stroke-width="0" stroke-linecap="round"/><path d="M225.0246,91.24076c0,0 13.88087,-8.76595 15.64505,-9.73866c0.84663,-1.68736 3.31997,3.8454 3.47462,5.15959c-0.71216,2.73784 -9.92766,12.26054 -9.92766,12.26054z" fill="#8c9ca0" stroke="#12161a" stroke-width="0" stroke-linecap="round"/><path d="M212.53002,88.36499c-0.03091,-0.45601 0.78987,-4.20746 1.78475,-4.74081c0.55486,-0.60554 11.30469,-6.48624 12.86,-6.36773c2.45843,0.18733 12.67277,3.72222 13.75581,4.53131c0.57003,0.21575 1.02365,3.31635 1.14633,4.58544" fill="none" stroke="#8c9ca0" stroke-width="2" stroke-linecap="butt"/></g></g></g><path d="M266.01523,110.41721c-17.78837,1.20577 -47.90281,10.3444 -48.38169,3.27952c-0.22215,-3.27741 10.85446,-7.66321 19.01184,-13.19359c9.42692,-6.39107 15.00891,-13.68033 24.54523,-14.32673c17.78837,-1.20577 15.83221,23.49469 4.82461,24.24083z" fill="#3a2f41" stroke="#3a2f41" stroke-width="2.5" stroke-linecap="butt"/><path d="M193.22068,90.64784c3.05516,-0.20709 8.09382,6.95886 14.87797,12.65739c5.17969,4.35083 12.23844,6.99963 12.44577,10.05833c0.47888,7.06489 -20.78383,5.56646 -32.00137,1.79123c-6.54128,-2.20144 -6.65527,-23.73876 4.67763,-24.50694z" data-paper-data="{&quot;index&quot;:null}" fill="#3a2f41" stroke="#3a2f41" stroke-width="2.5" stroke-linecap="butt"/><path d="M195.19179,200.97009c0,0 -3.42557,-2.68351 -4.0633,-4.79796c-0.73686,-2.44316 -0.1036,-9.01785 -0.1036,-9.01785l-7.83985,-14.70493l9.32073,-16.88966l-1.1174,-43.15154l73.32418,-4.97023c0,0 2.77969,61.38031 20.44407,74.55766c1.39725,1.04233 -8.7571,-1.47913 -8.06415,-0.58316c4.67898,6.04979 11.6611,10.97976 11.6611,10.97976c0,0 -11.55434,0.98797 -27.36655,-5.94057c-8.14677,-3.56972 -9.81227,-6.41945 -11.18336,-5.27121c-2.13142,1.78501 6.9584,18.44568 6.9584,18.44568l-30.84213,-8.85423l-7.65909,0.31613l-1.95045,20.63267l-19.3333,-18.66944z" fill="#3a2f41" stroke="#3a2f41" stroke-width="2.5" stroke-linecap="butt"/><path d="M219.13538,192.06143l0.05762,-7.03485l-12.30846,-15.58001l9.81277,-17.52606l-1.06559,-42.77432c0,0 2.03483,0.74438 3.44552,0.71184c1.40716,-0.03248 3.74384,-0.82119 3.74384,-0.82119l1.41712,43.48468l-9.58526,16.41497l12.19544,14.65008l-0.97055,8.01782z" fill="#8c9ca0" stroke="#3a2f41" stroke-width="2" stroke-linecap="butt"/><path d="M255.28741,182.05155l-60.58007,5.61825" fill="none" stroke="#3a2f41" stroke-width="2" stroke-linecap="round"/><path d="M199.57593,153.32276l42.98314,-2.91359" fill="none" stroke="#3a2f41" stroke-width="2" stroke-linecap="round"/></g><path d="M182.30279,104.57383c-0.10639,1.80558 0.34581,3.7372 0.93874,5.647c1.82542,5.87965 6.2984,7.02065 6.2984,7.02065l2.18371,39.29546l-9.5888,17.92854l2.69473,4.77505" fill="none" stroke="#8c9ca0" stroke-width="2" stroke-linecap="round"/><path d="M218.71145,107.94961c-7.94334,-8.51205 14.3387,-6.74633 14.3387,-6.74633l27.99083,19.01392l-23.623,-9.72748l7.52617,7.79115c0,0 -11.11083,-1.97655 -20.68178,-8.43045c-1.64856,-1.11166 -4.12069,-0.36817 -5.55091,-1.90079z" fill="#8c9ca0" stroke="none" stroke-width="0" stroke-linecap="butt"/><path d="M260.72553,124.1021c-0.36417,0.4306 -3.91449,-0.37901 -7.92989,-1.80832c-4.0154,-1.42931 -6.97531,-2.93705 -6.61114,-3.36765c0.36417,-0.4306 3.91449,0.37901 7.92988,1.80832c4.01539,1.42931 6.97531,2.93704 6.61115,3.36764z" fill="#8c9ca0" stroke="none" stroke-width="0" stroke-linecap="butt"/><path d="M241.96479,163.22732c3.51696,3.64157 5.9923,6.95652 5.52882,7.40412c-0.46347,0.44761 -3.69024,-2.1416 -7.2072,-5.78317c-3.51696,-3.64157 -5.9923,-6.95651 -5.52882,-7.40412c0.46347,-0.44761 3.69025,2.1416 7.20721,5.78317z" fill="#8c9ca0" stroke="none" stroke-width="0" stroke-linecap="butt"/><path d="M271.27214,179.82858c-0.31947,0.45051 -7.15217,-3.84602 -15.26125,-9.59657c-8.10909,-5.75054 -14.42381,-10.77748 -14.10433,-11.22798c0.31947,-0.45051 7.15218,3.84602 15.26126,9.59657c8.10909,5.75054 14.42381,10.77748 14.10433,11.22798z" fill="#8c9ca0" stroke="none" stroke-width="0" stroke-linecap="butt"/><path d="M212.19768,143.4983c1.05915,1.15026 -6.79056,-6.64556 -13.39737,-10.57253c-1.53932,-0.91495 2.91114,4.77148 2.91114,4.77148l-9.16576,-6.37106l-0.55713,-10.81899c0,0 14.19881,16.46374 20.20912,22.99111z" fill="#8c9ca0" stroke="none" stroke-width="0" stroke-linecap="butt"/><path d="M251.17233,139.0266c-0.31378,0.61493 -4.95491,-1.12501 -10.36627,-3.88625c-5.41136,-2.76124 -9.54376,-5.49816 -9.22999,-6.11309c0.31378,-0.61493 4.95491,1.12501 10.36627,3.88625c5.41136,2.76124 9.54376,5.49816 9.22999,6.11309z" fill="#8c9ca0" stroke="none" stroke-width="0" stroke-linecap="butt"/><path d="M206.25839,99.82088c0.64618,5.20031 6.60136,11.37302 6.60136,11.37302c0,0 -8.0211,-4.88126 -9.87705,-9.26829c-1.85595,-4.38702 -2.13486,-6.90807 -1.62622,-7.12325c0.50864,-0.21518 4.31453,0.29142 4.90191,5.01853z" fill="#8c9ca0" stroke="none" stroke-width="0" stroke-linecap="butt"/></g><g stroke-linecap="butt"><g stroke="#3a2f41" stroke-width="2.5"><path d="M251.70037,-2.03181c-11.71639,3.91853 -17.55109,5.95897 -28.53561,3.41168c-10.98451,-2.54729 -24.10226,-5.59175 -12.83757,-9.73131c29.11942,-14.87669 61.1406,-11.92981 75.86116,-8.00077c11.64994,3.10948 15.08801,8.6006 15.08801,8.6006c0,0 -29.66067,-0.94086 -49.57601,5.7198z" fill="#3a2f41"/><path d="M286.18835,-16.35221c11.64994,3.10948 15.08801,8.6006 15.08801,8.6006c0,0 -6.10251,-0.19357 -14.63002,0.21648c-0.78238,-0.25538 -1.5656,-0.51612 -2.60892,-0.61345c-0.45164,0.06014 -0.49265,-0.02809 -0.87853,0.03993c-0.11739,0.02069 -0.299,-0.09228 -0.19406,-0.08484c0.79582,0.05641 1.85846,-0.25288 3.0882,-0.50573c1.27988,-0.45285 5.27675,-0.78031 3.04028,-1.3176c-0.63052,-0.14622 -1.23781,-0.33632 -1.93277,-0.44747c-0.06396,-0.01023 -1.09604,0.09675 -1.05166,0.02508c0.07968,-0.1287 1.08283,-0.26012 1.33949,-0.3158c0.82599,-0.08971 3.01763,-0.26157 3.72636,-0.50285c0.47586,-0.16201 0.0271,-0.5765 -0.26031,-0.64897c-0.44944,-0.10422 -0.88842,-0.21528 -1.35156,-0.31257c-0.08141,-0.0171 -0.83766,-0.03997 -0.84066,-0.05565c-0.0079,-0.04133 0.21974,0.00599 0.3362,-0.00476c0.293,-0.02703 0.46834,-0.08352 0.55822,-0.19905c0.03497,-0.04494 0.01676,-0.08844 -0.0358,-0.12665c0.91533,0.03219 2.28031,0.00711 2.19214,-0.18508c-0.10298,-0.2245 -1.08246,-0.35624 -1.43862,-0.51492c-0.07211,-0.23353 -1.01084,-0.17705 -1.13375,-0.37704c-0.18159,-0.29547 -1.36644,-0.7068 -2.04294,-0.86371c-0.19248,-0.04464 -0.38519,-0.08916 -0.57726,-0.134c-1.51236,-0.35308 0.18832,-0.02512 1.20674,0.1341c0.05758,0.0197 0.12002,0.03769 0.18858,0.05359h0.00001v0v0v0l0.19254,0.04466c0.05317,0.01234 0.13822,0.0016 0.18997,-0.02396c0.05176,-0.02556 0.05059,-0.05627 -0.00259,-0.0686v0v0l-0.19256,-0.04466c-0.55968,-0.12981 -0.64831,-0.41453 -1.13628,-0.58219c-0.0179,-0.46972 -1.2425,-1.10192 -2.01029,-1.48633c0.40184,0.09963 0.79255,0.20019 1.17178,0.30141z" fill="#8c9ca0"/></g><g stroke="#3a2f41" stroke-width="2.5"><path d="M270.73813,61.65307c-10.69317,-4.05094 -16.12967,-5.94551 -18.37558,-18.32346c-2.24591,-12.37794 -4.9249,-27.16314 5.82134,-23.78156c33.00102,2.98212 45.14878,32.8882 47.51411,50.18692c1.87193,13.69033 -3.29467,24.03825 -3.29467,24.03825c0,0 -13.4891,-25.23441 -31.6652,-32.12015z" fill="#3a2f41"/><path d="M305.698,69.73493c1.87193,13.69033 -3.29467,24.03825 -3.29467,24.03825c0,0 -2.77531,-5.19182 -7.50446,-11.50816c-0.0675,-0.98361 -0.12872,-1.97528 -0.52287,-2.95152c-0.2985,-0.28155 -0.20846,-0.43632 -0.48431,-0.65392c-0.08391,-0.06619 -0.03244,-0.36857 0.01014,-0.27363c0.32294,0.72006 1.23514,1.15106 2.15936,1.79475c1.19912,0.40832 3.58484,3.18224 3.15089,0.63632c-0.12892,-0.7105 -0.19147,-1.46279 -0.3961,-2.17694c-0.01883,-0.06573 -0.66292,-0.75109 -0.55136,-0.81411c0.20033,-0.11318 0.8607,0.51508 1.05721,0.64545c0.5206,0.54286 1.81915,2.07454 2.47128,2.31373c0.43786,0.1606 0.73431,-0.77324 0.68281,-1.10511c-0.0919,-0.50644 -0.17006,-1.0139 -0.27742,-1.52184c-0.01887,-0.08928 -0.3642,-0.73115 -0.34608,-0.75518c0.04778,-0.06338 0.10116,0.18558 0.17219,0.26476c0.17867,0.19918 0.336,0.26278 0.52492,0.17597c0.07349,-0.03377 0.11886,-0.10843 0.14068,-0.20357c0.41233,0.78308 1.11862,1.85005 1.31535,1.51384c0.22981,-0.39274 -0.08974,-1.3649 -0.06742,-1.87116c0.25639,-0.38027 -0.27843,-1.05996 -0.08911,-1.43497c0.2797,-0.55406 0.20821,-2.07756 0.06993,-2.83992c-0.03935,-0.21689 -0.07898,-0.43382 -0.11786,-0.65067c-0.30626,-1.70746 0.12453,0.11734 0.42898,1.15882c0.00385,0.07363 0.01221,0.14885 0.02623,0.2261v0.00001v0v0v0l0.03936,0.21697c0.01087,0.05992 0.06634,0.11376 0.12389,0.12027c0.05755,0.00651 0.09538,-0.03678 0.08452,-0.0967v0v0l-0.03937,-0.21699c-0.1144,-0.63071 0.19781,-1.09492 0.1662,-1.71995c0.57852,-0.66229 0.76358,-2.5225 0.86464,-3.67229c0.07411,0.4617 0.14153,0.91572 0.20247,1.36136z" fill="#8c9ca0"/></g><g stroke="#3a2f41" stroke-width="2.5"><path d="M247.37635,31.55146c-3.30411,21.24481 -4.64906,32.07048 -28.74193,34.80926c-24.09286,2.73878 -52.87298,6.0026 -50.95203,-15.45069c-9.12722,-66.98843 45.99107,-87.34016 80.01768,-89.58729c26.92888,-1.77837 50.3108,10.32609 50.3108,10.32609c0,0 -45.01826,23.79105 -50.63452,59.90264z" fill="#3a2f41"/><path d="M247.70005,-38.67726c26.92889,-1.77837 50.31082,10.32609 50.31082,10.32609c0,0 -9.26223,4.89487 -19.90832,13.61414c-1.96558,-0.00912 -3.95043,-0.03228 -5.75077,0.62717c-0.43421,0.56788 -0.78981,0.36073 -1.10462,0.89188c-0.09576,0.16157 -0.73323,0.0112 -0.56009,-0.06162c1.31309,-0.55225 1.76836,-2.35177 2.64984,-4.14411c0.27724,-2.38922 4.81058,-6.84951 -0.15775,-6.34339c-1.38295,0.15721 -2.88125,0.17254 -4.23677,0.48392c-0.12476,0.02865 -1.21968,1.24233 -1.39896,1.00493c-0.32189,-0.42627 0.64966,-1.68173 0.82389,-2.06381c0.86247,-0.98264 3.37429,-3.40709 3.55984,-4.7039c0.12458,-0.87073 -1.90739,-1.61608 -2.55738,-1.56047c-0.98577,0.11207 -1.97988,0.19591 -2.96158,0.33934c-0.17255,0.02521 -1.31662,0.63489 -1.37373,0.59427c-0.15063,-0.10712 0.33018,-0.17896 0.45822,-0.31226c0.32213,-0.33532 0.37883,-0.6473 0.11574,-1.04631c-0.10234,-0.15521 -0.27478,-0.25909 -0.47792,-0.3179c1.3999,-0.72548 3.24087,-2.00918 2.46787,-2.46146c-0.90295,-0.52831 -2.72933,-0.0207 -3.76726,-0.14197c-0.88986,-0.58074 -2.02352,0.41047 -2.87185,-0.03244c-1.25335,-0.65437 -4.31303,-0.73606 -5.79693,-0.56747c-0.42219,0.04796 -0.84429,0.09651 -1.26657,0.14358c-3.3251,0.37053 0.1809,-0.23692 2.15495,-0.70334c0.14769,0.00315 0.29654,-0.00269 0.44691,-0.01978l0.00001,-0.00001v0v0v0l0.42233,-0.048c0.11663,-0.01326 0.20041,-0.11855 0.18715,-0.23517c-0.01326,-0.11662 -0.11854,-0.20041 -0.23516,-0.18716v0v0l-0.42233,0.04801c-1.22765,0.13949 -2.31356,-0.56787 -3.56779,-0.59674c-1.61049,-1.28115 -5.47165,-1.93741 -7.85209,-2.3158c0.90312,-0.08241 1.79371,-0.15232 2.67029,-0.21021z" fill="#8c9ca0"/></g><g stroke="#3a2f41" stroke-width="2.5"><path d="M264.43477,58.36531c-21.13737,5.31746 -31.7559,8.33337 -45.12995,-12.38273c-13.37404,-20.71609 -23.96127,-46.79984 -3.25341,-53.44957c104.94269,-33.69933 122.94798,67.21901 122.94798,67.21901c0,0 -38.63565,-10.42522 -74.56462,-1.38668z" fill="#3a2f41"/><path d="M338.99939,59.75201c0,0 -15.90509,-4.29175 -36.79541,-4.98058c0.59866,-0.17558 1.1813,-0.35166 1.7376,-0.51579c1.40094,-0.29599 3.04339,-0.54048 4.35677,-1.06144l0.40665,0.03893c0.10976,0.01237 0.21634,-0.05141 0.24784,-0.1538c0.02592,-0.08423 -0.00628,-0.17081 -0.07446,-0.22258l-0.34204,-0.2717l-0.01603,0.0175c-1.70936,-1.9162 -4.33451,-3.62392 -6.28648,-5.36239c-0.34871,-0.19068 -0.48197,-0.3788 -0.6436,-0.64791c2.09396,1.27555 6.06527,0.69062 8.27823,0.98047c0.94711,-0.0706 3.66822,0.47524 4.13065,-0.60611c0.37421,-0.87508 -1.43052,-1.99533 -1.01842,-2.71006c0.02405,-0.04169 1.5688,0.73967 1.77065,0.80116c0.90398,0.2048 1.35856,-0.33608 1.27474,-1.18811c-0.20892,-2.12425 -0.80183,-4.54857 -0.38269,-6.66244c1.13747,1.76866 5.40255,3.52093 7.20779,4.19119c0.19984,0.20147 1.11673,0.84202 1.4637,0.53209c0.38707,-0.34573 -0.47241,-1.39402 -0.53381,-1.77201c-0.28325,-1.74339 -0.18524,-4.15563 0.11034,-5.88987c-0.33072,-2.88497 -0.47454,-5.92368 -0.9888,-8.83991c-0.00506,-1.53741 -0.23804,-3.06567 -0.47995,-4.59048c13.04623,19.12557 16.57674,38.91386 16.57674,38.91386z" fill="#8c9ca0"/></g><g stroke="#3a2f41" stroke-width="2.5"><path d="M226.32206,81.44181c-10.73981,-3.29239 -28.13092,-13.4659 -33.64182,-18.18967c-5.42819,-4.65288 -3.64218,-1.92265 -4.12257,-14.18807c-0.96813,-24.71772 3.30073,-52.56251 24.93486,-47.39102c109.63688,26.20781 74.85421,122.3901 74.85421,122.3901c0,0 -27.86855,-27.30679 -62.02467,-42.62133z" fill="#3a2f41"/><path d="M288.34675,124.06312c0,0 -8.32131,-8.15359 -21.44276,-18.04866c-0.28962,-1.64546 -0.72845,-3.3167 -0.79985,-4.90551c-0.43111,-1.22745 2.07504,2.01229 3.2163,1.76841c0.62437,-0.13344 0.687,-3.53852 0.86581,-4.24922c0.64312,-1.96582 1.04996,-4.16793 1.49104,-6.20623c0.18707,-0.86447 -0.22812,-1.75394 0.03647,-2.54851c0.10747,-1.57471 0.38797,-3.44413 0.83679,-4.998c0.22121,0.56202 0.75842,1.11898 1.1437,1.48622c1.55984,1.48685 2.98635,3.08005 4.43703,4.66127c2.17415,2.36979 4.75767,4.43341 6.97672,6.75397c0.25169,0.21828 1.64415,1.52366 1.88324,1.54283c0.82716,0.06632 0.61076,-0.84676 0.60552,-1.28733c-0.02216,-1.86399 0.82591,-3.55602 0.96997,-5.3997c0.03608,-0.13347 0.07216,-0.26693 0.10823,-0.40041c0.98284,1.86617 2.95394,3.53764 4.68563,5.09036c-1.00745,15.66189 -5.01383,26.74052 -5.01383,26.74052z" fill="#8c9ca0"/></g><path d="M129.54919,-38.1039c0,0 40.99212,18.3395 66.93784,36.71137c15.38079,10.89098 -9.92959,5.89857 -18.83374,17.70424c-4.13298,5.47978 -18.76085,18.60351 -18.76085,18.60351l-12.00386,-30.30903l19.22964,-12.72926l-21.55796,0.9029l2.97414,-4.40185l-7.77447,-1.33018z" data-paper-data="{&quot;index&quot;:null}" fill="#3a2f41" stroke="#3a2f41" stroke-width="2.5"/><path d="M205.60429,38.42483c8.53692,8.64455 13.02704,12.89722 4.34602,24.65547c-3.75491,5.08594 6.78573,18.49423 -3.15762,21.56642c-31.01443,9.58251 -41.71025,-3.95748 -41.71025,-3.95748c0,0 9.89636,-1.79901 8.12949,-3.35226c-46.6527,-41.0122 5.69151,-90.83638 5.69151,-90.83638c0,0 12.18994,37.23033 26.70085,51.92422z" fill="#3a2f41" stroke="#3a2f41" stroke-width="2.5"/><g data-paper-data="{&quot;index&quot;:null}"><path d="M169.60945,55.23322c-2.11673,-18.62067 8.46894,-42.0576 32.10618,-45.42879c35.93344,-5.12492 51.69221,17.04166 53.80892,35.66231c2.11672,18.62065 -7.83376,35.90637 -39.10064,38.8122c-15.61607,1.4513 -28.90413,-0.81035 -36.38059,-5.96173c-7.69103,-5.29927 -9.36053,-13.64189 -10.43387,-23.08398z" fill="#7c7984" stroke="none" stroke-width="0"/><path d="M169.85581,60.22714c-2.11673,-18.62067 8.0255,-51.04667 31.66273,-54.41785c35.93344,-5.12492 52.13565,26.03072 54.25237,44.65138c2.11673,18.62065 -28.65843,10.55643 -48.12661,12.61986c-19.47205,2.06385 -35.67176,15.7673 -37.7885,-2.85337z" fill="#3a2f41" stroke="none" stroke-width="0"/><path d="M216.70117,9.66715c25.44922,2.05637 37.0747,20.41648 38.87139,36.22186c2.11672,18.62065 -7.83376,35.90638 -39.10064,38.81221c-16.65306,1.54767 -29.21076,-0.91916 -36.67746,-6.78016c-6.73779,-5.28881 -9.13294,-13.43301 -10.13698,-22.26554h-0.00001c-1.90741,-16.77934 3.44052,-46.81823 46.90644,-46.015" fill="none" stroke="#3a2f41" stroke-width="2"/></g><path d="M176.77899,74.9574c0.21731,1.14995 -11.31186,6.64654 -16.75737,7.8062c-8.08184,1.72109 -8.45865,-0.15138 -8.67594,-1.30133c-0.21731,-1.14995 25.4333,-6.50487 25.4333,-6.50487z" data-paper-data="{&quot;index&quot;:null}" fill="#3a2f41" stroke="#8c9ca0" stroke-width="0.5"/><path d="M208.77776,8.78849c0.07201,0.63349 -0.56149,0.70551 -0.56149,0.70551c-0.37541,0.04267 -1.31392,0.14936 -1.68932,0.19203c-3.06147,0.34801 -6.05613,0.91248 -9.03502,1.62672c-2.97456,0.71317 -5.38971,2.00937 -8.47872,2.36052c0,0 -0.63349,0.07201 -0.70551,-0.56148c-0.07201,-0.63349 0.56148,-0.7055 0.56148,-0.7055c3.03413,-0.34491 5.40404,-1.61968 8.33422,-2.33561c3.0195,-0.73777 6.07388,-1.29859 9.17954,-1.65163c0.37541,-0.04267 0.75081,-0.08535 1.12621,-0.12803l0.5631,-0.06401c0,0 0.63349,-0.07201 0.70551,0.56148z" fill="#3a2f41" stroke="#3a2f41" stroke-width="2.5"/><path d="M223.4389,30.96066c-14.32109,10.30782 -35.15544,37.30379 -35.15544,37.30379c0,0 -17.48604,-2.5662 -24.15689,-10.50635c-1.71247,-3.30017 2.44064,8.19896 2.44064,8.19896c0,0 -18.66494,-4.86747 -20.05369,-23.77677c-0.08373,-2.81901 -0.72325,-9.13782 0.42442,-11.65466c0.68911,-1.51122 -4.12257,4.14297 -4.12257,4.14297c0,0 0.03023,-2.0907 0.46972,-3.60032c5.36327,-18.42242 21.98258,-23.01421 26.10557,-24.69168c0.84462,-0.34364 -2.01795,-1.28334 -3.90316,-3.41148c-2.67695,-3.02189 -4.70917,-7.30893 -2.76388,-5.95837c9.32636,6.47509 39.5261,5.98861 55.07656,12.68358c11.13947,4.7959 11.77108,16.85649 5.63873,21.27035z" data-paper-data="{&quot;index&quot;:null}" fill="#3a2f41" stroke="#626171" stroke-width="1.5"/><path d="M272.20037,42.92996c-3.63288,5.65274 -30.16309,3.50358 -42.01061,-4.11054c-11.84751,-7.61411 -19.09079,-21.65079 -15.45792,-27.30352c3.63288,-5.65273 15.5982,-7.3445 27.44571,0.26961c11.84751,7.61411 33.6557,25.49171 30.02283,31.14444z" fill="#3a2f41" stroke="#3a2f41" stroke-width="2.5"/><path d="M221.43592,10.42328c-1.23923,2.17127 -3.41048,0.93203 -3.41048,0.93203l-2.26107,-1.29049c-3.85463,-2.26011 -8.15961,-1.74963 -12.51652,-1.99198c-5.85381,-0.32561 -11.76018,0.40672 -17.59805,0.08284c-2.84824,-0.15803 -5.68705,-0.7125 -8.57318,-0.83518c0,0 -2.49773,-0.10636 -2.39137,-2.6041c0.10637,-2.49774 2.60411,-2.39137 2.60411,-2.39137c6.83712,0.29162 13.45499,0.83512 20.31488,0.76014c6.8316,-0.07469 14.51312,-0.78748 20.63859,2.63714l2.26106,1.29047c0,0 2.17125,1.23921 0.93203,3.41048z" fill="#3a2f41" stroke="none" stroke-width="0.5"/><path d="M219.3867,40.3108c-6.30459,10.23345 -20.15693,20.70009 -20.15693,20.70009c0,0 -5.27087,-15.18926 1.7123,-23.51203c3.1949,-3.80777 9.58593,-6.44586 11.48904,-6.78452c0.91926,-0.16359 14.46984,-9.51347 17.79099,-5.82574c3.55444,3.94675 -0.83451,13.42076 -10.73254,19.8053z" fill="#3a2f41" stroke="#626171" stroke-width="1.5"/><path d="M264.9364,73.67292c0.33867,1.90309 -5.41092,4.5179 -12.84206,5.84031c-7.43115,1.32242 -16.00967,-8.15453 -16.00967,-8.15453c0,0 11.32639,0.18511 18.20971,-6.11837c5.56646,-5.09756 10.30336,6.52948 10.64202,8.43259z" fill="#3a2f41" stroke="#3a2f41" stroke-width="2.5"/><path d="M214.52476,5.82508c-3.0237,-13.19435 -0.34666,-38.49671 -0.34666,-38.49671l7.53447,-0.50715l-7.79712,-7.6012l-0.74561,-15.74581c0,0 35.35538,36.75855 49.15432,60.16646c0.91343,1.54949 6.51588,-4.3185 6.51588,-4.3185c0,0 1.7438,2.75653 -0.66654,10.90635" data-paper-data="{&quot;index&quot;:null}" fill="#3a2f41" stroke="#8c9ca0" stroke-width="2.5"/><path d="M232.71439,26.23367l0.31315,0.29525c-0.44662,0.63035 -0.93843,1.22532 -1.46116,1.79459l-0.02721,0.06866l0.0932,0.04098l-1.1035,2.50898c-0.35871,0.86434 -1.19027,1.49086 -2.18707,1.54004c-1.12771,0.05563 -2.11769,-0.64493 -2.47827,-1.65624c-0.61762,-0.28069 -1.10441,-0.80623 -1.33013,-1.45862c-0.87447,0.65914 -1.77372,1.24451 -2.73735,1.78304l0.30107,0.34049l-2.3835,2.10756c-0.41246,0.37105 -0.95045,0.60784 -1.54777,0.6373c-1.37903,0.06803 -2.55211,-0.99475 -2.62014,-2.37378c-0.00735,-0.14909 -0.0015,-0.29577 0.01655,-0.43891c-0.66239,0.35725 -1.32442,0.67674 -1.98382,0.94565l-4.07915,2.67846c-0.36773,0.25097 -0.8071,0.40685 -1.28433,0.43039c-0.5695,0.0281 -1.10389,-0.13667 -1.53983,-0.43692c-0.50523,0.49048 -1.0108,0.98071 -1.51695,1.47045c-0.43933,0.42507 -0.86222,0.87105 -1.28087,1.32246c-1.34168,2.26993 -2.59745,4.57602 -3.83925,6.90044l2.17606,-1.54048c0.38093,-0.27886 0.84501,-0.4531 1.3518,-0.4781c1.37903,-0.06803 2.55212,0.99475 2.62015,2.37378c0.03998,0.81038 -0.31055,1.54966 -0.88628,2.03534l-2.00436,1.72396c-2.28949,2.92489 -6.8543,8.86709 -9.3482,11.63018c0,0 0.93264,-1.02944 -0.92007,-2.70796c-0.05402,-0.04895 -0.10504,-0.09804 -0.1532,-0.14724c-0.37402,0.26374 -0.82486,0.428 -1.31579,0.45222c-1.37903,0.06803 -2.55212,-0.99475 -2.62015,-2.37378c-0.02382,-0.48286 0.091,-0.94047 0.30948,-1.33424l2.32964,-4.3773c0.54815,-1.64993 1.2875,-3.32635 2.1395,-4.99971c-0.65748,-0.42135 -1.10829,-1.14358 -1.1497,-1.98297c-0.03162,-0.64111 0.18114,-1.2377 0.55648,-1.69945l1.93126,-2.39818l0.00973,0.00784l0.00869,-0.03045c0.56793,-0.67244 5.90605,-7.0838 6.65906,-7.61336l1.89903,-2.09612c0.42957,-0.47415 1.04002,-0.78442 1.72954,-0.81844c0.31246,-0.01542 0.61436,0.02722 0.89522,0.11844c2.41067,-2.33947 4.82688,-4.67243 7.27782,-6.97215l0.07734,-0.02889l-0.01802,-0.02178l2.56828,-2.12562c0.40443,-0.34223 0.92042,-0.55917 1.49044,-0.58729c1.37903,-0.06803 2.55211,0.99475 2.62014,2.37379c0.01915,0.38812 -0.05128,0.75992 -0.19311,1.09537c1.16145,-0.7505 2.323,-1.50084 3.48465,-2.25102l0.13906,-0.01681l-0.02318,-0.04575l2.65605,-1.34488c0.31582,-0.16889 0.67308,-0.27226 1.05454,-0.29108c0.61058,-0.03012 1.18078,0.16144 1.63258,0.50397c0.2026,-0.06472 0.41685,-0.10447 0.63933,-0.11544c0.30904,-0.01525 0.60774,0.0263 0.88598,0.11547c0.3804,-0.27765 0.84344,-0.45108 1.34897,-0.47602c1.37903,-0.06803 2.55211,0.99475 2.62014,2.37378c0.01777,0.36021 -0.04162,0.70637 -0.16363,1.02245l-1.08173,3.00534l-0.02587,-0.00931c-0.00605,0.04163 -0.01236,0.08325 -0.01897,0.12483c-0.08005,0.50376 -0.27425,0.97209 -0.51236,1.4268z" fill="#3a2f41" stroke="none" stroke-width="0.5"/></g><g><g><path d="M246.2359,58.87521c2.36881,6.27067 0.74959,15.97988 -3.16877,20.45069c-1.76426,2.01302 -33.44623,8.21561 -43.43351,7.63559c-4.7192,-0.27407 -13.30812,-7.21945 -14.40212,-9.61711c-0.23047,-0.50511 -1.88448,-0.6103 -2.60623,-0.5863c-1.38763,0.04614 -2.2875,-0.04452 2.88593,-0.12484c7.95822,-0.12355 21.31286,-2.24458 33.6015,-6.47283c8.71204,-2.99762 16.88827,-7.05434 22.22595,-12.20928c1.08089,-1.04387 -4.63744,0.30339 -3.38601,-0.00257c2.13497,-0.52198 6.858,-2.8463 8.28327,0.92666z" fill="#ffffff" stroke="#3a2f41" stroke-width="1" stroke-linecap="butt"/><path d="M243.67732,57.41156c0.13488,-0.28097 0.4315,-0.1562 0.4315,-0.1562c0.43282,0.20012 0.70082,0.44382 0.84265,0.68621c0.47842,0.37371 0.8274,0.90904 0.9213,1.50651c0.28419,0.36315 0.51911,0.71057 0.68621,0.99606c0.18309,0.32796 1.14166,1.72352 0.47846,2.12994c-0.09268,0.0568 -0.21142,0.06058 -0.34349,0.03254c-0.04074,0.02157 -0.09202,0.03625 -0.15652,0.03943c-0.22846,0.01127 -0.30589,-0.13744 -0.33189,-0.22955c-0.03215,-0.01608 -0.06426,-0.03254 -0.09615,-0.04913c-0.73917,-0.20356 -1.31694,0.08178 -2.06448,0.21207c-0.26608,0.20083 -0.52791,0.38127 -0.84501,0.38555c-0.27276,0.00368 -0.83322,-0.82021 -1.13043,-0.92399c-1.61884,-0.68097 -4.85326,0.33983 -4.68673,2.41797c0.02095,0.06378 0.02322,0.14245 -0.02842,0.22664c-0.0262,0.05567 -0.07202,0.1119 -0.15207,0.14378c-0.07634,0.03941 -0.15054,0.03791 -0.21184,0.02213c-0.11637,-0.01729 -0.18078,-0.08392 -0.21637,-0.14959l-0.02008,-0.02271c-1.66034,-0.75658 -4.1062,1.34611 -5.1108,2.41036c-0.07702,0.08159 -0.1567,0.1093 -0.22791,0.11068c-0.071,0.00562 -0.15301,-0.01409 -0.2377,-0.0877c-0.02388,-0.02076 -0.0433,-0.04175 -0.05889,-0.0627c-0.17821,0.00879 -0.35641,0.01758 -0.53463,0.02638c-2.57495,0.12703 -4.36519,1.55997 -5.64483,3.61038c-0.05037,0.09484 -0.12026,0.1392 -0.18875,0.15726c-0.06847,0.02421 -0.15477,0.02665 -0.25618,-0.02673l-0.24274,-0.11062c-0.88168,0.04349 -1.8855,-0.03421 -2.81966,-0.01929c-1.63318,0.88536 -4.88331,0.77742 -5.53834,3.02764c-0.00511,0.02804 -0.01452,0.058 -0.02921,0.08995c-0.04119,0.08959 -0.09843,0.13938 -0.15788,0.16543c-0.05861,0.02777 -0.13486,0.03883 -0.23289,0.01272c-0.03482,-0.00928 -0.06475,-0.0212 -0.09042,-0.03509l-0.33715,-0.14575c-0.76076,-0.73577 -2.65713,-0.25788 -3.70359,-0.24117c-2.33861,1.3434 -3.98495,1.47133 -6.42221,1.59256c-0.80647,0.06356 -1.60551,0.21297 -2.40177,0.38951c-0.90976,0.31624 -1.68308,0.80262 -2.40604,1.3388c-0.62614,0.46437 -1.86807,-0.42382 -2.53836,-0.4151c-0.05731,0.00322 -0.11463,0.00666 -0.17198,0.01035c-1.57098,0.12855 -1.99288,1.02088 -3.14509,1.40374c-0.31302,0.10401 -1.9624,-0.67894 -2.61159,-0.64691l-0.16462,0.00812c-1.8973,0.0303 -2.93839,0.92367 -3.52407,2.15622l0.01157,0.23465c0.00861,0.17454 -0.13182,0.3233 -0.31365,0.33227c-0.13143,0.00648 -0.24853,-0.06184 -0.30659,-0.16613l-0.13705,-0.23417c-0.59334,-0.26564 -1.44485,-1.17942 -1.7716,-1.72472c0,0 -0.00202,-0.00346 -0.0052,-0.0098c-0.09268,-0.02967 -0.2002,-0.10236 -0.20894,-0.27971c-0.01559,-0.31602 0.31365,-0.33227 0.31365,-0.33227l0.01902,0.0325c1.19559,-0.61852 2.84333,0.09072 4.00564,-0.53937c2.16708,-0.13917 4.34799,-0.53787 6.51198,-0.75904c0.52967,-0.07703 1.05762,-0.09804 1.4416,-0.11699c0.00724,-0.00035 0.01454,-0.00057 0.02194,-0.00067c0.04757,-0.00262 0.09514,-0.00511 0.14268,-0.00745c1.31374,-0.04538 2.62136,-0.39717 3.93277,-0.72501c1.11802,-0.33496 2.36616,-0.53612 2.76986,-0.55603c0.21541,-0.01063 0.4218,-0.02083 0.62045,-0.03123c2.44653,-0.91397 5.51722,-1.05326 7.77099,-2.27505c2.37776,-0.16712 6.71955,-1.41584 8.36529,-3.08426c2.78262,-0.45668 4.82403,-3.01442 7.71531,-3.25823l0.16201,-0.2807c1.25843,-0.17715 2.8685,-0.89906 3.90841,-1.6335c2.85185,-1.07006 5.41217,-3.42506 7.36232,-5.49101c0.91603,-1.76331 2.18688,-1.7538 3.36563,-1.08313c0.00753,0.00076 0.01508,0.00156 0.02262,0.0024z" fill="#3a2f41" stroke="none" stroke-width="0.5" stroke-linecap="butt"/><path d="M201.67656,86.55976l-1.98047,-10.03982" fill="none" stroke="#3a2f41" stroke-width="1" stroke-linecap="round"/><path d="M195.49989,85.12207l-1.7145,-7.99375" fill="none" stroke="#3a2f41" stroke-width="1" stroke-linecap="round"/><path d="M215.21021,73.22022l1.89379,11.62808" fill="none" stroke="#3a2f41" stroke-width="1" stroke-linecap="round"/><path d="M209.07663,86.0363l-2.06621,-11.77798" fill="none" stroke="#3a2f41" stroke-width="1" stroke-linecap="round"/><path d="M224.48439,70.54512l2.43443,12.55179" fill="none" stroke="#3a2f41" stroke-width="1" stroke-linecap="round"/><path d="M233.14317,82.15627l-1.61041,-15.91883" fill="none" stroke="#3a2f41" stroke-width="1" stroke-linecap="round"/><path d="M239.32855,80.42552l-2.47248,-16.66829" fill="none" stroke="#3a2f41" stroke-width="1" stroke-linecap="round"/><path d="M243.94661,77.02975l-0.92074,-15.31925" fill="none" stroke="#3a2f41" stroke-width="1" stroke-linecap="round"/></g><path d="M206.63669,74.79053c0.44237,-0.02183 0.88547,-0.05263 1.32836,-0.05954l0.17547,-0.10294c0,0 0.16766,-0.09179 0.28263,0.04067c0.07518,-0.02341 0.15423,-0.049 0.23771,-0.07847l0.01905,0.02325c0.55109,-0.4313 1.1564,-0.80756 1.76179,-1.12387c1.22011,-0.08603 5.22483,-0.73526 5.11777,1.19648l0.06986,-0.00344l0.01102,0.22329c0.00609,0.12332 -0.09203,0.22837 -0.21914,0.23464c-0.09188,0.00454 -0.17376,-0.04378 -0.21439,-0.11749l-0.12365,-0.21341c-0.72895,-1.4713 -3.14596,-0.69244 -4.38817,-0.67303c-1.43249,0.84031 -2.74864,1.4791 -2.65474,3.38258c0,0 0.01102,0.22329 -0.21914,0.23464c-0.04748,0.00234 -0.08563,-0.0053 -0.1163,-0.01891l0.00672,0.13623c0.00609,0.12332 -0.09203,0.22837 -0.21914,0.23464c-0.12712,0.00627 -0.23509,-0.08861 -0.24117,-0.21193l-0.00903,-0.18306c-0.02457,-0.03942 -0.04922,-0.07817 -0.07397,-0.11624c-0.10116,-0.0807 -0.18491,-0.21629 -0.2604,-0.37115c-0.24384,-0.32018 -0.49993,-0.5808 -0.77948,-0.78654c-0.24274,-0.11208 -0.51758,-0.27099 -0.76246,-0.40569c-0.4773,-0.17031 -1.02473,-0.2321 -1.67716,-0.19992c-2.73059,0.1347 -2.37984,1.37555 -3.27047,2.81632l0.04049,0.01722l-0.10205,0.22454c-0.03318,0.07735 -0.1099,0.13348 -0.20179,0.13802c-0.09188,0.00454 -0.17376,-0.04378 -0.21439,-0.11749l-0.10534,-0.18181l-0.21349,-0.18762l0.008,-0.00857l-0.03332,-0.01758c-0.39049,-0.65822 -1.05358,-1.6767 -1.96825,-1.60063c-0.50283,0.02481 -1.3166,0.09793 -1.98747,0.34054c-0.12897,0.13985 -0.25339,0.2799 -0.36816,0.42359c-0.25114,0.50871 -0.41744,1.10095 -0.63765,1.68862c0.00046,0.01496 0.00107,0.02999 0.00181,0.04511l0.01101,0.22328c0.00609,0.12332 -0.09203,0.22837 -0.21914,0.23465c-0.04192,0.00207 -0.08177,-0.00687 -0.11655,-0.02419c-0.03291,0.02066 -0.07169,0.03348 -0.11361,0.03555c-0.12712,0.00627 -0.23509,-0.08862 -0.24117,-0.21194l-0.00551,-0.11164c-0.12712,0.00627 -0.23509,-0.08861 -0.24117,-0.21193l-0.00903,-0.18306c-0.05948,-0.09547 -0.1311,-0.20631 -0.21328,-0.32437c-0.16933,-0.17327 -0.35476,-0.40566 -0.52013,-0.63099c-0.60244,-0.17395 -1.4178,-0.43645 -2.10101,-0.63364c-0.84826,0.0354 -1.53985,0.13172 -2.23064,0.83764c-0.30256,0.30918 -0.34831,0.61836 -0.44521,0.90313c-0.00871,0.11329 -0.01142,0.23158 -0.00809,0.35539l-0.05439,0.03301l0.03864,0.01644l-0.10206,0.22454c-0.03318,0.07735 -0.1099,0.13348 -0.20178,0.13802c-0.12712,0.00627 -0.23509,-0.08861 -0.24118,-0.21193c-0.00185,-0.0375 0.00593,-0.07332 0.02124,-0.10519l0.08554,-0.18821c-0.00384,-0.06835 0.00639,-0.15523 0.02808,-0.25527c-0.0299,-0.32621 0.17421,-0.73787 0.39761,-1.03801c0.14974,-0.30036 0.32133,-0.59118 0.48432,-0.80942c-0.81908,0.04477 -2.05992,0.09064 -2.7775,-0.09116c-0.03071,0.00151 -0.06143,0.00303 -0.09214,0.00455l-0.34524,0.01703c-0.12712,0.00627 -0.23509,-0.08861 -0.24117,-0.21193c-0.00609,-0.12332 0.09203,-0.22837 0.21914,-0.23465c0.01024,-0.00051 0.3657,-0.01804 0.37594,-0.01855c0.50247,-0.20422 1.24481,-0.15497 1.94662,-0.07609c0.02836,-0.01421 0.0602,-0.0229 0.0941,-0.02457l0.23016,-0.01136c0.07286,-0.0036 0.14583,-0.00818 0.2188,-0.01309c1.11743,-0.48685 2.66774,-0.21172 3.95225,0.33564c0.01029,-0.10933 0.10225,-0.19761 0.21846,-0.20334l0.34524,-0.01703l0.01196,0.24245l0.00863,0.00758c0.57743,0.17146 1.32178,0.5634 1.14767,1.01247c0.00142,0.00124 0.00283,0.00248 0.00424,0.00371c0.00322,0.0057 0.00648,0.01145 0.00973,0.01725c0.11911,-0.34319 0.41421,-0.63516 0.79453,-0.87652c0.64791,-0.91002 1.79742,-1.46454 2.92754,-1.54422c0.56954,-0.01959 1.3132,-0.34768 1.9051,-0.33698c0.08957,-0.4913 0.25964,-0.71075 0.57545,-0.1269c0.0821,0.15178 0.03892,0.27895 -0.08454,0.3854c0.11128,0.25647 0.05168,0.674 -0.01558,1.09235c0.23552,-0.19112 0.54523,-0.45463 0.89204,-0.72275c0.13082,-0.16572 0.24566,-0.292 0.31379,-0.33248c0.13808,-0.0756 0.28261,-0.14155 0.43216,-0.1987c0.49999,-0.31983 1.02069,-0.56811 1.47781,-0.59066c0.35483,-0.0175 0.80426,0.01936 1.28015,0.11088c0.01246,-0.0682 0.05695,-0.12636 0.11846,-0.15841l0.2203,-0.12063l0.04921,0.08493c0.42702,-0.16298 0.87137,-0.02645 1.28366,0.22077l-0.03781,-0.06525c-0.01837,-0.0302 -0.02964,-0.06507 -0.03149,-0.10258c-0.00609,-0.12332 0.09203,-0.22837 0.21914,-0.23464c0.03866,-0.0019 0.07555,0.00554 0.10833,0.02029l0.19396,0.08255c0.0282,-0.00724 0.04844,-0.00824 0.04844,-0.00824zM207.16896,75.61038c0.00702,-0.011 0.01413,-0.02187 0.02129,-0.03259c-0.03511,-0.03706 -0.05753,-0.08584 -0.06021,-0.14012c-0.00304,-0.06166 0.01997,-0.11876 0.05962,-0.16123l0.06338,-0.06786c-0.10365,0.00505 -0.20731,0.00995 -0.31096,0.01487c0.09417,0.11337 0.17049,0.24367 0.22686,0.38693zM207.82353,76.05874c-0.15859,0.18729 -0.30496,0.38345 -0.43655,0.58955c0.08872,0.14319 0.15512,0.29551 0.19467,0.45699c0.02371,-0.39168 0.10815,-0.73721 0.24189,-1.04654zM207.61106,77.65233l0.00315,-0.00015c-0.00088,-0.00152 -0.00173,-0.00303 -0.00257,-0.00454c-0.00019,0.00156 -0.00039,0.00314 -0.00059,0.00469zM196.11316,76.74871c0.13582,-0.04061 0.27088,-0.07685 0.40283,-0.10874c-0.17183,0.01363 -0.30581,0.04013 -0.3775,0.08113c-0.00843,0.00921 -0.01688,0.01843 -0.02533,0.02761zM199.53145,75.97012c-0.56862,0.16623 -1.34409,0.23552 -1.71017,0.26084c0.62679,0.14652 1.23806,0.44275 1.67816,0.84774c-0.00184,-0.33015 0.00396,-0.73931 0.03202,-1.10858z" fill="#3a2f41" stroke="none" stroke-width="0.5" stroke-linecap="butt"/><path d="M242.84085,63.0507c0.13444,0.13159 0.24678,0.26789 0.34081,0.41123c0.15315,-0.33157 0.33551,-0.61899 0.48459,-0.77539c0.98513,-1.03359 2.0183,-0.85785 2.81727,-0.20872c-0.01976,-0.14641 -0.04534,-0.27936 -0.08225,-0.38921c-0.92589,-2.75422 -2.33178,-5.90629 -5.05239,-2.99781c-0.85178,0.68644 -1.45543,1.67937 -2.12427,2.5868c0.02148,0.00615 0.04372,0.01198 0.06667,0.01752c0.78404,-0.25302 1.73047,-0.38155 2.49664,-0.22032c0.27513,-0.04051 0.47522,-0.019 0.55174,0.08713c0.03816,0.05293 0.07175,0.10378 0.10097,0.15261c0.40933,0.2358 0.69395,0.61995 0.75563,1.19982zM237.10036,65.3748c-0.00363,-0.11235 -0.00315,-0.22348 0.00153,-0.33313l0.10536,0.40652c0,0 0.01073,0.21756 -0.13931,0.3567c0.51129,0.94994 0.9177,2.03042 0.93457,3.05503c0.01622,0.03486 0.03216,0.06897 0.04784,0.10223l-0.04771,0.02044c-0.00012,0.00848 -0.00027,0.01694 -0.00045,0.02541l0.05818,-0.01718l0.03325,0.10693l0.10091,-0.00498l0.02203,0.44659c0.01217,0.24664 -0.18406,0.45676 -0.43828,0.4693c-0.21907,0.01081 -0.40971,-0.12861 -0.46604,-0.3252l-0.12758,-0.41026c-0.19913,-0.42553 -0.31306,-0.9377 -0.5925,-1.32095c-1.87715,-2.57457 -2.98251,-0.87096 -3.83359,1.02261c0.23155,1.00046 0.14733,2.0613 -0.06868,3.11675l0.02,0.40543c0.01217,0.24664 -0.18406,0.45676 -0.43828,0.4693c-0.15251,0.00753 -0.29125,-0.05777 -0.38049,-0.16447l-0.36385,-0.42555l0.14721,-0.11864c-0.59011,-0.78686 -0.42463,-1.62736 -0.92934,-2.75401c-0.05197,-0.11602 -0.2105,-0.4197 -0.36112,-0.74391c-0.0588,-0.0588 -0.12183,-0.11073 -0.19009,-0.15364c-0.16324,-0.04588 -0.31997,-0.07823 -0.47052,-0.09799c-0.04475,0.00267 -0.09255,-0.00095 -0.14097,-0.01501c-0.17907,-0.01453 -0.34906,-0.01075 -0.51057,0.00962c-0.27222,0.09358 -0.53934,0.19823 -0.7927,0.33709c-0.31078,0.26826 -0.63425,0.5675 -0.97418,0.85876c-0.83527,1.213 -1.22241,3.08812 -1.55719,4.4491c-0.00429,0.03405 -0.01255,0.067 -0.02434,0.09837c-0.01389,0.05582 -0.02773,0.1107 -0.04151,0.16455l0.08525,-0.0042l0.02203,0.44659c0.01217,0.24664 -0.18406,0.45676 -0.43828,0.4693c-0.21907,0.01081 -0.40972,-0.12861 -0.46604,-0.3252l-0.13433,-0.43196c-0.10279,-0.33055 -0.21547,-0.588 -0.32099,-0.81838c-0.18039,-0.18304 -0.33993,-0.40518 -0.52781,-0.72689l-0.20039,-0.34582c-0.11706,-0.09668 -0.23209,-0.18894 -0.34592,-0.27675c-0.36063,-0.21926 -0.76963,-0.3785 -1.19959,-0.49076c-0.14946,-0.01051 -0.28515,-0.03965 -0.40113,-0.0905c-0.71273,-0.13706 -1.4583,-0.16153 -2.12034,-0.12887c-1.72307,0.06887 -3.07251,2.65043 -3.03305,4.11818c-0.30811,0.67794 -0.01581,1.89276 0.02074,2.63357l0.01101,0.22329c0.00609,0.12332 -0.09203,0.22837 -0.21914,0.23464c-0.09188,0.00454 -0.17376,-0.04378 -0.21439,-0.11749l-0.12365,-0.2134l0.07178,-0.0393c-0.10801,-0.15247 -0.20249,-0.32229 -0.28379,-0.50601c-0.02027,0.00611 -0.04328,0.01013 -0.0694,0.01141c-0.23016,0.01135 -0.24117,-0.21194 -0.24117,-0.21194l-0.00627,-0.18767c-0.42918,-1.07379 -0.46687,-2.15955 -1.26536,-3.08817c-0.1138,-0.13235 -0.45726,-0.37108 -0.72406,-0.60117c-0.14214,-0.06704 -0.28275,-0.12888 -0.41615,-0.18722l-0.02131,-0.03044l-0.008,0.00857l-0.24118,-0.21193l0.06103,-0.06534l-0.12292,-0.17553c0.07217,-0.01708 0.1426,-0.02909 0.21137,-0.03628l-0.00553,-0.11205l0.23016,-0.01135l0.00579,0.11723c0.46935,0.02513 0.85492,0.28384 1.17718,0.66886c0.28272,0.18416 0.54107,0.39991 0.73905,0.65373c0.01388,-0.59516 0.29313,-1.16581 0.72429,-1.66013c0.0295,-0.13606 0.11974,-0.23269 0.11974,-0.23269c0.19493,-0.20872 0.38104,-0.40963 0.56935,-0.60407c-0.25248,0.01396 -0.53069,0.02336 -0.84774,0.03901l-0.46031,0.02271c-0.25422,0.01254 -0.47018,-0.17724 -0.48234,-0.42388c-0.01083,-0.21953 0.14342,-0.4101 0.35672,-0.45821l0.5616,-0.138l0.01628,0.06307c1.91725,-1.0314 3.90422,-1.15514 5.75612,-0.59396c0.23039,-0.34394 0.70104,-0.37493 1.11757,-0.37576c0.48962,-0.00097 0.91706,-0.02314 1.30249,-0.07076c0.35698,-0.1694 0.72222,-0.33426 1.04922,-0.48771l0.19578,-0.28084c0.07829,-0.11496 0.20994,-0.19358 0.36245,-0.20111c0.17851,-0.0088 0.33815,0.08214 0.42162,0.22248c0.76418,-1.29778 1.75517,-2.34917 3.67006,-2.65932c0.36911,-0.05978 0.80823,0.07112 1.20582,0.30872c0.11297,-0.02439 0.2138,-0.03281 0.30423,-0.02662c0.24625,-0.15241 0.50445,-0.30508 0.73589,-0.43891c-0.00472,-0.02235 -0.00772,-0.04533 -0.00888,-0.06883c-0.00879,-0.17827 0.09129,-0.33746 0.24345,-0.41675l0.44059,-0.24123l0.01057,0.01824l0.08779,-0.05838c0.03576,0.00858 0.07153,0.01716 0.10729,0.02573l-0.00212,-0.04288l0.21157,-0.01044c0.08487,-0.09553 0.17621,-0.18761 0.27282,-0.27491c0.27522,-0.34228 0.57019,-0.67034 0.86975,-0.94976c0.00564,-0.01649 0.01223,-0.03257 0.01972,-0.04819l0.20439,-0.4497l0.04289,0.01825l0.02597,-0.12561c0.84758,-0.57534 1.85618,-0.82523 2.69847,-1.33769c1.50846,-0.91778 2.24705,-3.03308 3.64211,-4.15734c3.67269,-3.93964 7.33172,1.84217 6.95235,5.68972c0.03824,0.09674 0.0722,0.19346 0.10156,0.28937l-0.14222,0.02415c-0.00205,0.01265 -0.00415,0.02528 -0.0063,0.03788l0.15466,-0.00763l0.02203,0.44659c0.01217,0.24664 -0.18406,0.45675 -0.43828,0.46929c-0.25422,0.01254 -0.47017,-0.17724 -0.48234,-0.42388l-0.01997,-0.40492c-0.09897,-0.30585 -0.2534,-0.59236 -0.36776,-0.89315c-0.47311,-1.24439 -2.22625,-0.8263 -2.56759,0.35805c-0.10594,0.36758 0.12696,1.11494 -0.03296,1.41412c-0.01644,0.03075 -0.03426,0.06059 -0.05325,0.08964l0.02176,0.00926l-0.20409,0.44906c-0.06636,0.1547 -0.21981,0.26698 -0.40356,0.27605c-0.25422,0.01254 -0.47018,-0.17723 -0.48235,-0.42387l-0.02203,-0.44659c-0.03509,-0.8662 -0.11343,-1.47457 -0.82122,-1.99698c-3.40968,0.41797 -3.87196,2.73721 -3.72075,5.80242c0,0 0.02203,0.44658 -0.43828,0.4693c-0.46031,0.02271 -0.48234,-0.42388 -0.48234,-0.42388c-0.04662,-0.94492 -0.01803,-1.85933 0.12814,-2.6933c-0.00995,0.00112 -0.02002,0.00194 -0.03017,0.00244c-0.25422,0.01254 -0.47017,-0.17724 -0.48234,-0.42388c-0.00163,-0.03318 0.00049,-0.0657 0.00604,-0.09716l0.08612,-0.55477l0.03633,0.00521c0.02661,-0.03889 0.05222,-0.07674 0.07682,-0.11357zM237.23476,64.18797c-0.14735,0.02154 -0.33325,0.07428 -0.54515,0.14279c0.10929,0.17007 0.21386,0.35651 0.35071,0.47334l0.06157,0.23754c0.01269,-0.29721 0.0563,-0.58353 0.13287,-0.85367zM231.86593,67.54327c-0.03163,0.01671 -0.06318,0.03341 -0.09458,0.05009c0.01066,0.02681 0.02101,0.05439 0.03108,0.08271c0.01925,-0.04202 0.04045,-0.08637 0.0635,-0.13281zM219.26169,71.14593c-0.16094,0.00732 -0.36511,0.05085 -0.59431,0.11294c0.00815,0.02058 0.01477,0.04193 0.01973,0.06392c0.17926,-0.0324 0.35599,-0.05168 0.52749,-0.05663c0.08745,-0.04788 0.17567,-0.09041 0.26454,-0.12788c-0.07125,0.00176 -0.14371,0.0043 -0.21746,0.00765zM224.91354,71.35724c-0.21176,0.1894 -0.44508,0.34043 -0.67267,0.41506c0.12271,0.17814 0.20979,0.32764 0.24578,0.39552c0.0014,0.00109 0.00279,0.00217 0.00419,0.00326c0.14807,-0.26932 0.28734,-0.54176 0.42271,-0.81385zM215.38975,74.91769c0.05003,0.10446 0.09008,0.21429 0.11844,0.32979c0.0119,-0.12741 0.0271,-0.25465 0.04556,-0.3812c-0.03223,0.02746 -0.07816,0.04779 -0.14355,0.05102c-0.00701,0.00034 -0.01383,0.00047 -0.02044,0.00039zM215.6399,74.38751c0.03164,-0.14722 0.06778,-0.29251 0.10832,-0.43501c-0.05334,0.14086 -0.09027,0.28608 -0.10832,0.43501z" fill="#3a2f41" stroke="none" stroke-width="0.5" stroke-linecap="butt"/></g><g stroke="#3a2f41" stroke-width="2" stroke-linecap="butt"><path d="M281.80082,315.48733l2.5,-48l44.5,-1l10,31l-1.28479,14.39755l6.64278,3.12743c0,0 9.7167,-6.18271 13.26348,-1.88822c5.90139,7.1455 -5.7798,12.51748 -11.6799,18.87583c-3.31442,3.57184 -18.9986,-6.65849 -18.9986,-6.65849c0,0 18.90788,8.27364 22.32075,18.09992c2.26191,6.51245 -6.46824,8.09535 -6.46824,8.09535c0,0 -28.18185,-16.16286 -26.90544,-14.20617c17.83762,27.34431 -4.80801,23.73022 -4.80801,23.73022z" fill="#7c7984"/><path d="M284.30082,267.48732l40.1696,-0.90269c0,2.5467 0,5.0934 0,7.6401c0,1.05465 -0.40544,1.76669 -0.61463,2.76464l-0.28386,0.3542c-0.0351,0.04305 -0.05615,0.09801 -0.05615,0.15788c0,0.13807 0.11193,0.25 0.25,0.25c0.03816,0 0.07432,-0.00855 0.10667,-0.02384l0.45179,-0.20123l-0.049,-0.11001c0.69245,-0.34763 1.21566,-0.97162 1.71192,-1.61162c-0.14281,0.7429 -0.15521,1.66124 -0.25438,2.22775c-0.36309,2.07408 -0.9216,4.21453 -1.51293,6.2284c-1.91418,2.53137 -2.44323,6.73915 -3.92571,9.60459c-0.1251,0.55763 -0.40596,0.78357 -0.45974,1.34938l-0.04275,-0.02004l-0.20999,0.44795c-0.01656,0.03341 -0.02587,0.07106 -0.02587,0.11088c0,0.13807 0.11193,0.25 0.25,0.25c0.09129,0 0.17116,-0.04893 0.21479,-0.122l0.26113,-0.42125l-0.02072,-0.01285l0.04623,-0.04234c0.00174,-0.02947 0.00413,-0.058 0.0071,-0.0857c0.43545,-0.3416 0.78189,-0.94346 1.19132,-1.29493c1.88325,-1.61667 3.41611,-3.65735 5.41586,-5.06796c0.79525,-0.70083 1.55335,-1.70954 2.26922,-2.69936c-1.05974,2.13104 -1.91704,4.49149 -3.25049,6.5129c-1.91807,2.91039 -4.32439,5.41991 -6.62367,8.05703c-2.23282,2.56089 -5.23934,4.58143 -7.85402,6.69098c-1.2255,0.35845 -2.20137,1.45843 -3.46551,1.79724l-0.01848,0.01491l-0.00279,-0.00569l-0.44411,0.21752c-0.08559,0.03969 -0.14496,0.12637 -0.14496,0.22693c0,0.12577 0.09288,0.22986 0.21379,0.2474l0.4895,0.07975l0.01983,-0.1217c2.58236,0.23571 6.8452,-2.64545 8.43812,-4.22396c2.4717,-2.50673 6.12937,-3.38759 8.38763,-6.00598c2.40021,-2.62788 5.63035,-3.91207 8.18156,-6.23924c0.37156,-0.38797 0.71178,-0.32858 1.17274,-0.59909l0.02399,0.01184c-0.4501,0.52971 -0.97147,1.56932 -1.13143,2.13662l-0.31007,0.33123c-0.0421,0.04474 -0.0679,0.105 -0.0679,0.17129c0,0.13807 0.11193,0.25 0.25,0.25c0.06903,0 0.13153,-0.02798 0.17677,-0.07322v0l0.31449,-0.31446c1.44084,-0.66791 2.75453,-1.1434 4.11812,-1.45699l1.13699,3.52467l-1.28479,14.39755l1.72356,0.81146c0.5905,1.20784 1.44576,2.51363 2.47601,3.03373c-1.05569,-0.16195 -1.97554,-0.61723 -3.02196,-0.38832l-0.02497,-0.09986l-0.48,0.12c-0.11133,0.02526 -0.19444,0.12483 -0.19444,0.2438c0,0.03333 0.00652,0.06514 0.01836,0.09421c-1.04663,-0.10631 -2.10626,-0.26116 -3.1255,-0.1382v-0.06316h-0.5c-0.13807,0 -0.25,0.11193 -0.25,0.25c0,0.106 0.06597,0.19659 0.15908,0.23295c0.12963,1.05334 4.58674,3.50821 5.67476,4.05276c0.99538,0.46034 -1.61855,0.03571 -2.29813,0.03571c-1.73209,0 -3.61568,-0.1951 -5.35714,0.03105v-0.03105h-0.5v0.10886c-0.07735,0.01416 -0.15435,0.02929 -0.23097,0.04547l0.12662,0.20002l-0.07243,0.07243l0.28571,0.28571l0.00823,-0.00823l0.02112,0.03335c0.3459,0.18142 0.61811,0.3838 0.87802,0.54972c-2.03078,0.00804 -4.03867,0.03982 -6.06805,-0.0208c-0.6368,-0.15857 -0.9951,-0.1134 -1.14801,0.07381c-0.05236,-0.06252 -0.07598,-0.07272 -0.04592,0.01357c0.00409,0.01173 0.00848,0.02305 0.01317,0.03398c-0.5018,0.87206 2.45417,4.11962 3.59709,5.29192c-0.00582,0.0092 -0.01142,0.01913 -0.01676,0.02981c-0.1118,0.22361 0.1118,0.33541 0.1118,0.33541c1.53045,0.76409 3.57468,1.68306 5.12249,2.76901c0.26549,0.59834 0.72141,1.51277 1.29069,1.89985c-1.50362,-0.03565 -3.10529,-1.14938 -4.58709,-1.16875v-0.11658h-0.42857c-0.09901,0 -0.18457,0.05755 -0.22506,0.14103c-0.66919,-0.02502 -3.14319,-0.28852 -3.30521,0.3428c-0.23182,0.90333 2.4634,3.33858 3.06778,3.94295c1.19903,1.19903 3.84424,4.31693 5.89715,5.11233c-0.65006,-0.06487 -1.26313,-0.21865 -1.91935,-0.38072c-0.8271,-0.40033 -4.87794,-2.38152 -5.65817,-2.30124c-0.52755,0.05428 -0.65171,0.82571 -0.61296,1.51422c-0.48215,-1.30844 -0.93108,-2.03123 -2.098,-3.18131c-2.54755,-1.29555 -4.14534,-4.24592 -6.43429,-5.79479l0.03632,-0.03632l-0.28571,-0.28571c-0.04524,-0.04524 -0.10774,-0.07322 -0.17678,-0.07322c-0.13807,0 -0.25,0.11193 -0.25,0.25c0,0.04199 0.01035,0.08156 0.02864,0.1163l0.13463,0.26927c0.38172,1.15099 1.24846,4.02212 2.36563,4.86399l-0.03624,0.02174l0.02887,0.04811c-0.39224,0.52763 0.25834,1.73654 0.98845,2.28347c-0.49699,-0.01883 -0.96561,-0.10082 -1.44819,-0.26166c-0.49948,-0.25541 -2.85994,-1.33077 -3.31017,-0.75838c-0.26011,0.33068 0.45507,0.88949 0.55537,1.0895c0.10984,0.21904 0.23087,0.49999 0.34926,0.81225c-0.69289,-0.33724 -1.27748,-0.60628 -1.72473,-0.78983c-1.18949,-1.69449 -2.61167,-3.3791 -4.02143,-2.92005c-0.03797,0.46889 -0.17363,1.00399 0.07643,1.43488c0.11694,0.2015 -0.37079,-0.30052 -0.59336,-0.36935c-0.60062,-0.18574 -1.77949,-1.15389 -2.39585,-0.92197c-0.93004,0.34996 0.65637,3.69158 1.21878,3.97278c0.71612,1.58858 2.38576,3.01226 3.74488,4.02603c0.39491,0.29456 0.6802,0.8412 1.01171,1.25832c-0.47862,-0.21754 -0.96253,-0.43036 -1.44055,-0.66875c-1.64939,-1.43117 -4.97928,-4.23003 -7.32175,-5.16652l0.02722,-0.05443l-0.44272,-0.22136c-0.03474,-0.01829 -0.07431,-0.02864 -0.1163,-0.02864c-0.13807,0 -0.25,0.11193 -0.25,0.25c0,0.03055 0.00548,0.05982 0.01551,0.08689l-0.10949,-0.0365c-0.02642,-0.0095 -0.0549,-0.01467 -0.08459,-0.01467c-0.13807,0 -0.25,0.11193 -0.25,0.25c0,0.04199 0.01035,0.08156 0.02864,0.1163l0.12212,0.24425c0.02325,0.84983 0.40267,2.90581 0.83324,4.12906c-0.62313,-1.01018 -1.15348,-2.0701 -1.81791,-3.06575c-1.304,-1.63185 -4.75241,-7.95559 -5.45108,-3.3715c-0.00064,0.45389 -0.24277,1.83428 0.11784,2.16354c0.14564,0.13298 -0.3167,-0.24786 -0.5038,-0.31022c-0.45227,-0.15076 -0.83215,-0.38049 -1.2691,-0.56523c-0.77086,-0.32592 -1.55337,-0.66156 -2.36362,-0.8547l-12.75724,-19.99143c0.07216,-3.2226 0.49858,-6.22123 0.75766,-9.41163c0.73352,-1.49326 0.74246,-3.5396 1.57715,-5.11012c0.76492,-1.43924 1.70884,-2.87575 2.24897,-4.4609c1.10602,-3.25406 3.85848,-5.74217 5.97338,-8.40529c2.12176,-2.12059 4.76351,-4.41084 6.31806,-7.01057l0.01286,0.01282l0.35292,-0.35414c0.00001,-0.00001 0.00001,-0.00001 0.00002,-0.00002c0.04506,-0.04522 0.07292,-0.10759 0.07292,-0.17647c0,-0.13807 -0.11193,-0.25 -0.25,-0.25c-0.05682,0 -0.10922,0.01896 -0.1512,0.05089l-0.39923,0.29669c-1.16707,0.88706 -2.06874,2.06006 -3.40449,2.8304c-2.56528,2.32552 -5.82373,3.50605 -8.46606,5.77037c-0.3477,-0.11863 0.94057,-1.66003 1.08603,-2.0454c0.68491,-1.81461 2.86594,-3.54783 3.49105,-5.34984l0.1109,0.03335l0.14231,-0.47325c0.00796,-0.02442 0.01226,-0.05049 0.01226,-0.07756c0,-0.13807 -0.11193,-0.25 -0.25,-0.25c-0.05643,0 -0.1085,0.0187 -0.15034,0.05024l-0.37911,0.279c-0.48197,0.1751 -0.92217,0.33982 -1.36955,0.59407c-2.15214,1.22774 -4.44149,2.24349 -6.68251,3.31479z" fill="#e1e2db"/></g><g stroke="#3a2f41" stroke-linecap="butt"><path d="M321.30082,211.73733c2.96719,13.41986 10.22015,56.81953 10.22015,56.81953c0,0 -39.78994,3.93047 -43.47014,3.93047c-5.93706,0 -9.75,-26.37027 -9.75,-60.75c0,-34.37973 -19.18706,-114.75 -13.25,-114.75c5.93706,0 37.60491,30.42291 56.25,114.75z" fill="#7c7984" stroke-width="2"/><path d="M271.53137,281.53362c0,0 2.81866,-34.68571 3.2509,-47.53012c0.25417,-7.55317 -0.39454,-22.49222 -0.39454,-22.49222l29.89077,-7.59991l-24.70783,-4.88134l7.828,-4.54425l-13.46427,-10.44027c0,0 -7.13916,-59.94235 -13.54217,-79.78123c-6.03665,-18.70377 2.70659,-16.68663 10.02019,-12.95629c7.16034,3.65217 15.29768,16.57202 24.55223,35.86082c0.81671,1.70223 -3.35787,41.95408 -2.52366,43.75352c2.04854,4.41883 9.15013,-29.37525 11.3062,-24.41172c2.10687,4.85025 4.26574,9.94647 6.47797,15.26115c7.59609,18.24885 26.96606,95.72778 26.96606,95.72778c0,0 -3.02613,3.58934 -7.04545,5.69128c-2.64069,1.38098 -5.99425,0.98323 -8.20059,2.5014c-3.17189,2.18255 3.47113,3.04854 9.60708,2.13168c4.43903,-0.6633 8.61266,-2.97463 8.61266,-2.97463l1.96668,9.14399z" fill="#3a2f41" stroke-width="2.5"/></g><path d="M253.92985,60.40123c-0.15783,0.28138 -0.31566,0.56277 -0.47349,0.84415c-1.21703,3.52424 -0.03299,7.5959 -1.29397,11.23448c-1.28407,3.7052 -4.85586,6.98606 -5.78584,10.67282c-0.22094,0.87587 -0.33719,1.86587 -0.39782,2.87873c0.20805,1.10676 0.31072,2.18824 -0.06373,3.16403c0.00059,0.26601 0.0015,0.52642 0.00167,0.77928c0,0 0,1.10789 -0.95214,1.4194c-0.22823,0.5372 -0.76072,0.91394 -1.38119,0.91394c-0.82843,0 -1.5,-0.67157 -1.5,-1.5v-1.5c0,-0.95182 0.2284,-1.9238 0.03268,-2.85528c-0.06517,-0.31014 -0.15559,-0.59227 -0.25935,-0.8557c-3.41011,3.98159 -3.86438,11.21244 -3.6082,16.14301c0.11085,2.13356 0.39179,4.30307 0.49258,6.4043c0.03736,0.77886 0.36329,1.74698 -0.1494,2.3345c-0.15003,0.17192 -0.31986,0.31823 -0.50407,0.44594l0.06243,0.08323l-1.32121,0.99091c-0.25274,0.19387 -0.56898,0.30909 -0.91212,0.30909c-0.82843,0 -1.5,-0.67157 -1.5,-1.5v-1.66667h0.02191l-0.02005,-0.07472c0.59421,-5.94212 0.44328,-12.37427 0.1671,-18.34233c-0.00313,-0.06769 -0.12325,-1.11177 -0.21902,-1.92723c-1.2919,-0.95691 -2.8451,-2.17124 -2.90236,-2.61425c-0.13963,-1.08025 0.57937,-2.17867 1.29431,-3.00044c0.51266,-0.58926 1.41576,-0.6625 2.14218,-0.94952c2.36453,-0.93425 4.65195,-1.27988 6.92112,-2.37345c0.23752,-0.26193 0.50269,-0.5116 0.77681,-0.75583c0.19228,-0.24813 0.38198,-0.51216 0.56993,-0.79428c0,0 0.39971,-0.59957 1.06062,-0.69054c0.11829,-0.12727 0.22903,-0.25672 0.32977,-0.38927c1.08805,-1.43146 2.08985,-3.05653 2.88336,-4.78706c0.89959,-3.06334 1.78015,-6.90247 -0.05281,-9.37477c-1.71825,0.41123 -4.92825,1.0228 -5.85971,-0.55387c-0.54835,-0.92819 -0.37641,-2.29322 0.15643,-3.2304c0.47795,-0.84063 1.67519,-0.96653 2.5086,-1.45696c2.25405,-1.32641 4.72573,-2.84935 7.30192,-3.45846c0.78341,-0.18523 1.69422,-0.71385 2.39423,-0.31633c2.18791,1.24247 2.34318,2.43845 1.63779,3.42919c0.01273,0.11135 0.01793,0.2241 0.01441,0.33846c-0.02318,0.7529 -0.45644,1.44052 -1.11506,2.0524c-0.12337,0.24761 -0.30656,0.41556 -0.4983,0.52948z" fill-opacity="0.33065" fill="#ffffff" stroke="none" stroke-width="0.5" stroke-linecap="butt"/><path d="M254.48717,56.68624c-0.71151,0.23717 -0.94868,-0.47434 -0.94868,-0.47434l0.39776,-0.00174c-1.5746,-0.39575 -3.34348,1.15797 -5.01958,1.18123c0,0 -0.75,0 -0.75,-0.75c0,-0.75 0.75,-0.75 0.75,-0.75c1.90239,0.03723 3.34344,-1.48661 5.31375,-1.1521l0.73109,0.99826c0,0 0.23717,0.71151 -0.47434,0.94868z" fill-opacity="0.59608" fill="#ffffff" stroke="none" stroke-width="0.5" stroke-linecap="butt"/><path d="M236.25208,111.31221c-0.67082,0.33541 -1.00623,-0.33541 -1.00623,-0.33541l-0.41251,-1.00208c0,-1.40128 0.17332,-2.78262 0.16667,-4.16667c0,0 0,-0.75 0.75,-0.75c0.75,0 0.75,0.75 0.75,0.75c-0.0056,1.39142 -0.16667,2.76075 -0.16667,4.16667l0.25415,0.33126c0,0 0.33541,0.67082 -0.33541,1.00623z" fill-opacity="0.59608" fill="#ffffff" stroke="none" stroke-width="0.5" stroke-linecap="butt"/><path d="M243.98014,90.28834c0.10713,0.11106 0.18653,0.27569 0.18653,0.51972c0,0.75 -0.75,0.75 -0.75,0.75l-0.91667,-0.75c0.00411,-0.85565 -0.16321,-1.64096 -0.16667,-2.5c0,0 0,-0.75 0.75,-0.75c0.75,0 0.75,0.75 0.75,0.75c-0.00327,0.68043 0.10187,1.31637 0.14681,1.98028z" fill-opacity="0.59608" fill="#ffffff" stroke="none" stroke-width="0.5" stroke-linecap="butt"/><g><g data-paper-data="{&quot;index&quot;:null}" stroke="#3a2f41" stroke-width="2"><g><path d="M124.45147,217.36459c1.18375,0.08717 3.63981,13.89928 2.56651,18.81977c-0.99413,4.55759 -37.8644,9.14231 -37.8644,9.14231c0,0 -25.86177,-9.54013 -27.06986,-14.61013c-1.2604,-5.28952 11.64905,-21.94595 11.64905,-21.94595c0,0 32.85555,7.27863 50.71869,8.59399z" fill="#7c7984" stroke-linecap="butt"/><path d="M78.62992,240.29954l7.10802,-27.44533" fill="none" stroke-linecap="round"/></g><g><path d="M89.15358,245.32667c0,0 -25.86177,-9.54013 -27.06986,-14.61013c-0.35366,-1.48419 0.4083,-3.86331 1.68764,-6.5183c0.18197,0.22137 0.33859,0.4359 0.42436,0.52794c1.14325,1.22682 2.46545,2.15333 3.78038,3.20073c1.20711,1.11579 1.69692,0.41767 2.36383,-0.852c0.19535,-0.37191 0.12606,-1.23752 0.53494,-1.14112c0.78996,0.18625 1.84955,4.53864 2.22648,5.31795c0.85412,1.76591 1.57468,3.70498 1.97906,5.6153l0.04404,0.03861l-0.01403,0.01091l0.3053,0.3927c0.04567,0.05992 0.1178,0.09859 0.19895,0.09859c0.13163,0 0.2395,-0.10172 0.24928,-0.23085l0.04065,-0.46889c0.46217,-1.4037 0.97634,-2.67981 1.48259,-4.07126c0.27959,-0.76845 0.4918,-2.52551 1.25372,-2.97452c0.06589,-0.03883 0.65925,0.95824 0.68777,1.00131c0.86649,1.3069 1.73185,5.87634 3.56698,6.09336c0.94577,0.11184 2.39458,-1.45463 3.0699,-1.99033c0.49998,-0.39662 3.6482,-3.45732 4.0299,-3.28194c1.08935,0.5005 1.04208,3.53108 1.08755,4.52353c1.16554,1.59708 3.19221,-2.80062 3.82218,-3.70729c0.33278,-0.47895 0.21606,1.14716 0.36266,1.71166c0.07842,0.30194 0.12164,0.61519 0.12794,0.92708c0.01039,0.51491 0.01771,1.02976 0.02529,1.54472c0.23212,0.55751 0.32277,2.72849 0.74009,3.0383c0.43829,0.32538 1.29551,-0.34119 1.64669,-0.53592c1.70178,-0.94364 3.46166,-2.30705 4.72928,-3.78392c1.08824,-1.26789 2.32173,-2.29858 3.65503,-3.30643c0.4598,-0.34756 0.94805,-1.57935 1.3089,-1.12991c0.2465,0.30702 -0.08487,2.77667 -0.08462,3.2974c0.00085,2.99783 1.39229,0.63336 2.53801,0.20545c0.16147,-0.06031 1.32048,1.82691 1.67054,1.77482c0.20932,-0.03115 0.39254,-0.38217 0.51125,-0.71611c0.04821,0.57706 0.41785,1.24429 0.6001,1.71459c0.56972,1.47017 1.30096,2.71196 2.07839,3.98941c-11.07155,2.4804 -25.66114,4.29457 -25.66114,4.29457z" fill="#e1e2db" stroke-linecap="butt"/><path d="M122.04672,231.39971c-0.08167,-0.5576 0.96599,2.01004 1.19485,2.5855c0.5359,1.3475 1.05155,2.69854 1.61874,4.0219c-1.63999,0.79007 -4.0918,1.56177 -6.95699,2.28985c0.29413,-3.23133 2.81587,-5.9052 4.14341,-8.89724z" fill="#e1e2db" stroke-linecap="butt"/><path d="M78.62992,240.29954l1.80603,-6.97339" fill="none" stroke-linecap="round"/></g></g><g stroke="none" stroke-width="0" stroke-linecap="butt"><path d="M72.66905,211.50182l-3.07484,-11.43658l5.79509,-19.97743l21.51401,17.1738l18.09929,-27.47069l11.01413,28.71568l19.42971,-16.4264l5.69496,21.32397l-3.21089,13.82981c0,0 -9.38433,9.32421 -37.87297,8.28895c-18.31178,-0.66543 -37.3885,-14.02111 -37.3885,-14.02111z" fill="#626171"/><g><path d="M73.8305,227.19655l-8.85876,-36.93417l19.17393,19.75141l11.99216,-26.2917l14.23375,30.44184l15.98094,-25.93954l11.11859,23.74657l20.12112,-22.56793l-10.63493,42.52078c0,0 -9.44431,10.43652 -37.93598,9.4579c-18.31373,-0.62903 -35.19082,-14.18517 -35.19082,-14.18517z" fill="#e1e2db"/><path d="M137.47108,211.97096l20.12111,-22.56793l-10.63493,42.52079c0,0 -7.5852,8.38209 -29.66763,9.41806c5.47208,-11.99852 10.54126,-23.22332 14.32518,-31.85185c0.61013,-1.39128 1.43037,-3.06355 2.37545,-4.95324z" fill="#ffffff"/><path d="M73.8305,227.19653l-8.85876,-36.93416l19.17393,19.75141l11.99215,-26.2917l2.18392,4.67074c-0.64123,1.73708 -1.00911,2.77953 -1.01945,2.80302c-5.29118,12.01278 -10.7904,23.91286 -16.23676,35.84097c-0.59669,1.30683 -1.19729,2.62006 -1.80128,3.93895c-3.40858,-2.15254 -5.43376,-3.77924 -5.43376,-3.77924z" fill="#7c7984"/></g><path d="M115.32737,229.24446l-5.59233,6.00229l-5.53365,-6.77522l5.9901,-9.7779z" fill="#3a2f41"/><path d="M87.71329,225.6262l-3.23487,5.37824l-4.08919,-5.71967l3.28725,-10.63664z" fill="#3a2f41"/><path d="M137.57393,218.85515l0.99428,11.08853l-5.19313,4.73998l-2.04081,-5.93507z" data-paper-data="{&quot;index&quot;:null}" fill="#3a2f41"/></g><g data-paper-data="{&quot;index&quot;:null}" stroke="#3a2f41" stroke-width="2"><g><path d="M134.45147,232.36459c1.18375,0.08717 3.63981,13.89928 2.56651,18.81977c-0.99413,4.55759 -37.8644,9.14231 -37.8644,9.14231c0,0 -25.86177,-9.54013 -27.06986,-14.61013c-1.2604,-5.28952 11.64905,-21.94595 11.64905,-21.94595c0,0 32.85555,7.27863 50.71869,8.59399z" fill="#7c7984" stroke-linecap="butt"/><path d="M88.62992,255.29954l7.10802,-27.44533" fill="none" stroke-linecap="round"/></g><g><path d="M99.15358,260.32667c0,0 -25.86177,-9.54013 -27.06986,-14.61013c-0.35366,-1.48419 0.4083,-3.86331 1.68764,-6.5183c0.18197,0.22137 0.33859,0.4359 0.42436,0.52794c1.14325,1.22682 2.46545,2.15333 3.78038,3.20073c1.20711,1.11579 1.69692,0.41767 2.36383,-0.852c0.19535,-0.37191 0.12606,-1.23752 0.53494,-1.14112c0.78996,0.18625 1.84955,4.53864 2.22648,5.31795c0.85412,1.76591 1.57468,3.70498 1.97906,5.6153l0.04404,0.03861l-0.01403,0.01091l0.3053,0.3927c0.04567,0.05992 0.1178,0.09859 0.19895,0.09859c0.13163,0 0.2395,-0.10172 0.24928,-0.23085l0.04065,-0.46889c0.46217,-1.4037 0.97634,-2.67981 1.48259,-4.07126c0.27959,-0.76845 0.4918,-2.52551 1.25372,-2.97452c0.06589,-0.03883 0.65925,0.95824 0.68777,1.00131c0.86649,1.3069 1.73185,5.87634 3.56698,6.09336c0.94577,0.11184 2.39458,-1.45463 3.0699,-1.99033c0.49998,-0.39662 3.6482,-3.45732 4.0299,-3.28194c1.08935,0.5005 1.04208,3.53108 1.08755,4.52353c1.16554,1.59708 3.19221,-2.80062 3.82218,-3.70729c0.33278,-0.47895 0.21606,1.14716 0.36266,1.71166c0.07842,0.30194 0.12164,0.61519 0.12794,0.92708c0.01039,0.51491 0.01771,1.02976 0.02529,1.54472c0.23212,0.55751 0.32277,2.72849 0.74009,3.0383c0.43829,0.32538 1.29551,-0.34119 1.64669,-0.53592c1.70178,-0.94364 3.46166,-2.30705 4.72928,-3.78392c1.08824,-1.26789 2.32173,-2.29858 3.65503,-3.30643c0.4598,-0.34756 0.94805,-1.57935 1.3089,-1.12991c0.2465,0.30702 -0.08487,2.77667 -0.08462,3.2974c0.00085,2.99783 1.39229,0.63336 2.53801,0.20545c0.16147,-0.06031 1.32048,1.82691 1.67054,1.77482c0.20932,-0.03115 0.39254,-0.38217 0.51125,-0.71611c0.04821,0.57706 0.41785,1.24429 0.6001,1.71459c0.56972,1.47017 1.30096,2.71196 2.07839,3.98941c-11.07155,2.4804 -25.66114,4.29457 -25.66114,4.29457z" fill="#e1e2db" stroke-linecap="butt"/><path d="M132.04672,246.39971c-0.08167,-0.5576 0.96599,2.01004 1.19485,2.5855c0.5359,1.3475 1.05155,2.69854 1.61874,4.0219c-1.63999,0.79007 -4.0918,1.56177 -6.95699,2.28985c0.29413,-3.23133 2.81587,-5.9052 4.14341,-8.89724z" fill="#e1e2db" stroke-linecap="butt"/><path d="M88.62992,255.29954l1.80603,-6.97339" fill="none" stroke-linecap="round"/></g></g></g><text transform="translate(15.25,118.63572) scale(0.5,0.5)" font-size="40" xml:space="preserve" fill="#3a2f41" fill-rule="nonzero" stroke="none" stroke-width="1" stroke-linecap="butt" stroke-linejoin="miter" stroke-miterlimit="10" stroke-dasharray="" stroke-dashoffset="0" font-family="Handwriting" font-weight="normal" text-anchor="start" style="mix-blend-mode: normal"><tspan x="0" dy="0">Himself</tspan></text></g></g></svg>