<svg xmlns="http://www.w3.org/2000/svg" xmlns:xlink="http://www.w3.org/1999/xlink" version="1.1" width="198.81294655799866" height="110.69064736366272" viewBox="2.5323764085769653 -1.3453236818313599 198.81294655799866 110.69064736366272">
  <defs>
    <radialGradient id="grad_1" cx="0.5" cy="0.5138" r="0.66794">
      <stop offset="0" stop-color="#F66C98" stop-opacity="1"/>
      <stop offset="1" stop-color="#9A2E38" stop-opacity="1"/>
    </radialGradient>
  <radialGradient id="grad_1-,0,0,1,-138,-243" cx="106" cy="55.4904" r="102.402" gradientUnits="userSpaceOnUse">
      <stop offset="0" stop-color="#F66C98" stop-opacity="1"/>
      <stop offset="1" stop-color="#9A2E38" stop-opacity="1"/>
    </radialGradient></defs>
  <!-- Exported by Scratch - http://scratch.mit.edu/ -->
  <path id="ID0.9129331279546022" fill="url(#grad_1-,0,0,1,-138,-243)" stroke="none" d="M 12 0 L 200 0 L 200 108 L 12 108 L 12 0 Z " stroke-width="1"/>
  <g id="ID0.901408904697746">
    <path id="ID0.7797387707978487" fill="#D33445" stroke="#D33445" stroke-width="2.6906473636627197" stroke-linecap="round" d="M 3.8777 28.2662 L 19.6852 14.1403 L 30.4478 19.5216 L 36.8381 18.8489 L 56.009 23.2212 L 47.2644 30.2842 L 53.6547 37.6834 L 59.036 29.2752 L 68.1169 38.0198 L 61.3903 40.7104 L 47.937 54.5 L 35.8291 55.509 L 50.6277 65.2626 L 78.2068 76.0252 L 75.5162 84.4334 L 65.0899 94.187 L 64.0809 107.3039 L 57.3543 97.8867 L 56.009 82.7518 L 47.937 74.3435 L 49.955 67.9532 L 31.4568 60.5539 L 20.3579 48.446 L 22.0396 37.0108 L 18.3399 28.9388 L 3.8777 28.2662 Z "/>
    <path id="ID0.5276037878356874" fill="#D33445" stroke="#D33445" stroke-width="2.6906473636627197" stroke-linecap="round" d="M 75.5162 19.1852 L 72.4892 11.4496 L 83.2518 5.3957 L 94.0144 8.4227 L 87.6241 24.9029 L 75.8525 29.6115 L 75.5162 19.1852 Z "/>
    <path id="ID0.22614181134849787" fill="#D33445" stroke="#D33445" stroke-width="2.6906473636627197" stroke-linecap="round" d="M 110.4946 45.4191 L 98.3867 46.428 L 119.2392 32.9748 L 115.2032 28.2662 L 106.1223 33.6475 L 112.8489 23.5575 L 123.2752 26.5845 L 136.3921 21.8759 L 142.7824 11.4496 L 150.8543 14.4766 L 185.1601 14.1403 L 185.8327 24.5665 L 177.4244 30.6205 L 182.1331 38.0198 L 172.7158 46.7644 L 174.7338 55.8453 L 166.6619 60.2176 L 177.0881 74.0072 L 160.9442 59.8813 L 154.8903 59.8813 L 149.8453 65.2626 L 146.1457 57.8633 L 139.0827 56.518 L 131.0108 62.9083 L 124.2842 50.8003 L 110.4946 45.4191 Z "/>
    <path id="ID0.9972305246628821" fill="#D33445" stroke="#D33445" stroke-width="2.6906473636627197" stroke-linecap="round" d="M 171.0342 85.7788 L 170.3615 84.7698 L 183.1421 78.0432 L 186.5726 79.9939 L 189.4651 85.1734 L 185.8327 92.1691 L 178.4334 87.7967 L 172.3795 90.4874 Z "/>
    <path id="ID0.4784054202027619" fill="#D33445" stroke="#D33445" stroke-width="2.6906473636627197" stroke-linecap="round" d="M 96.3687 68.2896 L 91.9964 62.5719 L 101.75 50.8003 L 112.8489 54.1637 L 123.2752 54.5 L 127.3111 63.2446 L 134.3741 65.9352 L 127.6475 73.6709 L 119.5755 90.1511 L 114.1942 90.1511 L 109.8219 81.4065 L 109.4856 70.6439 L 96.3687 68.2896 Z "/>
    <path id="ID0.1744393603876233" fill="none" stroke="#D33445" stroke-width="2.6906473636627197" stroke-linecap="round" d="M 128.9928 85.1061 L 132.0198 79.3885 "/>
    <path id="ID0.20900010224431753" fill="none" stroke="#D33445" stroke-width="2.6906473636627197" stroke-linecap="round" d="M 42.5557 18.5126 L 41.5468 13.4676 Z "/>
    <path id="ID0.7906406973488629" fill="#D33445" stroke="#D33445" stroke-width="2.6906473636627197" stroke-linecap="round" d="M 57.3543 22.8849 L 41.2104 18.3108 L 41.5468 13.1313 L 52.982 8.0863 L 61.0539 11.786 L 75.1798 3.3777 L 63.7446 17.8399 L 68.1169 25.5755 L 62.0629 29.6115 L 60.7176 21.8759 L 57.3543 22.8849 Z "/>
  </g>
</svg>