<svg version="1.1" xmlns="http://www.w3.org/2000/svg" xmlns:xlink="http://www.w3.org/1999/xlink" width="246.53506" height="495.23795" viewBox="0,0,246.53506,495.23795"><defs><linearGradient x1="318.94922" y1="156.8635" x2="326.51059" y2="317.61848" gradientUnits="userSpaceOnUse" id="color-1"><stop offset="0" stop-color="#ffffff" stop-opacity="0"/><stop offset="1" stop-color="#ffffff" stop-opacity="0.08254"/></linearGradient><linearGradient x1="254.31506" y1="169.66794" x2="254.31506" y2="317.89738" gradientUnits="userSpaceOnUse" id="color-2"><stop offset="0" stop-color="#3a2f41"/><stop offset="1" stop-color="#564d5c"/></linearGradient><linearGradient x1="180.56719" y1="157.3635" x2="173.00581" y2="318.11848" gradientUnits="userSpaceOnUse" id="color-3"><stop offset="0" stop-color="#ffffff" stop-opacity="0"/><stop offset="1" stop-color="#ffffff" stop-opacity="0.08254"/></linearGradient></defs><g transform="translate(-116.48247,65.72013)"><g data-paper-data="{&quot;isPaintingLayer&quot;:true}" fill-rule="nonzero" stroke-linejoin="miter" stroke-miterlimit="10" stroke-dasharray="" stroke-dashoffset="0" style="mix-blend-mode: normal"><g><g data-paper-data="{&quot;index&quot;:null}"><g data-paper-data="{&quot;index&quot;:null}"><path d="M308.18479,51.59514c3.57238,7.23203 3.79506,18.8271 -6.37497,23.85077c-10.17004,5.02366 -28.38369,2.65489 -31.95607,-4.57713c-3.57238,-7.23203 3.27816,-18.24858 13.44821,-23.27223c10.17004,-5.02366 21.31045,-3.23343 24.88284,3.9986z" fill="#3a2f41" stroke="#3a2f41" stroke-width="2" stroke-linecap="butt"/><path d="M308.81634,70.43636c1.04559,4.58766 -5.67767,10.0322 -15.01682,12.16074c-9.33915,2.12853 -17.75766,0.13502 -18.80325,-4.45265c-1.04559,-4.58766 5.67766,-10.03219 15.01682,-12.16074c9.33915,-2.12853 17.75766,-0.13502 18.80326,4.45265z" fill="#8c9ca0" stroke="#3a2f41" stroke-width="2" stroke-linecap="butt"/><g><path d="M333.89365,61.39312c19.64058,7.10134 6.871,28.13951 6.871,28.13951c0,0 17.63036,0.26809 21.0565,17.66559c2.5154,12.77286 -19.96409,9.55228 -19.96409,9.55228c0,0 7.4654,6.81942 6.96355,12.34964c-1.41159,15.55502 -36.73627,7.43871 -36.73627,7.43871c0,0 -16.95197,21.26297 -28.53003,17.018c-19.10776,-7.00566 -10.32798,-23.01992 -10.32798,-23.01992c0,0 -5.22733,4.08605 -8.56523,-1.25131c-3.2085,-5.13045 0.75374,-9.97644 0.75374,-9.97644c0,0 -6.92197,-0.95606 -7.68327,-15.61828c-0.7549,-14.53895 20.49166,-29.15955 32.97439,-32.23307c15.02509,-3.69952 18.28539,0.92254 18.28539,0.92254c0,0 7.64384,-17.22726 24.90231,-10.98722z" fill="#3a2f41" stroke="#3a2f41" stroke-width="2" stroke-linecap="butt"/><path d="M297.64471,125.75549c0,0 -6.46226,-2.59606 -3.44968,-7.74344c2.97125,-5.07678 6.50681,-1.19866 6.50681,-1.19866c0,0 -7.19237,-10.55789 10.13526,-21.16261c13.27736,-6.99878 23.79213,3.15971 19.22067,4.45925c-2.49954,0.71055 -3.24167,-7.4847 1.71907,-9.62346c4.56037,-1.96616 10.81541,-1.52672 10.81541,-1.52672" fill="none" stroke="#8c9ca0" stroke-width="2" stroke-linecap="round"/><path d="M249.81055,123.9954c0,0 -9.14619,-0.77796 -5.74517,-8.97436c2.90664,-7.00495 9.33911,-3.7184 9.33911,-3.7184c0,0 -10.03528,-14.70292 16.5084,-30.02213c20.29538,-10.03858 35.75763,5.68996 28.81298,7.47207" fill="none" stroke="#3a2f41" stroke-width="2" stroke-linecap="round"/><path d="M346.4671,131.84304c0,0 -3.52626,16.42233 -20.57305,13.83689c-27.28494,-4.13823 -48.98905,-36.49018 -48.98905,-36.49018" fill="none" stroke="#3a2f41" stroke-width="7" stroke-linecap="round"/></g></g><path d="M284.14747,150.54844l14.89021,10.56362c0,0 -16.41377,3.66535 -23.88495,-7.74952c-4.41739,-6.74913 -4.73862,-13.74555 -2.70461,-14.75028c2.03401,-1.00473 11.69935,11.93618 11.69935,11.93618z" fill="#3a2f41" stroke="#3a2f41" stroke-width="2" stroke-linecap="butt"/></g><path d="M202.24971,53.74542c-0.73209,-9.6698 77.22274,-37.38105 77.22274,-37.38105c0,0 13.92571,-0.74861 19.90035,5.98993c0.20593,0.23224 -2.86583,-0.71811 -5.22213,-1.39094c-1.49016,-0.42551 -2.69417,-0.74 -2.60212,-0.57421c28.32371,15.79552 32.67162,47.13193 32.67162,47.13193c0,0 -27.66274,-11.68999 -32.79245,-11.81513c-5.12971,-0.12515 -31.4115,15.4289 -33.86102,10.54395c-0.31089,-0.61998 -54.81212,-5.83552 -55.31701,-12.50446z" data-paper-data="{&quot;index&quot;:null}" fill="#3a2f41" stroke="#3a2f41" stroke-width="2" stroke-linecap="round"/><path d="M277.66153,49.18129c-0.49868,7.44021 -16.96768,12.0006 -19.62277,17.98141c-15.77438,8.99267 -54.78651,-16.14604 -59.32792,-16.0209c-4.54141,0.12515 -28.50823,14.55361 -28.50823,14.55361c0,0 3.32582,-34.07488 28.40125,-49.87041c0.08151,-0.16579 -0.98444,0.1487 -2.3037,0.57421c-2.08608,0.67284 -4.80554,1.62319 -4.62323,1.39094c5.28944,-6.73854 17.61809,-5.98993 17.61809,-5.98993c0,0 69.01463,27.71124 68.36649,37.38105z" data-paper-data="{&quot;index&quot;:null}" fill="#3a2f41" stroke="#3a2f41" stroke-width="2" stroke-linecap="round"/><path d="M229.09786,8.0201c-0.10991,7.45905 28.61144,46.19413 25.99057,52.33245c-0.34722,0.81324 -1.28969,3.34178 -2.64689,1.65623c-7.00996,-8.70591 -29.91192,-31.36587 -34.18009,-31.02093c-39.51624,3.19363 -54.95467,-9.48557 -54.95467,-9.48557c0,0 24.61961,-3.69676 45.50811,-32.25951c3.95124,-8.27085 19.33908,0.86606 19.33908,0.86606c0,0 1.08671,8.21695 0.94387,17.91125z" data-paper-data="{&quot;index&quot;:null}" fill="#3a2f41" stroke="#3a2f41" stroke-width="2" stroke-linecap="round"/><path d="M270.74569,-15.69948c0,0 -3.05141,-27.48932 0.97886,-26.93471c4.51533,0.62134 5.88139,10.58774 11.42979,24.01926c3.09018,7.48065 13.22465,10.31595 14.0462,12.24107c10.56442,24.80364 33.10755,31.47204 33.10755,31.47204c0,0 -7.91261,13.91513 -48.75526,8.64156c-8.29144,-1.07058 -11.57985,-9.67789 -12.5825,-19.41885c-0.68106,-6.6167 -37.15532,54.29979 -36.57872,48.64378c0.47112,-4.62134 3.41154,-20.17971 14.74942,-42.50974c3.85719,-7.59676 23.60464,-36.15437 23.60464,-36.15437z" data-paper-data="{&quot;index&quot;:null}" fill="#3a2f41" stroke="#3a2f41" stroke-width="2" stroke-linecap="round"/><path d="M265.66886,-6.86149l0.30295,-56.73853c0,0 8.12719,6.74516 15.36232,19.21145c3.93825,6.78571 8.14235,15.347 12.04855,25.61431l2.66425,7.97207c4.16963,12.57516 8.17265,27.93679 10.40269,44.68487" data-paper-data="{&quot;index&quot;:null}" fill="#3a2f41" stroke="#3a2f41" stroke-width="2" stroke-linecap="round"/><path d="M187.79573,34.61639c6.54942,-63.30567 47.49176,-98.01815 47.49176,-98.01815l0.18271,56.09554" fill="#3a2f41" stroke="#3a2f41" stroke-width="2" stroke-linecap="round"/><path d="M303.5357,44.91014c0,16.37797 -24.74796,24.37353 -49.5774,25.50126c-2.05734,0.09343 -4.80887,-32.32523 -6.82706,-32.32523c-5.48256,0 -10.30765,32.09229 -15.62984,31.34258c-20.28142,-2.85696 -37.53246,-11.18913 -37.53246,-25.23759c0,-9.81731 6.61391,-29.21134 20.48606,-44.31322c3.94989,-4.30003 15.63942,-17.23209 23.2495,-20.4968c5.59341,-2.39957 15.12804,3.27668 15.12804,3.27668c0,0 9.53601,-5.6924 11.11332,-5.75649c3.2551,-0.1323 4.68234,2.63315 12.83105,10.30809c16.42776,15.4727 26.72567,44.76751 26.72567,56.62222z" fill="#3a2f41" stroke="none" stroke-width="0" stroke-linecap="butt"/><g stroke-linecap="butt"><path d="M284.91103,42.96196c0,7.91133 1.95956,14.9693 -4.15625,20.07603c-5.94515,4.96422 -19.28539,6.67799 -32.90065,6.94588c-13.55136,0.26666 -26.45651,-3.21392 -32.4388,-8.38426c-6.05209,-5.23064 -5.58624,-10.79146 -5.58624,-18.63765c0,-15.60192 11.42205,-35.41979 42.9266,-34.55939c20.72388,0.56597 32.15534,18.95746 32.15534,34.5594z" fill="#7c7984" stroke="none" stroke-width="0"/><path d="M209.82909,47.80479c0,0 -0.55854,-17.06397 6.88705,-26.16284c6.82763,-8.34369 20.96927,-13.65095 36.03956,-13.23938c6.78654,0.18534 15.40157,2.34849 20.94208,7.09152c6.56522,5.62025 9.487,13.94965 9.487,13.94965z" fill="#626171" stroke="none" stroke-width="0"/><path d="M258.62897,9.07345c16.99964,3.50515 27.57291,19.20426 27.57291,33.26337l-0.00001,0.62514c0,7.40063 0.34587,14.36268 -4.94851,19.37111c-5.86716,5.55028 -18.39577,7.3651 -32.91516,7.6508c-10.03065,0.19737 -21.47355,-1.79963 -27.24004,-4.78501c-9.90537,-5.12811 -11.26908,-12.37572 -11.26908,-22.2369c0,-13.24305 8.22932,-29.52357 29.98421,-33.61764" fill="none" stroke="#3a2f41" stroke-width="2"/></g><path d="M280.04631,5.13699c9.79544,9.63486 14.20534,29.8454 10.72039,33.38844c-0.94223,0.95794 -4.94601,7.00307 -5.24759,4.79386c-0.50386,-3.69114 -3.4242,-4.36442 -5.61611,-5.15981c-5.3597,-1.9449 -11.63882,-5.67487 -16.71137,-10.66427c-9.79544,-9.63486 -11.38232,-20.31766 -7.89735,-23.86068c3.48495,-3.54302 14.95659,-8.1324 24.75202,1.50247z" data-paper-data="{&quot;index&quot;:null}" fill="#3a2f41" stroke="none" stroke-width="0" stroke-linecap="butt"/><path d="M260.67216,11.7957c3.00911,6.9797 -2.83196,8.66798 -17.66382,15.06232c-9.20133,16.82486 -23.91874,16.36395 -25.58584,17.15195c-1.38744,0.65582 -1.63715,4.77211 -1.17265,6.86416c1.29488,5.8319 -11.88201,-8.99612 -13.34674,-12.39363c-3.00911,-6.9797 6.57513,-17.8215 21.407,-24.21586c14.83187,-6.39434 33.35294,-9.44864 36.36207,-2.46893z" fill="#3a2f41" stroke="none" stroke-width="0" stroke-linecap="butt"/><path d="M240.23909,21.48026c-0.03666,-0.16869 0.17751,-1.05049 0.17961,-1.22207c0.13207,-10.77268 5.44394,-18.71566 10.67146,-18.71566c5.31076,0 10.85106,8.3971 10.85106,19.4084c0,11.0113 8.22103,20.44007 7.85158,20.46704c-7.25161,0.52931 -26.20134,-4.51543 -29.5537,-19.93773z" data-paper-data="{&quot;index&quot;:null}" fill="#3a2f41" stroke="none" stroke-width="0" stroke-linecap="butt"/><path d="M219.20043,46.08072c0,0 4.97907,-4.92745 13.98436,-4.87405c9.54112,0.05659 14.57261,6.10058 14.57261,6.10058c0,0 -6.05324,-0.48844 -14.73754,-0.75147c-7.71691,-0.23373 -13.81941,-0.47505 -13.81941,-0.47505z" fill="#e1e2db" stroke="#3a2f41" stroke-width="1" stroke-linecap="butt"/><path d="M283.36332,36.60154c0,0 -4.72833,-0.53666 -9.13303,-3.05947c-4.82744,-2.76492 -7.10526,-6.03029 -7.10526,-6.03029c0,0 3.18436,3.29668 7.63576,5.61365c3.85547,2.00677 8.60255,3.47612 8.60255,3.47612z" fill="#626171" stroke="none" stroke-width="0" stroke-linecap="butt"/><g stroke="#3a2f41" stroke-width="1" stroke-linecap="round"><path d="M266.80773,54.84739c0,0 -0.51492,1.01546 -1.8137,2.73905c-3.62381,4.80914 -11.41181,13.83919 -18.39,13.20481c-6.74605,-0.61327 -2.32755,-20.65055 -2.32755,-20.65055c0,0 8.88177,3.13946 22.49626,4.6188" data-paper-data="{&quot;index&quot;:null}" fill="#e1e2db"/><path d="M261.05941,61.61822l2.65327,-6.67406c0,0 1.17737,0.21218 2.44459,0.02337c0,0 0.11258,0.24659 -0.37632,0.88441c-0.91969,1.19984 -4.72154,5.76628 -4.72154,5.76628z" data-paper-data="{&quot;index&quot;:null}" fill="#3a2f41"/></g><path d="M244.38034,44.85154c0,0.95786 0.1745,2.0995 -1.18667,2.0995c-1.36118,0 -9.00313,0.11156 -9.21953,-0.82154c-0.73026,-3.14864 0.73832,-4.6554 2.0995,-4.6554c1.36118,0 8.30671,2.41959 8.30671,3.37746z" fill="#3a2f41" stroke="#12161a" stroke-width="0" stroke-linecap="butt"/><g data-paper-data="{&quot;index&quot;:null}" fill="none" stroke="#3a2f41" stroke-width="2" stroke-linecap="round"><path d="M249.32739,42.30292l-0.61636,6.90897l-29.89626,-0.10197l-0.43245,-6.92604"/><path d="M291.41028,42.30292l-0.67389,6.90897l-32.68642,-0.10197l-0.47281,-6.92604"/><path d="M249.28052,46.15857h7.4264"/></g><g><g data-paper-data="{&quot;index&quot;:null}"><path d="M226.33694,62.46713c0,8.06624 -4.93558,18.56078 -16.27872,18.56078c-11.34314,0 -26.62406,-10.19027 -26.62406,-18.25651c0,-8.06624 11.02108,-14.90948 22.36422,-14.90948c11.34314,0 20.53857,6.53896 20.53857,14.6052z" fill="#3a2f41" stroke="#3a2f41" stroke-width="2" stroke-linecap="butt"/><path d="M218.55876,79.6395c-1.09433,4.57627 -9.53356,6.48014 -18.84955,4.25242c-9.316,-2.22773 -15.98097,-7.74348 -14.88664,-12.31976c1.09433,-4.57627 9.53356,-6.48014 18.84955,-4.25242c9.316,2.22773 15.98097,7.74348 14.88664,12.31976z" fill="#8c9ca0" stroke="#3a2f41" stroke-width="2" stroke-linecap="butt"/><g><path d="M245.04768,82.63778c14.46432,15.06536 -6.30205,28.27236 -6.30205,28.27236c0,0 15.6883,8.04852 11.05509,25.16415c-3.4016,12.56592 -22.12993,-0.27732 -22.12993,-0.27732c0,0 3.67315,9.42044 0.77395,14.15647c-8.15463,13.32115 -36.23149,-9.60039 -36.23149,-9.60039c0,0 -24.61576,11.55626 -33.1164,2.6226c-14.02897,-14.7436 0.93522,-25.21327 0.93522,-25.21327c0,0 -6.49636,1.34839 -7.12523,-4.91529c-0.6045,-6.02085 5.09416,-8.61087 5.09416,-8.61087c0,0 -5.78268,-3.92278 0.02837,-17.40582c5.7622,-13.36967 31.28663,-17.0685 43.83961,-14.29582c15.10965,3.33741 15.98575,8.92538 15.98575,8.92538c0,0 14.48293,-12.06031 27.19295,1.17783z" fill="#3a2f41" stroke="#3a2f41" stroke-width="2" stroke-linecap="butt"/><path d="M184.04269,124.28986c0,0 -4.64419,-5.18958 0.3365,-8.47041c4.91238,-3.23583 6.36474,1.80705 6.36474,1.80705c0,0 -1.77265,-12.65136 18.4596,-14.48527c15.00385,-0.39467 19.9322,13.37002 15.25796,12.51055c-2.55572,-0.46994 0.40842,-8.14631 5.80333,-7.86687c4.95951,0.25689 10.37304,3.42112 10.37304,3.42112" fill="none" stroke="#8c9ca0" stroke-width="2" stroke-linecap="round"/><path d="M141.93504,101.52694c0,0 -7.85575,-4.74818 -1.17644,-10.59066c5.7084,-4.99321 10.02008,0.80226 10.02008,0.80226c0,0 -2.48579,-17.62679 28.09734,-19.60599c22.64234,-0.01197 29.53962,20.93787 22.52392,19.46002" fill="none" stroke="#3a2f41" stroke-width="2" stroke-linecap="round"/><path d="M225.11984,151.37033c0,0 -10.43472,13.16222 -24.57348,3.29447c-22.6304,-15.79424 -27.76183,-54.4127 -27.76183,-54.4127" fill="none" stroke="#3a2f41" stroke-width="7" stroke-linecap="round"/></g></g><path d="M160.961,140.54104l8.67184,16.06573c0,0 -16.33957,-3.98306 -17.98266,-17.52625c-0.97149,-8.00751 1.83909,-14.42264 4.10771,-14.42264c2.26863,0 5.2031,15.88316 5.2031,15.88316z" fill="#3a2f41" stroke="#3a2f41" stroke-width="2" stroke-linecap="butt"/></g></g><g data-paper-data="{&quot;index&quot;:null}"><g stroke-linecap="butt"><path d="M333.665,205.98501l-22.80988,9.45208l-32.78359,-81.80371l20.20399,-9.4808z" data-paper-data="{&quot;index&quot;:null}" fill="#7c7984" stroke="none" stroke-width="0"/><path d="M299.04832,155.65751c-4.30333,1.85896 -12.00675,0.34121 -12.00675,0.34121c-1.63033,-3.35223 -4.57809,-12.96387 -4.57809,-12.96387l20.20399,-9.48079l5.31611,13.39811c0,0 -4.63193,6.84638 -8.93526,8.70533z" data-paper-data="{&quot;index&quot;:null}" fill="#626171" stroke="none" stroke-width="0"/><path d="M317.10616,212.54589l-6.12086,2.74879l-33.14808,-81.16743l20.20399,-9.4808l35.0252,80.73193l-0.68125,0.30593" data-paper-data="{&quot;index&quot;:null}" fill="none" stroke="#3a2f41" stroke-width="2.5"/></g><g fill="#3a2f41" stroke-width="2"><path d="M346.22723,277.12885l-24.18423,18.56558l16.06406,-38.05071z" stroke-opacity="0.07705" stroke="#ffffff" stroke-linecap="round"/><path d="M351.84979,280.86172l-20.93055,30.61777l9.15268,-45.75559z" stroke-opacity="0.08512" stroke="#ffffff" stroke-linecap="round"/><path d="M306.01975,204.31788c-0.30508,-1.32631 5.69194,-0.63196 11.58071,-3.57056c8.17632,-4.08014 10.17996,-11.35589 10.55598,-9.60513c0.28667,1.33473 17.79963,39.86077 20.6579,48.33663c2.20448,6.5371 9.83685,25.12154 9.83685,25.12154l-4.54674,16.14138c-0.48846,-2.02765 -10.42903,-31.04081 -6.11691,-18.69812c4.31212,12.3427 7.15906,21.68112 7.15906,21.68112l-17.52403,31.71514l-1.34045,-32.54539l-21.10159,-32.99124l-14.17996,6.71605l-11.94473,13.58847l3.74371,-25.80161l19.38616,-21.48474c0,0 -4.66092,-12.06041 -6.16596,-18.60353z" stroke="url(#color-1)" stroke-linecap="butt"/></g><g stroke-linecap="round"><g><path d="M269.2293,87.56013c0,0 17.86634,2.8144 19.15236,6.26663c5.94187,15.95049 19.26576,35.62916 19.26576,35.62916c0,0 -5.1893,9.11596 -13.57045,12.96138c-8.43212,3.8688 -23.62723,-0.21867 -23.62723,-0.21867l-4.45595,-33.69544" fill="#8c9ca0" stroke="none" stroke-width="0"/><path d="M266.89597,86.56013c0,0 20.19967,3.8144 21.48569,7.26663c5.94187,15.95049 19.26576,35.62916 19.26576,35.62916c0,0 -5.1893,9.11596 -13.57045,12.96138c-8.43212,3.8688 -23.62723,-0.21867 -23.62723,-0.21867l-4.45595,-33.69544" fill="none" stroke="#3a2f41" stroke-width="2"/></g><path d="M269.35986,134.33541c0,0 11.57651,2.84465 19.93641,0.04201c8.35992,-2.80264 13.89513,-11.38397 13.89513,-11.38397l4.30089,6.13977c0,0 -1.59208,7.48709 -15.35794,13.69392c-7.66083,3.45416 -21.03411,-0.67062 -21.03411,-0.67062z" fill="#3a2f41" stroke="#3a2f41" stroke-width="2"/></g></g><g data-paper-data="{&quot;index&quot;:null}"><g><path d="M223.03608,261.3455c-8.36017,20.16088 -30.33463,7.94765 -30.33463,7.94765c0,0 -0.98042,17.88446 -19.70273,21.96484c-13.74552,2.99572 -9.41978,-19.90814 -9.41978,-19.90814c0,0 -7.57971,7.80684 -13.46844,7.49086c-16.56337,-0.88876 -6.50143,-36.98686 -6.50143,-36.98686c0,0 -22.05001,-16.44585 -17.05893,-28.33266c8.23698,-19.61731 25.00097,-11.27409 25.00097,-11.27409c0,0 -4.15976,-5.15741 1.67406,-8.72777c5.60766,-3.43195 10.62913,0.41632 10.62913,0.41632c0,0 1.29391,-7.05141 16.98897,-8.33457c15.5631,-1.27237 30.34735,19.75931 33.13975,32.30815c3.36112,15.10467 -1.70542,18.5714 -1.70542,18.5714c0,0 18.10467,7.14921 10.75847,24.86487z" fill="#3a2f41" stroke="#3a2f41" stroke-width="2" stroke-linecap="butt"/><path d="M155.69837,226.83772c0,0 3.028,-6.6425 8.40887,-3.7676c5.30705,2.83547 1.02451,6.55534 1.02451,6.55534c0,0 11.56314,-7.66038 22.21112,9.538c6.95483,13.21762 -4.31236,24.23261 -5.52085,19.643c-0.66074,-2.50946 8.12425,-3.54767 10.21402,1.40735c1.92112,4.55512 1.2054,10.91232 1.2054,10.91232" fill="none" stroke="#8c9ca0" stroke-width="2" stroke-linecap="round"/><path d="M159.46179,178.27812c0,0 1.19119,-9.30029 9.81433,-6.13788c7.36965,2.70272 3.60512,9.3391 3.60512,9.3391c0,0 16.10358,-10.68731 31.42573,15.69067c9.9263,20.22707 -7.48668,36.45246 -9.11731,29.47354" fill="none" stroke="#3a2f41" stroke-width="2" stroke-linecap="round"/><path d="M147.27264,276.55016c0,0 -17.40677,-3.00255 -13.97347,-20.37614c5.4953,-27.80802 40.9144,-50.94161 40.9144,-50.94161" fill="none" stroke="#3a2f41" stroke-width="7" stroke-linecap="round"/></g><path d="M129.74095,214.01766l-11.87227,15.46528c0,0 -3.26995,-16.51381 9.21975,-24.48676c7.38464,-4.71407 14.87223,-5.28373 15.86562,-3.25652c0.99339,2.02721 -13.2131,12.278 -13.2131,12.278z" fill="#3a2f41" stroke="#3a2f41" stroke-width="2" stroke-linecap="butt"/></g><path d="M260.69911,348.99158c0,0 -4.04515,-66.32264 -3.33334,-96.20572c0.76981,-32.31813 34.75,-4.71064 34.75,-4.71064v97.65516z" fill="#626171" stroke="#3a2f41" stroke-width="2" stroke-linecap="butt"/><g data-paper-data="{&quot;index&quot;:null}"><g fill="#626171" stroke="#3a2f41" stroke-width="2" stroke-linecap="butt"><path d="M214.45585,347.14162v-97.65516c0,0 33.98019,-27.60749 34.75,4.71064c0.71181,29.88308 -3.33334,96.20572 -3.33334,96.20572z"/></g><g><path d="M237.61008,411.01486c0,0 -0.39515,-18.73859 -1.39237,-18.72306c-0.99676,0.01551 -8.58959,20.22742 -8.58959,20.22742l-43.50313,15.58081l18.55342,-50.40233c0,0 -1.49205,-24.79489 -3.38676,-47.75802c13.7273,0.3983 52.66666,1.09763 52.66666,1.09763l-8,78.0108z" fill="#3a2f41" stroke="#3a2f41" stroke-width="0" stroke-linecap="butt"/><path d="M199.87499,335.74148l49.66667,0.00001" fill="none" stroke="#8ea8ab" stroke-width="1.5" stroke-linecap="round"/><path d="M237.61008,410.3091c0,0 -0.14515,-17.56255 -1.14237,-17.54702c-0.99676,0.01551 -8.58959,19.757 -8.58959,19.757l-43.50313,15.3456l18.7489,-50.50572l-3.91556,-46.63537l51.66666,-0.47043l-6.66667,77.61879z" fill="none" stroke="#3a2f41" stroke-width="2" stroke-linecap="butt"/></g></g><g data-paper-data="{&quot;index&quot;:null}"><path d="M258.8423,408.46753l-7,-77.4677c0,0 38.93936,-0.67545 52.66667,-1.06016c-1.8947,22.17911 -3.38676,46.12747 -3.38676,46.12747c0,0 21.00254,30.06145 27.60196,32.72724c3.48425,1.40745 -52.55166,0.90539 -52.55166,0.90539c0,0 -7.59283,-19.52183 -8.58959,-19.53682c-0.99722,-0.015 -1.39237,18.08382 -1.39237,18.08382z" fill="#3a2f41" stroke="#3a2f41" stroke-width="0" stroke-linecap="butt"/><path d="M303.92564,335.54334l-49.66667,0.00001" fill="none" stroke="#8ea8ab" stroke-width="1.5" stroke-linecap="round"/><path d="M259.25897,408.24025l-6.33333,-77.99777l51.66666,0.45436l-3.91556,45.04316c0,0 22.68163,30.90354 29.13076,33.50864c3.48425,1.40745 -54.55166,-0.45767 -54.55166,-0.45767c0,0 -6.92616,-18.15876 -7.92292,-18.17375c-0.99722,-0.015 -0.80904,17.55374 -0.80904,17.55374z" fill="none" stroke="#3a2f41" stroke-width="2" stroke-linecap="butt"/></g><g><g stroke-linecap="round"><path d="M171.7254,296.76966c0,0 2.74954,-10.87333 6.45773,-24.66282c4.11824,-15.31434 12.41885,-33.4754 16.44872,-45.08362c6.34103,-18.2657 25.09255,-55.89429 25.09255,-55.89429c0,0 -0.8194,-0.12339 3.31494,-0.18222c10.84835,-0.15436 58.47089,0.7212 58.47089,0.7212c0,0 20.20078,27.88786 29.27489,45.55775c9.34594,18.1992 26.5093,63.09638 26.5093,63.09638c0,0 -3.72591,32.10293 -78.10702,37.27873c-58.43747,4.06636 -87.46199,-20.83112 -87.46199,-20.83112z" fill="#3a2f41" stroke="none" stroke-width="0.5"/><path d="M285.2777,178.35141l-26.44832,17.24743l-41.79485,-17.60352" fill="none" stroke="#e1e2db" stroke-width="1.5"/><path d="M280.26021,169.66794c0,0 19.01644,25.0512 29.47291,45.36444c16.04855,31.1767 27.56129,65.28968 27.56129,65.28968c0,0 -4.44899,31.49165 -71.09264,36.85201c-66.64365,5.36037 -94.86606,-20.83114 -94.86606,-20.83114c0,0 18.25823,-67.60026 48.13867,-125.214c0,0 1.53406,-1.08593 3.32283,-1.18613c7.5031,-0.42029 57.463,-0.27486 57.463,-0.27486z" fill="none" stroke="url(#color-2)" stroke-width="2"/></g><path d="M218.4111,287.75811c-1.63188,8.06875 -8.34149,13.52031 -14.98634,12.1764c-6.64485,-1.3439 -10.70867,-8.97436 -9.07678,-17.04311c1.63188,-8.06875 8.34149,-13.52031 14.98634,-12.1764c6.64485,1.3439 10.70867,8.97436 9.07678,17.04311z" fill="#e1e2db" stroke="#3a2f41" stroke-width="2" stroke-linecap="butt"/><path d="M200.82122,254.61236c-1.53497,5.1007 -5.78652,8.33067 -9.49614,7.21434c-3.7096,-1.11634 -5.47249,-6.15625 -3.93753,-11.25696c1.53497,-5.1007 5.78652,-8.33067 9.49614,-7.21434c3.7096,1.11634 5.47249,6.15625 3.93753,11.25696z" fill="#e1e2db" stroke="#3a2f41" stroke-width="2" stroke-linecap="butt"/><path d="M234.43708,258.72857c0,2.90545 -2.22448,5.26078 -4.96852,5.26078c-2.74404,0 -4.96852,-2.35534 -4.96852,-5.26078c0,-2.90545 2.22448,-5.26078 4.96852,-5.26078c2.74404,0 4.96852,2.35534 4.96852,5.26078z" fill="#e1e2db" stroke="#3a2f41" stroke-width="2" stroke-linecap="butt"/><path d="M329.7157,278.01815c0,8.39352 -5.88834,15.19782 -13.15196,15.19782c-7.26362,0 -13.15196,-6.8043 -13.15196,-15.19782c0,-8.39352 5.88834,-15.19782 13.15196,-15.19782c7.26362,0 13.15196,6.8043 13.15196,15.19782z" fill="#e1e2db" stroke="#3a2f41" stroke-width="2" stroke-linecap="butt"/></g><g><g><path d="M256.96603,186.74398l-38.64838,-18.43973l8.75096,-13.83428l-1.80853,-19.31361c0,0 -7.82837,-27.49879 -3.51732,-38.8218c1.7615,-4.62656 18.54468,-14.50112 28.67488,-14.34672c8.07224,0.12301 16.43892,1.59023 23.78647,5.46538c2.76887,1.46033 7.81127,5.42125 7.81127,5.42125c0,0 15.00656,29.18369 14.45092,30.58327c-2.8234,7.11167 -17.52628,17.67327 -17.52628,17.67327l-2.49437,12.52253l9.14781,15.63069z" fill="#e1e2db" stroke="none" stroke-width="0" stroke-linecap="round"/><path d="M221.99189,96.68071c1.45384,-4.58551 17.93578,-15.09741 26.84809,-15.15401c4.86543,-0.0309 13.95717,0.83388 21.21725,3.72766c7.33042,2.92181 12.80612,7.87301 12.80612,7.87301l13.48794,30.49056l-7.56065,9.65083c0,0 -67.7134,-28.54003 -67.88341,-29.62984c0.30318,-2.93712 0.19775,-4.16083 1.08466,-6.95821z" fill="#8c9ca0" stroke="none" stroke-width="0" stroke-linecap="butt"/><path d="M256.96602,186.74398l-39.64838,-17.43973l9.75096,-14.83428l-1.55536,-18.61349c0,0 -8.27552,-27.6894 -3.77049,-39.52191c1.7615,-4.62656 18.54468,-14.50112 28.67488,-14.34672c8.07224,0.12301 16.43892,1.59023 23.78647,5.46538c2.76887,1.46033 7.81127,5.42125 7.81127,5.42125c0,0 15.00656,29.18369 14.45092,30.58327c-2.8234,7.11167 -17.52628,17.67327 -17.52628,17.67327l-2.49437,12.52253l9.14781,15.63069z" fill="none" stroke="#3a2f41" stroke-width="2" stroke-linecap="round"/></g><g stroke-linecap="butt"><path d="M248.81614,100.82278l-12.24211,-15.80433l1.66319,-4.02473c0,0 11.46495,-5.81303 13.1076,-5.92141c1.67909,-0.11079 14.69829,5.67082 14.69829,5.67082l1.81272,4.16915l-1.90126,14.16554l-10.64873,-7.5913z" fill="#8c9ca0" stroke="#3a2f41" stroke-width="1.5"/><path d="M254.52286,89.27257l-13.76995,-7.62506l10.6392,-4.8401l11.8558,4.59367z" fill="#3a2f41" stroke="none" stroke-width="0"/></g><path d="M262.99492,103.10729c0,2.34721 -1.95875,4.25 -4.375,4.25c-2.41625,0 -4.375,-1.90279 -4.375,-4.25c0,-2.34721 1.95875,-4.25 4.375,-4.25c2.41625,0 4.375,1.90279 4.375,4.25z" fill="#3a2f41" stroke="none" stroke-width="2" stroke-linecap="butt"/><path d="M265.24492,115.35729c0,2.34721 -1.95875,4.25 -4.375,4.25c-2.41625,0 -4.375,-1.90279 -4.375,-4.25c0,-2.34721 1.95875,-4.25 4.375,-4.25c2.41625,0 4.375,1.90279 4.375,4.25z" fill="#3a2f41" stroke="none" stroke-width="2" stroke-linecap="butt"/></g><g><g stroke-linecap="butt"><path d="M201.2409,124.65258l20.20399,9.4808l-32.78359,81.80371l-22.80988,-9.45208z" data-paper-data="{&quot;index&quot;:null}" fill="#7c7984" stroke="none" stroke-width="0"/><path d="M200.4681,156.15751c-4.30333,-1.85895 -8.93526,-8.70533 -8.93526,-8.70533l5.31611,-13.39811l20.20399,9.48079c0,0 -2.94776,9.61164 -4.57809,12.96387c0,0 -7.70342,1.51775 -12.00675,-0.34121z" data-paper-data="{&quot;index&quot;:null}" fill="#626171" stroke="none" stroke-width="0"/><path d="M167.13127,206.18431l-0.68125,-0.30593l35.0252,-80.73193l20.20399,9.4808l-33.14808,81.16743l-6.12086,-2.74879" data-paper-data="{&quot;index&quot;:null}" fill="none" stroke="#3a2f41" stroke-width="2.5"/></g><g fill="#3a2f41" stroke-width="2"><path d="M161.40934,258.14372l16.06406,38.05071l-24.18423,-18.56558z" stroke-opacity="0.07705" stroke="#ffffff" stroke-linecap="round"/><path d="M162.4445,266.22391l9.15268,45.75559l-20.93055,-30.61777z" stroke-opacity="0.08512" stroke="#ffffff" stroke-linecap="round"/><path d="M193.49667,204.81789c-1.50504,6.54312 -6.16596,18.60353 -6.16596,18.60353l19.38616,21.48474l-6.25629,33.30161l-4.68342,-20.19755l-11.44127,-7.60697l-21.10159,32.99124l-1.84045,32.04539l-17.02403,-31.21514c0,0 2.84694,-9.33842 7.15906,-21.68112c4.31212,-12.34269 -5.62845,16.67047 -6.11691,18.69812l-4.54674,-16.14138c0,0 7.63237,-18.58444 9.83685,-25.12154c2.85827,-8.47586 20.37123,-47.0019 20.6579,-48.33663c0.37602,-1.75076 2.37966,5.52499 10.55598,9.60513c5.88877,2.9386 11.88579,2.24425 11.58071,3.57056z" stroke="url(#color-3)" stroke-linecap="butt"/></g><g stroke-linecap="round"><g><path d="M233.52264,109.00319l-4.45595,33.69544c0,0 -15.19511,4.08747 -23.62723,0.21867c-8.38115,-3.84542 -13.57045,-12.96138 -13.57045,-12.96138c0,0 13.32389,-19.67867 19.26576,-35.62916c1.28602,-3.45223 19.15236,-6.26663 19.15236,-6.26663" fill="#e1e2db" stroke="none" stroke-width="0"/><path d="M233.65119,102.52515l-0.27872,7.10905l-23.00333,-12.23537c0,0 0.09021,-4.02833 3.42418,-5.22601c3.93501,-1.41359 18.25012,-4.84836 18.25012,-4.84836" fill="#8c9ca0" stroke="none" stroke-width="0"/><path d="M233.52263,109.00319l-4.45595,33.69544c0,0 -15.19511,4.08747 -23.62723,0.21867c-8.38115,-3.84542 -13.57045,-12.96138 -13.57045,-12.96138c0,0 13.32389,-19.67867 19.26576,-35.62916c1.28602,-3.45223 21.48569,-7.26663 21.48569,-7.26663" fill="none" stroke="#3a2f41" stroke-width="2"/></g><path d="M228.41619,142.65652c0,0 -13.37328,4.12478 -21.03411,0.67062c-13.76586,-6.20683 -15.35794,-13.69392 -15.35794,-13.69392l4.30089,-6.13977c0,0 5.53521,8.58133 13.89513,11.38397c8.3599,2.80264 19.93641,-0.04201 19.93641,-0.04201z" fill="#3a2f41" stroke="#3a2f41" stroke-width="2"/></g></g></g></g></svg>