<svg version="1.1" xmlns="http://www.w3.org/2000/svg" xmlns:xlink="http://www.w3.org/1999/xlink" width="278.05111" height="223.21567" viewBox="0,0,278.05111,223.21567"><defs><linearGradient x1="1077.66314" y1="216.06024" x2="1077.66314" y2="354.07604" gradientUnits="userSpaceOnUse" id="color-1"><stop offset="0" stop-color="#ffffff" stop-opacity="0.26046"/><stop offset="1" stop-color="#ffffff" stop-opacity="0"/></linearGradient><linearGradient x1="1077.66314" y1="216.06024" x2="1077.66314" y2="354.07604" gradientUnits="userSpaceOnUse" id="color-2"><stop offset="0" stop-color="#ffffff" stop-opacity="0.26046"/><stop offset="1" stop-color="#ffffff" stop-opacity="0"/></linearGradient><linearGradient x1="1077.66314" y1="216.06024" x2="1077.66314" y2="354.07604" gradientUnits="userSpaceOnUse" id="color-3"><stop offset="0" stop-color="#ffffff" stop-opacity="0.26046"/><stop offset="1" stop-color="#ffffff" stop-opacity="0"/></linearGradient><linearGradient x1="1036.02754" y1="220.12052" x2="1036.02754" y2="358.1363" gradientUnits="userSpaceOnUse" id="color-4"><stop offset="0" stop-color="#ffffff" stop-opacity="0.26046"/><stop offset="1" stop-color="#ffffff" stop-opacity="0"/></linearGradient><linearGradient x1="1036.02754" y1="220.12052" x2="1036.02754" y2="358.1363" gradientUnits="userSpaceOnUse" id="color-5"><stop offset="0" stop-color="#ffffff" stop-opacity="0.26046"/><stop offset="1" stop-color="#ffffff" stop-opacity="0"/></linearGradient><linearGradient x1="1036.02754" y1="220.12052" x2="1036.02754" y2="358.1363" gradientUnits="userSpaceOnUse" id="color-6"><stop offset="0" stop-color="#ffffff" stop-opacity="0.26046"/><stop offset="1" stop-color="#ffffff" stop-opacity="0"/></linearGradient><linearGradient x1="188.46349" y1="110.67665" x2="210.24568" y2="187.85001" gradientUnits="userSpaceOnUse" id="color-7"><stop offset="0" stop-color="#cedee0" stop-opacity="0"/><stop offset="1" stop-color="#cedee0" stop-opacity="0.19676"/></linearGradient></defs><g transform="translate(-127.42742,-65.40152)"><g data-paper-data="{&quot;isPaintingLayer&quot;:true}" fill-rule="nonzero" stroke-linejoin="miter" stroke-miterlimit="10" stroke-dasharray="" stroke-dashoffset="0" style="mix-blend-mode: normal"><path d="" fill="#3a2f41" stroke="none" stroke-width="0" stroke-linecap="butt"/><path d="" fill="#3a2f41" stroke="url(#color-1)" stroke-width="0.5" stroke-linecap="butt"/><path d="" fill="#3a2f41" stroke="url(#color-2)" stroke-width="0.5" stroke-linecap="butt"/><path d="" fill="#3a2f41" stroke="url(#color-3)" stroke-width="0.5" stroke-linecap="butt"/><path d="" data-paper-data="{&quot;index&quot;:null}" fill="#3a2f41" stroke="url(#color-4)" stroke-width="0.5" stroke-linecap="butt"/><path d="" data-paper-data="{&quot;index&quot;:null}" fill="#3a2f41" stroke="url(#color-5)" stroke-width="0.5" stroke-linecap="butt"/><path d="" data-paper-data="{&quot;index&quot;:null}" fill="#3a2f41" stroke="url(#color-6)" stroke-width="0.5" stroke-linecap="butt"/><g><path d="M209.88083,249.28691l47.162,-9.09425c0,0 7.27805,10.84496 11.89952,17.62243c1.38319,2.0285 2.52841,3.69263 3.16929,4.5926c1.32929,2.8307 3.07308,6.80918 5.05984,11.48331c-24.02539,4.40142 -48.02585,8.93175 -71.72357,13.36364c1.89266,-18.75748 4.43295,-37.96772 4.43295,-37.96772z" fill="#e1e2db" stroke="none" stroke-width="0" stroke-linecap="round"/><path d="M202.4564,276.06913c0.66566,-14.65839 9.84798,-32.12899 9.84798,-32.12899l42.02081,-8.36935c0,0 7.48988,9.67476 10.01268,13.46385c1.74924,2.62726 3.67244,7.09032 3.67244,7.09032l-21.5908,23.05575c-14.75692,2.7538 -29.45946,5.51974 -44.04265,8.2447c-0.04455,-4.81386 -0.03159,-8.90891 0.07954,-11.35627z" fill="#8c9ca0" stroke="none" stroke-width="0" stroke-linecap="butt"/><path d="M203.50871,287.61719c0.0135,-4.73615 0.09312,-9.07473 0.26032,-12.75678c0.59843,-13.17956 8.6186,-30.51619 8.6186,-30.51619l41.75174,-7.86113c0,0 8.1658,7.59778 16.67883,24.83466c1.41335,2.86171 3.42853,7.31508 5.77675,12.67885" fill="none" stroke="#3a2f41" stroke-width="2" stroke-linecap="round"/><path d="M259.02099,242.6133l-18.60501,14.22789l-30.49805,-4.53187" fill="none" stroke="#3a2f41" stroke-width="1.5" stroke-linecap="round"/></g><path d="M238.99255,252.25003c-8.58009,3.37036 -26.1833,-0.37969 -26.1833,-0.37969c0,0 -0.71672,-5.24191 -0.83011,-8.18519c-0.1033,-2.68123 -0.30708,-8.57339 -0.30708,-8.57339c0,0 -0.90071,-3.86633 -4.52656,-6.90778c-2.27167,-1.90553 -13.44745,-8.84063 -13.59328,-9.17305c-0.02804,-0.06391 -0.43836,-3.91618 -0.30181,-8.24421c0.15851,-5.02369 4.19497,-14.60579 6.61732,-17.43319c2.63904,-3.08032 6.84564,-5.65248 10.34802,-6.90974c5.35258,-1.92145 11.23275,-3.02971 17.03835,-2.29756c2.18779,0.2759 6.49491,1.63643 6.49491,1.63643c0,0 8.39381,5.09244 14.17618,13.03894c0.23743,10.83417 -6.02977,17.78607 -6.02977,17.78607l1.55848,6.83035c0,0 3.75492,4.01244 5.43445,6.08879c1.67389,2.06937 4.62592,6.34842 4.62592,6.34842c0,0 -5.9416,13.0045 -14.5217,16.37487z" fill="#3a2f41" stroke="#8c9ca0" stroke-width="1.5" stroke-linecap="round"/><g data-paper-data="{&quot;index&quot;:null}" stroke="#3a2f41" stroke-linecap="butt"><g data-paper-data="{&quot;index&quot;:null}"><g stroke-width="0"><path d="" fill="#e1e2db"/><path d="" fill="#e1e2db"/><path d="" fill="#8c9ca0"/></g><path d="M269.08882,273.88847l35.26339,-12.21683l2.16049,6.26923c-11.97474,3.37445 -23.96488,6.80679 -35.93662,10.26328z" fill="#e1e2db" stroke-width="0"/><path d="M269.0888,273.88847l35.26341,-12.21683l2.16047,6.26925c-11.97474,3.37445 -23.96487,6.80679 -35.93662,10.26328z" fill="#8c9ca0" stroke-width="0"/><path d="M294.73338,265.29627l9.73112,-3.37128l2.07098,6.00949" fill="none" stroke-width="2"/><path d="M270.59876,278.19761l-1.39771,-4.05581l11.4652,-3.97205" fill="none" stroke-width="2"/></g><g data-paper-data="{&quot;index&quot;:null}"><path d="M262.52343,240.77863l-26.41067,-33.54488l1.20886,-16.43102c0,0 10.65642,7.21495 16.78,12.13351c11.11912,8.93108 44.42757,37.02948 44.42757,37.02948l9.60768,27.51782c-12.54754,3.53076 -25.11369,7.12673 -37.65952,10.74915z" fill="#3a2f41" stroke-width="1.5"/><path d="" fill="#8ea8ab" stroke-width="2"/></g></g><g fill="#8c9ca0" stroke="#3a2f41" stroke-width="1.5" stroke-linecap="butt"><path d="M221.77007,202.05662c0.56958,1.75936 -0.45916,3.66812 -2.29775,4.26334c-1.83859,0.59522 -3.79078,-0.34847 -4.36037,-2.10783c-0.56958,-1.75936 0.45916,-3.66814 2.29776,-4.26336c1.83859,-0.59522 3.79078,0.34849 4.36037,2.10784z"/><path d="M225.47322,211.39174c0.58937,1.82049 -0.49088,3.8007 -2.4128,4.42291c-1.92192,0.62219 -3.95769,-0.34922 -4.54707,-2.16972c-0.58937,-1.82049 0.49087,-3.80068 2.41278,-4.4229c1.92192,-0.62219 3.95772,0.34921 4.54708,2.1697z"/></g><g><path d="M218.58079,182.77861c0.74181,1.90643 -2.8152,7.36159 -4.91054,8.17692c-2.09535,0.81533 -8.13435,-0.47622 -8.87616,-2.38263c-0.74181,-1.90643 3.84545,-4.89793 5.94079,-5.71326c2.09534,-0.81533 7.10411,-1.98745 7.84593,-0.08101z" fill="#3a2f41" stroke="none" stroke-width="0" stroke-linecap="butt"/><g fill="#8c9ca0" stroke="#8c9ca0" stroke-width="1.5" stroke-linecap="butt"><path d="M200.31991,205.08933c-0.99412,-0.42462 3.58443,-17.13677 3.58443,-17.13677l9.30148,2.6364l5.2528,-9.02319c0,0 14.78739,9.25115 14.50118,10.18558c-0.15826,0.51667 -4.2763,0.0406 -9.03107,0.39846c-4.37392,0.32917 -9.42227,1.51371 -9.42227,1.51371c0,0 -4.56172,3.26469 -8.15709,6.28677c-3.28745,2.76323 -5.61492,5.3161 -6.02943,5.13907z"/></g><path d="M204.51262,189.50595l-0.22429,-1.97518l6.0132,-4.71738l7.67325,-1.22408l1.45788,1.53815" fill="none" stroke="#8c9ca0" stroke-width="2" stroke-linecap="round"/></g><path d="" fill="#3a2f41" stroke="#8c9ca0" stroke-width="2" stroke-linecap="butt"/><path d="" fill="#3a2f41" stroke="#8c9ca0" stroke-width="2" stroke-linecap="butt"/><g><g data-paper-data="{&quot;index&quot;:null}" stroke="#3a2f41" stroke-linecap="butt"><path d="M128.19592,138.05157l0.347,-13.23396l8.79431,3.15944l-7.91251,-7.18764l11.1767,-21.1527c0,0 6.7448,16.05422 16.83237,29.63677c3.21514,2.78231 -4.09829,10.62335 -4.09829,10.62335z" fill="#3a2f41" stroke-width="1.5"/><path d="M158.12181,135.74713c-2.31524,-0.95337 -2.97577,-20.12351 -0.88541,-24.83829c0.84552,-1.90702 17.68501,9.31005 16.61012,11.73445c-2.09036,4.71477 -12.29157,14.51751 -14.6068,13.56415z" data-paper-data="{&quot;index&quot;:null}" fill="#8c9ca0" stroke-width="2"/><path d="M158.92028,135.72197c2.07568,1.32019 -2.40894,16.42514 -5.45836,20.25595c-1.56807,1.96987 -19.18273,-8.2656 -17.9493,-9.8151c3.0494,-3.8308 20.32974,-12.39848 22.40542,-11.07828z" fill="#e1e2db" stroke-width="1.5"/><path d="M162.10303,131.12248c2.22229,2.155 2.37125,5.60612 0.33271,7.70831c-2.0385,2.10216 -5.4926,2.05932 -7.71488,-0.09571c-2.22229,-2.155 -2.37125,-5.60612 -0.33271,-7.7083c2.0385,-2.10216 5.49261,-2.05931 7.71489,0.0957z" fill="#e1e2db" stroke-width="2"/></g><path d="M251.06306,170.94336l-18.76717,3.11641l-2.81443,-9.82362c0,0 1.61846,10.32617 1.18463,10.32908c-5.26541,1.04097 -10.45578,2.14879 -15.40526,3.25923c-20.79277,4.66504 -37.33481,9.37687 -37.33481,9.37687c0,0 -9.51693,-9.47899 -12.49598,-20.03359c-2.08183,-7.37574 -5.3402,-22.18759 1.87954,-36.4753c5.82275,-11.52311 19.7657,-18.52892 22.78908,-19.51648c2.41749,-0.78967 13.81852,0.08673 21.56814,4.12493c12.89989,6.72196 30.42495,25.13189 30.42495,25.13189z" fill="#3a2f41" stroke="none" stroke-width="0" stroke-linecap="butt"/><g stroke-linecap="butt"><path d="M232.2413,146.13473c1.84448,6.53494 4.98596,11.94278 1.50776,17.47882c-3.38114,5.38157 -13.1655,9.67158 -23.4969,12.82652c-10.28293,3.14016 -21.329,3.72971 -27.1013,0.74788c-5.83964,-3.01659 -6.39768,-8.39425 -8.22698,-14.8754c-3.63751,-12.88755 0.46162,-31.71869 24.71276,-37.79624c15.95253,-3.99786 28.96719,8.73081 32.60469,21.61839z" fill="#e1e2db" stroke="none" stroke-width="0"/><path d="M232.2413,146.13473c3.63753,12.88755 -10.3457,8.08361 -23.29626,11.8493c-12.94794,3.76495 -30.38369,17.21609 -34.0212,4.32854c-3.63751,-12.88755 0.46162,-31.71869 24.71276,-37.79624c15.95253,-3.99786 28.96719,8.73083 32.60469,21.61839z" fill="#b8c1c0" stroke="none" stroke-width="0"/><path d="M204.27669,123.80496c13.7947,-0.76757 25.52651,9.92206 28.80433,21.53524l0.14575,0.51639c1.72542,6.1131 3.61262,11.78939 0.73861,17.06726c-3.18496,5.84886 -12.32616,10.04747 -23.34364,13.41194c-7.61137,2.32432 -17.27057,3.55758 -22.36872,2.33409c-8.75734,-2.10165 -11.03004,-8.21172 -13.32912,-16.3573c-3.08756,-10.93906 -0.60104,-26.16034 15.05214,-34.22963" fill="none" stroke="#3a2f41" stroke-width="2"/></g><path d="M166.02543,187.05131l-10.72297,-4.35313c0,0 -8.52133,-22.13469 -2.76166,-39.71005c7.42907,-22.66938 27.9301,-36.44184 51.77206,-37.24987c5.10749,-0.1731 18.2866,0.45454 27.64275,6.58058c11.23941,7.35914 17.66736,18.94021 17.66736,18.94021l-4.95074,0.59357l3.67558,9.55049c0,0 -2.79303,0.07024 -2.86876,-0.13335c-1.69654,-4.56165 -3.97127,-8.92368 -3.97127,-8.92368c0,0 1.79652,3.58327 2.90916,9.3147c-2.86203,0.25902 -18.44398,2.93606 -18.44398,2.93606l-3.24594,-3.62753l0.74794,4.04403l-13.48641,2.49922l-5.58515,-14.42897l3.86962,14.48855c0,0 -11.79279,3.21029 -17.42199,5.02454c-0.39705,0.12798 -3.68087,-5.68266 -3.68087,-5.68266c0,0 1.69499,6.5527 1.39675,6.6425c-3.5252,1.06125 -8.22754,3.07757 -8.22754,3.07757c0,0 9.3539,32.89189 9.22831,32.94339c-1.95332,0.80142 -20.86538,-0.63262 -21.21959,-1.99696c-0.51169,-1.97099 -4.85799,-12.64844 -4.85799,-12.64844z" fill="#3a2f41" stroke="url(#color-7)" stroke-width="0.5" stroke-linecap="butt"/><path d="M198.84217,118.87302c5.26133,-33.48374 28.94028,-52.01127 28.94028,-52.01127l3.97964,56.58788" fill="#3a2f41" stroke="#3a2f41" stroke-width="1.5" stroke-linecap="round"/><path d="M151.4041,153.83437c-1.64506,-47.92849 21.20527,-83.88085 21.20527,-83.88085l19.10236,47.02261" fill="#3a2f41" stroke="#3a2f41" stroke-width="1.5" stroke-linecap="round"/><path d="M181.65945,167.00123c0,0 3.27463,-4.56834 10.61205,-6.59243c7.774,-2.14451 12.89853,1.03375 12.89853,1.03375c0,0 -5.036,0.99244 -12.16044,2.7723c-6.33081,1.58159 -11.35013,2.78639 -11.35013,2.78639z" fill="#e1e2db" stroke="#3a2f41" stroke-width="1" stroke-linecap="butt"/><path d="M200.21809,161.92463l-0.58388,-2.15675l0.0823,-0.02198l0.57572,2.16454z" data-paper-data="{&quot;index&quot;:null}" fill="#3a2f41" stroke="#3a2f41" stroke-width="0.5" stroke-linecap="butt"/><path d="M206.24102,159.46174c0.41378,-0.28069 0.69446,0.13311 0.69446,0.13311l0.16135,0.2394c0.74123,0.99427 1.08472,2.2237 0.06403,3.1125c0,0 -0.39658,0.30449 -0.70108,-0.09209c-0.3045,-0.39659 0.09209,-0.70108 0.09209,-0.70108c0.60248,-0.34144 0.09998,-1.27529 -0.24821,-1.71031l-0.19575,-0.28704c0,0 -0.28068,-0.41378 0.1331,-0.69446z" fill="#3a2f41" stroke="none" stroke-width="0.5" stroke-linecap="butt"/><path d="M194.49025,165.2228c0.33637,0.36992 -0.03354,0.70631 -0.03354,0.70631l-0.23476,0.20348c-2.23068,1.41336 -5.88639,2.54491 -8.43292,1.55953c0,0 -0.46631,-0.18043 -0.28587,-0.64674c0.18043,-0.46631 0.64674,-0.28587 0.64674,-0.28587c2.24628,0.86921 5.5814,-0.22747 7.53602,-1.47111l0.09803,-0.09913c0,0 0.36992,-0.33639 0.70631,0.03354z" fill="#3a2f41" stroke="none" stroke-width="0.5" stroke-linecap="butt"/><path d="M205.71825,162.39862c0.43612,0.24456 0.19153,0.68067 0.19153,0.68067l-0.27243,0.36362c-2.67058,1.6955 -7.1307,2.97941 -10.26323,2.3848c0,0 -0.49106,-0.09409 -0.39695,-0.58517c0.0941,-0.49106 0.58518,-0.39695 0.58518,-0.39695c2.89119,0.56001 7.08121,-0.68596 9.53896,-2.24687l-0.06371,-0.00857c0,0 0.24456,-0.43612 0.68067,-0.19153z" fill="#3a2f41" stroke="none" stroke-width="0.5" stroke-linecap="butt"/><path d="M205.36471,159.47128c-0.24456,0.43612 -0.68067,0.19153 -0.68067,0.19153l0.0021,-0.00458c-0.52519,-0.21816 -1.04351,-0.15262 -1.60763,-0.3014c0,0 -0.48239,-0.1315 -0.3509,-0.61388c0.1315,-0.48238 0.61389,-0.3509 0.61389,-0.3509c0.60185,0.17094 1.11039,0.11448 1.70552,0.33358l0.12615,0.065c0,0 0.43612,0.24455 0.19153,0.68067z" fill="#3a2f41" stroke="none" stroke-width="0.5" stroke-linecap="butt"/><path d="M185.17588,167.54951c0.19138,0.46192 -0.27055,0.65331 -0.27055,0.65331l-0.4085,0.15084c-0.69482,0.08863 -1.1557,0.06395 -1.82545,-0.13548c0,0 -0.47855,-0.1449 -0.33364,-0.62344c0.1449,-0.47855 0.62345,-0.33365 0.62345,-0.33365c0.54614,0.16873 0.83384,0.17966 1.40471,0.10116l0.15668,-0.08331c0,0 0.46192,-0.19138 0.65331,0.27054z" fill="#3a2f41" stroke="none" stroke-width="0.5" stroke-linecap="butt"/></g><g data-paper-data="{&quot;index&quot;:null}"><g><g fill="none" stroke="#8c9ca0" stroke-width="2" stroke-linecap="round"><path d="M306.80738,169.89302l-11.1972,-14.57796l-17.51068,12.58707l-8.74611,-14.51499l-18.81052,13.55641l-15.6632,-16.44759"/><path d="M233.47771,165.2517l18.82912,-13.80664l15.0504,16.43176l15.72798,-13.38484l11.21582,14.32761l12.95198,-13.20549"/></g><g stroke="none" stroke-width="0.78636"><path d="M208.14961,137.51453c6.56362,0.34595 12.26217,2.83861 16.16489,6.58689c3.90378,3.74761 6.01171,8.75094 5.39639,14.11662c-0.61532,5.36566 -3.8385,10.08796 -8.5498,13.38145c-4.7104,3.29435 -10.90868,5.1599 -17.47231,4.81394c-6.56362,-0.34595 -12.26217,-2.83861 -16.16487,-6.58689c-3.90376,-3.7476 -6.01183,-8.75083 -5.39652,-14.1165c0.61531,-5.36575 3.83863,-10.08795 8.54994,-13.38155c4.7104,-3.29435 10.90868,-5.15991 17.4723,-4.81395z" fill="#3a2f41" stroke-linecap="butt"/><path d="M227.57479,137.56712c2.55223,0.13448 4.59979,2.57861 5.84396,6.41918c1.24429,3.84067 1.68741,9.07634 1.03154,14.79491c-0.65574,5.71846 -2.28715,10.8449 -4.39199,14.50897c-2.10497,3.66408 -4.68502,5.86427 -7.23727,5.72981c-2.55223,-0.13457 -4.59969,-2.5787 -5.84396,-6.41928c-1.24416,-3.84067 -1.68728,-9.07633 -1.03153,-14.7949c0.65587,-5.71848 2.28727,-10.8448 4.3921,-14.50898c2.10483,-3.66407 4.68502,-5.86427 7.23713,-5.72971z" fill="#3a2f41" stroke-linecap="butt"/><path d="M213.61853,150.66895c2.12152,0.11181 3.87745,1.66616 5.00017,4.08679c1.12383,2.42067 1.50258,6.13353 1.20315,9.2848c-0.31112,3.27799 -0.84139,6.87325 -3.0491,9.72165c-1.17338,1.52096 -3.82944,1.75247 -5.82016,2.26264c-1.87477,0.3581 -4.93582,1.60873 -5.59501,0.29797c-1.97682,-4.03098 -1.36859,-8.90374 -0.91626,-13.09289c0.33905,-3.13425 1.6432,-6.7733 3.3053,-9.0472c1.6611,-2.27393 3.75036,-3.62558 5.87192,-3.51377z" fill="#8c9ca0" stroke-linecap="round"/></g></g><path d="M381.83306,211.33689l-24.16802,-0.03289l1.51564,-60.02318l24.16791,0.033z" fill="#3a2f41" stroke="none" stroke-width="0.78636" stroke-linecap="butt"/><path d="M364.76577,172.76191l-62.88148,-0.08578l0.54163,-21.45094l62.88148,0.08578z" fill="#3a2f41" stroke="none" stroke-width="0.78636" stroke-linecap="butt"/><path d="M362.03485,211.78211l-8.50364,-0.01165l1.16783,-46.2473l8.50351,0.01154z" fill="#8c9ca0" stroke="none" stroke-width="0.78636" stroke-linecap="butt"/><path d="M358.37307,173.13604l-56.39199,-0.07699l0.19875,-7.87186l56.39198,0.07689z" fill="#8c9ca0" stroke="none" stroke-width="0.84105" stroke-linecap="butt"/></g><g stroke="#3a2f41" stroke-width="2"><g fill="#e1e2db"><path d="M370.29803,215.16014l6.22469,-26.29652l8.10064,25.51959z" stroke-linecap="round"/><path d="M375.75255,213.83434l3.63864,-23.79675l10.36551,26.73179z" stroke-linecap="round"/><path d="M308.60761,229.16251l2.57616,-4.00581l-12.45465,-1.20283l8.38243,-4.26011l-3.03046,-3.10556c0,0 22.93538,-3.42128 29.88783,-4.93605c4.45668,-0.97097 7.4855,-1.76343 7.4855,-1.76343l7.5887,-17.3285l28.40392,-3.32149c0,0 -20.84443,10.86733 -16.54098,14.26994c1.05475,0.83398 24.38049,3.46764 24.38049,3.46764l-7.05955,-18.11511l20.0809,27.15652c0,0 -13.80469,3.20888 -22.63815,4.18434c-8.83347,0.97547 21.26063,-3.79478 22.64814,-4.08287l-17.7956,9.01928c0,0 -13.63058,0.80638 -18.28609,1.36916c-13.58325,1.64197 -53.62863,2.65482 -53.62863,2.65482z" stroke-linecap="butt"/></g><g stroke-linecap="butt"><path d="M346.13925,234.96904l-40.2243,5.15024c0,0 -93.2019,-14.10378 -106.19443,-19.86804c-7.15531,-3.17453 -1.30322,-13.76798 -1.30322,-13.76798l92.14859,1.91101l51.14162,-13.08398z" fill="#3a2f41"/><path d="M339.15606,235.81914l-2.24614,0.11959l-6.10246,-37.70657l2.14436,-0.37369z" fill="#8ea8ab"/></g></g></g></g></svg>