<svg version="1.1" xmlns="http://www.w3.org/2000/svg" xmlns:xlink="http://www.w3.org/1999/xlink" width="201.77471" height="517.64343" viewBox="0,0,201.77471,517.64343"><g transform="translate(-133.15881,49.26345)"><g data-paper-data="{&quot;isPaintingLayer&quot;:true}" fill-rule="nonzero" stroke-linejoin="miter" stroke-miterlimit="10" stroke-dasharray="" stroke-dashoffset="0" style="mix-blend-mode: normal"><g><g><g fill="#3a2f41" stroke="#3a2f41" stroke-width="2" stroke-linecap="round"><g><g><path d="M222.77136,52.73543c0,0 11.28502,4.47652 23.73134,11.33118c0.72249,0.3979 1.49582,0.6093 2.31088,0.66314c9.98856,0.65981 26.24857,-22.34313 32.11037,-15.74721c5.17843,5.82697 -8.75578,37.00576 -11.32548,42.91509c-7.8959,18.15756 -17.71046,28.49584 -28.4961,32.54889c-16.44134,6.17837 -33.15362,-0.26276 -33.15362,-0.26276c0,0 19.02477,-11.22238 -3.63687,-36.96377c-8.28713,-10.07622 18.4595,-34.48456 18.4595,-34.48456z" data-paper-data="{&quot;index&quot;:null}"/><path d="M255.00308,53.20288c0,0 26.74663,24.40835 18.45949,34.48457c-19.66164,28.2414 -0.13688,38.96377 -0.13688,38.96377c0,0 -45.21754,11.55035 -65.14972,-34.28612c-2.56971,-5.90933 -16.50392,-37.08812 -11.32548,-42.91509c5.8618,-6.59592 22.12183,16.40701 32.11038,15.74721c0.81506,-0.05384 1.58839,-0.26525 2.31088,-0.66315c12.44633,-6.85467 23.73134,-11.33118 23.73134,-11.33118z" data-paper-data="{&quot;index&quot;:null}"/><path d="M243.2735,56.25862c0,0 40.03858,-1.9829 39.44072,11.04974c-2.53168,35.78796 13.01638,52.5089 13.01638,52.5089c0,0 -17.02069,4.95276 -41.03991,-1.94148c-11.71371,-3.36219 -24.7108,-12.59064 -38.94485,-20.70602c-5.59796,-3.19161 -21.93493,-1.30591 -21.28008,-9.07385c0.74127,-8.79303 27.54182,-0.11814 35.14372,-6.63102c0.62032,-0.53144 1.1128,-1.16404 1.45285,-1.9155c5.85806,-12.94529 12.21118,-23.29075 12.21118,-23.29075z" data-paper-data="{&quot;index&quot;:null}"/><path d="M236.88735,57.19358c0,0 6.35312,10.34546 12.21118,23.29075c0.34006,0.75145 0.83255,1.38405 1.45285,1.9155c7.60191,6.51288 34.40246,-2.16201 35.14373,6.63102c0.65484,7.76794 -23.18212,18.38224 -28.78009,21.57385c-12.34077,6.4387 -26.26319,8.80367 -38.82366,9.2506c-20.77725,0.7393 -37.82777,-3.76976 -37.82777,-3.76976c0,0 17.88137,-7.8876 15.84971,-42.67557c-0.59786,-13.03262 40.77405,-16.21641 40.77405,-16.21641z" data-paper-data="{&quot;index&quot;:null}"/><path d="M221.15147,50.27832c0,0 2.60166,11.85842 3.88159,26.00972c0.0743,0.82146 0.33162,1.58074 0.74291,2.28649c5.04024,8.64885 33.20316,9.26034 31.01447,17.80883c-1.93353,7.5519 -20.07267,10.94156 -26.40845,12.11689c-49.14429,9.11667 -79.98007,-16.02621 -79.98007,-16.02621c0,0 19.20778,4.28906 31.83894,-38.20806c3.71698,-12.50563 38.91063,-3.98765 38.91063,-3.98765z" data-paper-data="{&quot;index&quot;:null}"/><path d="M256.32705,37.57274c0,0 35.19365,-9.67354 38.91063,4.52863c12.63116,48.26236 36.67228,46.07232 36.67228,46.07232c0,0 -31.66913,27.2121 -80.81341,16.85863c-6.33578,-1.33478 -28.47493,-6.52343 -30.40845,-15.09985c-2.18868,-9.7082 25.97423,-10.40264 31.01448,-20.22481c0.41128,-0.80149 0.66862,-1.66378 0.74291,-2.59669c1.27993,-16.0711 3.88159,-29.53825 3.88159,-29.53825z" data-paper-data="{&quot;index&quot;:null}"/></g><path d="M276.29062,67.40332c-0.59777,7.62089 -38.87696,29.58937 -42.05961,35.71543c-2.5995,5.00358 -44.79737,-22.61558 -50.24116,-22.48739c-33.44464,-0.6318 -48.80704,-16.22848 -48.80704,-16.22848c0,0 29.37329,-5.63683 46.34133,-31.16584c0.2522,-0.43837 -8.66003,2.4012 -8.30332,2.01287c6.34045,-6.90218 21.11882,-6.13539 21.11882,-6.13539c0,0 82.72788,28.38418 81.95096,38.2888z" data-paper-data="{&quot;index&quot;:null}"/><path d="M215.21306,21.50254c-0.11707,7.64018 25.3334,64.14574 22.54175,70.43314c-2.28014,5.13535 -28.65779,-47.32937 -34.08428,-46.90763c-42.09125,3.27118 -56.19822,-16.26086 -56.19822,-16.26086c0,0 23.88643,12.10834 38.18865,-16.68053c4.20872,-8.4717 28.54671,-8.93033 28.54671,-8.93033c0,0 1.15752,8.41648 1.00537,18.3462z" data-paper-data="{&quot;index&quot;:null}"/></g><path d="M261.26016,41.73749c0,0 22.68012,-0.40047 27.09727,4.79143c10.82096,12.74393 38.44817,16.29588 38.44817,16.29588c0,0 -12.64142,7.02372 -54.47587,4.3142c-8.49278,-0.55006 -11.86106,-4.97243 -12.88806,-9.97727c-0.69761,-3.39961 -40.39507,30.71287 -39.80446,27.80684c0.48256,-2.37441 -8.19302,-32.41133 3.42019,-43.88435c3.95086,-3.90317 38.20273,0.65327 38.20273,0.65327z" data-paper-data="{&quot;index&quot;:null}"/><path d="M261.72767,7.95939c0,0 22.68012,-0.79837 27.09727,9.55207c10.82096,25.40597 37.11483,19.87393 37.11483,19.87393c0,0 -11.30808,26.6154 -53.14253,21.21377c-8.49278,-1.09658 -11.86106,-9.91291 -12.88806,-19.89041c-0.69761,-6.77739 -40.39507,61.22834 -39.80446,55.43498c0.48256,-4.73357 -8.19302,-64.61438 3.42019,-87.48667c3.95086,-7.78124 38.20273,1.30234 38.20273,1.30234z" data-paper-data="{&quot;index&quot;:null}"/></g><path d="M326.78013,19.65131c0,0 -8.03446,10.72523 -15.20184,11.66968c-7.16739,0.94445 -16.59571,-6.06506 -16.59571,-6.06506c0,0 4.77205,-8.64496 11.93944,-9.58941c7.16739,-0.94445 19.85811,3.98479 19.85811,3.98479z" fill="#e1e2db" stroke="#3a2f41" stroke-width="2" stroke-linecap="butt"/><path d="M295.3139,51.341c0,16.77568 -25.34893,24.96541 -50.78133,26.12052c-2.1073,0.09571 -4.92565,-33.11021 -6.99285,-33.11021c-5.6157,0 -10.55796,32.87161 -16.00938,32.1037c-20.77392,-2.92634 -38.44388,-11.46084 -38.44388,-25.85045c0,-10.05571 -9.45675,-21.89532 2.2837,-39.31185c17.16597,-25.46508 72.56796,-27.01979 94.92379,-5.96373c16.82668,15.84843 14.98602,32.76475 14.98602,44.90734z" fill="#3a2f41" stroke="none" stroke-width="0" stroke-linecap="butt"/><g stroke-linecap="butt"><path d="M275.74647,50.19503c0,8.1681 1.95956,15.45514 -4.15625,20.72761c-5.94515,5.12534 -19.28539,6.89472 -32.90065,7.17131c-13.55136,0.27531 -26.45651,-3.31823 -32.4388,-8.65638c-6.05209,-5.4004 -5.58624,-11.14171 -5.58624,-19.24255c0,-16.10829 11.42205,-36.56936 42.9266,-35.68104c20.72388,0.58434 32.15534,19.57273 32.15534,35.68104z" fill="#e1e2db" stroke="none" stroke-width="0"/><path d="M275.94647,49.99503c0,16.10829 -15.32043,5.97773 -32.32255,6.10554c-16.99872,0.12779 -42.75939,10.00275 -42.75939,-6.10554c0,-16.10829 11.42205,-36.56936 42.9266,-35.68104c20.72388,0.58434 32.15534,19.57273 32.15534,35.68104z" fill="#b8c1c0" stroke="none" stroke-width="0"/><path d="M249.46445,15.20665c16.99964,3.61891 27.57291,19.82754 27.57291,34.34295l-0.00001,0.64543c0,7.64082 0.34587,14.82883 -4.94851,19.99981c-5.86716,5.73042 -18.39577,7.60414 -32.91516,7.89911c-10.03065,0.20377 -21.47355,-1.85804 -27.24004,-4.94031c-9.90537,-5.29455 -11.26908,-12.77738 -11.26908,-22.95861c0,-13.67286 8.22932,-30.48178 29.98421,-34.70872" fill="none" stroke="#3a2f41" stroke-width="2"/></g><g stroke="#3a2f41" stroke-width="1" stroke-linecap="round"><g fill="#e1e2db"><path d="M268.50531,62.81484l-4.40993,12.75287c0,0 -23.24469,5.2699 -45.27799,-1.06376c-0.66517,-1.8077 -1.98459,-14.85846 -1.98459,-14.85846c30.14519,6.26503 51.24089,3.12538 51.24089,3.12538"/></g><path d="M219.27251,74.13438l3.3036,-11.55916l3.59019,13.01736l5.38035,-12.34805l3.24017,13.55331l7.51659,-12.32617l3.56916,12.36952l5.55785,-11.62286l3.29,11.3633l6.92552,-11.70767l0.56665,10.83359" fill="none"/></g><g fill="#3a2f41" stroke="#3a2f41" stroke-width="2" stroke-linecap="butt"><path d="M210.86309,-14.60409v-3.27247h31.78973v3.27247z"/><path d="M210.97996,-14.8375v-32.95847h4.20746v32.95847z"/><path d="M238.79598,-6.65631v-10.05116h3.73997v10.05116z"/><path d="M210.97996,-44.52348v-3.73997h32.49097v3.73997z"/><path d="M239.73097,-25.82369v-22.20606h4.20746v22.20606z"/><path d="M222.19986,-25.82369v-3.50622h18.69984v3.50622z"/><path d="M222.19986,-29.32986l-0.23374,-5.8437l4.44121,5.8437z"/></g><path d="M314.69883,41.72227c0,0 -11.04337,1.10024 -15.63199,-2.74545c-4.58861,-3.8457 -5.5884,-13.5238 -5.5884,-13.5238c0,0 7.9475,-1.92685 12.53611,1.91884c4.58861,3.8457 8.68428,14.3504 8.68428,14.3504z" fill="#e1e2db" stroke="#3a2f41" stroke-width="2" stroke-linecap="butt"/><g fill="#3a2f41"><path d="M208.74062,46.41022c-0.76112,16.83873 8.17526,42.48437 8.17526,42.48437c0,0 -21.60569,-7.47129 -28.00706,-36.48237" stroke="#b8c1c0" stroke-width="2" stroke-linecap="round"/><path d="M189.22368,52.93693c0.56793,6.04377 4.36986,13.8102 7.53385,20.43618c0.35468,0.74276 -9.93358,-14.11353 -10.50151,-20.15731c-0.56793,-6.04377 -0.364,-11.00565 0.4555,-11.08266c0.64405,-0.06052 16.21301,34.05596 13.30036,30.95654c-6.59032,-7.01288 -10.90979,-21.44661 -10.78821,-20.15275z" stroke="none" stroke-width="0" stroke-linecap="butt"/></g><path d="M251.40953,17.8899c3.08218,7.14919 -8.97817,21.65669 -24.17022,28.20632c-9.26893,3.98771 -18.42212,3.9831 -20.12971,4.79024c-1.42114,0.67174 -1.67691,4.888 -1.20112,7.03084c1.32632,5.97353 -12.17054,-9.21458 -13.67086,-12.69459c-3.08218,-7.14919 6.7348,-18.25428 21.92685,-24.80392c15.19204,-6.54962 34.16288,-9.67808 37.24507,-2.52888z" fill="#3a2f41" stroke="none" stroke-width="0" stroke-linecap="butt"/><g><g><path d="M175.17638,15.30546c7.19808,0.67161 12.29497,9.12911 12.29497,9.12911c0,0 -9.15534,7.36249 -16.35343,6.69088c-7.19808,-0.67161 -15.63402,-11.084 -15.63402,-11.084c0,0 12.49439,-5.40761 19.69248,-4.73601z" data-paper-data="{&quot;index&quot;:null}" fill="#e1e2db" stroke="#3a2f41" stroke-width="2" stroke-linecap="butt"/><path d="M176.52767,26.96787c4.43927,-4.01717 12.45421,-2.39351 12.45421,-2.39351c0,0 -0.63156,9.70908 -5.07083,13.72626c-4.43927,4.01717 -15.51647,3.33708 -15.51647,3.33708c0,0 3.6938,-10.65266 8.13307,-14.66982z" data-paper-data="{&quot;index&quot;:null}" fill="#e1e2db" stroke="#3a2f41" stroke-width="2" stroke-linecap="butt"/><g data-paper-data="{&quot;index&quot;:null}"><path d="M189.70792,36.66192l-7.72635,-2.41661l-5.06349,-25.42637l27.06614,-6.42845l4.35839,3.21653l4.93585,24.78537z" fill="#8c9ca0" stroke="#3a2f41" stroke-width="2" stroke-linecap="butt"/><path d="M181.95972,33.57918l-4.93585,-24.78537l26.86434,-6.38052l4.93585,24.78537z" fill="#e1e2db" stroke="#3a2f41" stroke-width="2" stroke-linecap="butt"/><path d="M212.67109,29.86533l-3.79357,-2.90314" fill="none" stroke="#3a2f41" stroke-width="2" stroke-linecap="round"/><path d="M188.71578,26.15134c0,0 -0.71625,-16.73112 0.84277,-17.0678c1.8134,-0.39161 9.3903,14.39041 9.3903,14.39041" fill="none" stroke="#8c9ca0" stroke-width="2.5" stroke-linecap="round"/></g></g><path d="M194.50071,17.41972l-5.60995,1.86998" fill="none" stroke="#8c9ca0" stroke-width="2.5" stroke-linecap="round"/></g><g data-paper-data="{&quot;index&quot;:null}" fill="#3a2f41"><path d="M288.5494,51.41223c-5.09278,29.01108 -22.28177,36.48237 -22.28177,36.48237c0,0 7.10958,-25.64564 6.50405,-42.48437" stroke="#b8c1c0" stroke-width="2" stroke-linecap="round"/><path d="M279.71612,72.08968c-2.31724,3.09942 10.06907,-31.01705 10.58146,-30.95653c0.65198,0.07701 0.81422,5.03888 0.36239,11.08265c-0.45183,6.04377 -8.63693,20.90007 -8.35476,20.15731c2.5172,-6.62598 5.54193,-14.3924 5.99376,-20.43618c0.09673,-1.29386 -3.33974,13.13987 -8.58285,20.15275z" stroke="none" stroke-width="0" stroke-linecap="butt"/></g><path d="M271.25408,11.06948c10.0333,9.86883 14.5503,30.57016 10.98073,34.19924c-0.96511,0.9812 -5.06612,7.17314 -5.37502,4.91027c-0.51609,-3.78077 -3.50735,-4.47041 -5.75249,-5.2851c-18.57974,-0.58964 -28.7513,-6.74767 -33.94704,-11.85823c-10.0333,-9.86883 5.17114,-19.87605 8.74072,-23.50511c3.56957,-3.62906 15.3198,-8.32989 25.35309,1.53896z" data-paper-data="{&quot;index&quot;:null}" fill="#3a2f41" stroke="none" stroke-width="0" stroke-linecap="butt"/><path d="M264.69284,42.11361c0,0 -5.83518,0.11971 -11.61128,-1.82118c-6.33043,-2.12717 -9.64729,-5.12025 -9.64729,-5.12025c0,0 4.42355,2.8975 10.22175,4.623c5.02196,1.49448 11.03683,2.31845 11.03683,2.31845z" fill="#cedee0" stroke="none" stroke-width="0" stroke-linecap="butt"/><g><path d="M228.85658,27.95872v-26.32884l4.01099,-4.31248h30.5814v27.00975l-7.81637,4.31248z" fill="#8c9ca0" stroke="#3a2f41" stroke-width="2" stroke-linecap="butt"/><path d="M232.97597,23.64625v-26.32884h30.35337v26.32884z" fill="#e1e2db" stroke="#3a2f41" stroke-width="2" stroke-linecap="butt"/><path d="M229.39861,27.27779l3.46895,-3.85853" fill="none" stroke="#3a2f41" stroke-width="2" stroke-linecap="round"/><path d="M243.27442,2.13595c0,0 7.54683,-1.08183 8.06665,3.33767c0.57906,4.92323 -7.57776,4.52549 -7.57776,4.52549c0,0 11.53684,-1.59401 10.99997,3.87001c-0.53687,5.46401 -10.99997,3.59358 -10.99997,3.59358z" fill="none" stroke="#8c9ca0" stroke-width="2.5" stroke-linecap="round"/></g><g><path d="M269.42035,32.18946l3.99109,-24.95492l4.2331,-3.37972l27.29074,5.39602l-4.09431,25.60031l-7.62901,2.70826z" fill="#8c9ca0" stroke="#3a2f41" stroke-width="2" stroke-linecap="butt"/><path d="M273.75016,28.82884l3.99109,-24.95492l27.08726,5.35579l-3.99109,24.95492z" fill="#e1e2db" stroke="#3a2f41" stroke-width="2" stroke-linecap="butt"/><path d="M273.68791,28.59461l-3.68059,3.0451" fill="none" stroke="#3a2f41" stroke-width="2" stroke-linecap="round"/><path d="M292.31748,23.46024c-1.78723,4.93782 -9.10798,3.82182 -8.11014,-4.00447c1.93465,-15.17385 10.76074,-9.21658 9.61143,-4.36735" fill="none" stroke="#8c9ca0" stroke-width="2.5" stroke-linecap="round"/></g><g stroke="#3a2f41" stroke-linecap="butt"><path d="M209.58144,55.49356c0,0 5.39561,-3.84313 14.55137,-3.78883c9.70056,0.05753 15.31611,6.70252 15.31611,6.70252l-29.86747,-2.91369z" fill="#e1e2db" stroke-width="1"/><g fill="#3a2f41" stroke-width="0.5"><path d="M229.81757,56.98826l-0.09792,-4.48512l3.12049,1.63252l0.34908,3.34922z"/></g></g></g><path d="M261.19248,78.06046l3.83333,-15.16667l3.33333,0.16667l-5,14.66667z" fill="#3a2f41" stroke="none" stroke-width="0" stroke-linecap="butt"/></g><g data-paper-data="{&quot;index&quot;:null}"><g fill="#3a2f41" stroke-opacity="0.18788" stroke="#ffffff" stroke-width="0.5"><path d="M309.76909,341.16335l-51.18455,8.54136l46.10875,-34.33814z" stroke-linecap="round"/><path d="M316.46317,349.19229l-47.09939,21.78209l35.37782,-45.31594z" stroke-linecap="round"/><path d="M287.37333,140.61904c0,0 19.44421,59.66548 32.87128,126.53503c3.87781,19.31227 7.34253,61.82168 7.34253,61.82168l-9.26436,18.55933c-0.10221,-2.59557 -5.24907,-40.4939 -3.02735,-24.36045c2.22171,16.13346 3.5643,28.2596 3.5643,28.2596l-32.42756,35.65837l10.08603,-41.37446l-14.28146,-40.20808l-15.96281,3.12115l-16.42205,26.64065l3.85227,-47.35116c0,0 29.37947,-13.00923 29.53343,-17.64992c1.61406,-48.65224 -16.12998,-123.68656 -16.12998,-123.68656z" stroke-linecap="butt"/></g><g fill="#8c9ca0" stroke="#3a2f41" stroke-width="2" stroke-linecap="round"><path d="M257.53287,99.86681c0,0 19.38332,7.92601 20.5462,11.38636c5.37294,15.98802 17.93739,34.40531 17.93739,34.40531c0,0 -5.6204,7.22168 -14.35609,9.90144c-8.73569,2.67976 -22.89334,1.52521 -22.89334,1.52521c0,0 0.9491,-14.44837 0.66595,-21.87458c-0.29381,-7.70573 -1.64802,-18.05224 -1.64802,-18.05224"/></g></g><path d="M310.28274,321.78005c0.15091,9.15746 -28.65598,17.41129 -64.34196,18.43546c-35.68599,1.02417 -68.73752,-5.23582 -68.88841,-14.39326c-0.15091,-9.15746 20.32265,-30.41129 56.00863,-31.43546c2.93504,-0.08423 15.02162,-18.40898 17.85452,-20.71516c3.90865,-3.18191 10.84519,22.07668 14.50327,22.27688c6.62806,0.36272 4.10457,-35.89605 9.60965,-33.91338c16.02883,5.77283 35.16397,54.26269 35.2543,59.74493z" fill="#3a2f41" stroke="none" stroke-width="0" stroke-linecap="butt"/><g><g><path d="M249.15295,386.42262c0,0 -0.87769,-70.60398 1.25874,-102.30237c2.31051,-34.28137 34.93968,-3.44243 34.93968,-3.44243l-4.65785,103.69183z" fill="#e1e2db" stroke="#3a2f41" stroke-width="2" stroke-linecap="butt"/><path d="M281.80235,334.25187c0,0 -13.39719,8.87582 -32.98171,-1.14788" fill="none" stroke="#3a2f41" stroke-width="2" stroke-linecap="round"/><path d="M250.41168,284.12018c2.31051,-34.28137 36.06155,-28.41725 36.06155,-28.41725l-2.37894,52.95928c-11.44356,-0.51405 -23.19476,-1.04191 -34.63831,-1.55596c0.21754,-8.64341 0.52553,-16.60343 0.9557,-22.98607z" fill="#8c9ca0" stroke="none" stroke-width="0" stroke-linecap="butt"/><path d="M284.99773,288.54854l-4.3043,95.82103l-31.54056,2.05298c0,0 -0.77165,-62.07431 0.89333,-95.94614" fill="none" stroke="#3a2f41" stroke-width="2" stroke-linecap="butt"/></g><g><path d="M247.9846,449.51708l0.80991,-84.88249l26.18493,15.17101c0,0 5.7032,-8.84775 5.85406,-7.89259c6.14884,38.93048 32.37374,81.53491 32.37374,81.53491l-48.91739,-3.00883c0,0 -6.76698,-18.55533 -7.76199,-18.61653c-0.99547,-0.06123 -2.20547,18.06973 -2.20547,18.06973z" fill="#3a2f41" stroke="none" stroke-width="0" stroke-linecap="butt"/><path d="M281.86627,378.63277l-5.05088,8.44852l-27.37346,-14.5764" fill="none" stroke="#8c9ca0" stroke-width="1.5" stroke-linecap="round"/><path d="M247.9846,449.51708l0.80991,-84.88249l26.18493,15.17101c0,0 5.7032,-8.84775 5.85406,-7.89259c6.14884,38.93048 32.37374,81.53491 32.37374,81.53491l-48.91739,-3.00883c0,0 -6.76698,-18.55533 -7.76199,-18.61653c-0.99547,-0.06123 -2.20547,18.06973 -2.20547,18.06973z" fill="none" stroke="#3a2f41" stroke-width="2" stroke-linecap="butt"/></g></g><g data-paper-data="{&quot;index&quot;:null}"><g><path d="M203.04451,382.38314l4.65785,-103.69183c0,0 35.26275,-27.78922 34.49031,6.56124c-0.71424,31.76228 -7.9187,102.00321 -7.9187,102.00321z" fill="#e1e2db" stroke="#3a2f41" stroke-width="2" stroke-linecap="butt"/><path d="M239.38544,334.18167c-20.40437,8.22739 -32.9518,-1.81387 -32.9518,-1.81387" fill="none" stroke="#3a2f41" stroke-width="2" stroke-linecap="round"/><path d="M241.08362,308.23168c-11.44355,-0.51405 -23.19475,-1.04191 -34.63831,-1.55596l2.37894,-52.95928c0,0 34.14088,-2.81441 33.36844,31.53605c-0.14382,6.3955 -0.55077,14.35108 -1.10907,22.97918z" fill="#8ea8ab" stroke="none" stroke-width="0" stroke-linecap="butt"/><path d="M241.98673,291.61588c-1.37865,33.88469 -7.71274,95.63981 -7.71274,95.63981l-31.22946,-4.87262l3.99017,-88.82809" fill="none" stroke="#3a2f41" stroke-width="2" stroke-linecap="butt"/></g><g><path d="M223.12887,451.24382c0,0 0.49902,-19.91467 -0.49793,-19.94293c-0.9965,-0.02826 -9.54572,21.09234 -9.54572,21.09234l-44.20246,14.59176c0,0 25.29733,-59.3092 34.91189,-97.53158c0.23589,-0.93779 5.12283,8.38567 5.12283,8.38567l27.43969,-12.76218l-6.79265,84.3635z" fill="#3a2f41" stroke="none" stroke-width="0" stroke-linecap="butt"/><path d="M235.23397,373.36814l-28.57013,12.0634l-4.27305,-8.86736" fill="none" stroke="#8c9ca0" stroke-width="1.5" stroke-linecap="round"/><path d="M223.16253,450.49458c0,0 0.69268,-18.65471 -0.30428,-18.68298c-0.9965,-0.02826 -9.52329,20.59285 -9.52329,20.59285l-44.19124,14.34201c0,0 25.26367,-58.55996 34.87823,-96.78234c0.23589,-0.93779 5.12283,8.38567 5.12283,8.38567l27.43969,-12.76218l-6.71411,82.61526z" fill="none" stroke="#3a2f41" stroke-width="2" stroke-linecap="butt"/></g></g><g><path d="M266.45285,179.33038c0,0 4.68528,7.16016 9.0566,17.57946c6.3396,15.11082 13.48991,36.70879 17.00244,50.19429c6.22189,23.88743 16.45097,73.39744 16.45097,73.39744l-15.36091,-5.78289c0,0 -11.8565,-26.17215 -17.14685,-42.00008c-0.88177,-2.63812 8.44249,41.81869 8.44249,41.81869c0,0 -9.32123,-0.97334 -14.90685,-1.15242c0.00365,-0.05948 0.00549,-0.11943 0.00549,-0.17983c0,-1.5992 -1.38339,-14.03307 -6.03252,-12.06504c-2.73235,1.15664 0.2413,10.46584 0.2413,12.06504c0,0.02857 0.00042,0.05704 0.00124,0.08542c-0.59217,-0.00059 -1.19043,0.00153 -1.7948,0.00648c-47.15818,0.38562 -84.27987,11.34653 -84.27987,11.34653c0,0 9.13096,-47.64774 14.62882,-71.22977c2.77773,-11.91457 7.04766,-29.59694 11.00069,-44.46182c4.0636,-15.28068 11.44009,-27.58404 11.44009,-27.58404zM253.30315,295.59007c1.5992,0 1.4478,-4.67462 1.4478,-6.27382c0,-1.5992 -0.08991,-5.06732 -1.68911,-5.06732c-1.5992,0 -2.17171,3.22682 -2.17171,4.82602c0,1.5992 0.81381,6.51512 2.41301,6.51512zM273.81371,295.34885c1.5992,0 2.89561,0.87529 2.89561,-0.7239c0,-1.5992 -3.46812,-14.96065 -5.06732,-14.96065c0,0 0.57251,15.68455 2.17171,15.68455z" fill="#e1e2db" stroke="#3a2f41" stroke-width="2" stroke-linecap="butt"/><path d="M186.66937,277.18355c0,0 8.53399,-42.2169 13.5628,-59.40017c4.05578,-13.85846 14.32354,-35.88648 14.32354,-35.88648l50.85114,-2.70261c0,0 6.88721,11.61495 9.56776,16.90733c2.20849,4.36036 5.3754,12.5959 5.3754,12.5959z" fill="#8c9ca0" stroke="none" stroke-width="0" stroke-linecap="butt"/><path d="M263.46306,313.29653c-0.47341,-0.00324 -0.93594,-0.00322 -1.38497,0.00045c-31.5664,0.25813 -84.19656,11.42985 -84.19656,11.42985c0,0 14.5397,-83.44899 25.02331,-117.04348c3.70365,-11.86828 12.29631,-25.98213 12.29631,-25.98213c0,0 3.5269,-0.46152 9.34212,-0.56055c10.98118,-0.18701 40.90955,-1.81023 40.90955,-1.81023c0,0 4.35491,4.67425 9.71207,16.77958c5.96823,13.48612 13.26076,35.5522 18.83035,57.30232c5.8241,22.74405 14.63425,67.08929 14.63425,67.08929l-14.48672,-5.54628c0,0 -17.72645,-43.67838 -17.51466,-41.96435c0.37331,3.02128 7.51656,41.49378 7.51656,41.49378c0,0 -7.40385,-0.62019 -14.33463,-0.96535" fill="none" stroke="#3a2f41" stroke-width="2.5" stroke-linecap="round"/></g><g><path d="M245.148,199.2512l-38.79955,-12.5857l7.38246,-18.21096c0,0 -12.20816,-38.16768 -5.20329,-59.62066c1.53663,-4.70603 14.90852,-13.56821 25.0344,-13.90187c8.0688,-0.2659 16.49643,0.79667 24.02209,4.31345c2.83599,1.32528 8.0633,5.03876 8.0633,5.03876c0,0 16.39467,28.42709 15.90708,29.85181c-2.47762,7.2394 -16.65478,18.49685 -16.65478,18.49685l-1.88838,12.62813l9.88999,15.17198z" fill="#e1e2db" stroke="none" stroke-width="0" stroke-linecap="round"/><path d="M208.46019,109.18367c1.23131,-4.65021 14.60455,-14.15053 23.50379,-14.6363c4.8583,-0.26519 13.98113,0.16072 21.37216,2.70149c7.46263,2.56538 13.17043,7.24712 13.17043,7.24712l14.94075,29.80558l-7.08708,10.00376c0,0 -67.01167,-25.34207 -67.23397,-26.42243c0.16137,-2.94831 0.58276,-5.86237 1.33391,-8.69922z" fill="#8c9ca0" stroke="none" stroke-width="0" stroke-linecap="butt"/><path d="M240.74522,95.93874l14.42866,34.45098l-9.31176,18.74393l-0.77722,7.26004" fill="none" stroke="#3a2f41" stroke-width="1.5" stroke-linecap="round"/><path d="M263.37862,120.81011c1.6703,1.96449 2.02556,4.60471 0.7935,5.89709c-1.23208,1.29238 -3.58492,0.74752 -5.25522,-1.21696c-1.6703,-1.96449 -2.02556,-4.60471 -0.7935,-5.89709c1.23208,-1.29238 3.58492,-0.74752 5.25522,1.21696z" fill="none" stroke="#3a2f41" stroke-width="1.5" stroke-linecap="butt"/><path d="M245.14799,199.2512l-38.79955,-12.5857l7.38246,-18.21096c0,0 -12.20816,-38.16768 -5.20329,-59.62066c1.53663,-4.70603 14.90852,-13.56821 25.0344,-13.90187c8.0688,-0.2659 16.49643,0.79667 24.02209,4.31345c2.83599,1.32528 8.0633,5.03876 8.0633,5.03876c0,0 16.39467,28.42709 15.90708,29.85181c-2.47762,7.2394 -16.65478,18.49685 -16.65478,18.49685l-1.88838,12.62813l9.88999,15.17198z" fill="none" stroke="#3a2f41" stroke-width="2" stroke-linecap="round"/></g><g stroke-linecap="butt"><path d="M237.93548,113.61805l-11.86091,-16.09239l1.7589,-3.98383c0,0 11.6006,-5.53737 13.24537,-5.60647c1.68126,-0.07063 14.55857,6.02047 14.55857,6.02047l1.71257,4.21128l-2.23925,14.11606l-10.46427,-7.84362z" fill="#8c9ca0" stroke="#3a2f41" stroke-width="1.5"/><path d="M243.9166,102.20752l-13.58379,-7.95197l10.75183,-4.58445l11.74264,4.8757z" fill="#3a2f41" stroke="none" stroke-width="0"/></g><g><g fill="#3a2f41" stroke-width="0.5"><path d="M163.25487,315.23409l33.14898,52.09065l-38.93085,-26.4429z" stroke="none" stroke-linecap="round"/><path d="M162.92414,325.52076l27.6208,53.26982l-39.98384,-30.06652z" stroke="none" stroke-linecap="round"/><path d="M205.45861,147.54687c0,0 -19.79666,74.51907 -19.51846,123.19728c0.02653,4.64317 29.0379,18.45381 29.0379,18.45381l2.55127,47.43905l-15.68472,-27.08132l-15.87114,-3.55807l-15.3796,39.80098l8.94671,41.63568l-31.43671,-36.53491c0,0 1.67488,-12.08474 4.33854,-28.15113c2.66366,-16.06641 -3.52137,21.6764 -3.69478,24.26819l-8.75151,-18.8066c0,0 4.63009,-42.39831 9.03645,-61.59688c15.25725,-66.47586 36.33163,-125.58522 36.33163,-125.58522z" stroke-opacity="0.15323" stroke="#ffffff" stroke-linecap="butt"/></g><g stroke-linecap="round"><path d="M215.58534,118.38789c0,0 -1.63766,10.30545 -2.14284,18.00021c-0.48685,7.41564 0.06535,21.88462 0.06535,21.88462c0,0 -14.184,0.76556 -22.84286,-2.15294c-8.65885,-2.9185 -14.07894,-10.29171 -14.07894,-10.29171c0,0 13.06518,-18.06552 18.87488,-33.90006c1.25741,-3.42713 20.85096,-10.81818 20.85096,-10.81818" fill="#e1e2db" stroke="none" stroke-width="0"/><path d="M218.62537,116.97079l-3.68786,4.0536l-19.72648,-9.10325c0,0 4.06918,-2.93035 7.2137,-4.56184c3.71141,-1.92561 14.88679,-6.22204 14.88679,-6.22204" fill="#8c9ca0" stroke="none" stroke-width="0"/><path d="M215.58534,118.38789c0,0 -1.63766,10.30545 -2.14284,18.00021c-0.48685,7.41564 0.06535,21.88462 0.06535,21.88462c0,0 -14.184,0.76556 -22.84286,-2.15294c-8.65885,-2.9185 -14.07894,-10.29171 -14.07894,-10.29171c0,0 13.06518,-18.06552 18.87488,-33.90006c1.25741,-3.42713 23.14814,-12.50577 23.14814,-12.50577" fill="none" stroke="#3a2f41" stroke-width="2"/></g></g></g></g></svg>