<svg xmlns="http://www.w3.org/2000/svg" xmlns:xlink="http://www.w3.org/1999/xlink" version="1.1" width="530.8249450431413" height="376.1423888907975" viewBox="5.334266865941572 -3.4503333099755764 530.8249450431413 376.1423888907975">
  <defs>
    <radialGradient id="grad_1" cx="0.5" cy="0.5138" r="0.66794">
      <stop offset="0" stop-color="#F66C98" stop-opacity="1"/>
      <stop offset="1" stop-color="#9A2E38" stop-opacity="1"/>
    </radialGradient>
  <radialGradient id="grad_1-.579521417617798,0,0,3.417410135269165,-339.25,-830.35" cx="290.1532" cy="189.7141" r="310.0314" gradientUnits="userSpaceOnUse">
      <stop offset="0" stop-color="#F66C98" stop-opacity="1"/>
      <stop offset="1" stop-color="#9A2E38" stop-opacity="1"/>
    </radialGradient></defs>
  <!-- Exported by Scratch - http://scratch.mit.edu/ -->
  <path id="ID0.9129331279546022" fill="url(#grad_1-.579521417617798,0,0,3.417410135269165,-339.25,-830.35)" stroke="none" d="M 47.6782 0.0807 L 532.6282 0.0807 L 532.6282 369.161 L 47.6782 369.161 L 47.6782 0.0807 Z " stroke-width="3.027591681236866"/>
  <g id="ID0.901408904697746">
    <path id="ID0.7797387707978487" fill="#D33445" stroke="#D33445" stroke-width="7.06206662517252" stroke-linecap="round" d="M 8.8653 107.8394 L 50.355 70.7636 L 78.6032 84.8877 L 95.3756 83.1222 L 145.6929 94.5981 L 122.7411 113.136 L 139.5136 132.5567 L 153.6377 110.4877 L 177.4722 133.4394 L 159.817 140.5015 L 124.5067 176.6946 L 92.7274 179.3429 L 131.5687 204.9429 L 203.9549 233.1911 L 196.8928 255.2601 L 169.5273 280.8601 L 166.8791 315.2876 L 149.2239 290.5704 L 145.6929 250.8463 L 124.5067 228.7773 L 129.8032 212.0049 L 81.2515 192.5842 L 52.1205 160.8049 L 56.5343 130.7912 L 46.8239 109.605 L 8.8653 107.8394 Z "/>
    <path id="ID0.5276037878356874" fill="#D33445" stroke="#D33445" stroke-width="7.06206662517252" stroke-linecap="round" d="M 196.8928 84.005 L 188.948 63.7015 L 217.1963 47.8119 L 245.4446 55.7567 L 228.6721 99.0119 L 197.7756 111.3705 L 196.8928 84.005 Z "/>
    <path id="ID0.22614181134849787" fill="#D33445" stroke="#D33445" stroke-width="7.06206662517252" stroke-linecap="round" d="M 288.6997 152.8601 L 256.9204 155.5084 L 311.6514 120.1981 L 301.0583 107.8394 L 277.2239 121.9636 L 294.879 95.4808 L 322.2445 103.4256 L 356.6721 91.067 L 373.4445 63.7015 L 394.6307 71.6463 L 484.6721 70.7636 L 486.4376 98.1291 L 464.3686 114.0187 L 476.7272 133.4394 L 452.01 156.3911 L 457.3066 180.2256 L 436.1204 191.7015 L 463.4859 227.8946 L 421.1135 190.8187 L 405.2238 190.8187 L 391.9824 204.9429 L 382.2721 185.5222 L 363.7342 181.9911 L 342.548 198.7635 L 324.8928 166.9842 L 288.6997 152.8601 Z "/>
    <path id="ID0.9972305246628821" fill="#D33445" stroke="#D33445" stroke-width="7.06206662517252" stroke-linecap="round" d="M 447.5962 258.7911 L 445.8307 256.1428 L 479.3755 238.4877 L 488.3796 243.6077 L 495.9714 257.2021 L 486.4376 275.5635 L 467.0169 264.0877 L 451.1272 271.1497 Z "/>
    <path id="ID0.4784054202027619" fill="#D33445" stroke="#D33445" stroke-width="7.06206662517252" stroke-linecap="round" d="M 251.6239 212.8877 L 240.148 197.8808 L 265.748 166.9842 L 294.879 175.8118 L 322.2445 176.6946 L 332.8376 199.6463 L 351.3756 206.7084 L 333.7204 227.0118 L 312.5342 270.267 L 298.4101 270.267 L 286.9342 247.3153 L 286.0514 219.067 L 251.6239 212.8877 Z "/>
    <path id="ID0.1744393603876233" fill="none" stroke="#D33445" stroke-width="7.06206662517252" stroke-linecap="round" d="M 337.2514 257.0256 L 345.1962 242.0187 "/>
    <path id="ID0.20900010224431753" fill="none" stroke="#D33445" stroke-width="7.06206662517252" stroke-linecap="round" d="M 110.3825 82.2394 L 107.7343 68.9981 Z "/>
    <path id="ID0.7906406973488629" fill="#D33445" stroke="#D33445" stroke-width="7.06206662517252" stroke-linecap="round" d="M 149.2239 93.7153 L 106.8515 81.7098 L 107.7343 68.1153 L 137.748 54.8739 L 158.9342 64.5843 L 196.0101 42.5153 L 165.9963 80.4739 L 177.4722 100.7774 L 161.5825 111.3705 L 158.0515 91.067 L 149.2239 93.7153 Z "/>
  </g>
</svg>