<svg version="1.1" xmlns="http://www.w3.org/2000/svg" xmlns:xlink="http://www.w3.org/1999/xlink" width="283.04103" height="457.31362" viewBox="0,0,283.04103,457.31362"><g transform="translate(-98.47949,44.65681)"><g data-paper-data="{&quot;isPaintingLayer&quot;:true}" fill-rule="nonzero" stroke-linejoin="miter" stroke-miterlimit="10" stroke-dasharray="" stroke-dashoffset="0" style="mix-blend-mode: normal"><g><path d="M173.08674,8.78982l4.39315,-12.50759l6.20706,1.51444l-4.98343,12.57388z" fill="#bab69e" stroke="none" stroke-width="0" stroke-linecap="butt"/><path d="M167.71751,16.86435l4.64634,-9.18879l6.42993,1.36987l-4.39634,9.81821z" fill="#a2ada6" stroke="none" stroke-width="0" stroke-linecap="butt"/><path d="M160.97206,25.99005l6.45631,-9.5714l7.89961,1.68299l-7.39884,11.29109z" fill="#88a2b4" stroke="none" stroke-width="0" stroke-linecap="butt"/><path d="M153.42546,34.36889l8.52827,-10.28227l7.96591,2.27326l-6.08889,9.64967z" fill="#7b90c0" stroke="none" stroke-width="0" stroke-linecap="butt"/><path d="M146.16433,42.30923l8.43017,-8.92041l8.66163,2.61353l-6.39736,8.39323z" fill="#b891c0" stroke="#b891c0" stroke-width="0.5" stroke-linecap="butt"/><path d="M182.73424,1.71014c-9.6852,25.14181 -25.33179,42.86546 -25.33179,42.86546l-11.81624,-1.64357c0,0 24.45745,-24.81177 33.04297,-49.08709" fill="none" stroke="#3a2f41" stroke-width="2" stroke-linecap="round"/></g><path d="M209.35751,-14.76277c0,0 23.36485,62.60455 25.07479,97.60535c0.76661,15.69172 -14.2717,19.70952 -17.92188,20.63968c-8.91848,2.27267 -20.21807,5.52439 -27.66908,9.18357c-6.07162,2.98176 -9.25174,6.68206 -9.25174,6.68206c0,0 -0.67104,-6.39023 -0.13642,-9.20876c0.99758,-5.25925 2.70511,-7.97905 2.70511,-7.97905c0,0 -5.41878,-0.08041 -13.08182,-5.97114c-10.41923,-8.00947 -11.5744,-14.45398 -11.5744,-14.45398c0,0 24.73627,-5.02564 24.50205,-7.99977c-1.32732,-16.8546 -25.41728,-67.06305 -26.49395,-69.36949c-1.78402,-3.8216 36.15822,-48.07147 36.99116,-48.02247c2.49879,0.14698 19.30602,3.41606 19.30602,3.41606l-2.4498,25.47793z" fill="#3a2f41" stroke="#3a2f41" stroke-width="2" stroke-linecap="butt"/><path d="M195.30933,-5.59009l-3.89291,-6.81451l15.89692,-26.25777l21.80322,0.73494l4.40964,13.71888z" fill="#b39194" stroke="#3a2f41" stroke-width="2" stroke-linecap="butt"/><path d="M271.74609,32.65941c0,14.90017 -7.58294,25.13075 -32.87442,25.64979c-13.3495,0.27397 -27.33525,-3.66538 -32.72903,-9.28132c-4.6917,-4.88494 -3.1454,-9.437 -3.1454,-16.36846c0,-21.08782 18.22651,-33.60536 39.30578,-33.00494c18.97583,0.54051 29.44307,18.10475 29.44307,33.00493z" fill="#e1e2db" stroke="#3a2f41" stroke-width="1.5" stroke-linecap="butt"/><path d="M189.56677,55.84749c-1.61041,-0.63616 -0.06468,-36.00179 1.33334,-42c1.39802,-5.99822 7.89694,-7.82642 11.2396,-6.12676c3.20729,1.63083 4.42706,17.79343 4.42706,17.79343l7.00001,44c0,0 -13.44959,-9.49897 -24,-13.66666z" fill="#3a2f41" stroke="#8c9ca0" stroke-width="1.5" stroke-linecap="butt"/><g><path d="M178.43203,19.98594l3.20481,-17.14859l8.32931,0.24498l-2.93977,17.39356z" fill="#bab69e" stroke="none" stroke-width="0" stroke-linecap="butt"/><path d="M174.77738,31.74497l3.42971,-12.98394h8.5743l-2.93975,13.71887z" fill="#a2ada6" stroke="none" stroke-width="0" stroke-linecap="butt"/><path d="M168.65292,45.21888l5.63453,-13.96386h10.53412l-6.36948,16.41366z" fill="#88a2b4" stroke="none" stroke-width="0" stroke-linecap="butt"/><path d="M161.3035,57.95783l8.08435,-15.43373l10.7791,0.73494l-5.14458,13.96386z" fill="#7b90c0" stroke="none" stroke-width="0" stroke-linecap="butt"/><path d="M154.19908,70.05983l8.32932,-13.66988l11.75905,0.97992l-5.87952,12.44498z" fill="#b891c0" stroke="#b891c0" stroke-width="0.5" stroke-linecap="butt"/><path d="M189.81441,8.33326c-5.52187,34.70299 -20.66406,61.56345 -20.66406,61.56345l-15.51947,1.11466c0,0 24.45506,-38.29654 28.80963,-71.59538" fill="none" stroke="#3a2f41" stroke-width="2" stroke-linecap="round"/></g><path d="M231.56676,38.18081c0,0 3.41762,-23.37751 -0.66666,-31.99999c-2.33956,-4.93915 17,0 17,0c0,0 4.00857,5.88487 2.33334,10.66666c-5.03645,17.61877 -18.66667,21.33333 -18.66667,21.33333z" fill="#3a2f41" stroke="#3a2f41" stroke-width="1.5" stroke-linecap="butt"/><g><path d="M272.35238,-2.91524l-77.38227,21.28155l-17.19175,-17.18603l14.7239,-28.87707l24.01567,4.58193l33.68232,-16.97309l22.75381,24.70161z" fill="#8d676c" stroke="none" stroke-width="0.5" stroke-linecap="butt"/><path d="M204.87814,-14.76025c-2.36773,0 -12.51847,-8.43589 -12.51847,-10.80361c0,-2.36772 22.61903,2.8767 24.98675,2.8767c2.36773,0 11.71124,-5.5874 11.71124,-3.21967c0,2.36773 -21.81179,11.14659 -24.17952,11.14659z" fill="#574a55" stroke="none" stroke-width="0.5" stroke-linecap="butt"/><path d="M195.94723,19.22489l-17.83454,-17.83454l14.3992,-28.61124l25.53012,4.69559l33.17751,-17.73413l22.23935,24.5012l-0.68594,12.68996z" fill="none" stroke="#3a2f41" stroke-width="2" stroke-linecap="round"/></g><path d="M276.45453,-9.15939c0.37015,1.41122 2.86938,5.17958 4.64753,5.44971c2.84836,0.43271 7.97559,-0.46304 11.43138,-1.99285c1.22967,15.74162 -6.92066,19.35218 -6.92066,19.35218c0,0 1.83526,0.85899 3.35757,4.44111c1.92184,4.52222 0.18243,9.75945 -0.3308,9.40472c-10.84409,-7.49516 -40.74227,-11.78134 -42.27279,-11.78134c-10.6775,0 -33.25783,-9.61031 -31.2,-14.93333c2.99561,-7.74875 8.02826,-14.67404 21.54719,-16.26772c18.07152,-2.13036 37.73413,-1.32214 39.74057,6.32752z" fill="#3a2f41" stroke="#3a2f41" stroke-width="1.5" stroke-linecap="butt"/><g stroke-linecap="butt"><g><path d="M277.23979,62.06912c-0.96385,-17.90669 -1.92503,-35.81372 -2.98501,-53.71362l6.19368,-6.24381l3.59958,63.33528z" fill="#e1e2db" stroke="none" stroke-width="0"/><path d="M264.77745,22.18287l15.20088,-19.28873l1.4772,29.90834z" fill="#8c9ca0" stroke="none" stroke-width="0"/><path d="M275.46056,29.38519c-0.39085,-7.0107 -0.79075,-14.02074 -1.2058,-21.02969l6.19368,-6.24381l3.59958,63.33528l-6.80825,-3.37786c-0.33786,-6.27684 -0.67539,-12.55372 -1.01696,-18.83033" fill="none" stroke="#3a2f41" stroke-width="2"/></g><g><path d="M268.56012,62.75365c-0.92429,-17.90903 -1.8439,-35.81853 -2.93523,-53.71657l11.00633,-6.52886l3.59958,63.33528z" fill="#e1e2db" stroke="none" stroke-width="0"/><path d="M253.77549,15.61962l22.00741,-12.30655l1.52529,26.83774z" fill="#8c9ca0" stroke="none" stroke-width="0"/><path d="M266.83847,30.0663c-0.38525,-7.01102 -0.78625,-14.02099 -1.21358,-21.02922l11.00633,-6.52886l3.59958,63.33528l-11.67069,-3.08985c-0.32399,-6.27767 -0.6474,-12.55538 -0.97784,-18.83265" fill="none" stroke="#3a2f41" stroke-width="2"/></g><path d="M247.14307,59.40174l-2.07346,-41.23871l27.45479,-16.28594l3.70703,65.22588z" fill="#96af96" stroke="none" stroke-width="0"/><path d="M250.91798,14.40529l21.35398,-11.49066l1.40461,24.71449z" fill="#677479" stroke="none" stroke-width="0"/><path d="M247.14307,59.40174l-2.07346,-41.23871l27.45479,-16.28594l3.70703,65.22588z" fill="none" stroke="#3a2f41" stroke-width="2"/><path d="M249.27755,26.35731l-0.66204,-6.77803l19.59932,-10.70501l1.13914,20.04337z" fill="none" stroke="#3a2f41" stroke-width="1.5"/><path d="M249.27755,26.3573l-0.66204,-6.77802l19.59932,-10.70501l1.13914,20.04337z" fill="#e1e2db" stroke="none" stroke-width="0"/><path d="M254.48608,16.3728l13.72875,-7.49854l0.92675,16.30647z" fill="#8c9ca0" stroke="none" stroke-width="0"/><path d="M249.27757,26.3573l-0.66204,-6.77802l19.59931,-10.70501l1.13914,20.04337z" fill="none" stroke="#3a2f41" stroke-width="1.5"/></g><path d="M208.18351,6.63172c1.67658,-2.6347 2.09416,-7.1302 4.35645,-8.84735c6.77537,-10.95299 15.60871,-14.98841 15.60871,-14.98841c0,0 -8.36304,15.66162 -8.22174,24.28128c0.13427,8.19112 -16.39424,12.22124 -18.34204,9.65508c-1.27253,-1.67649 3.43923,-5.1357 6.59863,-10.10059z" fill="#3a2f41" stroke="#3a2f41" stroke-width="1.5" stroke-linecap="butt"/><path d="M195.37431,18.67358c3.23066,-3.5754 14.17319,-11.14048 18.79801,-13.72494c11.00825,-6.15167 21.82505,-7.7514 24.15999,-3.57308c2.33495,4.17832 -4.0295,19.2191 -15.03776,25.37077c-11.00825,6.15167 -24.49171,12.08473 -26.82666,7.90641c-1.35399,-2.4229 -5.55272,-11.0442 -1.09359,-15.97916z" fill="#3a2f41" stroke="#3a2f41" stroke-width="1.5" stroke-linecap="butt"/><path d="M205.19426,19.525c-2.74614,-0.4287 -14.20439,2.66508 -11.62108,0.27909c0.41105,-0.37966 4.75146,-3.82211 5.75002,-4.33944c12.3212,-12.96567 13.91782,-28.26383 13.91782,-28.26383c0,0 2.55348,9.79291 1.56673,16.11376c-1.26359,8.09419 -6.43037,16.70734 -9.61348,16.21042z" data-paper-data="{&quot;index&quot;:null}" fill="#3a2f41" stroke="#3a2f41" stroke-width="1.5" stroke-linecap="butt"/><path d="M236.15778,38.19072c0,0 -5.14454,4.18371 -16.13839,2.85556c-10.41614,-1.16695 -14.19494,-9.0601 -14.19494,-9.0601c0,0 6.21227,-8.35565 16.54545,-7.58333c10.33318,0.77232 13.78788,13.78787 13.78788,13.78787z" fill="#e1e2db" stroke="#3a2f41" stroke-width="1.5" stroke-linecap="butt"/><path d="M223.7674,24.75529c1.71109,0 4.60334,1.36253 6.54673,3.17207c2.27623,2.11947 3.48482,4.73515 3.48482,4.73515c0,0 1.50831,5.14754 -0.44746,7.36291c-0.90482,1.02492 -8.61028,1.37676 -10.76428,1.37676c-3.71524,0 -5.50251,-3.52874 -5.07479,-8.26759c0.47207,-5.23019 2.53972,-8.3793 6.25497,-8.3793z" fill="#3a2f41" stroke="#3a2f41" stroke-width="0" stroke-linecap="butt"/><path d="M244.57444,55.31362c-4.87566,0.64974 -7.93333,-2.33333 -7.93333,-2.33333" fill="none" stroke="#3a2f41" stroke-width="1.5" stroke-linecap="round"/><g data-paper-data="{&quot;index&quot;:null}" stroke-linecap="butt"><path d="M361.47076,239.34036l-24.82887,-26.99559l15.29791,-3.22973z" fill="#8c9ca0" stroke="#3a2f41" stroke-width="2"/><path d="M267.94197,136.78024c-5.8964,-29.44404 -11.95453,-59.15111 -4.42945,-61.82526c1.5693,-0.55767 9.67182,5.72996 9.67182,5.72996l5.17822,14.75715c0,0 47.64415,63.13085 49.52843,71.83536c0.86016,3.97355 -7.76056,26.05343 -10.96663,29.07719c-3.0578,2.88394 -29.16802,4.15963 -34.6149,2.58473c-1.45557,-0.42086 -8.20994,-31.41094 -14.3675,-62.15912z" fill="#3a2f41" stroke="none" stroke-width="0"/><path d="M291.91879,183.945c0,0 5.76011,-8.20186 9.40528,-10.03419c4.07436,-2.04808 13.89694,-1.67921 13.89694,-1.67921l12.72042,10.45107l-3.4228,18.04778l-15.68866,9.09554l-16.18682,-6.20637z" fill="#e1e2db" stroke="#3a2f41" stroke-width="2"/><path d="M322.67551,183.12839l13.66532,14.27898l9.65712,2.864l9.68299,15.84614l-23.6395,-10.8246l44.45246,19.9615l-61.04184,-1.94916l-25.04962,18.8187l8.35434,-26.00747l-0.26152,-14.61775l10.30748,-16.1214z" fill="#e1e2db" stroke="#3a2f41" stroke-width="2"/></g><g><path d="M277.3343,155.94928l-24.54051,28.04752c0,0 -4.0247,-0.10949 -5.73766,-0.15609c-1.38923,-0.03779 -3.77383,-0.10267 -3.77383,-0.10267l-34.18848,-26.50597l10.48012,-25.80249c0,0 -17.83401,-28.27265 -10.41709,-48.64005c1.44981,-3.98126 19.55276,-12.64391 28.13771,-12.60626c11.6089,0.05091 28.86663,6.36384 28.86663,6.36384c0,0 2.65085,9.9682 2.63933,16.01323c-0.01978,10.38327 -2.7473,40.66054 -2.7473,40.66054z" fill="#3a2f41" stroke="#8c9ca0" stroke-width="1" stroke-linecap="round"/><g stroke-width="1"><g fill="none" stroke="none" stroke-linecap="butt" font-family="sans-serif" font-weight="normal" font-size="12" text-anchor="start"><g><g/></g></g><g fill="#3a2f41" stroke="#8c9ca0" stroke-linecap="round"><g><g><path d="M265.01979,82.29466l-0.77787,2.53944l15.74065,21.6905l-14.04407,25.63397"/></g></g></g></g><path d="M265.22434,132.55874c-0.71178,4.21827 -5.3681,-0.75894 -3.86816,-4.90781c0.75676,-2.09322 6.06239,-4.72105 8.18667,-4.33931z" fill="#3a2f41" stroke="none" stroke-width="0" stroke-linecap="butt"/><path d="M238.97866,134.15682l-15.66667,-23l17.64756,-41.93332l18.75262,25.68448l12.12028,14.34422l-8.75426,16.00658l-3.7662,9.23138l-9.33333,4.66667z" fill="#e1e2db" stroke="none" stroke-width="0" stroke-linecap="butt"/><path d="M227.35106,101.55936l13.6085,-32.33587l18.75262,25.68448l12.12028,14.34422z" fill="#8c9ca0" stroke="none" stroke-width="0" stroke-linecap="butt"/><g><path d="M256.2729,87.57228l-13.25244,-7.63201c0,0 6.98372,-6.6646 10.00069,-8.90762c0.66064,-0.49117 0.92751,-0.09179 1.10496,-0.02339c0.4353,0.37091 3.16064,5.08093 2.694,5.39524z" data-paper-data="{&quot;index&quot;:null}" fill="#8c9ca0" stroke="#3a2f41" stroke-width="4.5" stroke-linecap="round"/><path d="M231.9177,88.00213c0,0 -6.89485,-8.66352 -7.76532,-11.58446c0.06358,-1.43863 2.09816,-7.62946 3.02998,-5.85925c0.96418,0.50341 16.79795,-3.0079 20.78337,-0.61156c3.34966,2.01407 -4.97335,10.03631 -4.97335,10.03631z" fill="#3a2f41" stroke="#3a2f41" stroke-width="4.5" stroke-linecap="round"/><path d="M226.13804,75.95219c0.03554,-1.38729 0.27159,-4.78803 0.81013,-5.06431c0.99698,-0.95842 10.66879,-5.54936 13.04024,-5.93378c1.50029,-0.2432 12.31016,5.35205 12.88798,5.96884c0.99973,0.50599 2.04214,4.51976 2.04214,5.01727" fill="none" stroke="#3a2f41" stroke-width="6.5" stroke-linecap="butt"/><g><path d="M256.2729,87.23895l-13.25244,-7.29867c0,0 6.98373,-6.6646 10.00069,-8.90762c0.66064,-0.49117 0.92751,-0.09179 1.10496,-0.02339c0.4353,0.37091 3.16064,5.08093 2.694,5.39524z" data-paper-data="{&quot;index&quot;:null}" fill="#8c9ca0" stroke="#12161a" stroke-width="0" stroke-linecap="round"/><path d="M231.91772,87.6688c0,0 -6.89485,-8.33019 -7.76533,-11.25113c0.06358,-1.43863 2.09816,-7.62946 3.02998,-5.85926c1.77455,0.92652 15.81001,9.42475 15.81001,9.42475z" fill="#8c9ca0" stroke="#12161a" stroke-width="0" stroke-linecap="round"/><path d="M226.13804,75.95217c0.03554,-1.38729 0.27159,-4.78803 0.81013,-5.06431c0.99698,-0.95842 10.66879,-5.54935 13.04024,-5.93378c1.50029,-0.2432 12.31016,5.35205 12.88798,5.96884c0.99973,0.50599 2.04214,4.51976 2.04214,5.01727" fill="none" stroke="#8c9ca0" stroke-width="2" stroke-linecap="butt"/></g></g><path d="M228.47866,96.49015l35,-1.66667" fill="none" stroke="#3a2f41" stroke-width="1" stroke-linecap="round"/><path d="M221.81199,111.82348l51.33334,-2.33333" fill="none" stroke="#3a2f41" stroke-width="1" stroke-linecap="round"/><path d="M266.14533,126.82347l-37.33334,1.33334" fill="none" stroke="#3a2f41" stroke-width="1" stroke-linecap="round"/></g><g><path d="M209.39533,236.19676l0.5,-77.39325l12.50524,-29.00894l21.99476,29.53903v76.86316z" fill="#3a2f41" stroke="none" stroke-width="0" stroke-linecap="butt"/><path d="M210.39533,297.1572v-66.79144c0,0 12.33749,-7.69574 18.46031,-7.65663c12.97093,0.08286 16.53969,8.18672 16.53969,8.18672l3,119.27042c0,0 -8.60093,18.25441 -20.0882,20.03343c-10.00594,1.54961 -22.805,-13.23797 -26.31608,-14.48995c-2.50274,-0.89243 -3.99988,-23.51658 -3.99988,-23.51658z" fill="#e1e2db" stroke="none" stroke-width="0" stroke-linecap="butt"/><path d="M248.97447,339.00365l5.50419,72.65316h-50.5l-5.99149,-65.15828l33.40281,11.05318z" fill="#3a2f41" stroke="none" stroke-width="0" stroke-linecap="round"/><path d="M210.39532,230.36576c0,0 12.33749,-7.69574 18.46031,-7.65662c12.97093,0.08285 16.53969,8.18671 16.53969,8.18671l1.68817,67.11618c-12.11139,-12.21414 -24.10907,-24.63709 -36.68817,-35.97642z" fill="#8c9ca0" stroke="none" stroke-width="0" stroke-linecap="butt"/><path d="M243.81199,185.66144c0,0 3.1972,111.70378 5.16248,153.34221c1.37463,29.12435 5.50419,72.65316 5.50419,72.65316h-50.5l-7.33333,-78.45343l13.33333,-35.33938l-0.83333,-138.88378l12.25001,-27.74142z" fill="none" stroke="#3a2f41" stroke-width="2" stroke-linecap="round"/><path d="M248.39533,339.56446c0,0 -14.6562,18.68453 -17.5,18.02309c-10.46105,-2.43317 -32,-11.13191 -32,-11.13191" fill="none" stroke="#3a2f41" stroke-width="2" stroke-linecap="round"/><path d="M210.39533,231.42594c17.05468,-16.65591 34,-3.18054 34,-3.18054" fill="none" stroke="#3a2f41" stroke-width="2" stroke-linecap="round"/><path d="M209.89533,242.55785c19.46862,-15.44944 34.5,-2.12036 34.5,-2.12036" fill="none" stroke="#3a2f41" stroke-width="2" stroke-linecap="round"/><path d="M242.42538,364.25081l-8.30272,7.87582l-18.79036,-5.5594l-0.43698,-7.47712l17.51471,6.09288l9.57836,-9.86466z" fill="#62656f" stroke="#3a2f41" stroke-width="2" stroke-linecap="round"/><path d="M244.11031,378.41654l-8.30272,7.87582l-18.79036,-5.5594l-0.43699,-7.47712l17.51471,6.09288l9.57836,-9.86466z" fill="#62656f" stroke="#3a2f41" stroke-width="2" stroke-linecap="round"/><path d="M246.79524,392.11898c0,0 -3.71619,3.52511 -5.22901,4.96015c-1.15987,1.10024 -3.07371,2.91567 -3.07371,2.91567l-18.79036,-5.5594l-0.43699,-7.47712l17.51471,6.09288l9.57836,-9.86466z" fill="#62656f" stroke="#3a2f41" stroke-width="2" stroke-linecap="round"/></g><g data-paper-data="{&quot;index&quot;:null}"><path d="M253.53053,236.28734l-5.71886,-51.61837l16.86248,-48.14417l12.06934,19.0751l11.40686,75.23312z" fill="#3a2f41" stroke="none" stroke-width="0" stroke-linecap="butt"/><path d="M312.74026,324.00954c0,0 1.65589,22.61171 -0.69593,23.88447c-3.29936,1.78554 -13.90914,18.40705 -24.02124,18.43357c-11.60915,0.03044 -22.64758,-16.68533 -22.64758,-16.68533l-13.56908,-118.44239c0,0 2.40642,-8.57198 15.22497,-10.6753c6.05089,-0.99285 19.32136,4.69666 19.32136,4.69666l9.26044,66.06594z" fill="#e1e2db" stroke="none" stroke-width="0" stroke-linecap="butt"/><path d="M283.22012,354.29738l31.5075,-16.13851l3.1076,65.38422l-49.95146,7.86978l-4.62875,-72.72175z" fill="#3a2f41" stroke="none" stroke-width="0" stroke-linecap="round"/><path d="M290.7437,256.54706c-10.87029,13.17646 -21.01524,27.33415 -31.30162,41.30303l-7.63564,-66.65023c0,0 2.40643,-8.57198 15.22497,-10.67529c6.05089,-0.99285 19.32136,4.69665 19.32136,4.69665z" fill="#8c9ca0" stroke="none" stroke-width="0" stroke-linecap="butt"/><path d="M264.66407,135.18468l13.52772,22.94222l17.93156,133.52939l18.0882,32.87768l3.62367,78.74406l-49.95146,7.86978c0,0 -1.95044,-43.69953 -4.62875,-72.72175c-3.82912,-41.49241 -16.15405,-152.48108 -16.15405,-152.48108z" fill="none" stroke="#3a2f41" stroke-width="2" stroke-linecap="round"/><path d="M313.82337,338.25798c0,0 -20.09894,11.96082 -30.109,15.99778c-2.7212,1.09744 -19.80877,-15.10017 -19.80877,-15.10017" fill="none" stroke="#3a2f41" stroke-width="2" stroke-linecap="round"/><path d="M252.4281,228.42235c0,0 14.89293,-15.96971 34.07165,-2.15248" fill="none" stroke="#3a2f41" stroke-width="2" stroke-linecap="round"/><path d="M254.11849,240.482c0,0 13.02007,-15.52675 34.41924,-3.27906" fill="none" stroke="#3a2f41" stroke-width="2" stroke-linecap="round"/><path d="M272.42717,353.7399l10.84203,8.26484l16.4797,-8.75615l0.60444,7.464l-17.81546,8.42725l-9.3045,-6.4964z" fill="#62656f" stroke="#3a2f41" stroke-width="2" stroke-linecap="round"/><path d="M272.7246,368.01434l10.84203,8.26485l16.4797,-8.75615l0.60444,7.46401l-17.81546,8.42725l-9.30449,-6.4964z" fill="#62656f" stroke="#3a2f41" stroke-width="2" stroke-linecap="round"/><path d="M271.96864,381.98635l10.84203,8.26485l16.4797,-8.75615l0.60444,7.464l-17.81546,8.42725c0,0 -2.14476,-1.49745 -3.44458,-2.40499c-1.69535,-1.1837 -5.85992,-4.0914 -5.85992,-4.0914z" fill="#62656f" stroke="#3a2f41" stroke-width="2" stroke-linecap="round"/></g><path d="M230.89532,151.15681h36.5c0,0 1.3188,19.5 -18,19.5c-18.3188,0 -18.5,-19.5 -18.5,-19.5z" fill="#3a2f41" stroke="#8c9ca0" stroke-width="1.5" stroke-linecap="butt"/><g stroke-linecap="butt"><path d="M128.0602,210.11504l15.29791,3.22973l-24.82886,26.99559z" fill="#8c9ca0" stroke="#3a2f41" stroke-width="2"/><path d="M197.69053,199.93937c-5.44688,1.5749 -31.5571,0.2992 -34.61491,-2.58473c-3.20607,-3.02376 -11.82678,-25.10364 -10.96662,-29.07718c1.88428,-8.70451 49.52843,-71.83536 49.52843,-71.83536l5.17823,-14.75715c0,0 8.10253,-6.28763 9.67182,-5.72996c7.52508,2.67416 1.46695,32.38122 -4.42945,61.82526c-6.15757,30.74818 -12.91194,61.73827 -14.3675,62.15913z" fill="#3a2f41" stroke="none" stroke-width="0"/><path d="M187.35683,204.61963l-16.18682,6.20636l-15.68865,-9.09554l-3.4228,-18.04778l12.72043,-10.45107c0,0 9.82257,-0.36887 13.89694,1.67921c3.64516,1.83233 9.40528,10.03419 9.40528,10.03419z" fill="#e1e2db" stroke="#3a2f41" stroke-width="2"/><path d="M171.19726,186.37733l10.30748,16.1214l-0.26152,14.61775l8.35434,26.00748l-25.04962,-18.8187l-61.04184,1.94917l44.45246,-19.9615l-23.63949,10.8246l9.68299,-15.84614l9.65712,-2.864l13.66531,-14.27898z" fill="#e1e2db" stroke="#3a2f41" stroke-width="2"/></g></g></g></svg>