<svg version="1.1" xmlns="http://www.w3.org/2000/svg" xmlns:xlink="http://www.w3.org/1999/xlink" width="155.1961" height="468.86353" viewBox="0,0,155.1961,468.86353"><g transform="translate(-50.41182,-4.06232)"><g data-paper-data="{&quot;isPaintingLayer&quot;:true}" fill-rule="nonzero" stroke-linejoin="miter" stroke-miterlimit="10" stroke-dasharray="" stroke-dashoffset="0" style="mix-blend-mode: normal"><g data-paper-data="{&quot;index&quot;:null}"><g stroke-linecap="butt"><path d="M54.04252,249.67039l28.45196,-49.859l13.39495,7.64382l-28.45195,49.85899z" fill="#e1e2db" stroke="#3a2f41" stroke-width="2"/><path d="M67.02675,227.09335l15.84256,-27.07451l13.43931,7.56366l-15.84256,27.07451z" fill="#8c9ca0" stroke="#3a2f41" stroke-width="2"/><path d="M79.05805,237.31503c-5.5731,-5.43787 -15.81935,-4.59289 -15.81935,-4.59289l4.2525,-7.68401c0,0 7.98947,-2.27982 15.65196,4.01062c0.90169,0.74025 -3.32768,9.00533 -4.08509,8.26629z" fill="#3a2f41" stroke="none" stroke-width="0"/><path d="M87.93788,222.15447c-5.5731,-5.43787 -15.81935,-4.5929 -15.81935,-4.5929l4.2525,-7.68401c0,0 7.98946,-2.27982 15.65195,4.01062c0.90168,0.74023 -3.32769,9.00532 -4.0851,8.26628z" fill="#3a2f41" stroke="none" stroke-width="0"/></g><g><g fill="#e1e2db" stroke="none" stroke-width="0" stroke-linecap="round"><path d="M76.93902,199.16249c0,0 -1.72826,-13.18657 -1.10439,-14.54571c0.5639,-1.22853 6.74896,-2.25253 6.74896,-2.25253c0,0 15.55748,-31.62824 25.57566,-28.42186c5.48902,1.7568 12.83939,25.25771 7.86359,32.2294c-2.22805,3.12177 -5.57003,11.25073 -6.59043,13.13523c-1.73824,3.21024 -1.67912,9.71006 -3.13494,11.77415c-1.45581,2.06409 -6.27831,1.57214 -6.27831,1.57214l-2.35278,4.71009l-24.38808,-12.96706l3.6607,-5.23382z"/></g><path d="M114.65239,189.25123l-40.42614,14.7788l2.53321,-6.00086l-1.05512,-14.41746l6.1985,-1.58472c0,0 10.47314,-16.56817 11.80572,-18.31973c4.50617,-5.92297 10.21571,-10.0917 13.54888,-9.80509c7.93048,0.68193 7.39495,35.34906 7.39495,35.34906z" fill="#8c9ca0" stroke="none" stroke-width="0" stroke-linecap="butt"/><g fill="none" stroke="#3a2f41" stroke-width="2" stroke-linecap="round"><path d="M75.83461,184.6168c0.56392,-1.22853 6.74897,-2.25252 6.74897,-2.25252c0,0 15.55747,-31.62824 25.57564,-28.42186c5.48904,1.75679 12.8394,25.25771 7.8636,32.22941c-2.22804,3.12175 -5.57003,11.25071 -6.59043,13.13521c-1.73824,3.21024 -1.67912,9.71006 -3.13494,11.77415c-1.45583,2.06409 -6.27831,1.57214 -6.27831,1.57214l-2.35279,4.71007l-24.38806,-12.96706l3.66069,-5.23382z"/><path d="M98.92027,212.49678l-22.03326,-12.44473"/></g></g><path d="M67.15596,323.36821c0,0 -14.86725,-72.77116 -14.79468,-72.85828c6.59742,-7.91933 19.40855,-2.89036 19.40855,-2.89036c0,0 32.08022,69.42278 29.25185,86.82964c-2.76627,17.02466 -33.92249,22.01144 -33.92249,22.01144c0,0 12.68292,-18.08931 12.00193,-17.5548c-10.4422,8.1962 -28.6893,6.6716 -28.6893,6.6716z" data-paper-data="{&quot;index&quot;:null}" fill="#3a2f41" stroke="none" stroke-width="0" stroke-linecap="butt"/></g><path d="M123.69767,457.28117c0,0 -1.67934,-6.75243 -2.53226,-6.69997c-0.85253,0.05244 -3.65169,7.16848 -3.65169,7.16848l-51.98005,3.43479l30.87956,-44.86932l7.56509,-178.27159l26.16928,20.95233l-1.01968,197.9638z" data-paper-data="{&quot;index&quot;:null}" fill="#3a2f41" stroke="none" stroke-width="0" stroke-linecap="butt"/><path d="M141.05471,457.32239l-11.81759,-191.80711l25.11646,-34.14842l22.27552,182.19828l25.70003,59.36072l-50.3679,-13.21627c0,0 -3.04099,-8.74279 -3.89479,-8.71857c-0.85419,0.02422 -1.49764,7.44814 -1.49764,7.44814z" data-paper-data="{&quot;index&quot;:null}" fill="#3a2f41" stroke="none" stroke-width="0" stroke-linecap="butt"/><g data-paper-data="{&quot;index&quot;:null}"><path d="M133.43006,266.43612l-11.78914,0.36986l-16.64469,-26.07397l-0.39631,-14.99407h49.93575l-0.39632,14.99407z" fill="#3a2f41" stroke="none" stroke-width="0" stroke-linecap="butt"/><g><g><path d="M104.10692,229.49402c0,0 -0.36936,-9.07035 -0.56862,-13.96353c-0.22081,-5.42211 -0.69821,-17.14549 -0.69821,-17.14549c-0.2276,-4.72824 1.82128,-9.0934 1.45183,-13.20305c-0.9241,-10.2795 -3.46706,-18.96045 4.49215,-27.7268c7.09969,-7.81966 16.44541,-8.51112 25.32317,-8.55174c8.09176,-0.03701 26.47428,7.69418 27.84079,11.60886c-5.04096,27.36557 -7.79899,69.2084 -7.79899,69.2084c0,0 -19.39631,7.23646 -35.59315,6.51126c-8.3071,-0.37193 -14.44896,-6.73791 -14.44896,-6.73791z" fill="#e1e2db" stroke="none" stroke-width="0" stroke-linecap="round"/><g stroke="none" stroke-linecap="butt"><g fill="none" stroke-width="1" font-family="sans-serif" font-weight="normal" font-size="12" text-anchor="start"><g><g/></g></g><g><g><g fill="none" stroke-width="1" font-family="sans-serif" font-weight="normal" font-size="12" text-anchor="start"/><path d="M154.40256,165.95089c0,-0.65856 -8.14486,-10.99682 -6.32538,-10.99682c1.81948,0 8.96263,9.8592 8.5129,9.38041c-2.74978,-2.92757 -5.35022,-5.22019 -5.35022,-5.22019c0,0 4.5056,6.38193 5.44164,8.17753c1.01378,1.9447 -2.27895,-0.99855 -2.27895,-1.34097z" fill="#ffffff" stroke-width="0"/></g><path d="M114.98732,154.7074c1.7416,0.52953 -9.03108,8.05475 -9.22067,8.68511c-0.09859,0.32775 -4.09775,2.18671 -2.56745,0.62028c1.41294,-1.4463 7.56306,-6.24372 7.56306,-6.24372c0,0 0.91163,-0.93427 -2.56331,1.06766c-0.56833,0.32742 5.04675,-4.65884 6.78835,-4.12931z" data-paper-data="{&quot;index&quot;:null}" fill="#ffffff" stroke-width="0"/></g></g><path d="M161.94804,160.51226c0.83363,2.38815 -2.03216,8.50051 -1.72705,11.01398c-0.14327,0.93532 -57.01523,21.80492 -57.01523,21.80492c0,0 0.01377,-6.55515 0.02293,-10.91633c0.0137,-6.52175 0.05128,-24.4116 0.05128,-24.4116c0,0 17.27366,-9.03782 30.82725,-9.09984c8.09177,-0.03701 26.47429,7.69417 27.8408,11.60885z" fill="#8c9ca0" stroke="none" stroke-width="0" stroke-linecap="butt"/><g fill="none" stroke="none" stroke-width="1" stroke-linecap="butt" font-family="sans-serif" font-weight="normal" font-size="12" text-anchor="start"><g><g><g/></g></g><g><g><g/></g></g></g><path d="M103.32538,156.97578c0.2384,-0.28292 20.1723,-8.0239 30.78184,-8.07244c8.09176,-0.03701 26.47429,7.69417 27.8408,11.60885c-5.6317,29.33757 -7.49635,68.6372 -7.49635,68.6372c0,0 -21.88073,7.70997 -35.89579,7.08246c-8.3071,-0.37193 -14.14631,-9.09411 -14.14631,-9.09411c0.11212,-0.71325 -1.07129,-69.31633 -1.07129,-69.31633" fill="none" stroke="#3a2f41" stroke-width="2" stroke-linecap="round"/><g fill="none" stroke="none" stroke-width="1" stroke-linecap="butt" font-family="sans-serif" font-weight="normal" font-size="12" text-anchor="start"><g/></g></g><g fill="none" stroke="none" stroke-width="1" stroke-linecap="butt" font-family="sans-serif" font-weight="normal" font-size="12" text-anchor="start"><g><g><g/></g></g><g><g><g/></g></g></g></g><path d="M124.10582,192.96112c0,0 -0.64146,1.10438 -1.48379,0.4073c-0.83144,-0.68808 1.47052,-0.77166 1.47052,-0.77166l-0.96573,-8.55517l9.87184,-1.30791l1.38593,9.31602c0,0 -1.03595,1.18702 -2.05157,0.49306c-1.01562,-0.69397 1.61247,-0.7931 1.61247,-0.7931" fill="none" stroke="#3a2f41" stroke-width="2" stroke-linecap="round"/><path d="M154.20272,227.94627c-0.0348,3.88384 -10.94907,14.76277 -11.62142,-1.08528c-7.92027,-35.46293 1.81584,-76.88387 1.81584,-76.88387l9.80557,4.96946c0,0 -8.35241,49.14981 0,72.99969z" fill="#3a2f41" stroke="#3a2f41" stroke-width="1.5" stroke-linecap="butt"/><path d="M112.61441,206.38859c0.89173,14.95007 1.8721,20.94684 1.8721,20.94684c0,0 -6.80348,8.2426 -8.48827,2.16282c-0.14148,-0.51055 -0.85427,-1.12209 -0.92113,-1.84799c-1.03778,-11.2681 -3.24414,-24.37507 -3.4562,-36.29784c-0.34617,-19.46353 1.76933,-35.7712 1.76933,-35.7712l12.91877,-5.07936c0,0 -5.41561,27.03368 -3.69459,55.88673z" fill="#3a2f41" stroke="#3a2f41" stroke-width="1.5" stroke-linecap="butt"/><g><path d="M113.34357,153.55798c-0.48841,-0.2693 2.3641,-4.30487 2.8197,-4.62266c0.18573,-0.0586 0.46505,-0.4008 1.15651,0.02004c3.15774,1.92183 10.46731,7.63208 10.46731,7.63208l-12.47523,7.46734z" data-paper-data="{&quot;index&quot;:null}" fill="#8c9ca0" stroke="#3a2f41" stroke-width="4.5" stroke-linecap="round"/><path d="M127.81644,156.62421c0,0 -8.71136,-6.87349 -5.2054,-8.59915c4.17138,-2.0532 20.74393,0.9553 21.7531,0.52398c0.9753,-1.51673 3.10481,3.7876 3.17136,5.02023c-0.91108,2.50267 -8.30208,10.99661 -8.30208,10.99661z" fill="#3a2f41" stroke="#3a2f41" stroke-width="4.5" stroke-linecap="round"/><path d="M115.33387,153.16015c0,-0.42626 1.09106,-3.86527 2.13743,-4.29881c0.60478,-0.52847 11.91902,-5.3225 13.48931,-5.11413c2.4821,0.32938 12.60518,4.26291 13.64868,5.08409c0.56366,0.23672 0.81073,3.15048 0.84793,4.33912" fill="none" stroke="#3a2f41" stroke-width="6.5" stroke-linecap="butt"/><g><path d="M113.34357,153.55797c-0.48841,-0.2693 2.3641,-4.30487 2.8197,-4.62266c0.18573,-0.0586 0.46505,-0.4008 1.15651,0.02004c3.15773,1.92183 10.46731,7.63208 10.46731,7.63208l-12.47523,7.89574z" data-paper-data="{&quot;index&quot;:null}" fill="#8c9ca0" stroke="#12161a" stroke-width="0" stroke-linecap="round"/><path d="M127.81647,156.62419c0,0 14.69033,-7.28131 16.54769,-8.07516c0.9753,-1.51671 3.10481,3.78761 3.17136,5.02024c-0.9111,2.50267 -8.82542,10.99661 -8.82542,10.99661z" fill="#8c9ca0" stroke="#12161a" stroke-width="0" stroke-linecap="round"/><path d="M115.33387,153.16015c0,-0.42626 1.09106,-3.86527 2.13743,-4.29881c0.60478,-0.52847 11.91902,-5.3225 13.48931,-5.11413c2.4821,0.32938 12.60518,4.26291 13.64868,5.08409c0.56366,0.23672 0.81073,3.15048 0.84793,4.33912" fill="none" stroke="#8c9ca0" stroke-width="2" stroke-linecap="butt"/></g></g><path d="M103.84333,240.17366v-13.70886h51.44895v13.70886z" fill="#3a2f41" stroke="#8c9ca0" stroke-width="1" stroke-linecap="butt"/><g stroke-width="1.5" stroke-linecap="butt"><path d="M137.09945,240.93292c-0.75733,1.50133 -18.55804,1.53682 -19.61419,0c-1.54349,-2.24593 -1.41569,-12.9908 0.40863,-14.95356c1.50958,-1.62411 20.12884,-1.31428 19.47799,1.02833c-0.68831,2.47745 -0.08065,13.54509 -0.27241,13.92523z" fill="#e1e2db" stroke="none"/><path d="M137.37189,227.0077c-0.27956,1.00627 -0.34533,3.42971 -0.33772,5.97854c-8.03113,0.31599 -12.6387,0.72342 -20.58192,-0.43875c0.1259,-2.92494 0.60563,-5.66868 1.44166,-6.56813c1.50958,-1.62411 20.12884,-1.31428 19.47799,1.02833z" fill="#8c9ca0" stroke="none"/><path d="M137.09946,240.93292c-0.75734,1.50133 -18.55805,1.53682 -19.6142,0c-1.54347,-2.24593 -1.41569,-12.9908 0.40864,-14.95356c1.50958,-1.62411 20.12884,-1.31428 19.47799,1.02833c-0.68831,2.47745 -0.08066,13.54509 -0.27242,13.92523z" fill="none" stroke="#3a2f41"/><path d="M133.42174,237.9993c-0.47799,0.94758 -11.71317,0.96999 -12.37978,0c-0.9742,-1.41756 -0.89354,-8.19934 0.25791,-9.43816c0.95278,-1.02508 12.7046,-0.82952 12.29381,0.64905c-0.43444,1.56368 -0.05091,8.5492 -0.17194,8.78912z" fill="#3a2f41" stroke="#3a2f41"/></g><path d="M137.31539,201.5482v-3.14161h15.13205v3.14161z" fill="#e1e2db" stroke="#3a2f41" stroke-width="1" stroke-linecap="butt"/><path d="M137.3154,208.11704v-3.14161h15.13204v3.14161z" fill="#e1e2db" stroke="#3a2f41" stroke-width="1" stroke-linecap="butt"/></g><g data-paper-data="{&quot;index&quot;:null}"><g stroke-linecap="butt"><path d="M189.99464,258.60262l-24.0758,-52.11323l14.00056,-6.46813l24.07581,52.11322z" fill="#e1e2db" stroke="#3a2f41" stroke-width="2"/><path d="M178.95505,234.91253l-13.46478,-28.33224l14.0379,-6.38447l13.46477,28.33223z" fill="#8c9ca0" stroke="#3a2f41" stroke-width="2"/><path d="M196.28482,234.4607c0,0 -10.13618,-1.7197 -16.15467,3.22072c-0.81794,0.67142 -4.32367,-7.92561 -3.36188,-8.58587c8.17324,-5.61085 15.93801,-2.65493 15.93801,-2.65493l3.57855,8.02008z" fill="#3a2f41" stroke="none" stroke-width="0"/><path d="M172.58184,221.81582c-0.81795,0.67142 -4.32368,-7.92561 -3.36189,-8.58587c8.17324,-5.61085 15.93801,-2.65493 15.93801,-2.65493l3.57855,8.02008c0,0 -10.13618,-1.7197 -16.15467,3.22072z" fill="#3a2f41" stroke="none" stroke-width="0"/></g><g><g fill="#e1e2db" stroke="none" stroke-width="0" stroke-linecap="round"><path d="M185.51005,199.85071l3.19884,5.5282l-25.40932,10.83l-1.94061,-4.89434c0,0 -4.84691,0.077 -6.12054,-2.10423c-1.27363,-2.18123 -0.65787,-8.65208 -2.11469,-11.99944c-0.85519,-1.96499 -3.48846,-10.35038 -5.44087,-13.65155c-4.36021,-7.37235 4.97651,-30.15714 10.59586,-31.43722c10.25604,-2.3363 23.04665,30.5085 23.04665,30.5085c0,0 6.07459,1.55012 6.53117,2.82245c0.50513,1.40759 -2.3465,14.39762 -2.3465,14.39762z"/></g><path d="M159.18065,152.15933c7.95974,0 13.91825,13.67118 13.91825,13.67118l-26.84821,10.37691c0,0 4.97022,-24.04809 12.92996,-24.04809z" fill="#8c9ca0" stroke="none" stroke-width="0" stroke-linecap="butt"/><g fill="none" stroke="#3a2f41" stroke-linecap="round"><path d="M185.51005,199.85073l3.19884,5.5282l-25.40931,10.83l-1.94061,-4.89433c0,0 -4.8469,0.077 -6.12054,-2.10423c-1.27363,-2.18122 -0.65787,-8.65209 -2.11469,-11.99944c-0.85519,-1.96499 -3.48847,-10.35038 -5.44087,-13.65154c-4.36021,-7.37235 4.9765,-30.15713 10.59586,-31.43721c10.25604,-2.33631 23.04665,30.50849 23.04665,30.50849c0,0 6.07459,1.55011 6.53117,2.82244z" stroke-width="2"/><path d="M162.46721,211.25276l23.01843,-10.51132" stroke-width="2"/><path d="M167.42355,185.18499l0.22513,-2.6065l14.38272,0.08688z" stroke-width="1.5"/></g></g><path d="M199.39594,347.99998c0,0 -18.31062,-0.04428 -28.01225,-9.10496c-0.63268,-0.59089 10.45385,18.5185 10.45385,18.5185c0,0 -30.61444,-7.63769 -31.91199,-24.83675c-1.32669,-17.58517 37.04673,-84.39444 37.04673,-84.39444c0,0 12.74081,-3.74301 18.63549,4.71242c0.06485,0.09302 -20.99169,71.54313 -20.99169,71.54313z" data-paper-data="{&quot;index&quot;:null}" fill="#3a2f41" stroke="none" stroke-width="0" stroke-linecap="butt"/></g><g data-paper-data="{&quot;index&quot;:null}"><g><path d="M156.27269,147.16374c0,0 -12.51713,-7.38946 -26.6904,-7.45919c-5.93411,-0.02919 -12.15854,0.41696 -17.87615,4.52075c-0.21894,0.19311 0,-20.07944 0,-20.07944h50.19859l-5.63204,23.0179z" fill="#8c9ca0" stroke="#3a2f41" stroke-width="2" stroke-linecap="butt"/><g><g><g><path d="M109.12533,68.45572l14.5648,-50.60225l8.64337,-11.55491l3.84417,14.02504l-13.84371,47.96452" fill="#e1e2db" stroke="none" stroke-width="0" stroke-linecap="round"/><path d="M108.62466,69.56053l5.33794,-18.29274l15.55498,-6.82468l-5.27501,17.6712z" fill="#8c9ca0" stroke="none" stroke-width="0" stroke-linecap="butt"/><path d="M109.12532,68.45572l14.5648,-50.60225l8.64338,-11.55491l3.84417,14.02504l-13.84371,47.96452" fill="none" stroke="#3a2f41" stroke-width="2" stroke-linecap="round"/></g><path d="M132.31855,7.30613l1.4455,5.30817l-2.55356,1.89986l-2.69492,-2.41441z" fill="#3a2f41" stroke="#3a2f41" stroke-width="2" stroke-linecap="round"/></g><path d="M123.01844,20.51853l3.14063,-0.87851l2.49776,4.22355l3.64812,-2.48171l2.81113,2.42924" fill="none" stroke="#3a2f41" stroke-width="2" stroke-linecap="round"/></g><g><path d="M116.39078,99.24459l-1.98045,50.79243l-19.97844,-10.84147l1.35126,-17.49132l-4.44542,15.19399c0,0 -7.02389,-6.22076 -6.96057,-6.56422c3.00401,-14.74134 5.63135,-46.33623 5.15754,-46.34609" data-paper-data="{&quot;index&quot;:null}" fill="#e1e2db" stroke="none" stroke-width="0" stroke-linecap="round"/><path d="M84.40989,130.42128l1.75574,-12.57395l10.26408,7.39305l13.39558,9.70763l5.42334,-3.78483l-0.63961,18.80501l-20.0223,-10.38477c0,0 0.19137,-13.00836 0.15274,-12.84161c-0.69056,2.98123 -3.37888,10.18296 -3.37888,10.18296z" data-paper-data="{&quot;index&quot;:null}" fill="#8c9ca0" stroke="none" stroke-width="0" stroke-linecap="butt"/><path d="M116.39077,99.24461l-1.98045,50.79243l-19.97844,-10.84148l1.35126,-17.49132l-4.44542,15.19399c0,0 -7.02389,-6.22076 -6.96057,-6.56422c3.28962,-19.88217 6.20256,-42.62342 5.72875,-42.63328" data-paper-data="{&quot;index&quot;:null}" fill="none" stroke="#3a2f41" stroke-width="2" stroke-linecap="round"/></g><path d="M97.54609,125.25368c0,0 1.64304,-25.68673 5.95794,-31.80943c7.01666,-9.95644 22.02926,-9.47499 30.06771,-9.70879c12.00927,-0.34928 23.05526,5.51029 26.69205,15.78552c3.37298,9.52992 1.0427,26.935 0.67149,29.18413c-0.87105,5.27764 -27.27231,11.99644 -33.03501,12.25156c-5.7627,0.25512 -25.86913,-8.57408 -30.35418,-15.703z" fill="#e1e2db" stroke="#3a2f41" stroke-width="2" stroke-linecap="butt"/><g><g><path d="M200.17168,26.60042l-6.12914,13.59034l-28.34725,26.44609c0,0 5.0272,4.80059 13.81419,10.69752c8.93374,5.99541 13.00077,7.17808 13.00077,7.17808c0,0 -4.88299,2.91393 -9.1937,2.57115c-0.55408,-0.04406 7.14285,25.18089 9.06602,49.09667c0.02802,0.34844 -12.00289,7.65223 -12.00289,7.65223l-1.91535,-15.8554l-1.78767,17.69193l-21.96275,7.2237l4.52175,-51.72953c0,0 -1.84598,4.13162 -3.69003,6.16106c-1.93392,2.12834 -7.65675,6.32639 -7.65675,6.32639c0,0 1.89909,-6.64863 2.37628,-11.93809c-0.02216,-0.70846 1.85236,0.30075 -5.98275,7.0186c-9.44524,8.09838 -21.08463,11.62338 -21.08463,11.62338c0,0 -1.07418,-2.51451 -2.73684,-7.01342c-0.87672,-2.37229 -1.73404,-5.8973 -2.38804,-11.5044c-1.41109,6.75542 2.02884,19.03787 2.02884,19.03787c0,0 -5.23526,-1.79842 -9.69763,-6.27343c-5.03574,-5.05 -5.78155,-6.18727 -5.78155,-6.18727l2.74792,8.99865c0,0 -11.57619,-4.20129 -20.45743,-9.38093c-2.63766,-1.53831 -11.55694,-0.61217 -11.55694,-0.61217c0,0 -0.4637,-2.79256 0.19603,-5.91749c0.63706,-3.01756 2.38678,-6.34507 3.01461,-7.76729c1.88593,-4.27223 4.73617,-6.25458 4.73617,-6.25458c0,0 -3.34331,-3.10138 -4.24404,-4.65763c-1.03188,-1.78289 -1.60746,-5.4525 -1.60746,-5.4525c0,0 8.66663,0.08398 13.2912,-2.53684c7.5622,-4.28564 38.53361,-24.39203 42.39158,-24.84752c2.67359,-0.31564 22.60119,9.67242 22.60119,9.67242l29.49647,-28.64993z" fill="#e1e2db" stroke="none" stroke-width="0" stroke-linecap="round"/><path d="M155.31968,59.76223l7.14045,-6.55905l15.83783,1.67911l-12.93869,11.91124z" fill="#8c9ca0" stroke="none" stroke-width="0" stroke-linecap="butt"/><path d="M180.99571,144.23609c0,0 -1.69468,-14.91921 -1.99097,-18.06376c-0.01658,-0.17588 -1.56289,19.78749 -1.56289,19.78749l-21.56335,6.99874l1.07423,-21.56413l21.80427,-6.28918l0.70643,4.13247l12.64135,-5.01985l1.1492,12.67208z" fill="#8c9ca0" stroke="none" stroke-width="0" stroke-linecap="butt"/><path d="M200.13091,26.60044l-6.12913,13.59034l-28.34726,26.44609c0,0 5.02721,4.80059 13.8142,10.69752c8.93376,5.99541 13.00077,7.17808 13.00077,7.17808c0,0 -4.88299,2.91393 -9.1937,2.57115c-0.55408,-0.04406 7.14284,25.18089 9.06601,49.09667c0.02803,0.34844 -12.00288,7.65223 -12.00288,7.65223l-1.91535,-15.8554l-1.78767,17.69193l-21.96274,7.2237c0,0 4.1308,-51.61857 4.09334,-51.48479c-2.32847,8.3155 -10.06158,8.53983 -10.06158,8.53983c0,0 0.76049,-4.04257 1.32015,-7.64264c-11.15884,12.5966 -26.97707,17.80466 -26.97707,17.80466c0,0 -3.30948,-6.13422 -5.20375,-17.41628c-1.4111,6.75542 2.19045,17.63011 2.19045,17.63011c0,0 -3.83876,-0.80184 -8.27791,-4.46529c-5.44331,-4.49214 -7.17496,-6.80185 -7.17496,-6.80185l2.5337,8.14185c0,0 -9.132,-1.79423 -16.64672,-8.20172c-0.6869,-0.58571 -3.01556,-1.50943 -3.01556,-1.50943c0,0 -4.27152,-0.69435 -6.31936,-0.71916c-1.93698,-0.02347 -5.65362,0.57411 -5.65362,0.57411c0,0 -0.92285,-12.7734 8.26517,-19.94546c-5.98907,-3.4134 -6.62037,-9.45554 -6.62037,-9.45554c0,0 8.95224,-0.48723 13.57681,-3.10805c7.5622,-4.28564 38.53361,-24.39203 42.39158,-24.84752c2.67358,-0.31564 22.60119,9.67242 22.60119,9.67242l29.49648,-28.64993z" fill="none" stroke="#3a2f41" stroke-width="2" stroke-linecap="round"/><path d="M183.61308,33.57851l3.08703,0.91827l-0.29529,4.85369l4.40238,-0.15742l0.96637,3.51565" fill="none" stroke="#3a2f41" stroke-width="2" stroke-linecap="round"/></g><path d="M199.00792,27.54416l-2.06697,4.775h-3.0065l-0.56373,-3.30576z" fill="#3a2f41" stroke="#3a2f41" stroke-width="2" stroke-linecap="round"/></g><path d="M130.9285,120.64321c0,0 2.93632,-13.02615 14.17269,-13.02615c10.53359,0 14.40694,9.76961 14.40694,9.76961c0,0 -4.821,8.71816 -14.88607,8.71816c-11.00209,0 -13.69355,-5.46162 -13.69355,-5.46162z" fill="#e1e2db" stroke="#3a2f41" stroke-width="1.5" stroke-linecap="butt"/><g data-paper-data="{&quot;index&quot;:null}" fill="none" stroke="#3a2f41" stroke-width="2" stroke-linecap="round"><path d="M123.24556,120.60763l-0.53338,5.97892l-22.68845,-0.82286l-0.61911,-5.99368"/><path d="M159.66345,120.60765l-0.58317,5.97892l-28.28635,-0.08824l-0.40915,-5.9937"/><path d="M129.63169,123.94426h-6.42669"/></g><path d="M137.17273,124.08464v-13.22305h2.93846v13.22305z" fill="#8c9ca0" stroke="none" stroke-width="0" stroke-linecap="butt"/><path d="M125.63335,138.40936c0,0 0.46426,-1.37546 0.97949,-1.46923c0.4746,-0.08637 2.93846,1.22436 2.93846,1.22436" fill="none" stroke="#3a2f41" stroke-width="1.5" stroke-linecap="round"/></g><g><path d="M155.21327,149.87413l3.41356,-46.74445l13.81174,-3.36071l-2.25819,45.26777z" fill="#e1e2db" stroke="#3a2f41" stroke-width="2" stroke-linecap="butt"/><path d="M156.52619,140.19935l13.65419,-3.5644" fill="none" stroke="#3a2f41" stroke-width="2" stroke-linecap="round"/><path d="M157.05135,130.77917l13.65419,-3.5644" fill="none" stroke="#3a2f41" stroke-width="2" stroke-linecap="round"/><path d="M156.05355,149.00849l0.31509,-3.81899l12.76142,-3.66623v3.66623z" fill="#8c9ca0" stroke="none" stroke-width="0" stroke-linecap="butt"/><path d="M171.49328,117.7946l-13.65419,3.5644" fill="none" stroke="#3a2f41" stroke-width="2" stroke-linecap="round"/><path d="M171.75586,108.62903l-13.65419,3.5644" fill="none" stroke="#3a2f41" stroke-width="2" stroke-linecap="round"/><path d="M166.24167,146.05513l1.57548,-44.75857l4.14878,-1.68035l-1.57549,45.98065z" fill="#3a2f41" stroke="none" stroke-width="0" stroke-linecap="butt"/><path d="M161.41018,106.38854l0.3151,-3.51347l8.03497,-1.68035v3.20795z" fill="#3a2f41" stroke="none" stroke-width="0" stroke-linecap="butt"/><path d="M161.41019,115.09584v-3.51347l8.50761,-1.83311v2.90243z" fill="#3a2f41" stroke="none" stroke-width="0" stroke-linecap="butt"/><path d="M161.25264,124.26143v-3.81899l8.50761,-1.83312v3.20795z" fill="#3a2f41" stroke="none" stroke-width="0" stroke-linecap="butt"/><path d="M160.93755,133.12149v-3.81899l8.5076,-1.83312l-0.15755,3.51347z" fill="#3a2f41" stroke="none" stroke-width="0" stroke-linecap="butt"/><path d="M160.1498,143.05084l0.31509,-3.81898l8.50761,-1.83311l0.3151,3.36071z" fill="#3a2f41" stroke="none" stroke-width="0" stroke-linecap="butt"/></g></g><path d="M115.35792,57.846c0,0 3.43834,11.13844 2.57041,11.99525c-1.51538,1.49597 -7.28283,2.9288 -7.28283,-0.8568c0,-3.7856 4.71242,-11.13845 4.71242,-11.13845z" data-paper-data="{&quot;index&quot;:null}" fill="#3a2f41" stroke="#3a2f41" stroke-width="2" stroke-linecap="butt"/><path d="M148.92919,60.08239c0,0 2.89393,8.23992 2.0228,11.92393c-0.87113,3.68401 -6.15408,0.96244 -7.28455,-0.8421c-0.64747,-1.03354 5.26175,-11.08184 5.26175,-11.08184z" data-paper-data="{&quot;index&quot;:null}" fill="#3a2f41" stroke="#3a2f41" stroke-width="2" stroke-linecap="butt"/><path d="M86.36426,103.27301c0.19848,-0.24519 3.34095,1.96966 7.01886,4.94703c3.67791,2.97737 12.81748,7.73178 12.61899,7.97697c-0.19849,0.24519 -11.05219,-1.96966 -14.7301,-4.94703c-0.73361,-0.59387 -2.91993,-0.30955 -2.90118,-1.19415c0.02981,-1.40648 0.07234,-3.11186 0.07234,-3.11186c0,0 -2.19495,-3.52761 -2.07891,-3.67095z" data-paper-data="{&quot;index&quot;:null}" fill="#e1e2db" stroke="none" stroke-width="0" stroke-linecap="butt"/><path d="M147.6,101.74928c0,0 -5.66385,5.48214 -8.2676,7.20061c-3.68186,2.43004 -11.5324,6.79939 -11.5324,6.79939" fill="none" stroke="#3a2f41" stroke-width="1.5" stroke-linecap="round"/></g></g></svg>