<svg version="1.1" xmlns="http://www.w3.org/2000/svg" xmlns:xlink="http://www.w3.org/1999/xlink" width="476.10912" height="533.66936" viewBox="0,0,476.10912,533.66936"><defs><linearGradient x1="318.09055" y1="483.51179" x2="504.14288" y2="465.15618" gradientUnits="userSpaceOnUse" id="color-1"><stop offset="0" stop-color="#ffffff" stop-opacity="0.26046"/><stop offset="1" stop-color="#ffffff" stop-opacity="0"/></linearGradient><linearGradient x1="188.93938" y1="258.99539" x2="188.93938" y2="445.95099" gradientUnits="userSpaceOnUse" id="color-2"><stop offset="0" stop-color="#ffffff" stop-opacity="0.26046"/><stop offset="1" stop-color="#ffffff" stop-opacity="0"/></linearGradient></defs><g transform="translate(2.00937,69.02393)"><g data-paper-data="{&quot;isPaintingLayer&quot;:true}" fill-rule="nonzero" stroke-linejoin="miter" stroke-miterlimit="10" stroke-dasharray="" stroke-dashoffset="0" style="mix-blend-mode: normal"><path d="M346.18647,203.67218c15.19806,7.57846 22.87064,18.66533 17.69511,29.04449c-5.17553,10.37916 -26.15386,13.23108 -41.35192,5.65263c-15.19806,-7.57846 -12.4304,-23.62639 -14.93518,-34.95066c-2.52003,-11.39322 23.39394,-7.32492 38.592,0.25354z" fill="#8c9ca0" stroke="#3a2f41" stroke-width="2" stroke-linecap="butt"/><path d="M412.27359,148.50091c19.05023,68.81339 -26.76795,28.15086 -49.68142,42.10946c-21.06119,12.83021 -17.80662,37.80576 -35.775,48.88484c-23.85709,14.70999 -63.70733,-8.91976 -96.13208,-30.27404c-27.35916,-18.01819 -49.72987,-33.36082 -49.72987,-33.36082" fill="none" stroke="#3a2f41" stroke-width="25" stroke-linecap="round"/><path d="M364.22318,233.51625c0,0 -25.12247,47.84919 -88.72919,19.88517c-23.78153,-10.45529 -47.79187,-29.91038 -67.59304,-42.82124c-22.09986,-14.40964 -40.11882,-24.11633 -40.11882,-24.11633l-3.07909,-13.67412l15.69445,-11.12134l20.93443,4.15578c0,0 44.40808,36.61951 59.62441,42.91429c5.66234,2.34243 24.05351,6.47785 29.61343,6.26705c16.05316,-0.60862 17.17893,-12.45105 17.17893,-12.45105c0,0 7.92292,17.24563 20.13749,24.95804c20.25874,12.79157 36.337,6.00374 36.337,6.00374z" fill="#e1e2db" stroke="#3a2f41" stroke-width="2" stroke-linecap="butt"/><g stroke-linecap="round"><path d="M411.35293,136.99668c0,0 3.47064,-1.88 7.13024,-6.39161c2.09692,-2.58514 4.02963,-5.27116 5.81481,-10.04691c0.07364,-0.19699 3.94256,2.04202 5.35843,5.83022c1.35612,3.62835 2.34138,8.56874 3.49321,13.34332c1.18402,4.90804 2.52641,9.63092 3.31355,11.82998c-3.89277,3.97432 -8.11396,8.57948 -14.01885,11.62352c-5.42025,2.79421 -12.42698,4.17816 -18.28722,4.59414c-5.18674,0.36816 -10.34472,0.45984 -14.91285,-2.85251c-9.02345,-6.5429 -14.06306,-22.20321 -10.39278,-21.00211c1.25511,0.41073 2.61818,1.21599 3.87639,1.64883c3.89499,1.33998 7.00628,2.11768 4.60098,1.06483c-4.99805,-2.18776 -7.50604,-3.9108 -12.03515,-8.12588c-1.0473,-0.9747 -3.06319,-3.06427 -4.01662,-5.34715c-1.45306,-3.47919 -1.95116,-7.61137 -4.68941,-10.53465c-8.61943,-9.20184 -22.96299,-8.94981 -20.79071,-15.5559c1.86888,-5.68337 9.29573,-6.95854 16.4597,-4.72971c7.41973,2.3084 14.07264,7.98654 14.04802,8.68287c-0.10974,3.10207 1.02233,7.1429 1.02233,7.1429c0,0 -0.05679,-3.57822 0.42682,-7.13806c0.36863,-2.71345 1.35368,-5.48361 1.48901,-8.05949c0.57202,-10.88789 -6.42007,-24.99732 -0.84123,-37.50762c3.54107,-7.94069 9.56725,-9.47179 9.56725,-9.47179c0,0 -1.98494,4.38634 -3.19692,12.7695c-1.42244,9.83889 0.70415,15.69167 0.70415,15.69167l1.3874,-1.5656c0,0 -0.99899,-10.36142 -0.41766,-14.83504c1.54161,-11.86351 8.70475,-22.17822 10.66505,-23.75878c0.94449,-0.76153 3.10414,-2.13594 5.13161,-2.69938c1.60998,-0.44743 4.23669,-0.6051 5.35286,0.45808c1.18699,1.13063 0.80436,3.52337 0.47841,4.30808c-2.65244,6.38564 -5.7069,15.485 -6.45693,22.72228c-0.81511,7.8652 0.9351,14.27141 0.9351,14.27141c0,0 -7.83836,-3.99116 -12.92959,-2.30331c-2.69951,0.89493 -5.76391,5.10785 -5.86397,7.64581c-0.13609,3.45182 1.73117,8.97463 3.07421,19.53145c0.99279,7.80368 -0.05183,15.18511 2.256,19.51721c1.49186,2.80041 5.39304,4.89669 8.75894,3.09138c5.83027,-3.1271 7.62982,-8.51374 8.29538,-13.62213c0.72615,-5.57345 0.03405,-10.7539 0.03405,-10.7539c0,0 0.95217,-0.38724 2.12269,-1.31881c1.31664,-1.04784 2.94182,-2.73643 4.4208,-4.41368c1.28527,-1.45757 -2.27663,1.0849 -4.70624,2.57298c-1.10991,0.67981 -2.07102,0.82446 -2.07102,0.82446c0,0 -3.74203,-7.464 -7.47806,-10.24795c-4.2263,-3.1493 4.47482,5.16017 5.64071,12.98275c0.77158,6.66685 -0.14305,20.08682 -7.50465,22.0681c-7.3616,1.98127 -6.92535,-7.44953 -7.08208,-20.45228c-0.10151,-8.42147 -4.6324,-17.13984 -3.73889,-19.77548c0.74842,-2.2077 2.8791,-4.54784 4.99226,-5.37668c4.66837,-1.83104 7.62003,0.79318 13.41039,2.45402c2.96534,0.85054 14.05012,0.91036 14.75008,4.08063c3.11416,14.10463 3.85199,23.74357 3.00713,31.457c-0.70755,6.45982 -10.58718,15.67895 -10.58718,15.67895z" fill="none" stroke="#3a2f41" stroke-width="5.5"/><path d="M411.35293,136.99668c0,0 3.47064,-1.88 7.13024,-6.39161c2.09692,-2.58514 4.02963,-5.27116 5.81481,-10.04691c0.07364,-0.19699 3.94256,2.04202 5.35843,5.83022c1.35612,3.62835 2.34138,8.56874 3.49321,13.34332c1.18402,4.90804 2.52641,9.63092 3.31355,11.82998c-3.89277,3.97432 -8.11396,8.57948 -14.01885,11.62352c-5.42025,2.79421 -12.42698,4.17816 -18.28722,4.59414c-5.18674,0.36816 -10.34472,0.45984 -14.91285,-2.85251c-9.02345,-6.5429 -14.06306,-22.20321 -10.39278,-21.00211c1.25511,0.41073 2.61818,1.21599 3.87639,1.64883c3.89499,1.33998 7.00628,2.11768 4.60098,1.06483c-4.99805,-2.18776 -7.50604,-3.9108 -12.03515,-8.12588c-1.0473,-0.9747 -3.06319,-3.06427 -4.01662,-5.34715c-1.45306,-3.47919 -1.95116,-7.61137 -4.68941,-10.53465c-8.61943,-9.20184 -22.96299,-8.94981 -20.79071,-15.5559c1.86888,-5.68337 9.29573,-6.95854 16.4597,-4.72971c7.41973,2.3084 14.07264,7.98654 14.04802,8.68287c-0.10974,3.10207 1.02233,7.1429 1.02233,7.1429c0,0 -0.05679,-3.57822 0.42682,-7.13806c0.36863,-2.71345 1.35368,-5.48361 1.48901,-8.05949c0.57202,-10.88789 -6.42007,-24.99732 -0.84123,-37.50762c3.54107,-7.94069 9.56725,-9.47179 9.56725,-9.47179c0,0 -1.98494,4.38634 -3.19692,12.7695c-1.42244,9.83889 0.70415,15.69167 0.70415,15.69167l1.3874,-1.5656c0,0 -0.99899,-10.36142 -0.41766,-14.83504c1.54161,-11.86351 8.70475,-22.17822 10.66505,-23.75878c0.94449,-0.76153 3.10414,-2.13594 5.13161,-2.69938c1.60998,-0.44743 4.23669,-0.6051 5.35286,0.45808c1.18699,1.13063 0.80436,3.52337 0.47841,4.30808c-2.65244,6.38564 -5.7069,15.485 -6.45693,22.72228c-0.81511,7.8652 0.9351,14.27141 0.9351,14.27141c0,0 -7.83836,-3.99116 -12.92959,-2.30331c-2.69951,0.89493 -5.76391,5.10785 -5.86397,7.64581c-0.13609,3.45182 1.73117,8.97463 3.07421,19.53145c0.99279,7.80368 -0.05183,15.18511 2.256,19.51721c1.49186,2.80041 5.39304,4.89669 8.75894,3.09138c5.83027,-3.1271 7.62982,-8.51374 8.29538,-13.62213c0.72615,-5.57345 0.03405,-10.7539 0.03405,-10.7539c0,0 0.95217,-0.38724 2.12269,-1.31881c1.31664,-1.04784 2.94182,-2.73643 4.4208,-4.41368c1.28527,-1.45757 -2.27663,1.0849 -4.70624,2.57298c-1.10991,0.67981 -2.07102,0.82446 -2.07102,0.82446c0,0 -3.74203,-7.464 -7.47806,-10.24795c-4.2263,-3.1493 4.47482,5.16017 5.64071,12.98275c0.77158,6.66685 -0.14305,20.08682 -7.50465,22.0681c-7.3616,1.98127 -6.92535,-7.44953 -7.08208,-20.45228c-0.10151,-8.42147 -4.6324,-17.13984 -3.73889,-19.77548c0.74842,-2.2077 2.8791,-4.54784 4.99226,-5.37668c4.66837,-1.83104 7.62003,0.79318 13.41039,2.45402c2.96534,0.85054 14.05012,0.91036 14.75008,4.08063c3.11416,14.10463 3.85199,23.74357 3.00713,31.457c-0.70755,6.45982 -10.58718,15.67895 -10.58718,15.67895z" fill="#e1e2db" stroke="none" stroke-width="0"/><path d="M417.51812,142.67267c0,0 -4.34677,5.79906 -10.36889,7.45444c-6.02212,1.65538 -15.20201,-0.42539 -15.20201,-0.42539c0,0 8.24713,0.83606 15.12683,-0.87542c5.77644,-1.43703 10.44406,-6.15364 10.44406,-6.15364z" fill="#3a2f41" stroke="none" stroke-width="0"/><path d="M354.60756,101.34779c2.39722,-0.16122 5.04059,0.18578 7.64908,0.99732c7.41973,2.3084 14.07264,7.98654 14.04802,8.68287c-0.10974,3.10207 1.02233,7.1429 1.02233,7.1429l0.73666,7.79184c0,0 -1.59562,-1.11506 -3.41949,-4.51077c-0.88628,-1.6501 -0.9955,-3.72506 -2.23102,-5.88138c-1.61374,-2.81645 -4.53462,-5.74039 -7.38557,-7.7202c-7.07169,-5.08318 -10.42001,-6.50253 -10.42001,-6.50253z" fill="#8c9ca0" stroke="none" stroke-width="0"/><path d="M401.15308,41.96691c0.36223,-0.14394 0.7279,-0.27018 1.08937,-0.37063c1.60998,-0.44743 4.23669,-0.6051 5.35286,0.45808c1.18699,1.13063 0.80436,3.52337 0.47841,4.30808c-2.65244,6.38564 -5.7069,15.485 -6.45693,22.72228c-0.81511,7.8652 0.9351,14.27141 0.9351,14.27141c0,0 -2.72378,-1.3869 -6.00297,-2.17985c0,0 -1.38285,-20.15229 7.70804,-35.03644c2.58913,-4.23907 -3.10389,-4.17295 -3.10389,-4.17295z" fill="#8c9ca0" stroke="none" stroke-width="0"/><path d="M418.954,89.95621c3.09642,14.05267 3.82903,23.6655 2.98608,31.36151c-0.35307,3.22351 -2.55176,6.49652 -4.74061,9.28167c-2.87066,3.65271 -5.84654,6.3973 -5.84654,6.3973l-9.17677,3.71672c0,0 4.51017,-4.11135 6.33286,-9.12064c2.14261,-5.88852 1.10514,-9.86809 -1.08836,-6.49021c-5.9284,9.12949 -12.32281,6.40868 -12.32281,6.40868c0.9174,0.01261 1.85254,-0.19139 2.74965,-0.67256c5.83027,-3.1271 7.62982,-8.51374 8.29538,-13.62213c0.72615,-5.57345 0.03405,-10.7539 0.03405,-10.7539c0,0 0.95217,-0.38725 2.12269,-1.31881c1.31664,-1.04784 2.94182,-2.73644 4.4208,-4.41368c1.28527,-1.45757 -2.27663,1.08489 -4.70624,2.57298c-1.10991,0.67981 -2.07103,0.82447 -2.07103,0.82447c0,0 -3.74202,-7.46399 -7.47805,-10.24795c-4.2263,-3.1493 4.47481,5.16016 5.64071,12.98275c0.77158,6.66685 -0.14305,20.08682 -7.50466,22.06809c-0.34373,0.0925 -0.67048,0.16014 -0.98106,0.20369c0,0 5.82349,-4.66175 5.0399,-17.86247c-1.00235,-16.88598 -6.81198,-23.72014 -6.81198,-23.72014c0,0 8.79187,5.82714 15.45618,5.8015c8.53455,-0.03283 9.64979,-3.39687 9.64979,-3.39687z" fill="#8c9ca0" stroke="none" stroke-width="0"/><path d="M421.52319,126.37723c0.57203,-0.94229 1.13045,-1.98069 1.67572,-3.16647c0.37246,-0.80998 0.73876,-1.68873 1.09906,-2.65261c0.07365,-0.197 3.94256,2.04202 5.35843,5.83022c1.35612,3.62836 2.34139,8.56875 3.49322,13.34332c1.18401,4.90803 2.5264,9.63091 3.31355,11.82998c-3.89276,3.97433 -8.11396,8.57948 -14.01885,11.62352c-5.42026,2.7942 -12.42697,4.17817 -18.28722,4.59414c-5.18675,0.36817 -10.34472,0.45983 -14.91284,-2.85251c-2.31255,-1.67683 -4.36345,-3.9525 -6.07312,-6.3897c0,0 28.93149,7.22212 43.04182,-10.77865c2.36411,-3.01594 -0.4535,-17.39572 -2.55711,-22.58168c-0.24009,-0.8049 -2.13263,1.20042 -2.13263,1.20042z" fill="#8c9ca0" stroke="none" stroke-width="0"/><path d="M386.51955,85.29121c0,0 -0.58395,-2.17705 -0.95435,-5.20678" fill="none" stroke="#3a2f41" stroke-width="2"/></g><path d="M417.02,373.75971l-135.91942,-64.45947c0.16863,-0.2855 9.23021,-20.71185 9.23021,-20.71185l127.444,60.6798l56.11165,91.7989z" data-paper-data="{&quot;index&quot;:null}" fill="#3a2f41" stroke="url(#color-1)" stroke-width="0.5" stroke-linecap="butt"/><path d="M56.13818,441.45099l-57.50663,-83.07273c0,0 129.18423,-65.99647 147.66874,-78.82744c10.20678,-7.08501 11.34954,16.07402 14.68253,13.63437l-123.05219,69.03732z" data-paper-data="{&quot;index&quot;:null}" fill="#3a2f41" stroke="url(#color-2)" stroke-width="0.5" stroke-linecap="butt"/><g data-paper-data="{&quot;index&quot;:null}" stroke="#3a2f41" stroke-width="2"><path d="M67.72428,296.10911l93.67036,-41.4119l21.02889,32.18776l-88.48105,55.02389c0,0 -10.43705,-7.2137 -20.33815,-21.65516c-9.46861,-13.81062 -5.88005,-24.14458 -5.88005,-24.14458z" data-paper-data="{&quot;index&quot;:null}" fill="#e1e2db" stroke-linecap="butt"/><path d="M165.92053,266.38948l-16.78371,9.12901l-10.28806,-10.89185" fill="none" stroke-linecap="round"/><path d="M162.27406,264.71678l-12.24197,6.72925l-7.70678,-8.3433" fill="none" stroke-linecap="round"/></g><g data-paper-data="{&quot;index&quot;:null}" stroke="#3a2f41" stroke-width="2"><path d="M292.17731,328.97224l-101.61208,-40.48065l15.32445,-37.78345l100.82984,21.91768c0,0 6.82739,9.50079 2.10925,27.70434c-4.08472,15.7597 -16.65147,28.64209 -16.65147,28.64209z" data-paper-data="{&quot;index&quot;:null}" fill="#e1e2db" stroke-linecap="butt"/><path d="M230.33584,256.60951l-8.35385,13.52567l-18.37347,-5.40723" fill="none" stroke-linecap="round"/><path d="M226.59474,255.86436l-6.22536,10.32024l-13.41399,-4.0161" fill="none" stroke-linecap="round"/></g><g stroke-linecap="butt"><path d="M170.70023,288.91039l1.02847,-18.1628l26.23853,-2.57313l2.0663,21.07034z" fill="#8c9ca0" stroke="#3a2f41" stroke-width="2"/><path d="M170.86385,286.48606l-8.14879,-29.70772l21.7281,-10.55606l23.02102,7.86117l-7.26703,32.737z" fill="#e1e2db" stroke="#e1e2db" stroke-width="3.5"/></g><text transform="translate(234.95922,-46.37859) scale(0.59593,0.59593)" font-size="40" xml:space="preserve" fill="#3a2f41" fill-rule="nonzero" stroke="none" stroke-width="1" stroke-linecap="butt" stroke-linejoin="miter" stroke-miterlimit="10" stroke-dasharray="" stroke-dashoffset="0" font-family="Handwriting" font-weight="normal" text-anchor="start" style="mix-blend-mode: normal"><tspan x="0" dy="0">MR CARTOON DOG</tspan></text><g data-paper-data="{&quot;index&quot;:null}"><g><g fill="none" stroke="none" stroke-width="1" stroke-linecap="butt" font-family="sans-serif" font-weight="normal" font-size="12" text-anchor="start"><g><g><g/></g></g><g><g><g/></g></g></g><g fill="none" stroke="none" stroke-width="1" stroke-linecap="butt" font-family="sans-serif" font-weight="normal" font-size="12" text-anchor="start"><g><g><g/></g></g><g><g><g/></g></g></g><path d="M185.15674,165.21645c0,0 4.27249,64.15819 45.93321,92.75667l-39.55591,15.24873l-58.3419,-4.39128c0,0 -24.96997,-43.6676 -26.01872,-100.31904c1.96052,-5.69337 27.45352,-16.64735 38.60784,-16.44368c12.23779,0.22347 39.76546,11.7762 39.76546,11.7762" fill="#3a2f41" stroke="#3a2f41" stroke-width="2" stroke-linecap="round"/><g fill="none" stroke="none" stroke-width="1" stroke-linecap="butt" font-family="sans-serif" font-weight="normal" font-size="12" text-anchor="start"><g/></g></g><path d="M156.22116,216.69364c-0.26743,0.18977 -12.56513,-5.87977 -26.54504,-23.19721c-9.52667,-11.80103 -16.33733,-30.79047 -16.33733,-30.79047c0,0 9.35459,-4.57647 14.53655,-6.65186c5.96511,-2.38904 23.41128,-7.02694 23.41128,-7.02694l30.70015,13.34758c0,0 -5.4378,35.47719 -25.76561,54.31891z" fill="#e1e2db" stroke="none" stroke-width="0" stroke-linecap="butt"/><path d="M181.98677,162.37473c0,0 -2.72024,17.74732 -11.50504,34.80376c-6.42309,-3.04236 -12.69353,-5.74297 -20.24435,-9.00156c-11.6765,-5.03904 -21.82542,-9.37351 -31.79639,-13.42388c-3.19999,-6.7434 -5.1022,-12.04709 -5.1022,-12.04709c0,0 9.35459,-4.57647 14.53655,-6.65186c5.96511,-2.38904 23.41128,-7.02694 23.41128,-7.02694l30.70015,13.34758z" fill="#8c9ca0" stroke="none" stroke-width="0" stroke-linecap="butt"/><path d="M155.76128,212.09735c0,0 -10.68854,-6.50438 -17.33542,-14.21156c-0.30262,-0.35656 8.4691,-16.02963 8.4691,-16.02963l11.14661,0.22717c0,0 1.24374,2.02508 2.74767,4.61036c2.41893,4.15817 5.51097,9.76557 5.18372,10.72693c-1.9239,5.65183 -10.21169,14.67671 -10.21169,14.67671z" fill="#3a2f41" stroke="#3a2f41" stroke-width="2" stroke-linecap="butt"/><path d="M156.22116,216.69364c-0.26743,0.18977 -12.56513,-5.87977 -26.54504,-23.19721c-9.52667,-11.80103 -16.33733,-30.79047 -16.33733,-30.79047c0,0 9.35459,-4.57647 14.53655,-6.65186c5.96511,-2.38904 23.41128,-7.02694 23.41128,-7.02694l30.70015,13.34758c0,0 -5.4378,35.47719 -25.76561,54.31891z" fill="none" stroke="#3a2f41" stroke-width="2" stroke-linecap="butt"/><path d="M147.45863,177.76855l0.16225,-12.09913l10.22166,0.13708l-0.16224,12.09913z" fill="#3a2f41" stroke="#3a2f41" stroke-width="2" stroke-linecap="butt"/><g><path d="M163.03021,172.45448l-9.97833,-10.73122c0,0 8.85293,-8.22439 12.6667,-10.9812c0.83512,-0.60367 1.16244,-0.09931 1.38339,-0.01073c0.53861,0.47155 3.87068,6.41251 3.28134,6.79808z" data-paper-data="{&quot;index&quot;:null}" fill="#8c9ca0" stroke="#3a2f41" stroke-width="4.5" stroke-linecap="round"/><path d="M142.34093,172.92373c0,0 -11.80531,-12.25567 -12.84579,-15.92622c0.10373,-1.79957 2.75418,-9.51407 3.89077,-7.28278c1.19835,0.64627 21.07535,-3.48282 26.0234,-0.41659c4.15874,2.5771 -6.39327,12.47829 -6.39327,12.47829z" fill="#3a2f41" stroke="#3a2f41" stroke-width="4.5" stroke-linecap="round"/><path d="M131.98823,156.44826c0.06777,-1.73578 0.4203,-5.9883 1.09899,-6.32506c1.26394,-1.18286 13.44655,-6.76668 16.42119,-7.20803c1.88189,-0.27921 15.31796,6.90544 16.03082,7.68713c1.2428,0.65009 2.48014,5.69136 2.47179,6.31405" fill="none" stroke="#3a2f41" stroke-width="6.5" stroke-linecap="butt"/><g><path d="M163.03301,172.24585l-9.77252,-10.51982c0,0 8.85294,-8.2244 12.6667,-10.98121c0.83512,-0.60368 1.16244,-0.09931 1.38339,-0.01073c0.53862,0.47155 3.87068,6.41251 3.28134,6.79808z" data-paper-data="{&quot;index&quot;:null}" fill="#8c9ca0" stroke="#12161a" stroke-width="0" stroke-linecap="round"/><path d="M142.34094,172.92375c0,0 -11.8053,-12.25568 -12.84579,-15.92623c0.10374,-1.79956 2.75418,-9.51406 3.89077,-7.28278c2.20553,1.18944 19.63012,12.0617 19.63012,12.0617z" fill="#8c9ca0" stroke="#12161a" stroke-width="0" stroke-linecap="round"/><path d="M131.98822,156.4482c0.06777,-1.73578 0.4203,-5.9883 1.09899,-6.32506c1.26394,-1.18286 13.44656,-6.76668 16.42119,-7.20803c1.8819,-0.27921 15.31797,6.90544 16.03083,7.68713c1.2428,0.65009 2.48014,5.69136 2.47179,6.31405" fill="none" stroke="#8c9ca0" stroke-width="2" stroke-linecap="butt"/></g></g></g><g><path d="M53.25438,340.96957c-9.47886,14.09132 -21.46425,20.26689 -31.08759,13.79352c-9.62334,-6.47337 -9.74046,-27.64434 -0.2616,-41.73566c9.47886,-14.09132 25.03459,-9.2731 36.58759,-10.29352c11.62334,-1.02663 4.24046,24.14434 -5.2384,38.23566z" fill="#8c9ca0" stroke="#3a2f41" stroke-width="2" stroke-linecap="butt"/><g data-paper-data="{&quot;index&quot;:null}"><path d="M104.07512,377.93383c12.13244,-39.26846 13.32228,-61.21765 -11.52708,-58.74336c-20.68171,2.05931 -59.77598,25.79736 -72.31336,-2.05698c-11.50376,-25.55793 17.07744,-62.02054 42.44271,-91.41395c21.40256,-24.8014 39.50736,-45.00192 39.50736,-45.00192" fill="none" stroke="#3a2f41" stroke-width="25" stroke-linecap="round"/><g><g><path d="M57.04164,399.43247c0,0 10.98526,-3.63068 18.28581,-10.77575c6.47454,-6.33663 10.52318,-14.97204 15.01108,-25.43261c4.56176,-10.63275 -3.49631,8.38575 -5.00413,6.71215c-8.55411,-9.49467 1.80709,-28.35415 6.87194,-33.47851c4.1421,-3.74561 15.54442,-5.90991 25.89683,-3.16166c10.92339,2.89981 20.80174,10.95008 24.62583,15.82596c4.26206,5.4343 1.02182,28.15809 -13.58187,29.65901c-2.70047,0.27755 1.98608,-20.33458 -0.396,-7.09184c-0.49173,2.73368 -2.6996,21.80445 -1.49546,30.05153c0.7715,5.28395 8.01952,14.63103 8.01952,14.63103l2.7241,1.13743l3.49928,1.13018l1.58667,3.86152l0.81507,4.25637l-0.73532,4.27088l-3.06818,3.51741l-3.86514,1.19906c0,0 -7.97604,0.17661 -11.83923,-1.50891c-3.84514,-1.67764 -8.33402,-7.43413 -8.33402,-7.43413l0.20678,5.02611l1.95975,2.30748l0.02537,2.71322l-0.74257,3.49566l-1.52866,2.34011l-2.28936,3.89777l-1.90176,3.89414l-1.51779,3.50291l-0.74257,3.49566l-3.06456,3.90502l-3.8579,1.97425l-4.26363,0.03986l-3.88689,-1.12656l-3.89777,-2.28936l-1.59029,-4.24913l-0.44198,-5.81039l1.11206,-5.4373l1.89451,-4.66934c0,0 -0.74675,-17.75328 -3.23489,-16.70613c-2.88275,1.21322 -4.19389,5.81588 -6.94816,9.14802c-2.75427,3.33213 -7.6394,8.50005 -7.6394,8.50005l-1.90176,3.89414l-1.1338,3.11168l-1.51779,3.50291l-2.68422,3.12618l-5.43367,-0.72445l-3.48478,0.42023l-3.1153,-1.52141l-2.73135,-1.91263l-1.61203,-6.57473l-1.20268,-4.25275l0.73895,-3.88327l-3.12618,-2.68422l-1.18455,-2.31474l-2.73859,-2.68784l-0.80782,-3.48116l1.1338,-3.11168l3.06093,-4.29263l3.0573,-4.68022l1.90176,-3.89414l1.52141,-3.1153l1.52504,-2.72772z" fill="#e1e2db" stroke="none" stroke-width="0" stroke-linecap="round"/><path d="M142.6434,349.44419c4.25511,5.42544 1.03237,28.08399 -13.51048,29.6515l0.22504,-9.92316c0,0 5.8041,0.47908 7.19282,-1.35523c6.85872,-12.98374 2.68191,-22.7219 6.09262,-18.37311z" fill="#8c9ca0" stroke="none" stroke-width="0" stroke-linecap="butt"/><path d="M117.04019,438.50966c-0.54981,2.06849 -4.47851,10.69766 -7.72569,17.42243c-0.80446,1.66599 0.44519,1.72715 -0.01226,2.75817c-0.67573,1.52295 -3.04719,3.6631 -4.73732,4.00726c-17.38793,3.5406 -15.57767,-10.77749 -15.57767,-10.77749c0,0 3.46273,13.84123 14.32492,5.11807c2.2302,-1.79102 9.85775,-18.37966 9.64414,-20.47012c-1.423,-13.9261 1.48868,-20.18496 1.48868,-20.18496c0,0 0.07864,6.79753 1.05005,11.637c0.87894,4.3788 2.34262,7.48945 1.54516,10.48965z" fill="#8c9ca0" stroke="none" stroke-width="0" stroke-linecap="butt"/><path d="M73.02447,440.60646c-0.54058,2.03376 0.48037,6.97733 -6.40677,12.60786c-2.13552,1.74587 -9.50743,-0.46411 -11.32671,-0.08753c-4.88876,1.01197 -6.125,-13.17101 -6.71292,-13.32728c-0.7865,-0.20905 4.91681,8.67179 10.7273,6.69713c8.53419,0.02632 9.31773,-9.88402 9.31773,-9.88402c0,0 7.16894,-3.28882 9.43274,-6.50488c6.0206,-8.55316 9.99615,-11.7327 10.15153,-8.78546c0.05822,1.10428 -4.00756,8.36698 -7.84463,12.82333c-2.25872,2.62325 -7.33827,6.46085 -7.33827,6.46085z" fill="#8c9ca0" stroke="none" stroke-width="0" stroke-linecap="butt"/><path d="M72.37343,405.4253c-0.12766,0.48028 1.13543,-1.67405 1.51239,-1.37193c0.93507,0.74939 1.60778,3.77431 0.02533,5.73931c-1.92905,2.39541 -6.2973,4.34569 -9.64715,8.15877c-3.90624,4.4464 -7.16845,10.16023 -9.93559,13.70376c-2.01247,2.57711 -4.02626,3.77386 -4.55152,3.63425c-2.5798,-0.68572 -9.10108,-6.63466 -7.49319,-12.68384c1.60789,-6.04919 9.14831,-11.70957 9.14831,-11.70957l-0.85542,7.33429l6.66521,0.40795c0,0 15.63092,-15.09145 15.13162,-13.213z" fill="#8c9ca0" stroke="none" stroke-width="0" stroke-linecap="butt"/><path d="M141.35372,421.00117c-0.18857,0.70943 2.57706,3.51294 2.69166,5.95532c0.06668,1.42103 -0.17111,2.87744 -1.23825,4.03955c-0.70827,0.7713 -2.14236,1.31716 -2.79039,1.98383c-3.01037,3.09693 -11.50561,2.54291 -15.19618,1.56194c-7.7394,-2.05715 -10.6332,-19.03699 -10.6332,-19.03699c0,0 7.21268,1.47317 7.2666,2.68377c0.11048,2.48 6.34657,13.64728 13.02686,13.74734c3.26949,0.04897 6.3361,-1.54541 7.34858,-4.05414c1.46716,-3.63534 -0.05595,-8.45966 -0.47566,-6.88061z" fill="#8c9ca0" stroke="none" stroke-width="0" stroke-linecap="butt"/><path d="M91.73131,361.97193c0.39808,0.40112 -3.74074,7.9733 -5.60887,7.47675c-1.86813,-0.49655 -4.56928,-6.96342 -3.62742,-11.65631c2.12656,-10.59576 9.613,-21.24346 9.613,-21.24346c0,0 -6.05286,19.7034 -0.37672,25.42303z" fill="#8c9ca0" stroke="none" stroke-width="0" stroke-linecap="butt"/><g fill="none" stroke="#3a2f41" stroke-width="2.5" stroke-linecap="round"><path d="M135.18827,415.59224c0.36712,0.49608 0.58691,0.77953 0.58691,0.77953l2.7241,1.13743l3.49928,1.13018l1.58667,3.86152l0.81507,4.25637l-0.73532,4.27088l-3.06818,3.51741l-3.86514,1.19906c0,0 -7.97604,0.17661 -11.83923,-1.50891c-3.84514,-1.67764 -8.33402,-7.43413 -8.33402,-7.43413l0.20678,5.02611l1.95975,2.30748l0.02537,2.71322l-0.74257,3.49566l-1.52866,2.34011l-2.28936,3.89777l-1.90176,3.89414l-1.51779,3.50291l-0.74257,3.49566l-3.06456,3.90502l-3.8579,1.97425l-4.26363,0.03986l-3.88689,-1.12656l-3.89777,-2.28936l-1.59029,-4.24913l-0.44198,-5.81039l1.11206,-5.4373l1.89451,-4.66934c0,0 -0.74675,-17.75328 -3.23489,-16.70613c-2.88275,1.21322 -4.19389,5.81588 -6.94816,9.14802c-2.75427,3.33213 -7.6394,8.50005 -7.6394,8.50005l-1.90176,3.89414l-1.1338,3.11168l-1.51779,3.50291l-2.68422,3.12618l-5.43367,-0.72445l-3.48478,0.42023l-3.1153,-1.52141l-2.73135,-1.91263l-1.61203,-6.57473l-1.20268,-4.25275l0.73895,-3.88327l-3.12618,-2.68422l-1.18455,-2.31474l-2.73859,-2.68784l-0.80782,-3.48116l1.1338,-3.11168l3.06093,-4.29263l3.0573,-4.68022l1.90176,-3.89414l1.52141,-3.1153l1.52504,-2.72772l3.06826,-3.51742c0,0 10.98526,-3.63068 18.28581,-10.77575c6.47454,-6.33663 10.52318,-14.97204 15.01108,-25.43261c4.56176,-10.63275 -3.49631,8.38575 -5.00413,6.71215c-8.55411,-9.49467 1.80709,-28.35415 6.87194,-33.47851c4.1421,-3.74561 15.54442,-5.90991 25.89683,-3.16166c10.92339,2.89981 20.80174,10.95008 24.62583,15.82596c4.26206,5.4343 1.02182,28.15809 -13.58187,29.65901c-2.70047,0.27755 1.98608,-20.33458 -0.396,-7.09184c-0.30755,1.70976 -1.28641,9.81024 -1.68194,17.65629"/><path d="M134.39219,415.18928c-1.95663,-2.68131 -6.53237,-9.31074 -7.13652,-13.44854c-0.43501,-2.97935 -0.42472,-7.37128 -0.21091,-11.89524"/><path d="M71.95694,404.31602c0,0 2.28085,0.55247 2.43219,1.50348c0.22035,1.38465 0.06734,3.8176 0.06734,3.8176c0,0 -6.45682,4.91265 -9.76826,8.44337c-2.7244,2.90481 -8.68507,11.232 -8.68507,11.232l-2.30386,2.34736l-1.53229,1.9525l-1.91263,2.73135"/><path d="M118.74008,430.10477c-1.08545,-1.73225 -2.47012,-1.94004 -2.53568,-3.71842"/></g><path d="M101.32899,355.00291c0,0 5.03033,-2.2633 9.65153,-1.14945c4.62121,1.11386 9.97086,5.87903 9.97086,5.87903c0,0 -5.18642,-3.59262 -10.3996,-4.98477c-4.37716,-1.16888 -9.22281,0.25519 -9.22281,0.25519z" fill="#3a2f41" stroke="none" stroke-width="0" stroke-linecap="round"/><path d="M94.33177,367.25686c-1.667,6.27158 -3.81164,11.14485 -4.79018,10.88475c-0.97854,-0.2601 -17.71145,15.75411 -13.00286,11.2886c4.01045,-3.8034 8.12844,-11.8752 11.0249,-19.13138c3.76475,-9.4314 4.80695,-18.65296 5.35999,-18.50596c0.97854,0.2601 3.07515,9.19242 1.40815,15.46399z" fill="#e1e2db" stroke="none" stroke-width="0" stroke-linecap="butt"/><path d="M131.47113,362.7287c0.55305,0.147 -3.21562,9.0248 -4.73452,19.47153c-1.16859,8.03735 -1.6932,17.4319 -0.14901,22.90701c1.81301,6.42825 -4.55635,-16.54722 -5.53489,-16.80732c-0.97854,-0.2601 -0.36624,-5.75897 1.36762,-12.28207c1.73386,-6.5231 8.07227,-13.54925 9.05081,-13.28915z" data-paper-data="{&quot;index&quot;:null}" fill="#e1e2db" stroke="none" stroke-width="0" stroke-linecap="butt"/><path d="M75.39944,414.4781c-1.20805,-0.3211 -0.88695,-1.52916 -0.88695,-1.52916l0.21407,-0.80537c0.49658,-1.86822 1.16667,-4.26805 0.944,-6.19936c-0.19586,-1.69883 -4.98566,-1.44619 -5.9862,-1.34533c0,0 -1.24388,0.12351 -1.3674,-1.12037c-0.12351,-1.24388 1.12037,-1.3674 1.12037,-1.3674c2.71884,-0.26626 7.69322,-0.1257 8.66134,3.23784c0.59219,2.05745 -0.4288,5.45341 -0.95599,7.43682l-0.21407,0.80537c0,0 -0.3211,1.20805 -1.52916,0.88695z" fill="#e1e2db" stroke="none" stroke-width="0.5" stroke-linecap="butt"/><path d="M115.04708,427.51713l-1.32357,-17.07983c0,0 1.36343,10.64926 4.47978,16.88403c1.16699,2.33476 1.38559,3.30166 1.11776,3.50901c-0.63003,0.48777 -4.27398,-3.31321 -4.27398,-3.31321z" fill="#3a2f41" stroke="#000000" stroke-width="0" stroke-linecap="round"/></g><path d="M98.42047,385.07387c0.52691,0.16151 -0.91623,2.27817 -1.95874,5.67913c-1.04252,3.40095 -1.67429,6.66948 -2.20121,6.50796c-0.52691,-0.16151 -0.74942,-3.69189 0.29308,-7.09285c1.04251,-3.40096 3.33995,-5.25576 3.86685,-5.09424z" data-paper-data="{&quot;index&quot;:null}" fill="#3a2f41" stroke="none" stroke-width="0" stroke-linecap="butt"/><path d="M110.91144,387.29208c0.54603,0.07465 -0.53786,2.39588 -1.01977,5.92024c-0.48191,3.52435 -0.57974,6.85194 -1.12578,6.77728c-0.54603,-0.07465 -1.33349,-3.52327 -0.85159,-7.04764c0.48191,-3.52436 2.4511,-5.72454 2.99712,-5.64988z" data-paper-data="{&quot;index&quot;:null}" fill="#3a2f41" stroke="none" stroke-width="0" stroke-linecap="butt"/><path d="M90.10064,378.65042c0.48362,0.26426 -1.35603,2.04713 -3.06175,5.16864c-1.70573,3.12151 -2.98247,6.19597 -3.46609,5.93171c-0.48362,-0.26426 0.00903,-3.76717 1.71474,-6.88869c1.70572,-3.12151 4.32948,-4.47592 4.81309,-4.21166z" data-paper-data="{&quot;index&quot;:null}" fill="#3a2f41" stroke="none" stroke-width="0" stroke-linecap="butt"/></g></g><path d="M21.32978,354.9985c0,0 -44.20159,-31.09506 -8.25257,-90.55487c13.44076,-22.23107 35.83542,-43.52604 51.1968,-61.49281c17.14464,-20.0525 29.09841,-36.66605 29.09841,-36.66605l13.95736,-1.28626l9,17l-6.82615,20.22188c0,0 -42.05103,39.30365 -50.25934,53.57896c-3.0545,5.31217 -9.53181,23.01474 -10.04125,28.55529c-1.47092,15.99721 10.12674,18.64386 10.12674,18.64386c0,0 -18.12486,5.62795 -27.35101,16.74349c-15.30222,18.43591 -10.64899,35.25651 -10.64899,35.25651z" fill="#e1e2db" stroke="#3a2f41" stroke-width="2" stroke-linecap="butt"/></g><g><path d="M171.34725,57.97854c32.53543,-9.53983 46.26505,-9.44932 53.82802,-1.00801c14.77333,16.48903 -4.46235,43.65483 0.73997,69.65865c3.44025,17.19602 1.84868,34.1347 -6.90737,35.38257c-9.56607,1.36332 -22.21118,-14.27036 -22.65381,-32.5425c-0.34834,-14.3798 10.15033,-34.28774 7.27485,-45.51607c-2.72068,-10.62387 -23.38573,-10.95139 -24.01262,-11.50001c0,0 -16.83693,-11.96239 -8.26905,-14.47461z" data-paper-data="{&quot;index&quot;:null}" fill="#3a2f41" stroke="#3a2f41" stroke-width="2.5" stroke-linecap="butt"/><path d="M217.46761,58.64444c18.40499,-3.35705 42.48236,-1.85112 43.21323,2.15588c0.73087,4.00699 -25.38042,10.85542 -43.7854,14.21247c-18.40499,3.35705 -23.56331,5.26166 -24.29418,1.25468c-0.73087,-4.00699 6.46137,-14.26597 24.86636,-17.62302z" fill="#8c9ca0" stroke="#3a2f41" stroke-width="2" stroke-linecap="butt"/><g stroke-linecap="butt"><path d="M121.53318,86.51542c2.49688,-6.26778 9.26785,-15.01423 20.03047,-18.4649c13.77771,-4.41735 34.94685,-8.33568 43.35505,-4.9861c7.52487,2.99768 11.72172,21.61273 22.27229,37.55419c10.44767,15.78601 34.53407,19.89423 34.53407,19.89423c0,0 -11.29727,18.76808 -31.76275,26.02663c-12.16197,4.31351 -27.71483,3.68667 -45.63904,-4.95892c-14.88652,-6.18694 -44.16229,-51.62057 -42.79008,-55.06513z" fill="#3a2f41" stroke="#626171" stroke-width="1.5"/><path d="M144.77882,65.53473c1.4604,1.02725 40.25988,29.29634 50.00207,52.93252c1.78754,4.33688 17.51534,13.34983 26.87599,14.01443c7.19497,0.51083 8.94897,-7.17681 7.97473,-5.76365c-21.50429,28.34678 -89.17981,38.92921 -119.32071,18.07763c-16.73704,-11.57875 -25.43882,-44.59396 -9.4382,-64.76497z" data-paper-data="{&quot;index&quot;:null}" fill="#3a2f41" stroke="#3a2f41" stroke-width="2.5"/><path d="M101.04817,80.92369c11.42116,-17.86926 43.94647,-29.69916 49.87856,-21.88328c1.42978,1.88383 -9.6419,61.05999 -22.38979,70.9263c-8.18112,6.33181 -6.74637,18.15876 -16.32836,14.93558z" data-paper-data="{&quot;index&quot;:null}" fill="#3a2f41" stroke="#3a2f41" stroke-width="2.5"/><path d="M129.92905,81.55317c0.59044,-6.72093 -18.80958,-13.13353 -9.49252,-19.53145c25.78729,-25.16712 58.11684,-15.33799 85.79956,7.72791c14.54335,12.11787 40.74441,14.74359 40.74441,14.74359c0,0 -11.63754,17.25757 -29.07843,30.87801c-8.79086,6.86521 -18.00366,7.98063 -31.16399,6.6281c-16.03653,-1.64814 -57.13352,-36.75259 -56.80903,-40.44619z" fill="#3a2f41" stroke="#626171" stroke-width="1.5"/><g data-paper-data="{&quot;index&quot;:null}"><path d="M182.1805,120.62278c0,0 5.87175,-1.6146 10.11796,-2.11081c5.91731,-0.69151 12.61077,-0.01996 14.4513,0.22364c4.91742,0.65085 8.42034,6.2491 8.18464,11.1657c-0.13781,2.87498 -2.35382,4.40817 -4.13666,6.69609c-2.20307,2.82721 -8.80065,2.02637 -8.80065,2.02637l-1.09041,12.8081c0,0 1.71021,2.3257 1.09839,3.69164c-0.69948,1.56164 -4.06572,2.82831 -7.37823,3.22059c-8.968,1.06201 -38.15205,-1.63482 -44.919,-1.67845c-30.55781,-0.19694 -36.02124,-22.73454 -35.52951,-40.96527c0.49172,-18.23074 8.63038,-41.27986 43.8985,-39.32249z" fill="#7c7984" stroke="none" stroke-width="0"/><path d="M183.62972,120.06387c0.15488,9.25398 -7.82153,3.98073 -26.87329,3.61161c-19.04795,-0.36904 -44.36248,10.30574 -43.87074,-7.92498c0.49172,-18.23074 10.06552,-41.31971 45.33365,-39.36235c0,0 21.05293,25.00288 24.63381,31.15775c1.07148,1.84168 0.77658,12.51798 0.77658,12.51798z" fill="#626171" stroke="none" stroke-width="0"/><path d="M163.45302,77.89821c20.90584,4.10342 19.93343,41.98492 19.93343,41.98492c0,0 12.34223,-2.28191 21.84219,-0.95877c7.53307,1.0492 10.29814,6.29153 9.46118,12.33538c-0.49274,3.5582 -4.69609,6.03286 -6.98682,6.90103c-2.81225,1.06582 -6.60906,0.51215 -6.60906,0.51215c0,0 -2.36738,12.03828 -0.94144,12.44925c0.54438,0.1569 4.17555,1.73859 1.07357,4.70195c-1.47383,1.40796 -5.43512,2.12503 -8.63245,2.47653c-7.33017,0.80584 -37.91577,-1.32265 -42.74417,-1.35378c-30.55779,-0.19696 -36.60147,-22.63309 -36.10973,-40.86382c0.41738,-15.4744 5.59038,-34.57785 30.09189,-38.70433" fill="none" stroke="#3a2f41" stroke-width="2"/><path d="M143.80971,77.47357c0.80268,-0.08434 1.59286,-0.15665 2.37071,-0.21722" fill="none" stroke="#3a2f41" stroke-width="2"/></g><path d="M142.77295,96.20911c0.36924,-4.20296 -1.90259,-22.40659 4.12982,-26.38949c7.72235,-5.09866 24.95598,0.54217 30.80798,1.05628c5.23718,0.46009 11.35098,10.8783 20.90605,18.56346c9.46188,7.61021 29.2768,12.04872 29.2768,12.04872c0,0 -17.1264,20.8932 -47.45201,15.51844c-10.40914,-1.0641 -37.87156,-18.4876 -37.66865,-20.79742z" fill="#3a2f41" stroke="#626171" stroke-width="1.5"/><path d="M135.36098,64.95432c7.19114,-0.7353 13.25242,2.63941 16.19878,5.65936c1.14486,1.17345 6.73158,6.98232 -0.22479,19.43941c-2.8824,5.16165 -7.99214,15.98887 -16.34659,20.92398c-22.06115,13.03184 -35.55296,12.64951 -35.55296,12.64951c0,0 2.10077,-11.0226 4.60817,-22.9035c2.5321,-11.99791 0.67011,-23.93316 4.43318,-27.60458c4.20479,-4.10239 17.67852,-7.22289 26.88423,-8.1642z" data-paper-data="{&quot;index&quot;:null}" fill="#3a2f41" stroke="#3a2f41" stroke-width="2.5"/><path d="M137.0699,68.84586c0.35741,-4.06832 10.80159,-6.47426 23.32771,-5.37384c5.4341,0.47739 9.70751,-2.83365 16.09943,2.26621c8.3421,6.65581 14.83879,21.08248 25.97638,27.99736c3.02652,2.74209 -30.84396,-14.4305 -43.37008,-15.53092c-12.52612,-1.10041 -22.39081,-5.29052 -22.03342,-9.35883z" fill="#3a2f41" stroke="none" stroke-width="0"/><path d="M125.29015,63.84594c3.42781,-2.45995 9.9846,-4.72618 16.9374,-2.74832c8.90059,2.53196 21.62384,7.95388 25.04897,12.72657c3.06528,4.2713 -0.84915,15.69908 -0.44773,27.95469c0.39749,12.13608 10.49431,23.85193 10.49431,23.85193c0,0 -23.3019,-2.47172 -42.75295,-19.15043c-7.36604,-6.31616 -10.50973,-17.86843 -12.44803,-23.45358c-4.67787,-13.47915 1.83609,-18.225 3.16802,-19.18085z" data-paper-data="{&quot;index&quot;:null}" fill="#3a2f41" stroke="#3a2f41" stroke-width="2.5"/></g><g data-paper-data="{&quot;index&quot;:null}" stroke="#3a2f41"><path d="M137.73978,-5.70712c0,0 12.09902,31.37347 10.82244,55.75655" fill="none" stroke-width="2" stroke-linecap="round"/><g><path d="M134.24086,-35.75588c7.4222,14.05617 7.81351,25.81767 3.45612,28.11854c-4.3574,2.30088 -13.60934,-5.43283 -21.03153,-19.48899c-7.4222,-14.05617 -5.84661,-31.41287 -5.84661,-31.41287c0,0 15.99982,8.72717 23.42204,22.78334z" fill="#e3264b" stroke-width="2" stroke-linecap="butt"/><path d="M118.44343,-45.64067c14.42506,17.66144 16.39565,31.05013 16.39565,31.05013" fill="none" stroke-width="1.5" stroke-linecap="round"/><path d="M135.84879,-21.30768l-2.36789,3.52865l-3.11121,-0.96095" fill="none" stroke-width="1.5" stroke-linecap="round"/><path d="M131.93718,-29.33186l-1.21547,3.2456l-3.62021,-0.69217" fill="none" stroke-width="1.5" stroke-linecap="round"/><path d="M127.50228,-37.7307l-1.46998,3.37998l-3.60595,-0.04875" fill="none" stroke-width="1.5" stroke-linecap="round"/><path d="M122.46681,-44.18499l-0.84084,2.7223l-2.82813,0.19149" fill="none" stroke-width="1.5" stroke-linecap="round"/></g></g><path d="M92.48434,98.55152l1.5933,-7.62874l33.50278,-7.49687l0.6729,3.68914z" fill="#e1e2db" stroke="#3a2f41" stroke-width="2" stroke-linecap="butt"/><path d="M126.83513,89.84941l-3.90777,-7.91505c0,0 84.76873,-37.39025 123.16322,-33.59131c5.82311,0.57617 17.70229,12.97259 13.18569,12.82091c-55.68945,-1.8701 -132.44114,28.68545 -132.44114,28.68545z" fill="#e1e2db" stroke="#3a2f41" stroke-width="2" stroke-linecap="butt"/><g data-paper-data="{&quot;index&quot;:null}" stroke="#3a2f41" stroke-width="1"><path d="M201.56371,142.50789c0.38481,2.48794 -1.44332,6.19954 -0.92975,7.65013c0.86602,2.44609 -1.6273,2.7868 -7.07727,3.16431c-2.66567,0.18465 -6.07976,0.01365 -9.82674,0.77372c-2.55237,0.51775 -5.30544,2.10905 -7.90088,2.03019c-5.38042,-0.16349 -10.13652,-2.66047 -15.39119,-2.40489c-3.30871,0.16093 -6.92007,0.61414 -9.85257,0.41641c-3.55651,-0.2398 -6.52063,-1.81538 -9.29763,-2.48001c-2.09697,-0.50189 -4.16637,-0.42056 -5.61556,-1.39604c-4.84991,-3.26457 -5.84281,-11.81949 0.81806,-15.75479c0.95033,-0.56147 3.85215,-1.3583 7.58792,-1.3472c3.56359,0.0106 8.02966,0.74033 12.95002,1.17886c2.62488,0.23395 5.51617,-1.51856 8.32469,-1.50814c3.7161,0.01379 7.32691,2.5641 10.99633,2.83193c2.29085,0.1672 5.34623,-0.44978 8.26946,-0.27587c3.5997,0.21415 7.25583,1.46715 10.45028,1.92909c2.70448,0.39111 5.09433,-0.01079 6.67043,0.24821c1.73494,0.2851 0.35456,1.56606 0.35456,1.56606z" fill="#626171" stroke-linecap="butt"/><path d="M162.02149,135.05249c1.96579,0.08835 3.33481,4.21879 3.05779,9.2256c-0.27702,5.00682 -2.09516,8.99401 -4.06096,8.90568c-1.96579,-0.08835 -3.3348,-4.21879 -3.05778,-9.22561c0.27702,-5.00682 2.09515,-8.994 4.06096,-8.90567z" fill="#e1e2db" stroke-linecap="butt"/><path d="M154.83712,134.37958c1.96579,0.08835 3.33482,4.21878 3.05781,9.22558c-0.27702,5.00682 -2.09516,8.99402 -4.06096,8.90568c-1.96579,-0.08835 -3.33481,-4.21879 -3.05779,-9.22561c0.27702,-5.00682 2.09516,-8.994 4.06096,-8.90567z" fill="#e1e2db" stroke-linecap="butt"/><path d="M147.36058,133.80599c1.96579,0.08835 3.33481,4.21879 3.05779,9.22559c-0.27702,5.00682 -2.09516,8.99401 -4.06096,8.90568c-1.96579,-0.08835 -3.3348,-4.21879 -3.05778,-9.22561c0.27702,-5.00682 2.09516,-8.99401 4.06097,-8.90568z" fill="#e1e2db" stroke-linecap="butt"/><path d="M140.53102,134.74173c1.64414,0.07389 2.78918,3.52851 2.55748,7.71614c-0.23167,4.18762 -1.75236,7.52246 -3.39651,7.44856c-1.64414,-0.07389 -2.78917,-3.52852 -2.55748,-7.71615c0.23169,-4.18762 1.75236,-7.52245 3.3965,-7.44856z" fill="#e1e2db" stroke-linecap="butt"/><path d="M165.14094,144.07583c0.26991,-4.87812 2.04131,-8.76284 3.95657,-8.67677c1.91527,0.08608 3.2491,4.11036 2.9792,8.98846c-0.26989,4.87811 -2.0413,8.76283 -3.95657,8.67675c-1.91525,-0.08607 -3.24908,-4.11034 -2.97919,-8.98844z" fill="#e1e2db" stroke-linecap="butt"/><path d="M135.4221,135.71237c1.20159,0.054 1.76353,2.40597 1.5942,5.46635c-0.16933,3.06038 -0.78141,5.61657 -1.98298,5.56258c-1.20159,-0.054 -2.53761,-2.69776 -2.36829,-5.75812c0.16932,-3.06037 1.5555,-5.3248 2.75706,-5.27081z" fill="#e1e2db" stroke-linecap="butt"/><path d="M172.81771,144.41851c0.25157,-4.54658 1.90257,-8.16727 3.68767,-8.08705c1.78508,0.08022 3.02826,3.83097 2.77672,8.37756c-0.25157,4.54657 -1.90259,8.16726 -3.68767,8.08704c-1.78508,-0.08022 -3.02826,-3.83098 -2.77672,-8.37757z" fill="#e1e2db" stroke-linecap="butt"/><path d="M179.52655,144.81714c0.23687,-4.28133 1.79158,-7.69082 3.47253,-7.61527c1.68096,0.07555 2.85159,3.6075 2.61473,7.88884c-0.23687,4.28133 -1.79159,7.69082 -3.47254,7.61527c-1.68095,-0.07555 -2.85157,-3.6075 -2.6147,-7.88884z" fill="#e1e2db" stroke-linecap="butt"/><path d="M189.17841,137.42878c1.68095,0.07557 2.85161,3.60752 2.61473,7.88885c-0.23687,4.28133 -1.79157,7.69081 -3.47253,7.61527c-1.68096,-0.07555 -2.8516,-3.6075 -2.61473,-7.88883c0.23687,-4.28133 1.79158,-7.69083 3.47254,-7.61529z" fill="#e1e2db" stroke-linecap="butt"/><path d="M192.55918,144.67193c0.21853,-3.94981 1.65283,-7.09526 3.20361,-7.02556c1.55079,0.0697 2.63078,3.32815 2.41225,7.27795c-0.21854,3.94981 -1.65284,7.09525 -3.20362,7.02555c-1.55078,-0.0697 -2.63077,-3.32813 -2.41224,-7.27792z" fill="#e1e2db" stroke-linecap="butt"/><path d="M198.96068,144.27872c0.20019,-3.61826 1.5141,-6.49969 2.9347,-6.43583c1.42062,0.06386 0.69565,13.16673 -0.72495,13.10288c-1.42062,-0.06385 -2.40995,-3.04878 -2.20977,-6.66703z" fill="#e1e2db" stroke-linecap="butt"/><path d="M202.54686,144.84407c0,0 -8.68148,0.21053 -29.44312,-0.50647c-23.02788,-0.79526 -40.25424,-4.37269 -40.25424,-4.37269" fill="none" stroke-linecap="round"/></g><g data-paper-data="{&quot;index&quot;:null}" fill="none" stroke-opacity="0.33191" stroke="#890000" stroke-width="1.5"><path d="M106.11177,105.15373c1.6955,-7.27514 10.81193,-14.12851 20.3621,-15.30745c9.55017,-1.17894 15.91764,3.76299 14.22214,11.03813c-1.6955,7.27514 -10.81193,14.12851 -20.3621,15.30745c-9.55017,1.17894 -15.91764,-3.76299 -14.22214,-11.03813z" stroke-linecap="butt"/><path d="M115.34832,108.15661l6.16431,-6.00173l5.19885,2.4448l-5.14692,-2.55554c0,0 7.32959,-7.30205 8.03877,-7.0329c0.58113,0.22054 -4.61305,15.5328 -4.61305,15.5328" stroke-linecap="round"/><path d="M116.9057,97.4147l1.68799,0.77104c0,0 -1.79102,2.34006 -1.2001,1.55129c0.19001,-0.25363 2.39652,-3.16507 2.66553,-3.5082c0.29944,-0.38196 -1.33741,1.81341 -1.12047,1.75306c0.48593,-0.13518 1.65581,0.55346 1.65581,0.55346" stroke-linecap="round"/></g><path d="M115.15786,75.13656c-0.66149,0.50637 -21.3036,-0.52079 -24.71451,9.90199c-3.60499,11.01579 5.56674,31.56885 4.27698,45.89492c-1.63887,18.20388 -15.28113,32.97544 -24.73733,30.98829c-8.65547,-1.8189 -9.13379,-18.82544 -4.57424,-35.75911c6.89494,-25.60708 -10.51949,-53.97485 5.30246,-69.46049c8.0998,-7.92763 21.80584,-7.11838 53.64631,4.53269c8.38487,3.06819 -9.19967,13.90171 -9.19967,13.90171z" fill="#3a2f41" stroke="#3a2f41" stroke-width="2.5" stroke-linecap="butt"/><path d="M212.23586,116.08077c0.31135,-0.58144 0.77077,-0.92846 0.77077,-0.92846l2.24879,-1.59719c1.17606,-0.40403 2.34004,-1.57909 3.52818,-1.21209c0.33682,0.10404 0.65227,0.24851 0.95197,0.42279l0.0792,-0.15719l2.27021,1.14378c0.90324,0.4294 7.32304,4.00608 7.24686,5.06372c-0.05663,0.78619 -6.29742,-1.1642 -6.89884,-0.74811c0.18592,0.38218 0.27678,0.81695 0.24405,1.27134c-0.0992,1.37714 -1.29601,2.41312 -2.67316,2.31392c-1.86185,-0.13411 -6.31696,-0.45503 -8.17881,-0.58914c0,0 -2.49354,-0.17962 -2.31392,-2.67316c0.17962,-2.49354 2.67316,-2.31392 2.67316,-2.31392c0.01718,0.00124 0.03436,0.00248 0.05154,0.00371z" fill="#3a2f41" stroke="none" stroke-width="0.5" stroke-linecap="butt"/><path d="M215.30196,126.73845c-3.73693,2.02975 -7.95132,0.39878 -8.95302,-1.44542c-0.54038,-0.99488 0.89648,-3.02147 1.54317,-5.09504c0.55208,-1.77021 1.11997,-3.53202 2.84097,-4.46681c3.73693,-2.02975 7.13141,0.54476 8.13311,2.38896c1.0017,1.84419 0.1727,6.58854 -3.56422,8.61831z" fill="#3a2f41" stroke="#626171" stroke-width="0.5" stroke-linecap="butt"/><g data-paper-data="{&quot;index&quot;:null}" stroke-linecap="butt"><path d="M122.18477,124.90602c0,0 7.77233,-33.25541 18.85883,-31.18795c11.08652,2.06746 13.11922,33.63003 13.11922,33.63003c0,0 -7.5451,-1.51206 -15.43562,-2.25512c-8.73724,-0.82281 -16.54244,-0.18696 -16.54244,-0.18696z" data-paper-data="{&quot;index&quot;:null}" fill="#e1e2db" stroke="#3a2f41" stroke-width="1"/><path d="M124.66614,125.02948c0,0 6.17812,-27.18063 13.427,-26.76616c7.2489,0.41447 9.16359,27.56994 9.16359,27.56994c0,0 -7.51457,-1.10492 -11.29417,-1.2394c-3.75036,-0.13344 -11.29643,0.43561 -11.29643,0.43561z" fill="#3a2f41" stroke="none" stroke-width="0"/></g><g data-paper-data="{&quot;index&quot;:null}" stroke-linecap="butt"><path d="M171.39094,124.66304c-5.32054,0.73586 -10.3416,2.23583 -10.3416,2.23583c0,0 -1.23473,-31.35673 6.15585,-33.40742c7.39058,-2.05069 15.45408,30.99082 15.45408,30.99082c0,0 -5.37686,-0.63406 -11.26834,0.18078z" data-paper-data="{&quot;index&quot;:null}" fill="#e1e2db" stroke="#3a2f41" stroke-width="1"/><path d="M173.23529,124.168c-2.56696,0.13247 -7.601,1.22795 -7.601,1.22795c0,0 -0.94922,-26.97832 3.96095,-27.38792c4.91016,-0.4096 11.38171,26.59614 11.38171,26.59614c0,0 -5.19455,-0.56762 -7.74166,-0.43618z" fill="#3a2f41" stroke="none" stroke-width="0"/></g><path d="M130.56036,141.07227c0,0 0.30928,-7.35192 9.4,-7.6" fill="none" stroke="#3a2f41" stroke-width="0.5" stroke-linecap="round"/></g></g></g></svg>