<svg version="1.1" xmlns="http://www.w3.org/2000/svg" xmlns:xlink="http://www.w3.org/1999/xlink" width="398.35121" height="427.36718" viewBox="0,0,398.35121,427.36718"><g transform="translate(-34.44179,-50.61288)"><g data-paper-data="{&quot;isPaintingLayer&quot;:true}" fill-rule="nonzero" stroke-linejoin="miter" stroke-miterlimit="10" stroke-dasharray="" stroke-dashoffset="0" style="mix-blend-mode: normal"><path d="M219.78976,180.89532c0,0 -2.85945,28.11733 -17.56834,48.52822c-10.53671,14.62133 -34.9947,27.09034 -34.9947,27.09034l30.64736,-32.24446c0,0 -5.67565,6.64532 -16.77941,13.72768c-10.36569,6.61158 -25.99441,13.52223 -31.6544,17.98977c-7.31478,5.7737 -15.15087,18.47113 -15.15087,18.47113c0,0 -3.82321,-33.26869 -2.30502,-45.14008c1.2827,-10.02999 10.82735,-21.49957 10.82735,-21.49957c0,0 -8.01228,1.89787 -13.28303,3.30082c-9.92981,2.64308 -19.18426,6.8031 -19.18426,6.8031c0,0 5.08405,-8.99698 12.32854,-15.48519c10.15417,-9.09417 16.82397,-13.39977 16.82397,-13.39977c0,0 -6.166,-1.17853 -12.15254,-8.35727c-4.97233,-5.96257 -6.45042,-11.79304 -6.45042,-11.79304c0,0 28.81698,6.66468 51.0449,-17.93634c15.09015,-16.70121 47.85089,29.94467 47.85089,29.94467z" fill="#e1e2db" stroke="#3a2f41" stroke-width="2" stroke-linecap="round"/><path d="M234.78086,105.34158c0,0 -6.0837,50.15452 -10.97871,67.4519c-3.00866,10.63163 -20.1506,21.65715 -20.1506,21.65715c0,0 4.74884,-19.1426 4.48737,-18.73082c-9.09347,14.32035 -34.47782,11.62841 -34.47782,11.62841c0,0 4.86297,-6.01589 7.13762,-13.1842c1.44651,-4.5585 1.33823,-6.20877 1.17643,-6.14182c-8.51844,3.52561 -32.13205,-9.96986 -32.13205,-9.96986c0,0 21.70298,-3.21525 23.78572,-10.25055c0.95918,-3.24001 -4.79604,-36.59093 -4.13014,-39.85455c0.85043,-4.16805 20.50299,-18.14972 33.435,-24.84886c8.00555,-4.1471 21.92812,-11.0651 28.83084,-13.75079c2.84313,-1.10619 4.3491,-1.10349 4.3491,-1.10349l-1.33273,37.09749z" data-paper-data="{&quot;index&quot;:null}" fill="#3a2f41" stroke="#3a2f41" stroke-width="2" stroke-linecap="butt"/><path d="M222.65294,114.52824c-0.32294,-7.17244 12.20026,-45.84515 12.20026,-45.84515c0,0 25.24678,-6.38321 59.77173,14.00376c9.16271,5.9438 21.63867,-2.64843 21.63867,-2.64843c0,0 1.90436,12.31724 -2.73547,16.2073c-0.34792,0.2917 57.56585,19.18999 57.56585,19.18999c0,0 -23.29881,21.28058 -51.94379,28.96336c6.47983,2.6959 20.20051,5.24905 20.20051,5.24905c0,0 -15.49312,13.73174 -40.88683,13.55302c-0.15053,-0.02183 6.88911,12.0825 6.88911,12.0825c0,0 -13.93547,3.83788 -29.38157,-3.91654c-24.82944,-12.46515 -53.18846,-53.95126 -53.31848,-56.83887z" data-paper-data="{&quot;index&quot;:null}" fill="#e1e2db" stroke="#3a2f41" stroke-width="2" stroke-linecap="butt"/><g data-paper-data="{&quot;index&quot;:null}" stroke-linecap="butt"><path d="M287.60902,139.60363c-0.13389,8.96106 4.01399,16.72574 -3.22439,22.46232c-7.03644,5.57651 -22.23457,9.1131 -38.1611,9.31031c-12.52717,0.15514 -24.81358,-1.00027 -31.62609,-4.86598c-10.52907,-5.97463 -11.95438,-16.89766 -11.79403,-27.62737c0.26406,-17.67204 13.95667,-40.03029 50.78427,-38.80993c24.22542,0.80277 33.78586,21.88112 33.52181,39.55318z" fill="#e1e2db" stroke="none" stroke-width="0"/><path d="M238.57292,101.53903c43.84243,-5.09009 48.61737,19.20515 48.37942,35.12967c0,0 5.21874,17.6402 -1.41836,23.59575c-6.95513,6.24094 -22.32607,11.44051 -39.31019,11.65082c-11.74708,0.14548 -24.15509,-1.67498 -30.85041,-5.10885c-11.47975,-5.88765 -12.7365,-16.22246 -12.5697,-27.38449c0.22414,-15.00019 10.12326,-33.37667 35.63322,-37.8442" fill="none" stroke="#3a2f41" stroke-width="2"/></g><path d="M290.40691,107.32531c12.8995,11.6633 18.77456,26.18595 13.12236,32.43725c-5.6522,6.25129 -20.69134,1.864 -33.59083,-9.79931c-12.89949,-11.6633 -18.77457,-26.18596 -13.12236,-32.43725c5.6522,-6.25129 20.69134,-1.864 33.59083,9.7993z" data-paper-data="{&quot;index&quot;:null}" fill="#e1e2db" stroke="#8c9ca0" stroke-width="2" stroke-linecap="butt"/><path d="M214.06936,105.55589c17.48928,-10.22047 35.14441,-12.55549 39.43382,-5.21543c4.28942,7.34007 -6.41119,21.57567 -23.90046,31.79614c-17.48928,10.22047 -35.14441,12.55549 -39.43382,5.21543c-4.28941,-7.34006 6.41119,-21.57568 23.90048,-31.79615z" data-paper-data="{&quot;index&quot;:null}" fill="#e1e2db" stroke="#3a2f41" stroke-width="2" stroke-linecap="butt"/><path d="M267.76153,78.21603c0.98442,0.59686 5.81124,3.58279 5.28012,17.33353c-0.22006,5.69768 -0.14356,17.28594 -3.57119,24.90577c-9.05115,20.12125 -20.26709,23.26122 -20.26709,23.26122c0,0 1.49646,-8.83856 -0.3687,-20.35194c-1.88352,-11.62677 -6.27468,-21.49307 -5.13385,-26.21035c1.27474,-5.27101 8.1491,-13.26719 13.17724,-17.67408c3.9278,-3.44247 8.34997,-2.8002 10.88346,-1.26415z" data-paper-data="{&quot;index&quot;:null}" fill="#e1e2db" stroke="#8c9ca0" stroke-width="2" stroke-linecap="butt"/><path d="M219.08112,75.13047c0.43241,-0.72629 9.14215,-5.04884 15.27834,-6.28745c15.38962,6.82446 13.20278,21.19764 13.91694,38.01739c0.16395,3.6415 -0.21063,8.47572 -1.10736,11.84561c-2.65,3.1959 -7.11538,8.18791 -15.75896,13.45834c-2.7413,1.67151 -5.88098,2.51565 -9.40805,3.55006c-2.37685,0.69707 -4.92963,1.48057 -7.655,2.66191c-1.30943,0.56758 -10.55862,2.43743 -10.55862,2.43743l-2.78295,7.82699c0,0 -15.71595,21.33863 -16.28516,19.98517c-1.09259,-2.59794 3.68001,-43.35356 5.32656,-48.39465c6.20578,-18.99965 27.61219,-42.71236 29.03426,-45.10078z" data-paper-data="{&quot;index&quot;:null}" fill="#3a2f41" stroke="none" stroke-width="0" stroke-linecap="butt"/><path d="M248.11968,116.01643c0.42778,-2.84557 0.307,-5.81861 0.17173,-8.82304c-0.75462,-15.93732 -13.81115,-37.71628 -13.81115,-37.71628c0,0 7.76265,-1.05295 11.80298,-0.90686c8.74334,0.31614 17.6258,5.0916 21.84096,7.4475c10.38743,5.80569 19.08447,23.42228 25.21928,27.07492c12.29882,7.32269 21.2197,25.7331 17.14774,32.57216c-4.07196,6.83906 -8.00796,10.17886 -21.37355,5.05605c-4.34602,-1.66576 -9.79751,-4.76477 -15.04368,-8.67855c-7.99352,-5.96337 -15.424,-13.82219 -23.49815,-21.12547c-0.37877,-0.34262 -0.04693,1.54488 -2.45615,5.09955z" data-paper-data="{&quot;index&quot;:null}" fill="#e1e2db" stroke="none" stroke-width="0" stroke-linecap="butt"/><path d="M208.33532,151.17499c0,0 5.75718,-6.08837 16.64636,-6.51548c11.53709,-0.45252 17.94084,6.40915 17.94084,6.40915c0,0 -7.34361,-0.24717 -17.85588,-0.08503c-9.34126,0.14407 -16.73128,0.19135 -16.73128,0.19135z" fill="#e1e2db" stroke="#3a2f41" stroke-width="1" stroke-linecap="butt"/><path d="M209.80967,86.09227l-36.68984,-5.14176l4.13326,-29.48878l23.3686,3.33981l-2.68723,17.9675l-12.46426,-1.36913l0.8613,-8.65897l8.29754,1.03302l-0.65649,3.58389l-4.72607,-0.74492" data-paper-data="{&quot;index&quot;:null}" fill="none" stroke="#3a2f41" stroke-width="1.5" stroke-linecap="round"/><text transform="translate(258.29004,112.97889) rotate(5.60045) scale(0.5,0.5)" font-size="40" xml:space="preserve" data-paper-data="{&quot;index&quot;:null}" fill="#525585" fill-rule="nonzero" stroke="none" stroke-width="1" stroke-linecap="butt" stroke-linejoin="miter" stroke-miterlimit="10" stroke-dasharray="" stroke-dashoffset="0" font-family="Handwriting" font-weight="normal" text-anchor="start" style="mix-blend-mode: normal"><tspan x="0" dy="0">2 + 2 = 8</tspan></text><path d="M374.45939,268.74137l31.53159,-14.37877l-7.13562,21.01271l25.76627,-4.23661l-16.87586,21.43493l22.27242,18.30736l-62.36821,0.30684l-13.37936,13.98652l0.61555,-35.65255l-77.14068,-53.04246l7.42237,-17.29076z" data-paper-data="{&quot;index&quot;:null}" fill="#3a2f41" stroke="#3a2f41" stroke-width="2" stroke-linecap="butt"/><path d="M308.77068,349.51357c0,0 -25.77306,6.5 -62.5,6.5c-36.72694,0 -65.83333,-3.83333 -65.83333,-3.83333c0,0 26.1064,-49.83333 62.83333,-49.83333c41.3936,0 65.5,47.16667 65.5,47.16667z" fill="#8c9ca0" stroke="#3a2f41" stroke-width="2.5" stroke-linecap="butt"/><g stroke="#3a2f41" stroke-width="2.5"><path d="M66.60551,369.04949l11.69586,18.55054l-32.02043,-5.32342z" fill="#e1e2db" stroke-linecap="butt"/><path d="M96.88305,365.5037l23.62315,15.80105l-40.71779,10.56995z" fill="#e1e2db" stroke-linecap="butt"/><path d="M127.01047,353.30272l28.15738,7.96315l-33.86548,23.05165z" fill="#e1e2db" stroke-linecap="butt"/><path d="M158.532,328.58227l28.10449,1.82267c0,0 -7.92934,18.65772 -13.491,23.74243c-3.96936,3.62896 -16.74405,3.89976 -16.74405,3.89976z" fill="#e1e2db" stroke-linecap="butt"/><g><path d="M35.69179,375.29802c0,0 74.01752,44.92443 152.42522,-49.43228c29.89732,-35.97877 68.125,16.30429 68.125,16.30429c0,0 -33.00315,67.60753 -104.65926,81.60255c-71.65611,13.99502 -115.89097,-48.47457 -115.89097,-48.47457z" fill="#e1e2db" stroke-linecap="butt"/><path d="M245.68055,331.58333c0,0 -71.0209,112.1167 -152.0232,87.27799" fill="none" stroke-linecap="round"/></g></g><g fill="#3a2f41" stroke="#3a2f41" stroke-width="2" stroke-linecap="butt"><g data-paper-data="{&quot;index&quot;:null}"><path d="M132.1445,474.48267l37.68628,-34.64388l12.08708,-64.46238l47.05177,9.57132l-24.41323,89.36248l-5.48275,0.01306c0,0 -0.51081,-5.472 -1.42753,-5.58869c-1.41658,-0.18031 -4.15414,5.60198 -4.15414,5.60198z"/><path d="M207.20098,414.87422l1.3171,-5.56168l22.51425,2.56769l-1.93691,8.17895z"/><path d="M228.12991,424.13608l-1.93691,8.17895l-21.27462,-7.80224l1.3171,-5.56168z" data-paper-data="{&quot;index&quot;:null}"/></g><path d="M190.96606,402.56316l18.43544,-77.84687l23.0297,5.45382l-18.43544,77.84687z"/></g><g fill="#3a2f41" stroke="#3a2f41" stroke-linecap="butt"><g data-paper-data="{&quot;index&quot;:null}" stroke-width="2.5"><path d="M293.26074,474.01792c0,0 -2.50618,-5.88627 -3.9288,-5.76225c-0.92063,0.08025 -1.64796,5.5277 -1.64796,5.5277l-5.47792,-0.2304l-20.85144,-90.26005l47.39423,-7.69852l9.5221,64.89088l36.28326,36.11065z"/><path d="M259.83709,418.37178l-1.61116,-8.24931l22.59834,-1.67315l1.09559,5.60953z"/><path d="M282.7229,418.17082l1.09559,5.60953l-21.5672,6.95271l-1.61116,-8.24931z" data-paper-data="{&quot;index&quot;:null}"/></g><path d="M274.94105,407.02769l-15.33486,-78.51651l23.2278,-4.53656l15.33486,78.51651z" stroke-width="2"/></g><g><g fill="#e1e2db" stroke="#3a2f41" stroke-width="2.5"><path d="M173.53807,323.24267l26.1501,-9.85806l-13.42656,35.30805z" stroke-linecap="butt"/><g><path d="M192.91257,263.77693l22.78998,-14.65467c0,0 5.81461,17.20006 4.78245,23.81109c-0.73665,4.71829 -10.3936,12.1286 -10.3936,12.1286z" stroke-linecap="butt"/><path d="M184.78006,291.54192l27.22492,-9.49967l-12.9733,34.41429z" stroke-linecap="butt"/><g stroke-linecap="round"><path d="M276.43442,272.96864l33.49401,75.14914c0,0 -28.19212,-6.22581 -59.69068,-6.04068c-46.94478,0.27592 -66.93468,8.78917 -66.93468,8.78917l29.48694,-78.20302l-1.02678,-57.29516l61.49851,-3.9031l18.37269,35.6535z"/></g></g></g><path d="M248.52067,283.24508c18.89894,4.29518 31,9.74207 31,9.74207l-2,2.65693c0,0 -23.59691,-9.69977 -55,-11.95617" fill="none" stroke="#8c9ca0" stroke-width="1.5" stroke-linecap="round"/></g><path d="M216.71594,217.6629l7.5589,17.23151l-76.7187,53.65098l0.89755,35.64659l-13.48957,-13.88026l-62.36868,0.1865l22.1269,-18.48296l-17.04487,-21.30078l25.79897,4.03267l-7.3016,-20.95562l31.64433,14.1289z" fill="#3a2f41" stroke="#3a2f41" stroke-width="2" stroke-linecap="butt"/><g><path d="M180.33736,231.81359c0,0 36.50755,-54.67705 66,-55c29.44882,-0.32248 69,49 69,49c0,0 -23.57995,22.53134 -65.00027,22.98831c-41.58564,0.45879 -69.99973,-16.98831 -69.99973,-16.98831z" fill="#e1e2db" stroke="none" stroke-width="0" stroke-linecap="butt"/><path d="M228.20739,231.23338c-4.57627,8.56041 -14.33465,12.10692 -21.79596,7.92134c-7.46131,-4.18558 -9.80009,-14.51824 -5.22383,-23.07865c4.57627,-8.56041 14.33465,-12.10692 21.79596,-7.92134c7.46131,4.18558 9.80009,14.51824 5.22383,23.07865z" fill="none" stroke="#525585" stroke-width="1.5" stroke-linecap="butt"/><path d="M206.89184,219.40472l2,-4.5" fill="none" stroke="#525585" stroke-width="1.5" stroke-linecap="round"/><path d="M221.39184,216.90472l-1,4.5" fill="none" stroke="#525585" stroke-width="1.5" stroke-linecap="round"/><path d="M222.39184,227.90472c0,0 -2.56077,9.62481 -12.32833,7.27897c-9.21317,-2.2127 -7.17167,-12.77897 -7.17167,-12.77897" fill="none" stroke="#525585" stroke-width="1.5" stroke-linecap="round"/><path d="M240.89184,240.90472v-14.5l8.5,-12l10.79185,-1.97425l8.70815,9.97425v14z" fill="none" stroke="#525585" stroke-width="1.5" stroke-linecap="butt"/><path d="M241.39184,227.40472l28,-4.5" fill="none" stroke="#525585" stroke-width="1.5" stroke-linecap="round"/><path d="M256.39184,224.90472l-6.5,-10" fill="none" stroke="#525585" stroke-width="1.5" stroke-linecap="round"/><path d="M283.72708,208.86017c5.38906,-5.00977 10.08635,3.64455 10.08635,3.64455c0,0 2.0266,-5.44835 6.24766,-3.14293c4.17032,2.27771 1.979,7.34293 1.979,7.34293c0,0 4.36514,1.74693 4.25354,5.4776c-0.16421,5.48974 -6.2871,3.4224 -6.2871,3.4224c0,0 2.5856,4.35165 -0.92434,7.3c-4.65366,3.90907 -9.05856,-2.3 -9.05856,-2.3c0,0 -1.40681,6.93374 -5.99892,4.87319c-5.21081,-2.33818 -0.74878,-7.57319 -0.74878,-7.57319c0,0 -6.31915,1.39853 -6.30218,-3.51363c0.02237,-6.47471 5.68705,-6.48637 5.68705,-6.48637c0,0 -4.32278,-4.03478 1.06628,-9.04455z" fill="none" stroke="#855252" stroke-width="1.5" stroke-linecap="round"/><path d="M180.33736,231.8136c0,0 36.50755,-54.67705 66,-55c29.44882,-0.32248 69,49 69,49c0,0 -23.57995,22.53134 -65.00027,22.98831c-41.58564,0.45879 -69.99973,-16.98831 -69.99973,-16.98831z" fill="none" stroke="#3a2f41" stroke-width="2" stroke-linecap="butt"/></g><path d="M228.51155,147.55163c0.23104,1.44282 -0.92503,2.73718 -2.58217,2.89108c-1.65714,0.15388 -3.18781,-0.89102 -3.41886,-2.33384c-0.23104,-1.44282 0.92503,-2.73718 2.58217,-2.89108c1.65714,-0.15387 3.18781,0.89102 3.41887,2.33384z" fill="#3a2f41" stroke="#3a2f41" stroke-width="2" stroke-linecap="butt"/><g data-paper-data="{&quot;index&quot;:null}" stroke="#3a2f41"><path d="M264.3428,158.90251c0,0 -14.40993,23.55594 -26.47025,21.87969c-11.48608,-1.59638 -2.99703,-24.33432 -2.99703,-24.33432z" fill="#3a2f41" stroke-width="1" stroke-linecap="round"/><path d="M245.62861,157.75871l-8.75028,10.86166l-0.22523,-11.57091z" data-paper-data="{&quot;index&quot;:null}" fill="#ffffff" stroke-width="1.25" stroke-linecap="butt"/></g><path d="M241.12223,146.77958l-26.22125,-5.1395" fill="none" stroke="#3a2f41" stroke-width="1" stroke-linecap="round"/></g></g></svg>