<svg version="1.1" xmlns="http://www.w3.org/2000/svg" xmlns:xlink="http://www.w3.org/1999/xlink" width="363.95517" height="469.94604" viewBox="0,0,363.95517,469.94604"><g transform="translate(-99.36562,54.348)"><g data-paper-data="{&quot;isPaintingLayer&quot;:true}" fill-rule="nonzero" stroke-linejoin="miter" stroke-miterlimit="10" stroke-dasharray="" stroke-dashoffset="0" style="mix-blend-mode: normal"><g><g data-paper-data="{&quot;index&quot;:null}"><g><g data-paper-data="{&quot;index&quot;:null}" stroke="none" stroke-width="2"><path d="M150.43359,277.916c0.6631,6.13238 1.02397,12.00345 -4.21716,12.09588c-4.38194,0.07729 -5.76236,-5.77338 -6.42547,-11.90576c-0.66311,-6.13237 0.70848,-10.37542 5.07893,-10.44176c3.13187,-0.04755 4.90058,4.11929 5.56368,10.25165z" fill="#717f8b" stroke-linecap="butt"/><path d="M149.85088,277.83687c-4.61561,2.68378 -8.67718,0.72403 -8.67718,0.72403" fill="none" stroke-linecap="round"/></g><g><path d="M139.27372,264.53487c-0.47978,-3.21844 -1.55815,-39.3489 6.83057,-82.98782c0.88007,-2.13049 7.16065,-2.50514 14.2606,-0.56808c4.08258,0.90987 11.51642,10.07581 11.51642,10.07581c0,0 -1.33858,15.0303 -1.73686,23.56741c-0.89328,19.14718 -1.03265,43.55427 -1.38677,49.27801c-0.61199,9.89118 -6.10386,16.19881 -13.74943,15.82303c-6.57613,-0.32322 -14.32671,-5.74444 -15.73451,-15.18835z" fill="#717f8b" stroke="none" stroke-width="2" stroke-linecap="butt"/><path d="M168.21233,245.60794c0,0 -11.6797,7.9062 -28.88646,-0.33682" fill="#717f8b" stroke="none" stroke-width="2" stroke-linecap="round"/><path d="M145.01993,255.63568c-0.00192,1.6699 -0.69385,3.05876 -1.54546,3.1021c-0.85161,0.04331 -1.54041,-1.27531 -1.53848,-2.94521c0.00192,-1.6699 0.69385,-3.05876 1.54546,-3.1021c0.85161,-0.04331 1.54041,1.27531 1.53848,2.94521z" fill="#e1e2db" stroke="#e1e2db" stroke-width="0.5" stroke-linecap="butt"/><path d="M145.82538,215.10293c-1.36754,13.07827 -1.50579,22.59769 -1.92952,22.56502c-0.42375,-0.03267 -0.29104,-9.87034 1.29228,-22.9035c1.58675,-13.06136 2.96613,-24.53904 3.38989,-24.50637c0.42375,0.03267 -1.38642,11.77916 -2.75261,24.84484z" fill="#f0fcff" stroke="#e1e2db" stroke-width="3" stroke-linecap="butt"/></g><g data-paper-data="{&quot;index&quot;:null}" stroke="none" stroke-width="2"><path d="M158.07279,283.26202c-0.48639,6.14148 -1.22222,11.9779 -6.40705,11.2392c-4.33488,-0.61759 -4.60812,-6.59533 -4.12172,-12.73678c0.48639,-6.14147 2.62768,-10.10105 6.9492,-9.47451c3.09682,0.44898 4.06596,4.83066 3.57956,10.97213z" fill="#717f8b" stroke-linecap="butt"/><path d="M157.51298,283.09187c-5.04991,1.91116 -8.69016,-0.66089 -8.69016,-0.66089" fill="none" stroke-linecap="round"/></g><g data-paper-data="{&quot;index&quot;:null}" stroke="none" stroke-width="2"><path d="M173.13631,275.08081c1.31063,6.04578 2.2929,11.85871 -2.9108,12.42445c-4.35064,0.47302 -6.34492,-5.22744 -7.65554,-11.27321c-1.31063,-6.04577 -0.39673,-10.39433 3.94365,-10.85542c3.11033,-0.33042 5.31207,3.65844 6.6227,9.70421z" fill="#717f8b" stroke-linecap="butt"/><path d="M172.54829,275.05469c-4.30637,3.08929 -8.55458,1.50518 -8.55458,1.50518" fill="none" stroke-linecap="round"/></g><path d="M177.66618,187.02553c-1.44527,9.12436 -9.97249,12.74498 -19.69013,11.2799c-9.71764,-1.46505 -16.39892,-8.49389 -14.95365,-17.61821c0.75004,-4.73522 6.35458,-16.00354 21.57591,-12.44868c14.87678,3.47439 13.76309,14.39786 13.06787,18.78701z" fill="#717f8b" stroke="none" stroke-width="2" stroke-linecap="butt"/></g><g stroke="none" stroke-linecap="butt"><g data-paper-data="{&quot;index&quot;:null}"><g stroke-width="0"><path d="" fill="#e1e2db"/><path d="M165.23581,127.18603l17.03216,11.35982l-11.1719,43.85982c-3.25461,2.08058 -6.60743,1.56811 -9.70478,0.65142c-3.28463,-0.97213 -8.89805,-3.98754 -10.52309,-8.13567z" fill="#cdb391"/></g><g fill="none" stroke-width="1" font-family="sans-serif" font-weight="normal" font-size="12" text-anchor="start"/></g><g data-paper-data="{&quot;index&quot;:null}"><g fill="#ac7e63" stroke-width="0"><path d="M173.66043,172.64691c-2.16856,1.05819 -17.6063,0.12996 -19.78363,-8.80124l10.87587,-36.13438l17.03216,11.35981z"/></g><g fill="none" stroke-width="1" font-family="sans-serif" font-weight="normal" font-size="12" text-anchor="start"/></g><g data-paper-data="{&quot;index&quot;:null}" fill="none" stroke-width="1" font-family="sans-serif" font-weight="normal" font-size="12" text-anchor="start"><g/><g/></g></g><g data-paper-data="{&quot;index&quot;:null}" fill="#0066a9" stroke="#0066a9" stroke-width="2" stroke-linecap="butt"><path d="M162.79581,159.67916c-7.16619,-3.24152 -12.72246,-9.38759 -11.53184,-11.48289c2.7212,-6.93527 5.03146,-16.67306 20.30438,-37.44993c7.47956,-10.17499 15.18812,-10.36356 19.14375,-5.90349c2.96645,3.34475 3.1855,9.7696 3.11537,13.99706c-0.08243,4.969 -12.45139,43.55031 -12.45139,43.55031c-1.32995,1.27812 -10.83207,0.7937 -18.58027,-2.71108z"/></g></g><path d="M170.00561,206.91708c1.3439,0.74175 2.29739,1.31472 2.8329,4.00026c0.7808,3.9156 -0.70282,7.93951 -6.29604,5.74746c-1.28855,-0.505 -1.00501,-2.57905 -1.50961,-3.86776c-0.76291,-1.94844 -1.86529,-3.93848 -3.37141,-5.4446c-2.70956,-2.70956 -5.52608,-2.72192 -9.04093,-3.90218c-3.12511,-1.04939 -5.59448,-2.50216 -7.62402,-4.66589c-0.68412,-0.21449 -1.36918,-0.41912 -1.83505,-0.93194c-1.19551,-1.31596 -3.54644,-7.66028 -0.46398,-8.94327c6.68613,-2.7829 5.22053,4.27433 7.49951,6.40773c0.49742,0.46564 1.00786,0.83372 1.52915,1.12974c0.75701,0.338 1.52798,0.63615 2.48711,0.95026c2.4091,0.58787 4.96183,0.54816 7.47467,2.02776c3.19628,1.88201 5.9281,4.62379 8.31768,7.49243z" fill="#1a1a1a" stroke="none" stroke-width="0.5" stroke-linecap="butt"/><path d="M159.51696,280.66227c-1.38153,0.73684 -2.11862,1.86207 -4.06731,2.70466c-2.59299,1.12119 -5.55311,0.67143 -8.27408,0.70557c-1.37793,0.01729 -2.97395,0.83754 -4.13309,0.09229c-1.10816,-0.71246 -0.88337,-2.48694 -1.44505,-3.67863c-0.4486,-0.95178 -1.29127,-1.72164 -1.57748,-2.73416c-0.66754,-2.36154 0.21701,-4.92488 -0.07198,-7.36188c-0.28491,-2.40254 -1.28875,-4.69004 -1.51021,-7.09926c-0.52246,-5.6836 -0.03637,-11.64821 0.01565,-17.35945c-1.43301,-5.01553 -2.50192,-12.27439 -1.51565,-17.55295c0.29989,-1.60504 0.03379,-3.77088 1.37554,-4.70135c5.98715,-4.15193 5.45032,0.97178 7.14404,3.44577c0.36433,0.53217 1.12058,0.65302 1.6099,1.07314c0.90594,0.77783 1.47951,2.56007 2.66232,2.39662c0.65289,-0.09022 1.97011,-2.16553 2.12506,-2.40296c1.24112,-1.9018 2.1467,-4.39257 4.78405,-4.97674c1.59312,-0.35287 3.45089,-0.35722 4.87554,0.43835c0.80081,0.4472 0.06228,1.99013 0.68279,2.66559c0.39525,0.43025 1.21356,-0.23968 1.75266,-0.0145c1.16023,0.48462 4.44566,3.4939 5.21564,4.16423c0.20105,2.75606 -0.02215,5.63543 0.25177,8.37169c0.55616,5.55567 2.03741,10.9474 2.50365,16.54014c0.34644,4.15576 2.33727,10.32317 0.91781,14.37354c-0.49066,1.40006 -1.23802,2.79505 -2.34497,3.78277c-0.8169,0.72892 -2.17513,0.49615 -3.10254,1.078c-1.25174,0.78533 -1.68374,2.42982 -2.57314,3.6099l-2.12087,2.12976c0,0 -1.53838,1.53838 -3.18003,0.30984z" fill="#1a1a1a" stroke="none" stroke-width="0.5" stroke-linecap="butt"/></g><g data-paper-data="{&quot;index&quot;:null}" stroke-linecap="butt"><path d="M380.47688,351.11864l29.12009,-18.34464l15.40751,32.75763c0,0 40.54334,14.26819 36.82538,37.73209c-3.11881,19.68269 -55.91551,9.63833 -60.32412,-3.07144l-21.02886,-49.07363z" fill="#1a1a1a" stroke="#000000" stroke-width="2.5"/><path d="M412.25682,328.46814c5.18522,8.15631 1.33624,18.11004 -11.24779,26.1101c-12.58402,8.00006 -23.23044,7.26151 -28.41565,-0.8948c-5.18522,-8.1563 -2.94572,-20.64175 9.63831,-28.64181c12.58403,-8.00006 24.83993,-4.7298 30.02515,3.42652z" fill="#a28b87" stroke="none" stroke-width="0"/></g><path d="M313.71071,246.71591c44.94668,49.77883 70.96718,84.6607 70.96718,84.6607" fill="none" stroke="#cdb391" stroke-width="26.5" stroke-linecap="round"/><g data-paper-data="{&quot;index&quot;:null}" stroke="#3a2f41" stroke-width="0" stroke-linecap="butt"><path d="M191.78966,129.04352c-3.25311,-6.31637 -2.14368,-28.43475 -1.11387,-42.91633c4.36653,-27.96498 32.42906,-36.54844 38.64859,-38.25028c35.54462,-9.72596 64.7919,16.74509 72.04293,30.82397c7.25103,14.07889 4.75819,31.42392 -5.56791,36.89082c-10.32611,5.46691 -89.64577,28.71645 -96.8968,14.63755z" fill="#518238"/><path d="M204.61255,119.26043c26.75596,0.87295 47.28548,-7.28642 62.2503,-16.83418c20.93772,-13.35857 30.88393,-29.65335 30.88393,-29.65335c0,0 9.44107,15.19142 11.16449,23.34474c5.28065,24.98205 -2.59607,45.7297 -23.56757,56.83256c-15.28262,8.09103 -40.88708,20.23174 -64.3286,-0.49419z" fill="#1b4f03"/></g><g data-paper-data="{&quot;index&quot;:null}" stroke="#3a2f41" stroke-width="0" stroke-linecap="butt"><path d="M159.56279,102.48007c2.25411,-5.65239 6.92013,-10.58498 11.81549,-13.63588c3.42843,-2.13668 7.11859,-3.12257 9.53359,-3.76025c11.10408,-2.93196 11.99275,22.2415 15.04391,33.79697c3.05115,11.55547 2.33044,22.11614 -8.77365,25.04811c-7.7365,2.04278 -15.06826,0.4332 -20.27099,-5.31692c-2.26465,-2.50294 -3.87583,-6.99023 -5.35934,-10.29731c-2.55029,-5.68521 -5.41481,-17.2442 -1.98901,-25.83472z" fill="#598f3e"/><path d="M181.32417,125.71686c0,0 9.29155,-0.39254 15.59061,-1.41224c3.38522,-0.548 5.52248,-2.7303 5.75162,-1.86248c0.65552,2.48263 14.39687,14.0612 11.03774,17.63132c-26.48815,28.15181 -46.78026,0.51748 -49.59118,-6.27033c9.58651,-0.1161 17.2112,-8.08626 17.2112,-8.08626z" fill="#215d05"/></g><g data-paper-data="{&quot;index&quot;:null}" stroke-width="2"><path d="M334.94534,236.30078c0,0 1.67519,12.98149 -12.5206,25.66214c-11.78557,10.5277 -24.32274,6.7611 -24.32274,6.7611l-52.21834,-57.32116c0,0 -0.35121,-46.62831 5.27104,-52.22271c4.40861,-4.38677 22.60668,17.47362 22.60668,17.47362l61.18397,59.64701z" data-paper-data="{&quot;index&quot;:null}" fill="#003f96" stroke="#003f96" stroke-linecap="butt"/><path d="M296.49437,199.92974l-12.92738,7.3904l-24.96731,-29.17784" fill="none" stroke="#002f71" stroke-linecap="round"/><path d="M292.89709,195.23842l-8.43248,4.98164l-21.08115,-24.31071" fill="none" stroke="#002f71" stroke-linecap="round"/></g><path d="M193.79271,397.71276c0,0 -43.38932,1.47326 -52.71724,0.88237c-10.29725,-0.65228 -9.07862,-12.88278 -8.0824,-18.41394c3.06619,-17.0238 31.68459,-11.63739 31.68459,-11.63739c0,0 0.73897,-5.22541 0.26377,-8.07472c-0.20041,-1.20167 -17.42739,-14.89603 -17.42739,-14.89603l26.1529,-16.84873c0,0 27.20711,23.24736 30.76767,27.88487c2.21643,2.88684 -10.64189,41.10357 -10.64189,41.10357z" fill="#1a1a1a" stroke="#1a1a1a" stroke-width="2.5" stroke-linecap="butt"/><path d="M136.35897,345.24765c-5.66876,-7.82797 -4.18805,-20.42595 7.8894,-29.17204c12.07745,-8.74609 24.5086,-6.22262 30.17735,1.60535c5.66876,7.82796 2.42847,17.99614 -9.64898,26.74223c-12.07745,8.74609 -22.74902,8.65242 -28.41778,0.82446z" fill="#a28b87" stroke="none" stroke-width="0" stroke-linecap="butt"/><path d="M144.61682,325.40918c0,0 -31.69619,-0.91044 -32,-24c-0.30381,-23.08956 57,-59 57,-59" fill="none" stroke="#cdb391" stroke-width="26.5" stroke-linecap="round"/><g data-paper-data="{&quot;index&quot;:null}" stroke-width="2"><path d="M145.07649,234.32843l61.09174,-52.40669c0,0 20.86837,-11.68126 26.17624,-5.77515c4.1373,4.60361 3.04327,38.28795 3.04327,38.28795l-55.33285,54.32076c0,0 -12.72766,3.06178 -23.90797,-8.10661c-13.46675,-13.45237 -11.07043,-26.32026 -11.07043,-26.32026z" data-paper-data="{&quot;index&quot;:null}" fill="#003f96" stroke="#003f96" stroke-linecap="butt"/><path d="M214.06103,190.84299l-21.03643,22.64554l-12.49524,-8.09962" fill="none" stroke="#002f71" stroke-linecap="round"/><path d="M209.48972,190.96067l-17.52047,16.35935l-8.14164,-5.44402" fill="none" stroke="#002f71" stroke-linecap="round"/></g><g data-paper-data="{&quot;index&quot;:null}" stroke-linecap="butt"><path d="M229.28362,215.51307l0.0867,-17.44101l20.45776,-3.19747l2.45337,20.14222z" fill="#8c9ca0" stroke="#002f71" stroke-width="2"/><path d="M229.31585,213.18438l-2.15543,-36.34897l21.69635,-3.26298l3.4569,39.11569z" fill="#003f96" stroke="#003f96" stroke-width="3.5"/></g><g data-paper-data="{&quot;index&quot;:null}" stroke="none" stroke-width="0" stroke-linecap="butt"><path d="M186.00948,198.25806c0,0 5.71754,-31.79898 3.01507,-49.06522c-2.1954,-14.02654 -18.13296,-52.98952 -18.13296,-52.98952c0,0 20.30379,-17.98636 32.52075,-21.36537c12.843,-3.55215 41.74674,1.2169 41.74674,1.2169c0,0 17.64207,28.35638 22.74437,50.13433c3.85287,16.44504 9.58783,49.91218 9.58783,49.91218l-44.70767,21.63233z" fill="#0066a9"/><path d="M252.21271,87.53141c-25.62625,15.41034 -69.60689,43.31382 -69.60689,43.31382l-11.71425,-34.97527c0,0 20.30379,-17.98636 32.52075,-21.36536c12.84301,-3.55215 41.74675,1.2169 41.74675,1.2169z" fill="#003f7d"/></g><g data-paper-data="{&quot;index&quot;:null}"><path d="M184.45545,86.77862c-0.54793,-0.09373 0.0207,-5.37314 0.26483,-5.8769c0.13283,-0.13165 0.21337,-0.59356 1.00767,-0.41976c3.6274,0.79376 12.6161,3.94187 12.6161,3.94187l-4.35703,10.43576z" data-paper-data="{&quot;index&quot;:null}" fill="#8c9ca0" stroke="#7e6c69" stroke-width="4.5" stroke-linecap="round"/><path d="M198.3867,84.45086c0,0 -10.74448,-3.82267 -8.52798,-6.95115c2.6372,-3.72227 18.3537,-6.90984 19.0224,-7.74242c0.13019,-1.94735 4.45715,2.75238 5.09298,4.00768c0.38788,2.94726 -4.3654,15.36193 -4.3654,15.36193z" fill="#7e6c69" stroke="#7e6c69" stroke-width="4.5" stroke-linecap="round"/><path d="M185.98679,85.60712c-0.20002,-0.44287 -0.87189,-4.4315 -0.17213,-5.28054c0.27405,-0.77943 7.79071,-10.07038 9.2439,-10.4521c2.29701,-0.60335 12.88059,-0.37298 14.16661,0.08269c0.59761,0.03121 2.17804,2.96436 2.76789,4.18513" fill="none" stroke="#7e6c69" stroke-width="6.5" stroke-linecap="butt"/><g><path d="M184.45545,86.77862c-0.54793,-0.09373 0.0207,-5.37314 0.26483,-5.8769c0.13283,-0.13165 0.21335,-0.59356 1.00767,-0.41976c3.62739,0.79376 12.6161,3.94187 12.6161,3.94187l-5.35703,11.93576z" data-paper-data="{&quot;index&quot;:null}" fill="#7e6c69" stroke="#12161a" stroke-width="0" stroke-linecap="round"/><path d="M198.38668,84.45082c0,0 9.2637,-13.16123 10.49441,-14.69357c0.13019,-1.94734 4.45717,2.75239 5.09299,4.00768c0.38786,2.94724 -4.36541,15.36194 -4.36541,15.36194z" fill="#7e6c69" stroke="#12161a" stroke-width="0" stroke-linecap="round"/><path d="M185.98675,85.60704c-0.20002,-0.44287 -0.87189,-4.4315 -0.17213,-5.28054c0.27405,-0.77943 7.79071,-10.07038 9.2439,-10.4521c2.29701,-0.60335 12.88059,-0.37298 14.16661,0.08269c0.59761,0.03121 2.17804,2.96436 2.76789,4.18513" fill="none" stroke="#7e6c69" stroke-width="2" stroke-linecap="butt"/></g></g><g data-paper-data="{&quot;index&quot;:null}" stroke="#3a2f41" stroke-width="0" stroke-linecap="butt"><path d="M229.46859,81.70632c2.00894,-5.52307 6.31135,-10.26479 10.87037,-13.13957c3.19288,-2.01333 6.65744,-2.88137 8.92496,-3.442c10.42596,-2.57772 11.8005,22.33564 14.9281,33.84811c3.1276,11.51247 2.67135,21.93243 -7.75462,24.51016c-7.26404,1.79597 -14.22343,-0.00726 -19.25986,-5.84247c-2.19228,-2.53998 -3.8095,-7.0229 -5.28104,-10.33531c-2.52972,-5.69438 -5.48111,-17.20494 -2.42791,-25.59892z" fill="#598f3e"/><path d="M253.01712,104.30831c0,0 6.26792,0.88048 12.196,0.05442c3.18584,-0.44394 5.15819,-2.53968 5.39307,-1.67509c0.67195,2.47339 13.8974,14.3177 10.80045,17.75019c-24.42075,27.0666 -44.98737,-0.9386 -47.44661,-7.64698c0,0 5.80578,0.87623 10.1198,-1.39549c2.62195,-1.38069 8.93729,-7.08705 8.93729,-7.08705z" fill="#215d05"/></g><g data-paper-data="{&quot;index&quot;:null}" stroke-width="2"><path d="" fill="#ffab19" stroke="#a0b2c8" stroke-linecap="round"/><path d="" fill="#f8dac1" stroke="#000000" stroke-linecap="butt"/></g><g data-paper-data="{&quot;index&quot;:null}" stroke-width="2"><path d="" fill="#ffab19" stroke="#a0b2c8" stroke-linecap="round"/><path d="" fill="#f8dac1" stroke="#000000" stroke-linecap="butt"/></g><g data-paper-data="{&quot;index&quot;:null}" stroke-width="2"><path d="" fill="#ffab19" stroke="#a0b2c8" stroke-linecap="round"/><path d="" fill="#f8dac1" stroke="#000000" stroke-linecap="butt"/></g><path d="" fill="#f8dac1" stroke="none" stroke-width="2" stroke-linecap="butt"/><path d="" fill="#f8dac1" stroke="none" stroke-width="2" stroke-linecap="butt"/><path d="" fill="#f8dac1" stroke="none" stroke-width="2" stroke-linecap="butt"/><path d="" fill="#f8dac1" stroke="#000000" stroke-width="2" stroke-linecap="butt"/><path d="" fill="#f8dac1" stroke="#000000" stroke-width="2" stroke-linecap="butt"/><path d="" fill="#f8dac1" stroke="#000000" stroke-width="2" stroke-linecap="round"/><g><path d="M288.86921,98.5114c11.12333,6.79864 14.19236,8.34326 25.22689,15.51851c11.93045,7.7578 40.51313,33.66424 47.67171,51.24034c5.20882,12.78892 -5.65009,31.8133 -50.17756,20.38194c-33.18671,-8.51989 -57.05146,-23.85041 -57.05146,-23.85041c0,0 4.07437,-26.92347 21.75108,-16.77101c20.96645,12.04188 64.12514,25.96087 56.45061,17.30087c-14.41911,-16.27065 -56.49696,-49.09021 -56.49696,-49.09021z" fill="#cdb391" stroke="none" stroke-width="0" stroke-linecap="round"/><g data-paper-data="{&quot;index&quot;:null}"><g data-paper-data="{&quot;index&quot;:null}" fill="#ffab19" stroke-width="2"><path d="" stroke="none" stroke-linecap="butt"/><path d="" stroke="#a0b2c8" stroke-linecap="round"/><path d="" stroke="#000000" stroke-linecap="butt"/></g><g data-paper-data="{&quot;index&quot;:null}" stroke-linecap="butt"><path d="" fill="#ffab19" stroke="#000000" stroke-width="2"/><path d="M320.38773,118.61756c0,0 -1.37775,7.43331 -3.6604,10.68508c-3.3303,4.74423 -9.41253,9.72066 -9.41253,9.72066c0,0 -19.39922,-15.39857 -29.00764,-22.04441c-0.47741,-0.33021 -0.97861,-0.67414 -1.49911,-1.029c2.89749,-7.1648 6.61026,-13.74302 10.63781,-20.15251c16.54423,10.36766 32.94186,22.82019 32.94186,22.82019z" fill="#ac7e63" stroke="none" stroke-width="0"/></g><g data-paper-data="{&quot;index&quot;:null}" fill="#ffab19" stroke-width="2"><path d="" stroke="none" stroke-linecap="butt"/><path d="" stroke="#a0b2c8" stroke-linecap="round"/><path d="" stroke="#000000" stroke-linecap="butt"/></g><g data-paper-data="{&quot;index&quot;:null}" fill="#ffab19" stroke-width="2"><path d="" stroke="none" stroke-linecap="butt"/><path d="" stroke="#a0b2c8" stroke-linecap="round"/><path d="" stroke="#000000" stroke-linecap="butt"/></g><path d="" fill="#ffab19" stroke="none" stroke-width="2" stroke-linecap="butt"/><path d="" fill="#ffab19" stroke="none" stroke-width="2" stroke-linecap="butt"/><path d="" fill="#ffab19" stroke="none" stroke-width="2" stroke-linecap="butt"/><path d="" fill="#ffab19" stroke="none" stroke-width="2" stroke-linecap="butt"/></g><g data-paper-data="{&quot;index&quot;:null}" fill="#cdb391" stroke="#ac7e63" stroke-width="2" stroke-linecap="round"><path d="M273.94905,172.17767c0,0 -12.85292,-6.20327 -21.15598,-9.99871c-4.03749,-1.84559 -8.55775,-3.93699 -13.0756,-6.07688c-10.56628,-5.00473 -22.5128,-6.47039 -21.18599,-15.05637c1.53766,-9.95022 18.15572,-4.46247 18.15572,-4.46247l21.65218,-15.50135c0,0 6.24662,9.56812 11.51385,12.50402c2.2932,1.2782 1.94324,4.35154 3.26666,5.7447c1.26466,1.33132 7.56134,-0.13763 10.25808,7.4047c2.526,7.06475 1.73437,23.85711 -3.4669,24.18563c-4.41021,0.27857 -5.72252,-5.11882 -7.29725,-11.56613c-0.55041,-2.25356 -5.40961,-3.03834 -5.40961,-3.03834"/><path d="M220.62415,136.85727c0,0 7.40402,-4.40953 12.41329,-1.64892c5.00928,2.76057 2.41285,8.88842 -1.70189,10.44005"/><path d="M266.29924,131.19001c0,0 2.25282,-1.80921 3.58919,-1.1976c1.33637,0.61162 11.5572,3.72754 11.53567,8.34281c-0.03501,7.50173 -14.37201,19.02314 -19.71013,15.57092c-2.55064,-1.64956 -3.45882,-3.7998 -2.42089,-6.00705c1.34707,-2.86464 5.21474,-5.64082 5.21474,-5.64082"/><path d="M256.1902,136.1586c0,0 -11.82065,10.91309 -16.66006,4.462c-4.3047,-5.73826 7.5632,-19.28978 12.37759,-20.88285c11.8535,-3.92226 13.94286,11.60196 13.94286,11.60196"/></g><g data-paper-data="{&quot;index&quot;:null}" fill="#0066a9" stroke="#0066a9" stroke-width="2" stroke-linecap="butt"><path d="M305.30415,120.39712c-4.04384,7.48101 -11.31242,13.62045 -13.14477,13.40864c0,0 -33.20596,-23.21363 -36.2805,-27.11811c-2.61571,-3.3218 -6.33189,-8.56743 -5.99655,-13.02554c0.44718,-5.94469 6.69595,-10.46247 18.80967,-6.89425c24.73566,7.28613 32.47083,13.63664 38.83599,17.50802c2.2163,0.9465 1.51625,9.20218 -2.22383,16.12125z"/></g></g><path d="M255.28912,84.93213c-6.44266,2.23082 -2.84015,11.41422 -3.37206,16.39888c-0.2268,2.12543 -1.1496,6.15372 -3.47645,7.03994c-1.61444,0.61489 -3.65858,0.07246 -5.11012,-0.8643c-0.77539,-0.5004 -2.72263,-6.10637 -2.86898,-7.02153c-0.295,-1.84467 0.79791,-4.00309 -0.16851,-5.6018c-0.3328,-0.55054 -1.18482,-0.56797 -1.63153,-1.03089c-0.49371,-0.51161 -0.89798,-1.02155 -1.22908,-1.53626c-1.03861,3.32887 0.3566,8.95404 -3.88512,10.50456c-5.78601,2.11503 -5.63533,-0.92957 -6.58402,-4.82507c-1.24948,-5.13062 -0.21483,-9.83617 1.83736,-14.26577l-0.33736,-0.05623l0.49324,-2.95946c0.01177,-0.07926 0.02727,-0.15731 0.0463,-0.23397c-0.20216,0.00264 -0.38578,-0.01935 -0.53027,-0.08588c-1.05486,-0.48569 -1.65561,-1.63864 -2.58182,-2.33919c-2.99586,-2.26593 -6.28781,-3.70568 -9.75311,-5.09454l-0.20836,0.12403c0,0 -2.5,0 -2.5,-2.5c0,-1.13579 0.51601,-1.75558 1.07917,-2.09378c2.26737,-6.33132 5.69843,-12.7172 10.73137,-17.24897c2.73807,-2.46542 6.26712,-4.13633 9.26357,-6.21074c5.15881,-3.5714 8.07396,-6.254 14.67224,-4.93434c1.59372,0 3.16012,-0.53663 4.75366,-0.51217c4.54554,0.06978 9.16714,3.55812 12.80149,5.86549c1.31338,0.83384 2.7929,1.53745 3.77573,2.74341c0.44893,0.55086 -0.2091,1.53574 0.19055,2.12333c0.21259,0.31257 0.7383,-0.22262 1.11578,-0.20264c1.50712,0.0798 3.00722,0.27778 4.5,0.5c2.786,0.41473 3.92566,0.76647 6.46384,2.36456c2.64685,1.66652 3.47762,3.10913 5.81992,5.24302c1.43868,1.31066 3.22086,2.22234 4.60046,3.59505c3.72232,3.70374 6.69431,7.24376 11.17616,10.22692c0.93071,0.8076 2.25517,1.31371 2.79214,2.42281c2.14999,4.44081 -2.21963,12.8846 -7.54153,12.5993c-2.07339,-0.11115 -3.23453,-2.64272 -5.05832,-3.63523c-0.38526,-0.20966 -0.82093,-0.7346 -1.20643,-0.52537c-0.74247,0.40299 -0.71635,1.8164 -1.53754,2.01469c-5.82528,1.40664 -7.2562,-4.35099 -11.0719,-6.63117c-1.38051,-0.82497 -3.21213,-0.20552 -4.82036,-0.20419c-2.60415,0.00216 -5.20314,0.70717 -7.79755,0.48223c-0.29487,-0.02557 -0.58381,-0.08202 -0.86884,-0.15875c-3.3396,3.0285 -7.84553,5.13265 -11.97371,6.52398z" fill="#1a1a1a" stroke="none" stroke-width="0.5" stroke-linecap="butt"/><g stroke-width="0"><g data-paper-data="{&quot;index&quot;:null}" stroke="none" stroke-linecap="butt"><g><path d="M251.81566,60.28461c0,0 -110.57364,30.46065 -113.47913,26.60133c-18.05712,-23.98493 -34.35463,-111.25535 -19.19428,-117.08793c10.52457,-4.04906 18.49253,15.28682 18.49253,15.28682c0,0 17.16613,-5.47754 27.70648,-8.16826c10.90912,-2.78486 36.46004,-7.67243 36.46004,-7.67243c0,0 -3.59193,-20.02994 7.95265,-23.44351c20.42128,-3.89092 50.6129,69.50828 42.06173,114.48401z" fill="#a28b87"/><g data-paper-data="{&quot;index&quot;:null}"><path d="M142.64333,50.53358c-5.75253,-17.31162 0.37597,-41.89806 23.57087,-50.10322c35.26098,-12.47351 55.46691,5.33982 61.21942,22.65143c5.75256,17.3116 -0.92986,35.89759 -31.91338,45.26959c-15.47454,4.68082 -29.32131,5.32913 -37.86554,1.99461c-8.78947,-3.43023 -12.0944,-11.03413 -15.01137,-19.81242z" fill="#cdb391"/><path d="M142.64333,50.53357c-5.75253,-17.31162 0.37597,-41.89806 23.57087,-50.10322c35.26098,-12.47351 55.4669,5.33982 61.21942,22.65143c3.82944,11.52424 -9.4558,14.19001 -24.44298,16.4774c-7.52641,1.14871 -15.48204,2.20197 -21.91486,4.23381c-19.24618,6.07904 -32.67991,24.05219 -38.43246,6.74059z" fill="#ac7e63"/></g></g></g><path d="M192.77701,36.95817c-1.99,-3.05405 -1.36934,-6.12004 -0.18808,-7.45894c2.54808,-2.88813 9.80612,-0.72815 13.89615,5.87873c4.42675,7.15082 -0.09691,11.97742 -5.99162,9.42236c-2.39515,-1.03818 -5.82867,-4.94498 -7.71646,-7.84217z" fill="#ffffff" stroke="none" stroke-linecap="butt"/><path d="M170.79705,41.1077c1.16447,3.25598 2.19752,8.35353 1.57489,10.88866c-1.53234,6.23922 -8.11226,6.92051 -11.12718,-0.93064c-2.78559,-7.25396 -0.11381,-14.33958 3.72741,-14.62084c1.78073,-0.13038 4.59736,1.23054 5.82488,4.66283z" fill="#ffffff" stroke="none" stroke-linecap="butt"/><g><path d="M151.09531,50.58436c2.04775,0.10765 8.54447,8.0966 20.59081,10.07878c6.29906,1.03648 18.27937,-2.05821 20.85073,-3.03837c2.57136,-0.98018 8.95726,-5.88455 14.20179,-13.14803c5.21559,-7.22341 6.49728,-13.87766 10.10694,-17.1883c1.40405,-1.28773 4.31434,-1.39647 5.65311,0.39025c1.43918,1.92074 1.96154,3.67119 2.16029,3.58131c0.40391,-0.18265 -5.12556,2.78246 -9.24239,6.57505c-7.60085,7.00223 -16.34882,17.1089 -16.1189,17.43532c1.06066,1.50584 -3.89324,11.28652 -3.53785,14.83832c0.35539,3.55178 -4.57343,3.61867 -10.58086,4.29918c-2.40592,0.27254 -13.82085,0.0774 -22.09175,-4.58087c-7.17388,-4.0404 -13.62996,-11.04572 -15.1074,-14.93097c-1.07238,-2.82004 -0.56994,-4.5054 3.11549,-4.31166z" fill="#840028" stroke="#3a2f41" stroke-linecap="butt"/><path d="M196.54923,61.33242c2.32907,-6.03239 7.5987,-12.93535 10.14006,-15.86951c7.14945,-8.25445 17.57441,-14.38639 17.57441,-14.38639c0.17352,1.73423 1.36581,11.86833 -2.23466,19.9635c-2.89365,6.50601 -6.36324,12.14784 -15.30767,17.11862c-3.48308,1.93569 -12.69781,4.72708 -12.69781,4.72708c0,0 0.1966,-5.52092 2.52566,-11.55331z" fill="#dc3b69" stroke="#3a2f41" stroke-linecap="butt"/><path d="M173.72297,61.00297c-0.07253,1.03282 -0.89881,2.21955 -3.08086,2.68406c-2.65014,0.56416 -6.53553,-1.04356 -6.27848,-5.12405c0,0 3.08011,1.19121 4.66866,1.54432c1.55076,0.3447 4.69068,0.89567 4.69068,0.89567z" data-paper-data="{&quot;index&quot;:null}" fill="#ffffff" stroke="none" stroke-linecap="round"/><path d="M198.3925,53.65403c1.28947,-0.99269 3.66884,-3.50249 3.66884,-3.50249c1.96115,3.58752 -1.11361,6.61208 -3.75325,7.22348c-2.17341,0.50343 -3.86288,-0.68682 -3.86288,-0.68682c0,0 2.68851,-2.06509 3.94729,-3.03417z" data-paper-data="{&quot;index&quot;:null}" fill="#ffffff" stroke="none" stroke-linecap="round"/><path d="M205.32805,46.36224c1.06193,-1.23308 2.88424,-4.1724 2.88424,-4.1724c2.64649,3.11648 0.24732,6.70064 -2.214,7.83351c-2.02658,0.93278 -3.92195,0.10902 -3.92195,0.10902c0,0 2.21504,-2.56638 3.25171,-3.77012z" data-paper-data="{&quot;index&quot;:null}" fill="#ffffff" stroke="none" stroke-linecap="round"/></g></g><path d="M145.38793,233.0849c0.5153,-0.62679 1.25073,-0.87194 1.25073,-0.87194l4.79057,1.87171c0,2.75128 -0.00001,5.5024 -0.01217,8.25366c0.46595,2.73131 1.7239,2.99137 3.44552,5.16137c2.62777,3.31215 4.03387,7.23246 5.82302,11.00852c0.59965,1.26558 1.18192,2.54251 1.87025,3.76213c0.54105,0.95867 1.62792,1.6759 1.81144,2.76131c0.69705,4.12255 -2.5008,4.94413 -2.97035,8.45348c-0.64655,4.8323 0.03228,10.23219 0.03228,15.09954c0,0.50834 0.01812,5.37754 -0.06688,5.57438c-0.78053,1.80756 -1.46309,4.32676 -3.35874,4.85874c-5.76533,1.61792 -5.56443,-6.77862 -5.57438,-9.43312c0,-3.16665 -0.00429,-6.33335 0,-9.5c0.00041,-0.30325 0.11997,-4.23208 -0.22292,-4.85605c-0.44788,-0.81503 -1.53805,-1.14673 -1.98127,-1.96431c-1.23159,-2.27186 -1.47161,-5.70564 -2.5671,-8.135c-1.48124,-3.28481 -4.07463,-5.37711 -4.69644,-9.14419c-1.0489,-6.35456 -0.03228,-13.98711 -0.03228,-20.40046c0,0 0,-2.47239 2.4587,-2.49977z" fill="#1a1a1a" stroke="none" stroke-width="0.5" stroke-linecap="butt"/><path d="M242.88459,188.31338c2.393,-0.80515 5.8328,-1.00201 8.08793,-2.03842c5.23954,-2.40797 8.76804,-7.60395 12.81275,-11.41322c1.96476,-0.3876 3.87308,-1.02568 5.78406,-1.62454c1.4012,-0.43911 2.87707,-1.61292 4.26035,-1.12026c1.81911,0.64789 4.34372,2.18139 4.09622,4.09651c-0.10641,0.82337 -0.59776,1.4827 -1.27721,2.02296c-0.06755,0.12991 -0.14618,0.25314 -0.23462,0.36845l-1.48485,1.9798c-7.86108,10.48144 -6.51214,24.32805 -5.50852,36.7938c0.26631,3.30773 1.84661,6.05439 1.49635,9.45255c-0.23682,2.29759 -1.29561,6.91455 -4.35904,7.25034c-1.66361,0.18235 -2.5388,-2.18125 -3.80821,-3.27187c-3.71194,-9.46419 0.11889,-20.59569 -4.03504,-30.06455c-0.63488,-1.4472 -2.91002,-1.49256 -3.85572,-2.75869c-0.49868,-0.66765 0.3457,-1.74176 0,-2.5c-0.15795,-0.34643 -0.76472,0.04447 -1.1422,-0.00521c-0.76704,-0.10095 -1.51935,-0.2929 -2.27792,-0.44491c-1.86649,-0.37401 -2.38018,-0.61541 -3.97543,-0.52584c-3.40956,1.32502 -6.87488,2.48543 -10.34747,3.4782c0,0 -2.40381,0.6868 -3.09061,-1.71701c-0.6868,-2.40381 1.71701,-3.09061 1.71701,-3.09061c1.06614,-0.30442 2.12989,-0.62591 3.19023,-0.9641c-0.00228,-0.04374 -0.00343,-0.08778 -0.00343,-0.13209c0,-0.92661 0.50412,-1.73548 1.25305,-2.16731l2.46071,-1.47643l0.04794,0.07991z" fill="#1a1a1a" stroke="none" stroke-width="0.5" stroke-linecap="butt"/><path d="M141.45727,-18.30211c1.05093,-0.6395 2.06967,-1.35102 3.42732,-1.88451c1.42813,-0.56118 3.01645,-1.75631 4.4451,-1.19644c0.37135,0.14553 0.70098,0.35105 1.00124,0.59879l0.0983,-0.13107l1.97672,1.48254c0.62044,0.45492 1.02328,1.18914 1.02328,2.01746c0,1.20948 -0.85888,2.21836 -2,2.44999v0.05001c0,3.79145 0.15195,7.49891 0.48783,11.25366c0.33911,3.79091 1.66438,7.39857 1.51217,11.24634c-0.10167,2.57009 0.31977,7.81532 -5.39226,6.33535c-2.77594,-0.71924 -1.93801,-5.74955 -2.09558,-7.58901c-0.16274,-1.89978 -1.19509,-4.14395 -1.488,-5.89959c-0.17633,-1.05689 -0.29696,-2.19641 -0.37761,-3.35098c-0.04849,0.0028 -0.09736,0.00422 -0.14656,0.00422c-1.0731,0 -1.98829,-0.67611 -2.34282,-1.62559l-0.97837,-2.44593c-0.83855,-2.15315 -1.83063,-3.23204 -3.13545,-4.14527l-0.03365,0.16824l-2.45459,-0.49092c-1.1377,-0.20434 -2.00823,-1.1784 -2.05329,-2.36389c-0.29485,-0.36494 -0.50183,-0.8773 -0.50183,-1.59664c0,-2.5 2.5,-2.5 2.5,-2.5c2.29302,0 4.41675,-0.13736 6.52804,-0.38677z" fill="#1a1a1a" stroke="none" stroke-width="0.5" stroke-linecap="butt"/><path d="M171.22708,73.21855c-0.42426,-0.27868 -0.79785,-0.76949 -0.79785,-1.63389c0,-2 2,-2 2,-2h0.5c3.52618,0 6.79243,-0.56481 10.25563,-0.98502c1.27935,-0.15523 2.61088,0.31289 3.86615,0.0211c5.85785,-1.36165 11.17386,-4.07951 16.77723,-6.20577c1.73605,-1.76181 5.2348,-4.88941 7.85662,-4.81533c1.351,0.03817 3.31477,-0.26169 3.94567,0.93355c0.69819,1.32273 -0.43566,3.0276 -1.1658,4.33296c-0.45857,0.81985 -1.51531,1.11408 -2.2251,1.72941c-1.69366,1.46829 -3.3166,3.32056 -5.14098,4.61158c-0.52392,0.37075 -1.29867,0.34058 -1.75521,0.79173c-0.43072,0.42563 -0.39696,1.15766 -0.72954,1.66369c-3.14092,4.7789 -7.02635,8.62872 -5.73817,14.96259c0.29809,1.46571 1.1775,2.76365 1.53852,4.21514c-0.11923,3.91341 -2.28233,8.80987 -6.95678,4.59859c-2.37725,-2.14171 -2.46846,-8.2105 -3.40401,-11.16033c-0.74843,-2.35984 -2.82825,-1.6007 -4.53844,-3.27968c-2.08994,-2.0518 -2.54059,-5.09765 -5.44533,-6.60834c-1.62263,-0.84389 -5.79433,-0.30588 -7.14046,-0.30588c0,0 -1.14479,0 -1.70215,-0.86611z" fill="#1a1a1a" stroke="none" stroke-width="0.5" stroke-linecap="butt"/></g></g></svg>