<svg version="1.1" xmlns="http://www.w3.org/2000/svg" xmlns:xlink="http://www.w3.org/1999/xlink" width="310.67922" height="224.32716" viewBox="0,0,310.67922,224.32716"><defs><linearGradient x1="1077.66312" y1="216.06021" x2="1077.66312" y2="354.07601" gradientUnits="userSpaceOnUse" id="color-1"><stop offset="0" stop-color="#ffffff" stop-opacity="0.26046"/><stop offset="1" stop-color="#ffffff" stop-opacity="0"/></linearGradient><linearGradient x1="1077.66312" y1="216.06021" x2="1077.66312" y2="354.07601" gradientUnits="userSpaceOnUse" id="color-2"><stop offset="0" stop-color="#ffffff" stop-opacity="0.26046"/><stop offset="1" stop-color="#ffffff" stop-opacity="0"/></linearGradient><linearGradient x1="1077.66312" y1="216.06021" x2="1077.66312" y2="354.07601" gradientUnits="userSpaceOnUse" id="color-3"><stop offset="0" stop-color="#ffffff" stop-opacity="0.26046"/><stop offset="1" stop-color="#ffffff" stop-opacity="0"/></linearGradient><linearGradient x1="1036.02754" y1="220.12049" x2="1036.02754" y2="358.13627" gradientUnits="userSpaceOnUse" id="color-4"><stop offset="0" stop-color="#ffffff" stop-opacity="0.26046"/><stop offset="1" stop-color="#ffffff" stop-opacity="0"/></linearGradient><linearGradient x1="1036.02754" y1="220.12049" x2="1036.02754" y2="358.13627" gradientUnits="userSpaceOnUse" id="color-5"><stop offset="0" stop-color="#ffffff" stop-opacity="0.26046"/><stop offset="1" stop-color="#ffffff" stop-opacity="0"/></linearGradient><linearGradient x1="1036.02754" y1="220.12049" x2="1036.02754" y2="358.13627" gradientUnits="userSpaceOnUse" id="color-6"><stop offset="0" stop-color="#ffffff" stop-opacity="0.26046"/><stop offset="1" stop-color="#ffffff" stop-opacity="0"/></linearGradient><linearGradient x1="245.06046" y1="105.31172" x2="248.19721" y2="185.43883" gradientUnits="userSpaceOnUse" id="color-7"><stop offset="0" stop-color="#cedee0" stop-opacity="0"/><stop offset="1" stop-color="#cedee0" stop-opacity="0.19676"/></linearGradient></defs><g transform="translate(-179.15338,-60.46025)"><g data-paper-data="{&quot;isPaintingLayer&quot;:true}" fill-rule="nonzero" stroke-linejoin="miter" stroke-miterlimit="10" stroke-dasharray="" stroke-dashoffset="0" style="mix-blend-mode: normal"><g><g><g fill="none" stroke="#8c9ca0" stroke-width="2" stroke-linecap="round"><path d="M446.62144,151.05309l-12.25563,17.17159l-15.70013,-12.63944l-6.68623,14.91167l-14.61425,-11.73352l-8.67811,15.09152"/><path d="M387.90371,159.6176l10.92443,12.56862l8.70062,-14.84242l13.18774,12.61523l11.75763,-17.12655l15.72264,12.88843"/></g><g stroke="none" stroke-width="0.78636"><path d="M467.98105,136.81464c5.32866,-0.65868 10.42535,0.90843 14.35392,3.97331c3.92926,3.06407 6.6903,7.62571 7.34899,12.95448c0.65868,5.32866 -0.90853,10.42535 -3.97341,14.35391c-3.06399,3.92917 -7.62572,6.6902 -12.95438,7.34888c-5.32866,0.65868 -10.42535,-0.90843 -14.35392,-3.97331c-3.92927,-3.06397 -6.6902,-7.62571 -7.34888,-12.95437c-0.65868,-5.32866 0.90845,-10.42545 3.97332,-14.35402c3.06399,-3.92917 7.62571,-6.6902 12.95437,-7.34888z" fill="#3a2f41" stroke-linecap="butt"/><path d="M452.18212,137.79412c2.07193,-0.25618 4.23552,1.81776 6.0556,5.37617c1.82008,3.55851 3.29819,8.59969 4.00023,14.27872c0.70195,5.67913 0.49584,10.92849 -0.40295,14.82306c-0.89888,3.89446 -2.49223,6.43283 -4.56426,6.689c-2.07202,0.25607 -4.23551,-1.81787 -6.0557,-5.37629c-1.82009,-3.55841 -3.29819,-8.59969 -4.00014,-14.27872c-0.70204,-5.67912 -0.49593,-10.92847 0.40295,-14.82305c0.89877,-3.89447 2.49223,-6.43283 4.56426,-6.6889z" fill="#3a2f41" stroke-linecap="butt"/><path d="M463.9204,150.21129c1.72237,-0.2129 3.46162,1.03714 4.8798,3.22856c1.41898,2.19134 2.58705,5.76297 2.95523,8.87657c0.49141,4.1616 1.12978,8.99838 -0.35933,13.11796c-0.49754,1.34035 -3.02427,0.23757 -4.55977,-0.03056c-1.6343,-0.41446 -3.80156,-0.51891 -4.80084,-1.98168c-1.87973,-2.73898 -2.41705,-6.3038 -2.76673,-9.56229c-0.33643,-3.1325 -0.13781,-6.85814 0.70494,-9.329c0.84185,-2.47077 2.22432,-4.10667 3.94668,-4.31957z" fill="#8c9ca0" stroke-linecap="round"/></g></g><path d="M323.43159,163.19511l21.07116,-2.60464l7.35566,59.50673l-21.07126,2.60452z" fill="#3a2f41" stroke="none" stroke-width="0.78636" stroke-linecap="butt"/><path d="M339.16329,161.27242l54.8242,-6.77679l2.62872,21.26638l-54.82419,6.77679z" fill="#3a2f41" stroke="none" stroke-width="0.78636" stroke-linecap="butt"/><path d="M339.09552,175.14675l7.41391,-0.91638l5.66751,45.84938l-7.41402,0.91649z" fill="#8c9ca0" stroke="none" stroke-width="0.78636" stroke-linecap="butt"/><path d="M346.4394,174.4262l49.16621,-6.07738l0.96466,7.80414l-49.1662,6.07747z" fill="#8c9ca0" stroke="none" stroke-width="0.84105" stroke-linecap="butt"/></g><path d="" fill="#3a2f41" stroke="none" stroke-width="0" stroke-linecap="butt"/><path d="" fill="#3a2f41" stroke="url(#color-1)" stroke-width="0.5" stroke-linecap="butt"/><path d="" fill="#3a2f41" stroke="url(#color-2)" stroke-width="0.5" stroke-linecap="butt"/><path d="" fill="#3a2f41" stroke="url(#color-3)" stroke-width="0.5" stroke-linecap="butt"/><path d="" data-paper-data="{&quot;index&quot;:null}" fill="#3a2f41" stroke="url(#color-4)" stroke-width="0.5" stroke-linecap="butt"/><path d="" data-paper-data="{&quot;index&quot;:null}" fill="#3a2f41" stroke="url(#color-5)" stroke-width="0.5" stroke-linecap="butt"/><path d="" data-paper-data="{&quot;index&quot;:null}" fill="#3a2f41" stroke="url(#color-6)" stroke-width="0.5" stroke-linecap="butt"/><g data-paper-data="{&quot;index&quot;:null}" stroke="#3a2f41" stroke-linecap="butt"><path d="M180.0632,117.83852l3.43125,-12.78611l7.81198,5.12785l-6.01289,-8.83828l15.81213,-17.9536c0,0 2.80469,17.18614 9.43734,32.75063c2.47559,3.45686 -6.46828,9.37086 -6.46828,9.37086z" fill="#3a2f41" stroke-width="1.5"/><path d="M209.69853,122.59412c-2.0282,-1.46822 1.81123,-20.26156 4.9459,-24.35699c1.26792,-1.65651 15.01841,13.18652 13.40651,15.29244c-3.13467,4.09542 -15.3449,11.24165 -17.3731,9.77345z" data-paper-data="{&quot;index&quot;:null}" fill="#8c9ca0" stroke-width="2"/><path d="M210.48075,122.7563c1.70953,1.76887 -6.18211,15.4068 -10.04261,18.41856c-1.98514,1.54871 -16.71879,-12.52115 -15.1573,-13.73935c3.86048,-3.01175 22.66494,-7.30215 24.37446,-5.53328z" fill="#e1e2db" stroke-width="1.5"/><path d="M214.65059,119.02835c1.6569,2.61481 0.99492,6.00513 -1.47858,7.57249c-2.47347,1.56733 -5.82183,0.71818 -7.47872,-1.89667c-1.6569,-2.61481 -0.99493,-6.00512 1.47858,-7.57247c2.47347,-1.56733 5.82183,-0.71817 7.47872,1.89665z" fill="#e1e2db" stroke-width="2"/></g><path d="M291.83597,178.54309l-18.97566,-1.35738l-0.43984,-10.20935c0,0 -0.84047,10.41839 -1.26295,10.3198c-5.36287,-0.21884 -10.66838,-0.35514 -15.74031,-0.43258c-21.30719,-0.32523 -38.49237,0.38879 -38.49237,0.38879c0,0 -7.03719,-11.44121 -7.46619,-22.39979c-0.2998,-7.65805 -0.00512,-22.8212 10.35477,-35.02512c8.3553,-9.84252 23.54972,-13.39457 26.72018,-13.64794c2.53512,-0.20261 13.41532,3.31486 20.00613,9.05289c10.97094,9.55146 23.70642,31.54829 23.70642,31.54829z" fill="#3a2f41" stroke="none" stroke-width="0" stroke-linecap="butt"/><g stroke-linecap="butt"><path d="M279.33563,150.02174c0.26562,6.78507 2.05576,12.77746 -2.62028,17.34695c-4.54557,4.44198 -15.06172,6.3257 -25.84441,6.97791c-10.73209,0.64917 -21.6099,-1.36001 -26.52514,-5.60867c-4.9726,-4.29821 -4.25796,-9.65731 -4.52138,-16.38652c-0.52381,-13.38082 7.86413,-30.7318 32.86407,-30.97142c16.4451,-0.15764 26.12335,15.26091 26.64717,28.64174z" fill="#e1e2db" stroke="none" stroke-width="0"/><path d="M279.33563,150.02174c0.52383,13.38082 -11.94883,5.44094 -25.42086,6.07467c-13.46932,0.63359 -33.56655,9.63583 -34.09036,-3.74499c-0.52381,-13.38082 7.86413,-30.7318 32.86406,-30.97142c16.4451,-0.15764 26.12335,15.26092 26.64717,28.64175z" fill="#b8c1c0" stroke="none" stroke-width="0"/><path d="M257.36627,121.77311c13.59187,2.47868 22.49953,15.61477 22.97154,27.67242l0.02098,0.53615c0.24847,6.34707 0.75635,12.30726 -3.27189,16.76697c-4.46407,4.94219 -14.33352,6.88739 -25.83224,7.58292c-7.94384,0.4805 -17.62368,-0.57857 -22.29452,-2.96002c-8.02332,-4.09072 -8.80463,-10.56281 -9.13569,-19.02014c-0.44463,-11.35774 5.53148,-25.57592 22.63733,-29.76216" fill="none" stroke="#3a2f41" stroke-width="2"/></g><path d="M205.38907,174.32432l-9.40814,-6.73936c0,0 -3.11049,-23.51344 6.5984,-39.25527c12.52293,-20.30438 35.6756,-28.9024 59.04578,-24.1142c5.00642,1.02574 17.67359,4.71703 25.33831,12.86063c9.20752,9.78279 12.74989,22.54568 12.74989,22.54568l-4.95232,-0.58028l1.34099,10.14512c0,0 -2.73206,-0.58467 -2.75809,-0.80032c-0.58309,-4.83185 -1.77501,-9.60482 -1.77501,-9.60482c0,0 0.90902,3.90398 0.65091,9.73669c-2.84328,-0.41725 -18.61926,-1.45719 -18.61926,-1.45719l-2.30795,-4.28584l-0.21821,4.10682l-13.69697,-0.72293l-2.05713,-15.33485l0.37521,14.99173c0,0 -12.21651,0.36438 -18.11385,0.81234c-0.41596,0.0316 -2.25036,-6.38572 -2.25036,-6.38572c0,0 0.11611,6.76737 -0.19486,6.78496c-3.67561,0.20772 -8.71903,1.06882 -8.71903,1.06882c0,0 1.40512,34.16722 1.27098,34.18793c-2.08656,0.32256 -20.13928,-5.49306 -20.16471,-6.90241c-0.03672,-2.036 -1.76638,-13.43366 -1.76638,-13.43366z" fill="#3a2f41" stroke="url(#color-7)" stroke-width="0.5" stroke-linecap="butt"/><path d="M253.23536,115.70733c12.94346,-31.32586 40.29767,-43.80422 40.29767,-43.80422l-9.35994,55.95013" fill="#3a2f41" stroke="#3a2f41" stroke-width="1.5" stroke-linecap="round"/><path d="M198.93848,138.60964c9.6054,-46.98492 40.22758,-76.59897 40.22758,-76.59897l7.57992,50.18537" fill="#3a2f41" stroke="#3a2f41" stroke-width="1.5" stroke-linecap="round"/><g stroke="#3a2f41" stroke-linecap="butt"><path d="M225.27723,158.48482c0,0 4.04221,-4.32614 11.64948,-4.57878c8.05992,-0.26765 12.50912,4.67051 12.50912,4.67051c0,0 -5.12846,-0.21239 -12.47158,-0.14742c-6.52513,0.05772 -11.68702,0.0557 -11.68702,0.0557z" fill="#e1e2db" stroke-width="1"/><g fill="#3a2f41" stroke-width="0.5"><path d="M235.40225,158.58479l-0.10063,-4.49475l2.98626,-0.11269l-0.00274,4.54064z"/></g></g><g><path d="M225.30641,246.94437l48.00637,-1.53232c0,0 5.4741,11.85822 8.96727,19.28048c1.0455,2.22148 1.91354,4.04558 2.40426,5.03546c0.86558,3.0051 1.95921,7.20904 3.18291,12.13826c-24.41899,0.55211 -48.83372,1.23544 -72.93397,1.8694c4.83108,-18.22321 10.37318,-36.79125 10.37318,-36.79125z" fill="#e1e2db" stroke="none" stroke-width="0" stroke-linecap="round"/><path d="M213.7457,272.21807c2.97215,-14.36933 14.7982,-30.17066 14.7982,-30.17066l42.81522,-1.62842c0,0 5.86806,10.73615 7.76084,14.87611c1.31241,2.87053 2.50666,7.58129 2.50666,7.58129l-24.96084,19.35683c-15.00664,0.38884 -29.96148,0.79825 -44.792,1.18605c0.71621,-4.7605 1.37569,-8.80211 1.87192,-11.20121z" fill="#8c9ca0" stroke="none" stroke-width="0" stroke-linecap="butt"/><path d="M212.96114,283.78741c0.76126,-4.6746 1.52504,-8.94615 2.27161,-12.5556c2.67223,-12.91967 13.32956,-28.77222 13.32956,-28.77222l42.46926,-1.16907c0,0 6.8635,8.79199 12.54765,27.15695c0.94369,3.049 2.23031,7.76472 3.70202,13.43202" fill="none" stroke="#3a2f41" stroke-width="2" stroke-linecap="round"/><path d="M274.88386,248.11471l-20.61843,11.11126l-29.39969,-9.29124" fill="none" stroke="#3a2f41" stroke-width="1.5" stroke-linecap="round"/></g><path d="M252.26091,251.93397c-9.20058,0.57151 -24.80049,-8.40504 -24.80049,-8.40504c0,0 0.92829,-5.2086 1.72458,-8.04439c0.72538,-2.58329 2.34158,-8.25313 2.34158,-8.25313c0,0 0.3306,-3.95607 -2.18554,-7.96434c-1.57641,-2.51126 -10.08124,-12.54427 -10.11791,-12.90543c-0.00705,-0.06943 0.78593,-3.86146 2.24548,-7.93825c1.69416,-4.73206 8.47912,-12.61078 11.65293,-14.55728c3.45771,-2.12062 8.25108,-3.2761 11.97034,-3.3966c5.68402,-0.18418 11.62032,0.5676 16.92026,3.04785c1.99724,0.93466 5.67811,3.55258 5.67811,3.55258c0,0 6.42346,7.42482 9.48499,16.76343c-3.1024,10.38318 -11.2022,15.07359 -11.2022,15.07359l-0.61523,6.97883c0,0 2.3407,4.97195 3.30113,7.46384c0.95722,2.48353 2.45193,7.46255 2.45193,7.46255c0,0 -9.64936,10.55032 -18.84996,11.12183z" fill="#3a2f41" stroke="#8c9ca0" stroke-width="1.5" stroke-linecap="round"/><g data-paper-data="{&quot;index&quot;:null}" stroke="#3a2f41" stroke-linecap="butt"><g data-paper-data="{&quot;index&quot;:null}"><g stroke-width="0"><path d="" fill="#e1e2db"/><path d="" fill="#e1e2db"/><path d="" fill="#8c9ca0"/></g><path d="M278.49232,278.72668l37.25081,-2.26596l0.39182,6.61948c-12.44109,0.02396 -24.9126,0.09951 -37.37291,0.20328z" fill="#e1e2db" stroke-width="0"/><path d="M278.49231,278.72668l37.25083,-2.26596l0.3918,6.61949c-12.44109,0.02396 -24.91259,0.09951 -37.37291,0.20328z" fill="#8c9ca0" stroke-width="0"/><path d="M305.50345,277.36022l10.27956,-0.62529l0.37558,6.34523" fill="none" stroke-width="2"/><path d="M278.78566,283.28328l-0.25348,-4.28239l12.11137,-0.73672" fill="none" stroke-width="2"/></g><g data-paper-data="{&quot;index&quot;:null}"><path d="M281.08876,245.07217l-16.39806,-39.41936l5.59036,-15.49799c0,0 8.31892,9.81887 12.89119,16.20517c8.30224,11.5962 32.81026,47.62856 32.81026,47.62856l1.83977,29.08872c-13.03483,0.02017 -26.10513,0.09815 -39.163,0.20707z" fill="#3a2f41" stroke-width="1.5"/><path d="" fill="#8ea8ab" stroke-width="2"/></g></g><g fill="#8c9ca0" stroke="#3a2f41" stroke-width="1.5" stroke-linecap="butt"><path d="M251.29107,198.87692c0.00155,1.84926 -1.56383,3.34967 -3.49638,3.35128c-1.93254,0.00161 -3.50043,-1.49618 -3.50198,-3.34544c-0.00155,-1.84926 1.56384,-3.34968 3.49639,-3.35129c1.93254,-0.00161 3.50042,1.4962 3.50196,3.34545z"/><path d="M251.94731,208.89825c0.0016,1.91352 -1.63474,3.46612 -3.65486,3.4678c-2.02013,0.00168 -3.65902,-1.54817 -3.66062,-3.46169c-0.0016,-1.91352 1.63473,-3.4661 3.65484,-3.4678c2.02013,-0.00168 3.65905,1.54817 3.66065,3.46169z"/></g><g stroke="#3a2f41" stroke-width="2"><g fill="#e1e2db"><path d="M339.97131,215.15225l7.36361,-25.91602l6.57591,25.92191z" stroke-linecap="round"/><path d="M345.33076,214.12613l4.72845,-23.56124l8.71256,27.25579z" stroke-linecap="round"/><path d="M279.40598,225.767l2.70136,-3.85903l-12.02467,-1.8805l8.34821,-3.79612l-2.78426,-3.26608c0,0 22.42728,-2.16459 29.24973,-3.29767c4.37335,-0.72631 7.35222,-1.35227 7.35222,-1.35227l8.23579,-16.88752l27.18702,-2.72671c0,0 -20.23156,10.67326 -16.22702,14.30539c0.98148,0.89022 23.48279,4.79246 23.48279,4.79246l-5.93836,-18.47212l18.11842,28.20994c0,0 -13.55672,2.45071 -22.17726,2.94268c-8.62054,0.49199 20.82099,-2.62889 22.18183,-2.84083l-17.72171,8.03433c0,0 -13.26686,0.06144 -17.8126,0.36933c-13.263,0.89831 -52.17151,-0.27531 -52.17151,-0.27531z" stroke-linecap="butt"/></g><g stroke-linecap="butt"><path d="M315.5321,233.61225l-39.29038,2.94759c0,0 -38.09901,-18.84046 -50.41603,-25.30467c-6.78328,-3.56 4.29734,-16.23663 4.29734,-16.23663l32.8217,9.02815l50.28318,-10.27334z" fill="#3a2f41"/><path d="M308.71325,234.08002l-2.18554,-0.00316l-4.02359,-37.98092l2.09957,-0.25611z" fill="#8ea8ab"/></g></g><g><path d="M254.17838,179.55137c0.12027,2.04213 -4.9406,6.14074 -7.18509,6.27294c-2.2445,0.13219 -7.5947,-2.95212 -7.71497,-4.99424c-0.12027,-2.04213 5.16417,-3.47972 7.40866,-3.61191c2.24449,-0.13219 7.37114,0.29111 7.49141,2.33324z" fill="#3a2f41" stroke="none" stroke-width="0" stroke-linecap="butt"/><g fill="#8c9ca0" stroke="#8c9ca0" stroke-width="1.5" stroke-linecap="butt"><path d="M229.94652,195.1733c-0.81561,-0.70949 8.67565,-15.20691 8.67565,-15.20691l8.04174,5.36639l7.77079,-6.97314c0,0 11.23027,13.34659 10.67083,14.14789c-0.30933,0.44307 -4.08197,-1.27507 -8.71675,-2.39522c-4.26353,-1.03045 -9.43164,-1.45409 -9.43164,-1.45409c0,0 -5.34406,1.70543 -9.69398,3.47683c-3.97736,1.61968 -6.97655,3.33408 -7.31663,3.03827z"/></g><path d="M238.72382,181.63154l0.39335,-1.94857l7.17165,-2.64195l7.67825,1.1924l0.91485,1.91163" fill="none" stroke="#8c9ca0" stroke-width="2" stroke-linecap="round"/></g><path d="" fill="#3a2f41" stroke="#8c9ca0" stroke-width="2" stroke-linecap="butt"/><path d="" fill="#3a2f41" stroke="#8c9ca0" stroke-width="2" stroke-linecap="butt"/><path d="M245.62758,151.93796l-18.38649,0.70499" fill="none" stroke="#3a2f41" stroke-width="1" stroke-linecap="round"/></g></g></svg>