<svg version="1.1" xmlns="http://www.w3.org/2000/svg" xmlns:xlink="http://www.w3.org/1999/xlink" width="379.78955" height="536.03399" viewBox="0,0,379.78955,536.03399"><defs><linearGradient x1="61.91554" y1="285.82872" x2="61.91554" y2="472.78432" gradientUnits="userSpaceOnUse" id="color-1"><stop offset="0" stop-color="#ffffff" stop-opacity="0.26046"/><stop offset="1" stop-color="#ffffff" stop-opacity="0"/></linearGradient><linearGradient x1="235.24888" y1="252.99539" x2="235.24888" y2="439.95099" gradientUnits="userSpaceOnUse" id="color-2"><stop offset="0" stop-color="#ffffff" stop-opacity="0.26046"/><stop offset="1" stop-color="#ffffff" stop-opacity="0"/></linearGradient></defs><g transform="translate(-111.50336,69.02393)"><g data-paper-data="{&quot;isPaintingLayer&quot;:true}" fill-rule="nonzero" stroke-linejoin="miter" stroke-miterlimit="10" stroke-dasharray="" stroke-dashoffset="0" style="mix-blend-mode: normal"><path d="M347.93864,287.69258c-54.10791,35.34629 -68.30482,-67.74556 -68.30482,-67.74556" data-paper-data="{&quot;index&quot;:null}" fill="none" stroke="#3a2f41" stroke-width="25" stroke-linecap="round"/><g><g data-paper-data="{&quot;index&quot;:null}"><path d="M360.40178,301.33821c0,0 -4.46112,6.08023 -10.55852,5.3187c-9.47656,-1.18357 -12.79938,-10.58721 -13.44682,-13.49831c-3.14759,-14.15271 6.14536,-20.04673 12.54464,-20.66313c6.27337,-0.60427 11.31963,4.55092 11.31963,4.55092l7.43854,-7.08795l4.4508,-4.67133l5.23688,-2.9693l4.88737,-4.32226l3.18487,-5.32572l2.57333,-7.24602l0.04151,-8.55479l1.13334,-5.8926l3.27282,-2.75057l5.84841,-1.04899l4.14682,1.52659l4.10353,2.92332l2.70727,4.66952l0.74323,4.88825l-0.21738,3.40452l2.88047,-0.9173l3.49198,1.00299l3.97185,-0.04465l3.27328,-0.96106l3.27327,-0.96105l3.92856,1.35207l3.01215,2.05064l0.91777,4.66999l-1.91896,5.9801l-2.53049,4.0598l1.17888,1.65829l-0.21693,5.19402l-3.66473,6.37336c0,0 -4.1701,3.62962 -5.63127,4.25281c-2.36197,1.00738 -5.20695,-0.52669 -8.00881,-0.70707c-3.4214,-0.22028 -6.6054,0.76914 -6.6054,0.76914c0,0 -9.18052,10.75476 -13.05769,14.45147c-7.50505,7.15573 -11.32807,9.16873 -11.32807,9.16873c0,0 -1.74942,6.33685 -3.42857,9.46932c-1.67915,3.13247 -5.52727,7.23792 -5.52727,7.23792l-4.90923,4.12587l-6.67756,1.63844l-4.64879,-1.57012l-3.07799,-3.53463l-1.63776,-3.99327l0.78473,-3.66652l1.24337,-2.2263l4.91916,-5.2128l0.58383,-2.91102z" fill="#e1e2db" stroke="none" stroke-width="0" stroke-linecap="round"/><path d="M368.59443,280.02936c-0.62456,0.47971 -10.00409,3.73499 -10.43827,4.38199c-0.70262,0.04016 -4.74202,-5.85409 -8.06323,-0.38743c-3.148,5.18155 8.67956,17.33963 -3.34553,20.44746c-4.40656,1.09666 -9.40482,-8.562 -10.05226,-11.4731c-3.14758,-14.1527 6.14536,-20.04673 12.54464,-20.66313c6.27338,-0.60427 11.31963,4.55092 11.31963,4.55092l7.43853,-7.08795l4.4508,-4.67133l5.23688,-2.96929l4.88737,-4.32227l3.18488,-5.32571l2.57334,-7.24603l0.0415,-8.55479l1.13335,-5.8926l3.27282,-2.75057l5.84841,-1.04899l4.14683,1.52659l4.10353,2.9233l2.70728,4.66953l0.74323,4.88825l-0.21738,3.40451l2.88047,-0.9173l3.49199,1.003l3.97185,-0.04466l6.54654,-1.9221l3.92855,1.35206l3.01215,2.05065l0.91777,4.66999l-1.91896,5.98009l-2.5305,4.0598l1.17887,1.65829l-0.21693,5.19402l-3.66474,6.37335c0,0 -0.27699,-5.47208 -2.4509,-7.09566c-4.54823,-3.39688 -11.42027,1.06663 -11.42027,1.06663l4.51517,-6.44934c0,0 8.72805,3.23072 12.68282,-3.22716c2.69336,-4.39809 3.7418,-10.39581 -3.68066,-10.79143c-4.39974,-0.23451 -13.38916,-2.11035 -14.77296,1.22241c-2.89545,6.97347 -9.98872,11.29765 -9.98872,11.29765c0,0 5.11443,-5.71463 5.89946,-11.28482c0.44558,-3.16161 1.61716,-7.39809 1.05553,-10.50914c-0.76971,-4.26363 -6.14398,-11.20158 -11.08215,-8.17711c-5.27594,3.23134 -1.23353,13.92825 -6.4716,23.27561c-7.53936,13.454 -22.05769,25.78549 -23.39915,26.81584z" fill="#8c9ca0" stroke="none" stroke-width="0" stroke-linecap="butt"/><path d="M409.01746,248.58337l-1.16519,4.64627l-1.35228,3.0338l-2.15956,3.81965c0,0 -1.44113,1.78554 -2.18014,2.52467c-0.68739,0.68749 -2.11033,1.76643 -2.11033,1.76643l-0.59689,0.03116l-1.57123,0.17497l3.02025,-2.52716l3.04111,-4.62269l3.13203,-6.90161l0.68066,-5.54891l1.69824,-1.67112z" fill="#3a2f41" stroke="#3a2f41" stroke-width="0.5" stroke-linecap="round"/><path d="M430.66566,261.04811l-4.85056,2.45447l-7.64156,-0.44797l-1.29646,1.78745l-3.38173,3.55807c0,0 -2.25225,-0.0172 -1.81944,-0.68181c0.22676,-0.34819 1.80989,-0.91313 2.85604,-2.05353c1.32798,-1.4476 2.14807,-3.48512 2.14807,-3.48512l1.72367,-1.48443l4.86684,0.84989l7.39314,-2.53337l-1.26502,1.7452z" fill="#3a2f41" stroke="#000000" stroke-width="0" stroke-linecap="round"/><path d="M381.17237,289.90758c0,0 2.87769,9.20793 -0.05314,17.09601" data-paper-data="{&quot;index&quot;:null}" fill="none" stroke="#3a2f41" stroke-width="1.75" stroke-linecap="round"/><path d="M355.39387,273.58928c1.99853,1.59384 4.69644,2.48425 5.71215,3.49114c-2.93318,3.95433 -4.09757,11.4593 -4.09757,11.4593c0,0 -0.86408,-4.39853 2.22038,-11.41517c-1.11915,-1.17941 -3.83494,-3.53529 -3.83494,-3.53529z" fill="#3a2f41" stroke="#3a2f41" stroke-width="0.5" stroke-linecap="butt"/><path d="M360.40178,301.3382c0,0 -2.14273,-1.65684 -2.88127,-3.66904c1.39862,1.04722 3.07547,1.23579 4.1994,1.75644c1.8916,0.87628 3.12499,0.03241 3.67814,1.95348c0.89233,3.09903 0.01442,9.4387 -2.72624,12.18934c-5.94231,5.96392 -0.43653,10.88444 -0.43653,10.88444l-4.64879,-1.57012l-3.07799,-3.53463l-1.63776,-3.99327l0.78473,-3.66652l1.24337,-2.2263l4.91916,-5.2128l0.58383,-2.91102z" fill="#8c9ca0" stroke="none" stroke-width="0" stroke-linecap="butt"/><path d="M335.7639,287.54653c0.03436,-10.22703 7.67527,-14.65823 13.17717,-15.18819c6.27337,-0.60427 11.31963,4.55092 11.31963,4.55092l7.43853,-7.08795l4.4508,-4.67133l5.23689,-2.9693l4.88736,-4.32227l3.18488,-5.32571l2.57333,-7.24602l0.04151,-8.55479l1.13334,-5.89259l3.27282,-2.75057l5.84841,-1.04899l4.14683,1.52659l4.10353,2.92331l2.70727,4.66953l0.74323,4.88825l-0.21738,3.40452l2.88047,-0.9173l3.49198,1.003l3.97185,-0.04466l3.27328,-0.96105l3.27327,-0.96105l3.92856,1.35206l3.01215,2.05065l0.91777,4.66999l-1.91896,5.98009l-2.53049,4.0598l1.17887,1.65829l-0.21693,5.19402l-3.66473,6.37336c0,0 -4.1701,3.62962 -5.63126,4.25281c-2.36197,1.00738 -5.20695,-0.52669 -8.00881,-0.70707c-3.4214,-0.22027 -6.6054,0.76914 -6.6054,0.76914c0,0 -9.18052,10.75476 -13.05769,14.45147c-7.50505,7.15573 -11.32806,9.16874 -11.32806,9.16874c0,0 -1.74942,6.33685 -3.42857,9.46932c-1.67915,3.13247 -5.52727,7.23792 -5.52727,7.23792l-4.90923,4.12586l-6.67755,1.63844l-4.64879,-1.57012l-3.07799,-3.53463l-1.63776,-3.99327l0.78472,-3.66653l1.24338,-2.2263l4.91915,-5.2128l0.58383,-2.91102l-0.00004,-0.00001c0,0 -4.46112,6.08023 -10.55852,5.3187c-3.69981,-0.46208 -12.35757,-3.54827 -13.97706,-18.94086" fill="none" stroke="#3a2f41" stroke-width="2" stroke-linecap="round"/><path d="M357.28575,296.96064c0,0 0.84939,2.52307 3.84764,3.74121c1.40601,0.57124 -1.44701,-0.0847 -0.29466,1.22427c-3.00498,-0.89262 -3.55298,-4.96547 -3.55298,-4.96547z" data-paper-data="{&quot;index&quot;:null}" fill="#3a2f41" stroke="#3a2f41" stroke-width="0.5" stroke-linecap="butt"/><path d="M382.03636,293.07656c0.12414,6.62558 -1.00421,12.01969 -2.52024,12.0481c-1.51602,0.0284 -2.84563,-5.31967 -2.96976,-11.94525c-0.12413,-6.62559 1.00422,-12.01969 2.52025,-12.0481c1.51603,-0.02842 2.84563,5.31966 2.96976,11.94525z" fill="#e1e2db" stroke="none" stroke-width="0" stroke-linecap="butt"/></g><path d="M393.53124,264.98552c0,0 2.65109,-0.64702 5.83554,-0.23924c4.44415,0.56908 12.15271,2.31704 15.67024,5.1925" data-paper-data="{&quot;index&quot;:null}" fill="none" stroke="#3a2f41" stroke-width="1.75" stroke-linecap="round"/></g><path d="M274.95439,179.81875c0,0 8.39139,8.31776 10.21046,12.27501c9.63053,20.95051 17.97773,33.50909 17.97773,33.50909c0,0 -7.35262,12.01504 -17.13545,14.28941c-8.68998,2.21815 -20.20551,-3.25324 -20.20551,-3.25324l-2.97768,-23.92977l-3.33264,-5.9789l5.04091,-15.40129l9.94462,-11.81373" data-paper-data="{&quot;index&quot;:null}" fill="#e1e2db" stroke="#3a2f41" stroke-width="2" stroke-linecap="round"/><path d="M191.37211,279.51852c0.26756,0.19584 21.68253,1.36563 21.68253,1.36563l-56.25759,186.05355z" data-paper-data="{&quot;index&quot;:null}" fill="#3a2f41" stroke="url(#color-1)" stroke-width="0.5" stroke-linecap="butt"/><path d="M296.25763,364.22251l-67.05219,-116.03732l15.68253,-8.63437l70.66874,120.82744l-36.83996,87.40606z" data-paper-data="{&quot;index&quot;:null}" fill="#3a2f41" stroke="url(#color-2)" stroke-width="0.5" stroke-linecap="butt"/><g data-paper-data="{&quot;index&quot;:null}" stroke="#3a2f41" stroke-width="2"><path d="M298.85571,357.61349c-16.35553,6.25174 -29.04291,6.2527 -29.04291,6.2527l-41.50947,-95.56928l35.59905,-14.52491l53.51716,87.32122c0,0 -2.92275,10.54164 -18.56384,16.52028z" data-paper-data="{&quot;index&quot;:null}" fill="#e1e2db" stroke-linecap="butt"/><path d="M276.23684,275.58097l-14.65587,3.11159l-8.6176,-17.05195" fill="none" stroke-linecap="round"/><path d="M274.24313,272.35083l-11.08344,2.48244l-6.24551,-12.49569" fill="none" stroke-linecap="round"/></g><g data-paper-data="{&quot;index&quot;:null}" stroke="#3a2f41" stroke-width="2"><path d="M188.71764,371.40174c-18.2536,-4.52067 -23.35622,-15.04879 -23.35622,-15.04879l28.74742,-99.09908l40.52166,4.51928l-12.79733,108.62746c0,0 -17.3125,4.91489 -33.11553,1.00113z" data-paper-data="{&quot;index&quot;:null}" fill="#e1e2db" stroke-linecap="butt"/><path d="M207.52303,261.92491l-3.99567,18.73118l-15.87177,0.90408" fill="none" stroke-linecap="round"/><path d="M203.67853,263.64892l-2.85697,13.70773l-12.03951,0.55905" fill="none" stroke-linecap="round"/></g><g data-paper-data="{&quot;index&quot;:null}" stroke-linecap="butt"><path d="M222.96818,294.74038v-21.17141h26.3644l2.79622,17.97572z" fill="#8c9ca0" stroke="#3a2f41" stroke-width="2"/><path d="M222.56873,292.34359v-21.17141l10.14252,-12.91271l9.905,-2.08729l6.31688,15l2.79622,17.97572z" fill="#e1e2db" stroke="#e1e2db" stroke-width="3.5"/></g><text transform="translate(234.95921,-46.37859) scale(0.59593,0.59593)" font-size="40" xml:space="preserve" fill="#3a2f41" fill-rule="nonzero" stroke="none" stroke-width="1" stroke-linecap="butt" stroke-linejoin="miter" stroke-miterlimit="10" stroke-dasharray="" stroke-dashoffset="0" font-family="Handwriting" font-weight="normal" text-anchor="start" style="mix-blend-mode: normal"><tspan x="0" dy="0">MR CARTOON MOUSE</tspan></text><g data-paper-data="{&quot;index&quot;:null}"><g><g fill="none" stroke="none" stroke-width="1" stroke-linecap="butt" font-family="sans-serif" font-weight="normal" font-size="12" text-anchor="start"><g><g><g/></g></g><g><g><g/></g></g></g><g fill="none" stroke="none" stroke-width="1" stroke-linecap="butt" font-family="sans-serif" font-weight="normal" font-size="12" text-anchor="start"><g><g><g/></g></g><g><g><g/></g></g></g><path d="M276.05623,182.96497c0,0 -10.29833,38.35831 -9.54102,53.42953c1.19648,23.81142 5.60251,30.75067 5.46218,30.86793c0,0 -24.9536,15.17768 -35.05156,13.30297c-19.45641,-3.6121 -41.90838,-22.04503 -41.90838,-22.04503c0,0 2.17721,-17.03187 3.08671,-37.14969c0.77124,-17.05991 7.20066,-34.73996 9.10802,-50.60148c2.81553,-4.60056 27.23052,-9.25233 36.9471,-6.91755c10.6604,2.56158 32.5034,17.98837 32.5034,17.98837" fill="#3a2f41" stroke="#3a2f41" stroke-width="2" stroke-linecap="round"/><g fill="none" stroke="none" stroke-width="1" stroke-linecap="butt" font-family="sans-serif" font-weight="normal" font-size="12" text-anchor="start"><g/></g></g><path d="M240.79524,222.39417c-0.27059,0.11427 -9.85307,-7.57207 -18.73213,-25.42147c-6.05068,-12.16353 -8.33599,-30.08919 -8.33599,-30.08919c0,0 9.06669,-2.19407 14.00028,-3.00737c5.6792,-0.93621 21.83497,-1.61953 21.83497,-1.61953l24.27073,17.61001c0,0 -11.61546,29.97822 -33.03785,42.52756z" fill="#e1e2db" stroke="none" stroke-width="0" stroke-linecap="butt"/><path d="M273.8331,179.8666c0,0 -5.8106,14.99649 -16.79189,28.21614c-5.02963,-3.90284 -9.99183,-7.47725 -15.966,-11.78724c-9.2384,-6.66493 -17.27695,-12.41826 -25.2148,-17.8887c-1.49501,-6.51673 -2.1333,-11.5233 -2.1333,-11.5233c0,0 9.06669,-2.19407 14.00028,-3.00737c5.6792,-0.93621 21.83497,-1.61953 21.83497,-1.61953l24.27073,17.61001z" fill="#8c9ca0" stroke="none" stroke-width="0" stroke-linecap="butt"/><path d="M241.2817,218.28518c0,0 -8.09098,-7.75555 -12.41442,-15.78167c-0.19574,-0.37037 10.50664,-12.38262 10.50664,-12.38262l9.70529,2.35385c0,0 0.69628,2.01168 1.51182,4.56364c1.31171,4.10458 2.93195,9.60684 2.45986,10.38441c-2.77547,4.57131 -11.76919,10.86238 -11.76919,10.86238z" fill="#3a2f41" stroke="#3a2f41" stroke-width="2" stroke-linecap="butt"/><path d="M240.79524,222.39417c-0.27059,0.11427 -9.85307,-7.57207 -18.73213,-25.42147c-6.05068,-12.16353 -8.33599,-30.08919 -8.33599,-30.08919c0,0 9.06669,-2.19407 14.00028,-3.00737c5.6792,-0.93621 21.83497,-1.61953 21.83497,-1.61953l24.27073,17.61001c0,0 -11.61546,29.97822 -33.03785,42.52756z" fill="none" stroke="#3a2f41" stroke-width="2" stroke-linecap="butt"/><path d="M240.65726,186.65471l2.48123,-10.55095l8.91372,2.09622l-2.48122,10.55095z" fill="#3a2f41" stroke="#3a2f41" stroke-width="2" stroke-linecap="butt"/><g><path d="M255.30415,185.01753l-6.65256,-11.31517c0,0 9.33323,-5.48167 13.20192,-7.15548c0.84715,-0.36652 1.03592,0.13789 1.21204,0.25809c0.37991,0.51657 2.14559,6.35699 1.55559,6.58026z" data-paper-data="{&quot;index&quot;:null}" fill="#8c9ca0" stroke="#3a2f41" stroke-width="4.5" stroke-linecap="round"/><path d="M237.11784,181.42776c0,0 -7.95576,-13.00175 -8.15611,-16.41332c0.43867,-1.55391 4.24841,-7.78883 4.8111,-5.6175c0.92316,0.79694 19.10663,1.02864 22.84153,4.66716c3.13911,3.0581 -8.0044,9.67784 -8.0044,9.67784z" fill="#3a2f41" stroke="#3a2f41" stroke-width="4.5" stroke-linecap="round"/><path d="M231.24847,165.01608c0.39488,-1.50507 1.52543,-5.15631 2.18415,-5.31963c1.33418,-0.7902 13.06914,-3.31855 15.75619,-3.12943c1.69995,0.11964 12.06249,9.0014 12.53484,9.82293c0.96131,0.80889 1.06882,5.45739 0.94112,6.00041" fill="none" stroke="#3a2f41" stroke-width="6.5" stroke-linecap="butt"/><g><path d="M255.34693,184.8356l-6.51343,-11.09048c0,0 9.33324,-5.48168 13.20192,-7.1555c0.84715,-0.36653 1.03592,0.13789 1.21204,0.25809c0.37992,0.51657 2.14559,6.35699 1.55559,6.58027z" data-paper-data="{&quot;index&quot;:null}" fill="#8c9ca0" stroke="#12161a" stroke-width="0" stroke-linecap="round"/><path d="M237.11785,181.42778c0,0 -7.95575,-13.00176 -8.15611,-16.41333c0.43867,-1.5539 4.24841,-7.78882 4.8111,-5.6175c1.69906,1.46677 14.83712,14.34499 14.83712,14.34499z" fill="#8c9ca0" stroke="#12161a" stroke-width="0" stroke-linecap="round"/><path d="M231.24848,165.01603c0.39488,-1.50507 1.52543,-5.15632 2.18415,-5.31964c1.33418,-0.7902 13.06913,-3.31852 15.75619,-3.12942c1.69996,0.11964 12.0625,9.00141 12.53485,9.82293c0.96131,0.80889 1.06882,5.45738 0.94112,6.0004" fill="none" stroke="#8c9ca0" stroke-width="2" stroke-linecap="butt"/></g></g></g><path d="M145.56827,306.61045c-63.42947,-34.79691 33.26097,-110.17959 33.26097,-110.17959" fill="none" stroke="#3a2f41" stroke-width="25" stroke-linecap="round"/><path d="M213.73236,165.88372l0.39522,15.43708l-5.67524,15.179l-6.33571,2.59086l-17.26336,16.83677c0,0 -12.41192,-2.91342 -17.8165,-10.07068c-6.2233,-7.88335 -4.46782,-21.85977 -4.46782,-21.85977c0,0 14.36044,-4.60121 34.96177,-14.95768c3.8913,-1.95619 15.63914,-3.21663 15.63914,-3.21663" data-paper-data="{&quot;index&quot;:null}" fill="#e1e2db" stroke="#3a2f41" stroke-width="2" stroke-linecap="round"/><g data-paper-data="{&quot;index&quot;:null}"><g><path d="M173.33598,362.85247c0,0 -1.56579,-10.0117 -6.69546,-17.34221c-4.54926,-6.5011 -11.43192,-11.23483 -19.82886,-16.60922c-8.53515,-5.46284 6.74594,4.22075 5.08409,5.28424c-9.428,6.03334 -24.24222,-5.61763 -27.94562,-10.72721c-2.64403,-4.11499 -2.88306,-14.27731 0.97263,-22.82965c4.06834,-9.02404 12.43767,-16.40828 17.19795,-19.01515c5.30546,-2.90544 24.47748,3.14514 23.68533,15.97885c-0.14648,2.37317 -17.28693,-4.62508 -6.18468,-0.67232c2.29182,0.81596 18.45497,5.4519 25.7535,5.59117c4.67621,0.08923 13.78984,-4.83663 13.78984,-4.83663l1.37254,-2.19117l1.47717,-2.86204l3.5637,-0.81864l3.79451,-0.09541l3.58526,1.24635l2.60047,3.15438l0.48319,3.51138c0,0 -0.98839,6.91733 -2.99748,10.01439c-1.9997,3.08258 -7.61601,6.13793 -7.61601,6.13793l4.37263,0.54032l2.27423,-1.36332l2.34811,0.36621l2.91436,1.14172l1.8034,1.65567l3.04055,2.53581l3.09286,2.20037l2.80973,1.81262l2.91436,1.14172l2.93592,3.2067l1.15406,3.61602l-0.57548,3.68989l-1.52949,3.19749l-2.53581,3.04055l-3.89915,0.76632l-5.08396,-0.44928l-4.53927,-1.73875l-3.76375,-2.305c0,0 -15.44737,-1.89439 -14.89847,0.4054c0.63595,2.66453 4.42554,4.4559 6.91082,7.31253c2.48528,2.85663 6.25203,7.81713 6.25203,7.81713l3.09286,2.20037l2.5266,1.42485l2.80973,1.81262l2.31734,2.76663l-1.4033,4.59158l-0.13539,3.0713l-1.7603,2.47428l-2.04342,2.08654l-5.91181,0.45242l-3.84683,0.43086l-3.24981,-1.19404l-2.76663,2.31734l-2.16961,0.69244l-2.71432,1.9819l-3.12362,0.20005l-2.5266,-1.42485l-3.27137,-3.25901l-3.60681,-3.31132l-3.09286,-2.20037l-2.47428,-1.7603l-2.13885,-1.70799z" fill="#e1e2db" stroke="none" stroke-width="0" stroke-linecap="round"/><path d="M142.38683,281.73332c5.29681,-2.9007 24.41496,3.12542 23.68905,15.91608l-8.54238,-1.61399c0,0 1.24426,-4.94677 -0.1421,-6.40916c-10.23805,-7.78395 -19.25026,-5.56786 -15.00458,-7.89293z" fill="#8c9ca0" stroke="none" stroke-width="0" stroke-linecap="butt"/><path d="M215.6854,316.59802c1.70872,0.77099 8.60315,5.40019 13.94948,9.16807c1.3245,0.93346 1.55611,-0.13761 2.38157,0.40516c1.21931,0.80176 2.72936,3.15708 2.78497,4.66675c0.57203,15.53134 -11.54122,11.91886 -11.54122,11.91886c0,0 12.45551,-1.01211 6.47172,-11.64596c-1.22858,-2.18332 -14.47163,-11.14731 -16.30854,-11.26177c-12.23706,-0.76256 -17.2288,-4.17387 -17.2288,-4.17387c0,0 5.88497,0.90445 10.2057,0.75736c3.90944,-0.13309 6.80673,-0.95286 9.28511,0.1654z" fill="#8c9ca0" stroke="none" stroke-width="0" stroke-linecap="butt"/><path d="M211.20067,354.9318c1.68003,0.75805 6.09781,0.58304 9.9779,7.33966c1.20311,2.09505 -1.7611,8.14895 -1.69595,9.77485c0.17509,4.36913 -12.25722,3.40844 -12.47636,3.89411c-0.29315,0.64971 8.19663,-3.00808 7.32154,-8.31138c1.24358,-7.3706 -7.20782,-9.46535 -7.20782,-9.46535c0,0 -1.81632,-6.66513 -4.27147,-9.08134c-6.52949,-6.42593 -8.70821,-10.31603 -6.13928,-10.02869c0.96253,0.10766 6.65659,4.65984 9.9584,8.61293c1.94363,2.32702 4.53304,7.26522 4.53304,7.26522z" fill="#8c9ca0" stroke="none" stroke-width="0" stroke-linecap="butt"/><path d="M180.70762,350.46161c0.39675,0.17902 -1.28411,-1.2206 -0.96913,-1.50311c0.78131,-0.70079 3.49137,-0.84935 4.96294,0.79914c1.79391,2.00956 2.85425,6.06314 5.66992,9.5032c3.28332,4.01144 7.75396,7.64768 10.42006,10.54567c1.93898,2.10763 2.68501,4.01894 2.48924,4.45284c-0.96158,2.1311 -7.03492,6.91511 -12.03198,4.66038c-4.99707,-2.25472 -8.80951,-9.58011 -8.80951,-9.58011l6.21517,1.78835l1.30598,-5.70103c0,0 -10.80443,-15.6655 -9.25269,-14.96534z" fill="#8c9ca0" stroke="none" stroke-width="0" stroke-linecap="butt"/><path d="M204.03448,293.08414c0.58604,0.26443 3.40417,-1.72429 5.53102,-1.47393c1.23745,0.14566 2.46191,0.55948 3.31343,1.64784c0.56516,0.72235 0.83168,2.03963 1.31505,2.69496c2.24541,3.04427 0.55141,10.30573 -0.82419,13.35441c-2.88472,6.39331 -17.97091,6.46482 -17.97091,6.46482c0,0 2.30475,-6.02171 3.35854,-5.89512c2.15876,0.25931 12.70046,-3.53177 13.74256,-9.28987c0.51002,-2.81815 -0.42899,-5.69608 -2.45194,-6.92984c-2.9314,-1.78781 -7.31797,-1.16183 -6.01356,-0.57327z" fill="#8c9ca0" stroke="none" stroke-width="0" stroke-linecap="butt"/><path d="M145.9289,327.51841c0.40355,-0.2866 6.35458,4.37296 5.65827,5.91617c-0.69631,1.54321 -6.67071,2.95216 -10.59109,1.46698c-8.85155,-3.3533 -16.98124,-11.34549 -16.98124,-11.34549c0,0 16.15976,8.04888 21.91406,3.96235z" fill="#8c9ca0" stroke="none" stroke-width="0" stroke-linecap="butt"/><g fill="none" stroke="#3a2f41" stroke-width="2.5" stroke-linecap="round"><path d="M198.40714,298.06997c0.48118,-0.24626 0.75755,-0.39563 0.75755,-0.39563l1.37254,-2.19117l1.47717,-2.86204l3.5637,-0.81864l3.79451,-0.09541l3.58526,1.24635l2.60047,3.15438l0.48319,3.51138c0,0 -0.98839,6.91733 -2.99748,10.01439c-1.9997,3.08258 -7.61601,6.13793 -7.61601,6.13793l4.37263,0.54032l2.27423,-1.36332l2.34811,0.36621l2.91436,1.14172l1.8034,1.65567l3.04055,2.53581l3.09286,2.20037l2.80973,1.81262l2.91436,1.14172l2.93592,3.2067l1.15406,3.61602l-0.57548,3.68989l-1.52949,3.19749l-2.53581,3.04055l-3.89915,0.76632l-5.08396,-0.44928l-4.53927,-1.73875l-3.76375,-2.305c0,0 -15.44737,-1.89439 -14.89847,0.4054c0.63595,2.66453 4.42554,4.4559 6.91082,7.31253c2.48528,2.85663 6.25203,7.81713 6.25203,7.81713l3.09286,2.20037l2.5266,1.42485l2.80973,1.81262l2.31734,2.76663l-1.4033,4.59158l-0.13539,3.0713l-1.7603,2.47428l-2.04342,2.08654l-5.91181,0.45242l-3.84683,0.43086l-3.24981,-1.19404l-2.76663,2.31734l-2.16961,0.69244l-2.71432,1.9819l-3.12362,0.20005l-2.5266,-1.42485l-3.27137,-3.25901l-3.60681,-3.31132l-3.09286,-2.20037l-2.47428,-1.7603l-2.13885,-1.70799l-2.60047,-3.15445c0,0 -1.56579,-10.0117 -6.69546,-17.34221c-4.54926,-6.5011 -11.43192,-11.23483 -19.82886,-16.60922c-8.53515,-5.46284 6.74594,4.22075 5.08409,5.28424c-9.428,6.03334 -24.24222,-5.61763 -27.94562,-10.72721c-2.64403,-4.11499 -2.88306,-14.27731 0.97263,-22.82965c4.06834,-9.02404 12.43767,-16.40828 17.19795,-19.01515c5.30546,-2.90544 24.47748,3.14514 23.68533,15.97885c-0.14648,2.37317 -17.28693,-4.62508 -6.18468,-0.67232c1.4334,0.51034 8.29297,2.51496 15.01613,3.97914"/><path d="M198.01658,298.26817c-2.59681,1.30715 -8.97985,4.31267 -12.64174,4.24279c-2.63668,-0.05031 -6.43026,-0.68748 -10.30881,-1.5194"/><path d="M179.68951,350.66281c0,0 0.80367,-1.89184 1.64708,-1.88657c1.22799,0.00767 3.30841,0.48793 3.30841,0.48793c0,0 3.32134,6.28208 5.89851,9.64857c2.1203,2.76969 8.46311,9.11151 8.46311,9.11151l1.69877,2.32655l1.46795,1.60336l2.08654,2.04342"/><path d="M208.66593,313.9268c-1.65211,0.69013 -2.02974,1.85689 -3.57581,1.65914"/></g><path d="M141.27997,318.22815c0,0 -1.23611,-4.67046 0.38744,-8.50429c1.62356,-3.83383 6.50641,-7.77478 6.50641,-7.77478c0,0 -3.8463,3.96763 -5.79501,8.27317c-1.63619,3.61508 -1.09884,8.0059 -1.09884,8.0059z" fill="#3a2f41" stroke="none" stroke-width="0" stroke-linecap="round"/><path d="M150.8676,326.02739c5.18078,2.33761 9.08496,4.88792 8.72023,5.69627c-0.36473,0.80835 11.0794,17.55807 7.89435,12.85059c-2.7128,-4.0095 -9.09853,-8.72254 -14.95422,-12.26337c-7.61108,-4.60229 -15.43031,-6.82202 -15.22418,-7.27887c0.36473,-0.80835 8.38305,-1.34223 13.56382,0.99539z" fill="#e1e2db" stroke="none" stroke-width="0" stroke-linecap="butt"/><path d="M152.26771,293.28763c0.20614,-0.45686 7.3383,4.06963 16.148,6.87654c6.77788,2.15954 14.82063,3.95677 19.77255,3.40567c5.81398,-0.64704 -14.95019,1.57 -15.31493,2.37835c-0.36473,0.80835 -5.0287,-0.50737 -10.41725,-2.93874c-5.38856,-2.43137 -10.5531,-8.91348 -10.18837,-9.72182z" data-paper-data="{&quot;index&quot;:null}" fill="#e1e2db" stroke="none" stroke-width="0" stroke-linecap="butt"/><path d="M188.96299,349.14187c-0.45028,0.99794 -1.44822,0.54766 -1.44822,0.54766l-0.66529,-0.30019c-1.54329,-0.69635 -3.52111,-1.61867 -5.2218,-1.70254c-1.49597,-0.07378 -1.96286,4.10121 -2.01884,4.9802c0,0 -0.07122,1.0925 -1.16372,1.02129c-1.0925,-0.07122 -1.02129,-1.16372 -1.02129,-1.16372c0.15886,-2.38743 0.99192,-6.66567 4.03683,-7.02105c1.86255,-0.21739 4.65093,1.15065 6.28937,1.88992l0.66529,0.30019c0,0 0.99794,0.45028 0.54766,1.44822z" fill="#e1e2db" stroke="none" stroke-width="0.5" stroke-linecap="butt"/><path d="M205.90167,316.74774l-14.94796,-1.29962c0,0 9.39703,0.34527 15.23028,-1.45566c2.1844,-0.6744 3.05117,-0.72497 3.19202,-0.46388c0.33135,0.61418 -3.47434,3.21917 -3.47434,3.21917z" fill="#3a2f41" stroke="#000000" stroke-width="0" stroke-linecap="round"/></g><path d="M166.84811,325.04312c0.21494,-0.4322 1.83749,1.11761 4.62711,2.50495c2.78961,1.38735 5.52356,2.40083 5.30862,2.83304c-0.21494,0.4322 -3.29736,0.11944 -6.08698,-1.2679c-2.78962,-1.38735 -4.0637,-3.63789 -3.84875,-4.07008z" data-paper-data="{&quot;index&quot;:null}" fill="#3a2f41" stroke="none" stroke-width="0" stroke-linecap="butt"/><path d="M170.55173,314.56704c0.14262,-0.46114 1.99333,0.8075 4.96978,1.72809c2.97644,0.92058 5.8378,1.48114 5.69518,1.94229c-0.14262,0.46114 -3.2352,0.64825 -6.21166,-0.27233c-2.97645,-0.92059 -4.59592,-2.9369 -4.4533,-3.39803z" data-paper-data="{&quot;index&quot;:null}" fill="#3a2f41" stroke="none" stroke-width="0" stroke-linecap="butt"/><path d="M160.10746,331.31337c0.29753,-0.38009 1.57493,1.46459 4.02821,3.38504c2.45328,1.92046 4.92727,3.46349 4.62974,3.84358c-0.29753,0.38009 -3.25391,-0.54671 -5.7072,-2.46715c-2.45328,-1.92045 -3.24828,-4.38138 -2.95076,-4.76146z" data-paper-data="{&quot;index&quot;:null}" fill="#3a2f41" stroke="none" stroke-width="0" stroke-linecap="butt"/></g><g><g data-paper-data="{&quot;index&quot;:null}" stroke-linecap="butt"><path d="M257.77168,35.04296c-0.55819,-5.25666 -2.41407,-10.19227 -4.00152,-15.21329c-0.25207,-0.43801 -0.39465,-1.00795 -0.19601,-1.7055c0.08113,-0.47497 0.30535,-0.99135 0.82958,-1.38627c0.48196,-0.44553 1.03,-0.5742 1.51183,-0.56946c0.29178,-0.0288 0.55312,-0.00645 0.78644,0.05195c2.04491,-0.44298 4.5525,-0.983 6.34503,0.37452c1.1091,0.83994 1.16274,2.53066 1.64973,3.83389c2.33864,6.25836 0.12576,12.99121 1.52969,19.16622c0,0 0.50528,2.4484 -1.94312,2.95369c-2.4484,0.50529 -2.95369,-1.94312 -2.95369,-1.94312c-0.06457,-0.33647 -0.12126,-0.67681 -0.17099,-1.02049c-1.21173,0.20248 -2.41781,-0.51457 -2.79497,-1.72023c-0.02849,-0.09107 -0.05151,-0.18253 -0.06923,-0.27405l-0.50101,-2.42768l0.05354,-0.01105l-0.07529,-0.10914z" fill="#e3c027" stroke="none" stroke-width="0.5"/><path d="M251.62104,59.13629c0,0 4.41547,-6.62757 5.34264,-10.28903c1.01746,-4.01802 0.51646,-12.84894 0.51646,-12.84894l9.09858,3.96431c0,0 -2.95289,7.14646 -4.51149,10.49892c-1.08251,2.3284 -5.45031,7.89771 -5.45031,7.89771z" fill="#a57a3d" stroke="none" stroke-width="0"/><path d="M256.53207,57.25068c-1.01948,2.32283 -7.32981,3.24573 -4.83191,0.46379c13.32702,-14.84249 1.38959,-40.77461 1.38959,-40.77461l9.84246,-2.03124c0,0 12.79786,23.63804 -6.40014,42.34207z" fill="none" stroke="#3a2f41" stroke-width="2.5"/></g><g data-paper-data="{&quot;index&quot;:null}"><path d="M231.20864,55.69l-19.08406,-24.33847l37.29742,1.70363l7.32119,22.85607z" fill="#e3c027" stroke="none" stroke-width="0" stroke-linecap="round"/><path d="M236.74237,55.75502l-1.87126,-15.67636l15.25598,-6.46182l7.7211,22.46547z" fill="#a57a3d" stroke="none" stroke-width="0" stroke-linecap="butt"/><path d="M237.23965,43.78511c10.02912,4.0568 18.12795,11.51912 18.12795,11.51912" fill="none" stroke="#5c3d12" stroke-width="0.5" stroke-linecap="round"/><path d="M230.18005,55.75697l-17.9792,-24.16735l37.29742,1.70363l7.32119,22.85607z" fill="none" stroke="#3a2f41" stroke-width="2.5" stroke-linecap="round"/></g><g stroke-linecap="butt"><path d="M232.4932,88.68933c2.66943,-6.19625 9.67991,-14.75193 20.53392,-17.90335c13.89471,-4.03427 35.16421,-7.36511 43.47645,-3.78407c7.43902,3.20484 11.11896,21.92892 21.2242,38.15633c10.00669,16.06916 25.66559,24.04007 25.66559,24.04007c0,0 -22.22515,40.23563 -69.65077,15.71954c-14.70955,-6.59665 -42.71643,-52.82326 -41.24941,-56.22851z" fill="#3a2f41" stroke="#3a2f41" stroke-width="2.5"/><path d="M206.81531,93.47369c9.63634,-12.92393 41.99564,-31.31328 49.86185,-25.44809c1.43141,1.06729 39.43349,30.39956 48.51766,54.29637c2.94797,7.75496 34.00918,12.23997 31.67832,15.42837c-22.28074,27.74064 -87.2926,30.22963 -116.84474,8.55171c-16.41011,-12.03762 -25.02322,-36.98902 -13.21309,-52.82837z" data-paper-data="{&quot;index&quot;:null}" fill="#3a2f41" stroke="#3a2f41" stroke-width="2.5"/><path d="M241.35653,83.95853c0.77626,-6.702 -45.95058,17.48247 -36.46,11.34488c7.93751,-31.23748 35.5049,-42.7126 64.44294,-43.55141c6.60498,-0.19146 16.71527,2.44632 23.5432,6.483c9.58623,5.66741 15.93672,13.74087 25.36085,17.53581c20.87114,8.40447 28.51646,3.00033 28.51646,3.00033c0,0 4.06152,26.83343 -13.74971,39.96587c-8.97753,6.61924 -22.86823,8.94102 -35.98608,7.22471c-15.98476,-2.09142 -56.09427,-38.32003 -55.66766,-42.00323z" fill="#3a2f41" stroke="#3a2f41" stroke-width="2.5"/><g data-paper-data="{&quot;index&quot;:null}"><path d="M303.55597,121.88384c-0.50515,9.23391 -1.65205,17.43368 -8.82203,23.01969c-6.96993,5.43015 -19.75026,8.38386 -35.00361,7.86303c-30.54065,-1.04276 -41.19149,-17.26898 -40.19529,-35.47911c0.99618,-18.21013 15.04347,-40.64174 50.2439,-37.70885c23.15506,1.92928 34.77319,24.09511 33.77701,42.30524z" fill="#7c7984" stroke="none" stroke-width="0"/><path d="M303.55596,121.88385c-0.9962,18.21013 -17.51412,5.81982 -36.54835,4.92346c-19.03044,-0.89617 -48.46878,8.69026 -47.47258,-9.51986c0.99618,-18.21013 15.04347,-40.64174 50.2439,-37.70885c23.15506,1.92928 34.77319,24.09511 33.77701,42.30524z" fill="#626171" stroke="none" stroke-width="0"/><path d="M274.81532,81.69424c24.94113,5.61666 29.45741,27.47278 28.72091,40.93593h-0.00001c-0.47253,8.63782 -2.3357,16.6861 -8.58021,22.2077c-6.92007,6.11896 -18.97917,9.23042 -35.24542,8.67501c-30.54063,-1.04277 -41.19149,-17.26896 -40.1953,-35.4791c0.84557,-15.45692 11.09417,-33.95532 35.70052,-37.40198" fill="none" stroke="#3a2f41" stroke-width="2"/><path d="M255.34479,80.26475c0.80472,-0.06209 1.59659,-0.1125 2.37581,-0.15151" fill="none" stroke="#3a2f41" stroke-width="2"/></g><path d="M253.78982,98.9644c0.48544,-4.19112 -1.28162,-22.45066 4.85874,-26.26505c7.86053,-4.88294 24.93141,1.23278 30.76693,1.90867c5.22244,0.60489 11.04551,11.18835 20.38418,19.13505c9.24759,7.86921 28.93206,12.85451 28.93206,12.85451c0,0 -18.16218,25.05465 -48.32741,18.8425c-10.3757,-1.35184 -36.88129,-24.17239 -36.61451,-26.4757z" fill="#3a2f41" stroke="#626171" stroke-width="1.5"/><path d="M247.24585,67.5164c7.20875,-0.53596 13.17427,3.00525 16.03591,6.10559c1.11194,1.20469 6.53573,7.16598 -0.76281,19.42573c-3.02417,5.07989 -8.43167,15.76151 -16.91953,20.46346c-22.41343,12.41616 -35.88949,11.66052 -35.88949,11.66052c0,0 2.40509,-10.96023 5.2404,-22.76715c2.86325,-11.92322 1.33235,-23.90544 5.19561,-27.47128c4.31674,-3.98443 17.87168,-6.73076 27.09992,-7.41688z" data-paper-data="{&quot;index&quot;:null}" fill="#3a2f41" stroke="#3a2f41" stroke-width="2.5"/><path d="M248.8464,71.45377c0.46989,-4.05686 10.97666,-6.17278 23.46752,-4.72604c5.4188,0.62763 9.78222,-2.56385 16.03054,2.71099c8.15465,6.88419 14.24951,21.48517 25.19141,28.70569c2.94945,2.82482 -30.43268,-15.27877 -42.92354,-16.7255c-12.49086,-1.44672 -22.23578,-5.90829 -21.76591,-9.96516z" fill="#3a2f41" stroke="none" stroke-width="0"/><path d="M236.87636,66.12046c3.49459,-2.36412 10.11161,-4.44799 17.007,-2.27842c8.82709,2.77737 21.39539,8.54941 24.68708,13.41508c2.94587,4.35451 -1.2834,15.66956 -1.22138,27.93158c0.06139,12.14244 9.83003,24.1333 9.83003,24.1333c0,0 -23.22455,-3.1158 -42.20645,-20.32655c-7.18838,-6.51764 -10.01109,-18.15251 -11.79403,-23.78918c-4.30296,-13.60348 2.33988,-18.16719 3.69775,-19.0858z" data-paper-data="{&quot;index&quot;:null}" fill="#3a2f41" stroke="#3a2f41" stroke-width="2.5"/></g><path d="M280.64295,133.37393c1.60162,-0.00101 2.90021,0.32277 2.90045,0.72317c0.00025,0.40041 -1.29792,0.72583 -2.89954,0.72683c-1.60162,0.00101 -2.90021,-0.32277 -2.90045,-0.72317c-0.00025,-0.40041 1.29792,-0.72583 2.89954,-0.72683z" fill="#3a2f41" stroke="#3a2f41" stroke-width="1.5" stroke-linecap="butt"/><g stroke-linecap="butt"><path d="M267.03349,122.91389c1.05756,6.13125 -7.20559,12.44438 -18.45627,14.10076c-11.25068,1.65638 -21.22847,-1.97121 -22.28603,-8.10246c-1.05757,-6.13125 7.20559,-12.44438 18.45627,-14.10076c11.25068,-1.65638 21.22847,1.97121 22.28604,8.10246z" fill="#e1e2db" stroke="#3a2f41" stroke-width="1"/><path d="M248.29492,135.12853c-8.97678,1.44842 -17.03856,-1.36204 -18.00649,-6.27736c-0.96793,-4.91532 5.52453,-10.07415 14.50131,-11.52258c8.97678,-1.44843 17.03856,1.36203 18.00649,6.27736c0.96793,4.91531 -5.52454,10.07416 -14.50132,11.52258z" fill="#3a2f41" stroke="none" stroke-width="0"/></g><path d="M251.45827,102.02726c1.26449,8.24176 -10.26454,8.08807 -10.26454,8.08807" fill="none" stroke="#626171" stroke-width="1.5" stroke-linecap="round"/><path d="M284.70824,109.07652c0,0 -10.85524,0.67845 -10.74609,-9.24179" data-paper-data="{&quot;index&quot;:null}" fill="none" stroke="#626171" stroke-width="1.5" stroke-linecap="round"/><path d="M281.87222,150.3069c-6.95849,4.884 -6.89723,-6.80218 -7.69719,-3.53589c-1.84135,7.51836 -8.28607,5.56234 -8.3182,1.80529c-0.03213,-3.75704 3.06956,-8.69704 8.59221,-8.74426c5.52265,-0.04723 10.95938,7.99289 7.42317,10.47487z" fill="#e1e2db" stroke="#3a2f41" stroke-width="1" stroke-linecap="butt"/><path d="M233.71144,135.16535l0.08933,7.44591c0,0 2.97539,0.91927 2.72314,3.85691c-0.10054,1.17083 -1.42809,3.09473 -5.06206,3.16295c-3.54085,0.06646 -5.14063,-1.72305 -5.27434,-3.2238c-0.29095,-3.2657 2.80091,-3.60567 2.80091,-3.60567l0.05352,-10.29788" fill="#e1e2db" stroke="#3a2f41" stroke-width="1" stroke-linecap="round"/><path d="M350.56954,39.55083c-1.21953,18.35478 -19.95733,30.67475 -41.85203,27.51741c-21.8947,-3.15734 -38.65524,-20.59636 -37.4357,-38.95113c1.21953,-18.35478 19.95732,-30.67474 41.85202,-27.5174c21.8947,3.15734 38.65524,20.59635 37.43571,38.95114z" fill="#3a2f41" stroke="#3a2f41" stroke-width="2.5" stroke-linecap="butt"/><path d="M211.86677,28.64046c13.73278,12.23912 13.99737,36.42516 0.59097,54.02105c-13.4064,17.59589 -35.40706,21.93841 -49.13984,9.6993c-8.45591,-7.53619 -11.80543,-19.60196 -10.00125,-31.86975c0.06907,0.81813 0.20677,1.61156 0.50033,2.33956c0.87345,2.15752 4.75965,0.78002 6.28057,-0.5652c0.78905,-0.6979 1.19674,-2.24461 1.69592,-3.14574c0.08892,-0.31736 0.24066,-0.621 0.43192,-0.88941l-0.01617,-0.06479l0.03052,0.00378l0.00041,0.0004l0.0003,-0.00031l0.00043,0.00005l0.00007,-0.00057l0.00839,-0.00869c1.27608,2.85984 6.00633,3.416 8.60695,3.42236c2.35251,0.00547 6.59741,-0.48598 8.05881,-2.7491c0.29063,-0.45007 0.32972,-1.43442 0.55738,-1.97308c0.45423,-2.59114 -0.35792,-6.23715 -2.87558,-7.39126c2.53328,-0.31791 5.14442,-3.3616 6.38098,-4.69284c0.02346,-0.55426 0.45262,-1.61631 0.34302,-2.09311c-0.47874,-2.08263 -3.55638,-3.52312 -4.92565,-4.74347c2.42114,0.81068 8.16098,0.11172 8.57833,-2.64725c0.08646,-1.62273 1.14029,-3.24753 1.02311,-4.89718c-0.12032,-1.69391 -1.83397,-3.55414 -2.60339,-4.9958c-1.07695,-0.59547 -2.1056,-1.21452 -3.16427,-1.73321c10.44243,-3.71052 21.49389,-2.2838 29.63773,4.97426z" data-paper-data="{&quot;index&quot;:null}" fill="#3a2f41" stroke="#3a2f41" stroke-width="2.5" stroke-linecap="butt"/><path d="M230.41027,112.15767c-4.33999,6.50999 -12.32851,8.80721 -17.84285,5.13098c-5.51434,-3.67623 -6.46634,-11.9338 -2.12635,-18.44379c4.33999,-6.50999 12.32851,-8.8072 17.84285,-5.13097c5.51434,3.67623 6.46634,11.93379 2.12635,18.44378z" fill="none" stroke-opacity="0.38867" stroke="#ff5a7a" stroke-width="2" stroke-linecap="butt"/><path d="M221.34107,110.16749c0,0 -0.70349,3.10875 -3.76428,2.62986c-2.97099,-0.46484 -3.80557,-3.36366 -3.53418,-7.03955c0.29734,-4.02734 2.14167,-7.76155 5.06634,-7.6035c3.652,0.19735 3.80764,3.48442 3.80764,3.48442" data-paper-data="{&quot;index&quot;:null}" fill="none" stroke-opacity="0.38867" stroke="#ff5a7a" stroke-width="2" stroke-linecap="round"/><path d="M225.09233,108.3346h3" fill="none" stroke-opacity="0.38867" stroke="#ff5a7a" stroke-width="2" stroke-linecap="round"/><path d="M342.68951,66.13341c0,0 2.46168,-7.40941 5.42016,-4.98125c3.51561,2.88545 -0.59611,6.5944 -0.59611,6.5944" fill="none" stroke="#3a2f41" stroke-width="1.5" stroke-linecap="round"/><path d="M352.36979,76.2475c0,0 7.22382,-2.96237 7.31056,0.864c0.10307,4.54696 -5.38977,3.84601 -5.38977,3.84601" fill="none" stroke="#3a2f41" stroke-width="1.5" stroke-linecap="round"/><path d="M354.52642,67.29071c0,0 5.74552,-5.28659 7.15564,-1.72848c1.67568,4.2282 -3.71875,5.47835 -3.71875,5.47835" fill="none" stroke="#3a2f41" stroke-width="1.5" stroke-linecap="round"/><g data-paper-data="{&quot;index&quot;:null}" stroke-linecap="butt"><path d="M275.27558,120.41389c0.87668,-6.13125 9.14781,-9.75884 18.4741,-8.10246c9.3263,1.65638 16.17608,7.96951 15.2994,14.10076c-0.87667,6.13125 -9.1478,9.75884 -18.47409,8.10246c-9.3263,-1.65638 -16.17607,-7.96951 -15.2994,-14.10076z" fill="#e1e2db" stroke="#3a2f41" stroke-width="1"/><path d="M290.80901,132.62853c-7.44134,-1.44842 -12.8233,-6.60727 -12.02093,-11.52258c0.80237,-4.91533 7.48521,-7.72579 14.92655,-6.27736c7.44134,1.44843 12.82329,6.60726 12.02092,11.52258c-0.80237,4.91532 -7.48521,7.72578 -14.92655,6.27736z" fill="#3a2f41" stroke="none" stroke-width="0"/></g><path d="M306.16534,130.50377l0.05352,10.29788c0,0 3.09186,0.33997 2.80091,3.60567c-0.13371,1.50075 -1.73349,3.29026 -5.27434,3.2238c-3.63397,-0.06822 -4.96152,-1.99212 -5.06206,-3.16295c-0.25225,-2.93764 2.72314,-3.85691 2.72314,-3.85691l0.08933,-7.44591" data-paper-data="{&quot;index&quot;:null}" fill="#e1e2db" stroke="#3a2f41" stroke-width="1" stroke-linecap="round"/></g></g></g></svg>