<svg version="1.1" xmlns="http://www.w3.org/2000/svg" xmlns:xlink="http://www.w3.org/1999/xlink" width="213.44957" height="251.82491" viewBox="0,0,213.44957,251.82491"><defs><linearGradient x1="1077.66312" y1="216.06022" x2="1077.66312" y2="354.07602" gradientUnits="userSpaceOnUse" id="color-1"><stop offset="0" stop-color="#ffffff" stop-opacity="0.26046"/><stop offset="1" stop-color="#ffffff" stop-opacity="0"/></linearGradient><linearGradient x1="1077.66312" y1="216.06022" x2="1077.66312" y2="354.07602" gradientUnits="userSpaceOnUse" id="color-2"><stop offset="0" stop-color="#ffffff" stop-opacity="0.26046"/><stop offset="1" stop-color="#ffffff" stop-opacity="0"/></linearGradient><linearGradient x1="1077.66312" y1="216.06022" x2="1077.66312" y2="354.07602" gradientUnits="userSpaceOnUse" id="color-3"><stop offset="0" stop-color="#ffffff" stop-opacity="0.26046"/><stop offset="1" stop-color="#ffffff" stop-opacity="0"/></linearGradient><linearGradient x1="1036.02754" y1="220.1205" x2="1036.02754" y2="358.13628" gradientUnits="userSpaceOnUse" id="color-4"><stop offset="0" stop-color="#ffffff" stop-opacity="0.26046"/><stop offset="1" stop-color="#ffffff" stop-opacity="0"/></linearGradient><linearGradient x1="1036.02754" y1="220.1205" x2="1036.02754" y2="358.13628" gradientUnits="userSpaceOnUse" id="color-5"><stop offset="0" stop-color="#ffffff" stop-opacity="0.26046"/><stop offset="1" stop-color="#ffffff" stop-opacity="0"/></linearGradient><linearGradient x1="1036.02754" y1="220.1205" x2="1036.02754" y2="358.13628" gradientUnits="userSpaceOnUse" id="color-6"><stop offset="0" stop-color="#ffffff" stop-opacity="0.26046"/><stop offset="1" stop-color="#ffffff" stop-opacity="0"/></linearGradient><linearGradient x1="255.45167" y1="109.97509" x2="255.73042" y2="170.25415" gradientUnits="userSpaceOnUse" id="color-7"><stop offset="0" stop-color="#cedee0" stop-opacity="0"/><stop offset="1" stop-color="#cedee0" stop-opacity="0.19676"/></linearGradient></defs><g transform="translate(-177.38457,-37.14519)"><g data-paper-data="{&quot;isPaintingLayer&quot;:true}" fill-rule="nonzero" stroke-linejoin="miter" stroke-miterlimit="10" stroke-dasharray="" stroke-dashoffset="0" style="mix-blend-mode: normal"><path d="" fill="#3a2f41" stroke="none" stroke-width="0" stroke-linecap="butt"/><path d="" fill="#3a2f41" stroke="url(#color-1)" stroke-width="0.5" stroke-linecap="butt"/><path d="" fill="#3a2f41" stroke="url(#color-2)" stroke-width="0.5" stroke-linecap="butt"/><path d="" fill="#3a2f41" stroke="url(#color-3)" stroke-width="0.5" stroke-linecap="butt"/><path d="" data-paper-data="{&quot;index&quot;:null}" fill="#3a2f41" stroke="url(#color-4)" stroke-width="0.5" stroke-linecap="butt"/><path d="" data-paper-data="{&quot;index&quot;:null}" fill="#3a2f41" stroke="url(#color-5)" stroke-width="0.5" stroke-linecap="butt"/><path d="" data-paper-data="{&quot;index&quot;:null}" fill="#3a2f41" stroke="url(#color-6)" stroke-width="0.5" stroke-linecap="butt"/><g><path d="M226.29338,247.31906l48.0244,-0.7853c0,0 5.28896,11.94195 8.66624,19.41765c1.01081,2.23748 1.85037,4.07486 2.32563,5.07225c0.81872,3.0182 1.84682,7.23865 2.99369,12.18631c-24.42462,0.17215 -48.84703,0.47558 -72.95423,0.73453c5.114,-18.14585 10.94429,-36.62542 10.94429,-36.62542z" fill="#e1e2db" stroke="none" stroke-width="0" stroke-linecap="round"/><path d="M214.34089,272.40985c3.19534,-14.32135 15.26578,-29.93679 15.26578,-29.93679l42.83537,-0.96214c0,0 5.70033,10.82614 7.52847,14.99505c1.26759,2.8906 2.38841,7.61937 2.38841,7.61937l-25.25896,18.96617c-15.01087,0.15533 -29.97027,0.33204 -44.80503,0.48907c0.79018,-4.74878 1.51246,-8.77964 2.04595,-11.17073z" fill="#8c9ca0" stroke="none" stroke-width="0" stroke-linecap="butt"/><path d="M213.37644,283.96558c0.83389,-4.66219 1.66403,-8.92134 2.46666,-12.51874c2.8729,-12.87653 13.77556,-28.56137 13.77556,-28.56137l42.48231,-0.50823c0,0 6.72589,8.8977 12.12365,27.34887c0.89614,3.06331 2.10924,7.79848 3.49261,13.48799" fill="none" stroke="#3a2f41" stroke-width="2" stroke-linecap="round"/><path d="M275.84663,249.26054l-20.78879,10.78915l-29.25159,-9.74749" fill="none" stroke="#3a2f41" stroke-width="1.5" stroke-linecap="round"/></g><path d="M254.51907,252.57725c-9.21053,-0.3788 -23.80333,-10.91376 -23.80333,-10.91376c0,0 1.45963,-5.08535 2.54365,-7.82409c0.98749,-2.49489 3.17885,-7.96819 3.17885,-7.96819c0,0 0.73615,-3.90101 -1.35393,-8.14703c-1.30949,-2.66022 -8.73615,-13.51555 -8.73543,-13.87856c0.00014,-0.06979 1.17931,-3.76002 3.05084,-7.66488c2.17236,-4.53248 9.73243,-11.67077 13.08977,-13.28016c3.65767,-1.75336 8.54454,-2.40918 12.25644,-2.14612c5.67278,0.40201 11.50012,1.76097 16.51654,4.77371c1.89039,1.13532 5.28217,4.1183 5.28217,4.1183c0,0 5.62489,8.04671 7.70867,17.65089c-4.15493,10.0086 -12.6946,13.84014 -12.6946,13.84014l-1.33047,6.8784c0,0 1.81636,5.18652 2.51513,7.76405c0.69644,2.56889 1.67058,7.67533 1.67058,7.67533c0,0 -10.68431,9.50079 -19.89485,9.12199z" fill="#3a2f41" stroke="#8c9ca0" stroke-width="1.5" stroke-linecap="round"/><g data-paper-data="{&quot;index&quot;:null}" stroke="#3a2f41"><g data-paper-data="{&quot;index&quot;:null}"><g><path d="M357.56,129.2217l-22.96718,-12.17174l47.06758,-77.20196l8.10501,35.78344z" fill="#e1e2db" stroke-width="0" stroke-linecap="butt"/><path d="M357.56,129.22171l-22.96718,-12.17174l19.66526,-32.72326l12.70703,29.24476z" fill="#8c9ca0" stroke-width="0" stroke-linecap="butt"/><path d="M350.34577,91.00732l16.07635,22.27628" fill="none" stroke-width="1.5" stroke-linecap="round"/><path d="M375.25725,98.58187l-14.76848,-23.77168" fill="none" stroke-width="1.5" stroke-linecap="round"/><path d="M384.26025,84.28168l-14.41706,-26.39926" fill="none" stroke-width="1.5" stroke-linecap="round"/><path d="M341.1604,120.53048l-6.56752,-3.48052l46.45558,-77.30277l8.717,35.88426l-32.2054,53.59026l-2.99374,-1.58657" fill="none" stroke-width="2" stroke-linecap="butt"/></g><path d="M347.94001,154.76267l-31.65745,-16.77728l22.23026,-36.99151l31.65745,16.77727z" fill="#e1e2db" stroke-width="0" stroke-linecap="butt"/><path d="M347.94002,154.76268l-31.65747,-16.77728l12.82517,-21.34125l22.82236,31.47902z" fill="#8c9ca0" stroke-width="0" stroke-linecap="butt"/><path d="M344.60964,145.49427l-18.62203,-9.86898l14.39268,-23.94962l18.62204,9.86897z" fill="none" stroke-width="1.5" stroke-linecap="butt"/><path d="M344.60966,145.49425l-11.63945,-21.48811" fill="none" stroke-width="1.5" stroke-linecap="round"/><path d="M341.00106,112.00458l10.70834,20.99467" fill="none" stroke-width="1.5" stroke-linecap="round"/><path d="M326.72789,143.23029l-10.2928,-5.45478l22.23026,-36.99151l31.65746,16.77727l-22.23028,36.99151l-8.73605,-4.62978" fill="none" stroke-width="2" stroke-linecap="butt"/></g><g data-paper-data="{&quot;index&quot;:null}" stroke-width="2" stroke-linecap="butt"><path d="M358.03683,141.18117l-19.52592,32.18759c0,0 -36.92252,19.86965 -49.1686,26.09816c-6.74425,3.43019 -18.24261,8.18804 -18.24261,8.18804l1.75058,-15.00336l31.27147,-25.90578l19.59944,-44.5913z" fill="#3a2f41"/><path d="M354.55392,146.92437l-1.22471,1.70309l-33.73681,-16.71435l0.96169,-1.77156z" fill="#8ea8ab"/></g></g><g><path d="M264.13139,179.94721c-0.13584,2.04115 -5.66919,5.47526 -7.9126,5.32596c-2.24343,-0.1493 -7.16629,-3.87798 -7.03045,-5.91912c0.13584,-2.04115 5.55851,-2.80716 7.80193,-2.65786c2.24342,0.1493 7.27699,1.20989 7.14115,3.25104z" fill="#3a2f41" stroke="none" stroke-width="0" stroke-linecap="butt"/><g fill="#8c9ca0" stroke="#8c9ca0" stroke-width="1.5" stroke-linecap="butt"><path d="M238.13742,192.41882c-0.72056,-0.80584 10.50782,-14.00366 10.50782,-14.00366l7.30816,6.32919l8.58121,-5.94749c0,0 9.47454,14.64527 8.81935,15.37038c-0.36227,0.40095 -3.89065,-1.77514 -8.34914,-3.46565c-4.10136,-1.55512 -9.17602,-2.62122 -9.17602,-2.62122c0,0 -5.51528,1.02429 -10.05245,2.23827c-4.14858,1.10999 -7.33848,2.4362 -7.63894,2.10021z"/></g><path d="M248.53804,180.07995l0.63375,-1.88415l7.44556,-1.72511l7.46907,2.14248l0.66881,2.01096" fill="none" stroke="#8c9ca0" stroke-width="2" stroke-linecap="round"/></g><g fill="#8c9ca0" stroke="#3a2f41" stroke-width="1.5" stroke-linecap="butt"><path d="M259.01698,199.7023c-0.18885,1.83959 -1.90039,3.17086 -3.82284,2.9735c-1.92243,-0.19736 -3.32778,-1.84862 -3.13893,-3.68821c0.18885,-1.83959 1.9004,-3.17087 3.82285,-2.97351c1.92243,0.19736 3.32778,1.84864 3.13892,3.68822z"/><path d="M258.63795,209.73794c-0.19542,1.90352 -1.98291,3.27938 -3.99248,3.07307c-2.00956,-0.20632 -3.48018,-1.91666 -3.28476,-3.82018c0.19542,-1.90352 1.9829,-3.27937 3.99246,-3.07307c2.00956,0.20632 3.48021,1.91666 3.28479,3.82018z"/></g><path d="" fill="#3a2f41" stroke="#8c9ca0" stroke-width="2" stroke-linecap="butt"/><path d="" fill="#3a2f41" stroke="#8c9ca0" stroke-width="2" stroke-linecap="butt"/><g stroke="#3a2f41"><g fill="#e1e2db" stroke-width="2"><path d="" stroke-linecap="round"/><path d="" stroke-linecap="round"/><path d="M197.61475,258.86909l4.7284,-11.54789l1.80595,9.2275l3.91829,-2.00235c0,0 -3.16145,22.88363 -3.64979,29.95753c-0.07479,1.08339 -0.13641,2.08603 -0.18689,2.98466c-6.10369,0.15673 -12.18326,0.30807 -18.23354,0.45104c3.75152,-15.42412 8.39996,-32.64588 8.40928,-32.68045z" stroke-linecap="butt"/><path d="M194.40645,255.25908c0,0 0,0.00002 -0.00001,0.00006v0z" stroke-linecap="butt"/></g><g stroke-linecap="butt"><path d="M184.4053,249.7471c0,0 27.83091,-33.53231 37.20064,-44.28438c5.16015,-5.92143 13.59249,-14.47136 13.59249,-14.47136l1.58328,22.60965l-16.7916,30.59625l-1.3723,42.91443c-13.56693,0.36106 -27.03552,0.70717 -40.35052,1.00614z" fill="#3a2f41" stroke-width="1.5"/><path d="M179.16185,282.51957l0.52164,-2.17924l38.83868,4.9971l-0.20067,1.78213c-0.82072,0.02183 -1.64108,0.04361 -2.46105,0.06532z" fill="#8ea8ab" stroke-width="2"/></g></g><g data-paper-data="{&quot;index&quot;:null}" stroke="#3a2f41" stroke-linecap="butt"><path d="M190.08863,113.02692l3.89097,-9.81346l7.62036,4.23156l-5.68851,-7.05348l16.44897,-13.4255c0,0 2.18093,13.42937 8.24546,25.72335c2.34862,2.76276 -6.80208,7.0649 -6.80208,7.0649z" fill="#3a2f41" stroke-width="1.5"/><path d="M219.52861,117.67236c-1.97351,-1.20487 2.54258,-15.66771 5.82289,-18.74543c1.32683,-1.24487 14.52967,10.71839 12.84289,12.30099c-3.2803,3.07771 -15.73937,8.23104 -17.71287,7.02619z" data-paper-data="{&quot;index&quot;:null}" fill="#8c9ca0" stroke-width="2"/><path d="M220.30435,117.82344c1.64421,1.42796 -6.73443,11.75892 -10.70082,13.97217c-2.03958,1.1381 -16.25278,-10.25672 -14.64846,-11.15193c3.96636,-2.21326 22.91117,-4.93766 24.55538,-3.5097z" fill="#e1e2db" stroke-width="1.5"/><path d="M224.60573,115.06425c1.56103,2.08285 0.77696,4.69293 -1.75128,5.82977c-2.5282,1.13683 -5.84322,0.36992 -7.40424,-1.71294c-1.56103,-2.08285 -0.77696,-4.69293 1.75128,-5.82977c2.5282,-1.13683 5.84322,-0.36991 7.40423,1.71293z" fill="#e1e2db" stroke-width="2"/></g><path d="M299.52017,170.25609l-18.91132,-1.69282l-0.06836,-8.09916c0,0 -1.21854,8.22301 -1.63711,8.13117c-5.35069,-0.34793 -10.64704,-0.62863 -15.71215,-0.8551c-21.27853,-0.95138 -38.47609,-0.94554 -38.47609,-0.94554c0,0 -6.61571,-9.28952 -6.64601,-17.98165c-0.02119,-6.07421 0.82448,-18.07241 11.61981,-27.39942c8.70649,-7.52228 24.01802,-9.84038 27.1952,-9.93779c2.54048,-0.07789 13.28422,3.0619 19.66123,7.82048c10.61505,7.92109 22.54084,25.75521 22.54084,25.75521z" fill="#3a2f41" stroke="none" stroke-width="0" stroke-linecap="butt"/><g stroke-linecap="butt"><path d="M288.0419,148.02278c0.01058,5.6252 1.57432,10.64371 -3.26981,14.27451c-4.70897,3.5295 -15.28795,4.74753 -26.087,4.93749c-10.74837,0.1891 -21.54253,-1.8271 -26.2945,-5.50359c-4.80742,-3.71937 -3.89203,-8.13237 -3.90253,-13.71124c-0.02085,-11.09344 9.01242,-25.18412 34.00251,-24.57116c16.43863,0.4032 25.53049,13.48053 25.55136,24.57399z" fill="#e1e2db" stroke="none" stroke-width="0"/><path d="M288.0419,148.02278c0.02087,11.09343 -12.14417,4.11616 -25.62985,4.20354c-13.48297,0.08737 -33.90314,6.88708 -33.924,-4.20638c-0.02085,-11.09344 9.01242,-25.18412 34.00251,-24.57116c16.43863,0.4032 25.53049,13.48053 25.55136,24.57399z" fill="#b8c1c0" stroke="none" stroke-width="0"/><path d="M267.15007,123.92599c13.48852,2.49289 21.8961,13.65585 21.9149,23.65231l0.00084,0.44448c0.0099,5.26208 0.29354,10.21231 -3.89916,13.77326c-4.64632,3.9462 -14.58138,5.23612 -26.09756,5.43871c-7.95588,0.13995 -17.58866,-1.05087 -22.16655,-3.17378c-7.86364,-3.64662 -8.40128,-9.02947 -8.41444,-16.04107c-0.01772,-9.41621 6.48788,-20.99186 23.73806,-23.90203" fill="none" stroke="#3a2f41" stroke-width="2"/></g><path d="M213.35252,160.5395l-9.16046,-5.362c0,0 -2.27005,-17.75894 7.99208,-29.27165c13.23653,-14.84952 36.67712,-20.56756 59.85802,-16.22506c4.96588,0.93027 17.49137,4.10714 24.85977,10.46812c8.85154,7.64134 11.93624,17.33997 11.93624,17.33997l-4.92768,-0.59397l0.97837,7.66225c0,0 -2.70904,-0.52637 -2.72737,-0.68915c-0.41043,-3.64755 -1.43131,-7.27032 -1.43131,-7.27032c0,0 0.76916,2.96108 0.30341,7.33346c-2.82613,-0.40419 -18.55247,-1.68905 -18.55247,-1.68905l-2.15336,-3.29255l-0.36441,3.07744l-13.66027,-0.98039l-1.509,-11.58282l-0.15935,11.27141c0,0 -12.21975,-0.11649 -18.12835,0.0316c-0.41677,0.01045 -2.021,-4.86782 -2.021,-4.86782c0,0 -0.12516,5.0863 -0.43649,5.08957c-3.68009,0.03863 -8.75016,0.52428 -8.75016,0.52428c0,0 0.18637,25.7059 0.05159,25.71719c-2.09638,0.17561 -19.92745,-4.76871 -19.90263,-5.82801c0.03585,-1.53029 -1.28624,-10.14567 -1.28624,-10.14567z" fill="#3a2f41" stroke="url(#color-7)" stroke-width="0.5" stroke-linecap="butt"/><path d="M264.25858,112.13211c13.82876,-25.17102 41.52346,-34.61862 41.52346,-34.61862l-10.94866,45.31609" fill="#3a2f41" stroke="#3a2f41" stroke-width="1.5" stroke-linecap="round"/><path d="M209.67057,130.61637c11.34162,-39.49344 43.03947,-63.55794 43.03947,-63.55794l5.7119,42.78465" fill="#3a2f41" stroke="#3a2f41" stroke-width="1.5" stroke-linecap="round"/><g stroke="#3a2f41" stroke-linecap="butt"><path d="M233.0895,149.75804c0,0 4.20463,-3.62859 11.81601,-3.59535c8.06426,0.03522 12.32142,4.47855 12.32142,4.47855c0,0 -5.11659,-0.3553 -12.45683,-0.54298c-6.52256,-0.16679 -11.68061,-0.34021 -11.68061,-0.34021z" fill="#e1e2db" stroke-width="1"/><g fill="#3a2f41" stroke-width="0.5"><path d="M243.20329,150.1817l0.07128,-3.91302l2.98837,0.00129l-0.17633,3.9495z"/></g></g><path d="M274.22119,165.58878c0,0 -7.90229,0.59443 -16.74049,0.56628c-8.8382,-0.02817 -16.74947,-1.32175 -16.74947,-1.32175c0,0 8.05324,-8.77147 16.89145,-8.74329c3.02533,0.00964 5.58972,-0.1589 8.10735,1.24894c4.8374,2.70503 8.49115,8.24982 8.49115,8.24982z" data-paper-data="{&quot;index&quot;:null}" fill="#000000" stroke="none" stroke-width="0.85" stroke-linecap="butt"/></g></g></svg>