<svg version="1.1" xmlns="http://www.w3.org/2000/svg" xmlns:xlink="http://www.w3.org/1999/xlink" width="489.12778" height="533.87591" viewBox="0,0,489.12778,533.87591"><defs><linearGradient x1="41.57556" y1="270.49539" x2="41.57556" y2="457.45101" gradientUnits="userSpaceOnUse" id="color-1"><stop offset="0" stop-color="#ffffff" stop-opacity="0.26046"/><stop offset="1" stop-color="#ffffff" stop-opacity="0"/></linearGradient><linearGradient x1="229.5756" y1="262.99539" x2="229.5756" y2="449.95101" gradientUnits="userSpaceOnUse" id="color-2"><stop offset="0" stop-color="#ffffff" stop-opacity="0.26046"/><stop offset="1" stop-color="#ffffff" stop-opacity="0"/></linearGradient></defs><g transform="translate(24.26867,68.72597)"><g data-paper-data="{&quot;isPaintingLayer&quot;:true}" fill-rule="nonzero" stroke-linejoin="miter" stroke-miterlimit="10" stroke-dasharray="" stroke-dashoffset="0" style="mix-blend-mode: normal"><g data-paper-data="{&quot;index&quot;:null}"><path d="M39.33491,378.43835c39.19331,-126.85505 112.10962,-216.21621 112.10962,-216.21621" fill="none" stroke="#3a2f41" stroke-width="25" stroke-linecap="round"/><g><g><path d="M-7.69858,399.93699c0,0 10.98526,-3.63068 18.28581,-10.77575c6.47454,-6.33663 10.52318,-14.97204 15.01108,-25.43261c4.56176,-10.63275 -3.49631,8.38575 -5.00413,6.71215c-8.55411,-9.49467 1.80709,-28.35415 6.87194,-33.47851c4.1421,-3.74561 15.54442,-5.90991 25.89683,-3.16166c10.92339,2.89981 20.80174,10.95008 24.62583,15.82596c4.26206,5.4343 1.02182,28.15809 -13.58187,29.65901c-2.70047,0.27755 1.98608,-20.33458 -0.396,-7.09184c-0.49173,2.73368 -2.6996,21.80445 -1.49546,30.05153c0.7715,5.28395 8.01952,14.63103 8.01952,14.63103l2.7241,1.13743l3.49928,1.13018l1.58667,3.86152l0.81507,4.25637l-0.73532,4.27088l-3.06818,3.51741l-3.86514,1.19906c0,0 -7.97604,0.17661 -11.83923,-1.50891c-3.84514,-1.67764 -8.33402,-7.43413 -8.33402,-7.43413l0.20678,5.02611l1.95975,2.30748l0.02537,2.71322l-0.74257,3.49566l-1.52866,2.34011l-2.28936,3.89777l-1.90176,3.89414l-1.51779,3.50291l-0.74257,3.49566l-3.06456,3.90502l-3.8579,1.97425l-4.26363,0.03986l-3.88689,-1.12656l-3.89777,-2.28936l-1.59029,-4.24913l-0.44198,-5.81039l1.11206,-5.4373l1.89451,-4.66934c0,0 -0.74675,-17.75328 -3.23489,-16.70613c-2.88275,1.21322 -4.19389,5.81588 -6.94816,9.14802c-2.75427,3.33213 -7.6394,8.50005 -7.6394,8.50005l-1.90176,3.89414l-1.1338,3.11168l-1.51779,3.50291l-2.68422,3.12618l-5.43367,-0.72445l-3.48478,0.42023l-3.1153,-1.52141l-2.73135,-1.91263l-1.61203,-6.57473l-1.20268,-4.25275l0.73895,-3.88327l-3.12618,-2.68422l-1.18455,-2.31474l-2.73859,-2.68784l-0.80782,-3.48116l1.1338,-3.11168l3.06093,-4.29263l3.0573,-4.68022l1.90176,-3.89414l1.52141,-3.1153l1.52504,-2.72772z" fill="#e1e2db" stroke="none" stroke-width="0" stroke-linecap="round"/><path d="M77.90318,349.94871c4.25511,5.42544 1.03237,28.08399 -13.51048,29.6515l0.22504,-9.92316c0,0 5.8041,0.47908 7.19282,-1.35523c6.85872,-12.98374 2.68191,-22.7219 6.09262,-18.37311z" fill="#8c9ca0" stroke="none" stroke-width="0" stroke-linecap="butt"/><path d="M52.29997,439.01418c-0.54981,2.06849 -4.47851,10.69766 -7.72569,17.42243c-0.80446,1.66599 0.44519,1.72715 -0.01226,2.75817c-0.67573,1.52295 -3.04719,3.6631 -4.73732,4.00726c-17.38793,3.5406 -15.57767,-10.77749 -15.57767,-10.77749c0,0 3.46273,13.84123 14.32492,5.11807c2.2302,-1.79102 9.85775,-18.37966 9.64414,-20.47012c-1.423,-13.9261 1.48868,-20.18496 1.48868,-20.18496c0,0 0.07864,6.79753 1.05005,11.637c0.87894,4.3788 2.34262,7.48945 1.54516,10.48965z" fill="#8c9ca0" stroke="none" stroke-width="0" stroke-linecap="butt"/><path d="M8.28422,441.11098c-0.54058,2.03376 0.48037,6.97733 -6.40677,12.60786c-2.13552,1.74587 -9.50743,-0.46411 -11.32671,-0.08753c-4.88876,1.01197 -6.125,-13.17101 -6.71292,-13.32728c-0.7865,-0.20905 4.91681,8.67179 10.7273,6.69713c8.53419,0.02632 9.31773,-9.88402 9.31773,-9.88402c0,0 7.16894,-3.28882 9.43274,-6.50488c6.0206,-8.55316 9.99615,-11.7327 10.15153,-8.78546c0.05822,1.10428 -4.00756,8.36698 -7.84463,12.82333c-2.25872,2.62325 -7.33827,6.46085 -7.33827,6.46085z" fill="#8c9ca0" stroke="none" stroke-width="0" stroke-linecap="butt"/><path d="M7.63321,405.92982c-0.12766,0.48028 1.13543,-1.67405 1.51239,-1.37193c0.93507,0.74939 1.60778,3.77431 0.02533,5.73931c-1.92905,2.39541 -6.2973,4.34569 -9.64715,8.15877c-3.90624,4.4464 -7.16845,10.16023 -9.93559,13.70376c-2.01247,2.57711 -4.02626,3.77386 -4.55152,3.63425c-2.5798,-0.68572 -9.10108,-6.63466 -7.49319,-12.68384c1.60789,-6.04919 9.14831,-11.70957 9.14831,-11.70957l-0.85542,7.33429l6.66521,0.40795c0,0 15.63092,-15.09145 15.13162,-13.213z" fill="#8c9ca0" stroke="none" stroke-width="0" stroke-linecap="butt"/><path d="M76.61347,421.50569c-0.18857,0.70943 2.57706,3.51294 2.69166,5.95532c0.06668,1.42103 -0.17111,2.87744 -1.23825,4.03955c-0.70827,0.7713 -2.14236,1.31716 -2.79039,1.98383c-3.01037,3.09693 -11.50561,2.54291 -15.19618,1.56194c-7.7394,-2.05715 -10.6332,-19.03699 -10.6332,-19.03699c0,0 7.21268,1.47317 7.2666,2.68377c0.11048,2.48 6.34657,13.64728 13.02686,13.74734c3.26949,0.04897 6.3361,-1.54541 7.34858,-4.05414c1.46716,-3.63534 -0.05595,-8.45966 -0.47566,-6.88061z" fill="#8c9ca0" stroke="none" stroke-width="0" stroke-linecap="butt"/><path d="M26.99109,362.47645c0.39808,0.40112 -3.74074,7.9733 -5.60887,7.47675c-1.86813,-0.49655 -4.56928,-6.96342 -3.62742,-11.65631c2.12656,-10.59576 9.613,-21.24346 9.613,-21.24346c0,0 -6.05286,19.7034 -0.37672,25.42303z" fill="#8c9ca0" stroke="none" stroke-width="0" stroke-linecap="butt"/><g fill="none" stroke="#3a2f41" stroke-width="2.5" stroke-linecap="round"><path d="M69.94804,416.09676c0.36712,0.49608 0.58691,0.77953 0.58691,0.77953l2.7241,1.13743l3.49928,1.13018l1.58667,3.86152l0.81507,4.25637l-0.73532,4.27088l-3.06818,3.51741l-3.86514,1.19906c0,0 -7.97604,0.17661 -11.83923,-1.50891c-3.84514,-1.67764 -8.33402,-7.43413 -8.33402,-7.43413l0.20678,5.02611l1.95975,2.30748l0.02537,2.71322l-0.74257,3.49566l-1.52866,2.34011l-2.28936,3.89777l-1.90176,3.89414l-1.51779,3.50291l-0.74257,3.49566l-3.06456,3.90502l-3.8579,1.97425l-4.26363,0.03986l-3.88689,-1.12656l-3.89777,-2.28936l-1.59029,-4.24913l-0.44198,-5.81039l1.11206,-5.4373l1.89451,-4.66934c0,0 -0.74675,-17.75328 -3.23489,-16.70613c-2.88275,1.21322 -4.19389,5.81588 -6.94816,9.14802c-2.75427,3.33213 -7.6394,8.50005 -7.6394,8.50005l-1.90176,3.89414l-1.1338,3.11168l-1.51779,3.50291l-2.68422,3.12618l-5.43367,-0.72445l-3.48478,0.42023l-3.1153,-1.52141l-2.73135,-1.91263l-1.61203,-6.57473l-1.20268,-4.25275l0.73895,-3.88327l-3.12618,-2.68422l-1.18455,-2.31474l-2.73859,-2.68784l-0.80782,-3.48116l1.1338,-3.11168l3.06093,-4.29263l3.0573,-4.68022l1.90176,-3.89414l1.52141,-3.1153l1.52504,-2.72772l3.06826,-3.51742c0,0 10.98526,-3.63068 18.28581,-10.77575c6.47454,-6.33663 10.52318,-14.97204 15.01108,-25.43261c4.56176,-10.63275 -3.49631,8.38575 -5.00413,6.71215c-8.55411,-9.49467 1.80709,-28.35415 6.87194,-33.47851c4.1421,-3.74561 15.54442,-5.90991 25.89683,-3.16166c10.92339,2.89981 20.80174,10.95008 24.62583,15.82596c4.26206,5.4343 1.02182,28.15809 -13.58187,29.65901c-2.70047,0.27755 1.98608,-20.33458 -0.396,-7.09184c-0.30755,1.70976 -1.28641,9.81024 -1.68194,17.65629"/><path d="M69.65197,415.6938c-1.95663,-2.68131 -6.53237,-9.31074 -7.13652,-13.44854c-0.43501,-2.97935 -0.42472,-7.37128 -0.21091,-11.89524"/><path d="M7.21672,404.82054c0,0 2.28085,0.55247 2.43219,1.50348c0.22035,1.38465 0.06734,3.8176 0.06734,3.8176c0,0 -6.45682,4.91265 -9.76826,8.44337c-2.7244,2.90481 -8.68507,11.232 -8.68507,11.232l-2.30386,2.34736l-1.53229,1.9525l-1.91263,2.73135"/><path d="M53.99986,430.60929c-1.08545,-1.73225 -2.47012,-1.94004 -2.53568,-3.71842"/></g><path d="M36.58877,355.50743c0,0 5.03033,-2.2633 9.65153,-1.14945c4.62121,1.11386 9.97086,5.87903 9.97086,5.87903c0,0 -5.18642,-3.59262 -10.3996,-4.98477c-4.37716,-1.16888 -9.22281,0.25519 -9.22281,0.25519z" fill="#3a2f41" stroke="none" stroke-width="0" stroke-linecap="round"/><path d="M29.59155,367.76138c-1.667,6.27158 -3.81164,11.14485 -4.79018,10.88475c-0.97854,-0.2601 -17.71145,15.75411 -13.00286,11.2886c4.01045,-3.8034 8.12844,-11.8752 11.0249,-19.13138c3.76475,-9.4314 4.80695,-18.65296 5.35999,-18.50596c0.97854,0.2601 3.07515,9.19242 1.40815,15.46399z" fill="#e1e2db" stroke="none" stroke-width="0" stroke-linecap="butt"/><path d="M66.73092,363.23322c0.55305,0.147 -3.21562,9.0248 -4.73452,19.47153c-1.16859,8.03735 -1.6932,17.4319 -0.14901,22.90701c1.81301,6.42825 -4.55635,-16.54722 -5.53489,-16.80732c-0.97854,-0.2601 -0.36624,-5.75897 1.36762,-12.28207c1.73386,-6.5231 8.07227,-13.54925 9.05081,-13.28915z" data-paper-data="{&quot;index&quot;:null}" fill="#e1e2db" stroke="none" stroke-width="0" stroke-linecap="butt"/><path d="M10.65922,414.98262c-1.20805,-0.3211 -0.88695,-1.52916 -0.88695,-1.52916l0.21407,-0.80537c0.49658,-1.86822 1.16667,-4.26805 0.944,-6.19936c-0.19586,-1.69883 -4.98566,-1.44619 -5.9862,-1.34533c0,0 -1.24388,0.12351 -1.3674,-1.12037c-0.12351,-1.24388 1.12037,-1.3674 1.12037,-1.3674c2.71884,-0.26626 7.69322,-0.1257 8.66134,3.23784c0.59219,2.05745 -0.4288,5.45341 -0.95599,7.43682l-0.21407,0.80537c0,0 -0.3211,1.20805 -1.52916,0.88695z" fill="#e1e2db" stroke="none" stroke-width="0.5" stroke-linecap="butt"/><path d="M50.30686,428.02165l-1.32357,-17.07983c0,0 1.36343,10.64926 4.47978,16.88403c1.16699,2.33476 1.38559,3.30166 1.11776,3.50901c-0.63003,0.48777 -4.27398,-3.31321 -4.27398,-3.31321z" fill="#3a2f41" stroke="#000000" stroke-width="0" stroke-linecap="round"/></g><path d="M33.68025,385.57839c0.52691,0.16151 -0.91623,2.27817 -1.95874,5.67913c-1.04252,3.40095 -1.67429,6.66948 -2.20121,6.50796c-0.52691,-0.16151 -0.74942,-3.69189 0.29308,-7.09285c1.04251,-3.40096 3.33995,-5.25576 3.86685,-5.09424z" data-paper-data="{&quot;index&quot;:null}" fill="#3a2f41" stroke="none" stroke-width="0" stroke-linecap="butt"/><path d="M46.17122,387.7966c0.54603,0.07465 -0.53786,2.39588 -1.01977,5.92024c-0.48191,3.52435 -0.57974,6.85194 -1.12578,6.77728c-0.54603,-0.07465 -1.33349,-3.52327 -0.85159,-7.04764c0.48191,-3.52436 2.4511,-5.72454 2.99712,-5.64988z" data-paper-data="{&quot;index&quot;:null}" fill="#3a2f41" stroke="none" stroke-width="0" stroke-linecap="butt"/><path d="M25.36042,379.15494c0.48362,0.26426 -1.35603,2.04713 -3.06175,5.16864c-1.70573,3.12151 -2.98247,6.19597 -3.46609,5.93171c-0.48362,-0.26426 0.00903,-3.76717 1.71474,-6.88869c1.70572,-3.12151 4.32948,-4.47592 4.81309,-4.21166z" data-paper-data="{&quot;index&quot;:null}" fill="#3a2f41" stroke="none" stroke-width="0" stroke-linecap="butt"/></g></g><path d="M352.80876,239.27653c-16.67491,40.02345 -45.17241,31.84498 -62.92544,10.06491c-22.69811,-27.84689 -32.90985,-77.92815 -32.90985,-77.92815" data-paper-data="{&quot;index&quot;:null}" fill="none" stroke="#3a2f41" stroke-width="25" stroke-linecap="round"/><path d="M236.92401,134.15034c0,0 22.41303,11.51415 24.27283,15.45242c8.59296,18.19616 24.72616,40.96361 24.72616,40.96361c0,0 -6.09377,10.23786 -16.07161,14.62966c-9.97785,4.39181 -26.95126,0.52338 -26.95126,0.52338c0,0 -1.78905,-11.32216 -3.15873,-20.08212c-1.42123,-9.08969 -5.50671,-25.12269 -5.50671,-25.12269l2.80681,-25.65102" data-paper-data="{&quot;index&quot;:null}" fill="#8c9ca0" stroke="#3a2f41" stroke-width="2" stroke-linecap="round"/><path d="M141.08434,379.72253l29.94781,-115.53732c0.26756,0.19584 21.68253,1.36563 21.68253,1.36563l-27.33126,117.32744l-98.92633,67.72611z" data-paper-data="{&quot;index&quot;:null}" fill="#3a2f41" stroke="url(#color-1)" stroke-width="0.5" stroke-linecap="butt"/><path d="M302.58432,364.22253l-86.05219,-106.03732c3.33299,2.43965 12.47575,-15.71938 22.68253,-8.63437c18.48451,12.83097 92.66874,107.82744 92.66874,107.82744l-41.50663,89.07273z" data-paper-data="{&quot;index&quot;:null}" fill="#3a2f41" stroke="url(#color-2)" stroke-width="0.5" stroke-linecap="butt"/><g data-paper-data="{&quot;index&quot;:null}" stroke="#3a2f41" stroke-width="2"><path d="M288.48167,323.73085c-15.15032,8.77813 -27.67542,10.80082 -27.67542,10.80082l-56.20813,-87.73352l32.82961,-20.01206l66.74805,77.67741c0,0 -1.20559,10.87268 -15.69411,19.26735z" data-paper-data="{&quot;index&quot;:null}" fill="#e1e2db" stroke-linecap="butt"/><path d="M253.07984,246.35089l-13.97277,5.40725l-11.22473,-15.46083" fill="none" stroke-linecap="round"/><path d="M250.59689,243.47972l-10.54624,4.21687l-8.15691,-11.34079" fill="none" stroke-linecap="round"/></g><g data-paper-data="{&quot;index&quot;:null}" stroke="#3a2f41" stroke-width="2"><path d="M159.04432,345.40176c-18.2536,-4.52067 -23.35622,-15.04879 -23.35622,-15.04879l28.74742,-99.09908l40.52166,4.51928l-12.79733,108.62746c0,0 -17.3125,4.91489 -33.11553,1.00113z" data-paper-data="{&quot;index&quot;:null}" fill="#e1e2db" stroke-linecap="butt"/><path d="M177.84975,235.92493l-3.99567,18.73118l-15.87177,0.90408" fill="none" stroke-linecap="round"/><path d="M174.00525,237.64894l-2.85697,13.70773l-12.03951,0.55905" fill="none" stroke-linecap="round"/></g><g data-paper-data="{&quot;index&quot;:null}" stroke-linecap="butt"><path d="M197.29489,274.74037v-21.17141h26.3644l2.79622,17.97572z" fill="#8c9ca0" stroke="#3a2f41" stroke-width="2"/><path d="M196.89544,272.34361v-21.17141l10.14252,-12.91271l9.905,-2.08729l6.31688,15l2.79622,17.97572z" fill="#e1e2db" stroke="#e1e2db" stroke-width="3.5"/></g><g data-paper-data="{&quot;index&quot;:null}"><g><g fill="none" stroke="none" stroke-width="1" stroke-linecap="butt" font-family="sans-serif" font-weight="normal" font-size="12" text-anchor="start"><g><g><g/></g></g><g><g><g/></g></g></g><g fill="none" stroke="none" stroke-width="1" stroke-linecap="butt" font-family="sans-serif" font-weight="normal" font-size="12" text-anchor="start"><g><g><g/></g></g><g><g><g/></g></g></g><path d="M247.26873,142.17102c0,0 -9.07887,43.39954 -7.29181,60.15095c2.82342,26.46599 8.16866,33.92501 8.01958,34.06449c0,0 -26.86435,18.4787 -38.23711,17.02089c-21.91264,-2.80883 -48.09149,-21.94994 -48.09149,-21.94994c0,0 1.36116,-19.1204 1.11622,-41.60118c-0.20772,-19.0637 5.85251,-39.17262 6.98611,-56.97165c2.85043,-5.30407 29.773,-12.01661 40.74944,-10.02213c12.04264,2.18823 37.35464,18.01672 37.35464,18.01672" fill="#3a2f41" stroke="#3a2f41" stroke-width="2" stroke-linecap="round"/><g fill="none" stroke="none" stroke-width="1" stroke-linecap="butt" font-family="sans-serif" font-weight="normal" font-size="12" text-anchor="start"><g/></g></g><path d="M210.4328,188.32604c-0.29446,0.1443 -11.45626,-7.82357 -22.46987,-27.16347c-7.50528,-13.17924 -11.17409,-33.01668 -11.17409,-33.01668c0,0 9.96871,-3.01284 15.41694,-4.22804c6.27162,-1.39885 24.23652,-3.1713 24.23652,-3.1713l28.15461,18.11007c0,0 -11.07129,34.14128 -34.16411,49.46943z" fill="#e1e2db" stroke="none" stroke-width="0" stroke-linecap="butt"/><path d="M244.59692,138.85661c0,0 -5.53838,17.07904 -16.95132,32.50108c-5.85035,-4.03552 -11.60499,-7.7092 -18.53363,-12.13945c-10.71437,-6.8509 -20.03432,-12.76078 -29.22432,-18.36164c-2.07411,-7.17018 -3.09881,-12.71071 -3.09881,-12.71071c0,0 9.96871,-3.01284 15.41694,-4.22804c6.27162,-1.39885 24.23652,-3.1713 24.23652,-3.1713l28.15461,18.11007z" fill="#8c9ca0" stroke="none" stroke-width="0" stroke-linecap="butt"/><path d="M210.71793,183.71561c0,0 -9.50366,-8.13832 -14.82485,-16.81395c-0.24135,-0.40058 10.93625,-14.45936 10.93625,-14.45936l10.96506,2.01644c0,0 0.90195,2.19871 1.97064,4.99217c1.71888,4.493 3.86909,10.5246 3.39153,11.42084c-2.80761,5.26896 -12.43864,12.84385 -12.43864,12.84385z" fill="#3a2f41" stroke="#3a2f41" stroke-width="2" stroke-linecap="butt"/><path d="M210.4328,188.32604c-0.29446,0.1443 -11.45626,-7.82357 -22.46987,-27.16347c-7.50528,-13.17924 -11.17409,-33.01668 -11.17409,-33.01668c0,0 9.96871,-3.01284 15.41694,-4.22804c6.27162,-1.39885 24.23652,-3.1713 24.23652,-3.1713l28.15461,18.11007c0,0 -11.07129,34.14128 -34.16411,49.46943z" fill="none" stroke="#3a2f41" stroke-width="2" stroke-linecap="butt"/><path d="M208.04292,148.49848l2.10552,-11.91562l10.06663,1.7788l-2.10551,11.91562z" fill="#3a2f41" stroke="#3a2f41" stroke-width="2" stroke-linecap="butt"/><g><path d="M224.2663,145.75725l-8.12307,-12.19598c0,0 10.06011,-6.69396 14.26753,-8.80169c0.92132,-0.46154 1.16329,0.08888 1.36712,0.21184c0.45578,0.55201 2.78927,6.95143 2.14561,7.23722z" data-paper-data="{&quot;index&quot;:null}" fill="#8c9ca0" stroke="#3a2f41" stroke-width="4.5" stroke-linecap="round"/><path d="M203.77075,142.89385c0,0 -9.68117,-13.99434 -10.11794,-17.78443c0.39173,-1.75948 4.24808,-8.94745 5.01112,-6.56244c1.07884,0.83054 21.36113,-0.04888 25.7518,3.77304c3.69027,3.21224 -8.31642,11.28799 -8.31642,11.28799z" fill="#3a2f41" stroke="#3a2f41" stroke-width="4.5" stroke-linecap="round"/><path d="M196.20179,124.96817c0.34598,-1.7023 1.37767,-5.84281 2.10168,-6.06606c1.43768,-0.96425 14.35959,-4.51663 17.36649,-4.47395c1.9023,0.027 14.00836,9.27851 14.58626,10.16465c1.12211,0.84146 1.53278,6.01608 1.42442,6.62933" fill="none" stroke="#3a2f41" stroke-width="6.5" stroke-linecap="butt"/><g><path d="M224.30261,145.5518l-7.95393,-11.95424c0,0 10.06012,-6.69397 14.26753,-8.8017c0.92132,-0.46155 1.16329,0.08888 1.36712,0.21184c0.45579,0.55202 2.78927,6.95143 2.14561,7.23722z" data-paper-data="{&quot;index&quot;:null}" fill="#8c9ca0" stroke="#12161a" stroke-width="0" stroke-linecap="round"/><path d="M203.77076,142.89387c0,0 -9.68116,-13.99435 -10.11794,-17.78444c0.39173,-1.75947 4.24808,-8.94744 5.01112,-6.56244c1.98559,1.52859 17.43537,15.06102 17.43537,15.06102z" fill="#8c9ca0" stroke="#12161a" stroke-width="0" stroke-linecap="round"/><path d="M196.20179,124.96811c0.34598,-1.7023 1.37767,-5.84281 2.10168,-6.06606c1.43768,-0.96425 14.35959,-4.51661 17.36649,-4.47395c1.90231,0.027 14.00837,9.27851 14.58627,10.16465c1.12211,0.84146 1.53278,6.01608 1.42442,6.62933" fill="none" stroke="#8c9ca0" stroke-width="2" stroke-linecap="butt"/></g></g></g><path d="M177.13003,128.09939l-3.68038,25.54032c0,0 -7.95565,14.5071 -11.59932,22.95495c-3.51151,8.1414 -8.06822,18.6594 -8.06822,18.6594c0,0 -17.40183,-0.48776 -25.96876,-7.22964c-8.56693,-6.74187 -11.91431,-18.17616 -11.91431,-18.17616c0,0 21.30239,-18.02345 34.16261,-33.50097c2.78339,-3.34986 27.36005,-8.90926 27.36005,-8.90926" data-paper-data="{&quot;index&quot;:null}" fill="#e1e2db" stroke="#3a2f41" stroke-width="2" stroke-linecap="round"/><g data-paper-data="{&quot;index&quot;:null}" stroke-linecap="round"><path d="M369.79216,234.14137c0,0 2.32016,1.10478 3.49327,1.51951c0.9987,0.35308 3.10673,0.81383 3.10673,0.81383c0,0 -3.34749,4.81471 -7.2628,5.32774c-9.78758,1.28249 -28.50008,-8.97469 -30.70387,-19.02774c-2.05169,-9.35918 -0.32462,-15.8466 2.61576,-20.1092c2.07215,-3.00393 4.74686,-4.90295 7.12628,-5.92347c3.71534,-1.5935 6.72463,0.23267 6.72463,0.23267c0,0 -0.73083,1.57954 -0.93672,2.39767c-0.21586,0.85778 -0.49661,2.469 -0.49661,2.469c0,0 2.01055,-6.48562 9.77318,-11.90985c6.45724,-4.51207 13.34486,-1.75024 24.51984,-13.46551c4.8371,-5.07098 8.51327,-11.90392 10.04032,-15.45798c2.52681,-5.88093 13.57825,-5.35952 10.3,6c-3.27825,11.35952 -12.5942,17.10084 -16.56667,20.3c-2.42248,1.9509 -2.06667,6.76667 -2.06667,6.76667c0,0 -1.51986,0.28472 -3.18106,0.44295c-1.4414,0.13729 -2.98921,0.13815 -3.74292,0.28504c-1.83028,0.3567 -4.17602,1.30534 -4.17602,1.30534c0,0 2.22792,-0.23227 5.5917,-0.51457c3.34992,-0.28114 7.82501,-0.60778 13.00921,-2.78762c8.20051,-3.44812 15.58336,-7.84903 22.93939,-12.54615c6.41418,-4.09572 14.08072,-6.90289 15.7597,-7.21833c15.48613,-2.90948 14.73333,6.23333 14.73333,6.23333c0,0 -9.1522,-1.80657 -25.85161,3.91439c-2.79006,0.95584 -6.96024,2.39571 -10.84361,4.78143c-3.72591,2.28898 -7.14807,5.50162 -10.67745,7.53483c-6.60057,3.80246 -11.82733,5.56935 -11.82733,5.56935c0,0 5.67168,-1.17147 12.52634,-4.53057c4.12523,-2.02155 7.14511,-4.86981 11.79286,-7.24849c6.86829,-3.51514 15.31854,-6.23274 20.0808,-7.12094c4.42481,-0.82526 18.40835,-1.25117 24.59422,3.14183c2.67172,1.89736 4.43114,4.66257 2.43912,8.62484c-0.54397,1.08199 -2.531,1.32844 -3.87597,1.58053c-3.48231,0.65271 -8.36409,-0.55795 -15.16776,-1.26944c-6.49389,-0.67909 -14.52886,0.18911 -19.28297,1.25932c-7.45791,1.67887 -14.86431,5.09577 -20.58899,8.22336c-6.34022,3.46389 -10.61765,6.5729 -10.61765,6.5729c0,0 12.42977,-7.75495 28.21389,-11.69175c7.70366,-1.92141 16.01866,-2.6382 22.64679,-1.88294c8.19329,0.93361 16.51279,5.86551 11.50599,12.50802c-3.35404,4.44981 -26.89726,-0.06469 -40.49981,4.09594c-17.23953,5.27309 -22.15559,17.95873 -30.19222,20.29318c-6.37696,1.85236 -14.97464,0.51089 -14.97464,0.51089z" fill="none" stroke="#3a2f41" stroke-width="5"/><path d="M369.79216,234.14137c0,0 2.32016,1.10478 3.49327,1.51951c0.9987,0.35308 3.10673,0.81383 3.10673,0.81383c0,0 -3.34749,4.81471 -7.2628,5.32774c-9.78758,1.28249 -28.50008,-8.97469 -30.70387,-19.02774c-2.05169,-9.35918 -0.32462,-15.8466 2.61576,-20.1092c2.07215,-3.00393 4.74686,-4.90295 7.12628,-5.92347c3.71534,-1.5935 6.72463,0.23267 6.72463,0.23267c0,0 -0.73083,1.57954 -0.93672,2.39767c-0.21586,0.85778 -0.49661,2.469 -0.49661,2.469c0,0 2.01055,-6.48562 9.77318,-11.90985c6.45724,-4.51207 13.34486,-1.75024 24.51984,-13.46551c4.8371,-5.07098 8.51327,-11.90392 10.04032,-15.45798c2.52681,-5.88093 13.57825,-5.35952 10.3,6c-3.27825,11.35952 -12.5942,17.10084 -16.56667,20.3c-2.42248,1.9509 -2.06667,6.76667 -2.06667,6.76667c0,0 -1.51986,0.28472 -3.18106,0.44295c-1.4414,0.13729 -2.98921,0.13815 -3.74292,0.28504c-1.83028,0.3567 -4.17602,1.30534 -4.17602,1.30534c0,0 2.22792,-0.23227 5.5917,-0.51457c3.34992,-0.28114 7.82501,-0.60778 13.00921,-2.78762c8.20051,-3.44812 15.58336,-7.84903 22.93939,-12.54615c6.41418,-4.09572 14.08072,-6.90289 15.7597,-7.21833c15.48613,-2.90948 14.73333,6.23333 14.73333,6.23333c0,0 -9.1522,-1.80657 -25.85161,3.91439c-2.79006,0.95584 -6.96024,2.39571 -10.84361,4.78143c-3.72591,2.28898 -7.14807,5.50162 -10.67745,7.53483c-6.60057,3.80246 -11.82733,5.56935 -11.82733,5.56935c0,0 5.67168,-1.17147 12.52634,-4.53057c4.12523,-2.02155 7.14511,-4.86981 11.79286,-7.24849c6.86829,-3.51514 15.31854,-6.23274 20.0808,-7.12094c4.42481,-0.82526 18.40835,-1.25117 24.59422,3.14183c2.67172,1.89736 4.43114,4.66257 2.43912,8.62484c-0.54397,1.08199 -2.531,1.32844 -3.87597,1.58053c-3.48231,0.65271 -8.36409,-0.55795 -15.16776,-1.26944c-6.49389,-0.67909 -14.52886,0.18911 -19.28297,1.25932c-7.45791,1.67887 -14.86431,5.09577 -20.58899,8.22336c-6.34022,3.46389 -10.61765,6.5729 -10.61765,6.5729c0,0 12.42977,-7.75495 28.21389,-11.69175c7.70366,-1.92141 16.01866,-2.6382 22.64679,-1.88294c8.19329,0.93361 16.51279,5.86551 11.50599,12.50802c-3.35404,4.44981 -26.89726,-0.06469 -40.49981,4.09594c-17.23953,5.27309 -22.15559,17.95873 -30.19222,20.29318c-6.37696,1.85236 -14.97464,0.51089 -14.97464,0.51089z" fill="#e1e2db" stroke="none" stroke-width="0"/><path d="M439.26498,179.54363c0,0 1.92348,-0.82083 4.26775,-1.37548c1.70466,-0.40332 3.86743,-0.50881 4.52604,-0.82153c1.60952,-0.76422 0.73165,-2.32578 0.73165,-2.32578c1.79298,1.93138 1.60175,4.25386 1.60175,4.25386c0,0 -3.85532,-0.76101 -11.12719,0.26895z" fill="#8c9ca0" stroke="none" stroke-width="0"/><path d="M378.3588,196.10804c0,0 3.59306,-2.85453 4.7889,-4.62974c1.2908,-1.91619 0.29466,-4.23376 3.69284,-6.31015c5.52982,-3.37888 11.51484,-8.04603 13.81525,-11.29479c9.58866,-13.54162 2.78825,-16.56534 2.78825,-16.56534c3.41743,-0.03504 6.61685,2.87803 4.64809,9.70001c-3.27825,11.35952 -12.59419,17.10085 -16.56666,20.3c-2.42248,1.9509 -2.06667,6.76667 -2.06667,6.76667c0,0 -1.51986,0.28472 -3.18106,0.44295c-1.44139,0.13728 -2.9892,0.13815 -3.74291,0.28504c-1.83028,0.3567 -4.17603,1.30533 -4.17603,1.30533z" fill="#8c9ca0" stroke="none" stroke-width="0"/><path d="M337.57706,213.40855c0,0 -0.05297,14.02901 10.48426,17.85896c7.94143,2.88646 6.88083,-6.64874 6.88083,-6.64874c0,0 14.09295,6.96652 26.57463,3.50178c6.25792,-1.73712 8.9446,-8.17876 15.71504,-12.03748c8.55115,-4.8736 18.40257,-7.38078 26.52586,-8.58441c11.36103,-1.68337 24.2179,1.66572 28.71919,0.60015c4.42941,-1.04854 3.73597,-5.43195 3.73597,-5.43195c1.12681,1.8776 1.105,4.10815 -0.75403,6.57452c-3.35405,4.4498 -26.89726,-0.0647 -40.49981,4.09593c-17.23953,5.27308 -22.15559,17.95873 -30.19222,20.29318c-6.37696,1.85236 -14.97464,0.51089 -14.97464,0.51089c0,0 2.32016,1.10477 3.49327,1.5195c0.99871,0.35308 3.10673,0.81383 3.10673,0.81383c0,0 -3.34749,4.81471 -7.2628,5.32774c-9.78758,1.28249 -28.50008,-8.97469 -30.70387,-19.02774c-0.77074,-3.51589 -1.00821,-6.62652 -0.84843,-9.36617z" fill="#8c9ca0" stroke="none" stroke-width="0"/><path d="M430.14792,194.53689c0,0 2.80532,-1.45578 8.6815,-1.97829c4.66966,-0.41523 12.26125,0.12741 14.89819,-0.17686c9.73748,-1.12357 9.0022,-4.42593 9.0022,-4.42593c0.93032,1.60017 1.10984,3.57051 -0.10432,5.98557c-0.54397,1.08199 -2.531,1.32844 -3.87597,1.58053c-3.48231,0.65271 -8.36409,-0.55795 -15.16776,-1.26944c-4.26858,-0.44639 -9.20303,-0.22422 -13.43384,0.28441z" fill="#8c9ca0" stroke="none" stroke-width="0"/><path d="M383.44214,208.95206c0,0 -8.67309,-0.4956 -10.44684,-0.59696c-0.60611,-0.03463 -1.21983,-0.0697 -1.21983,-0.0697c0,0 1.58148,-0.91336 3.92165,-1.44344c1.67909,-0.38034 3.90556,-0.6541 4.88295,-1.04506c2.07238,-0.82895 4.52874,-2.84483 4.52874,-2.84483c0,0 -0.85965,2.00345 0.13195,3.6853c0.81565,1.38342 3.53472,3.14804 3.53472,3.14804l-5.33333,-0.83333z" fill="#8c9ca0" stroke="none" stroke-width="0"/><path d="M365.94214,212.82709c0,0 1.21803,-3.58969 6.83333,-4.66667c5.58217,-1.07063 10.5,0.83333 10.5,0.83333c0,0 -6.25655,-0.74358 -10.87084,0.66374c-3.46923,1.05808 -6.46249,3.16959 -6.46249,3.16959z" fill="#3a2f41" stroke="none" stroke-width="0"/><path d="M358.94213,228.99376c0,0 -5.27914,-2.88465 -7.83333,-7.16667c-2.55419,-4.28202 -2.5,-11.83333 -2.5,-11.83333c0,0 0.22394,5.0552 3.43199,10.62763c2.79977,4.86324 6.90135,8.37237 6.90135,8.37237z" fill="#3a2f41" stroke="none" stroke-width="0"/></g><g><g><path d="M301.85567,30.25002c18.70864,0 42.125,5.8019 42.125,9.875c0,4.0731 -26.91635,6.125 -45.625,6.125c-18.70864,0 -24.125,0.9481 -24.125,-3.125c0,-4.0731 8.91636,-12.875 27.625,-12.875z" fill="#8c9ca0" stroke="#3a2f41" stroke-width="2" stroke-linecap="butt"/><path d="M288.87102,36.23877c0,0 -48.7792,-14.81778 -46.93928,-16.2858c14.22475,-11.34951 19.10414,-21.34975 28.47154,-29.51645c11.72444,-10.22162 26.23041,-17.28758 26.23041,-17.28758c0,0 -1.36969,5.07376 -1.06454,11.07891c0.20061,3.94764 2.26069,8.5817 1.90883,11.44134c-0.65076,5.28891 -0.99028,22.66023 -2.80249,30.76067c-2.17185,9.70807 -5.80446,9.80891 -5.80446,9.80891z" fill="#3a2f41" stroke="#3a2f41" stroke-width="2.5" stroke-linecap="butt"/><g stroke-linecap="butt"><path d="M202.4772,40.45429c3.58104,-5.71801 11.81156,-13.10752 23.01867,-14.57096c14.34673,-1.8734 35.87538,-1.92957 43.54606,2.87439c6.86484,4.29928 7.65331,23.36527 15.17212,40.94116c7.44548,17.4045 30.94591,29.00595 30.94591,29.00595c0,0 -37.32428,35.04495 -80.46801,3.59902c-13.53472,-8.75774 -34.18277,-58.70715 -32.21475,-61.84957z" fill="#3a2f41" stroke="#3a2f41" stroke-width="2.5"/><path d="M176.04048,41.22849c11.49038,-11.30744 46.27071,-24.55965 53.15304,-17.56598c1.25237,1.27263 34.34954,36.04501 39.69236,61.04569c1.73383,8.11318 39.76928,15.40425 36.98048,18.20093c-26.24177,24.02798 -98.89368,18.46455 -124.80378,-7.45703c-14.38771,-14.39409 -19.10451,-40.36541 -5.02209,-54.22361z" data-paper-data="{&quot;index&quot;:null}" fill="#3a2f41" stroke="#3a2f41" stroke-width="2.5"/><path d="M182.8465,19.79362c14.38165,-7.28384 49.04393,-9.84756 53.47727,-1.09409c1.06854,2.10981 -20.44192,58.33881 -34.75329,65.75751c-9.18451,4.76103 -9.89525,16.65347 -18.74336,11.76323z" data-paper-data="{&quot;index&quot;:null}" fill="#3a2f41" stroke="#3a2f41" stroke-width="2.5"/><path d="M211.62721,37.07912c1.78685,-6.50589 -12.45327,-23.94888 -2.13941,-28.57114c28.45325,-19.16713 53.80769,-4.15751 62.53533,-1.76046c7.81075,2.14522 7.04488,6.68046 19.29724,21.35437c12.13288,14.53082 35.39745,24.38754 35.39745,24.38754c0,0 -3.12204,22.65366 -22.72387,32.92346c-9.88006,5.17636 -31.03334,5.34168 -43.73737,1.64963c-15.4805,-4.49896 -49.61137,-46.40802 -48.62937,-49.98345z" fill="#3a2f41" stroke="#3a2f41" stroke-width="2.5"/><g data-paper-data="{&quot;index&quot;:null}"><path d="M267.33274,84.02584c-1.90409,9.04957 -4.28514,16.9794 -12.2215,21.40956c-7.71493,4.30655 -20.79586,5.2815 -35.79241,2.44613c-30.02649,-5.677 -38.08473,-23.33474 -34.32968,-41.18133c3.75503,-17.8466 21.0515,-37.87996 55.39597,-29.6259c22.59201,5.42958 30.70263,29.10494 26.94759,46.95154z" fill="#7c7984" stroke="none" stroke-width="0"/><path d="M267.33273,84.02585c-3.75505,17.84659 -18.19565,3.08752 -36.87194,-0.69423c-18.67257,-3.78099 -49.22669,1.21517 -45.47164,-16.63142c3.75503,-17.8466 21.0515,-37.87996 55.39597,-29.6259c22.59201,5.42958 30.70263,29.10494 26.94759,46.95154z" fill="#626171" stroke="none" stroke-width="0"/><path d="M245.08891,39.60165c23.79629,9.34577 24.93485,31.63457 22.15867,44.82895h-0.00001c-1.78116,8.46537 -4.8471,16.13652 -11.85896,20.64381c-7.77044,4.99493 -20.16254,6.23552 -36.15493,3.21187c-30.02647,-5.67701 -38.08474,-23.33473 -34.32969,-41.18132c3.18731,-15.14835 16.13092,-31.87221 40.9752,-31.5352" fill="none" stroke="#3a2f41" stroke-width="2"/><path d="M226.01462,35.55644c0.80479,0.06106 1.59512,0.13171 2.37121,0.2117" fill="none" stroke="#3a2f41" stroke-width="2"/></g><path d="M221.63282,53.80188c1.11742,-4.06849 2.1489,-22.38431 8.79808,-25.22011c8.51191,-3.63022 24.45364,5.01144 30.1184,6.56727c5.06962,1.39238 9.21475,12.73854 17.23572,22.01351c7.94274,9.18452 26.63961,17.10654 26.63961,17.10654c0,0 -21.76252,21.99984 -50.63149,11.27073c-10.04925,-2.91463 -32.77443,-29.50205 -32.16034,-31.73796z" fill="#3a2f41" stroke="#626171" stroke-width="1.5"/><path d="M219.94945,21.72438c7.20637,0.567 12.5637,4.97457 14.92035,8.47419c0.91572,1.35983 5.36943,8.07689 -3.70932,19.08355c-3.76181,4.56066 -10.73144,14.29526 -19.83584,17.65115c-24.04149,8.8617 -37.24572,6.06463 -37.24572,6.06463c0,0 4.04455,-10.46674 8.64314,-21.70487c4.64389,-11.34882 4.95376,-23.42446 9.31455,-26.36105c4.87267,-3.28131 18.68765,-3.93345 27.91285,-3.20762z" data-paper-data="{&quot;index&quot;:null}" fill="#3a2f41" stroke="#3a2f41" stroke-width="2.5"/><path d="M220.93235,25.85941c1.08162,-3.93815 11.788,-4.43096 23.91335,-1.10073c5.26024,1.44472 10.05841,-1.04576 15.43148,5.11828c7.01239,8.04468 10.81494,23.40295 20.53095,32.2041c2.48536,3.24066 -27.75395,-19.73087 -39.8793,-23.0611c-12.12535,-3.33022 -21.07807,-9.22242 -19.99646,-13.16058z" fill="#3a2f41" stroke="none" stroke-width="0"/><path d="M209.77021,18.76706c3.81358,-1.80494 10.6706,-2.85785 17.15565,0.33551c8.30179,4.08797 19.84564,11.70494 22.35877,17.01476c2.2491,4.752 -3.65239,15.2919 -5.45661,27.42062c-1.78664,12.01043 8.24402,22.54788 8.24402,22.54788c0,0 -24.68017,-2.69857 -40.82271,-22.59684c-6.11312,-7.53539 -7.13287,-20.57855 -8.03751,-26.42086c-2.18326,-14.09977 5.07656,-17.59973 6.55838,-18.30106z" data-paper-data="{&quot;index&quot;:null}" fill="#3a2f41" stroke="#3a2f41" stroke-width="2.5"/></g><g data-paper-data="{&quot;index&quot;:null}" stroke="#3a2f41"><path d="M237.49097,2.42039c-3.90842,-22.26066 20.98339,-37.08718 20.98339,-37.08718" fill="none" stroke-width="2" stroke-linecap="round"/><g><path d="M280.49969,-55.40459c14.72953,-5.97545 32.5906,-2.35054 32.5906,-2.35054c0,0 -9.97038,14.29438 -24.6999,20.26984c-14.72951,5.97546 -26.788,5.93537 -28.64038,1.36922c-1.85239,-4.56614 6.02018,-13.31306 20.7497,-19.28852z" fill="#4427e3" stroke-width="2" stroke-linecap="butt"/><path d="M266.41373,-39.59589c0,0 10.12862,-8.97502 32.53755,-13.19983" fill="none" stroke-width="1.5" stroke-linecap="round"/><path d="M272.50512,-39.89286l-2.99918,-1.26805l0.46036,-4.22449" fill="none" stroke-width="1.5" stroke-linecap="round"/><path d="M280.18156,-43.93882l-3.21556,-1.80145l1.15985,-3.26588" fill="none" stroke-width="1.5" stroke-linecap="round"/><path d="M288.66574,-46.7595l-2.79036,-2.28455l1.05165,-3.53258" fill="none" stroke-width="1.5" stroke-linecap="round"/><path d="M295.86663,-49.68077l-2.04055,-1.96753l1.10954,-2.62428" fill="none" stroke-width="1.5" stroke-linecap="round"/></g></g><path d="M182.01639,69.57792c-7.45219,-0.80898 -12.30418,-6.60956 -10.83722,-12.95596c1.46696,-6.3464 8.69737,-10.83536 16.14955,-10.02639c7.45219,0.80897 12.30418,6.60955 10.83722,12.95595c-0.71746,3.10395 -2.81358,5.76358 -5.64002,7.57639c-0.16703,0.10713 -14.90501,-18.57633 -15.14337,-18.44919c-0.29054,0.15497 15.11699,18.51171 14.9004,18.6258c-2.74673,1.44681 -6.93706,2.63484 -10.26655,2.2734z" fill="none" stroke-opacity="0.38867" stroke="#ff5a7a" stroke-width="2" stroke-linecap="butt"/><path d="M192.18222,76.5625c0,0 12.52914,-23.0228 23.83354,-21.13472c11.3044,1.88808 7.67634,31.94208 7.67634,31.94208c0,0 -11.02702,-4.51998 -17.25372,-7.00348c-7.33865,-2.927 -14.25616,-3.80388 -14.25616,-3.80388z" data-paper-data="{&quot;index&quot;:null}" fill="#e1e2db" stroke="#3a2f41" stroke-width="1" stroke-linecap="butt"/><path d="M185.44838,49.60612l5.08494,4.04572l-2.75908,3.77953l-5.24246,-3.69473l5.25156,3.6407l-6.23292,8.37195" fill="none" stroke-opacity="0.38867" stroke="#ff5a7a" stroke-width="2" stroke-linecap="round"/><path d="M171.93789,45.85081c-0.01563,-0.66259 -0.62426,-1.08892 -0.61174,-1.79963c0.28727,-16.31575 4.68307,-15.48235 6.94096,-22.11865c1.94877,-5.72775 2.38003,-8.43336 3.95664,-12.38592c9.65902,-24.21516 24.69072,-45.4281 24.69072,-45.4281c0,0 0.46022,11.32635 4.12508,21.65188c2.15592,6.07419 7.70963,11.47506 8.7948,14.89667c3.19892,10.08643 5.53743,21.64876 5.53743,21.64876c0,0 -54.22317,25.6307 -53.43389,23.53499z" fill="#3a2f41" stroke="#3a2f41" stroke-width="2.5" stroke-linecap="butt"/><path d="M233.39394,88.01157c1.58313,0.24267 2.81734,0.76024 2.75667,1.15602c-0.06067,0.39579 -1.39324,0.51991 -2.97637,0.27724c-1.58313,-0.24267 -2.81734,-0.76024 -2.75667,-1.15602c0.06067,-0.39579 1.39324,-0.51991 2.97637,-0.27724z" fill="#3a2f41" stroke="#3a2f41" stroke-width="1.5" stroke-linecap="butt"/><path d="M193.25806,76.72564c0,0 11.70611,-20.50207 19.26667,-18.24762c7.56056,2.25445 4.38333,25.51667 4.38333,25.51667c0,0 -7.7051,-2.80817 -11.58589,-4.09664c-3.91883,-1.30109 -12.06411,-3.17241 -12.06411,-3.17241z" fill="#3a2f41" stroke="none" stroke-width="0" stroke-linecap="butt"/><path d="M169.48067,46.50002l0.75,-6.75l38.75,-1.25v3.75z" fill="#e1e2db" stroke="#3a2f41" stroke-width="2" stroke-linecap="butt"/><path d="M207.09484,44.68554l-2.42408,-8.48779c0,0 90.10212,-21.5726 127.19176,-10.94586c5.62521,1.61171 15.08719,15.93851 10.67111,14.97884c-54.45,-11.83258 -135.43879,4.45481 -135.43879,4.45481z" fill="#e1e2db" stroke="#3a2f41" stroke-width="2" stroke-linecap="butt"/></g><g stroke="#3a2f41" stroke-width="1"><path d="M222.43617,109.01156c-27.69793,-4.82314 -35.43218,-26.28712 -29.59917,-28.67474c1.77603,-0.72699 3.49612,-0.66648 5.83087,0.40806c5.36098,2.4673 12.41573,8.38756 27.18943,11.39988c12.19107,2.48571 19.11055,1.01888 23.7336,0.192c3.78249,-0.67654 6.13132,-0.80669 7.70612,1.01998c3.88721,4.50883 -10.3505,19.89763 -34.70673,15.65642z" fill="#3a2f41" stroke-linecap="round"/><path d="M204.71047,94.1347c0.66123,0.09775 1.73713,3.25298 4.53982,5.13345c0.86534,0.5806 5.30268,1.6929 10.45265,3.20809c2.49268,0.73338 5.47926,1.91721 7.93254,1.90129c9.49698,-0.06155 21.80385,-5.84078 22.78813,-4.32827c0.71911,1.10501 2.14485,1.09848 0.16957,3.04748c-5.97584,5.89632 -16.7865,5.81723 -20.91582,6.16938c0,0 -4.46627,-0.29487 -8.95715,-1.27492c-12.33822,-2.69255 -25.29772,-11.27851 -25.60555,-17.44104c0.00392,-0.68827 0.37641,-2.25031 2.12362,-1.63069c2.89231,1.02573 7.47215,5.21523 7.47215,5.21523z" fill="#626171" stroke-linecap="butt"/><path d="M250.04225,99.06215c0.39336,1.25367 0.15912,1.87009 -0.97361,2.92096c-1.1327,1.0509 -2.73495,2.13829 -3.12829,0.88463c-0.39335,-1.25368 0.57314,-3.1546 1.70585,-4.20549c1.1327,-1.05091 2.00269,-0.85378 2.39606,0.3999z" fill="#e1e2db" stroke-linecap="butt"/><path d="M199.50967,91.06951c-0.54505,1.29084 -0.91509,1.83172 -1.81778,1.49408c-0.90269,-0.33763 -1.09996,-2.33301 -0.55492,-3.62384c0.54505,-1.29084 1.15044,-1.47749 2.05315,-1.13986c0.90268,0.33763 0.8646,1.97877 0.31955,3.2696z" fill="#e1e2db" stroke-linecap="butt"/><path d="M246.55278,99.76746c0.39335,1.25367 -0.3144,2.65586 -1.44713,3.70674c-1.1327,1.0509 -2.26144,1.35252 -2.65479,0.09886c-0.39336,-1.25367 0.55857,-2.88237 1.69129,-3.93326c1.1327,-1.0509 2.01727,-1.12599 2.41061,0.12766z" fill="#e1e2db" stroke-linecap="butt"/><path d="M242.21314,101.53839c0.40337,1.14587 -0.29174,2.4139 -1.41424,3.35711c-1.12246,0.94322 -2.24726,1.20443 -2.65064,0.05853c-0.40336,-1.14588 0.5337,-2.61722 1.65617,-3.56042c1.12247,-0.94322 2.00529,-1.00111 2.40868,0.14476z" fill="#e1e2db" stroke-linecap="butt"/><path d="M237.747,104.90459c-0.9443,1.41522 -2.36027,2.25059 -3.10747,1.44034c-0.74721,-0.81024 -0.29412,-2.35748 0.65016,-3.77268c0.94429,-1.41521 2.31554,-1.90565 3.06273,-1.09541c0.7472,0.81023 0.33883,2.01253 -0.60545,3.42776z" fill="#e1e2db" stroke-linecap="butt"/><path d="M225.21385,101.31642c-0.10361,0.75243 -1.05791,3.28431 -2.01538,4.29545c-0.80909,0.85445 -1.72694,0.93311 -2.14238,0.8717c-0.40576,-0.05998 -1.80267,-1.02439 -1.80737,-2.05976c-0.00581,-1.27913 0.22421,-2.14567 1.06179,-4.28877z" fill="#e1e2db" stroke-linecap="butt"/><path d="M229.84871,103.07789c-0.40475,1.49925 -2.64281,4.64702 -3.61565,4.50322c-0.97284,-0.14381 -1.61867,-0.50636 -1.40528,-2.05609c0.2134,-1.54973 0.8707,-4.03915 1.84355,-3.89536c0.97284,0.14381 3.39972,0.62468 3.17736,1.44824z" fill="#e1e2db" stroke-linecap="butt"/><path d="M234.63258,102.29993c-0.14047,1.02007 -2.16699,4.89857 -3.42659,4.71237c-0.61907,-0.0915 -1.32734,-1.03996 -1.18688,-2.06004c0.14047,-1.02007 0.94619,-2.94362 1.57092,-3.10207c0.54167,-0.13739 3.18301,-0.57031 3.04253,0.44975z" fill="#e1e2db" stroke-linecap="butt"/><path d="M218.4991,104.33629c-0.46319,0.88128 -1.45679,0.80877 -1.82991,0.61221c-0.38198,-0.20122 -0.43101,-0.50722 -0.74296,-1.7309c-0.36917,-1.44811 -0.15282,-3.75788 0.0924,-4.46367c0.45242,-1.30218 3.53676,-0.14602 3.40624,1.15323c-0.2352,2.34151 -0.35353,3.34037 -0.92577,4.42913z" data-paper-data="{&quot;index&quot;:null}" fill="#e1e2db" stroke-linecap="butt"/><path d="M207.82263,98.61784c-0.17982,1.3059 -1.48479,0.67664 -2.44288,0.53502c-0.9581,-0.14163 -1.06407,-2.75402 -0.88425,-4.05992c0.17981,-1.30589 1.87116,-0.61671 2.7886,-0.27711c0.83031,0.67422 0.71833,2.49611 0.53851,3.802z" fill="#e1e2db" stroke-linecap="butt"/><path d="M201.2304,92.28175c-0.16732,1.37663 -0.36106,1.98274 -1.2299,1.83868c-0.86883,-0.14408 -1.51804,-2.05719 -1.35075,-3.43382c0.16731,-1.37663 0.65123,-1.68451 1.52007,-1.54043c0.86883,0.14408 1.22787,1.75896 1.06056,3.13558z" fill="#e1e2db" stroke-linecap="butt"/><path d="M204.14998,96.1248c-0.09421,0.76095 -0.14027,1.37633 -1.15652,1.21092c-1.01623,-0.16543 -2.2786,-2.47073 -2.08058,-4.06988c0.19799,-1.59914 0.48245,-1.94253 1.49868,-1.7771c1.01623,0.16543 1.93642,3.03691 1.73843,4.63605z" fill="#e1e2db" stroke-linecap="butt"/><path d="M211.92561,100.81028c-0.29027,2.10787 -1.03201,1.60372 -2.07857,1.449c-1.04653,-0.15468 -1.80654,-3.69051 -1.51628,-5.79839c0.05271,-0.38277 1.30776,-1.62329 2.34651,-0.45783c0.8229,0.92327 1.37665,3.87548 1.24835,4.80722z" fill="#e1e2db" stroke-linecap="butt"/><path d="M215.09977,102.29817c-0.19448,1.4124 -0.77076,1.33575 -1.74359,1.19194c-0.97284,-0.14381 -1.6555,-3.00766 -1.461,-4.42007c0.19448,-1.41241 1.20227,-0.90956 2.1751,-0.76575c0.97284,0.14381 1.22398,2.58146 1.02948,3.99385z" fill="#e1e2db" stroke-linecap="butt"/><path d="M232.42084,93.11432c7.78365,0.62332 18.33891,-0.85257 18.33891,-0.85257c2.39742,-0.21603 2.93691,3.965 -0.38911,4.56137c-1.80394,0.32346 -6.73703,1.35789 -9.03774,1.76608c-5.27164,0.93533 -11.69105,0.98642 -14.93004,0.73324c-1.24768,-0.09751 -1.78493,-2.69096 -2.1298,-2.74194c-0.43818,-0.06477 -1.97679,1.21101 -3.81451,0.64521c-5.48613,-1.68908 -15.41646,-6.87275 -20.88279,-10.07235c-1.28979,-0.75496 -3.06932,-2.56765 -3.50597,-3.7407c-0.58458,-1.57042 0.76109,-3.53631 2.44612,-2.7243c3.18791,1.53624 8.08715,4.51208 12.9364,6.72653c0,0 9.52554,4.78306 20.96852,5.69942z" fill="#626171" stroke-linecap="butt"/><path d="M223.36709,94.20928c0.58103,0.04176 2.13111,0.11413 2.35985,1.33c0.24173,1.28506 -0.08978,4.17484 -0.35276,5.47351c-0.1836,0.90659 -1.84171,0.81525 -2.74463,0.67459c-0.95554,-0.14883 -2.01141,-0.91532 -2.62039,-1.69018c-0.20037,-0.25497 -0.14292,-0.96211 0.16932,-1.64874c0.4001,-0.87982 1.80367,-4.23875 3.18863,-4.13922z" fill="#e1e2db" stroke-linecap="butt"/><path d="M219.25447,98.96744c-0.10295,0.74768 -1.08717,1.22061 -2.19832,1.05636c-1.11116,-0.16427 -1.65123,-1.69969 -1.54827,-2.44736c0.04111,-0.29859 0.32444,-1.14367 0.70043,-2.13033c0.5655,-1.484 1.43004,-3.16939 2.70844,-2.84921c2.50786,0.6281 0.44068,5.62286 0.33771,6.37053z" fill="#e1e2db" stroke-linecap="butt"/><path d="M215.70246,94.69836c-0.15599,1.13282 -0.78631,3.13277 -1.27724,3.49473c-0.42828,0.31578 -3.3575,-0.26131 -3.2015,-1.39415c0.15599,-1.13282 2.28298,-4.50925 3.12202,-4.38524c0.83903,0.12402 1.51271,1.15182 1.35673,2.28464z" fill="#e1e2db" stroke-linecap="butt"/><path d="M210.86783,95.67665c-1.01735,0.56641 -2.83858,0.05132 -3.00072,-1.14883c-0.22548,-1.66901 1.16409,-4.23375 1.86342,-4.5339c1.01757,-0.43672 2.4795,0.28467 2.80686,1.36401c0.35406,1.16742 -1.32451,4.12661 -1.66954,4.3187z" fill="#e1e2db" stroke-linecap="butt"/><path d="M207.6576,93.73706c-0.12792,0.92892 -1.10693,0.88283 -2.39947,0.69176c-1.29254,-0.19105 -1.87127,-0.71011 -1.74336,-1.63902c0.12792,-0.92892 2.06286,-4.1739 3.3554,-3.98285c0.56151,0.08302 1.19286,0.48732 1.28148,1.40341c0.11536,1.19265 -0.4217,3.00133 -0.49403,3.5267z" fill="#e1e2db" stroke-linecap="butt"/><path d="M239.88105,100.37805c-0.19342,1.40469 -1.2108,1.85497 -2.16322,1.71419c-0.95241,-0.14079 -1.92144,-0.04158 -1.72802,-1.44629c0.19343,-1.40469 2.31633,-5.01544 3.26873,-4.87465c0.9524,0.14079 0.6225,4.60675 0.6225,4.60675z" fill="#e1e2db" stroke-linecap="butt"/><path d="M243.6164,99.38169c-0.19342,1.4047 -1.17358,1.58457 -2.12597,1.44378c-0.95241,-0.14079 -1.34088,-0.60669 -1.14745,-2.01137c0.19342,-1.40469 1.81013,-3.16479 2.76251,-3.02401c0.9524,0.14079 0.70432,2.18694 0.51091,3.59163z" fill="#e1e2db" stroke-linecap="butt"/><path d="M231.31471,101.80907c-0.25688,0.71507 -1.52708,0.94631 -3.11442,0.71166c-1.58735,-0.23464 -2.11502,-0.46122 -1.9091,-1.95654c0.20591,-1.49532 0.80068,-5.40695 3.06757,-5.23927c1.33908,0.09904 1.73011,0.62542 2.01167,1.9355c0.36773,1.71111 0.04411,4.27087 -0.05568,4.54869z" fill="#e1e2db" stroke-linecap="butt"/><path d="M235.71792,100.72987c-0.20591,1.49532 -2.30022,1.60476 -3.43986,1.24955c-0.19241,-0.05996 -0.2116,-1.0583 -0.07384,-2.1769c0.09277,-0.75332 0.25673,-1.56117 0.48689,-2.17372c0.33555,-0.893 0.73645,-1.22283 1.53877,-1.30473c1.81743,-0.18557 1.69395,2.91046 1.48806,4.4058z" fill="#e1e2db" stroke-linecap="butt"/><path d="M250.65615,97.22024c-0.16223,1.17814 -0.76431,2.06363 -1.6487,1.93292c-0.88439,-0.13074 -1.59408,-0.28928 -1.43184,-1.46741c0.16223,-1.17815 0.8457,-2.93061 1.7301,-2.79988c0.88439,0.13074 1.51268,1.15622 1.35044,2.33435z" fill="#e1e2db" stroke-linecap="butt"/><path d="M247.46047,97.81006c-0.16222,1.17815 -0.76431,2.06363 -1.6487,1.93292c-0.8844,-0.13074 -1.59408,-0.28928 -1.43184,-1.46741c0.16223,-1.17815 1.68414,-3.26717 2.56854,-3.13641c0.8844,0.13074 0.67425,1.49277 0.51203,2.67092z" fill="#e1e2db" stroke-linecap="butt"/><path d="M200.92287,85.69701c0.14175,1.09409 -0.25602,3.84087 -1.01687,3.88553c-0.76085,0.04466 -2.3454,-0.75599 -2.48716,-1.85007c-0.14175,-1.09408 0.96551,-3.46668 1.72638,-3.51133c0.76085,-0.04466 1.63588,0.38178 1.77766,1.47588z" fill="#e1e2db" stroke-linecap="butt"/><path d="M204.84048,88.18768c-0.02504,1.09946 -1.0309,3.77388 -1.99116,3.73143c-0.96025,-0.04245 -2.79475,-1.01572 -2.76973,-2.11519c0.02503,-1.09946 1.84942,-3.32254 2.80968,-3.2801c0.96025,0.04246 1.97624,0.56437 1.95122,1.66386z" fill="#e1e2db" stroke-linecap="butt"/></g><g data-paper-data="{&quot;index&quot;:null}" stroke-linecap="butt"><path d="M238.51011,89.02968c0,0 3.02573,-30.29256 11.11232,-29.50445c8.0866,0.78811 11.94453,28.64799 11.94453,28.64799c0,0 -5.51146,-0.6297 -11.21139,-0.54323c-6.31158,0.09574 -11.84546,1.39969 -11.84546,1.39969z" data-paper-data="{&quot;index&quot;:null}" fill="#e1e2db" stroke="#3a2f41" stroke-width="1"/><path d="M238.8557,88.90453c0,0 2.34826,-24.74249 7.56426,-25.06027c5.21601,-0.31778 8.65385,23.63631 8.65385,23.63631c0,0 -5.45861,-0.27073 -8.17204,-0.03249c-2.69244,0.2364 -8.04607,1.45645 -8.04607,1.45645z" fill="#3a2f41" stroke="none" stroke-width="0"/></g></g><text transform="translate(234.95921,-46.37859) scale(0.59593,0.59593)" font-size="40" xml:space="preserve" fill="#3a2f41" fill-rule="nonzero" stroke="none" stroke-width="1" stroke-linecap="butt" stroke-linejoin="miter" stroke-miterlimit="10" stroke-dasharray="" stroke-dashoffset="0" font-family="Handwriting" font-weight="normal" text-anchor="start" style="mix-blend-mode: normal"><tspan x="0" dy="0">MR CARTOON CAT</tspan></text></g></g></svg>