<svg version="1.1" xmlns="http://www.w3.org/2000/svg" xmlns:xlink="http://www.w3.org/1999/xlink" width="156.93173" height="236.91004" viewBox="0,0,156.93173,236.91004"><defs><linearGradient x1="1077.66312" y1="216.06021" x2="1077.66312" y2="354.07601" gradientUnits="userSpaceOnUse" id="color-1"><stop offset="0" stop-color="#ffffff" stop-opacity="0.26046"/><stop offset="1" stop-color="#ffffff" stop-opacity="0"/></linearGradient><linearGradient x1="1077.66312" y1="216.06021" x2="1077.66312" y2="354.07601" gradientUnits="userSpaceOnUse" id="color-2"><stop offset="0" stop-color="#ffffff" stop-opacity="0.26046"/><stop offset="1" stop-color="#ffffff" stop-opacity="0"/></linearGradient><linearGradient x1="1077.66312" y1="216.06021" x2="1077.66312" y2="354.07601" gradientUnits="userSpaceOnUse" id="color-3"><stop offset="0" stop-color="#ffffff" stop-opacity="0.26046"/><stop offset="1" stop-color="#ffffff" stop-opacity="0"/></linearGradient><linearGradient x1="1036.02754" y1="220.12049" x2="1036.02754" y2="358.13627" gradientUnits="userSpaceOnUse" id="color-4"><stop offset="0" stop-color="#ffffff" stop-opacity="0.26046"/><stop offset="1" stop-color="#ffffff" stop-opacity="0"/></linearGradient><linearGradient x1="1036.02754" y1="220.12049" x2="1036.02754" y2="358.13627" gradientUnits="userSpaceOnUse" id="color-5"><stop offset="0" stop-color="#ffffff" stop-opacity="0.26046"/><stop offset="1" stop-color="#ffffff" stop-opacity="0"/></linearGradient><linearGradient x1="1036.02754" y1="220.12049" x2="1036.02754" y2="358.13627" gradientUnits="userSpaceOnUse" id="color-6"><stop offset="0" stop-color="#ffffff" stop-opacity="0.26046"/><stop offset="1" stop-color="#ffffff" stop-opacity="0"/></linearGradient><linearGradient x1="267.06563" y1="107.49019" x2="258.99362" y2="187.27136" gradientUnits="userSpaceOnUse" id="color-7"><stop offset="0" stop-color="#cedee0" stop-opacity="0"/><stop offset="1" stop-color="#cedee0" stop-opacity="0.19676"/></linearGradient></defs><g transform="translate(-163.93306,-62.32814)"><g data-paper-data="{&quot;isPaintingLayer&quot;:true}" fill-rule="nonzero" stroke-linejoin="miter" stroke-miterlimit="10" stroke-dasharray="" stroke-dashoffset="0" style="mix-blend-mode: normal"><path d="" fill="#3a2f41" stroke="none" stroke-width="0" stroke-linecap="butt"/><path d="" fill="#3a2f41" stroke="url(#color-1)" stroke-width="0.5" stroke-linecap="butt"/><path d="" fill="#3a2f41" stroke="url(#color-2)" stroke-width="0.5" stroke-linecap="butt"/><path d="" fill="#3a2f41" stroke="url(#color-3)" stroke-width="0.5" stroke-linecap="butt"/><path d="" data-paper-data="{&quot;index&quot;:null}" fill="#3a2f41" stroke="url(#color-4)" stroke-width="0.5" stroke-linecap="butt"/><path d="" data-paper-data="{&quot;index&quot;:null}" fill="#3a2f41" stroke="url(#color-5)" stroke-width="0.5" stroke-linecap="butt"/><path d="" data-paper-data="{&quot;index&quot;:null}" fill="#3a2f41" stroke="url(#color-6)" stroke-width="0.5" stroke-linecap="butt"/><g data-paper-data="{&quot;index&quot;:null}" stroke="#3a2f41" stroke-linecap="butt"><path d="M200.95642,110.82709l5.18142,-12.18241l7.02023,6.16752l-4.72112,-9.59068l18.16212,-15.57219c0,0 0.37973,17.40936 4.77621,33.74693c1.96914,3.76841 -7.7123,8.37686 -7.7123,8.37686z" fill="#3a2f41" stroke-width="1.5"/><path d="M229.63852,119.67045c-1.80355,-1.73681 4.62009,-19.81075 8.29544,-23.42884c1.48662,-1.46344 13.03197,15.1527 11.14206,17.01317c-3.67534,3.61808 -16.76311,8.99103 -18.56665,7.25425z" data-paper-data="{&quot;index&quot;:null}" fill="#8c9ca0" stroke-width="2"/><path d="M230.39047,119.94016c1.44605,1.99006 -8.27097,14.39372 -12.51387,16.83746c-2.18178,1.25663 -14.80855,-14.73106 -13.09238,-15.71951c4.24288,-2.44374 23.46199,-4.06888 24.90803,-2.07882z" fill="#e1e2db" stroke-width="1.5"/><path d="M235.0396,116.83037c1.27593,2.82039 0.14745,6.08521 -2.52052,7.29217c-2.66792,1.20695 -5.86508,-0.10102 -7.141,-2.92144c-1.27593,-2.82039 -0.14746,-6.0852 2.52051,-7.29215c2.66792,-1.20695 5.86509,0.10102 7.141,2.92142z" fill="#e1e2db" stroke-width="2"/></g><path d="M303.16765,186.53085l-18.60075,-3.9913l0.98871,-10.17088c0,0 -2.28568,10.19927 -2.69027,10.0427c-5.2799,-0.96484 -10.51452,-1.83996 -15.52605,-2.6242c-21.05346,-3.2945 -38.1702,-4.98486 -38.1702,-4.98486c0,0 -5.37228,-12.31105 -4.26832,-23.22232c0.77147,-7.625 3.17858,-22.59876 15.13968,-33.23809c9.64667,-8.58067 25.18804,-9.97831 28.36284,-9.78691c2.53859,0.15303 12.8217,5.15394 18.54758,11.75531c9.53119,10.98856 19.07348,34.54694 19.07348,34.54694z" fill="#3a2f41" stroke="none" stroke-width="0" stroke-linecap="butt"/><g stroke-linecap="butt"><path d="M294.7684,156.54455c-0.68353,6.75577 0.25314,12.9393 -5.01463,16.81178c-5.12079,3.76442 -15.7969,4.16268 -26.56514,3.30427c-10.7177,-0.85435 -21.20885,-4.36139 -25.48333,-9.2542c-4.32435,-4.94988 -2.86909,-10.15688 -2.19118,-16.85703c1.34799,-13.32305 12.07446,-29.3342 36.86336,-26.08388c16.30629,2.13807 23.73894,18.75601 22.39094,32.07907z" fill="#e1e2db" stroke="none" stroke-width="0"/><path d="M294.7684,156.54455c-1.34798,13.32305 -12.59103,3.72082 -26.01973,2.46894c-13.42601,-1.25163 -34.58256,4.85893 -33.23457,-8.46412c1.34799,-13.32305 12.07445,-29.33421 36.86335,-26.08389c16.30629,2.13807 23.73894,18.75601 22.39094,32.07907z" fill="#b8c1c0" stroke="none" stroke-width="0"/><path d="M276.95468,125.50732c13.11318,4.35056 20.10118,18.60087 18.88649,30.60646l-0.05401,0.53384c-0.63941,6.31967 -0.96796,12.29242 -5.57897,16.14656c-5.10987,4.27111 -15.15418,4.82046 -26.63749,3.90507c-7.93319,-0.6324 -17.37063,-3.0315 -21.66358,-6.04126c-7.3742,-5.17001 -7.24498,-11.6878 -6.39297,-20.10862c1.14417,-11.30871 9.04533,-24.55416 26.56792,-26.31313" fill="none" stroke="#3a2f41" stroke-width="2"/></g><path d="M218.15461,170.29361l-8.37596,-7.98594c0,0 0.20015,-23.71744 12.01016,-37.95091c15.23302,-18.35883 39.35876,-23.64288 61.83244,-15.64125c4.81437,1.71413 16.84272,7.13646 23.29643,16.26968c7.75274,10.97162 9.47999,24.10389 9.47999,24.10389l-4.82294,-1.26548l-0.08742,10.23299c0,0 -2.62377,-0.96009 -2.61947,-1.17726c0.09668,-4.86595 -0.41774,-9.75851 -0.41774,-9.75851c0,0 0.35552,3.99262 -0.71376,9.73228c-2.75727,-0.80981 -18.23391,-4.0404 -18.23391,-4.0404l-1.68748,-4.56591l-0.789,4.03621l-13.46218,-2.62665l0.10226,-15.47187l-1.71987,14.89747c0,0 -12.14788,-1.34344 -18.05005,-1.72257c-0.4163,-0.02674 -1.33752,-6.6372 -1.33752,-6.6372c0,0 -0.82911,6.71739 -1.13948,6.69143c-3.66864,-0.30708 -8.78288,-0.15797 -8.78288,-0.15797c0,0 -3.37509,34.02912 -3.51081,34.03092c-2.11115,0.02832 -19.17604,-8.24886 -19.00461,-9.64798c0.24767,-2.02121 0.12494,-13.54872 0.12494,-13.54872z" fill="#3a2f41" stroke="url(#color-7)" stroke-width="0.5" stroke-linecap="butt"/><path d="M273.71036,118.92457c17.187,-29.21387 46.0145,-37.75418 46.0145,-37.75418l-17.0737,54.09726" fill="#3a2f41" stroke="#3a2f41" stroke-width="1.5" stroke-linecap="round"/><path d="M216.74946,134.02828c16.06608,-45.18548 50.52011,-70.23802 50.52011,-70.23802l0.50471,50.75206" fill="#3a2f41" stroke="#3a2f41" stroke-width="1.5" stroke-linecap="round"/><path d="M240.05798,157.94238c0,0 4.60619,-2.71619 12.17432,-2.12396c8.01844,0.62748 11.73525,4.65114 11.73525,4.65114c0,0 -5.04869,-0.67596 -12.32906,-1.37697c-6.46938,-0.62293 -11.58051,-1.15019 -11.58051,-1.15019z" fill="#e1e2db" stroke="#3a2f41" stroke-width="1" stroke-linecap="butt"/><path d="M256.94504,159.67101l0.40239,-2.6351l2.84778,0.72271l-0.88615,2.28275z" fill="#3a2f41" stroke="#3a2f41" stroke-width="0.5" stroke-linecap="butt"/><g><path d="M226.14878,247.64804l45.813,-0.76218c0,0 5.04541,11.59034 8.26718,18.84593c0.96427,2.1716 1.76517,3.95488 2.21854,4.92291c0.78102,2.92933 1.76178,7.02553 2.85584,11.82751c-23.29992,0.16708 -46.59774,0.46157 -69.59486,0.7129c4.87851,-17.61158 10.44033,-35.54705 10.44033,-35.54705z" fill="#e1e2db" stroke="none" stroke-width="0" stroke-linecap="round"/><path d="M214.74668,272.00007c3.0482,-13.89968 14.56283,-29.05535 14.56283,-29.05535l40.86291,-0.93381c0,0 5.43784,10.50739 7.1818,14.55355c1.20922,2.80549 2.27843,7.39503 2.27843,7.39503l-24.09584,18.40774c-14.31966,0.15076 -28.59021,0.32227 -42.74187,0.47467c0.75379,-4.60896 1.44281,-8.52114 1.95174,-10.84183z" fill="#8c9ca0" stroke="none" stroke-width="0" stroke-linecap="butt"/><path d="M213.82664,283.21557c0.79549,-4.52492 1.5874,-8.65867 2.35307,-12.15015c2.74061,-12.49741 13.14123,-27.72043 13.14123,-27.72043l40.5261,-0.49327c0,0 6.41618,8.63572 11.56538,26.54363c0.85487,2.97312 2.01212,7.56887 3.33179,13.09086" fill="none" stroke="#3a2f41" stroke-width="2" stroke-linecap="round"/><path d="M273.42023,249.53236l-19.83152,10.47149l-27.90463,-9.4605" fill="none" stroke="#3a2f41" stroke-width="1.5" stroke-linecap="round"/></g><path d="M251.48481,256.66848c-9.13098,-1.26599 -22.63886,-13.16019 -22.63886,-13.16019c0,0 1.94362,-4.92073 3.28691,-7.54206c1.22368,-2.38793 3.93306,-7.62418 3.93306,-7.62418c0,0 1.10922,-3.81175 -0.56131,-8.23967c-1.04662,-2.77418 -7.39091,-14.29562 -7.35515,-14.65687c0.00688,-0.06946 1.53671,-3.62865 3.77638,-7.33465c2.59966,-4.30166 10.81339,-10.67696 14.3104,-11.9548c3.80982,-1.39216 8.73717,-1.57325 12.40635,-0.95316c5.6075,0.94764 11.27648,2.86268 15.9787,6.34552c1.772,1.31248 4.86003,4.60889 4.86003,4.60889c0,0 4.822,8.55203 5.96911,18.31249c-5.10152,9.56086 -13.97112,12.5503 -13.97112,12.5503l-1.98813,6.71787c0,0 1.3073,5.33762 1.75404,7.97055c0.44525,2.62411 0.92199,7.80074 0.92199,7.80074c0,0 -11.5514,8.42524 -20.68238,7.15925z" fill="#3a2f41" stroke="#8c9ca0" stroke-width="1.5" stroke-linecap="round"/><g data-paper-data="{&quot;index&quot;:null}" stroke="#3a2f41" stroke-linecap="butt"><g data-paper-data="{&quot;index&quot;:null}"><g stroke-width="0"><path d="" fill="#e1e2db"/><path d="" fill="#e1e2db"/><path d="" fill="#8c9ca0"/></g><path d="M267.83376,285.72833l36.88162,5.7012l-1.0237,6.55157c-12.16207,-2.62019 -24.36482,-5.19644 -36.56263,-7.74273z" fill="#e1e2db" stroke-width="0"/><path d="M267.83375,285.72833l36.88164,5.7012l-1.02372,6.55158c-12.16207,-2.62019 -24.36482,-5.19643 -36.56263,-7.74272z" fill="#8c9ca0" stroke-width="0"/><path d="M294.5184,290.13266l10.17768,1.57329l-0.98129,6.28013" fill="none" stroke-width="2"/><path d="M267.15217,290.24321l0.66227,-4.23845l11.99133,1.85364" fill="none" stroke-width="2"/></g><g data-paper-data="{&quot;index&quot;:null}"><path d="M277.52215,253.3941l-7.64737,-42.00357l8.75585,-13.95618c0,0 6.04253,11.36232 9.15337,18.57434c5.64857,13.09552 21.94041,53.51272 21.94041,53.51272l-4.3833,28.81536c-12.74144,-2.75006 -25.52983,-5.45117 -38.31264,-8.11939z" fill="#3a2f41" stroke-width="1.5"/><path d="" fill="#8ea8ab" stroke-width="2"/></g></g><g stroke="#3a2f41"><g fill="#e1e2db" stroke-width="2"><path d="" stroke-linecap="round"/><path d="" stroke-linecap="round"/><path d="M190.29266,250.85749l7.1617,-10.2187l-0.27625,9.39851l4.26372,-1.08767c0,0 -8.13661,21.62061 -10.17495,28.41205c-0.31217,1.04013 -0.59369,2.00443 -0.84136,2.86972c-5.98763,-1.19496 -11.95053,-2.38985 -17.88303,-3.58645c7.06488,-14.21496 15.4015,-29.98511 15.41823,-30.01676z" stroke-linecap="butt"/><path d="M187.96072,246.62813c0,0 -0.00001,0.00003 -0.00003,0.00006v0z" stroke-linecap="butt"/></g><g stroke-linecap="butt"><path d="M179.42362,239.04376c0,0 34.54853,-26.55888 46.06124,-34.97649c6.34035,-4.63578 16.45253,-11.11261 16.45253,-11.11261l-3.4485,22.40114l-23.1334,26.13302l-10.81485,41.55202c-13.31176,-2.64373 -26.52429,-5.2803 -39.57662,-7.92895z" fill="#3a2f41" stroke-width="1.5"/><path d="M167.07276,269.84935l0.98999,-2.01025l36.77646,13.45015l-0.58925,1.69383c-0.80528,-0.15994 -1.61019,-0.31985 -2.41472,-0.47975z" fill="#8ea8ab" stroke-width="2"/></g></g><g><path d="M267.53251,186.07839c-0.28744,2.02537 -6.06111,5.03797 -8.28718,4.72205c-2.22609,-0.31592 -6.85767,-4.40077 -6.57023,-6.42613c0.28743,-2.02537 5.75209,-2.38552 7.97816,-2.0696c2.22607,0.31592 7.1667,1.74833 6.87927,3.77371z" fill="#3a2f41" stroke="none" stroke-width="0" stroke-linecap="butt"/><g fill="#8c9ca0" stroke="#8c9ca0" stroke-width="1.5" stroke-linecap="butt"><path d="M240.68213,196.58002c-0.65856,-0.85725 11.52128,-13.18244 11.52128,-13.18244l6.81665,6.85574l9.00021,-5.29208c0,0 8.35784,15.31004 7.65049,15.98436c-0.39112,0.37286 -3.74769,-2.05989 -8.06794,-4.07766c-3.97418,-1.85617 -8.95539,-3.29713 -8.95539,-3.29713c0,0 -5.57624,0.61081 -10.1912,1.48361c-4.21971,0.79803 -7.49949,1.88306 -7.7741,1.52564z"/></g><path d="M251.97255,185.04977l0.77227,-1.83173l7.55334,-1.16596l7.28882,2.69264l0.51723,2.05517" fill="none" stroke="#8c9ca0" stroke-width="2" stroke-linecap="round"/></g><g fill="#8c9ca0" stroke="#3a2f41" stroke-width="1.5" stroke-linecap="butt"><path d="M261.06495,204.47449c-0.36552,1.81277 -2.19755,2.97264 -4.09197,2.59065c-1.89441,-0.38198 -3.13383,-2.16118 -2.76831,-3.97395c0.36552,-1.81277 2.19757,-2.97265 4.09199,-2.59067c1.89441,0.38198 3.13382,2.16119 2.76829,3.97396z"/><path d="M259.71912,214.4267c-0.37823,1.87578 -2.29017,3.07269 -4.27043,2.67339c-1.98027,-0.39931 -3.27895,-2.2436 -2.90072,-4.11937c0.37823,-1.87578 2.29016,-3.07269 4.27042,-2.67339c1.98027,0.39931 3.27898,2.24361 2.90076,4.11938z"/></g><path d="" fill="#3a2f41" stroke="#8c9ca0" stroke-width="2" stroke-linecap="butt"/><path d="" fill="#3a2f41" stroke="#8c9ca0" stroke-width="2" stroke-linecap="butt"/></g></g></svg>