<svg version="1.1" xmlns="http://www.w3.org/2000/svg" xmlns:xlink="http://www.w3.org/1999/xlink" width="660.34507" height="382.99567" viewBox="0,0,660.34507,382.99567"><defs><linearGradient x1="149.02642" y1="39.94945" x2="149.02642" y2="129.03308" gradientUnits="userSpaceOnUse" id="color-1"><stop offset="0" stop-color="#ffffff"/><stop offset="1" stop-color="#ffffff" stop-opacity="0"/></linearGradient><linearGradient x1="333.14183" y1="39.94945" x2="333.14183" y2="129.03308" gradientUnits="userSpaceOnUse" id="color-2"><stop offset="0" stop-color="#ffffff"/><stop offset="1" stop-color="#ffffff" stop-opacity="0"/></linearGradient></defs><g transform="translate(75.28135,17.4929)"><g data-paper-data="{&quot;isPaintingLayer&quot;:true}" fill-rule="nonzero" stroke-linejoin="miter" stroke-miterlimit="10" stroke-dasharray="" stroke-dashoffset="0" style="mix-blend-mode: normal"><g><path d="M-16.35156,274.55906v-273.66108l523.56119,-3.79031v277.4514z" fill="#edebed" stroke="#0b0d10" stroke-width="1" stroke-linecap="butt"/><path d="M507.48119,29.74901h-527.90611" fill="#edebed" stroke="#0b0d10" stroke-width="1" stroke-linecap="round"/><g fill="#edebed" stroke="#0b0d10" stroke-width="1" stroke-linecap="round"><path d="M3.47207,29.06898v-30.60126"/><path d="M65.38698,29.06898v-30.60126"/><path d="M130.56057,29.74901v-30.60126"/></g><g fill="#edebed" stroke="#0b0d10" stroke-width="1" stroke-linecap="round"><path d="M205.51021,29.06898v-30.60126"/><path d="M267.42512,29.06898v-30.60126"/><path d="M343.46098,-0.85226v30.60126"/></g><g fill="#edebed" stroke="#0b0d10" stroke-width="1" stroke-linecap="round"><path d="M420.58306,29.74901v-30.60126"/><path d="M485.75666,-2.21231v30.60126"/></g><path d="M-18.25246,57.63015h527.90611" fill="#edebed" stroke="#0b0d10" stroke-width="1" stroke-linecap="round"/><path d="M-19.8818,97.07177h527.90611" fill="#edebed" stroke="#0b0d10" stroke-width="1" stroke-linecap="round"/><path d="M-19.8818,133.79328h527.90611" fill="#edebed" stroke="#0b0d10" stroke-width="1" stroke-linecap="round"/><path d="M-19.8818,172.55487h527.90611" fill="#edebed" stroke="#0b0d10" stroke-width="1" stroke-linecap="round"/><path d="M-20.96803,206.55626h527.90611" fill="#edebed" stroke="#0b0d10" stroke-width="1" stroke-linecap="round"/><path d="M-18.79558,241.23769h527.90611" fill="#edebed" stroke="#0b0d10" stroke-width="1" stroke-linecap="round"/><g fill="#edebed" stroke="#0b0d10" stroke-width="1" stroke-linecap="round"><path d="M445.02316,172.55487v32.64134"/><path d="M494.44647,173.2349v32.64134"/></g><g fill="#edebed" stroke="#0b0d10" stroke-width="1" stroke-linecap="round"><path d="M443.93694,133.05773v-35.30594"/><path d="M493.36024,98.48734v35.30594"/></g><g fill="#edebed" stroke="#0b0d10" stroke-width="1" stroke-linecap="round"><path d="M444.48005,29.06898v28.64444"/><path d="M493.90335,58.31017v-28.64445"/></g><path d="M472.17883,241.23769v-34.68142" fill="#edebed" stroke="#0b0d10" stroke-width="1" stroke-linecap="round"/><g fill="#edebed" stroke="#0b0d10" stroke-width="1" stroke-linecap="round"><path d="M443.93694,273.21289v-31.9752"/><path d="M493.36024,241.90383v31.9752"/></g><g stroke="#000000"><path d="M-3.31685,14.10836l-5.97425,-26.52109l18.46585,4.08017z" fill="#cea5c7" stroke-width="1" stroke-linecap="butt"/><path d="M34.15797,22.2687l-9.23292,-28.56117c0,0 6.11653,1.04849 9.64428,1.52601c3.1206,0.42241 10.45092,1.1941 10.45092,1.1941z" fill="#cea5c7" stroke-width="1" stroke-linecap="butt"/><path d="M72.71901,20.90864l-13.57783,-23.12095c0,0 6.40952,0.25765 9.74904,0.03758c3.52941,-0.23258 10.88927,-1.39763 10.88927,-1.39763z" fill="#cea5c7" stroke-width="1" stroke-linecap="butt"/><path d="M110.73694,15.46841l-15.75028,-20.40083l21.72453,-3.40014z" fill="#cea5c7" stroke-width="1" stroke-linecap="butt"/><path d="M147.66864,10.02819c0,0 -6.2709,-5.44842 -8.89193,-8.52509c-3.09352,-3.63128 -8.4877,-11.87575 -8.4877,-11.87575l21.72453,-4.7602c0,0 -1.92035,8.9044 -2.62961,12.78969c-0.73791,4.04217 -1.71529,12.37134 -1.71529,12.37134z" fill="#cea5c7" stroke-width="1" stroke-linecap="butt"/><path d="M157.98779,-16.4929c0,0 -57.20746,12.61092 -86.33047,13.5003c-30.21703,0.92279 -91.81069,-11.46021 -91.81069,-11.46021" fill="none" stroke-width="2" stroke-linecap="round"/></g><g data-paper-data="{&quot;index&quot;:null}" stroke="#000000"><path d="M482.22642,-4.93242l18.46585,-4.08017l-5.97425,26.52109z" fill="#cea5c7" stroke-width="1" stroke-linecap="butt"/><path d="M446.38094,-0.17223c0,0 7.33032,-0.77169 10.45092,-1.1941c3.52774,-0.47752 9.64428,-1.52601 9.64428,-1.52601l-9.23292,28.56117z" fill="#cea5c7" stroke-width="1" stroke-linecap="butt"/><path d="M411.62169,-0.17223c0,0 7.35986,1.16503 10.88927,1.39763c3.33951,0.22007 9.74904,-0.03757 9.74904,-0.03757l-13.57783,23.12095z" fill="#cea5c7" stroke-width="1" stroke-linecap="butt"/><path d="M374.68999,-4.93242l21.72453,3.40014l-15.75028,20.40083z" fill="#cea5c7" stroke-width="1" stroke-linecap="butt"/><path d="M342.01724,1.05699c-0.70926,-3.88527 -2.62961,-12.78969 -2.62961,-12.78969l21.72453,4.7602c0,0 -5.39418,8.24447 -8.4877,11.87575c-2.62102,3.07666 -8.89192,8.52509 -8.89192,8.52509c0,0 -0.97739,-8.32917 -1.7153,-12.37134z" fill="#cea5c7" stroke-width="1" stroke-linecap="butt"/><path d="M511.55454,-11.05267c0,0 -61.59365,12.383 -91.81068,11.46021c-29.12301,-0.88938 -86.33047,-13.5003 -86.33047,-13.5003" fill="none" stroke-width="2" stroke-linecap="round"/></g><g fill="#000000" stroke="#000000" stroke-width="1" stroke-linecap="butt" font-family="Sans Serif" font-weight="normal" font-size="40" text-anchor="start"><text transform="translate(484.39888,134.57803) scale(0.16516,0.2068)" font-size="40" xml:space="preserve" fill="#000000" fill-rule="nonzero" stroke="#000000" stroke-width="1" stroke-linecap="butt" stroke-linejoin="miter" stroke-miterlimit="10" stroke-dasharray="" stroke-dashoffset="0" font-family="Sans Serif" font-weight="normal" text-anchor="start" style="mix-blend-mode: normal"><tspan x="0" dy="0">Starox223</tspan></text></g></g><g><path d="M62.39986,267.07875l1.08623,-244.13003h355.19609l2.17245,244.13003z" fill="#f3f1f3" stroke="none" stroke-width="0" stroke-linecap="butt"/><path d="M210.12667,229.67722v-66.18939h9.41397v66.18939z" fill="#cbbba6" stroke="#000000" stroke-width="0.75" stroke-linecap="butt"/><path d="M242.71347,230.13058v-66.18939h9.41396v66.18939z" fill="#cbbba6" stroke="#000000" stroke-width="0.75" stroke-linecap="butt"/><g stroke="#000000"><path d="M245.61009,88.00474v-50.77543h33.49199v50.77543z" fill="#ebe7ee" stroke-width="0.5" stroke-linecap="butt"/><path d="M249.23083,60.12359v-18.36076h24.4401v18.36076z" fill="#b9bfd7" stroke-width="1" stroke-linecap="butt"/><path d="M249.77395,64.43042h24.07803" fill="none" stroke-width="1" stroke-linecap="round"/><path d="M249.59292,68.51059h24.07801" fill="none" stroke-width="1" stroke-linecap="round"/><path d="M274.03301,73.04412h-24.07801" fill="none" stroke-width="1" stroke-linecap="round"/><path d="M249.95498,76.89761h24.07801" fill="none" stroke-width="1" stroke-linecap="round"/></g><g stroke="#000000" stroke-width="1" stroke-linecap="butt"><path d="M210.48876,68.28392v-46.69526h31.31953v46.69526z" fill="#ebe7ee"/><path d="M229.31669,43.57622c0,9.13886 -1.29686,16.54736 -2.8966,16.54736c-1.59975,0 -2.89659,-7.40852 -2.89659,-16.54736c0,-9.13884 1.29685,-16.54733 2.89659,-16.54733c1.59975,0 2.8966,7.40849 2.8966,16.54733z" fill="none"/><path d="M229.37119,41.13626c5.96333,8.47528 9.63842,16.72235 8.20853,18.42035c-1.42989,1.69799 -7.42327,-3.7961 -13.3866,-12.27139c-5.96333,-8.47528 -9.6384,-16.72235 -8.20852,-18.42034c1.42989,-1.69799 7.42326,3.7961 13.38659,12.27138z" fill="none"/><path d="M236.31245,29.08041c1.42989,1.63653 -2.24519,9.58503 -8.20852,17.7535c-5.96333,8.16847 -11.9567,13.46367 -13.3866,11.82714c-1.42989,-1.63653 2.2452,-9.58505 8.20853,-17.75352c5.96333,-8.16847 11.9567,-13.46366 13.38659,-11.82714z" data-paper-data="{&quot;index&quot;:null}" fill="none"/></g><g stroke="#000000" stroke-width="1"><path d="M233.29952,53.09663v-25.84106h19.55208v25.84106z" fill="#ebe7ee" stroke-linecap="butt"/><path d="M250.13603,31.78908h-14.66406" fill="none" stroke-linecap="round"/><path d="M249.95498,36.32261h-14.30197" fill="none" stroke-linecap="round"/><path d="M235.29094,40.85612h14.66406" fill="none" stroke-linecap="round"/></g><path d="M204.33347,167.34132v-7.4803l3.98284,-11.56048h42.18179l7.88493,12.05179l0.26177,6.98898z" fill="#cbbba6" stroke="#000000" stroke-width="0.75" stroke-linecap="butt"/><path d="M258.28272,161.67443l-53.2251,-0.45336" fill="none" stroke="#000000" stroke-width="0.75" stroke-linecap="round"/><path d="M64.84387,70.9587v-46.58192h57.57001v46.58192z" fill="#b89e79" stroke="#000000" stroke-width="0.75" stroke-linecap="butt"/><path d="M69.18878,64.15842v-35.36146h48.06553v35.36146z" fill="#d2bb9a" stroke="#000000" stroke-width="0.75" stroke-linecap="butt"/><path d="M108.83605,48.85778v-17.00069h3.80179v17.00069z" fill="#e4d5c0" stroke="#000000" stroke-width="0.75" stroke-linecap="butt"/><path d="M320.63211,22.08736l-0.57932,206.18447" fill="none" stroke="#000000" stroke-width="0.75" stroke-linecap="round"/><path d="M322.58732,22.63138l-0.21725,207.18184" fill="none" stroke="#000000" stroke-width="0.75" stroke-linecap="round"/><path d="M328.45294,126.99299l0.86898,-90.85173l81.90148,-12.24051l0.21725,105.26833z" fill="#d9dbdb" stroke="#000000" stroke-width="0.75" stroke-linecap="butt"/><path d="M330.40814,124.65313l0.82576,-85.78891l77.82785,-11.35968l0.20644,99.21643z" fill="#323838" stroke="#000000" stroke-width="0.75" stroke-linecap="butt"/><path d="M338.66348,125.58702v-88.40128l2.17245,-0.22845v88.85698z" fill="#d9dbdb" stroke="none" stroke-width="0" stroke-linecap="butt"/><path d="M391.34547,126.93081v-97.61522l3.43972,-0.7453v98.83072z" fill="#d9dbdb" stroke="none" stroke-width="0" stroke-linecap="butt"/><text transform="translate(343.56178,54.16961) rotate(-1.59483) scale(0.21906,0.24092) skewX(-0.34707)" font-size="40" xml:space="preserve" fill="#ffffff" fill-rule="nonzero" stroke="none" stroke-width="1" stroke-linecap="butt" stroke-linejoin="miter" stroke-miterlimit="10" stroke-dasharray="" stroke-dashoffset="0" font-family="Sans Serif" font-weight="normal" text-anchor="start" style="mix-blend-mode: normal"><tspan x="0" dy="0">1+1= 2</tspan><tspan x="0" dy="46.15px">2+2= 4</tspan><tspan x="0" dy="46.15px">3+4= 7</tspan><tspan x="0" dy="46.15px">6+6= 12</tspan><tspan x="0" dy="46.15px">11-4= 7</tspan><tspan x="0" dy="46.15px">50-20= 30</tspan></text><g stroke="#000000"><path d="M225.15281,156.00753v-19.94749h18.28481v19.94749z" fill="#b89e79" stroke-width="0.75" stroke-linecap="butt"/><path d="M234.02366,126.53965c0,2.3786 0.81081,2.72011 -1.53881,2.72011c-2.34964,0 -3.89232,-2.83495 -4.7975,-5.21355c-0.81717,-2.1473 -1.90089,-6.12026 -1.90089,-6.12026c0,0 8.23723,6.23509 8.23723,8.61369z" fill="#c8d8d4" stroke-width="1" stroke-linecap="butt"/><path d="M234.02366,114.52583c0,0 -4.94135,-2.90775 -6.51736,-6.34694c-1.57601,-3.43919 -1.99969,-7.4803 0,-7.4803c1.99969,0 5.43113,7.93366 5.43113,7.93366z" fill="#c8d8d4" stroke-width="1" stroke-linecap="butt"/><path d="M236.34252,108.29027l-2.35347,4.81946c0,0 -1.24159,-6.35772 -0.45184,-10.13681c0.78976,-3.77909 2.5132,-6.90196 3.62702,-5.057c1.11383,1.84496 -0.82171,10.37437 -0.82171,10.37437z" fill="#c8d8d4" stroke-width="1" stroke-linecap="butt"/><path d="M237.98744,115.13913c-2.85476,3.27757 -3.91873,1.7836 -3.91873,1.7836c0,0 0.53263,-6.59393 2.88353,-9.24619c2.3509,-2.65224 5.06493,-5.536 5.55761,-2.52369c0.49269,3.01229 -1.66766,6.7087 -4.52242,9.98628z" fill="#c8d8d4" stroke-width="1" stroke-linecap="butt"/><path d="M232.57536,107.72555l1.4483,3.8535v17.0007" fill="none" stroke-width="1" stroke-linecap="round"/><path d="M222.43725,137.42009v-9.06703h23.71594v9.06703z" fill="#b89e79" stroke-width="0.75" stroke-linecap="butt"/></g><g><path d="M173.25109,107.08015v-24.84111l18.42198,-13.13909l17.58462,13.13909v24.84111l-17.58462,12.5232z" fill="#dbdbdb" stroke="#000000" stroke-width="0.75" stroke-linecap="butt"/><path d="M176.43306,105.40179v-20.8596l15.2517,-11.03318l14.55842,11.03318v20.8596l-14.55842,10.51599z" fill="#b4cfcf" stroke="#000000" stroke-width="0.75" stroke-linecap="butt"/><g><path d="M190.32114,95.30369l0.43449,-5.57623" fill="none" stroke="#2dd800" stroke-width="0.75" stroke-linecap="round"/><path d="M192.27635,91.35953l-1.62934,1.22405" fill="none" stroke="#2dd800" stroke-width="0.75" stroke-linecap="round"/><g stroke-linecap="butt"><path d="M191.95048,84.01523c0,0.90136 -0.19453,1.63207 -0.43449,1.63207c-0.23996,0 -0.43449,-0.73071 -0.43449,-1.63207c0,-0.90136 0.43449,-2.5841 0.43449,-2.5841c0,0 0.43449,1.68274 0.43449,2.5841z" fill="#ff0000" stroke="#ff0000" stroke-width="0.5"/><path d="M189.50745,85.91097c0.6821,0.28814 1.17289,0.75252 1.09617,1.03722c-0.07671,0.28469 -0.69186,0.28188 -1.37397,-0.00627c-0.6821,-0.28814 -1.81664,-1.34156 -1.81664,-1.34156c0,0 1.41233,0.02246 2.09443,0.31061z" fill="#ff0000" stroke="#ff0000" stroke-width="0.5"/><path d="M193.4577,87.51231c-0.71934,0.03526 -1.31009,-0.17954 -1.31947,-0.47976c-0.00938,-0.30023 0.56614,-0.57219 1.28547,-0.60745c0.71934,-0.03526 2.07924,0.44251 2.07924,0.44251c0,0 -1.32592,0.60943 -2.04526,0.6447z" fill="#ff0000" stroke="#ff0000" stroke-width="0.5"/><path d="M190.84437,88.94149c-0.03886,-0.90005 0.12389,-1.64284 0.36351,-1.65906c0.23961,-0.01621 0.46536,0.70029 0.50421,1.60033c0.03886,0.90005 -0.32246,2.6097 -0.32246,2.6097c0,0 -0.5064,-1.65093 -0.54525,-2.55098z" fill="#ff0000" stroke="#ff0000" stroke-width="0.5"/><path d="M192.34732,89.02789c-0.52249,-0.62008 -0.81221,-1.2995 -0.64714,-1.51757c0.16508,-0.21807 0.72244,0.10782 1.24493,0.7279c0.52249,0.62008 1.199,2.17251 1.199,2.17251c0,0 -1.27431,-0.76274 -1.79679,-1.38282z" fill="#ff0000" stroke="#ff0000" stroke-width="0.5"/><path d="M189.59413,87.8302c0.52249,-0.62008 1.07986,-0.94598 1.24494,-0.72791c0.16508,0.21807 -0.12466,0.89751 -0.64714,1.51759c-0.52249,0.62008 -1.79679,1.38282 -1.79679,1.38282c0,0 0.67652,-1.55243 1.199,-2.17251z" data-paper-data="{&quot;index&quot;:null}" fill="#ff0000" stroke="#ff0000" stroke-width="0.5"/><path d="M193.09288,85.40213c-0.48932,0.66112 -1.02867,1.03153 -1.20468,0.8273c-0.17601,-0.20423 0.07798,-0.90574 0.56731,-1.56687c0.48932,-0.66112 1.7215,-1.52559 1.7215,-1.52559c0,0 -0.59481,1.60403 -1.08413,2.26516z" data-paper-data="{&quot;index&quot;:null}" fill="#ff0000" stroke="#ff0000" stroke-width="0.5"/><path d="M189.21093,82.66184c0,0 1.11414,1.08698 1.51835,1.83285c0.40421,0.74587 0.57092,1.48728 0.37235,1.65598c-0.19857,0.1687 -0.68721,-0.29918 -1.09142,-1.04505c-0.40421,-0.74587 -0.79928,-2.44376 -0.79928,-2.44376z" data-paper-data="{&quot;index&quot;:null}" fill="#ff0000" stroke="#ff0000" stroke-width="0.5"/><path d="M192.81947,87.00736c0,0.97648 -0.68085,1.76807 -1.52072,1.76807c-0.83987,0 -1.52072,-0.79159 -1.52072,-1.76807c0,-0.97648 0.68085,-1.76808 1.52072,-1.76808c0.83987,0 1.52072,0.7916 1.52072,1.76808z" fill="#fbff00" stroke="none" stroke-width="0"/></g></g><path d="M183.10406,109.79004c0,-1.79467 -1.11648,-11.95247 -1.11648,-11.95247h17.44506l-0.83736,12.96255l-6.83702,5.00187c0,0 -8.6542,-5.70515 -8.6542,-6.01195z" fill="#b89e79" stroke="#000000" stroke-width="0.75" stroke-linecap="butt"/><path d="M180.08955,99.75669v-4.84833h21.10155v4.84833z" fill="#b89e79" stroke="#000000" stroke-width="0.75" stroke-linecap="butt"/><path d="M190.29701,92.97649l-1.30347,-0.68002" fill="none" stroke="#2dd800" stroke-width="0.75" stroke-linecap="round"/></g><g stroke="#000000" stroke-width="0.75" stroke-linecap="butt"><path d="M130.86833,67.83278v-33.44853l23.98961,-17.69178l22.89917,17.69178v33.44853l-22.89917,16.86249z" fill="#eaeaea"/><path d="M135.01198,66.18331v-28.08742l19.86117,-14.85616l18.95838,14.85616v28.08742l-18.95838,14.15979z" fill="#d7dae3"/><g><path d="M152.05916,53.27797l0.72695,-6.12025c0,0 6.59611,-8.23871 9.63219,-7.02696c3.03608,1.21177 -1.00115,6.40461 -3.63478,9.74707c-2.63363,3.34246 -6.72436,3.40014 -6.72436,3.40014z" fill="#c8d8d4"/><path d="M151.15047,53.95799c0,0 -2.36261,-5.04495 -2.36261,-7.58713c0,-3.43093 3.1733,-13.89577 3.63478,-13.04038c1.00426,1.86144 0.36348,19.67912 0.36348,19.67912z" fill="#c8d8d4"/><path d="M143.69915,72.09207c0,-2.41654 -1.45392,-16.09399 -1.45392,-16.09399h22.71743l-1.09044,17.45405l-8.90335,6.73502c0,0 -11.26972,-7.68198 -11.26972,-8.09508z" fill="#b89e79"/><path d="M139.77356,58.58219v-6.52827h27.479v6.52827z" fill="#b89e79"/></g></g><g stroke="#000000" stroke-width="0.75" stroke-linecap="butt"><g fill="#c8d8d4"><path d="M83.73213,105.22454c0,0 3.19506,-14.71173 6.51736,-18.36076c1.87227,-2.05639 6.96996,0.45335 6.96996,0.45335c0,0 -3.49075,0.72649 -5.18976,2.49343c-2.74421,2.85397 -8.29757,15.41396 -8.29757,15.41396z"/><path d="M83.74172,106.19425c0,0 5.48838,-10.44783 9.84424,-11.38281c4.1444,0.22868 6.23441,8.2747 6.23441,8.2747c0,0 -4.24436,-4.68874 -6.43051,-4.29508c-3.53105,0.63581 -9.64813,7.4032 -9.64813,7.4032z"/><path d="M79.06859,99.3955c-2.18614,-0.39364 -8.72366,0.97051 -8.72366,0.97051c0,0 3.95151,-5.41909 8.04479,-5.55461c8.7451,-0.2895 5.62002,10.02276 5.62002,10.02276c0,0 1.36582,-4.80286 -4.94115,-5.43867z" data-paper-data="{&quot;index&quot;:null}"/></g><path d="M79.14584,127.17433l-2.17245,-19.38079h17.37963l-2.17246,19.38079z" fill="#b89e79"/><path d="M74.25783,109.83362v-4.7602h22.26764v4.7602z" fill="#b89e79"/></g></g><g stroke="#000000" stroke-width="1"><path d="M-33.18808,360.92261v-91.12375h545.82884v91.12375z" fill="#edebed" stroke-linecap="butt"/><path d="M52.89538,269.79886l-90.69992,85.00349" fill="none" stroke-linecap="round"/><path d="M515.62789,305.84034l-543.11328,2.72011" fill="none" stroke-linecap="round"/><path d="M396.41452,362.28266l-38.01793,-55.08226l126.54539,-1.36005l73.32029,55.08226z" fill="#cfddbc" stroke-linecap="butt"/><path d="M484.39888,305.16031l-54.31133,-35.36145l91.78614,-0.68003l61.36174,36.8859z" fill="#c7deea" stroke-linecap="butt"/><path d="M-73.92157,308.56046l44.53528,-37.40154l82.01011,-0.68003l-42.36284,38.7616z" fill="#e8bebe" stroke-linecap="butt"/><path d="M240.26945,356.84244l-2.71556,-87.04357" fill="none" stroke-linecap="round"/><path d="M397.7723,365.00277l-65.17359,-95.20391" fill="none" stroke-linecap="round"/><path d="M99.06001,363.64272l65.17359,-93.16383" data-paper-data="{&quot;index&quot;:null}" fill="none" stroke-linecap="round"/></g><g><path d="M-41.33477,271.15892v-231.88953h67.88916v231.88953z" fill="#a0afce" stroke="#000000" stroke-width="1.5" stroke-linecap="butt"/><path d="M-31.28718,58.9902h47.79397" fill="none" stroke="#000000" stroke-width="2" stroke-linecap="round"/><path d="M-31.28718,72.59076h47.79397" fill="none" stroke="#000000" stroke-width="2" stroke-linecap="round"/><path d="M-31.28718,85.51129h47.79397" fill="none" stroke="#000000" stroke-width="2" stroke-linecap="round"/><path d="M-30.20095,234.43741h47.79397" fill="none" stroke="#000000" stroke-width="2" stroke-linecap="round"/><path d="M-30.20095,248.03797h47.79397" fill="none" stroke="#000000" stroke-width="2" stroke-linecap="round"/><path d="M17.59302,260.9585h-47.79397" fill="none" stroke="#000000" stroke-width="2" stroke-linecap="round"/><path d="M13.42915,169.15473v-33.32137h7.42255v33.32137z" fill="#dedde8" stroke="#000000" stroke-width="1" stroke-linecap="butt"/><g stroke-width="1"><path d="M-29.56732,188.4222v-63.01592h32.94887v63.01592z" fill="#e2e2e2" stroke="#000000" stroke-linecap="butt"/><g fill="none" stroke="#000000"><path d="M-22.80375,177.54174l6.47086,-14.46896l7.04181,14.46896z" stroke-linecap="butt"/><path d="M-20.3296,165.6772h8.37405" stroke-linecap="round"/><path d="M-22.04247,169.14975h11.60947" stroke-linecap="round"/></g><path d="M-5.67033,170.51479c0,7.38619 -5.42525,14.73395 -11.22434,14.73395c-5.79909,0 -9.77604,-5.53433 -9.77604,-12.92053c0,-7.38619 4.70109,-17.0007 10.50019,-17.0007c5.7991,0 10.50019,7.80109 10.50019,15.18728z" fill="none" stroke="#ff0000" stroke-linecap="butt"/><path d="M-7.66174,154.64747l-5.06906,-0.22668l-2.17245,-4.7602" fill="none" stroke="#ff0000" stroke-linecap="round"/><path d="M-12.18769,153.74075c0,0 1.07958,-2.62554 1.74815,-3.90447c1.18827,-2.27305 4.76921,-9.46939 4.76921,-9.46939" fill="none" stroke="#ff0000" stroke-linecap="round"/><path d="M-15.98948,129.93979c0,0 1.3935,-1.21919 2.50851,-1.39384c1.21528,-0.19034 2.36682,0.09054 2.35439,1.41018c-0.02522,2.67939 -1.74305,1.84988 -2.45303,3.74958c-0.72473,1.93917 -0.2374,4.6211 -0.2374,4.6211" fill="none" stroke="#ff0000" stroke-linecap="round"/><path d="M-13.636,141.50025c-0.49991,0 -0.90518,-0.20298 -0.90518,-0.45335c0,-0.25037 0.40526,-0.45334 0.90518,-0.45334c0.49991,0 0.90519,0.20297 0.90519,0.45334c0,0.25037 -0.40526,0.45335 -0.90519,0.45335z" fill="none" stroke="#ff0000" stroke-linecap="butt"/><path d="M-8.74798,129.48643c0,0 1.3935,-0.53917 2.50851,-0.71381c1.21528,-0.19034 2.18577,1.45061 2.17334,2.77023c-0.02522,2.6794 -2.82927,0.7165 -3.53925,2.6162c-0.72473,1.93917 -0.59949,4.39443 -0.59949,4.39443" fill="none" stroke="#ff0000" stroke-linecap="round"/><path d="M-7.4807,141.27358c0,0.25038 -0.04319,0.45335 -0.54311,0.45335c-0.49992,0 -0.90519,-0.20296 -0.90519,-0.45335c0,-0.25038 0.40526,-0.45336 0.90519,-0.45336c0.49991,0 0.54311,0.20298 0.54311,0.45336z" fill="none" stroke="#ff0000" stroke-linecap="butt"/><path d="M-2.59269,129.25974c0,0 1.39349,-0.53917 2.5085,-0.71381c1.21529,-0.19034 2.18577,-0.36281 2.17335,0.95683c-0.02522,2.6794 -3.53925,4.42961 -3.53925,4.42961l-0.41845,4.39441" fill="none" stroke="#ff0000" stroke-linecap="round"/><path d="M-1.86854,141.50025c-0.49991,0 -0.90518,-0.20297 -0.90518,-0.45335c0,-0.25038 0.40527,-0.45336 0.90518,-0.45336c0.49991,0 0.54311,0.20298 0.54311,0.45336c0,0.25038 -0.04319,0.45335 -0.54311,0.45335z" fill="none" stroke="#ff0000" stroke-linecap="butt"/></g><path d="M-6.9376,206.32959v-25.84106h24.07802v25.84106z" fill="#f3ddbf" stroke="#000000" stroke-width="1.25" stroke-linecap="butt"/></g><g><g stroke-linecap="butt"><path d="M80.14156,269.11885v-139.63241h136.86454v139.63241z" fill="#d5e1bf" stroke="none" stroke-width="0"/><path d="M60.58948,268.21213v-247.07682h22.81076v247.07682z" fill="#d5e1bf" stroke="none" stroke-width="0"/><path d="M67.46892,38.3627v-17.22738h153.52002v17.22738z" fill="#d5e1bf" stroke="none" stroke-width="0"/><path d="M214.83366,268.6655v-247.98353h24.62113v247.98353z" fill="#d5e1bf" stroke="none" stroke-width="0"/><path d="M60.22741,269.11886v-248.89022h180.31361v248.89022z" fill="none" stroke="#000000" stroke-width="1.5"/></g><g><path d="M83.58128,129.03308v-89.08366h130.8903v89.08366z" fill="url(#color-1)" stroke="none" stroke-width="0" stroke-linecap="butt"/><path d="M215.01469,38.90671l-130.89029,0.22668" fill="none" stroke="#000000" stroke-width="1.5" stroke-linecap="round"/><path d="M83.94336,128.21707l130.70926,0.90671" fill="none" stroke="#000000" stroke-width="1.5" stroke-linecap="round"/></g><path d="M202.95436,211.72449v-71.40293h13.57783l0.11183,6.94255l-8.34087,0.11805l0.03037,58.01895l8.01606,-0.00361l-0.03464,6.599z" data-paper-data="{&quot;index&quot;:null}" fill="#eef3f8" stroke="#000000" stroke-width="1.5" stroke-linecap="butt"/><g data-paper-data="{&quot;index&quot;:null}" stroke-linecap="butt"><path d="M264.61903,269.11886v-139.6324h136.86455v139.63242z" fill="#d5e1bf" stroke="none" stroke-width="0"/><path d="M398.22491,268.21215v-247.07682h22.81076v247.07682z" fill="#d5e1bf" stroke="none" stroke-width="0"/><path d="M260.6362,38.3627v-17.22738h153.52002v17.22738z" fill="#d5e1bf" stroke="none" stroke-width="0"/><path d="M242.17035,268.6655v-247.98353h24.62113v247.98353z" fill="#d5e1bf" stroke="none" stroke-width="0"/><path d="M241.08413,269.11886v-248.89022h180.31361v248.89022z" fill="none" stroke="#000000" stroke-width="1.5"/></g><g data-paper-data="{&quot;index&quot;:null}"><path d="M267.69667,129.03308v-89.08366h130.8903v89.08366z" fill="url(#color-2)" stroke="none" stroke-width="0" stroke-linecap="butt"/><path d="M267.15357,38.90674l130.89029,0.22667" fill="none" stroke="#000000" stroke-width="1.5" stroke-linecap="round"/><path d="M267.51564,129.12377l130.70926,-0.9067" fill="none" stroke="#000000" stroke-width="1.5" stroke-linecap="round"/></g><path d="M265.8533,211.99651l-0.03464,-6.599l8.01606,0.00362l0.03037,-58.01895l-8.34087,-0.11805l0.11184,-6.94256h13.57783v71.40294z" data-paper-data="{&quot;index&quot;:null}" fill="#eef0f8" stroke="#000000" stroke-width="1.5" stroke-linecap="butt"/></g></g></g></svg>