<svg version="1.1" xmlns="http://www.w3.org/2000/svg" xmlns:xlink="http://www.w3.org/1999/xlink" width="502.93234" height="165.81519" viewBox="0,0,502.93234,165.81519"><defs><linearGradient x1="4.75001" y1="248.00001" x2="15.75001" y2="248.00001" gradientUnits="userSpaceOnUse" id="color-1"><stop offset="0" stop-color="#3a2f41"/><stop offset="1" stop-color="#45384d"/></linearGradient><linearGradient x1="21.10001" y1="313.7" x2="21.10001" y2="335.50001" gradientUnits="userSpaceOnUse" id="color-2"><stop offset="0" stop-color="#000000" stop-opacity="0"/><stop offset="1" stop-color="#000000" stop-opacity="0"/></linearGradient><linearGradient x1="465.30261" y1="310.7" x2="465.30261" y2="332.50001" gradientUnits="userSpaceOnUse" id="color-3"><stop offset="0" stop-color="#000000" stop-opacity="0"/><stop offset="1" stop-color="#000000" stop-opacity="0"/></linearGradient><linearGradient x1="0.00001" y1="216.50001" x2="0.00001" y2="236.50691" gradientUnits="userSpaceOnUse" id="color-4"><stop offset="0" stop-color="#3a2f41"/><stop offset="1" stop-color="#51415a"/></linearGradient><linearGradient x1="0.00001" y1="216.50001" x2="0.00001" y2="236.50691" gradientUnits="userSpaceOnUse" id="color-5"><stop offset="0" stop-color="#3a2f41"/><stop offset="1" stop-color="#4f4058"/></linearGradient><linearGradient x1="244.17146" y1="350.00561" x2="244.17146" y2="357.00561" gradientUnits="userSpaceOnUse" id="color-6"><stop offset="0" stop-color="#8c9ca0"/><stop offset="1" stop-color="#aec2c8"/></linearGradient><linearGradient x1="142.09428" y1="268.21761" x2="149.59428" y2="268.21761" gradientUnits="userSpaceOnUse" id="color-7"><stop offset="0" stop-color="#8c9ca0"/><stop offset="1" stop-color="#acc0c6"/></linearGradient><linearGradient x1="142.5" y1="321.342" x2="150" y2="321.342" gradientUnits="userSpaceOnUse" id="color-8"><stop offset="0" stop-color="#8c9ca0"/><stop offset="1" stop-color="#aec1c7"/></linearGradient><linearGradient x1="337.75001" y1="268.71761" x2="345.25001" y2="268.71761" gradientUnits="userSpaceOnUse" id="color-9"><stop offset="0" stop-color="#8b9ba0"/><stop offset="1" stop-color="#aec2c8"/></linearGradient><linearGradient x1="337.75001" y1="321.842" x2="345.25001" y2="321.842" gradientUnits="userSpaceOnUse" id="color-10"><stop offset="0" stop-color="#8d9ca0"/><stop offset="1" stop-color="#afc1c7"/></linearGradient></defs><g transform="translate(8.93672,-191.19042)"><g data-paper-data="{&quot;isPaintingLayer&quot;:true}" fill-rule="nonzero" stroke-miterlimit="10" stroke-dasharray="" stroke-dashoffset="0" style="mix-blend-mode: normal"><g><path d="M7.00001,285.97971h137v44h-137z" fill="#3a2f41" stroke="none" stroke-width="0.92815" stroke-linecap="butt" stroke-linejoin="miter"/><path d="M13.50001,268.50001l106.5,12l21.5,-6.5l2,21.5l-11.5,-0.5l-12,6l-106.5,-12.5z" fill="#8c9ca0" stroke="none" stroke-width="1" stroke-linecap="round" stroke-linejoin="miter"/><g stroke-linecap="round" stroke-linejoin="miter"><g><path d="M5.00001,227.25001l137.75,9.5l-0.75,38.75l-15.5,2.5l-9.5,3.25l-55.25,-5l-35.25,-4.25l-21.5,-8.25z" fill="#3a2f41" stroke="none" stroke-width="1"/><path d="M111.75001,237.75001l-0.5,41" fill="none" stroke="#3c3143" stroke-width="2"/><path d="M117.50001,278.50001l0.25,-40.75" fill="none" stroke="#3c3143" stroke-width="2"/><path d="M123.50001,267.75001l-0.5,-29.25" fill="none" stroke="#3c3143" stroke-width="2"/><path d="M96.25001,276.75001l1.25,-38.25" fill="none" stroke="#3c3143" stroke-width="2"/><path d="M89.50001,260.50001l0.5,-23.25" fill="none" stroke="#3c3143" stroke-width="2"/><path d="M77.75001,277.25001l-0.25,-17.25" fill="none" stroke="#3c3143" stroke-width="2"/><path d="M70.75001,275.25001l-0.25,-38.75" fill="none" stroke="#3c3143" stroke-width="2"/><path d="M64.00001,275.25001v-26" fill="none" stroke="#42354a" stroke-width="2"/><path d="M59.75001,234.50001l0.25,33.5" fill="none" stroke="#42354a" stroke-width="2"/><path d="M46.75001,271.75001l-0.5,-38.5" fill="none" stroke="#42354a" stroke-width="2"/><path d="M35.75001,272.50001v-17.5" fill="none" stroke="#42354a" stroke-width="2"/><path d="M21.75001,231.75001v28" fill="none" stroke="#42354a" stroke-width="2"/><path d="M135.25,240.75001l0.25,33.25" fill="none" stroke="#3c3143" stroke-width="2"/></g><g stroke="none" stroke-width="1"><path d="M4.75001,226.75001l10.25,1l0.75,41.5l-11,-6z" fill="url(#color-1)"/><path d="M15.25001,228.00001l127.25,6v9.75z" fill="#3a2f41"/></g></g><g stroke-linecap="round" stroke-linejoin="miter"><g><path d="M45.34191,317.63741l97.5782,6.406l-0.5313,26.1295l-10.9798,1.6858l-6.7295,2.1915l-39.1375,-3.3715l-24.9701,-2.8659l-15.23,-5.563z" fill="#3a2f41" stroke="none" stroke-width="0.69155"/><path d="M120.60641,352.36451l0.3541,-27.6468" fill="none" stroke="#3c3143" stroke-width="1.38311"/><path d="M125.03371,352.19591l0.1771,-27.4782" fill="none" stroke="#3c3143" stroke-width="1.38311"/><path d="M128.92971,325.22341l0.3542,19.7236" fill="none" stroke="#3c3143" stroke-width="1.38311"/><path d="M109.98081,351.01581l0.8854,-25.7924" fill="none" stroke="#3c3143" stroke-width="1.38311"/><path d="M105.19931,340.05831l0.3542,-15.6778" fill="none" stroke="#3c3143" stroke-width="1.38311"/><path d="M96.69881,339.72111l0.1771,11.6319" fill="none" stroke="#3c3143" stroke-width="1.38311"/><path d="M91.91731,350.00441l-0.1771,-26.1296" fill="none" stroke="#3c3143" stroke-width="1.38311"/><path d="M87.13581,350.00441v-17.5321" fill="none" stroke="#3c3143" stroke-width="1.38311"/><path d="M84.12521,322.5261l0.1771,22.5895" fill="none" stroke="#3c3143" stroke-width="1.38311"/><path d="M74.56221,321.68331l0.3542,25.961" fill="none" stroke="#42354a" stroke-width="1.38311"/><path d="M67.12431,336.34951v11.8005" fill="none" stroke="#42354a" stroke-width="1.38311"/><path d="M57.20711,339.55251v-18.8807" fill="none" stroke="#42354a" stroke-width="1.38311"/><path d="M137.78441,349.16151l-0.1771,-22.4209" fill="none" stroke="#3c3143" stroke-width="1.38311"/></g><g><path d="M48.25111,343.75881l-41.2471,-15.2603l0.2448,-25.2446l47.9976,14.2582z" fill="#3a2f41" stroke="none" stroke-width="0.63773"/><path d="M21.08281,332.94921l7.1234,-22.6821" fill="none" stroke="#42354a" stroke-width="1.27545"/><path d="M17.80801,331.88331l6.9922,-22.7618" fill="none" stroke="#42354a" stroke-width="1.27545"/><path d="M21.65881,308.59851l-6.5716,18.5991" fill="none" stroke="#42354a" stroke-width="1.27545"/><path d="M36.13411,313.46711l-6.6753,22.4771" fill="none" stroke="#42354a" stroke-width="1.27545"/><path d="M35.94621,329.05541l4.7141,-14.9552" fill="none" stroke="#42354a" stroke-width="1.27545"/><path d="M42.86561,331.027l-2.2969,9.3653" fill="none" stroke="#42354a" stroke-width="1.27545"/><path d="M14.22131,307.69771l-6.6411,20.4966" fill="none" stroke="#42354a" stroke-width="1.27545"/></g></g><path d="M11.50001,303.68241h28v8h-28z" fill="#3a2f41" stroke="none" stroke-width="0.97104" stroke-linecap="butt" stroke-linejoin="miter"/><path d="M34.62761,304.06501l87.4512,13.5847l-2.2641,14.5752l-87.4512,-13.5847z" fill="#3a2f41" stroke="none" stroke-width="1" stroke-linecap="butt" stroke-linejoin="miter"/><path d="M120.25001,319.25001h11v8.5h-11z" fill="#3a2f41" stroke="none" stroke-width="1" stroke-linecap="butt" stroke-linejoin="miter"/><g fill="#3a2f41" stroke="#3a2f41" stroke-linecap="round" stroke-linejoin="round"><path d="M7.75001,294.72931l4.25,-0.3081l-1.75,5.5449l29,5.2369l81.25,5.5448l15,-4.0046l7.75,-0.308v4.9287l-10,0.7702l-15,3.2345l-47.25,-2.7725l-41,-4.1586l-23.75,-6.315z" stroke-width="1.66107"/><path d="M7.75001,285.34861l4.25,-0.3208l0.5,5.6132l26.75,5.6131l81.25,5.7736l15,-4.1698l7.75,-0.3208v5.1321l-10,0.8018l-15,3.3679l-88.75,-5.6131l-16.25,-3.5283l-7,-4.6509z" stroke-width="1.6802"/><path d="M8.50001,302.22931l4.25,-0.3081l-1.75,5.5449l29,5.2369l81.25,5.5448l15,-4.0046l7.75,-0.308v4.9287l-10,0.7702l-15,3.2345l-47.25,-2.7725l-41,-4.1586l-23.75,-6.315z" stroke-width="1.66107"/></g><path d="M142.20001,320.10001l-0.1,6.6l-5.6,1.3l-13.8,7.5l-60,-7.4l-41.6,-9.8l1.2,-4.6l39,8.4l58.4,5.2l16.8,-7.1z" fill="#8c9ca0" stroke="url(#color-2)" stroke-width="2" stroke-linecap="round" stroke-linejoin="round"/></g><g><path d="M479.23381,326.97971h-135.3596v-44h135.3596z" fill="#000000" stroke="none" stroke-width="0.92171" stroke-linecap="butt" stroke-linejoin="miter"/><path d="M472.81161,285.50001l-105.2248,12.5l-11.8563,-6l-11.3623,0.5l1.9761,-21.5l21.2425,6.5l105.2248,-12z" fill="#8c9ca0" stroke="none" stroke-width="0.99403" stroke-linecap="round" stroke-linejoin="miter"/><g stroke-linecap="round" stroke-linejoin="miter"><g><path d="M481.20991,260.75001l-21.2426,8.25l-34.8279,4.25l-54.5885,5l-9.3863,-3.25l-15.3144,-2.5l-0.741,-38.75l136.1007,-9.5z" fill="#3a2f41" stroke="none" stroke-width="0.99403"/><path d="M376.23211,275.75001l-0.4941,-41" fill="none" stroke="#42354a" stroke-width="1.98807"/><path d="M369.80991,234.75001l0.247,40.75" fill="none" stroke="#42354a" stroke-width="1.98807"/><path d="M364.12871,264.75001l0.494,-29.25" fill="none" stroke="#42354a" stroke-width="1.98807"/><path d="M389.81741,235.50001l1.235,38.25" fill="none" stroke="#42354a" stroke-width="1.98807"/><path d="M397.22761,234.25001l0.494,23.25" fill="none" stroke="#42354a" stroke-width="1.98807"/><path d="M409.33091,274.25001l0.247,-17.25" fill="none" stroke="#42354a" stroke-width="1.98807"/><path d="M416.24711,272.25001l0.247,-38.75" fill="none" stroke="#3c3143" stroke-width="1.98807"/><path d="M422.91631,246.25001v26" fill="none" stroke="#3c3143" stroke-width="1.98807"/><path d="M426.86841,265.00001l0.247,-33.5" fill="none" stroke="#3c3143" stroke-width="1.98807"/><path d="M440.45381,230.25001l-0.494,38.5" fill="none" stroke="#3c3143" stroke-width="1.98807"/><path d="M450.82811,269.50001v-17.5" fill="none" stroke="#3c3143" stroke-width="1.98807"/><path d="M464.66041,256.75001v-28" fill="none" stroke="#3c3143" stroke-width="1.98807"/><path d="M352.27241,271.00001l0.247,-33.25" fill="none" stroke="#42354a" stroke-width="1.98807"/></g><g fill="#3a2f41" stroke="none" stroke-width="0.99403"><path d="M481.45691,260.25001l-10.8683,6l0.741,-41.5l10.1273,-1z"/><path d="M345.35621,240.75001v-9.75l125.7264,-6z"/></g></g><g stroke-linecap="round" stroke-linejoin="miter"><g><path d="M441.35051,339.24981l-15.0476,5.563l-24.6711,2.8659l-38.6689,3.3715l-6.649,-2.1915l-10.8483,-1.6858l-0.5249,-26.1295l96.4098,-6.406z" fill="#3a2f41" stroke="none" stroke-width="0.68722"/><path d="M366.98721,349.36451l-0.3499,-27.6468" fill="none" stroke="#42354a" stroke-width="1.37444"/><path d="M362.61291,349.19591l-0.175,-27.4782" fill="none" stroke="#42354a" stroke-width="1.37444"/><path d="M358.76351,322.22341l-0.3499,19.7236" fill="none" stroke="#42354a" stroke-width="1.37444"/><path d="M377.48561,348.01581l-0.8749,-25.7924" fill="none" stroke="#42354a" stroke-width="1.37444"/><path d="M381.85991,321.38051l0.3499,15.6778" fill="none" stroke="#42354a" stroke-width="1.37444"/><path d="M390.60851,336.72111l-0.175,11.6319" fill="none" stroke="#42354a" stroke-width="1.37444"/><path d="M395.33281,347.00441l0.1749,-26.1296" fill="none" stroke="#42354a" stroke-width="1.37444"/><path d="M400.05701,329.47231v17.5321" fill="none" stroke="#42354a" stroke-width="1.37444"/><path d="M403.03161,319.5261l-0.175,22.5895" fill="none" stroke="#42354a" stroke-width="1.37444"/><path d="M412.48011,318.68331l-0.35,25.961" fill="none" stroke="#42354a" stroke-width="1.37444"/><path d="M419.82891,333.34951v11.8005" fill="none" stroke="#42354a" stroke-width="1.37444"/><path d="M429.62741,336.55251v-18.8807" fill="none" stroke="#3c3143" stroke-width="1.37444"/><path d="M350.01491,346.16151l0.175,-22.4209" fill="none" stroke="#42354a" stroke-width="1.37444"/></g><g><path d="M431.50581,314.51211l47.423,-14.2582l0.2419,25.2446l-40.7533,15.2603z" fill="#3a2f41" stroke="none" stroke-width="0.63427"/><path d="M458.22231,307.26711l7.0381,22.6821" fill="none" stroke="#3c3143" stroke-width="1.26854"/><path d="M461.58751,306.12151l6.9085,22.7618" fill="none" stroke="#3c3143" stroke-width="1.26854"/><path d="M464.69131,305.59851l6.4929,18.5991" fill="none" stroke="#3c3143" stroke-width="1.26854"/><path d="M456.98471,332.94421l-6.5954,-22.4771" fill="none" stroke="#3c3143" stroke-width="1.26854"/><path d="M445.91741,311.10021l4.6576,14.9552" fill="none" stroke="#3c3143" stroke-width="1.26854"/><path d="M443.73841,328.027l2.2694,9.3653" fill="none" stroke="#3c3143" stroke-width="1.26854"/><path d="M472.03981,304.69771l6.5615,20.4966" fill="none" stroke="#3c3143" stroke-width="1.26854"/></g></g><path d="M474.78771,308.68241h-27.6647v-8h27.6647z" fill="#000000" stroke="none" stroke-width="0.96489" stroke-linecap="butt" stroke-linejoin="miter"/><path d="M454.12771,315.6402l-86.404,13.5847l-2.237,-14.5752l86.404,-13.5847z" fill="#000000" stroke="none" stroke-width="0.99403" stroke-linecap="butt" stroke-linejoin="miter"/><path d="M367.33981,324.75001h-10.8683v-8.5h10.8683z" fill="#000000" stroke="none" stroke-width="0.99403" stroke-linecap="butt" stroke-linejoin="miter"/><g fill="#3a2f41" stroke="#3a2f41" stroke-linecap="round" stroke-linejoin="round"><path d="M479.97181,299.12251l-23.4656,6.315l-40.5091,4.1586l-46.6842,2.7725l-14.8204,-3.2345l-9.8803,-0.7702v-4.9287l7.6572,0.308l14.8204,4.0046l80.2772,-5.5448l28.6527,-5.2369l-1.729,-5.5449l4.1991,0.3081z" stroke-width="1.64668"/><path d="M479.97181,290.04661l-6.9161,4.6509l-16.0555,3.5283l-87.6873,5.6131l-14.8204,-3.3679l-9.8803,-0.8018v-5.1321l7.6572,0.3208l14.8204,4.1698l80.2772,-5.7736l26.4297,-5.6131l0.494,-5.6132l4.1991,0.3208z" stroke-width="1.66597"/><path d="M479.22181,306.62251l-23.4656,6.315l-40.5091,4.1586l-46.6842,2.7725l-14.8204,-3.2345l-9.8803,-0.7702v-4.9287l7.6572,0.308l14.8204,4.0046l80.2772,-5.5448l28.6527,-5.2369l-1.729,-5.5449l4.1991,0.3081z" stroke-width="1.64668"/></g><path d="M351.28441,317.2l16.5988,7.1l57.7008,-5.2l38.533,-8.4l1.1856,4.6l-41.1019,9.8l-59.2816,7.4l-13.6347,-7.5l-5.533,-1.3l-0.0988,-6.6z" fill="#8c9ca0" stroke="url(#color-3)" stroke-width="1.98807" stroke-linecap="round" stroke-linejoin="round"/></g><path d="M480.00001,219.00001l0.5,8l-104,7l-135.5,2.5c-48,0.1 -112.258,-0.885 -144,-3.5l-96,-8l-1,-2.5l2,-6l478,3z" fill="url(#color-4)" stroke="url(#color-5)" stroke-width="2" stroke-linecap="round" stroke-linejoin="round"/><g stroke="none" stroke-linecap="round" stroke-linejoin="miter"><path d="M421.46111,192.51091c14.5808,0.1842 27.1564,1.3799 40.4994,4.4998c10.5653,2.4642 32.1562,7.3726 32.0346,11.9995c-0.5981,4.6598 -16.0832,10.781 -33.9101,12.2138c-71.3063,5.7341 -143.1125,7.4312 -214.4087,7.8569c-59.5022,0.3085 -118.9243,-2.7114 -178.2644,-5.6527c-22.119,-1.0942 -44.9873,-1.8528 -67.4186,-6.4183c-5.2989,-1.1414 -11.8741,-6.6926 -7.5017,-8.9996c17.4436,-9.2025 36.3379,-14.4895 54.996,-15.4994c66.1586,-3.5813 132.7236,1.2885 198.9997,0.9999c58.2594,0.2886 116.6505,-1.7385 174.9738,-0.9999z" fill="#8c9ca0" stroke-width="1.23862"/><path d="M245.50001,196.50001c61.942,0.466 124.111,-3.914 186,-1.5c16.503,0.644 36.057,5.854 48,12.5c3.977,2.96 -5.398,6.536 -23,7.5c-70.409,3.858 -141.171,5.202 -211.5,5.5c-58.695,0.216 -117.43,-0.763 -175.846,-3.957c-23.055,-1.26 -68.744,-6.932 -68.654,-9.543c0.09,-2.611 46.001,-11.673 69.5,-12.5c58.438,-2.056 117.053,2.3 175.5,2z" fill="#3a2f41" stroke-width="1"/></g><path d="M142.67141,236.00561h202.5001v7h-202.5001z" fill="#8c9ca0" stroke="none" stroke-width="1.31145" stroke-linecap="butt" stroke-linejoin="miter"/><path d="M142.92141,350.00561h202.5001v7h-202.5001z" fill="url(#color-6)" stroke="none" stroke-width="1.31145" stroke-linecap="butt" stroke-linejoin="miter"/><g stroke="none" stroke-linecap="butt" stroke-linejoin="miter"><path d="M142.09428,242.21761h7.5v52h-7.5z" fill="url(#color-7)" stroke-width="0.78149"/><path d="M142.5,292.51701h7.5v57.65h-7.5z" fill="url(#color-8)" stroke-width="0.79756"/></g><g stroke="none" stroke-linecap="butt" stroke-linejoin="miter"><path d="M337.75001,242.71761h7.5v52h-7.5z" fill="url(#color-9)" stroke-width="0.78149"/><path d="M337.75001,293.01701h7.5v57.65h-7.5z" fill="url(#color-10)" stroke-width="0.79756"/></g></g></g></svg>