<svg version="1.1" xmlns="http://www.w3.org/2000/svg" xmlns:xlink="http://www.w3.org/1999/xlink" width="436.78075" height="390.13924" viewBox="0,0,436.78075,390.13924"><defs><linearGradient x1="320.62146" y1="137.91851" x2="293.10596" y2="164.13732" gradientUnits="userSpaceOnUse" id="color-1"><stop offset="0" stop-color="#8c9ca0"/><stop offset="1" stop-color="#3a2f41"/></linearGradient></defs><g transform="translate(-5.525,-14.96354)"><g data-paper-data="{&quot;isPaintingLayer&quot;:true}" fill-rule="nonzero" stroke-linejoin="miter" stroke-miterlimit="10" stroke-dasharray="" stroke-dashoffset="0" style="mix-blend-mode: normal"><path d="M269.42447,189.53711c8.00783,45.11596 55.85671,73.62941 55.1339,73.90298c-3.06547,2.04264 -40.00372,-15.90341 -58.49566,-34.69207c-7.48383,-7.60391 -41.9323,-23.77035 -51.66007,-38.45915c-7.9591,-12.01813 6.84701,-23.04507 14.51662,-27.60042c7.18179,-4.2656 36.2058,2.62589 40.50521,26.84864z" data-paper-data="{&quot;index&quot;:null}" fill="#3a2f41" stroke="#3a2f41" stroke-width="1.5" stroke-linecap="butt"/><path d="M255.28972,151.3053c0.67702,11.77842 -17.16372,18.53052 -35.34819,20.34683c-1.50674,0.1505 -4.86718,-23.0524 -6.34905,-22.97069c-4.02559,0.22198 -6.24181,23.49691 -10.18063,23.17322c-15.00979,-1.23347 -28.02083,-6.52719 -28.60156,-16.63031c-0.83881,-14.59309 12.52874,-27.87084 24.14886,-35.29648c6.51662,-4.16433 14.30163,-6.26693 14.30163,-6.26693c0,0 6.67754,1.07874 12.53025,3.82839c12.12724,5.69747 28.52872,17.36572 29.42977,33.04168z" fill="#3a2f41" stroke="#3a2f41" stroke-width="2" stroke-linecap="butt"/><path d="M207.81234,132.07832c3.24794,5.32904 -12.88239,19.51804 -26.37118,27.40475c-13.48879,7.88672 -32.79282,-1.23242 -34.23342,-7.29381c-0.37569,-0.41435 20.10156,0.08868 32.88164,-15.62222c12.78008,-15.7109 24.47501,-9.81777 27.72297,-4.48874z" fill="#3a2f41" stroke="#3a2f41" stroke-width="1.5" stroke-linecap="butt"/><path d="M210.02938,132.36774c15.22346,11.70918 -3.85551,25.38785 -18.48515,37.80199c-19.88176,16.87085 -54.22155,16.85156 -58.4579,10.55064c-0.66322,-0.34188 30.73191,-11.74607 41.67278,-33.87095c10.94088,-22.12489 28.85545,-19.41566 35.27028,-14.48167z" fill="#3a2f41" stroke="#3a2f41" stroke-width="1.5" stroke-linecap="butt"/><path d="M247.86964,131.78946c14.49974,14.20665 34.78995,11.45563 34.46412,11.90866c-0.73688,6.18145 -18.8739,17.36515 -33.18125,11.01117c-14.30734,-6.35398 -31.96176,-18.68004 -29.34504,-24.33246c2.61673,-5.65242 13.56242,-12.79401 28.06218,1.41265z" data-paper-data="{&quot;index&quot;:null}" fill="#3a2f41" stroke="#3a2f41" stroke-width="1.5" stroke-linecap="butt"/><path d="M254.81565,140.90437c13.40719,20.78231 45.91081,28.66301 45.29095,29.07563c-3.48753,6.72683 -37.60812,10.52114 -59.29757,-4.05741c-15.95983,-10.72738 -36.48577,-22.22217 -22.70033,-35.53095c5.80887,-5.60803 23.29978,-10.26958 36.70697,10.51271z" data-paper-data="{&quot;index&quot;:null}" fill="#3a2f41" stroke="#3a2f41" stroke-width="1.5" stroke-linecap="butt"/><path d="M215.14849,146.7586c6.85056,5.26914 19.82317,17.65928 10.82158,28.82599c-11.00191,13.64816 -45.91088,26.36648 -53.95718,33.19424c-19.88176,16.87085 -57.38287,31.1155 -60.09589,28.78904c-0.66322,-0.34188 48.50996,-24.02581 61.2988,-68.06685c6.86633,-23.64563 35.51785,-27.67643 41.93268,-22.74244z" fill="#3a2f41" stroke="#3a2f41" stroke-width="1.5" stroke-linecap="butt"/><path d="M259.09877,162.65491c17.755,42.35679 69.33156,60.48521 68.7117,60.89784c-2.42927,2.61002 -50.02858,3.60986 -73.94652,-12.25273c-8.77789,-5.90005 -33.99253,-24.44802 -46.48895,-36.80044c-10.22437,-10.10655 1.24639,-23.84456 7.44985,-29.83352c5.80887,-5.60803 34.74125,-4.7525 44.27391,17.98886z" data-paper-data="{&quot;index&quot;:null}" fill="#3a2f41" stroke="#3a2f41" stroke-width="1.5" stroke-linecap="butt"/><path d="M207.97478,160.72573c7.59005,3.87072 22.33888,13.43285 15.18459,25.08789c-8.74411,14.24501 -26.17377,45.69706 -33.06027,53.19655c-32.04693,27.56408 -71.45483,18.95148 -74.49808,17.19671c-0.7086,-0.21904 23.42756,-15.68158 30.89947,-41.26604c31.05981,-23.7723 54.36702,-57.83961 61.47429,-54.21509z" data-paper-data="{&quot;index&quot;:null}" fill="#3a2f41" stroke="#3a2f41" stroke-width="1.5" stroke-linecap="butt"/><path d="M278.96781,216.35691c12.85393,59.77937 76.06171,95.76682 75.14662,96.16165c-3.83119,2.8502 -36.57368,-1.08847 -61.43954,-25.34847c-10.0634,-9.81822 -71.14653,-48.34098 -84.49837,-67.50543c-10.92425,-15.68004 7.51476,-30.99349 17.13148,-37.38474c9.00504,-5.98471 46.75853,1.98145 53.65982,34.07699z" data-paper-data="{&quot;index&quot;:null}" fill="#3a2f41" stroke="#3a2f41" stroke-width="1.5" stroke-linecap="butt"/><path d="M182.74,308.18566c-1.48433,0.37698 -7.67646,-2.85755 -9.06184,-2.0341c-24.17184,14.36742 -58.21601,29.05673 -58.41031,28.39693c28.84634,-39.46104 16.98513,-57.67818 40.15933,-86.32304c7.82588,-6.55624 40.18136,-50.96803 54.93841,-59.17524c12.07397,-6.715 25.71046,44.31014 29.47227,51.83824c3.52253,7.04926 -32.06119,37.47682 -57.09785,67.2972zM136.44753,301.9466c0.20782,-0.01146 3.56952,-4.38672 6.56069,-12.02022c2.26656,-5.7843 3.87383,-14.11374 6.29818,-19.96216c3.50734,-8.46101 6.85454,-14.48847 6.84171,-14.71161c0,0 -5.19155,5.07177 -9.32348,13.81571c-2.59885,5.49965 -3.90368,12.34654 -5.78394,18.72117c-2.21693,7.51599 -4.7787,14.16736 -4.59317,14.15713z" data-paper-data="{&quot;index&quot;:null}" fill="#3a2f41" stroke="#3a2f41" stroke-width="1.5" stroke-linecap="butt"/><path d="M306.17624,291.69856c9.38182,32.14299 -11.06975,79.43821 -14.58674,83.03285c-3.88206,3.96775 -7.09379,-39.65109 -40.56889,-64.81501c-26.78037,-20.13135 -18.1562,-65.33135 -5.23004,-69.07565c12.92617,-3.7443 51.00386,18.71482 60.38567,50.85782zM298.22121,354.9122c3.826,-9.82493 9.276,-44.12603 6.06936,-56.84598c0,0 -0.457,12.4886 -1.91178,25.92684c-1.62864,15.04431 -4.26941,31.20629 -4.15758,30.91914z" fill="#3a2f41" stroke="#3a2f41" stroke-width="1.5" stroke-linecap="butt"/><path d="M271.25068,330.28866c-11.45772,36.09477 -59.4257,72.62513 -65.64411,74.02645c-6.86384,1.54678 7.32063,-44.81526 -11.96199,-88.15329c-15.42626,-34.67079 30.00239,-73.15258 46.49475,-69.26654c16.49235,3.88605 42.56908,47.2986 31.11136,83.39338z" fill="#3a2f41" stroke="#3a2f41" stroke-width="1.5" stroke-linecap="butt"/><path d="M218.96452,320.50113c-17.7512,32.57999 -63.28949,61.61106 -69.17366,61.58758c-1.44293,0.39898 15.89119,-45.1957 7.47597,-91.68626c-6.73224,-37.19285 36.85893,-65.48672 50.89736,-58.02362c14.03843,7.4631 28.55154,55.54231 10.80034,88.12231z" fill="#3a2f41" stroke="#3a2f41" stroke-width="1.5" stroke-linecap="butt"/><path d="M175.37173,123.73287c0.80146,-8.40756 2.86794,-18.89932 5.13806,-28.73033c1.36506,-0.33441 3.57144,-0.87491 4.78663,-1.17259l-0.3885,-1.5331c-0.85685,0.20991 -3.22159,0.78922 -4.07843,0.99911c0.081,-0.34264 0.38063,-1.28047 0.46188,-1.62081c1.14818,-0.28128 2.44124,-0.59804 3.40179,-0.83337l-0.38851,-1.5331c-0.57267,0.14029 -1.84131,0.45108 -2.41397,0.59136c3.40078,-13.94739 13.13527,-35.15554 13.49199,-30.30021c0.35672,4.85532 11.59952,69.66468 11.59952,69.66468c0,0 -30.69546,28.0823 -33.94226,17.40561z" data-paper-data="{&quot;index&quot;:null}" fill="#3a2f41" stroke="#3a2f41" stroke-width="0.5" stroke-linecap="butt"/><path d="M255.51287,142.07188c-2.92548,10.75918 -34.43488,-16.54864 -34.43488,-16.54864c0,0 9.29896,-65.09618 9.51044,-69.96073c0.21148,-4.86456 18.37449,35.43925 21.90971,63.63009z" data-paper-data="{&quot;index&quot;:null}" fill="#3a2f41" stroke="#3a2f41" stroke-width="0.5" stroke-linecap="butt"/><path d="M252.25538,145.08864c0.61145,10.63752 -15.50118,16.7356 -31.92424,18.37597c-1.36079,0.13592 -4.39572,-20.81946 -5.73404,-20.74566c-3.63564,0.20048 -5.63721,21.22091 -9.19449,20.92859c-13.55589,-1.11399 -25.30664,-5.89494 -25.83111,-15.01945c-0.75756,-13.17955 11.31517,-25.17118 21.80972,-31.87754c5.8854,-3.76096 12.91632,-5.65989 12.91632,-5.65989c0,0 6.03074,0.97424 11.31652,3.45755c10.95256,5.1456 25.76534,15.68361 26.57911,29.84114z" fill="#3a2f41" stroke="none" stroke-width="0" stroke-linecap="butt"/><path d="M248.90485,148.34294c0.57269,18.81251 -10.22309,27.19876 -10.22309,27.19876c0,0 1.20798,-16.54653 -1.19871,-30.48901" data-paper-data="{&quot;index&quot;:null}" fill="#3a2f41" stroke="#b8c1c0" stroke-width="2" stroke-linecap="round"/><path d="M245.02173,163.45604c-1.59026,2.83479 2.64483,-24.8033 3.18177,-24.91752c0.68321,-0.14535 2.08119,3.21543 3.1225,7.50648c1.04129,4.29106 -4.03329,17.32755 -3.93041,16.73126c1.87771,-5.32504 2.5595,-11.51268 1.51822,-15.80374c-0.22292,-0.91864 -0.29385,10.06941 -3.89206,16.48353z" data-paper-data="{&quot;index&quot;:null}" fill="#3a2f41" stroke="none" stroke-width="0" stroke-linecap="butt"/><path d="M196.42755,146.33829c-0.60557,11.98116 1.27715,30.92798 1.27715,30.92798c0,0 -11.89626,-6.11451 -15.12866,-27.03724" fill="#3a2f41" stroke="#b8c1c0" stroke-width="2" stroke-linecap="round"/><path d="M182.4545,150.63073c0.24894,4.33089 2.24405,10.00955 3.90275,14.8514c0.18594,0.54278 -5.27485,-10.43112 -5.52379,-14.76202c-0.24894,-4.33089 -0.08787,-7.86179 0.35977,-7.88647c0.3518,-0.0194 8.49855,24.88414 6.94144,22.56643c-3.52317,-5.24416 -5.73347,-15.6965 -5.68018,-14.76933z" fill="#3a2f41" stroke="none" stroke-width="0" stroke-linecap="butt"/><g stroke-linecap="butt"><path d="M241.4034,148.25949c0.29734,5.17296 0.17174,9.8095 -3.79791,13.3781c-3.85887,3.46902 -11.14771,4.99506 -20.40231,5.6811c-9.21117,0.68283 -17.24918,-0.94521 -21.51421,-4.10147c-4.3148,-3.19306 -5.08109,-7.01015 -5.37598,-12.14052c-0.58639,-10.2016 6.44103,-23.58844 27.91103,-24.20796c14.12308,-0.40753 22.593,11.18914 23.17939,21.39075z" fill="#e1e2db" stroke="none" stroke-width="0"/><path d="M242.31783,150.06205c-0.13518,6.1118 -11.13392,2.34693 -22.69857,3.06582c-11.56233,0.71875 -28.73201,7.93929 -29.31839,-2.2623c-0.58639,-10.2016 6.44103,-23.58845 27.91103,-24.20797c14.12308,-0.40753 23.39215,10.98625 23.97853,21.18786z" fill="#b8c1c0" stroke="none" stroke-width="0"/><path d="M222.46131,127.07515c10.1847,1.4399 16.82493,6.55967 18.59532,15.66779c0.44942,2.31215 1.20003,7.11728 0.98393,9.66708c-0.31338,3.69769 -0.27295,5.63737 -2.95505,8.3659c-3.78377,3.8493 -11.46824,5.7811 -21.3374,6.51271c-6.81806,0.50542 -14.67958,-0.371 -18.71565,-2.10667c-6.93296,-2.98144 -8.15151,-7.98591 -8.52214,-14.43382c-0.49773,-8.6592 4.50831,-19.29664 19.15781,-22.7899" fill="none" stroke="#3a2f41" stroke-width="2"/></g><path d="M250.20331,141.49793c-2.43496,1.62991 -3.78215,4.50717 -6.88624,4.80624c-7.77074,0.74865 -16.11473,-1.85815 -20.80259,-6.41367c-6.57992,-5.87955 -5.91894,-17.15838 -3.77338,-19.55006c2.17871,-2.42863 10.5888,-0.16475 17.44414,5.73493z" data-paper-data="{&quot;index&quot;:null}" fill="#3a2f41" stroke="none" stroke-width="0" stroke-linecap="butt"/><path d="M219.91867,122.48026c2.81661,4.10335 -3.32797,15.20633 -12.23056,21.06863c-3.51395,2.31391 -11.02614,4.9488 -12.01835,5.65202c-0.82576,0.58526 -6.37242,2.40709 -5.81378,3.68928c1.55733,3.57436 -3.02402,-4.44159 -4.39507,-6.43899c-2.81661,-4.10335 2.11705,-12.1821 11.01964,-18.0444c8.90259,-5.86228 20.6215,-10.02989 23.43812,-5.92654z" fill="#3a2f41" stroke="none" stroke-width="0" stroke-linecap="butt"/><path d="M226.01244,135.94144c-1.64728,10.1394 -12.2221,19.14497 -23.34589,19.57231c-0.246,-0.004 8.46539,-8.48078 7.84498,-19.2742c-0.41109,-7.15187 4.03917,-12.65669 7.56089,-12.85089c3.46652,-0.19115 7.28553,4.77359 7.77528,11.76565c0.00779,0.11136 0.18274,0.67627 0.16473,0.78717z" data-paper-data="{&quot;index&quot;:null}" fill="#3a2f41" stroke="none" stroke-width="0" stroke-linecap="butt"/><path d="M215.92378,136.67747c-6.52092,11.01618 -20.40222,14.89052 -23.5662,15.60916c-3.16398,0.71864 -2.65134,-2.38338 -2.84045,-3.18207c-0.18911,-0.7987 1.60583,-9.93625 4.76981,-10.65488c3.16398,-0.71863 21.44776,-2.5709 21.63685,-1.77221z" fill="#3a2f41" stroke="none" stroke-width="0" stroke-linecap="butt"/><g stroke="#3a2f41" stroke-linecap="butt"><path d="M192.94619,153.57781c0,0 3.44602,-0.89585 9.41054,-1.13665c6.31943,-0.25513 9.47218,0.53569 9.47218,0.53569c0,0 -3.99575,0.09223 -9.74137,0.29191c-5.10558,0.17744 -9.14135,0.30905 -9.14135,0.30905z" fill="#e1e2db" stroke-width="1"/><g fill="#3a2f41" stroke-width="0.5"><path d="M202.55782,153.09384l0.14021,-0.58311l0.64127,-0.0243l-0.05855,0.64129z"/></g></g><path d="M246.26534,145.01871c0,0 -4.63902,6.51038 -16.19607,2.98527c-6.16957,-1.88183 -9.48714,-9.6969 -9.69184,-13.25825c0,0 3.41492,9.43601 12.14211,11.55279c6.60783,1.60273 11.53955,-0.79746 13.10798,-1.46401c0.331,-0.14067 0.63783,0.1842 0.63783,0.1842z" fill="#3a2f41" stroke="none" stroke-width="0" stroke-linecap="butt"/><path d="M240.57621,200.58335c-0.57798,7.24262 -5.7861,19.16802 -5.7861,19.16802l-32.29271,1.73086c0,0 -11.60712,-16.26971 -9.90981,-29.15668c0.6663,-5.05895 12.34051,-12.66991 18.43783,-13.06538c3.78587,-0.24556 10.45003,-1.61636 16.33639,-0.06526c0,0 8.71594,2.68295 11.1024,6.48464c3.7264,5.93625 2.11199,14.90379 2.11199,14.90379z" fill="#3a2f41" stroke="#8c9ca0" stroke-width="2" stroke-linecap="round"/><g data-paper-data="{&quot;index&quot;:null}"><g stroke-linecap="butt"><path d="M306.88302,161.21872l-38.75704,29.8192l-7.8507,-12.58799l34.34794,-26.8103c0,0 7.70419,-0.6089 8.7264,0.95663z" data-paper-data="{&quot;index&quot;:null}" fill="#e1e2db" stroke="none" stroke-width="0"/><path d="M274.27189,176.89079c1.98645,2.74138 1.39808,8.64483 1.39808,8.64483l-7.26689,5.55215l-8.37906,-12.96251c0,0 4.31162,-3.26475 6.68528,-4.95571c0,0 5.57612,0.97987 7.56257,3.72126z" data-paper-data="{&quot;index&quot;:null}" fill="#8c9ca0" stroke="none" stroke-width="0"/><path d="M268.29553,190.75669l-7.85071,-12.588l36.38938,-28.54019c0,0 4.86639,1.31045 6.15194,3.27929c1.14778,1.75783 3.40847,8.62913 3.40847,8.62913z" data-paper-data="{&quot;index&quot;:null}" fill="none" stroke="#3a2f41" stroke-width="2.5"/></g><g stroke="#8c9ca0" stroke-width="2" stroke-linecap="round"><path d="M238.89245,187.75115l16.4681,-14.30039c0,0 7.6263,0.4236 12.52231,6.44625c4.89599,6.02266 2.95567,12.68155 2.95567,12.68155c0,0 -12.64744,9.5133 -22.49599,14.37075c-8.17175,4.03041 -16.51441,-1.42935 -16.51441,-1.42935" fill="#3a2f41"/><path d="M251.31305,177.64415c0,0 7.1777,0.29117 11.61039,5.71469c4.60254,5.63132 3.31562,11.80601 3.31562,11.80601" fill="none"/></g></g><g data-paper-data="{&quot;index&quot;:null}"><g stroke-linecap="butt"><path d="M122.66845,176.174c0.42595,-1.82053 7.87474,-3.87992 7.87474,-3.87992l41.43998,13.46482l-3.07857,14.51252l-46.61168,-14.78664z" data-paper-data="{&quot;index&quot;:null}" fill="#e1e2db" stroke="none" stroke-width="0"/><path d="M164.13244,182.99393c2.8085,0.77843 7.97597,2.37402 7.97597,2.37402l-3.44722,15.045l-8.72633,-2.7359c0,0 -2.56954,-5.34738 -1.63898,-8.6024c0.93053,-3.25505 5.83656,-6.0807 5.83656,-6.0807z" data-paper-data="{&quot;index&quot;:null}" fill="#8c9ca0" stroke="none" stroke-width="0"/><path d="M122.86062,185.61703c0,0 -0.22243,-7.23022 0.25585,-9.27438c0.53569,-2.28955 4.66174,-5.18348 4.66174,-5.18348l43.94952,14.39334l-3.07857,14.51253z" data-paper-data="{&quot;index&quot;:null}" fill="none" stroke="#3a2f41" stroke-width="2.5"/></g><g stroke="#8c9ca0" stroke-width="2" stroke-linecap="round"><path d="M207.96603,201.48345c0,0 -5.97585,7.98109 -15.03282,6.98449c-10.9154,-1.20111 -26.05171,-5.82197 -26.05171,-5.82197c0,0 -4.09821,-5.59558 -1.55396,-12.92838c2.54424,-7.33279 9.56712,-10.33599 9.56712,-10.33599l20.36238,7.81492" fill="#3a2f41"/><path d="M172.08774,203.50558c0,0 -3.3187,-5.36369 -0.9166,-12.22846c2.31346,-6.61145 8.95996,-9.33692 8.95996,-9.33692" fill="none"/></g></g><g><path d="M222.64701,176.03233c0.14752,1.79859 -4.23267,5.51604 -6.20949,5.67818c-1.97682,0.16214 -6.75799,-2.44944 -6.90552,-4.24803c-0.14752,-1.79859 4.48386,-3.17373 6.46068,-3.33588c1.97682,-0.16214 6.5068,0.10714 6.65432,1.90573z" fill="#3a2f41" stroke="none" stroke-width="0" stroke-linecap="butt"/><g fill="#8c9ca0" stroke="#8c9ca0" stroke-width="1.5" stroke-linecap="butt"><path d="M201.59306,190.30176c-0.73372,-0.60917 7.34273,-13.58767 7.34273,-13.58767l7.20126,4.56962l6.71182,-6.30762c0,0 10.17532,11.54295 9.69819,12.26101c-0.26382,0.39704 -3.62593,-1.04168 -7.73626,-1.93552c-3.78109,-0.82225 -8.34766,-1.09098 -8.34766,-1.09098c0,0 -4.67854,1.61254 -8.47894,3.2631c-3.47493,1.5092 -6.08523,3.08207 -6.39115,2.82807z"/></g><path d="M209.05924,178.18059l0.30734,-1.7265l6.27133,-2.4756l6.79595,0.89577l0.84563,1.66738" fill="none" stroke="#8c9ca0" stroke-width="1.5" stroke-linecap="round"/></g><g fill="#3a2f41"><path d="M232.67802,220.20418l0.06553,8.08314c0,0 1.64324,3.18571 3.37597,7.82795c1.70415,4.56565 2.29786,8.07096 2.29786,8.07096c0,0 -2.84143,2.40038 -6.39082,4.53369c-3.64754,2.19231 -8.04166,4.12068 -10.78664,4.23827c-2.35708,0.10097 -6.5907,-1.11592 -10.16062,-2.4971c-4.30143,-1.66422 -7.78532,-3.55824 -7.78532,-3.55824c0,0 -0.05875,-3.96212 1.09683,-9.48037c0.91842,-4.3857 1.6527,-7.31969 1.6527,-7.31969c0,0 -0.46531,-8.89104 -0.47796,-8.89676" stroke="#8c9ca0" stroke-width="1.5" stroke-linecap="round"/><path d="M236.53975,190.25622c8.10763,8.52897 11.2579,19.16213 11.2579,19.16213c0,0 -6.24763,9.69937 -15.32237,16.08983l-26.27485,1.43511c-14.0353,-6.40277 -17.02683,-13.66307 -17.02683,-13.66307c0,0 1.9537,-10.04981 8.64953,-19.68353" stroke="#8c9ca0" stroke-width="1.5" stroke-linecap="round"/><path d="M206.58089,231.17581l-0.56995,-9.56791l25.85921,-1.54041l0.56995,9.56791z" stroke="none" stroke-width="0" stroke-linecap="butt"/></g><path d="M222.14181,195.17141c0,2.14604 -1.77596,3.88575 -3.96671,3.88575c-2.19075,0 -3.96671,-1.73971 -3.96671,-3.88575c0,-2.14604 1.77596,-3.88576 3.96671,-3.88576c2.19075,0 3.96671,1.73971 3.96671,3.88576z" fill="#8c9ca0" stroke="#3a2f41" stroke-width="1" stroke-linecap="butt"/><path d="M222.30371,205.69533c0,2.14604 -1.77596,3.88575 -3.96671,3.88575c-2.19075,0 -3.96671,-1.73971 -3.96671,-3.88575c0,-2.14604 1.77596,-3.88576 3.96671,-3.88576c2.19075,0 3.96671,1.73972 3.96671,3.88576z" fill="#8c9ca0" stroke="#3a2f41" stroke-width="1" stroke-linecap="butt"/><g fill="#3a2f41"><path d="M63.54434,158.53982l-41.03635,11.88552l24.60333,-18.6024z" stroke-opacity="0.07705" stroke="#ffffff" stroke-width="2" stroke-linecap="round"/><path d="M55.39632,157.97072l-39.71798,9.26366l25.64834,-20.08982z" stroke-opacity="0.08512" stroke="#ffffff" stroke-width="2" stroke-linecap="round"/><path d="M132.3843,174.84398l11.85603,5.9928l-11.08529,-0.01525l18.00928,11.16123l-16.50037,-4.75338l3.89787,4.64721c0,0 -32.12654,-10.626 -40.71625,-12.57409c-5.50617,-1.24876 -9.3198,-1.94463 -9.3198,-1.94463l-17.8397,15.94739l-31.87558,-3.6033l21.46252,-5.93632l5.66104,-10.63585l-27.97845,-15.70691l-28.56207,6.93111l24.81375,-16.77912l21.13185,0.22916l-15.96878,-0.53681l8.61428,-5.47181l26.10937,4.48385l74.00091,32.73978z" stroke-opacity="0.08254" stroke="#ffffff" stroke-width="1.5" stroke-linecap="butt"/></g><g stroke="#3b3045" stroke-width="0.5" stroke-linecap="butt"><path d="M212.43695,164.53763c-5.31894,0.24276 -12.7237,1.96958 -12.7237,1.96958c0,0 -1.12018,-5.86653 2.8855,-9.30336c1.87023,-1.60464 6.7344,-1.88044 9.94038,-2.23498c4.59732,-0.50838 10.52518,-0.59641 13.59106,0.73284c6.70038,2.90506 7.72339,9.24733 7.72339,9.24733c0,0 -15.43373,-0.68438 -21.41662,-0.41129z" fill="#3b3045"/><path d="M206.40422,156.1064l0.67028,4.38007l-5.7864,-1.46617z" data-paper-data="{&quot;index&quot;:null}" fill="#e0dedc"/><path d="M209.99223,160.03763l-3.30924,-4.08741l6.25156,-0.74667z" data-paper-data="{&quot;index&quot;:null}" fill="#e0dedc"/><path d="M215.02661,159.05361l-2.28665,-3.79612l6.2938,-0.48136z" data-paper-data="{&quot;index&quot;:null}" fill="#e0dedc"/><path d="M219.622,158.65423l-0.9796,-3.60623l5.98584,0.43818z" data-paper-data="{&quot;index&quot;:null}" fill="#e0dedc"/><path d="M223.34201,159.07754l1.15283,-3.48312l4.64398,2.20839z" data-paper-data="{&quot;index&quot;:null}" fill="#e0dedc"/></g><g><g stroke-linecap="butt"><path d="M314.1105,138.59214l-6.40881,-5.68826l53.45784,-56.16096l7.91185,8.71642z" fill="#e1e2db" stroke="none" stroke-width="0"/><path d="M331.33484,107.90112l29.82467,-31.15816l7.91186,8.71643l-18.33298,17.72321z" fill="#8c9ca0" stroke="none" stroke-width="0"/><path d="M314.48802,138.45992l-6.40881,-5.68826l53.45784,-56.16096l7.91187,8.71643z" fill="none" stroke="#3a2f41" stroke-width="1.5"/></g><g stroke="#3a2f41" stroke-width="1.5"><path d="M334.20169,110.55377c-7.50814,-2.80119 -7.64886,-10.27355 -7.64886,-10.27355l71.26941,-71.27894l19.24128,-11.96904l-10.80155,21.02988c0,0 -71.61441,72.65798 -72.06029,72.49164z" fill="#e1e2db" stroke-linecap="butt"/><path d="M412.75736,24.50195l-3.50697,0.97706l0.20038,-3.57421l6.42813,-3.73585z" fill="#3a2f41" stroke-linecap="round"/><path d="M343.23688,100.94213c0,0 -5.70045,-3.12396 -7.06437,-10.4364" fill="none" stroke-linecap="round"/><path d="M345.34213,99.04745c0,0 -5.70046,-3.12396 -7.06435,-10.4364" fill="none" stroke-linecap="round"/><path d="M397.02441,30.2783l2.63172,-0.10171l0.11674,5.15486l4.95237,0.74029l-0.32541,3.69927" fill="none" stroke-linecap="round"/></g><path d="M360.37802,95.46708l-19.84954,-10.88995l13.27983,-13.55678l19.4495,11.62501z" fill="#3a2f41" stroke="#3a2f41" stroke-width="1.5" stroke-linecap="butt"/><g><g><path d="M414.03106,74.8831l-2.87649,-3.56786l25.52991,-18.15873z" fill="#e1e2db" stroke="#3a2f41" stroke-width="1.5" stroke-linecap="butt"/><path d="M436.31112,52.67642l5.99463,-4.27676l-5.2014,5.24725z" fill="#16121a" stroke="#16121a" stroke-width="0" stroke-linecap="round"/></g><path d="M326.74226,150.08616l-5.75298,-7.13575l89.81983,-74.14614l4.8467,1.28686l1.3391,8.96285z" fill="#e1e2db" stroke="#3a2f41" stroke-width="1.5" stroke-linecap="butt"/><path d="M403.99725,74.14217l3.76804,1.8102l1.54679,8.21827" fill="none" stroke="#3a2f41" stroke-width="1" stroke-linecap="round"/><path d="M392.35701,83.75763l-0.96201,5.39281l-50.68122,39.93685l-2.22024,-0.74945" fill="none" stroke="#3a2f41" stroke-width="1" stroke-linecap="round"/></g><g stroke-linecap="butt"><path d="M310.01313,126.78562l21.21654,22.2658l-30.27532,23.32244l-16.90424,-17.74021z" fill="#3a2f41" stroke="url(#color-1)" stroke-width="0.5"/><path d="M312.62294,142.12858c1.60457,-0.58908 3.38288,0.23414 3.97195,1.8387c0.58908,1.60457 -0.23412,3.38286 -1.83869,3.97195c-1.60457,0.58908 -3.38287,-0.23413 -3.97195,-1.83869c-0.58908,-1.60457 0.23413,-3.38289 1.83869,-3.97197z" fill="#8c9ca0" stroke="none" stroke-width="0"/></g></g></g></g></svg>