<svg version="1.1" xmlns="http://www.w3.org/2000/svg" xmlns:xlink="http://www.w3.org/1999/xlink" width="426.28258" height="449.32889" viewBox="0,0,426.28258,449.32889"><g transform="translate(-45.11449,23.64242)"><g data-paper-data="{&quot;isPaintingLayer&quot;:true}" fill-rule="nonzero" stroke-linejoin="miter" stroke-miterlimit="10" stroke-dasharray="" stroke-dashoffset="0" style="mix-blend-mode: normal"><g data-paper-data="{&quot;index&quot;:null}" fill="#1a1a1a" stroke="none" stroke-width="0" stroke-linecap="butt"><path d="M246.39777,170.39559c-140.06631,108.21319 -201.28327,-66.64098 -201.28327,-66.64098c0,0 77.99953,123.43806 201.97046,27.27721c3.66692,-2.84433 -0.68718,39.36377 -0.68718,39.36377z"/><path d="M234.30902,143.73455c-170.47508,47.61207 -161.45969,-137.42905 -161.45969,-137.42905c0,0 25.867,143.70727 176.89626,101.2118c4.46729,-1.25697 -15.43656,36.21727 -15.43656,36.21727z"/><path d="M256.39707,182.0642c-70.57329,162.32091 -208.48194,38.61681 -208.48194,38.61681c0,0 127.83375,70.56497 190.11284,-73.43856c1.84215,-4.25947 18.3691,34.82175 18.3691,34.82175z"/></g><g data-paper-data="{&quot;index&quot;:null}" fill="#1a1a1a" stroke="none" stroke-width="0" stroke-linecap="butt"><path d="M270.11379,172.39558c0,0 -4.3541,-42.20809 -0.68718,-39.36376c123.97094,96.16085 201.97046,-27.27721 201.97046,-27.27721c0,0 -61.21697,174.85417 -201.28328,66.64098z"/><path d="M282.20255,145.73457c0,0 -19.90385,-37.47425 -15.43656,-36.21727c151.02926,42.49547 176.89626,-101.2118 176.89626,-101.2118c0,0 9.01539,185.04112 -161.45969,137.42905z"/><path d="M278.48359,149.24245c62.2791,144.00353 190.11284,73.43856 190.11284,73.43856c0,0 -137.90865,123.70409 -208.48194,-38.61681c0,0 16.52695,-39.08122 18.3691,-34.82175z"/></g><g data-paper-data="{&quot;index&quot;:null}" fill="#1a1a1a" stroke-opacity="0.14063" stroke="#ffffff" stroke-width="0.5"><path d="M194.29359,317.89437l32.9363,45.52153l-36.79802,-21.90988z" stroke-linecap="round"/><path d="M194.55084,327.25664l27.97848,46.89237l-37.95099,-25.14445z" stroke-linecap="round"/><path d="M245.85426,129.04981l-24.44144,78.35887l-3.90857,72.57893l21.91818,11.54897l4.88942,42.95488l-15.71605,-23.75009l-14.61009,-2.37168l-11.8129,36.98865l10.38435,37.33643l-30.53753,-31.48366c0,0 0.86628,-11.06847 2.4149,-25.80744c1.54862,-14.73899 -2.02361,19.88155 -2.04062,22.24531l-8.96938,-16.60929l4.86919,-52.80392l17.62315,-79.61937l25.21575,-74.20633l16.16869,-11.71019l8.66481,5.37165z" stroke-linecap="butt"/></g><g stroke-width="0.5" stroke-linecap="round"><path d="M325.7501,66.07283c-6.33936,-4.64051 -12.35342,-10.90844 -12.15037,-9.16596c5.70357,48.94775 17.22369,51.67428 17.22369,51.67428l-33.27541,-8.36272l3.27371,23.79583l-24.93348,-17.57196l-6.97425,17.81865l-9.14983,-16.53519l-8.53394,18.20241l-7.24971,-19.23918l-13.22406,15.33072l-5.38799,-20.14454l-10.98348,10.30648l0.59816,-18.93363c0,0 -7.76096,2.91155 -11.08929,3.79435c-4.2249,1.12059 -12.21805,2.3876 -12.21805,2.3876c0,0 5.53398,-11.88333 7.42833,-20.91795c1.04352,-4.97681 1.69913,-14.09078 2.84317,-21.92538c1.07074,-7.33251 2.66604,-13.56819 2.66604,-13.56819c0,0 -5.83315,5.84824 -9.16743,9.48932c-4.08917,4.46543 -13.56833,15.33846 -13.56833,15.33846c0,0 1.39043,-34.81904 31.35648,-54.05637c7.43631,-4.7739 17.0722,-8.013 28.67115,-10.40197c0.75858,-0.15624 -8.96903,-10.96061 -38.2404,-8.79853c-20.95794,1.54803 -41.19105,12.51036 -41.19105,12.51036c0,0 18.89429,-19.42571 41.92712,-21.78186c28.66315,-2.9321 44.87087,16.76198 45.47838,16.66192c1.39689,-0.23008 2.8305,-0.45594 4.3027,-0.67898c22.24035,-3.36944 36.94795,3.05048 47.32558,11.77386c11.7597,9.88513 17.92347,23.11815 22.53163,35.54786c1.84785,4.98425 3.8539,10.76522 6.29674,14.98596c3.11111,5.37537 6.50027,8.60419 6.50027,8.60419c0,0 -5.79366,-2.26565 -11.08606,-6.13976z" data-paper-data="{&quot;index&quot;:null}" fill="#412d2f" stroke="#412d2f"/><path d="M298.56317,54.902c10.71573,45.27215 32.2602,53.67915 32.2602,53.67915l-33.2754,-8.36272l3.27369,23.79583l-24.93347,-17.57195l-6.97425,17.81866l-9.14983,-16.53519l-8.53394,18.20242l-7.24971,-19.23919l-13.22406,15.33072l-5.38799,-20.14454l-10.98348,10.30648l0.59816,-18.93363c0,0 -7.76095,2.91155 -11.08928,3.79435c-4.2249,1.12059 -12.21805,2.38761 -12.21805,2.38761c0,0 10.42583,-6.49219 17.75033,-18.3657c2.73829,-4.43895 9.07026,-14.56101 9.07026,-14.56101z" data-paper-data="{&quot;index&quot;:null}" fill="#302524" stroke="#302524"/></g><path d="M323.71387,308.79584c0,0 -3.76716,3.28715 -11.70872,7.04985c-0.53458,-1.34593 -1.05186,-2.70779 -1.60946,-4.10376c-1.20203,-3.00932 -2.39695,-5.83364 -3.74079,-8.7544c-1.33877,-2.90976 -1.75605,-6.05996 -1.91282,-9.21684c-0.91456,-2.08634 -0.12846,-6.10231 -1.57242,-8.12023c-0.03631,-0.08547 -0.07524,-0.16892 -0.11696,-0.25015l-0.03458,-0.41805c-0.00852,-0.11789 -0.10685,-0.21087 -0.2269,-0.21087c-0.12505,0 -0.22652,0.10087 -0.2275,0.22568l-0.00416,0.45472l0.04087,0.00038l0.00157,0.01893l0.03821,-0.00316l-0.03045,0.04618c0.01684,0.03409 0.03322,0.06853 0.04913,0.1033c-0.01024,0.80545 0.2282,1.71156 0.50299,2.6005c0.04892,1.50327 -0.15067,3.1215 -0.15067,4.4169c0.00002,3.08551 -0.42948,6.55893 0.18659,9.58918c0.63594,3.11055 0.10737,6.34843 0.65453,9.49333c0.20808,1.18471 -0.0516,2.4692 0.23233,3.64296c0.28134,1.1631 0.86608,2.21902 1.25088,3.32385c-0.55917,0.21323 -1.13162,0.42578 -1.71742,0.63717c-0.59135,-0.5922 -1.14688,-1.08872 -1.64292,-1.9578c-0.22813,-0.3997 -0.50357,-1.46861 -0.89191,-1.70863c-0.69392,-0.42886 -1.19165,0.04349 -1.25712,0.64853c0,1.43513 0,2.87027 0,4.3054c-8.37073,2.66983 -19.04212,4.96905 -32.17108,5.81424c-1.17949,-1.93061 -2.27525,-3.92456 -3.71321,-5.67527c-1.79769,-2.17733 -1.50787,-5.30339 -3.01097,-7.43359c-0.53948,-0.76454 -1.10888,-0.25299 -1.29066,0.36552c-1.65181,2.09073 -1.60435,6.46517 -2.47219,9.07961c-0.44036,1.32664 -0.69608,2.65895 -0.84162,4.00876c-18.30386,-0.04006 -36.44911,-2.89511 -50.25749,-5.81656c-0.04642,-1.23778 -0.1728,-2.50701 -0.51376,-3.45638c-0.68071,-1.89533 -2.35763,0.2887 -2.12697,1.38037c-0.57903,0.01841 -0.62689,0.63622 -1.11847,1.09178c-0.04548,0.04214 -0.09202,0.08661 -0.13948,0.13322c-12.38626,-2.78694 -20.41754,-5.38961 -20.41754,-5.38961c0,0 41.81593,-70.29807 79.57182,-70.29807c37.75588,0 62.38932,64.38302 62.38932,64.38302z" fill="#39383d" stroke="none" stroke-width="0" stroke-linecap="butt"/><g stroke-linecap="butt"><g data-paper-data="{&quot;index&quot;:null}" fill="none" stroke-width="6"><path d="M244.40493,350.42934c-0.09158,-2.16427 2.73878,-2.91659 6.26314,-3.06572c3.52435,-0.14913 6.53376,0.10759 6.63583,2.51997c0.11257,2.66047 -2.8749,2.92237 -6.39926,3.07148c-3.52435,0.14913 -6.39764,-0.11336 -6.49971,-2.52573z" stroke="#37354d"/><path d="M246.33905,352.64302c-1.15294,-0.35118 -1.88356,-1.01863 -1.93412,-2.21368c-0.04537,-1.07215 0.6263,-1.7978 1.74419,-2.27526" stroke="#565378"/><path d="M253.34343,347.36477c2.25263,0.14193 3.88573,0.75263 3.96045,2.51882c0.08241,1.94781 -1.49683,2.60996 -3.73189,2.88344" stroke="#1a1830"/></g><g stroke="none" stroke-width="0"><g><path d="M220.14341,330.86351l5.91505,-83.72067l22.29518,1.82001l0.455,82.35566z" fill="#8c6661"/><g><path d="M161.70499,411.12181l50.96041,-46.51263l38.22031,-2.04506l3.18502,35.29915z" fill="#1a1a1a"/><path d="M194.39867,393.42654l-7.50756,-5.23254l30.25775,-28.89274l4.4671,-53.51561c0,0 8.27011,5.53409 14.29359,7.15918c6.02347,1.62509 12.83306,0.15938 12.83306,0.15938l2.30406,53.70461c0,0 -4.9035,9.65679 -7.60392,10.68307c-10.82444,4.11379 -49.04404,15.93464 -49.04404,15.93464z" fill="#a28b87"/><path d="M220.10614,388.8765l-13.19511,-19.99947l10.01008,-9.57576l19.11016,23.66019z" fill="#1a1a1a"/></g></g><path d="M222.15386,303.86662l0.60667,-10.92009l25.78354,-10.01008v11.52677z" fill="#a28b87"/><path d="M223.3672,288.39649l0.60667,-10.92008l24.5702,-4.24671v11.22342z" fill="#a28b87"/><path d="M224.27721,275.95973l0.60667,-10.92009l23.66019,4.2467l-0.30334,10.61676z" data-paper-data="{&quot;index&quot;:null}" fill="#a28b87"/></g><path d="M211.46127,360.43875v-18.65515h42.77034v18.65515z" fill="#1a1a1a" stroke="none" stroke-width="0"/></g><g stroke="none" stroke-width="0" stroke-linecap="butt"><g><path d="M262.73028,335.67824l-3.81418,-82.25768l21.93508,-3.03445l12.06926,85.54792c0,0 5.40764,34.845 0.36237,35.19025c-2.82159,0.19308 -25.85757,-4.10388 -28.03942,-14.35542c-1.51115,-7.10019 -2.5131,-21.09061 -2.5131,-21.09061z" data-paper-data="{&quot;index&quot;:null}" fill="#8c6661"/><g><path d="M263.65772,398.30758l-0.2529,-32.73429l34.10638,-1.85728l39.33004,61.97046z" data-paper-data="{&quot;index&quot;:null}" fill="#1a1a1a"/><path d="M263.55897,368.17383l-1.2543,-38.3258c1.65945,1.46501 3.56191,2.92717 4.60755,4.76226c1.27364,0.83497 1.34544,-1.93466 1.50259,-3.45924c0.3929,2.90938 4.13491,5.19634 4.64108,0.74774c0.37041,-3.25552 0.49032,-6.16874 1.50478,-9.33645c0.65544,-2.04847 1.50669,-4.1695 2.34879,-6.1687c0.06924,0.4064 0.22296,0.83807 0.28715,1.15517c0.47908,2.3671 1.5451,4.13142 2.64822,6.28191c0.78202,1.23811 1.625,3.42402 2.82254,4.23952c-0.01601,0.67444 0.56572,1.51844 0.84956,2.04591c1.01058,1.8781 1.79472,3.85198 2.88721,5.68946c2.15611,3.24516 1.08153,-9.08373 2.69872,-3.52564c0.46667,0.76788 0.89479,1.7353 1.57853,2.33847c0.62511,0.55145 1.43695,0.82724 2.30974,1.02894l4.46562,28.20392l17.3589,26.81688c0,0 -13.18558,1.3806 -21.05334,7.47632c-1.28026,0.9919 -30.20333,-29.97067 -30.20333,-29.97067z" fill="#a28b87"/><path d="M279.28159,394.33653c-0.7627,1.48431 -10.46118,-5.09799 -9.10007,-10.46508c3.12146,-12.30835 30.03024,-15.69763 30.03024,-15.69763l8.41757,12.2851c0,0 -21.61098,-1.1789 -29.34774,13.87761z" fill="#1a1a1a"/></g></g><path d="M261.33617,304.1353c0,0 8.42629,4.64587 15.04874,5.59005c0.5283,0.07532 -0.20727,0.64648 -6.04712,0.2358c-3.94686,-0.27755 -8.83441,-1.79581 -8.83441,-1.79581z" fill="#854946"/><path d="M289.88321,314.16181l0.57809,3.99683c0,0 -7.02836,-2.81287 -12.23576,-3.34666c0,0 2.13963,-0.74084 5.78706,-0.85001c1.93016,-0.05777 5.87061,0.19984 5.87061,0.19984z" data-paper-data="{&quot;index&quot;:null}" fill="#854946"/><path d="M259.69721,269.44654c0,0 8.2695,3.70499 14.76142,3.85546c0.51788,0.012 -0.20137,0.68487 -5.92498,0.98255c-3.86829,0.20121 -8.66174,-0.74773 -8.66174,-0.74773z" data-paper-data="{&quot;index&quot;:null}" fill="#854946"/></g><g><path d="M282.89662,173.51056l2.53801,12.85748c0,0 24.56138,83.43486 38.72017,124.75415c-1.34609,-1.65729 -2.90243,-3.23637 -4.31206,-4.09903c-1.17482,-0.71337 -2.86008,-2.2845 -3.28581,-3.74594c-0.2924,-1.00374 -0.77981,-2.66564 -1.7921,-3.21119c-0.0006,-0.0105 -0.00119,-0.021 -0.00176,-0.03151l-0.05705,-0.04671l0.02367,-0.01969l-0.27513,-0.3902c-0.0415,-0.06011 -0.10763,-0.099 -0.18213,-0.099c-0.12565,0 -0.2275,0.11062 -0.2275,0.24708c0,0.05165 0.0146,0.0996 0.03956,0.13925l0.24945,0.40917l0.0022,-0.00158c0.033,1.6962 0.5883,3.43477 0.58832,5.09486c0.00013,2.70655 0.25227,5.28722 0.29668,8.0153c-0.24667,-0.03487 -0.49762,-0.07007 -0.75278,-0.10559c-0.00765,-0.05347 -0.02721,-0.09196 -0.02721,-0.09196l-0.14633,-0.28819c-0.41927,-0.81371 -1.2273,-1.53268 -1.8933,-2.12443c-1.32497,-2.74895 -3.72391,-6.06137 -5.68183,-8.31874c-2.10282,-2.41786 -3.86037,-5.58675 -5.48969,-8.3936c-1.44031,-2.98426 -3.56088,-5.81197 -5.52702,-8.43161c-0.75604,-1.00687 -1.64906,-1.93031 -2.31369,-3.01309c-0.93601,-1.52488 -1.07432,-3.45743 -2.10859,-4.88763l0.04925,-0.03665l-0.2553,-0.40465c-0.04077,-0.06655 -0.11045,-0.1104 -0.18955,-0.1104c-0.12565,0 -0.22751,0.11062 -0.22751,0.24706c0,0.00004 0,0.00007 0,0.0001l0.00016,0.49413h0.00001l-0.00001,0.00007c0.00029,0.33127 0.00396,0.66256 0.01102,0.99374c0.0609,2.83878 1.09945,5.44185 1.19511,8.28361c-0.51197,0 -1.02394,0 -1.5359,0c0,0 -0.14666,0 -0.20447,0.12788c-0.66562,-0.06579 -1.19882,-0.23182 -1.95375,-0.61962c-2.4765,-0.53199 -5.13412,-0.35541 -7.70806,-0.33207c-1.38486,-0.03022 -2.54737,-0.65163 -3.98157,-0.66194c-3.12874,-0.1125 -6.19613,-1.31228 -9.39886,-1.31228c-3.17937,0 -6.39058,-0.14022 -9.56592,0.03302c-3.14525,0.172 -6.35802,0.40304 -9.48152,0.95735c-2.03764,0.0034 -4.01767,0.36698 -6.03243,0.55165c0.08391,-1.90233 0.43986,-3.81103 0.43667,-5.76522c0.30814,-1.96481 1.12537,-5.25739 0.56603,-7.41189c0.00184,-0.04846 0.00302,-0.09656 0.0035,-0.14423v-0.24707c0,-0.13646 -0.10186,-0.24708 -0.22751,-0.24708c-0.12564,0 -0.2275,0.11062 -0.2275,0.24708v0.24707c0.00092,0.06533 0.00017,0.13178 -0.00212,0.19919c-0.05051,0.14624 -0.05892,0.35693 -0.0514,0.57649c-0.11517,0.84105 -0.39301,1.75459 -0.61731,2.48168c-0.58097,1.89288 -0.55796,4.18602 -1.3706,5.95113c-0.03298,1.64644 -1.02635,3.27615 -1.13564,4.84075c-0.49254,0.84958 -0.65343,1.86005 -1.20911,2.63801c-0.78889,3.27005 -3.78369,5.62291 -5.15953,8.48184c-1.55291,2.90787 -3.00373,6.02596 -5.3663,8.30144c-0.89712,0.6624 -2.27026,2.54614 -3.22757,4.36491c0.14705,-2.39432 0.2955,-4.78852 0.4532,-7.18205c0.2286,-3.46944 0.42311,-6.89926 0.42572,-10.37814c0.0026,-3.46203 0.10914,-6.90119 0.25791,-10.3593c0.14882,-3.4592 0.02756,-6.90217 0.27898,-10.35883c0.25179,-3.46166 0.76056,-6.92166 0.64885,-10.38555c-0.485,-1.2464 -1.0909,-0.24977 -1.39117,0.58587c-0.92826,2.58337 -1.97615,5.1325 -2.88383,7.75234c-1.60987,2.93131 -2.5976,6.27329 -4.18151,9.2763c-1.57482,2.98575 -3.6384,5.70788 -5.3549,8.60883c-0.39217,1.24171 -1.01568,2.47613 -1.30299,3.73516c-0.10569,0.46321 -0.17602,0.96699 -0.32062,1.41741c-0.08832,0.27514 -0.29355,1.05593 -0.3697,0.77652c-0.23016,-0.84449 0.05565,-2.38305 0.05565,-3.29714c0,-3.44288 0.30333,-6.96034 0.30333,-10.32518c0,-0.67563 0.3689,-4.99443 -0.49752,-5.12793c-0.57718,-0.08895 -0.54969,0.69843 -0.67005,0.98588c-0.55765,1.33171 -1.29867,2.57491 -1.91091,3.89009c-1.40121,3.01619 -3.15621,6.07474 -5.0998,8.70346c-1.69093,2.93802 -3.58197,5.72941 -5.23031,8.70164c-1.64409,2.96458 -3.7868,5.55744 -5.49948,8.47021c-1.71695,2.92003 -3.54142,5.76324 -5.10294,8.78444c-0.06599,0.12768 -0.13281,0.25401 -0.20032,0.37916c-4.37771,0.7301 -6.623,1.16706 -6.52729,0.96551c20.47105,-43.10911 53.01325,-128.49926 53.01325,-128.49926l3.6347,-15.0505zM268.30741,281.81076c1.72246,-0.84379 1.22088,-5.0523 1.19805,-6.65539c-0.41607,-0.90375 -0.70647,-6.98579 -2.88481,-4.81234c-1.47458,1.65441 -0.97664,5.20524 -0.97664,7.33985c0,1.79901 -0.3615,4.04006 1.60134,4.19207c0.24971,0.37538 0.80429,0.40563 1.06205,-0.06419zM273.22238,268.52022c-0.38053,-0.38741 -1.1606,-0.45638 -1.51559,0.13811c-0.71758,1.20173 0.51246,3.08408 1.31858,3.67097c0,0 0.18929,0.13705 0.31549,-0.06853c0.0063,-0.01025 0.0118,-0.02035 0.01659,-0.03025c0.10661,-0.04375 0.12926,-0.16147 0.13407,-0.2095c1.0591,-0.73787 0.15873,-2.5714 -0.26916,-3.5008z" fill="#1a1a1a" stroke="none" stroke-width="0" stroke-linecap="butt"/><path d="M293.36193,214.07924l-26.39021,-21.84018" fill="none" stroke="#4c353b" stroke-width="1.5" stroke-linecap="round"/><path d="M251.89141,206.12428l-18.56104,-18.64617l3.61093,-14.95583l45.95537,0.98829l2.44196,12.38271z" fill="#a28b87" stroke="none" stroke-width="0" stroke-linecap="round"/><path d="M299.58031,237.13276l-90.54573,12.13343" fill="none" stroke="#4c353b" stroke-width="1.5" stroke-linecap="round"/><path d="M232.0881,248.96286v-7.28006h2.12335v7.28006z" fill="#4c353b" stroke="#4c353b" stroke-width="1.5" stroke-linecap="butt"/><path d="M238.15482,248.35617v-7.28006h2.12335v7.28006z" fill="#4c353b" stroke="#4c353b" stroke-width="1.5" stroke-linecap="butt"/><path d="M278.16632,207.10605l4.05816,-6.04406l1.76284,1.18363l-4.05815,6.04406z" fill="#4c353b" stroke="#4c353b" stroke-width="1.5" stroke-linecap="butt"/><path d="M287.93317,262.95923l-11.40479,-38.06519l18.01559,-5.39768l11.40479,38.0652z" fill="#4c353b" stroke="#4c353b" stroke-width="1.5" stroke-linecap="butt"/><path d="M219.30593,230.78752l10.00357,-27.22801l17.68412,6.39988l-10.00357,27.22802z" fill="#4c353b" stroke="#4c353b" stroke-width="1.5" stroke-linecap="butt"/><path d="M228.52391,230.61105l-0.455,-13.04344l9.40341,-8.49341l-0.30334,14.71179z" fill="none" stroke="#1a1a1a" stroke-width="1.5" stroke-linecap="round"/><path d="M228.37224,217.5676l8.19007,5.76339" fill="none" stroke="#1a1a1a" stroke-width="1.5" stroke-linecap="round"/><path d="M296.77446,255.63623l-12.43676,-12.58843l3.48836,-18.20015l10.61675,15.31846z" fill="none" stroke="#1a1a1a" stroke-width="1.5" stroke-linecap="round"/><path d="M284.94436,243.04781l13.04343,-2.88169" fill="none" stroke="#1a1a1a" stroke-width="1.5" stroke-linecap="round"/></g><g stroke="none"><g data-paper-data="{&quot;index&quot;:null}"><g stroke-width="0"><path d="M237.79389,172.66199l-2.26989,-11.3956c0,0 -13.37973,-9.61113 -15.94905,-16.0828c-0.50564,-1.27363 13.15044,-27.831 13.15044,-27.831c0,0 4.58862,-3.60447 7.10831,-4.93338c6.68633,-3.52641 14.30007,-4.8616 21.64587,-4.97354c9.21855,-0.14051 24.49137,8.84542 26.09435,13.05562c3.92309,10.30402 -3.20079,35.32813 -3.20079,35.32813l-1.64578,17.57553l-29.02688,17.53949z" fill="#393840" stroke-linecap="round"/><path d="M288.78925,127.14832c-0.15471,0.99174 -62.2294,26.81171 -62.2294,26.81171l-7.79026,-8.47899l13.18413,-27.89829c0,0 4.98293,-4.50563 11.65367,-7.1645c1.6784,-0.66899 6.55838,-2.85683 8.36154,-3.30439c5.29467,-1.31422 7.64353,-0.10877 10.94631,-0.08781c8.11027,0.05151 23.56396,9.61741 24.88697,13.79026c0.8071,2.54564 0.71115,3.65922 0.98704,6.33202z" fill="#2a292e" stroke-linecap="butt"/></g><g fill="none" stroke-width="1" stroke-linecap="butt" font-family="sans-serif" font-weight="normal" font-size="12" text-anchor="start"/></g><path d="M235.60849,161.49024l-8.4934,-6.97672l60.66715,-14.71178l-2.73003,13.49845z" fill="#a28b87" stroke-width="0" stroke-linecap="butt"/><path d="M218.47001,144.95845l5.46005,-9.55508l64.45886,1.36501c0,0 -0.96047,4.5964 -1.92154,9.3877z" fill="#a28b87" stroke-width="0" stroke-linecap="butt"/><path d="M222.71672,137.37505l5.46005,-11.22342l60.36381,-1.66835l0.30333,8.34174z" fill="#7e6c69" stroke-width="0" stroke-linecap="butt"/><path d="M218.47002,144.95845l5.46005,-9.55508l44.4408,0.9411l-21.73537,9.11005z" fill="#7e6c69" stroke-width="0" stroke-linecap="butt"/></g><g stroke-linecap="butt"><path d="M252.82954,107.1023l0.12807,-14.24831l11.60259,-0.455l-0.39,15.79512l-6.33756,3.18503z" fill="#905e57" stroke="none" stroke-width="0"/><path d="M252.87029,106.42875v-9.7674l12.13343,-6.91606l-0.91001,14.25679z" fill="#1a1a1a" stroke="#1a1a1a" stroke-width="0.5"/></g><g stroke-linecap="butt"><g data-paper-data="{&quot;index&quot;:null}" stroke="none" stroke-width="0"><path d="M214.65958,64.23601c-0.39044,-17.04962 11.12652,-37.42187 32.82557,-38.53759c32.98702,-1.69613 45.45028,19.68654 45.84071,36.73613c0.21713,9.48214 0.11882,18.47881 -1.85613,20.49234c-6.61571,5.09272 -38.825,15.16217 -38.825,15.16217c0,0 -32.7721,-8.41037 -36.28617,-12.60887c-2.21628,-2.64795 -1.501,-12.59874 -1.69898,-21.24417z" fill="#8c6661"/><path d="M214.56857,64.05402c-0.39044,-17.04962 11.12651,-37.42187 32.82556,-38.53759c20.78082,-1.06851 34.02322,7.44103 40.62668,18.37198c3.87872,6.4206 5.06956,13.8753 5.21404,20.18416c0.31578,13.78958 12.17869,10.41563 -4.67639,8.88662c-20.05929,11.21031 -73.86336,2.82229 -73.86336,2.82229c0,0 -0.09227,-10.23171 -0.12652,-11.72746z" fill="#1a1a1a"/></g><path d="M294.1049,83.00695l0.82409,-19.2283l5.24263,-7.76857l9.70675,8.4934l-6.37005,16.38013z" fill="#8c6661" stroke="none" stroke-width="0"/><path d="M300.28967,59.29724c-4.40382,5.16147 -24.41035,1.319 -36.4538,-8.95659c-12.04343,-10.2756 -11.56318,-23.09314 -7.15936,-28.25461c4.40382,-5.16147 17.73697,-1.01566 29.78041,9.25994c12.04343,10.27559 18.23656,22.78981 13.83274,27.95128z" fill="#412d2f" stroke="#412d2f" stroke-width="0.5"/><path d="M235.698,47.51669c-6.85763,-12.4844 -5.61534,-24.26686 -5.61534,-24.26686c0,0 27.01874,-12.79405 26.57933,-10.61676c-7.01113,34.74057 10.10764,52.47709 10.10764,52.47709c0,0 -21.21914,-2.98572 -31.07162,-17.59347z" data-paper-data="{&quot;index&quot;:null}" fill="#412d2f" stroke="#412d2f" stroke-width="0.5"/><path d="M206.76087,55.96054c-3.62269,-5.16147 1.47192,-17.67569 11.37915,-27.95128c9.90723,-10.27559 20.87539,-14.4214 24.49809,-9.25993c3.62269,5.16147 4.01776,17.97903 -5.88946,28.25463c-9.90724,10.27559 -26.3651,14.11807 -29.98779,8.9566z" data-paper-data="{&quot;index&quot;:null}" fill="#412d2f" stroke="#412d2f" stroke-width="0.5"/><path d="M283.65358,57.43424c0,0 -6.30318,-1.61404 -12.8495,-5.85537c-6.84945,-4.43773 -11.35824,-11.10391 -11.35824,-11.10391c0,0 5.93958,5.75349 12.2074,9.69834c6.60681,4.15819 12.00034,7.26094 12.00034,7.26094z" fill="#1a1a1a" stroke="none" stroke-width="0"/><path d="M287.8865,86.14382l-21.23351,7.35589l0.80342,-5.73034l-10.88933,-4.81057l10.31031,-5.87729c0,0 9.03489,-6.25614 11.6057,-6.25614c4.69078,0 9.40341,15.31846 9.40341,15.31846z" fill="#6b3e3d" stroke="none" stroke-width="0"/><path d="M281.06145,97.87042c0,0 4.15632,-36.07908 0,-50.96041c-5.3499,-19.15488 21.6374,-7.59912 22.44685,-0.30333c1.04981,9.46229 -4.86159,32.73268 -5.88154,35.49824c-2.3474,6.36491 -16.56531,15.7655 -16.56531,15.7655z" fill="#412d2f" stroke="#412d2f" stroke-width="0.5"/></g><g data-paper-data="{&quot;index&quot;:null}" fill="none" stroke="#aa938d" stroke-width="2.5" stroke-linecap="round"><path d="M218.43846,17.60903c1.73038,-0.05525 7.11683,2.51197 7.11683,2.51197c0,0 7.2125,-11.56818 13.51832,-16.99374c2.57002,-2.21123 5.25631,1.29026 5.41424,1.70346c0.40094,1.04901 1.65377,5.68764 -3.58925,5.79986c-0.97917,0.02094 0.92215,0.10217 2.34487,-1.1303c0.55175,-0.47797 1.00442,-1.35613 1.2296,-2.20985c0.50249,-1.90512 -2.10773,-4.54101 -3.69003,-4.17639c-3.08462,0.71081 -4.93116,5.40807 -4.32459,8.53972c0.60657,3.13164 6.23509,4.79115 6.23509,4.79115l11.24995,-2.07339c0,0 -7.40229,-11.70721 -8.19215,-16.25244c-0.78188,-4.4993 10.43292,-19.58555 10.43292,-19.58555c0,0 10.95024,16.56478 10.9101,19.77947c-0.04375,3.50177 -11.0894,15.94542 -11.0894,15.94542c0,0 3.4991,1.75129 7.15195,2.13754c3.27762,0.34657 6.63915,0.87994 8.13763,-0.30833c1.6907,-1.34068 6.05127,-8.17616 2.61517,-11.6677c-2.58828,-2.63006 -8.77866,1.58798 -8.09276,3.98545c0.41785,1.4605 0.95463,2.67169 3.93642,1.23034c1.35632,-0.65563 -2.96627,1.27802 -3.10337,-1.4985c-0.22523,-4.56155 6.82872,-5.47746 8.43656,-4.2539c4.9767,3.78728 10.98819,17.51204 10.98819,17.51204c0,0 10.3986,-2.78582 12.0446,-1.20212c3.46929,3.33804 9.88016,13.03086 9.88016,13.03086c0,0 -9.38179,-7.98038 -25.62252,-12.86258c-18.9573,-5.69882 -48.16723,-7.21032 -76.40281,8.61752z"/><path d="M287.65957,16.31764c0,0 -1.27011,-0.5351 -1.59385,-2.38909c-0.2418,-1.3848 0.09533,-2.94086 1.40136,-3.17597c3.89528,-0.7012 7.59717,9.6971 1.17964,9.77632"/><path d="M222.42587,18.5946c-5.27405,-0.73987 -2.82396,-10.58758 1.07578,-10.06816c1.30754,0.17416 1.65606,1.71425 1.42445,3.11009c-0.31008,1.86879 -1.57605,2.46299 -1.57605,2.46299" data-paper-data="{&quot;index&quot;:null}"/><path d="M254.2093,13.37268c0,0 -1.88655,-7.3174 -2.65936,-11.95915c-0.51574,-3.09755 3.82125,-11.03507 3.82125,-11.03507c0,0 3.66357,9.32116 3.54666,11.32846c-0.23467,4.02935 -4.70858,11.66577 -4.70858,11.66577z"/></g><g data-paper-data="{&quot;index&quot;:null}"><path d="M260.97104,97.20842c14.43107,6.72199 18.84547,25.62237 14.16851,35.77627c-3.63126,7.88363 -13.82728,8.14538 -22.13944,8.35863c-30.01683,0.77013 -18.32776,-33.7748 5.99159,-43.39796" fill="none" stroke="#1a1a1a" stroke-width="2" stroke-linecap="round"/><g><g><path d="M232.8233,164.96598l17.97266,-24.60095l13.7557,26.19968z" fill="#c53939" stroke="none" stroke-width="0" stroke-linecap="butt"/><path d="M250.59986,166.35086l8.06403,-11.50562l5.88621,11.82059z" fill-opacity="0.77419" fill="#6b1a1e" stroke="none" stroke-width="0" stroke-linecap="butt"/><path d="M232.42199,164.7576l18.32119,-24.90858l4.15703,7.73636l-7.85744,-0.08884l-9.83654,15.2108l11.39951,1.79273l-4.76255,0.63487z" fill-opacity="0.43548" fill="#ffffff" stroke="none" stroke-width="0" stroke-linecap="butt"/><path d="M264.71731,166.47879l-13.92641,-26.6068" fill="none" stroke="#1a1a1a" stroke-width="2" stroke-linecap="round"/><path d="M232.63645,164.56704l18.15444,-24.69504" fill="none" stroke="#1a1a1a" stroke-width="2" stroke-linecap="round"/><path d="M264.48983,166.47531l-32.05654,-1.62906" fill="none" stroke="#1a1a1a" stroke-width="2" stroke-linecap="round"/></g><path d="M255.72819,146.64748l-10.93343,-0.45056" fill="none" stroke="#1a1a1a" stroke-width="2" stroke-linecap="round"/><path d="M245.03726,143.57145l10.93343,0.45055" fill="none" stroke="#1a1a1a" stroke-width="2" stroke-linecap="round"/></g></g><g data-paper-data="{&quot;index&quot;:null}"><path d="M258.8148,77.44952c-2.52348,-1.07549 -5.6633,-3.59122 -5.6633,-3.59122l32.15128,-4.42771c0,0 -0.46547,2.23175 -5.36012,5.17477c-1.17124,0.70423 -5.22691,2.4923 -9.67119,3.18192c-4.73827,0.73525 -9.88831,0.33066 -11.45668,-0.33775z" fill="#c32c2c" stroke="none" stroke-width="0" stroke-linecap="butt"/><path d="M252.98057,73.69155l32.12658,-4.49224" fill="none" stroke="#1a1a1a" stroke-width="1" stroke-linecap="round"/><path d="M258.59019,77.30274c0,0 5.32378,1.36524 11.9315,0.17597c6.23147,-1.12155 10.81562,-3.5779 10.81562,-3.5779c0,0 -2.90989,2.69365 -10.81218,4.28636c-7.34764,1.48093 -11.93492,-0.88442 -11.93492,-0.88442z" fill="#1a1a1a" stroke="#000000" stroke-width="0" stroke-linecap="round"/></g><path d="M272.4205,73.0137l-0.04702,-2.09454l0.05954,1.95367" data-paper-data="{&quot;index&quot;:null}" fill="none" stroke="#1a1a1a" stroke-width="2" stroke-linecap="round"/><g fill="#1a1a1a" stroke="none" stroke-width="0" stroke-linecap="butt"><path d="M291.77464,69.69141l0.17437,-25.0252l12.03103,14.56012z"/><path d="M303.45693,59.22633l12.03103,-14.56012l0.17437,25.0252z" data-paper-data="{&quot;index&quot;:null}"/></g><g fill="#1a1a1a" stroke-opacity="0.14063" stroke="#ffffff" stroke-width="0.5"><path d="M331.78963,336.95598l-36.79802,21.90988l32.9363,-45.52152z" stroke-linecap="round"/><path d="M337.64317,344.45452l-37.95099,25.14446l27.97848,-46.89238z" stroke-linecap="round"/><path d="M276.25536,113.52149l8.66481,-5.37165l16.16869,11.71019l25.21575,74.20633l17.62315,79.61937l4.8692,52.80392l-8.96938,16.60929c-0.01701,-2.36376 -3.58923,-36.9843 -2.04062,-22.24531c1.54861,14.73897 2.4149,25.80744 2.4149,25.80744l-30.53754,31.48366l10.38436,-37.33644l-11.8129,-36.98865l-14.61009,2.37168l-15.71605,23.75009l4.88942,-42.95488l21.91818,-11.54897l-3.90856,-72.57893l-24.44144,-78.35886z" stroke-linecap="butt"/></g></g></g></svg>