<svg version="1.1" xmlns="http://www.w3.org/2000/svg" xmlns:xlink="http://www.w3.org/1999/xlink" width="335.22475" height="265.53137" viewBox="0,0,335.22475,265.53137"><defs><linearGradient x1="143.8767" y1="56.42034" x2="198.93348" y2="111.97039" gradientUnits="userSpaceOnUse" id="color-1"><stop offset="0" stop-color="#cedee0" stop-opacity="0"/><stop offset="1" stop-color="#cedee0" stop-opacity="0.19676"/></linearGradient><linearGradient x1="300.4525" y1="200.1464" x2="429.32016" y2="219.55498" gradientUnits="userSpaceOnUse" id="color-2"><stop offset="0" stop-color="#ffffff" stop-opacity="0.26046"/><stop offset="1" stop-color="#ffffff" stop-opacity="0"/></linearGradient><linearGradient x1="279.44191" y1="236.713" x2="409.67554" y2="231.94234" gradientUnits="userSpaceOnUse" id="color-3"><stop offset="0" stop-color="#ffffff" stop-opacity="0.26046"/><stop offset="1" stop-color="#ffffff" stop-opacity="0"/></linearGradient></defs><g transform="translate(-96.78174,1.53272)"><g data-paper-data="{&quot;isPaintingLayer&quot;:true}" fill-rule="nonzero" stroke-linejoin="miter" stroke-miterlimit="10" stroke-dasharray="" stroke-dashoffset="0" style="mix-blend-mode: normal"><g data-paper-data="{&quot;index&quot;:null}" stroke="#3a2f41" stroke-width="2" stroke-linecap="butt"><path d="M105.39382,108.25913l-5.95833,-11.45521l8.99646,-1.46056l-10.14784,-2.39304l-0.46083,-23.32961c0,0 13.3419,10.50986 28.36776,17.33111c4.05809,0.85437 1.52394,11.0007 1.52394,11.0007z" fill="#3a2f41"/><path d="M129.83752,92.15c-2.42593,0.28077 -12.04934,-15.76303 -12.49405,-20.77358c-0.17988,-2.02667 19.48881,-0.41462 19.71749,2.16189c0.4447,5.01054 -3.6262,18.19535 -6.0521,18.47613z" data-paper-data="{&quot;index&quot;:null}" fill="#8c9ca0"/><path d="M130.50687,91.75117c2.3949,0.1454 5.7072,15.1524 4.91588,19.86201c-0.40692,2.42177 -20.27304,2.01356 -19.95296,0.10861c0.79132,-4.7096 11.48582,-20.18623 13.88072,-20.04082z" fill="#e1e2db"/><path d="M131.04866,86.32271c2.91451,0.7884 4.67262,3.66249 3.92683,6.41947c-0.74577,2.75697 -3.71306,4.35282 -6.62757,3.56441c-2.91451,-0.7884 -4.67261,-3.66249 -3.92682,-6.41947c0.74577,-2.75697 3.71305,-4.35282 6.62756,-3.56441z" fill="#e1e2db"/></g><path d="M225.76877,78.2553l-14.53932,11.5283l-7.04392,-7.05142c0,0 6.26103,8.04542 5.89227,8.25292c-4.0005,3.3766 -7.90536,6.77475 -11.60346,10.06133c-15.53569,13.80689 -27.42254,25.64483 -27.42254,25.64483c0,0 -12.59964,-3.58976 -20.12948,-11.18707c-5.26198,-5.30913 -15.04215,-16.40669 -15.63463,-32.00901c-0.47785,-12.58334 8.10733,-25.15017 10.22015,-27.4216c1.68942,-1.81626 11.83095,-6.45665 20.3514,-6.67373c14.18299,-0.36131 37.83592,7.06368 37.83592,7.06368z" fill="#3a2f41" stroke="none" stroke-width="0" stroke-linecap="butt"/><g stroke-linecap="butt"><path d="M197.98547,65.98374c4.66215,4.70391 9.89817,7.83322 9.54692,14.20037c-0.34145,6.18949 -6.66201,14.47383 -13.98574,22.04827c-7.28935,7.53891 -16.43524,13.26231 -22.76939,13.4462c-6.40804,0.18608 -9.42564,-4.13844 -14.04938,-8.80363c-9.1942,-9.27658 -14.59642,-27.28055 3.2224,-43.92704c11.72132,-10.95016 28.84101,-6.24078 38.03522,3.03581z" fill="#e1e2db" stroke="none" stroke-width="0"/><path d="M197.98547,65.98374c9.1942,9.27658 -5.00665,11.78634 -14.27639,21.11967c-9.26788,9.33146 -17.78702,29.04815 -26.98122,19.77157c-9.1942,-9.27658 -14.59642,-27.28055 3.2224,-43.92704c11.72132,-10.95016 28.84101,-6.24078 38.03522,3.03581z" fill="#b8c1c0" stroke="none" stroke-width="0"/><path d="M163.57299,60.14809c11.40689,-7.17428 26.4684,-3.59835 34.75342,4.76091l0.3684,0.37171c4.36119,4.40026 8.65397,8.35138 8.69618,14.21272c0.04676,6.49546 -5.76824,14.39786 -13.5783,22.4753c-5.39555,5.58025 -13.05393,11.19741 -17.9819,12.56291c-8.465,2.3456 -13.29171,-1.79343 -19.10289,-7.65669c-7.80412,-7.87403 -12.8762,-22.03596 -3.33448,-36.31839" fill="none" stroke="#3a2f41" stroke-width="2"/></g><path d="M160.82728,132.18748l-11.20614,1.35359c0,0 -17.73129,-14.85812 -21.12327,-32.57546c-4.37509,-22.8525 6.60752,-44.29198 26.5676,-56.24914c4.27591,-2.56149 15.81694,-8.25445 26.69479,-7.44944c13.06741,0.96706 24.02497,7.81016 24.02497,7.81016l-3.94346,2.84616l7.64958,6.4114c0,0 -2.34982,1.37991 -2.51064,1.24201c-3.60333,-3.09021 -7.60563,-5.73687 -7.60563,-5.73687c0,0 3.22625,2.20821 6.88422,6.57244c-2.31948,1.5736 -14.34881,11.22168 -14.34881,11.22168l-4.48381,-1.56096l2.54935,3.09689l-10.32548,8.50603l-11.5844,-9.67125l10.14889,10.53286c0,0 -8.54442,8.31232 -12.48985,12.52059c-0.27829,0.29683 -5.82615,-3.10887 -5.82615,-3.10887c0,0 4.54297,4.78972 4.33095,5.00728c-2.50615,2.57148 -5.56527,6.51413 -5.56527,6.51413c0,0 23.52549,23.64272 23.4427,23.74602c-1.28782,1.60692 -18.10133,9.32125 -19.04834,8.32459c-1.36806,-1.43982 -10.12251,-8.49576 -10.12251,-8.49576z" fill="#3a2f41" stroke="url(#color-1)" stroke-width="0.5" stroke-linecap="butt"/><path d="M156.19454,58.64306c-11.33548,-31.05486 0.11127,-58.05323 0.11127,-58.05323l30.13892,46.4" fill="#3a2f41" stroke="#3a2f41" stroke-width="2" stroke-linecap="round"/><path d="M132.654,110.75682c-24.05462,-40.11515 -21.54983,-81.5888 -21.54983,-81.5888l38.52108,31.09191" fill="#3a2f41" stroke="#3a2f41" stroke-width="2" stroke-linecap="round"/><g stroke-width="1" stroke-linecap="butt"><path d="M164.69055,107.69209c0,0 2.57965,-2.77449 7.88333,-7.9691c5.61928,-5.50369 9.54886,-7.8847 9.54886,-7.8847c0,0 -3.82769,3.22678 -9.0651,8.11238c-4.65399,4.34136 -8.36709,7.74142 -8.36709,7.74142z" fill="#e1e2db" stroke="#3a2f41"/><g fill="none" stroke="none" font-family="sans-serif" font-weight="normal" font-size="12" text-anchor="start"/></g><path d="M353.11151,191.08742c3.86152,3.73741 -7.3211,21.04526 -26.40271,40.77242c-19.08161,19.72718 -38.93546,35.07176 -42.79697,31.33435c-3.86152,-3.73741 8.57287,-22.85426 27.65447,-42.58142c19.08161,-19.72718 37.68369,-33.26276 41.54521,-29.52535z" fill="#3a2f41" stroke="none" stroke-width="0" stroke-linecap="butt"/><path d="M297.8682,217.30545l14.64689,-32.8906l117.6539,29.50395z" fill="#3a2f41" stroke="url(#color-2)" stroke-width="0.5" stroke-linecap="butt"/><path d="M409.74384,233.80696l-120.08796,19.8961l-10.8492,-34.33098z" data-paper-data="{&quot;index&quot;:null}" fill="#3a2f41" stroke="url(#color-3)" stroke-width="0.5" stroke-linecap="butt"/><g><path d="M283.78377,261.32852c0,0 -19.72471,-24.08017 -28.24232,-36.45148c-10.64424,-16.57182 -29.92695,-54.11116 -29.92695,-54.11116l32.75631,-33.49091c0,0 11.85941,4.65087 19.32945,7.51681c2.23578,0.85778 4.07836,1.55565 5.09209,1.92109c16.10036,9.34224 68.32447,44.37799 68.32447,44.37799c0,0 -12.02468,4.14683 -29.18418,21.39542c-25.57416,25.70693 -38.14888,48.84224 -38.14888,48.84224z" fill="#e1e2db" stroke="none" stroke-width="0" stroke-linecap="round"/><path d="M262.78558,235.65756c0,0 -22.6638,-30.56568 -27.9725,-39.02166c-7.60965,-12.12102 -9.95403,-31.22789 -9.95403,-31.22789l29.03746,-30.05364c0,0 11.37912,3.59509 15.5066,5.23119c2.86187,1.13442 6.88304,3.64393 6.88304,3.64393z" fill="#8c9ca0" stroke="none" stroke-width="0" stroke-linecap="butt"/><path d="M253.98238,135.91411c0,0 10.76716,1.55453 27.16756,10.64357c14.82419,8.21551 70.15906,44.34312 70.15906,44.34312c0,0 -12.2168,4.33693 -29.3763,21.58552c-25.57416,25.70693 -38.1509,49.22446 -38.1509,49.22446c0,0 -35.32795,-45.49383 -48.85992,-67.04796c-6.842,-10.89814 -10.04361,-29.25198 -10.04361,-29.25198z" fill="none" stroke="#3a2f41" stroke-width="2.5" stroke-linecap="round"/><path d="M261.30143,138.11659l-7.01101,21.74192l-26.9671,13.30975" fill="none" stroke="#3a2f41" stroke-width="1.5" stroke-linecap="round"/></g><path d="M247.08905,156.05184c-6.37068,6.34457 -23.57821,9.81756 -23.57821,9.81756c0,0 -2.67488,-4.41284 -3.91816,-7.00274c-1.13258,-2.35931 -3.60068,-7.55303 -3.60068,-7.55303c0,0 -2.30591,-3.11049 -6.73048,-4.42566c-2.77208,-0.82397 -15.46341,-2.69462 -15.72289,-2.93553c-0.04988,-0.04631 -1.91148,-3.33445 -3.46826,-7.2605c-1.80699,-4.55707 -1.91207,-14.6978 -0.84119,-18.1677c1.16667,-3.78027 3.93326,-7.71394 6.57974,-10.19772c4.04453,-3.7959 8.87665,-7.06876 14.35599,-8.66577c2.06485,-0.60182 6.44699,-1.05517 6.44699,-1.05517c0,0 9.48698,1.3009 17.7442,6.16889c4.41539,9.60318 1.50386,18.25555 1.50386,18.25555l4.04436,5.50777c0,0 4.91675,2.13399 7.22521,3.34053c2.30072,1.20248 6.60239,3.88655 6.60239,3.88655c0,0 -0.27218,13.9424 -6.64287,20.28697z" fill="#3a2f41" stroke="#8c9ca0" stroke-width="2" stroke-linecap="round"/><g data-paper-data="{&quot;index&quot;:null}" stroke="#3a2f41"><g data-paper-data="{&quot;index&quot;:null}"><g><path d="M332.12164,122.70582l-5.28923,-25.87248l92.7869,-18.52796l-23.39503,31.18649z" fill="#e1e2db" stroke-width="0" stroke-linecap="butt"/><path d="M332.12164,122.70582l-5.28923,-25.87248l39.14233,-8.06869l-15.13286,30.08221z" fill="#8c9ca0" stroke-width="0" stroke-linecap="butt"/><path d="M358.05079,90.4893l-7.33388,27.74583" fill="none" stroke-width="1.5" stroke-linecap="round"/><path d="M368.30258,114.61008l9.39084,-27.80548" fill="none" stroke-width="1.5" stroke-linecap="round"/><path d="M385.67615,111.39311l11.72918,-29.38058" fill="none" stroke-width="1.5" stroke-linecap="round"/><path d="M328.34493,104.23166l-1.51247,-7.39829l92.46664,-19.06081l-23.07477,31.71934l-64.10264,13.21392l-0.68945,-3.37243" fill="none" stroke-width="2" stroke-linecap="butt"/></g><path d="M305.32566,133.33053l-7.29055,-35.66205l44.24783,-9.12113l7.29056,35.66205z" fill="#e1e2db" stroke-width="0" stroke-linecap="butt"/><path d="M305.32564,133.33054l-7.29055,-35.66206l25.5276,-5.26218l-10.29512,39.2871z" fill="#8c9ca0" stroke-width="0" stroke-linecap="butt"/><path d="M310.57838,124.32301l-4.28857,-20.97767l28.64764,-5.90533l4.28858,20.97767z" fill="none" stroke-width="1.5" stroke-linecap="butt"/><path d="M320.18819,100.48038l-9.60979,23.84263" fill="none" stroke-width="1.5" stroke-linecap="round"/><path d="M335.08047,98.13923l-9.82423,22.79376" fill="none" stroke-width="1.5" stroke-linecap="round"/><path d="M300.67387,109.23147l-2.37038,-11.59481l44.24783,-9.12113l7.29056,35.66206l-44.24785,9.12112l-2.01188,-9.84113" fill="none" stroke-width="2" stroke-linecap="butt"/></g><g data-paper-data="{&quot;index&quot;:null}" stroke-width="2" stroke-linecap="butt"><path d="M322.83961,131.44311l-38.62126,7.79869c0,0 -40.14188,-13.96883 -53.16561,-18.85519c-7.17249,-2.69105 -18.52626,-8.04283 -18.52626,-8.04283l13.18402,-9.18711l41.28037,5.47263l48.62043,-16.43152z" fill="#3a2f41"/><path d="M315.94916,132.83542l-2.16908,0.26796l-8.70397,-37.18846l2.05159,-0.51457z" fill="#8ea8ab"/></g></g><g stroke="#3a2f41" stroke-width="2"><g fill="#e1e2db"><path d="M316.59257,157.04283l14.49125,-26.81587l-0.56887,27.50707z" stroke-linecap="round"/><path d="M321.99599,156.28147l21.07103,-22.02496l-7.82791,26.37587z" stroke-linecap="round"/><path d="M255.5786,164.66705l2.88782,-3.72153l-11.91768,-2.46942l8.52475,-3.38109l-2.62033,-3.39902c0,0 22.50657,-1.05935 29.3765,-1.85564c4.40377,-0.51043 7.4098,-0.98917 7.4098,-0.98917l9.0561,-16.46218l24.54854,-5.6405c0,0 -19.97936,14.2213 -16.15824,18.04592c0.93653,0.9374 25.20595,5.63928 25.20595,5.63928l20.93634,-8.45424l-16.22966,19.73889c0,0 -6.68092,0.82148 -15.31523,0.88904c-8.63431,0.06756 11.85887,-0.72793 13.22848,-0.87271l-9.02908,6.27921c0,0 -13.25384,-0.59091 -17.80923,-0.50688c-13.29113,0.24515 -52.09488,-2.83997 -52.09488,-2.83997z" stroke-linecap="butt"/></g><g stroke-linecap="butt"><path d="M291.46908,174.22942l-39.38778,1.0123c0,0 -37.12666,-20.69082 -49.11095,-27.75275c-6.60004,-3.88919 -9.90529,-10.84596 -9.90529,-10.84596l14.9957,-5.15975l32.33813,10.63091l50.72746,-7.78876z" fill="#3a2f41"/><path d="M284.44172,174.41092l-2.18276,-0.1106l-2.15139,-38.13282l2.10962,-0.15257z" fill="#8ea8ab"/></g></g><g><path d="M201.73412,101.9388c1.4034,1.41825 0.33653,7.67984 -1.22226,9.22231c-1.55879,1.54247 -7.46402,2.72943 -8.86741,1.31118c-1.4034,-1.41825 1.54114,-5.87484 3.09994,-7.41731c1.55879,-1.54247 5.58634,-4.53443 6.98975,-3.11618z" fill="#3a2f41" stroke="none" stroke-width="0" stroke-linecap="butt"/><g fill="#8c9ca0" stroke="#8c9ca0" stroke-width="1.5" stroke-linecap="butt"><path d="M194.04785,128.98819c-1.05435,0.00568 -3.44027,-16.72587 -3.44027,-16.72587l9.34645,-1.24907l1.20025,-10.1124c0,0 16.82176,2.54218 16.92812,3.4894c0.05882,0.52375 -3.81101,1.69524 -7.92715,3.86001c-3.78644,1.99136 -7.84458,5.00977 -7.84458,5.00977c0,0 -2.81572,4.69115 -4.86079,8.79029c-1.86993,3.74808 -2.96239,6.9355 -3.40201,6.93787z"/></g><path d="M191.75454,113.41646l-0.96696,-1.68053l3.55108,-6.5542l6.39179,-4.07211l1.90132,0.81091" fill="none" stroke="#8c9ca0" stroke-width="2" stroke-linecap="round"/></g><g fill="#8c9ca0" stroke="#3a2f41" stroke-width="2" stroke-linecap="butt"><path d="M212.20537,117.81589c1.19221,1.35345 1.01207,3.46065 -0.40234,4.70656c-1.41441,1.24591 -3.5275,1.15873 -4.71971,-0.19473c-1.19221,-1.35345 -1.01207,-3.46065 0.40234,-4.70656c1.4144,-1.2459 3.52751,-1.15872 4.71971,0.19473z"/><path d="M219.14062,124.73315c1.23365,1.4005 1.03514,3.5916 -0.44337,4.89397c-1.47851,1.30236 -3.67714,1.22281 -4.91078,-0.17769c-1.23365,-1.4005 -1.03514,-3.59159 0.44336,-4.89395c1.47851,-1.30236 3.67715,-1.22283 4.9108,0.17767z"/></g><path d="" fill="#3a2f41" stroke="#8c9ca0" stroke-width="2" stroke-linecap="butt"/><path d="" fill="#3a2f41" stroke="#8c9ca0" stroke-width="2" stroke-linecap="butt"/></g></g></svg>