<svg version="1.1" xmlns="http://www.w3.org/2000/svg" xmlns:xlink="http://www.w3.org/1999/xlink" width="64.5" height="64.5" viewBox="0,0,64.5,64.5"><defs><linearGradient x1="212.11111" y1="151" x2="212.11111" y2="215.5" gradientUnits="userSpaceOnUse" id="color-1"><stop offset="0" stop-color="#ffffff"/><stop offset="1" stop-color="#e5e5e5"/></linearGradient></defs><g transform="translate(-212.11111,-151)"><g data-paper-data="{&quot;isPaintingLayer&quot;:true}" fill-rule="nonzero" stroke-linejoin="miter" stroke-miterlimit="10" stroke-dasharray="" stroke-dashoffset="0" style="mix-blend-mode: normal"><path d="M244.36111,151c8.898,0 16.96,3.614 22.798,9.452c5.838,5.838 9.452,13.9 9.452,22.798c0,8.898 -3.614,16.96 -9.452,22.798c-5.838,5.838 -13.9,9.452 -22.798,9.452c-8.898,0 -16.96,-3.614 -22.798,-9.452c-5.838,-5.838 -9.452,-13.9 -9.452,-22.798c0,-8.898 3.614,-16.96 9.452,-22.798c5.838,-5.838 13.9,-9.452 22.798,-9.452z" fill="url(#color-1)" stroke="none" stroke-width="1" stroke-linecap="butt"/><g data-paper-data="{&quot;index&quot;:null}" stroke="#3a2f41"><g><path d="M242.71611,199.02813l-10.83912,-6.74623l25.69193,-36.22508l2.75265,17.80952z" fill="#e1e2db" stroke-width="0" stroke-linecap="butt"/><path d="M242.71611,199.02813l-10.83912,-6.74623l10.75025,-15.36427l5.23029,14.76238z" fill="#8c9ca0" stroke-width="0" stroke-linecap="butt"/><path d="M240.48272,180.0578l7.11855,11.46265" fill="none" stroke-width="1" stroke-linecap="round"/><path d="M252.4311,184.61768l-6.42678,-12.15084" fill="none" stroke-width="1" stroke-linecap="round"/><path d="M257.3295,177.91737l-6.16509,-13.42636" fill="none" stroke-width="1" stroke-linecap="round"/><path d="M234.9765,194.21099l-3.09948,-1.9291l25.3955,-36.29532l3.04908,17.87977l-17.60546,25.16178l-1.41287,-0.87936" fill="none" stroke-width="1.5" stroke-linecap="butt"/></g><path d="M237.13255,211.21528l-14.9404,-9.29887l12.15243,-17.36831l14.9404,9.29886z" fill="#e1e2db" stroke-width="0" stroke-linecap="butt"/><path d="M237.13255,211.21529l-14.94041,-9.29887l7.01103,-10.02018l10.11059,16.20165z" fill="#8c9ca0" stroke-width="0" stroke-linecap="butt"/><path d="M235.69816,206.66328l-8.78847,-5.46992l7.86793,-11.24486l8.78848,5.46991z" fill="none" stroke-width="1" stroke-linecap="butt"/><path d="M235.81638,206.56043l-4.97136,-10.92535" fill="none" stroke-width="1" stroke-linecap="round"/><path d="M234.84186,190.22596l4.87886,10.45386" fill="none" stroke-width="1" stroke-linecap="round"/><path d="M226.94544,204.82916l-4.6714,-3.01039l12.15244,-17.36831l14.9404,9.29886l-12.15245,17.36831l-10.67265,-6.57588" fill="none" stroke-width="1.5" stroke-linecap="butt"/></g></g></g></svg>