<svg version="1.1" xmlns="http://www.w3.org/2000/svg" xmlns:xlink="http://www.w3.org/1999/xlink" width="288.63744" height="424.82344" viewBox="0,0,288.63744,424.82344"><g transform="translate(-95.68128,32.28671)"><g data-paper-data="{&quot;isPaintingLayer&quot;:true}" fill-rule="nonzero" stroke-linejoin="miter" stroke-miterlimit="10" stroke-dasharray="" stroke-dashoffset="0" style="mix-blend-mode: normal"><g data-paper-data="{&quot;index&quot;:null}" stroke="#3a2f41" stroke-width="2"><path d="M335.20476,157.06211c2.16675,0.90254 2.67515,4.63056 1.13554,8.3268c-1.53961,3.69623 -4.54422,5.96096 -6.71098,5.05843c-2.16675,-0.90254 -2.67515,-4.63056 -1.13554,-8.3268c1.53961,-3.69623 4.54422,-5.96096 6.71098,-5.05843z" fill="#595564" stroke-linecap="butt"/><path d="M310.16087,107.63218c5.2257,2.1767 7.95563,7.55759 6.09747,12.01856c-1.85816,4.46097 -7.60077,6.31273 -12.82647,4.13603c-5.2257,-2.1767 -7.95563,-7.55759 -6.09747,-12.01856c1.85816,-4.46097 7.60077,-6.31273 12.82647,-4.13603z" fill="#595564" stroke-linecap="butt"/><path d="M332.89215,112.22582c6.88263,2.86688 10.48236,9.94382 8.0402,15.80681c-2.44215,5.86299 -10.00139,8.29181 -16.88402,5.42494c-6.88263,-2.86688 -10.48236,-9.94382 -8.0402,-15.80681c2.44215,-5.86299 10.00139,-8.29181 16.88402,-5.42494z" fill="#595564" stroke-linecap="butt"/><path d="M300.08416,180.57475l9.39373,-19.89366l10.85109,5.12386l-9.39374,19.89367z" fill="#595564" stroke-linecap="butt"/><g fill="#595564" stroke-linecap="butt"><path d="M332.20374,147.68744l5.57545,-13.38523l18.46239,7.69027l-5.57545,13.38523z"/><path d="M341.39678,154.22489l7.69027,-18.46239l16.15459,6.72899l-7.69027,18.46239z"/></g><path d="M225.85741,194.60244l26.92159,-55.29446l18.88103,9.19274l-26.92159,55.29446z" fill="#595564" stroke-linecap="butt"/><path d="M260.58679,148.70497l16.40445,5.47896" fill="none" stroke-linecap="round"/><path d="M242.89518,139.73574l15.26533,-35.34783l88.65619,21.221l-21.53276,51.69468z" fill="#595564" stroke-linecap="butt"/><path d="M255.08727,137.77285l4.80642,-11.53899l67.38771,28.0695l-5.57545,13.38523z" fill="none" stroke-linecap="butt"/><path d="M264.71541,119.52875l0.06174,-3.7185l69.19436,18.53084l-2.11482,5.07716z" fill="none" stroke-linecap="round"/><path d="M354.12193,103.19464l-5.96014,12.68335l-3.72993,7.65426" fill="none" stroke-linecap="round"/><path d="M352.64949,105.83869c1.62103,0.77073 1.82971,3.72048 0.46611,6.58845c-1.3636,2.86797 -3.78312,4.56813 -5.40414,3.79739c-1.62103,-0.77073 -1.82971,-3.72048 -0.46611,-6.58845c1.3636,-2.86797 3.78312,-4.56813 5.40414,-3.79739z" fill="none" stroke-linecap="butt"/><path d="M354.39228,113.59846l-8.94281,-4.53748" fill="none" stroke-linecap="round"/><path d="M282.19909,118.19634c2.48539,1.03526 3.74735,3.68191 2.81866,5.91145c-0.92869,2.22955 -3.69635,3.19771 -6.18175,2.16245c-2.48539,-1.03526 -3.74735,-3.68191 -2.81866,-5.91145c0.92869,-2.22955 3.69635,-3.19771 6.18175,-2.16245z" fill="#595564" stroke-linecap="butt"/></g><g><g><path d="M158.69071,307.29207c3.84716,1.10992 6.43844,3.83791 5.7878,6.09314c-0.65064,2.25523 -4.29683,3.18369 -8.14398,2.07377c-3.84716,-1.10992 -6.43844,-3.83791 -5.7878,-6.09314c0.65064,-2.25523 4.29683,-3.18369 8.14398,-2.07377z" fill="#595564" stroke="#3a2f41" stroke-width="2" stroke-linecap="butt"/><path d="M138.88278,251.48963c4.64312,1.33956 7.13503,6.83473 5.56584,12.27381c-1.56919,5.43908 -6.60527,8.76241 -11.24839,7.42285c-4.64312,-1.33956 -7.13503,-6.83473 -5.56584,-12.27381c1.56919,-5.43908 6.60527,-8.76241 11.24839,-7.42285z" fill="#595564" stroke="#3a2f41" stroke-width="2" stroke-linecap="butt"/><path d="M131.79601,269.74038c6.10239,1.76056 9.37392,8.99508 7.30718,16.15875c-2.06674,7.16367 -8.68913,11.54376 -14.79152,9.7832c-6.10239,-1.76056 -9.37392,-8.99508 -7.30718,-16.15875c2.06674,-7.16367 8.68913,-11.54376 14.79152,-9.7832z" fill="#595564" stroke="#3a2f41" stroke-width="2" stroke-linecap="butt"/><path d="M188.07,308.33423l-21.3984,-5.10967l2.78709,-11.67185l21.39839,5.10967z" fill="#595564" stroke="#3a2f41" stroke-width="2" stroke-linecap="butt"/><g fill="#595564" stroke="#3a2f41" stroke-width="2" stroke-linecap="butt"><path d="M139.56381,320.37793l-13.93179,-4.01937l5.54396,-19.21626l13.93179,4.01937z"/><path d="M139.60963,329.23784l-19.21626,-5.54396l4.85096,-16.81423l19.21626,5.54396z"/></g><path d="M202.66253,268.13517c0,0 -1.85396,5.86854 -4.52537,6.26963c-5.68311,0.85327 -18.39309,-8.31926 -18.39309,-8.31926l5.61748,-17.41696l-4.19783,-15.10102l18.01131,-10.93383l16.14445,0.68484l4.69938,-6.88142l24.76563,11.0527l-5.56065,14.71948l-8.16994,26.01283z" data-paper-data="{&quot;index&quot;:null}" fill="#e1e2db" stroke="#3a2f41" stroke-width="2" stroke-linecap="butt"/><path d="M243.5868,267.99335l-59.98444,-13.56892l4.63329,-20.48249l59.98444,13.56892z" fill="#595564" stroke="#3a2f41" stroke-width="2" stroke-linecap="butt"/><path d="M209.05893,258.98167c0,0 0.36309,2.4735 -2.11039,2.83658c-0.53929,0.07916 -0.97825,0.02348 -1.33501,-0.11199c-0.60189,0.43558 -1.39093,0.59955 -2.16011,0.37764l-2.79237,-0.80561c-2.60011,-0.4743 -5.29547,-0.96046 -7.94963,-0.92693c-1.91038,0.02413 -4.29427,1.56144 -5.72405,0.29421c-1.61117,-1.42797 0.44821,-5.9556 1.15101,-7.66236c1.57888,-3.83432 5.42497,-7.80968 10.03055,-7.90217c2.00925,-0.04035 3.1805,0.60148 4.40989,1.48546c0.21179,0.00466 0.42647,0.03653 0.63961,0.09802c0.09168,0.02645 0.18068,0.05768 0.2668,0.09337l2.3015,0.92071l-0.01543,0.03858c0.07805,0.01885 0.15586,0.03915 0.23341,0.06099c1.16555,0.32828 1.99378,1.37477 2.99067,2.06215l0.04703,0.81799l0.34732,-0.13177l0.87787,2.3138c0.19368,0.49429 0.2321,1.05394 0.07356,1.60344c-0.25751,0.89257 -0.96905,1.53098 -1.81114,1.73661c0.20796,0.875 0.37866,1.79534 0.52891,2.80128z" fill="#e1e2db" stroke="none" stroke-width="0.5" stroke-linecap="butt"/><path d="M202.97503,267.77556l5.09559,-18.06993l-2.32021,-0.97371l2.65166,1.11281l27.72549,3.17083l-5.04608,15.21776l-27.71143,-0.44915" fill="#e1e2db" stroke="#3a2f41" stroke-width="2" stroke-linecap="round"/><path d="M218.8186,267.11221l4.79465,-15.14056" fill="none" stroke="#3a2f41" stroke-width="2" stroke-linecap="round"/><path d="M184.70352,262.13858l5.98268,-16.22752" fill="none" stroke="#3a2f41" stroke-width="2" stroke-linecap="round"/><path d="M191.28135,233.33521l14.48958,-0.15656l0.20984,15.2916l-20.29607,0.0588l-2.00088,-17.1276l12.68961,-7.00705" fill="#e1e2db" stroke="#3a2f41" stroke-width="2" stroke-linecap="round"/><path d="M202.28816,273.01984l-19.36415,-4.78321l1.4671,-6.33487l19.36415,4.78321z" fill="#595564" stroke="#3a2f41" stroke-width="2" stroke-linecap="butt"/><path d="M172.54616,314.28167l-53.80552,-15.52308l38.87959,-82.45379l37.12989,10.19171z" fill="#595564" stroke="#3a2f41" stroke-width="2" stroke-linecap="butt"/><path d="M167.28045,305.477l-13.93179,-4.01937l20.23544,-70.13934l12.01016,3.46497z" fill="none" stroke="#3a2f41" stroke-width="2" stroke-linecap="butt"/><path d="M138.87185,295.71985l-5.28447,-1.52459l28.80877,-65.58434l2.94037,2.27712z" fill="none" stroke="#3a2f41" stroke-width="2" stroke-linecap="round"/><path d="M118.61142,295.59896l-8.30551,-1.87577l-13.62463,-3.28026" fill="none" stroke="#3a2f41" stroke-width="2" stroke-linecap="round"/><path d="M106.00806,289.10477c3.09075,0.72934 5.26212,2.73676 4.84988,4.48371c-0.41223,1.74695 -3.25196,2.57188 -6.34271,1.84254c-3.09075,-0.72934 -5.26212,-2.73676 -4.84988,-4.48371c0.41223,-1.74695 3.25196,-2.57188 6.34271,-1.84254z" fill="none" stroke="#3a2f41" stroke-width="2" stroke-linecap="butt"/><path d="M104.63091,297.15976l2.05137,-9.81603" fill="none" stroke="#3a2f41" stroke-width="2" stroke-linecap="round"/><path d="M158.91679,240.22664c2.32058,0.6695 3.59677,3.30931 2.85045,5.89619c-0.74632,2.58688 -3.23254,4.14123 -5.55313,3.47173c-2.32058,-0.6695 -3.59677,-3.30931 -2.85045,-5.89619c0.74632,-2.58688 3.23254,-4.14123 5.55313,-3.47173z" fill="#595564" stroke="#3a2f41" stroke-width="2" stroke-linecap="butt"/></g><path d="M204.38052,221.81073l-5.72215,-17.08506l26.55182,-29.33403l16.26686,-56.33573l13.33081,-8.14082l22.07274,6.20076c0,0 -10.11294,49.82885 -14.42094,71.05537c-3.49773,17.23415 -9.5064,46.84027 -9.5064,46.84027z" fill="#e1e2db" stroke="#3a2f41" stroke-width="2" stroke-linecap="butt"/><path d="M233.63055,150.71329l8.5,-31l13.5,-8l10.5,29z" fill="#8c9ca0" stroke="none" stroke-width="0" stroke-linecap="butt"/></g><path d="M285.0766,360.13827c-0.36664,9.2681 -10.12435,6.26947 -17.88959,8.9152c-7.4753,2.54693 -10.93567,6.49052 -19.86756,8.59775c-7.09619,1.67415 -19.73587,1.82038 -25.65952,1.82038c-21.12489,0 -30.25,-4.76801 -27.75,-12.5c2.37875,-7.35698 17.12511,-14 38.25,-14c12.85339,0 28.9341,0.66688 39.3948,2.92326c6.73173,1.45204 13.80274,1.22899 13.52186,4.24341z" fill="#e1e2db" stroke="#3a2f41" stroke-width="2.5" stroke-linecap="butt"/><path d="M196.99213,369.39078c-8.33513,-5.8213 -7.5597,-25.70958 -3.74828,-29.66316c11.73082,-12.16833 35.60206,-12.00034 35.60206,-12.00034l2.94894,-11.24305l50.84628,20.2255c0,0 5.76375,22.65007 -3.96491,24.45655c-2.8338,0.5262 -11.64059,0.63685 -15.42707,1.77232c-6.07039,1.82035 -13.05163,7.65936 -21.89235,8.83668c-34.34091,4.5732 -44.36467,-2.38449 -44.36467,-2.38449z" fill="#7c7984" stroke="#3a2f41" stroke-width="2.5" stroke-linecap="butt"/><path d="M217.60451,327.55758l7.6378,-5.42781c0,0 7.24322,-0.23604 12.63595,1.92105c2.06613,0.82645 5.36885,2.51885 7.87181,4.16402c3.23265,2.12479 5.46529,4.17082 5.46529,4.17082c0,0 -1.68907,8.46835 -2.97113,7.42781c-11.50715,-9.33938 -30.63973,-12.25589 -30.63973,-12.25589z" fill="#e1e2db" stroke="#3a2f41" stroke-width="2.5" stroke-linecap="butt"/><path d="M210.52687,332.03702c0,0 1.39085,-4.11741 6.4849,-4.76723c3.80888,-0.48587 11.01089,2.0692 14.06453,3.74582c1.95062,1.071 5.02363,3.15156 7.30852,5.08822c2.95101,2.50126 4.91896,4.80303 4.91896,4.80303c0,0 -2.70391,8.2009 -3.85027,7.01252c-10.28918,-10.66637 -28.92664,-15.88236 -28.92664,-15.88236z" fill="#e1e2db" stroke="#3a2f41" stroke-width="2.5" stroke-linecap="butt"/><path d="M279.74795,363.16168c-1.31719,-4.37033 1.3591,-10.59019 1.3591,-10.59019c25.23355,0.18564 50.46865,0.24027 75.70293,0.1495c6.36132,12.09339 7.86012,29.16912 -1.16934,34.56889c0,0 -13.15503,9.08018 -43.736,-0.13188c-6.78198,-2.04297 -15.44134,-11.33679 -21.98774,-15.91161c-4.60575,-3.21863 -8.22147,-1.62317 -10.16895,-8.08471z" fill="#e1e2db" stroke="#3a2f41" stroke-width="2.5" stroke-linecap="butt"/><path d="M281.08128,359.66168c-2.91815,-5.89996 -0.13492,-21.08333 -0.13492,-21.08333l2.23862,-8.0314l49.12681,-2.63418c0,0 5.29086,4.95531 14.44155,11.53765c4.32975,3.11451 9.96145,4.11567 13.22939,9.14526c7.83447,12.05781 5.49818,27.30953 -4.34211,33.19419c-12.67557,7.5802 -42.32845,1.47991 -47.48818,-2.3171c-6.59441,-4.85279 -7.81363,-6.27955 -16.25273,-13.59833c-2.72737,-2.36531 -9.4008,-3.34658 -10.81843,-6.21276z" fill="#7c7984" stroke="#3a2f41" stroke-width="2.5" stroke-linecap="butt"/><path d="M310.62937,347.03467c-1.36987,0.92186 -2.29579,-7.6635 -2.29579,-7.6635c0,0 2.40647,-1.83842 5.81599,-3.66598c2.6399,-1.41503 6.08058,-2.80566 8.21228,-3.44426c5.56385,-1.66679 12.5837,-1.35989 12.5837,-1.35989l7.29579,6.66351c0,0 -19.31661,1.19591 -31.61197,9.47013z" data-paper-data="{&quot;index&quot;:null}" fill="#e1e2db" stroke="#3a2f41" stroke-width="2.5" stroke-linecap="butt"/><path d="M319.34522,357.48426c-1.35106,0.94923 -2.44947,-7.61578 -2.44947,-7.61578c0,0 2.36902,-1.88646 5.74108,-3.78222c2.61091,-1.46785 6.02292,-2.92739 8.14134,-3.60874c5.5292,-1.77836 13.19934,-1.37975 13.19934,-1.37975l6.78279,6.28245c0,0 -19.28865,1.58419 -31.4151,10.10404z" data-paper-data="{&quot;index&quot;:null}" fill="#e1e2db" stroke="#3a2f41" stroke-width="2.5" stroke-linecap="butt"/><g data-paper-data="{&quot;index&quot;:null}" fill="#595564" stroke="#3a2f41" stroke-width="2"><path d="M227.93178,322.15865l14.29949,-116.33047l36.84841,3.14099l1.80658,129.41131z" data-paper-data="{&quot;index&quot;:null}" stroke-linecap="butt"/><path d="M254.09343,212.30443l-2.64321,32.52605l-14.2949,3.34868" stroke-linecap="round"/><path d="M248.7086,209.69253l-2.37368,29.7954l-8.34993,2.32311" stroke-linecap="round"/></g><g fill="#595564" stroke="#3a2f41" stroke-width="2"><path d="M281.05534,338.33646l-1.00001,-124.59675l37.06322,-6.53256l18.16016,124.87222z" data-paper-data="{&quot;index&quot;:null}" stroke-linecap="butt"/><path d="M322.96585,252.7767l-14.51123,-2.42193l-3.6124,-35.07185" stroke-linecap="round"/><path d="M321.94382,245.43664l-9.00777,-1.60108l-4.08221,-35.16294" stroke-linecap="round"/></g><g stroke-linecap="butt"><path d="M265.48289,232.48117l1.23334,-17.41208l25.20913,-2.1125l1.6964,20.24369z" fill="#8c9ca0" stroke="#3a2f41" stroke-width="2"/><path d="M265.67279,230.15746l1.23334,-17.41208l25.20913,-2.11249l1.6964,20.24367z" fill="#595564" stroke="#595564" stroke-width="3.5"/></g><path d="M277.24244,347.5519c0,4.83249 -3.24594,8.75 -7.25,8.75c-4.00406,0 -7.25,-3.91751 -7.25,-8.75c0,-4.83249 3.24594,-8.75 7.25,-8.75c4.00406,0 7.25,3.91751 7.25,8.75z" fill="#e1e2db" stroke="#3a2f41" stroke-width="2.5" stroke-linecap="butt"/><path d="M295.74244,349.53672c0,5.10863 -2.79822,9.25 -6.25,9.25c-3.45178,0 -6.25,-4.14137 -6.25,-9.25c0,-5.10863 2.79822,-9.25 6.25,-9.25c3.45178,0 6.25,4.14137 6.25,9.25z" fill="#e1e2db" stroke="#3a2f41" stroke-width="2.5" stroke-linecap="butt"/><g><g><g fill="none" stroke="none" stroke-width="1" stroke-linecap="butt" font-family="sans-serif" font-weight="normal" font-size="12" text-anchor="start"><g><g><g/></g></g><g><g><g/></g></g></g><g fill="none" stroke="none" stroke-width="1" stroke-linecap="butt" font-family="sans-serif" font-weight="normal" font-size="12" text-anchor="start"><g><g><g/></g></g><g><g><g/></g></g></g><path d="M253.8689,110.01117c0,0 26.7577,-8.23284 38.25809,-7.42942c10.48219,0.73231 33.52062,12.7817 34.90221,18.11593c-4.78902,24.99119 -7.67575,48.61337 -8.95865,67.9754c-0.84873,12.8093 0.80057,22.12303 0.80057,22.12303c0,0 -34.88183,8.83332 -55.53775,6.33514c-10.72052,-1.29656 -22.65077,-12.31672 -22.65077,-12.31672c-0.10402,-0.15712 2.80908,-15.36428 5.00784,-30.5749c3.69358,-25.55166 8.434,-62.94941 8.434,-62.94941" fill="#3a2f41" stroke="#3a2f41" stroke-width="2" stroke-linecap="round"/><g fill="none" stroke="none" stroke-width="1" stroke-linecap="butt" font-family="sans-serif" font-weight="normal" font-size="12" text-anchor="start"><g/></g></g><path d="M277.13367,160.44209c-17.55765,-18.79139 -19.8064,-51.47314 -19.8064,-51.47314l29.87872,-9.60272c0,0 15.99629,5.64881 21.40105,8.31007c4.69518,2.31187 13.10428,7.2394 13.10428,7.2394c0,0 -7.91759,16.69365 -17.80537,26.63256c-14.50982,14.58486 -26.53661,19.08823 -26.77228,18.89382z" fill="#e1e2db" stroke="none" stroke-width="0" stroke-linecap="butt"/><path d="M257.32729,108.96894l29.87872,-9.60272c0,0 15.99629,5.64881 21.40105,8.31007c4.69518,2.31187 13.10428,7.2394 13.10428,7.2394c0,0 -2.21136,4.66247 -5.75621,10.52635c-9.68128,2.86012 -19.55238,5.96375 -30.91343,9.5819c-7.34683,2.33974 -13.44744,4.27782 -19.71876,6.51385c-6.87072,-16.21994 -7.99565,-32.56886 -7.99565,-32.56886z" fill="#8c9ca0" stroke="none" stroke-width="0" stroke-linecap="butt"/><path d="M277.93485,156.30371c0,0 -7.05036,-8.8816 -8.40093,-14.17507c-0.22973,-0.90042 3.12246,-5.74098 5.72651,-9.32015c1.61904,-2.2253 2.94888,-3.963 2.94888,-3.963l10.47686,0.71032c0,0 6.96971,14.96194 6.6571,15.26102c-6.85648,6.45608 -17.40842,11.4869 -17.40842,11.4869z" fill="#3a2f41" stroke="#3a2f41" stroke-width="2" stroke-linecap="butt"/><path d="M277.13367,160.44209c-17.55765,-18.79139 -19.8064,-51.47314 -19.8064,-51.47314l29.87872,-9.60272c0,0 15.99629,5.64881 21.40105,8.31007c4.69518,2.31187 13.10428,7.2394 13.10428,7.2394c0,0 -7.91759,16.69365 -17.80537,26.63256c-14.50982,14.58486 -26.53661,19.08823 -26.77228,18.89382z" fill="none" stroke="#3a2f41" stroke-width="2" stroke-linecap="butt"/><path d="M278.88428,125.07933l0.82088,-11.00659l9.60176,0.7161l-0.82088,11.00659z" fill="#3a2f41" stroke="#3a2f41" stroke-width="2" stroke-linecap="butt"/><g><path d="M268.60421,105.52078c-0.52195,-0.3988 3.08227,-5.52271 3.62556,-5.90686c0.21444,-0.06232 0.56212,-0.49365 1.29714,0.12353c3.35665,2.81848 11.00164,11.01925 11.00164,11.01925l-10.22553,8.92973z" data-paper-data="{&quot;index&quot;:null}" fill="#8c9ca0" stroke="#3a2f41" stroke-width="4.5" stroke-linecap="round"/><path d="M284.55792,110.80797c0,0 -9.10434,-9.86403 -4.99502,-11.86356c4.88925,-2.37903 23.20725,3.00739 24.3836,2.51875c1.24589,-1.93388 3.11228,5.29349 3.06486,6.93711c-1.27148,3.24949 -13.33381,13.41407 -13.33381,13.41407z" fill="#3a2f41" stroke="#3a2f41" stroke-width="4.5" stroke-linecap="round"/><path d="M270.87939,105.15886c0.04225,-0.56647 1.60868,-5.0452 2.82706,-5.53366c0.73173,-0.65162 13.91631,-6.07456 15.65959,-5.66609c2.75553,0.64565 13.73707,6.72104 14.82786,7.89973c0.60971,0.3618 0.59846,4.25463 0.52244,5.83732" fill="none" stroke="#3a2f41" stroke-width="6.5" stroke-linecap="butt"/><g><path d="M268.40825,105.50616c-0.52195,-0.3988 3.08227,-5.52271 3.62556,-5.90686c0.21444,-0.06232 0.56213,-0.49365 1.29715,0.12353c3.35664,2.81848 11.00164,11.01925 11.00164,11.01925l-10.01541,8.75458z" data-paper-data="{&quot;index&quot;:null}" fill="#8c9ca0" stroke="#12161a" stroke-width="0" stroke-linecap="round"/><path d="M284.55792,110.80797c0,0 17.2235,-8.44546 19.38857,-9.34481c1.24589,-1.93386 3.11228,5.2935 3.06486,6.93712c-1.27149,3.24949 -13.33382,13.41407 -13.33382,13.41407z" fill="#8c9ca0" stroke="#12161a" stroke-width="0" stroke-linecap="round"/><path d="M270.87939,105.15882c0.04225,-0.56647 1.60868,-5.04519 2.82706,-5.53366c0.73173,-0.65162 13.91632,-6.07456 15.65959,-5.66609c2.75553,0.64566 13.73707,6.72104 14.82786,7.89973c0.60971,0.3618 0.59846,4.25463 0.52244,5.83732" fill="none" stroke="#8c9ca0" stroke-width="2" stroke-linecap="butt"/></g></g></g><path d="M280.49243,231.78672l-1.5,-7h-4.5l-4,-21.5" fill="none" stroke="#3a2f41" stroke-width="2" stroke-linecap="round"/><path d="M277.12479,211.26843l1.73528,13.53658" fill="none" stroke="#3a2f41" stroke-width="2" stroke-linecap="round"/><g><path d="M373.17222,69.67446c-0.78447,12.6783 -35.56895,23.89384 -66.71347,21.96678c-31.14452,-1.92707 -50.375,-10.16879 -49.59053,-22.84709c0.78447,-12.6783 32.20236,-35.22412 63.34688,-33.29706c31.14452,1.92706 53.74159,21.49907 52.95712,34.17737z" fill="#8c9ca0" stroke="#3a2f41" stroke-width="2" stroke-linecap="butt"/><path d="M382.70789,13.53065c3.83027,12.11131 -10.44655,36.35374 -40.19824,45.76289c-29.75169,9.40915 -71.65249,16.73593 -75.48276,4.62462c-3.83027,-12.11131 19.1898,-56.40804 48.94149,-65.8172c29.75169,-9.40915 62.90924,3.31838 66.73951,15.42969z" fill="#8c9ca0" stroke="#3a2f41" stroke-width="2" stroke-linecap="butt"/><path d="M342.29536,-23.74332c7.90254,15.20837 -21.52267,30.32792 -21.52267,30.32792c0,0 -0.00342,16.98163 -8.11059,24.70876c-24.31331,23.17362 -50.47992,56.24769 -62.1388,49.10477c-25.65663,-15.71874 -25.28531,-57.97987 -9.64518,-78.9134c4.41116,-5.90412 2.89293,10.69098 2.89293,10.69098c0,0 9.64561,-21.17569 40.53762,-36.01765c25.09703,-12.05778 54.00321,-7.56755 57.98669,0.09861z" fill="#8c9ca0" stroke="#3a2f41" stroke-width="2" stroke-linecap="butt"/><path d="M342.67923,54.46513c0.73511,-1.27619 1.47413,-2.55336 2.23856,-3.82607l0.10977,-0.07866l-0.03515,-0.02636l1.48255,-1.97673c0.45492,-0.62045 1.18914,-1.02327 2.01745,-1.02327c1.28703,0 2.3469,0.97254 2.48481,2.22281l0.15105,1.20837c0.27637,-0.80624 0.75778,-1.5126 1.53122,-2.0462c0.26589,-0.18344 0.54985,-0.31629 0.84704,-0.40382c0.4569,-0.5965 1.17647,-0.98116 1.98589,-0.98116c0.55242,0 1.06299,0.17918 1.47677,0.48257l3.47633,2.48309l-0.06008,0.08411c0.17242,0.10269 0.34177,0.21115 0.50761,0.32614c0.99301,0.68855 1.13186,2.12955 1.67394,3.21533l1.86516,2.33146c0.35028,0.43024 0.56027,0.97925 0.56027,1.57729c0,1.38071 -1.11929,2.5 -2.5,2.5c-0.34826,0 -0.67989,-0.07121 -0.98111,-0.19987l-1.51175,-0.6047c-0.00096,1.46184 -0.02559,2.66325 -0.09969,2.89703c-0.03474,0.10962 -0.07108,0.21859 -0.10891,0.32694l0.03277,0.00983l-1.4206,4.73533c-0.21084,0.76653 -0.77749,1.38568 -1.5112,1.66872c-0.6714,1.4928 -1.54561,3.06807 -2.99905,3.13442c-4.25437,0.19424 -6.66911,-3.89139 -7.7359,-7.74541c-1.80793,1.30313 -4.04976,2.30631 -4.55799,2.11261c-0.22147,-0.08441 -0.42541,-0.17974 -0.6128,-0.28509l-1.79908,3.1484c-0.42441,0.77572 -1.24811,1.30179 -2.19468,1.30179c-1.38071,0 -2.5,-1.11929 -2.5,-2.5c0,-0.18573 0.02025,-0.36673 0.05867,-0.54091l0.48394,-2.4197c1.05208,-6.32158 0.95157,-12.46487 0.96368,-18.86217c-0.92446,-6.52797 -5.06973,-12.73203 -9.73466,-17.37092c-0.98843,-0.98292 -1.99584,-1.83645 -2.97442,-2.66877c-0.37818,0.23 -0.82223,0.36247 -1.29721,0.36247c-1.0731,0 -1.98829,-0.67611 -2.34282,-1.62559l-0.14976,-0.37441c-0.84679,0 -1.72762,0 -2.50742,0c0,0 -2.5,0 -2.5,-2.5c0,-0.64666 0.16727,-1.12607 0.41528,-1.48146c-0.86346,-0.47436 -1.80131,-1.07634 -2.99894,-1.76304l-3.34819,-1.43494c-0.9192,-0.36946 -1.56816,-1.26922 -1.56816,-2.32055c0,-1.1246 0.74256,-2.07577 1.76412,-2.38994l0.98289,-0.32764c-0.46109,-0.45352 -0.74701,-1.08458 -0.74701,-1.78243c0,-1.38071 1.11929,-2.5 2.5,-2.5h1.29309l-0.16355,-0.02726c-1.20504,-0.179 -2.12954,-1.21791 -2.12954,-2.47274c0,-1.05134 0.64896,-1.9511 1.56816,-2.32056l3.44704,-1.47731l0.01195,0.02787c0.05787,-0.03362 0.11611,-0.06669 0.17473,-0.09918c1.80984,-1.00314 4.06489,-1.53987 6.41989,-1.90373c0.23541,-0.72487 0.79301,-1.3045 1.50382,-1.56991l2.44594,-0.97837l0.02006,0.05016c0.06468,-0.04267 0.13002,-0.08446 0.19605,-0.12533c1.05074,-0.65019 2.57693,-0.86515 4.20854,-0.89395c0.19892,-0.08731 0.41138,-0.14946 0.63337,-0.18244l2.95946,-0.49324l0.06928,0.41571c1.35116,-0.43659 2.66981,-0.44972 5.34172,-0.44972h2.5v0c1.38071,0 2.5,1.11929 2.5,2.5c0,0.82832 -0.40283,1.56253 -1.02328,2.01745l-1.97672,1.48255l-0.01529,-0.02038c-0.04089,0.03984 -0.08238,0.07917 -0.1245,0.11796c-2.11133,1.94427 -5.06082,2.74261 -7.38779,4.42282c-1.49473,1.07928 -2.72844,2.26888 -4.0475,3.3843c0.35915,0.43288 0.57508,0.98888 0.57508,1.59531c0,1.18975 -0.8311,2.18539 -1.94439,2.43804l-3.94927,0.98732l-0.0077,-0.03079l-0.08956,0.05306c-0.75714,0.12645 -1.51633,0.26934 -2.27609,0.41127c0.75195,1.82162 1.68267,4.08874 1.69443,4.54305c0.00014,0.00563 0.00029,0.01126 0.00042,0.01689l0.64175,0.32088c0.84562,0.40086 1.43041,1.26229 1.43041,2.26029c0,0.03424 -0.00068,0.06831 -0.00205,0.10221c1.35388,1.08503 2.72063,2.08646 3.73042,3.09149c5.63297,5.6064 10.13545,12.77418 11.26534,20.62908c0.00618,3.61396 0.0311,7.15247 -0.11383,10.68389c0.56208,-1.18077 1.12437,-2.16828 1.4495,-2.74701zM328.83566,4.56996c-1.60787,0.28167 -3.21917,0.54692 -4.82541,0.83479l2.74892,0.91631c0.71852,-0.57646 1.40148,-1.16463 2.07649,-1.7511zM352.5237,66.44714c-0.00347,-0.04076 -0.00639,-0.08158 -0.00883,-0.12245l-0.38574,-0.5786c0.12935,0.22517 0.26152,0.45756 0.39457,0.70105z" fill="#8c9ca0" stroke="none" stroke-width="0.5" stroke-linecap="butt"/><g data-paper-data="{&quot;index&quot;:null}" stroke-linecap="butt"><path d="M243.79265,60.28699c-1.2701,-18.19656 10.54714,-40.50317 34.63862,-42.71622c36.62396,-3.36427 51.54076,18.89341 52.81084,37.08996c1.27012,18.19655 -9.61557,34.55215 -41.41046,35.96929c-15.87978,0.70781 -29.22828,-2.08896 -36.55684,-7.43325c-7.53891,-5.49768 -8.83813,-13.68277 -9.48218,-22.90979z" fill="#e1e2db" stroke="none" stroke-width="0"/><path d="M243.79265,60.28699c-1.2701,-18.19656 10.54714,-40.50317 34.63862,-42.71622c36.62396,-3.36427 51.54076,18.89341 52.81084,37.08996c1.27012,18.19655 -29.51249,8.97178 -49.32134,10.10123c-19.81279,1.12968 -36.85804,13.72158 -38.12814,-4.47497z" fill="#b8c1c0" stroke="none" stroke-width="0"/><path d="M293.611,18.11196c25.67164,3.1447 36.58185,21.51605 37.65993,36.96143c1.27012,18.19655 -9.61559,34.55213 -41.41047,35.96928c-16.93426,0.75481 -29.53363,-2.20855 -36.81905,-8.24221c-6.57421,-5.44461 -8.61749,-13.46945 -9.21995,-22.10082h-0.00001c-1.1445,-16.39716 5.67897,-45.35738 49.65183,-42.61978" fill="none" stroke="#3a2f41" stroke-width="2"/></g><g data-paper-data="{&quot;index&quot;:null}" stroke-width="1" stroke-linecap="butt"><path d="M319.67959,61.16612c0,0 -3.76514,6.68769 -13.26898,9.33753c-10.06935,2.80751 -17.18666,-2.04836 -17.18666,-2.04836c0,0 6.52436,-1.30439 15.753,-3.63692c8.20063,-2.0727 14.70261,-3.65225 14.70261,-3.65225z" fill="#e1e2db" stroke="#3a2f41"/><g fill="none" stroke="none" font-family="sans-serif" font-weight="normal" font-size="12" text-anchor="start"/></g><path d="M345.40908,12.7133c0,0 -0.4927,32.20569 -2.81101,40.81556c-2.58834,9.61274 -11.99839,14.18443 -11.99839,14.18443c0,0 0.37622,-4.97129 -0.78324,-11.16936c-1.72957,-9.24566 -9.88534,-20.55444 -17.80729,-22.83064c-13.23265,-3.8021 -32.45465,16.33333 -32.45465,16.33333c0,0 -12.46013,-18.34826 -19.22071,-17c-5.11543,1.02017 -10.26251,4.7967 -12.83197,9.18415c-4.47823,7.64674 -4.18309,17.14919 -4.18309,17.14919c0,0 -3.05404,-17.2196 -0.61731,-25.93494c1.71925,-6.1492 13.85124,-21.3984 13.85124,-21.3984" fill="#8c9ca0" stroke="#3a2f41" stroke-width="2" stroke-linecap="round"/><path d="M354.07573,53.37996c0,11.04569 -17.20372,27.33333 -20.33333,27.33333c-0.06832,0 -5.13429,0.49232 -5.19798,0.47718c-1.2931,-0.30744 0.37885,-4.29299 1.50068,-9.01858c1.35421,-5.70448 2.36396,-12.71595 2.36396,-18.62526c0,-0.64321 -0.87314,-16.85229 2.20385,-26.78189c1.29031,-4.16388 -37.3567,-11.47777 -70.55945,-10.40136c-6.05697,0.19636 -16.50927,14.85317 -20.39591,32.81353c-0.76291,3.52547 -0.79212,8.13969 -1.01227,11.74317c-0.15668,2.56446 -3.26312,-3.53854 -5.1768,-11.55227c-2.40841,-10.08551 -3.70612,-23.0028 -3.6178,-23.28759c0.14765,-0.4761 20.82312,-18.27242 32.19901,-20.19005c33.39535,-5.62943 85.68046,1.15646 86.02603,1.15646c3.12962,0 2,35.28764 2,46.33334z" fill="#8c9ca0" stroke="none" stroke-width="0" stroke-linecap="butt"/><path d="M312.07576,67.71329l0.8,-4.6" fill="none" stroke="#3a2f41" stroke-width="1" stroke-linecap="round"/><path d="M318.47575,54.71328c0,0 -2.59465,-0.06335 -5.04441,1.07317c-7.35108,3.41039 -21.40195,11.22139 -24.17045,12.73342c-1.11807,0.61064 -1.58513,-1.40658 -1.58513,-1.40658" fill="none" stroke="#3a2f41" stroke-width="1" stroke-linecap="round"/><path d="M275.38056,88.97578c12.02369,-4.6379 21.73333,-3.2 21.73333,-3.2" fill="none" stroke="#3a2f41" stroke-width="1" stroke-linecap="round"/><path d="M266.24723,77.30911l2.66666,1.66667" fill="none" stroke="#3a2f41" stroke-width="1" stroke-linecap="round"/></g><path d="M382.31042,196.28573l-43.40096,52.46901l-19.14392,-6.02671c0,0 -11.93225,-57.19726 -12.16563,-57.63166c-1.20718,-4.23079 20.95557,-7.16581 20.95557,-7.16581l-15.14555,-39.06865l8.31787,-24.90935l20.45749,10.50855c0,0 9.50367,20.77973 21.98204,40.90298z" data-paper-data="{&quot;index&quot;:null}" fill="#e1e2db" stroke="#3a2f41" stroke-width="2" stroke-linecap="butt"/><g data-paper-data="{&quot;index&quot;:null}" stroke="#3a2f41" stroke-width="2"><path d="M313.59215,241.40446c-4.16563,-15.43055 -16.08537,-42.99221 -16.08537,-42.99221c0,0 12.41754,-14.12131 17.26504,-13.90911c4.64632,0.2034 17.368,21.25536 17.368,21.25536c0,0 2.20176,33.08057 -1.6241,34.72042c-4.13049,1.77042 -16.64751,1.94809 -16.92356,0.92554z" fill="#e1e2db" stroke-linecap="butt"/><path d="M303.10999,208.24286l22.84977,-10.85768" fill="none" stroke-linecap="round"/></g></g></g></svg>