<svg version="1.1" xmlns="http://www.w3.org/2000/svg" xmlns:xlink="http://www.w3.org/1999/xlink" width="395.19227" height="443.46001" viewBox="0,0,395.19227,443.46001"><defs><linearGradient x1="172.84005" y1="262.99539" x2="172.84005" y2="449.95101" gradientUnits="userSpaceOnUse" id="color-1"><stop offset="0" stop-color="#ffffff" stop-opacity="0.26046"/><stop offset="1" stop-color="#ffffff" stop-opacity="0"/></linearGradient><linearGradient x1="273.57563" y1="260.99539" x2="273.57563" y2="447.95101" gradientUnits="userSpaceOnUse" id="color-2"><stop offset="0" stop-color="#ffffff" stop-opacity="0.26046"/><stop offset="1" stop-color="#ffffff" stop-opacity="0"/></linearGradient></defs><g transform="translate(-70.22292,-4.65558)"><g data-paper-data="{&quot;isPaintingLayer&quot;:true}" fill-rule="nonzero" stroke-linejoin="miter" stroke-miterlimit="10" stroke-dasharray="" stroke-dashoffset="0" style="mix-blend-mode: normal"><g><path d="M423.97019,400.30613c0,0 76.78083,-54.5385 -94.15716,-197.31477c-13.86494,-6.61546 -4.63921,-13.1093 2.13684,-8.26693c185.61343,142.04621 114.81813,223.05067 114.81813,223.05067z" data-paper-data="{&quot;index&quot;:null}" fill="#3a2f41" stroke="#3a2f41" stroke-width="10.5" stroke-linecap="butt"/><g><path d="M384.15852,424.25233c0,0 -1.0474,-2.26245 -1.75272,-3.47156c-0.77159,-1.32272 -2.69586,-4.24536 -2.69586,-4.24536l3.26834,-5.44724c0,0 4.45408,5.48352 6.71827,12.1655c0.10107,0.29827 -5.53803,0.99866 -5.53803,0.99866z" fill="none" stroke="#3a2f41" stroke-width="5" stroke-linecap="butt"/><path d="M411.18244,422.2759c-8.90182,-0.52319 -19.80763,0.20776 -19.80763,0.20776c0,0 -2.17302,-4.47626 -3.51529,-6.64218c-1.32047,-2.13076 -4.47399,-6.24962 -4.47399,-6.24962c0,0 2.81399,0.72806 5.99196,-1.54338c0.54308,-0.38817 -5.4713,1.50999 -6.35511,0.18157c-0.29424,-0.44227 0.10156,-1.16428 0.32372,-1.92794c0.26701,-0.91783 0.40424,-1.89582 0.40259,-2.52064c-0.0041,-1.55347 -3.58259,-6.35023 -2.54205,-4.63015c0.14954,0.24719 1.36633,4.23507 1.18024,4.99331c-2.66582,10.86232 -8.62479,22.96918 -8.62479,22.96918l-14.16282,2.54204c0,0 4.85391,-8.15986 7.96325,-18.16779c2.58662,-8.32545 2.40809,-17.32985 3.38517,-19.055c2.33273,-4.11873 7.86688,-4.72018 12.26023,-3.31552c5.39326,1.72435 10.59889,11.37439 15.70137,16.34945c7.23467,7.05399 13.89133,9.66289 13.89133,9.66289l-6.53668,-5.26567c0,0 13.168,-0.2142 28.87036,4.90251c0.8635,0.28138 6.53668,5.62881 6.53668,5.62881c0,0 -4.24773,-6.46357 -4.86014,-6.97246c-4.18982,-3.48156 -23.10234,-5.01146 -23.10234,-5.01146c0,0 -2.39418,-4.00555 -1.08945,-6.53668c2.7939,-5.4201 8.17341,-11.89782 9.16951,-11.89314c5.96932,0.02803 17.36316,6.20673 26.07175,13.18032c8.90178,7.12828 13.92614,14.43023 15.05489,15.78082c0.94013,1.12491 -2.90519,3.44991 -2.90519,3.44991l-3.08677,-1.63417c0,0 2.56919,2.52294 2.72361,2.72362c3.5633,4.63074 -0.40468,13.35883 -7.25492,15.67446c-11.08098,3.74577 -30.00554,2.249 -36.48883,0.1462c-1.44851,-0.46981 -2.73934,-0.20524 -2.73934,-0.20524c0,0 -17.55497,1.77308 -35.06976,3.34289c-10.98224,0.98431 -21.59175,2.77022 -27.04327,1.24908c-4.40457,-1.229 -8.39355,-5.30826 -2.70909,-9.13135c1.99683,-1.34296 11.9943,-2.52467 22.02903,-4.73494c6.87505,-1.51432 12.80415,-4.18585 20.02562,-5.0377c17.1003,-2.01716 32.20935,-1.03105 32.20935,-1.03105c0,0 -2.52138,-0.95559 -11.4232,-1.47878z" fill="none" stroke="#3a2f41" stroke-width="5" stroke-linecap="round"/><path d="M358.60888,418.83763c1.2509,-3.77058 2.94583,-9.7568 4.31489,-13.73521c1.35114,-3.92633 3.26181,-5.90668 4.71146,-5.45344c2.27409,0.71099 -2.06944,12.57078 -5.90396,21.33379c-2.28726,5.22708 -4.62736,9.3523 -4.62736,9.3523c0,0 -1.70148,0.27278 -2.45939,0.31825c-0.7552,0.04531 -2.07998,-0.04588 -2.07998,-0.04588c0,0 4.27226,-6.42822 6.04435,-11.76981z" fill="none" stroke="#3a2f41" stroke-width="5" stroke-linecap="round"/><path d="M411.18244,422.2759c-8.90182,-0.52319 -19.80763,0.20776 -19.80763,0.20776c0,0 -2.17302,-4.47626 -3.51529,-6.64218c-1.32047,-2.13076 -4.47399,-6.24962 -4.47399,-6.24962c0,0 2.81399,0.72806 5.99196,-1.54338c0.54308,-0.38817 -5.4713,1.50999 -6.35511,0.18157c-0.29424,-0.44227 0.10156,-1.16428 0.32372,-1.92794c0.26701,-0.91783 0.40424,-1.89582 0.40259,-2.52064c-0.0041,-1.55347 -3.58259,-6.35023 -2.54205,-4.63015c0.14954,0.24719 1.36633,4.23507 1.18024,4.99331c-2.66582,10.86232 -8.62479,22.96918 -8.62479,22.96918l-14.16282,2.54204c0,0 4.85391,-8.15986 7.96325,-18.16779c2.58662,-8.32545 2.40809,-17.32985 3.38517,-19.055c2.33273,-4.11873 7.86688,-4.72018 12.26023,-3.31552c5.39326,1.72435 10.59889,11.37439 15.70137,16.34945c7.23467,7.05399 13.89133,9.66289 13.89133,9.66289l-6.53668,-5.26567c0,0 13.168,-0.2142 28.87036,4.90251c0.8635,0.28138 6.53668,5.62881 6.53668,5.62881c0,0 -4.24773,-6.46357 -4.86014,-6.97246c-4.18982,-3.48156 -23.10234,-5.01146 -23.10234,-5.01146c0,0 -2.39418,-4.00555 -1.08945,-6.53668c2.7939,-5.4201 8.17341,-11.89782 9.16951,-11.89314c5.96932,0.02803 17.36316,6.20673 26.07175,13.18032c8.90178,7.12828 13.92614,14.43023 15.05489,15.78082c0.94013,1.12491 -2.90519,3.44991 -2.90519,3.44991l-3.08677,-1.63417c0,0 2.56919,2.52294 2.72361,2.72362c3.5633,4.63074 -0.40468,13.35883 -7.25492,15.67446c-11.08098,3.74577 -30.00554,2.249 -36.48883,0.1462c-1.44851,-0.46981 -2.73934,-0.20524 -2.73934,-0.20524c0,0 -17.55497,1.77308 -35.06976,3.34289c-10.98224,0.98431 -21.59175,2.77022 -27.04327,1.24908c-4.40457,-1.229 -8.39355,-5.30826 -2.70909,-9.13135c1.99683,-1.34296 11.9943,-2.52467 22.02903,-4.73494c6.87505,-1.51432 12.80415,-4.18585 20.02562,-5.0377c17.1003,-2.01716 32.20935,-1.03105 32.20935,-1.03105c0,0 -2.52138,-0.95559 -11.4232,-1.47878z" fill="#e1e2db" stroke="none" stroke-width="0.5" stroke-linecap="round"/><path d="M352.56454,430.60744c0,0 2.80747,-3.24633 6.04434,-11.76981c1.41037,-3.71388 2.94583,-9.7568 4.31489,-13.73521c1.35114,-3.92633 3.26181,-5.90668 4.71146,-5.45344c2.27409,0.71099 -2.06944,12.57078 -5.90396,21.33379c-2.28726,5.22708 -4.62736,9.3523 -4.62736,9.3523c0,0 -1.70148,0.27278 -2.45939,0.31825c-0.7552,0.04531 -2.07998,-0.04588 -2.07998,-0.04588z" fill="#e1e2db" stroke="none" stroke-width="0.5" stroke-linecap="round"/><path d="M384.15852,424.25233c0,0 -1.0474,-2.26245 -1.75272,-3.47156c-0.77159,-1.32272 -2.33415,-3.52194 -2.33415,-3.52194l2.00234,-6.89409c0,0 5.35836,6.20694 7.62255,12.88892c0.10107,0.29827 -5.53803,0.99866 -5.53803,0.99866z" fill="#8c9ca0" stroke="none" stroke-width="0.5" stroke-linecap="butt"/><path d="M411.18244,422.2759c-8.90182,-0.52319 -19.80763,0.45776 -19.80763,0.45776c0,0 -2.17303,-4.72626 -3.51529,-6.89218c-1.32047,-2.13076 -4.47398,-6.24962 -4.47398,-6.24962c0,0 2.81398,0.72806 5.99195,-1.54338c0.54308,-0.38817 -5.4713,1.50999 -6.35511,0.18157c-0.29424,-0.44227 0.10156,-1.16428 0.32371,-1.92794c0.26701,-0.91783 0.40423,-1.89582 0.40258,-2.52064c-0.0041,-1.55347 -3.58258,-6.35023 -2.54204,-4.63015c0.14954,0.24719 1.36633,4.23507 1.18024,4.99331c-2.66582,10.86232 -8.62479,22.96918 -8.62479,22.96918l-14.16282,2.54204c0,0 11.21418,-4.6853 17.67318,-23.33638c3.20458,-9.25358 0.90407,-13.69634 4.63488,-14.72918c4.80403,-1.32996 29.27513,30.6856 29.27513,30.6856z" fill="#8c9ca0" stroke="none" stroke-width="0.5" stroke-linecap="round"/><path d="M449.94304,404.89098c7.60588,6.54108 11.93465,12.81056 12.97216,14.05198c0.94013,1.12491 -2.9052,3.44991 -2.9052,3.44991l-3.08677,-1.63417c0,0 2.5692,2.52294 2.72362,2.72362c3.5633,4.63074 -0.40468,13.35883 -7.25492,15.67446c-11.08098,3.74577 -30.00554,2.249 -36.48883,0.1462c-1.44851,-0.46981 -2.73934,-0.20524 -2.73934,-0.20524c0,0 -17.55496,1.77308 -35.06976,3.34289c-10.98224,0.98431 -21.59175,2.77022 -27.04327,1.24908c-2.37232,-0.66195 -4.62408,-2.15074 -5.30878,-3.98101c0,0 4.73667,3.29434 17.39337,1.31322c6.87025,-1.07538 20.00254,-4.38774 33.63794,-4.86728c11.61894,-0.40863 16.67335,2.70666 25.80597,1.0192c5.7174,-1.05642 9.95565,-2.822 11.0376,-4.56518c4.81565,-7.75878 -4.32836,-8.6495 -4.32836,-8.6495c0,0 4.96151,0.27562 6.6388,0.66102c0.88489,0.20333 3.21164,-0.79217 3.16198,-3.14523c-0.04446,-2.10711 -2.4245,-5.58947 -2.4245,-5.58947c1.96808,1.64637 5.00622,4.51006 5.00622,4.51006c0,0 -4.24772,-6.46357 -4.86013,-6.97245c-3.68466,-3.0618 -18.75592,-4.61418 -22.33654,-4.94401c0,0 -1.16656,-3.71941 1.04189,-4.93341c2.03949,-1.12111 7.37816,0.21512 9.36862,1.1214c5.21257,2.37332 11.66155,7.47703 17.37165,7.75685c7.54889,0.36993 7.68659,-7.53296 7.68659,-7.53296z" fill="#8c9ca0" stroke="none" stroke-width="0.5" stroke-linecap="round"/><path d="M420.82547,402.61092c3.6777,1.1071 8.64749,4.42588 8.64749,4.42588c0,0 -5.44503,-2.3226 -7.73503,-2.95171c-3.21684,-0.88373 -5.33833,-0.92946 -5.33833,-0.92946c0,0 2.37815,-1.16116 4.42587,-0.54472z" fill="#3a2f41" stroke="none" stroke-width="0.5" stroke-linecap="round"/></g></g><path d="M112.03885,446.45101l-41.50663,-89.07273c0,0 78.18423,-62.99647 96.66874,-75.82744c10.20678,-7.08501 25.34954,6.07402 28.68253,3.63437l-96.05219,79.03732z" data-paper-data="{&quot;index&quot;:null}" fill="#3a2f41" stroke="url(#color-1)" stroke-width="0.5" stroke-linecap="butt"/><path d="M269.18556,164.57557c0,0 25.07486,-2.48418 28.77348,-0.18441c17.08898,10.62571 42.99214,21.00182 42.99214,21.00182c0,0 0.43381,11.90628 -5.56644,21.00805c-6.00025,9.10179 -22.35805,15.05863 -22.35805,15.05863c0,0 -7.64437,-8.5414 -13.54663,-15.15777c-6.12442,-6.86541 -18.2533,-18.11879 -18.2533,-18.11879l-11.55563,-23.07207" data-paper-data="{&quot;index&quot;:null}" fill="#8c9ca0" stroke="#3a2f41" stroke-width="2" stroke-linecap="round"/><path d="M346.58441,362.22253l-96.05219,-79.03732c3.33299,2.43965 18.47575,-10.71938 28.68253,-3.63437c18.48451,12.83097 96.66874,75.82744 96.66874,75.82744l-41.50663,89.07273z" data-paper-data="{&quot;index&quot;:null}" fill="#3a2f41" stroke="url(#color-2)" stroke-width="0.5" stroke-linecap="butt"/><g data-paper-data="{&quot;index&quot;:null}" stroke="#3a2f41" stroke-width="2"><path d="M328.74764,329.64366c-11.85461,12.88627 -23.21162,18.54204 -23.21162,18.54204l-79.75468,-67.0501l25.39351,-28.86929l86.82742,54.31465c0,0 2.08215,10.73934 -9.25463,23.0627z" data-paper-data="{&quot;index&quot;:null}" fill="#e1e2db" stroke-linecap="butt"/><path d="M271.93683,266.29159l-11.73273,9.31772l-15.31453,-11.42353" fill="none" stroke-linecap="round"/><path d="M268.71245,264.28864l-8.81518,7.16224l-11.16032,-8.40215" fill="none" stroke-linecap="round"/></g><g data-paper-data="{&quot;index&quot;:null}" stroke="#3a2f41" stroke-width="2"><path d="M112.91443,331.0901c-10.97459,-15.27053 -8.03969,-26.59591 -8.03969,-26.59591l86.10656,-56.85686l27.93697,29.69773l-80.13122,74.44921c0,0 -16.37139,-7.47373 -25.87262,-20.69416z" data-paper-data="{&quot;index&quot;:null}" fill="#e1e2db" stroke-linecap="butt"/><path d="M198.1723,259.88677l-15.18008,11.67852l-12.67524,-9.59524" fill="none" stroke-linecap="round"/><path d="M194.12692,258.70895l-11.05786,8.58999l-9.53267,-7.375" fill="none" stroke-linecap="round"/></g><g data-paper-data="{&quot;index&quot;:null}" stroke-linecap="butt"><path d="M201.15663,288.90353l3.44054,-21.02271l35.95855,3.11925l0.89256,18.1803z" fill="#8c9ca0" stroke="#3a2f41" stroke-width="2"/><path d="M201.00132,286.47632l3.44055,-21.02271l15.93187,-11.62203l13.84868,-0.90074l6.178,15.64202l0.89256,18.1803z" fill="#e1e2db" stroke="#e1e2db" stroke-width="3.5"/></g><g data-paper-data="{&quot;index&quot;:null}"><g><g fill="none" stroke="none" stroke-width="1" stroke-linecap="butt" font-family="sans-serif" font-weight="normal" font-size="12" text-anchor="start"><g><g><g/></g></g><g><g><g/></g></g></g><g fill="none" stroke="none" stroke-width="1" stroke-linecap="butt" font-family="sans-serif" font-weight="normal" font-size="12" text-anchor="start"><g><g><g/></g></g><g><g><g/></g></g></g><path d="M292.26876,164.17102c0,0 11.92113,44.39954 -27.29181,60.15095c-2.17658,22.46599 6.16866,39.92501 6.01958,40.06449c0,0 -90.54219,-0.76221 -90.3286,-10.92905c1.33428,-63.51204 34.10233,-103.57283 34.10233,-103.57283c0,0 29.773,-7.01661 40.74944,-5.02213c12.04264,2.18823 37.35464,18.01672 37.35464,18.01672" fill="#3a2f41" stroke="#3a2f41" stroke-width="2" stroke-linecap="round"/><g fill="none" stroke="none" stroke-width="1" stroke-linecap="butt" font-family="sans-serif" font-weight="normal" font-size="12" text-anchor="start"><g/></g></g><path d="M255.43286,210.32604c-0.29446,0.1443 -11.45626,-7.82357 -22.46987,-27.16347c-7.50528,-13.17924 -11.17409,-33.01668 -11.17409,-33.01668c0,0 9.96871,-3.01284 15.41694,-4.22804c6.27162,-1.39885 24.23652,-3.1713 24.23652,-3.1713l28.15461,18.11007c0,0 -11.07129,34.14128 -34.16411,49.46943z" fill="#e1e2db" stroke="none" stroke-width="0" stroke-linecap="butt"/><path d="M289.59693,160.85661c0,0 -5.53838,17.07904 -16.95132,32.50108c-5.85035,-4.03552 -11.60499,-7.7092 -18.53363,-12.13945c-10.71437,-6.8509 -20.03432,-12.76078 -29.22432,-18.36164c-2.07411,-7.17018 -3.09881,-12.71071 -3.09881,-12.71071c0,0 9.96871,-3.01284 15.41694,-4.22804c6.27162,-1.39885 24.23652,-3.1713 24.23652,-3.1713l28.15461,18.11007z" fill="#8c9ca0" stroke="none" stroke-width="0" stroke-linecap="butt"/><path d="M255.71799,205.71561c0,0 -9.50366,-8.13832 -14.82485,-16.81395c-0.24135,-0.40058 10.93625,-14.45936 10.93625,-14.45936l10.96506,2.01644c0,0 0.90195,2.19871 1.97064,4.99217c1.71888,4.493 3.86909,10.5246 3.39153,11.42084c-2.80761,5.26896 -12.43864,12.84385 -12.43864,12.84385z" fill="#3a2f41" stroke="#3a2f41" stroke-width="2" stroke-linecap="butt"/><path d="M255.43286,210.32604c-0.29446,0.1443 -11.45626,-7.82357 -22.46987,-27.16347c-7.50528,-13.17924 -11.17409,-33.01668 -11.17409,-33.01668c0,0 9.96871,-3.01284 15.41694,-4.22804c6.27162,-1.39885 24.23652,-3.1713 24.23652,-3.1713l28.15461,18.11007c0,0 -11.07129,34.14128 -34.16411,49.46943z" fill="none" stroke="#3a2f41" stroke-width="2" stroke-linecap="butt"/><path d="M253.04298,170.4985l2.10552,-11.91562l10.06663,1.7788l-2.10551,11.91562z" fill="#3a2f41" stroke="#3a2f41" stroke-width="2" stroke-linecap="butt"/><g><path d="M269.26635,167.75725l-8.12307,-12.19598c0,0 10.06011,-6.69396 14.26753,-8.80169c0.92132,-0.46154 1.16329,0.08888 1.36712,0.21184c0.45578,0.55201 2.78927,6.95143 2.14561,7.23722z" data-paper-data="{&quot;index&quot;:null}" fill="#8c9ca0" stroke="#3a2f41" stroke-width="4.5" stroke-linecap="round"/><path d="M248.77081,164.89385c0,0 -9.68117,-13.99434 -10.11794,-17.78443c0.39173,-1.75948 4.24808,-8.94745 5.01112,-6.56244c1.07884,0.83054 21.36113,-0.04888 25.7518,3.77304c3.69027,3.21224 -8.31642,11.28799 -8.31642,11.28799z" fill="#3a2f41" stroke="#3a2f41" stroke-width="4.5" stroke-linecap="round"/><path d="M241.20185,146.96817c0.34598,-1.7023 1.37767,-5.84281 2.10168,-6.06606c1.43768,-0.96425 14.35959,-4.51663 17.36649,-4.47395c1.9023,0.027 14.00836,9.27851 14.58626,10.16465c1.12211,0.84146 1.53278,6.01608 1.42442,6.62933" fill="none" stroke="#3a2f41" stroke-width="6.5" stroke-linecap="butt"/><g><path d="M269.30262,167.5518l-7.95393,-11.95424c0,0 10.06012,-6.69397 14.26753,-8.8017c0.92132,-0.46155 1.16329,0.08888 1.36712,0.21184c0.45579,0.55202 2.78927,6.95143 2.14561,7.23722z" data-paper-data="{&quot;index&quot;:null}" fill="#8c9ca0" stroke="#12161a" stroke-width="0" stroke-linecap="round"/><path d="M248.77082,164.89387c0,0 -9.68116,-13.99435 -10.11794,-17.78444c0.39173,-1.75947 4.24808,-8.94744 5.01112,-6.56244c1.98559,1.52859 17.43537,15.06102 17.43537,15.06102z" fill="#8c9ca0" stroke="#12161a" stroke-width="0" stroke-linecap="round"/><path d="M241.20185,146.96811c0.34598,-1.7023 1.37767,-5.84281 2.10168,-6.06606c1.43768,-0.96425 14.35959,-4.51661 17.36649,-4.47395c1.90231,0.027 14.00837,9.27851 14.58627,10.16465c1.12211,0.84146 1.53278,6.01608 1.42442,6.62933" fill="none" stroke="#8c9ca0" stroke-width="2" stroke-linecap="butt"/></g></g></g><path d="M166.80507,309.89156c-86.49326,27.1436 -90.07429,-9.79262 -74.94148,-37.65317c20.54463,-37.82408 88.11081,-90.46947 88.11081,-90.46947" fill="none" stroke="#3a2f41" stroke-width="25" stroke-linecap="round"/><path d="M220.528,170.17393l-18.03459,12.26906l-19.53074,27.00781c0,0 -16.711,-4.87892 -23.29125,-13.57062c-6.58026,-8.69168 -6.92275,-20.60095 -6.92275,-20.60095c0,0 25.17243,-12.041 41.53313,-23.75707c3.54101,-2.53576 29.72441,-3.68982 29.72441,-3.68982z" data-paper-data="{&quot;index&quot;:null}" fill="#e1e2db" stroke="#3a2f41" stroke-width="2" stroke-linecap="round"/><g><g><path d="M225.8976,357.49357c-16.3876,10.04408 -23.30955,-13.48064 -21.20381,-28.31357c0.70789,-4.98646 -17.35335,-6.31607 -17.45411,-14.37376c-0.10076,-8.05768 -0.0906,-7.72406 4.94546,-7.78702c1.25956,-0.01574 6.51974,1.46315 11.79659,0.57804c4.07842,-0.68408 6.39123,-0.57614 9.17288,-0.41837c1.85025,0.10494 5.4878,1.14202 7.16299,4.77383c2.05041,4.44532 2.11484,12.12466 4.16999,18.65399c3.53393,11.22748 9.37802,22.00321 1.41002,26.88686z" fill="#8c9ca0" stroke="#3a2f41" stroke-width="3" stroke-linecap="butt"/><g><path d="M238.49281,346.45043c0.07536,6.02634 -8.28841,5.86688 -12.24954,5.91642c-3.96113,0.04953 -7.74062,-6.13812 -7.81598,-12.16447c-0.04651,-3.71914 0.12375,-9.03162 0.89044,-14.15834c0.25178,-1.68365 -13.08292,-11.26111 -12.68006,-12.79433c0.35812,-1.36303 14.42136,5.21568 15.13506,5.20675c3.96113,-0.04953 16.64474,21.96763 16.7201,27.99398z" fill="#8c9ca0" stroke="none" stroke-width="0" stroke-linecap="butt"/><path d="M225.56623,301.46519c0.01228,0.07734 1.30696,3.75539 4.9445,7.42742c4.16691,4.20642 10.72737,8.62321 10.35804,11.32793c-0.26357,1.93013 -3.25917,8.65759 0.1133,21.46231c0.82043,3.11506 -2.08135,6.79335 -5.47015,7.13747c-7.7361,0.78559 -11.7512,-1.78542 -12.75055,-9.49681c-1.05816,-8.16492 -0.34501,-16.28492 -0.71094,-16.16595c-3.11924,-2.69299 -6.30803,-5.68466 -8.48489,-6.47978c-7.02984,-2.56774 -13.04941,-5.70562 -9.36307,-4.3127c12.75511,4.81964 12.23913,17.21668 11.39848,23.83361c-1.422,11.19295 1.59774,18.0482 -1.78745,25.54855c-1.98257,4.39266 -5.59768,2.96306 -7.80459,4.39428c-2.14202,1.38912 -8.262,-3.98424 -11.17957,-11.41872c-2.2643,-5.76984 -2.3002,-12.64032 -3.15212,-17.77387c-0.74906,-4.5136 -2.42111,-7.68077 -2.76077,-7.62681c-3.79857,0.60334 -27.80861,-21.91758 -28.5628,-26.66576c-0.75417,-4.74818 9.04529,-13.35931 12.84385,-13.96264c0.72464,-0.1151 5.18795,-1.12987 8.17246,0.55589c1.42694,0.806 4.09356,0.20377 5.55769,1.24256c3.47586,2.46609 6.05139,6.81208 11.50848,8.12315c12.6389,3.03652 26.75198,0.46875 27.13019,2.84993z" fill="#e1e2db" stroke="none" stroke-width="NaN" stroke-linecap="butt"/><path d="M160.70228,332.38525c-1.74441,-3.08115 -3.8066,-1.96475 -5.52548,-5.07535c-2.04887,-3.70778 -3.01285,-6.8368 -2.89804,-11.20366c0.05573,-2.1195 1.17118,-4.04504 1.33127,-6.0501c0.69134,-2.21663 0.65836,-4.55973 1.36823,-6.77506c0.85518,-2.66873 3.45334,-4.78739 5.0546,-7.00259c1.49953,-1.5349 2.86853,-3.04246 4.47136,-4.52824l0.05558,-0.09385c0,0 0.28376,-0.39089 0.68142,-0.14802c0.00423,-0.09903 0.00762,-0.19769 0.01005,-0.29598c0,0 0.02083,-0.52189 0.54272,-0.50108c0.52189,0.02083 0.50108,0.54272 0.50108,0.54272c-0.17496,3.40151 -1.78016,8.12918 2.09508,9.8517c1.03284,0.47428 2.0749,0.36939 3.23396,0.47101l0.56859,0.04987c0.16822,-0.00648 0.28293,0.05612 0.36051,0.13614c0.08521,0.07177 0.15569,0.18176 0.16103,0.34991c0.67697,4.23577 1.80285,7.4747 3.43677,11.33464c2.16735,3.62367 4.87913,5.84885 8.83058,7.63844c2.4152,1.11494 6.72792,1.69188 6.72792,1.69188c0,0 0.6582,1.85726 0.90276,2.83103c1.03997,4.14135 1.48693,7.45625 1.10395,11.7449c0.0185,0.31322 0.04002,0.62845 0.06378,0.94524c0.11457,0.12825 0.14049,0.29154 0.14049,0.29154c0.78811,4.96192 1.57623,9.92382 2.36434,14.88572c0.82963,5.22325 2.80191,7.9898 7.37007,10.00679c2.79299,0.87998 5.54965,1.18974 8.41517,0.84442c0.09911,-0.05493 0.20074,-0.10634 0.30532,-0.15349c0.02797,-0.15526 0.12443,-0.35401 0.42822,-0.40228c0.51584,-0.08193 0.59778,0.43392 0.59778,0.43392c0,0 -2.43741,1.0276 -3.96083,1.76463c-2.91299,1.40934 -9.41033,1.21301 -12.25254,-0.08609c-4.6102,-2.11704 -5.77279,-4.09738 -7.53048,-8.84007c-0.82216,-5.05953 0.04336,-10.60793 0.49156,-15.75813c0.02482,-0.28084 0.93532,-3.53002 0.18079,-5.57716c-1.04928,-2.84689 -3.57977,-4.72693 -3.54553,-5.11657c-1.53078,3.26758 -6.84638,9.36726 -7.16084,13.02808c-0.11419,2.68937 4.66359,9.11495 4.82052,11.78313c0.14376,2.44396 0.06859,-0.39676 0.45429,2.03166c0.71779,4.51924 -5.68573,12.08109 -8.52724,10.77625l-0.74078,-0.00973c-1.27297,0.15811 -4.76638,0.20485 -6.90869,-1.21919c-2.54362,-1.69079 -3.70452,-5.00886 -4.31705,-6.40674c-1.9582,-5.28065 -7.52825,-9.04238 -7.61785,-14.53739z" fill="#8c9ca0" stroke="none" stroke-width="0.5" stroke-linecap="butt"/><path d="M179.53285,296.80314c15.26382,-3.87631 21.43812,3.77432 23.54795,3.29348c8.33245,-0.29212 11.74104,-0.7348 16.75002,-0.96805c6.10134,-0.28414 4.27314,2.59383 10.52619,9.42057c3.00721,3.28313 9.93618,7.04759 10.75251,9.67603c1.35073,4.34904 -2.74316,9.97231 -0.27677,22.41772c0.68393,3.45116 -0.7513,7.86462 -3.92478,9.9955c-4.85711,3.2614 -12.77798,2.80941 -15.51034,-1.83066c-7.37677,-12.52719 -1.10383,-21.7127 -3.55181,-25.97808c-0.34161,-0.38922 -17.92593,-11.98873 -17.92593,-11.98873" fill="none" stroke="#3a2f41" stroke-width="3" stroke-linecap="round"/><path d="M202.05431,311.56732c4.08383,2.42247 12.01989,5.76611 13.43184,11.95048c1.69814,7.72362 -0.29501,13.87995 -0.64484,20.14124c-0.28151,5.03841 1.45898,10.13282 -0.26646,16.25799c-1.62307,9.24502 -19.81474,8.47896 -23.56347,-0.12637c-2.83508,-6.50791 -1.94519,-15.66455 -1.48616,-20.80254c0.21246,-2.37812 0.09,-4.38278 0.09,-4.38278c0,0 -2.20994,-1.78361 -2.95664,-4.79697" fill="none" stroke="#3a2f41" stroke-width="3" stroke-linecap="round"/><path d="M186.12767,330.21425c0,0 -1.18847,2.88405 -2.97781,5.90378c-1.44396,2.43684 -3.47172,4.76725 -4.09066,7.25059c-0.49016,1.9666 4.40482,6.1033 5.39522,12.21923c0.7713,4.76293 -1.16242,9.55645 -4.74857,11.33224c-3.71711,1.84065 -8.65382,2.31076 -11.94435,-0.40662c-1.68195,-1.38899 -2.15319,-4.57169 -3.42659,-6.84182c-2.46973,-4.40293 -7.28708,-8.30217 -7.21829,-14.20341c0.03436,-2.94825 1.23617,-5.14615 2.81799,-11.14858c1.71573,-6.51064 -1.24554,-14.873 1.87782,-22.36404c1.78614,-4.28393 5.81391,-8.72873 5.81391,-8.72873" fill="none" stroke="#3a2f41" stroke-width="3" stroke-linecap="round"/><path d="M160.39031,330.70997c0,0 -3.14221,0.17653 -5.28055,-3.35543c-3.6278,-5.99215 -5.799,-18.58539 4.7564,-31.23586c3.93972,-4.72168 13.72436,-8.28444 19.09887,-7.95958c3.22226,0.19477 6.56326,1.23465 8.60779,2.50287c3.68189,2.28385 4.76343,5.28808 4.76343,5.28808" fill="none" stroke="#3a2f41" stroke-width="3" stroke-linecap="round"/><path d="M211.24302,315.65762c-0.25686,-0.17081 -0.51229,-0.34368 -0.76608,-0.51898c-3.5896,-2.47928 -6.87445,-3.05232 -6.87445,-3.05232c0,0 2.60439,1.51353 5.89254,4.33887c0.22453,0.03783 0.4287,0.14835 0.58287,0.31001l1.41334,1.44483l-0.01137,0.01113c0.03524,0.03185 0.06993,0.06438 0.10408,0.09761c1.00566,0.97903 3.2186,3.88818 3.09754,8.23746c0.20137,1.55729 -1.24123,-0.85592 -1.08406,0.36159l-0.02032,0.06412l0.02271,-0.00015l0.00783,1.16613c0.01202,0.51471 -0.35809,0.97176 -0.88061,1.05477c-0.41185,0.06542 -0.80567,-0.11944 -1.02652,-0.44214l-1.20273,-1.68056l0.26888,-0.19243c-2.05849,-2.76181 -2.64618,-5.6504 -4.72112,-8.89916c-0.86066,-1.34756 -3.48364,-3.95068 -3.23294,-2.37149c0.02783,0.17524 0.01035,0.34725 -0.04379,0.50404c0.01596,0.04997 0.02834,0.10176 0.03682,0.15516c0.0905,0.56977 -0.29804,1.10504 -0.86782,1.19555c-0.41185,0.06542 -0.80567,-0.11944 -1.02652,-0.44214l-1.20272,-1.68055l0.01029,-0.00737l-0.03191,-0.02406c-0.66653,-1.09021 -1.48245,-2.02172 -1.97924,-3.05058c-0.19715,-0.24498 -0.40083,-0.5026 -0.6147,-0.77555l-1.27684,-1.62959c-0.1125,-0.13807 -0.19117,-0.30679 -0.22112,-0.49535c-0.06447,-0.40596 0.11425,-0.79443 0.42841,-1.01696c-0.00995,-0.03648 -0.01802,-0.07388 -0.02408,-0.1121c-0.07798,-0.49093 0.19965,-0.95621 0.64245,-1.13351c-0.20685,-0.15712 -0.35574,-0.39113 -0.39972,-0.66793c-0.0905,-0.56977 0.29804,-1.10504 0.86782,-1.19555c0.15243,-0.02422 0.30241,-0.01414 0.44203,0.0245l1.22262,0.30877c1.30008,0.18323 2.66038,-0.20421 3.93807,0.09857c1.62075,0.38409 3.40227,1.77861 4.80567,3.23919l0.36993,0.1992l0.02977,-0.04933l1.0214,0.6164c0.25755,0.1531 0.44768,0.41534 0.49836,0.73438c0.05799,0.365 -0.08063,0.71584 -0.33753,0.94466c4.41064,2.65866 8.74623,5.78551 13.06334,8.49963l-0.56412,1.94332c0,0 -0.76986,0.12228 -1.08515,-0.50944z" fill="#e1e2db" stroke="none" stroke-width="0.5" stroke-linecap="butt"/><path d="M204.13733,302.79618c-0.61365,0.84538 -1.45902,0.23174 -1.45902,0.23174l-0.45858,-0.34862c-3.62122,-1.84605 -7.45385,-3.9743 -11.54109,-4.43783c-4.13913,-0.46944 -8.51232,0.23517 -12.55176,0.88675c0,0 -1.0317,0.16386 -1.19556,-0.86782c-0.16386,-1.03169 -0.71988,-2.32017 -0.71988,-2.32017c4.26938,-0.6662 10.29038,-0.40127 14.66287,0.0987c4.30436,0.49218 8.48182,2.8355 12.29432,4.77906l0.73699,0.51919c0,0 0.84538,0.61365 0.23174,1.45902z" fill="#e1e2db" stroke="none" stroke-width="0.5" stroke-linecap="butt"/><path d="M169.90163,319.93278c0.09336,7.46521 -1.84823,13.54219 -4.33663,13.57329c-2.4884,0.03112 -4.27979,-6.00528 -4.67468,-13.46061c-0.5618,-10.60665 4.64943,-18.33903 7.13782,-18.37015c2.4884,-0.03112 1.78013,10.79226 1.87349,18.25747z" fill="#8c9ca0" stroke="none" stroke-width="0" stroke-linecap="butt"/><path d="M188.94766,333.38594c0,0 0.81309,-5.67079 5.24907,-8.46509c-1.74663,1.92812 -2.6514,5.40661 -2.97893,7.75284c-0.40634,2.91085 -0.28312,4.79151 -0.28312,4.79151" data-paper-data="{&quot;index&quot;:null}" fill="#3a2f41" stroke="none" stroke-width="0" stroke-linecap="round"/><path d="M179.82653,347.86566c-1.22632,-2.1234 -4.61478,-8.01042 -4.61478,-8.01042c0,0 3.41784,1.98087 5.44434,5.0841" data-paper-data="{&quot;index&quot;:null}" fill="#3a2f41" stroke="none" stroke-width="0" stroke-linecap="round"/><path d="M184.29054,332.53975c0,0 1.27324,-3.07075 1.1348,-3.77132c-0.70839,-3.5848 0.027,-8.20587 0.027,-8.20587c0,0 0.70616,5.42074 3.40004,9.85854c1.17715,2.69303 1.671,2.37877 1.671,2.37877" data-paper-data="{&quot;index&quot;:null}" fill="#3a2f41" stroke="none" stroke-width="0" stroke-linecap="round"/></g></g><path d="M172.88188,312.87697c2.02419,3.68793 4.27472,6.91839 3.70334,7.23199c-0.57137,0.31361 -3.74826,-2.4084 -5.77246,-6.09633c-2.02419,-3.68793 -1.70275,-7.16513 -1.13136,-7.47876c0.57137,-0.31361 1.17628,2.65514 3.20048,6.34307z" fill="#3a2f41" stroke="none" stroke-width="NaN" stroke-linecap="butt"/><path d="M182.40683,299.41183c0.17932,-0.62662 3.49907,-1.70996 7.54363,-0.55253c4.04456,1.15743 7.40239,3.65283 7.22307,4.27944c-0.17932,0.62662 -3.62406,-1.71372 -7.66863,-2.87116c-4.04456,-1.15743 -7.2774,-0.22915 -7.09807,-0.85576z" data-paper-data="{&quot;index&quot;:null}" fill="#3a2f41" stroke="none" stroke-width="NaN" stroke-linecap="butt"/><path d="M177.00927,303.3924c0.3754,-0.53281 3.86677,-0.4643 7.30582,1.95873c3.43904,2.42303 5.7896,5.88379 5.41419,6.41659c-0.3754,0.53281 -3.3346,-2.06409 -6.77365,-4.48711c-3.43904,-2.42303 -6.32178,-3.35541 -5.94637,-3.88821z" data-paper-data="{&quot;index&quot;:null}" fill="#3a2f41" stroke="none" stroke-width="NaN" stroke-linecap="butt"/></g><g><g><path d="M363.91523,94.25002c18.70864,0 42.125,5.8019 42.125,9.875c0,4.0731 -26.91635,6.125 -45.625,6.125c-18.70864,0 -24.125,0.9481 -24.125,-3.125c0,-4.0731 8.91636,-12.875 27.625,-12.875z" fill="#8c9ca0" stroke="#3a2f41" stroke-width="2" stroke-linecap="butt"/><path d="M350.93056,100.7388c0,0 -35.7792,-15.81778 -33.93928,-17.2858c1.96316,-10.02376 -21.29805,-55.30403 -21.29805,-55.30403c0,0 60.5933,39.93608 56.0418,60.28092c-2.17185,9.70807 -0.80446,12.30891 -0.80446,12.30891z" fill="#3a2f41" stroke="#3a2f41" stroke-width="2.5" stroke-linecap="butt"/><g stroke-linecap="butt"><path d="M264.53674,104.45429c3.58104,-5.71801 11.81156,-13.10752 23.01867,-14.57096c14.34673,-1.8734 35.87538,-1.92957 43.54606,2.87439c6.86484,4.29928 7.65331,23.36527 15.17212,40.94116c7.44548,17.4045 30.94591,29.00595 30.94591,29.00595c0,0 -37.32428,35.04495 -80.46801,3.59902c-13.53472,-8.75774 -34.18277,-58.70715 -32.21475,-61.84957z" fill="#3a2f41" stroke="#3a2f41" stroke-width="2.5"/><path d="M237.90005,105.22849c11.49038,-11.30744 46.27071,-24.55965 53.15304,-17.56598c1.25237,1.27263 34.34954,36.04501 39.69236,61.04569c1.73383,8.11318 39.76928,15.40425 36.98048,18.20093c-26.24177,24.02798 -98.89368,18.46455 -124.80378,-7.45703c-14.38771,-14.39409 -19.10451,-40.36541 -5.02209,-54.22361z" data-paper-data="{&quot;index&quot;:null}" fill="#3a2f41" stroke="#3a2f41" stroke-width="2.5"/><path d="M244.90607,83.79363c14.38165,-7.28384 49.04393,-9.84756 53.47727,-1.09409c1.06854,2.10981 -20.44192,58.33881 -34.75329,65.75751c-9.18451,4.76103 -9.89525,16.65347 -18.74336,11.76323z" data-paper-data="{&quot;index&quot;:null}" fill="#3a2f41" stroke="#3a2f41" stroke-width="2.5"/><path d="M273.68676,101.07912c1.78685,-6.50589 -12.45327,-23.94888 -2.13941,-28.57114c28.45325,-19.16713 53.80769,-4.15751 62.53533,-1.76046c7.81075,2.14522 7.04488,6.68046 19.29724,21.35437c12.13288,14.53082 35.39745,24.38754 35.39745,24.38754c0,0 -3.12204,22.65366 -22.72387,32.92346c-9.88006,5.17636 -31.03334,5.34168 -43.73737,1.64963c-15.4805,-4.49896 -49.61137,-46.40802 -48.62937,-49.98345z" fill="#3a2f41" stroke="#3a2f41" stroke-width="2.5"/><g data-paper-data="{&quot;index&quot;:null}"><path d="M329.47562,148.10915c-0.77331,3.67531 -4.45815,10.69093 -4.45815,10.69093c0,0 -1.26524,7.07022 -3.29643,9.80472c-0.20681,0.27843 -1.61587,0.96446 -1.82817,1.25557c-2.35692,3.23185 -9.31424,7.48975 -13.8541,8.51559c-6.00751,1.35747 -9.53436,-4.74507 -18.2801,-6.51873c-11.87729,-2.40874 -20.05917,4.11663 -30.42486,-2.16226c-7.88809,-4.77811 -4.36494,-11.75181 -6.1914,-14.45407c-4.87672,-7.21515 -5.82898,-15.81413 -4.01038,-24.4574c3.75503,-17.8466 21.0515,-37.87996 55.39597,-29.6259c22.59201,5.42958 30.70263,29.10494 26.94759,46.95154z" fill="#7c7984" stroke="none" stroke-width="0"/><path d="M329.39229,148.02585c-3.75505,17.84659 -18.19565,3.08752 -36.87194,-0.69423c-18.67257,-3.78099 -49.22669,1.21517 -45.47164,-16.63142c3.75503,-17.8466 21.0515,-37.87996 55.39597,-29.6259c22.59201,5.42958 30.70263,29.10494 26.94759,46.95154z" fill="#626171" stroke="none" stroke-width="0"/><path d="M307.14848,103.80165c23.79629,9.34577 24.93485,31.63457 22.15867,44.82895h-0.00001c-0.67706,3.21785 -4.70652,9.61939 -4.70652,9.61939c0,0 -0.45536,7.17104 -2.80166,10.14802c-3.28932,4.17348 -9.76905,8.80455 -16.06334,9.4428c-6.17349,0.626 -10.63365,-4.80253 -18.84237,-6.35453c-9.73609,-1.84077 -22.12027,3.76252 -29.62538,-1.29922c-6.47831,-4.36923 -6.35129,-12.94615 -6.35129,-12.94615c0,0 0.32348,-1.08073 -0.00989,-1.57852c-4.8182,-7.19454 -5.75335,-15.75404 -3.94314,-24.35743c3.18731,-15.14835 16.13092,-31.87221 40.9752,-31.5352" fill="none" stroke="#3a2f41" stroke-width="2"/><path d="M288.07416,99.55647c0.80479,0.06106 1.59512,0.13171 2.37121,0.2117" fill="none" stroke="#3a2f41" stroke-width="2"/></g><path d="M283.69236,117.80188c1.11742,-4.06849 2.1489,-22.38431 8.79808,-25.22011c8.51191,-3.63022 24.45364,5.01144 30.1184,6.56727c5.06962,1.39238 9.21475,12.73854 17.23572,22.01351c7.94274,9.18452 26.63961,17.10654 26.63961,17.10654c0,0 -21.76252,21.99984 -50.63149,11.27073c-10.04925,-2.91463 -32.77443,-29.50205 -32.16034,-31.73796z" fill="#3a2f41" stroke="#626171" stroke-width="1.5"/><path d="M282.00901,85.72438c7.20637,0.567 12.5637,4.97457 14.92035,8.47419c0.91572,1.35983 5.36943,8.07689 -3.70932,19.08355c-3.76181,4.56066 -10.73144,14.29526 -19.83584,17.65115c-24.04149,8.8617 -37.24572,6.06463 -37.24572,6.06463c0,0 4.04455,-10.46674 8.64314,-21.70487c4.64389,-11.34882 4.95376,-23.42446 9.31455,-26.36105c4.87267,-3.28131 18.68765,-3.93345 27.91285,-3.20762z" data-paper-data="{&quot;index&quot;:null}" fill="#3a2f41" stroke="#3a2f41" stroke-width="2.5"/><path d="M282.9919,89.85941c1.08162,-3.93815 11.788,-4.43096 23.91335,-1.10073c5.26024,1.44472 10.05841,-1.04576 15.43148,5.11828c7.01239,8.04468 10.81494,23.40295 20.53095,32.2041c2.48536,3.24066 -27.75395,-19.73087 -39.8793,-23.0611c-12.12535,-3.33022 -21.07807,-9.22242 -19.99646,-13.16058z" fill="#3a2f41" stroke="none" stroke-width="0"/><path d="M271.97262,82.90993c3.81358,-1.80494 10.6706,-2.85785 17.15565,0.33551c8.30179,4.08797 19.84564,11.70494 22.35877,17.01476c2.2491,4.752 -3.65239,15.2919 -5.45661,27.42062c-1.78664,12.01043 6.90116,23.34788 6.90116,23.34788c0,0 -21.62303,-1.89857 -37.76557,-21.79684c-6.11312,-7.53539 -8.84716,-22.17855 -9.7518,-28.02086c-2.18326,-14.09977 5.07656,-17.59973 6.55838,-18.30106z" data-paper-data="{&quot;index&quot;:null}" fill="#3a2f41" stroke="#3a2f41" stroke-width="2.5"/></g><g data-paper-data="{&quot;index&quot;:null}" stroke="#3a2f41"><path d="M269.25002,29.33321c0,0 25.39181,15.32652 21.48339,37.58718" fill="none" stroke-width="2" stroke-linecap="round"/><g><path d="M247.72471,9.09541c14.72952,5.97546 22.60209,14.72238 20.7497,19.28852c-1.85238,4.56615 -13.91087,4.60624 -28.64038,-1.36922c-14.72952,-5.97546 -24.6999,-20.26984 -24.6999,-20.26984c0,0 17.86107,-3.62491 32.5906,2.35054z" fill="#693333" stroke-width="2" stroke-linecap="butt"/><path d="M229.27314,11.70429c22.40893,4.22481 32.53755,13.19983 32.53755,13.19983" fill="none" stroke-width="1.5" stroke-linecap="round"/><path d="M258.25808,19.1146l0.46036,4.22449l-2.99918,1.26805" fill="none" stroke-width="1.5" stroke-linecap="round"/><path d="M250.09857,15.49385l1.15985,3.26588l-3.21556,1.80145" fill="none" stroke-width="1.5" stroke-linecap="round"/><path d="M241.29736,11.92337l1.05165,3.53258l-2.79036,2.28455" fill="none" stroke-width="1.5" stroke-linecap="round"/><path d="M233.2888,10.22742l1.10954,2.62428l-2.04055,1.96753" fill="none" stroke-width="1.5" stroke-linecap="round"/></g></g><path d="M244.07596,133.57795c-7.45219,-0.80898 -12.30418,-6.60956 -10.83722,-12.95596c1.46696,-6.3464 8.69737,-10.83536 16.14955,-10.02639c7.45219,0.80897 12.30418,6.60955 10.83722,12.95595c-0.71746,3.10395 -2.81358,5.76358 -5.64002,7.57639c-0.16703,0.10713 -14.90501,-18.57633 -15.14337,-18.44919c-0.29054,0.15497 15.11699,18.51171 14.9004,18.6258c-2.74673,1.44681 -6.93706,2.63484 -10.26655,2.2734z" fill="none" stroke-opacity="0.38867" stroke="#ff5a7a" stroke-width="2" stroke-linecap="butt"/><path d="M247.50795,113.60612l5.08494,4.04572l-2.75908,3.77953l-5.24246,-3.69473l5.25156,3.6407l-6.23292,8.37195" fill="none" stroke-opacity="0.38867" stroke="#ff5a7a" stroke-width="2" stroke-linecap="round"/><path d="M233.99746,109.85081c-0.01563,-0.66259 1.38826,-2.29963 1.38826,-2.29963l-28.91168,-64.43267c0,0 58.03084,12.55247 82.45731,32.69731c25.74556,21.23271 -55.72317,36.1307 -54.93389,34.03499z" fill="#3a2f41" stroke="#3a2f41" stroke-width="2.5" stroke-linecap="butt"/><path d="M297.95352,151.51155c1.58313,0.24267 2.81734,0.76024 2.75667,1.15602c-0.06067,0.39579 -1.39324,0.51991 -2.97637,0.27724c-1.58313,-0.24267 -2.81734,-0.76024 -2.75667,-1.15602c0.06067,-0.39579 1.39324,-0.51991 2.97637,-0.27724z" fill="#3a2f41" stroke="#3a2f41" stroke-width="1.5" stroke-linecap="butt"/><path d="M231.54024,110.50002l0.75,-6.75l38.75,-1.25v3.75z" fill="#e1e2db" stroke="#3a2f41" stroke-width="2" stroke-linecap="butt"/><path d="M269.15438,108.68554l-2.42408,-8.48779c0,0 90.10212,-21.5726 127.19176,-10.94586c5.62521,1.61171 15.08719,15.93851 10.67111,14.97884c-54.45,-11.83258 -135.43879,4.45481 -135.43879,4.45481z" fill="#e1e2db" stroke="#3a2f41" stroke-width="2" stroke-linecap="butt"/><g stroke-linecap="butt"><path d="M255.24178,140.64582c0,0 12.40861,-26.07159 23.83354,-23.63472c12.23835,2.61037 9.67634,31.60875 9.67634,31.60875c0,0 -6.78362,-2.92062 -16.15551,-5.12979c-8.48003,-1.99894 -17.35437,-2.84424 -17.35437,-2.84424z" data-paper-data="{&quot;index&quot;:null}" fill="#e1e2db" stroke="#3a2f41" stroke-width="1"/><path d="M275.06761,143.76135c0,0 3.03944,-4.37112 5.1,-23.61667c1.30369,9.22453 -1.86667,24.35001 -1.86667,24.35001z" fill="#3a2f41" stroke="none" stroke-width="0"/></g><g stroke="#3a2f41" stroke-width="1" stroke-linecap="butt"><path d="M295.23083,159.50904c0.67341,0.10532 7.58002,0.66847 12.14147,-0.42676c5.50964,-1.32289 7.23144,-4.32607 10.85514,-2.4727c2.85366,1.45952 3.2764,6.38624 -0.36529,10.55673c-3.06041,3.50481 -8.74637,7.57518 -13.23859,7.53382c-5.51878,-0.05081 -10.11482,-4.78542 -16.55868,-5.81745c-7.30925,-1.17063 -16.35036,0.27311 -17.30755,0.44012c-7.40198,1.29152 -19.79204,-2.83491 -15.58657,-16.08488c1.28329,-4.04322 5.49503,-8.12888 12.82517,-8.25644c2.24429,-0.03905 6.65369,1.21596 10.2905,4.21013c4.27257,3.51759 8.1988,8.94965 16.94437,10.31743z" fill="#3a2f41"/><path d="M313.71312,159.34884c-0.51061,1.12684 0.37424,1.64981 -0.03855,2.17353c-0.53015,0.67261 -2.39507,0.81538 -2.39507,0.81538c0,0 -11.75325,2.34734 -20.46086,0.96121c-7.89142,-1.2562 -27.40097,-9.25218 -27.40097,-9.25218c0,0 -1.1157,-0.64806 -1.1982,-1.41865c-0.02965,-0.27698 -0.05364,-1.6841 0.57742,-2.26291c0.9012,-0.8266 2.21838,-0.83235 2.19626,-2.19928c-0.02389,-1.47696 -2.44363,-2.22752 -2.44363,-2.22752c1.57189,-0.5725 3.38595,-0.9211 5.44642,-0.95696c2.24428,-0.03905 6.65369,1.21596 10.2905,4.21013c4.27256,3.51758 8.19881,8.94965 16.94437,10.31743c0.67341,0.10532 7.58002,0.66846 12.14147,-0.42676c4.41729,-1.06061 7.12708,-3.65582 8.87974,-2.96239c0,0 -1.65518,1.2787 -2.53889,3.22895z" fill="#626171"/><path d="M265.73829,159.78417c-0.79647,0.12433 -2.79589,0.2555 -3.15136,-1.54672c-0.35546,-1.80221 0.54298,-7.15612 1.33947,-7.28045c0.48155,-0.07517 1.17177,0.06653 1.48418,0.70598c1.76881,3.62043 0.32772,8.12118 0.32772,8.12118z" fill="#e1e2db"/><path d="M288.05422,168.78869c-7.30925,-1.17063 -16.35036,0.27311 -17.30755,0.44012c-3.84125,0.67023 -9.31051,-0.57406 -11.33943,-3.62202c0,0 -0.88373,-1.84544 1.09462,-1.70434c0.1599,0.0114 2.63436,2.02378 4.16218,1.25037c1.04604,-0.52954 5.10213,0.0823 6.45929,0.11817c11.59899,0.3066 26.87767,0.11969 31.88333,2.98235c1.1386,0.65114 3.58854,1.416 3.58854,1.416c0,0 0.89607,2.10798 -0.66764,3.41188c-4.74775,3.95892 -10.56409,-3.1219 -17.87334,-4.29253z" fill="#626171"/><path d="M307.77556,167.22585c0.53834,1.05137 0.35065,1.59664 -0.74513,2.57478c-1.09575,0.97816 -2.68465,2.01877 -3.22297,0.96741c-0.53833,-1.05138 0.29873,-2.74906 1.39449,-3.72721c1.09575,-0.97817 2.03528,-0.86636 2.57363,0.18502z" fill="#e1e2db"/><path d="M266.93814,164.06363c-0.12747,1.67908 -0.32459,2.4234 -1.35169,2.28516c-1.02709,-0.13824 -2.42892,-4.35374 -2.30145,-6.03281c0.12747,-1.67908 1.57452,-1.37813 2.60164,-1.2399c1.02709,0.13824 1.17898,3.30846 1.05151,4.98753z" fill="#e1e2db"/><path d="M305.26009,166.93311c0.53842,0.95807 -0.07326,2.09385 -1.16873,2.97879c-1.09541,0.88494 -2.25981,1.18391 -2.79823,0.22582c-0.53841,-0.95808 0.3094,-2.28461 1.40483,-3.16953c1.09543,-0.88494 2.02366,-0.99315 2.5621,-0.03508z" fill="#e1e2db"/><path d="M302.20202,168.97797c-0.86094,1.27879 -2.27736,2.09048 -3.14677,1.44361c-0.86942,-0.64686 -0.54097,-2.00657 0.31994,-3.28534c0.86092,-1.27878 2.26367,-1.79106 3.13306,-1.14421c0.86941,0.64684 0.55464,1.70716 -0.30627,2.98595z" fill="#e1e2db"/><path d="M292.33668,165.20845c-0.01274,0.51106 -0.46611,2.25639 -1.03779,2.97788c-0.48309,0.60967 -1.09915,0.70158 -1.3854,0.67785c-0.27958,-0.02317 -1.3,-0.6133 -1.38227,-1.31027c-0.10165,-0.86107 -0.01195,-1.45431 0.39201,-2.93292z" fill="#e1e2db"/><path d="M300.03993,166.43685c-0.19365,0.79217 -2.19775,3.71135 -3.25418,3.48684c-0.51921,-0.11034 -1.05175,-0.89906 -0.8581,-1.69123c0.19365,-0.79217 1.01826,-2.25234 1.5605,-2.33789c0.47014,-0.07419 2.74542,-0.24985 2.55176,0.5423z" fill="#e1e2db"/><path d="M287.54156,167.30713c-0.42506,0.60296 -1.48147,0.62167 -1.89064,0.51873c-0.4189,-0.10537 -0.49331,-0.30084 -0.91344,-1.07483c-0.4972,-0.91594 -0.4385,-2.4302 -0.23109,-2.90477c0.38266,-0.87558 3.73055,-0.32901 3.6882,0.52335c-0.0763,1.53612 -0.12789,2.1926 -0.65302,2.93752z" data-paper-data="{&quot;index&quot;:null}" fill="#e1e2db"/><path d="M310.82638,165.69376c-0.80848,1.4909 -1.89924,2.47283 -2.7175,2.04687c-0.81825,-0.426 -1.44549,-0.83784 -0.637,-2.32873c0.80848,-1.49091 2.45597,-3.58094 3.27422,-3.15495c0.81825,0.426 0.88877,1.9459 0.0803,3.43678z" fill="#e1e2db"/><path d="M276.49232,166.42374c0.00805,1.88181 -1.57442,1.07385 -2.68424,0.93919c-1.10982,-0.13468 -1.6542,-3.86606 -1.66225,-5.74787c-0.00807,-1.88179 2.02244,-1.01551 3.11828,-0.59461c1.05134,0.906 1.22013,3.52148 1.22818,5.40329z" fill="#e1e2db"/><path d="M305.90976,164.59834c0.80404,-1.40702 1.71275,-3.0436 2.63331,-2.80233c0.92058,0.24125 0.63196,3.27964 -0.17207,4.68666c-0.80401,1.40701 -1.58611,1.2742 -2.50667,1.03293c-0.92052,-0.2413 -0.75856,-1.51026 0.04547,-2.91728z" data-paper-data="{&quot;index&quot;:null}" fill="#e1e2db"/><path d="M269.11233,164.14882c0.04333,1.95328 -0.0646,2.82123 -1.00675,2.67551c-0.94214,-0.14575 -2.41038,-4.11598 -2.45375,-6.06925c-0.04334,-1.95328 1.31315,-1.72904 2.2553,-1.5833c0.94214,0.14575 1.16183,3.02377 1.20518,4.97705z" fill="#e1e2db"/><path d="M272.17426,165.15959c0.00818,0.95684 -0.55148,2.20691 -1.64995,2.06756c-1.09845,-0.13937 -2.16238,-3.41389 -2.17953,-5.4247c-0.01719,-2.0108 0.23506,-2.4586 1.33351,-2.31923c0.60544,0.07681 1.68307,0.27667 2.18433,1.59044c0.40818,1.0698 0.30394,3.18343 0.31166,4.08591z" fill="#e1e2db"/><path d="M303.05016,165.09894c0.4715,-1.60612 1.1921,-3.93578 2.21472,-3.81047c1.0226,0.12531 1.81122,2.54272 1.33972,4.14884c-0.47148,1.60612 -1.08215,2.00548 -2.10478,1.88017c-1.02262,-0.12531 -1.92115,-0.61243 -1.44965,-2.21857z" data-paper-data="{&quot;index&quot;:null}" fill="#e1e2db"/><path d="M280.40278,165.97415c-0.42812,2.10223 -1.25862,1.56073 -2.45532,1.35546c-1.19665,-0.20522 -1.91253,-3.7911 -1.48442,-5.89335c0.07775,-0.38174 1.57663,-1.56721 2.71912,-0.34764c0.90508,0.96614 1.40986,3.95628 1.22062,4.88553z" fill="#e1e2db"/><path d="M283.90549,166.19401c-0.10163,1.36031 -0.71829,1.31062 -1.76036,1.2129c-1.04208,-0.09771 -1.97789,-2.81168 -1.87625,-4.17201c0.10163,-1.36033 1.20734,-0.92028 2.24941,-0.82258c1.04208,0.09771 1.48882,2.42135 1.38718,3.78165z" fill="#e1e2db"/><path d="M290.6513,159.38395c0.39612,0.01135 1.44909,0.00807 1.72198,1.04334c0.28839,1.09419 0.34645,3.5917 0.29562,4.7189c-0.0355,0.78689 -1.16321,0.77842 -1.78616,0.69568c-0.65926,-0.08754 -1.44644,-0.70168 -1.93289,-1.34188c-0.16006,-0.21066 -0.19024,-0.82081 -0.0465,-1.4241c0.18419,-0.77303 0.80377,-3.71902 1.74797,-3.69197z" fill="#e1e2db"/><path d="M299.85625,164.7106c0,0 0.4372,-4.03117 2.25348,-3.70699c1.69936,0.30331 1.55435,3.82107 1.48364,5.17886c-0.07073,1.3578 -1.94897,0.45695 -2.97208,0.39185c-1.02311,-0.0651 -0.83577,-0.50594 -0.76505,-1.86373z" data-paper-data="{&quot;index&quot;:null}" fill="#e1e2db"/><path d="M297.29832,166.18947c-0.19634,-0.02844 -0.41518,-0.94069 -0.50782,-1.98476c-0.06239,-0.70313 -0.06754,-1.46603 0.02994,-2.05908c0.14213,-0.86457 0.94578,-1.25247 1.69787,-1.43804c1.70364,-0.42042 1.98757,3.37512 1.67937,5.46211z" fill="#e1e2db"/><path d="M268.94567,159.7813c-0.79616,0.12706 -2.79555,0.25845 -3.15862,-1.61067c-0.36305,-1.86912 0.51335,-7.41729 1.30953,-7.54433c0.48136,-0.07682 1.17235,0.07166 1.4875,0.73528c1.78434,3.75725 0.36159,8.41973 0.36159,8.41973z" fill="#e1e2db"/><path d="M272.85032,160.56948c-1.71117,1.12248 -3.83271,-0.35093 -3.99102,-1.98142c-0.1583,-1.63047 0.68646,-7.00343 1.70939,-7.00413c1.02292,-0.00068 1.72261,-0.49859 2.52874,1.09136c0.75847,1.49596 -0.24711,7.89418 -0.24711,7.89418z" fill="#e1e2db"/><path d="M277.24136,159.87258c0.02246,1.39925 -1.021,1.39506 -2.42075,1.19459c-1.39975,-0.20046 -2.10011,-0.93927 -2.12258,-2.33851c-0.02246,-1.39925 1.47323,-6.38576 2.87297,-6.18531c0.60809,0.08712 1.34462,0.65063 1.59396,2.01633c0.3246,1.778 0.06368,4.52152 0.0764,5.31289z" fill="#e1e2db"/><path d="M280.41539,161.6018c-0.86661,0.83722 -2.8814,0.76255 -3.41058,-0.4319c-0.73592,-1.66109 -0.09502,-4.64774 0.52773,-5.13145c0.90614,-0.70383 2.61676,-0.32702 3.27795,0.7018c0.71513,1.11278 -0.10116,4.57759 -0.39508,4.86153z" fill="#e1e2db"/><path d="M284.54336,159.27265c0.09486,1.13146 -0.10815,3.18134 -0.53826,3.60791c-0.37521,0.37214 -3.56404,0.2394 -3.6589,-0.89208c-0.09486,-1.13146 1.3573,-4.74892 2.26131,-4.7513c0.90401,-0.00237 1.84099,0.90399 1.93585,2.03545z" fill="#e1e2db"/><path d="M288.43473,163.77349c-0.03601,0.64938 -1.10567,0.46312 -2.2971,0.39554c-1.19144,-0.0676 -1.83781,-0.69352 -1.80179,-1.3429c0.01437,-0.25933 0.2317,-1.00437 0.53324,-1.87721c0.45352,-1.31281 1.20374,-2.81851 2.5873,-2.62799c2.71414,0.37374 1.01437,4.80318 0.97835,5.45255z" fill="#e1e2db"/><path d="M296.8324,165.6129c-0.24325,1.31285 -2.08963,4.15287 -3.03964,4.08788c-0.95001,-0.06501 -1.60672,-0.33769 -1.55251,-1.6824c0.05422,-1.34471 0.44392,-3.52373 1.39394,-3.45875c0.95001,0.06501 3.33184,0.33211 3.1982,1.05328z" fill="#e1e2db"/><path d="M296.95265,165.37637c-0.13384,0.62673 -1.10629,0.88505 -2.37074,0.75776c-1.26446,-0.12729 -1.69876,-0.29733 -1.67815,-1.5924c0.02061,-1.29507 0.11847,-4.68549 1.90851,-4.64761c1.0574,0.02237 1.41294,0.45653 1.75645,1.56951c0.44865,1.45368 0.43597,3.66929 0.38397,3.91278z" fill="#e1e2db"/></g><path d="M251.98966,161.25558c0,0 -2.39541,-10.54216 5.71428,-16.42858" fill="none" stroke="#3a2f41" stroke-width="1" stroke-linecap="round"/><path d="M254.75098,144.68431c0,0 -1.37364,0.94394 -2.47384,3.01257c-1.05859,1.99041 -1.44833,4.03071 -1.44833,4.03071c0.02406,-5.6704 3.92218,-7.04328 3.92218,-7.04328z" fill="#3a2f41" stroke="none" stroke-width="0" stroke-linecap="round"/><path d="M252.62103,156.30744c-0.58134,-0.20374 -0.03884,-3.26153 1.21171,-6.82976c1.25055,-3.56823 4.1202,-5.75723 4.70155,-5.55349c0.31123,0.10908 -1.70057,3.01677 -3.29756,6.30729c-1.38597,2.85571 -2.34559,6.17063 -2.61569,6.07597z" fill="#7c7984" stroke="none" stroke-width="0" stroke-linecap="butt"/><path d="M322.36543,156.89073c0,0 -1.18023,-2.643 -5.31264,-2.98413c-2.20108,-0.1817 -4.29299,0.77819 -4.29299,0.77819c0,0 2.5503,-1.94326 5.74255,-1.16096c3.27513,0.80261 3.86307,3.3669 3.86307,3.3669z" fill="#3a2f41" stroke="none" stroke-width="0" stroke-linecap="round"/><path d="M298.71501,142.93022c-0.33099,-1.0948 -2.37073,-2.44606 -2.37073,-2.44606c0,0 -2.17515,-5.71316 -4.105,-11.77185c-1.92182,-6.03351 -2.73967,-12.41205 -3.48105,-12.69886c-6.71194,-3.1086 -10.2711,-6.10072 -10.2711,-6.10072c0,0 5.74334,4.51653 11.28571,4.42857c0.6684,-0.01061 1.94032,8.39378 4.30312,15.13676c0.91907,2.62286 3.65772,10.58519 3.65772,10.58519c0,0 2.44485,1.52917 2.32488,2.99234c-0.12167,1.48389 -2.50001,1.92857 -2.50001,1.92857z" fill="#626171" stroke="#ffffff" stroke-width="0" stroke-linecap="round"/></g><g stroke-linecap="butt"><path d="M302.37811,150.96785c0,0 0.87914,-28.77392 9.81144,-29.493c8.39687,-0.67597 11.24238,27.48774 11.24238,27.48774c0,0 -4.49221,-0.8452 -10.37675,-0.2643c-5.32455,0.52562 -10.67707,2.26955 -10.67707,2.26955z" data-paper-data="{&quot;index&quot;:null}" fill="#e1e2db" stroke="#3a2f41" stroke-width="1"/><path d="M315.05457,148.69634c0,0 2.34549,-4.72749 0.16325,-23.75204c2.38953,8.4593 1.86186,23.52401 1.86186,23.52401z" fill="#3a2f41" stroke="none" stroke-width="0"/></g><path d="M302.37501,121.05329c1.68226,-2.39722 8.25,-5.5 8.25,-5.5c0,0 -4.8734,3.6041 -7.05746,6.71638c-2.18406,3.11228 -2.44254,8.03362 -2.44254,8.03362c0,0 -0.43226,-6.85278 1.25,-9.25z" fill="#626171" stroke="none" stroke-width="0" stroke-linecap="butt"/></g></g></g></svg>