<svg version="1.1" xmlns="http://www.w3.org/2000/svg" xmlns:xlink="http://www.w3.org/1999/xlink" width="172.32309" height="421.39244" viewBox="0,0,172.32309,421.39244"><defs><linearGradient x1="272.33673" y1="304.67112" x2="272.33673" y2="444.23975" gradientUnits="userSpaceOnUse" id="color-1"><stop offset="0" stop-color="#ffffff" stop-opacity="0.26046"/><stop offset="1" stop-color="#ffffff" stop-opacity="0"/></linearGradient><linearGradient x1="234.64655" y1="304.29786" x2="234.64655" y2="443.86649" gradientUnits="userSpaceOnUse" id="color-2"><stop offset="0" stop-color="#ffffff" stop-opacity="0.26046"/><stop offset="1" stop-color="#ffffff" stop-opacity="0"/></linearGradient><linearGradient x1="254.7361" y1="225.27028" x2="254.7361" y2="370.80605" gradientUnits="userSpaceOnUse" id="color-3"><stop offset="0" stop-color="#3a2f41"/><stop offset="1" stop-color="#e1e2db" stop-opacity="0.29839"/></linearGradient></defs><g transform="translate(-152.7854,-24.99041)"><g data-paper-data="{&quot;isPaintingLayer&quot;:true}" fill-rule="nonzero" stroke-linejoin="miter" stroke-miterlimit="10" stroke-dasharray="" stroke-dashoffset="0" style="mix-blend-mode: normal"><g stroke-linecap="butt"><path d="M232.38637,76.73108c0,1.74594 -3.56196,26.82862 -3.92621,54.10573c-0.32168,24.0895 3.00063,49.89051 -3.02741,62.84036c-22.54115,-6.50471 -63.46008,-4.39871 -63.46008,-4.39871l14.02666,-18.16866c0,0 -8.36117,-3.39087 -13.35897,-10.88998c-5.17387,-7.7633 -8.66453,-21.18601 -8.66453,-21.18601c0,0 26.85004,10.98549 27.72212,8.07354c0.40384,-1.34844 -6.28326,-82.63 -5.36982,-90.02099c0.33711,-2.72768 27.54115,-12.47304 41.97012,-12.47304c2.69239,0 7.78837,11.00852 7.78837,11.00852l-0.39635,-11.65776c0,0 10.30622,6.84404 10.30622,24.10266z" fill="#e1e2db" stroke="none" stroke-width="0"/><path d="M232.38637,77.21246c0,1.64231 -3.15207,20.10703 -3.2604,44.67448c-0.04876,11.0569 2.67719,24.44261 3.12172,36.55971c0.22995,6.26799 -0.97072,11.64976 -1.75228,17.34707c-0.45608,3.32462 -55.18477,-29.33988 -55.18477,-29.33988c0,0 6.15708,0.80846 6.38733,0.0396c0.40384,-1.34844 -6.28326,-82.25674 -5.36982,-89.64772c0.33711,-2.72768 27.54115,-12.47304 41.97012,-12.47304c2.69239,0 7.78837,11.00852 7.78837,11.00852l-0.39635,-11.65776c0,0 10.06555,4.43727 10.06555,23.62132z" fill="#8c9ca0" stroke="none" stroke-width="0"/><path d="M231.99824,76.70588c0.06917,7.17537 -4.7871,19.04427 -4.57816,31.74797c0.39251,23.86415 7.20065,52.47103 4.77962,71.61705c-0.64919,5.13397 -5.42627,9.9341 -7.02362,13.3656c-22.54115,-6.50471 -63.46008,-4.39871 -63.46008,-4.39871l13.65339,-17.79539c0,0 -5.30152,-0.6551 -11.93944,-9.36246c-7.79029,-10.21898 -9.71079,-23.0868 -9.71079,-23.0868c0,0 26.85004,10.61223 27.72212,7.70027c0.40384,-1.34844 -6.28326,-82.25674 -5.36982,-89.64772c0.33711,-2.72768 27.54115,-12.47304 41.97012,-12.47304c2.69239,0 7.78837,11.00852 7.78837,11.00852l-0.39635,-11.65776c0,0 9.82487,8.52876 10.30622,20.7332c0.13951,3.53734 -3.74161,12.24927 -3.74161,12.24927z" fill="none" stroke="#3a2f41" stroke-width="1.5"/></g><g data-paper-data="{&quot;index&quot;:null}" stroke="#3a2f41"><g><g fill="#3a2f41"><path d="M310.92744,321.33911l-31.6274,5.55548l28.35037,-21.49149z" stroke-width="2" stroke-linecap="round"/><path d="M315.77601,325.60812l-29.02966,13.72713l21.65223,-28.2278z" stroke-width="2" stroke-linecap="round"/><path d="M308.01205,234.99496c0,0 10.46999,44.20965 12.55453,59.5843c0.71444,5.26949 3.7567,20.4522 3.7567,20.4522l-5.63473,11.53322c-0.07695,-1.60559 -2.80942,-25.38565 -1.34949,-15.41415c1.45994,9.97149 1.70232,17.82407 1.70232,17.82407l-19.87763,22.23622l6.02274,-25.65533c0,0 -9.74615,-27.1567 -10.99422,-28.07001c-2.2687,-1.66019 -10.72115,4.257 -10.72115,4.257l-7.2164,19.08836l-0.10581,-30.06728l19.61532,-14.12462c0,0 0.01681,-3.55264 -0.17879,-8.7232c-0.30512,-8.06613 -3.09185,-34.21556 -3.09185,-34.21556l4.38739,2.41708l2.38165,-10.4353l4.9711,13.30689l3.77832,-3.99386z" stroke-width="1.5" stroke-linecap="butt"/></g><g fill="#677479" stroke-width="1.5" stroke-linecap="butt"><path d="M313.81201,270.06787l-27.19163,4.48457l-12.36567,-14.39699c0,0 1.95333,-25.58559 -0.51021,-50.54018c-2.38684,-24.17778 -9.19464,-47.69455 -9.09389,-50.98738c0.20473,-6.69147 4.78924,-12.63083 12.86799,-5.1461c7.66012,9.30214 10.46314,29.93889 17.74139,48.48572c10.60707,27.02953 24.42001,52.1399 24.42001,52.1399z"/></g></g><path d="M284.54249,284.03843l-3.14606,-14.94382l33.78601,-7.11285l3.14607,14.94382z" fill="#8c9ca0" stroke-width="1.5" stroke-linecap="butt"/><path d="M309.82214,278.65388l-3.31987,-14.16477" fill="none" stroke-width="1.5" stroke-linecap="round"/><path d="M310.50775,270.2508c-0.32134,-1.68084 -0.04652,-3.14575 0.6138,-3.27201c0.66033,-0.12624 1.45613,1.13402 1.77747,2.81485c0.32134,1.68083 0.04652,3.14575 -0.6138,3.272c-0.66033,0.12624 -1.45613,-1.13402 -1.77747,-2.81485z" fill="#3a2f41" stroke-width="1.5" stroke-linecap="butt"/></g><path d="M256.36,304.67112l31.95347,10.26535l-10.72891,129.30326z" fill="#3a2f41" stroke="url(#color-1)" stroke-width="0.5" stroke-linecap="butt"/><path d="M232.92863,443.86649l-14.25881,-129.30326l31.95347,-10.26535z" data-paper-data="{&quot;index&quot;:null}" fill="#3a2f41" stroke="url(#color-2)" stroke-width="0.5" stroke-linecap="butt"/><g stroke-linecap="round"><g><path d="M195.34465,354.52222l30.03395,-127.59191l13.04745,-14.52224l25.04792,-0.15508l12.88648,13.66936l37.7671,125.70396c0,0 -16.23995,18.95953 -45.95186,19.17515c-44.28202,0.32134 -72.83103,-16.27924 -72.83103,-16.27924z" fill="#3a2f41" stroke="none" stroke-width="0"/><path d="M195.34465,354.52222c0,0 0.6253,-2.69964 1.37711,-5.94549c3.39966,-14.67763 23.94242,-99.30643 27.66147,-119.08523c0.78398,-4.16945 13.38107,-16.73574 13.38107,-16.73574l25.79084,-0.16829c0,0 12.32329,12.59722 13.55184,16.16665c2.86582,8.3264 37.02056,122.87218 37.02056,122.87218c0,0 -14.74687,18.95953 -44.45879,19.17515c-44.28202,0.32134 -74.32409,-16.27924 -74.32409,-16.27924z" fill="none" stroke="url(#color-3)" stroke-width="2"/><path d="M277.64574,230.28218l-22.18539,9.53318l-30.93072,-7.47052" fill="none" stroke="#e1e2db" stroke-width="1"/></g><path d="M310.51896,343.53462c0,0 -33.77642,39.1223 -113.84637,3.64793" fill="none" stroke="#e1e2db" stroke-width="1"/></g><g stroke="#3a2f41"><g><g fill="#3a2f41"><path d="M186.88594,306.89617l28.35037,21.49149l-31.6274,-5.55548z" stroke-width="2" stroke-linecap="round"/><path d="M186.13779,312.6005l21.65223,28.2278l-29.02966,-13.72713z" stroke-width="2" stroke-linecap="round"/><path d="M186.52431,236.48805l3.77832,3.99386l4.9711,-13.30689l2.38165,10.4353l4.38739,-2.41708c0,0 -2.78673,26.14944 -3.09185,34.21556c-0.1956,5.17055 -0.17879,8.7232 -0.17879,8.7232l19.61532,14.12462l-0.10581,30.06728l-7.21639,-19.08836c0,0 -8.45246,-5.9172 -10.72116,-4.257c-1.24808,0.91331 -10.99422,28.07001 -10.99422,28.07001l6.02274,25.65533l-19.87763,-22.23622c0,0 0.24238,-7.85258 1.70232,-17.82407c1.45994,-9.9715 -1.27254,13.80857 -1.34949,15.41415l-5.63473,-11.53322c0,0 3.04225,-15.18273 3.7567,-20.4522c2.08454,-15.37465 12.55453,-59.5843 12.55453,-59.5843z" stroke-width="1.5" stroke-linecap="butt"/></g><g fill="#9aac9c" stroke-width="1.5" stroke-linecap="butt"><path d="M174.85634,255.60045c0,0 13.81295,-25.11036 24.42002,-52.13989c7.27825,-18.54684 10.08127,-39.1836 17.74138,-48.48573c8.07875,-7.48473 12.66326,-1.54537 12.86799,5.1461c0.10075,3.29284 -6.70704,26.80961 -9.09389,50.98739c-2.46353,24.9546 -0.51021,50.54018 -0.51021,50.54018l-12.36567,14.39699l-27.19163,-4.48457z"/></g></g><path d="M176.20785,278.41865l3.14607,-14.94382l33.78601,7.11285l-3.14606,14.94382z" fill="#e1e2db" stroke-width="1.5" stroke-linecap="butt"/><path d="M188.03414,265.98217l-3.31987,14.16477" fill="none" stroke-width="1.5" stroke-linecap="round"/><path d="M184.02866,271.74386c-0.32134,1.68083 -1.11714,2.94109 -1.77747,2.81485c-0.66032,-0.12624 -0.93514,-1.59116 -0.6138,-3.272c0.32134,-1.68083 1.11714,-2.94109 1.77747,-2.81485c0.66032,0.12624 0.93514,1.59116 0.6138,3.27201z" fill="#3a2f41" stroke-width="1.5" stroke-linecap="butt"/></g><g><g><path d="M268.82571,192.25975l-4.21132,12.10513l6.5588,14.70201l-17.50537,10.09834l-23.09674,-9.50433l5.62184,-14.85052c0,0 -4.96508,-12.50227 -4.97925,-12.50971" fill="#9aac9c" stroke="#3a2f41" stroke-width="1.5" stroke-linecap="round"/><g><path d="M275.63579,167.54276c-0.11215,1.45066 -0.27587,2.92406 -0.49327,4.37096c-1.24436,8.28232 -6.69483,20.83243 -6.69483,20.83243l-37.27324,-0.59434c0,0 -16.46832,-25.9217 -12.83196,-36.67323c1.27706,-3.77583 18.45614,-11.23277 26.01818,-11.19705c4.37318,0.02065 13.19144,0.32147 19.83626,2.5763c5.31915,1.80499 9.48475,4.92005 9.48475,4.92005" fill="#677479" stroke="none" stroke-width="0" stroke-linecap="round"/><path d="M273.77405,155.16152l-1.27637,3.76079c0,0 11.77108,14.73756 14.21634,20.09637c0.59432,1.30247 -5.1521,8.44145 -8.19331,11.25049c-4.40207,4.42886 -9.07401,6.23558 -10.80205,7.20892l-33.50516,-0.39849c-1.60273,-0.90041 -7.9276,-4.52368 -10.88569,-7.25597c-3.04121,-2.80904 -7.6533,-9.80963 -7.69563,-10.7528c-0.14397,-3.20802 11.56337,-20.38938 11.56337,-20.38938l-1.33253,-3.70863" fill="#9aac9c" stroke="none" stroke-width="0" stroke-linecap="round"/><path d="M273.77405,155.41035l-1.27637,3.76079c0,0 11.77108,14.73756 14.21634,20.09637c0.25684,0.56287 -2.05193,4.1381 -2.05193,4.1381l-60.26608,-20.25647l2.79954,-4.21886l-1.33253,-3.70863" fill="#677479" stroke="none" stroke-width="0" stroke-linecap="round"/><path d="M273.77405,155.04744l-1.27637,3.76079c0,0 11.77108,14.73756 14.21634,20.09637c0.59432,1.30247 -5.1521,8.44145 -8.19331,11.25049c-4.40207,4.42886 -9.07401,6.23558 -10.80205,7.20892l-33.50516,-0.39849c-1.60273,-0.90041 -7.9276,-4.52368 -10.88569,-7.25597c-3.04121,-2.80904 -7.6533,-9.80963 -7.69563,-10.7528c-0.14397,-3.20802 11.56337,-20.38938 11.56337,-20.38938l-1.33253,-3.70863" fill="none" stroke="#3a2f41" stroke-width="1.5" stroke-linecap="round"/><path d="M273.45385,160.02926c0,0 10.31873,7.8642 9.84269,8.11325c-0.4439,0.23222 -19.00454,12.3105 -19.00454,12.3105l0.11089,7.89804l-10.86468,2.51808l18.01893,-41.75658l8.23723,4.32965z" data-paper-data="{&quot;index&quot;:null}" fill="#8c9ca0" stroke="none" stroke-width="0" stroke-linecap="butt"/><path d="M217.40028,154.62616l8.17431,-4.53838l25.33087,40.7143l-12.68863,-2.88553l-1.00941,-7.83406c0,0 -20.08486,-9.32632 -20.5572,-9.49329c-0.50654,-0.17907 8.5937,-9.4261 8.5937,-9.4261z" fill="#e1e2db" stroke="#3a2f41" stroke-width="0" stroke-linecap="butt"/><path d="M268.31327,177.98717l-4.02128,2.46584l0.11089,7.89804l-10.86468,2.51808l6.97262,-16.15816z" data-paper-data="{&quot;index&quot;:null}" fill="#e1e2db" stroke="none" stroke-width="0" stroke-linecap="butt"/><path d="M217.40028,154.62616l8.17431,-4.53838l9.91391,15.93463l-11.66085,-3.40931l1.41628,-1.45z" fill="#8c9ca0" stroke="none" stroke-width="0" stroke-linecap="butt"/><path d="M217.40028,154.88285l8.17431,-4.53838l25.33087,40.7143l-12.68863,-2.88553l-1.00941,-7.83406c0,0 -20.08486,-9.32632 -20.5572,-9.49329c-0.50654,-0.17907 8.5937,-9.4261 8.5937,-9.4261z" fill="none" stroke="#3a2f41" stroke-width="1.5" stroke-linecap="butt"/><path d="M273.45385,160.02926c0,0 10.31873,7.8642 9.84269,8.11325c-0.4439,0.23222 -19.00454,12.3105 -19.00454,12.3105l0.11089,7.89804l-10.86468,2.51808l18.01893,-41.75658l8.23723,4.32965z" data-paper-data="{&quot;index&quot;:null}" fill="none" stroke="#3a2f41" stroke-width="1.5" stroke-linecap="butt"/><path d="M251.98519,191.16419c-13.90109,-15.97259 -26.4074,-41.39722 -26.4074,-41.39722c0,0 6.83285,-3.61875 9.80112,-4.94234c3.41686,-1.52363 13.46285,-4.61295 13.46285,-4.61295l18.16013,7.07727c0,0 -1.78718,18.11418 -4.51838,26.09409c-1.51424,4.42428 -10.49833,17.78116 -10.49833,17.78116z" data-paper-data="{&quot;index&quot;:null}" fill="#e1e2db" stroke="none" stroke-width="0" stroke-linecap="butt"/><path d="M261.08851,175.26053l-26.54892,-9.88952l-9.2107,-15.60402c0,0 7.0817,-3.61875 10.04997,-4.94234c3.41686,-1.52363 13.46286,-4.61295 13.46286,-4.61295c0,0 11.21594,3.95042 15.51864,5.84774c3.06355,1.35091 7.86722,4.4645 7.86722,4.4645z" data-paper-data="{&quot;index&quot;:null}" fill="#8c9ca0" stroke="none" stroke-width="0" stroke-linecap="butt"/><path d="M241.95708,175.89289c-0.18405,-0.20066 5.06558,-16.48331 5.06558,-16.48331l6.49004,-0.11769l7.94431,15.46405l-9.09586,15.73525z" data-paper-data="{&quot;index&quot;:null}" fill="#3a2f41" stroke="#3a2f41" stroke-width="1.5" stroke-linecap="butt"/><path d="M247.25898,157.0188l-0.17681,-7.04274l5.9499,-0.14937l0.17682,7.04274z" data-paper-data="{&quot;index&quot;:null}" fill="#3a2f41" stroke="#3a2f41" stroke-width="1.5" stroke-linecap="butt"/><path d="M240.43989,165.29176v-2.73729h7.71418v2.73729z" fill="#8c9ca0" stroke="#3a2f41" stroke-width="1.5" stroke-linecap="butt"/><path d="M225.08011,150.01581c0,0 7.33054,-3.86759 10.29881,-5.19119c3.41686,-1.52363 13.46285,-4.61295 13.46285,-4.61295c0,0 11.96257,4.04483 16.27828,5.81012c2.92366,1.19589 7.10758,3.75559 7.10758,3.75559c0,0 -10.60837,29.44359 -19.74475,40.88912c-1.94415,2.43552 -27.40277,-40.6507 -27.40277,-40.6507z" data-paper-data="{&quot;index&quot;:null}" fill="none" stroke="#3a2f41" stroke-width="1.5" stroke-linecap="butt"/><g data-paper-data="{&quot;index&quot;:null}" fill="none" stroke="none" stroke-width="1" stroke-linecap="butt" font-family="sans-serif" font-weight="normal" font-size="12" text-anchor="start"><g/></g></g><path d="M235.20082,199.89655l-4.34037,-9.15722l21.17823,4.20417l17.14382,-4.70185l-2.57891,6.28609l-1.4026,3.41885z" fill="#9aac9c" stroke="#3a2f41" stroke-width="0" stroke-linecap="butt"/><path d="M254.03078,228.64105l-2.48844,-21.89831l0.24884,-15.42836" fill="none" stroke="#3a2f41" stroke-width="1.5" stroke-linecap="round"/><g fill="#9aac9c" stroke="#3a2f41" stroke-width="1" stroke-linecap="butt"><path d="M257.97373,205.34382c0,0.96998 -0.82174,1.75631 -1.83541,1.75631c-1.01367,0 -1.83541,-0.78633 -1.83541,-1.75631c0,-0.96998 0.82174,-1.75631 1.83541,-1.75631c1.01367,0 1.83541,0.78633 1.83541,1.75631z"/><path d="M258.37316,211.2468c0,1.0037 -0.85899,1.81734 -1.91859,1.81734c-1.05961,0 -1.91858,-0.81366 -1.91858,-1.81734c0,-1.0037 0.85897,-1.81734 1.91858,-1.81734c1.05961,0 1.91859,0.81366 1.91859,1.81734z"/></g></g><g fill="none" stroke="#3a2f41" stroke-width="3" stroke-linecap="butt"><path d="M243.11235,157.55809l-6.84707,-13.45844l1.43278,-3.43386c0,0 9.83592,-3.79418 11.23971,-3.88198c1.43493,-0.08976 11.95462,4.04551 11.95462,4.04551l2.10025,3.27099l-4.17892,13.30002l-8.07216,-7.46368z"/></g><g stroke="none" stroke-width="0" stroke-linecap="butt"><path d="M242.96305,157.55809l-6.84707,-13.45844l1.43278,-3.43386c0,0 9.83591,-3.79418 11.2397,-3.88198c1.43493,-0.08976 11.95462,4.04551 11.95462,4.04551l2.10025,3.27099l-4.17892,13.30001l-8.07216,-7.46368z" fill="#8c9ca0"/><path d="M250.25091,147.98406l-10.5468,-6.36973l9.10423,-4.10427l10.11613,3.95944z" fill="#3a2f41"/></g></g><path d="M258.17753,127.66112c-1.52018,0.05378 -1.1921,-20.19135 -2.68275,-20.19135c-4.04944,0 -13.0613,16.40765 -13.0613,16.40765c0,0 -4.48673,4.29374 -8.13971,5.3295c-12.35619,3.5034 -27.64772,14.90638 -27.64772,14.90638c0,0 -4.41513,-7.2191 2.57859,-19.9955c-6.10669,2.7661 -19.46641,-4.04279 -24.73274,-6.76673c6.14634,-6.43682 11.10813,-18.25062 16.94489,-22.84603c3.63634,-2.86295 5.66838,-3.45015 5.66838,-3.45015c0,0 -2.03177,-0.2862 -4.28521,-0.76677c-4.58413,-0.9776 -8.08482,-2.67686 -8.08482,-2.67686c0,0 5.50645,-3.35104 13.27039,-8.61728c7.15367,-4.8523 20.89556,-12.33076 30.55863,-13.83191c7.00164,-1.0877 13.97249,2.08697 20.41263,3.19401c16.75772,2.88057 25.13712,7.80669 36.54643,4.68362c4.21102,14.83964 -3.1121,21.86869 -3.1121,21.86869l20.02147,11.44626c0,0 -6.10877,12.79076 -23.24147,13.81129c3.09747,11.61831 -1.38056,19.47443 -1.38056,19.47443c0,0 -20.64816,-12.29713 -29.63305,-11.97926z" fill="#e1e2db" stroke="#3a2f41" stroke-width="1.5" stroke-linecap="butt"/><path d="M279.40687,109.0666l4.04532,29.66563c0,0 9.43682,7.93274 9.43906,11.46172c0.00155,2.44177 -15.2823,11.68646 -15.2823,11.68646c0,0 12.08533,7.01837 9.46783,9.24809c-2.61852,2.2306 -13.28841,5.58472 -13.28841,5.58472l4.94428,-6.74219c0,0 -14.38349,-5.48084 -14.1586,-8.31536c0.26354,-3.32166 6.74219,-9.66381 6.74219,-9.66381c0,0 -3.70138,-1.31684 -5.16901,-4.49479c-1.03872,-2.24921 4.94427,-8.31536 4.94427,-8.31536l0.67422,-29.66563" data-paper-data="{&quot;index&quot;:null}" fill="#e1e2db" stroke="#3a2f41" stroke-width="1.5" stroke-linecap="round"/><g stroke-linecap="butt"><path d="M274.95446,112.01345c0,5.7698 1.65459,10.67657 -2.77508,14.40095c-4.30607,3.62046 -14.55431,6.13682 -24.41582,6.3322c-13.39131,0.26533 -22.15501,-2.99471 -25.74583,-9.40191c-1.7037,-3.03998 -1.44511,-7.66976 -1.44511,-11.33124c0,-11.37863 8.27299,-25.83198 31.09173,-25.20448c15.01029,0.41276 23.2901,13.82585 23.2901,25.20448z" fill="#e1e2db" stroke="none" stroke-width="0"/><path d="M275.98267,108.50989c-0.9017,2.06402 4.76268,11.69624 -9.02738,11.57247c-13.60244,-0.12208 -46.96146,4.46166 -46.96146,-8.6708c0,-11.37863 8.67373,-25.15492 31.49249,-24.52744c15.01029,0.41276 23.2901,10.92418 23.2901,22.3028z" fill="#8c9ca0" stroke="none" stroke-width="0"/><path d="M255.91841,87.29826c12.39193,2.57276 20.34252,23.59539 20.34252,23.59539c0.18663,4.46418 -0.79089,11.56336 -4.62562,15.21605c-4.24959,4.04787 -13.35534,6.42855 -23.87174,6.63691c-10.04096,0.00253 -19.3611,-2.29331 -23.94086,-7.24099c-3.23795,-3.49809 -3.25007,-8.77934 -3.25007,-13.49216c0,-9.65828 5.96049,-21.53182 21.71755,-24.51766" fill="none" stroke="#3a2f41" stroke-width="2"/></g><path d="M276.12568,108.71161c0,0 -5.06214,2.10569 -11.20198,-0.54799c-7.24713,-3.13226 -7.92328,-8.40427 -7.92328,-8.40427" fill="none" stroke="#3a2f41" stroke-width="3.5" stroke-linecap="round"/><path d="M254.09624,116.54099c0,0 0.96723,-7.463 0.96723,-13.68626c0,-6.22323 1.00327,-8.26978 1.64428,-8.26978c0.64102,0 1.64428,1.56293 1.64428,7.78616c0,6.22323 -4.2558,14.16986 -4.2558,14.16986z" fill="#3a2f41" stroke="none" stroke-width="0" stroke-linecap="butt"/><path d="M269.96263,83.02308c7.23498,7.11637 9.14372,18.89766 6.56972,21.51458c-0.69594,0.70754 0.1755,6.13929 -0.04724,4.50754c-0.59241,-0.13045 -1.42694,-0.03007 -2.33779,-0.16014c-1.85695,-0.26519 -4.0311,-0.77655 -5.11729,-1.1707c-3.95871,-1.43652 -8.29587,-2.98896 -12.04249,-6.67417c-7.23498,-7.11637 -7.88094,-16.50992 -5.30693,-19.12682c2.574,-2.61689 11.04704,-6.00664 18.282,1.10973z" data-paper-data="{&quot;index&quot;:null}" fill="#e1e2db" stroke="#3a2f41" stroke-width="1" stroke-linecap="butt"/><path d="M241.60483,102.35692c0,-6.22323 1.00327,-7.78616 1.64428,-7.78616c0.64102,0 1.64428,2.04653 1.64428,8.26978c0,6.22324 0.96723,13.68626 0.96723,13.68626c0,0 -4.2558,-7.94662 -4.2558,-14.16986z" data-paper-data="{&quot;index&quot;:null}" fill="#3a2f41" stroke="none" stroke-width="0" stroke-linecap="butt"/><path d="M251.98252,104.60994c0,6.22323 -1.64428,12.81574 -1.64428,12.81574c0,0 -2.1279,-8.04334 -2.1279,-14.2666c0,-6.22323 1.48687,-8.26978 2.1279,-8.26978c0.64102,0 1.64428,3.49737 1.64428,9.72062z" fill="#3a2f41" stroke="none" stroke-width="0" stroke-linecap="butt"/><path d="M275.89986,109.27621c0,0 -5.06214,2.10569 -11.20198,-0.54799c-7.24713,-3.13226 -7.92328,-8.40427 -7.92328,-8.40427" fill="none" stroke="#3a2f41" stroke-width="3.5" stroke-linecap="round"/><path d="M245.29919,116.5403c0,5.33875 -4.87512,9.66667 -10.88889,9.66667c-6.01377,0 -10.88889,-4.32791 -10.88889,-9.66667c0,-5.33875 4.87512,-9.66667 10.88889,-9.66667c6.01377,0 10.88889,4.32791 10.88889,9.66667z" fill="#e1e2db" stroke="#3a2f41" stroke-width="1" stroke-linecap="butt"/><path d="M255.42799,88.1279c2.22255,5.15525 -6.81123,16.58094 -17.76615,21.30385c-9.72821,2.91451 -16.13426,2.13329 -17.51591,2.18919c-0.7646,-0.01029 -0.05393,0.25205 0.65909,0.22536c0.60543,-0.02266 1.19158,-0.07889 1.09914,0.34024c-0.37654,1.70711 0.11898,3.91831 0.31585,4.80495c0.95641,4.30748 -8.37878,-6.6446 -9.46064,-9.15402c-2.22255,-5.15525 4.85644,-13.16308 15.81135,-17.88601c10.95491,-4.7229 24.63471,-6.97882 26.85726,-1.82357z" fill="#e1e2db" stroke="#3a2f41" stroke-width="2.5" stroke-linecap="butt"/><path d="M243.44418,98.91378c0,-8.13302 4.09211,-14.41033 8.01466,-14.41033c3.86108,0 7.78446,5.86674 7.88201,13.8235c0.00155,0.12673 -1.83557,-0.19529 -1.97177,0.60199c-1.25499,7.3459 1.01957,14.04971 1.01957,14.04971c0,0 -14.94447,-3.60195 -14.94447,-14.06488z" fill="#e1e2db" stroke="#3a2f41" stroke-width="2" stroke-linecap="butt"/><path d="M242.39658,114.90124l-0.02074,3.31265" fill="none" stroke="#3a2f41" stroke-width="1" stroke-linecap="round"/><path d="M218.9887,113.91351c0.97429,1.18864 2.7147,1.49304 2.9267,3.49225c0.07143,0.67358 1.13453,2.34932 0.79137,2.8569c-2.48766,3.67951 -6.11392,-3.5993 -7.37442,-5.72171c-0.30631,-0.51577 -2.1356,-2.31473 -2.01329,-2.75696c-0.03535,-0.13502 -0.05416,-0.2766 -0.05416,-0.42253c0,-0.23227 0.04764,-0.45355 0.13382,-0.6549c-0.89546,-0.67618 -2.58135,-2.28275 -2.84294,-4.11667c-0.3906,-2.73839 1.01751,-5.98375 1.90187,-7.39552c0.54957,-0.87732 2.12024,-2.18523 3.47498,-2.7956c0.00174,-0.47413 0.20196,-0.9021 0.52303,-1.20735c0.89248,-1.26599 2.67498,-2.40786 3.62165,-3.16674c4.52661,-3.62873 9.99534,-4.61314 15.51965,-5.97535c1.06408,-0.26237 1.73273,-1.41749 2.67171,-1.97748c0.28465,-0.16976 1.22312,0.61848 1.40163,0.39351c0.07049,-0.14274 0.15366,-0.27291 0.2629,-0.37719c0.05263,-0.05024 0.1113,-0.09446 0.17754,-0.13119c0.00284,-0.00157 0.01766,-0.00469 0.04356,-0.00921c0.24135,-0.12853 0.51759,-0.20148 0.81112,-0.20148c0.11937,0 0.2359,0.01206 0.34836,0.03503c2.36539,-0.32456 7.40241,-0.97951 7.52167,-0.94743c0.15415,0.04146 -0.81634,-4.75773 2.05159,-6.39427c3.63783,-2.07588 11.36282,-1.07699 12.44394,-0.78173c0.7383,0.20164 6.14199,1.28238 10.0269,4.38534c5.4094,4.32059 7.3124,9.12803 7.10773,10.43118c-0.1167,0.74303 0.57882,7.42686 -0.40569,13.15339c-0.62924,3.66008 -0.20488,9.61639 -1.63654,9.18843c-0.63911,-0.19105 -1.00224,2.81113 -1.24264,1.88644c-0.28245,-1.08648 0.12479,-6.01885 -0.66208,-8.79097c-1.44054,-5.07491 -2.59955,-9.30224 -4.16626,-11.50608c-3.64006,-5.12031 -3.18813,-6.07046 -6.56442,-3.53306c-8.16192,6.13401 -0.36446,14.53608 -4.81083,12.08604c-4.33845,-2.39057 -3.82092,-3.6775 -5.69821,-4.11896c-3.9823,-0.93647 -7.71032,1.18245 -8.28695,2.69817c-0.6607,1.7367 -4.64176,1.78954 -5.04724,1.83199c-1.4993,0.15693 1.58287,-16.34019 0.57366,-16.27824c-0.02969,0.00182 -0.26712,0.0264 -0.58328,0.04403c-0.08063,0.09232 -0.16422,0.1751 -0.24896,0.24593c-1.99527,1.66748 -4.15664,6.02946 -6.63271,6.58327c-2.52351,0.56443 -5.86455,0.42743 -8.17106,1.47907c-2.51283,1.14569 -4.68531,4.89397 -6.99984,5.95122c-0.16071,0.1073 -1.6243,-3.40509 -1.81768,-3.35656c-0.04508,0.2128 1.69061,3.26888 1.6123,3.52258c-0.13581,0.44001 2.53918,-0.91073 2.27765,-0.73098c-1.17577,0.80812 -7.28616,1.62498 -7.32913,2.93528c-0.06965,2.12341 1.7168,3.84423 1.78337,5.026c0.17369,0.26383 0.27458,0.57857 0.27458,0.91655c0,0.29077 -0.07467,0.56434 -0.20613,0.80309c1.0154,0.98398 1.58116,2.26781 2.51119,3.40244z" fill="#e1e2db" stroke="none" stroke-width="0.5" stroke-linecap="butt"/><path d="M276.12568,108.71161c0,0 -5.06214,2.10569 -11.20198,-0.54799c-7.24713,-3.13226 -7.92328,-8.40427 -7.92328,-8.40427" fill="none" stroke="#e1e2db" stroke-width="2" stroke-linecap="round"/><g stroke="#3a2f41" stroke-width="1.5"><path d="M221.62663,110.99364l4.04533,29.66563c0,0 9.43682,7.93274 9.43906,11.46172c0.00155,2.44177 -15.2823,11.68646 -15.2823,11.68646c0,0 12.08533,7.01837 9.46783,9.24809c-2.61852,2.2306 -13.28841,5.58472 -13.28841,5.58472l4.94428,-6.74219c0,0 -14.38349,-5.48084 -14.1586,-8.31536c0.26354,-3.32166 6.74219,-9.66381 6.74219,-9.66381c0,0 -3.70138,-1.31684 -5.16901,-4.49479c-1.03872,-2.24921 4.94428,-8.31536 4.94428,-8.31536l0.67422,-29.66563" data-paper-data="{&quot;index&quot;:null}" fill="#e1e2db" stroke-linecap="round"/><path d="M213.98549,128.1394v-1.03006l9.50327,-1.54107l0.19263,1.319z" fill="#3a2f41" stroke-linecap="butt"/><path d="M213.98549,121.58984l0.16967,-1.31901l8.37044,1.54107v1.03006z" data-paper-data="{&quot;index&quot;:null}" fill="#3a2f41" stroke-linecap="butt"/></g><path d="M275.70841,122.77822c0,3.78567 -3.22428,6.85456 -7.20162,6.85456c-3.97735,0 -7.20162,-3.0689 -7.20162,-6.85456c0,-3.78567 3.22428,-6.85456 7.20162,-6.85456c3.97735,0 7.20162,3.0689 7.20162,6.85456z" fill-opacity="0.41935" fill="#e1e2db" stroke="#3a2f41" stroke-width="1.5" stroke-linecap="butt"/><path d="M268.93433,129.68302c1.10773,17.86374 -5.16901,1.34844 -5.16901,1.34844" fill="none" stroke="#3a2f41" stroke-width="1.5" stroke-linecap="round"/><path d="M232.99801,89.87565c0,0 -9.57407,-1.40568 -9.87987,-2.30113c-1.6153,-4.72989 -2.6625,-9.58256 -3.2913,-14.36916c3.38389,-0.69633 9.869,-9.31253 10.80084,-12.263c2.269,7.13258 5.05899,14.31806 8.37646,20.14103c0.2333,0.40951 -6.00613,8.79225 -6.00613,8.79225z" data-paper-data="{&quot;index&quot;:null}" fill="#3a2f41" stroke="#3a2f41" stroke-width="1.5" stroke-linecap="butt"/><path d="M262.80439,112.16319c-9.44248,-6.08592 -10.11328,-34.6099 -10.11328,-34.6099h26.74401c0,0 2.4527,21.80877 8.09062,31.46355c0.45523,0.77957 -24.37562,3.36918 -24.72136,3.14636z" fill="#e1e2db" stroke="#3a2f41" stroke-width="1.5" stroke-linecap="butt"/><path d="M263.89716,88.52721c0,0 -6.23943,-8.38277 -6.00613,-8.79225c10.6416,-18.67861 15.85576,-51.37701 15.85576,-51.37701c0,0 9.23117,30.9262 0.03025,57.86814c-0.3058,0.89546 -9.87987,2.30113 -9.87987,2.30113z" fill="#3a2f41" stroke="#3a2f41" stroke-width="1.5" stroke-linecap="butt"/><path d="M270.67026,97.33036l10.33802,9.88854l-16.18126,1.34844z" fill="none" stroke="#3a2f41" stroke-width="2" stroke-linecap="round"/><path d="M264.82705,102.72412l11.9112,-2.02266" fill="none" stroke="#3a2f41" stroke-width="1.5" stroke-linecap="round"/><path d="M278.31143,102.27463l-13.70911,2.2474" fill="none" stroke="#3a2f41" stroke-width="1.5" stroke-linecap="round"/><path d="M244.93441,104.20567c-6.5301,5.80253 -11.58348,5.94034 -15.14232,6.55719c-2.60401,0.45137 -8.49593,1.00816 -10.95022,0.8057c-0.89992,-0.07423 -0.88225,-0.52377 -0.92492,-0.76986c-0.05534,-0.3192 0.99679,-0.67517 1.55853,-1.03326c1.05241,-0.67087 6.93693,-2.0187 9.25724,-2.42088c3.55883,-0.61686 17.01973,-6.01026 17.17871,-5.09303z" fill="#e1e2db" stroke="none" stroke-width="0" stroke-linecap="butt"/><path d="M237.94664,127.09425c0.12127,0.48507 -0.3638,0.60634 -0.3638,0.60634l-0.20535,0.03906c-2.67854,1.29948 -7.93589,0.77457 -10.0387,-1.32443c0,0 -0.35356,-0.35356 0,-0.70711c0.35356,-0.35356 0.7071,0 0.7071,0c1.76696,1.77045 6.65684,2.29757 8.88438,1.13711l0.41003,-0.11478c0,0 0.48507,-0.12126 0.60634,0.3638z" fill="#3a2f41" stroke="none" stroke-width="0.5" stroke-linecap="butt"/><path d="M245.50743,122.40042c0.35356,0.35356 0,0.7071 0,0.7071l0.00365,-0.02856c-1.0026,1.75266 -3.02506,3.76138 -5.01797,4.24003c0,0 -0.4881,0.10846 -0.59656,-0.37963c-0.10846,-0.4881 0.37963,-0.59656 0.37963,-0.59656c1.68858,-0.33321 3.53036,-2.2948 4.36665,-3.75997l0.15749,-0.18241c0,0 0.35356,-0.35356 0.70711,0z" fill="#3a2f41" stroke="none" stroke-width="0.5" stroke-linecap="butt"/><path d="M246.27587,120.75667c-0.46424,-0.1857 -0.27854,-0.64993 -0.27854,-0.64993l0.17087,-0.42253c0.47424,-0.93775 0.57273,-2.09318 0.27414,-3.10057c0,0 -0.13736,-0.48076 0.3434,-0.61812c0.48076,-0.13736 0.61812,0.3434 0.61812,0.3434c0.35148,1.26693 0.24308,2.64262 -0.34124,3.82251l-0.13682,0.3467c0,0 -0.1857,0.46424 -0.64993,0.27854z" fill="#3a2f41" stroke="none" stroke-width="0.5" stroke-linecap="butt"/></g></g></svg>