<svg version="1.1" xmlns="http://www.w3.org/2000/svg" xmlns:xlink="http://www.w3.org/1999/xlink" width="261.4801" height="585.3036" viewBox="0,0,261.4801,585.3036"><defs><linearGradient x1="308.5263" y1="258.78998" x2="156.88446" y2="115.44109" gradientUnits="userSpaceOnUse" id="color-1"><stop offset="0" stop-color="#ffffff" stop-opacity="0"/><stop offset="1" stop-color="#ffffff" stop-opacity="0.08254"/></linearGradient></defs><g transform="translate(-108.93125,112.65382)"><g data-paper-data="{&quot;isPaintingLayer&quot;:true}" fill-rule="nonzero" stroke-linejoin="miter" stroke-miterlimit="10" stroke-dasharray="" stroke-dashoffset="0" style="mix-blend-mode: normal"><g><g stroke="#3a2f41" stroke-width="2" stroke-linecap="butt"><path d="M205.16538,63.76976c0,0 1.0604,-12.69257 2.88504,-17.04816c1.58635,-3.78677 6.44829,-10.95184 6.44829,-10.95184l46.33334,-4.66666c0,0 13.29482,6.67185 15.89393,9.66991c3.04426,3.51152 3.58153,23.77003 3.58153,23.77003l-10.51968,-8.63089c0,0 5.32014,10.17848 5.25422,15.51865c-0.11727,9.50003 -12.99075,27.58811 -12.99075,27.58811l-8.34698,-12.75477l2.46106,16.83896c0,0 -33.08149,-10.70369 -38.13027,-17.23259c-5.05953,-6.5428 -6.8614,-24.98261 -6.8614,-24.98261z" fill="#3a2f41"/><path d="M264.69607,30.92119c0.80364,8.89236 -8.14914,17.45102 -26.57558,19.11629c-18.42644,1.66527 -28.68217,-4.19344 -29.48581,-13.08581c-0.80364,-8.89236 8.14914,-17.45101 26.57558,-19.11629c18.42645,-1.66527 28.68217,4.19344 29.48581,13.08581z" fill="#8c9ca0"/></g><g><g><g><path d="M187.10957,-29.43699c4.65064,-4.23861 55.29299,19.36758 55.95464,19.10486c5.21332,-2.06999 20.69661,18.19526 25.23211,20.66333c4.5355,2.46807 33.47635,11.6448 33.47635,11.6448c0,0 -23.56896,18.93371 -58.15162,15.47525c-0.18469,0.06582 1.05994,0.45315 2.62326,0.90812c2.472,0.71942 5.74084,1.60797 5.41526,1.66186c-9.44648,1.56395 -21.07172,-5.86888 -21.07172,-5.86888c0,0 -50.22162,-57.44346 -43.47828,-63.58933z" data-paper-data="{&quot;index&quot;:null}" fill="#3a2f41" stroke="#3a2f41" stroke-width="2" stroke-linecap="round"/><path d="M249.74229,-46.82102c0,0 -2.24147,-0.08263 -4.69534,-0.16882c11.64632,0.13096 29.74876,0.02704 33.85096,7.76826c13.5411,25.59718 40.79769,25.84097 40.79769,25.84097c0,0 -18.34334,37.49718 -62.53399,35.53042c-8.97111,-0.39927 -4.66595,-26.34286 -6.61628,-36.67878c-5.15595,-27.32415 0.44146,34.34712 -27.08365,38.29186c0.77274,-7.58513 -3.94462,-9.53774 4.2711,-29.76064c3.44446,-8.4785 22.00952,-40.82324 22.00952,-40.82324z" data-paper-data="{&quot;index&quot;:null}" fill="#3a2f41" stroke="#3a2f41" stroke-width="2" stroke-linecap="butt"/><path d="M148.54985,12.33757c-10.84452,-26.19019 -13.32728,-53.87645 -4.80939,-76.63449c9.26755,-24.76096 31.75243,-43.83576 31.75243,-43.83576c0,0 -14.57784,58.00478 30.74019,60.63952" data-paper-data="{&quot;index&quot;:null}" fill="#3a2f41" stroke="#3a2f41" stroke-width="2" stroke-linecap="round"/><path d="M241.81617,-33.70756c3.98419,3.17364 -8.68589,23.47927 -20.65641,40.79867c-9.47109,13.70314 -18.50424,25.5369 -18.50424,25.5369c0,0 -11.10612,8.18824 -20.63558,7.2549c-0.32844,-0.03216 2.87418,-1.13577 5.29297,-2.01771c1.52967,-0.55775 2.74584,-1.02687 2.55719,-1.08029c-34.27676,5.74677 -59.05073,-11.58042 -59.05073,-11.58042c0,0 28.26774,-11.07786 32.62939,-13.84161c4.36164,-2.76374 18.46536,-24.01222 23.80461,-22.29291c0.67764,0.21821 49.64103,-26.69805 54.56282,-22.77754z" data-paper-data="{&quot;index&quot;:null}" fill="#3a2f41" stroke="#3a2f41" stroke-width="2" stroke-linecap="round"/><path d="M178.16754,-46.89503c0,0 20.67147,31.04084 24.67121,39.27197c11.75692,24.19466 32.78562,26.62098 33.20475,31.59298c0.51297,6.08518 -55.6776,-45.68415 -56.53337,-38.59085c-1.25983,10.4426 4.75823,36.04315 -4.16659,37.03711c-43.96257,4.89625 -64.75489,-31.3004 -64.75489,-31.3004c0,0 27.18027,-2.05281 38.99209,-28.49252c4.20761,-9.40043 28.44019,-9.26757 38.66615,-10.4929c4.33878,-0.51991 -10.0794,0.97458 -10.0794,0.97458z" data-paper-data="{&quot;index&quot;:null}" fill="#3a2f41" stroke="#3a2f41" stroke-width="2" stroke-linecap="round"/><path d="M152.75596,10.73033c0.22274,-12.73151 6.60424,-44.09106 24.53777,-60.39951c7.48972,-6.81101 13.0265,1.73794 9.94283,-2.43737c-4.65826,-6.30728 -6.55464,-12.11442 -6.55464,-12.11442c0,0 28.00442,25.37873 51.96841,-0.66749c11.16975,-12.14029 10.03636,28.64266 12.83897,29.90347c8.1116,3.64916 -0.43492,-4.50852 3.72633,0.18376c14.61443,16.4795 21.35314,37.43223 21.16869,47.97566c-0.26396,15.08754 -18.94748,23.71184 -40.78266,26.39905c-9.35921,1.15182 -14.72516,1.22591 -24.13635,0.63341c-26.64472,-1.67765 -53.07288,-10.72957 -52.76516,-28.3189z" data-paper-data="{&quot;index&quot;:null}" fill="#3a2f41" stroke="none" stroke-width="0" stroke-linecap="butt"/><g data-paper-data="{&quot;index&quot;:null}" stroke-linecap="butt"><path d="M165.83522,7.9091c0.41845,-16.55363 14.02099,-35.92446 37.80164,-36.2666c36.15148,-0.52015 48.71838,20.64896 48.29992,37.20257c-0.41845,16.55362 -12.56584,30.60355 -43.81325,29.69459c-31.66066,-0.92097 -42.70675,-14.07693 -42.2883,-30.63055z" fill="#7c7984" stroke="none" stroke-width="0"/><path d="M165.83522,7.9091c0.41845,-16.55363 14.02099,-35.92446 37.80164,-36.2666c36.15148,-0.52015 48.71838,20.64896 48.29992,37.20257c-0.41845,16.55362 -29.70344,6.08452 -49.19371,5.7413c-19.49417,-0.3433 -37.32631,9.87635 -36.90786,-6.67727z" fill="#626171" stroke="none" stroke-width="0"/><path d="M216.94514,-27.45827c25.98286,4.18035 35.35394,21.97166 34.99165,36.30334c-0.41845,16.55362 -12.56584,30.60355 -43.81325,29.69459c-31.66066,-0.92097 -42.70675,-14.07693 -42.2883,-30.63055h-0.00001c0.37448,-14.81384 11.30737,-31.88382 30.64437,-35.55352" fill="none" stroke="#3a2f41" stroke-width="2"/></g><path d="M173.07697,-33.51899c11.54066,-10.16345 24.73454,-5.01909 28.69915,-1.14854c3.96461,3.87055 1.91017,15.31366 -9.6305,25.4771c-5.97632,5.26314 -13.32459,9.151 -19.5718,11.13905c-2.55487,0.81303 -5.95096,1.48125 -6.60933,5.43592c-0.39407,2.36695 -4.9089,-4.20053 -5.98082,-5.24703c-3.96459,-3.87057 1.55265,-25.49309 13.09331,-35.65653z" data-paper-data="{&quot;index&quot;:null}" fill="#3a2f41" stroke="none" stroke-width="0" stroke-linecap="butt"/><path d="M202.23592,-27.99152c3.44995,-7.4394 23.79741,-3.81122 40.01576,3.33474c16.21834,7.14598 26.56918,18.96976 23.11924,26.40916c-1.67933,3.62128 -16.4833,19.29846 -14.9442,13.05953c0.55211,-2.23805 0.35633,-6.66348 -1.15969,-7.39388c-1.82161,-0.87761 -18.04599,-0.65913 -27.8596,-18.90129c-16.21834,-7.14596 -22.62143,-9.06885 -19.17148,-16.50826z" data-paper-data="{&quot;index&quot;:null}" fill="#3a2f41" stroke="none" stroke-width="0" stroke-linecap="butt"/><path d="M221.53244,-17.00602c-3.89008,16.5 -24.33618,21.56181 -32.11419,20.85711c-0.39628,-0.0359 8.60997,-10.00759 8.81687,-21.83332c0.20688,-11.82574 6.31474,-20.73981 12.01831,-20.64002c5.61416,0.09822 11.16967,8.72849 11.10911,20.30043c-0.00097,0.1843 0.21247,1.13535 0.16993,1.31583z" data-paper-data="{&quot;index&quot;:null}" fill="#3a2f41" stroke="none" stroke-width="0" stroke-linecap="butt"/><path d="M169.81186,-0.66908c0,0 5.85974,-2.19345 10.53411,-4.84456c5.39687,-3.0609 9.08673,-7.00306 9.08673,-7.00306c0,0 -2.54487,3.78981 -8.37136,7.37893c-5.31627,3.27484 -11.24948,4.46868 -11.24948,4.46868z" data-paper-data="{&quot;index&quot;:null}" fill="#626171" stroke="none" stroke-width="0" stroke-linecap="butt"/><path d="M203.20837,-46.2584c48.25382,-1.01726 40.0838,-63.94248 40.0838,-63.94248c0,0 31.60292,27.0648 40.6544,67.10166c4.19311,18.54714 0.16906,38.41375 -9.56796,60.2077" data-paper-data="{&quot;index&quot;:null}" fill="#3a2f41" stroke="#3a2f41" stroke-width="2" stroke-linecap="round"/><path d="M241.80286,28.77123c-6.31343,6.70029 -17.82177,9.90296 -32.30717,9.90296c-10.31339,0 -22.41518,-1.53851 -30.13272,-7.81282c-10.16548,-8.26446 -11.0918,-22.3992 0.17873,-24.44532c13.30126,-2.41478 13.99681,17.54967 29.1696,17.74688c15.17279,0.19721 17.18713,-16.76847 27.5769,-17.0195c14.93834,-0.36093 11.91729,14.83285 5.51466,21.6278z" fill="#e1e2db" stroke="#3a2f41" stroke-width="1.5" stroke-linecap="butt"/><path d="M178.02195,7.20043v22.94348" fill="none" stroke="#3a2f41" stroke-width="1.5" stroke-linecap="round"/><path d="M186.45416,8.18092l-0.58829,26.47325" fill="none" stroke="#3a2f41" stroke-width="1.5" stroke-linecap="round"/><path d="M195.47468,17.59364l-0.78439,19.41372" fill="none" stroke="#3a2f41" stroke-width="1.5" stroke-linecap="round"/><path d="M204.69129,38.18394v-14.31516" fill="none" stroke="#3a2f41" stroke-width="1.5" stroke-linecap="round"/><path d="M213.71181,38.38004l0.58829,-14.51126" fill="none" stroke="#3a2f41" stroke-width="1.5" stroke-linecap="round"/><path d="M221.94793,37.00735l0.58829,-18.62932" fill="none" stroke="#3a2f41" stroke-width="1.5" stroke-linecap="round"/><path d="M230.77234,36.22296l0.98049,-27.25764" fill="none" stroke="#3a2f41" stroke-width="1.5" stroke-linecap="round"/><path d="M240.18505,7.98483l-0.98049,26.08105" fill="none" stroke="#3a2f41" stroke-width="1.5" stroke-linecap="round"/></g><path d="M163.70678,4.11189l-0.75032,-2.58127c1.20995,-2.3753 3.41398,-3.96487 4.47436,-6.39479c1.52155,-3.48671 2.41269,-7.27531 3.92264,-10.78695c2.39732,-5.57535 6.34772,-9.93705 11.28742,-13.33569c7.23998,-3.62485 16.96358,-6.20736 24.97517,-3.27755c3.63538,1.32945 5.89741,4.79194 9.33431,6.32167c5.78609,2.57532 13.87736,1.47641 19.98516,1.88389c5.12941,2.72846 11.70896,7.3488 13.52346,13.32053c0.79799,2.62627 0.27131,5.54606 1.93607,7.96179c0.82199,1.19281 2.4326,1.72926 3.1629,2.98032c2.40229,4.11531 -2.68822,9.057 -6.56381,9.4873c-1.88146,0.20889 -3.0691,-0.52029 -4.74727,-1.19097c-0.29081,-0.21552 -2.97515,-2.25571 -3.37856,-2.35519c-1.30632,-0.32215 -2.50782,1.21827 -3.85317,1.20223c-0.02544,-0.0003 -3.96258,-1.53422 -4.28031,-1.61355c-1.03396,-0.25819 -2.74534,-0.06215 -3.69695,-0.44035c-2.88329,-1.14591 -4.35482,-3.19576 -7.68711,-2.85849c-2.71437,0.27473 -4.68339,2.46741 -7.24473,3.10191c-0.20832,0.0516 -3.05309,0.04793 -4.03152,0.04631c-0.25365,0.02821 -0.4921,-0.00576 -0.67763,-0.05164c-0.15081,-0.03392 -0.32907,-0.09027 -0.50508,-0.18394c-0.85657,0.02376 -1.65807,0.7938 -2.43887,1.22364c-2.5882,1.42485 -6.6054,1.66045 -9.46824,2.5086c-2.43731,0.25011 -4.63963,0.56061 -6.94748,-0.52305c-2.08125,-0.97726 -2.63262,-2.55527 -4.2468,-3.92571c-1.02184,-0.86754 -1.81878,-0.3335 -3.13939,-0.68257c-1.10147,-0.29114 -2.09701,-0.99368 -3.22935,-1.11946c-3.11491,-0.34601 -5.41273,2.50797 -8.33086,3.11496c-2.17334,0.45207 -4.24894,-0.1958 -6.15333,-1.11279c-0.74671,-0.07389 -1.23068,-0.71918 -1.23068,-0.71918z" fill="#3a2f41" stroke="none" stroke-width="0.5" stroke-linecap="butt"/><path d="M170.17802,14.45607c-0.1961,1.46368 -1.27304,2.54928 -2.84342,2.54928c-1.57038,0 -2.84342,-0.88951 -2.84342,-2.94147c0,-2.25546 0.90189,-4.714 1.12353,-7.2257c0.42221,-4.78456 0.43797,-9.24655 1.52379,-9.24655c0.7669,0 0.9279,3.35849 1.49228,7.08597c0.64951,4.28966 1.64243,9.06798 1.54724,9.77847z" fill="#3a2f41" stroke="#3a2f41" stroke-width="4" stroke-linecap="butt"/><path d="M195.08248,18.18193c-0.1961,1.46368 -0.68475,2.74537 -2.25513,2.74537c-1.57038,0 -2.84342,-0.88951 -2.84342,-2.94147c0,-2.25546 0.2436,-4.50995 0.33914,-7.0296c0.22165,-5.84536 -4.41701,-9.04881 -4.30686,-10.34361c0.20074,-2.35969 5.9564,0.90097 6.61505,0.90097c0.7669,0 4.45766,1.20141 5.02204,4.92889c-3.86075,3.30917 -2.27952,7.69529 -2.57082,11.73946z" fill="#3a2f41" stroke="#3a2f41" stroke-width="4" stroke-linecap="butt"/><path d="M188.41515,11.56933c-0.1961,1.0163 -0.68475,1.90624 -2.25513,1.90624c-1.57038,0 -2.84342,-0.61762 -2.84342,-2.0424c0,-1.56608 0.2436,-3.13147 0.33914,-4.88099c0.22165,-4.05871 -4.41701,-6.28301 -4.30686,-7.18205c0.20074,-1.63844 5.9564,0.62559 6.61506,0.62559c0.7669,0 4.45765,0.83419 5.02204,3.42235c-3.86075,2.29771 -2.27952,5.3432 -2.57082,8.15126z" fill="#3a2f41" stroke="#3a2f41" stroke-width="4" stroke-linecap="butt"/><path d="M215.82119,4.05905c0.56438,-6.00608 4.25514,-7.94194 5.02204,-7.94194c0.65864,0 7.9831,2.00171 8.18384,5.80389c0.11015,2.08632 -6.0973,-0.00758 -5.87565,9.41109c0.09554,4.05993 0.33914,7.69259 0.33914,11.32683c0,3.30635 -1.27304,4.73961 -2.84342,4.73961c-1.57038,0 -2.05903,-2.06522 -2.25513,-4.42364c-0.29129,-6.51639 1.28993,-13.58378 -2.57082,-18.91586z" data-paper-data="{&quot;index&quot;:null}" fill="#3a2f41" stroke="#3a2f41" stroke-width="4" stroke-linecap="butt"/><path d="M248.81337,16.86398c-0.1961,1.0163 -0.68475,1.90624 -2.25513,1.90624c-1.57038,0 -2.84342,-0.61763 -2.84342,-2.0424c0,-1.56608 0.2436,-3.13147 0.33914,-4.88098c0.22165,-4.05871 -4.41702,-6.28301 -4.30687,-7.18205c0.20074,-1.63844 5.9564,0.62559 6.61505,0.62559c0.76691,0 4.45766,0.8342 5.02204,3.42235c-3.86075,2.29771 -2.27953,5.3432 -2.57082,8.15126z" fill="#3a2f41" stroke="#3a2f41" stroke-width="4" stroke-linecap="butt"/></g><g data-paper-data="{&quot;index&quot;:null}" fill="none" stroke="#453a4c" stroke-width="2" stroke-linecap="round"><path d="M203.2945,7.01656l-0.70358,6.90897l-34.12653,-0.10197l-0.49364,-6.92604"/><path d="M251.33205,7.01656l-0.76925,6.90897l-37.31149,-0.10197l-0.53972,-6.92604"/><path d="M203.24099,10.87221h8.47723"/></g></g></g><g data-paper-data="{&quot;index&quot;:null}" stroke-linecap="butt"><g data-paper-data="{&quot;index&quot;:null}"><path d="M279.26846,179.41705c0,0 1.33642,11.40586 -2.46116,15.66602c-2.14016,2.40086 -8.61512,-0.74528 -9.88623,-0.52898c-3.6637,0.62345 -14.25211,-9.57483 -14.25211,-9.57483l-5.03625,-62.27897l23.73188,-4.49561l7.9039,61.21239z" data-paper-data="{&quot;index&quot;:null}" fill="#7c7984" stroke="none" stroke-width="0"/><path d="M248.7034,134.77348c-0.69794,-4.19432 -0.29998,-8.65512 -0.29998,-8.65512l23.73189,-4.49561l1.29663,10.04178l-12.09265,8.77135z" data-paper-data="{&quot;index&quot;:null}" fill="#626171" stroke="none" stroke-width="0"/><path d="M270.05925,118.88733l1.1661,-0.22089c0,0 6.19294,39.53606 8.33089,65.80233v-0.00001c2.11233,25.95142 -26.56384,1.68677 -26.56384,1.68677l-5.49892,-62.99348l5.22475,-0.98975" data-paper-data="{&quot;index&quot;:null}" fill="none" stroke="#3a2f41" stroke-width="2.5"/></g><path d="M250.09494,149.5059c0.19798,-0.96836 0.66662,-1.8023 1.7983,-2.43204c2.83084,1.26298 1.76843,7.00804 3.13307,9.83211c0.43709,0.90454 1.54582,2.08044 1.54462,3.24129c0.09065,-0.45639 0.21869,-1.06969 0.28027,-1.37572c0.06521,-0.32405 0.20516,-0.62695 0.38966,-0.90878l-0.20934,-0.15718l0.53422,-0.71152c0.14491,-0.19897 0.3847,-0.32262 0.64874,-0.30781c0.33685,0.01889 0.60928,0.25729 0.68623,0.56856l0.20307,0.74613l-0.01387,0.00377l0.02471,0.04157c0.3421,2.38489 -0.30877,5.4325 0.75295,7.62919c0.07793,0.16122 1.46929,2.0158 1.49343,1.99478c1.30537,-1.13635 -0.19889,-4.98426 3.02646,-3.55044c0.27456,0.12205 0.48055,0.36081 0.72083,0.54121c0.01345,0.04886 -0.08373,-3.48582 0.17924,-4.44333c0.11968,-0.43575 0.25941,-0.93343 0.62025,-1.20546c0.35468,-0.26738 1.12372,0.38655 1.3325,-0.0055c0.58936,-1.10673 -0.73964,-4.49512 0.55757,-5.47737c2.19785,-1.66422 2.77803,1.76369 3.16032,3.17797c0.26471,1.84737 0.42603,4.34083 0.90643,6.03539c0.58655,2.06898 1.59731,1.20187 2.86658,1.6505c0.30837,0.10899 0.3548,0.56374 0.60949,0.76892c0.1523,0.12269 0.62583,-3.54964 0.6356,-3.7239c0,0 0.04199,-0.74882 0.79082,-0.70683c0.74882,0.04199 0.70683,0.79082 0.70683,0.79082c-0.00873,0.15567 -0.01497,0.33634 -0.02195,0.53492c0.48288,0.1758 0.45117,0.74112 0.45117,0.74112c-0.38128,6.79886 0.84621,13.7243 2.58472,20.21787c-0.13191,5.2745 2.5389,13.35354 -4.8467,15.42291l-0.76282,0.20761c0,0 -0.04633,0.01261 -0.11873,0.01972c-0.07229,0.00811 -0.12023,0.00542 -0.12023,0.00542c-3.08277,-0.17288 -6.10171,0.67596 -9.29148,0.4805c-2.08083,-0.12751 -3.96125,-1.23801 -6.02577,-1.34512c-4.68447,-1.43164 -9.32886,-2.84264 -13.92249,-4.48768c-3.6834,-0.98 -7.31419,-2.23531 -11.01003,-3.18304c-1.91289,-0.59448 -4.89583,-1.67896 -6.38286,-2.99779c-2.99907,-2.65984 -1.51872,-9.43725 -1.32227,-12.94037c0.29203,-5.20737 0.67755,-9.79596 2.10139,-14.82013c0.7668,-2.70575 1.01917,-5.31469 4.39363,-5.08775c4.2498,1.63573 8.84974,2.56408 13.14848,4.27172c0.73622,0.29246 2.03967,0.51971 2.90106,0.99189c-0.41636,-3.0286 0.16708,-6.35866 0.33552,-9.36229c0,0 0.03167,-0.56469 0.53038,-0.68582z" fill="#3a2f41" stroke="none" stroke-width="0.5"/></g><g stroke-linecap="butt"><g data-paper-data="{&quot;index&quot;:null}"><path d="M133.17779,172.02764l11.31893,-60.6738l23.44293,5.81737l-8.5155,61.89927c0,0 -11.14283,9.58941 -14.76587,8.76179c-1.257,-0.28713 -7.89796,2.49152 -9.90034,-0.0254c-3.55309,-4.46611 -1.58013,-15.77925 -1.58013,-15.77925z" data-paper-data="{&quot;index&quot;:null}" fill="#7c7984" stroke="none" stroke-width="0"/><path d="M153.26152,134.1115l-11.58255,-9.43469l1.85686,-9.95342l23.44293,5.81736c0,0 0.14757,4.47607 -0.78413,8.62474z" data-paper-data="{&quot;index&quot;:null}" fill="#626171" stroke="none" stroke-width="0"/><path d="M162.89167,116.35928l5.16114,1.28074l-9.01746,62.58676c0,0 -29.98981,22.62094 -26.42772,-3.1715v0.00001c3.60531,-26.10536 12.00225,-65.23264 12.00225,-65.23264l1.1519,0.28584" data-paper-data="{&quot;index&quot;:null}" fill="none" stroke="#3a2f41" stroke-width="2.5"/></g><path d="M164.47152,144.51133c0,3.00835 0.39607,6.36585 -0.18922,9.36639c0.88648,-0.42322 2.2006,-0.57712 2.95205,-0.8279c4.38761,-1.46427 9.03232,-2.1336 13.36703,-3.5288c3.38188,-0.03764 3.48777,2.58134 4.10186,5.32577c1.14029,5.09601 1.26827,9.69899 1.26827,14.91454c0,3.50862 1.09854,10.35829 -2.04475,12.84603c-1.55855,1.2335 -4.59753,2.14925 -6.5407,2.6357c-3.7431,0.73931 -7.43848,1.78935 -11.17098,2.56157c-4.67853,1.38525 -9.39464,2.53399 -14.15193,3.70109c-2.06728,-0.00865 -4.00694,0.99482 -6.09164,1.00562c-3.19571,0.01655 -6.16238,-1 -9.25,-1c0,0 -0.04801,0 -0.11974,-0.01215c-0.07189,-0.01116 -0.11743,-0.02634 -0.11743,-0.02634l-0.75,-0.25c-7.25815,-2.47966 -4.13916,-10.39648 -3.97553,-15.67009c2.09937,-6.38604 3.71271,-13.23187 3.71271,-20.04142c0,0 0,-0.56621 0.49196,-0.7147c0.00415,-0.19865 0.00804,-0.37939 0.00804,-0.5353c0,0 0,-0.75 0.75,-0.75c0.75,0 0.75,0.75 0.75,0.75c0,0.17454 0.26717,3.86762 0.4261,3.75365c0.26578,-0.1906 0.3376,-0.64203 0.65159,-0.73359c1.2924,-0.37685 2.25302,0.54549 2.9545,-1.4874c0.57453,-1.665 0.87521,-4.14551 1.24294,-5.97516c0.46088,-1.39066 1.23209,-4.78071 3.33331,-2.99603c1.24017,1.05334 -0.27646,4.36201 0.25,5.5c0.18649,0.40312 0.99095,-0.20672 1.3301,0.0801c0.34504,0.2918 0.45669,0.79652 0.55178,1.23829c0.20895,0.97074 -0.08599,4.49444 -0.06983,4.4464c0.25,-0.16667 0.46904,-0.39351 0.75,-0.5c3.30058,-1.25097 1.58322,2.50667 2.82292,3.71433c0.02292,0.02233 1.51595,-1.75143 1.60277,-1.90804c1.18305,-2.13379 0.70386,-5.21307 1.17895,-7.57506l0.027,-0.04012l-0.01364,-0.00455l0.24453,-0.73359c0.09425,-0.30647 0.3796,-0.52924 0.71698,-0.52924c0.26446,0 0.49695,0.13688 0.63049,0.34365l0.49355,0.74032l-0.21782,0.14521c0.16842,0.29172 0.2912,0.60199 0.33816,0.92918c0.04435,0.30899 0.13785,0.9285 0.2028,1.38925c0.06381,-1.15909 1.23663,-2.27107 1.72369,-3.14972c1.52063,-2.74324 0.78156,-8.53877 3.67868,-9.64126c1.09465,0.69212 1.51586,1.55099 1.6593,2.52891c0.49115,0.14887 0.49115,0.71445 0.49115,0.71445z" fill="#3a2f41" stroke="none" stroke-width="0.5"/></g><g data-paper-data="{&quot;index&quot;:null}" stroke="#8c9ca0" stroke-width="2" stroke-linecap="round"><path d="M178.92439,88.18623l-0.74968,34.08941l-24.68228,3.17846l-15.64068,-12.75206c0,0 9.40735,-24.74319 13.83605,-43.24857c0.95853,-4.00519 25.2101,-9.07801 25.2101,-9.07801" fill="#3a2f41"/><path d="M178.11687,113.30962l-23.70231,1.87741l-12.94399,-10.30886" fill="none"/></g><g><path d="M322.45973,181.43643c-7.30234,22.2006 28.60344,41.90636 1.51816,71.73522c-17.55234,19.33029 -47.80907,15.44334 -67.29502,-4.08537c-12.75745,-12.78545 -18.61274,-33.41819 -21.22313,-54.64985" fill="none" stroke="#3a2f41" stroke-width="13" stroke-linecap="round"/><path d="M351.753,130.6031c-2.3785,7.46213 6.05584,21.90357 0.77752,37.95112c-3.11037,9.45639 -16.03062,13.37361 -22.45314,19.29116c-3.24546,2.99029 -0.36382,10.95925 -2.79924,11.33132c-1.18527,0.18108 -3.83096,-10.0736 -4.52514,-10.0736c-1.30762,0 -4.78921,8.07717 -4.78921,8.07717l-3.0139,-13.45012c0,0 -7.82208,-18.41799 -6.19689,-30.79372c4.66667,-35.5364 50.75059,-38.83333 58.66667,-38.83333c7.91608,0 -9.93614,-1.47853 -15.66667,16.5z" fill="#7c7984" stroke="#3a2f41" stroke-width="2" stroke-linecap="butt"/><path d="M351.753,130.6031c-1.48796,4.66824 1.25582,12.06792 2.22669,20.88352c-0.02161,-0.03284 -0.04325,-0.06576 -0.06491,-0.09876c-1.60063,-2.41968 -2.18091,-5.86245 -4.05832,-8.19713l0.03118,-0.01836l-0.25131,-0.42682c-0.04291,-0.07593 -0.12437,-0.1272 -0.21781,-0.1272c-0.13722,0 -0.24862,0.11055 -0.24999,0.24745l-0.00582,0.4983c-0.04735,1.94306 -0.61124,3.87844 -0.69333,5.86588c-0.49853,2.23531 -1.47638,4.34904 -2.38688,6.46592c-0.23554,0.54762 -0.77663,1.37188 -0.93635,2.0577c-0.64283,-1.08552 -0.75032,-2.78916 -0.885,-4.01018c-0.76463,-3.40555 -1.92259,-6.67735 -2.62451,-10.13979c-0.24874,-1.02881 -0.55226,-4.95373 -1.39453,-5.44417c-1.22244,-0.7118 -2.31967,3.24068 -2.53584,4.12899c-0.19672,0.37221 0.06334,1.0624 -0.32708,1.21989c-0.52903,0.21339 -0.16649,-1.13537 -0.35251,-1.67464c-0.65969,-1.91248 -0.29715,-3.9585 -0.75703,-5.82502l0.05193,-0.00941l-0.08843,-0.4877c-0.01928,-0.1189 -0.12242,-0.20968 -0.24676,-0.20968c-0.07605,0 -0.14418,0.03396 -0.19002,0.08755l-0.32623,0.3769l0.00406,0.00351l-0.01826,0.0145c-1.0575,1.84933 -1.21072,4.70007 -1.94997,6.78342c-0.00696,2.1316 -1.70182,4.95485 -2.26463,7.09145c-0.107,0.40619 -0.44318,1.07986 -0.5748,1.59828c0.07725,-2.57049 0.23852,-4.98649 0.40579,-7.52501c0.61151,-3.42911 0.09261,-6.98797 0.84366,-10.38184c0.1703,-0.77313 1.24647,-3.52841 0.51816,-4.10612c-1.04207,-0.82658 -4.29286,1.15828 -5.09261,2.28059c0.01288,-0.63281 0.2022,-1.22221 0.43588,-1.80218l0.28084,-0.35075c0.03506,-0.04304 0.05609,-0.09796 0.05609,-0.1578c0,-0.13807 -0.11193,-0.25 -0.25,-0.25c-0.04208,0 -0.08175,0.0104 -0.11654,0.02876l-0.44248,0.22185l0.0048,0.00958l-0.03392,0.00759c-0.1105,0.10449 -0.22101,0.20897 -0.33152,0.31346c-2.58732,0.20294 -7.24295,3.28947 -9.10654,5.11417c-1.00153,0.93919 -2.28384,2.00699 -3.6164,2.97877c13.5842,-21.25181 46.60966,-23.53547 53.1979,-23.53547c7.91608,0 -9.93614,-1.47853 -15.66667,16.5z" fill="#3a2f41" stroke="none" stroke-width="0" stroke-linecap="butt"/></g><g stroke-linecap="butt"><g><path d="M172.57339,377.18356l0.0025,-120.0088l28.02191,-0.81536l-0.0025,120.0088z" fill="#7c7984" stroke="none" stroke-width="0"/><path d="M172.29668,283.83422l-0.21925,-26.71716l28.02192,-0.81536l-0.00055,26.38474z" fill="#626171" stroke="none" stroke-width="0"/><path d="M172.07494,377.12585l0.0025,-120.0088l28.02192,-0.81538l-0.0025,120.0088z" fill="none" stroke="#3a2f41" stroke-width="2.5"/></g><path d="M162.58634,376.93643v-53h47v53z" fill="#e1e2db" stroke="#3a2f41" stroke-width="2"/><path d="M114.87101,449.14541l41,-46c0,0 -7.87407,-48.338 -3.55558,-48.49794c5.49333,-0.20346 58.90269,6.4086 58.90269,6.4086l-0.34711,69.42267z" fill="#3a2f41" stroke="#3a2f41" stroke-width="2.5"/></g><path d="" fill="#3a2f41" stroke="url(#color-1)" stroke-width="2" stroke-linecap="butt"/><g stroke-linecap="butt"><g data-paper-data="{&quot;index&quot;:null}"><path d="M220.11288,375.98602l-8.90483,-119.67797l28.00519,-1.26557l8.90483,119.67797z" fill="#7c7984" stroke="none" stroke-width="0"/><path d="M213.65863,282.52553l-1.95779,-26.312l28.0052,-1.26557l1.76325,26.65981z" fill="#626171" stroke="none" stroke-width="0"/><path d="M220.60566,375.89147l-8.90483,-119.67797l28.0052,-1.26555l8.90483,119.67797z" fill="none" stroke="#3a2f41" stroke-width="2.5"/></g><path d="M213.50726,378.26352l-5.58057,-52.70538l46.73873,-4.94881l5.58057,52.70538z" data-paper-data="{&quot;index&quot;:null}" fill="#e1e2db" stroke="#3a2f41" stroke-width="2"/><path d="M214.95362,433.70699l-5.49598,-71.20565c0,0 52.77172,-10.55578 58.265,-10.76038c4.31846,-0.16084 0.05183,48.62808 0.05183,48.62808l36.29935,69.83185z" data-paper-data="{&quot;index&quot;:null}" fill="#3a2f41" stroke="#3a2f41" stroke-width="2.5"/></g><g stroke-linecap="butt"><path d="M188.0734,216.50307l2.79622,-17.97572h26.3644v21.17141z" fill="#8c9ca0" stroke="#3a2f41" stroke-width="2"/><path d="M188.47286,214.1063l2.79622,-17.97572l6.31688,-15l9.905,2.08729l10.14252,12.91271v21.17141z" fill="#e1e2db" stroke="#e1e2db" stroke-width="3.5"/></g><g data-paper-data="{&quot;index&quot;:null}" stroke="#3a2f41" stroke-width="2"><g data-paper-data="{&quot;index&quot;:null}"><path d="M201.99532,267.39766c0,0 -6.38965,6.08062 -22.08961,5.46123c-14.33517,-0.56555 -23.98193,-9.16032 -23.98193,-9.16032l11.99092,-81.36559l38.03427,2.26476l-3.95362,82.79992z" data-paper-data="{&quot;index&quot;:null}" fill="#e1e2db" stroke-linecap="butt"/><path d="M178.98687,187.10277l-4.19863,27.72858l-10.44078,2.63645" fill="none" stroke-linecap="round"/><path d="M174.16427,186.42624l-3.11198,24.05987l-6.02263,1.69734" fill="none" stroke-linecap="round"/></g><path d="M201.91718,255.24808c0,0 -9.88156,8.38581 -23.86164,5.55295c-16.43609,-3.33054 -20.35273,-10.70612 -20.35273,-10.70612" data-paper-data="{&quot;index&quot;:null}" fill="none" stroke-linecap="round"/></g><g stroke="#3a2f41" stroke-width="2"><g data-paper-data="{&quot;index&quot;:null}"><path d="M228.67556,276.23069c-15.83236,1.68624 -23.87682,-8.76578 -23.87682,-8.76578l-3.87893,-78.88253l38.32746,-5.73159l14.75887,79.74188c0,0 -6.26042,11.60697 -25.33058,13.63805z" data-paper-data="{&quot;index&quot;:null}" fill="#e1e2db" stroke-linecap="butt"/><path d="M244.50936,217.47202l-14.92238,-1.5521l-3.1343,-26.66365" fill="none" stroke-linecap="round"/><path d="M244.14492,212.63083l-9.82842,-0.88076l-3.3916,-23.91188" fill="none" stroke-linecap="round"/></g><path d="M251.39176,250.08521c0,0 -3.6236,7.61167 -20.69917,11.98989c-14.524,3.724 -25.49307,-4.01055 -25.49307,-4.01055" data-paper-data="{&quot;index&quot;:null}" fill="none" stroke-linecap="round"/></g><g><g data-paper-data="{&quot;index&quot;:null}" stroke-linecap="butt"><path d="M191.01092,211.86321l2.21675,-23.50186h20.90078v27.67998z" fill="#8c9ca0" stroke="#3a2f41" stroke-width="2"/><path d="M191.32758,208.72963l2.21675,-23.50187h20.90078v27.67998z" fill="#e1e2db" stroke="#e1e2db" stroke-width="3.5"/></g><path d="M201.7501,213.81578l-1.67972,-10.55726l-1.07982,-17.23954" data-paper-data="{&quot;index&quot;:null}" fill="none" stroke="#3a2f41" stroke-width="2" stroke-linecap="round"/><path d="M200.07038,203.25852l-5.51907,-3.19174l-1.67972,-15.71315" data-paper-data="{&quot;index&quot;:null}" fill="none" stroke="#3a2f41" stroke-width="2" stroke-linecap="round"/></g><g><path d="M164.28846,63.98118c0,0 35.4138,-10.19158 47.15361,-10.25852c4.92413,-0.02808 24.86097,6.4415 35.71432,10.3977c4.15902,1.51602 7.26857,3.23174 7.26857,3.23174l-6.15523,30.1678l-17.51265,62.97238l9.59127,21.82991l-42.97114,14.0532l-31.35915,-15.02979l11.30986,-29.40996l-10.958,-51.76363z" data-paper-data="{&quot;index&quot;:null}" fill="#3a2f41" stroke="#8c9ca0" stroke-width="2" stroke-linecap="round"/><path d="M202.95086,103.42005c0,2.97357 -2.61366,5.38409 -5.8378,5.38409c-3.22412,0 -5.83777,-2.41054 -5.83777,-5.38409c0,-2.97357 2.61365,-5.38408 5.83777,-5.38408c3.22412,0 5.8378,2.41053 5.8378,5.38408z" fill="#8c9ca0" stroke="#3a2f41" stroke-width="2" stroke-linecap="butt"/><g><path d="M189.42363,53.93713c-0.53243,-0.39566 2.96183,-5.7625 3.49752,-6.17239c0.21351,-0.06996 0.55205,-0.52297 1.30312,0.09137c3.42992,2.80549 11.283,11.02676 11.283,11.02676l-12.23708,9.94178z" data-paper-data="{&quot;index&quot;:null}" fill="#8c9ca0" stroke="#3a2f41" stroke-width="4.5" stroke-linecap="round"/><path d="M205.5379,58.93482c0,0 -9.35442,-9.89119 -5.28155,-12.05974c4.84589,-2.58012 23.33241,2.45465 24.50026,1.91998c1.20412,-2.02242 3.24224,5.35675 3.23276,7.04786c-1.19932,3.3757 -13.05527,14.15712 -13.05527,14.15712z" fill="#3a2f41" stroke="#3a2f41" stroke-width="4.5" stroke-linecap="round"/><path d="M191.69588,53.50257c0.02923,-0.58355 1.49577,-5.23111 2.70575,-5.76677c0.71841,-0.69001 13.80904,-6.62737 15.56595,-6.2553c2.77707,0.58813 13.92551,6.53268 15.04618,7.71452c0.61955,0.35521 0.69835,4.35772 0.65879,5.98699" fill="none" stroke="#3a2f41" stroke-width="6.5" stroke-linecap="butt"/><g><path d="M189.42363,53.93712c-0.53243,-0.39566 2.96183,-5.7625 3.49752,-6.17239c0.21351,-0.06996 0.55205,-0.52297 1.30312,0.09137c3.42991,2.80549 11.283,11.02676 11.283,11.02676l-12.23708,9.94178z" data-paper-data="{&quot;index&quot;:null}" fill="#8c9ca0" stroke="#12161a" stroke-width="0" stroke-linecap="round"/><path d="M205.5379,58.93481c0,0 17.06928,-9.1557 19.2187,-10.13975c1.20412,-2.0224 3.24224,5.35676 3.23276,7.04788c-1.19933,3.3757 -13.05528,14.15712 -13.05528,14.15712z" fill="#8c9ca0" stroke="#12161a" stroke-width="0" stroke-linecap="round"/><path d="M191.69588,53.50256c0.02923,-0.58355 1.49577,-5.23111 2.70575,-5.76677c0.71841,-0.69001 13.80904,-6.62737 15.56595,-6.2553c2.77707,0.58813 13.92551,6.53268 15.04618,7.71452c0.61955,0.35521 0.69835,4.35772 0.65879,5.98699" fill="none" stroke="#8c9ca0" stroke-width="2" stroke-linecap="butt"/></g></g><path d="M203.62106,84.55471c0,2.97357 -2.49663,5.38409 -5.57639,5.38409c-3.07974,0 -5.57639,-2.41054 -5.57639,-5.38409c0,-2.97357 2.49664,-5.38409 5.57639,-5.38409c3.07974,0 5.57639,2.41054 5.57639,5.38409z" fill="#8c9ca0" stroke="#3a2f41" stroke-width="2" stroke-linecap="butt"/><g fill="#8c9ca0" stroke="#3a2f41" stroke-width="2" stroke-linecap="butt"><path d="M178.77482,78.94956l4.13212,-35.10513l20.4379,19.16487l29.09077,-14.6042l-7.53528,37.6386l-21.62061,-17.99056z"/><path d="M198.22749,70.34502l1.64276,-11.21364l9.56458,1.40118l-1.64276,11.21364z"/></g></g><g stroke="#8c9ca0" stroke-width="2" stroke-linecap="round"><path d="M248.96685,64.60031c0,0 22.38342,8.77725 22.68702,12.88434c1.4027,18.97617 6.7189,44.90804 6.7189,44.90804l-17.48381,10.07782l-23.85272,-7.09683l4.72867,-33.76817" fill="#3a2f41"/><path d="M276.05594,114.08963l-14.4301,8.09886l-23.09417,-5.65543" fill="none"/></g><path d="M258.79266,150.06866h-0.45633c-0.14084,0 -0.2726,0.03882 -0.38519,0.10634c-0.086,-0.33305 -0.13977,-0.62002 0.12236,-0.64483c0.04379,-0.00414 0.34412,0.22986 0.71916,0.53849z" fill="#3a2f41" stroke="none" stroke-width="0.5" stroke-linecap="butt"/><path d="M173.03677,108.04395c-0.78262,1.56525 -2.34787,0.78262 -2.34787,0.78262l-1.67346,-1.09452c0,0 -1.07388,-3.78292 -1.77877,-7.3756c-0.65815,-3.35444 -0.9305,-6.54303 -1.45658,-6.3317c-1.86124,0.74767 0.44143,10.98657 0.44143,10.98657c0,0 -3.15955,-3.31938 -3.47114,-3.80186l-0.98494,-1.47742l0.09065,-0.06043l-0.22294,-0.17576c-1.12352,-3.9068 -0.15017,-7.03155 0.34883,-10.92549c0.03352,-0.26155 0.06025,-0.52165 0.08085,-0.78043c-0.122,-1.68982 -0.21885,-3.38601 -0.21751,-5.07238c-0.45628,-3.47472 -1.2616,-6.85754 -0.59811,-10.50491c0.13933,-0.76595 -0.09378,-1.66118 0.33416,-2.31154c0.05021,-0.07631 0.1029,-0.15049 0.15781,-0.22277c-0.38527,0.11122 -1.33113,0.2701 -1.9238,-0.60329c-0.36412,-0.32069 -0.59385,-0.79038 -0.59385,-1.31373c0,-0.61707 0.31938,-1.15955 0.80186,-1.47114l1.47742,-0.98494l0.05673,0.0851l0.17946,-0.21739c0.77686,-0.22839 1.5688,-0.3882 2.35947,-0.54714c0.01308,-0.00434 0.02603,-0.00879 0.03883,-0.01336c1.1502,-0.41068 2.35483,-0.73337 3.55522,-1.04569c0.4733,-0.30745 0.93754,-0.67548 1.42915,-0.51968c0.07074,0.02242 0.13271,0.05508 0.18744,0.0962c0.05488,-0.01477 0.10969,-0.02959 0.16443,-0.04447v-0.08748h2.25c0.9665,0 1.75,0.7835 1.75,1.75c0,0.9665 -0.7835,1.75 -1.75,1.75h-1.56331c-0.89169,0.27303 -2.15919,0.84155 -3.40474,1.31963c0.75078,1.34899 0.77713,2.97271 0.95513,4.46805l0.24598,1.96787c0.01116,0.07988 0.01694,0.16149 0.01694,0.24445c0,0.53562 -0.24063,1.01503 -0.61968,1.33604l0.05234,0.1832l-0.02289,0.00654c0.02103,0.05064 0.04123,0.1017 0.06053,0.15321c1.1338,3.02594 0.31224,7.01399 0.52631,10.21227c0.34058,5.08841 1.53382,9.57396 2.47039,14.52054c0.40769,2.15323 0.25707,3.07306 1.48908,4.86747l0.32654,-0.09452c0,0 1.56525,0.78262 0.78262,2.34787z" fill="#3a2f41" stroke="none" stroke-width="0.5" stroke-linecap="butt"/></g></g></svg>