<svg version="1.1" xmlns="http://www.w3.org/2000/svg" xmlns:xlink="http://www.w3.org/1999/xlink" width="268.30944" height="225.82586" viewBox="0,0,268.30944,225.82586"><defs><linearGradient x1="1077.66314" y1="216.06023" x2="1077.66314" y2="354.07603" gradientUnits="userSpaceOnUse" id="color-1"><stop offset="0" stop-color="#ffffff" stop-opacity="0.26046"/><stop offset="1" stop-color="#ffffff" stop-opacity="0"/></linearGradient><linearGradient x1="1077.66314" y1="216.06023" x2="1077.66314" y2="354.07603" gradientUnits="userSpaceOnUse" id="color-2"><stop offset="0" stop-color="#ffffff" stop-opacity="0.26046"/><stop offset="1" stop-color="#ffffff" stop-opacity="0"/></linearGradient><linearGradient x1="1077.66314" y1="216.06023" x2="1077.66314" y2="354.07603" gradientUnits="userSpaceOnUse" id="color-3"><stop offset="0" stop-color="#ffffff" stop-opacity="0.26046"/><stop offset="1" stop-color="#ffffff" stop-opacity="0"/></linearGradient><linearGradient x1="1036.02754" y1="220.12051" x2="1036.02754" y2="358.13629" gradientUnits="userSpaceOnUse" id="color-4"><stop offset="0" stop-color="#ffffff" stop-opacity="0.26046"/><stop offset="1" stop-color="#ffffff" stop-opacity="0"/></linearGradient><linearGradient x1="1036.02754" y1="220.12051" x2="1036.02754" y2="358.13629" gradientUnits="userSpaceOnUse" id="color-5"><stop offset="0" stop-color="#ffffff" stop-opacity="0.26046"/><stop offset="1" stop-color="#ffffff" stop-opacity="0"/></linearGradient><linearGradient x1="1036.02754" y1="220.12051" x2="1036.02754" y2="358.13629" gradientUnits="userSpaceOnUse" id="color-6"><stop offset="0" stop-color="#ffffff" stop-opacity="0.26046"/><stop offset="1" stop-color="#ffffff" stop-opacity="0"/></linearGradient><linearGradient x1="199.77291" y1="107.59467" x2="218.36902" y2="185.59708" gradientUnits="userSpaceOnUse" id="color-7"><stop offset="0" stop-color="#cedee0" stop-opacity="0"/><stop offset="1" stop-color="#cedee0" stop-opacity="0.19676"/></linearGradient></defs><g transform="translate(-137.63609,-63.99825)"><g data-paper-data="{&quot;isPaintingLayer&quot;:true}" fill-rule="nonzero" stroke-linejoin="miter" stroke-miterlimit="10" stroke-dasharray="" stroke-dashoffset="0" style="mix-blend-mode: normal"><path d="" fill="#3a2f41" stroke="none" stroke-width="0" stroke-linecap="butt"/><path d="" fill="#3a2f41" stroke="url(#color-1)" stroke-width="0.5" stroke-linecap="butt"/><path d="" fill="#3a2f41" stroke="url(#color-2)" stroke-width="0.5" stroke-linecap="butt"/><path d="" fill="#3a2f41" stroke="url(#color-3)" stroke-width="0.5" stroke-linecap="butt"/><path d="" data-paper-data="{&quot;index&quot;:null}" fill="#3a2f41" stroke="url(#color-4)" stroke-width="0.5" stroke-linecap="butt"/><path d="" data-paper-data="{&quot;index&quot;:null}" fill="#3a2f41" stroke="url(#color-5)" stroke-width="0.5" stroke-linecap="butt"/><path d="" data-paper-data="{&quot;index&quot;:null}" fill="#3a2f41" stroke="url(#color-6)" stroke-width="0.5" stroke-linecap="butt"/><g><path d="M210.2805,250.88007l47.5735,-6.61221c0,0 6.70019,11.21119 10.96043,18.22135c1.27507,2.09815 2.33158,3.81996 2.92446,4.75225c1.17924,2.89642 2.71231,6.96076 4.45159,11.73251c-24.2229,3.13733 -48.42766,6.4047 -72.32494,9.58962c2.87227,-18.63264 6.41499,-37.68351 6.41499,-37.68351z" fill="#e1e2db" stroke="none" stroke-width="0" stroke-linecap="round"/><path d="M201.46385,277.23679c1.43231,-14.60342 11.51685,-31.56924 11.51685,-31.56924l42.40141,-6.15752c0,0 6.973,10.05368 9.29393,13.96968c1.60927,2.71525 3.29613,7.27289 3.29613,7.27289l-22.76846,21.89355c-14.88087,1.9773 -29.70808,3.96957 -44.41395,5.92717c0.20758,-4.80959 0.43495,-8.89834 0.67408,-11.33653z" fill="#8c9ca0" stroke="none" stroke-width="0" stroke-linecap="butt"/><path d="M201.91002,288.82411c0.26148,-4.72895 0.56818,-9.0574 0.92795,-12.72565c1.28774,-13.13014 10.20471,-30.02303 10.20471,-30.02303l42.1061,-5.66408c0,0 7.75675,8.01495 15.35552,25.67395c1.26156,2.93179 3.04078,7.48457 5.10492,12.96395" fill="none" stroke="#3a2f41" stroke-width="2" stroke-linecap="round"/><path d="M259.70271,246.78876l-19.32451,13.23415l-30.21891,-6.12263" fill="none" stroke="#3a2f41" stroke-width="1.5" stroke-linecap="round"/></g><path d="M238.16937,254.22416c-8.91752,2.33562 -25.95606,-3.46301 -25.95606,-3.46301c0,0 -0.09391,-5.28985 0.14038,-8.22598c0.21343,-2.67471 0.70552,-8.54982 0.70552,-8.54982c0,0 -0.43875,-3.94554 -3.68086,-7.39314c-2.03125,-2.15999 -12.31176,-10.36393 -12.4174,-10.71122c-0.02031,-0.06677 0.02626,-3.94055 0.67196,-8.22232c0.7495,-4.96999 5.88717,-14.00958 8.62587,-16.53177c2.98369,-2.74781 7.46413,-4.80625 11.09028,-5.64196c5.54173,-1.2772 11.51155,-1.6847 17.19039,-0.27341c2.14003,0.53183 6.25677,2.39051 6.25677,2.39051c0,0 7.73511,6.04624 12.54061,14.61886c-1.04114,10.78664 -8.08401,16.95144 -8.08401,16.95144l0.74259,6.96643c0,0 3.25585,4.42703 4.67895,6.68685c1.41833,2.25223 3.84545,6.84939 3.84545,6.84939c0,0 -7.4329,12.21358 -16.35043,14.54921z" fill="#3a2f41" stroke="#8c9ca0" stroke-width="1.5" stroke-linecap="round"/><g data-paper-data="{&quot;index&quot;:null}" stroke="#3a2f41" stroke-linecap="butt"><g data-paper-data="{&quot;index&quot;:null}"><g stroke-width="0"><path d="" fill="#e1e2db"/><path d="" fill="#e1e2db"/><path d="" fill="#8c9ca0"/></g><path d="M272.32817,275.09823l35.57181,-11.28733l1.99525,6.32377c-12.05916,3.05908 -24.13523,6.17562 -36.19355,9.31679z" fill="#e1e2db" stroke-width="0"/><path d="M272.32816,275.09823l35.57183,-11.28733l1.99523,6.32378c-12.05916,3.05908 -24.13522,6.17562 -36.19355,9.31679z" fill="#8c9ca0" stroke-width="0"/><path d="M298.18934,267.18189l9.81623,-3.11478l1.91258,6.06176" fill="none" stroke-width="2"/><path d="M273.72454,279.4455l-1.2908,-4.09109l11.56548,-3.66984" fill="none" stroke-width="2"/></g><g data-paper-data="{&quot;index&quot;:null}"><path d="M266.63383,241.82751l-25.52138,-34.22633l1.63958,-16.39364c0,0 10.46343,7.49208 16.45584,12.56963c10.88095,9.21977 43.44064,38.18249 43.44064,38.18249l8.88232,27.76045c-12.63587,3.2003 -25.29204,6.4653 -37.92861,9.75728z" fill="#3a2f41" stroke-width="1.5"/><path d="" fill="#8ea8ab" stroke-width="2"/></g></g><g fill="#8c9ca0" stroke="#3a2f41" stroke-width="1.5" stroke-linecap="butt"><path d="M226.98272,202.35075c0.35825,1.81423 -0.88829,3.58843 -2.78422,3.96281c-1.89593,0.37438 -3.72329,-0.79282 -4.08155,-2.60705c-0.35825,-1.81423 0.88829,-3.58845 2.78423,-3.96283c1.89593,-0.37438 3.72329,0.79284 4.08155,2.60706z"/><path d="M229.55982,212.05726c0.3707,1.87727 -0.9354,3.71636 -2.91726,4.10771c-1.98186,0.39133 -3.88895,-0.81324 -4.25965,-2.69052c-0.3707,-1.87727 0.93539,-3.71634 2.91724,-4.1077c1.98186,-0.39133 3.88898,0.81323 4.25967,2.6905z"/></g><g><path d="M226.08778,182.83121c0.51195,1.98057 -3.66321,6.97848 -5.84004,7.54117c-2.17684,0.56269 -8.02153,-1.43161 -8.53348,-3.41217c-0.51195,-1.98057 4.39592,-4.41057 6.57275,-4.97326c2.17683,-0.56269 7.28884,-1.1363 7.8008,0.84428z" fill="#3a2f41" stroke="none" stroke-width="0" stroke-linecap="butt"/><g fill="#8c9ca0" stroke="#8c9ca0" stroke-width="1.5" stroke-linecap="butt"><path d="M205.32463,202.8342c-0.93715,-0.53883 5.57919,-16.59487 5.57919,-16.59487l8.92592,3.7143l6.27967,-8.3412c0,0 13.59398,10.92951 13.19963,11.82369c-0.21805,0.49442 -4.25127,-0.46369 -9.01508,-0.66872c-4.38223,-0.18863 -9.535,0.39265 -9.535,0.39265c0,0 -4.9147,2.70429 -8.8412,5.28155c-3.59021,2.35651 -6.20235,4.61728 -6.5931,4.39263z"/></g><path d="M211.32478,187.85359l0.01007,-1.98784l6.52728,-3.97578l7.76404,-0.31118l1.26643,1.69925" fill="none" stroke="#8c9ca0" stroke-width="2" stroke-linecap="round"/></g><path d="" fill="#3a2f41" stroke="#8c9ca0" stroke-width="2" stroke-linecap="butt"/><path d="" fill="#3a2f41" stroke="#8c9ca0" stroke-width="2" stroke-linecap="butt"/><g><g data-paper-data="{&quot;index&quot;:null}" stroke="#3a2f41" stroke-linecap="butt"><path d="M138.4325,132.47272l0.88992,-13.20856l8.65721,3.51776l-7.61081,-7.50637l12.03553,-20.6761c0,0 6.08014,16.31754 15.60169,30.30271c3.09823,2.91194 -4.53089,10.44617 -4.53089,10.44617z" fill="#3a2f41" stroke-width="1.5"/><path d="M168.42774,131.3986c-2.27416,-1.0476 -2.14725,-20.2287 0.13487,-24.8537c0.92308,-1.87071 17.28796,10.02812 16.11446,12.40635c-2.28212,4.62499 -12.87711,14.00074 -15.15126,12.95315z" data-paper-data="{&quot;index&quot;:null}" fill="#8c9ca0" stroke-width="2"/><path d="M169.22657,131.40622c2.01974,1.40428 -3.08111,16.31242 -6.2852,20.01483c-1.64761,1.90385 -18.82729,-9.04603 -17.53129,-10.54359c3.20407,-3.7024 20.82153,-11.55356 22.84127,-10.14927z" fill="#e1e2db" stroke-width="1.5"/><path d="M172.59543,126.94125c2.13196,2.2444 2.13914,5.69873 0.01603,7.71547c-2.12307,2.01671 -5.5725,1.83213 -7.70445,-0.4123c-2.13196,-2.2444 -2.13914,-5.69873 -0.01603,-7.71546c2.12307,-2.01671 5.57251,-1.83212 7.70446,0.41229z" fill="#e1e2db" stroke-width="2"/></g><path d="M259.84596,170.3801l-18.87927,2.34345l-2.40883,-9.93086c0,0 1.19324,10.3839 0.75966,10.369c-5.3037,0.82396 -10.53517,1.7178 -15.52606,2.62415c-20.96673,3.80763 -37.68824,7.83649 -37.68824,7.83649c0,0 -9.11983,-9.86164 -11.66313,-20.52963c-1.77732,-7.45498 -4.42497,-22.38809 3.37515,-36.36741c6.29083,-11.27439 20.5096,-17.70198 23.57096,-18.56461c2.44787,-0.68977 13.80331,0.65386 21.38065,5.00676c12.6131,7.24579 29.36772,26.35956 29.36772,26.35956z" fill="#3a2f41" stroke="none" stroke-width="0" stroke-linecap="butt"/><g stroke-linecap="butt"><path d="M242.05838,144.81981c1.57469,6.60514 4.49154,12.13737 0.78904,17.52598c-3.59919,5.23825 -13.55139,9.12303 -24.00359,11.85124c-10.40316,2.71543 -21.46412,2.85108 -27.10916,-0.36517c-5.7109,-3.25375 -6.04773,-8.64978 -7.60946,-15.20056c-3.10545,-13.026 1.76318,-31.67301 26.24335,-36.75c16.10319,-3.33969 28.5844,9.91246 31.68984,22.93849z" fill="#e1e2db" stroke="none" stroke-width="0"/><path d="M242.05838,144.81981c3.10547,13.026 -10.66879,7.65214 -23.763,10.88308c-13.09157,3.2303 -31.06475,15.95443 -34.1702,2.92843c-3.10545,-13.026 1.76318,-31.67301 26.24335,-36.75c16.10319,-3.33969 28.5844,9.91248 31.68984,22.93849z" fill="#b8c1c0" stroke="none" stroke-width="0"/><path d="M215.03391,121.361c13.81458,-0.20069 25.09773,10.96148 27.8961,22.69942l0.12443,0.52194c1.47304,6.17877 3.12566,11.92774 0.03743,17.08319c-3.42235,5.7132 -12.72819,9.53305 -23.87448,12.44245c-7.70036,2.00994 -17.40204,2.84568 -22.44568,1.41396c-8.66369,-2.45934 -10.68368,-8.65755 -12.64647,-16.89063c-2.63594,-11.05658 0.47327,-26.16296 16.44447,-33.58294" fill="none" stroke="#3a2f41" stroke-width="2"/></g><path d="M174.21882,182.98395l-10.53525,-4.78961c0,0 -7.60559,-22.46581 -1.12936,-39.78994c8.35332,-22.34533 29.40238,-35.26468 53.25742,-35.0934c5.11029,0.03669 18.25253,1.20476 27.34934,7.70968c10.92787,7.81428 16.87503,19.64944 16.87503,19.64944l-4.97093,0.38986l3.28046,9.69331c0,0 -2.79356,-0.04446 -2.86087,-0.25099c-1.50787,-4.62744 -3.60163,-9.07917 -3.60163,-9.07917c0,0 1.64792,3.65399 2.52437,9.42626c-2.87025,0.14132 -18.54895,2.17652 -18.54895,2.17652l-3.09431,-3.75771l0.58131,4.07132l-13.57763,1.94354l-4.98818,-14.64606l3.27165,14.63518c0,0 -11.91462,2.72353 -17.61355,4.30519c-0.40197,0.11157 -3.44451,-5.82896 -3.44451,-5.82896c0,0 1.42459,6.61675 1.12292,6.69423c-3.56579,0.91566 -8.34693,2.73726 -8.34693,2.73726c0,0 7.99591,33.24812 7.86831,33.29442c-1.98457,0.72057 -20.82183,-1.48855 -21.11974,-2.86628c-0.43036,-1.99033 -4.33472,-12.83719 -4.33472,-12.83719z" fill="#3a2f41" stroke="url(#color-7)" stroke-width="0.5" stroke-linecap="butt"/><path d="M209.80641,116.21014c6.6313,-33.23956 31.05079,-50.77953 31.05079,-50.77953l1.65353,56.70354" fill="#3a2f41" stroke="#3a2f41" stroke-width="1.5" stroke-linecap="round"/><path d="M160.97326,149.19485c0.32364,-47.95562 24.63045,-82.93975 24.63045,-82.93975l17.15613,47.76707" fill="#3a2f41" stroke="#3a2f41" stroke-width="1.5" stroke-linecap="round"/><path d="M190.66266,163.59249c0,0 3.45939,-4.43008 10.8737,-6.15128c7.85547,-1.8236 12.84523,1.56232 12.84523,1.56232c0,0 -5.07249,0.78489 -12.26399,2.27082c-6.39039,1.3204 -11.45494,2.31815 -11.45494,2.31815z" fill="#e1e2db" stroke="#3a2f41" stroke-width="1" stroke-linecap="butt"/><path d="M209.41403,159.28196l-0.49486,-2.1789l0.08313,-0.01858l0.48639,2.18635z" data-paper-data="{&quot;index&quot;:null}" fill="#3a2f41" stroke="#3a2f41" stroke-width="0.5" stroke-linecap="butt"/><path d="M215.53298,157.06835c0.42495,-0.26347 0.68841,0.1615 0.68841,0.1615l0.15139,0.24582c0.69979,1.02386 0.99253,2.26635 -0.06378,3.11251c0,0 -0.40874,0.28796 -0.69671,-0.12079c-0.28796,-0.40875 0.12079,-0.69671 0.12079,-0.69671c0.61599,-0.31642 0.15224,-1.27011 -0.1778,-1.71906l-0.1838,-0.29483c0,0 -0.26346,-0.42495 0.16149,-0.68841z" fill="#3a2f41" stroke="none" stroke-width="0.5" stroke-linecap="butt"/><path d="M203.55564,162.34224c0.3209,0.38342 -0.0625,0.70434 -0.0625,0.70434l-0.24291,0.19367c-2.28681,1.32061 -5.98589,2.30115 -8.48983,1.21207c0,0 -0.45851,-0.19942 -0.25908,-0.65793c0.19942,-0.45851 0.65793,-0.25908 0.65793,-0.25908c2.20871,0.96068 5.58603,0.00182 7.59005,-1.16054l0.10202,-0.09502c0,0 0.38342,-0.32092 0.70434,0.0625z" fill="#3a2f41" stroke="none" stroke-width="0.5" stroke-linecap="butt"/><path d="M214.8901,159.9813c0.42571,0.26226 0.16343,0.68796 0.16343,0.68796l-0.28713,0.35213c-2.73792,1.58445 -7.24699,2.68421 -10.35247,1.96152c0,0 -0.48678,-0.11417 -0.3726,-0.60097c0.11418,-0.48678 0.60098,-0.3726 0.60098,-0.3726c2.86577,0.67821 7.1034,-0.39472 9.62315,-1.85343l-0.0633,-0.01118c0,0 0.26226,-0.42571 0.68796,-0.16343z" fill="#3a2f41" stroke="none" stroke-width="0.5" stroke-linecap="butt"/><path d="M214.65702,157.04192c-0.26226,0.42571 -0.68796,0.16343 -0.68796,0.16343l0.00229,-0.00449c-0.51579,-0.23953 -1.03637,-0.19532 -1.5939,-0.36713c0,0 -0.47659,-0.15119 -0.32541,-0.62777c0.15119,-0.47658 0.62778,-0.32541 0.62778,-0.32541c0.59433,0.1955 1.10476,0.15996 1.69039,0.40331l0.12338,0.07012c0,0 0.42571,0.26225 0.16343,0.68796z" fill="#3a2f41" stroke="none" stroke-width="0.5" stroke-linecap="butt"/><path d="M194.15362,164.28465c0.17226,0.46939 -0.29714,0.64165 -0.29714,0.64165l-0.41435,0.13395c-0.69787,0.06004 -1.15735,0.01646 -1.81835,-0.21029c0,0 -0.4722,-0.16442 -0.30777,-0.63661c0.16442,-0.4722 0.63662,-0.30778 0.63662,-0.30778c0.53875,0.191 0.82576,0.21373 1.39937,0.15873l0.15997,-0.07681c0,0 0.46939,-0.17226 0.64165,0.29713z" fill="#3a2f41" stroke="none" stroke-width="0.5" stroke-linecap="butt"/></g><g data-paper-data="{&quot;index&quot;:null}"><g><g fill="none" stroke="#8c9ca0" stroke-width="2" stroke-linecap="round"><path d="M314.26878,173.63036l-10.03969,-15.24124l-17.83416,11.48234l-7.65336,-15.02711l-19.16012,12.36961l-14.28189,-17.38294"/><path d="M243.04271,164.47211l19.19335,-12.61822l13.68528,17.32932l16.1439,-12.38862l10.07295,14.99252l13.42613,-12.38094"/></g><g stroke="none" stroke-width="0.78636"><path d="M220.01704,135.22461c6.37952,0.75039 11.78604,3.59 15.36568,7.572c3.58072,3.9814 5.33453,9.10529 4.41097,14.42276c-0.92356,5.31745 -4.35132,9.83182 -9.14404,12.82826c-4.79189,2.99735 -10.94851,4.4768 -17.32804,3.7264c-6.37952,-0.75039 -11.78604,-3.59 -15.36566,-7.572c-3.5807,-3.98139 -5.33465,-9.10519 -4.41111,-14.42265c0.92355,-5.31755 4.35145,-9.8318 9.14418,-12.82835c4.79189,-2.99735 10.94851,-4.47681 17.32803,-3.72641z" fill="#3a2f41" stroke-linecap="butt"/><path d="M238.95594,136.476c2.48065,0.29174 4.32991,2.85759 5.31155,6.76762c0.98176,3.91014 1.09816,9.16318 0.11378,14.83037c-0.98425,5.66709 -2.8842,10.68307 -5.15763,14.21024c-2.27356,3.52718 -4.92211,5.56394 -7.40277,5.27221c-2.48064,-0.29183 -4.3298,-2.85767 -5.31155,-6.76772c-0.98163,-3.91014 -1.09803,-9.16316 -0.11377,-14.83036c0.98437,-5.6671 2.88431,-10.68296 5.15773,-14.21025c2.27342,-3.52718 4.92211,-5.56394 7.40263,-5.27212z" fill="#3a2f41" stroke-linecap="butt"/><path d="M224.55676,148.69148c2.06202,0.24253 3.68055,1.90229 4.62939,4.3876c0.94992,2.48542 1.09537,6.21457 0.61337,9.34136c-0.50104,3.25254 -1.23491,6.80822 -3.55947,9.51493c-1.23591,1.44564 -3.83987,1.51278 -5.81184,1.89912c-1.84974,0.24171 -4.91007,1.30103 -5.47383,-0.04791c-1.68459,-4.1453 -0.79767,-8.97123 -0.10399,-13.12448c0.51961,-3.10735 2.01075,-6.65897 3.76863,-8.82595c1.7569,-2.16707 3.8757,-3.3872 5.93776,-3.14467z" fill="#8c9ca0" stroke-linecap="round"/></g></g><path d="M384.92955,219.62568l-23.56497,-1.52444l5.09724,-59.81521l23.56485,1.52454z" fill="#3a2f41" stroke="none" stroke-width="0.78636" stroke-linecap="butt"/><path d="M370.61273,180.07088l-61.31242,-3.96656l1.82162,-21.37662l61.31242,3.96656z" fill="#3a2f41" stroke="none" stroke-width="0.78636" stroke-linecap="butt"/><path d="M365.59688,218.84814l-8.29145,-0.53646l3.92742,-46.08706l8.29133,0.53634z" fill="#8c9ca0" stroke="none" stroke-width="0.78636" stroke-linecap="butt"/><path d="M364.35646,180.04975l-54.98486,-3.55726l0.66847,-7.84459l54.98485,3.55716z" fill="#8c9ca0" stroke="none" stroke-width="0.84105" stroke-linecap="butt"/></g><g stroke="#3a2f41" stroke-width="2"><g fill="#e1e2db"><path d="M370.73578,217.12581l6.94426,-26.11572l7.397,25.73236z" stroke-linecap="round"/><path d="M376.22464,215.95026l4.29057,-23.68789l9.62773,27.00628z" stroke-linecap="round"/><path d="M308.6842,229.4293l2.68516,-3.93357l-12.41693,-1.5443l8.49622,-4.02838l-2.94406,-3.18758c0,0 23.02066,-2.79034 30.01207,-4.11367c4.48165,-0.84825 7.53109,-1.55727 7.53109,-1.55727l8.06156,-17.11363l28.4844,-2.54047c0,0 -21.13492,10.29099 -16.9265,13.81046c1.03145,0.86262 24.27611,4.13565 24.27611,4.13565l-6.55957,-18.30209l19.3278,27.69757c0,0 -13.88758,2.82869 -22.74449,3.56127c-8.85692,0.73259 21.35679,-3.20968 22.75169,-3.45957l-18.0365,8.52734c0,0 -13.64758,0.43187 -18.31679,0.86663c-13.62321,1.26845 -53.6813,1.18155 -53.6813,1.18155z" stroke-linecap="butt"/></g><g stroke-linecap="butt"><path d="M346.04229,236.26401l-40.35053,4.04402c0,0 -88.41991,-16.02246 -101.2493,-22.14124c-7.06546,-3.36977 -0.18824,-12.49096 -0.18824,-12.49096l86.96521,2.49777l51.48154,-11.67506z" fill="#3a2f41"/><path d="M339.03839,236.92208l-2.24858,0.05788l-5.065,-37.85989l2.15381,-0.31468z" fill="#8ea8ab"/></g></g></g></g></svg>