<svg version="1.1" xmlns="http://www.w3.org/2000/svg" xmlns:xlink="http://www.w3.org/1999/xlink" width="264.75314" height="426.7371" viewBox="0,0,264.75314,426.7371"><g transform="translate(-107.77489,33.24355)"><g data-paper-data="{&quot;isPaintingLayer&quot;:true}" fill-rule="nonzero" stroke-linejoin="miter" stroke-miterlimit="10" stroke-dasharray="" stroke-dashoffset="0" style="mix-blend-mode: normal"><g><path d="M130.94445,191.01753l-3.75698,-7.06294l9.12296,-4.85278l3.75699,7.06295z" fill="#963232" stroke="#3a2f41" stroke-width="2" stroke-linecap="butt"/><path d="M123.14676,227.43829c0,0 -5.53389,2.69313 -7.6632,1.0308c-4.52985,-3.53641 -6.62059,-19.0705 -6.62059,-19.0705l16.50305,-7.90924l8.06839,-13.43739l25.76482,7.17538l5.1754,10.55483l8.22685,-1.32554l9.02239,25.57527l-14.50669,6.09425l-24.49651,11.97232z" data-paper-data="{&quot;index&quot;:null}" fill="#7c7984" stroke="#3a2f41" stroke-width="2" stroke-linecap="butt"/><path d="M148.87326,249.05045c0,0 -38.09659,-53.61451 -34.8432,-56.81118c1.71724,-1.6873 14.84709,-9.04014 14.84709,-9.04014l2.8789,3.69121l6.77682,-3.48607l33.48439,51.23951z" fill="#595564" stroke="#3a2f41" stroke-width="2" stroke-linecap="butt"/><path d="M134.49557,225.64745c0,0 -1.54487,1.96556 -3.51041,0.42069c-0.42853,-0.33683 -0.6902,-0.69365 -0.8374,-1.04574c-0.73023,-0.13698 -1.39217,-0.59668 -1.76045,-1.30748l-1.33698,-2.58046c-1.44508,-2.21297 -2.94709,-4.50323 -4.79784,-6.40597c-1.3321,-1.36954 -4.08799,-2.04137 -4.15238,-3.95082c-0.07259,-2.15168 4.62972,-3.77304 6.35174,-4.43758c3.86859,-1.49293 11.15622,-4.05974 11.15622,-4.05974l5.06329,16.28565c0,0 0.22608,-0.45144 0.41333,0.74489l-0.56117,0.597l0.33461,0.16134l-1.07475,2.22917c-0.22537,0.48068 -0.60502,0.89366 -1.11281,1.15675c-0.82483,0.42735 -1.77768,0.35039 -2.50636,-0.11912c-0.49178,0.75302 -1.0421,1.51018 -1.6686,2.31142z" fill="#7c7984" stroke="none" stroke-width="0.5" stroke-linecap="butt"/><path d="M123.62275,227.41758l16.61771,-8.73724l0.12716,0.3362l16.77813,22.29913l-14.51413,6.8105l-18.74327,-20.41605" fill="#7c7984" stroke="#3a2f41" stroke-width="2" stroke-linecap="round"/><path d="M149.29165,231.51714l-14.28511,6.93981" fill="none" stroke="#3a2f41" stroke-width="2" stroke-linecap="round"/><path d="M115.13961,210.28107c0,0 16.34767,-5.97493 19.24106,-7.21772c1.61436,-0.69341 5.71287,15.35051 5.71287,15.35051" fill="none" stroke="#3a2f41" stroke-width="2" stroke-linecap="round"/><path d="M148.48167,194.30842c0,0 3.41594,6.10444 3.36703,8.56433c-0.15124,7.60807 -8.65816,13.54277 -14.15901,8.2848c-1.73354,-1.65699 -1.65244,-6.15708 -2.18744,-10.13462c-0.5307,-3.94552 -3.51047,-6.5937 -1.12784,-9.43585c2.38263,-2.84216 13.29342,-5.07605 13.29342,-5.07605l10.96415,9.48222" fill="#7c7984" stroke="#3a2f41" stroke-width="2" stroke-linecap="round"/><path d="M134.21658,199.34693l-13.3913,7.65256" fill="none" stroke="#3a2f41" stroke-width="2" stroke-linecap="round"/><path d="M118.15156,195.43847c-0.33091,-0.75948 0.01652,-1.64339 0.776,-1.97429c0.75947,-0.33091 1.64339,0.01652 1.97429,0.77599c0.33091,0.75948 -0.01652,1.64339 -0.77599,1.97429c-0.75947,0.33091 -1.64339,-0.01652 -1.9743,-0.77599z" fill="#3a2f41" stroke="none" stroke-width="0.5" stroke-linecap="butt"/><path d="M125.56425,190.75439c-0.33091,-0.75948 0.01652,-1.64339 0.776,-1.9743c0.75947,-0.33091 1.64339,0.01652 1.97429,0.77599c0.33091,0.75948 -0.01652,1.64339 -0.77599,1.9743c-0.75947,0.33091 -1.64339,-0.01652 -1.9743,-0.77599z" fill="#3a2f41" stroke="none" stroke-width="0.5" stroke-linecap="butt"/><path d="M121.46494,200.53962c-0.33091,-0.75948 0.01652,-1.64339 0.77599,-1.9743c0.75947,-0.33091 1.64339,0.01652 1.9743,0.77599c0.33091,0.75948 -0.01653,1.64339 -0.776,1.9743c-0.75947,0.33091 -1.64339,-0.01652 -1.97429,-0.77599z" fill="#3a2f41" stroke="none" stroke-width="0.5" stroke-linecap="butt"/><path d="M125.4223,196.27021c-0.33091,-0.75948 0.01652,-1.64339 0.77599,-1.9743c0.75947,-0.33091 1.64339,0.01652 1.9743,0.776c0.33091,0.75948 -0.01652,1.64339 -0.776,1.97429c-0.75947,0.33091 -1.64339,-0.01652 -1.97429,-0.77599z" fill="#3a2f41" stroke="none" stroke-width="0.5" stroke-linecap="butt"/><path d="M130.71113,195.05666c-0.33091,-0.75948 0.01652,-1.64339 0.77599,-1.9743c0.75947,-0.33091 1.64339,0.01653 1.9743,0.776c0.33091,0.75948 -0.01653,1.64339 -0.776,1.97429c-0.75947,0.33091 -1.64339,-0.01652 -1.97429,-0.77599z" fill="#3a2f41" stroke="none" stroke-width="0.5" stroke-linecap="butt"/><path d="M133.69722,189.39245c-0.33091,-0.75948 0.01652,-1.64339 0.776,-1.97429c0.75947,-0.33091 1.64339,0.01652 1.97429,0.77599c0.33091,0.75948 -0.01652,1.64339 -0.77599,1.97429c-0.75947,0.33091 -1.64339,-0.01652 -1.9743,-0.77599z" fill="#3a2f41" stroke="none" stroke-width="0.5" stroke-linecap="butt"/></g><path d="M168.64314,239.15745l-9.57914,-45.50459l16.29652,-20.15453l20.56638,4.20547l1.79087,-58.60989l10.89609,-11.19189l22.92094,0.53436c0,0 2.55757,50.78036 3.64705,72.41221c0.88458,17.56324 -3.89288,49.34634 -3.89288,49.34634l-50.12473,23.6875z" fill="#e1e2db" stroke="#3a2f41" stroke-width="2" stroke-linecap="butt"/><path d="M245.05006,365.4821c-0.36664,9.2681 -10.12435,6.26947 -17.88959,8.9152c-7.4753,2.54693 -10.93567,6.49052 -19.86756,8.59775c-7.09619,1.67415 -19.73587,1.82038 -25.65952,1.82038c-21.12489,0 -30.25,-4.76801 -27.75,-12.5c0.11979,-0.37047 -1.35049,-0.42887 -2.23311,-2.55347c-1.3846,-3.33294 -2.4187,-9.19402 -1.98596,-9.75276c4.76948,-6.15816 24.07672,-1.69376 42.46908,-1.69376c12.85339,0 28.9341,0.66688 39.3948,2.92326c6.73173,1.45204 13.80274,1.22899 13.52186,4.24341z" fill="#595564" stroke="#3a2f41" stroke-width="2.5" stroke-linecap="butt"/><path d="M153.2173,344.82145c11.73082,-12.16833 35.60206,-12.00034 35.60206,-12.00034l2.94894,-11.24305l50.84628,20.2255c0,0 5.76375,22.65007 -3.96491,24.45655c-2.8338,0.5262 -11.64059,0.63685 -15.42707,1.77232c-6.07039,1.82035 -13.05163,7.65936 -21.89235,8.83668c-8.72882,1.16242 0.14875,-10.53387 -7.35641,-14.241c-11.26149,-5.56254 -37.5075,-4.08809 -40.323,-1.76627c-4.60408,3.79678 0.06474,10.37279 0.06474,10.37279c0,0 0.64984,1.2794 -1.85137,-3.27146c-6.08271,-11.06727 -0.96142,-20.74087 1.35309,-23.14171z" fill="#e1e2db" stroke="#3a2f41" stroke-width="2.5" stroke-linecap="butt"/><path d="M177.57793,332.90141l7.6378,-5.42781c0,0 7.24322,-0.23604 12.63595,1.92105c2.06613,0.82645 5.36885,2.51885 7.87181,4.16402c3.23265,2.12479 5.46529,4.17082 5.46529,4.17082c0,0 -1.93907,4.96835 -3.22113,3.92781c-11.50715,-9.33938 -30.38973,-8.75589 -30.38973,-8.75589z" fill="#e1e2db" stroke="#3a2f41" stroke-width="2.5" stroke-linecap="butt"/><path d="M169.7503,336.38085c0,0 4.14085,-3.36741 9.2349,-4.01723c3.80888,-0.48587 12.76089,1.0692 15.81453,2.74582c1.95062,1.071 5.02363,3.15156 7.30852,5.08822c2.95101,2.50126 4.91896,4.80303 4.91896,4.80303c0,0 -0.20391,4.9509 -1.35027,3.76252c-10.28918,-10.66637 -35.92664,-12.38236 -35.92664,-12.38236z" fill="#e1e2db" stroke="#3a2f41" stroke-width="2.5" stroke-linecap="butt"/><g data-paper-data="{&quot;index&quot;:null}" fill="#595564" stroke="#3a2f41" stroke-width="2"><path d="M187.9052,326.3017l14.29949,-124.94156l36.84841,3.37349l1.80658,138.99068z" data-paper-data="{&quot;index&quot;:null}" stroke-linecap="butt"/><path d="M214.06688,208.31578l-2.64321,34.93371l-14.2949,3.59656" stroke-linecap="round"/><path d="M208.68204,205.51054l-2.37368,32.00093l-8.34993,2.49508" stroke-linecap="round"/></g><g stroke="#3a2f41" stroke-width="2.5" stroke-linecap="butt"><path d="M267.71234,369.27172c-1.73219,-4.22918 0.37339,-10.67063 0.37339,-10.67063c25.36144,-2.15757 50.71217,-4.44572 76.04845,-6.87858c3.3381,5.08182 7.03183,8.10334 7.99611,13.91328c1.20849,7.28136 -1.17061,17.15831 -5.93354,20.61489c0,0 -12.36237,10.26215 -43.93987,3.92867c-7.00299,-1.40458 -16.57054,-9.85444 -23.57399,-13.80181c-4.92731,-2.77718 -8.40947,-0.85297 -10.97053,-7.10582z" fill="#595564"/><path d="M268.72376,365.66306c-3.4834,-5.60359 -2.10976,-20.97977 -2.10976,-20.97977l1.49636,-8.20453l49.09528,-7.18321c0,0 5.77804,4.44277 15.58518,10.14724c4.64035,2.69914 10.39047,3.17318 14.14369,7.8777c8.99787,11.27848 8.60512,26.88373 4.4053,31.67557c-1.43216,1.03936 -0.7621,-1.43115 -0.19291,-4.29655c0.68072,-3.42682 0.24052,-8.18948 -1.7054,-9.1273c-9.61145,-4.63218 -32.74341,1.73115 -33.53109,3.11511c-3.84638,6.7582 -2.65224,18.3642 -4.96145,16.98747c-13.23161,0.36644 -21.61626,-8.32626 -30.77765,-14.83004c-2.9608,-2.10192 -9.75534,-2.45946 -11.44757,-5.18167z" fill="#e1e2db"/><path d="M295.81902,344.03572c0,0 2.24485,-2.05388 5.49817,-4.19004c2.51896,-1.65398 5.84449,-3.358 7.92573,-4.19172c5.43214,-2.17608 12.51147,-2.52215 12.51147,-2.52215l5.73226,3.90285c0,0 -15.96117,0.66762 -27.53558,10.04748z" data-paper-data="{&quot;index&quot;:null}" fill="#e1e2db"/><path d="M302.17141,348.96975c0,0 2.20274,-2.09823 5.41206,-4.29883c2.48489,-1.70388 5.77517,-3.47385 7.83907,-4.34891c5.38689,-2.28395 13.12794,-2.59907 13.12794,-2.59907l7.2135,3.63432c0,0 -20.36962,1.9672 -31.75137,11.57595z" data-paper-data="{&quot;index&quot;:null}" fill="#e1e2db"/></g><g fill="#595564" stroke="#3a2f41" stroke-width="2"><path d="M265.36284,343.72679l-26.64346,-131.19103l35.36066,-13.93172l45.71224,132.2204z" data-paper-data="{&quot;index&quot;:null}" stroke-linecap="butt"/><path d="M289.25319,245.54365l-14.86988,0.2039l-10.79846,-36.29503" stroke-linecap="round"/><path d="M286.72977,237.99815l-9.25051,0.02356l-11.28249,-36.30178" stroke-linecap="round"/></g><g stroke-linecap="butt"><path d="M225.45634,229.98605l1.23334,-18.70096l25.20913,-2.26888l1.6964,21.74218z" fill="#8c9ca0" stroke="#3a2f41" stroke-width="2"/><path d="M225.64624,227.49034l1.23334,-18.70097l25.20913,-2.26886l1.6964,21.74216z" fill="#595564" stroke="#595564" stroke-width="3.5"/></g><path d="M240.46588,229.2402l-1.5,-7.51816h-4.5l-4,-23.09149" fill="none" stroke="#3a2f41" stroke-width="2" stroke-linecap="round"/><path d="M238.83352,221.74168l-1.73528,-14.53859" fill="none" stroke="#3a2f41" stroke-width="2" stroke-linecap="round"/><path d="M247.71115,142.71402l-3.55302,-47.36693c0,0 47.1607,1.71412 50.72014,7.72776c1.95416,3.30154 -4.28758,36.42275 -4.28758,36.42275c0,0 6.40049,20.07748 6.6316,21.56437c0.37178,2.39185 -27.75765,18.45521 -34.55862,15.97709c-14.83989,-5.40734 -14.95252,-34.32504 -14.95252,-34.32504z" fill="#595564" stroke="#3a2f41" stroke-width="2" stroke-linecap="butt"/><g><g><g fill="none" stroke="none" stroke-width="1" stroke-linecap="butt" font-family="sans-serif" font-weight="normal" font-size="12" text-anchor="start"><g><g><g/></g></g><g><g><g/></g></g></g><g fill="none" stroke="none" stroke-width="1" stroke-linecap="butt" font-family="sans-serif" font-weight="normal" font-size="12" text-anchor="start"><g><g><g/></g></g><g><g><g/></g></g></g><path d="M207.62846,106.33476c0,0 26.06692,-10.21126 37.59519,-10.27033c10.5076,-0.05381 34.38279,10.23853 36.15951,15.45448c-2.90625,25.2794 -4.01795,49.05133 -3.84896,68.45508c0.11179,12.8369 2.45315,22.00117 2.45315,22.00117c0,0 -34.12338,11.41776 -54.9083,10.47164c-10.78747,-0.49103 -23.50861,-10.58792 -23.50861,-10.58792c-0.11548,-0.1489 1.65195,-15.53136 2.70679,-30.86384c1.77195,-25.75636 3.70172,-63.40392 3.70172,-63.40392" fill="#3a2f41" stroke="#3a2f41" stroke-width="2" stroke-linecap="round"/><g fill="none" stroke="none" stroke-width="1" stroke-linecap="butt" font-family="sans-serif" font-weight="normal" font-size="12" text-anchor="start"><g/></g></g><path d="M234.60032,154.88419c-18.91407,-17.42542 -23.60113,-49.84741 -23.60113,-49.84741l29.07673,-11.81077c0,0 16.37401,4.43646 21.96269,6.68598c4.85495,1.95419 13.60908,6.23891 13.60908,6.23891c0,0 -6.64671,17.23913 -15.76336,27.8898c-13.37822,15.62934 -25.03446,21.0197 -25.28401,20.84347z" fill="#e1e2db" stroke="none" stroke-width="0" stroke-linecap="butt"/><path d="M210.99922,105.03676l29.07672,-11.81076c0,0 16.37401,4.43645 21.96269,6.68598c4.85495,1.95419 13.60908,6.23891 13.60908,6.23891c0,0 -1.85641,4.81482 -4.95271,10.92743c-9.44022,3.57627 -19.05151,7.40957 -30.11009,11.8674c-7.15123,2.88273 -13.08978,5.2717 -19.17628,7.97057c-8.06473,-15.66056 -10.40941,-31.87954 -10.40941,-31.87954z" fill="#8c9ca0" stroke="none" stroke-width="0" stroke-linecap="butt"/><path d="M235.0897,150.69747c0,0 -7.69495,-8.32935 -9.43769,-13.50697c-0.29644,-0.88072 2.68429,-5.95846 5.01332,-9.72239c1.44805,-2.34017 2.64418,-4.17247 2.64418,-4.17247l10.50064,-0.07534c0,0 8.06935,14.39868 7.77998,14.72031c-6.35435,6.95086 -16.50042,12.75688 -16.50042,12.75688z" fill="#3a2f41" stroke="#3a2f41" stroke-width="2" stroke-linecap="butt"/><path d="M234.60032,154.88419c-18.91407,-17.42542 -23.60113,-49.84741 -23.60113,-49.84741l29.07673,-11.81077c0,0 16.37401,4.43646 21.96269,6.68598c4.85495,1.95419 13.60908,6.23891 13.60908,6.23891c0,0 -6.64671,17.23913 -15.76336,27.8898c-13.37822,15.62934 -25.03446,21.0197 -25.28401,20.84347z" fill="none" stroke="#3a2f41" stroke-width="2" stroke-linecap="butt"/><path d="M233.70086,119.48955l-0.00472,-11.03715l9.62842,-0.00413l0.00472,11.03716z" fill="#3a2f41" stroke="#3a2f41" stroke-width="2" stroke-linecap="butt"/><g><path d="M221.98661,100.75475c-0.55032,-0.35864 2.66053,-5.7378 3.17356,-6.16151c0.20918,-0.07818 0.52362,-0.53431 1.30274,0.02616c3.55807,2.55951 11.79507,10.16545 11.79507,10.16545l-9.52894,9.66959z" data-paper-data="{&quot;index&quot;:null}" fill="#8c9ca0" stroke="#3a2f41" stroke-width="4.5" stroke-linecap="round"/><path d="M238.29111,104.83378c0,0 -9.81667,-9.15538 -5.86843,-11.45669c4.6976,-2.73808 23.36719,1.26306 24.50369,0.68779c1.09775,-2.02166 3.49952,5.04586 3.57518,6.68842c-1.02486,3.3355 -12.29308,14.37387 -12.29308,14.37387z" fill="#3a2f41" stroke="#3a2f41" stroke-width="4.5" stroke-linecap="round"/><path d="M224.22834,100.22365c-0.00024,-0.56805 1.22679,-5.15139 2.40522,-5.72962c0.68094,-0.70453 13.42294,-7.09849 15.19189,-6.82157c2.79611,0.43773 14.20132,5.67467 15.37723,6.76847c0.63506,0.31518 0.91503,4.19795 0.95761,5.78189" fill="none" stroke="#3a2f41" stroke-width="6.5" stroke-linecap="butt"/><g><path d="M221.79011,100.75482c-0.55032,-0.35864 2.66053,-5.7378 3.17356,-6.16151c0.20918,-0.07818 0.52363,-0.53431 1.30275,0.02616c3.55806,2.55951 11.79507,10.16546 11.79507,10.16546l-9.33251,9.47921z" data-paper-data="{&quot;index&quot;:null}" fill="#8c9ca0" stroke="#12161a" stroke-width="0" stroke-linecap="round"/><path d="M238.29111,104.83378c0,0 16.54352,-9.71012 18.63526,-10.7689c1.09775,-2.02164 3.49952,5.04587 3.57518,6.68843c-1.02487,3.3355 -12.29308,14.37386 -12.29308,14.37386z" fill="#8c9ca0" stroke="#12161a" stroke-width="0" stroke-linecap="round"/><path d="M224.22834,100.22361c-0.00024,-0.56805 1.22679,-5.15139 2.40522,-5.72962c0.68094,-0.70453 13.42296,-7.09849 15.19189,-6.82156c2.79611,0.43774 14.20132,5.67468 15.37722,6.76847c0.63506,0.31518 0.91503,4.19795 0.95761,5.78189" fill="none" stroke="#8c9ca0" stroke-width="2" stroke-linecap="butt"/></g></g></g><g><path d="M196.37475,214.89599l1.46996,-7.59452l-7.14077,-15.037l11.17376,-16.11791l2.64651,-66.87396c0,0 5.04291,-5.93378 6.73518,-3.63368c4.68661,6.36993 22.22963,40.07478 22.22963,40.07478l32.81651,-44.52562l15.65881,3.2596l2.46484,109.29317z" data-paper-data="{&quot;index&quot;:null}" fill="#7c7984" stroke="none" stroke-width="0" stroke-linecap="butt"/><path d="M197.88426,208.20649l85.79104,-0.67428" data-paper-data="{&quot;index&quot;:null}" fill="none" stroke="#3a2f41" stroke-width="2" stroke-linecap="round"/><path d="M210.96365,105.13485c0,0 14.23291,24.34429 19.57903,34.79154c-9.80475,4.91643 -19.43195,9.82004 -28.14874,14.06252l2.49874,-45.4007z" data-paper-data="{&quot;index&quot;:null}" fill="#595564" stroke="none" stroke-width="0" stroke-linecap="butt"/><path d="M281.1823,117.04543c-4.88243,1.87168 -11.23191,4.2597 -13.64023,5.29297c-8.10536,3.47749 -16.81996,7.60949 -25.61868,11.93146l24.38212,-33.08178l14.74101,4.77301z" data-paper-data="{&quot;index&quot;:null}" fill="#595564" stroke="none" stroke-width="0" stroke-linecap="butt"/><path d="M196.37475,214.89598l1.46997,-7.59452l-7.14077,-15.03701l11.17376,-16.1179l2.28983,-67.80631l6.77644,-3.72125l22.54505,41.09471l32.81651,-44.52562l15.25956,3.66459l2.8641,108.88817z" data-paper-data="{&quot;index&quot;:null}" fill="none" stroke="#3a2f41" stroke-width="2" stroke-linecap="butt"/></g><path d="M246.22889,144.83768c1.14699,22.6818 4.93641,25.70276 4.93641,25.70276l-5.10225,7.73666l-7.52893,-6.78918c0,0 4.76845,-2.99436 2.40131,-25.9189z" fill="#e1e2db" stroke="#3a2f41" stroke-width="2" stroke-linecap="round"/><path d="M229.68195,145.75515c-2.22375,22.60164 1.07667,26.15035 1.07667,26.15035l-6.19144,6.896l-6.4408,-7.82904c0,0 5.15922,-2.25538 6.21218,-25.27774z" fill="#e1e2db" stroke="#3a2f41" stroke-width="2" stroke-linecap="round"/><path d="M273.03935,179.37996c-1.26772,-26.9214 -5.74911,-52.5409 -5.74911,-52.5409l12.41561,-23.04627l23.86133,18.00402l10.97956,46.41279l30.70932,19.60881l-25.35143,50.32609l-43.94986,-18.06167z" data-paper-data="{&quot;index&quot;:null}" fill="#e1e2db" stroke="#3a2f41" stroke-width="2" stroke-linecap="butt"/><g stroke="#3a2f41" stroke-width="2"><path d="M300.48881,189.23224c0,0 -3.59567,-4.58416 -2.80395,-10.31812c0.40493,-2.93268 3.93236,-6.02122 4.9898,-9.47899c1.48925,-4.86974 0.42511,-10.2723 -0.71858,-15.26438c-0.41042,-1.79145 11.97645,-6.87783 17.16778,2.82799c3.26246,6.09957 -11.05935,37.46106 -11.05935,37.46106z" fill="#7c7984" stroke-linecap="butt"/><path d="M345.42596,148.09277l6.07071,-8.7976l5.62068,3.87851l-6.07071,8.7976z" fill="#8c9ca0" stroke-linecap="butt"/><path d="M284.59276,202.79362l41.98905,-60.85003l38.85605,26.81228l-41.98905,60.85003z" fill="#7c7984" stroke-linecap="butt"/><path d="M329.55753,172.13467l5.56481,-8.06446l21.99399,15.17676l-5.56481,8.06446z" fill="#e1e2db" stroke-linecap="butt"/><path d="M278.51485,206.89662l6.40797,-9.28635l43.49922,30.01627l-6.40797,9.28635z" fill="#e1e2db" stroke-linecap="butt"/><path d="M322.43458,143.77144l6.91386,-10.01948l41.78858,28.83585l-6.91386,10.01948z" fill="#e1e2db" stroke-linecap="butt"/><path d="M346.93643,141.19879l7.08249,-10.26386l10.99699,7.58838l-7.08249,10.26386z" fill="#e1e2db" stroke-linecap="butt"/><path d="M313.56068,218.36942c8.68667,-11.88864 21.73115,-36.27058 21.73115,-36.27058c0,0 16.90457,0.52187 19.42817,4.0506c2.41886,3.38229 -5.54884,24.54673 -5.54884,24.54673c0,0 -22.33543,20.76024 -25.61381,19.02492c-3.53942,-1.8735 -10.57231,-10.56383 -9.99667,-11.35166z" fill="#7c7984" stroke-linecap="butt"/><path d="M351.72226,201.49123l-20.33727,-9.74631" fill="none" stroke-linecap="round"/></g><g><path d="M194.60767,49.28607c-7.58978,-33.73174 -33.87534,-42.71914 -33.87534,-42.71914l-6.60128,-33.15386c0,0 81.34601,-16.68758 142.78059,7.2619c2.88506,1.1247 0.2559,52.70501 0.2559,52.70501l-8.80321,5.16833l-6.99484,21.85704c0,0 -79.26824,22.18494 -86.76181,-11.11928z" fill="#3a2f41" stroke="#3a2f41" stroke-width="2" stroke-linecap="butt"/><g data-paper-data="{&quot;index&quot;:null}" stroke-linecap="butt"><path d="M195.08832,51.446c-1.66479,-18.1647 9.66545,-40.72257 33.70322,-43.45806c36.54231,-4.15848 51.93875,17.77016 53.60351,35.93486c1.66481,18.16469 -8.86328,34.75273 -40.61992,36.85971c-15.86068,1.05236 -29.26673,-1.454 -36.70957,-6.63795c-7.65647,-5.33274 -9.13306,-13.4877 -9.97725,-22.69856z" fill="#7c7984" stroke="none" stroke-width="0"/><path d="M195.08832,51.246c-1.66479,-18.1647 9.66545,-40.72257 33.70322,-43.45806c36.54231,-4.15848 51.93875,17.77016 53.60351,35.93486c1.66481,18.16469 -29.31079,9.6103 -49.09045,11.16947c-19.7836,1.55949 -36.5515,14.51842 -38.2163,-3.64627z" fill="#595564" stroke="none" stroke-width="0"/><path d="M244.48474,8.23859c25.73385,2.5867 37.04029,20.71688 38.45339,36.13523c1.66481,18.16469 -8.8633,34.75272 -40.61993,36.85971c-16.91389,1.12223 -29.57461,-1.56693 -36.98928,-7.44102c-6.69084,-5.30062 -8.90784,-13.27923 -9.69752,-21.89549l-0.00001,0.00001c-1.28946,-14.06933 3.10503,-37.54595 32.32042,-42.73154" fill="none" stroke="#3a2f41" stroke-width="2"/><path d="M239.15403,7.8967c1.51257,-0.01544 3.07442,0.00841 4.68703,0.0737" fill="none" stroke="#3a2f41" stroke-width="2"/></g><g data-paper-data="{&quot;index&quot;:null}" stroke-width="1" stroke-linecap="butt"><path d="M267.57645,46.67764c0,0 -2.66249,5.76832 -12.10657,8.62384c-10.00604,3.02543 -18.18366,-0.67528 -18.18366,-0.67528c0,0 6.4945,-1.44571 15.67034,-3.97801c8.15371,-2.25023 14.61987,-3.97053 14.61987,-3.97053z" fill="#e1e2db" stroke="#3a2f41"/><g fill="none" stroke="none" font-family="sans-serif" font-weight="normal" font-size="12" text-anchor="start"/></g><path d="M259.92796,49.52619l0.00102,2.35053" fill="none" stroke="#3a2f41" stroke-width="1" stroke-linecap="round"/><path d="M234.11627,51.55658c0,0 -0.09129,3.43731 1.90096,3.2888c2.74161,-0.20436 14.09939,-19.51967 30.36811,-17.724" fill="none" stroke="#3a2f41" stroke-width="1" stroke-linecap="round"/><path d="M227.29153,79.24235" fill="none" stroke="#3a2f41" stroke-width="1" stroke-linecap="round"/><path d="M214.01136,63.53132c0,0 -0.60253,-1.77379 0.61252,-1.96834c1.38264,-0.22139 8.36816,-0.52073 13.10807,-0.47595c2.77028,0.02617 3.34967,1.65689 3.34967,1.65689" fill="none" stroke="#3a2f41" stroke-width="1" stroke-linecap="round"/><path d="M260.9392,55.49532c0,0 6.38548,11.35461 1.80364,15.16826c-4.58184,3.81365 -12.91607,5.88612 -27.1255,6.70815c-13.43088,0.77698 -19.39221,-1.30191 -19.39221,-1.30191l-2.12614,-7.50959c0,0 -10.95384,-1.75015 -6.19093,-1.20713c0.35144,0.04006 5.95462,2.99226 29.35332,-1.64768c8.70714,-1.72662 23.67782,-10.2101 23.67782,-10.2101z" fill="#e1e2db" stroke="#3a2f41" stroke-width="1" stroke-linecap="butt"/><path d="M257.59605,73.18654l-2.09503,-14.57943" fill="none" stroke="#3a2f41" stroke-width="1" stroke-linecap="round"/><path d="M242.84716,76.49426l-1.23869,-11.98872" fill="none" stroke="#3a2f41" stroke-width="1" stroke-linecap="round"/><path d="M226.45525,67.61331l0.58658,9.5893" fill="none" stroke="#3a2f41" stroke-width="1" stroke-linecap="round"/><path d="M194.92315,36.94298l-4.88222,-25.2333c0,0 28.73245,-13.96032 43.36695,-14.27807c14.80112,-0.32137 44.94557,12.36061 44.94557,12.36061c0,0 5.09814,50.20681 3.80505,41.97293c-1.82493,-11.62038 -5.14655,3.73363 -5.14655,3.73363c0,0 -3.19812,-20.2487 -9.54968,-22.60543c-37.34481,-13.85674 -72.53912,4.04965 -72.53912,4.04965z" fill="#3a2f41" stroke="#3a2f41" stroke-width="2" stroke-linecap="butt"/></g></g></g></svg>