<svg version="1.1" xmlns="http://www.w3.org/2000/svg" xmlns:xlink="http://www.w3.org/1999/xlink" width="160.45981" height="412.13074" viewBox="0,0,160.45981,412.13074"><g transform="translate(-159.21031,-28.17515)"><g data-paper-data="{&quot;isPaintingLayer&quot;:true}" fill-rule="nonzero" stroke-linejoin="miter" stroke-miterlimit="10" stroke-dasharray="" stroke-dashoffset="0" style="mix-blend-mode: normal"><g fill="#3a2f41" stroke="#3a2f41" stroke-linecap="round"><g><path d="M230.48412,109.36099c0,0 8.98742,3.56511 18.89971,9.02418c0.57539,0.31688 1.19128,0.48525 1.84039,0.52813c7.95492,0.52548 20.90445,-17.79414 25.57281,-12.54113c4.12412,4.64062 -6.97313,29.47151 -9.01965,34.17772c-6.28832,14.46074 -14.10467,22.69418 -22.69439,25.92204c-13.09393,4.92048 -26.40365,-0.20927 -26.40365,-0.20927c0,0 15.1514,-8.93753 -2.89641,-29.43806c-6.5999,-8.02473 14.7012,-27.46361 14.7012,-27.46361z" data-paper-data="{&quot;index&quot;:null}" stroke-width="2"/><path d="M256.15356,109.73328c0,0 21.30111,19.43889 14.7012,27.46362c-15.6586,22.49154 -0.10901,31.03087 -0.10901,31.03087c0,0 -36.01139,9.19874 -51.88544,-27.30558c-2.04653,-4.70621 -13.14378,-29.5371 -9.01965,-34.17772c4.66835,-5.25301 17.6179,13.0666 25.57281,12.54113c0.64911,-0.04288 1.26499,-0.21125 1.84039,-0.52814c9.9123,-5.45908 18.89973,-9.02419 18.89973,-9.02419z" data-paper-data="{&quot;index&quot;:null}" stroke-width="2"/><path d="M246.81209,112.16687c0,0 31.88686,-1.57918 31.41072,8.80005c-2.01625,28.50164 10.36628,41.81825 10.36628,41.81825c0,0 -13.55532,3.9444 -32.68431,-1.5462c-9.32884,-2.67765 -19.67977,-10.02723 -31.01581,-16.49034c-4.45823,-2.54181 -17.46905,-1.04003 -16.94752,-7.22645c0.59035,-7.0028 21.93438,-0.09407 27.98856,-5.28096c0.49403,-0.42324 0.88624,-0.92706 1.15706,-1.52552c4.66538,-10.30967 9.72502,-18.54882 9.72502,-18.54882z" data-paper-data="{&quot;index&quot;:null}" stroke-width="1.5"/><path d="M241.72614,112.91149c0,0 5.05965,8.23915 9.72503,18.54882c0.27083,0.59846 0.66304,1.10226 1.15705,1.52551c6.05419,5.18688 27.39824,-1.72184 27.98859,5.28096c0.52152,6.18642 -18.46232,14.63968 -22.92055,17.18149c-9.82823,5.1278 -20.9161,7.01127 -30.9193,7.36721c-16.54707,0.58878 -30.12615,-3.00226 -30.12615,-3.00226c0,0 14.24078,-6.28171 12.62276,-33.98696c-0.47614,-10.37922 32.47258,-12.9148 32.47258,-12.9148z" data-paper-data="{&quot;index&quot;:null}" stroke-width="1.5"/><path d="M229.19403,107.40415c0,0 2.07197,9.44408 3.09131,20.71422c0.05918,0.65421 0.26411,1.25892 0.59166,1.82097c4.01406,6.88798 26.4431,7.37497 24.70003,14.18301c-1.53986,6.01435 -15.98594,8.7139 -21.03178,9.64993c-39.13868,7.26055 -63.69639,-12.76334 -63.69639,-12.76334c0,0 15.29714,3.41582 25.35664,-30.42902c2.96022,-9.95952 30.98855,-3.17578 30.98855,-3.17578z" data-paper-data="{&quot;index&quot;:null}" stroke-width="1.5"/><path d="M257.20797,97.28539c0,0 28.02834,-7.70404 30.98855,3.60662c10.0595,38.4363 29.20593,36.69214 29.20593,36.69214c0,0 -25.2214,21.67181 -64.36007,13.42628c-5.04584,-1.06303 -22.67753,-5.19529 -24.21739,-12.02557c-1.74307,-7.73164 20.68596,-8.2847 24.70003,-16.1071c0.32754,-0.63831 0.53249,-1.32504 0.59166,-2.06801c1.01934,-12.79908 3.09131,-23.52437 3.09131,-23.52437z" data-paper-data="{&quot;index&quot;:null}" stroke-width="1.5"/></g><path d="M273.10703,121.04255c-0.47607,6.0693 -30.96173,23.56507 -33.49641,28.44389c-2.07025,3.98487 -35.67678,-18.01112 -40.01223,-17.90903c-26.63542,-0.50317 -38.87008,-12.92442 -38.87008,-12.92442c0,0 23.39299,-4.48919 36.90639,-24.82058c0.20085,-0.34912 -6.89688,1.91232 -6.6128,1.60305c5.04955,-5.49692 16.81911,-4.88624 16.81911,-4.88624c0,0 65.88475,22.60525 65.26601,30.49332z" data-paper-data="{&quot;index&quot;:null}" stroke-width="1.5"/><path d="M224.46467,84.48701c-0.09323,6.08467 20.1756,51.08588 17.95232,56.09319c-1.81591,4.08981 -22.82316,-37.69326 -27.14483,-37.35738c-33.5216,2.60518 -44.75644,-12.9502 -44.75644,-12.9502c0,0 19.02323,9.64312 30.41357,-13.28442c3.35183,-6.74689 22.73469,-7.11214 22.73469,-7.11214c0,0 0.92186,6.7029 0.80068,14.61096z" data-paper-data="{&quot;index&quot;:null}" stroke-width="1.5"/></g><path d="M261.13671,100.6022c0,0 18.06252,-0.31893 21.58035,3.81591c8.61784,10.14931 30.62025,12.97808 30.62025,12.97808c0,0 -10.06767,5.59372 -43.38476,3.43585c-6.76368,-0.43807 -9.4462,-3.96006 -10.2641,-7.94593c-0.55559,-2.70746 -32.17076,24.45983 -31.7004,22.14546c0.38431,-1.89099 -6.52495,-25.81249 2.72385,-34.94964c3.14648,-3.1085 30.42478,0.52027 30.42478,0.52027z" data-paper-data="{&quot;index&quot;:null}" fill="#3a2f41" stroke="#3a2f41" stroke-width="1.5" stroke-linecap="round"/><path d="M261.50906,73.70119c0,0 18.06251,-0.63583 21.58034,7.60729c8.61784,20.2334 29.55838,15.82767 29.55838,15.82767c0,0 -9.00579,21.19659 -42.32288,16.89471c-6.76368,-0.87332 -9.44619,-7.89467 -10.26409,-15.84078c-0.55559,-5.39754 -32.17076,48.76245 -31.7004,44.1486c0.38431,-3.76984 -6.52495,-51.45909 2.72385,-69.67466c3.14648,-6.19701 30.42478,1.03718 30.42478,1.03718z" data-paper-data="{&quot;index&quot;:null}" fill="#3a2f41" stroke="#3a2f41" stroke-width="1.5" stroke-linecap="round"/><path d="M313.64079,83.01266c0,0 -6.39867,8.5416 -12.1068,9.29377c-5.70814,0.75217 -13.21688,-4.83024 -13.21688,-4.83024c0,0 3.80048,-6.88486 9.50862,-7.63703c5.70814,-0.75217 15.81506,3.1735 15.81506,3.1735z" fill="#e1e2db" stroke="#3a2f41" stroke-width="1.5" stroke-linecap="butt"/><path d="M288.25723,108.25047c0,13.36021 -20.18797,19.88254 -40.44242,20.80247c-1.67826,0.07623 -3.9228,-26.36908 -5.56913,-26.36908c-4.47236,0 -8.4084,26.17906 -12.74993,25.56749c-16.54442,-2.33055 -30.61683,-9.12745 -30.61683,-20.58738c0,-8.0084 -7.53138,-17.4375 1.81875,-31.30808c13.67103,-20.28047 57.79335,-21.51866 75.59761,-4.74954c13.40082,12.62174 11.93492,26.09396 11.93492,35.76435z" fill="#3a2f41" stroke="none" stroke-width="0" stroke-linecap="butt"/><path d="M272.67367,107.3378c0,6.5051 1.5606,12.30853 -3.31005,16.50754c-4.73474,4.08184 -15.35894,5.49097 -26.20218,5.71125c-10.79235,0.21926 -21.07005,-2.64265 -25.83437,-6.89397c-4.81991,-4.30089 -4.44889,-8.87328 -4.44889,-15.32482c0,-12.8287 9.09655,-29.12396 34.18687,-28.4165c16.50456,0.46537 25.60862,15.58778 25.60862,28.4165z" fill="#e1e2db" stroke="none" stroke-width="0" stroke-linecap="butt"/><path d="M272.83295,107.17852c0,12.8287 -12.20123,4.76069 -25.74178,4.86248c-13.53784,0.10177 -34.05372,7.96622 -34.05372,-4.86248c0,-12.8287 9.09657,-29.12395 34.18689,-28.41649c16.50457,0.46537 25.60861,15.58777 25.60861,28.41649z" fill="#b8c1c0" stroke="none" stroke-width="0" stroke-linecap="butt"/><path d="M251.74259,79.47293c13.53856,2.88211 21.95915,15.79072 21.95915,27.35084v0.51402c0,6.08518 0.27546,11.80974 -3.94101,15.92792c-4.67262,4.56373 -14.65045,6.05596 -26.21374,6.29088c-7.98844,0.16229 -17.10161,-1.47975 -21.69406,-3.93448c-7.88867,-4.21659 -8.97473,-10.17594 -8.97473,-18.28432c0,-10.8891 6.55385,-24.27579 23.87952,-27.64213" fill="none" stroke="#3a2f41" stroke-width="2" stroke-linecap="butt"/><path d="M221.00034,55.73158v-2.60621h25.31744v2.60621z" fill="#3a2f41" stroke="#3a2f41" stroke-width="1.5" stroke-linecap="butt"/><path d="M221.09341,55.54569v-26.24823h3.35084v26.24823z" fill="#3a2f41" stroke="#3a2f41" stroke-width="1.5" stroke-linecap="butt"/><path d="M243.24618,62.06122v-8.00478h2.97852v8.00478z" fill="#3a2f41" stroke="#3a2f41" stroke-width="1.5" stroke-linecap="butt"/><path d="M221.09341,31.90367v-2.97852h25.87591v2.97852z" fill="#3a2f41" stroke="#3a2f41" stroke-width="1.5" stroke-linecap="butt"/><path d="M243.99081,46.79623v-17.68498h3.35083v17.68498z" fill="#3a2f41" stroke="#3a2f41" stroke-width="1.5" stroke-linecap="butt"/><path d="M230.02898,46.79623v-2.79236h14.89262v2.79236z" fill="#3a2f41" stroke="#3a2f41" stroke-width="1.5" stroke-linecap="butt"/><path d="M230.02898,44.00392l-0.18615,-4.65394l3.53699,4.65395z" fill="#3a2f41" stroke="#3a2f41" stroke-width="1.5" stroke-linecap="butt"/><path d="M303.69545,100.59009c0,0 -8.79498,0.87622 -12.44936,-2.18649c-3.65438,-3.06273 -4.45063,-10.77039 -4.45063,-10.77039c0,0 6.32943,-1.53455 9.98381,1.52817c3.65438,3.06273 6.91618,11.42871 6.91618,11.42871z" fill="#e1e2db" stroke="#3a2f41" stroke-width="1.5" stroke-linecap="butt"/><path d="M219.30999,104.32357c-0.60616,13.41042 6.51081,33.8347 6.51081,33.8347c0,0 -17.20684,-5.95016 -22.30491,-29.05468" fill="#3a2f41" stroke="#b8c1c0" stroke-width="1.5" stroke-linecap="round"/><path d="M203.76664,109.52146c0.4523,4.81328 3.48018,10.99849 5.99999,16.27544c0.28247,0.59154 -7.91114,-11.24006 -8.36344,-16.05334c-0.4523,-4.81328 -0.28988,-8.76494 0.36276,-8.82627c0.51292,-0.0482 12.91209,27.12228 10.59245,24.65389c-5.24856,-5.58508 -8.68859,-17.08015 -8.59176,-16.04972z" fill="#3a2f41" stroke="none" stroke-width="0" stroke-linecap="butt"/><path d="M253.29165,81.6099c2.45466,5.69364 -7.15024,17.24745 -19.24924,22.4636c-7.3818,3.17583 -14.67144,3.17215 -16.03136,3.81496c-1.1318,0.53498 -1.3355,3.89283 -0.95658,5.59938c1.05628,4.75734 -9.69265,-7.33853 -10.88751,-10.11002c-2.45466,-5.69363 5.36362,-14.53776 17.46262,-19.75392c12.099,-5.21614 27.20743,-7.70764 29.66209,-2.014z" fill="#3a2f41" stroke="none" stroke-width="0" stroke-linecap="butt"/><g><path d="M192.57932,79.55161c5.73258,0.53487 9.79175,7.27045 9.79175,7.27045c0,0 -7.29135,5.86351 -13.02393,5.32864c-5.73258,-0.53487 -12.45097,-8.82733 -12.45097,-8.82733c0,0 9.95057,-4.30664 15.68315,-3.77177z" data-paper-data="{&quot;index&quot;:null}" fill="#e1e2db" stroke="#3a2f41" stroke-width="1.5" stroke-linecap="butt"/><path d="M193.6555,88.83961c3.53545,-3.19929 9.91857,-1.90619 9.91857,-1.90619c0,0 -0.50298,7.73234 -4.03842,10.93164c-3.53545,3.19929 -12.35737,2.65766 -12.35737,2.65766c0,0 2.94177,-8.48381 6.47721,-11.68309z" data-paper-data="{&quot;index&quot;:null}" fill="#e1e2db" stroke="#3a2f41" stroke-width="1.5" stroke-linecap="butt"/><g data-paper-data="{&quot;index&quot;:null}"><path d="M204.15229,96.56001l-6.1533,-1.9246l-4.03258,-20.24964l21.55556,-5.11964l3.47104,2.56166l3.93093,19.73915z" fill="#8c9ca0" stroke="#3a2f41" stroke-width="1.5" stroke-linecap="butt"/><path d="M197.9816,94.1049l-3.93093,-19.73915l21.39485,-5.08147l3.93093,19.73915z" fill="#e1e2db" stroke="#3a2f41" stroke-width="1.5" stroke-linecap="butt"/><path d="M219.41903,88.8351l3.02121,2.31207" fill="none" stroke="#3a2f41" stroke-width="2" stroke-linecap="round"/><path d="M203.36215,88.18934c0,0 -0.57042,-13.32471 0.67119,-13.59285c1.4442,-0.31188 7.47847,11.46057 7.47847,11.46057" fill="none" stroke="#8c9ca0" stroke-width="2" stroke-linecap="round"/></g></g><path d="M207.96928,81.23542l-4.46777,1.48926" fill="none" stroke="#8c9ca0" stroke-width="2" stroke-linecap="round"/><path d="M282.86996,108.30719c-4.0559,23.10452 -17.74527,29.05467 -17.74527,29.05467c0,0 5.66209,-20.42426 5.17985,-33.83468" fill="#3a2f41" stroke="#b8c1c0" stroke-width="1.5" stroke-linecap="round"/><path d="M275.83511,124.77477c-1.84546,2.46839 8.01905,-24.70208 8.42712,-24.65388c0.51924,0.06133 0.64844,4.01299 0.2886,8.82626c-0.35984,4.81328 -6.87847,16.64489 -6.65375,16.05335c2.00471,-5.27695 4.4136,-11.46216 4.77344,-16.27544c0.07704,-1.03043 -2.65977,10.46463 -6.8354,16.04971z" fill="#3a2f41" stroke="none" stroke-width="0" stroke-linecap="butt"/><path d="M269.09592,76.17807c7.99055,7.85957 11.58791,24.34617 8.74509,27.23639c-0.76862,0.78142 -4.03467,5.71271 -4.28069,3.91056c-0.41102,-3.01102 -2.79326,-3.56024 -4.5813,-4.20906c-14.79696,-0.46959 -22.89763,-5.37387 -27.03553,-9.44393c-7.99055,-7.85957 4.11831,-15.82935 6.96114,-18.71954c2.84282,-2.8902 12.20074,-6.63395 20.19129,1.22562z" data-paper-data="{&quot;index&quot;:null}" fill="#3a2f41" stroke="none" stroke-width="0" stroke-linecap="butt"/><path d="M263.87053,100.90174c0,0 -4.64716,0.09534 -9.24726,-1.4504c-5.04157,-1.69408 -7.68313,-4.07778 -7.68313,-4.07778c0,0 3.52293,2.30758 8.14063,3.68177c3.99951,1.19021 8.78977,1.84642 8.78977,1.84642z" fill="#cedee0" stroke="none" stroke-width="0" stroke-linecap="butt"/><path d="M235.33041,89.62873v-20.96836l3.19437,-3.43448h24.35512v21.51066l-6.22497,3.43448z" fill="#8c9ca0" stroke="#3a2f41" stroke-width="2" stroke-linecap="butt"/><path d="M238.6111,86.19427v-20.96837h24.17353v20.96837z" fill="#e1e2db" stroke="#3a2f41" stroke-width="2" stroke-linecap="butt"/><path d="M238.52477,86.01351l-2.76269,3.07294" fill="none" stroke="#3a2f41" stroke-width="2" stroke-linecap="round"/><path d="M246.81282,69.06334c0,0 6.01031,-0.86157 6.42431,2.65814c0.46117,3.92087 -6.03495,3.60411 -6.03495,3.60411c0,0 9.18797,-1.26947 8.76041,3.08209c-0.42756,4.35156 -8.76041,2.86193 -8.76041,2.86193z" fill="none" stroke="#8c9ca0" stroke-width="2" stroke-linecap="round"/><path d="M267.63552,92.99812l3.17852,-19.87418l3.37126,-2.69162l21.73444,4.29741l-3.26073,20.38817l-6.07577,2.15687z" fill="#8c9ca0" stroke="#3a2f41" stroke-width="2" stroke-linecap="butt"/><path d="M271.0838,90.3217l3.17852,-19.87418l21.57238,4.26537l-3.17852,19.87418z" fill="#e1e2db" stroke="#3a2f41" stroke-width="2" stroke-linecap="butt"/><path d="M271.03423,90.13517l-2.93124,2.42512" fill="none" stroke="#3a2f41" stroke-width="2" stroke-linecap="round"/><path d="M285.87086,86.04614c-1.42336,3.9325 -7.25363,3.04371 -6.45894,-3.18917c1.54076,-12.0845 8.56989,-7.34011 7.65458,-3.47817" fill="none" stroke="#8c9ca0" stroke-width="2" stroke-linecap="round"/><path d="M220.01767,112.22131c0,0 4.11943,-3.2959 11.40214,-3.65999c7.71605,-0.38575 12.4769,4.64829 12.4769,4.64829l-23.87902,-0.98831z" fill="#e1e2db" stroke="#3a2f41" stroke-width="1" stroke-linecap="butt"/><path d="M225.89755,112.41517l-0.22316,-3.02808l2.63031,-0.40567l0.30495,3.53949z" fill="#3a2f41" stroke="#3a2f41" stroke-width="0.5" stroke-linecap="butt"/><g data-paper-data="{&quot;index&quot;:null}"><g fill="#3a2f41" stroke-opacity="0.18788" stroke="#ffffff" stroke-width="0.5"><path d="M299.67849,339.06591l-40.76354,6.80237l36.72116,-27.34701z" stroke-linecap="round"/><path d="M305.00968,345.46021l-37.51011,17.34733l28.17501,-36.08977z" stroke-linecap="round"/><path d="M281.84243,179.3518c0,0 15.48543,47.51778 26.1788,100.77291c3.0883,15.38036 5.84762,49.23499 5.84762,49.23499l-7.37817,14.78071c-0.0814,-2.06712 -4.18037,-32.24946 -2.41099,-19.40073c1.76937,12.84874 2.83862,22.50603 2.83862,22.50603l-25.82541,28.39844l8.03255,-32.95076l-11.37381,-32.02184l-12.71283,2.48569l-13.07857,21.2167l3.06795,-37.71061c0,0 23.39791,-10.3606 23.52052,-14.05646c1.28544,-38.7468 -12.84597,-98.50438 -12.84597,-98.50438z" stroke-linecap="butt"/></g><g fill="#8c9ca0" stroke="#3a2f41" stroke-width="1.5" stroke-linecap="round"><path d="M258.07739,146.8965c0,0 15.43693,6.31231 16.36305,9.06814c4.27903,12.73291 14.2854,27.40051 14.2854,27.40051c0,0 -4.47611,5.75137 -11.43324,7.88554c-6.95713,2.13417 -18.23233,1.21468 -18.23233,1.21468c0,0 0.75587,-11.50672 0.53037,-17.42099c-0.23399,-6.13687 -1.31249,-14.37686 -1.31249,-14.37686"/></g></g><path d="M300.08754,323.62892c0.12018,7.29303 -22.82172,13.86641 -51.24215,14.68207c-28.42043,0.81565 -54.74278,-4.16983 -54.86295,-11.46284c-0.12018,-7.29302 16.18503,-24.21965 44.60546,-25.03531c2.33748,-0.06708 11.96326,-14.66097 14.21939,-16.49762c3.11286,-2.53409 8.63716,17.58194 11.55046,17.74138c5.27861,0.28887 3.26889,-28.58773 7.65315,-27.00873c12.76542,4.59749 28.00471,43.21499 28.07664,47.58106z" fill="#3a2f41" stroke="none" stroke-width="0" stroke-linecap="butt"/><g><g><path d="M251.40359,375.11057c0,0 -0.69899,-56.22924 1.00247,-81.47395c1.8401,-27.3018 27.82608,-2.74156 27.82608,-2.74156l-3.70953,82.58051z" fill="#e1e2db" stroke="#3a2f41" stroke-width="1.5" stroke-linecap="butt"/><path d="M277.40567,333.56156c0,0 -10.66956,7.06874 -26.26674,-0.91417" fill="none" stroke="#3a2f41" stroke-width="1.5" stroke-linecap="round"/><path d="M252.40605,293.63653c1.8401,-27.3018 28.71954,-22.6316 28.71954,-22.6316l-1.8946,42.17695c-9.11369,-0.40939 -18.47238,-0.82979 -27.58606,-1.23918c0.17325,-6.88365 0.41854,-13.22302 0.76112,-18.30617z" fill="#8c9ca0" stroke="none" stroke-width="0" stroke-linecap="butt"/><path d="M279.95049,297.16328l-3.42795,76.31217l-25.11901,1.63501c0,0 -0.61454,-49.43619 0.71146,-76.41182" fill="none" stroke="#3a2f41" stroke-width="2" stroke-linecap="butt"/></g><g><path d="M250.47312,425.35921l0.64502,-67.60069l20.85376,12.08225c0,0 4.54205,-7.04638 4.66219,-6.28569c4.89695,31.00437 25.78255,64.93466 25.78255,64.93466l-38.95796,-2.39624c0,0 -5.38924,-14.77752 -6.18167,-14.82626c-0.79279,-0.04877 -1.75645,14.3908 -1.75645,14.3908z" fill="#3a2f41" stroke="none" stroke-width="0" stroke-linecap="butt"/><path d="M277.45659,368.90669l-4.02254,6.72843l-21.8003,-11.6087" fill="none" stroke="#8c9ca0" stroke-width="1" stroke-linecap="round"/><path d="M250.47312,425.68294l0.64502,-67.6007l20.85376,12.08225c0,0 4.54205,-7.04638 4.66219,-6.28569c4.89695,31.00437 25.78255,64.93466 25.78255,64.93466l-38.95796,-2.39624c0,0 -5.38924,-14.77752 -6.18167,-14.82626c-0.79279,-0.04877 -1.75645,14.3908 -1.75645,14.3908z" fill="none" stroke="#3a2f41" stroke-width="1.5" stroke-linecap="butt"/></g></g><g data-paper-data="{&quot;index&quot;:null}"><g><path d="M214.68268,371.8935l3.70953,-82.58051c0,0 28.08337,-22.13143 27.4682,5.22539c-0.56883,25.29559 -6.30648,81.23569 -6.30648,81.23569z" fill="#e1e2db" stroke="#3a2f41" stroke-width="1.5" stroke-linecap="butt"/><path d="M243.62472,333.50566c-16.2501,6.55232 -26.24292,-1.44457 -26.24292,-1.44457" fill="none" stroke="#3a2f41" stroke-width="1.5" stroke-linecap="round"/><path d="M244.97715,312.83898c-9.11369,-0.40939 -18.47237,-0.82978 -27.58606,-1.23917l1.8946,-42.17695c0,0 27.18991,-2.2414 26.57474,25.11542c-0.11454,5.09339 -0.43864,11.42925 -0.88327,18.30069z" fill="#8ea8ab" stroke="none" stroke-width="0" stroke-linecap="butt"/><path d="M245.69639,299.60616c-1.09796,26.98588 -6.14244,76.16785 -6.14244,76.16785l-24.87125,-3.88057l3.17779,-70.74298" fill="none" stroke="#3a2f41" stroke-width="2" stroke-linecap="butt"/></g><g><path d="M230.67793,426.73436c0,0 0.39741,-15.8601 -0.39656,-15.88261c-0.79361,-0.02251 -7.60224,16.79801 -7.60224,16.79801l-35.20298,11.62093c0,0 20.14687,-47.23404 27.80394,-77.67447c0.18786,-0.74687 4.07984,6.67838 4.07984,6.67838l21.85305,-10.16384l-5.40969,67.18737z" fill="#3a2f41" stroke="none" stroke-width="0" stroke-linecap="butt"/><path d="M240.31847,364.71392l-22.75334,9.60733l-3.40307,-7.06199" fill="none" stroke="#8c9ca0" stroke-width="1" stroke-linecap="round"/><path d="M230.70474,426.13769c0,0 0.55164,-14.85666 -0.24234,-14.87918c-0.79361,-0.02251 -7.58438,16.40021 -7.58438,16.40021l-35.19404,11.42203c0,0 20.12006,-46.63734 27.77713,-77.07776c0.18786,-0.74687 4.07984,6.67837 4.07984,6.67837l21.85306,-10.16384l-5.34714,65.79505z" fill="none" stroke="#3a2f41" stroke-width="1.5" stroke-linecap="butt"/></g></g><g><path d="M265.18129,210.1816c0,0 3.73137,5.70237 7.2127,14.00034c5.04888,12.0343 10.7434,29.23499 13.5408,39.97489c4.95513,19.02402 13.10161,58.45397 13.10161,58.45397l-12.23347,-4.60552c0,0 -9.44257,-20.84359 -13.65581,-33.449c-0.70225,-2.101 6.72363,33.30454 6.72363,33.30454c0,0 -7.42346,-0.77516 -11.87186,-0.91779c0.00291,-0.04737 0.00437,-0.09512 0.00437,-0.14322c0,-1.27361 -1.10174,-11.17598 -4.80432,-9.60864c-2.17606,0.92115 0.19218,8.33503 0.19218,9.60864c0,0.02276 0.00033,0.04543 0.00098,0.06803c-0.47161,-0.00047 -0.94806,0.00121 -1.42938,0.00516c-37.55693,0.30711 -67.12077,9.03641 -67.12077,9.03641c0,0 7.27193,-37.94681 11.65044,-56.72762c2.21219,-9.4888 5.61279,-23.57109 8.76099,-35.40953c3.23627,-12.16959 9.11093,-21.96803 9.11093,-21.96803zM255.03257,303.4187c1.27361,0 1.15303,-3.72288 1.15303,-4.99649c0,-1.27361 -0.0716,-4.03564 -1.34521,-4.03564c-1.27361,0 -1.72956,2.56985 -1.72956,3.84346c0,1.27361 0.64813,5.18867 1.92174,5.18867zM271.0435,302.57903c1.27361,0 2.30607,0.69709 2.30607,-0.57651c0,-1.27361 -2.76201,-11.91471 -4.03562,-11.91471c0,0 0.45594,12.49123 1.72955,12.49123z" fill="#e1e2db" stroke="#3a2f41" stroke-width="1" stroke-linecap="butt"/><path d="M201.64147,288.11217c0,0 6.7965,-33.62168 10.80146,-47.30649c3.23003,-11.03692 11.40731,-28.58012 11.40731,-28.58012l40.49801,-2.15237c0,0 5.48499,9.25018 7.61979,13.46505c1.75885,3.4726 4.28099,10.03143 4.28099,10.03143z" fill="#8c9ca0" stroke="none" stroke-width="0" stroke-linecap="butt"/><path d="M262.80021,316.87268c-0.37703,-0.00257 -0.74539,-0.00257 -1.103,0.00036c-25.13959,0.20558 -67.05442,9.10278 -67.05442,9.10278c0,0 11.57946,-66.45905 19.92865,-93.21381c2.94959,-9.45194 9.79282,-20.69226 9.79282,-20.69226c0,0 2.80884,-0.36755 7.4401,-0.44642c8.74545,-0.14893 32.58049,-1.44168 32.58049,-1.44168c0,0 3.46827,3.72259 7.73473,13.36332c4.75312,10.7404 10.56091,28.31389 14.99656,45.63575c4.63833,18.11343 11.65476,53.43014 11.65476,53.43014l-11.53728,-4.41708c0,0 -14.11739,-34.78561 -13.94872,-33.42055c0.2973,2.40616 5.98621,33.04578 5.98621,33.04578c0,0 -5.89646,-0.49392 -11.41615,-0.7688" fill="none" stroke="#3a2f41" stroke-width="2" stroke-linecap="round"/></g><g><path d="M248.21404,226.04664l-30.90009,-10.0233l5.87941,-14.50326c0,0 -9.72262,-30.39686 -4.14392,-47.48209c1.22378,-3.7479 11.87319,-10.80576 19.93748,-11.07149c6.42602,-0.21176 13.13781,0.63446 19.13127,3.43524c2.25859,1.05546 6.42164,4.01289 6.42164,4.01289c0,0 13.05677,22.63943 12.66845,23.77408c-1.97318,5.76549 -13.26392,14.73095 -13.26392,14.73095l-1.50391,10.05709l7.87642,12.08302z" fill="#e1e2db" stroke="none" stroke-width="0" stroke-linecap="round"/><path d="M218.99575,154.31653c0.98062,-3.70344 11.63111,-11.26953 18.71849,-11.6564c3.86917,-0.2112 11.13462,0.128 17.02086,2.15148c5.94326,2.04307 10.48897,5.77163 10.48897,5.77163l11.89886,23.73726l-5.64417,7.96704c0,0 -53.36831,-20.18251 -53.54535,-21.04291c0.12851,-2.34805 0.46412,-4.66881 1.06234,-6.92809z" fill="#8c9ca0" stroke="none" stroke-width="0" stroke-linecap="butt"/><path d="M245.35515,143.76824l11.49103,27.43688l-7.41592,14.92773l-0.61898,5.78191" fill="none" stroke="#3a2f41" stroke-width="1" stroke-linecap="round"/><path d="M262.73296,163.57585c1.33024,1.56453 1.61317,3.66721 0.63195,4.69647c-0.98124,1.02926 -2.85504,0.59532 -4.18528,-0.9692c-1.33024,-1.56453 -1.61316,-3.66721 -0.63194,-4.69646c0.98124,-1.02926 2.85503,-0.59533 4.18527,0.96919z" fill="none" stroke="#3a2f41" stroke-width="1" stroke-linecap="butt"/><path d="M248.21403,226.04664l-30.90009,-10.0233l5.87941,-14.50326c0,0 -9.72262,-30.39686 -4.14392,-47.48209c1.22378,-3.7479 11.87319,-10.80576 19.93748,-11.07149c6.42602,-0.21176 13.13781,0.63446 19.13127,3.43524c2.25859,1.05546 6.42165,4.01289 6.42165,4.01289c0,0 13.05676,22.63943 12.66844,23.77408c-1.97318,5.76549 -13.26392,14.73095 -13.26392,14.73095l-1.50391,10.05709l7.87642,12.08302z" fill="none" stroke="#3a2f41" stroke-width="1.5" stroke-linecap="round"/></g><g stroke-linecap="butt"><path d="M242.46996,157.84809l-9.44607,-12.81602l1.40079,-3.17274c0,0 9.23876,-4.40998 10.54866,-4.46501c1.33896,-0.05625 11.59449,4.79472 11.59449,4.79472l1.36389,3.35388l-1.78334,11.24206l-8.33377,-6.24668z" fill="#8c9ca0" stroke="#3a2f41" stroke-width="1"/><path d="M247.23335,148.7607l-10.81818,-6.33297l8.56279,-3.65108l9.35189,3.88303z" fill="#3a2f41" stroke="none" stroke-width="0"/></g><g><g fill="#3a2f41" stroke-width="0.5"><path d="M182.99409,318.41571l26.39995,41.48516l-31.00465,-21.05921z" stroke="none" stroke-linecap="round"/><path d="M182.73069,326.6081l21.99729,42.42425l-31.84325,-23.94507z" stroke="none" stroke-linecap="round"/><path d="M216.60528,184.8691c0,0 -15.76613,59.34723 -15.54457,98.11472c0.02113,3.69783 23.12589,14.69667 23.12589,14.69667l2.03183,37.78062l-12.49136,-21.56766l-12.63983,-2.83365l-12.24837,31.69763l7.12519,33.15878l-25.0363,-29.09652c0,0 1.33389,-9.62432 3.45523,-22.41965c2.12134,-12.79534 -2.80443,17.26315 -2.94254,19.32727l-6.96973,-14.97764c0,0 3.68741,-33.76615 7.19665,-49.05595c12.15093,-52.94158 28.93464,-100.01648 28.93464,-100.01648z" stroke-opacity="0.15323" stroke="#ffffff" stroke-linecap="butt"/></g><g stroke-linecap="round"><path d="M224.67024,161.64677c0,0 -1.30424,8.2073 -1.70657,14.33543c-0.38773,5.90583 0.05205,17.42898 0.05205,17.42898c0,0 -11.29619,0.6097 -18.19213,-1.71461c-6.89594,-2.32431 -11.21251,-8.19636 -11.21251,-8.19636c0,0 10.40515,-14.38744 15.03202,-26.99812c1.00141,-2.72938 16.60577,-8.61563 16.60577,-8.61563" fill="#e1e2db" stroke="none" stroke-width="0"/><path d="M227.09133,160.51819l-2.93703,3.2283l-15.71023,-7.24986c0,0 3.24071,-2.33374 5.74501,-3.63307c2.95578,-1.53357 11.85589,-4.95525 11.85589,-4.95525" fill="#8c9ca0" stroke="none" stroke-width="0"/><path d="M224.67024,161.97055c0,0 -1.30424,8.2073 -1.70657,14.33543c-0.38773,5.90583 0.05205,17.42899 0.05205,17.42899c0,0 -11.29619,0.6097 -18.19213,-1.71461c-6.89594,-2.32431 -11.21251,-8.19636 -11.21251,-8.19636c0,0 10.40515,-14.38744 15.03202,-26.99812c1.00141,-2.72938 18.43525,-9.95963 18.43525,-9.95963" fill="none" stroke="#3a2f41" stroke-width="1.5"/></g></g></g></g></svg>