<svg version="1.1" xmlns="http://www.w3.org/2000/svg" xmlns:xlink="http://www.w3.org/1999/xlink" width="370.10972" height="224.32716" viewBox="0,0,370.10972,224.32716"><defs><linearGradient x1="245.06048" y1="105.31173" x2="248.19723" y2="185.43884" gradientUnits="userSpaceOnUse" id="color-1"><stop offset="0" stop-color="#cedee0" stop-opacity="0"/><stop offset="1" stop-color="#cedee0" stop-opacity="0.19676"/></linearGradient></defs><g transform="translate(-179.1534,-60.46026)"><g data-paper-data="{&quot;isPaintingLayer&quot;:true}" fill-rule="nonzero" stroke-linejoin="miter" stroke-miterlimit="10" stroke-dasharray="" stroke-dashoffset="0" style="mix-blend-mode: normal"><g><path d="M505.15611,147.14484l-23.7714,18.7832l-28.529,-10.8704l-13.2768,15.8382l-26.5575,-10.0865l-16.9954,16.2577" fill="none" stroke="#8c9ca0" stroke-width="3.0003" stroke-linecap="round"/><path d="M395.35821,162.80203l19.6414,11.3698l17.0233,-16.0092l23.8527,11.1463l22.8419,-18.6783l28.5569,11.1188" fill="none" stroke="#8c9ca0" stroke-width="3.0003" stroke-linecap="round"/><path d="M526.98121,132.36844c5.3127,-0.7773 10.443,0.6758 14.4389,3.6523c3.9966,2.9757 6.8586,7.4747 7.6359,12.7874c0.7774,5.3126 -0.6758,10.443 -3.6523,14.4389c-2.9756,3.9966 -7.4746,6.8586 -12.7873,7.6359c-5.3127,0.7774 -10.4431,-0.6758 -14.439,-3.6523c-3.9965,-2.9756 -6.8586,-7.4747 -7.6359,-12.7873c-0.7773,-5.3127 0.6758,-10.4431 3.6524,-14.439c2.9756,-3.9965 7.4746,-6.8586 12.7873,-7.6359z" fill="#3a2f41" stroke="none" stroke-width="0.78636" stroke-linecap="butt"/><path d="M511.22471,133.71754c2.0658,-0.3023 4.275,1.7229 6.174,5.2399c1.899,3.5169 3.4891,8.5239 4.3175,14.1859c0.8285,5.6621 0.7395,10.9147 -0.0723,14.8283c-0.8118,3.9136 -2.3482,6.4869 -4.414,6.7891c-2.0658,0.3023 -4.275,-1.7229 -6.174,-5.2399c-1.899,-3.517 -3.4891,-8.524 -4.3175,-14.186c-0.8285,-5.662 -0.7395,-10.9147 0.0723,-14.8283c0.8118,-3.9136 2.3482,-6.4868 4.414,-6.789z" fill="#3a2f41" stroke="none" stroke-width="0.78636" stroke-linecap="butt"/><path d="M523.2424,145.87694c1.7172,-0.2512 3.4838,0.9598 4.9505,3.119c1.4675,2.1592 2.7149,5.7039 3.1525,8.8085c0.5841,4.1496 1.33,8.971 -0.0668,13.1228c-0.4675,1.351 -3.0183,0.3049 -4.5593,0.071c-1.6432,-0.3779 -3.8122,-0.434 -4.8439,-1.8741c-1.9403,-2.6964 -2.5569,-6.2484 -2.9792,-9.4982c-0.4062,-3.1243 -0.2906,-6.8534 0.4967,-9.3424c0.7866,-2.489 2.1323,-4.1553 3.8495,-4.4066z" fill="#8c9ca0" stroke="none" stroke-width="0.78636" stroke-linecap="round"/><path d="M325.99791,161.09454l21.2201,-0.6994l1.975,59.9271l-21.22,0.6993z" fill="#3a2f41" stroke="none" stroke-width="0.78636" stroke-linecap="butt"/><path d="M341.81001,160.57994l55.2115,-1.8196l0.7058,21.4165l-55.2115,1.8197z" fill="#3a2f41" stroke="none" stroke-width="0.78636" stroke-linecap="butt"/><path d="M340.49501,174.39204l7.4663,-0.2461l1.5217,46.1733l-7.4663,0.2461z" fill="#8c9ca0" stroke="none" stroke-width="0.78636" stroke-linecap="butt"/><path d="M347.84191,174.28704l49.5136,-1.6319l0.259,7.8593l-49.5135,1.6319z" fill="#8c9ca0" stroke="none" stroke-width="0.84105" stroke-linecap="butt"/></g><g data-paper-data="{&quot;index&quot;:null}" stroke="#3a2f41" stroke-linecap="butt"><path d="M180.06322,117.83853l3.43125,-12.78611l7.81198,5.12785l-6.01289,-8.83828l15.81213,-17.9536c0,0 2.80469,17.18614 9.43734,32.75063c2.47559,3.45686 -6.46828,9.37086 -6.46828,9.37086z" fill="#3a2f41" stroke-width="1.5"/><path d="M209.69855,122.59413c-2.0282,-1.46822 1.81123,-20.26156 4.9459,-24.35699c1.26792,-1.65651 15.01841,13.18652 13.40651,15.29244c-3.13467,4.09542 -15.3449,11.24165 -17.3731,9.77345z" data-paper-data="{&quot;index&quot;:null}" fill="#8c9ca0" stroke-width="2"/><path d="M210.48077,122.75631c1.70953,1.76887 -6.18211,15.4068 -10.04261,18.41856c-1.98514,1.54871 -16.71879,-12.52115 -15.1573,-13.73935c3.86048,-3.01175 22.66494,-7.30215 24.37446,-5.53328z" fill="#e1e2db" stroke-width="1.5"/><path d="M214.65061,119.02836c1.6569,2.61481 0.99492,6.00513 -1.47858,7.57249c-2.47347,1.56733 -5.82183,0.71818 -7.47872,-1.89667c-1.6569,-2.61481 -0.99493,-6.00512 1.47858,-7.57247c2.47347,-1.56733 5.82183,-0.71817 7.47872,1.89665z" fill="#e1e2db" stroke-width="2"/></g><path d="M291.83599,178.5431l-18.97566,-1.35738l-0.43984,-10.20935c0,0 -0.84047,10.41839 -1.26295,10.3198c-5.36287,-0.21884 -10.66838,-0.35514 -15.74031,-0.43258c-21.30719,-0.32523 -38.49237,0.38879 -38.49237,0.38879c0,0 -7.03719,-11.44121 -7.46619,-22.39979c-0.2998,-7.65805 -0.00512,-22.8212 10.35477,-35.02512c8.3553,-9.84252 23.54972,-13.39457 26.72018,-13.64794c2.53512,-0.20261 13.41532,3.31486 20.00613,9.05289c10.97094,9.55146 23.70642,31.54829 23.70642,31.54829z" fill="#3a2f41" stroke="none" stroke-width="0" stroke-linecap="butt"/><g stroke-linecap="butt"><path d="M279.33565,150.02175c0.26562,6.78507 2.05576,12.77746 -2.62028,17.34695c-4.54557,4.44198 -15.06172,6.3257 -25.84441,6.97791c-10.73209,0.64917 -21.6099,-1.36001 -26.52514,-5.60867c-4.9726,-4.29821 -4.25796,-9.65731 -4.52138,-16.38652c-0.52381,-13.38082 7.86413,-30.7318 32.86407,-30.97142c16.4451,-0.15764 26.12335,15.26091 26.64717,28.64174z" fill="#e1e2db" stroke="none" stroke-width="0"/><path d="M279.33565,150.02175c0.52383,13.38082 -11.94883,5.44094 -25.42086,6.07467c-13.46932,0.63359 -33.56655,9.63583 -34.09036,-3.74499c-0.52381,-13.38082 7.86413,-30.7318 32.86406,-30.97142c16.4451,-0.15764 26.12335,15.26092 26.64717,28.64175z" fill="#b8c1c0" stroke="none" stroke-width="0"/><path d="M257.36627,121.77312c13.59187,2.47868 22.49953,15.61477 22.97154,27.67242l0.02098,0.53615c0.24847,6.34707 0.75635,12.30726 -3.27189,16.76697c-4.46407,4.94219 -14.33352,6.88739 -25.83224,7.58292c-7.94384,0.4805 -17.62368,-0.57857 -22.29452,-2.96002c-8.02332,-4.09072 -8.80463,-10.56281 -9.13569,-19.02014c-0.44463,-11.35774 5.53148,-25.57592 22.63733,-29.76216" fill="none" stroke="#3a2f41" stroke-width="2"/></g><path d="M205.38909,174.32433l-9.40814,-6.73936c0,0 -3.11049,-23.51344 6.5984,-39.25527c12.52293,-20.30438 35.6756,-28.9024 59.04578,-24.1142c5.00642,1.02574 17.67359,4.71703 25.33831,12.86063c9.20752,9.78279 12.74989,22.54568 12.74989,22.54568l-4.95232,-0.58028l1.34099,10.14512c0,0 -2.73206,-0.58467 -2.75809,-0.80032c-0.58309,-4.83185 -1.77501,-9.60482 -1.77501,-9.60482c0,0 0.90902,3.90398 0.65091,9.73669c-2.84328,-0.41725 -18.61926,-1.45719 -18.61926,-1.45719l-2.30795,-4.28584l-0.21821,4.10682l-13.69697,-0.72293l-2.05713,-15.33485l0.37521,14.99173c0,0 -12.21651,0.36438 -18.11385,0.81234c-0.41596,0.0316 -2.25036,-6.38572 -2.25036,-6.38572c0,0 0.11611,6.76737 -0.19486,6.78496c-3.67561,0.20772 -8.71903,1.06882 -8.71903,1.06882c0,0 1.40512,34.16722 1.27098,34.18793c-2.08656,0.32256 -20.13928,-5.49306 -20.16471,-6.90241c-0.03672,-2.036 -1.76638,-13.43366 -1.76638,-13.43366z" fill="#3a2f41" stroke="url(#color-1)" stroke-width="0.5" stroke-linecap="butt"/><path d="M253.23538,115.70734c12.94346,-31.32586 40.29767,-43.80422 40.29767,-43.80422l-9.35994,55.95013" fill="#3a2f41" stroke="#3a2f41" stroke-width="1.5" stroke-linecap="round"/><path d="M198.9385,138.60965c9.6054,-46.98492 40.22758,-76.59897 40.22758,-76.59897l7.57992,50.18537" fill="#3a2f41" stroke="#3a2f41" stroke-width="1.5" stroke-linecap="round"/><g stroke="#3a2f41" stroke-linecap="butt"><path d="M225.27725,158.48483c0,0 4.04221,-4.32614 11.64948,-4.57878c8.05992,-0.26765 12.50912,4.67051 12.50912,4.67051c0,0 -5.12846,-0.21239 -12.47158,-0.14742c-6.52513,0.05772 -11.68702,0.0557 -11.68702,0.0557z" fill="#e1e2db" stroke-width="1"/><g fill="#3a2f41" stroke-width="0.5"><path d="M235.40227,158.5848l-0.10063,-4.49475l2.98626,-0.11269l-0.00274,4.54064z"/></g></g><g><path d="M225.30643,246.94438l48.00637,-1.53232c0,0 5.4741,11.85822 8.96727,19.28048c1.0455,2.22148 1.91354,4.04558 2.40426,5.03546c0.86558,3.0051 1.95921,7.20904 3.18291,12.13826c-24.41899,0.55211 -48.83372,1.23544 -72.93397,1.8694c4.83108,-18.22321 10.37318,-36.79125 10.37318,-36.79125z" fill="#e1e2db" stroke="none" stroke-width="0" stroke-linecap="round"/><path d="M213.74572,272.21808c2.97215,-14.36933 14.7982,-30.17066 14.7982,-30.17066l42.81522,-1.62842c0,0 5.86806,10.73615 7.76084,14.87611c1.31241,2.87053 2.50666,7.58129 2.50666,7.58129l-24.96084,19.35683c-15.00664,0.38884 -29.96148,0.79825 -44.792,1.18605c0.71621,-4.7605 1.37569,-8.80211 1.87192,-11.20121z" fill="#8c9ca0" stroke="none" stroke-width="0" stroke-linecap="butt"/><path d="M212.96116,283.78742c0.76126,-4.6746 1.52504,-8.94615 2.27161,-12.5556c2.67223,-12.91967 13.32956,-28.77222 13.32956,-28.77222l42.46926,-1.16907c0,0 6.8635,8.79199 12.54765,27.15695c0.94369,3.049 2.23031,7.76472 3.70202,13.43202" fill="none" stroke="#3a2f41" stroke-width="2" stroke-linecap="round"/><path d="M274.88388,248.11472l-20.61843,11.11126l-29.39969,-9.29124" fill="none" stroke="#3a2f41" stroke-width="1.5" stroke-linecap="round"/></g><path d="M252.26093,251.93398c-9.20058,0.57151 -24.80049,-8.40504 -24.80049,-8.40504c0,0 0.92829,-5.2086 1.72458,-8.04439c0.72538,-2.58329 2.34158,-8.25313 2.34158,-8.25313c0,0 0.3306,-3.95607 -2.18554,-7.96434c-1.57641,-2.51126 -10.08124,-12.54427 -10.11791,-12.90543c-0.00705,-0.06943 0.78593,-3.86146 2.24548,-7.93825c1.69416,-4.73206 8.47912,-12.61078 11.65293,-14.55728c3.45771,-2.12062 8.25108,-3.2761 11.97034,-3.3966c5.68402,-0.18418 11.62032,0.5676 16.92026,3.04785c1.99724,0.93466 5.67811,3.55258 5.67811,3.55258c0,0 6.42346,7.42482 9.48499,16.76343c-3.1024,10.38318 -11.2022,15.07359 -11.2022,15.07359l-0.61523,6.97883c0,0 2.3407,4.97195 3.30113,7.46384c0.95722,2.48353 2.45193,7.46255 2.45193,7.46255c0,0 -9.64936,10.55032 -18.84996,11.12183z" fill="#3a2f41" stroke="#8c9ca0" stroke-width="1.5" stroke-linecap="round"/><g data-paper-data="{&quot;index&quot;:null}" stroke="#3a2f41" stroke-linecap="butt"><g data-paper-data="{&quot;index&quot;:null}"><g stroke-width="0"><path d="" fill="#e1e2db"/><path d="" fill="#e1e2db"/><path d="" fill="#8c9ca0"/></g><path d="M278.49234,278.72668l37.25081,-2.26596l0.39182,6.61948c-12.44109,0.02396 -24.9126,0.09951 -37.37291,0.20328z" fill="#e1e2db" stroke-width="0"/><path d="M278.49233,278.72668l37.25083,-2.26596l0.3918,6.61949c-12.44109,0.02396 -24.91259,0.09951 -37.37291,0.20328z" fill="#8c9ca0" stroke-width="0"/><path d="M305.50345,277.36023l10.27956,-0.62529l0.37558,6.34523" fill="none" stroke-width="2"/><path d="M278.78568,283.28328l-0.25348,-4.28239l12.11137,-0.73672" fill="none" stroke-width="2"/></g><g data-paper-data="{&quot;index&quot;:null}"><path d="M281.08878,245.07218l-16.39806,-39.41936l5.59036,-15.49799c0,0 8.31892,9.81887 12.89119,16.20517c8.30224,11.5962 32.81026,47.62856 32.81026,47.62856l1.83977,29.08872c-13.03483,0.02017 -26.10513,0.09815 -39.163,0.20707z" fill="#3a2f41" stroke-width="1.5"/><path d="" fill="#8ea8ab" stroke-width="2"/></g></g><g fill="#8c9ca0" stroke="#3a2f41" stroke-width="1.5" stroke-linecap="butt"><path d="M251.29109,198.87693c0.00155,1.84926 -1.56383,3.34967 -3.49638,3.35128c-1.93254,0.00161 -3.50043,-1.49618 -3.50198,-3.34544c-0.00155,-1.84926 1.56384,-3.34968 3.49639,-3.35129c1.93254,-0.00161 3.50042,1.4962 3.50196,3.34545z"/><path d="M251.94733,208.89826c0.0016,1.91352 -1.63474,3.46612 -3.65486,3.4678c-2.02013,0.00168 -3.65902,-1.54817 -3.66062,-3.46169c-0.0016,-1.91352 1.63473,-3.4661 3.65484,-3.4678c2.02013,-0.00168 3.65905,1.54817 3.66065,3.46169z"/></g><g stroke="#3a2f41" stroke-width="2"><g fill="#e1e2db"><path d="M339.97133,215.15226l7.36361,-25.91602l6.57591,25.92191z" stroke-linecap="round"/><path d="M345.33078,214.12614l4.72845,-23.56124l8.71256,27.25579z" stroke-linecap="round"/><path d="M279.406,225.76701l2.70136,-3.85903l-12.02467,-1.8805l8.34821,-3.79612l-2.78426,-3.26608c0,0 22.42728,-2.16459 29.24973,-3.29767c4.37335,-0.72631 7.35222,-1.35227 7.35222,-1.35227l8.23579,-16.88752l27.18702,-2.72671c0,0 -20.23156,10.67326 -16.22702,14.30539c0.98148,0.89022 23.48279,4.79246 23.48279,4.79246l-5.93836,-18.47212l18.11842,28.20994c0,0 -13.55672,2.45071 -22.17726,2.94268c-8.62054,0.49199 20.82099,-2.62889 22.18183,-2.84083l-17.72171,8.03433c0,0 -13.26686,0.06144 -17.8126,0.36933c-13.263,0.89831 -52.17151,-0.27531 -52.17151,-0.27531z" stroke-linecap="butt"/></g><g stroke-linecap="butt"><path d="M315.53211,233.61226l-39.29038,2.94759c0,0 -38.09901,-18.84046 -50.41603,-25.30467c-6.78328,-3.56 4.29734,-16.23663 4.29734,-16.23663l32.8217,9.02815l50.28318,-10.27334z" fill="#3a2f41"/><path d="M308.71324,234.08003l-2.18554,-0.00316l-4.02359,-37.98092l2.09957,-0.25611z" fill="#8ea8ab"/></g></g><g><path d="M254.1784,179.55138c0.12027,2.04213 -4.9406,6.14074 -7.18509,6.27294c-2.2445,0.13219 -7.5947,-2.95212 -7.71497,-4.99424c-0.12027,-2.04213 5.16417,-3.47972 7.40866,-3.61191c2.24449,-0.13219 7.37114,0.29111 7.49141,2.33324z" fill="#3a2f41" stroke="none" stroke-width="0" stroke-linecap="butt"/><g fill="#8c9ca0" stroke="#8c9ca0" stroke-width="1.5" stroke-linecap="butt"><path d="M229.94654,195.17331c-0.81561,-0.70949 8.67565,-15.20691 8.67565,-15.20691l8.04174,5.36639l7.77079,-6.97314c0,0 11.23027,13.34659 10.67083,14.14789c-0.30933,0.44307 -4.08197,-1.27507 -8.71675,-2.39522c-4.26353,-1.03045 -9.43164,-1.45409 -9.43164,-1.45409c0,0 -5.34406,1.70543 -9.69398,3.47683c-3.97736,1.61968 -6.97655,3.33408 -7.31663,3.03827z"/></g><path d="M238.72384,181.63155l0.39335,-1.94857l7.17165,-2.64195l7.67825,1.1924l0.91485,1.91163" fill="none" stroke="#8c9ca0" stroke-width="2" stroke-linecap="round"/></g><path d="M245.6276,151.93797l-18.38649,0.70499" fill="none" stroke="#3a2f41" stroke-width="1" stroke-linecap="round"/></g></g></svg>