<svg version="1.1" xmlns="http://www.w3.org/2000/svg" xmlns:xlink="http://www.w3.org/1999/xlink" width="276.75408" height="433.93659" viewBox="0,0,276.75408,433.93659"><g transform="translate(-101.84189,36.51734)"><g data-paper-data="{&quot;isPaintingLayer&quot;:true}" fill-rule="nonzero" stroke-linejoin="miter" stroke-miterlimit="10" stroke-dasharray="" stroke-dashoffset="0" style="mix-blend-mode: normal"><g stroke-linecap="butt"><path d="M315.68055,41.95882c0,24.5118 -29.826,39.19158 -60.21488,39.19158c-30.38889,0 -61.77216,-15.71798 -61.77216,-40.22977c0,-10.27256 0.57922,-33.49902 13.82179,-45.57776c14.43184,-13.16349 33.93483,-10.22482 33.93483,-10.22482c0,0 21.57091,-14.61551 41.79646,-5.0772c34.8496,16.43497 32.43396,50.86804 32.43396,61.91798z" fill="#3a2f41" stroke="#3a2f41" stroke-width="2"/><g fill="#3a2f41" stroke="#3a2f41" stroke-width="2"><g><g><path d="M317.7491,120.65674c0,44.12187 -28.87691,79.88971 -64.49841,79.88971c-35.62149,0 -64.4984,-35.76785 -64.4984,-79.88971c0,-44.12187 28.87692,-79.88972 64.4984,-79.88972c35.62148,0 64.49841,35.76785 64.49841,79.88972z"/><path d="M315.3453,59.57499c11.37404,38.64491 60.58735,84.83953 60.58735,84.83953c0,0 -67.26769,-3.21488 -88.83118,-36.65369c-13.46332,-20.87775 26.3206,-54.72023 28.24381,-48.18584z" data-paper-data="{&quot;index&quot;:null}"/><path d="M222.41286,85.8524c-21.37711,31.21961 -99.39656,45.45989 -99.39656,45.45989c0,0 60.77218,-43.93009 71.93098,-79.96506c1.88681,-6.09307 40.81255,15.01299 27.4656,34.50518z"/><path d="M211.39028,126.90984c-10.13018,14.5878 -26.9236,33.16885 -48.18983,41.18083c-27.48112,10.35342 -59.1331,-4.61086 -59.1331,-4.61086c0,0 65.72051,-35.06624 77.96871,-73.71114c2.07104,-6.53439 43.8523,16.26343 29.35421,37.14119z"/><path d="M315.06819,87.50436c5.42127,39.36152 60.13638,90.71159 60.13638,90.71159c0,0 -33.46224,12.8785 -57.44714,-3.91402c-15.0049,-10.50536 -29.13458,-38.7251 -35.42158,-52.21607c-10.19985,-21.88741 31.81568,-41.23706 32.73238,-34.58148z" data-paper-data="{&quot;index&quot;:null}"/><path d="M205.51696,153.40423c-6.5992,12.07264 -5.40604,34.83393 -20.35225,44.99951c-28.31459,19.25804 -62.52607,30.00432 -62.52607,30.00432c0,0 41.28209,-70.54342 48.70462,-109.88813c1.25505,-6.65272 46.09949,13.06711 34.17366,34.88431z"/><path d="M321.46287,123.26926c0.46304,39.73277 29.13647,103.92419 29.13647,103.92419c0,0 -56.31707,-36.1756 -69.12919,-72.68942c-7.99932,-22.79766 39.91443,-37.95309 39.99272,-31.23477z" data-paper-data="{&quot;index&quot;:null}"/><path d="M218.68013,168.98098c-2.43848,13.35142 4.37389,27.77585 -6.11907,39.85902c-18.90188,21.76646 -58.58885,37.58847 -58.58885,37.58847c0,0 5.58508,-27.42576 12.47064,-64.30101c2.40234,-12.86564 4.963,-26.88154 7.5,-41.28426c-1.00554,-6.67638 49.00237,4.78526 44.73729,28.13777z" data-paper-data="{&quot;index&quot;:null}"/><path d="M317.13265,145.99742c9.80849,55.68349 -2.67764,107.05789 -2.67764,107.05789c0,0 -35.22846,-41.5176 -42.05963,-78.92009c-4.26509,-23.35253 45.74283,-34.81417 44.73728,-28.13778z" data-paper-data="{&quot;index&quot;:null}"/><path d="M237.75351,180.58205c4.00588,37.63065 -55.87296,101.97218 -55.87296,101.97218c0,0 10.45001,-66.35358 4.13305,-122.31903c-2.88866,-6.36191 49.2388,-3.14812 51.73991,20.34685z" data-paper-data="{&quot;index&quot;:null}"/><path d="M308.78863,162.44414c-6.31697,55.96547 -29.34704,106.33895 -29.34704,106.33895c0,0 -26.39875,-48.36144 -22.39287,-85.99209c2.50111,-23.49498 54.62858,-26.70875 51.73991,-20.34685z" data-paper-data="{&quot;index&quot;:null}"/><path d="M275.46588,166.58665c-3.50603,12.71999 2.98853,29.57045 -0.09407,41.16838c-10.24815,38.55795 -52.96192,73.04511 -52.96192,73.04511c0,0 -11.50455,-61.59735 -1.54963,-98.60584c6.21543,-23.10654 58.48439,-21.66796 54.60561,-15.60763z" data-paper-data="{&quot;index&quot;:null}"/></g><path d="M223.8709,69.809c-37.10839,3.43713 -72.36429,15.43897 -72.36429,15.43897c0,0 21.89118,-30.56073 50.14772,-42.91787c1.46208,-4.72146 31.6252,11.63339 21.28278,26.73766z"/><path d="M216.50856,43.34415c-7.08835,7.88428 -22.755,13.08812 -32.38906,10.70715c-15.79472,-3.90351 -18.26421,-26.53755 -18.26421,-26.53755c0,0 25.9032,13.25332 39.32913,-12.51756c2.27017,-4.35756 23.00556,15.35489 11.32415,28.34797z"/></g><path d="M348.74084,94.06399c0,0 -41.01144,-23.76311 -75.31842,-33.87135c-10.3424,-15.10427 24.5092,-18.16594 30.62074,-17.84284c19.2042,1.01529 44.69768,51.71419 44.69768,51.71419z" data-paper-data="{&quot;index&quot;:null}"/><path d="M304.27298,20.15034c13.42595,25.77088 35.90713,16.00389 35.90713,16.00389c0,0 -3.90436,16.02966 -13.77196,21.71761c-9.32668,5.37615 -24.36821,0.7384 -33.45932,-9.37353c-11.68139,-12.99309 9.05398,-32.7055 11.32415,-28.34797z" data-paper-data="{&quot;index&quot;:null}"/></g><g data-paper-data="{&quot;index&quot;:null}"><path d="M300.07081,54.21613c-0.67245,9.57938 -2.02898,18.07704 -9.90042,23.78466c-7.65182,5.54838 -21.5891,8.45195 -38.16931,7.71711c-33.19731,-1.47125 -44.56316,-18.45143 -43.23701,-37.34287c1.3261,-18.89144 16.90086,-41.99908 55.14025,-38.50634c25.15412,2.29756 37.49261,25.45601 36.16648,44.34745z" fill="#e1e2db" stroke="none" stroke-width="0"/><path d="M300.07081,54.21614c-1.32612,18.89144 -19.12321,5.81868 -39.80992,4.64586c-20.68259,-1.17258 -52.82298,8.40446 -51.49683,-10.48697c1.3261,-18.89144 16.90086,-41.99908 55.14025,-38.50634c25.15412,2.29756 37.49261,25.45601 36.16648,44.34745z" fill="#b8c1c0" stroke="none" stroke-width="0"/><path d="M248.19882,10.39722c45.91245,-2.84214 53.03688,27.224 51.8419,44.24733h-0.00001c-0.62904,8.96098 -2.76244,17.29227 -9.62662,22.9448c-7.60677,6.26407 -20.76189,9.3406 -38.44309,8.55696c-33.1973,-1.47126 -44.56317,-18.45142 -43.23702,-37.34286c1.12563,-16.0352 12.51708,-35.10811 39.32105,-38.3729" fill="none" stroke="#3a2f41" stroke-width="2"/></g><path d="M240.41195,-26.17366c0,5.16039 2.06873,9.34369 0.77864,9.34369c-1.29009,0 -12.7178,-5.74059 -12.7178,-10.90097c0,-5.16039 11.4277,-7.7864 12.7178,-7.7864c1.29009,0 -0.77864,4.18331 -0.77864,9.34369z" fill="#3a2f41" stroke="#3a2f41" stroke-width="2"/><path d="M247.4016,7.0369c10.49428,12.33786 -8.23203,25.18204 -8.23203,25.18204c0,0 -19.35608,24.24831 -38.55657,26.36638c-5.62327,0.62033 0.77752,-7.89721 -1.45091,-10.51711c-4.73651,-5.56861 2.22257,-19.26801 15.54355,-30.5985c13.32097,-11.33049 27.95945,-16.00142 32.69596,-10.43281z" fill="#3a2f41" stroke="#3a2f41" stroke-width="2"/><path d="M316.20947,47.96585c-7.00262,9.33936 -26.51194,8.23588 -43.57528,-2.4647c-17.06335,-10.70058 -25.21917,-26.94616 -18.21655,-36.28552c7.00262,-9.33936 26.51194,-8.23588 43.57528,2.4647c17.06335,10.70058 25.21917,26.94616 18.21655,36.28552z" fill="#3a2f41" stroke="#3a2f41" stroke-width="2"/><path d="M256.04507,17.17548c9.90764,1.58786 12.42732,4.9095 11.80669,11.61802c-0.71787,7.75952 3.78638,25.57845 3.78638,25.57845c0,0 -28.47617,-2.73498 -35.46283,-28.02655c-1.79391,-6.49394 9.96215,-10.75778 19.86977,-9.1699z" data-paper-data="{&quot;index&quot;:null}" fill="#3a2f41" stroke="#3a2f41" stroke-width="2"/><path d="M205.00398,40.722c8.91009,-1.7295 6.59205,1.50154 6.59205,1.50154l13.28104,30.7823c0,0 -23.04184,-3.96422 -32.38335,-20.37597c-3.77207,-6.627 3.60016,-10.17836 12.51025,-11.90785z" data-paper-data="{&quot;index&quot;:null}" fill="#3a2f41" stroke="#3a2f41" stroke-width="2"/></g><g data-paper-data="{&quot;index&quot;:null}" stroke-linecap="butt"><path d="M368.15618,163.51716l-6.6997,17.32065l-41.34352,35.00588l-23.22108,-36.68587l18.05426,-13.33556l-30.14777,-44.03747l-0.88361,-17.08142l14.00974,-0.92946c0,0 15.41339,15.43655 32.74391,28.33157z" data-paper-data="{&quot;index&quot;:null}" fill="#e1e2db" stroke="none" stroke-width="0"/><path d="M367.02391,164.90437l-60.25995,-11.82955l-22.29891,-30.9548l-1.55026,-17.07765l15.00972,-0.93512c0,0 15.41339,15.43655 32.7439,28.33156z" data-paper-data="{&quot;index&quot;:null}" fill="#8c9ca0" stroke="none" stroke-width="0"/><path d="M367.96287,163.49601l-7.26117,17.38132l-40.58875,34.96636l-24.55815,-37.34499l19.39134,-12.67644l-29.80879,-43.03937l-1.55591,-18.07764l14.34307,-0.93134c0,0 15.41339,15.43654 32.7439,28.33156z" data-paper-data="{&quot;index&quot;:null}" fill="none" stroke="#3a2f41" stroke-width="2"/></g><g data-paper-data="{&quot;index&quot;:null}" stroke="#3a2f41" stroke-width="2"><path d="M291.80842,194.10586c0,0 9.61522,-13.98386 13.98179,-14.31279c4.18535,-0.31528 17.83959,17.18714 17.83959,17.18714c0,0 5.5154,29.40778 2.26265,31.28694c-3.51177,2.0288 -14.70925,3.52838 -15.06612,2.64163c-5.38519,-13.38127 -19.0179,-36.80291 -19.0179,-36.80291z" fill="#e1e2db" stroke-linecap="butt"/><path d="M297.88215,202.31508l19.31304,-12.17643" fill="none" stroke-linecap="round"/></g><g data-paper-data="{&quot;index&quot;:null}"><g stroke-linecap="butt"><path d="M229.53656,326.92755l15.21522,-123.79598l32.44806,2.90644l-1.78994,117.52556z" fill="#e1e2db" stroke="none" stroke-width="0"/><path d="M242.6188,226.5893l1.50492,-23.56357l34.69461,2.84926l-0.8774,22.76442z" fill="#8c9ca0" stroke="none" stroke-width="0"/><path d="M230.56611,325.21696l13.55761,-122.19118l34.32639,2.58286l-2.82144,119.02251z" fill="none" stroke="#3a2f41" stroke-width="2.5"/></g><path d="M216.12237,395.51735l16.428,-87.13593l43.82631,-1.94287l-0.84271,68.0859z" fill="#a71e1e" stroke="#3a2f41" stroke-width="2.5" stroke-linecap="butt"/><path d="M234.33867,298.17909l40.32754,-1.66999" fill="none" stroke="#3a2f41" stroke-width="2.5" stroke-linecap="round"/></g><g data-paper-data="{&quot;index&quot;:null}"><g stroke-linecap="butt"><path d="M280.6762,322.29292l-1.78994,-117.52556l32.44805,-2.90644l15.21522,123.79598z" fill="#e1e2db" stroke="none" stroke-width="0"/><path d="M278.14518,227.36874l-0.8774,-22.76442l34.69461,-2.84926l1.50492,23.56357z" fill="#8c9ca0" stroke="none" stroke-width="0"/><path d="M280.45742,323.3605l-2.82144,-119.02251l34.32639,-2.58286l13.55761,122.19118z" fill="none" stroke="#3a2f41" stroke-width="2.5"/></g><path d="M280.55214,373.25379l-0.84271,-68.0859l43.82631,1.94287l16.428,87.13593z" fill="#a71e1e" stroke="#3a2f41" stroke-width="2.5" stroke-linecap="butt"/><path d="M321.74744,296.90842l-40.32754,-1.66999" fill="none" stroke="#3a2f41" stroke-width="2.5" stroke-linecap="round"/></g><g><g><path d="M312.59987,194.58072c0,0 0.90141,3.36794 0.65272,3.81362c0,0 -9.94298,14.42459 -20.4618,16.36279c-20.42985,3.76443 -48.68102,-5.7811 -48.68102,-5.7811l-1.57146,-7.03873c0,0 2.99984,-10.49323 3.03006,-11.32582c0.39695,-10.94039 -27.18895,-42.35759 -21.94776,-70.61186c1.02451,-5.52292 23.03593,-19.14121 33.35521,-20.48991c11.32166,-1.47969 23.3589,-2.16133 33.83937,7.17177c16.16201,14.39267 11.36028,31.64749 13.35456,53.89133c1.02603,11.444 -1.51823,19.63801 -1.51823,19.63801z" fill="#a71e1e" stroke="none" stroke-width="0" stroke-linecap="round"/><g stroke="none"><g fill="#a71e1e" stroke-width="0" stroke-linecap="round"><g><g><path d="M293.18344,109.2688c0,0 14.3963,12.50149 19.52589,26.31206c0.78474,0.75057 3.86258,8.22396 -1.83491,15.80956c-2.62944,3.50079 -4.03053,8.36579 -7.03533,10.0837c-6.19351,3.541 -18.31099,-0.01158 -27.24006,2.03975c-9.38778,2.15671 -18.47761,5.23723 -26.11615,4.83664c-4.00975,-0.21031 -8.04246,-0.05833 -11.84624,-2.24125c-5.18061,-2.97308 -7.32673,-7.36591 -9.10788,-11.70442c-1.72049,-3.20617 -1.99713,-12.08006 -0.19708,-19.46906c0.28922,-1.1872 0.63203,-2.33605 1.03109,-3.41688c2.36787,-6.41351 4.36346,-9.35326 4.36346,-9.35326"/></g></g></g><g stroke-linecap="butt"><g><g fill="none" stroke-width="1" font-family="sans-serif" font-weight="normal" font-size="12" text-anchor="start"/><path d="M234.81164,125.96159c0.06272,0.46243 -3.59458,5.0064 -2.65878,2.20487c0.86404,-2.58673 5.43722,-11.9842 5.43722,-11.9842c0,0 -2.89418,3.54563 -5.86241,7.97457c-0.48545,0.72433 6.81223,-13.82506 9.13105,-14.13956c2.31884,-0.3145 -6.16773,15.05499 -6.0471,15.94436z" fill="#ffffff" stroke-width="0"/></g><path d="M282.98477,103.96453c2.12258,-1.01616 10.19201,4.74711 9.40773,4.40317c-4.7953,-2.10292 -3.46236,-0.99877 -3.46236,-0.99877c0,0 8.71672,5.41575 10.78234,7.12472c2.2372,1.85091 -3.20001,0.03169 -3.38569,-0.39389c-0.35709,-0.81852 -15.46463,-9.1191 -13.34206,-10.13526z" data-paper-data="{&quot;index&quot;:null}" fill="#ffffff" stroke-width="0"/></g></g><path d="M224.19917,119.92116c1.02451,-5.52292 23.03593,-19.14121 33.35521,-20.48991c11.32166,-1.47969 23.3589,-2.16133 33.83937,7.17177c1.01782,0.90639 19.53886,26.22782 19.53886,26.22782l-1.89673,21.50612c0,0 -85.27051,-22.93091 -85.62442,-24.16929c-0.07154,-3.44713 0.1627,-6.87725 0.78769,-10.2465z" fill="#720808" stroke="none" stroke-width="0" stroke-linecap="butt"/><g stroke="none"><g fill="#720808" stroke-width="0" stroke-linecap="round"><g><g><path d="M293.20495,108.55887c0,0 4.18868,5.00881 15.25272,15.65772c0.9214,2.48071 9.82279,12.39426 9.82279,12.39426l-9.13188,15.95638l-79.3644,-20.96986l4.36346,-9.35326"/></g></g></g><g fill="none" stroke-width="1" stroke-linecap="butt" font-family="sans-serif" font-weight="normal" font-size="12" text-anchor="start"><g><g/></g></g></g><path d="M304.03929,162.73249c0.67514,7.88218 -1.48421,17.49139 -1.48421,17.49139l10.33404,14.31756c0,0 0.90141,3.36794 0.65272,3.81362c0,0 -9.94298,14.42459 -20.4618,16.36279c-20.26729,3.73447 -49.53447,-4.96131 -49.53447,-4.96131l-0.67306,-7.36054c0,0 2.85026,-11.7626 2.88049,-12.5952c0.39695,-10.94039 -27.08433,-41.58619 -21.84314,-69.84046c0.68526,-3.69409 10.7597,-11.00992 20.44445,-15.85347c4.7946,-2.39788 9.4937,-4.18984 12.91076,-4.63644c11.32166,-1.47969 23.3589,-2.16133 33.83937,7.17177c0.39191,0.349 0.77148,0.69968 1.13913,1.05208" fill="none" stroke="#3a2f41" stroke-width="2" stroke-linecap="round"/><g fill="none" stroke="none" stroke-width="1" stroke-linecap="butt" font-family="sans-serif" font-weight="normal" font-size="12" text-anchor="start"><g/></g></g><path d="M292.00303,107.50071l26.58991,28.79913l-14.75703,25.86376" fill="none" stroke="#3a2f41" stroke-width="2" stroke-linecap="round"/><path d="M241.88476,107.22797c0,0 -5.72935,-5.51509 -5.35921,-6.93262c0.86397,-3.30876 16.27817,-11.93955 18.6652,-12.25323c3.49039,-0.45866 23.09533,2.40914 24.02971,5.57872c0.73991,2.50989 -3.35826,7.82038 -3.35826,7.82038" fill="#720808" stroke="#3a2f41" stroke-width="2" stroke-linecap="round"/><path d="M244.12801,99.9313l11.92685,-7.29284l15.20373,2.43894l-9.76746,8.27304z" fill="#3a2f41" stroke="#3a2f41" stroke-width="2" stroke-linecap="round"/></g><g data-paper-data="{&quot;index&quot;:null}" stroke-linecap="butt"><path d="M198.1587,152.02114c12.1046,-17.89154 21.56079,-37.54961 21.56079,-37.54961l13.53171,-3.74561l4.80251,16.4162l-13.92736,51.51908l21.44351,6.63094l-9.81458,42.29356l-50.57913,-19.40231l-12.03998,-14.13965z" data-paper-data="{&quot;index&quot;:null}" fill="#e1e2db" stroke="none" stroke-width="0"/><path d="M214.71948,126.13816l5.09023,-11.52223l14.38732,-3.88135l4.17195,16.63262l-1.87989,6.79465z" data-paper-data="{&quot;index&quot;:null}" fill="#8c9ca0" stroke="none" stroke-width="0"/><path d="M198.1587,152.0211c12.1046,-17.89153 21.56079,-37.5496 21.56079,-37.5496l13.84698,-3.85382l4.49659,17.57846l-13.93673,50.46503l22.48819,5.56752l-10.85926,43.35698l-49.85359,-19.61407l-12.59002,-14.01165z" data-paper-data="{&quot;index&quot;:null}" fill="none" stroke="#3a2f41" stroke-width="2"/></g><g stroke="#3a2f41" stroke-width="2"><path d="M250.02703,230.56516c-0.08307,0.95225 -11.23173,2.77974 -15.1822,1.86199c-3.65911,-0.85007 -6.94994,-30.58906 -6.94994,-30.58906c0,0 7.96325,-20.72099 12.05891,-21.63866c4.273,-0.9574 17.54492,9.61884 17.54492,9.61884c0,0 -6.21827,26.37721 -7.47168,40.74689z" fill="#e1e2db" stroke-linecap="butt"/><path d="M254.07991,199.44083l-22.02257,-6.02206" fill="none" stroke-linecap="round"/></g><g data-paper-data="{&quot;index&quot;:null}" stroke="#3a2f41" stroke-width="1" stroke-linecap="butt"><path d="M256.3968,59.7066c0,6.9293 -6.28644,9.87712 -16.01695,9.87712c-9.73051,0 -15.48305,-2.41392 -15.48305,-9.34322c0,-0.24458 0.00717,-0.49213 0.02142,-0.74215c10.49264,0.02308 20.98539,0.06738 31.4781,0.10373c0.00032,0.03489 0.00048,0.06973 0.00048,0.10452z" data-paper-data="{&quot;index&quot;:null}" fill="#e1e2db"/><path d="M228.45896,66.17759c-2.17854,-1.18098 -3.3331,-3.69524 -3.37477,-6.67775c5.65284,0.01291 11.30571,0.0318 16.95859,0.05211c-3.35594,5.07517 -9.97916,8.57971 -13.58382,6.62564z" data-paper-data="{&quot;index&quot;:null}" fill="#3a2f41"/></g><path d="M255.64679,84.48266c-8.78091,0 0,-18 0,-18l15,5c0,0 -6.21909,13 -15,13z" fill="#3a2f41" stroke="#3a2f41" stroke-width="1" stroke-linecap="butt"/></g></g></svg>