<svg version="1.1" xmlns="http://www.w3.org/2000/svg" xmlns:xlink="http://www.w3.org/1999/xlink" width="213.44959" height="251.82492" viewBox="0,0,213.44959,251.82492"><defs><linearGradient x1="1077.66312" y1="216.06021" x2="1077.66312" y2="354.07601" gradientUnits="userSpaceOnUse" id="color-1"><stop offset="0" stop-color="#ffffff" stop-opacity="0.26046"/><stop offset="1" stop-color="#ffffff" stop-opacity="0"/></linearGradient><linearGradient x1="1077.66312" y1="216.06021" x2="1077.66312" y2="354.07601" gradientUnits="userSpaceOnUse" id="color-2"><stop offset="0" stop-color="#ffffff" stop-opacity="0.26046"/><stop offset="1" stop-color="#ffffff" stop-opacity="0"/></linearGradient><linearGradient x1="1077.66312" y1="216.06021" x2="1077.66312" y2="354.07601" gradientUnits="userSpaceOnUse" id="color-3"><stop offset="0" stop-color="#ffffff" stop-opacity="0.26046"/><stop offset="1" stop-color="#ffffff" stop-opacity="0"/></linearGradient><linearGradient x1="1036.02754" y1="220.12049" x2="1036.02754" y2="358.13627" gradientUnits="userSpaceOnUse" id="color-4"><stop offset="0" stop-color="#ffffff" stop-opacity="0.26046"/><stop offset="1" stop-color="#ffffff" stop-opacity="0"/></linearGradient><linearGradient x1="1036.02754" y1="220.12049" x2="1036.02754" y2="358.13627" gradientUnits="userSpaceOnUse" id="color-5"><stop offset="0" stop-color="#ffffff" stop-opacity="0.26046"/><stop offset="1" stop-color="#ffffff" stop-opacity="0"/></linearGradient><linearGradient x1="1036.02754" y1="220.12049" x2="1036.02754" y2="358.13627" gradientUnits="userSpaceOnUse" id="color-6"><stop offset="0" stop-color="#ffffff" stop-opacity="0.26046"/><stop offset="1" stop-color="#ffffff" stop-opacity="0"/></linearGradient><linearGradient x1="254.25126" y1="106.86592" x2="255.08629" y2="174.96728" gradientUnits="userSpaceOnUse" id="color-7"><stop offset="0" stop-color="#cedee0" stop-opacity="0"/><stop offset="1" stop-color="#cedee0" stop-opacity="0.19676"/></linearGradient></defs><g transform="translate(-177.38456,-37.14518)"><g data-paper-data="{&quot;isPaintingLayer&quot;:true}" fill-rule="nonzero" stroke-linejoin="miter" stroke-miterlimit="10" stroke-dasharray="" stroke-dashoffset="0" style="mix-blend-mode: normal"><path d="" fill="#3a2f41" stroke="none" stroke-width="0" stroke-linecap="butt"/><path d="" fill="#3a2f41" stroke="url(#color-1)" stroke-width="0.5" stroke-linecap="butt"/><path d="" fill="#3a2f41" stroke="url(#color-2)" stroke-width="0.5" stroke-linecap="butt"/><path d="" fill="#3a2f41" stroke="url(#color-3)" stroke-width="0.5" stroke-linecap="butt"/><path d="" data-paper-data="{&quot;index&quot;:null}" fill="#3a2f41" stroke="url(#color-4)" stroke-width="0.5" stroke-linecap="butt"/><path d="" data-paper-data="{&quot;index&quot;:null}" fill="#3a2f41" stroke="url(#color-5)" stroke-width="0.5" stroke-linecap="butt"/><path d="" data-paper-data="{&quot;index&quot;:null}" fill="#3a2f41" stroke="url(#color-6)" stroke-width="0.5" stroke-linecap="butt"/><g><path d="M226.29338,247.31905l48.0244,-0.7853c0,0 5.28896,11.94195 8.66624,19.41765c1.01081,2.23748 1.85037,4.07486 2.32563,5.07225c0.81872,3.0182 1.84682,7.23865 2.99369,12.18631c-24.42462,0.17215 -48.84703,0.47558 -72.95423,0.73453c5.114,-18.14585 10.94429,-36.62542 10.94429,-36.62542z" fill="#e1e2db" stroke="none" stroke-width="0" stroke-linecap="round"/><path d="M214.34089,272.40984c3.19534,-14.32135 15.26578,-29.93679 15.26578,-29.93679l42.83537,-0.96214c0,0 5.70033,10.82614 7.52847,14.99505c1.26759,2.8906 2.38841,7.61937 2.38841,7.61937l-25.25896,18.96617c-15.01087,0.15533 -29.97027,0.33204 -44.80503,0.48907c0.79018,-4.74878 1.51246,-8.77964 2.04595,-11.17073z" fill="#8c9ca0" stroke="none" stroke-width="0" stroke-linecap="butt"/><path d="M213.37644,283.96557c0.83389,-4.66219 1.66403,-8.92134 2.46666,-12.51874c2.8729,-12.87653 13.77556,-28.56137 13.77556,-28.56137l42.48231,-0.50823c0,0 6.72589,8.8977 12.12365,27.34887c0.89614,3.06331 2.10924,7.79848 3.49261,13.48799" fill="none" stroke="#3a2f41" stroke-width="2" stroke-linecap="round"/><path d="M275.84663,249.26053l-20.78879,10.78915l-29.25159,-9.74749" fill="none" stroke="#3a2f41" stroke-width="1.5" stroke-linecap="round"/></g><path d="M254.51907,252.57724c-9.21053,-0.3788 -23.80333,-10.91376 -23.80333,-10.91376c0,0 1.45963,-5.08535 2.54365,-7.82409c0.98749,-2.49489 3.17885,-7.96819 3.17885,-7.96819c0,0 0.73615,-3.90101 -1.35393,-8.14703c-1.30949,-2.66022 -8.73615,-13.51555 -8.73543,-13.87856c0.00014,-0.06979 1.17931,-3.76002 3.05084,-7.66488c2.17236,-4.53248 9.73243,-11.67077 13.08977,-13.28016c3.65767,-1.75336 8.54454,-2.40918 12.25644,-2.14612c5.67278,0.40201 11.50012,1.76097 16.51654,4.77371c1.89039,1.13532 5.28217,4.1183 5.28217,4.1183c0,0 5.62489,8.04671 7.70867,17.65089c-4.15493,10.0086 -12.6946,13.84014 -12.6946,13.84014l-1.33047,6.8784c0,0 1.81636,5.18652 2.51513,7.76405c0.69644,2.56889 1.67058,7.67533 1.67058,7.67533c0,0 -10.68431,9.50079 -19.89485,9.12199z" fill="#3a2f41" stroke="#8c9ca0" stroke-width="1.5" stroke-linecap="round"/><g data-paper-data="{&quot;index&quot;:null}" stroke="#3a2f41"><g data-paper-data="{&quot;index&quot;:null}"><g><path d="M357.56,129.2217l-22.96718,-12.17174l47.06758,-77.20196l8.10501,35.78344z" fill="#e1e2db" stroke-width="0" stroke-linecap="butt"/><path d="M357.56,129.22171l-22.96718,-12.17174l19.66526,-32.72326l12.70703,29.24476z" fill="#8c9ca0" stroke-width="0" stroke-linecap="butt"/><path d="M350.34577,91.00731l16.07635,22.27628" fill="none" stroke-width="1.5" stroke-linecap="round"/><path d="M375.25725,98.58186l-14.76848,-23.77168" fill="none" stroke-width="1.5" stroke-linecap="round"/><path d="M384.26025,84.28167l-14.41706,-26.39926" fill="none" stroke-width="1.5" stroke-linecap="round"/><path d="M341.1604,120.53047l-6.56752,-3.48052l46.45558,-77.30277l8.717,35.88426l-32.2054,53.59026l-2.99374,-1.58657" fill="none" stroke-width="2" stroke-linecap="butt"/></g><path d="M347.94001,154.76266l-31.65745,-16.77728l22.23026,-36.99151l31.65745,16.77727z" fill="#e1e2db" stroke-width="0" stroke-linecap="butt"/><path d="M347.94002,154.76267l-31.65747,-16.77728l12.82517,-21.34125l22.82236,31.47902z" fill="#8c9ca0" stroke-width="0" stroke-linecap="butt"/><path d="M344.60964,145.49427l-18.62203,-9.86898l14.39268,-23.94962l18.62204,9.86897z" fill="none" stroke-width="1.5" stroke-linecap="butt"/><path d="M344.60966,145.49424l-11.63945,-21.48811" fill="none" stroke-width="1.5" stroke-linecap="round"/><path d="M341.00106,112.00457l10.70834,20.99467" fill="none" stroke-width="1.5" stroke-linecap="round"/><path d="M326.72789,143.23028l-10.2928,-5.45478l22.23026,-36.99151l31.65746,16.77727l-22.23028,36.99151l-8.73605,-4.62978" fill="none" stroke-width="2" stroke-linecap="butt"/></g><g data-paper-data="{&quot;index&quot;:null}" stroke-width="2" stroke-linecap="butt"><path d="M358.03683,141.18116l-19.52592,32.18759c0,0 -36.92252,19.86965 -49.1686,26.09816c-6.74425,3.43019 -18.24261,8.18804 -18.24261,8.18804l1.75058,-15.00336l31.27147,-25.90578l19.59944,-44.5913z" fill="#3a2f41"/><path d="M354.55392,146.92436l-1.22471,1.70309l-33.73681,-16.71435l0.96169,-1.77156z" fill="#8ea8ab"/></g></g><g><path d="M264.13139,179.9472c-0.13584,2.04115 -5.66919,5.47526 -7.9126,5.32596c-2.24343,-0.1493 -7.16629,-3.87798 -7.03045,-5.91912c0.13584,-2.04115 5.55851,-2.80716 7.80193,-2.65786c2.24342,0.1493 7.27699,1.20989 7.14115,3.25104z" fill="#3a2f41" stroke="none" stroke-width="0" stroke-linecap="butt"/><g fill="#8c9ca0" stroke="#8c9ca0" stroke-width="1.5" stroke-linecap="butt"><path d="M238.13742,192.41881c-0.72056,-0.80584 10.50782,-14.00366 10.50782,-14.00366l7.30816,6.32919l8.58121,-5.94749c0,0 9.47454,14.64527 8.81935,15.37038c-0.36227,0.40095 -3.89065,-1.77514 -8.34914,-3.46565c-4.10136,-1.55512 -9.17602,-2.62122 -9.17602,-2.62122c0,0 -5.51528,1.02429 -10.05245,2.23827c-4.14858,1.10999 -7.33848,2.4362 -7.63894,2.10021z"/></g><path d="M248.53804,180.07994l0.63375,-1.88415l7.44556,-1.72511l7.46907,2.14248l0.66881,2.01096" fill="none" stroke="#8c9ca0" stroke-width="2" stroke-linecap="round"/></g><g fill="#8c9ca0" stroke="#3a2f41" stroke-width="1.5" stroke-linecap="butt"><path d="M259.01698,199.70229c-0.18885,1.83959 -1.90039,3.17086 -3.82284,2.9735c-1.92243,-0.19736 -3.32778,-1.84862 -3.13893,-3.68821c0.18885,-1.83959 1.9004,-3.17087 3.82285,-2.97351c1.92243,0.19736 3.32778,1.84864 3.13892,3.68822z"/><path d="M258.63796,209.73793c-0.19542,1.90352 -1.98291,3.27938 -3.99248,3.07307c-2.00956,-0.20632 -3.48018,-1.91666 -3.28476,-3.82018c0.19542,-1.90352 1.9829,-3.27937 3.99246,-3.07307c2.00956,0.20632 3.48021,1.91666 3.28479,3.82018z"/></g><path d="" fill="#3a2f41" stroke="#8c9ca0" stroke-width="2" stroke-linecap="butt"/><path d="" fill="#3a2f41" stroke="#8c9ca0" stroke-width="2" stroke-linecap="butt"/><g data-paper-data="{&quot;index&quot;:null}" stroke="#3a2f41" stroke-linecap="butt"><path d="M188.89287,113.51932l3.79426,-11.01226l7.66251,4.6179l-5.75842,-7.79596l16.31721,-15.2218c0,0 2.31363,14.96448 8.49982,28.60667c2.37601,3.05189 -6.73266,7.98413 -6.73266,7.98413z" fill="#3a2f41" stroke-width="1.5"/><path d="M218.38012,118.29293c-1.9855,-1.31764 2.38801,-17.53013 5.63809,-21.01275c1.3146,-1.40865 14.63619,11.76399 12.96495,13.5548c-3.25008,3.48261 -15.65886,9.41176 -17.64435,8.09414z" data-paper-data="{&quot;index&quot;:null}" fill="#8c9ca0" stroke-width="2"/><path d="M219.1574,118.45072c1.65839,1.57136 -6.61866,13.22448 -10.56339,15.75149c-2.02844,1.29944 -16.35482,-11.22431 -14.75926,-12.24642c3.94469,-2.527 22.86352,-5.83513 24.5219,-4.26377z" fill="#e1e2db" stroke-width="1.5"/><path d="M223.43173,115.30944c1.58167,2.30377 0.82334,5.22917 -1.6938,6.53406c-2.5171,1.30489 -5.83984,0.49512 -7.4215,-1.80867c-1.58167,-2.30377 -0.82334,-5.22917 1.6938,-6.53406c2.5171,-1.30489 5.83984,-0.49511 7.4215,1.80866z" fill="#e1e2db" stroke-width="2"/></g><path d="M298.94921,174.01124l-18.92964,-1.65364l-0.15201,-9.15958c0,0 -1.13368,9.31741 -1.55321,9.21932c-5.35451,-0.31968 -10.654,-0.56406 -15.72167,-0.7503c-21.2893,-0.78236 -38.48756,-0.53839 -38.48756,-0.53839c0,0 -6.71193,-10.41554 -6.83199,-20.2463c-0.08391,-6.86992 0.63789,-20.45207 11.33739,-31.15032c8.6292,-8.6282 23.91748,-11.46142 27.09378,-11.61544c2.53979,-0.12317 13.31643,3.27979 19.74286,8.57395c10.69732,8.8126 22.8078,28.81917 22.8078,28.81917z" fill="#3a2f41" stroke="none" stroke-width="0" stroke-linecap="butt"/><g stroke-linecap="butt"><path d="M287.26705,148.99706c0.07236,5.91263 1.69117,11.16881 -3.11297,15.04366c-4.67009,3.76674 -15.23545,5.17467 -26.03217,5.50463c-10.74605,0.32843 -21.56209,-1.66059 -26.35433,-5.46769c-4.84815,-3.8515 -3.98126,-8.50113 -4.05301,-14.36507c-0.14269,-11.66029 8.73563,-26.58025 33.73187,-26.23746c16.44267,0.22548 25.67794,13.86163 25.82064,25.52192z" fill="#e1e2db" stroke="none" stroke-width="0"/><path d="M287.26705,148.99706c0.14271,11.66028 -12.09869,4.47309 -25.5831,4.72765c-13.4817,0.2545 -33.82672,7.64818 -33.96942,-4.01212c-0.14269,-11.66029 8.73563,-26.58025 33.73187,-26.23746c16.44267,0.22548 25.67794,13.86163 25.82064,25.52192z" fill="#b8c1c0" stroke="none" stroke-width="0"/><path d="M266.11106,123.92054c13.51559,2.4576 22.04557,14.08976 22.17416,24.59701l0.00572,0.4672c0.06769,5.53095 0.40569,10.73081 -3.74781,14.52439c-4.60288,4.20398 -14.52354,5.67971 -26.03723,6.0316c-7.95417,0.24309 -17.59979,-0.89238 -22.20089,-3.06859c-7.9035,-3.73816 -8.50024,-9.38969 -8.59043,-16.75955c-0.12114,-9.89734 6.25719,-22.14322 23.47502,-25.41028" fill="none" stroke="#3a2f41" stroke-width="2"/></g><path d="M212.61565,164.62117l-9.21061,-5.92204c0,0 -2.4341,-20.03097 7.72255,-33.19098c13.10045,-16.97426 36.49002,-23.78311 59.71268,-19.22132c4.97483,0.97724 17.53056,4.38043 24.9582,11.45779c8.9227,8.50192 12.09714,19.41393 12.09714,19.41393l-4.93353,-0.59785l1.04915,8.64254c0,0 -2.71409,-0.55444 -2.73392,-0.7381c-0.44412,-4.11504 -1.4985,-8.193 -1.4985,-8.193c0,0 0.79655,3.33411 0.37111,8.2811c-2.83007,-0.41465 -18.56942,-1.63262 -18.56942,-1.63262l-2.18391,-3.68805l-0.33603,3.48241l-13.67032,-0.90465l-1.616,-13.06427l-0.05535,12.73722c0,0 -12.22172,0.05 -18.12939,0.30514c-0.4167,0.01799 -2.06607,-5.4698 -2.06607,-5.4698c0,0 -0.07823,5.74855 -0.38956,5.75688c-3.68,0.09833 -8.74597,0.72239 -8.74597,0.72239c0,0 0.42361,29.04071 0.28893,29.05546c-2.09492,0.22957 -19.97292,-5.0917 -19.95788,-6.28889c0.02174,-1.72951 -1.37996,-11.44384 -1.37996,-11.44384z" fill="#3a2f41" stroke="url(#color-7)" stroke-width="0.5" stroke-linecap="butt"/><path d="M262.91435,112.0454c13.82132,-27.73007 41.51609,-38.26594 41.51609,-38.26594l-10.93348,49.84399" fill="#3a2f41" stroke="#3a2f41" stroke-width="1.5" stroke-linecap="round"/><path d="M208.6658,131.7333c10.92345,-42.05053 42.36636,-67.98516 42.36636,-67.98516l6.16481,45.32829" fill="#3a2f41" stroke="#3a2f41" stroke-width="1.5" stroke-linecap="round"/><g stroke="#3a2f41" stroke-linecap="butt"><path d="M232.77617,150.96326c0,0 4.16367,-3.67553 11.77493,-3.72768c8.06415,-0.05525 12.37089,4.34004 12.37089,4.34004c0,0 -5.12026,-0.29787 -12.46213,-0.40319c-6.52402,-0.09361 -11.68368,-0.20914 -11.68368,-0.20914z" fill="#e1e2db" stroke-width="1"/><g fill="#3a2f41" stroke-width="0.5"><path d="M242.89408,151.27342l0.02738,-3.91357l2.9882,-0.03223l-0.13201,3.95123z"/></g></g><path d="M273.55984,167.48381c0,0 -7.89335,0.77522 -16.73164,0.82899c-8.83829,0.05375 -16.76812,-1.38663 -16.76812,-1.38663c0,0 7.9252,-10.37298 16.76349,-10.42674c3.02536,-0.0184 5.5872,-0.24137 8.12525,1.38608c4.87662,3.12702 8.61101,9.5983 8.61101,9.5983z" data-paper-data="{&quot;index&quot;:null}" fill="#000000" stroke="none" stroke-width="0.85" stroke-linecap="butt"/><g stroke="#3a2f41"><g fill="#e1e2db" stroke-width="2"><path d="" stroke-linecap="round"/><path d="" stroke-linecap="round"/><path d="M197.61475,258.86908l4.7284,-11.54789l1.80595,9.2275l3.91829,-2.00235c0,0 -3.16145,22.88363 -3.64979,29.95753c-0.07479,1.08339 -0.13641,2.08603 -0.18689,2.98466c-6.10369,0.15673 -12.18326,0.30807 -18.23354,0.45104c3.75152,-15.42412 8.39996,-32.64588 8.40928,-32.68045z" stroke-linecap="butt"/><path d="M194.40645,255.25907c0,0 0,0.00002 -0.00001,0.00006v0z" stroke-linecap="butt"/></g><g stroke-linecap="butt"><path d="M184.4053,249.74709c0,0 27.83091,-33.53231 37.20064,-44.28438c5.16015,-5.92143 13.59249,-14.47136 13.59249,-14.47136l1.58328,22.60965l-16.7916,30.59625l-1.3723,42.91443c-13.56693,0.36106 -27.03552,0.70717 -40.35052,1.00614z" fill="#3a2f41" stroke-width="1.5"/><path d="M179.16185,282.51956l0.52164,-2.17924l38.83868,4.9971l-0.20067,1.78213c-0.82072,0.02183 -1.64108,0.04361 -2.46105,0.06532z" fill="#8ea8ab" stroke-width="2"/></g></g></g></g></svg>