<svg version="1.1" xmlns="http://www.w3.org/2000/svg" xmlns:xlink="http://www.w3.org/1999/xlink" width="301.1163" height="524.57576" viewBox="0,0,301.1163,524.57576"><g transform="translate(-89.0864,81.98643)"><g data-paper-data="{&quot;isPaintingLayer&quot;:true}" fill-rule="nonzero" stroke-linejoin="miter" stroke-miterlimit="10" stroke-dasharray="" stroke-dashoffset="0" style="mix-blend-mode: normal"><g><path d="M277.85096,157.1321c0,0 -16.59982,16.60366 -34.37504,9.31242c-2.72767,-1.11888 3.40491,18.95367 3.40491,18.95367c0,0 -34.48863,-12.24408 -40.62862,-29.89053c-3.16896,-9.10765 12.70268,-42.02058 26.47872,-42.02058c5.4933,0 19.91186,7.92523 26.42733,18.20941c2.34209,3.69682 -0.55389,9.25322 1.08308,12.95733c4.19198,9.48558 17.60963,12.47828 17.60963,12.47828z" fill="#3a2f41" stroke="#3a2f41" stroke-width="2.5" stroke-linecap="butt"/><g><g stroke-linecap="butt"><path d="M230.30529,52.68622c1.67708,3.30686 -23.38461,51.1942 -37.65291,58.69768c-34.94012,18.37451 -81.08041,-2.40939 -81.08041,-2.40939c0,0 25.7129,-17.85877 34.69526,-34.52217c9.07082,-16.82749 11.57282,-35.74504 18.79689,-39.40874c8.07208,-4.09377 29.50822,-2.09936 43.62799,1.05823c11.02982,2.4666 18.56154,10.56718 21.61318,16.5844z" fill="#3a2f41" stroke="#3a2f41" stroke-width="2.5"/><path d="M256.58297,55.63849c5.23832,6.17817 -1.81379,8.16528 3.035,24.63931c4.80153,16.31338 22.54976,21.24017 22.54976,21.24017c0,0 -16.23087,18.94522 -35.30973,22.41983c-11.88516,2.16452 -52.32703,17.19523 -75.82569,-8.57917c-2.52566,-3.03643 -13.28988,-16.85284 -10.83257,-24.77695c7.57221,-24.41805 43.66589,-56.06908 45.02776,-57.22377c7.48409,-6.34557 40.9299,9.98448 51.35547,22.2806z" data-paper-data="{&quot;index&quot;:null}" fill="#3a2f41" stroke="#3a2f41" stroke-width="2.5"/><path d="M254.25149,33.60418c6.86719,4.29554 6.48283,19.168 16.10567,33.39142c9.52901,14.0847 17.03139,5.71915 17.03139,5.71915c0,0 -3.65918,15.57435 -14.62931,24.21529c-10.86447,8.5577 -28.95967,10.23472 -45.51292,-0.33816c-13.58525,-8.67718 -29.9454,-66.61461 -28.69123,-68.61964c5.20351,-8.31873 42.02901,-2.91725 55.6964,5.63194z" data-paper-data="{&quot;index&quot;:null}" fill="#3a2f41" stroke="#3a2f41" stroke-width="2.5"/><path d="M221.47387,48.74979c0.65607,3.64933 -37.1097,42.31497 -52.93241,45.40177c-38.74659,7.55894 -76.96816,-25.60742 -76.96816,-25.60742c0,0 29.76034,-9.71653 43.15231,-23.09587c13.52385,-13.51109 21.35657,-30.91174 29.32875,-32.34496c8.90802,-1.60147 28.86688,6.46882 41.48371,13.55075c9.85577,5.53216 14.742,15.45542 15.93579,22.09577z" fill="#3a2f41" stroke="#3a2f41" stroke-width="2.5"/><g data-paper-data="{&quot;index&quot;:null}"><path d="M161.78999,90.24112c-2.13286,-18.11222 8.07658,-40.96112 31.06571,-44.33443c34.94817,-5.12811 50.37055,16.38127 52.5034,34.49348c2.13287,18.11221 -7.48257,34.97265 -37.89825,37.92296c-15.19093,1.47354 -28.13094,-0.67527 -35.42677,-5.65899c-7.50523,-5.12677 -9.16259,-13.23878 -10.24411,-22.42303z" fill="#e1e2db" stroke="none" stroke-width="0"/><path d="M161.78999,90.24112c-2.13286,-18.11222 8.07658,-40.96112 31.06571,-44.33443c34.94817,-5.12811 50.37055,16.38127 52.5034,34.49348c2.13287,18.11221 -27.84728,10.38521 -46.78445,12.46954c-18.94094,2.08475 -34.65181,15.48362 -36.78468,-2.62859z" fill="#b8c1c0" stroke="none" stroke-width="0"/><path d="M207.43819,45.71437c24.77371,1.90137 36.1589,19.72276 37.96929,35.09656c2.13287,18.11221 -7.48259,34.97263 -37.89826,37.92295c-16.19968,1.57139 -28.42974,-0.77996 -35.71887,-6.45426c-6.57754,-5.12034 -8.9403,-13.03639 -9.95199,-21.62775h-0.00001c-1.92194,-16.32117 3.16458,-45.57416 45.46616,-44.96291" fill="none" stroke="#3a2f41" stroke-width="2"/></g><path d="M210.02569,64.25476c0.41027,2.28212 -24.61657,26.71534 -34.88743,28.71328c-29.71777,8.08613 -49.411,-15.78387 -49.411,-15.78387c0,0 19.33423,-6.20635 28.0717,-14.63839c8.82352,-8.51508 13.97343,-19.44192 19.14783,-20.37217c5.78184,-1.03945 22.43692,-8.21059 30.58739,-3.82869c6.36683,3.42298 5.74494,21.75728 6.49149,25.90986z" fill="#3a2f41" stroke="#b8c1c0" stroke-width="1.5"/><path d="M214.09252,32.4141c9.25308,0.10777 22.95323,2.00118 27.51065,5.7079c4.07866,3.31731 3.29997,15.3718 6.90313,27.09267c3.56802,11.60654 16.38523,20.26252 16.38523,20.26252c0,0 -23.13398,3.7292 -46.2799,-7.26123c-8.76525,-4.16203 -14.83005,-14.48464 -18.16594,-19.3655c-8.05082,-11.77941 -3.01039,-18.06817 -1.97595,-19.34003c2.66219,-3.27321 8.39462,-7.18049 15.62277,-7.09632z" data-paper-data="{&quot;index&quot;:null}" fill="#3a2f41" stroke="#3a2f41" stroke-width="2.5"/><path d="M213.23925,36.48885c0.72262,4.01955 -8.72428,9.0817 -21.10023,11.30662c-12.37596,2.22492 -44.56082,22.38035 -41.79376,19.37664c5.80721,-6.30387 15.63899,-22.84406 23.34725,-30.22466c5.90626,-5.6552 10.4607,-2.74281 15.82965,-3.70802c12.37596,-2.22492 22.99447,-0.7701 23.7171,3.24945z" fill="#3a2f41" stroke="none" stroke-width="0"/><path d="M224.8524,30.4176c1.41265,0.83191 8.32784,4.97133 4.88389,18.81725c-1.42701,5.73712 -3.51671,17.52572 -10.2835,24.48007c-17.86864,18.36395 -40.85292,22.9258 -40.85292,22.9258c0,0 8.99977,-12.57819 8.30183,-24.70071c-0.70481,-12.24191 -5.6333,-23.27037 -2.96546,-27.80056c2.98103,-5.06197 15.16383,-11.60857 23.79998,-14.93243c6.74624,-2.59647 13.4806,-0.93042 17.11617,1.21057z" data-paper-data="{&quot;index&quot;:null}" fill="#3a2f41" stroke="#3a2f41" stroke-width="2.5"/></g><g data-paper-data="{&quot;index&quot;:null}" stroke="#3a2f41" stroke-width="1" stroke-linecap="round"><path d="M185.22661,109.85196c19.93842,-7.59135 32.17669,-14.40575 32.17669,-14.40575c0,0 13.72764,15.10563 3.8057,18.76465c-10.26338,3.78494 -25.16203,-0.32976 -32.30928,-2.76446c-2.56159,-0.8726 -3.69464,-1.50295 -3.69464,-1.50295" data-paper-data="{&quot;index&quot;:null}" fill="#e1e2db"/><path d="M187.10357,110.32669c-0.96036,-0.31906 -0.87837,-0.58252 -0.87837,-0.58252c1.97132,-0.42701 3.66577,-1.15564 3.66577,-1.15564l6.34819,4.48254c0,0 -7.329,-2.14419 -9.13559,-2.74439z" data-paper-data="{&quot;index&quot;:null}" fill="#3a2f41"/></g><g fill="#e1e2db" stroke="#3a2f41" stroke-width="2" stroke-linecap="butt"><path d="M257.0175,57.81133c-10.29066,-5.07177 -42.86932,-14.24174 -62.95658,-19.01752c-20.08725,-4.77578 -34.62201,-9.36064 -34.32068,-26.56652c0.52679,-30.07973 28.63648,-38.84029 48.72374,-34.06449c9.22974,2.19439 27.94569,19.23483 42.81257,36.72313c0.63609,0.74825 11.49094,-1.71968 16.55846,2.42332c8.19208,6.69753 24.39546,57.85688 -10.81752,40.50211z"/><path d="M140.10474,25.22934l-5.09364,-22.27797l142.52438,58.26561l-6.21406,2.94021z"/></g><g stroke="#3a2f41"><path d="M268.81663,-23.39944c0,0 4.35625,28.64351 -15.32082,39.76222" fill="none" stroke-width="2" stroke-linecap="round"/><g><path d="M270.84695,-53.58301c4.73904,15.17255 2.98249,26.80872 -1.72099,28.27782c-4.70349,1.46911 -12.39277,-7.81979 -17.1318,-22.99233c-4.73904,-15.17255 -0.02977,-31.95232 -0.02977,-31.95232c0,0 14.14352,11.49429 18.88257,26.66684z" fill="#4427e3" stroke-width="2" stroke-linecap="butt"/><path d="M257.11321,-66.17876c10.96848,19.99255 10.46855,33.51622 10.46855,33.51622" fill="none" stroke-width="1.5" stroke-linecap="round"/><path d="M269.79754,-39.08357l-2.97075,3.03856l-2.88425,-1.51132" fill="none" stroke-width="1.5" stroke-linecap="round"/><path d="M267.4122,-47.68579l-1.78605,2.97006l-3.43369,-1.33971" fill="none" stroke-width="1.5" stroke-linecap="round"/><path d="M264.58056,-56.75168l-2.06077,3.05586l-3.53681,-0.70445" fill="none" stroke-width="1.5" stroke-linecap="round"/><path d="M260.80431,-64.01489l-1.32241,2.52372l-2.81573,-0.32661" fill="none" stroke-width="1.5" stroke-linecap="round"/></g></g><path d="M248.06071,83.53389c-7.49475,0.13469 -14.2916,-4.98708 -15.18116,-11.4398c-0.88956,-6.45271 4.46501,-11.79285 11.95977,-11.92753c7.49475,-0.13468 14.2916,4.98708 15.18116,11.43979c0.88956,6.45271 -4.46501,11.79285 -11.95977,11.92754z" fill="none" stroke-opacity="0.38867" stroke="#ff5a7a" stroke-width="2" stroke-linecap="butt"/><path d="M244.72313,78.9496c0,0 -3.16055,-13.37441 -2.68624,-13.65052c0.57882,-0.33696 5.93162,5.42345 5.93162,5.42345l-4.23836,2.99742l4.2726,-2.90251l4.5105,4.7168" fill="none" stroke-opacity="0.38867" stroke="#ff5a7a" stroke-width="2" stroke-linecap="round"/><path d="M248.9563,67.3829c0,0 0.9701,-0.7801 1.34675,-0.71802c0.16816,0.02771 -0.99199,-1.77629 -0.77853,-1.46428c0.19176,0.28028 1.75866,2.66815 1.89342,2.87646c0.41906,0.6478 -0.85423,-1.26921 -0.85423,-1.26921l1.38583,-0.92155" fill="none" stroke-opacity="0.38867" stroke="#ff5a7a" stroke-width="2" stroke-linecap="round"/><g data-paper-data="{&quot;index&quot;:null}" stroke="#3a2f41" stroke-width="1" stroke-linecap="butt"><path d="M242.17434,91.26987c0,0 -7.75639,0.64719 -17.56876,1.37467c-11.04242,0.81867 -18.72236,1.77777 -18.72236,1.77777c0,0 2.27254,-2.46229 6.79252,-4.52424c2.90234,-1.32403 6.73131,-2.48296 11.48031,-2.71895c11.46279,-0.56966 18.01831,4.09074 18.01831,4.09074z" data-paper-data="{&quot;index&quot;:null}" fill="#3a2f41"/><path d="M242.17434,91.26987c0,0 -7.85516,0.56412 -15.50961,1.1475c-0.65849,-1.67345 -0.05579,-5.13081 2.03467,-5.19557c8.63474,0.60709 13.47494,4.04807 13.47494,4.04807z" data-paper-data="{&quot;index&quot;:null}" fill="#e1e2db"/></g></g></g><g><g data-paper-data="{&quot;index&quot;:null}" stroke="#3a2f41" stroke-width="2"><path d="M132.4717,280.5076l-38.67561,37.42062l4.89122,-50.72919l14.54872,-34.72897c2.11227,0.87892 4.22393,1.76012 6.38303,2.51112c9.37786,3.2619 18.98291,6.18397 28.70895,8.60437c-9.40496,21.92552 -15.8563,36.92204 -15.8563,36.92204z" fill="#e1e2db" stroke-linecap="butt"/><path d="" fill="#e1e2db" stroke-linecap="butt"/><path d="M95.10099,314.55511l0.97432,-16.78342l8.71171,-2.68383l2.13251,8.4934z" fill="#3a2f41" stroke-linecap="round"/><path d="M134.32721,275.25406l-8.86217,3.04305l-8.33419,-10.66919l-13.09482,2.9588l-3.18577,-5.97907" fill="none" stroke-linecap="round"/></g><g data-paper-data="{&quot;index&quot;:null}"><g fill="none" stroke="none" stroke-width="1" stroke-linecap="butt" font-family="sans-serif" font-weight="normal" font-size="12" text-anchor="start"/><g stroke="#3a2f41" stroke-width="2.5"><path d="M134.19417,188.35332c13.46176,-19.6021 23.5206,-44.31099 33.95531,-38.77704c12.95427,6.87017 9.21546,26.74956 2.56835,48.90631c-8.55947,28.53127 -16.04577,60.26574 -19.34645,68.77719c-1.00511,6.12751 -55.49958,-14.03914 -56.55426,-18.67154c0,0 28.05079,-43.74238 39.37705,-60.23492z" fill="#9aac9c" stroke-linecap="butt"/><path d="M152.45164,258.59099l-53.36427,-16.70504" fill="none" stroke-linecap="round"/></g></g></g><g stroke-linecap="butt"><g><path d="M233.84387,366.13148l-19.25032,-75.96912l26.19513,-6.0876l19.25032,75.96912z" fill="#e1e2db" stroke="none" stroke-width="0"/><path d="M219.28023,306.71068l-4.23231,-16.70231l26.19513,-6.08762l4.08118,16.96456z" fill="#8c9ca0" stroke="none" stroke-width="0"/><path d="M234.29823,365.97747l-19.25032,-75.96912l26.19513,-6.0876l19.25032,75.96912z" fill="none" stroke="#3a2f41" stroke-width="2.5"/></g><path d="M227.56055,408.69967l-8.10106,-48.16724l58.98795,-23.38214l-8.26428,25.98557l32.65504,77.11397z" fill="#3a2f41" stroke="#3a2f41" stroke-width="2.5"/></g><g stroke-linecap="butt"><g><path d="M161.30869,365.09644l0.00239,-78.37016l26.88791,-0.53247l-0.00239,78.37016z" fill="#e1e2db" stroke="none" stroke-width="0"/><path d="M161.04316,311.81085l-0.21038,-17.44729l26.88792,-0.53247l-0.00053,17.2302z" fill="#8c9ca0" stroke="none" stroke-width="0"/><path d="M160.83039,365.05873l0.0024,-78.37016l26.88792,-0.53248l-0.00239,78.37016z" fill="none" stroke="#3a2f41" stroke-width="2.5"/></g><path d="M111.11746,419.38235l39.92193,-44.13971l-14.3933,-23.1599l62.92392,8.17828l-1.51357,48.88506z" fill="#3a2f41" stroke="#3a2f41" stroke-width="2.5"/></g><g data-paper-data="{&quot;index&quot;:null}" stroke="#3a2f41" stroke-width="2"><path d="M145.59347,301.77932l11.32709,-71.34444l36.89612,0.36988l4.2165,69.52494z" data-paper-data="{&quot;index&quot;:null}" fill="#e1e2db" stroke-linecap="butt"/><path d="M169.4367,233.85668l-1.81331,19.8913l-14.19721,2.63405" fill="none" stroke-linecap="round"/><path d="M166.14102,236.05865l-1.2666,14.54957l-10.78134,1.86635" fill="none" stroke-linecap="round"/></g><g stroke="#3a2f41" stroke-width="2"><path d="M202.65651,300.7689l-11.79532,-67.96045l36.03179,-9.42278l28.89935,66.25389z" data-paper-data="{&quot;index&quot;:null}" fill="#e1e2db" stroke-linecap="butt"/><path d="M236.669,247.68586l-14.5446,0.93375l-6.64701,-18.84139" fill="none" stroke-linecap="round"/><path d="M235.05908,244.06097l-11.01235,0.83897l-4.80347,-13.79627" fill="none" stroke-linecap="round"/></g><g stroke-linecap="butt"><path d="M180.67634,245.49654l1.23334,-17.41208l25.20913,-2.1125l1.6964,20.24369z" fill="#8c9ca0" stroke="#3a2f41" stroke-width="2"/><path d="M180.86624,243.17281l1.23334,-17.41208l25.20913,-2.11249l1.6964,20.24367z" fill="#e1e2db" stroke="#e1e2db" stroke-width="3.5"/></g><g><g><path d="M241.26832,142.28947c-0.24152,5.79031 -18.92903,9.71296 -41.73973,8.76149c-22.8107,-0.95147 -39.57162,-6.41675 -39.33009,-12.20706c0.24152,-5.79031 17.20216,-11.43984 40.01286,-10.48836c22.8107,0.95148 41.29848,8.14361 41.05697,13.93392z" fill="#677479" stroke="#3a2f41" stroke-width="2.5" stroke-linecap="butt"/><g data-paper-data="{&quot;index&quot;:null}"><path d="M229.01201,171.22397c-1.95091,-0.21106 -3.86748,-0.27579 -5.33203,-0.38054c-16.86021,-1.20597 -35.01661,-1.61469 -51.83837,-2.22114c-2.02247,-0.07292 -4.07539,-0.14148 -6.14837,-0.20714c-1.12821,-11.45587 -3.29699,-20.68031 7.02866,-29.37491c8.00854,-6.74351 18.18875,-6.94472 27.83599,-6.57908c8.79313,0.33328 28.47441,8.15169 29.81159,11.75063c3.24641,8.7375 1.37207,18.4483 -1.35749,27.01221z" fill="#8c9ca0" stroke="#3a2f41" stroke-width="2" stroke-linecap="butt"/><g><path d="M183.73029,134.67203c-0.44877,-0.29602 2.41269,-4.33214 2.85571,-4.64093c0.17757,-0.05294 0.4555,-0.3937 1.08914,0.06606c2.89372,2.09964 9.53805,8.25673 9.53805,8.25673l-10.11417,7.48794z" data-paper-data="{&quot;index&quot;:null}" fill="#8c9ca0" stroke="#3a2f41" stroke-width="4.5" stroke-linecap="round"/><path d="M197.23933,138.39287c0,0 -7.91561,-7.40793 -4.53732,-9.04397c4.0195,-1.94656 19.50989,1.79749 20.47952,1.39379c0.98425,-1.52074 2.76383,4.01544 2.77371,5.28512c-0.96599,2.53677 -10.75305,10.65433 -10.75305,10.65433z" fill="#3a2f41" stroke="#3a2f41" stroke-width="4.5" stroke-linecap="round"/><path d="M185.6232,134.34138c0.01827,-0.43818 1.19403,-3.93035 2.1988,-4.33487c0.59264,-0.51945 11.46173,-5.00259 12.93277,-4.72667c2.32522,0.43615 11.69744,4.8775 12.6457,5.76265c0.5211,0.26548 0.62902,3.27034 0.61312,4.49364" fill="none" stroke="#3a2f41" stroke-width="6.5" stroke-linecap="butt"/><g><path d="M183.73029,134.67203c-0.44877,-0.29602 2.41269,-4.33214 2.85571,-4.64093c0.17757,-0.05294 0.45548,-0.3937 1.08914,0.06606c2.89371,2.09964 9.53805,8.25673 9.53805,8.25673l-10.11417,7.48794z" data-paper-data="{&quot;index&quot;:null}" fill="#8c9ca0" stroke="#12161a" stroke-width="0" stroke-linecap="round"/><path d="M197.23933,138.39284c0,0 14.15763,-6.90717 15.94219,-7.65018c0.98425,-1.52073 2.76384,4.01546 2.77372,5.28513c-0.966,2.53675 -10.75306,10.65433 -10.75306,10.65433z" fill="#8c9ca0" stroke="#12161a" stroke-width="0" stroke-linecap="round"/><path d="M185.6232,134.34132c0.01827,-0.43818 1.19403,-3.93035 2.1988,-4.33487c0.59264,-0.51945 11.46173,-5.00259 12.93277,-4.72667c2.32522,0.43615 11.69744,4.8775 12.6457,5.76265c0.5211,0.26548 0.62902,3.27034 0.61312,4.49364" fill="none" stroke="#8c9ca0" stroke-width="2" stroke-linecap="butt"/></g></g></g><path d="M153.174,233.60202l1.59113,-7.28788l-5.93754,-14.84663l10.65901,-15.13315l3.45361,-41.27491l70.45706,2.93887l1.18186,78.63706z" fill="#9aac9c" stroke="#3a2f41" stroke-width="2.5" stroke-linecap="butt"/><path d="M159.94062,196.09251l56.87774,1.27526l2.07714,30.38" fill="none" stroke="#3a2f41" stroke-width="2" stroke-linecap="round"/><path d="M187.83784,159.03724c0.05888,-1.41156 -2.4941,-2.36147 0.91603,-3.33648c3.76575,-1.07668 13.98655,-4.81725 18.59926,-7.25639c9.66075,-5.1085 15.74827,-11.47635 24.91168,-11.09412c17.09282,0.71297 12.56429,22.2875 2.0629,23.62617c-31.19025,3.97601 -53.22334,2.17853 -57.07316,0.7151c-3.89754,-1.48157 10.5833,-2.65428 10.5833,-2.65428z" fill="#9aac9c" stroke="#3a2f41" stroke-width="2.5" stroke-linecap="butt"/><path d="M166.96689,134.49641c2.9357,0.12244 6.99105,7.48505 12.86494,13.63082c4.4847,4.69231 10.93991,7.95801 10.81732,10.89711c-0.28316,6.78863 -20.40658,3.13252 -30.71047,-1.64313c-6.0085,-2.78482 -3.86156,-23.33903 7.02821,-22.8848z" data-paper-data="{&quot;index&quot;:null}" fill="#9aac9c" stroke="#3a2f41" stroke-width="2.5" stroke-linecap="butt"/><path d="M183.80287,227.88159l-3.6224,-16.76441l7.26311,-14.12212l2.11552,-34.35089" fill="none" stroke="#3a2f41" stroke-width="2" stroke-linecap="round"/><path d="M206.78551,159.36458c0,1.48235 -1.27244,1.69224 -1.63279,1.72196c-6.22267,1.97049 -14.85089,2.43422 -21.70499,0.58345c-0.50195,-0.06101 -1.02348,-0.12319 -1.56874,-0.18298l-0.01716,0.1715l-1.89974,-0.18998c-0.88214,-0.07735 -1.57405,-0.81797 -1.57405,-1.72019c0,-0.95373 0.77314,-1.72687 1.72688,-1.72687h1.72687v0.04674l0.0955,-0.04411c0.40437,0.04585 0.80229,0.10684 1.19616,0.17604c0.67138,-0.21527 1.52976,-0.14249 2.42794,0.01963c0.33014,-1.15768 1.65291,-1.15769 1.65291,-1.15769c1.02988,0.00556 2.06501,-0.09573 3.07591,-0.29341l1.56096,-0.69375c0.22318,-0.10523 0.47253,-0.16407 0.73564,-0.16407c0.95373,0 1.72688,0.77314 1.72688,1.72687c0,0.20183 -0.03463,0.39558 -0.09826,0.57563h0.29014c0.67021,0 1.25123,0.3818 1.53747,0.93975c2.92451,-0.14237 5.84911,-0.59801 8.27769,-1.42676l0.73797,-0.08863c0,0 1.72687,0 1.72687,1.72688z" fill="#9aac9c" stroke="none" stroke-width="0.5" stroke-linecap="butt"/></g><path d="M233.86177,230.09634l-79.09207,-2.90482" fill="none" stroke="#3a2f41" stroke-width="2" stroke-linecap="round"/></g><g stroke="#3a2f41"><g fill="#e1e2db" stroke-width="2" stroke-linecap="butt"><path d="M308.49636,203.881l14.66594,-19.42368l20.0085,7.92968l35.5974,-11.91796l-9.80088,17.86486l19.45938,62.71023l-25.43838,-16.55737l-16.17031,23.73583l-3.91329,-27.21019l-18.83358,13.82355l4.44134,-36.21265z"/><path d="M331.5922,175.39657l19.98676,12.67773l-25.35546,39.97352l-19.98676,-12.67774z"/></g><g stroke-width="2.5"><path d="M344.60283,176.70307c1.94829,4.33308 -29.4052,53.25445 -33.89827,48.96856c-7.76141,-4.8062 -32.85176,-25.62914 -56.86944,-43.24873c-18.65159,-13.68297 -33.60993,-27.29976 -27.40721,-40.58655c4.99631,-10.70256 27.90854,2.96268 50.46122,10.50178c18.97507,6.34314 67.71371,24.36494 67.71371,24.36494z" fill="#9aac9c" stroke-linecap="butt"/><path d="M304.62082,219.40239l32.53632,-45.47736" fill="none" stroke-linecap="round"/></g></g></g></g></svg>