<svg version="1.1" xmlns="http://www.w3.org/2000/svg" xmlns:xlink="http://www.w3.org/1999/xlink" width="217.74138" height="490.4802" viewBox="0,0,217.74138,490.4802"><g transform="translate(-143.4402,74.62712)"><g data-paper-data="{&quot;isPaintingLayer&quot;:true}" fill-rule="nonzero" stroke-linejoin="miter" stroke-miterlimit="10" stroke-dasharray="" stroke-dashoffset="0" style="mix-blend-mode: normal"><g><path d="M308.43851,225.01202c-0.47693,6.8367 -23.55938,28.83889 -40.04772,45.52764c-3.41182,3.45329 -21.2435,16.70251 -21.2435,16.70251l11.4008,34.74653l-12.26014,44.19405l-15.03157,-42.97324l13.47664,-35.96996c0,0 -15.01063,-10.82509 -18.71797,-14.53275c-17.17733,-17.17885 -42.29434,-37.35912 -44.58669,-44.19477c-2.32884,-6.94445 30.54061,-174 30.54061,-174l82.41117,0.5c0,0 16.26049,138.4331 14.05838,170z" fill="#a38b87" stroke="none" stroke-width="0" stroke-linecap="round"/><path d="M211.96896,54.51202l82.41117,0.5c0,0 4.61489,39.28873 8.59467,80.77777c-24.00894,6.35211 -48.0053,12.75045 -71.87515,19.58864c-13.59567,3.89487 -27.0634,8.32983 -40.58672,12.54676c9.03039,-50.26116 21.45603,-113.41317 21.45603,-113.41317z" fill="#574d4a" stroke="none" stroke-width="0" stroke-linecap="butt"/><path d="M220.65753,304.01199v-32.25l25.45051,15.75l25.29045,-13.9221l-1.89323,32.00524l-23.41843,-17.72815z" fill="#020202" stroke="#020202" stroke-width="2" stroke-linecap="butt"/></g><g><g stroke="none" stroke-width="0" stroke-linecap="butt"><path d="M202.59234,359.4044l7.75928,-63.13206c2.42356,-0.08337 4.81719,-0.30138 7.24889,-0.30144c3.50644,0 6.92888,0.66637 10.44284,0.66659c3.51935,0.00022 6.97777,0.21575 10.46823,0.32975c0.36446,0.00121 0.72892,0.0021 1.09339,0.00274l-0.91057,59.78698z" fill="#d7c3be"/><path d="M214.56663,261.97766l25.53644,2.28735l-0.49049,32.20497c-0.36401,-0.00063 -0.72801,-0.00149 -1.09201,-0.00265c-3.49311,-0.11447 -6.95522,-0.32961 -10.47719,-0.32983c-3.51374,-0.00022 -6.93612,-0.66659 -10.44288,-0.66659c-2.41145,0.00005 -4.78472,0.21438 -7.18716,0.29928z" fill="#cfaa9b"/><path d="M212.22133,280.43878l2.51769,-19.21107l25.63779,1.57568l-0.35718,19.2488z" fill="#996e68"/></g><path d="M211.05987,296.012h27.5" fill="none" stroke="#3a2f41" stroke-width="2" stroke-linecap="round"/><g><path d="M168.36877,413.71751l31.68854,-35.89601l4.90687,-33.01281l34.49106,-1.52903l-0.66321,53.58322z" fill="#020202" stroke="#020202" stroke-width="2.5" stroke-linecap="butt"/><path d="M205.77105,326.70971l6.03967,8.40044l20.41225,0.41221l7.75757,-6.93124l8.43372,11.26742l-4.12367,7.25957l3.82329,8.11559l-14.10613,8.08716l-26.29812,-0.34683l-12.16199,-7.66772l4.19698,-8.5023l-4.19878,-8.7174z" fill="#020202" stroke="#020202" stroke-width="2.5" stroke-linecap="butt"/><path d="M238.78834,361.67864l-8,2.66667l-20,-0.33333l-7.33333,-3.33333" fill="none" stroke="#d7c3be" stroke-width="1.5" stroke-linecap="round"/></g></g><g data-paper-data="{&quot;index&quot;:null}"><g stroke="none" stroke-width="0" stroke-linecap="butt"><path d="M257.75525,355.42363l-0.92071,-60.45272c2.48628,0 4.97255,0 7.45883,0c3.5,0 7,0 10.5,0c3.21107,0 7.36002,-0.68531 10.4057,0.31251c0.31976,0.00926 0.63609,0.03286 0.94963,0.06792l7.70861,62.71973z" fill="#d7c3be"/><path d="M256.34658,262.93167l25.53644,-2.28735l4.20231,34.19137c-0.26446,-0.02449 -0.53108,-0.04004 -0.80029,-0.04484c-3.03842,-1.03304 -7.27859,-0.31995 -10.49166,-0.31995c-3.5,0 -7,0 -10.5,0c-2.48882,0 -4.97763,0 -7.46645,0z" fill="#cfaa9b"/><path d="M256.7634,280.71886l-0.35718,-17.91547l25.97113,-2.24235l1.51769,18.5444z" fill="#996e68"/></g><path d="M257.88982,294.67866h27.5" fill="none" stroke="#3a2f41" stroke-width="2" stroke-linecap="round"/><g><path d="M257.65765,395.52954l-0.66321,-53.58322l34.49106,1.52903l4.90687,33.01281l31.68854,35.89601z" fill="#020202" stroke="#020202" stroke-width="2.5" stroke-linecap="butt"/><path d="M300.90386,336.75328l-4.19878,8.7174l4.19698,8.5023l-12.16199,7.66772l-26.29812,0.34683l-14.10613,-8.08716l3.82329,-8.11559l-4.12367,-7.25957l8.43372,-11.26742l7.75757,6.93124l20.41225,-0.41221l6.03967,-8.40044z" fill="#020202" stroke="#020202" stroke-width="2.5" stroke-linecap="butt"/><path d="M292.99467,359.34531l-7.33333,3.33333l-20,0.33333l-8,-2.66667" fill="none" stroke="#d7c3be" stroke-width="1.5" stroke-linecap="round"/></g></g><g stroke-linecap="butt"><g><path d="M246.63004,265.47434c0,0 -7.82602,3.81782 -20.91152,3.30158c-11.94798,-0.47137 -17.48788,-6.38467 -17.48788,-6.38467l9.99411,-67.81605l31.70054,1.88762l-3.29524,69.01152z" data-paper-data="{&quot;index&quot;:null}" fill="#0b232d" stroke="#0b232d" stroke-width="2"/><path d="M213.09711,222.55085l0.66667,-4h4.66666l7,-24.33334l3.16604,3.28863l-6.83271,24.71137z" fill="#435c62" stroke="none" stroke-width="0"/></g><path d="M207.65732,262.99052c-1.39303,-1.14759 -0.37701,-9.52624 0.52973,-9.03988c21.34592,11.4496 42.2382,3.47071 42.2382,3.47071l0.18813,10.00379c0,0 -24.93034,10.41506 -42.95606,-4.43462z" data-paper-data="{&quot;index&quot;:null}" fill="#435c62" stroke="none" stroke-width="0"/></g><g><g stroke-linecap="butt"><g><path d="M248.71661,263.50611l-2.98299,-63.82619l31.94492,-4.67314l12.30112,65.01596c0,0 -4.96789,7.99617 -20.86236,9.65217c-15.89447,1.656 -20.40069,-6.16879 -20.40069,-6.16879z" data-paper-data="{&quot;index&quot;:null}" fill="#0b232d" stroke="#0b232d" stroke-width="2"/><path d="M269.59649,220.88418l-6.16605,-24.0447l3.83271,-3.62197l6.33333,24h9.33333l0.66667,4z" data-paper-data="{&quot;index&quot;:null}" fill="#435c62" stroke="none" stroke-width="0"/></g><path d="M248.09711,268.21751l-0.33333,-10c0,0 21.27961,6.87954 42,-5.66667c0.88016,-0.53294 2.33135,7.78139 1,9c-17.22755,15.76867 -42.66667,6.66667 -42.66667,6.66667z" fill="#435c62" stroke="none" stroke-width="0"/></g><path d="M247.43044,268.55085l-1.33333,-47" fill="none" stroke="#071921" stroke-width="2" stroke-linecap="round"/></g><g><g data-paper-data="{&quot;index&quot;:null}" stroke-linecap="butt"><path d="M237.47485,219.18787l1.8476,-19.58817h17.42024v23.07052z" fill="#8c9ca0" stroke="#071921" stroke-width="2"/><path d="M237.73877,216.57612l1.8476,-19.58818h17.42024v23.07052z" fill="#0b232d" stroke="#0b232d" stroke-width="3.5"/></g><path d="M246.42566,220.81529l-1.4,-8.7992l-0.9,-14.36869" data-paper-data="{&quot;index&quot;:null}" fill="none" stroke="#071921" stroke-width="2" stroke-linecap="round"/><path d="M243.92567,220.35586c-5.5018,-9.29742 -4.9,-24.09649 -4.9,-24.09649" data-paper-data="{&quot;index&quot;:null}" fill="none" stroke="#071921" stroke-width="2" stroke-linecap="round"/></g><g data-paper-data="{&quot;index&quot;:null}"><g stroke="none" stroke-linecap="butt"><g data-paper-data="{&quot;index&quot;:null}"><g fill="#cfaa9b" stroke-width="0"><path d="M208.75104,136.94032l17.35179,11.5169l-23.73549,78.21921l21.53504,24.19718l-17.49912,-1.71323l-43.14822,36.71873l4.50351,-25.80043l-24.31835,-4.77419l20.25946,-12.33832l-17.35812,-10.25081l30.23676,-8.76503z"/></g><g fill="none" stroke-width="1" font-family="sans-serif" font-weight="normal" font-size="12" text-anchor="start"/></g><g data-paper-data="{&quot;index&quot;:null}"><g fill="#996e68" stroke-width="0"><path d="M216.52189,180.03079c-2.29301,0.91441 -18.33377,-0.61924 -20.30183,-9.20086l12.53099,-33.8896l17.35179,11.5169z"/></g><g fill="none" stroke-width="1" font-family="sans-serif" font-weight="normal" font-size="12" text-anchor="start"/></g><g data-paper-data="{&quot;index&quot;:null}" fill="none" stroke-width="1" font-family="sans-serif" font-weight="normal" font-size="12" text-anchor="start"><g/><g/></g></g><g data-paper-data="{&quot;index&quot;:null}"><path d="M210.55396,163.41921c-8.50123,-2.36774 -16.33895,-7.99539 -16.52263,-9.74439c0,0 11.74341,-25.56989 19.71236,-38.93352c2.62309,-4.04699 10.15385,-5.68308 14.88842,-3.00918c5.36424,3.02949 7.7995,10.84325 7.52925,13.2535c-3.09203,24.33654 -6.14679,30.81739 -8.70246,37.48163c-0.48094,2.24506 -9.04229,3.14185 -16.90494,0.95196z" fill="#020202" stroke="#020202" stroke-width="2.5" stroke-linecap="butt"/><path d="M228.84724,155.47579c0,0 -4.19079,0.21966 -8.5969,0.13884c-2.92394,-0.05363 -5.9427,-0.23959 -7.8945,-0.70986c-5.55577,-1.33863 -15.10817,-7.0427 -15.10817,-7.0427" fill="none" stroke="#d7c3be" stroke-width="2" stroke-linecap="round"/></g></g><g><g><g><g fill="none" stroke="none" stroke-width="1" stroke-linecap="butt" font-family="sans-serif" font-weight="normal" font-size="12" text-anchor="start"><g><g><g/></g></g><g><g><g/></g></g></g><g fill="none" stroke="none" stroke-width="1" stroke-linecap="butt" font-family="sans-serif" font-weight="normal" font-size="12" text-anchor="start"><g><g><g/></g></g><g><g><g/></g></g></g><path d="M221.2838,111.81423c0,0 5.55458,-2.244 12.32696,-4.48865c6.74031,-2.23402 14.68692,-4.46867 19.56436,-4.49232c8.91239,-0.0432 29.15918,8.98008 30.66428,13.54902c-2.4742,22.13935 -6.25808,74.95354 -6.25808,74.95354l4.44331,4.92011l-2.94648,4.47425l-62.27916,-0.00402c-0.03641,-0.04853 -3.48021,-6.6955 -3.48021,-6.6955l4.41623,-4.73882c0,0 3.00543,-17.83634 3.2204,-21.04289c1.51228,-22.55751 0.62522,-55.33423 0.62522,-55.33423" fill="#020202" stroke="#020202" stroke-width="2" stroke-linecap="round"/><g fill="none" stroke="none" stroke-width="1" stroke-linecap="butt" font-family="sans-serif" font-weight="normal" font-size="12" text-anchor="start"><g/></g></g><g data-paper-data="{&quot;index&quot;:null}" stroke="none" stroke-width="0" stroke-linecap="butt"><path d="M247.89105,115.83554l-10.56285,7.99778l-6.09776,-16.5657l18.34645,-13.07653l18.20551,11.82563l-7.42181,18.02792z" fill="#d7c3be"/><path d="M238.72991,106.74361l10.84997,-8.02614l11.64616,7.47013c0,0 -6.18123,2.9581 -8.59165,4.11163c-1.75143,0.83817 -4.53606,2.17079 -4.53606,2.17079z" fill="#1a1a1a"/></g></g><path d="M255.08001,153.7825l-9.5,18.25l-8.75,-21l9.25,-20.75z" fill="none" stroke="#d7c3be" stroke-width="1.5" stroke-linecap="round"/><path d="M237.83001,150.7825l16,2.75" fill="none" stroke="#d7c3be" stroke-width="1.5" stroke-linecap="round"/><path d="M219.58001,188.2825l55.75,1.25" fill="none" stroke="#d7c3be" stroke-width="1.5" stroke-linecap="round"/><path d="M219.58001,185.0325l55.75,1.5" fill="none" stroke="#d7c3be" stroke-width="1.5" stroke-linecap="round"/></g><path d="" data-paper-data="{&quot;index&quot;:null}" fill="#7c7984" stroke="none" stroke-width="0.5" stroke-linecap="butt"/><path d="" data-paper-data="{&quot;index&quot;:null}" fill="#626171" stroke="none" stroke-width="0.5" stroke-linecap="butt"/><path d="" data-paper-data="{&quot;index&quot;:null}" fill="#e1e2db" stroke="#3a2f41" stroke-width="1" stroke-linecap="butt"/><g data-paper-data="{&quot;index&quot;:null}" stroke-linecap="butt"><path d="M242.29957,108.83148l0.14074,-16.15736l12.75,-0.5l-0.42857,17.35714l-6.96429,3.5z" fill="#cfaa9b" stroke="none" stroke-width="0"/><path d="M242.34437,103.84134v-12.08333l12.33333,-0.25v7.16667z" fill="#020202" stroke="#020202" stroke-width="0.5"/></g><g data-paper-data="{&quot;index&quot;:null}"><g stroke="none" stroke-linecap="butt"><g data-paper-data="{&quot;index&quot;:null}"><g fill="#cfaa9b" stroke-width="0"><path d="M328.04348,224.78366l30.23676,8.76503l-17.35812,10.25081l20.25946,12.33832l-24.31835,4.77419l4.50351,25.80043l-43.14822,-36.71873l-17.49912,1.71323l21.53504,-24.19718l-23.73549,-78.21921l17.35179,-11.5169z"/></g><g fill="none" stroke-width="1" font-family="sans-serif" font-weight="normal" font-size="12" text-anchor="start"/></g><g data-paper-data="{&quot;index&quot;:null}"><g fill="#996e68" stroke-width="0"><path d="M278.51894,149.29056l17.35179,-11.5169l12.53099,33.8896c-1.96806,8.58162 -18.00882,10.11527 -20.30183,9.20086z"/></g><g fill="none" stroke-width="1" font-family="sans-serif" font-weight="normal" font-size="12" text-anchor="start"/></g><g data-paper-data="{&quot;index&quot;:null}" fill="none" stroke-width="1" font-family="sans-serif" font-weight="normal" font-size="12" text-anchor="start"><g/><g/></g></g><g data-paper-data="{&quot;index&quot;:null}"><path d="M277.16288,163.30058c-2.55567,-6.66424 -5.61043,-13.14509 -8.70246,-37.48163c-0.27025,-2.41025 2.16501,-10.22401 7.52925,-13.2535c4.73457,-2.6739 12.26533,-1.03781 14.88842,3.00918c7.96895,13.36363 19.71236,38.93352 19.71236,38.93352c-0.18368,1.749 -8.0214,7.37665 -16.52263,9.74439c-7.86265,2.18989 -16.424,1.2931 -16.90494,-0.95196z" fill="#020202" stroke="#020202" stroke-width="2.5" stroke-linecap="butt"/><path d="M307.37411,148.6954c0,0 -9.5524,5.70407 -15.10817,7.0427c-1.9518,0.47027 -4.97056,0.65623 -7.8945,0.70986c-4.40611,0.08082 -8.5969,-0.13884 -8.5969,-0.13884" fill="none" stroke="#d7c3be" stroke-width="2" stroke-linecap="round"/></g></g><g><g><g><path d="M279.17573,11.10106c0,12.4409 -54.00639,6.85266 -54.01452,27.85502c-0.00949,24.51023 -2.81852,49.04578 -6.45329,68.13514c-4.48312,23.54484 -9.96987,39.05706 -9.96987,39.05706l-13.07124,-20.74345l-23.16891,6.95477c0,0 16.93766,-24.11917 20.27337,-44.89262c-11.54796,-1.74045 -22.40999,0.68461 -22.40999,0.68461c0,0 0.4416,-13.49396 9.24149,-19.29585c-28.2295,-3.46436 -32.19673,-26.93682 -32.19673,-26.93682c0,0 34.4711,-5.53018 33.08911,-5.56835c-16.01535,-5.23786 -14.67724,-20.40519 -14.67724,-20.40519c0,0 12.63039,-1.22063 30.67076,-9.09997c19.8605,-8.6743 33.65342,-18.27062 44.6589,-18.27062c8.27878,0 24.4173,2.53593 30.66106,5.19662c9.596,4.08919 7.3671,9.7927 7.3671,17.32961z" fill="#d7c3be" stroke="none" stroke-width="0" stroke-linecap="butt"/><g data-paper-data="{&quot;index&quot;:null}" fill="#cfaa9b" stroke="#cfaa9b" stroke-width="2" stroke-linecap="butt"><path d="M253.01529,23.05506c25.6851,3.31558 34.40076,15.22822 35.29937,30.20314c0.66869,11.14323 -3.49191,29.75548 -3.49191,29.75548c0,0 -25.01434,10.27494 -36.75607,10.65798c-5.30972,0.55384 -31.23232,-5.9491 -38.46112,-11.87088c-3.89826,-3.31766 0.52175,-21.50807 0.52175,-21.50807c-0.95398,-15.89771 -1.27666,-40.38313 42.75035,-37.2702"/></g><path d="M234.47245,19.83412c5.92767,5.99073 0.71176,20.76294 -11.65007,32.99465c-12.36183,12.23171 -27.1884,17.29101 -33.11607,11.30028c-5.92767,-5.99073 -0.71176,-20.76294 11.65007,-32.99465c12.36183,-12.23171 27.1884,-17.29101 33.11607,-11.30028z" fill="#e1e2db" stroke="#d7c3be" stroke-width="2" stroke-linecap="butt"/><path d="M257.04724,-8.51857c11.00549,0 24.79841,4.75197 44.6589,13.42627c18.04038,7.87934 25.84844,4.95342 25.84844,4.95342c0,0 0.32812,4.98424 -2.14366,9.27693c-3.33322,5.78874 -5.71126,7.78583 -5.71126,7.78583l28.86018,13.16366c0,0 -7.72274,13.62164 -28.78557,18.91933c15.23558,11.47883 8.45685,28.52271 8.45685,28.52271l-20.61838,-1.03295c0,0 -34.57437,-32.27779 -34.57916,-44.63393c-0.00813,-21.00237 -54.01452,-15.41413 -54.01452,-27.85502c0,-12.4409 17.02579,-22.52623 38.02816,-22.52623z" data-paper-data="{&quot;index&quot;:null}" fill="#d7c3be" stroke="none" stroke-width="0" stroke-linecap="butt"/><path d="M303.4026,51.90594c8.57456,34.05775 14.92719,93.73034 14.92719,93.73034l-19.94923,-12.18983l-17.42366,11.45745c0,0 3.06264,-45.89702 1.90671,-86.40416" fill="#d7c3be" stroke="none" stroke-width="0" stroke-linecap="round"/><path d="M302.84353,56.6221c-3.95493,7.52556 -21.69721,5.98702 -39.6285,-3.43645c-17.93129,-9.42347 -29.26138,-23.16337 -25.30645,-30.68894c3.95493,-7.52556 21.69721,-5.98702 39.6285,3.43645c17.93129,9.42347 29.26138,23.16337 25.30645,30.68894z" fill="#e1e2db" stroke="#d7c3be" stroke-width="2" stroke-linecap="butt"/><path d="M222.66955,1.03601c2.46183,-1.64845 6.85064,-2.48898 10.9293,0.77334c5.22127,4.17626 12.44834,11.85514 13.95888,17.06348c2.34022,8.06909 1.51976,18.82912 3.91429,27.38799c2.82183,10.08618 6.68306,23.04135 6.68306,23.04135c0,0 -18.67916,0.70102 -35.29286,-25.99274c-0.33054,-0.65442 -0.6355,-1.34058 -0.91715,-2.0517c-2.92807,-7.39306 -3.33634,-17.4848 -3.77068,-22.66823c-1.14907,-13.71294 3.53856,-16.91296 4.49513,-17.55349z" data-paper-data="{&quot;index&quot;:null}" fill="#d7c3be" stroke="#d7c3be" stroke-width="2" stroke-linecap="butt"/><path d="M271.16186,-4.23606c1.52805,2.32204 23.97938,25.04792 31.03347,43.7492c1.87163,4.96192 8.47256,45.46162 7.49793,48.10608c-0.50776,1.3777 -24.50094,-17.8991 -24.50094,-17.8991l-0.46551,-9.69389c0,0 -4.65726,-0.78527 -5.9909,-1.29338c-39.11139,-14.90137 -36.57021,-26.65043 -37.42723,-25.8021c-7.73748,7.65906 -14.80696,15.84414 -22.52416,22.16102c-5.06482,4.14579 -10.37141,7.48687 -14.6381,9.34642c-13.12165,5.7188 -17.20388,2.55941 -21.57934,-4.08957c-4.37546,-6.64898 3.70832,-25.44201 15.66532,-33.31049c5.96431,-3.92489 13.86016,-21.91484 23.97594,-28.18187c4.10492,-2.54312 12.7636,-7.71326 21.48387,-8.42235c12.87136,-1.04662 26.16241,3.3435 27.46966,5.33003z" fill="#d7c3be" stroke="none" stroke-width="0" stroke-linecap="butt"/><path d="M221.82741,-23.53605c-4.9233,-11.49158 -2.58365,-27.45132 -2.58365,-27.45132c0,0 7.19837,11.6436 12.67605,23.81806c4.41331,9.80884 2.90661,16.22858 2.90661,16.22858c0,0 -8.21111,-2.97579 -12.99901,-12.59531z" fill="#a28b87" stroke="#a28b87" stroke-width="2" stroke-linecap="butt"/><path d="M236.1774,-11.18454c0,0 -4.59792,-8.11083 -2.51181,-23.1748c2.58923,-18.69697 7.72422,-37.35815 7.72422,-37.35815c0,0 9.52287,20.72319 7.41418,38.27312c-2.66965,14.95612 -12.6266,22.25983 -12.6266,22.25983z" data-paper-data="{&quot;index&quot;:null}" fill="#d7c3be" stroke="#d7c3be" stroke-width="2" stroke-linecap="butt"/><path d="M257.89126,-4.20979l14.28402,-26.22176l14.57975,35.37933l12.08009,10.06759c0,0 -22.52742,-12.3387 -52.04263,-12.13419c-32.0816,0.22229 -50.39931,11.87982 -50.39931,11.87982c0,0 3.17217,-4.26182 10.84068,-9.51761c2.00613,-1.37495 10.00001,-33.79433 10.00001,-33.79433l15.41953,24.28566c0,0 6.92864,-0.97969 13.13815,-0.97221c5.2031,0.00626 12.0997,1.0277 12.0997,1.0277z" fill="#1a1a1a" stroke="#1a1a1a" stroke-width="2" stroke-linecap="butt"/></g><g data-paper-data="{&quot;index&quot;:null}" fill="none" stroke="none" stroke-width="1" stroke-linecap="butt" font-family="sans-serif" font-weight="normal" font-size="12" text-anchor="start"/><path d="M257.41431,89.97968c-18.65802,5.36128 -37.45,-6.45 -37.45,-6.45l54,-7.25c0,0 -1.49673,9.37452 -16.55,13.7z" fill="#f1f1f1" stroke="none" stroke-width="0" stroke-linecap="butt"/><path d="M226.76431,83.07967l2.25,4.2c0,0 -2.59166,-1.00234 -3.89329,-1.58946c-1.30943,-0.59064 -3.94004,-1.94388 -3.94004,-1.94388z" fill="#1a1a1a" stroke="#1a1a1a" stroke-width="1" stroke-linecap="round"/><g fill="none" stroke-opacity="0.33191" stroke="#890000" stroke-width="1"><path d="M273.59218,52.77199c-9.44079,-1.86204 -18.04127,-9.35269 -19.20969,-16.73084c-1.16842,-7.37815 5.53765,-11.84983 14.97844,-9.98779c9.44079,1.86204 18.04127,9.35269 19.20969,16.73084c1.16842,7.37815 -5.53765,11.84983 -14.97844,9.98779z" stroke-linecap="butt"/><path d="M269.35362,46.80424c0,0 -4.08062,-15.64587 -3.48515,-15.82409c0.72669,-0.21751 7.51271,7.59228 7.51271,7.59228l-5.31723,2.17915l5.36106,-2.06496l5.71718,6.4291" stroke-linecap="round"/><path d="M274.60086,35.1424c0,0 1.21634,-0.60281 1.6913,-0.43307c0.21205,0.07578 -1.26284,-2.23152 -0.99162,-1.82903c0.24366,0.36157 2.23529,3.42401 2.40659,3.69064c0.53273,0.82919 -1.08554,-1.6335 -1.08554,-1.6335l1.73902,-0.64777" stroke-linecap="round"/></g></g><path d="M200.76279,32.98808c-0.86583,3.90933 -2.30669,10.25261 -10.61964,8.41149c-8.31295,-1.84112 -21.68337,-12.50279 -20.81754,-16.41212c0.86583,-3.90933 9.64002,-4.25261 17.95297,-2.41149c8.31295,1.84112 14.35003,6.50279 13.48421,10.41212z" fill="#d7c3be" stroke="none" stroke-width="0" stroke-linecap="butt"/></g><g data-paper-data="{&quot;index&quot;:null}"><path d="M255.74792,66.04167c1.44128,-0.90506 6.45491,-2.1121 11.24149,-2.13081c4.48958,-0.01756 8.76843,1.10875 10.03361,1.61922c5.2872,2.13328 6.0963,4.26038 6.0963,4.26038l-32.39097,0.68033c0,0 2.70059,-2.97283 5.01958,-4.4291z" fill="#f1f1f1" stroke="none" stroke-width="0" stroke-linecap="butt"/><path d="M282.96273,69.88251l-32.37675,0.61283" fill="none" stroke="#1a1a1a" stroke-width="0.5" stroke-linecap="round"/><path d="M255.54956,66.22161c0,0 4.15115,-3.05172 11.62718,-2.74479c8.04037,0.33009 11.33176,2.52897 11.33176,2.52897c0,0 -4.90472,-1.70221 -11.22398,-1.83001c-6.70081,-0.13552 -11.73498,2.04584 -11.73498,2.04584z" fill="#1a1a1a" stroke="#000000" stroke-width="0" stroke-linecap="round"/></g><path d="M276.56572,66.28357l1.75193,3.03455" fill="none" stroke="#1a1a1a" stroke-width="1.5" stroke-linecap="round"/></g></g></svg>