<svg version="1.1" xmlns="http://www.w3.org/2000/svg" xmlns:xlink="http://www.w3.org/1999/xlink" width="148.34294" height="282.54382" viewBox="0,0,148.34294,282.54382"><defs><linearGradient x1="1077.66312" y1="216.06021" x2="1077.66312" y2="354.07601" gradientUnits="userSpaceOnUse" id="color-1"><stop offset="0" stop-color="#ffffff" stop-opacity="0.26046"/><stop offset="1" stop-color="#ffffff" stop-opacity="0"/></linearGradient><linearGradient x1="1077.66312" y1="216.06021" x2="1077.66312" y2="354.07601" gradientUnits="userSpaceOnUse" id="color-2"><stop offset="0" stop-color="#ffffff" stop-opacity="0.26046"/><stop offset="1" stop-color="#ffffff" stop-opacity="0"/></linearGradient><linearGradient x1="1077.66312" y1="216.06021" x2="1077.66312" y2="354.07601" gradientUnits="userSpaceOnUse" id="color-3"><stop offset="0" stop-color="#ffffff" stop-opacity="0.26046"/><stop offset="1" stop-color="#ffffff" stop-opacity="0"/></linearGradient><linearGradient x1="1036.02754" y1="220.12049" x2="1036.02754" y2="358.13627" gradientUnits="userSpaceOnUse" id="color-4"><stop offset="0" stop-color="#ffffff" stop-opacity="0.26046"/><stop offset="1" stop-color="#ffffff" stop-opacity="0"/></linearGradient><linearGradient x1="1036.02754" y1="220.12049" x2="1036.02754" y2="358.13627" gradientUnits="userSpaceOnUse" id="color-5"><stop offset="0" stop-color="#ffffff" stop-opacity="0.26046"/><stop offset="1" stop-color="#ffffff" stop-opacity="0"/></linearGradient><linearGradient x1="1036.02754" y1="220.12049" x2="1036.02754" y2="358.13627" gradientUnits="userSpaceOnUse" id="color-6"><stop offset="0" stop-color="#ffffff" stop-opacity="0.26046"/><stop offset="1" stop-color="#ffffff" stop-opacity="0"/></linearGradient><linearGradient x1="242.95238" y1="105.04022" x2="243.00899" y2="185.22867" gradientUnits="userSpaceOnUse" id="color-7"><stop offset="0" stop-color="#cedee0" stop-opacity="0"/><stop offset="1" stop-color="#cedee0" stop-opacity="0.19676"/></linearGradient></defs><g transform="translate(-175.01827,-2.71251)"><g data-paper-data="{&quot;isPaintingLayer&quot;:true}" fill-rule="nonzero" stroke-linejoin="miter" stroke-miterlimit="10" stroke-dasharray="" stroke-dashoffset="0" style="mix-blend-mode: normal"><path d="" fill="#3a2f41" stroke="none" stroke-width="0" stroke-linecap="butt"/><path d="" fill="#3a2f41" stroke="url(#color-1)" stroke-width="0.5" stroke-linecap="butt"/><path d="" fill="#3a2f41" stroke="url(#color-2)" stroke-width="0.5" stroke-linecap="butt"/><path d="" fill="#3a2f41" stroke="url(#color-3)" stroke-width="0.5" stroke-linecap="butt"/><path d="" data-paper-data="{&quot;index&quot;:null}" fill="#3a2f41" stroke="url(#color-4)" stroke-width="0.5" stroke-linecap="butt"/><path d="" data-paper-data="{&quot;index&quot;:null}" fill="#3a2f41" stroke="url(#color-5)" stroke-width="0.5" stroke-linecap="butt"/><path d="" data-paper-data="{&quot;index&quot;:null}" fill="#3a2f41" stroke="url(#color-6)" stroke-width="0.5" stroke-linecap="butt"/><g data-paper-data="{&quot;index&quot;:null}" stroke="#3a2f41" stroke-linecap="butt"><path d="M183.75541,115.06745l3.3819,-12.64525l6.56747,5.4234l-4.89325,-9.06217l14.23001,-17.33458c0,0 1.85047,17.28099 7.05578,33.08817c2.02064,3.54917 -5.8881,9.11614 -5.8881,9.11614z" fill="#3a2f41" stroke-width="1.5"/><path d="M209.15559,120.95504c-1.70056,-1.54485 2.23199,-20.17728 5.07074,-24.1496c1.14823,-1.60672 12.5158,13.75226 11.05607,15.79488c-2.83875,3.97231 -13.60513,10.64545 -15.3057,9.10062z" data-paper-data="{&quot;index&quot;:null}" fill="#8c9ca0" stroke-width="2"/><path d="M209.82482,121.14707c1.4158,1.83307 -5.84089,15.15862 -9.26976,18.02025c-1.76319,1.47151 -14.00421,-13.15254 -12.61729,-14.31001c3.42886,-2.86162 19.78765,-6.42838 21.20344,-4.59531z" fill="#e1e2db" stroke-width="1.5"/><path d="M213.54415,117.58162c1.34245,2.67638 0.65945,6.03884 -1.52552,7.51027c-2.18493,1.47141 -5.04447,0.49459 -6.38691,-2.18182c-1.34245,-2.67638 -0.65945,-6.03884 1.52552,-7.51026c2.18493,-1.47141 5.04447,-0.49458 6.38691,2.18181z" fill="#e1e2db" stroke-width="2"/></g><path d="M285.56466,180.01001l-17.15472,-2.08344l-0.04386,-10.21871c0,0 -1.12404,10.37854 -1.5036,10.26383c-4.85397,-0.42416 -9.65881,-0.76364 -14.25394,-1.03535c-19.30418,-1.14138 -34.90778,-1.08633 -34.90778,-1.08633c0,0 -5.98169,-11.70244 -5.98968,-22.66941c-0.00559,-7.66392 0.78859,-22.80464 10.60428,-34.60266c7.91639,-9.51516 21.81398,-12.48243 24.69688,-12.61414c2.30519,-0.10533 12.04609,3.82643 17.82137,9.81278c9.61343,9.9648 20.39386,32.43343 20.39386,32.43343z" fill="#3a2f41" stroke="none" stroke-width="0" stroke-linecap="butt"/><g stroke-linecap="butt"><path d="M278.11741,151.03066c0.00512,6.79026 1.47009,12.84684 -3.08453,17.23381c-4.42754,4.26456 -14.36852,5.74397 -24.5154,5.98256c-10.09927,0.23749 -20.23965,-2.18699 -24.70142,-6.62086c-4.51383,-4.48558 -3.64996,-9.81336 -3.65503,-16.54772c-0.01009,-13.39106 8.4896,-30.40792 31.9696,-29.6895c15.44528,0.47257 23.97673,16.25062 23.98682,29.6417z" fill="#e1e2db" stroke="none" stroke-width="0"/><path d="M278.11741,151.03066c0.01011,13.39106 -11.41412,4.97913 -24.08524,5.09621c-12.66858,0.11705 -31.86108,8.34266 -31.87117,-5.04841c-0.01009,-13.39106 8.4896,-30.40792 31.9696,-29.6895c15.44528,0.47257 23.97673,16.25063 23.98682,29.6417z" fill="#b8c1c0" stroke="none" stroke-width="0"/><path d="M258.50823,121.96101c12.6716,2.99763 20.56173,16.46538 20.57083,28.53226l0.00041,0.53656c0.00479,6.35193 0.26706,12.3272 -3.67543,16.62929c-4.36903,4.76752 -13.70506,6.33315 -24.52576,6.5876c-7.47542,0.17578 -16.52529,-1.2534 -20.82482,-3.81206c-7.3855,-4.39513 -7.88604,-10.8924 -7.89241,-19.35621c-0.00858,-11.36644 6.11396,-25.3452 22.32461,-28.87296" fill="none" stroke="#3a2f41" stroke-width="2"/></g><path d="M205.77072,172.48213l-8.03926,-7.09488c0,0 -1.94083,-23.61536 7.12007,-38.97363c11.68712,-19.80966 32.31953,-27.51427 52.69206,-21.83416c4.36426,1.21681 15.36971,5.39073 21.82984,13.82202c7.76047,10.12839 10.44294,23.01764 10.44294,23.01764l-4.33173,-0.7696l0.83645,10.18905c0,0 -2.38079,-0.68892 -2.39639,-0.90541c-0.34954,-4.85065 -1.23601,-9.66577 -1.23601,-9.66577c0,0 0.66718,3.93594 0.2439,9.75448c-2.48414,-0.52588 -16.31043,-2.16951 -16.31043,-2.16951l-1.88346,-4.37113l-0.33009,4.09544l-12.01028,-1.2472l-1.29084,-15.4024l-0.17539,14.99509c0,0 -10.74612,-0.10396 -15.94282,0.11771c-0.36655,0.01564 -1.76211,-6.46725 -1.76211,-6.46725c0,0 -0.12598,6.76685 -0.3998,6.77251c-3.23651,0.06673 -7.69685,0.73397 -7.69685,0.73397c0,0 0.08352,34.19596 -0.03504,34.21152c-1.84419,0.24238 -17.51002,-6.26066 -17.48488,-7.66995c0.03633,-2.03591 -1.09943,-13.49148 -1.09943,-13.49148z" fill="#3a2f41" stroke="url(#color-7)" stroke-width="0.5" stroke-linecap="butt"/><path d="M256.78882,115.57475c11.83166,-30.80693 35.1131,-42.22806 35.1131,-42.22806l-9.62389,55.55042" fill="#3a2f41" stroke="#3a2f41" stroke-width="1.5" stroke-linecap="round"/><path d="M201.82098,136.54652c10.07454,-46.58239 38.12273,-75.00141 38.12273,-75.00141l4.99504,50.43894" fill="#3a2f41" stroke="#3a2f41" stroke-width="1.5" stroke-linecap="round"/><g stroke="#3a2f41" stroke-linecap="butt"><path d="M224.62849,157.51728c0,0 4.01174,-4.35441 11.61705,-4.66045c8.05784,-0.32423 12.5416,4.58258 12.5416,4.58258c0,0 -5.12983,-0.17638 -12.4723,-0.05987c-6.52456,0.10352 -11.68634,0.13774 -11.68634,0.13774z" fill="#e1e2db" stroke-width="1"/><g fill="#3a2f41" stroke-width="0.5"><path d="M234.75396,157.54618l-0.13218,-4.49394l2.98539,-0.13365l0.02914,4.54055z"/></g></g><g><path d="M226.29338,247.31905l48.0244,-0.7853c0,0 5.28896,11.94195 8.66624,19.41765c1.01081,2.23748 1.85037,4.07486 2.32563,5.07225c0.81872,3.0182 1.84682,7.23865 2.99369,12.18631c-24.42462,0.17215 -48.84703,0.47558 -72.95423,0.73453c5.114,-18.14585 10.94429,-36.62542 10.94429,-36.62542z" fill="#e1e2db" stroke="none" stroke-width="0" stroke-linecap="round"/><path d="M214.34089,272.40984c3.19534,-14.32135 15.26578,-29.93679 15.26578,-29.93679l42.83537,-0.96214c0,0 5.70033,10.82614 7.52847,14.99505c1.26759,2.8906 2.38841,7.61937 2.38841,7.61937l-25.25896,18.96617c-15.01087,0.15533 -29.97027,0.33204 -44.80503,0.48907c0.79018,-4.74878 1.51246,-8.77964 2.04595,-11.17073z" fill="#8c9ca0" stroke="none" stroke-width="0" stroke-linecap="butt"/><path d="M213.37644,283.96557c0.83389,-4.66219 1.66403,-8.92134 2.46666,-12.51874c2.8729,-12.87653 13.77556,-28.56137 13.77556,-28.56137l42.48231,-0.50823c0,0 6.72589,8.8977 12.12365,27.34887c0.89614,3.06331 2.10924,7.79848 3.49261,13.48799" fill="none" stroke="#3a2f41" stroke-width="2" stroke-linecap="round"/><path d="M275.84663,249.26053l-20.78879,10.78915l-29.25159,-9.74749" fill="none" stroke="#3a2f41" stroke-width="1.5" stroke-linecap="round"/></g><path d="M252.55479,252.08215c-9.21827,0.02957 -24.26341,-9.84864 -24.26341,-9.84864c0,0 1.23293,-5.14501 2.19457,-7.92908c0.87601,-2.53618 2.82277,-8.10118 2.82277,-8.10118c0,0 0.56263,-3.92979 -1.71349,-8.07906c-1.42604,-2.5996 -9.32627,-13.1153 -9.34163,-13.47799c-0.00295,-0.06973 1.0116,-3.80857 2.70832,-7.7925c1.96945,-4.62426 9.2059,-12.09043 12.48866,-13.84696c3.57641,-1.91366 8.42943,-2.78531 12.14934,-2.68693c5.68502,0.15033 11.56684,1.24983 16.71179,4.0374c1.93883,1.05047 5.45941,3.88028 5.45941,3.88028c0,0 5.97581,7.78965 8.48298,17.2921c-3.70751,10.18282 -12.06907,14.38888 -12.06907,14.38888l-1.02448,6.93058c0,0 2.04432,5.10097 2.85658,7.64502c0.80955,2.53552 2.00893,7.5938 2.00893,7.5938c0,0 -10.25297,9.96474 -19.47125,9.99431z" fill="#3a2f41" stroke="#8c9ca0" stroke-width="1.5" stroke-linecap="round"/><g stroke="#3a2f41"><g fill="#e1e2db" stroke-width="2"><path d="" stroke-linecap="round"/><path d="" stroke-linecap="round"/><path d="M195.7209,255.36315l4.91052,-11.47163l1.65973,9.25492l3.94948,-1.9401c0,0 -3.52313,22.83075 -4.12333,29.89603c-0.09192,1.08207 -0.1694,2.08362 -0.23409,2.98133c-6.10541,0.06014 -12.18661,0.11527 -18.2384,0.16249c3.99509,-15.36284 8.91544,-32.50889 8.92531,-32.5433z" stroke-linecap="butt"/><path d="M192.5701,251.70289v0c0.00001,-0.00004 0.00002,-0.00006 0.00002,-0.00006z" stroke-linecap="butt"/></g><g stroke-linecap="butt"><path d="M182.65743,246.0333c0,0 28.35798,-33.08776 37.89666,-43.69023c5.2532,-5.83904 13.81976,-14.25448 13.81976,-14.25448l1.22534,22.63187l-17.27361,30.32674l-2.05114,42.88734c-13.57095,0.14635 -27.04333,0.27932 -40.36139,0.36757z" fill="#3a2f41" stroke-width="1.5"/><path d="M176.89611,278.7187l0.55606,-2.17071l38.75476,5.61099l-0.22884,1.77873c-0.82096,0.00884 -1.64156,0.01764 -2.46178,0.02637z" fill="#8ea8ab" stroke-width="2"/></g></g><g><path d="M258.52466,179.9375c0,2.04567 -5.29309,5.83964 -7.54147,5.83964c-2.24839,0 -7.40799,-3.39354 -7.40799,-5.4392c0,-2.04567 5.35983,-3.17008 7.60821,-3.17008c2.24838,0 7.34127,0.72399 7.34127,2.76966z" fill="#3a2f41" stroke="none" stroke-width="0" stroke-linecap="butt"/><g fill="#8c9ca0" stroke="#8c9ca0" stroke-width="1.5" stroke-linecap="butt"><path d="M233.41624,194.1077c-0.77248,-0.75621 9.55472,-14.67052 9.55472,-14.67052l7.71232,5.82992l8.16733,-6.5042c0,0 10.42614,13.98379 9.82055,14.75081c-0.33485,0.42412 -3.99994,-1.51286 -8.56085,-2.90358c-4.19557,-1.27934 -9.32983,-2.0061 -9.32983,-2.0061c0,0 -5.43509,1.38827 -9.88163,2.90086c-4.06571,1.38303 -7.16051,2.91813 -7.48261,2.60284z"/></g><path d="M242.97454,181.10542l0.50723,-1.92207l7.31457,-2.21572l7.59486,1.64177l0.80087,1.96211" fill="none" stroke="#8c9ca0" stroke-width="2" stroke-linecap="round"/></g><g fill="#8c9ca0" stroke="#3a2f41" stroke-width="1.5" stroke-linecap="butt"><path d="M254.70611,199.05986c-0.10718,1.84615 -1.75807,3.25193 -3.68737,3.13992c-1.92929,-0.11201 -3.4064,-1.6994 -3.29922,-3.54555c0.10718,-1.84615 1.75808,-3.25194 3.68738,-3.13993c1.92929,0.11201 3.4064,1.69942 3.29921,3.54556z"/><path d="M254.77201,209.10244c-0.11091,1.91031 -1.8357,3.364 -3.85243,3.24691c-2.01673,-0.1171 -3.56167,-1.76062 -3.45076,-3.67093c0.11091,-1.91031 1.83569,-3.36399 3.85241,-3.24691c2.01673,0.1171 3.5617,1.76062 3.45079,3.67093z"/></g><path d="" fill="#3a2f41" stroke="#8c9ca0" stroke-width="2" stroke-linecap="butt"/><path d="" fill="#3a2f41" stroke="#8c9ca0" stroke-width="2" stroke-linecap="butt"/><g data-paper-data="{&quot;index&quot;:null}" stroke="#3a2f41"><g data-paper-data="{&quot;index&quot;:null}"><g><path d="M315.85974,101.69505l-26.31228,-2.24159l8.46196,-94.23954l23.29948,31.25795z" fill="#e1e2db" stroke-width="0" stroke-linecap="butt"/><path d="M315.85974,101.69505l-26.31228,-2.24159l3.32737,-39.82655l24.57625,23.02066z" fill="#8c9ca0" stroke-width="0" stroke-linecap="butt"/><path d="M316.82896,82.59449l-24.54022,-14.87933" fill="none" stroke-width="1.5" stroke-linecap="round"/><path d="M294.30802,47.83219l24.01587,16.86922" fill="none" stroke-width="1.5" stroke-linecap="round"/><path d="M320.15026,47.12717l-24.86558,-19.55749" fill="none" stroke-width="1.5" stroke-linecap="round"/><path d="M297.07155,100.09441l-7.52405,-0.64098l7.86031,-94.08298l23.90114,31.1014l-5.44918,65.22317l-3.42976,-0.29218" fill="none" stroke-width="2" stroke-linecap="butt"/></g><path d="M318.47482,130.40168l-36.26828,-3.08977l3.76137,-45.0213l36.26827,3.08975z" fill="#e1e2db" stroke-width="0" stroke-linecap="butt"/><path d="M318.47483,130.40168l-36.26828,-3.08977l2.17004,-25.97383l34.77337,20.98284z" fill="#8c9ca0" stroke-width="0" stroke-linecap="butt"/><path d="M311.31995,122.81655l-21.33427,-1.8175l2.43526,-29.14841l21.33428,1.81749z" fill="none" stroke-width="1.5" stroke-linecap="butt"/><path d="M291.16714,106.85772l20.15281,15.95881" fill="none" stroke-width="1.5" stroke-linecap="round"/><path d="M312.21816,107.77911l-19.08611,-15.86795" fill="none" stroke-width="1.5" stroke-linecap="round"/><path d="M294.04382,128.05005l-11.7919,-1.00456l3.76136,-45.0213l36.26828,3.08976l-3.76139,45.02131l-10.00842,-0.85263" fill="none" stroke-width="2" stroke-linecap="butt"/></g><g data-paper-data="{&quot;index&quot;:null}" stroke-width="2" stroke-linecap="butt"><path d="M321.61619,113.06869l-3.43903,39.2504c0,0 -24.74833,34.55458 -33.11757,45.66538c-4.60915,6.11899 -12.95267,15.49639 -12.95267,15.49639l-5.08469,-15.24359l16.92067,-38.04877l-2.01445,-51.28238z" fill="#3a2f41"/><path d="M321.00354,120.07165l-0.35625,2.15633l-38.13202,-2.16558l0.08648,-2.11337z" fill="#8ea8ab"/></g></g></g></g></svg>