<svg version="1.1" xmlns="http://www.w3.org/2000/svg" xmlns:xlink="http://www.w3.org/1999/xlink" width="64.5" height="64.5" viewBox="0,0,64.5,64.5"><defs><linearGradient x1="212" y1="150.92857" x2="212" y2="215.42857" gradientUnits="userSpaceOnUse" id="color-1"><stop offset="0" stop-color="#ffffff"/><stop offset="1" stop-color="#e5e5e5"/></linearGradient></defs><g transform="translate(-212,-150.92857)"><g data-paper-data="{&quot;isPaintingLayer&quot;:true}" fill-rule="nonzero" stroke-linejoin="miter" stroke-miterlimit="10" stroke-dasharray="" stroke-dashoffset="0" style="mix-blend-mode: normal"><path d="M244.25,150.92857c8.898,0 16.96,3.614 22.798,9.452c5.838,5.838 9.452,13.9 9.452,22.798c0,8.898 -3.614,16.96 -9.452,22.798c-5.838,5.838 -13.9,9.452 -22.798,9.452c-8.898,0 -16.96,-3.614 -22.798,-9.452c-5.838,-5.838 -9.452,-13.9 -9.452,-22.798c0,-8.898 3.614,-16.96 9.452,-22.798c5.838,-5.838 13.9,-9.452 22.798,-9.452z" fill="url(#color-1)" stroke="none" stroke-width="1" stroke-linecap="butt"/><g><g><g fill="#3a2f41" stroke="#3a2f41" stroke-linecap="round"><g><g><path d="M240.4586,185.69252c0,0 3.2973,0.92307 6.99042,2.47897c0.21438,0.09032 0.43752,0.12682 0.66773,0.11791c2.82118,-0.10928 6.70413,-7.04064 8.5427,-5.36327c1.62423,1.48182 -1.3654,10.63792 -1.91204,12.37118c-1.67966,5.32577 -4.12792,8.51482 -7.03378,9.96952c-4.42962,2.21751 -9.30713,0.90332 -9.30713,0.90332c0,0 5.00562,-3.70846 -2.10942,-10.26093c-2.62143,-2.5821 4.16153,-10.21671 4.16153,-10.21671z" data-paper-data="{&quot;index&quot;:null}" stroke-width="1"/><path d="M249.51317,184.87378c0,0 8.22157,6.05818 6.19402,9.12872c-4.68271,8.50096 1.10985,10.93314 1.10985,10.93314c0,0 -12.34287,4.57234 -19.2845,-7.69712c-0.89494,-1.58181 -5.72221,-9.91663 -4.44141,-11.70366c1.44982,-2.02286 6.68854,3.95015 9.47082,3.47072c0.22704,-0.03912 0.43771,-0.12121 0.62865,-0.25411c3.28912,-2.28948 6.32258,-3.87768 6.32258,-3.87768z" data-paper-data="{&quot;index&quot;:null}" stroke-width="1"/><path d="M246.31315,186.07656c0,0 11.17215,-1.7361 11.38851,1.93709c0.34453,10.11291 5.19842,14.34484 5.19842,14.34484c0,0 -4.62824,1.89081 -11.56865,0.66485c-3.3847,-0.59787 -7.30227,-2.80339 -11.53399,-4.66023c-1.66425,-0.73026 -6.1911,0.28011 -6.23633,-1.91805c-0.05121,-2.48824 7.72183,-0.84478 9.66219,-2.89562c0.15833,-0.16735 0.27783,-0.3593 0.35107,-0.5801c1.26166,-3.80371 2.73879,-6.89277 2.73879,-6.89277z" data-paper-data="{&quot;index&quot;:null}" stroke-width="1"/><path d="M244.43831,186.52701c0,0 2.08688,2.71462 4.11153,6.17306c0.11753,0.20075 0.27432,0.36368 0.46397,0.49447c2.32422,1.6028 9.58597,-1.62025 10.05301,0.8243c0.4126,2.15956 -5.96073,5.83927 -7.43687,6.89946c-3.27176,2.16969 -7.10723,3.24334 -10.61719,3.73885c-5.80611,0.81966 -10.72155,0.05737 -10.72155,0.05737c0,0 4.78318,-2.73938 3.18813,-12.43732c-0.55176,-3.63795 10.95898,-5.75019 10.95898,-5.75019z" data-paper-data="{&quot;index&quot;:null}" stroke-width="1"/><path d="M239.93182,185.05105c0,0 1.07921,3.24954 1.85525,7.18118c0.04505,0.22823 0.1396,0.43362 0.27576,0.61946c1.66863,2.27741 9.58618,1.61899 9.22419,4.08129c-0.31979,2.17524 -5.30782,3.66057 -7.05033,4.17695c-13.51601,4.00543 -22.9062,-2.13828 -22.9062,-2.13828c0,0 5.51406,0.63701 7.80465,-11.65541c0.67406,-3.61729 10.79668,-2.26519 10.79668,-2.26519z" data-paper-data="{&quot;index&quot;:null}" stroke-width="1.5"/><path d="M249.42393,180.45061c0,0 9.58653,-3.75051 11.04765,0.12358c4.96523,13.16506 11.64408,11.8423 11.64408,11.8423c0,0 -8.08107,8.5661 -22.17085,7.11027c-1.81648,-0.18768 -8.17928,-0.99064 -8.97437,-3.33929c-0.9,-2.65859 6.97906,-3.68332 8.10336,-6.58692c0.09174,-0.23693 0.13851,-0.48638 0.13186,-0.75025c-0.1146,-4.54557 0.21829,-8.39969 0.21829,-8.39969z" data-paper-data="{&quot;index&quot;:null}" stroke-width="1"/></g><path d="M255.79157,188.22959c0.05692,2.15523 -10.03277,9.44532 -10.74495,11.25743c-0.58169,1.48008 -13.23186,-5.02338 -14.75503,-4.827c-9.39963,0.80838 -14.16832,-3.11368 -14.16832,-3.11368c0,0 8.07291,-2.44671 12.08002,-10.10748c0.05782,-0.13039 -2.35832,0.92873 -2.26971,0.80929c1.57505,-2.12287 5.74289,-2.3433 5.74289,-2.3433c0,0 24.04114,5.52364 24.1151,8.32473z" data-paper-data="{&quot;index&quot;:null}" stroke-width="1"/><path d="M237.41812,177.15462c0.19232,2.14648 8.99621,17.24593 8.39845,19.09178c-0.48823,1.50763 -9.4331,-12.43107 -10.94277,-12.15286c-11.70994,2.15795 -16.24246,-2.90494 -16.24246,-2.90494c0,0 7.05682,2.6924 10.22011,-5.80418c0.93087,-2.50029 7.74401,-3.34616 7.74401,-3.34616c0,0 0.57271,2.32666 0.82265,5.11637z" data-paper-data="{&quot;index&quot;:null}" stroke-width="1"/></g><path d="M250.93037,181.47342c0,0 6.34984,-0.7807 7.74182,0.54542c3.41077,3.25571 11.26471,3.43785 11.26471,3.43785c0,0 -3.33886,2.34265 -15.15301,2.81548c-2.39838,0.09599 -3.47349,-1.0452 -3.90904,-2.41876c-0.29586,-0.93301 -10.42548,9.80519 -10.34545,8.97267c0.06538,-0.68023 -3.25324,-8.84974 -0.33391,-12.41008c0.99317,-1.21124 10.73488,-0.94258 10.73488,-0.94258z" data-paper-data="{&quot;index&quot;:null}" stroke-width="1"/><path d="M250.06608,172.0962c0,0 6.3381,-0.89231 7.88211,1.88075c3.78391,6.80733 10.99616,4.48076 10.99616,4.48076c0,0 -2.38751,7.7987 -14.281,7.51641c-2.41449,-0.05731 -3.61908,-2.43097 -4.20118,-5.19933c-0.3954,-1.88046 -9.52621,18.3646 -9.53127,16.72219c-0.00414,-1.34196 -4.20225,-17.8825 -1.61884,-24.64027c0.87888,-2.29902 10.75402,-0.76051 10.75402,-0.76051z" data-paper-data="{&quot;index&quot;:null}" stroke-width="1"/></g><path d="M268.76856,173.45865c0,0 -1.93755,3.24513 -3.92013,3.72126c-1.98257,0.47613 -4.83373,-1.21214 -4.83373,-1.21214c0,0 1.08378,-2.56549 3.06635,-3.04162c1.98257,-0.47613 5.68751,0.5325 5.68751,0.5325z" fill="#e1e2db" stroke="#3a2f41" stroke-width="1" stroke-linecap="butt"/><path d="M260.76524,183.1636c0.49437,4.70548 -6.3745,7.74966 -13.4741,8.82314c-0.58827,0.08894 -2.35736,-9.14205 -2.93719,-9.08113c-1.57517,0.16549 -1.99274,9.53142 -3.54445,9.47668c-5.9132,-0.20863 -11.12102,-2.08177 -11.54507,-6.11797c-0.29633,-2.82056 -3.2978,-5.86282 -0.51793,-11.09404c4.06451,-7.64867 19.55862,-9.71742 26.4498,-4.47014c5.18682,3.94951 5.16904,8.74868 5.52688,12.15461z" fill="#3a2f41" stroke="none" stroke-width="0" stroke-linecap="butt"/><g stroke-linecap="butt"><path d="M255.24293,183.4188c0.24071,2.2911 1.0051,4.27733 -0.55497,5.93645c-1.51654,1.61282 -5.20625,2.50225 -9.01709,2.98107c-3.79296,0.47657 -7.51868,-0.15108 -9.35399,-1.4721c-1.85672,-1.33643 -1.89525,-2.96056 -2.13397,-5.23279c-0.4747,-4.51827 2.12614,-10.59409 10.98915,-11.27334c5.83014,-0.44681 9.59617,4.54243 10.07088,9.06072z" fill="#e1e2db" stroke="none" stroke-width="0"/><path d="M255.29313,183.35681c0.4747,4.51827 -4.12113,2.1282 -8.88635,2.6651c-4.76427,0.53679 -11.69897,4.0658 -12.17368,-0.45247c-0.4747,-4.51827 2.12614,-10.59408 10.98915,-11.27334c5.83014,-0.44681 9.59617,4.54243 10.07088,9.06071z" fill="#b8c1c0" stroke="none" stroke-width="0"/><path d="M246.83989,174.37929c4.87494,0.51411 8.31834,4.74895 8.74611,8.82043l0.01901,0.18104c0.22517,2.1432 0.53401,4.1492 -0.79864,5.75565c-1.47683,1.78025 -4.93581,2.67503 -8.99972,3.18564c-2.80753,0.35276 -6.07796,0.11165 -7.78626,-0.58298c-2.93443,-1.19318 -3.53745,-3.25188 -3.83748,-6.10766c-0.40293,-3.83515 1.40999,-8.79246 7.38754,-10.6192" fill="none" stroke="#3a2f41" stroke-width="2"/></g><g stroke="#3a2f41" stroke-width="0.5" stroke-linecap="round"><g fill="#e1e2db"><path d="M253.58373,187.17197l-0.86114,3.70706c0,0 -6.3647,2.16318 -12.73155,1.03594c-0.23985,-0.48745 -0.99453,-4.10922 -0.99453,-4.10922c8.64017,0.86894 14.46486,-0.63339 14.46486,-0.63339"/></g><path d="M240.10781,191.72647l0.58599,-3.33963l1.39065,3.54549l1.14526,-3.62211l1.30826,3.70613l1.74511,-3.67892l1.36565,3.36439l1.21643,-3.42392l1.25769,3.09038l1.59755,-3.48802l0.4782,3.02206" fill="none"/></g><g fill="#3a2f41" stroke="#3a2f41" stroke-width="0.5" stroke-linecap="butt"><path d="M235.13394,167.15512l-0.09644,-0.91791l8.91683,-0.93682l0.09643,0.9179z"/><path d="M235.15985,167.08621l-0.97127,-9.24465l1.18017,-0.12399l0.97127,9.24465z"/><path d="M243.20316,168.56126l-0.2962,-2.81929l1.04904,-0.11022l0.2962,2.81929z"/><path d="M234.28502,158.75947l-0.11021,-1.04904l9.11352,-0.95749l0.11021,1.04904z"/><path d="M242.90057,163.15737l-0.6544,-6.22867l1.18016,-0.124l0.6544,6.22867z"/><path d="M237.9832,163.674l-0.10332,-0.98347l5.24519,-0.55107l0.10332,0.98347z"/><path d="M237.99099,162.69054l-0.23777,-1.63223l1.41795,1.50824z"/></g><path d="M265.91914,179.89434c0,0 -3.06518,0.63405 -4.46559,-0.30942c-1.40041,-0.94347 -1.96605,-3.62866 -1.96605,-3.62866c0,0 2.17244,-0.77468 3.57285,0.16879c1.40041,0.94347 2.85879,3.76928 2.85879,3.76928z" fill="#e1e2db" stroke="#3a2f41" stroke-width="1" stroke-linecap="butt"/><g fill="#3a2f41"><path d="M236.33666,184.33181c0.28274,4.74559 3.5451,11.67568 3.5451,11.67568c0,0 -6.28044,-1.45894 -8.93093,-9.40773" stroke="#b8c1c0" stroke-width="0.5" stroke-linecap="round"/><path d="M231.05462,186.73767c0.3374,1.67851 1.6327,3.7449 2.71544,5.5102c0.12138,0.19789 -3.20222,-3.66602 -3.53964,-5.34453c-0.3374,-1.67851 -0.42643,-3.07629 -0.19884,-3.12204c0.17887,-0.03596 5.55127,9.0747 4.64295,8.29117c-2.05521,-1.77285 -3.69215,-5.69413 -3.61992,-5.3348z" stroke="none" stroke-width="0" stroke-linecap="butt"/></g><path d="M247.46455,175.07461c1.07522,1.91448 -1.88011,6.33915 -5.94837,8.62398c-2.48236,1.39168 -5.04991,1.66012 -5.5051,1.93685c-0.37883,0.2303 -0.32632,1.42048 -0.12972,2.00751c0.54806,1.63646 -3.68531,-2.22597 -4.2087,-3.15788c-1.07521,-1.91448 1.35113,-5.31869 5.41939,-7.60353c4.06826,-2.28483 9.29727,-3.7214 10.37249,-1.80692z" fill="#3a2f41" stroke="none" stroke-width="0" stroke-linecap="butt"/><g><g><path d="M226.00546,176.59623c2.03881,-0.02374 3.71769,2.19833 3.71769,2.19833c0,0 -2.35105,2.33494 -4.38986,2.35868c-2.03881,0.02374 -4.71188,-2.64827 -4.71188,-2.64827c0,0 3.34524,-1.88501 5.38405,-1.90875z" data-paper-data="{&quot;index&quot;:null}" fill="#e1e2db" stroke="#3a2f41" stroke-width="1" stroke-linecap="butt"/><path d="M226.72817,179.82765c1.1268,-1.25761 3.4228,-1.03839 3.4228,-1.03839c0,0 0.10897,2.74196 -1.01783,3.99957c-1.1268,1.25761 -4.25394,1.39329 -4.25394,1.39329c0,0 0.72216,-3.09686 1.84897,-4.35447z" data-paper-data="{&quot;index&quot;:null}" fill="#e1e2db" stroke="#3a2f41" stroke-width="1" stroke-linecap="butt"/><g data-paper-data="{&quot;index&quot;:null}"><path d="M230.15528,181.82502l-2.23841,-0.45015l-2.16958,-6.98272l7.40245,-2.60076l1.31729,0.77378l2.11489,6.80668z" fill="#8c9ca0" stroke="#3a2f41" stroke-width="0.5" stroke-linecap="butt"/><path d="M228.33555,181.522l-2.11488,-6.80669l7.34725,-2.58138l2.11489,6.80669z" fill="#e1e2db" stroke="#3a2f41" stroke-width="0.5" stroke-linecap="butt"/><path d="M235.80193,178.87272l1.14963,0.70252" fill="none" stroke="#3a2f41" stroke-width="0.5" stroke-linecap="round"/><path d="M230.1228,179.23944c0,0 -0.69397,-4.67187 -0.26659,-4.81225c0.49711,-0.16329 3.058,3.75969 3.058,3.75969" fill="none" stroke="#8c9ca0" stroke-width="1" stroke-linecap="round"/></g></g><path d="M229.96967,177.30963l1.51845,-0.68984" fill="none" stroke="#8c9ca0" stroke-width="1" stroke-linecap="round"/></g><g data-paper-data="{&quot;index&quot;:null}" fill="#3a2f41"><path d="M258.86994,183.38292c-0.57355,8.28752 -5.17479,10.88971 -5.17479,10.88971c0,0 1.23843,-7.40296 0.57235,-12.10828" stroke="#b8c1c0" stroke-width="0.5" stroke-linecap="round"/><path d="M257.00162,189.44313c-0.55863,0.93766 1.91026,-8.99682 2.05576,-8.99494c0.18514,0.00239 0.37688,1.38938 0.42825,3.09793c0.05137,1.70855 -1.80669,6.11687 -1.74944,5.90022c0.51079,-1.93273 1.13034,-4.2003 1.07897,-5.90886c-0.01099,-0.36577 -0.54955,3.78408 -1.81355,5.90565z" stroke="none" stroke-width="0" stroke-linecap="butt"/></g><path d="M252.82983,172.57671c3.10511,2.47247 4.98215,8.14595 4.08786,9.26908c-0.24179,0.30366 -1.20962,2.16132 -1.36295,1.5357c-0.25618,-1.04528 -1.11554,-1.15056 -1.76929,-1.31292c-5.22888,0.38215 -8.26341,-1.0454 -9.87139,-2.32576c-3.10511,-2.47247 0.86474,-5.7275 1.75904,-6.85063c0.89429,-1.12312 4.05163,-2.78795 7.15674,-0.31547z" data-paper-data="{&quot;index&quot;:null}" fill="#3a2f41" stroke="none" stroke-width="0" stroke-linecap="butt"/><path d="M251.9043,181.47776c0,0 -1.6332,0.20553 -3.31056,-0.16866c-1.83834,-0.4101 -2.8569,-1.15189 -2.8569,-1.15189c0,0 1.32617,0.68237 3.00338,0.9955c1.45267,0.2712 3.16409,0.32506 3.16409,0.32506z" fill="#cedee0" stroke="none" stroke-width="0" stroke-linecap="butt"/><g><path d="M241.43531,178.56347l-0.7759,-7.38508l0.99797,-1.32782l8.5779,-0.90122l0.79596,7.57607l-2.06536,1.43997z" fill="#8c9ca0" stroke="#3a2f41" stroke-width="0.5" stroke-linecap="butt"/><path d="M242.46369,177.23245l-0.7759,-7.38508l8.51394,-0.8945l0.7759,7.38508z" fill="#e1e2db" stroke="#3a2f41" stroke-width="0.5" stroke-linecap="butt"/><path d="M241.45617,178.3565l0.85931,-1.18453" fill="none" stroke="#3a2f41" stroke-width="0.5" stroke-linecap="round"/><path d="M244.71844,170.89546c0,0 2.08496,-0.52585 2.36101,0.69848c0.30751,1.36387 -1.99215,1.49269 -1.99215,1.49269c0,0 3.18904,-0.78709 3.19947,0.76135c0.01044,1.54844 -2.97953,1.33214 -2.97953,1.33214z" fill="none" stroke="#8c9ca0" stroke-width="1" stroke-linecap="round"/></g><g><path d="M252.93788,178.55478l0.38407,-7.11732l1.08776,-1.07274l7.8139,0.70931l-0.394,7.30139l-2.06008,0.98447z" fill="#8c9ca0" stroke="#3a2f41" stroke-width="0.5" stroke-linecap="butt"/><path d="M254.05333,177.48455l0.38407,-7.11732l7.75564,0.70402l-0.38406,7.11732z" fill="#e1e2db" stroke="#3a2f41" stroke-width="0.5" stroke-linecap="butt"/><path d="M253.08632,178.38328l0.94264,-0.9626" fill="none" stroke="#3a2f41" stroke-width="0.5" stroke-linecap="round"/><path d="M259.10314,175.43152c-0.35579,1.43769 -2.4421,1.3404 -2.39285,-0.88423c0.0955,-4.31319 2.74671,-2.90231 2.56725,-1.50826" fill="none" stroke="#8c9ca0" stroke-width="1" stroke-linecap="round"/></g><g stroke="#3a2f41" stroke-linecap="butt"><path d="M236.84019,186.85485c0,0 1.40018,-1.23698 3.96992,-1.49156c2.72265,-0.26973 4.49359,1.42866 4.49359,1.42866l-8.46351,0.06291z" fill="#e1e2db" stroke-width="0.5"/><g fill="#3a2f41" stroke-width="0"><path d="M242.56035,186.67776l-0.15964,-1.25517l0.92338,0.36595l0.19662,0.92915z"/></g></g></g><path d="M251.9818,191.66378l0.62827,-4.36712l0.9399,-0.05148l-0.97025,4.26126z" fill="#3a2f41" stroke="none" stroke-width="0" stroke-linecap="butt"/></g></g></g></svg>