<svg version="1.1" xmlns="http://www.w3.org/2000/svg" xmlns:xlink="http://www.w3.org/1999/xlink" width="268.53465" height="480.20787" viewBox="0,0,268.53465,480.20787"><g transform="translate(-105.04307,69.85154)"><g data-paper-data="{&quot;isPaintingLayer&quot;:true}" fill-rule="nonzero" stroke-linejoin="miter" stroke-miterlimit="10" stroke-dasharray="" stroke-dashoffset="0" style="mix-blend-mode: normal"><g><path d="M271.89324,81.87914c0,0 -14.62468,1.91424 -36.06924,1.29828c-19.02334,-0.5464 -33.40211,-3.29371 -33.40211,-3.29371l1.66526,-57.97609l69.47135,1.99544l-1.66526,57.97609z" data-paper-data="{&quot;index&quot;:null}" fill="#221629" stroke="#251e29" stroke-width="2" stroke-linecap="butt"/><path d="M220.77084,15.55958l-3.81975,68.5l-19.75902,-1.66666l0.95772,-15.66667l-4.55852,15.5l-18.0512,-1.66667c0,0 8.43689,-28.19935 10.652,-60.66666l28.60972,-25.83333z" data-paper-data="{&quot;index&quot;:null}" fill="#3a2f41" stroke="#3a2f41" stroke-width="2" stroke-linecap="round"/><path d="M259.64993,41.42522c-20.35347,-0.77841 -30.67849,-0.83979 -36.5486,-24.36657c-5.8701,-23.52677 -4.19868,-48.91473 16.16038,-49.52987c103.17501,-3.11743 86.32501,95.91175 86.32501,95.91175c0,0 -31.34028,-20.69219 -65.9368,-22.01532z" fill="#3a2f41" stroke="#3a2f41" stroke-width="2.5" stroke-linecap="butt"/><path d="M262.74834,26.20292c-11.99756,12.74686 -17.89289,19.41156 -34.6885,9.22555c-16.79561,-10.18599 -44.54841,-18.64223 -33.34519,-32.22173c25.23678,-49.96238 72.69029,-41.95661 95.65796,-26.47229c18.17678,12.25441 18.39358,46.54576 18.39358,46.54576c0,0 -25.62458,-18.74424 -46.01785,2.92269z" fill="#3a2f41" stroke="#3a2f41" stroke-width="2.5" stroke-linecap="butt"/><path d="M251.83362,62.26527c-9.48933,-2.97024 -24.21814,-11.97293 -28.68794,-16.12461c-4.40272,-4.08936 -3.11197,-1.70535 -1.94123,-12.33172c2.35931,-21.41465 9.96884,-45.47899 29.27632,-40.76061c56.29621,13.75768 67.52792,47.21571 62.91117,73.08772c-3.4074,19.09495 -17.5944,34.02402 -17.5944,34.02402c0,0 -14.42233,-24.25417 -43.96392,-37.89482z" fill="#3a2f41" stroke="#3a2f41" stroke-width="2.5" stroke-linecap="butt"/><g data-paper-data="{&quot;index&quot;:null}" stroke-linecap="butt"><path d="M199.17588,63.87551c-7.42292,-5.93187 -8.1572,-14.63596 -8.43444,-24.13503c-0.54674,-18.73306 13.34899,-41.18879 37.87598,-42.54507c37.28605,-2.06185 51.50962,21.36025 52.05635,40.09329c0.54675,18.73304 -11.16154,35.1135 -43.46993,35.35963c-16.13625,0.12294 -30.31211,-2.25648 -37.52794,-8.02282z" fill="#e1e2db" stroke="none" stroke-width="0"/><path d="M191.74143,39.7405c-0.54674,-18.73306 12.34899,-41.18879 36.87598,-42.54507c37.28605,-2.06185 51.50962,21.36025 52.05635,40.09329c0.54674,18.73304 -25.79856,18.00151 -45.94,18.24671c-33.38883,0.40648 -42.0568,-6.41082 -42.0568,-6.41082c0,0 -0.76569,-3.56489 -0.93553,-9.38411z" fill="#b8c1c0" stroke="none" stroke-width="0"/><path d="M243.99269,-1.67159c25.91148,4.2053 36.2294,23.48441 36.69349,39.38518c0.54675,18.73304 -11.16154,35.11349 -43.46993,35.35962c-17.20779,0.1311 -31.11697,-3.39088 -38.26095,-9.86346c-7.21192,-6.53411 -7.95877,-13.66377 -7.70144,-23.04438c0.46309,-16.88145 8.10885,-46.35836 52.60045,-41.87514" fill="none" stroke="#3a2f41" stroke-width="2"/></g><path d="M170.99352,-45.84431c0,0 34.88454,11.34027 57.21013,33.97374c13.23475,13.41728 -10.80945,4.06763 -21.64427,14.13066c-5.02913,4.6709 -21.73006,15.0288 -21.73006,15.0288z" data-paper-data="{&quot;index&quot;:null}" fill="#3a2f41" stroke="#3a2f41" stroke-width="2.5" stroke-linecap="butt"/><path d="M191.87561,52.01611c-0.2822,0.80985 -9.61395,0.08822 -13.49662,-1.1651c-5.76241,-1.86006 -5.31751,-3.18714 -5.0353,-3.99697c0.28218,-0.80984 18.53191,5.16206 18.53191,5.16206z" data-paper-data="{&quot;index&quot;:null}" fill="#3a2f41" stroke="#8c9ca0" stroke-width="1" stroke-linecap="butt"/><path d="M237.5483,-2.83764c0,0 0.63731,-0.01808 0.65539,0.61924c0.01808,0.63732 -0.61924,0.65539 -0.61924,0.65539c-0.37767,0.01071 -1.32184,0.0375 -1.69951,0.04821c-3.07995,0.08736 -6.11168,0.39606 -9.14037,0.85532c-3.02429,0.45857 -5.5406,1.54548 -8.64825,1.63363c0,0 -0.63731,0.01809 -0.65539,-0.61923c-0.01808,-0.63732 0.61924,-0.6554 0.61924,-0.6554c3.05245,-0.08658 5.52184,-1.15596 8.50214,-1.62105c3.07115,-0.47927 6.16207,-0.77928 9.28647,-0.86791c0.37766,-0.01071 0.75532,-0.02143 1.133,-0.03214l0.56651,-0.01607z" fill="#3a2f41" stroke="#3a2f41" stroke-width="2.5" stroke-linecap="butt"/><path d="M250.6778,0.48297c-1.41873,2.05845 -3.47718,0.63971 -3.47718,0.63971l-2.1436,-1.47743c-3.64927,-2.57859 -7.98203,-2.43471 -12.30273,-3.04534c-5.80518,-0.82043 -11.75236,-0.59119 -17.54179,-1.40854c-2.82462,-0.39878 -5.60623,-1.19179 -8.47159,-1.55858c0,0 -2.47974,-0.31761 -2.16213,-2.79736c0.31762,-2.47974 2.79736,-2.16213 2.79736,-2.16213c6.78781,0.86988 13.33584,1.97217 20.17741,2.47869c6.81336,0.50443 14.52765,0.44505 20.34094,4.37637l2.1436,1.47742c0,0 2.05844,1.41873 0.63971,3.47718z" data-paper-data="{&quot;index&quot;:null}" fill="#3a2f41" stroke="none" stroke-width="0.5" stroke-linecap="butt"/><path d="M229.33818,67.12174c0,0 -1.20112,3.55211 -5.11471,1.51978" data-paper-data="{&quot;index&quot;:null}" fill="none" stroke="#3a2f41" stroke-width="1" stroke-linecap="round"/><path d="M290.1534,10.97392c0,0 7.85163,16.6981 11.29095,28.17508c3.29681,11.00142 11.93552,37.82049 11.93552,37.82049l-15.87126,7.03615l-3.8901,-13.37387l0.08675,13.55977l-28.42672,2.12162c0,0 5.26397,-30.12887 -0.11028,-62.747l9.26628,-28.0168z" fill="#3a2f41" stroke="#8c9ca0" stroke-width="2" stroke-linecap="round"/><g data-paper-data="{&quot;index&quot;:null}"><path d="M292.05343,39.24013l-7.43621,-15.35892c0,0 1.47375,6.39308 2.28571,10.52901c0.92617,4.71764 3.27902,15.14823 3.27902,15.14823c0,0 -6.51232,-2.31983 -13.24491,-4.03459c-6.02224,-1.53383 -22.04367,-4.23662 -22.04367,-4.23662l-1.07334,-10.25251l-1.47696,10.37805c0,0 -8.97626,0.0321 -25.45127,-0.50963c-1.15824,-0.03808 -2.16592,-20.14691 -2.16592,-20.14691c0,0 -1.72263,20.0079 -2.57414,19.99176c-15.66909,-0.29692 -28.92911,0.24068 -28.92911,0.24068l2.17453,-15.4165l-5.00256,16.35253l-17.45952,-0.17144l10.90044,-25.38381l-3.69596,6.83487l-6.85198,1.54684c0,0 4.21546,-13.42259 7.74614,-20.15287c6.40179,-12.20328 10.10934,-20.41262 22.21024,-27.61314c11.84767,-7.04983 28.72735,-10.08918 40.349,-8.38925c20.3177,2.97192 28.99166,12.13929 35.45668,19.81865c5.20943,6.18797 9.55075,15.3122 13.78764,22.84354c4.173,7.41778 9.50169,12.91908 9.50169,12.91908z" fill="#3a2f41" stroke="none" stroke-width="0" stroke-linecap="round"/><path d="M191.36479,2.56972l-9.81751,19.23482l-2.15585,0.43289" fill="none" stroke="#8c9ca0" stroke-width="2" stroke-linecap="round"/><path d="M285.33832,26.34271l-4.74113,-14.14092" fill="none" stroke="#8c9ca0" stroke-width="2" stroke-linecap="round"/><path d="M292.1842,39.39923l-7.04391,-13.44961c0,0 0.55388,1.27231 1.00225,3.33259c0.91456,4.20256 4.17019,20.43534 4.17019,20.43534c0,0 -6.51231,-2.31983 -13.2449,-4.03459c-6.02224,-1.53383 -11.04367,-1.73065 -11.04367,-1.73065l-4.93414,-22.50394l-0.36615,22.07259c0,0 -15.93762,-1.91699 -32.41263,-2.45872c-18.13789,-0.5964 -34.95782,0.08554 -34.95782,0.08554l2.17453,-9.84767l-5.64688,9.66994l-17.16726,0.6853l8.3802,-19.15616l-7.23108,1.98009c0,0 10.81318,-36.20858 29.51183,-47.33502c11.84767,-7.04983 28.72734,-10.08918 40.349,-8.38925c20.3177,2.97192 28.99167,12.13929 35.45668,19.81865c5.20943,6.18797 9.55075,15.3122 13.78764,22.84353c4.173,7.41778 9.50169,12.91908 9.50169,12.91908z" fill="none" stroke="none" stroke-width="0" stroke-linecap="round"/><path d="M277.10024,26.19057l-2.22298,-33.7312l17.62407,45.04563c0,0 -4.92969,-8.15014 -6.29631,-11.22249c-1.68746,-3.79366 -5.26434,-15.42184 -5.26434,-15.42184c0,0 2.53264,10.18091 3.7907,15.90857c1.44572,6.58213 4.39916,21.37841 4.39916,21.37841z" fill="#3a2f41" stroke="none" stroke-width="0" stroke-linecap="butt"/><path d="M177.01725,32.10332c0,0 2.52336,-6.50913 3.67067,-8.99404c1.9218,-4.16237 8.67783,-16.92456 8.67783,-16.92456l-9.26098,16.94693l-6.23806,1.33145c0,0 8.7956,-15.14001 10.39601,-17.78138c3.4206,-5.64552 10.70591,-12.53762 10.70591,-12.53762l-0.11442,11.69454z" fill="#3a2f41" stroke="none" stroke-width="0" stroke-linecap="butt"/></g><path d="M285.37368,54.32896l-4,-52.25l-95.01957,-1.75274c0,0 7.52491,-16.58945 21.81123,-23.91268c16.55632,-8.48685 40.54913,-10.16031 48.65614,-9.06411c52.16206,7.05314 63.30221,45.47954 63.30221,45.47954l-10.5,44.5l-12.29145,-30.6006z" fill="#3a2f41" stroke="#3a2f41" stroke-width="2.5" stroke-linecap="butt"/><path d="M244.13058,-7.0451c-0.74872,-28.12612 16.53389,-60.73848 16.53389,-60.73848c0,0 33.31582,32.79953 36.07276,74.04047" data-paper-data="{&quot;index&quot;:null}" fill="#3a2f41" stroke="#8c9ca0" stroke-width="2.5" stroke-linecap="butt"/><g fill="#9aac9c" stroke="none" stroke-width="0" stroke-linecap="butt"><path d="M282.42771,25.04552c-4.51234,-2.99182 -5.25492,-28.20259 -1.51084,-29.94735c4.16144,-1.93924 18.55727,15.14171 18.55727,15.14171c0,0 -12.50635,17.81586 -17.04642,14.80564z"/><path d="M314.15094,23.56188c-4.37471,3.42716 -17.76525,-13.17755 -17.76525,-13.17755c0,0 13.4848,-18.38488 17.73576,-16.83907c3.82463,1.39078 4.37749,26.61042 0.02949,30.01663z" data-paper-data="{&quot;index&quot;:null}"/><path d="M298.63172,3.27506c2.76118,-0.12913 4.75954,0.6789 4.90058,6.16939c0.14103,5.49049 -1.79283,7.19337 -4.55401,7.32251c-2.76118,0.12915 -5.30405,-1.36438 -5.44509,-6.85487c-0.14103,-5.49048 2.33734,-6.50789 5.09852,-6.63703z"/></g><g data-paper-data="{&quot;index&quot;:null}" stroke="#3a2f41" stroke-linecap="butt"><path d="M252.9269,33.95548c17.05928,0.97782 18.59079,20.52817 18.59079,20.52817c0,0 -2.5201,7.96718 -22.06118,7.05006c-10.79979,-0.50686 -17.33552,-5.80179 -17.33552,-5.80179c0,0 1.04288,-22.90924 20.80591,-21.77644z" fill="#e1e2db" stroke-width="1"/><path d="M251.05273,49.54816c-3.01054,-6.47841 -3.04864,-13.47008 1.37563,-15.52605c4.42427,-2.05597 13.44238,3.14048 16.45291,9.61889c3.01054,6.47841 1.86446,13.39687 -2.55981,15.45284c-4.42428,2.05597 -12.25821,-3.06728 -15.26874,-9.54569z" fill="#3a2f41" stroke-width="2"/></g><path d="M242.69788,9.75255c6.46043,-4.40574 21.5,15.5 21.5,15.5" data-paper-data="{&quot;index&quot;:null}" fill="none" stroke="#8c9ca0" stroke-width="1.5" stroke-linecap="round"/></g><path d="" data-paper-data="{&quot;index&quot;:null}" fill="none" stroke="#3a2f41" stroke-width="1" stroke-linecap="round"/><g data-paper-data="{&quot;index&quot;:null}"><g stroke-linecap="butt"><path d="M163.39156,135.42643c16.22285,-13.90874 30.33834,-30.05378 30.33834,-30.05378l20.64363,-1.03792l-0.08857,22.13443l-23.68404,29.47984c0,0 18.2659,8.56903 16.07359,11.8795c-0.31924,0.31007 -26.18283,46.26201 -26.18283,46.26201l-18.11282,-0.03609l-23.0283,-56.97438z" data-paper-data="{&quot;index&quot;:null}" fill="#9aac9c" stroke="none" stroke-width="0"/><path d="M163.39156,135.4264c16.22285,-13.90873 30.33834,-30.05377 30.33834,-30.05377l20.64363,-1.03792l-0.08857,22.13443l-17.20267,21.41239c0,0 -35.3148,4.76447 -57.63115,9.44728l-0.10056,-0.2488z" data-paper-data="{&quot;index&quot;:null}" fill="#7b828c" stroke="none" stroke-width="0"/><path d="M163.39157,135.4264c16.22285,-13.90873 30.33834,-30.05377 30.33834,-30.05377l20.64363,-1.03792l-0.08857,22.13443l-23.68404,29.47984c0,0 18.2659,8.56903 16.07359,11.8795c-0.31924,0.31007 -26.18283,46.26201 -26.18283,46.26201l-18.11282,-0.03609l-23.0283,-56.97438z" data-paper-data="{&quot;index&quot;:null}" fill="none" stroke="#3a2f41" stroke-width="2"/></g><g data-paper-data="{&quot;index&quot;:null}" stroke="#3a2f41" stroke-width="2"><path d="M210.99294,180.53974c0,0 -17.77081,20.46026 -25.56256,32.59893c-0.51635,0.8044 -11.2361,-2.76199 -14.3067,-5.41151c-2.84412,-2.4541 8.07152,-30.31242 8.07152,-30.31242c0,0 16.68543,-14.64136 20.73806,-13.54923c4.2281,1.13942 11.05969,16.67422 11.05969,16.67422z" fill="#e1e2db" stroke-linecap="butt"/><path d="M186.79534,171.89667l16.69632,15.57215" fill="none" stroke-linecap="round"/></g></g><g data-paper-data="{&quot;index&quot;:null}" stroke-linecap="butt"><path d="M270.11307,372.67699l-5.33911,-33.83061l43.99763,-9.59098l61.20087,78.50923z" data-paper-data="{&quot;index&quot;:null}" fill="#e1e2db" stroke="#3a2f41" stroke-width="2.5"/><g data-paper-data="{&quot;index&quot;:null}"><g><path d="M267.49586,326.11939l-20.33988,-79.10224l27.27747,-6.44011l20.33988,79.10225z" fill="#e1e2db" stroke="none" stroke-width="0"/><path d="M252.10085,264.2461l-4.47186,-17.39116l27.27748,-6.44011l4.31531,17.665z" fill="#626171" stroke="none" stroke-width="0"/><path d="M267.96882,325.95716l-20.33988,-79.10225l27.27748,-6.4401l20.33988,79.10224z" fill="#e1e2db" stroke="#3a2f41" stroke-width="2.5"/></g><path d="M310.67499,325.19383c0,0 -5.48543,7.7922 -21.67368,12.21007c-18.89326,5.15609 -27.1077,1.90689 -27.1077,1.90689c0,0 -1.61044,-1.21483 -2.78675,-4.48966c-0.34962,-0.97329 0.49531,-3.40914 0.07514,-4.39284c-0.97993,-2.29428 -2.37463,-2.93922 -2.56382,-4.35381c-0.3461,-2.58713 3.28916,-7.23807 3.28916,-7.23807l43.21047,-10.35973c0,0 4.29494,0.15257 5.16128,4.20296c0.79741,3.72803 -0.11961,3.95882 0.18846,5.20493c0.38267,1.54781 3.10837,3.5479 2.20738,7.30928z" fill="#e1e2db" stroke="#3a2f41" stroke-width="2.5"/></g><path d="M316.67823,339.39811l23.51125,30.16053l-30.75658,16.93418l-26.27033,-9.23062z" data-paper-data="{&quot;index&quot;:null}" fill="#3a2f41" stroke="#3a2f41" stroke-width="2.5"/></g><g data-paper-data="{&quot;index&quot;:null}" stroke-linecap="butt"><path d="M110.02757,391.03105l76,-54l45,-1.66667l4,37z" fill="#e1e2db" stroke="#3a2f41" stroke-width="2.5"/><g><g><path d="M196.72994,326.45689l0.0025,-81.67543l28.02191,-0.55492l-0.0025,81.67543z" fill="#7c7984" stroke="none" stroke-width="0"/><path d="M196.45323,262.92528l-0.21925,-18.18313l28.02192,-0.55492l-0.00055,17.95689z" fill="#626171" stroke="none" stroke-width="0"/><path d="M196.23149,326.41766l0.0025,-81.67543l28.02192,-0.55493l-0.0025,81.67543z" fill="#e1e2db" stroke="#3a2f41" stroke-width="2.5"/></g><path d="M182.70238,335.7574c-1.80921,-3.41855 0.33261,-6.03436 0.31782,-7.6287c-0.01192,-1.28357 -0.95752,-1.27874 -1.11352,-5.08791c-0.16951,-4.13854 3.95216,-5.35576 3.95216,-5.35576l44.42906,-0.72613c0,0 4.67886,3.59926 4.98787,6.19108c0.169,1.41715 -1.02118,2.38906 -1.39896,4.85508c-0.16199,1.05734 1.26287,3.20608 1.16661,4.23577c-0.32381,3.46459 -1.58103,5.04216 -1.58103,5.04216c0,0 -7.14664,5.19228 -26.7287,4.90308c-16.77843,-0.24779 -24.03136,-6.42866 -24.03136,-6.42866z" fill="#e1e2db" stroke="#3a2f41" stroke-width="2.5"/></g><path d="M155.68392,358.59097l23.50299,-16.69949l32.09515,34.01887l-32.86444,4.90776z" fill="#3a2f41" stroke="#3a2f41" stroke-width="2.5"/></g><g data-paper-data="{&quot;index&quot;:null}"><g stroke-linecap="round"><path d="M313.35902,267.83736c0,0 -29.02452,18.68913 -87.46199,15.63674c-74.38111,-3.88518 -78.10702,-27.98302 -78.10702,-27.98302c0,0 17.16336,-33.70176 26.5093,-47.36287c9.07411,-13.26378 28.77489,-33.44697 28.77489,-33.44697c0,0 48.12254,-1.40787 58.97089,-1.29201c4.13434,0.04417 4.31494,1.26275 4.31494,1.26275c0,0 17.75152,27.11967 24.09255,40.8307c4.02987,8.71363 12.33048,22.34611 16.44872,33.84171c3.70819,10.35099 6.45773,18.51298 6.45773,18.51298z" fill="#3a2f41" stroke="none" stroke-width="0.5"/><path d="M272.38326,183.30921l-9.88465,-0.81915c0,0 -31.14399,7.03035 -39.74353,7.15222c-10.42218,0.1477 -24.94832,-8.06749 -24.94832,-8.06749" fill="none" stroke="#e1e2db" stroke-width="1.5"/><path d="M266.61007,175.02732c29.88044,43.24736 47.13867,92.48974 47.13867,92.48974c0,0 -28.22241,19.66049 -94.86606,15.63676c-66.64365,-4.02372 -71.09264,-27.66271 -71.09264,-27.66271c0,0 11.51274,-25.60667 27.56129,-49.00925c10.45647,-15.248 29.47291,-34.05251 29.47291,-34.05251z" fill="none" stroke="#3a2f41" stroke-width="2.5"/></g><path d="M275.75014,248.27966c6.64485,-1.0088 13.35446,3.08338 14.98634,9.14013c1.63189,6.05675 -2.43193,11.78449 -9.07678,12.79329c-6.64485,1.0088 -13.35446,-3.08338 -14.98634,-9.14013c-1.63189,-6.05675 2.43193,-11.78449 9.07678,-12.79329z" fill="#e1e2db" stroke="#3a2f41" stroke-width="2" stroke-linecap="butt"/><path d="M288.20076,227.74234c3.70962,-0.83797 7.96117,1.58659 9.49614,5.4154c1.53496,3.82881 -0.22793,7.61199 -3.93753,8.44996c-3.70962,0.83797 -7.96117,-1.58659 -9.49614,-5.4154c-1.53496,-3.82881 0.22793,-7.61199 3.93753,-8.44996z" fill="#e1e2db" stroke="#3a2f41" stroke-width="2" stroke-linecap="butt"/><path d="M255.6159,235.33314c2.74404,0 4.96852,1.76801 4.96852,3.94897c0,2.18094 -2.22448,3.94897 -4.96852,3.94897c-2.74404,0 -4.96852,-1.76801 -4.96852,-3.94897c0,-2.18095 2.22448,-3.94897 4.96852,-3.94897z" fill="#e1e2db" stroke="#3a2f41" stroke-width="2" stroke-linecap="butt"/><path d="M168.52069,242.35356c7.26362,0 13.15196,5.1076 13.15196,11.40814c0,6.30053 -5.88834,11.40813 -13.15196,11.40813c-7.26362,0 -13.15196,-5.10759 -13.15196,-11.40813c0,-6.30054 5.88834,-11.40814 13.15196,-11.40814z" fill="#e1e2db" stroke="#3a2f41" stroke-width="2" stroke-linecap="butt"/></g><g data-paper-data="{&quot;index&quot;:null}"><g><path d="M197.69834,95.07205c0,-1.12536 6.68967,-20.69263 6.68967,-20.69263l12.95188,7.70476c0,0 0.65502,-4.07056 2.09699,-5.73821c1.61265,-1.86505 4.62427,-2.92627 4.62427,-2.92627c0,0 -0.80622,4.74985 6.24613,6.04925c6.66699,1.2284 22.14105,-4.89691 22.14105,-4.89691l2.27293,8.67443l15.07095,-4.73292c0,0 -2.59388,15.14262 -2.59388,18.05849c0,9.38884 -18.66267,15.5 -36.75,15.5c-18.08733,0 -32.75,-7.61116 -32.75,-17z" fill="#e1e2db" stroke="#3a2f41" stroke-width="2" stroke-linecap="butt"/><g data-paper-data="{&quot;index&quot;:null}"><path d="M267.90501,128.29493c-2.02806,-0.26308 -4.02357,-0.37293 -5.54724,-0.51449c-17.54065,-1.62965 -36.44949,-2.45728 -53.96332,-3.46141c-2.10568,-0.12072 -4.24317,-0.23759 -6.40164,-0.35189c-0.92203,-11.9613 -2.97765,-21.62059 7.97346,-30.45136c8.49364,-6.84912 19.10526,-6.83349 29.14902,-6.23904c9.15453,0.54183 29.48825,9.12366 30.80188,12.90314c3.18921,9.17579 1.02138,19.25238 -2.01217,28.11506z" fill="#b8c1c0" stroke="#3a2f41" stroke-width="2" stroke-linecap="butt"/><g><path d="M221.53301,89.20803c-0.46104,-0.31837 2.60975,-4.46045 3.07819,-4.77238c0.18618,-0.05123 0.48331,-0.40014 1.13336,0.09294c2.96862,2.25173 9.75537,8.81409 9.75537,8.81409l-10.70405,7.57817z" data-paper-data="{&quot;index&quot;:null}" fill="#8c9ca0" stroke="#3a2f41" stroke-width="4.5" stroke-linecap="round"/><path d="M235.52628,93.3838c0,0 -8.08366,-7.89378 -4.52748,-9.52367c4.23114,-1.93924 20.28837,2.3046 21.30758,1.90543c1.05917,-1.56274 2.7909,4.24501 2.77309,5.56815c-1.06264,2.62177 -11.43981,10.86322 -11.43981,10.86322z" fill="#3a2f41" stroke="#3a2f41" stroke-width="4.5" stroke-linecap="round"/><path d="M223.51262,88.90536c0.02874,-0.45615 1.33108,-4.06876 2.38695,-4.468c0.629,-0.52812 12.05313,-4.95877 13.57976,-4.63872c2.41309,0.5059 12.08009,5.34092 13.04854,6.28416c0.53708,0.28815 0.58303,3.42142 0.53939,4.69568" fill="none" stroke="#3a2f41" stroke-width="6.5" stroke-linecap="butt"/><g><path d="M221.53301,89.20803c-0.46104,-0.31837 2.60975,-4.46045 3.07819,-4.77238c0.18618,-0.05123 0.48331,-0.40014 1.13336,0.09294c2.96861,2.25173 9.75537,8.81409 9.75537,8.81409l-10.70405,7.57817z" data-paper-data="{&quot;index&quot;:null}" fill="#b8c1c0" stroke="#12161a" stroke-width="0" stroke-linecap="round"/><path d="M235.52628,93.38379c0,0 14.90425,-6.88357 16.78009,-7.61824c1.05917,-1.56273 2.7909,4.24502 2.77309,5.56816c-1.06265,2.62177 -11.43982,10.86322 -11.43982,10.86322z" fill="#b8c1c0" stroke="#12161a" stroke-width="0" stroke-linecap="round"/><path d="M223.51262,88.90536c0.02874,-0.45615 1.33108,-4.06876 2.38695,-4.468c0.629,-0.52812 12.05313,-4.95877 13.57976,-4.63872c2.41309,0.5059 12.08009,5.34092 13.04854,6.28416c0.53708,0.28815 0.58303,3.42142 0.53939,4.69568" fill="none" stroke="#b8c1c0" stroke-width="2" stroke-linecap="butt"/></g></g></g><g data-paper-data="{&quot;index&quot;:null}"><g><path d="M201.55738,162.56886l4.14162,-4.67767c0,0 -0.43556,-6.39296 -0.88204,-14.96908c-0.75415,-14.48545 -5.42966,-25.66625 1.27097,-36.40492c4.19725,5.46599 13.47062,8.36367 19.36038,7.05484c4.64295,-1.03177 8.42279,-2.83519 13.19827,-3.17457c3.63739,-0.2585 7.70129,-0.83155 11.30173,-1.32543c0.4927,0 0.97708,-0.03563 1.4507,-0.10446c4.83535,-0.70269 8.5493,-4.86539 8.5493,-9.89554c0,-0.00933 -0.00002,-0.01865 -0.00004,-0.02797c4.51675,2.04055 7.96631,4.1915 8.55442,5.74909c7.69981,20.39301 -7.4274,46.71517 -5.83132,54.77552c0.12148,0.61342 3.13487,9.1328 3.13487,9.1328l-1.39813,1.83043l0.83798,2.9901c0,0 -4.17645,2.66568 -5.51452,2.71221c-1.58884,0.05526 -5.62175,-1.4088 -7.07898,-0.81572c-2.52746,1.02863 -24.81907,6.77364 -31.94267,6.47877c-9.14957,-0.37873 -19.24764,-10.06016 -19.24764,-10.06016c-0.26234,-0.305 0.11497,-2.88913 0.11497,-2.88913l-1.38142,-3.12807l2.64648,-1.45951z" fill="#9aac9c" stroke="#3a2f41" stroke-width="2" stroke-linecap="round"/><g stroke="none"><g fill="#9aac9c" stroke-width="0" stroke-linecap="round"><g><g><path d="M197.49034,116.29229c2.85998,-3.95203 6.25439,-7.42926 8.6567,-9.69875c4.22464,5.41659 13.43901,8.28121 19.30128,6.97848c4.64295,-1.03177 8.42279,-2.83519 13.19827,-3.17457c3.63739,-0.2585 7.70129,-0.83155 11.30173,-1.32543c0.4927,0 0.97708,-0.03563 1.4507,-0.10446c1.62466,-0.2361 3.12271,-0.86282 4.39583,-1.7818l4.5327,0.32634c0,0 2.03186,1.97619 4.77947,6.48694c0.46305,0.76018 0.8862,1.57635 1.26828,2.4263c2.37803,5.29003 3.16464,11.888 2.07362,14.4346c-1.01216,3.39107 -2.3278,6.85901 -6.38197,9.58051c-2.97672,1.9982 -6.41645,2.29065 -9.795,2.84902c-6.43611,1.06365 -14.50449,-0.30435 -22.71939,-0.95845c-7.8135,-0.62214 -17.68775,3.22502 -23.35125,1.22523c-2.74767,-0.9702 -1.99662,-0.94165 -4.63095,-3.26957c-5.7081,-5.0442 -9.45636,-16.29585 -8.8768,-16.93037c0.69721,-2.70972 3.09551,-4.71316 4.79677,-7.06402z"/></g></g></g><g stroke-linecap="butt"><g><g fill="none" stroke-width="1" font-family="sans-serif" font-weight="normal" font-size="12" text-anchor="start"/><path d="M260.19198,110.33125c0,-0.27067 -1.46154,-2.14721 -3.07299,-4.28915c0.30566,-0.3144 0.59082,-0.64883 0.85332,-1.00114c1.54293,2.05454 4.03331,5.42063 4.72973,6.65574c1.11659,1.98025 -2.51007,-1.01681 -2.51007,-1.36549z" fill="#ffffff" stroke-width="0"/><path d="M262.60134,108.68528c-1.64779,-1.62191 -3.24689,-3.05243 -4.36252,-4.01973c0.16334,-0.24163 0.31641,-0.49079 0.45855,-0.74684c2.22041,2.5082 4.15747,5.0161 3.90396,4.76657z" fill="#ffffff" stroke-width="0"/></g><path d="M206.07197,106.49636c0.25056,0.32771 0.51936,0.64621 0.8046,0.95516c-0.14807,0.13032 -0.23648,0.22414 -0.25289,0.27459c-0.10859,0.33374 -4.51333,2.22669 -2.82783,0.63162c0.43647,-0.41306 1.28336,-1.09453 2.27612,-1.86137z" data-paper-data="{&quot;index&quot;:null}" fill="#ffffff" stroke-width="0"/></g></g><path d="M268.50266,104.79317c0.91818,2.43181 1.51176,4.94793 1.84781,7.50736c-0.1578,0.95243 -68.88079,26.20242 -68.88079,26.20242l-9.75159,-15.32541c0,0 8.85942,-10.50991 14.23433,-16.84007c4.13009,5.58202 13.54188,8.55768 19.49586,7.23457c4.64295,-1.03177 8.42279,-2.83519 13.19827,-3.17457c3.63739,-0.2585 7.70129,-0.83155 11.30173,-1.32543c0.4927,0 0.97708,-0.03563 1.4507,-0.10446c4.83535,-0.70269 8.5493,-4.86539 8.5493,-9.89554c0,-0.00932 -0.00002,-0.01865 -0.00004,-0.02796c4.51674,2.04055 7.9663,4.1915 8.55441,5.74909z" fill="#7b828c" stroke="none" stroke-width="0" stroke-linecap="butt"/><g stroke="none"><g fill="#7b828c" stroke-width="0" stroke-linecap="round"><g><g><path d="M192.69357,122.01853c5.28443,-5.82298 10.40737,-11.9466 13.36356,-15.54164c4.18252,5.49204 13.48698,8.40719 19.39119,7.09514c4.64295,-1.03177 8.42279,-2.83519 13.19827,-3.17457c3.63739,-0.2585 7.70129,-0.83155 11.30173,-1.32543c0.4927,0 0.97708,-0.03563 1.4507,-0.10446c1.64689,-0.23933 3.16368,-0.88004 4.44797,-1.81969l4.48056,0.36422l4.77947,6.48693l-65.93666,23.84475c0,0 -2.65379,-5.08416 -3.58606,-7.66887c-1.28902,-3.57374 -3.38713,-6.22714 -2.89074,-8.15637z"/></g></g></g><g fill="none" stroke-width="1" stroke-linecap="butt" font-family="sans-serif" font-weight="normal" font-size="12" text-anchor="start"><g><g/></g></g></g><path d="M259.94828,99.04405c4.51675,2.04054 7.96632,4.19149 8.55443,5.74909c5.31653,14.08089 -0.24989,30.98853 -3.6797,42.75954c-1.5375,5.27665 -2.64564,9.5211 -2.15162,12.01597c0.12148,0.61342 3.13487,9.1328 3.13487,9.1328l-1.39813,1.83043l0.83798,2.9901c0,0 -4.17645,2.66568 -5.51452,2.71221c-1.58884,0.05526 -5.62175,-1.40881 -7.07898,-0.81573c-2.52746,1.02863 -24.81907,6.77364 -31.94267,6.47877c-9.14957,-0.37873 -19.24764,-10.06016 -19.24764,-10.06016c-0.26234,-0.305 0.11497,-2.88913 0.11497,-2.88913l-1.38142,-3.12807l2.64648,-1.45951l-1.28493,-1.79149l4.14162,-4.67768c0,0 -0.27181,-3.98954 -0.6061,-9.89327" fill="none" stroke="#3a2f41" stroke-width="2" stroke-linecap="round"/><g fill="none" stroke="none" stroke-width="1" stroke-linecap="butt" font-family="sans-serif" font-weight="normal" font-size="12" text-anchor="start"><g/></g></g><g fill="none"><g stroke="none" stroke-width="1" stroke-linecap="butt" font-family="sans-serif" font-weight="normal" font-size="12" text-anchor="start"><g><g/></g></g><g stroke="#3a2f41" stroke-width="2" stroke-linecap="round"><g><g><path d="M205.41854,143.90522c-9.39672,-7.91464 -13.07948,-20.87326 -13.07948,-20.87326c0,0 6.13205,-8.64317 13.5738,-16.74829"/></g></g></g></g></g><path d="M245.41156,89.79813c0,0 0.12485,9.5857 1.09379,8.36724c3.03343,-3.81458 7.81189,-8.66968 12.90606,-10.10891c10.80791,-3.05351 23.03692,0.51555 23.03692,0.51555l-8.25,8c0,0 11.03711,6.0383 14.17443,19.10731c0.09565,0.39845 -14.52376,0.89269 -19.42443,2.89269c-0.27687,0.113 1.48735,2.68858 1.79613,5.549c0.2728,2.52707 -0.91962,5.38621 -0.91962,5.38621l-26.44184,-11.37454l-0.19652,4.46863l-13.98815,-9.52929z" fill="#e1e2db" stroke="#3a2f41" stroke-width="2" stroke-linecap="butt"/><path d="M229.73142,112.66945l-12.8419,7.20794l0.42728,-4.44383l-23.39853,7.06931c0,0 -0.60995,-3.01122 -0.05038,-5.46382c0.63338,-2.77612 2.43441,-5.0418 2.22005,-5.19697c-3.79421,-2.74668 -15.8354,-5.53664 -15.70358,-5.91505c4.32361,-12.412 14.26079,-16.63716 14.26079,-16.63716l-5.77561,-9.1992c0,0 10.59818,-1.59904 19.14512,3.11812c4.02849,2.22337 7.34453,7.77029 9.35287,12.01492c0.64151,1.35582 2.01055,-8.09065 2.01055,-8.09065z" data-paper-data="{&quot;index&quot;:null}" fill="#e1e2db" stroke="#3a2f41" stroke-width="2" stroke-linecap="butt"/></g><path d="M225.19832,181.32202l-2.47133,-10.42246l3.85996,-8.43598l2.11137,-50.14156" fill="none" stroke="#3a2f41" stroke-width="2" stroke-linecap="round"/><path d="M220.19832,125.32202l9.5,-11v14.5z" fill="#b8c1c0" stroke="#3a2f41" stroke-width="2" stroke-linecap="butt"/></g><g stroke="#3a2f41" stroke-width="2"><path d="M333.78148,170.52658l-33.27309,51.66511l-17.80026,-3.35054c0,0 -16.81742,-49.9768 -17.07307,-50.34108c-1.5348,-3.66195 18.01098,-8.6653 18.01098,-8.6653l-17.75558,-33.38763l4.05079,-21.76079l20.08568,4.87873c0,0 10.84851,18.49916 24.18528,35.1954z" data-paper-data="{&quot;index&quot;:null}" fill="#9aac9c" stroke-linecap="butt"/><g data-paper-data="{&quot;index&quot;:null}"><path d="M277.03442,218.31617c-5.38519,-13.38127 -19.0179,-36.80291 -19.0179,-36.80291c0,0 9.61522,-13.98385 13.98179,-14.31278c4.18535,-0.31528 17.8396,17.18713 17.8396,17.18713c0,0 5.5154,29.40778 2.26264,31.28694c-3.51176,2.02879 -14.70925,3.52837 -15.06612,2.64162z" fill="#e1e2db" stroke-linecap="butt"/><path d="M283.4033,177.54605l-19.31304,12.17643" fill="none" stroke-linecap="round"/></g></g></g></g></svg>