<svg version="1.1" xmlns="http://www.w3.org/2000/svg" xmlns:xlink="http://www.w3.org/1999/xlink" width="281.58525" height="676.38251" viewBox="0,0,281.58525,676.38251"><defs><linearGradient x1="258.24935" y1="-78.54897" x2="263.33374" y2="17.77672" gradientUnits="userSpaceOnUse" id="color-1"><stop offset="0" stop-color="#cedee0" stop-opacity="0"/><stop offset="1" stop-color="#cedee0" stop-opacity="0.19676"/></linearGradient></defs><g transform="translate(-91.96963,159.76569)"><g data-paper-data="{&quot;isPaintingLayer&quot;:true}" fill-rule="nonzero" stroke-linejoin="miter" stroke-miterlimit="10" stroke-dasharray="" stroke-dashoffset="0" style="mix-blend-mode: normal"><g data-paper-data="{&quot;index&quot;:null}" stroke="#3a2f41" stroke-width="2"><g fill="#e1e2db"><path d="M350.52187,255.81956l-33.42055,5.87046l29.95774,-22.70997z" stroke-linecap="round"/><path d="M354.94371,261.03223l-30.67553,14.50542l22.87984,-29.82821z" stroke-linecap="round"/><path d="M344.8686,163.17681c0,0 11.06359,46.71618 13.26632,62.96251c0.75495,5.56824 3.96969,21.61177 3.96969,21.61177l-5.9542,12.18711c-0.08131,-1.69661 -2.96871,-26.82492 -1.426,-16.28808c1.54271,10.53683 1.79884,18.83463 1.79884,18.83463l-21.00462,23.49693l6.36421,-27.10989c0,0 -10.29872,-28.69638 -11.61756,-29.66147c-5.3809,-3.93763 -18.95454,23.09124 -18.95454,23.09124l2.25477,-30.98313l18.36086,-14.13658c0,0 0.01776,-3.75407 -0.18892,-9.21777c-0.32242,-8.52345 -3.26715,-36.15546 -3.26715,-36.15546l4.63614,2.55411l2.51668,-11.02693l5.25294,14.06135l3.99254,-4.2203z" stroke-linecap="butt"/></g><g stroke-linecap="butt"><path d="M314.57644,212.21558c0,0 -2.41592,-48.86028 -9.05389,-79.29622c-5.20773,-23.87811 -23.60564,-100.71698 -15.43276,-100.33678c14.98926,0.6973 48.6838,88.85904 62.00973,122.34125c7.42195,18.6481 11.17929,50.19919 11.17929,50.19919z" fill="#3a2f41"/><path d="M313.95894,201.03848l-0.21109,-2.60007l47.88396,-4.55468l0.54564,2.63968z" fill="#8ea8ab"/></g></g><g data-paper-data="{&quot;index&quot;:null}" stroke-linecap="butt"><path d="M244.9349,402.12763l-3.59183,72.02061l-87.27573,42.46858l39.7481,-117.72002l5.95385,-88.92456l52.54288,2.30208z" fill="#3a2f41" stroke="none" stroke-width="0"/><path d="M233.13389,382.58183l1.09615,-12.7922l24.14768,-12.01887l-1.09615,12.79221z" fill="#3a2f41" stroke="#3a2f41" stroke-width="2.5"/><path d="M234.59416,396.50155l0.94641,-11.04456l20.84866,-10.78672l-0.94641,11.04456z" fill="#3a2f41" stroke="#3a2f41" stroke-width="2.5"/><path d="M233.49537,376.49593c0,0 -7.31186,2.74482 -16.74943,1.93612c-9.36841,-0.80275 -13.22101,-4.50428 -13.22101,-4.50428l-0.62905,-7.54585c0,0 5.52255,4.21921 13.61127,4.91232c9.07363,0.77752 17.62552,-2.23565 17.62552,-2.23565l-0.63729,7.43734z" fill="#8c9ca0" stroke="#3a2f41" stroke-width="2"/><path d="M232.74222,387.59626c0,0 -6.97732,2.77351 -15.96548,2.00331c-8.9223,-0.76454 -12.57779,-4.44916 -12.57779,-4.44916l-0.56875,-7.54067c0,0 5.24441,4.19537 12.94795,4.85548c8.64155,0.7405 16.80138,-2.30627 16.80138,-2.30627l-0.63729,7.43733z" fill="#8c9ca0" stroke="#3a2f41" stroke-width="2"/><path d="M230.89355,399.98308c0,0 -6.81007,2.78783 -15.57353,2.0369c-8.69925,-0.74543 -12.25618,-4.4216 -12.25618,-4.4216l-0.53859,-7.5381c0,0 5.10533,4.18346 12.61629,4.82706c8.42553,0.72199 16.38933,-2.34157 16.38933,-2.34157l-0.6373,7.43733z" fill="#8c9ca0" stroke="#3a2f41" stroke-width="2"/></g><g stroke-linecap="butt"><path d="M270.31006,311.935l53.54288,-5.30209l6.95384,90.92456l42.7481,79.72002l-90.27573,-4.46857l-3.59184,-72.02062z" fill="#3a2f41" stroke="none" stroke-width="0"/><path d="M267.674,370.22365l-1.09615,-12.79221l24.14768,9.01887l1.09615,12.7922z" fill="#3a2f41" stroke="#3a2f41" stroke-width="2.5"/><path d="M268.51273,385.04216l-0.94641,-11.04456l20.84866,7.78672l0.94641,11.04456z" fill="#3a2f41" stroke="#3a2f41" stroke-width="2.5"/><path d="M298.12686,374.1566l-0.63729,-7.43734c0,0 8.55189,3.01317 17.62552,2.23565c8.08872,-0.69311 13.61127,-4.91231 13.61127,-4.91231l-0.62906,7.54585c0,0 -3.8526,3.70151 -13.22101,4.50427c-9.43757,0.8087 -16.74943,-1.93612 -16.74943,-1.93612z" fill="#8c9ca0" stroke="#3a2f41" stroke-width="2"/><path d="M299.87999,386.25695l-0.63729,-7.43734c0,0 8.15983,3.04677 16.80138,2.30627c7.70354,-0.66011 12.94795,-4.85548 12.94795,-4.85548l-0.56875,7.54067c0,0 -3.6555,3.68462 -12.57779,4.44916c-8.98816,0.7702 -15.96548,-2.0033 -15.96548,-2.0033z" fill="#8c9ca0" stroke="#3a2f41" stroke-width="2"/><path d="M300.72864,398.64377l-0.63729,-7.43734c0,0 7.96379,3.06356 16.38932,2.34157c7.51097,-0.64361 12.61629,-4.82706 12.61629,-4.82706l-0.5386,7.5381c0,0 -3.55693,3.67617 -12.25618,4.4216c-8.76346,0.75094 -15.57352,-2.03689 -15.57352,-2.03689z" fill="#8c9ca0" stroke="#3a2f41" stroke-width="2"/></g><g><path d="M330.16371,284.94889l-5.23377,10.91369l5.24072,10.4861l-15.16928,9.76125l-32.80953,0.93313l-17.60322,-9.78099l4.76562,-10.15863l-5.14858,-8.94309l8.853,-12.89538c0,0 3.47137,1.56955 7.61354,1.00269c0.2921,-0.03998 31.40444,-2.83066 31.69759,-2.86012c5.31001,-0.5337 8.71749,-0.06399 8.71749,-0.06399z" fill="#e1e2db" stroke="#3a2f41" stroke-width="2.5" stroke-linecap="butt"/><g data-paper-data="{&quot;index&quot;:null}"><path d="M296.3296,123.28004l24.48638,140.69401l3.28918,8.45293l-3.04266,7.47873l-17.76542,8.64927l-30.39434,-7.77315c0,0 -4.42442,-57.01918 -6.09249,-93.43953c-2.29102,-26.52623 -0.86,-52.46856 -0.86,-52.46856" fill="#e1e2db" stroke="none" stroke-width="0" stroke-linecap="round"/><path d="M305.35057,168.28824l-7.9444,-0.80755l-9.60312,-39.35352" fill="none" stroke="#3a2f41" stroke-width="2" stroke-linecap="round"/><path d="M304.92339,173.90306l-10.92149,-0.96123l-9.38287,-37.42043" fill="none" stroke="#3a2f41" stroke-width="2" stroke-linecap="round"/><path d="M304.29853,249.90974c0,0 8.17279,3.9084 11.59522,2.24204c3.42243,-1.66636 1.14073,-8.69947 1.21288,-9.19546c0.32251,-2.21687 3.73733,23.53636 3.73733,23.53636z" fill="#8c9ca0" stroke="none" stroke-width="0" stroke-linecap="butt"/><path d="M297.47603,126.23581c0,0 4.04168,24.08501 6.80246,40.53692c4.29598,25.60041 16.47127,98.15487 16.47127,98.15487l3.32666,7.41731l-3.44266,6.46607l-17.87283,9.16798l-29.50981,-8.32274l-6.91215,-101.07358" fill="none" stroke="#3a2f41" stroke-width="2.5" stroke-linecap="round"/></g></g><g><path d="M260.55009,288.26058l-6.1502,10.34284l4.31589,10.96532l-15.94369,8.20107l-32.74826,-2.35432l-16.68571,-11.50044l5.61911,-9.63788l-4.35691,-9.41975l9.92432,-11.95378c0,0 3.32134,1.91018 7.49442,1.76029c0.29428,-0.01057 31.5125,0.32436 31.80692,0.32436c5.33302,0 8.68539,0.80869 8.68539,0.80869z" fill="#e1e2db" stroke="#3a2f41" stroke-width="2.5" stroke-linecap="butt"/><g><path d="M259.60012,134.51246c0,0 1.45415,25.94232 -0.87389,52.46856c-1.73688,37.32009 -6.60306,95.48141 -6.60306,95.48141l-29.68716,6.24174l-17.75844,-8.97401l-4.17187,-7.66446l3.34232,-8.45293l22.39004,-141.19401" fill="#e1e2db" stroke="none" stroke-width="0" stroke-linecap="round"/><path d="M243.49677,131.50935l-9.11697,37.99226l-15.04456,1.66881" fill="none" stroke="#3a2f41" stroke-width="2" stroke-linecap="round"/><path d="M247.68395,136.52136l-9.2138,38.10106l-20.60205,2.98217" fill="none" stroke="#3a2f41" stroke-width="2" stroke-linecap="round"/><path d="M203.81956,266.13136c0,0 2.9296,-26.75323 3.25732,-24.53636c0.07332,0.49598 -1.70485,8.5291 1.77287,10.19546c3.47772,1.66636 11.78255,-2.24204 11.78255,-2.24204z" fill="#8c9ca0" stroke="none" stroke-width="0" stroke-linecap="butt"/><path d="M258.71649,178.9919l-6.03704,83.67563l-1.10148,19.17979l-28.13913,7.30179l-19.10078,-9.91984l-4.27649,-7.24563l3.3804,-7.41731l22.64973,-138.69179" fill="none" stroke="#3a2f41" stroke-width="2.5" stroke-linecap="round"/></g></g><g><path d="M255.24031,180.2907l-5.09644,-44.26858l20.34638,2.65391l-0.0948,38.10244z" fill="#e1e2db" stroke="none" stroke-width="0" stroke-linecap="butt"/><path d="M270.03987,177.01426l-13.73459,3.2791" fill="none" stroke="#3a2f41" stroke-width="2.5" stroke-linecap="round"/></g><g><g data-paper-data="{&quot;index&quot;:null}" stroke="#3a2f41" stroke-width="2" stroke-linecap="round"><path d="M266.49421,-76.1893l28.30847,-80.42753c0,0 19.51995,61.3955 19.28608,118.49168" fill="#3a2f41"/><path d="M290.29878,-125.89742l-6.76742,1.30364l11.27131,-32.02305c0,0 3.95652,12.44434 8.28568,31.33807c1.21013,5.28138 -5.85476,-4.54495 -5.85476,-4.54495l-2.14358,12.13975z" fill="#848187"/></g><path d="M313.27546,17.83683c-5.33871,-2.69295 -16.63091,-5.22227 -20.45197,-6.98073c-0.29377,-0.1352 -0.54828,-13.04228 -0.54828,-13.04228c0,0 -1.50048,12.48329 -2.00366,12.3449c-32.47271,-8.93055 -65.18522,-1.10449 -65.18522,-1.10449c0,0 -7.92029,-15.58339 -7.92029,-28.77571c0,-9.21902 1.06767,-27.43116 14.09443,-41.61269c10.50614,-11.43747 28.93687,-14.99205 32.75966,-15.14742c3.05673,-0.12424 15.96913,4.61568 23.62124,11.82289c12.73755,11.99703 25.98079,38.81064 25.98079,38.81064z" fill="#3a2f41" stroke="none" stroke-width="0" stroke-linecap="butt"/><path d="M310.4788,-24.70082c0,17.3493 -23.65583,25.81906 -47.38955,27.01367c-1.96654,0.09898 -4.59666,-34.24236 -6.52578,-34.24236c-5.24061,0 -9.85277,33.9956 -14.94009,33.20143c-19.3864,-3.0264 -35.87614,-11.85273 -35.87614,-26.73437c0,-10.39955 6.75831,-30.46031 20.01828,-46.45784c15.40704,-18.58784 47.79146,-18.15436 64.3706,-0.84935c15.7028,16.39035 20.31101,34.36857 20.31101,46.92635z" fill="#3a2f41" stroke="none" stroke-width="0" stroke-linecap="butt"/><g stroke-linecap="butt"><path d="M305.34432,-20.5185c0,8.43687 -0.64263,15.96369 -6.95968,21.40964c-6.14077,5.29399 -17.7533,8.62159 -31.81656,8.90728c-28.1578,0.57205 -38.77624,-13.6786 -38.77624,-30.31693c0,-16.63833 11.79789,-37.77266 44.33908,-36.85511c21.40579,0.60357 33.2134,20.21676 33.2134,36.85511z" fill="#e1e2db" stroke="none" stroke-width="0"/><path d="M305.34432,-20.5185c0,16.63833 -15.82454,6.17442 -33.38611,6.30644c-17.55806,0.13199 -44.16637,10.33189 -44.16637,-6.30644c0,-16.63833 11.79789,-37.77266 44.33908,-36.85511c21.40579,0.60357 33.2134,20.21676 33.2134,36.85511z" fill="#b8c1c0" stroke="none" stroke-width="0"/><path d="M278.19747,-56.65816c17.55901,3.73799 27.14685,21.14662 27.14685,36.13965h-0.00001c0,7.89224 -1.30942,15.31677 -6.77801,20.6579c-6.06022,5.91898 -17.00108,9.35435 -31.99822,9.65903c-28.1578,0.57205 -38.77624,-13.6786 -38.77624,-30.31693c0,-14.12276 8.5001,-31.48477 30.97083,-35.8508" fill="none" stroke="#3a2f41" stroke-width="2"/></g><path d="M211.26828,7.13246l-7.85319,-6.14671l1.92206,-41.24328c0,0 5.66266,-13.63749 9.1946,-19.54248c4.93433,-8.24959 17.90089,-20.32413 17.90089,-20.32413c0,0 24.74011,-7.571 42.49854,-4.18368c20.2377,3.86021 33.39172,19.09866 41.52289,28.42522c4.15125,4.76154 8.69009,7.39901 8.69009,7.39901l-7.06517,7.63069l-5.57651,-7.34471c0,0 6.36118,8.4117 4.99087,22.00158c-23.68384,-4.66721 -48.82747,-4.21471 -67.56326,-2.53488c-0.4998,0.04481 -2.61576,-18.16885 -2.61576,-18.16885c0,0 0.05492,18.66286 -0.31882,18.6891c-4.41763,0.30999 -9.75874,0.83708 -13.22911,1.32362c-0.44443,0.06231 -1.13952,-11.01145 -2.33138,-13.03969c0.60483,8.75368 6.84149,59.00069 6.68049,59.02783c-2.50442,0.42213 -24.12972,-7.53885 -24.18336,-9.23362c-0.0775,-2.44829 -0.21622,-18.49459 -0.21622,-18.49459z" fill="#3a2f41" stroke="url(#color-1)" stroke-width="0.5" stroke-linecap="butt"/><g stroke="#3a2f41" stroke-width="2" stroke-linecap="round"><path d="M205.6078,-27.21552c-4.75513,-56.8983 9.841,-119.64692 9.841,-119.64692l34.58938,77.93287" fill="#3a2f41"/><path d="M218.24584,-108.02911l-3.0983,-11.93185c0,0 -6.26446,10.355 -5.47641,4.99437c2.81917,-19.17725 5.77768,-31.89585 5.77768,-31.89585l13.77212,31.02978l-6.84941,-0.76357z" fill="#848187"/></g></g><g><path d="M295.05833,38.05722c-2.57744,18.03332 -7.59708,36.7804 -6.75977,52.42135c0.68706,12.83431 4.751,23.57722 7.09233,30.11828c1.56101,4.36106 1.80082,6.85432 1.80082,6.85432c0,0 -14.79087,12.29044 -26.13269,12.77625c-11.35221,0.48626 -45.04514,-12.86242 -45.04514,-12.86242c0,0 -1.19696,-2.19386 0.69674,-7.42974c2.17356,-6.00967 7.46657,-15.70951 7.28975,-25.35782c-0.28021,-15.28926 -8.74246,-32.11171 -13.18782,-53.18049c1.71065,-5.05781 24.72246,-15.04657 34.85198,-14.99873c5.85798,0.02766 17.67026,0.43061 26.57115,3.45102c7.12513,2.41783 12.70506,6.59053 12.70506,6.59053" fill="#3a2f41" stroke="#3a2f41" stroke-width="2" stroke-linecap="round"/><path d="M270.42092,53.82813c0,2.74023 -2.16885,4.96161 -4.84426,4.96161c-2.6754,0 -4.84426,-2.22139 -4.84426,-4.96161c0,-2.74023 2.16885,-4.96161 4.84426,-4.96161c2.67539,0 4.84426,2.22139 4.84426,4.96161z" fill="#8c9ca0" stroke="#3a2f41" stroke-width="2" stroke-linecap="butt"/><path d="M272.42805,73.23928c0,2.74023 -2.27051,4.96161 -5.07135,4.96161c-2.80082,0 -5.07132,-2.22139 -5.07132,-4.96161c0,-2.74023 2.27051,-4.9616 5.07132,-4.9616c2.80082,0 5.07135,2.22138 5.07135,4.9616z" fill="#8c9ca0" stroke="#3a2f41" stroke-width="2" stroke-linecap="butt"/><g><path d="M263.92294,34.96617c-6.39812,0 -17.73329,-8.77692 -19.42243,-11.35337c-0.57191,-0.87234 11.01566,-9.3269 14.93754,-9.58786c3.00581,-0.2 18.2808,9.67673 17.62351,10.57194c-0.72339,0.98522 -6.10688,9.2879 -12.19757,10.29049c-0.3137,0.05164 -0.62764,0.07878 -0.94102,0.07878z" fill="#3a2f41" stroke="#3a2f41" stroke-width="2" stroke-linecap="butt"/><path d="M273.10473,44.3224l-9.69512,-10.6096c0,0 8.39774,-7.32564 11.82107,-9.87079c0.74963,-0.55733 1.05244,-0.10416 1.2538,-0.02654c0.49393,0.42087 3.58637,5.76531 3.05687,6.12196z" data-paper-data="{&quot;index&quot;:null}" fill="#8c9ca0" stroke="#12161a" stroke-width="0" stroke-linecap="round"/><path d="M254.97726,45.10525c0,0 -11.51614,-12.07515 -12.50387,-15.38954c0.07214,-1.63241 2.38078,-8.65712 3.43811,-6.64847c2.01358,1.05132 17.93956,10.69423 17.93956,10.69423z" fill="#8c9ca0" stroke="#12161a" stroke-width="0" stroke-linecap="round"/><path d="M244.7265,29.18752c0.04033,-1.57415 0.30817,-5.43297 0.91925,-5.74646c1.13127,-1.08752 10.90585,-8.09683 13.59672,-8.53304c1.70237,-0.27596 15.16829,7.87295 15.82395,8.57283c1.1344,0.57414 2.31721,5.12856 2.31721,5.69308" fill="none" stroke="#8c9ca0" stroke-width="2" stroke-linecap="butt"/></g><path d="M272.92805,91.73928c0,2.74023 -2.27051,4.96161 -5.07135,4.96161c-2.80082,0 -5.07132,-2.22139 -5.07132,-4.96161c0,-2.74023 2.27051,-4.9616 5.07132,-4.9616c2.80082,0 5.07135,2.22138 5.07135,4.9616z" fill="#8c9ca0" stroke="#3a2f41" stroke-width="2" stroke-linecap="butt"/><g data-paper-data="{&quot;index&quot;:null}" fill="#8c9ca0" stroke="#3a2f41" stroke-width="2" stroke-linecap="butt"><path d="M264.58923,39.632l-16.11244,11.00963l-2.73848,-26.49119l19.13643,11.99345l15.37247,-11.89824l0.55388,24.5183z"/><path d="M261.23051,41.88718l-0.39991,-7.85304l6.69818,-0.3411l0.39991,7.85304z"/></g></g><g stroke="#3a2f41"><g><path d="M106.44512,313.2274l62.86991,-78.05772l6.52496,-51.01346l-6.26354,51.50742l48.79967,94.75792z" fill="none" stroke-width="15.5" stroke-linecap="round"/><path d="M170.79584,227.56488c-5.98553,0.96351 -5.06081,-12.17901 1.63474,-13c18.22851,-2.23514 35.39228,4.78157 40.59294,12.84439c7.88575,12.22563 -2.17647,28.15561 -2.17647,28.15561c0,0 1.46381,-14.64144 -5.85337,-22.71194c-6.22044,-6.86084 -19.92015,-7.58638 -34.19784,-5.28806z" fill="#3a2f41" stroke-width="2" stroke-linecap="butt"/><path d="M134.38481,224.07341c-8.55943,5.78492 -9.88607,20.44415 -9.88607,20.44415c0,0 -6.71773,-18.34235 3.16633,-28.00943c6.51856,-6.37546 24.36895,-8.35298 41.51573,-1.02794c6.29822,2.69058 4.73234,15.73909 -0.85507,13.11046c-13.32804,-6.27025 -26.66444,-9.43508 -33.94092,-4.51724z" data-paper-data="{&quot;index&quot;:null}" fill="#3a2f41" stroke-width="2" stroke-linecap="butt"/></g><g stroke-width="2" stroke-linecap="butt"><path d="M152.0268,210.12303c0,0 3.75734,-31.55109 11.17929,-50.19919c13.32593,-33.48221 47.02047,-121.64395 62.00973,-122.34125c8.17288,-0.3802 -10.22503,76.45867 -15.43276,100.33678c-6.63797,30.43594 -9.05389,79.29622 -9.05389,79.29622z" fill="#3a2f41"/><path d="M153.12816,201.52342l0.54564,-2.63968l47.88396,4.55468l-0.21109,2.60007z" fill="#8ea8ab"/></g></g><g stroke="#3a2f41" stroke-width="1" stroke-linecap="round"><g fill="#e1e2db"><path d="M294.03622,-2.97743c0,0 -22.62944,10.86693 -32.90846,8.51477c-7.41709,-1.69726 -14.13045,-8.78364 -16.00329,-13.46852c-0.72265,-1.8077 -1.06967,-3.02513 -1.06967,-3.02513c30.57734,10.4317 50.28851,7.74443 50.28851,7.74443"/></g><path d="M288.82788,-0.83598l-1.10043,-1.4804l-5.92544,4.12955l-0.67719,-4.3633l-8.21096,6.62286l-1.52369,-7.86952l-10.15789,8.49284l-1.26974,-10.36283l-8.38025,5.60995l-2.03157,-8.64867l-3.80921,1.63623" fill="none"/></g><g stroke="#3a2f41" stroke-linecap="butt"><path d="M235.39473,-15.05415c0,0 5.42961,-4.60911 14.55456,-3.85669c9.66792,0.7972 14.29991,7.31444 14.29991,7.31444c0,0 -6.09859,-0.96453 -14.8819,-1.90458c-7.80489,-0.83533 -13.97257,-1.55316 -13.97257,-1.55316z" fill="#e1e2db" stroke-width="1"/><g fill="#3a2f41" stroke-width="0.5"><path d="M255.06107,-13.38804l0.24443,-4.47952l2.98689,1.86576l0.09263,3.36609z"/></g></g><g data-paper-data="{&quot;index&quot;:null}" fill="none" stroke="#3a2f41" stroke-width="2" stroke-linecap="round"><path d="M302.99152,-16.80738l-0.4058,6.49926l-28.05405,0.09569l-0.57838,-6.48324"/><path d="M266.21188,-16.80738l-0.44368,6.49926l-30.67228,0.09569l-0.63236,-6.48324"/><path d="M273.99728,-13.07761h-6.96878"/></g></g></g></svg>