<svg version="1.1" xmlns="http://www.w3.org/2000/svg" xmlns:xlink="http://www.w3.org/1999/xlink" width="421.65403" height="326.40206" viewBox="0,0,421.65403,326.40206"><defs><linearGradient x1="111.89084" y1="53.44083" x2="101.17247" y2="155.24415" gradientUnits="userSpaceOnUse" id="color-1"><stop offset="0" stop-color="#cedee0" stop-opacity="0"/><stop offset="1" stop-color="#cedee0" stop-opacity="0.19676"/></linearGradient></defs><g transform="translate(-17.69182,-34.34553)"><g data-paper-data="{&quot;isPaintingLayer&quot;:true}" fill-rule="nonzero" stroke-linejoin="miter" stroke-miterlimit="10" stroke-dasharray="" stroke-dashoffset="0" style="mix-blend-mode: normal"><g data-paper-data="{&quot;index&quot;:null}"><g data-paper-data="{&quot;index&quot;:null}"><path d="M249.3531,269.31239l-9.70498,-23.29924l29.92445,-5.23489l14.67539,-43.82526l18.9249,19.06972l-15.04594,48.37762z" fill="#3a2f41" stroke="#3a2f41" stroke-width="4.5" stroke-linecap="butt"/><path d="M269.19615,256.17509c2.02568,11.56737 -3.45758,18.35708 -3.45758,18.35708l-36.58907,-2.43561c0,0 -1.39761,8.46532 -7.46404,16.43814c-5.98301,7.86318 -16.58362,15.24451 -23.99437,13.95074c-7.54373,-1.31698 -10.6297,-2.50425 -13.11522,-4.89563c-4.6625,-4.48588 -9.30492,-13.39441 -8.36785,-19.73998c2.3536,-15.93763 21.25504,-31.1191 26.43547,-32.67239c5.26316,-1.57811 22.57655,-0.6242 33.04094,-2.10032c9.53393,-1.34488 26.84664,-6.29672 26.84664,-6.29672c0,0 4.46384,6.82466 6.66512,19.39468z" fill="#c1c1c1" stroke="none" stroke-width="0" stroke-linecap="round"/><path d="M197.16422,259.96551c-0.78952,-1.59305 -5.17022,-2.84749 -5.53966,-5.69588c-0.28116,-2.1676 6.57124,-7.06173 8.7938,-8.16322c2.27683,-1.1284 8.69972,-1.20654 14.25697,-1.96263c4.16501,-0.56668 7.78446,0.00132 10.3961,-0.15279c1.77528,-0.10475 3.21836,-1.23204 3.53192,-0.59935c1.39033,2.80534 -3.40254,10.93461 -8.10728,14.22317c-10.20529,7.13337 -21.9415,5.15607 -23.33182,2.35069z" fill="#837e85" stroke="none" stroke-width="0" stroke-linecap="butt"/><path d="M269.05049,256.31212c2.02568,11.56737 -3.45759,18.35708 -3.45759,18.35708l-36.32672,-2.33918c0,0 -10.03968,32.84342 -36.49789,29.71277c-2.77056,-0.32782 -7.41841,-3.43112 -8.33808,-4.31594c-4.6625,-4.48588 -9.74192,-12.98325 -8.80484,-19.32882c2.3536,-15.93763 21.69204,-31.53025 26.87246,-33.08354c5.26316,-1.57811 22.57655,-0.6242 33.04094,-2.10032c9.53393,-1.34488 26.84664,-6.29673 26.84664,-6.29673c0,0 4.46384,6.82466 6.66512,19.39469z" fill="none" stroke="#3a2f41" stroke-width="2" stroke-linecap="round"/><path d="M257.95607,238.85054c0,0 8.31073,18.36942 3.56212,35.47266" fill="none" stroke="#3a2f41" stroke-width="1.5" stroke-linecap="round"/><path d="M260.967,243.95561l4.17741,-1.36456" fill="none" stroke="#3a2f41" stroke-width="1.5" stroke-linecap="round"/><path d="M263.26867,253.61892l5.51575,-1.54005" fill="none" stroke="#3a2f41" stroke-width="1.5" stroke-linecap="round"/><path d="M263.52164,262.74755l5.82859,-0.1243" fill="none" stroke="#3a2f41" stroke-width="1.5" stroke-linecap="round"/><path d="M263.13833,270.89794l3.98516,0.07646" fill="none" stroke="#3a2f41" stroke-width="1.5" stroke-linecap="round"/><path d="M229.79152,256.86737c1.75659,-3.11745 5.4445,-4.36897 8.2372,-2.79538c2.7927,1.57361 3.63265,5.37645 1.87608,8.49389c-1.75659,3.11744 -5.4445,4.36897 -8.23721,2.79538c-2.7927,-1.57362 -3.63264,-5.37644 -1.87607,-8.49389z" fill="#837e85" stroke="none" stroke-width="0" stroke-linecap="butt"/><g stroke-linecap="butt"><path d="M179.55771,279.61382c2.08295,-5.14121 8.59259,-6.33245 14.53969,-2.66071c5.94713,3.67176 9.0796,10.81608 6.99666,15.9573c-2.08295,5.14121 -8.5926,6.33246 -14.53968,2.66072c-5.94711,-3.67175 -9.0796,-10.81606 -6.99665,-15.95728z" fill="#e1e1e0" stroke="none" stroke-width="0"/><path d="M186.25869,295.38423c-5.75462,-3.72298 -8.74911,-10.71505 -6.70096,-15.77037c2.08295,-5.14121 8.59259,-6.33248 14.5397,-2.66075c0.78626,0.48545 1.52333,1.0316 2.20564,1.62576z" fill="#b1b0b4" stroke="none" stroke-width="0"/><path d="M179.55772,279.61388c2.08296,-5.14121 8.59262,-6.33247 14.53969,-2.66073c5.94711,3.67176 9.07959,10.81606 6.99666,15.95729c-2.08295,5.14121 -8.59261,6.33245 -14.53969,2.66071c-5.9471,-3.67174 -9.07958,-10.81606 -6.99665,-15.95727z" fill="none" stroke="#3a2f41" stroke-width="1"/></g><path d="M177.2924,275.35919c7.28078,-9.30782 23.23128,8.21652 23.23128,8.21652l-11.36755,13.42464c0,0 -3.04025,-1.55041 -5.9325,-4.42168c-4.73721,-4.70286 -9.8127,-12.25738 -5.93123,-17.21949z" fill="#c1c1c1" stroke="#3a2f41" stroke-width="1" stroke-linecap="butt"/><g stroke-linecap="butt"><path d="M190.50424,265.12262c2.02229,-5.89992 9.20022,-7.85672 16.03233,-4.37065c6.83214,3.48607 10.73125,11.09491 8.70897,16.99483c-2.02228,5.8999 -9.20023,7.85671 -16.03233,4.37066c-6.83213,-3.48606 -10.73123,-11.0949 -8.70896,-16.99482z" fill="#e1e1e0" stroke="none" stroke-width="0"/><path d="M198.8733,281.93931c-6.62081,-3.56166 -10.35752,-11.01532 -8.36901,-16.81668c2.02229,-5.8999 9.2002,-7.85674 16.03234,-4.37069c0.90328,0.4609 1.75528,0.99387 2.54909,1.5854z" fill="#b1b0b4" stroke="none" stroke-width="0"/><path d="M190.50424,265.12264c2.0223,-5.8999 9.20022,-7.85674 16.03232,-4.37066c6.83216,3.48606 10.73123,11.09488 8.70898,16.99481c-2.02229,5.8999 -9.20023,7.85674 -16.03234,4.37066c-6.83212,-3.48606 -10.73124,-11.09488 -8.70896,-16.9948z" fill="#3a2f41" stroke="#3a2f41" stroke-width="1"/></g><path d="M192.7307,277.1045c-4.40955,-4.83097 -8.41832,-11.95322 -4.10817,-17.3346c8.70075,-10.86323 23.83281,5.54954 23.83281,5.54954c0,0 -1.26453,5.08496 -5.64212,9.86417c-4.79138,5.23096 -7.26608,7.64665 -7.26608,7.64665c0,0 -3.58329,-2.18362 -6.81644,-5.72576z" fill="#c1c1c1" stroke="#3a2f41" stroke-width="1" stroke-linecap="butt"/><path d="M195.16519,297.51153c0,0 -3.1717,1.96146 -8.05296,-0.38691" fill="none" stroke="#3a2f41" stroke-width="1" stroke-linecap="round"/><path d="M216.43075,266.51956c1.86507,5.18615 -1.47547,11.274 -1.47547,11.274" data-paper-data="{&quot;index&quot;:null}" fill="none" stroke="#3a2f41" stroke-width="1" stroke-linecap="round"/><path d="M215.15038,268.4849c1.4293,1.08109 0.35792,5.72125 0.31097,7.18879c-1.36684,3.51105 3.06912,5.07307 3.77445,7.80949l0.08388,-0.0226l0.11062,0.4105c0.02541,0.08736 0.00205,0.1855 -0.06874,0.2521c-0.09216,0.08673 -0.23276,0.0899 -0.32845,0.0124l-0.38387,-0.30048c-0.48242,-0.31182 -1.01856,-0.62519 -1.41935,-1.02054c-0.93058,-0.4345 -1.28245,-1.36504 -1.99646,-1.98816c-0.18177,-0.15863 0.30757,0.5006 0.17514,0.70227c-0.14062,0.21414 -0.46546,0.2912 -0.72054,0.26738c-0.29056,-0.02713 -0.67309,-0.90139 -0.9522,-0.89044c-0.23622,0.00927 1.59114,3.16438 1.75881,3.40909c0.28768,0.30485 2.93628,2.74179 1.54263,3.07081c-0.26549,0.06268 -1.07862,-0.97343 -1.25994,-1.16613c-0.79277,-0.8426 -2.39399,-2.02442 -2.97222,-3.13577c-0.35389,0.30915 -0.37011,0.87399 -0.70736,1.01914c-0.44421,0.19119 -2.11828,-0.76386 -2.49733,-1.00401c-2.64484,-1.6917 -4.76042,-2.09833 -7.88211,-1.56987c-0.1031,0.097 -0.2062,0.19399 -0.3093,0.29099l-0.07282,0.06853c0,0 -0.18208,0.17131 -0.35339,-0.01076c-0.04289,-0.0456 -0.06365,-0.09051 -0.07063,-0.13224c-0.03808,0.03438 -0.09365,0.05899 -0.17467,0.05653c-0.24988,-0.00761 -0.24228,-0.25751 -0.24228,-0.25751c0.02176,-0.69804 0.14694,-1.69903 -0.0577,-2.32794l-0.12687,-0.42319c-0.02874,-0.08905 -0.00608,-0.19069 0.06661,-0.25907c0.07269,-0.06838 0.17551,-0.08481 0.26265,-0.05069l0.41467,0.15239l-0.05783,0.15733c0.18764,0.12044 0.36283,0.2666 0.52738,0.41008c0.36495,0.3182 -0.01698,-1.02957 0.25528,-1.42995c0.49011,-0.72069 -0.94505,-2.14657 -0.36337,-2.44014l-0.08942,-0.09504c-0.09461,-0.10057 -0.08979,-0.25878 0.01077,-0.35339c0.07269,-0.06838 0.17551,-0.08481 0.26265,-0.0507l0.20194,0.07421c-0.41888,-0.28854 -0.91706,-1.0152 -1.13475,-1.24658c-1.46186,-1.55374 -2.92369,-3.10748 -4.38554,-4.66123c-1.88016,-1.99835 -3.84493,-3.79477 -5.69611,-5.76233l-0.34262,-0.36416c-0.09461,-0.10057 -0.0898,-0.25878 0.01076,-0.35339c0.10056,-0.09461 0.25878,-0.08979 0.35339,0.01077l0.27953,0.2971c2.71437,1.3899 5.01311,3.44343 7.68769,4.98633c1.63744,0.59792 3.00378,1.76187 4.67611,2.38444c0.58477,0.21771 1.13693,0.4189 1.72059,0.63272c0.12419,0.0455 0.34951,0.10764 0.55585,0.16697c-0.20392,-0.18489 -0.38548,-0.46222 -0.51561,-0.60053c-0.27865,-0.34873 -0.8379,-0.7165 -0.01728,-1.1194c0.19321,-0.09488 1.62837,0.07648 1.95581,0.0469c0.73573,-0.06645 1.54908,-0.70988 2.34998,-0.94385c-0.1442,0.00968 -0.29885,-0.01975 -0.42907,-0.06352l-0.13255,-0.03072l-0.09398,0.12835l-0.33739,-0.24705c-0.01364,-0.0096 -0.02653,-0.02074 -0.03841,-0.03334c-0.09461,-0.10057 -0.08979,-0.25878 0.01077,-0.35339c0.0642,-0.06041 0.1519,-0.08028 0.23155,-0.06059l0.48331,0.11208l-0.00102,0.00444l0.01606,-0.00046c0.14391,0.05821 0.29794,0.08831 0.45483,0.1009l0.24482,-0.07341c0.08905,-0.02875 0.19067,-0.00609 0.25906,0.0666c0.03488,0.03708 0.05625,0.082 0.06428,0.12868c0.39961,0.04739 0.79595,0.10726 1.10055,0.11653c0.39181,0.01193 1.05712,-0.27231 1.43084,-0.26422c0.32675,-0.24585 1.01385,-0.63664 0.73375,0.39849c0.64422,-0.014 1.33354,-0.21966 1.85319,0.17339zM216.03288,285.60025c0.3787,0.48776 0.69406,0.94523 0.9044,1.29535c0.08559,0.14247 -0.04946,-0.33941 -0.14071,-0.47829c-0.18892,-0.28747 -0.49344,-0.55866 -0.76368,-0.81706z" fill="#3a2f41" stroke="none" stroke-width="0.5" stroke-linecap="butt"/></g><path d="M202.98354,298.38598l2.22665,-8.57633c0,0 9.33237,-3.4108 9.57795,-3.83229" fill="none" stroke="#3a2f41" stroke-width="1" stroke-linecap="round"/><path d="M191.61396,296.61087l-1.29839,-0.67784l2.94635,-4.08774l1.07646,1.15812z" fill="#3a2f41" stroke="none" stroke-width="NaN" stroke-linecap="butt"/></g><g data-paper-data="{&quot;index&quot;:null}" stroke-linecap="butt"><path d="M52.8352,216.03182c0,0 11.49689,-32.50696 14.73012,-39.83208c1.32829,-3.00935 4.73579,-4.2694 4.73579,-4.2694l13.4926,10.42909l-14.0583,40.24107z" data-paper-data="{&quot;index&quot;:null}" fill="#3a2f41" stroke="#3a2f41" stroke-width="2"/><g data-paper-data="{&quot;index&quot;:null}"><g data-paper-data="{&quot;index&quot;:null}" stroke="#3a2f41"><g><path d="" fill="#e1e2db" stroke-width="2"/><path d="" fill="#8c9ca0" stroke-width="0"/></g><g fill="#3a2f41" stroke-width="3.5"><path d="M27.6282,272.25452l27.08689,-73.17147l25.79547,11.96402l-26.44003,71.59631z"/></g></g><path d="M28.48702,271.40369l4.5143,-11.29209l24.19951,9.81066l-4.00704,11.3315z" fill="#e1e2db" stroke="none" stroke-width="0"/><path d="M41.61774,257.50479l7.68506,-22.98376l3.60726,1.31389l-7.68506,22.98377z" fill="#e1e2db" stroke="none" stroke-width="0"/><path d="M51.67189,227.87417l7.68506,-22.98376l3.60727,1.31389l-7.68506,22.98377z" fill="#e1e2db" stroke="none" stroke-width="0"/></g></g><path d="M66.35983,282.4747l3.29698,-42.54566l29.94505,1.41937l-3.29698,42.54566z" fill="#3a2f41" stroke="#3a2f41" stroke-width="2" stroke-linecap="butt"/><g stroke-linecap="butt"><g data-paper-data="{&quot;index&quot;:null}" stroke="#3a2f41"><g><path d="" fill="#e1e2db" stroke-width="2"/><path d="" fill="#8c9ca0" stroke-width="0"/></g><g fill="#3a2f41" stroke-width="3.5"><path d="M25.18077,332.40447l33.4573,-16.96046c0,0 1.78025,-50.30658 3.54822,-56.04115c0.25482,-5.85437 42.13082,4.34146 42.13082,4.34146l-7.91931,67.85906z"/></g></g><path d="M34.48085,329.6047l26,-13.02067l34,3.5919l-0.5,9.42876z" fill="#e1e2db" stroke="none" stroke-width="0"/><path d="M68.16666,313.15686l1.3878,-21.74026l5.74058,0.2955l-1.3878,21.74027z" fill="#e1e2db" stroke="none" stroke-width="0"/><path d="M70.16667,285.09507l1.3878,-21.74026l5.74058,0.29549l-1.3878,21.74026z" fill="#e1e2db" stroke="none" stroke-width="0"/></g><path d="M109.193,282.14411l-3.29698,-42.54566l29.94505,-5.16937l3.29698,46.29566z" data-paper-data="{&quot;index&quot;:null}" fill="#3a2f41" stroke="#3a2f41" stroke-width="2" stroke-linecap="butt"/><g data-paper-data="{&quot;index&quot;:null}" stroke-linecap="butt"><g data-paper-data="{&quot;index&quot;:null}" stroke="#3a2f41"><g><path d="" fill="#e1e2db" stroke-width="2"/><path d="" fill="#8c9ca0" stroke-width="0"/></g><g fill="#3a2f41" stroke-width="3.5"><path d="M107.85008,333.14402l-7.91931,-70.91482c0,0 41.876,-10.58491 42.13082,-4.50714c1.76797,5.95342 3.54822,58.17979 3.54822,58.17979l18.9573,36.25262z"/></g></g><path d="M110.51703,332.23436l-0.5,-11.42001l34,-3.72898l16,31.92942z" fill="#e1e2db" stroke="none" stroke-width="0"/><path d="M130.59064,313.83419l-1.3878,-22.56991l5.74058,-0.30676l1.3878,22.5699z" fill="#e1e2db" stroke="none" stroke-width="0"/><path d="M128.59064,284.70151l-1.3878,-22.56991l5.74058,-0.30677l1.3878,22.56991z" fill="#e1e2db" stroke="none" stroke-width="0"/></g><g><g><g><g fill="none" stroke="none" stroke-width="1" stroke-linecap="butt" font-family="sans-serif" font-weight="normal" font-size="12" text-anchor="start"><g><g><g/></g></g><g><g><g/></g></g></g><g fill="none" stroke="none" stroke-width="1" stroke-linecap="butt" font-family="sans-serif" font-weight="normal" font-size="12" text-anchor="start"><g><g><g/></g></g><g><g><g/></g></g></g><path d="M71.17588,174.47196c0,0 22.54776,-7.81469 32.60238,-8.03561c9.16442,-0.20134 30.18093,6.9009 31.82751,10.65959c-2.06587,18.3946 -2.59438,35.66725 -2.08688,49.74936c0.33575,9.31627 2.5481,15.93224 2.5481,15.93224c0,0 -17.05274,9.31488 -35.20026,8.94912c-9.41865,-0.18982 -33.20225,-7.82245 -33.20225,-7.82245c-0.10349,-0.1063 1.1527,-11.29936 1.78825,-22.44513c1.06761,-18.72329 2.05219,-46.08057 2.05219,-46.08057" fill="#3a2f41" stroke="#3a2f41" stroke-width="2" stroke-linecap="round"/><g fill="none" stroke="none" stroke-width="1" stroke-linecap="butt" font-family="sans-serif" font-weight="normal" font-size="12" text-anchor="start"><g/></g></g><g><path d="M81.92626,171.62148c-0.55782,-0.34685 2.53788,-5.79309 3.04178,-6.22762c0.20747,-0.08262 0.51214,-0.54533 1.30301,-0.00156c3.61171,2.48324 12.00863,9.91225 12.00863,9.91225l-9.32109,9.8701z" data-paper-data="{&quot;index&quot;:null}" fill="#8c9ca0" stroke="#3a2f41" stroke-width="4.5" stroke-linecap="round"/><path d="M98.31384,175.35277c0,0 -10.0092,-8.9445 -6.1108,-11.32927c4.63829,-2.83739 23.38877,0.76571 24.51278,0.1664c1.05449,-2.04455 3.60606,4.97028 3.71664,6.61086c-0.95367,3.35654 -11.98454,14.63211 -11.98454,14.63211z" fill="#3a2f41" stroke="#3a2f41" stroke-width="4.5" stroke-linecap="round"/><path d="M84.15619,171.04284c-0.01232,-0.56791 1.11693,-5.17633 2.2828,-5.77949c0.6658,-0.71885 13.26891,-7.38241 15.04335,-7.14317c2.80478,0.37815 14.31882,5.3713 15.51772,6.43984c0.64163,0.3016 1.00412,4.17753 1.08038,5.76021" fill="none" stroke="#3a2f41" stroke-width="6.5" stroke-linecap="butt"/><g><path d="M81.72981,171.62575c-0.55782,-0.34685 2.53788,-5.79309 3.04178,-6.22762c0.20747,-0.08262 0.51215,-0.54533 1.30302,-0.00156c3.6117,2.48324 12.00863,9.91225 12.00863,9.91225l-9.12876,9.67558z" data-paper-data="{&quot;index&quot;:null}" fill="#8c9ca0" stroke="#12161a" stroke-width="0" stroke-linecap="round"/><path d="M98.31384,175.35277c0,0 16.33323,-10.05984 18.40197,-11.16287c1.05449,-2.04453 3.60606,4.97029 3.71664,6.61087c-0.95368,3.35654 -11.98455,14.63211 -11.98455,14.63211z" fill="#8c9ca0" stroke="#12161a" stroke-width="0" stroke-linecap="round"/><path d="M84.15619,171.0428c-0.01232,-0.56791 1.11693,-5.17632 2.2828,-5.77949c0.6658,-0.71885 13.26892,-7.38241 15.04335,-7.14317c2.80478,0.37816 14.31882,5.3713 15.51772,6.43984c0.64163,0.3016 1.00412,4.17753 1.08038,5.76021" fill="none" stroke="#8c9ca0" stroke-width="2" stroke-linecap="butt"/></g></g></g><path d="M76.02251,237.98778v-4.16667h47.5v4.16667z" fill="#e1e2db" stroke="none" stroke-width="0" stroke-linecap="butt"/><path d="M76.60585,225.90443v-3.5h15.75v3.5z" fill="#e1e2db" stroke="none" stroke-width="0" stroke-linecap="butt"/><path d="M105.60585,226.15443v-4h17v4z" fill="#e1e2db" stroke="none" stroke-width="0" stroke-linecap="butt"/><path d="M76.35585,213.15447v-3.75h16.5v3.75z" fill="#e1e2db" stroke="none" stroke-width="0" stroke-linecap="butt"/><path d="M106.35585,212.65447v-3.75h16.5v3.75z" fill="#e1e2db" stroke="none" stroke-width="0" stroke-linecap="butt"/><path d="M106.85585,199.65447v-3.75h16.5v3.75z" fill="#e1e2db" stroke="none" stroke-width="0" stroke-linecap="butt"/><path d="M76.85585,199.40447v-3.75h16.5v3.75z" fill="#e1e2db" stroke="none" stroke-width="0" stroke-linecap="butt"/><path d="M93.35584,195.65447v3.75h-7.43947c-0.6776,-0.69329 -1.34692,-1.38817 -2.00667,-2.08516c-0.51442,-0.54346 -1.02963,-1.09964 -1.54509,-1.66484z" fill="#8c9ca0" stroke="none" stroke-width="0" stroke-linecap="butt"/><path d="M106.85584,199.65447v-3.75h11.77589c-0.96429,1.17128 -1.96904,2.43938 -2.92364,3.75z" fill="#8c9ca0" stroke="none" stroke-width="0" stroke-linecap="butt"/></g><g stroke-linecap="butt"><path d="M135.3047,220.49307l-14.00639,-40.25918l13.50605,-10.41168c0,0 3.40587,1.26444 4.73028,4.2755c3.22377,7.32928 14.67872,39.85105 14.67872,39.85105z" data-paper-data="{&quot;index&quot;:null}" fill="#3a2f41" stroke="#3a2f41" stroke-width="2"/><g data-paper-data="{&quot;index&quot;:null}"><g data-paper-data="{&quot;index&quot;:null}" stroke="#3a2f41"><g><path d="" fill="#e1e2db" stroke-width="2"/><path d="" fill="#8c9ca0" stroke-width="0"/></g><g fill="#3a2f41" stroke-width="3.5"><path d="M152.89212,280.55866l-26.34766,-71.63035l25.81088,-11.93073l26.99248,73.20635z"/></g></g><path d="M153.77064,279.17018l-3.99243,-11.33668l24.21214,-9.77942l4.49974,11.29788z" fill="#e1e2db" stroke="none" stroke-width="0"/><path d="M161.76837,256.74539l-7.65541,-22.99367l3.60896,-1.30924l7.65541,22.99365z" fill="#e1e2db" stroke="none" stroke-width="0"/><path d="M151.75244,227.10187l-7.65541,-22.99367l3.60896,-1.30924l7.65541,22.99365z" fill="#e1e2db" stroke="none" stroke-width="0"/></g></g><g data-paper-data="{&quot;index&quot;:null}" stroke="#3a2f41" stroke-linecap="butt"><g><path d="" fill="#e1e2db" stroke-width="2"/><path d="" fill="#8c9ca0" stroke-width="0"/></g><g fill="#3a2f41" stroke-width="3.5"><path d="M237.23482,338.39396l33.4573,-18.8874c0,0 -3.71975,-15.0221 -1.95178,-21.4082c0.25482,-6.5195 42.63082,3.33471 42.63082,3.33471l-2.91931,36.06878z"/></g></g><path d="M275.41387,298.76302l6.29698,-43.78963l29.94505,0.94825l-4.29698,46.46194z" fill="#3a2f41" stroke="#3a2f41" stroke-width="2" stroke-linecap="butt"/><path d="M325.74705,301.16598l-4.29698,-45.79387l29.94505,-3.45355l4.29698,47.29705z" data-paper-data="{&quot;index&quot;:null}" fill="#3a2f41" stroke="#3a2f41" stroke-width="2" stroke-linecap="butt"/><g data-paper-data="{&quot;index&quot;:null}" stroke="#3a2f41" stroke-linecap="butt"><g><path d="" fill="#e1e2db" stroke-width="2"/><path d="" fill="#8c9ca0" stroke-width="0"/></g><g fill="#3a2f41" stroke-width="3.5"><path d="M324.90413,337.25185l-2.91931,-36.06879c0,0 38.376,-8.35421 38.63082,-1.83471c1.76797,6.3861 2.04822,19.4082 2.04822,19.4082l18.9573,38.8874z"/></g></g><g><g fill="none" stroke="none" stroke-width="1" stroke-linecap="butt" font-family="sans-serif" font-weight="normal" font-size="12" text-anchor="start"><g><g><g/></g></g><g><g><g/></g></g></g><g fill="none" stroke="none" stroke-width="1" stroke-linecap="butt" font-family="sans-serif" font-weight="normal" font-size="12" text-anchor="start"><g><g><g/></g></g><g><g><g/></g></g></g><path d="M284.53843,196.52938c0,0 24.52539,-7.04926 35.46188,-7.24854c9.96822,-0.18161 32.82805,6.22498 34.61905,9.61551c-2.24706,16.5929 -2.82193,32.17373 -2.26992,44.87654c0.3652,8.40376 2.77159,14.37173 2.77159,14.37173c0,0 -18.54841,8.40251 -38.28762,8.07258c-10.24474,-0.17123 -36.11436,-7.05626 -36.11436,-7.05626c-0.11257,-0.09589 1.2538,-10.19262 1.94509,-20.24669c1.16125,-16.8894 2.23218,-41.5671 2.23218,-41.5671" fill="#3a2f41" stroke="#3a2f41" stroke-width="2" stroke-linecap="round"/><g fill="none" stroke="none" stroke-width="1" stroke-linecap="butt" font-family="sans-serif" font-weight="normal" font-size="12" text-anchor="start"><g/></g></g><g><path d="M312.4777,237.90558c-15.95976,-15.20625 -19.51078,-43.06074 -19.51078,-43.06074l25.08985,-9.70444c0,0 13.96951,4.03759 18.72693,6.04587c4.13283,1.74461 11.57393,5.54264 11.57393,5.54264c0,0 -5.94432,14.67918 -13.91079,23.67627c-11.69039,13.20277 -21.7578,17.65502 -21.96915,17.50039z" fill="#e1e2db" stroke="none" stroke-width="0" stroke-linecap="butt"/><path d="M292.96694,194.8448l25.08985,-9.70444c0,0 13.96951,4.03759 18.72693,6.04587c4.13283,1.74461 11.57393,5.54264 11.57393,5.54264c0,0 -1.66023,4.09984 -4.40176,9.29412c-8.1421,2.92934 -16.43452,6.07651 -25.97631,9.73812c-6.17037,2.36785 -11.29432,4.32995 -16.54951,6.55552c-6.68675,-13.53774 -8.46313,-27.47184 -8.46313,-27.47184z" fill="#8c9ca0" stroke="none" stroke-width="0" stroke-linecap="butt"/><path d="M305.0629,222.61266c-0.2414,-0.75907 2.3862,-5.06809 4.43638,-8.26047c1.27468,-1.98482 2.32616,-3.538 2.32616,-3.538l9.00061,0.08636c0,0 6.70884,12.45632 6.45622,12.72781c-5.54588,5.86587 -14.32498,10.69606 -14.32498,10.69606c0,0 -7.653,-10.95268 -7.8944,-11.71176z" fill="#3a2f41" stroke="#3a2f41" stroke-width="2" stroke-linecap="butt"/><path d="M312.4777,237.90558c-15.95976,-15.20625 -19.51078,-43.06074 -19.51078,-43.06074l25.08985,-9.70444c0,0 13.96951,4.03759 18.72693,6.04587c4.13283,1.74461 11.57393,5.54264 11.57393,5.54264c0,0 -5.94432,14.67918 -13.91079,23.67627c-11.69039,13.20277 -21.7578,17.65502 -21.96915,17.50039z" fill="none" stroke="#3a2f41" stroke-width="2" stroke-linecap="butt"/><path d="M312.21557,207.55781l0.1546,-9.45942l8.25206,0.13486l-0.1546,9.45942z" fill="#3a2f41" stroke="#3a2f41" stroke-width="2" stroke-linecap="butt"/><g><path d="M302.4452,191.33286c-0.46649,-0.31528 2.36267,-4.87931 2.80845,-5.23508c0.1804,-0.064 0.45645,-0.45041 1.11614,0.04114c3.01264,2.24475 9.9628,8.88179 9.9628,8.88179l-8.30572,8.15032z" data-paper-data="{&quot;index&quot;:null}" fill="#8c9ca0" stroke="#3a2f41" stroke-width="4.5" stroke-linecap="round"/><path d="M316.36027,195.06313c0,0 -8.28174,-7.98768 -4.86484,-9.90326c4.06541,-2.27914 20.0086,1.41836 20.9909,0.94166c0.96988,-1.71687 2.92672,4.37483 2.96795,5.78367c-0.92629,2.84394 -10.74233,12.14237 -10.74233,12.14237z" fill="#3a2f41" stroke="#3a2f41" stroke-width="4.5" stroke-linecap="round"/><path d="M304.3741,190.90992c0.00796,-0.48684 1.12546,-4.39735 2.14374,-4.87598c0.59372,-0.59403 11.60611,-5.8908 13.1182,-5.62803c2.3901,0.41534 12.08962,5.06757 13.0817,6.02191c0.53975,0.27925 0.72389,3.61098 0.73761,4.96911" fill="none" stroke="#3a2f41" stroke-width="6.5" stroke-linecap="butt"/><g><path d="M302.27678,191.3301c-0.46649,-0.31528 2.36267,-4.87931 2.80845,-5.23508c0.1804,-0.064 0.45645,-0.45041 1.11615,0.04114c3.01263,2.24475 9.9628,8.88179 9.9628,8.88179l-8.13463,7.98998z" data-paper-data="{&quot;index&quot;:null}" fill="#8c9ca0" stroke="#12161a" stroke-width="0" stroke-linecap="round"/><path d="M316.36027,195.06313c0,0 14.31812,-8.08424 16.12605,-8.9616c0.96988,-1.71686 2.92672,4.37484 2.96795,5.78368c-0.9263,2.84394 -10.74234,12.14237 -10.74234,12.14237z" fill="#8c9ca0" stroke="#12161a" stroke-width="0" stroke-linecap="round"/><path d="M304.3741,190.90988c0.00796,-0.48684 1.12546,-4.39734 2.14374,-4.87598c0.59372,-0.59403 11.60611,-5.8908 13.1182,-5.62803c2.3901,0.41535 12.08962,5.06757 13.0817,6.02191c0.53975,0.27925 0.72389,3.61098 0.73761,4.96911" fill="none" stroke="#8c9ca0" stroke-width="2" stroke-linecap="butt"/></g></g></g><g data-paper-data="{&quot;index&quot;:null}" stroke-linecap="butt"><path d="M421.75873,304.55145l-20.75883,-22.57038l12.79023,-2.70031z" fill="#8c9ca0" stroke="#3a2f41" stroke-width="2"/><path d="M342.72542,208.77041c-1.9461,-9.71797 9.90045,-15.52116 15.35919,-4.91198c8.18556,15.90883 32.13715,40.21856 33.09064,44.62329c0.71916,3.32218 -3.98019,17.60228 -6.66071,20.13037c-2.55656,2.41118 -24.38671,-0.70262 -28.94072,-2.01936c0,0 -7.91856,-33.20485 -12.84841,-57.82233z" fill="#3a2f41" stroke="none" stroke-width="0"/><path d="M363.60795,258.23665c0,0 4.8159,-6.85739 7.86353,-8.38936c3.40648,-1.71235 11.61891,-1.40394 11.61891,-1.40394l10.63525,8.7379l-2.86172,15.08933l-13.11692,7.60457l-13.53342,-5.18899z" fill="#e1e2db" stroke="#3a2f41" stroke-width="2"/><path d="M389.32293,257.55395l11.42525,11.93833l8.0741,2.39452l8.09572,13.24859l-19.76442,-9.05019l37.16566,16.68935l-51.03566,-1.62966l-20.9434,15.73388l6.98487,-21.74425l-0.21865,-12.22156l8.61784,-13.47873z" fill="#e1e2db" stroke="#3a2f41" stroke-width="2"/></g><g><path d="M386.67867,155.60474c-0.27641,14.54088 -17.13756,26.01232 -37.66044,25.62221c-20.52288,-0.39012 -36.93588,-12.49407 -36.65947,-27.03495c0.27641,-14.54087 17.13755,-26.01233 37.66042,-25.62221c20.52288,0.39012 36.93589,12.49408 36.65948,27.03495z" fill="#3a2f41" stroke="#3a2f41" stroke-width="1" stroke-linecap="butt"/><path d="M350.74006,90.18729c13.93033,-3.48404 30.29782,8.53887 34.71987,26.21967c4.42206,17.68079 -17.90382,49.71779 -32.17131,51.33989c-5.03764,0.57274 -13.85279,-21.04225 -18.27484,-38.72305c-4.42205,-17.6808 1.79595,-35.35246 15.72629,-38.83651z" data-paper-data="{&quot;index&quot;:null}" fill="#3a2f41" stroke="#3a2f41" stroke-width="1" stroke-linecap="butt"/><g stroke-linecap="butt"><path d="M302.20987,92.03746l-5.85065,-50.78703l60.82183,27.49162l-5.49865,24.23583z" fill="#7c7984" stroke="none" stroke-width="0"/><path d="M302.20987,92.03746l-2.46678,-41.72108l55.89339,21.73024l-3.95408,20.93125z" fill="#595564" stroke="none" stroke-width="0"/><path d="M316.78191,92.31446l-14.57204,-0.277l-5.85065,-50.78703l60.82183,27.49162l-5.49865,24.23583l-18.16875,-0.34537" fill="none" stroke="#3a2f41" stroke-width="2"/></g><path d="M359.73536,99.74924c-0.2729,14.3568 -24.1821,21.2109 -42.4042,20.86452c-18.2221,-0.34638 -43.32083,-30.26072 -41.16251,-44.457c0.76207,-5.01249 23.92869,-7.87999 42.15079,-7.53361c18.2221,0.34638 41.68882,16.76928 41.41592,31.12609z" fill="#3a2f41" stroke="#3a2f41" stroke-width="1" stroke-linecap="butt"/><path d="M324.61649,167.1131c2.08684,4.98964 -9.11937,9.79745 -24.85863,11.1232c-27.47207,2.31401 -38.99088,-8.1519 -41.07772,-13.14154c-0.63839,-1.5264 17.75533,-2.84669 33.5712,-4.00021c15.81587,-1.15353 30.2783,1.02892 32.36514,6.01856z" fill="#3a2f41" stroke="#3a2f41" stroke-width="1" stroke-linecap="butt"/><path d="M306.83883,146.41902c-0.20993,11.0437 -13.4334,19.36624 -29.54152,19.44206c-28.11589,0.13233 -34.71138,-24.28506 -34.50145,-35.32875c0.06422,-3.37842 18.785,-2.97686 34.89039,-2.67072c16.1054,0.30614 29.36251,7.51371 29.15258,18.55741z" fill="#3a2f41" stroke="#3a2f41" stroke-width="1" stroke-linecap="butt"/><path d="M304.19346,110.19552c-0.25367,13.34447 -11.41256,20.62017 -27.0578,20.32277c-15.64524,-0.2974 -34.58781,-4.47795 -34.48619,-9.82387c0.25367,-13.34447 18.02983,-35.49707 33.67507,-35.19967c15.64524,0.2974 28.12259,11.35631 27.86892,24.70078z" fill="#3a2f41" stroke="#3a2f41" stroke-width="1" stroke-linecap="butt"/><g stroke-linecap="round"><path d="M269.95667,160.84579c-6.23685,-8.76282 -2.75919,-21.29576 -2.75919,-21.29576c0,0 -4.86957,-16.91161 5.15979,-29.58044c10.02935,-12.66884 25.37399,-10.06385 25.37399,-10.06385c0,0 6.49562,-9.84982 23.13864,-9.05697c16.64305,0.79284 21.7215,11.44728 21.7215,11.44728c0,0 19.96735,-2.53386 28.55586,14.33671c8.5885,16.87059 -0.53176,27.22721 -0.53176,27.22721c0,0 4.99632,12.576 -6.03631,22.11419c-2.91004,2.51585 -8.47844,5.60093 -13.63054,5.76522c-6.15073,0.19612 -11.72632,-2.81396 -11.72632,-2.81396c0,0 -5.6417,4.45001 -13.00751,6.3947c-4.9208,1.29917 -11.28466,0.49826 -14.76506,0.12789c-5.17165,-0.55034 -16.54094,-7.43882 -16.54094,-7.43882c0,0 -6.91176,1.18118 -13.05445,-0.03099c-5.35152,-1.05605 -9.87149,-4.28552 -11.8977,-7.13236z" data-paper-data="{&quot;index&quot;:null}" fill="#e1e2db" stroke="none" stroke-width="0"/><path d="M269.95667,160.84579c-6.23685,-8.76282 -2.75919,-21.29577 -2.75919,-21.29577c0,0 -4.86957,-16.91161 5.15979,-29.58044c10.02936,-12.66884 25.37399,-10.06385 25.37399,-10.06385c0,0 6.49562,-9.84983 23.13864,-9.05698c16.64305,0.79283 21.7215,11.44728 21.7215,11.44728c0,0 19.96735,-2.53386 28.55586,14.33671c8.5885,16.87059 -0.53175,27.2272 -0.53175,27.2272c0,0 4.74636,12.57125 -6.28627,22.10944c-11.04585,9.1912 -24.89128,2.91821 -24.89128,2.91821c0,0 -10.57342,8.43999 -23.50325,7.39577c-14.91976,-1.20493 -20.33401,-8.7381 -20.33401,-8.7381c0,0 -6.34154,1.64488 -12.96822,0.47971c-5.10296,-0.89726 -10.46515,-4.07319 -12.67579,-7.17917z" data-paper-data="{&quot;index&quot;:null}" fill="none" stroke="#3a2f41" stroke-width="2.5"/></g><path d="M310.5757,96.64259c1.64848,6.51341 -7.5499,17.34234 -20.54514,24.18709c-12.99525,6.84475 -24.86632,7.11333 -26.5148,0.59991c-1.64848,-6.51341 7.54989,-17.34234 20.54514,-24.18708c12.99525,-6.84475 24.86633,-7.11333 26.51481,-0.59993z" fill="#3a2f41" stroke="#3a2f41" stroke-width="1" stroke-linecap="butt"/><path d="M347.94093,106.35961c-0.1522,8.00669 -13.18237,14.25204 -29.1037,13.94939c-15.92133,-0.30264 -28.70474,-7.03869 -28.55254,-15.04537c0.1522,-8.00669 13.18237,-14.25204 29.1037,-13.94939c15.92134,0.30264 28.70475,7.03869 28.55255,15.04537z" fill="#3a2f41" stroke="#3a2f41" stroke-width="1" stroke-linecap="butt"/><path d="M373.66729,112.11242c-2.83437,9.8881 -15.81991,14.84037 -29.00405,11.06121c-13.18412,-3.77917 -21.57426,-14.85865 -18.73989,-24.74675c2.83437,-9.88809 15.81992,-14.84037 29.00405,-11.0612c13.18412,3.77917 21.57426,14.85865 18.73989,24.74675z" fill="#3a2f41" stroke="#3a2f41" stroke-width="1" stroke-linecap="butt"/><path d="M383.33144,112.99511c4.67347,10.51405 1.98433,21.9167 -6.00635,25.46854c-7.99068,3.55184 -18.25698,-2.09216 -22.93045,-12.60621c-4.67347,-10.51405 -1.98433,-21.9167 6.00635,-25.46853c7.99068,-3.55183 18.25698,2.09215 22.93045,12.6062z" fill="#3a2f41" stroke="#3a2f41" stroke-width="1" stroke-linecap="butt"/><path d="M323.94996,124.40605c-11.95999,3.85747 -25.41252,3.85359 -30.04708,-0.00866c-4.63457,-3.86225 1.30386,-10.12032 13.26385,-13.97779c11.95999,-3.85747 25.41252,-3.85359 30.04709,0.00866c4.63457,3.86225 -1.30387,10.12032 -13.26385,13.97779z" fill="#3a2f41" stroke="#3a2f41" stroke-width="1" stroke-linecap="butt"/><path d="M276.54087,115.89198c4.21368,2.80624 4.65145,9.55282 0.97782,15.06889c-3.67363,5.51608 -10.06754,7.71283 -14.28121,4.90659c-4.21368,-2.80624 -4.65145,-9.55282 -0.97782,-15.0689c3.67363,-5.51608 10.06754,-7.71282 14.28121,-4.90658z" fill="#3a2f41" stroke="#3a2f41" stroke-width="1" stroke-linecap="butt"/></g><g><g fill="#3a2f41" stroke="none" stroke-width="0" stroke-linecap="butt"><path d="M172.52431,54.97194c-3.24627,7.21984 -17.91491,14.23905 -17.91491,14.23905l-1.13535,-34.86546c0,0 22.29653,13.40657 19.05026,20.62641z"/><path d="M163.5676,76.59548c-4.18335,-1.2134 -9.13593,-8.66561 -9.13593,-8.66561l18.90882,-3.30021c0,0 -5.58954,13.17922 -9.77289,11.96582z"/></g><g stroke-linecap="butt"><path d="M49.45467,92.48495c0,0 12.91627,-6.57142 26.48858,-18.53507c8.1536,-7.18716 21.37606,-11.24258 24.41616,-10.84703c3.802,0.49466 21.92978,5.93107 31.58337,19.26633c11.96966,16.53464 11.719,36.43441 11.05302,46.46166c-0.95302,14.34891 -9.87086,28.99223 -9.87086,28.99223c0,0 -20.63467,-1.81665 -46.26699,-2.48156c-6.10149,-0.15828 -12.48618,-0.25128 -18.94312,-0.239c-0.51192,0.10765 -1.10684,-13.59788 -1.10684,-13.59788l-0.93615,13.36584l-22.87013,0.80806z" data-paper-data="{&quot;index&quot;:null}" fill="#3a2f41" stroke="none" stroke-width="0"/><g data-paper-data="{&quot;index&quot;:null}"><path d="M53.62114,118.6308c-0.92276,-19.86145 12.07987,-43.91006 37.59067,-45.78366c38.78162,-2.84823 54.03254,21.7446 54.95529,41.60602c0.92279,19.86144 -10.9582,37.44465 -44.5916,38.27857c-16.79801,0.41653 -28.84017,-3.93012 -36.46177,-9.91886c-7.84035,-6.16062 -11.02468,-14.11086 -11.4926,-24.1821z" fill="#e1e2db" stroke="none" stroke-width="0"/><path d="M107.24122,73.77631c27.0572,4.00132 38.16356,24.26874 38.94682,41.12728c0.92279,19.86144 -10.95822,37.44464 -44.5916,38.27857c-17.91347,0.44419 -29.41012,-3.81729 -36.97024,-10.55643c-6.82208,-6.08121 -10.54643,-14.12344 -10.98414,-23.54453h-0.00001c-0.8315,-17.89741 7.04711,-49.30963 53.45435,-45.34297" fill="none" stroke="#3a2f41" stroke-width="2"/></g><path d="M153.69841,138.60188c0,0 -3.09754,14.36654 -3.31722,16.95714c-0.15206,1.79328 -21.77483,5.59239 -24.30425,4.99534c-0.1626,-0.03837 4.99065,-50.94257 4.99065,-50.94257c0,0 -6.10688,-1.5469 -10.59356,-2.13934c-0.37959,-0.05013 0.34329,-8.66152 0.34329,-8.66152c0,0 -2.79863,8.01215 -3.30568,7.93479c-7.18883,-1.09666 -22.12904,-2.65045 -22.12904,-2.65045l1.746,-19.06621l-3.83665,19.35333l-16.8478,-0.30057l0.0849,-5.25161l-3.19611,5.25439c0,0 -19.42285,-0.08213 -22.94311,0.19587c0.18407,-7.454 1.63302,-12.34664 1.63302,-12.34664c0,0 -1.87019,5.97451 -2.99932,12.07837c-0.0504,0.27242 -3.44872,0.77363 -3.44872,0.77363l2.51376,-12.80543l-6.11891,0.29761c0,0 5.43617,-15.94416 17.55937,-27.58639c10.09185,-9.69147 25.93228,-13.26446 32.15572,-14.12476c29.05119,-4.01591 56.68744,9.00301 70.29246,35.98799c10.54783,20.92122 4.71863,61.10026 4.71863,61.10026l-12.60797,6.74695z" data-paper-data="{&quot;index&quot;:null}" fill="#3a2f41" stroke="url(#color-1)" stroke-width="0.5"/></g><path d="M95.87465,122.819c-2.25786,10.15137 -11.25151,16.80525 -20.08787,14.86185c-8.83635,-1.9434 -14.16929,-11.74815 -11.91142,-21.89952c2.25786,-10.15137 11.25151,-16.80524 20.08787,-14.86185c8.83635,1.9434 14.16929,11.74815 11.91142,21.89952z" fill="#8c9ca0" stroke="none" stroke-width="0" stroke-linecap="butt"/><path d="M106.38333,101.16948c9.43819,-1.9434 19.04439,4.71048 21.45604,14.86185c2.41165,10.15137 -3.2845,19.95612 -12.7227,21.89952c-9.43819,1.9434 -19.04439,-4.71048 -21.45603,-14.86185c-2.41165,-10.15137 3.2845,-19.95612 12.7227,-21.89952z" data-paper-data="{&quot;index&quot;:null}" fill="#8c9ca0" stroke="none" stroke-width="0" stroke-linecap="butt"/><path d="M106.25861,99.2916c9.19656,-2.1473 18.71867,4.30271 21.26824,14.40652c1.27293,5.04454 0.56712,10.04614 -1.60343,14.05744c-2.17688,4.023 -5.82705,7.04993 -10.43202,8.12514c-9.19656,2.1473 -18.71867,-4.30271 -21.26824,-14.40651c-2.54957,-10.1038 2.83889,-20.03528 12.03546,-22.18258z" data-paper-data="{&quot;index&quot;:null}" fill="#3a2f41" stroke="none" stroke-width="0" stroke-linecap="butt"/><path d="M95.37465,120.819c-2.25786,10.15137 -11.25151,16.80525 -20.08787,14.86185c-8.83635,-1.9434 -14.16929,-11.74815 -11.91142,-21.89952c2.25786,-10.15137 11.25151,-16.80524 20.08787,-14.86185c8.83635,1.9434 14.16929,11.74815 11.91142,21.89952z" fill="#3a2f41" stroke="none" stroke-width="0" stroke-linecap="butt"/><path d="M73.17213,139.43532c-2.47979,-1.14101 -2.95068,-3.28012 -3.09774,-3.30631c-1.7854,-0.31798 0.22171,1.38885 0.22171,1.38885c0,0 10.6328,10.03476 35.00412,5.84332c5.06074,-0.87036 10.04578,-2.20195 14.08844,-4.24943c4.46419,-2.26096 7.77924,-5.3949 8.77815,-9.74472c-0.06962,-0.08519 -0.55134,-0.2754 -1.14816,-0.23251c-0.65725,0.04723 -0.34144,0.92561 -0.3492,1.74029c-0.00744,0.78156 -0.3152,1.86763 -1.00406,3.11065c-0.35825,0.64646 -0.98622,1.32287 -0.98622,1.32287" fill="none" stroke="#3a2f41" stroke-width="1.5" stroke-linecap="round"/><path d="M75.68056,138.06467v4.75" fill="none" stroke="#3a2f41" stroke-width="1.5" stroke-linecap="round"/><path d="M87.93056,140.81467l0.25,5.75" fill="none" stroke="#3a2f41" stroke-width="1.5" stroke-linecap="round"/><path d="M102.18056,140.81467l0.5,5" fill="none" stroke="#3a2f41" stroke-width="1.5" stroke-linecap="round"/><path d="M114.93056,138.06467l0.75,5.25" fill="none" stroke="#3a2f41" stroke-width="1.5" stroke-linecap="round"/></g><path d="M94.5,119.58967c0,3.17564 -2.23857,5.75 -5,5.75c-2.76143,0 -5,-2.57437 -5,-5.75c0,-3.17563 2.23857,-5.75 5,-5.75c2.76143,0 5,2.57437 5,5.75z" fill="#e1e2db" stroke="none" stroke-width="0" stroke-linecap="butt"/><path d="M105.9,119.58967c0,3.17564 -2.23857,5.75 -5,5.75c-2.76143,0 -5,-2.57437 -5,-5.75c0,-3.17563 2.23857,-5.75 5,-5.75c2.76143,0 5,2.57437 5,5.75z" fill="#e1e2db" stroke="none" stroke-width="0" stroke-linecap="butt"/><path d="M280.51514,148.67831c-0.8592,-1.47461 -2.88734,-1.46378 -2.55577,-1.56684c0.3515,-0.10925 0.76717,-0.22179 0.98804,-0.22179c1.81864,0 3.37646,9.85804 11.93222,11.79531c12.02317,2.72239 19.37664,3.56074 32.56019,3.40577c0.78492,-0.02285 0.17776,4.0944 1.47509,5.03269c0.87962,0.63618 16.2645,-2.01889 21.25837,-3.84319c1.77094,-0.64694 -0.93612,-4.39296 -0.61541,-4.60093c7.18272,-2.12013 9.66976,-10.93741 11.44101,-11.65758c0.27268,-0.18699 1.24501,-0.10181 1.66851,-0.06932c0.34454,0.02643 -2.67217,1.15284 -3.33579,2.25997" fill="none" stroke="#3a2f41" stroke-width="1.5" stroke-linecap="round"/><path d="M317.77741,144.01283c-2.48181,10.09895 -11.62042,16.5523 -20.41163,14.41395c-8.79122,-2.13834 -13.906,-12.05864 -11.42418,-22.15759c2.48181,-10.09896 11.62042,-16.5523 20.41163,-14.41395c8.79122,2.13835 13.906,12.05864 11.42418,22.15759z" fill="#8c9ca0" stroke="none" stroke-width="0" stroke-linecap="butt"/><path d="M328.76232,122.60101c9.47886,-1.73419 18.93556,5.13051 21.12211,15.33273c2.18655,10.20222 -3.72504,19.8786 -13.2039,21.61279c-9.47886,1.73419 -18.93556,-5.1305 -21.12211,-15.33272c-2.18655,-10.20222 3.72504,-19.8786 13.2039,-21.6128z" data-paper-data="{&quot;index&quot;:null}" fill="#8c9ca0" stroke="none" stroke-width="0" stroke-linecap="butt"/><path d="M328.67915,120.72083c9.2418,-1.94339 18.61894,4.71563 20.94443,14.87335c1.16105,5.07146 0.3448,10.05623 -1.91393,14.01854c-2.26532,3.97387 -5.98153,6.91933 -10.60916,7.89244c-9.2418,1.94339 -18.61894,-4.71563 -20.94443,-14.87335c-2.32549,-10.15772 3.28129,-19.9676 12.52309,-21.91098z" data-paper-data="{&quot;index&quot;:null}" fill="#3a2f41" stroke="none" stroke-width="0" stroke-linecap="butt"/><path d="M317.32177,142.00226c-2.48181,10.09895 -11.62042,16.5523 -20.41164,14.41395c-8.79122,-2.13834 -13.906,-12.05864 -11.42418,-22.15759c2.48181,-10.09896 11.62042,-16.5523 20.41163,-14.41396c8.79122,2.13835 13.906,12.05864 11.42419,22.15759z" fill="#3a2f41" stroke="none" stroke-width="0" stroke-linecap="butt"/><path d="M316.47452,140.75389c-0.07023,3.17486 -2.36519,5.69908 -5.12594,5.63801c-2.76075,-0.06107 -4.94185,-2.68432 -4.87162,-5.85918c0.07023,-3.17486 2.3652,-5.69908 5.12595,-5.63801c2.76075,0.06107 4.94184,2.68432 4.87161,5.85918z" fill="#e1e2db" stroke="none" stroke-width="0" stroke-linecap="butt"/><path d="M327.87174,141.006c-0.07023,3.17486 -2.3652,5.69909 -5.12595,5.63802c-2.76075,-0.06107 -4.94184,-2.68431 -4.87161,-5.85917c0.07023,-3.17486 2.36519,-5.69908 5.12594,-5.63801c2.76075,0.06107 4.94185,2.68431 4.87162,5.85917z" fill="#e1e2db" stroke="none" stroke-width="0" stroke-linecap="butt"/></g></g></svg>