<svg version="1.1" xmlns="http://www.w3.org/2000/svg" xmlns:xlink="http://www.w3.org/1999/xlink" width="414.4563" height="382.23677" viewBox="0,0,414.4563,382.23677"><defs><linearGradient x1="237.32305" y1="13.24263" x2="237.32305" y2="341.70555" gradientUnits="userSpaceOnUse" id="color-1"><stop offset="0" stop-color="#c1c1c1"/><stop offset="1" stop-color="#3a2f41"/></linearGradient></defs><g transform="translate(-32.58664,11.87191)"><g data-paper-data="{&quot;isPaintingLayer&quot;:true}" fill-rule="nonzero" stroke-linejoin="miter" stroke-miterlimit="10" stroke-dasharray="" stroke-dashoffset="0" style="mix-blend-mode: normal"><g stroke-width="0.5" stroke-linecap="butt"><path d="M220.9779,122.64066l-0.01326,-0.35111c1.0503,-7.29885 17.54992,3.94188 22.25188,3.15673c7.41528,-1.12833 6.49581,-7.6292 13.78646,-4.5462c1.03121,0.2075 3.86442,-10.94818 4.6478,-9.93226c0.57907,0.75092 0.22384,4.87954 0.22384,5.80074c0,6.00067 -0.51647,10.94679 -1.69264,16.7164c-3.8868,7.74019 -5.58402,17.35255 -11.46051,23.41823c-4.05929,7.44766 -12.90602,12.09375 -18.74701,16.66811c-2.67843,1.46702 -7.25558,3.16792 -9.18121,6.36403c-2.04434,3.39313 -1.22022,9.20252 -3.18941,12.70357c-1.12002,3.80056 -1.64199,7.76339 -2.57722,11.6188c-1.23775,5.10244 -3.76784,9.44152 -5.23486,14.50076c-4.11746,8.60141 4.53226,14.76785 8.97425,19.32248c5.19073,4.68362 9.86531,13.79477 16.57736,13.79477c4.56888,-0.02912 -0.87945,2.69348 -0.27754,6.73325c0.93983,6.30781 5.39643,7.70415 9.25987,7.70415c2.60467,0 5.25631,-1.77137 7.72586,-1.33716c2.80576,0.49333 6.71659,2.95653 9.1802,4.74197c1.19702,0.65568 5.35925,1.6271 6.00699,3.18847c0.88308,2.12863 -0.95968,10.02925 -1.24474,12.56028c-0.04006,0.35581 -0.25289,0.88336 -0.36975,1.61799c-0.53208,-2.53618 -1.15211,-4.8584 -2.35225,-6.92885c-1.76586,-2.20558 -5.7268,-0.49912 -7.91493,0.25596c-0.4774,0.16473 -2.32448,0.80841 -2.28028,2.03705c0.01754,0.48742 1.961,2.11722 2.29308,2.57124c1.64295,2.24633 3.58484,5.39745 4.85249,8.0259c1.15298,2.36642 -0.94113,2.92478 -2.05898,4.45317c-2.53438,3.46515 -5.88828,7.33232 -8.89805,10.0448c-2.02293,1.8519 2.28954,-6.48467 2.24034,-8.57824c-0.09445,-4.01974 -7.55124,-5.56399 -9.3789,-4.59247c-2.69937,1.84893 -8.91165,4.32394 -9.40293,9.30635c-0.11294,1.14537 0.99024,4.50948 2.07861,6.29451c-1.89051,-0.58557 -3.90964,-1.26244 -5.76905,-1.23061c-2.77922,-1.57817 -3.55472,-14.28919 -3.20927,-16.11802c0.30999,-1.64099 -1.00695,-3.3126 -1.61248,-4.54917c-0.65809,-1.78728 -3.36314,-7.11142 -4.88622,-7.63951c-1.01726,-0.35272 -3.31627,0.68391 -4.29925,1.05427c-2.73435,1.03023 -5.72763,0.81405 -8.50221,1.57278c-0.97269,-0.0062 -1.85176,-0.28033 -2.59816,0.84506c-2.19883,3.31523 -2.04486,6.09626 -6.13718,6.09626c-0.65316,0 -1.68074,0.99558 -1.95614,0.1858c-0.08936,-0.26275 1.82528,-4.1917 1.97377,-4.69622c1.77467,-3.70734 0.82697,-8.37403 -0.54107,-11.93386c-0.14162,-0.36851 0.68044,-0.02837 0.98483,-0.02054c0.58637,0.01508 1.17144,-0.00135 1.75794,-0.00135c2.23305,0 4.63277,0.80841 6.62928,-0.96361c3.37006,-3.17835 6.89935,-6.76419 9.87061,-10.81318c0.40881,-0.55705 2.855,-2.72307 2.89323,-3.33094c0.04804,-0.76411 -1.5003,-2.79438 -1.9158,-3.36022c-1.08566,-2.1855 -3.12668,-3.63996 -4.54429,-5.40992c-3.10304,-3.87437 -6.4785,-8.427 -9.99795,-11.52764c-1.96235,-4.02457 -6.14777,-5.86651 -8.86945,-8.6513c-0.22008,-0.22517 -2.23331,-1.3586 -2.36208,-1.58352c-0.42615,-0.74418 2.20332,-6.17428 2.50702,-6.79631c3.85178,-7.89954 5.43942,-14.03576 2.17297,-22.95072c-1.57864,-3.23764 -1.03688,-8.57344 0.03947,-12.00209c0.13213,-0.42091 1.55961,-3.28076 1.83144,-4.39337c0.07511,0.91408 0.49762,3.10398 0.52603,3.30167c1.22451,4.2098 5.59718,11.12884 9.38162,6.77286c2.13844,-2.46137 1.44273,-10.57877 1.42839,-13.99205c1.66461,-8.85212 9.75397,-11.50947 11.31482,-20.33762c1.50146,-3.01585 5.2798,-7.15724 5.91612,-10.58998c0.65384,-3.52716 0.42994,-10.36373 -0.25819,-13.85353c-2.32015,-3.31924 -4.39119,-6.22956 -5.61074,-9.93647c0.03583,-0.16393 0.01736,-0.48028 0.01736,-0.48028z" data-paper-data="{&quot;noHover&quot;:false,&quot;origItem&quot;:[&quot;Path&quot;,{&quot;applyMatrix&quot;:true,&quot;segments&quot;:[[[274.80477,467.7914],[0.05238,-0.17523],[1.78239,3.96244]],[[283.01306,478.41206],[-3.39091,-3.54807],[1.00574,3.73035]],[[283.40182,493.42023],[0.95557,-3.77031],[-0.92999,3.66937]],[[274.77166,504.73788],[2.1944,-3.22375],[-2.28119,9.4367]],[[258.27823,526.45551],[2.43283,-9.46234],[0.02093,3.64857]],[[256.21093,541.38784],[3.12532,-2.63104],[-5.53098,4.65624]],[[242.32718,534.04685],[1.78963,4.5],[-0.04154,-0.21132]],[[241.72909,530.62169],[0.1098,0.97709],[-0.39727,1.1893]],[[239.05738,535.30931],[0.19311,-0.44991],[-1.57309,3.665]],[[239.00777,548.11712],[-2.30721,-3.46082],[4.77396,9.52948]],[[235.83205,572.60232],[5.62939,-8.44408],[-0.44385,0.66492]],[[232.165,579.85703],[-0.62281,-0.79547],[0.18823,0.24041]],[[235.61542,581.54513],[-0.32164,-0.2407],[3.97773,2.97675]],[[248.56425,590.76908],[-2.86801,-4.30201],[5.14367,3.31437]],[[263.14699,603.06629],[-4.53511,-4.14144],[2.07182,1.89197]],[[269.77335,608.8422],[-1.58669,-2.33613],[0.60724,0.60483]],[[272.56657,612.43187],[0.07023,-0.81678],[-0.05587,0.64979]],[[268.27854,616.1833],[0.59746,-0.59547],[-4.34251,4.3281]],[[253.84042,627.73681],[4.92537,-3.39744],[-2.9179,1.89418]],[[244.14286,628.7619],[3.26362,0],[-0.85714,0]],[[241.57143,628.7619],[0.85699,0.01612],[-0.44489,-0.00837]],[[240.24426,628.61828],[-0.20697,-0.39391],[1.99938,3.80522]],[[241.02788,641.37031],[2.59371,-3.96289],[-0.21703,0.53931]],[[238.14321,646.39026],[-0.1306,-0.28086],[0.40251,0.86558]],[[241,646.19047],[-0.95459,0],[5.9809,0]],[[249.96461,639.67153],[-3.21363,3.54375],[1.09089,-1.20295]],[[253.75861,638.76677],[-1.42158,-0.00662],[4.05505,-0.81101]],[[266.17191,637.08112],[-3.99629,1.10127],[1.43662,-0.39589]],[[272.44804,635.95246],[-1.48675,-0.37701],[2.22599,0.56447]],[[279.5792,644.11712],[-0.96182,-1.91048],[0.88502,1.32181]],[[281.93273,648.97964],[0.45304,-1.7541],[-0.5049,1.95489]],[[286.61768,666.20852],[-4.06187,-1.68696],[2.71754,-0.03403]],[[295.04137,667.52421],[-2.76298,-0.62595],[-1.59068,-1.90809]],[[292.00598,660.79564],[-0.16506,1.22432],[0.71803,-5.32585]],[[305.73321,650.84966],[-3.94516,1.97639],[2.67114,-1.03848]],[[319.42858,655.7619],[-0.13804,-4.29684],[0.0719,2.23787]],[[316.15959,664.92985],[-2.95653,1.97955],[4.39879,-2.89945]],[[329.15004,654.19765],[-3.70401,3.70401],[1.63374,-1.63374]],[[332.15499,649.43951],[1.6851,2.52953],[-1.85267,-2.80963]],[[325.15004,641.04044],[2.40118,2.40118],[-0.48534,-0.48534]],[[321.71622,638.10975],[0.02564,0.52103],[-0.06462,-1.31333]],[[325.04467,635.93425],[-0.6977,0.17609],[3.19798,-0.80715]],[[336.60228,635.66641],[-2.58083,-2.35761],[1.75403,2.21317]],[[340.14815,643.24118],[-0.77764,-2.711],[0.17082,-0.78527]],[[340.5803,641.3435],[-0.05857,0.38034],[0.41662,-2.7055]],[[342.39129,627.9234],[1.29061,2.27535],[-0.94668,-1.669]],[[333.73321,624.67414],[1.74946,0.70089],[-3.60059,-1.90852]],[[320.30639,619.61155],[4.10062,0.52732],[-3.60927,-0.46414]],[[309,621.04762],[3.80675,0],[-5.64643,0]],[[295.44836,612.81699],[1.37356,6.74264],[-0.87968,-4.31826]],[[295.85715,605.61905],[6.67744,-0.03112],[-9.8097,0]],[[271.56529,590.86396],[7.58628,5.00649],[-6.49197,-4.86859]],[[258.4007,570.1535],[-6.01767,9.19432],[2.14406,-5.40801]],[[266.04902,554.59552],[-1.80899,5.45418],[1.36687,-4.12118]],[[269.84253,542.12912],[-1.63693,4.06255],[2.87796,-3.74241]],[[274.53604,528.52867],[-2.98779,3.62704],[2.81431,-3.41644]],[[287.99377,521.71852],[-3.91453,1.56814],[8.53661,-4.8897]],[[315.43575,503.91194],[-5.93265,7.96104],[8.58849,-6.48379]],[[332.09236,479.05646],[-5.68058,8.27374],[1.719,-6.16731]],[[334.57143,461.19047],[0,6.41431],[0,-0.98469]],[[334.24664,454.99094],[0.84629,0.80271],[-1.1449,-1.08594]],[[327.45936,453.61014],[1.50711,0.2218],[-10.65533,-3.29552]],[[291.69952,456.97603],[10.83748,-1.2061],[-6.87194,0.83926]],[[274.83773,467.10088],[1.53502,-7.80198],[0,0]],[274.85715,467.47619]],&quot;closed&quot;:true}]}" fill="#8e8a91" stroke="none"/><path d="M193.10569,229.42497c-5.08528,-1.76743 3.32359,-12.42457 3.96614,-16.33086c0.47811,-2.52609 0.84191,-8.73948 0.03167,-11.10901c-1.10728,-3.23809 -2.94535,-6.49809 -2.96004,-10.18089v-0.93552c0,-0.51667 0.30634,-0.93552 0.68423,-0.93552c0.2267,0 0.42766,0.15075 0.55215,0.38291l0.50839,0.92681l-0.18879,0.19359c0.46006,0.85416 0.66807,1.6878 1.3557,2.79519c1.43391,2.30924 4.9347,2.6357 4.57328,6.78891c-0.05243,0.60242 0.7706,-0.91272 1.20329,-0.77826c1.45947,0.4536 1.93991,2.05433 3.03663,0.00904c0.47551,2.58534 2.10457,4.21447 5.53108,-0.19562c0.27827,-0.35816 0.2953,-0.78445 0.17507,-1.24658c0.02464,-0.36132 -0.01095,-0.62259 -0.01095,-0.62259l-0.57441,-1.01901c0.00901,0.00016 0.01803,0.00023 0.02707,0.00023c1.05551,0 1.91117,-1.0471 1.91117,-2.33879c0,-1.29167 -0.85567,-2.33879 -1.91117,-2.33879c-1.01014,0 -1.83725,0.95902 -1.90648,2.17363c-0.29783,-0.13327 -0.65303,-0.17882 -1.05435,-0.0257c-0.2373,-0.03841 -0.46907,-0.06453 -0.68582,-0.05719c-0.31673,-0.28514 -0.70796,-0.45357 -1.13132,-0.45357c-0.0757,0 -0.1504,0.00539 -0.22379,0.01587c0.46239,-2.07918 1.97867,-2.95813 2.54023,-5.00242c0.79132,-2.88076 -0.04251,-6.28624 -0.04251,-9.26444c0,-0.31184 0,-0.62368 0,-0.93552v-0.93552c0,-0.51667 0.30634,-0.93552 0.68423,-0.93552c0.2937,0 0.54418,0.25301 0.6412,0.6083l0.33619,1.14916l-0.25637,0.14021c0.17449,0.29148 0.37882,0.47867 0.64743,0.4411c0.90662,-0.12677 0.71085,-1.66593 1.40009,-2.00304c0.63918,-0.31264 1.32804,0.81498 1.98858,0.60083c0.94319,-0.3058 1.88145,-1.09512 2.80359,-2.13101c0.00502,0.0523 0.0112,0.10566 0.01862,0.16009c0.31421,2.30695 2.19937,1.92245 2.19937,1.92245l2.70657,-2.99951c-0.13527,-0.74957 -0.37963,-2.9003 -1.01342,-4.47467c0.91487,-1.34403 1.79208,-2.57198 2.61763,-3.38921c0.51792,-0.15085 3.24472,-1.86425 4.2552,-2.4522l2.28445,3.14984c1.70497,-0.83397 3.25443,-2.33039 4.35268,-4.13105c0,0 1.09599,-1.916 -0.4697,-3.25719c-0.02152,-0.01844 -0.04296,-0.03626 -0.06433,-0.0535c2.20422,-3.68201 4.46502,-6.9921 6.09225,-3.77718c0.16413,0.65305 0.38308,1.28498 0.49238,1.95913c0.02517,0.15518 0.01443,0.41314 -0.01028,0.6755c0.06623,-0.25755 0.15214,-0.51521 0.25439,-0.77233c-0.01618,0.12248 -0.0246,0.24813 -0.0246,0.37621c0,1.29167 0.85567,2.33879 1.91117,2.33879h1.91117c0,0 1.91117,0 1.91117,-2.33879c0,-0.06808 -0.00163,-0.13416 -0.00477,-0.19832c0.04898,-0.33245 0.03537,-0.72176 -0.07585,-1.17536c-0.54917,-2.24015 -2.37975,-1.56811 -2.37975,-1.56811l-1.87006,0.68653c-0.21567,0.07259 -0.41608,0.19028 -0.59404,0.34424c1.13894,-1.86558 2.80198,-3.63746 3.63893,-5.07358c0.07524,-0.1291 0.20966,-0.39383 0.37133,-0.71462c0.18296,1.05817 0.95058,1.85228 1.86977,1.85228c1.05551,0 1.91117,-1.04711 1.91117,-2.33879c0,-0.36807 -0.06949,-0.71631 -0.19331,-1.02611c0.03701,-0.01265 0.07253,-0.03122 0.10647,-0.05648c0.64018,-0.47663 1.13073,-3.08768 1.53049,-3.99508c0.36947,-1.24875 1.68719,-4.65214 2.41561,-5.46697c0.60419,-0.67585 1.21938,0.09018 1.74764,-0.97904c0.40331,-0.81632 1.38357,-2.88711 2.31415,-2.72493c3.16901,0.55229 -0.95998,9.27407 -1.73135,10.62735c-2.28559,4.13705 -4.44873,7.93661 -7.12348,11.14317c0.05258,0.13247 0.08244,0.28425 0.08244,0.44554c0,0.29867 -0.10236,0.56464 -0.26173,0.73592l-0.85036,0.93012l-0.00023,-0.00039c-1.37084,1.79744 -3.16105,3.35781 -5.04676,4.23287c-0.0081,0.20374 -0.06386,0.39011 -0.15231,0.53867l-0.68084,1.16357l-0.21451,-0.23463c-3.17104,5.69326 -10.91047,7.56615 -15.47954,9.6499c-2.78058,1.50276 -3.76054,5.0424 -5.10599,8.45057c-1.81315,4.59304 -4.7596,9.08625 -4.71367,14.64086c-1.82617,10.19753 -6.39428,23.53553 -11.86869,31.00366c-3.63626,3.56151 -5.91194,3.05156 -9.93342,0.85642l-0.394,-0.26573c0,0 -0.42438,-0.29011 -0.38966,-0.87036zM199.91778,208.87835l4.02706,1.15277c1.2457,-2.69788 4.0813,-6.39151 -1.92428,-7.95181c-1.22303,-0.31773 -1.88888,2.00516 -2.83332,3.00775c0,0 -1.17335,1.84612 0.33525,3.28199c0.05258,0.05004 0.10474,0.09609 0.15647,0.13838c0.12709,0.23416 0.23882,0.3709 0.23882,0.3709zM235.6704,167.46533c1.05551,0 1.91117,-1.0471 1.91117,-2.33879c0,-1.29167 -0.85567,-2.33879 -1.91117,-2.33879c-1.05551,0 -1.91117,1.04711 -1.91117,2.33879c0,1.29167 0.85567,2.33879 1.91117,2.33879z" fill="#665d69" stroke="none"/><path d="M191.91372,227.48743c3.08532,1.46114 2.62005,-3.72368 4.80653,-2.00004c0.13528,-0.21496 0.35132,-0.3424 0.60537,-0.41975c-0.35961,0.33839 -0.65634,0.89682 -0.65634,1.81838c0,2.33879 1.91117,2.33879 1.91117,2.33879h2.54823c1.05551,0 1.91117,-1.04711 1.91117,-2.33879c0,-0.86685 -0.38538,-1.62355 -0.95791,-2.02752l-1.66878,-1.22529c0,0 -1.21523,-0.89228 -2.18065,0.14048c-0.37866,-4.87921 1.76818,-12.45994 3.292,-15.74273l0.00545,-0.00623l-0.00171,-0.00155l0.5415,-1.11055c0.12182,-0.25792 0.33392,-0.42865 0.57519,-0.42865c0.37789,0 0.68423,0.41886 0.68423,0.93552v1.49681h-0.13152c0.26189,2.63059 0.1613,5.32757 0.13645,8.00595c-0.34623,-0.42656 -0.8259,-0.69067 -1.35601,-0.69067c-1.05551,0 -1.91117,1.04711 -1.91117,2.33879c0,1.29167 0.85567,2.33879 1.91117,2.33879c1.05551,0 1.91117,-1.0471 1.91117,-2.33879c0,-0.55818 -0.15979,-1.07071 -0.42647,-1.47278c0.2404,-1.4755 0.64228,-3.07762 1.38351,-3.43251c0.46718,-0.22367 1.05567,-0.23624 1.48298,0.10537c0.15034,0.12021 0.35795,1.04802 0.43701,1.56905c0.13387,-0.4842 0.31381,-0.91774 0.52377,-1.31828c0.09587,0.01813 0.19409,0.02752 0.29412,0.02752c1.05551,0 1.91117,-1.0471 1.91117,-2.33879c0,-0.23528 -0.02839,-0.46244 -0.08122,-0.67665c0.32298,-0.45545 0.62083,-0.93837 0.85946,-1.4862c0.11692,-0.26841 0.22226,-0.54622 0.3177,-0.83171c0.34942,0.46692 0.85167,0.75972 1.40982,0.75972c1.05551,0 1.91118,-1.0471 1.91118,-2.33879c0,-1.29167 -0.85567,-2.33879 -1.91118,-2.33879c-0.2147,0 -0.42113,0.04334 -0.61379,0.12323c0.29226,-2.15866 0.45876,-4.3577 1.02568,-6.0918c0.25041,-0.7659 1.03734,-0.9025 1.51678,-1.42611c0.24307,-0.26547 0.54114,-5.34803 0.67916,-6.07844c1.80573,-3.73507 0.66562,-9.11898 2.5069,-12.83634c0.81308,-1.64145 3.64762,-2.11731 4.99826,-3.95764c1.71672,-2.33915 2.12799,-4.36895 4.83193,-3.17373c1.0064,0.45865 1.68183,0.70385 2.45697,1.72282l0.2737,0.37419c0,0 0.03794,0.05187 0.08195,0.1411c0.07355,-0.03922 0.14585,-0.07823 0.21678,-0.11707c5.84097,-4.57437 14.71724,-9.21063 18.77653,-16.65828c5.87647,-6.06564 7.51007,-15.51242 11.3969,-23.2526c1.17619,-5.76959 1.69625,-10.71318 1.69625,-16.71387c0,-0.27273 0.03129,-0.82653 0.06029,-1.49058c0.33423,-1.65963 0.69039,-3.30402 1.03837,-4.95415c0.58819,1.68349 0.26982,4.95621 0.26982,6.44473c0,6.24887 -0.545,11.50915 -1.82263,17.49916c-3.807,7.98123 -5.70288,17.71228 -11.67131,23.79028c-4.19104,7.59344 -13.15439,12.34663 -19.14915,17.02016c-2.51033,1.37082 -6.94838,2.98417 -8.77724,5.92433c-1.93169,3.10546 -1.21528,8.99245 -3.04435,12.40181c-1.06844,3.68813 -1.57323,7.59177 -2.48719,11.32442c-1.27383,5.20223 -3.80768,9.7081 -5.32345,14.84714c-3.66353,7.35861 4.76992,13.06208 8.58683,16.97644c4.84238,4.45286 9.58109,13.45994 15.83075,13.45994c0.86947,0.00465 0.99092,-0.06794 1.89363,0.28544c4.23254,1.65698 -1.55771,5.16364 -0.83195,7.94899c1.40256,5.38281 4.22217,6.19919 7.93099,6.19919c2.69123,0 5.31729,-1.76 7.90333,-1.32943c3.05731,0.50901 6.83507,3.09166 9.58038,4.8863c1.72513,0.94191 5.60095,1.55625 6.58747,3.90978c0.57462,1.37089 -0.12415,4.2718 -0.33204,5.68035c-0.56451,3.82484 -0.10306,9.27815 -1.68291,12.70405l0.21282,0.19399l-0.38509,0.78979c-0.12181,0.25792 -0.33393,0.42866 -0.57521,0.42866c-0.32562,0 -0.5981,-0.31099 -0.66727,-0.72758l-0.19202,-1.05015c-0.54905,-3.00578 -1.14072,-6.25452 -2.58294,-8.69081c-1.01626,-1.68576 -4.82323,0.47941 -6.86592,1.12128c0.61681,0.64944 1.21133,1.77562 1.63688,2.45307c1.43898,2.29075 3.13174,4.56041 4.36214,7.0622c0.64118,1.56614 1.13604,1.95782 0.39748,3.92642c-0.50313,1.34111 -2.98501,3.24608 -3.86524,4.24684c-2.55492,2.90475 -5.08789,6.31216 -7.87398,8.87547c-0.47998,0.43584 -1.54729,1.53937 -2.10771,1.08655c-2.12407,-1.71623 2.02611,-9.57241 2.2169,-11.22009c0.07577,-0.65428 -4.0464,-2.74424 -4.46606,-2.93797c-1.15685,-0.53407 -1.87791,-0.57399 -2.97564,0.04934c-2.03266,1.38642 -8.2963,3.93954 -8.59285,7.80192c-0.15405,2.00648 1.41349,4.33311 2.58963,6.15552l0.04216,-0.08647l0.57766,0.52653c0.18865,0.16656 0.31351,0.45658 0.31351,0.78644c0,0.51667 -0.30634,0.93552 -0.68423,0.93552h-0.97746v-0.03074l-0.06743,0.02617c-2.29851,-0.61831 -4.75788,-1.58186 -7.09972,-1.61605c-3.43499,-1.82592 -5.07055,-16.90446 -4.22317,-18.62976c0.03516,-0.07163 -1.37861,-2.64914 -1.51755,-2.93515c-0.45155,-1.24391 -3.1142,-6.58571 -4.11336,-6.79548c-1.35069,-0.28358 -3.25997,1.1839 -4.61109,1.37652c-2.51307,0.35821 -5.14425,0.65831 -7.62424,1.33645c-2.61785,0.01402 -3.14645,4.68567 -5.84741,6.33739c-1.63957,1.00265 -6.70806,1.82692 -6.00483,-1.97985c0.31058,-1.68121 1.33085,-3.05623 1.7956,-4.65486c2.20648,-4.43196 -1.17988,-7.70228 -0.63678,-11.59177c0.20289,-1.45315 1.5951,-1.19071 2.21978,-1.20352c2.25395,-0.04623 5.69818,1.18737 7.6357,-0.64473c2.67414,-2.3164 5.14246,-5.28921 7.54744,-8.20464c0.98737,-1.19695 1.96291,-2.16232 2.90491,-3.4392c0.47323,-0.64144 2.38462,-1.61113 1.75785,-1.30171c-0.5559,0.27444 -1.27436,-1.53013 -1.60767,-1.98758c-1.0189,-2.13505 -3.09466,-3.56649 -4.45876,-5.28813c-3.12369,-3.94244 -6.47428,-8.21357 -9.96242,-11.48268c-1.92312,-3.94408 -6.06847,-5.7372 -8.73445,-8.47738c-0.37984,-0.39041 -2.57338,-1.76921 -2.72195,-2.16282c-0.80647,-2.13673 1.81669,-7.16143 2.57372,-8.7159c3.58327,-7.34888 5.16111,-12.6161 2.12795,-20.92922c-2.00489,-4.11181 -1.13621,-10.39473 0.37722,-14.53682c0.39499,-1.08109 1.57978,-5.22464 2.8234,-5.03936c0.99106,0.14765 1.41249,3.90903 1.56591,4.94101c1.06945,3.63055 2.48255,6.39959 5.53251,6.01786c0.59112,-0.07398 1.33804,0.48575 1.7803,-0.05555c1.66404,-2.03671 0.92153,-9.96242 0.93142,-12.75955c1.65829,-9.29197 9.71055,-11.91661 11.39197,-20.84542c1.32723,-2.7726 5.28078,-7.22099 5.82463,-10.26076c0.56573,-3.16208 0.37025,-9.48812 -0.12499,-12.6886c-3.03977,-3.84372 -5.37496,-7.76569 -6.38477,-12.8886c0.68707,0.97897 1.43094,1.89717 2.21304,2.75832c1.24231,3.3673 3.19628,6.1093 5.36257,9.20845l-0.00002,0.00002c0.68815,3.48977 0.91982,10.51316 0.26601,14.04032c-0.63632,3.43274 -4.40352,7.57194 -5.90497,10.58781c-1.56084,8.82815 -9.62063,11.46497 -11.28524,20.31709c0.01433,3.41328 0.72393,11.508 -1.4145,13.96937c-3.78444,4.35597 -8.27512,-2.65779 -9.49962,-6.86761c-0.02843,-0.19769 -0.33409,-2.29022 -0.40921,-3.20429c-0.27181,1.11261 -1.69593,3.96442 -1.82807,4.38533c-1.07636,3.42866 -1.6126,8.74422 -0.03396,11.98187c3.26648,8.91494 1.67887,15.00666 -2.17291,22.90621c-0.26907,0.55112 -2.36533,4.86881 -2.54358,6.3639c0.10196,0.01138 0.17219,0.04337 0.17219,0.04337zM208.43364,235.66943c1.05551,0 1.91117,-1.0471 1.91117,-2.33879c0,-1.29167 -0.85567,-2.33879 -1.91117,-2.33879c-1.05551,0 -1.91117,1.04711 -1.91117,2.33879c0,1.29167 0.85567,2.33879 1.91117,2.33879z" fill="#3a2f41" stroke="#3a2f41"/></g><g stroke="none" stroke-width="0.5" stroke-linecap="butt"><path d="M318.18395,197.89728c-0.31089,-0.98653 -0.51623,-1.93649 -0.52606,-2.7997c-0.02877,-2.52541 0.50418,-7.30941 1.4699,-9.7006c0.04242,-0.10506 0.44043,-0.68182 0.72157,-1.22156c0.22663,1.31486 0.68671,2.89521 0.82826,3.8826c0.84538,2.54447 1.77392,5.22834 3.90314,6.54906c4.18036,2.59302 9.56132,0.09137 10.01834,-5.98721c0.21248,-2.82618 -1.22537,-4.24185 -2.07305,-6.47851c-0.82698,-2.18202 -0.85264,-4.88203 -0.90193,-7.28373c-0.12273,-4.17904 2.74735,-7.54992 2.59604,-11.5506c-0.29449,-7.78633 -3.85306,-14.58996 -4.38875,-22.348c-0.71908,-10.07394 5.43627,-21.68994 8.14521,-31.54066l0.24068,-0.10378c2.47701,-0.91873 5.1502,-1.89044 7.69971,-1.65032c7.29568,2.25035 15.31089,6.94386 19.28595,14.80044c1.83819,3.6331 5.05126,7.20177 2.66938,11.41913c-3.47421,8.02507 -6.6334,16.40086 -11.52414,23.42523c-2.87378,4.1275 -6.45225,7.09503 -9.77964,10.60294c-4.40995,4.07964 -0.98291,8.89534 -1.01985,14.09999c-0.01422,2.00275 -0.16446,4.00412 -0.38001,5.9984c-0.69545,0.07528 -0.92497,0.98602 -0.92497,0.98602l-0.06924,0.27775c-0.91689,3.76266 -2.11752,7.51876 -3.05889,11.31665c-0.04818,0.1944 -0.2051,0.63141 -0.36711,1.14883c-0.03556,-0.21942 -0.06806,-0.41827 -0.09119,-0.58079c-0.01563,-1.98368 0.42403,-4.86372 -2.45333,-5.03667c-1.19252,-0.07168 -1.62966,5.75544 -1.81861,6.81812c-1.12498,6.32629 -0.95717,13.12935 -2.15687,19.53916c-0.17849,0.9537 -0.76688,2.73583 -1.08456,4.32954c-1.02149,-5.46835 -0.48365,-12.54509 -2.54226,-17.13088l0.41501,-0.37054l-0.84818,-1.44633c-0.13101,-0.22821 -0.32883,-0.40144 -0.57126,-0.47533c-0.55967,-0.1706 -1.15392,0.24973 -1.32495,0.93972l-0.29392,1.22468c-0.13572,0.54762 -0.48773,1.52293 -0.62171,2.19814c-0.69278,-1.69176 -2.14762,-4.5991 -2.30148,-4.86649c-1.94597,-3.38147 -4.98348,-3.90773 -6.25457,-8.23036c0,0 -0.17555,-0.57423 -0.61658,-0.75441z" data-paper-data="{&quot;noHover&quot;:false,&quot;origItem&quot;:[&quot;Path&quot;,{&quot;applyMatrix&quot;:true,&quot;segments&quot;:[[[468.36667,537.2],[0,0],[3.22394,4.39271]],[[479.75645,544.25103],[-3.83168,-3.11247],[0.30297,0.24611]],[[484.57379,548.89901],[-1.53057,-1.65274],[-0.04595,-0.79929]],[[484.66667,546.43333],[0,0.65748],[0,0]],[[484.66667,544.76667],[0,0],[0,-0.82843]],[[486.16667,543.26667],[-0.82843,0],[0.35883,0]],[[487.11304,543.60283],[-0.25814,-0.21016],[0,0]],[488.77038,544.9287],[[488.3265,545.48354],[0,0],[4.39754,4.4185]],[[497.65594,563.74217],[-3.27127,-5.75659],[-0.10643,-1.88711]],[[497.67049,558.54032],[0.07968,1.12533],[-0.53553,-7.56331]],[[494.0029,536.19321],[0.60987,7.44466],[-0.10244,-1.25052]],[[494.14696,527.76625],[-1.66568,0.32578],[4.01898,-0.78604]],[[499.2313,532.55622],[-0.69823,-2.20902],[0.08729,0.17354]],[[499.55461,533.17361],[-0.1238,-0.23283],[0.04644,-0.63272]],[[499.66667,531.76667],[0,0.23339],[0,-4.55981]],[[500,518.1],[0.02169,4.51215],[0,0]],[500,517.76667],[[500.93144,516.35422],[-0.93144,0.32067],[-0.38367,-2.29952]],[[499.39812,509.53606],[0.66364,2.24046],[-1.72463,-5.8224]],[[495.95584,493.54796],[-4.67753,6.0546],[3.38267,-5.04805]],[[505.82319,478.43287],[-2.54702,5.58529],[4.33465,-9.50534]],[[513.71692,448.38167],[-2.04377,10.14037],[1.83941,-5.51822]],[[506.16628,436.55103],[3.7692,3.43005],[-8.15083,-7.41744]],[[474.62372,426.59489],[10.80838,0.02944],[-3.59069,0.59951]],[[464.60508,431.05291],[3.09558,-1.86843],[0,0]],[[464.30969,431.25047],[0,0],[-0.36778,11.91789]],[[463.89272,469.20958],[-4.4262,-11.00059],[3.38377,8.47782]],[[477.58548,492.6132],[-3.06149,-8.59146],[1.57301,4.41435]],[[477.92302,506.29233],[-1.59451,-4.62318],[0.88714,2.6642]],[[481.61389,514.09539],[-1.8825,-2.15433],[1.92964,2.20828]],[[486.6396,520.81634],[-0.67168,-3.22711],[1.44464,6.94086]],[[474.86507,530.9027],[6.63781,1.47205],[-3.3809,-0.74977]],[[467.2365,524.90843],[2.03148,2.55266],[-0.53162,-1.05404]],[[464.76228,520.84838],[0.76045,1.39062],[-0.20278,0.69815]],[[464.31883,522.30805],[0.02255,-0.13171],[-0.51335,2.99783]],[[465.58969,533.62566],[-0.90111,-2.80925],[0.308,0.96021]],[[467.26319,536.56887],[-0.76439,-0.99546],[0.66844,0.05108]]],&quot;closed&quot;:true}]}" fill="#9b989d"/><path d="M317.32094,196.87937c-0.84172,-1.72064 -0.95301,-4.38128 -0.93657,-5.87276c0,0 0.01939,-1.28614 1.0788,-1.33236c1.05944,-0.0462 1.04005,1.23995 1.04005,1.23995c-0.00633,0.31965 0.1366,5.18949 0.9692,5.00456c0.52795,-0.11727 0.85865,-1.10579 1.38608,-1.05316c2.24587,0.22402 2.31688,4.10589 3.96479,5.36181c0.74441,0.56734 1.58644,-3.83219 1.62224,-3.89554c0.8637,-1.52748 4.25921,-3.62399 5.78784,-4.26708c2.12856,-6.1747 -0.78413,-10.15622 -2.42922,-15.89929l0.08843,-0.28082l-0.09135,-0.00502l0.11674,-1.43026c0.00601,-0.09179 0.0202,-0.18476 0.04322,-0.27756c0.17103,-0.69 0.76337,-1.11107 1.32303,-0.94046c0.24917,0.07595 0.44987,0.25641 0.58077,0.49415l1.00323,1.79324l-0.41157,0.35373c0.14118,0.07774 0.2936,0.10214 0.4617,0.05356c-0.43171,0.33961 -0.75163,0.89193 -0.84048,1.54562c-0.09964,0.73321 0.11492,1.42106 0.52334,1.86728l0.16441,0.18465l0.05178,2.01862c0.88501,0.44268 1.71842,1.72536 2.65503,1.32806c1.34054,-0.56863 5.53613,-4.8268 2.97216,-6.94495c0.13292,-1.13097 0.22083,-2.26804 0.40498,-3.39146c0.38612,-2.3555 1.08328,-4.00283 1.99679,-5.58737l0.59811,1.99639c0,0 0.59277,1.97857 2.25633,1.15021c0.17817,-0.08872 0.33049,-0.19063 0.46038,-0.30191c0.12156,0.00579 0.25286,-0.0017 0.39466,-0.02484c1.76035,-0.28736 1.6189,-2.41299 1.6189,-2.41299l-1.22197,-2.64419l-1.82555,-0.67468c-0.10792,-0.04266 -0.22148,-0.07278 -0.33977,-0.08886c-0.01024,-0.00139 -0.02046,-0.00268 -0.03066,-0.00383c0.11382,-0.17429 0.22922,-0.3519 0.34609,-0.53345c0.47272,-0.73437 0.50588,-2.03637 1.21626,-2.36775c2.7831,-1.29829 2.07798,3.48195 3.61529,0.88268c0.93325,-1.12684 1.79091,-2.19467 2.53295,-3.36643c0.08682,0.15796 0.1996,0.31529 0.34352,0.46934c0.84135,0.9006 1.64801,0.51328 2.10672,0.13581c0.73634,-0.22982 1.16835,-1.07621 1.16835,-1.07621l-0.11784,-0.22174c0.21499,-0.29246 0.42998,-0.58491 0.64497,-0.87738l-1.3138,-0.38111l-1.06915,-2.01176c0.08981,-1.00487 -0.26137,-2.22532 0.37055,-2.82755c0.66312,-0.63195 1.67517,-0.44271 2.46444,-0.2178c0.26611,0.07584 -0.07008,1.12969 0.18119,0.97171c0.86205,-0.54202 1.02188,-3.57071 1.18747,-5.84538c0.07341,0.02227 0.14912,0.0389 0.22686,0.04947c0.05563,0.00756 0.11108,0.01185 0.16624,0.01299l2.0989,0.07023c0,0 1.58163,0.05293 1.86903,-1.76796l0.41059,-0.50266c0.27398,-0.32861 0.46887,-0.75986 0.53516,-1.24755c0.05928,-0.43614 0.00736,-0.85625 -0.1304,-1.21898c0.11881,0.09721 0.23135,0.21153 0.33628,0.34413c1.65503,2.09157 0.66996,3.97163 0.4811,6.28549c-1.41839,5.56281 -6.22776,11.68391 -10.05192,15.21476c-2.78385,2.57033 -8.00173,4.24627 -7.82276,9.10998c3.42368,4.96397 2.33526,10.45587 1.65859,16.28615c-0.74788,6.44396 -1.35309,13.2523 -2.81014,19.13058c-0.98546,3.96871 -0.427,9.21888 -1.67163,13.07209c-0.43928,1.35997 1.23588,10.51992 0.42598,11.42326c-0.62677,0.69911 -7.60263,-1.35237 -8.41115,-1.5207c-1.17114,-0.24384 -5.4534,-2.35497 -6.08822,-3.44099c-2.64512,-4.52513 -0.81774,-10.94116 -3.50068,-15.28429c-2.52823,-2.25784 -4.55909,-10.37188 -6.07757,-13.71876l-0.62549,-1.38512c0,0 -0.14169,-0.31382 -0.13168,-0.70755zM340.27571,194.10406l-0.16676,-0.52932c0.19864,-0.16211 0.39729,-0.32422 0.59591,-0.48633l-0.85714,-0.34289l-1.00109,-3.17769c-0.53216,0.4343 -1.06432,0.8686 -1.59649,1.30289c0,0 -1.50185,1.22566 -0.57271,2.98596c0.35841,0.67903 0.80205,0.91376 1.21185,0.9459c1.387,1.03517 2.38646,-0.69852 2.38646,-0.69852zM340.61524,182.54016c0.96214,0.13075 1.87179,-0.71771 2.03181,-1.8951c0.16001,-1.17738 -0.49024,-2.23786 -1.45235,-2.36862c-0.96214,-0.13075 -1.87179,0.71771 -2.03181,1.8951c-0.16001,1.17738 0.49024,2.23786 1.45235,2.36862zM320.29665,200.18834c0.96214,0.13075 1.8718,-0.71771 2.03182,-1.8951c0.16001,-1.17738 -0.49024,-2.23786 -1.45236,-2.36862c-0.96214,-0.13075 -1.87179,0.7177 -2.03181,1.8951c-0.16001,1.17738 0.49023,2.23787 1.45234,2.36862zM328.16466,199.73778c0.96214,0.13075 1.8718,-0.71771 2.03182,-1.8951c0.16001,-1.17738 -0.49024,-2.23786 -1.45236,-2.36862c-0.96214,-0.13075 -1.87179,0.7177 -2.03181,1.89509c-0.16001,1.17738 0.49023,2.23787 1.45235,2.36863z" fill="#665d69"/><path d="M334.05489,174.80582c0.34851,-0.06761 0.63985,0.15049 0.92065,0.43632l-1.39138,0.35857c-0.1216,0.0278 -0.24,0.07067 -0.35361,0.12704c0.28304,-0.30435 0.46468,-0.85219 0.82432,-0.92197z" fill="#737373"/><path d="M318.84786,198.58496c0.49212,1.67354 1.24664,2.77626 2.09957,3.69552c-0.17867,0.28608 -0.30435,0.62572 -0.35499,0.99828c-0.16001,1.17738 0.49024,2.23786 1.45235,2.36862c0.61199,0.08317 1.20277,-0.22984 1.59288,-0.77169c0.04605,0.04886 0.0919,0.09826 0.13757,0.14829c-0.32099,0.3388 -0.55165,0.80919 -0.62497,1.34862c-0.16001,1.17738 0.49024,2.23786 1.45235,2.36861c0.45435,0.06175 0.897,-0.09488 1.25453,-0.40138c0.50341,1.03463 1.13388,2.37337 1.52435,3.32692c0.13398,-0.67519 0.43604,-1.48693 0.57179,-2.03455l0.3441,-1.38817c0.17103,-0.69 0.76337,-1.11107 1.32303,-0.94046c0.2424,0.07389 0.43894,0.24668 0.56994,0.47489l0.06582,0.11253c-0.63006,0.26534 -1.13169,0.94129 -1.24662,1.78695c-0.16001,1.17738 0.49023,2.23786 1.45234,2.36862c0.32799,0.04457 0.64987,-0.02464 0.93804,-0.18189c1.14964,4.44742 0.89008,10.22909 1.75495,14.85913c0.31769,-1.59371 0.90527,-3.37596 1.08376,-4.32967c1.0638,-5.68383 1.0359,-11.54254 1.80033,-17.20776c0.01789,0.28129 0.02345,0.55415 -0.00001,0.80723c0,0 0.17884,2.11904 1.93578,1.78654c0.11424,-0.02163 0.22031,-0.05079 0.31875,-0.08645l0.13261,0.2168c1.16078,-0.32054 2.97527,0.36139 3.48232,-0.96167c1.72381,-4.4978 -2.98394,-6.87667 -5.39158,-5.00792c0.24959,-2.06346 0.73204,-5.96211 1.69485,-5.90423c2.87736,0.17295 2.43024,3.05295 2.44589,5.03663c0.02314,0.16252 0.05539,0.36138 0.09096,0.58079c0.162,-0.51743 0.31797,-0.95437 0.36615,-1.14877c0.47876,-1.93149 1.02141,-3.85157 1.55976,-5.76721c0.0549,0.01419 0.11099,0.02523 0.1682,0.03301c0.96214,0.13075 1.87179,-0.71771 2.03181,-1.8951c0.13783,-1.01421 -0.32555,-1.94165 -1.0716,-2.26284c0.01582,-0.0609 0.03158,-0.12182 0.04731,-0.18274c0.25242,-0.32174 0.43129,-0.7339 0.49421,-1.19694c0.02987,-0.21981 0.0315,-0.43557 0.00814,-0.64194c0.13128,-0.26958 0.37962,-0.61753 0.79855,-0.66289c0.21556,-1.99427 0.35756,-3.99188 0.37177,-5.99464c0.03694,-5.20468 -3.43465,-9.94582 0.97532,-14.02547c3.3274,-3.50792 6.91281,-6.4299 9.7866,-10.55739c4.3087,-6.18841 7.28334,-13.40934 10.30593,-20.52776c1.21167,-1.92646 3.46073,-4.95205 4.17191,-6.76973c0.12926,1.69328 -0.17506,3.42127 -1.14112,5.13176c-3.52539,8.20413 -6.81872,16.64877 -11.79696,23.83041c-2.94503,4.24852 -6.65452,7.24653 -10.05593,10.86632c-3.22913,2.76258 -0.11394,8.11125 -0.12651,11.91659c-0.0269,8.15379 -2.19919,16.23311 -2.85845,24.33924c-0.25718,3.15111 -2.67466,8.19241 -2.30525,10.95686c1.08378,8.11047 4.92429,14.0988 9.64354,19.25673c6.47188,4.65946 10.58764,14.68129 14.70933,22.03046c1.08343,1.93179 1.76508,3.92533 3.34662,5.35324c3.90279,6.14258 8.13881,13.57259 14.45355,16.18467c2.56372,1.06048 5.50522,0.96742 8.21109,1.3054c3.36946,1.05781 8.11188,-2.76782 11.0949,-1.03034c0.6957,0.40521 0.97873,2.94545 1.78652,3.52955c1.06266,0.76838 3.18589,0.618 4.36482,0.6886c3.65872,0.21913 7.18978,-2.5456 10.43664,-0.08253c2.92519,1.73144 4.91159,5.18672 7.74258,7.22418c0.256,0.18425 3.04432,1.6489 3.26098,2.15228c0.42526,0.98808 -0.13235,2.79675 -0.38516,3.81891c-0.98621,3.98722 -3.45432,11.38968 -6.03462,14.21817c-0.03069,0.03364 -0.06171,0.06668 -0.09309,0.09917l0.01013,0.0124l-1.3675,1.65079c-0.26811,0.33522 -0.66717,0.49635 -1.05084,0.37939c-0.55967,-0.1706 -0.8747,-0.86827 -0.70367,-1.55825l0.29889,-1.20583c-0.38158,-4.7178 1.32596,-9.40817 1.11958,-13.7781c-0.03625,-0.76749 -1.27591,-0.05257 -1.88397,-0.23792c-0.97581,-0.29746 -1.95162,-0.59493 -2.92744,-0.89238c-0.43517,-0.14401 -1.55201,-1.04725 -1.21838,-0.68894c0.94301,1.01279 0.66982,3.0929 0.95133,4.52958c0.66022,3.36941 3.30743,7.6126 1.95696,11.30164c-1.44363,3.94358 -7.78416,4.14532 -12.0292,3.52527l-0.03775,0.37626l-2.08306,-0.17247c-0.06704,-0.00405 -0.13437,-0.01597 -0.20124,-0.03636c-0.55967,-0.1706 -0.8747,-0.86827 -0.70367,-1.55827c0.07084,-0.2858 0.21396,-0.52546 0.39712,-0.69605l0.94221,-0.89639c1.4773,-1.40547 3.86004,-2.83801 5.03018,-4.56044c0.02402,-0.03536 -2.93691,-2.41367 -3.24859,-2.6968c-0.80709,-0.73736 -1.52989,-1.29318 -2.1341,-2.32361c-0.32836,-0.56 -0.73304,-2.4681 -0.8713,-1.77434c-0.49541,2.4856 -0.57861,4.87439 -2.41454,6.75387c-1.41583,1.44942 -4.10483,1.84522 -5.84394,2.24982c-3.92856,0.91397 -8.2176,2.67343 -12.2337,3.12842l0.04179,0.29786l-1.53657,0.41535c-0.16348,0.04848 -0.3367,0.05131 -0.50689,-0.00058c-0.55967,-0.1706 -0.8747,-0.86827 -0.70367,-1.55827c0.06011,-0.24245 0.17223,-0.4517 0.31666,-0.61375l1.00045,-1.15996c2.2088,-2.66595 4.08109,-4.28496 6.82725,-6.03639c0.65953,-0.32466 1.25743,-0.83008 1.85346,-1.31244c0.31089,-0.25159 1.28013,-0.68914 0.92543,-0.76837c-7.51862,-1.67914 -16.16634,-4.93537 -24.00757,-3.60002c-4.78998,0.7848 -10.8038,1.28288 -15.06588,-1.55272c-1.37616,-0.91557 -2.56278,-2.446 -3.96536,-3.28093c-2.58093,-1.5364 -6.17444,-0.80597 -9.02963,-0.9627c-1.75449,-0.10496 -3.6974,0.14293 -5.43931,0.60957c-1.05342,0.28221 -2.05421,1.59059 -3.077,1.28514c-4.7034,-1.40467 3.99564,-11.37079 6.13078,-12.92871c0.76963,-0.56155 3.3649,-1.83965 3.93716,-1.87593c1.80982,-0.11467 2.46843,2.44314 4.36354,2.01672c2.84217,-0.76861 10.01614,-3.6512 11.51881,-7.03162c0.46464,-1.04529 -1.59658,-3.20606 -2.0073,-3.90907c-2.08821,-3.57429 -3.78654,-7.09084 -6.35262,-10.23378c-2.99455,-4.82828 -8.76984,-8.65456 -12.99984,-11.86031c-3.69938,-2.80362 -7.01634,-3.13637 -8.7584,-8.75112c-3.35931,-7.43915 -5.29889,-13.05894 -3.19584,-21.34785c0.13396,-0.52803 -1.50004,-2.9339 -1.69197,-3.25211c-1.52915,-2.53504 -2.60353,-4.7112 -3.64081,-7.63903c-0.94811,-3.76013 -4.01141,-8.47407 -4.11505,-12.3835c-0.10424,-3.93206 0.96237,-9.35159 2.6562,-12.77217c0.64276,-1.29805 1.20976,-3.52722 3.23927,-2.34012c0.52104,0.30477 1.06757,6.36647 1.17623,7.16047c1.63787,4.84606 9.06037,9.41327 9.80467,1.27961c0.20538,-2.24449 -1.1538,-3.5315 -1.8202,-5.28403c-0.95696,-2.51668 -1.02285,-5.49707 -1.08118,-8.26992c-0.05684,-4.07154 2.78298,-7.75137 2.59661,-11.44042c-0.39029,-7.72563 -3.86842,-14.4434 -4.41234,-22.18498c-0.73203,-10.74072 5.5973,-22.59482 8.33421,-32.98428c0.01354,-0.17075 0.0564,-0.3187 0.11541,-0.44577c0.02578,-0.10133 0.0512,-0.20253 0.07625,-0.30357c0,0 0.30966,-1.24934 1.32303,-0.94044c0.12342,0.03761 0.22722,0.0892 0.31432,0.15075c0.01092,-0.00396 0.02186,-0.00794 0.03278,-0.0119c0.01297,0.29012 0.0524,0.47977 0.0524,0.47977c0.1383,0.66517 0.27664,1.33033 0.41494,1.99549c-0.06436,0.02384 -0.12863,0.04765 -0.19275,0.07144l-0.24034,0.10372c-2.70895,9.85072 -8.83756,21.4565 -8.11848,31.53045c0.53569,7.75806 4.12409,14.52648 4.41858,22.31281c0.15132,4.00067 -2.71877,7.28388 -2.59607,11.46292c0.04929,2.40171 0.05547,5.07726 0.88246,7.25929c0.84769,2.23666 2.2201,3.8067 2.00763,6.63287c-0.45701,6.07859 -5.85647,8.56923 -10.03681,5.9762c-2.12922,-1.32072 -3.07066,-4.01919 -3.91605,-6.56365c-0.14154,-0.98739 -0.60664,-2.57631 -0.83329,-3.89116c-0.28112,0.53974 -0.55851,1.0194 -0.60093,1.12447c-0.96571,2.3912 -1.50679,7.16279 -1.47802,9.68821c0.00984,0.86319 0.21204,1.8095 0.52292,2.79606c0.44103,0.1802 0.61517,0.75291 0.61517,0.75291zM339.30835,216.37854c0.31393,-0.16762 0.58867,-0.43941 0.78888,-0.78248c2.05724,-1.0584 -0.5416,-6.46677 -3.06648,-4.1118c-2.74967,2.56464 1.19456,6.57673 2.27758,4.89427zM328.62927,218.12219c0.96214,0.13075 1.87179,-0.71771 2.03181,-1.8951c0.16001,-1.17738 -0.49023,-2.23786 -1.45234,-2.36862c-0.96214,-0.13075 -1.87179,0.71771 -2.03181,1.8951c-0.16001,1.17738 0.49023,2.23786 1.45234,2.36862z" fill="#3a2f41"/></g><path d="M126.76133,47.74046c0,0 20.64453,-6.20406 38.35341,-4.68333c24.55712,2.10882 51.77581,11.68842 84.77597,7.21588c10.17042,-1.3784 18.95307,-4.26945 27.09371,-7.81097c17.07797,-7.42965 31.33042,-17.72209 49.64277,-22.91719c3.28239,-0.9312 0.30676,-10.00153 11.16794,-12.34216c11.97554,-2.58077 38.18414,1.72559 49.39108,4.7647c16.91908,4.58813 32.73593,9.28259 45.46769,20.52155c1.68262,1.48533 6.26478,7.06751 7.7296,8.75677c5.51434,6.3593 6.74444,20.13884 4.52276,33.47424c-2.03702,12.22701 -7.24141,23.97444 -9.06883,31.54146c-0.60957,2.5242 -7.63469,13.73414 -7.63469,13.73414c0,0 2.36701,2.77671 1.76211,5.17292c-0.24243,0.96035 -2.13735,1.85959 -3.04819,2.49446c-7.19175,1.50948 -9.84374,-4.35882 -11.52511,-3.20705c-6.9151,4.73696 -14.327,9.81332 -20.0872,15.07899c-4.11968,3.766 -10.12494,14.21498 -10.12494,14.21498c0,0 5.77832,2.13451 5.69812,4.08361c-0.05525,1.34267 -0.89925,1.96598 -1.90365,2.77501c-2.091,1.68429 -13.61497,1.52345 -17.25788,1.32199c-15.18637,-0.83982 -42.53179,-8.61692 -53.51422,-19.88972c-12.1121,-12.43231 -10.04378,-17.5545 -10.04378,-17.5545c0,0 -37.81913,27.06448 -73.05669,30.32401c-39.72804,3.67489 -60.38806,-2.96737 -76.78487,-7.15721c-18.51598,-4.73135 -30.79453,-11.01111 -30.79453,-11.01111c0,0 -5.51061,99.77767 -1.67448,164.75674c0.68671,11.63198 2.78403,22.30189 1.76633,31.21822c-1.18944,10.42093 -43.90403,10.73369 -71.20282,6.6518c-12.7932,-1.91292 -22.20079,-6.35175 -22.36229,-8.31677c-0.16641,-2.02477 18.09184,-10.24545 31.07725,-18.38728c7.80883,-4.89613 13.07248,-11.67886 13.07248,-11.67886c0,0 -5.92702,-93.26867 1.88347,-153.32021c7.12165,-54.75537 24.02507,-77.66744 24.3914,-79.85166c0,0 6.71654,-5.55593 9.68408,-8.95922c3.12077,-3.57901 12.60401,-11.01423 12.60401,-11.01423z" fill="url(#color-1)" stroke="none" stroke-width="3.5" stroke-linecap="round"/><path d="M305.58861,70.06919c-14.42749,-0.56884 -39.58599,-15.36816 -40.43194,-23.19827c4.52166,-2.68022 22.06268,-7.47638 34.55547,-13.24389c12.80834,-5.9132 26.53557,-21.43509 32.89047,-22.12164c1.20344,-4.33689 40.68896,-7.22613 43.02457,-2.2488c2.33561,4.97733 -12.27945,63.08992 -70.03857,60.8126z" fill="#837e85" stroke="none" stroke-width="3.5" stroke-linecap="butt"/><path d="M435.33164,106.3551c-1.05455,4.36665 -8.08053,14.25566 -8.08053,14.25566c0,0 4.6912,4.56491 1.11445,6.36325c-4.86075,2.73779 -13.70912,-2.49335 -13.70912,-2.49335c0,0 -13.97253,13.48066 -18.58546,19.02177c-3.5799,4.30023 -6.78717,11.45619 -6.78717,11.45619c0,0 3.78453,3.99283 1.1993,6.2257c-1.98811,1.71712 -15.26586,1.36222 -19.04892,1.10141c-19.08634,-1.3159 -45.48744,-10.46324 -55.6782,-20.72603c-9.18659,-9.25151 -8.863,-17.42049 -8.863,-17.42049c0,0 -57.55913,61.21678 -178.3768,14.09635c-1.83546,-0.71585 -5.90976,149.58518 -0.66774,195.64955c1.30761,11.49066 -96.15187,8.3368 -93.45693,-5.62129c0.60966,-3.15765 44.21521,-19.56803 43.65168,-29.49387c-13.01132,-229.18129 42.35333,-245.86446 48.87547,-249.32597c19.59671,-10.4006 48.41093,-5.43833 74.15072,-0.57323c9.71868,1.83694 36.62135,5.02499 57.15419,-0.73275c38.57244,-10.81634 51.46397,-21.14294 71.56451,-36.1661c13.79913,-10.31348 82.14867,-4.00918 106.77688,24.60513c20.33325,23.62421 -1.23332,69.77808 -1.23332,69.77808z" fill="none" stroke="#3a2f41" stroke-width="3.5" stroke-linecap="round"/><g stroke-width="3.5" stroke-linecap="butt"><path d="M422.16547,59.85104c11.37147,8.08599 14.39156,27.47446 6.74547,43.30546c-7.64604,15.83094 -23.06279,22.10949 -34.43428,14.02352c-11.37144,-8.086 -14.39154,-27.47443 -6.74546,-43.30547c7.64605,-15.831 23.06278,-22.10954 34.43427,-14.02356z" fill="#3a2f41" stroke="none"/><path d="M385.75243,80.30577c0.64334,-2.18295 1.46783,-4.33818 2.47866,-6.4312c7.6461,-15.83098 23.06286,-22.10951 34.43435,-14.02353c11.18147,7.95091 14.2883,26.82981 7.11976,42.50914z" fill="#b1b0b4" stroke="none"/><path d="M422.66553,59.85108c11.37143,8.08597 14.39155,27.47441 6.74546,43.30542c-7.64604,15.83094 -23.0628,22.10956 -34.43428,14.02358c-11.37142,-8.08606 -14.39152,-27.47446 -6.74544,-43.3055c7.64601,-15.83093 23.06277,-22.10948 34.43425,-14.02353z" fill="none" stroke="#3a2f41"/></g><path d="M432.42709,92.30494c-0.34267,1.52307 -2.12754,7.67845 -2.12754,7.67845c0,0 3.78882,4.48532 2.79377,6.69839c-1.2784,2.84325 -7.26698,3.02479 -7.26698,3.02479c0,0 -5.05525,-4.59143 -19.64804,-8.59304c-13.33249,-3.65601 -22.61808,-4.50184 -22.61808,-4.50184c0,0 10.12403,-58.73978 38.15466,-48.84795c28.03064,9.89183 10.71222,44.54121 10.71222,44.54121z" fill="#c1c1c1" stroke="#3a2f41" stroke-width="3.5" stroke-linecap="butt"/><g stroke-width="3.5" stroke-linecap="butt"><path d="M378.84955,49.92471c12.26905,9.77702 14.29161,31.18759 4.51743,47.82187c-9.7741,16.63421 -27.64371,22.19315 -39.91269,12.41609c-12.26902,-9.77705 -14.29158,-31.18762 -4.51741,-47.82193c9.77414,-16.63426 27.64367,-22.19314 39.9127,-12.41611z" fill="#e1e1e0" stroke="none"/><path d="M335.6751,69.15095c0.88338,-2.32819 1.96939,-4.61092 3.26165,-6.81014c9.77422,-16.63428 27.64373,-22.19311 39.91278,-12.41609c12.06406,9.61367 14.22113,30.47551 4.99741,46.98426z" fill="#b1b0b4" stroke="none"/><path d="M378.84964,49.92474c12.26903,9.77707 14.29158,31.18758 4.5174,47.82185c-9.77411,16.63426 -27.64373,22.19317 -39.91271,12.41611c-12.26904,-9.77711 -14.29158,-31.18758 -4.5174,-47.82189c9.77409,-16.63424 27.64367,-22.19309 39.91269,-12.41609z" fill="#3a2f41" stroke="#3a2f41"/></g><path d="M375.60018,36.02753c16.41971,5.5828 17.55154,26.10971 14.73426,42.31947c-2.06567,11.88519 -6.71148,21.36292 -6.71148,21.36292c0,0 -8.51573,-1.77589 -25.75254,-6.38875c-15.74822,-4.21452 -25.30795,-13.28813 -25.30795,-13.28813c0,0 9.89177,-55.27539 43.0377,-44.00557z" fill="#c1c1c1" stroke="#3a2f41" stroke-width="3.5" stroke-linecap="butt"/><path d="M403.12492,117.44472c0.23458,-1.34666 1.48381,-2.22026 2.79026,-1.95115c1.30645,0.2691 2.17536,1.57891 1.94081,2.92563c-0.23456,1.34668 -1.4838,2.22027 -2.79025,1.95117c-1.30644,-0.26912 -2.17534,-1.57894 -1.94079,-2.92565z" fill="#3a2f41" stroke="#ffffff" stroke-width="1" stroke-linecap="butt"/><path d="M430.57914,110.95561c-15.17564,16.83273 -28.5552,10.71298 -28.5552,10.71298" fill="none" stroke="#3a2f41" stroke-width="1.5" stroke-linecap="round"/><path d="M339.89527,107.79793c0,0 -11.7743,-7.41307 -10.65257,-25.52123" data-paper-data="{&quot;index&quot;:null}" fill="none" stroke="#3a2f41" stroke-width="1.5" stroke-linecap="round"/><path d="M331.62855,85.89155c0.57043,-1.53648 2.31048,-2.03271 3.69567,-2.87438c-1.99413,-1.81645 -0.00839,-1.91699 1.01712,-1.83756c0.78161,-0.52266 2.5771,-0.81975 3.39188,-1.37503c0.63342,-0.43169 1.39298,-1.09475 2.17638,-1.73575c-0.04612,-0.10986 -0.0616,-0.23406 -0.03775,-0.35985c0.04672,-0.24669 0.23156,-0.4322 0.45932,-0.49165l0.61849,-0.17547c0.31572,-0.23888 0.60164,-0.51109 0.8281,-0.82917l0.03469,-0.02074l-0.00818,-0.00803l0.87338,-0.8914c0.14229,-0.1495 0.35518,-0.22598 0.57303,-0.18471c0.34122,0.06463 0.56547,0.39368 0.50085,0.7349c-0.00811,0.04283 -0.0204,0.08384 -0.03634,0.12265l-0.38139,0.98028l-0.37291,-0.14508l-0.23952,0.24447c-0.21697,0.26896 -0.50517,0.5406 -0.82407,0.71508c2.01502,-0.58706 4.61028,-0.32267 6.26043,-1.17687c0.73444,-0.38014 3.54634,-2.68474 4.08439,-2.74487c2.28528,-0.25547 1.59665,1.28085 1.47742,2.39736c-0.08887,0.46935 -0.09877,1.30306 -0.28119,1.971c0.35733,-0.40494 0.75115,-0.84148 0.953,-1.10596c0.9486,-1.24289 1.84747,-2.41639 2.79317,-3.66909c2.70454,-3.58232 4.02794,-7.89892 6.69178,-11.38177c3.58526,-6.88977 5.68279,-14.35416 9.55939,-20.97324l0.19098,-1.0082c0.06464,-0.34124 0.39366,-0.56546 0.73489,-0.50083c0.34122,0.06463 0.56545,0.39367 0.50083,0.73489l-0.23406,1.23571c-1.26463,6.67667 -3.00165,13.14396 -4.28605,19.92512c-0.99865,5.27245 -1.99731,10.54488 -2.99595,15.81731c-0.14869,0.78517 -0.22234,3.00006 -0.72041,4.17857l0.3279,-0.43053c0.13862,-0.1902 0.3789,-0.29444 0.62557,-0.24773c0.34122,0.06463 0.56544,0.39368 0.50082,0.7349l-0.06109,0.32247c1.6307,-0.1642 0.5157,4.80097 2.5299,5.66649c1.11894,0.48085 2.13196,3.85583 2.47552,2.68734c0.1549,-0.52686 0.32877,-1.07378 0.56379,-1.58303l-0.33548,-0.25549l0.6733,-0.88406c0.13864,-0.19022 0.3789,-0.29444 0.62557,-0.24773c0.24667,0.04671 0.4322,0.23156 0.49167,0.45933l0.30334,1.06908c0.41665,1.61061 2.03603,3.56415 3.02639,5.0151c0,0 0.35411,0.51972 -0.16552,0.87383c-0.16851,0.11482 -0.3196,0.13776 -0.44687,0.11635c0.04165,0.09795 0.0584,0.22124 0.02909,0.37595c-0.11703,0.61784 -0.73491,0.50082 -0.73491,0.50082l-0.24713,-0.04679c-0.34985,-0.06628 -0.69968,-0.13252 -1.04955,-0.19879c-7.33521,3.10164 -11.27183,6.82557 -14.59277,13.99066c-0.47902,1.02203 -2.73757,5.31185 -3.93824,5.50722c-0.91158,0.14833 -1.70999,-1.02767 -2.87866,-1.2046c0.27693,3.13904 -1.52042,7.8112 -2.06198,10.67047c-0.12386,0.65391 -0.44693,3.95108 -1.09476,4.17727c-3.40065,1.18727 -1.07978,-7.56341 -0.88199,-8.59904c0.02465,-0.74576 -0.36754,-9.90874 -0.88107,-9.60886c-0.60674,0.35431 -0.23551,2.72585 -0.815,3.17636c-0.50877,0.39551 -1.30193,0.67147 -1.88978,0.40753c-0.55363,-0.24856 -0.40755,-2.30852 -0.57846,-1.72623c-0.67138,2.28727 -0.15902,4.73668 -1.54485,6.91683c-0.31525,1.38056 -1.02841,2.77036 -1.62977,4.08414l-0.40766,1.15643c-0.09809,0.29376 -0.40055,0.4772 -0.71333,0.41797c-0.24023,-0.04552 -0.42251,-0.22206 -0.48677,-0.44169l-0.32066,-1.02023l0.20848,-0.06554c-2.20542,-6.75734 5.08946,-16.07009 -2.55836,-21.66748c-2.08458,-3.04886 -10.633,-11.44041 -9.06405,-15.66643zM352.90717,123.38308c-0.22362,0.91358 -0.50264,1.90061 -0.51446,2.76578c-0.0057,0.41798 0.35969,1.62252 0.3485,1.20464c-0.02751,-1.02702 0.02252,-2.42379 0.1659,-3.97047z" fill="#3a2f41" stroke="none" stroke-width="3.5" stroke-linecap="butt"/><path d="M322.1118,82.38156c-1.83089,10.39869 6.37973,30.32638 12.20764,32.86832c9.10529,3.97142 25.07356,4.55011 35.5084,4.05464c5.49862,-0.26111 9.30657,-1.95924 10.09939,-1.14076c5.24225,5.41191 7.36716,11.36821 13.47534,12.49709c6.83135,1.26251 17.27298,-4.07121 17.27298,-4.07121c0,0 -14.08706,10.25017 -21.41897,18.55127c-3.65401,4.13701 -4.38071,9.2675 -6.02263,9.52567c-24.26346,3.81526 -62.83269,-14.99494 -63.46744,-21.74978c-0.78337,-8.33667 -4.33404,-26.82467 -3.78375,-35.62619c0.47752,-7.63745 3.51624,-12.68198 7.82813,-19.0039" fill="none" stroke="#3a2f41" stroke-width="3.5" stroke-linecap="round"/><path d="M395.25664,142.64096c-3.654,4.137 -6.63072,11.51752 -8.27266,11.77567c-28.51347,4.31528 -67.08269,-14.99494 -67.71744,-21.74978c-0.78338,-8.33666 -4.33406,-26.82465 -3.78376,-35.62618c0.43232,-6.91459 1.35132,-13.03308 3.92069,-17.33472c4.69399,-7.85863 10.41576,-28.24162 6.24085,-31.59951c-1.50421,-1.20985 2.86128,-1.76489 3.95961,2.26945c0.32802,1.20489 3.36735,8.30235 3.20317,10.1566c-0.36807,4.15694 -0.97486,-7.20809 -3.16106,-3.3428c-2.28907,4.04718 -6.1652,23.29871 -6.72361,26.4702c-1.83094,10.39871 5.06909,28.7981 10.897,31.34004c9.10527,3.97141 25.07358,4.55008 35.50841,4.05462c5.49862,-0.26111 9.30658,-1.95924 10.0994,-1.14076c5.24221,5.41191 7.36714,11.36823 13.47532,12.49711c6.83137,1.26248 20.93965,-6.23789 20.93965,-6.23789c0,0 0.86483,0.09458 -0.8467,1.77356c-3.43439,3.36909 -17.73887,16.69439 -17.73887,16.69439z" fill="#3a2f41" stroke="#3a2f41" stroke-width="3.5" stroke-linecap="round"/><path d="M319.76644,132.91669c-0.28694,-3.05367 -0.94518,-7.4694 -1.63717,-12.27217c0.45023,0.0697 0.9021,0.14761 1.35838,0.20718c0.23795,-0.0027 3.38603,-0.08816 3.40951,-0.06142c1.00365,1.14315 -2.1114,9.62928 -3.0095,12.66462c-0.06435,-0.1868 -0.10508,-0.3664 -0.12119,-0.53818z" fill="#e1e1e0" stroke="none" stroke-width="3.5" stroke-linecap="butt"/><path d="M327.9561,131.89129c-0.44112,1.49908 -1.20707,5.51207 -1.61151,7.68308c-1.94766,-1.27776 -3.52991,-2.50423 -4.65501,-3.61841c0.07817,-0.02839 0.15703,-0.05541 0.23663,-0.08073c0.71998,-0.94192 1.3791,-0.7782 2.45412,-1.3679c0.28177,-0.15455 2.67256,-1.72887 3.57573,-2.61604z" fill="#e1e1e0" stroke="none" stroke-width="3.5" stroke-linecap="butt"/><path d="M336.52223,139.80863c0.38033,2.14022 0.39814,3.42782 0.09231,5.35709c-2.63101,-1.22126 -5.05503,-2.47378 -7.19602,-3.70702c0.0526,-0.01494 0.10521,-0.02983 0.1578,-0.04476c2.36611,-1.58757 4.90686,-2.50042 6.38675,-4.97968c0.58436,-0.97896 0.35963,2.25183 0.55915,3.37434z" fill="#e1e1e0" stroke="none" stroke-width="3.5" stroke-linecap="butt"/><path d="M347.81668,143.47698c0.51067,1.80581 0.16197,4.04072 -0.26622,6.11007c-2.2966,-0.80121 -4.5303,-1.65721 -6.66827,-2.54617c1.26283,-0.54996 2.53192,-1.06664 3.7438,-1.72392c1.07921,-0.58534 2.85657,-3.02133 3.19066,-1.83995z" fill="#e1e1e0" stroke="none" stroke-width="0" stroke-linecap="butt"/><path d="M360.26974,148.05157c0.36304,1.5153 0.13856,3.35377 -0.20815,5.13305c-2.71902,-0.60896 -5.4318,-1.33606 -8.09129,-2.15006c1.42849,-0.83296 2.72796,-1.81842 4.26974,-2.8851c1.01914,-1.30263 2.45698,-2.32509 2.70808,-4.0358c0.20108,-1.36994 0.99908,2.59136 1.32169,3.93786z" fill="#e1e1e0" stroke="none" stroke-width="0" stroke-linecap="butt"/><path d="M372.52108,155.04532c-2.45378,-0.15897 -4.96531,-0.4631 -7.49634,-0.88681c0.97919,-0.63019 7.209,-4.91026 7.30896,-4.89087c1.14616,0.222 0.68828,3.36455 0.18738,5.77768z" fill="#e1e1e0" stroke="none" stroke-width="0" stroke-linecap="butt"/><path d="M382.21387,151.7433c-0.00318,1.04486 -0.10547,2.06984 -0.26276,3.10249c-1.30747,0.16042 -2.65234,0.25933 -4.02691,0.30193c2.15672,-1.67135 4.26508,-3.78497 3.426,-5.36501c-0.33493,-0.63072 0.86578,1.24647 0.86362,1.96057z" fill="#e1e1e0" stroke="none" stroke-width="0" stroke-linecap="butt"/><path d="M322.17984,93.04588c0.25823,-1.36331 0.52937,-3.00042 0.95377,-4.56097c0.06864,2.43519 0.4365,5.06376 1.02403,7.69216c-1.43945,1.61091 -3.13595,3.27069 -3.57552,4.73549c-0.25282,0.84242 0.43093,-1.70656 0.59461,-2.57068c0.33437,-1.76534 0.66876,-3.53064 1.00313,-5.29599z" fill="#e1e1e0" stroke="#3a2f41" stroke-width="3.5" stroke-linecap="butt"/><path d="M325.49244,101.04283c1.27578,3.92244 2.95325,7.55992 4.74395,10.21067c-1.89751,8.42539 -4.18395,-4.1546 -4.78171,-7.26057c-0.1744,-0.82183 -0.11106,-1.86873 0.03776,-2.9501z" fill="#e1e1e0" stroke="none" stroke-width="0" stroke-linecap="butt"/><path d="M334.31935,115.24979c2.31045,1.00774 5.06276,1.79706 8.05445,2.40578c-2.08391,1.42977 -7.01103,4.80297 -7.0118,4.79775c-0.41749,-2.82013 -1.30816,-5.13369 -2.17219,-7.88012c0.37922,0.28634 0.7566,0.51395 1.12957,0.67664z" fill="#e1e1e0" stroke="none" stroke-width="0" stroke-linecap="butt"/><path d="M347.08458,118.44742c2.81453,0.38498 5.73597,0.64373 8.62412,0.80249c-2.03168,2.19585 -5.12892,3.77211 -6.12366,6.17459c-0.32409,0.78267 -0.28167,-1.69372 -0.64889,-2.45708c-0.54203,-1.12684 -0.89588,-2.34321 -1.30586,-3.52108c-0.17302,-0.29799 -0.35766,-0.63596 -0.54572,-0.99891z" fill="#e1e1e0" stroke="none" stroke-width="0" stroke-linecap="butt"/><path d="M369.82778,119.30452c0.05509,-0.00262 0.10999,-0.00542 0.16471,-0.0083c-2.47249,2.85556 -5.86404,6.72684 -6.32551,8.81c-0.30079,1.35777 0.27274,-2.87448 -0.24578,-4.16495c-0.59188,-1.38874 -1.18305,-2.94935 -1.70405,-4.49552c2.90184,0.03223 5.65896,-0.02485 8.11065,-0.14126z" fill="#e1e1e0" stroke="none" stroke-width="0" stroke-linecap="butt"/><path d="M379.92722,118.16379c1.33848,1.38184 2.4738,2.79917 3.52403,4.16257c-0.20718,0.09381 -0.43662,0.22388 -0.6901,0.39396c-1.56749,1.06825 -2.60186,3.05385 -4.04694,3.98799c-0.10971,0.07092 -1.84085,1.12436 -2.66969,1.88798c0.10865,-2.17871 -0.97156,-8.33244 -1.1589,-8.98851c-0.04298,-0.30254 -0.06215,-0.61053 -0.05716,-0.91822c2.7523,-0.51399 4.57743,-1.06402 5.09875,-0.52581z" fill="#e1e1e0" stroke="none" stroke-width="0" stroke-linecap="butt"/><path d="M383.95699,129.56866c0.37009,-1.01388 1.04312,-3.26808 1.19031,-5.0301c1.87722,2.41345 3.68569,4.45558 6.22599,5.52072c-1.17619,0.95322 -2.42798,1.91349 -3.6794,2.25296c-1.75016,0.54517 -4.03508,1.17994 -5.88218,1.38301c-0.46191,0.05077 0.56021,-0.74158 0.83818,-1.11397c0.66361,-0.88897 0.92435,-1.96414 1.30708,-3.01259z" fill="#e1e1e0" stroke="none" stroke-width="0" stroke-linecap="butt"/><path d="M396.6699,135.38836c0.23175,-1.04066 0.32493,-2.94101 0.11578,-4.5847c3.48283,-0.28903 6.51035,-1.42666 8.63145,-2.55009c-2.15269,2.86138 -6.33843,5.48556 -8.7472,7.13479z" fill="#e1e1e0" stroke="none" stroke-width="0" stroke-linecap="butt"/><path d="M371.78896,145.91947c0,0 57.08817,9.50693 59.05059,20.93254c2.23747,13.02687 -53.5174,18.40972 -52.69657,23.1679c1.04728,6.07079 14.58697,8.0544 18.2165,13.94932c2.65443,4.31123 -9.01522,6.91169 -8.66625,10.59159c0.23865,2.51655 13.3592,3.7532 13.66235,10.46196c0.25263,5.59108 -9.1037,7.47134 -15.49414,3.93783c-6.59294,-3.64549 -7.93079,-4.7612 -8.74706,-11.10803c-0.8163,-6.34685 8.13838,-8.77109 5.85048,-11.414c-2.2879,-2.64291 -26.58068,-9.93311 -26.68719,-18.49071c-0.15782,-12.67825 49.73177,-12.74466 47.95758,-21.40619c-1.4475,-7.06663 -38.11182,-14.45727 -38.11182,-14.45727z" fill="#3a2f41" stroke="none" stroke-width="0" stroke-linecap="round"/><path d="M304.50006,128.58278c0,0 0.53857,-1.75432 0.78893,-2.90722c0.50394,-2.32066 0.85734,-5.25629 0.42094,-7.90564c-0.73249,-4.44681 -2.45483,-5.69156 -1.43135,-10.37356c1.33029,-6.08554 5.91678,-11.05244 6.61949,-17.24191c0.42563,-3.74904 -0.97931,-5.35408 -0.36226,-5.05742c0.54229,0.26071 1.90832,3.86204 1.14883,6.25655c-1.49718,4.72021 -6.39251,12.51062 -6.70099,16.2306c-0.21544,2.598 1.55748,6.755 2.18824,10.18663c0.71301,3.87921 0.30984,6.89652 0.30984,6.89652" fill="none" stroke="#3a2f41" stroke-width="2" stroke-linecap="round"/><path d="M123.18972,278.99032c-27.20454,21.15087 -47.4258,-12.0476 -47.4258,-12.0476" fill="none" stroke="#3a2f41" stroke-width="3.5" stroke-linecap="round"/><path d="M102.28354,287.84201c0,0 4.59233,18.30527 -3.79419,27.43519c-6.12863,6.67188 -41.91088,22.32124 -41.91088,22.32124" fill="none" stroke="#3a2f41" stroke-width="3.5" stroke-linecap="round"/><path d="M85.28365,280.15082c0,0 3.70346,20.32332 -3.96616,28.00732c-8.43405,8.44985 -43.56307,21.61283 -43.56307,21.61283" fill="none" stroke="#3a2f41" stroke-width="3.5" stroke-linecap="round"/><path d="M119.12077,283.91753c0,0 -0.47021,30.60408 -2.69905,39.88007c-2.22052,9.24138 -17.64915,16.67242 -17.64915,16.67242" fill="none" stroke="#3a2f41" stroke-width="3.5" stroke-linecap="round"/><path d="M404.81501,117.89386c0,-0.41422 0.33578,-0.75 0.75,-0.75c0.41422,0 0.75,0.33578 0.75,0.75c0,0.41422 -0.33578,0.75 -0.75,0.75c-0.41422,0 -0.75,-0.33578 -0.75,-0.75z" fill="#ffffff" stroke="none" stroke-width="0.5" stroke-linecap="butt"/><path d="M402.31501,89.59386c15.03608,0.54868 28.6,11.8 28.6,11.8" fill="none" stroke="#3a2f41" stroke-width="1.5" stroke-linecap="round"/><path d="M410.34467,85.39386c9.68426,0.35339 18.42034,7.6 18.42034,7.6" fill="none" stroke="#3a2f41" stroke-width="1.5" stroke-linecap="round"/><path d="M415.04467,82.14386c6.62608,0.24179 12.60339,5.2 12.60339,5.2" fill="none" stroke="#3a2f41" stroke-width="1.5" stroke-linecap="round"/><path d="M380.36197,107.30772c0,0 -2.60625,4.07316 -8.59392,7.24551" fill="none" stroke="#3a2f41" stroke-width="1.5" stroke-linecap="round"/><g stroke-width="0.5" stroke-linecap="butt"><path d="M143.87131,136.49105l-0.01635,-0.43293c1.29504,-8.99963 21.63939,4.86042 27.43701,3.89232c9.14319,-1.39125 8.00946,-9.40695 16.99898,-5.60555c1.2715,0.25586 4.7649,-13.49932 5.73082,-12.24668c0.714,0.92591 0.276,6.01657 0.276,7.15243c0,7.39895 -0.63682,13.49761 -2.08705,20.61165c-4.79251,9.54381 -6.88521,21.39604 -14.13104,28.87514c-5.00518,9.18311 -15.91337,14.91184 -23.11543,20.5521c-3.30256,1.80886 -8.94628,3.9061 -11.32062,7.84697c-2.52071,4.1838 -1.50456,11.34688 -3.9326,15.66376c-1.38101,4.68617 -2.02461,9.57242 -3.17777,14.32622c-1.52617,6.29142 -4.64582,11.64158 -6.45469,17.87973c-5.07691,10.60571 5.58837,18.20905 11.06543,23.82501c6.40028,5.775 12.16413,17.00922 20.44021,17.00922c5.63351,-0.0359 -1.08438,3.32111 -0.34221,8.30223c1.15883,7.77766 6.65391,9.49937 11.4176,9.49937c3.21161,0 6.48114,-2.18413 9.52614,-1.64874c3.45956,0.60828 8.28168,3.64546 11.31937,5.84694c1.47595,0.80846 6.60807,2.00625 7.40674,3.93145c1.08885,2.62464 -1.18331,12.36626 -1.53478,15.48707c-0.0494,0.43873 -0.31181,1.0892 -0.45591,1.99501c-0.65607,-3.12715 -1.42057,-5.9905 -2.90037,-8.54341c-2.17734,-2.71953 -7.06126,-0.61543 -9.75926,0.3156c-0.58864,0.20311 -2.86613,0.99678 -2.81163,2.51172c0.02163,0.60099 2.41795,2.61058 2.82741,3.17039c2.02579,2.76977 4.42018,6.65516 5.98322,9.8961c1.42165,2.91784 -1.16043,3.60631 -2.53876,5.49085c-3.12494,4.2726 -7.26037,9.0409 -10.97147,12.38543c-2.49432,2.28343 2.82305,-7.99573 2.76239,-10.57714c-0.11646,-4.95643 -9.31083,-6.8605 -11.56438,-5.66261c-3.32838,2.27977 -10.98824,5.33151 -11.594,11.47491c-0.13926,1.41227 1.22098,5.56028 2.56297,7.76126c-2.33103,-0.72202 -4.82067,-1.55661 -7.11336,-1.51737c-3.42683,-1.94591 -4.38305,-17.61885 -3.95709,-19.87385c0.38222,-2.02337 -1.24158,-4.0845 -1.98822,-5.60922c-0.81144,-2.20376 -4.14682,-8.76852 -6.0248,-9.41966c-1.25431,-0.4349 -4.08903,0.84327 -5.30106,1.29994c-3.37151,1.27029 -7.06228,1.00374 -10.4834,1.93926c-1.19935,-0.00765 -2.28326,-0.34565 -3.20359,1.04197c-2.7112,4.08775 -2.52136,7.51681 -7.56726,7.51681c-0.80535,0 -2.07238,1.22756 -2.41195,0.2291c-0.11019,-0.32398 2.25061,-5.16845 2.4337,-5.79053c2.1882,-4.57122 1.01966,-10.32534 -0.66715,-14.71469c-0.17462,-0.45438 0.83899,-0.03498 1.21432,-0.02533c0.723,0.0186 1.44441,-0.00166 2.16757,-0.00166c2.7534,0 5.7123,0.99678 8.17403,-1.18815c4.15535,-3.91897 8.50704,-8.34039 12.17065,-13.33287c0.50406,-0.68686 3.52028,-3.35761 3.56742,-4.10712c0.05924,-0.94217 -1.8499,-3.44552 -2.36221,-4.14322c-1.33863,-2.69476 -3.85526,-4.48815 -5.60321,-6.67054c-3.82611,-4.77717 -7.98812,-10.39065 -12.32767,-14.21381c-2.41961,-4.96237 -7.58032,-7.23352 -10.93621,-10.66722c-0.27136,-0.27764 -2.75371,-1.67519 -2.91249,-1.95252c-0.52545,-0.91758 2.71674,-7.61301 3.0912,-8.37998c4.74932,-9.7403 6.70691,-17.30636 2.67931,-28.29869c-1.9465,-3.99207 -1.27849,-10.57122 0.04867,-14.79882c0.16292,-0.51898 1.92303,-4.04524 2.25821,-5.41711c0.09261,1.12708 0.61357,3.82726 0.6486,4.07102c1.50985,5.19077 6.90144,13.72209 11.56772,8.35108c2.63673,-3.03492 1.77892,-13.04383 1.76123,-17.25247c2.05249,-10.91484 12.02683,-14.19141 13.9514,-25.0767c1.85133,-3.7186 6.5101,-8.82503 7.29469,-13.05766c0.8062,-4.34906 0.53013,-12.77869 -0.31836,-17.08167c-2.86079,-4.09269 -5.41442,-7.68117 -6.91815,-12.25186c0.04419,-0.20214 0.02141,-0.59219 0.02141,-0.59219z" data-paper-data="{&quot;noHover&quot;:false,&quot;origItem&quot;:[&quot;Path&quot;,{&quot;applyMatrix&quot;:true,&quot;segments&quot;:[[[274.80477,467.7914],[0.05238,-0.17523],[1.78239,3.96244]],[[283.01306,478.41206],[-3.39091,-3.54807],[1.00574,3.73035]],[[283.40182,493.42023],[0.95557,-3.77031],[-0.92999,3.66937]],[[274.77166,504.73788],[2.1944,-3.22375],[-2.28119,9.4367]],[[258.27823,526.45551],[2.43283,-9.46234],[0.02093,3.64857]],[[256.21093,541.38784],[3.12532,-2.63104],[-5.53098,4.65624]],[[242.32718,534.04685],[1.78963,4.5],[-0.04154,-0.21132]],[[241.72909,530.62169],[0.1098,0.97709],[-0.39727,1.1893]],[[239.05738,535.30931],[0.19311,-0.44991],[-1.57309,3.665]],[[239.00777,548.11712],[-2.30721,-3.46082],[4.77396,9.52948]],[[235.83205,572.60232],[5.62939,-8.44408],[-0.44385,0.66492]],[[232.165,579.85703],[-0.62281,-0.79547],[0.18823,0.24041]],[[235.61542,581.54513],[-0.32164,-0.2407],[3.97773,2.97675]],[[248.56425,590.76908],[-2.86801,-4.30201],[5.14367,3.31437]],[[263.14699,603.06629],[-4.53511,-4.14144],[2.07182,1.89197]],[[269.77335,608.8422],[-1.58669,-2.33613],[0.60724,0.60483]],[[272.56657,612.43187],[0.07023,-0.81678],[-0.05587,0.64979]],[[268.27854,616.1833],[0.59746,-0.59547],[-4.34251,4.3281]],[[253.84042,627.73681],[4.92537,-3.39744],[-2.9179,1.89418]],[[244.14286,628.7619],[3.26362,0],[-0.85714,0]],[[241.57143,628.7619],[0.85699,0.01612],[-0.44489,-0.00837]],[[240.24426,628.61828],[-0.20697,-0.39391],[1.99938,3.80522]],[[241.02788,641.37031],[2.59371,-3.96289],[-0.21703,0.53931]],[[238.14321,646.39026],[-0.1306,-0.28086],[0.40251,0.86558]],[[241,646.19047],[-0.95459,0],[5.9809,0]],[[249.96461,639.67153],[-3.21363,3.54375],[1.09089,-1.20295]],[[253.75861,638.76677],[-1.42158,-0.00662],[4.05505,-0.81101]],[[266.17191,637.08112],[-3.99629,1.10127],[1.43662,-0.39589]],[[272.44804,635.95246],[-1.48675,-0.37701],[2.22599,0.56447]],[[279.5792,644.11712],[-0.96182,-1.91048],[0.88502,1.32181]],[[281.93273,648.97964],[0.45304,-1.7541],[-0.5049,1.95489]],[[286.61768,666.20852],[-4.06187,-1.68696],[2.71754,-0.03403]],[[295.04137,667.52421],[-2.76298,-0.62595],[-1.59068,-1.90809]],[[292.00598,660.79564],[-0.16506,1.22432],[0.71803,-5.32585]],[[305.73321,650.84966],[-3.94516,1.97639],[2.67114,-1.03848]],[[319.42858,655.7619],[-0.13804,-4.29684],[0.0719,2.23787]],[[316.15959,664.92985],[-2.95653,1.97955],[4.39879,-2.89945]],[[329.15004,654.19765],[-3.70401,3.70401],[1.63374,-1.63374]],[[332.15499,649.43951],[1.6851,2.52953],[-1.85267,-2.80963]],[[325.15004,641.04044],[2.40118,2.40118],[-0.48534,-0.48534]],[[321.71622,638.10975],[0.02564,0.52103],[-0.06462,-1.31333]],[[325.04467,635.93425],[-0.6977,0.17609],[3.19798,-0.80715]],[[336.60228,635.66641],[-2.58083,-2.35761],[1.75403,2.21317]],[[340.14815,643.24118],[-0.77764,-2.711],[0.17082,-0.78527]],[[340.5803,641.3435],[-0.05857,0.38034],[0.41662,-2.7055]],[[342.39129,627.9234],[1.29061,2.27535],[-0.94668,-1.669]],[[333.73321,624.67414],[1.74946,0.70089],[-3.60059,-1.90852]],[[320.30639,619.61155],[4.10062,0.52732],[-3.60927,-0.46414]],[[309,621.04762],[3.80675,0],[-5.64643,0]],[[295.44836,612.81699],[1.37356,6.74264],[-0.87968,-4.31826]],[[295.85715,605.61905],[6.67744,-0.03112],[-9.8097,0]],[[271.56529,590.86396],[7.58628,5.00649],[-6.49197,-4.86859]],[[258.4007,570.1535],[-6.01767,9.19432],[2.14406,-5.40801]],[[266.04902,554.59552],[-1.80899,5.45418],[1.36687,-4.12118]],[[269.84253,542.12912],[-1.63693,4.06255],[2.87796,-3.74241]],[[274.53604,528.52867],[-2.98779,3.62704],[2.81431,-3.41644]],[[287.99377,521.71852],[-3.91453,1.56814],[8.53661,-4.8897]],[[315.43575,503.91194],[-5.93265,7.96104],[8.58849,-6.48379]],[[332.09236,479.05646],[-5.68058,8.27374],[1.719,-6.16731]],[[334.57143,461.19047],[0,6.41431],[0,-0.98469]],[[334.24664,454.99094],[0.84629,0.80271],[-1.1449,-1.08594]],[[327.45936,453.61014],[1.50711,0.2218],[-10.65533,-3.29552]],[[291.69952,456.97603],[10.83748,-1.2061],[-6.87194,0.83926]],[[274.83773,467.10088],[1.53502,-7.80198],[0,0]],[274.85715,467.47619]],&quot;closed&quot;:true}]}" fill="#8e8a91" stroke="none"/><path d="M109.50432,268.15823c-6.27025,-2.17928 4.09805,-15.31974 4.89034,-20.13627c0.58952,-3.11472 1.0381,-10.77595 0.03905,-13.69762c-1.3653,-3.99263 -3.63167,-8.01227 -3.64979,-12.55324v-1.15351c0,-0.63706 0.37772,-1.15351 0.84367,-1.15351c0.27953,0 0.52731,0.18588 0.68081,0.47213l0.62685,1.14277l-0.23278,0.2387c0.56727,1.0532 0.82375,2.0811 1.67161,3.44652c1.76805,2.84734 6.08459,3.24988 5.63895,8.37086c-0.06465,0.74279 0.95017,-1.1254 1.48368,-0.95961c1.79955,0.55929 2.39195,2.53303 3.74423,0.01115c0.58631,3.18778 2.59498,5.19653 6.81993,-0.2412c0.34311,-0.44161 0.36412,-0.96724 0.21587,-1.53706c0.03039,-0.44552 -0.0135,-0.76766 -0.0135,-0.76766l-0.70827,-1.25646c0.01111,0.0002 0.02223,0.00029 0.03338,0.00029c1.30147,0 2.35652,-1.2911 2.35652,-2.88377c0,-1.59265 -1.05506,-2.88377 -2.35652,-2.88377c-1.24553,0 -2.26537,1.18249 -2.35073,2.68013c-0.36723,-0.16432 -0.8052,-0.22049 -1.30003,-0.03169c-0.2926,-0.04736 -0.57838,-0.07957 -0.84563,-0.07051c-0.39053,-0.35158 -0.87293,-0.55927 -1.39494,-0.55927c-0.09334,0 -0.18545,0.00665 -0.27594,0.01956c0.57013,-2.56367 2.43974,-3.64742 3.13216,-6.16808c0.97571,-3.55204 -0.05242,-7.75106 -0.05242,-11.42324c0,-0.3845 0,-0.76901 0,-1.15351v-1.15351c0,-0.63706 0.37772,-1.15351 0.84367,-1.15351c0.36214,0 0.67099,0.31197 0.79062,0.75005l0.41453,1.41694l-0.31611,0.17288c0.21514,0.3594 0.4671,0.59021 0.79829,0.54388c1.11788,-0.15631 0.87649,-2.05412 1.72633,-2.46978c0.78812,-0.38549 1.6375,1.00489 2.45196,0.74084c1.16297,-0.37706 2.31986,-1.35031 3.45688,-2.62758c0.00619,0.06449 0.01381,0.13028 0.02296,0.19739c0.38743,2.84452 2.71187,2.37042 2.71187,2.37042l3.33726,-3.69845c-0.16679,-0.92423 -0.4681,-3.57613 -1.24957,-5.51736c1.12806,-1.65721 2.20966,-3.1713 3.22758,-4.17896c0.63861,-0.18599 4.00081,-2.29866 5.24674,-3.02361l2.81677,3.88382c2.10226,-1.0283 4.01278,-2.87342 5.36694,-5.09367c0,0 1.35138,-2.36246 -0.57916,-4.01618c-0.02654,-0.02274 -0.05297,-0.04472 -0.07932,-0.06597c2.71785,-4.53999 5.50546,-8.6214 7.51186,-4.65733c0.20238,0.80522 0.47235,1.58441 0.60712,2.41565c0.03104,0.19134 0.01779,0.50941 -0.01268,0.8329c0.08166,-0.31756 0.18759,-0.63527 0.31367,-0.9523c-0.01995,0.15102 -0.03033,0.30595 -0.03033,0.46387c0,1.59265 1.05506,2.88377 2.35652,2.88377h2.35652c0,0 2.35652,0 2.35652,-2.88377c0,-0.08395 -0.00202,-0.16542 -0.00588,-0.24453c0.06039,-0.40992 0.04361,-0.88994 -0.09352,-1.44925c-0.67714,-2.76215 -2.93428,-1.9335 -2.93428,-1.9335l-2.30581,0.84651c-0.26592,0.0895 -0.51304,0.23461 -0.73246,0.42446c1.40433,-2.3003 3.4549,-4.48506 4.48687,-6.25583c0.09277,-0.15918 0.25851,-0.48561 0.45786,-0.88115c0.22559,1.30475 1.17209,2.2839 2.30546,2.2839c1.30147,0 2.35652,-1.2911 2.35652,-2.88377c0,-0.45384 -0.08568,-0.88323 -0.23835,-1.26522c0.04563,-0.0156 0.08943,-0.03849 0.13128,-0.06964c0.78936,-0.58769 1.39421,-3.80717 1.88713,-4.92601c0.45556,-1.53973 2.08034,-5.73618 2.97849,-6.74089c0.74497,-0.83333 1.50351,0.1112 2.15487,-1.20717c0.49729,-1.00654 1.70596,-3.55987 2.85339,-3.3599c3.90746,0.68099 -1.18368,11.43511 -2.13479,13.10373c-2.81818,5.10107 -5.48537,9.78599 -8.78339,13.73975c0.06483,0.16333 0.10165,0.35048 0.10165,0.54937c0,0.36827 -0.12621,0.69621 -0.32271,0.90741l-1.0485,1.14685l-0.00029,-0.00048c-1.69028,2.21628 -3.89764,4.14025 -6.22275,5.21922c-0.00999,0.25121 -0.07873,0.48101 -0.1878,0.66418l-0.83949,1.43471l-0.26449,-0.2893c-3.90995,7.0199 -13.45282,9.32921 -19.08658,11.89851c-3.42851,1.85293 -4.63682,6.21738 -6.29579,10.41973c-2.23565,5.66331 -5.86869,11.20353 -5.81205,18.05247c-2.2517,12.57375 -7.88427,29.01978 -14.63433,38.22812c-4.48358,4.39141 -7.28954,3.76263 -12.24811,1.05598l-0.4858,-0.32764c0,0 -0.52328,-0.35772 -0.48046,-1.07318zM117.90376,242.82384l4.96544,1.42139c1.53597,-3.32654 5.03232,-7.88086 -2.37267,-9.80473c-1.50802,-0.39177 -2.32903,2.4724 -3.49355,3.70861c0,0 -1.44676,2.2763 0.41336,4.04677c0.06483,0.06171 0.12915,0.11848 0.19294,0.17063c0.1567,0.28873 0.29446,0.45733 0.29446,0.45733zM161.98745,191.76076c1.30147,0 2.35652,-1.2911 2.35652,-2.88377c0,-1.59265 -1.05506,-2.88377 -2.35652,-2.88377c-1.30147,0 -2.35652,1.2911 -2.35652,2.88377c0,1.59265 1.05506,2.88377 2.35652,2.88377z" fill="#665d69" stroke="none"/><path d="M108.0346,265.7692c3.80425,1.80162 3.23058,-4.59137 5.92655,-2.46609c0.16681,-0.26505 0.43319,-0.42218 0.74643,-0.51757c-0.44341,0.41724 -0.80928,1.1058 -0.80928,2.2421c0,2.88377 2.35652,2.88377 2.35652,2.88377h3.14202c1.30147,0 2.35652,-1.2911 2.35652,-2.88377c0,-1.06885 -0.47519,-2.00187 -1.18113,-2.49997l-2.05764,-1.51081c0,0 -1.4984,-1.10019 -2.68879,0.17322c-0.4669,-6.01617 2.1802,-15.36335 4.0591,-19.41109l0.00672,-0.00769l-0.00211,-0.00191l0.66768,-1.36933c0.15021,-0.31802 0.41174,-0.52854 0.70922,-0.52854c0.46595,0 0.84367,0.51646 0.84367,1.15351v1.8456h-0.16216c0.32291,3.24357 0.19888,6.569 0.16824,9.87149c-0.4269,-0.52596 -1.01835,-0.85161 -1.67199,-0.85161c-1.30147,0 -2.35652,1.2911 -2.35652,2.88377c0,1.59265 1.05506,2.88377 2.35652,2.88377c1.30147,0 2.35652,-1.2911 2.35652,-2.88377c0,-0.68825 -0.19702,-1.3202 -0.52584,-1.81597c0.29641,-1.81932 0.79194,-3.79477 1.7059,-4.23236c0.57605,-0.27578 1.30167,-0.29129 1.82854,0.12992c0.18537,0.14822 0.44137,1.29224 0.53885,1.93467c0.16506,-0.59703 0.38694,-1.13159 0.64582,-1.62547c0.11821,0.02236 0.23931,0.03394 0.36265,0.03394c1.30147,0 2.35652,-1.2911 2.35652,-2.88377c0,-0.2901 -0.035,-0.57019 -0.10014,-0.83432c0.39824,-0.56158 0.76549,-1.15704 1.05973,-1.83251c0.14416,-0.33096 0.27405,-0.6735 0.39173,-1.02552c0.43084,0.57572 1.05013,0.93676 1.73834,0.93676c1.30147,0 2.35652,-1.2911 2.35652,-2.88377c0,-1.59265 -1.05506,-2.88377 -2.35652,-2.88377c-0.26473,0 -0.51927,0.05343 -0.75682,0.15194c0.36036,-2.66167 0.56565,-5.37313 1.26469,-7.51131c0.30876,-0.94436 1.27906,-1.1128 1.87022,-1.75842c0.29972,-0.32733 0.66724,-6.59423 0.83742,-7.49484c2.22649,-4.60542 0.82072,-11.24388 3.09106,-15.82746c1.00255,-2.02394 4.49759,-2.61069 6.16296,-4.87985c2.11675,-2.88421 2.62386,-5.387 5.95787,-3.91327c1.24091,0.56552 2.07373,0.86786 3.02949,2.12427l0.33748,0.46139c0,0 0.04679,0.06396 0.10104,0.17397c0.09069,-0.04836 0.17983,-0.09646 0.26729,-0.14436c7.20203,-5.64029 18.14664,-11.35688 23.15183,-20.53998c7.2458,-7.47906 9.26008,-19.12713 14.05261,-28.67092c1.45026,-7.11402 2.09152,-13.20957 2.09152,-20.60853c0,-0.33628 0.03858,-1.01913 0.07434,-1.83791c0.41211,-2.04635 0.85126,-4.07392 1.28033,-6.10857c0.72525,2.07578 0.33269,6.11111 0.33269,7.94648c0,7.70497 -0.67199,14.19101 -2.24734,21.57682c-4.69411,9.84101 -7.03177,21.83959 -14.39096,29.33388c-5.16764,9.36286 -16.21962,15.22364 -23.61128,20.9862c-3.09529,1.69025 -8.56749,3.67954 -10.82251,7.30481c-2.38182,3.8291 -1.49846,11.08788 -3.75375,15.29168c-1.3174,4.54754 -1.93982,9.3608 -3.06676,13.96323c-1.57066,6.41445 -4.69495,11.97028 -6.56392,18.30682c-4.5172,9.07331 5.88141,16.1058 10.58773,20.93229c5.97075,5.49047 11.81368,16.59638 19.51963,16.59638c1.07207,0.00574 1.22183,-0.08377 2.33488,0.35195c5.2188,2.04309 -1.92069,6.36687 -1.02582,9.80126c1.72939,6.63712 5.20603,7.64372 9.77907,7.64372c3.31834,0 6.55633,-2.17011 9.74497,-1.63921c3.76972,0.62762 8.42778,3.81207 11.81279,6.02491c2.12712,1.16139 6.90608,1.91889 8.12248,4.82084c0.70851,1.69033 -0.15307,5.26721 -0.40941,7.00399c-0.69605,4.7161 -0.12707,11.44015 -2.07506,15.66434l0.26241,0.23919l-0.47482,0.97383c-0.1502,0.31802 -0.41174,0.52854 -0.70924,0.52854c-0.4015,0 -0.73747,-0.38346 -0.82276,-0.89712l-0.23677,-1.29486c-0.677,-3.70619 -1.40653,-7.71194 -3.18482,-10.71594c-1.25307,-2.07857 -5.94714,0.59112 -8.46582,1.38256c0.76054,0.80078 1.49359,2.18938 2.01831,3.02468c1.77429,2.82454 3.8615,5.62308 5.37861,8.70783c0.79059,1.93108 1.40076,2.41403 0.49011,4.84135c-0.62038,1.65361 -3.68058,4.00247 -4.76592,5.23644c-3.15027,3.58162 -6.27347,7.78302 -9.70878,10.94363c-0.59182,0.5374 -1.90784,1.89807 -2.59884,1.33974c-2.61902,-2.11614 2.49824,-11.80297 2.73348,-13.83459c0.09342,-0.80675 -4.9893,-3.3837 -5.50674,-3.62258c-1.42642,-0.65851 -2.3155,-0.70773 -3.66902,0.06084c-2.50631,1.70949 -10.22951,4.85753 -10.59516,9.61993c-0.18995,2.47402 1.74286,5.34281 3.19306,7.58988l0.05199,-0.10662l0.71226,0.64923c0.23261,0.20537 0.38657,0.56297 0.38657,0.96969c0,0.63706 -0.37772,1.15351 -0.84367,1.15351h-1.20523v-0.0379l-0.08314,0.03227c-2.83411,-0.76239 -5.86656,-1.95046 -8.7541,-1.99262c-4.23541,-2.25139 -6.25208,-20.84354 -5.20725,-22.97086c0.04335,-0.08832 -1.69985,-3.26644 -1.87117,-3.61909c-0.55677,-1.53377 -3.83987,-8.12031 -5.07185,-8.37897c-1.66543,-0.34967 -4.01961,1.45977 -5.68557,1.69727c-3.09867,0.44168 -6.34297,0.81172 -9.40084,1.64787c-3.22786,0.01729 -3.87963,5.77753 -7.20998,7.81413c-2.02163,1.23629 -8.27117,2.25263 -7.40407,-2.44119c0.38295,-2.07297 1.64096,-3.76839 2.21401,-5.73954c2.72063,-5.46469 -1.45482,-9.49707 -0.78517,-14.29288c0.25017,-1.79176 1.96679,-1.46817 2.73703,-1.48396c2.77917,-0.057 7.02597,1.46405 9.41497,-0.79496c3.29726,-2.85617 6.34075,-6.5217 9.30615,-10.11648c1.21744,-1.47586 2.4203,-2.66618 3.58181,-4.2406c0.5835,-0.7909 2.94028,-1.98656 2.16747,-1.60504c-0.68544,0.33839 -1.57131,-1.88667 -1.98229,-2.45073c-1.25632,-2.63256 -3.81578,-4.39755 -5.49774,-6.52037c-3.85158,-4.86111 -7.98292,-10.1275 -12.28386,-14.15837c-2.37124,-4.86312 -7.48255,-7.07409 -10.76976,-10.45278c-0.46835,-0.48138 -3.17303,-2.18147 -3.35621,-2.66679c-0.99439,-2.63463 2.24002,-8.83018 3.17345,-10.74688c4.41824,-9.06131 6.36375,-15.5559 2.62381,-25.80614c-2.47207,-5.06994 -1.40098,-12.81692 0.46512,-17.92419c0.48702,-1.333 1.9479,-6.44208 3.48131,-6.21363c1.222,0.18205 1.74163,4.81991 1.9308,6.09236c1.31865,4.47654 3.06104,7.89082 6.82169,7.42014c0.72886,-0.09122 1.64984,0.59894 2.19515,-0.0685c2.05179,-2.5113 1.13626,-12.28386 1.14846,-15.73278c2.0447,-11.45718 11.97331,-14.69342 14.04652,-25.70282c1.6365,-3.41866 6.51131,-8.90362 7.18188,-12.65172c0.69756,-3.89891 0.45653,-11.69903 -0.15411,-15.64529c-3.7481,-4.73938 -6.62744,-9.57524 -7.87255,-15.8919c0.84717,1.20709 1.76438,2.33925 2.72872,3.40106c1.53179,4.15194 3.94108,7.53288 6.61215,11.3542l-0.00003,0.00003c0.8485,4.30296 1.13416,12.96294 0.328,17.31199c-0.78459,4.23264 -5.42962,9.33635 -7.28094,13.05498c-1.92455,10.88529 -11.86243,14.13653 -13.91492,25.05137c0.01766,4.20864 0.89262,14.18959 -1.7441,17.22451c-4.66628,5.371 -10.20339,-3.2771 -11.71322,-8.4679c-0.03506,-0.24376 -0.41195,-2.82389 -0.50457,-3.95095c-0.33515,1.37187 -2.09111,4.8882 -2.25404,5.4072c-1.32717,4.22761 -1.98837,10.7818 -0.04187,14.77388c4.02763,10.9923 2.07008,18.50351 -2.67924,28.24381c-0.33177,0.67955 -2.9165,6.00334 -3.13628,7.84682c0.12572,0.01404 0.21231,0.05347 0.21231,0.05347zM128.40399,275.85777c1.30147,0 2.35652,-1.2911 2.35652,-2.88377c0,-1.59265 -1.05506,-2.88377 -2.35652,-2.88377c-1.30147,0 -2.35652,1.2911 -2.35652,2.88377c0,1.59265 1.05506,2.88377 2.35652,2.88377z" fill="#3a2f41" stroke="#3a2f41"/></g><g stroke="none" stroke-width="0.5" stroke-linecap="butt"><path d="M228.06883,212.95057c-0.41671,-1.32232 -0.69194,-2.59563 -0.70512,-3.75265c-0.03857,-3.385 0.67579,-9.79737 1.97022,-13.00247c0.05686,-0.14082 0.59034,-0.9139 0.96717,-1.63735c0.30378,1.76241 0.92046,3.88067 1.11018,5.20415c1.13313,3.41055 2.37772,7.00794 5.23168,8.77822c5.60326,3.47562 12.81578,0.12246 13.42836,-8.02512c0.2848,-3.78815 -1.64246,-5.68567 -2.77867,-8.68365c-1.10847,-2.92473 -1.14286,-6.54376 -1.20892,-9.76295c-0.1645,-5.60149 3.68249,-10.11975 3.47968,-15.48216c-0.39472,-10.43662 -5.16456,-19.55605 -5.88258,-29.95475c-0.96384,-13.50289 7.28665,-29.07271 10.91766,-42.2764l0.3226,-0.1391c3.32013,-1.23144 6.90321,-2.5339 10.32052,-2.21206c9.77897,3.01632 20.52237,9.3074 25.85046,19.83818c2.46387,4.86973 6.7706,9.65309 3.57798,15.30594c-4.65675,10.75663 -8.89126,21.98335 -15.4467,31.39866c-3.85195,5.53241 -8.64845,9.51001 -13.10841,14.21195c-5.911,5.46826 -1.31747,11.92311 -1.36699,18.89932c-0.01906,2.68445 -0.22044,5.36703 -0.50936,8.04012c-0.93216,0.10091 -1.2398,1.32165 -1.2398,1.32165l-0.09281,0.37229c-1.22898,5.04338 -2.83827,10.07798 -4.10007,15.16859c-0.06458,0.26056 -0.27491,0.84633 -0.49206,1.53987c-0.04766,-0.2941 -0.09122,-0.56065 -0.12223,-0.77848c-0.02095,-2.65887 0.56836,-6.51922 -3.28839,-6.75105c-1.59843,-0.09607 -2.18436,7.71447 -2.43763,9.13886c-1.5079,8.47962 -1.28297,17.59829 -2.89103,26.18985c-0.23925,1.27832 -1.02791,3.66705 -1.45372,5.80322c-1.36919,-7.32966 -0.64828,-16.81516 -3.40759,-22.96185l0.55628,-0.49666l-1.13689,-1.93863c-0.1756,-0.30588 -0.44076,-0.53808 -0.76571,-0.63712c-0.75016,-0.22867 -1.5467,0.33473 -1.77594,1.25959l-0.39397,1.64154c-0.18192,0.73402 -0.65374,2.04131 -0.83332,2.94634c-0.92859,-2.2676 -2.87862,-6.16453 -3.08485,-6.52294c-2.60834,-4.53245 -6.67975,-5.23783 -8.38349,-11.03179c0,0 -0.2353,-0.76968 -0.82645,-1.0112z" data-paper-data="{&quot;noHover&quot;:false,&quot;origItem&quot;:[&quot;Path&quot;,{&quot;applyMatrix&quot;:true,&quot;segments&quot;:[[[468.36667,537.2],[0,0],[3.22394,4.39271]],[[479.75645,544.25103],[-3.83168,-3.11247],[0.30297,0.24611]],[[484.57379,548.89901],[-1.53057,-1.65274],[-0.04595,-0.79929]],[[484.66667,546.43333],[0,0.65748],[0,0]],[[484.66667,544.76667],[0,0],[0,-0.82843]],[[486.16667,543.26667],[-0.82843,0],[0.35883,0]],[[487.11304,543.60283],[-0.25814,-0.21016],[0,0]],[488.77038,544.9287],[[488.3265,545.48354],[0,0],[4.39754,4.4185]],[[497.65594,563.74217],[-3.27127,-5.75659],[-0.10643,-1.88711]],[[497.67049,558.54032],[0.07968,1.12533],[-0.53553,-7.56331]],[[494.0029,536.19321],[0.60987,7.44466],[-0.10244,-1.25052]],[[494.14696,527.76625],[-1.66568,0.32578],[4.01898,-0.78604]],[[499.2313,532.55622],[-0.69823,-2.20902],[0.08729,0.17354]],[[499.55461,533.17361],[-0.1238,-0.23283],[0.04644,-0.63272]],[[499.66667,531.76667],[0,0.23339],[0,-4.55981]],[[500,518.1],[0.02169,4.51215],[0,0]],[500,517.76667],[[500.93144,516.35422],[-0.93144,0.32067],[-0.38367,-2.29952]],[[499.39812,509.53606],[0.66364,2.24046],[-1.72463,-5.8224]],[[495.95584,493.54796],[-4.67753,6.0546],[3.38267,-5.04805]],[[505.82319,478.43287],[-2.54702,5.58529],[4.33465,-9.50534]],[[513.71692,448.38167],[-2.04377,10.14037],[1.83941,-5.51822]],[[506.16628,436.55103],[3.7692,3.43005],[-8.15083,-7.41744]],[[474.62372,426.59489],[10.80838,0.02944],[-3.59069,0.59951]],[[464.60508,431.05291],[3.09558,-1.86843],[0,0]],[[464.30969,431.25047],[0,0],[-0.36778,11.91789]],[[463.89272,469.20958],[-4.4262,-11.00059],[3.38377,8.47782]],[[477.58548,492.6132],[-3.06149,-8.59146],[1.57301,4.41435]],[[477.92302,506.29233],[-1.59451,-4.62318],[0.88714,2.6642]],[[481.61389,514.09539],[-1.8825,-2.15433],[1.92964,2.20828]],[[486.6396,520.81634],[-0.67168,-3.22711],[1.44464,6.94086]],[[474.86507,530.9027],[6.63781,1.47205],[-3.3809,-0.74977]],[[467.2365,524.90843],[2.03148,2.55266],[-0.53162,-1.05404]],[[464.76228,520.84838],[0.76045,1.39062],[-0.20278,0.69815]],[[464.31883,522.30805],[0.02255,-0.13171],[-0.51335,2.99783]],[[465.58969,533.62566],[-0.90111,-2.80925],[0.308,0.96021]],[[467.26319,536.56887],[-0.76439,-0.99546],[0.66844,0.05108]]],&quot;closed&quot;:true}]}" fill="#9b989d"/><path d="M226.91207,211.58618c-1.12822,-2.30631 -1.27739,-5.87257 -1.25536,-7.87171c0,0 0.02599,-1.72391 1.44601,-1.78587c1.42005,-0.06193 1.39406,1.662 1.39406,1.662c-0.00848,0.42845 0.18309,6.95588 1.29909,6.70799c0.70766,-0.15718 1.15092,-1.48217 1.85788,-1.41163c3.01031,0.30026 3.1055,5.50344 5.31431,7.18685c0.99779,0.76045 2.12643,-5.13658 2.17441,-5.22149c1.15769,-2.04739 5.70896,-4.85752 7.75789,-5.71949c2.85307,-8.27643 -1.05103,-13.61316 -3.25607,-21.31105l0.11852,-0.37641l-0.12244,-0.00672l0.15647,-1.91709c0.00805,-0.12304 0.02708,-0.24765 0.05794,-0.37204c0.22924,-0.92487 1.0232,-1.48926 1.77337,-1.26056c0.33398,0.1018 0.603,0.34368 0.77846,0.66235l1.34471,2.40362l-0.55166,0.47413c0.18923,0.1042 0.39354,0.1369 0.61885,0.07179c-0.57865,0.45521 -1.00746,1.19553 -1.12656,2.07172c-0.13356,0.98278 0.15403,1.90475 0.70148,2.50286l0.22037,0.24751l0.06941,2.70571c1.18625,0.59336 2.30333,2.31264 3.55874,1.7801c1.79683,-0.76218 7.4205,-6.46974 3.98382,-9.30885c0.17816,-1.51592 0.296,-3.04003 0.54283,-4.54583c0.51754,-3.15725 1.45201,-5.3653 2.67646,-7.48918l0.80169,2.67591c0,0 0.79453,2.65203 3.02434,1.54172c0.23882,-0.11891 0.44298,-0.25552 0.61709,-0.40467c0.16293,0.00777 0.33892,-0.00228 0.52899,-0.0333c2.35953,-0.38518 2.16994,-3.23432 2.16994,-3.23432l-1.63789,-3.54421l-2.44693,-0.90433c-0.14466,-0.05718 -0.29687,-0.09756 -0.45542,-0.11911c-0.01372,-0.00186 -0.02742,-0.00359 -0.04109,-0.00514c0.15256,-0.23361 0.30725,-0.47168 0.4639,-0.71503c0.63362,-0.98434 0.67806,-2.7295 1.63025,-3.17368c3.7304,-1.7402 2.78528,4.66713 4.84585,1.18313c1.25091,-1.5104 2.40049,-2.94168 3.39511,-4.51229c0.11638,0.21172 0.26754,0.42261 0.46045,0.62909c1.12773,1.20714 2.20896,0.68799 2.82381,0.18203c0.98698,-0.30804 1.56603,-1.44252 1.56603,-1.44252l-0.15795,-0.29722c0.28817,-0.392 0.57633,-0.784 0.8645,-1.17603l-1.76098,-0.51083l-1.43307,-2.69652c0.12038,-1.34691 -0.35034,-2.98277 0.49668,-3.78999c0.88884,-0.84706 2.24537,-0.5934 3.30329,-0.29194c0.35669,0.10165 -0.09393,1.51421 0.24286,1.30246c1.15548,-0.7265 1.36971,-4.78611 1.59165,-7.83502c0.0984,0.02985 0.19987,0.05215 0.30407,0.06631c0.07456,0.01013 0.1489,0.01588 0.22283,0.0174l2.81332,0.09413c0,0 2.11999,0.07094 2.5052,-2.36973l0.55034,-0.67376c0.36724,-0.44046 0.62847,-1.01849 0.71732,-1.67218c0.07946,-0.58459 0.00986,-1.1477 -0.17478,-1.6339c0.15925,0.1303 0.3101,0.28354 0.45075,0.46127c2.21836,2.80349 0.89799,5.32348 0.64486,8.42493c-1.90118,7.45627 -8.34754,15.66085 -13.47336,20.39353c-3.73141,3.44521 -10.72534,5.69161 -10.48545,12.21081c4.58902,6.6536 3.13013,14.01481 2.22314,21.82959c-1.00244,8.63734 -1.81365,17.76309 -3.76665,25.6422c-1.32089,5.31957 -0.57234,12.35679 -2.24062,17.52154c-0.58879,1.82287 1.65655,14.10066 0.57097,15.31148c-0.84011,0.93707 -10.1904,-1.81269 -11.27412,-2.03832c-1.56977,-0.32684 -7.30961,-3.15655 -8.16052,-4.61222c-3.54546,-6.06539 -1.09607,-14.66528 -4.69223,-20.48672c-3.38878,-3.02636 -6.1109,-13.90223 -8.14624,-18.38832l-0.83839,-1.85659c0,0 -0.18992,-0.42063 -0.1765,-0.94838zM257.68014,207.86623l-0.22352,-0.70949c0.26625,-0.21729 0.53251,-0.43458 0.79875,-0.65187l-1.14889,-0.4596l-1.34185,-4.25931c-0.71329,0.58212 -1.42659,1.16426 -2.1399,1.74636c0,0 -2.01304,1.64285 -0.76765,4.00232c0.4804,0.91016 1.07505,1.22478 1.62433,1.26786c1.85911,1.38751 3.19876,-0.93627 3.19876,-0.93627zM258.13523,192.36623c1.28963,0.17526 2.50891,-0.962 2.72339,-2.54015c0.21448,-1.57814 -0.65711,-2.99958 -1.9467,-3.17484c-1.28963,-0.17526 -2.50891,0.962 -2.72339,2.54015c-0.21448,1.57814 0.65711,2.99958 1.9467,3.17484zM230.90065,216.02145c1.28963,0.17526 2.50892,-0.962 2.7234,-2.54015c0.21448,-1.57814 -0.65711,-2.99958 -1.9467,-3.17484c-1.28963,-0.17526 -2.50891,0.96199 -2.72339,2.54014c-0.21448,1.57814 0.6571,2.99959 1.94669,3.17485zM241.44674,215.41753c1.28963,0.17526 2.50892,-0.962 2.7234,-2.54015c0.21448,-1.57814 -0.65711,-2.99958 -1.9467,-3.17484c-1.28963,-0.17526 -2.50891,0.96199 -2.72339,2.54014c-0.21448,1.57814 0.6571,2.99959 1.94669,3.17485z" fill="#665d69"/><path d="M249.34188,181.99929c0.46714,-0.09062 0.85764,0.20172 1.23403,0.58484l-1.86498,0.48062c-0.163,0.03727 -0.32169,0.09472 -0.47396,0.17028c0.37939,-0.40794 0.62285,-1.14225 1.1049,-1.23578z" fill="#737373"/><path d="M228.95872,213.87233c0.65962,2.24318 1.67097,3.72124 2.81421,4.9534c-0.23948,0.38346 -0.40795,0.83871 -0.47582,1.33807c-0.21448,1.57814 0.65711,2.99958 1.9467,3.17484c0.8203,0.11149 1.61217,-0.30807 2.13506,-1.03435c0.06172,0.06549 0.12318,0.13171 0.18439,0.19877c-0.43025,0.45412 -0.73942,1.08462 -0.83769,1.80765c-0.21448,1.57814 0.65711,2.99958 1.9467,3.17484c0.60899,0.08277 1.20232,-0.12717 1.68155,-0.538c0.67476,1.3868 1.51983,3.18121 2.04321,4.45932c0.17958,-0.90502 0.58446,-1.99305 0.76641,-2.72707l0.46122,-1.86067c0.22924,-0.92487 1.0232,-1.48926 1.77337,-1.26056c0.32491,0.09904 0.58834,0.33065 0.76394,0.63653l0.08823,0.15083c-0.84452,0.35565 -1.51689,1.26169 -1.67093,2.39519c-0.21448,1.57814 0.6571,2.99958 1.94669,3.17484c0.43962,0.05974 0.87107,-0.03303 1.25732,-0.2438c1.54095,5.96122 1.19304,13.71084 2.3523,19.91685c0.42582,-2.13617 1.2134,-4.52506 1.45264,-5.80339c1.4259,-7.61847 1.3885,-15.47137 2.41312,-23.06489c0.02397,0.37703 0.03143,0.74278 -0.00001,1.082c0,0 0.23971,2.84031 2.59467,2.39464c0.15312,-0.02899 0.29529,-0.06808 0.42724,-0.11587l0.17775,0.29059c1.55588,-0.42965 3.98798,0.4844 4.66762,-1.289c2.31056,-6.02875 -3.9996,-9.21733 -7.22675,-6.71251c0.33455,-2.76582 0.98121,-7.99147 2.27175,-7.9139c3.85675,0.23182 3.25744,4.0921 3.27842,6.75098c0.03101,0.21784 0.07425,0.48438 0.12192,0.77848c0.21715,-0.69356 0.4262,-1.27921 0.49078,-1.53978c0.64172,-2.58892 1.36907,-5.16255 2.09067,-7.73025c0.07358,0.01902 0.14878,0.03382 0.22546,0.04424c1.28963,0.17526 2.50891,-0.962 2.72339,-2.54015c0.18474,-1.35943 -0.43636,-2.60254 -1.43636,-3.03306c0.0212,-0.08163 0.04233,-0.16328 0.06341,-0.24494c0.33834,-0.43125 0.57809,-0.9837 0.66243,-1.60435c0.04004,-0.29463 0.04222,-0.58383 0.01091,-0.86044c0.17596,-0.36133 0.50884,-0.82773 1.07035,-0.88852c0.28893,-2.67308 0.47926,-5.35063 0.49831,-8.03508c0.04952,-6.97623 -4.60373,-13.33115 1.3073,-18.79942c4.45997,-4.70194 9.26577,-8.6185 13.11774,-14.15089c5.77528,-8.29481 9.76242,-17.97358 13.81383,-27.51495c1.62409,-2.58218 4.63868,-6.63762 5.59194,-9.074c0.17326,2.26964 -0.23464,4.58581 -1.52953,6.87849c-4.72535,10.99663 -9.13967,22.31564 -15.81238,31.94174c-3.94745,5.69462 -8.91957,9.71308 -13.47875,14.56497c-4.32826,3.7029 -0.15272,10.87214 -0.16956,15.97274c-0.03606,10.92916 -2.94774,21.75849 -3.8314,32.62377c-0.34472,4.22368 -3.58505,10.98092 -3.0899,14.68633c1.45268,10.8711 6.60041,18.89772 12.92598,25.81129c8.67477,6.24544 14.19144,19.67847 19.71605,29.52914c1.4522,2.58932 2.36588,5.26142 4.48574,7.17536c5.23121,8.23337 10.90908,18.1924 19.37322,21.69357c3.43635,1.42144 7.37907,1.29671 11.00596,1.74973c4.51635,1.41786 10.87298,-3.70992 14.87136,-1.38105c0.9325,0.54314 1.31186,3.94801 2.39461,4.73093c1.42436,1.02991 4.2703,0.82835 5.8505,0.92298c4.90406,0.29372 9.63702,-3.41207 13.98904,-0.11062c3.92087,2.32078 6.58338,6.95217 10.37798,9.68313c0.34314,0.24696 4.08055,2.21014 4.37095,2.88486c0.57001,1.3244 -0.1774,3.7487 -0.51626,5.11877c-1.32189,5.34439 -4.6301,15.26647 -8.08867,19.05772c-0.04114,0.0451 -0.08271,0.08937 -0.12477,0.13292l0.01358,0.01662l-1.83297,2.21268c-0.35937,0.44932 -0.89426,0.66529 -1.40852,0.50853c-0.75016,-0.22867 -1.17242,-1.16381 -0.94318,-2.08864l0.40063,-1.61626c-0.51146,-6.32364 1.77728,-12.6105 1.50065,-18.46786c-0.04858,-1.02872 -1.7102,-0.07046 -2.52522,-0.3189c-1.30796,-0.39872 -2.61591,-0.79743 -3.92387,-1.19612c-0.58329,-0.19303 -2.08028,-1.40371 -1.63309,-0.92344c1.26398,1.35752 0.89781,4.14566 1.27514,6.07134c0.88495,4.51628 4.4332,10.20376 2.62306,15.14847c-1.93501,5.28588 -10.43372,5.5563 -16.12368,4.72519l-0.0506,0.50432l-2.79208,-0.23118c-0.08986,-0.00544 -0.1801,-0.0214 -0.26973,-0.04874c-0.75016,-0.22867 -1.17242,-1.16381 -0.94318,-2.08867c0.09495,-0.38308 0.28679,-0.70431 0.53229,-0.93297l1.26292,-1.2015c1.98013,-1.88386 5.17391,-3.80401 6.74233,-6.11271c0.03219,-0.0474 -3.93657,-3.23523 -4.35434,-3.61472c-1.0818,-0.98834 -2.05063,-1.73336 -2.8605,-3.11452c-0.44013,-0.75061 -0.98254,-3.30818 -1.16787,-2.37828c-0.66403,3.33164 -0.77555,6.53352 -3.23639,9.05274c-1.89774,1.94278 -5.50202,2.47328 -7.83308,3.0156c-5.26576,1.22507 -11.01469,3.5834 -16.39778,4.19327l0.05601,0.39924l-2.05958,0.55673c-0.21912,0.06499 -0.45131,0.06877 -0.67943,-0.00078c-0.75016,-0.22867 -1.17242,-1.16381 -0.94318,-2.08867c0.08057,-0.32498 0.23086,-0.60546 0.42445,-0.82265l1.34099,-1.55479c2.96062,-3.57339 5.47019,-5.74347 9.15109,-8.09105c0.88402,-0.43516 1.68542,-1.11262 2.48434,-1.75916c0.41671,-0.33723 1.71586,-0.92371 1.24043,-1.0299c-10.07779,-2.25069 -21.669,-6.61526 -32.17921,-4.82539c-6.42039,1.05194 -14.48118,1.71954 -20.19397,-2.08123c-1.84457,-1.22721 -3.43509,-3.27856 -5.31508,-4.39768c-3.45942,-2.05935 -8.27608,-1.08031 -12.10311,-1.29038c-2.35168,-0.14069 -4.95592,0.19159 -7.29074,0.81706c-1.41198,0.37827 -2.75341,2.13199 -4.12434,1.72257c-6.30433,-1.88279 5.35566,-15.24115 8.21756,-17.32936c1.03159,-0.75269 4.51023,-2.46583 5.27728,-2.51445c2.42585,-0.1537 3.30863,3.27474 5.84879,2.70316c3.80957,-1.03023 13.42542,-4.89399 15.43955,-9.42502c0.6228,-1.40108 -2.14002,-4.29733 -2.69053,-5.23962c-2.79899,-4.79091 -5.07539,-9.50441 -8.51491,-13.71713c-4.01383,-6.47171 -11.7549,-11.60038 -17.42469,-15.89729c-4.95856,-3.75791 -9.40454,-4.20392 -11.73956,-11.72981c-4.50274,-9.97127 -7.10251,-17.50391 -4.28363,-28.61418c0.17955,-0.70776 -2.01062,-3.93253 -2.26788,-4.35905c-2.04964,-3.39792 -3.48971,-6.31479 -4.88006,-10.23918c-1.27083,-5.04 -5.3768,-11.35846 -5.51572,-16.59856c-0.13973,-5.27044 1.28995,-12.53467 3.56031,-17.11954c0.86155,-1.73987 1.62153,-4.72781 4.34185,-3.13665c0.69839,0.40851 1.43095,8.53347 1.57659,9.59773c2.19537,6.49556 12.14431,12.61734 13.14196,1.71516c0.27529,-3.00846 -1.54653,-4.73354 -2.43975,-7.08259c-1.28269,-3.37329 -1.37101,-7.36815 -1.4492,-11.08482c-0.07618,-5.45739 3.73024,-10.38976 3.48044,-15.33448c-0.52313,-10.35526 -5.18515,-19.35961 -5.9142,-29.73626c-0.9812,-14.39662 7.50249,-30.28558 11.17098,-44.2114c0.01815,-0.22887 0.0756,-0.42718 0.1547,-0.5975c0.03455,-0.13582 0.06863,-0.27146 0.1022,-0.4069c0,0 0.41507,-1.67459 1.77337,-1.26055c0.16543,0.05042 0.30456,0.11955 0.42131,0.20206c0.01463,-0.00531 0.02931,-0.01064 0.04394,-0.01595c0.01738,0.38887 0.07023,0.64307 0.07023,0.64307c0.18538,0.89158 0.3708,1.78315 0.55617,2.67472c-0.08627,0.03196 -0.17241,0.06387 -0.25835,0.09575l-0.32214,0.13902c-3.63101,13.20369 -11.84566,28.75981 -10.88183,42.26272c0.71802,10.39873 5.52783,19.47097 5.92257,29.90759c0.20282,5.36241 -3.64419,9.76315 -3.47972,15.36464c0.06606,3.21921 0.07435,6.80544 1.18283,9.73019c1.13622,2.99798 2.97577,5.10241 2.69099,8.89055c-0.61257,8.1476 -7.84988,11.48601 -13.45312,8.01036c-2.85396,-1.77027 -4.11585,-5.38723 -5.24899,-8.79777c-0.18971,-1.32348 -0.81313,-3.45322 -1.11692,-5.21563c-0.37681,0.72346 -0.74862,1.36638 -0.80547,1.50721c-1.29442,3.20511 -2.01966,9.60084 -1.9811,12.98586c0.01319,1.157 0.28421,2.42542 0.7009,3.74778c0.59115,0.24153 0.82455,1.00918 0.82455,1.00918zM256.3835,237.72244c0.42079,-0.22468 0.78904,-0.58898 1.0574,-1.04881c2.75748,-1.41865 -0.72594,-8.66791 -4.11024,-5.51136c-3.6856,3.43759 1.60115,8.8153 3.05282,6.56018zM242.0695,240.05957c1.28963,0.17526 2.50891,-0.962 2.72339,-2.54015c0.21448,-1.57814 -0.6571,-2.99958 -1.94669,-3.17484c-1.28963,-0.17526 -2.50891,0.962 -2.72339,2.54015c-0.21448,1.57814 0.6571,2.99958 1.94669,3.17484z" fill="#3a2f41"/></g><path d="M286.86409,73.05701c7.94194,4.23547 11.3043,13.43652 7.51009,20.5512c-3.79426,7.11464 -13.30829,9.44869 -21.25029,5.21327c-7.94192,-4.23549 -11.30429,-13.43655 -7.51007,-20.55123c3.79426,-7.11464 13.3083,-9.44871 21.25029,-5.21326z" fill="#837e85" stroke="none" stroke-width="3.5" stroke-linecap="butt"/><g data-paper-data="{&quot;index&quot;:null}"><g fill="none" stroke="none" stroke-width="1" stroke-linecap="butt" font-family="sans-serif" font-weight="normal" font-size="12" text-anchor="start"><g><g><g/></g></g><g><g><g/></g></g></g><g fill="none" stroke="none" stroke-width="1" stroke-linecap="butt" font-family="sans-serif" font-weight="normal" font-size="12" text-anchor="start"><g><g><g/></g></g><g><g><g/></g></g></g><path d="M258.60996,36.88041c0,0 0.35199,6.16886 0.73366,10.39082c0.22721,2.51329 0.6763,5.03724 0.63931,5.06121c0,0 -8.50273,1.7211 -11.86994,1.7639c-6.48781,0.08247 -12.58424,-2.01796 -12.58424,-2.01796c0,0 0.79092,-1.49185 0.91096,-3.5926c0.18143,-3.17541 -0.00751,-7.07026 -0.74607,-11.21811c0.58866,-0.84755 8.10215,-2.44906 11.37847,-2.40366c3.59457,0.04982 11.65548,1.81197 11.65548,1.81197" fill="#3a2f41" stroke="#3a2f41" stroke-width="2" stroke-linecap="round"/><g fill="none" stroke="none" stroke-width="1" stroke-linecap="butt" font-family="sans-serif" font-weight="normal" font-size="12" text-anchor="start"><g/></g></g><g data-paper-data="{&quot;index&quot;:null}"><path d="M250.04461,50.59612c-0.06947,0.05082 -3.37839,-1.41253 -7.22074,-5.75197c-2.61839,-2.95713 -4.57215,-7.78183 -4.57215,-7.78183c0,0 2.44571,-1.24832 3.80408,-1.82174c1.56365,-0.66007 6.1551,-1.98713 6.1551,-1.98713l8.24644,3.18962c0,0 -1.16714,9.15511 -6.41273,14.15305z" fill="#e1e2db" stroke="none" stroke-width="0" stroke-linecap="butt"/><path d="M256.45734,36.44306c0,0 -0.58385,4.57981 -2.78163,9.02935c-1.72726,-0.73149 -3.41138,-1.37639 -5.43943,-2.15464c-3.13616,-1.20348 -5.86168,-2.23789 -8.5378,-3.20069c-0.90108,-1.70724 -1.44675,-3.05476 -1.44675,-3.05476c0,0 2.44571,-1.24832 3.80408,-1.82174c1.56365,-0.66007 6.1551,-1.98713 6.1551,-1.98713l8.24644,3.18962z" fill="#8c9ca0" stroke="none" stroke-width="0" stroke-linecap="butt"/><path d="M252.48168,45.56971c-0.07934,0.24949 -2.5947,3.84938 -2.5947,3.84938c0,0 -2.88548,-1.58757 -4.70828,-3.51554c-0.08303,-0.08923 2.12201,-4.18333 2.12201,-4.18333l2.95829,-0.02838c0,0 0.3456,0.51049 0.76455,1.16286c0.67385,1.04926 1.53748,2.46553 1.45813,2.71502z" fill="#3a2f41" stroke="#3a2f41" stroke-width="2" stroke-linecap="butt"/><path d="M250.04461,50.59612c-0.06947,0.05082 -3.37839,-1.41253 -7.22074,-5.75197c-2.61839,-2.95713 -4.57215,-7.78183 -4.57215,-7.78183c0,0 2.44571,-1.24832 3.80408,-1.82174c1.56365,-0.66007 6.1551,-1.98713 6.1551,-1.98713l8.24644,3.18962c0,0 -1.16714,9.15511 -6.41273,14.15305z" fill="none" stroke="#3a2f41" stroke-width="2" stroke-linecap="butt"/><path d="M247.41851,40.66586l-0.05081,-3.10909l2.71226,-0.04433l0.05081,3.10909z" fill="#3a2f41" stroke="#3a2f41" stroke-width="2" stroke-linecap="butt"/><g><path d="M251.50749,39.1797l-2.72989,-2.67882c0,0 2.28435,-2.18144 3.27454,-2.91924c0.21682,-0.16156 0.30756,-0.03456 0.36685,-0.01352c0.14652,0.11693 1.0764,1.61702 0.92307,1.72065z" data-paper-data="{&quot;index&quot;:null}" fill="#8c9ca0" stroke="#3a2f41" stroke-width="4.5" stroke-linecap="round"/><path d="M246.0235,39.46122c0,0 -3.2263,-3.05617 -3.53075,-3.99091c0.01355,-0.46305 0.65672,-2.46525 0.9755,-1.90096c0.32286,0.15668 5.56301,-1.0586 6.89921,-0.3095c1.12305,0.62961 -1.59896,3.25497 -1.59896,3.25497z" fill="#3a2f41" stroke="#3a2f41" stroke-width="4.5" stroke-linecap="round"/><path d="M243.14975,35.30983c0.00451,-0.44639 0.06503,-1.54145 0.24244,-1.63323c0.32607,-0.31367 3.51408,-1.84275 4.29965,-1.97926c0.49699,-0.08637 4.1165,1.65456 4.31164,1.8498c0.33468,0.15731 0.70198,1.44261 0.7046,1.60262" fill="none" stroke="#3a2f41" stroke-width="6.5" stroke-linecap="butt"/><g><path d="M251.50661,39.1261l-2.67366,-2.62612c0,0 2.28436,-2.18144 3.27454,-2.91924c0.21683,-0.16156 0.30756,-0.03456 0.36685,-0.01352c0.14652,0.11693 1.0764,1.61702 0.92307,1.72065z" data-paper-data="{&quot;index&quot;:null}" fill="#8c9ca0" stroke="#12161a" stroke-width="0" stroke-linecap="round"/><path d="M246.02351,39.46123c0,0 -3.2263,-3.05617 -3.53075,-3.99091c0.01355,-0.46305 0.65672,-2.46525 0.9755,-1.90096c0.59422,0.28837 5.30025,2.94547 5.30025,2.94547z" fill="#8c9ca0" stroke="#12161a" stroke-width="0" stroke-linecap="round"/><path d="M243.14975,35.30982c0.00451,-0.44639 0.06503,-1.54145 0.24244,-1.63323c0.32607,-0.31367 3.51408,-1.84274 4.29965,-1.97926c0.49699,-0.08637 4.1165,1.65456 4.31164,1.8498c0.33468,0.15732 0.70198,1.44261 0.7046,1.60262" fill="none" stroke="#8c9ca0" stroke-width="2" stroke-linecap="butt"/></g></g></g><g data-paper-data="{&quot;index&quot;:null}"><path d="M237.26635,18.1022c6.7466,0 12.21581,3.87504 12.21581,8.65515c0,4.78011 -5.4692,8.65514 -12.21581,8.65514c-6.74661,0 -12.21581,-3.87504 -12.21581,-8.65514c0,-4.78011 5.4692,-8.65515 12.21581,-8.65515z" fill="#3a2f41" stroke="#3a2f41" stroke-width="1" stroke-linecap="butt"/><path d="M242.19455,18.34513c-1.56361,5.78259 -4.59544,12.83058 -6.24731,12.6109c-4.67841,-0.62217 -11.81495,-11.28954 -10.25134,-17.07212c1.56361,-5.78259 7.01735,-9.63128 11.57333,-8.39935c4.55598,1.23194 6.48894,7.07799 4.92533,12.86058z" data-paper-data="{&quot;index&quot;:null}" fill="#3a2f41" stroke="#3a2f41" stroke-width="1" stroke-linecap="butt"/><g stroke-linecap="butt"><path d="M236.94212,6.3957l-1.65556,-7.99866l20.15882,-8.65428l-2.23987,16.65294z" fill="#7c7984" stroke="none" stroke-width="0"/><path d="M236.94212,6.3957l-1.16863,-6.90307l18.50326,-6.79178l-1.07124,13.69485z" fill="#595564" stroke="none" stroke-width="0"/><path d="M242.91484,6.3957h-5.97272l-1.65556,-7.99866l20.15882,-8.65428l-2.23987,16.65294h-4.79035" fill="none" stroke="#3a2f41" stroke-width="2"/></g><path d="M248.0579,-1.39927c5.99026,0 13.58529,1.08702 13.80441,2.73897c0.62058,4.67862 -7.81415,14.3522 -13.80441,14.3522c-5.99026,0 -13.80441,-2.40172 -13.80441,-7.12132c0,-4.7196 7.81415,-9.96985 13.80441,-9.96985z" fill="#3a2f41" stroke="#3a2f41" stroke-width="1" stroke-linecap="butt"/><path d="M256.04668,29.15124c5.19016,0.47787 11.2264,1.02663 11.00708,1.52425c-0.71694,1.62665 -4.56759,4.99397 -13.58093,4.06194c-5.16391,-0.53398 -8.81642,-2.18391 -8.09948,-3.81056c0.71694,-1.62665 5.48317,-2.25349 10.67333,-1.77563z" fill="#3a2f41" stroke="#3a2f41" stroke-width="1" stroke-linecap="butt"/><path d="M261.04061,18.32132c5.29442,0 11.44889,-0.01502 11.44889,1.09559c0,3.63046 -2.31992,11.61323 -11.55845,11.39411c-5.29293,-0.12554 -9.5864,-2.94307 -9.5864,-6.57353c0,-3.63046 4.40153,-5.91618 9.69595,-5.91618z" fill="#3a2f41" stroke="#3a2f41" stroke-width="1" stroke-linecap="butt"/><path d="M261.75275,4.40735c5.14315,0 10.84632,7.39077 10.84632,11.77757c0,1.75739 -6.25097,3.01287 -11.39412,3.01287c-5.14315,0 -8.76471,-2.46062 -8.76471,-6.84743c0,-4.3868 4.16935,-7.94301 9.3125,-7.94301z" fill="#3a2f41" stroke="#3a2f41" stroke-width="1" stroke-linecap="butt"/><g><path d="M263.37465,29.20878c-2.09527,2.8285 -7.29574,4.20721 -12.98703,4.70367c-6.5629,0.57248 -14.4809,-0.32284 -18.13958,-3.60949c-3.56593,-3.20333 -1.8455,-7.30481 -1.8455,-7.30481c0,0 -2.93238,-3.46034 -0.00467,-8.95065c2.92771,-5.49031 9.4735,-4.53291 9.4735,-4.53291c0,0 1.73542,-3.46951 7.20956,-3.62608c5.47413,-0.15658 7.54718,3.12082 7.54718,3.12082c0,0 5.05878,-0.76019 8.27546,3.46565c3.21668,4.22585 1.51082,9.75287 1.51082,9.75287c0,0 1.06453,4.14026 -1.03974,6.98091z" data-paper-data="{&quot;index&quot;:null}" fill="#e1e2db" stroke="none" stroke-width="0" stroke-linecap="round"/><path d="M230.46435,22.95251c0,0 -3.78575,-4.42992 1.77656,-11.31319c1.92103,-2.37724 7.6603,-2.33711 7.6603,-2.33711c0,0 3.27161,-3.67047 6.51207,-3.69563c5.44044,-0.04224 8.61596,3.32961 8.61596,3.32961c0,0 1.56615,-0.03427 2.68914,0.2619c9.18519,2.4224 7.11043,11.28853 6.75632,12.90654c-0.06822,0.31171 -0.995,1.70071 -5.28246,2.46659c-2.96951,0.53045 -7.20361,-1.07129 -11.1801,-0.82063c-3.58065,0.22571 -7.46538,1.3873 -9.84549,1.39407c-8.0458,0.02291 -7.7023,-2.19216 -7.7023,-2.19216z" fill="#b8c1c0" stroke="none" stroke-width="0" stroke-linecap="butt"/><path d="M263.37464,29.20877c-2.09527,2.8285 -7.29574,4.20721 -12.98703,4.70367c-6.5629,0.57249 -14.4809,-0.32283 -18.13958,-3.60948c-3.56593,-3.20333 -1.8455,-7.30481 -1.8455,-7.30481c0,0 -2.93238,-3.46033 -0.00466,-8.95064c2.92771,-5.49031 9.4735,-4.53291 9.4735,-4.53291c0,0 1.73542,-3.46951 7.20956,-3.62608c5.47413,-0.15658 7.54718,3.12082 7.54718,3.12082c0,0 5.05878,-0.76019 8.27546,3.46565c3.21668,4.22585 1.51082,9.75287 1.51082,9.75287c0,0 1.06453,4.14026 -1.03974,6.98092z" data-paper-data="{&quot;index&quot;:null}" fill="none" stroke="#3a2f41" stroke-width="2.5" stroke-linecap="round"/></g><path d="M243.5024,17.35104c3.33287,-0.06763 5.56176,3.32096 5.62143,6.02768c0.05967,2.70671 -1.93102,4.94121 -5.26389,5.00883c-3.33287,0.06763 -5.46114,-1.87465 -5.52081,-4.58136c-0.05967,-2.70671 1.8304,-6.38753 5.16328,-6.45516z" data-paper-data="{&quot;index&quot;:null}" fill="#3a2f41" stroke="#3a2f41" stroke-width="1" stroke-linecap="butt"/><path d="M253.41554,16.9198c3.09605,-0.06119 5.17549,3.39968 5.23797,6.16011c0.06248,2.76043 -1.78105,5.03451 -4.87709,5.09569c-3.09604,0.06119 -5.07825,-1.9245 -5.14074,-4.68493c-0.06248,-2.76043 1.68381,-6.50969 4.77986,-6.57088z" data-paper-data="{&quot;index&quot;:null}" fill="#3a2f41" stroke="#3a2f41" stroke-width="1" stroke-linecap="butt"/><path d="M250.42759,7.85676c0.5824,-2.13012 4.48177,-1.9677 8.70947,0.36277c4.22771,2.33048 7.1828,5.94651 6.6004,8.07663c-0.5824,2.13012 -4.48177,1.96771 -8.70947,-0.36277c-4.2277,-2.33048 -7.1828,-5.94651 -6.6004,-8.07663z" fill="#3a2f41" stroke="#3a2f41" stroke-width="1" stroke-linecap="butt"/><path d="M247.56488,6.05073c5.23391,0 9.47684,2.13372 9.47684,4.76581c0,2.63208 -4.24292,4.76581 -9.47684,4.76581c-5.23391,0 -9.47684,-2.13372 -9.47684,-4.76581c0,-2.63208 4.24292,-4.76581 9.47684,-4.76581z" fill="#3a2f41" stroke="#3a2f41" stroke-width="1" stroke-linecap="butt"/><path d="M235.91082,4.53116c4.35614,-1.15954 8.59248,0.54898 9.46213,3.81608c0.86965,3.2671 -1.9567,6.8556 -6.31283,8.01514c-4.35614,1.15954 -8.59248,-0.54898 -9.46213,-3.81608c-0.86965,-3.2671 1.9567,-6.8556 6.31283,-8.01514z" fill="#3a2f41" stroke="#3a2f41" stroke-width="1" stroke-linecap="butt"/><path d="M234.03075,8.77663c2.60369,1.21711 3.41615,4.98101 1.81469,8.40691c-1.60146,3.4259 -5.0104,5.21649 -7.61409,3.99938c-2.60369,-1.21711 -3.41615,-4.98101 -1.81469,-8.40692c1.60146,-3.4259 5.0104,-5.21648 7.61409,-3.99937z" fill="#3a2f41" stroke="#3a2f41" stroke-width="1" stroke-linecap="butt"/><path d="M241.58774,12.22057c1.54712,-1.24025 5.96788,-1.15749 9.87404,0.18485c3.90616,1.34234 5.81854,3.43594 4.27141,4.67619c-1.54712,1.24025 -5.96788,1.15749 -9.87404,-0.18485c-3.90616,-1.34234 -5.81854,-3.43594 -4.27141,-4.67619z" fill="#3a2f41" stroke="#3a2f41" stroke-width="1" stroke-linecap="butt"/><path d="M266.15418,16.09664c1.17276,1.83562 0.98676,4.04993 -0.41546,4.94579c-1.40221,0.89586 -3.48964,0.13403 -4.6624,-1.7016c-1.17276,-1.83562 -0.98676,-4.04993 0.41546,-4.94579c1.40221,-0.89586 3.48964,-0.13403 4.6624,1.7016z" fill="#3a2f41" stroke="#3a2f41" stroke-width="1" stroke-linecap="butt"/></g><path d="M249.59224,24.54792c-0.1177,-0.80833 1.64798,-2.67815 3.95322,-3.01382c2.30523,-0.33567 4.27707,0.98992 4.39477,1.79825c0.1177,0.80833 -2.16194,-1.01122 -4.46718,-0.67555c-2.30523,0.33567 -3.76311,2.69945 -3.88081,1.89112z" data-paper-data="{&quot;index&quot;:null}" fill="#e1e2db" stroke="none" stroke-width="0" stroke-linecap="butt"/><path d="M247.96919,24.76703c-0.1177,0.80833 -1.57558,-1.55545 -3.88081,-1.89112c-2.30523,-0.33567 -4.58488,1.48388 -4.46718,0.67555c0.1177,-0.80833 2.08954,-2.13392 4.39477,-1.79825c2.30523,0.33567 4.07092,2.20549 3.95322,3.01382z" data-paper-data="{&quot;index&quot;:null}" fill="#e1e2db" stroke="none" stroke-width="0" stroke-linecap="butt"/></g></g></svg>