<svg version="1.1" xmlns="http://www.w3.org/2000/svg" xmlns:xlink="http://www.w3.org/1999/xlink" width="288.11951" height="222.94634" viewBox="0,0,288.11951,222.94634"><defs><linearGradient x1="1077.66312" y1="216.06021" x2="1077.66312" y2="354.07601" gradientUnits="userSpaceOnUse" id="color-1"><stop offset="0" stop-color="#ffffff" stop-opacity="0.26046"/><stop offset="1" stop-color="#ffffff" stop-opacity="0"/></linearGradient><linearGradient x1="1077.66312" y1="216.06021" x2="1077.66312" y2="354.07601" gradientUnits="userSpaceOnUse" id="color-2"><stop offset="0" stop-color="#ffffff" stop-opacity="0.26046"/><stop offset="1" stop-color="#ffffff" stop-opacity="0"/></linearGradient><linearGradient x1="1077.66312" y1="216.06021" x2="1077.66312" y2="354.07601" gradientUnits="userSpaceOnUse" id="color-3"><stop offset="0" stop-color="#ffffff" stop-opacity="0.26046"/><stop offset="1" stop-color="#ffffff" stop-opacity="0"/></linearGradient><linearGradient x1="1036.02754" y1="220.12049" x2="1036.02754" y2="358.13627" gradientUnits="userSpaceOnUse" id="color-4"><stop offset="0" stop-color="#ffffff" stop-opacity="0.26046"/><stop offset="1" stop-color="#ffffff" stop-opacity="0"/></linearGradient><linearGradient x1="1036.02754" y1="220.12049" x2="1036.02754" y2="358.13627" gradientUnits="userSpaceOnUse" id="color-5"><stop offset="0" stop-color="#ffffff" stop-opacity="0.26046"/><stop offset="1" stop-color="#ffffff" stop-opacity="0"/></linearGradient><linearGradient x1="1036.02754" y1="220.12049" x2="1036.02754" y2="358.13627" gradientUnits="userSpaceOnUse" id="color-6"><stop offset="0" stop-color="#ffffff" stop-opacity="0.26046"/><stop offset="1" stop-color="#ffffff" stop-opacity="0"/></linearGradient><linearGradient x1="240.20135" y1="106.72372" x2="245.32467" y2="186.74837" gradientUnits="userSpaceOnUse" id="color-7"><stop offset="0" stop-color="#cedee0" stop-opacity="0"/><stop offset="1" stop-color="#cedee0" stop-opacity="0.19676"/></linearGradient></defs><g transform="translate(-166.7453,-62.01924)"><g data-paper-data="{&quot;isPaintingLayer&quot;:true}" fill-rule="nonzero" stroke-linejoin="miter" stroke-miterlimit="10" stroke-dasharray="" stroke-dashoffset="0" style="mix-blend-mode: normal"><path d="" fill="#3a2f41" stroke="none" stroke-width="0" stroke-linecap="butt"/><path d="" fill="#3a2f41" stroke="url(#color-1)" stroke-width="0.5" stroke-linecap="butt"/><path d="" fill="#3a2f41" stroke="url(#color-2)" stroke-width="0.5" stroke-linecap="butt"/><path d="" fill="#3a2f41" stroke="url(#color-3)" stroke-width="0.5" stroke-linecap="butt"/><path d="" data-paper-data="{&quot;index&quot;:null}" fill="#3a2f41" stroke="url(#color-4)" stroke-width="0.5" stroke-linecap="butt"/><path d="" data-paper-data="{&quot;index&quot;:null}" fill="#3a2f41" stroke="url(#color-5)" stroke-width="0.5" stroke-linecap="butt"/><path d="" data-paper-data="{&quot;index&quot;:null}" fill="#3a2f41" stroke="url(#color-6)" stroke-width="0.5" stroke-linecap="butt"/><g data-paper-data="{&quot;index&quot;:null}" stroke="#3a2f41" stroke-linecap="butt"><path d="M175.53482,120.85891l3.11304,-12.86728l7.93677,4.93249l-6.23027,-8.68641l15.36193,-18.34029c0,0 3.23013,17.11129 10.24682,32.50646c2.56059,3.39439 -6.23384,9.52842 -6.23384,9.52842z" fill="#3a2f41" stroke-width="1.5"/><path d="M205.27899,124.87795c-2.064,-1.41746 1.30809,-20.30024 4.34021,-24.47218c1.22644,-1.68746 15.34088,12.80993 13.78171,14.95518c-3.03212,4.17192 -15.06134,11.61882 -17.12532,10.20138z" data-paper-data="{&quot;index&quot;:null}" fill="#8c9ca0" stroke-width="2"/><path d="M206.06499,125.02068c1.75288,1.72592 -5.79805,15.55541 -9.58265,18.66199c-1.94611,1.59747 -17.02423,-12.10259 -15.49343,-13.35915c3.78459,-3.10657 22.47684,-7.8621 24.22971,-6.13618z" fill="#e1e2db" stroke-width="1.5"/><path d="M210.14108,121.19044c1.72126,2.57291 1.14358,5.9786 -1.29029,7.60683c-2.43382,1.6282 -5.80222,0.86237 -7.52347,-1.71058c-1.72126,-2.57291 -1.14358,-5.9786 1.29029,-7.60682c2.43382,-1.6282 5.80222,-0.86236 7.52347,1.71057z" fill="#e1e2db" stroke-width="2"/></g><path d="M288.77896,178.77229l-19.00349,-0.88628l-0.69295,-10.19531c0,0 -0.5818,10.43603 -1.00658,10.34795c-5.36665,-0.08575 -10.6739,-0.09041 -15.7462,-0.04201c-21.3087,0.20339 -38.47088,1.34346 -38.47088,1.34346c0,0 -7.31882,-11.26313 -8.01952,-22.2077c-0.48966,-7.64826 -0.5712,-22.81405 9.48279,-35.27119c8.10858,-10.04674 23.21022,-13.9746 26.37343,-14.30653c2.52931,-0.26543 13.49342,2.98107 20.22453,8.55386c11.20449,9.27639 24.48167,30.95054 24.48167,30.95054z" fill="#3a2f41" stroke="none" stroke-width="0" stroke-linecap="butt"/><g stroke-linecap="butt"><path d="M275.575,150.56979c0.43384,6.77639 2.37207,12.72254 -2.18918,17.4066c-4.43398,4.55337 -14.90018,6.69736 -25.66338,7.61683c-10.71269,0.91518 -21.63698,-0.82356 -26.6561,-4.949c-5.07769,-4.17354 -4.49619,-9.54872 -4.92645,-16.26933c-0.85555,-13.3637 7.09941,-30.91741 32.08571,-31.77708c16.43614,-0.5655 26.49385,14.60823 27.34942,27.97196z" fill="#e1e2db" stroke="none" stroke-width="0"/><path d="M275.575,150.56979c0.85557,13.3637 -11.8102,5.73566 -25.26237,6.70336c-13.44947,0.9675 -33.3172,10.46548 -34.17277,-2.89823c-0.85555,-13.3637 7.09941,-30.91741 32.08571,-31.77708c16.43614,-0.5655 26.49386,14.60824 27.34942,27.97196z" fill="#b8c1c0" stroke="none" stroke-width="0"/><path d="M252.9117,122.8748c13.64917,2.14077 22.87993,15.05187 23.65089,27.09411l0.03428,0.53547c0.40583,6.33896 1.0614,12.28471 -2.85498,16.84296c-4.34011,5.0514 -14.15827,7.24082 -25.63619,8.22136c-7.92947,0.67739 -17.63261,-0.14124 -22.36109,-2.4061c-8.12233,-3.89044 -9.06393,-10.34116 -9.60467,-18.78768c-0.72622,-11.34322 4.89537,-25.70526 21.89212,-30.31452" fill="none" stroke="#3a2f41" stroke-width="2"/></g><path d="M202.25402,176.69912l-9.57241,-6.50392c0,0 -3.69278,-23.42905 5.62265,-39.40686c12.01542,-20.60876 34.94771,-29.77844 58.42947,-25.5714c5.03033,0.90124 17.78515,4.27719 25.64952,12.22816c9.44734,9.55139 13.3052,22.22249 13.3052,22.22249l-4.96519,-0.45726l1.59222,10.10873c0,0 -2.74572,-0.51672 -2.7771,-0.73167c-0.70276,-4.8159 -2.01271,-9.55783 -2.01271,-9.55783c0,0 1.00559,3.88022 0.89223,9.71754c-2.85275,-0.34659 -18.64968,-0.99489 -18.64968,-0.99489l-2.41355,-4.22728l-0.11628,4.11097l-13.71069,-0.38296l-2.43687,-15.2791l0.74697,14.9778c0,0 -12.20372,0.6673 -18.08814,1.2614c-0.41505,0.04191 -2.40806,-6.32793 -2.40806,-6.32793c0,0 0.28393,6.76241 -0.0265,6.7877c-3.66933,0.29882 -8.68984,1.28476 -8.68984,1.28476c0,0 2.2522,34.12184 2.11861,34.14588c-2.07791,0.37422 -20.26935,-4.99182 -20.32972,-6.4001c-0.08722,-2.03446 -2.09906,-13.38572 -2.09906,-13.38572z" fill="#3a2f41" stroke="url(#color-7)" stroke-width="0.5" stroke-linecap="butt"/><path d="M248.6316,116.91335c12.16245,-31.63728 39.19871,-44.79033 39.19871,-44.79033l-7.96923,56.16508" fill="#3a2f41" stroke="#3a2f41" stroke-width="1.5" stroke-linecap="round"/><path d="M194.91952,141.15543c8.43699,-47.20872 38.31518,-77.57325 38.31518,-77.57325l8.82242,49.98191" fill="#3a2f41" stroke="#3a2f41" stroke-width="1.5" stroke-linecap="round"/><path d="M221.67591,161.99479c0,0 3.9904,-5.79515 11.59843,-6.46217c8.06072,-0.70669 12.57368,5.50429 12.57368,5.50429c0,0 -5.13373,-0.04705 -12.47979,0.36462c-6.52774,0.36579 -11.6923,0.59328 -11.6923,0.59328z" fill="#e1e2db" stroke="#3a2f41" stroke-width="1" stroke-linecap="butt"/><path d="M240.51822,161.22042l0.147,-4.25692l0.33396,0.28166l-0.12179,3.81259z" fill="#3a2f41" stroke="#3a2f41" stroke-width="0.5" stroke-linecap="butt"/><g><path d="M226.29338,247.31905l48.0244,-0.7853c0,0 5.28896,11.94195 8.66624,19.41765c1.01081,2.23748 1.85037,4.07486 2.32563,5.07225c0.81872,3.0182 1.84682,7.23865 2.99369,12.18631c-24.42462,0.17215 -48.84703,0.47558 -72.95423,0.73453c5.114,-18.14585 10.94429,-36.62542 10.94429,-36.62542z" fill="#e1e2db" stroke="none" stroke-width="0" stroke-linecap="round"/><path d="M214.34089,272.40984c3.19534,-14.32135 15.26578,-29.93679 15.26578,-29.93679l42.83537,-0.96214c0,0 5.70033,10.82614 7.52847,14.99505c1.26759,2.8906 2.38841,7.61937 2.38841,7.61937l-25.25896,18.96617c-15.01087,0.15533 -29.97027,0.33204 -44.80503,0.48907c0.79018,-4.74878 1.51246,-8.77964 2.04595,-11.17073z" fill="#8c9ca0" stroke="none" stroke-width="0" stroke-linecap="butt"/><path d="M213.37644,283.96557c0.83389,-4.66219 1.66403,-8.92134 2.46666,-12.51874c2.8729,-12.87653 13.77556,-28.56137 13.77556,-28.56137l42.48231,-0.50823c0,0 6.72589,8.8977 12.12365,27.34887c0.89614,3.06331 2.10924,7.79848 3.49261,13.48799" fill="none" stroke="#3a2f41" stroke-width="2" stroke-linecap="round"/><path d="M275.84663,249.26053l-20.78879,10.78915l-29.25159,-9.74749" fill="none" stroke="#3a2f41" stroke-width="1.5" stroke-linecap="round"/></g><path d="M252.84137,253.26012c-9.19804,0.61109 -24.83642,-8.29824 -24.83642,-8.29824c0,0 0.90587,-5.21254 1.68995,-8.05174c0.71426,-2.58639 2.30604,-8.26313 2.30604,-8.26313c0,0 0.31358,-3.95745 -2.21979,-7.95486c-1.58721,-2.50446 -10.13513,-12.50078 -10.17334,-12.86178c-0.00734,-0.0694 0.76931,-3.8648 2.2113,-7.94784c1.67378,-4.7393 8.42478,-12.64714 11.59018,-14.60728c3.44855,-2.13548 8.23692,-3.31157 11.95562,-3.44807c5.68317,-0.20863 11.62265,0.51759 16.93322,2.97501c2.00124,0.92606 5.69334,3.52812 5.69334,3.52812c0,0 6.45535,7.39712 9.55704,16.72247c-3.05769,10.39644 -11.13724,15.12165 -11.13724,15.12165l-0.58519,6.98141c0,0 2.36206,4.96183 3.33321,7.44957c0.9679,2.47939 2.48402,7.45193 2.48402,7.45193c0,0 -9.60387,10.59175 -18.80192,11.20283z" fill="#3a2f41" stroke="#8c9ca0" stroke-width="1.5" stroke-linecap="round"/><g data-paper-data="{&quot;index&quot;:null}" stroke="#3a2f41"><g data-paper-data="{&quot;index&quot;:null}"><g><path d="M354.1393,251.73847l6.0343,-25.70891l92.01564,22.04129l-34.30683,18.51935z" fill="#e1e2db" stroke-width="0" stroke-linecap="butt"/><path d="M354.13929,251.73847l6.0343,-25.70891l38.92278,9.06876l-26.34185,20.97737z" fill="#8c9ca0" stroke-width="0" stroke-linecap="butt"/><path d="M372.8973,255.46785l18.28137,-22.12257" fill="none" stroke-width="1.5" stroke-linecap="round"/><path d="M390.38432,259.54224l20.17418,-21.31515" fill="none" stroke-width="1.5" stroke-linecap="round"/><path d="M407.50783,263.89832l22.95726,-21.76596" fill="none" stroke-width="1.5" stroke-linecap="round"/><path d="M358.44812,233.38113l1.72551,-7.35152l91.94801,21.42328l-34.23922,19.13735l-63.74309,-14.85173l0.78656,-3.35112" fill="none" stroke-width="2" stroke-linecap="butt"/></g><path d="M325.35693,250.1622l8.31756,-35.43659l43.99966,10.25162l-8.31755,35.43659z" fill="#e1e2db" stroke-width="0" stroke-linecap="butt"/><path d="M325.35692,250.16221l8.31756,-35.43661l25.38442,5.91442l-25.80459,31.36224z" fill="#8c9ca0" stroke-width="0" stroke-linecap="butt"/><path d="M333.89961,244.18316l4.89267,-20.84505l28.48695,6.63728l-4.89266,20.84506z" fill="none" stroke-width="1.5" stroke-linecap="butt"/><path d="M333.89964,244.18317l18.71308,-17.62499" fill="none" stroke-width="1.5" stroke-linecap="round"/><path d="M367.11622,230.67023l-18.46846,16.58274" fill="none" stroke-width="1.5" stroke-linecap="round"/><path d="M331.22723,226.33064l2.70427,-11.5215l43.99966,10.25162l-8.31755,35.4366l-43.99966,-10.25164l2.29527,-9.77893" fill="none" stroke-width="2" stroke-linecap="butt"/></g><g data-paper-data="{&quot;index&quot;:null}" stroke-width="2" stroke-linecap="butt"><path d="M342.051,255.78438l-38.33653,-9.09566c0,0 -30.5996,-29.49854 -40.37901,-39.39081c-5.38576,-5.44794 -13.45382,-15.06334 -13.45382,-15.06334l15.8199,-2.81996l35.1922,22.26047l51.03227,5.445z" fill="#3a2f41"/><path d="M335.21095,254.16249l-2.08186,-0.66524l7.67347,-37.41469l2.07848,0.3921z" fill="#8ea8ab"/></g></g><g stroke="#3a2f41"><g fill="#e1e2db" stroke-width="2"><path d="" stroke-linecap="round"/><path d="" stroke-linecap="round"/><path d="M189.26817,253.75215l5.61977,-11.14134l1.07648,9.34074l4.0633,-1.68878c0,0 -4.94697,22.56509 -5.98875,29.57886c-0.15956,1.07419 -0.29965,2.06891 -0.42046,2.9608c-6.09718,-0.32259 -12.16988,-0.64866 -18.21273,-0.98079c4.95,-15.08228 10.93518,-31.88628 10.94719,-31.92001z" stroke-linecap="butt"/><path d="M186.35295,249.90162v0c0.00001,-0.00004 0.00002,-0.00006 0.00002,-0.00006z" stroke-linecap="butt"/></g><g stroke-linecap="butt"><path d="M176.81506,243.62197c0,0 30.37578,-31.24559 40.56014,-41.22945c5.60879,-5.49835 14.6859,-13.36041 14.6859,-13.36041l-0.19537,22.66417l-19.14017,29.18463l-4.73477,42.6745c-13.55345,-0.70441 -27.00768,-1.41598 -40.30509,-2.16252z" fill="#3a2f41" stroke-width="1.5"/><path d="M169.01674,275.88208l0.691,-2.1316l38.32696,8.02864l-0.33986,1.76089c-0.8199,-0.04262 -1.63944,-0.08527 -2.45859,-0.12796z" fill="#8ea8ab" stroke-width="2"/></g></g><g><path d="M254.24776,180.88255c0.12906,2.04159 -4.91412,6.16194 -7.15803,6.30379c-2.24391,0.14185 -7.60733,-2.91941 -7.73639,-4.961c-0.12906,-2.04159 5.14915,-3.50192 7.39305,-3.64377c2.2439,-0.14185 7.37232,0.25939 7.50138,2.30098z" fill="#3a2f41" stroke="none" stroke-width="0" stroke-linecap="butt"/><g fill="#8c9ca0" stroke="#8c9ca0" stroke-width="1.5" stroke-linecap="butt"><path d="M230.08335,196.60861c-0.81865,-0.70597 8.61012,-15.2441 8.61012,-15.2441l8.06476,5.33173l7.74071,-7.00652c0,0 11.28761,13.29815 10.73161,14.10184c-0.30743,0.4444 -4.08742,-1.25749 -8.72698,-2.35769c-4.26793,-1.0121 -9.43781,-1.41348 -9.43781,-1.41348c0,0 -5.33668,1.72841 -9.67893,3.51851c-3.97036,1.63678 -6.96214,3.36407 -7.30349,3.06973z"/></g><path d="M238.8023,183.0292l0.38496,-1.95024l7.16021,-2.67278l7.68331,1.15934l0.92307,1.90768" fill="none" stroke="#8c9ca0" stroke-width="2" stroke-linecap="round"/></g><g fill="#8c9ca0" stroke="#3a2f41" stroke-width="1.5" stroke-linecap="butt"><path d="M251.64324,200.20773c0.0095,1.84924 -1.5494,3.35637 -3.48193,3.3663c-1.93252,0.00994 -3.50682,-1.48111 -3.51634,-3.33034c-0.0095,-1.84924 1.54941,-3.35638 3.48194,-3.36631c1.93252,-0.00994 3.50683,1.48113 3.51633,3.33035z"/><path d="M252.34259,210.22614c0.00983,1.91351 -1.61981,3.47311 -3.6399,3.48349c-2.0201,0.01037 -3.66565,-1.53241 -3.67548,-3.44591c-0.00983,-1.91351 1.6198,-3.47311 3.63988,-3.48349c2.0201,-0.01037 3.66568,1.53241 3.67551,3.44591z"/></g><path d="" fill="#3a2f41" stroke="#8c9ca0" stroke-width="2" stroke-linecap="butt"/><path d="" fill="#3a2f41" stroke="#8c9ca0" stroke-width="2" stroke-linecap="butt"/><g stroke="#393142" stroke-width="0.9" stroke-linecap="round"><path d="M259.7228,166.32599l-2.95483,5.81376l-20.64912,1.50313l2.83833,-5.4169z" fill="#393142"/><path d="M254.98426,172.21791l-18.8654,1.42495l2.83833,-5.4169l18.24573,-1.67766z" fill="#ffffff"/></g></g></g></svg>