<svg xmlns="http://www.w3.org/2000/svg" xmlns:xlink="http://www.w3.org/1999/xlink" version="1.1" width="520.799066066742" height="376.4923644065857" viewBox="5.360166788101196 -3.4503332749009132 520.799066066742 376.4923644065857">
  <defs>
    <radialGradient id="grad_1" cx="0.5" cy="0.5138" r="0.66794">
      <stop offset="0" stop-color="#F66C98" stop-opacity="1"/>
      <stop offset="1" stop-color="#9A2E38" stop-opacity="1"/>
    </radialGradient>
  <radialGradient id="grad_1-.579521417617798,0,0,3.417410135269165,-349.25,-830.35" cx="280.1532" cy="189.7141" r="310.0314" gradientUnits="userSpaceOnUse">
      <stop offset="0" stop-color="#F66C98" stop-opacity="1"/>
      <stop offset="1" stop-color="#9A2E38" stop-opacity="1"/>
    </radialGradient></defs>
  <!-- Exported by Scratch - http://scratch.mit.edu/ -->
  <path id="ID0.9129331279546022" fill="url(#grad_1-.579521417617798,0,0,3.417410135269165,-349.25,-830.35)" stroke="none" d="M 37.6782 0.0807 L 522.6282 0.0807 L 522.6282 369.161 L 37.6782 369.161 L 37.6782 0.0807 Z " stroke-width="3.027591681236866"/>
  <g id="ID0.901408904697746">
    <path id="ID0.7797387707978487" fill="#D33445" stroke="#D33445" stroke-width="7.062066555023193" stroke-linecap="round" d="M 8.8912 107.8653 L 50.3808 70.7894 L 78.6291 84.9136 L 95.4015 83.1481 L 145.7187 94.6239 L 122.767 113.1618 L 139.5394 132.5825 L 153.6635 110.5136 L 177.498 133.4653 L 159.8428 140.5273 L 124.5325 176.7204 L 92.7532 179.3687 L 131.5946 204.9687 L 203.9808 233.217 L 196.9187 255.2859 L 169.5532 280.8859 L 166.9049 315.3135 L 149.2497 290.5963 L 145.7187 250.8721 L 124.5325 228.8032 L 129.8291 212.0308 L 81.2774 192.6101 L 52.1463 160.8308 L 56.5601 130.817 L 46.8498 109.6308 L 8.8912 107.8653 Z "/>
    <path id="ID0.5276037878356874" fill="#D33445" stroke="#D33445" stroke-width="7.062066555023193" stroke-linecap="round" d="M 196.9187 84.0308 L 188.9739 63.7274 L 217.2221 47.8377 L 245.4704 55.7825 L 228.698 99.0377 L 197.8015 111.3963 L 196.9187 84.0308 Z "/>
    <path id="ID0.22614181134849787" fill="#D33445" stroke="#D33445" stroke-width="7.062066555023193" stroke-linecap="round" d="M 288.7256 152.886 L 256.9463 155.5342 L 311.6773 120.2239 L 301.0842 107.8653 L 277.2497 121.9894 L 294.9049 95.5067 L 322.2704 103.4515 L 356.698 91.0929 L 373.4704 63.7274 L 394.6566 71.6722 L 484.6979 70.7894 L 486.4634 98.1549 L 464.3945 114.0446 L 476.7531 133.4653 L 452.0359 156.417 L 457.3324 180.2515 L 436.1462 191.7273 L 463.5117 227.9204 L 421.1393 190.8446 L 405.2497 190.8446 L 392.0083 204.9687 L 382.2979 185.548 L 363.76 182.017 L 342.5738 198.7894 L 324.9187 167.0101 L 288.7256 152.886 Z "/>
    <path id="ID0.9972305246628821" fill="#D33445" stroke="#D33445" stroke-width="7.062066555023193" stroke-linecap="round" d="M 447.6221 258.817 L 445.8565 256.1687 L 479.4014 238.5135 L 488.4055 243.6335 L 495.9972 257.228 L 486.4634 275.5894 L 467.0427 264.1135 L 451.1531 271.1756 Z "/>
    <path id="ID0.4784054202027619" fill="#D33445" stroke="#D33445" stroke-width="7.062066555023193" stroke-linecap="round" d="M 251.6497 212.9135 L 240.1739 197.9066 L 265.7738 167.0101 L 294.9049 175.8377 L 322.2704 176.7204 L 332.8635 199.6722 L 351.4014 206.7342 L 333.7462 227.0377 L 312.56 270.2928 L 298.4359 270.2928 L 286.96 247.3411 L 286.0773 219.0928 L 251.6497 212.9135 Z "/>
    <path id="ID0.1744393603876233" fill="none" stroke="#D33445" stroke-width="7.062066555023193" stroke-linecap="round" d="M 337.2773 257.0514 L 345.2221 242.0446 "/>
    <path id="ID0.20900010224431753" fill="none" stroke="#D33445" stroke-width="7.062066555023193" stroke-linecap="round" d="M 110.4084 82.2653 L 107.7601 69.0239 Z "/>
    <path id="ID0.7906406973488629" fill="#D33445" stroke="#D33445" stroke-width="7.062066555023193" stroke-linecap="round" d="M 149.2497 93.7412 L 106.8773 81.7356 L 107.7601 68.1412 L 137.7739 54.8998 L 158.9601 64.6101 L 196.0359 42.5412 L 166.0222 80.4998 L 177.498 100.8032 L 161.6084 111.3963 L 158.0773 91.0929 L 149.2497 93.7412 Z "/>
  </g>
  <path id="ID0.9129331279546022" fill="#FFFFFF" stroke="none" d="M 36.4782 0.4307 L 521.4282 0.4307 L 521.4282 369.511 L 36.4782 369.511 L 36.4782 0.4307 Z " stroke-width="3.027591681236866"/>
</svg>