<svg version="1.1" xmlns="http://www.w3.org/2000/svg" xmlns:xlink="http://www.w3.org/1999/xlink" width="193.58983" height="428.10179" viewBox="0,0,193.58983,428.10179"><g transform="translate(-143.08009,33.9259)"><g data-paper-data="{&quot;isPaintingLayer&quot;:true}" fill-rule="nonzero" stroke-linejoin="miter" stroke-miterlimit="10" stroke-dasharray="" stroke-dashoffset="0" style="mix-blend-mode: normal"><g stroke-linecap="butt"><path d="M334.47905,160.7952l-35.49828,55.12028l-18.99067,-3.57461c0,0 -17.94211,-53.31906 -18.21485,-53.7077c-1.63745,-3.90685 19.21549,-9.2448 19.21549,-9.2448l-18.94301,-35.62047l4.32169,-23.21607l21.42893,5.205c0,0 11.57402,19.73632 25.8027,37.54915z" data-paper-data="{&quot;index&quot;:null}" fill="#e1e2db" stroke="none" stroke-width="0"/><path d="M334.47905,160.79519l-0.15502,0.24071c-22.45513,-9.3587 -58.51723,-21.39542 -58.51723,-21.39542l-13.75907,-25.87258l4.32169,-23.21607l21.42893,5.205c0,0 11.57402,19.73632 25.8027,37.54914z" data-paper-data="{&quot;index&quot;:null}" fill="#8c9ca0" stroke="none" stroke-width="0"/><path d="M334.47905,160.79519l-35.49828,55.12028l-18.99067,-3.57461c0,0 -17.94211,-53.31906 -18.21485,-53.7077c-1.63745,-3.90685 19.21549,-9.2448 19.21549,-9.2448l-18.94301,-35.62047l4.32169,-23.21607l21.42893,5.205c0,0 11.57402,19.73632 25.8027,37.54914z" data-paper-data="{&quot;index&quot;:null}" fill="none" stroke="#3a2f41" stroke-width="2"/></g><g data-paper-data="{&quot;index&quot;:null}" stroke="#3a2f41" stroke-width="2"><path d="M254.71407,171.09413c0,0 10.25825,-14.91905 14.91684,-15.26998c4.46525,-0.33636 19.03263,18.33655 19.03263,18.33655c0,0 5.88425,31.37446 2.41397,33.37929c-3.74662,2.16448 -15.69295,3.76434 -16.07369,2.81829c-5.74533,-14.27616 -20.28975,-39.26415 -20.28975,-39.26415z" fill="#7c7984" stroke-linecap="butt"/><path d="M261.19399,179.85236l20.60462,-12.99074" fill="none" stroke-linecap="round"/></g><g><g><path d="M272.10122,92.51108c-3.97449,1.79039 -4.2672,16.75201 -7.16617,20.74982c-5.06873,6.98997 -11.41952,3.60481 -11.41952,3.60481c0,0 -12.9349,-14.20823 -24.52966,-14.63394c-7.2633,-0.26668 -8.86648,-5.44412 -15.69736,-9.73776c-7.69365,-4.83594 -20.13904,-9.08783 -18.88958,-14.19164c-32.67583,-43.38749 -9.73146,-81.75831 18.95684,-94.8021c22.42278,-10.19502 51.46733,1.69694 39.67913,-4.86061c-4.62034,-2.57021 -27.28436,-5.11633 -27.28436,-5.11633c0,0 21.66557,-4.96114 28.61806,-3.30147c10.35421,2.4717 34.67123,10.92662 48.88305,44.49854c12.7773,30.18322 2.32909,63.76341 -22.15042,74.79067z" data-paper-data="{&quot;index&quot;:null}" fill="#8c9ca0" stroke="#3a2f41" stroke-width="2" stroke-linecap="butt"/><path d="M183.58168,95.43619c-7.47535,7.94326 -19.00141,7.94461 -30.06165,-2.4641c-11.06024,-10.40872 -10.96636,-22.28593 -3.49101,-30.22919c7.47535,-7.94326 19.50141,-8.94461 30.56165,1.4641c11.06024,10.40872 10.46636,23.28593 2.99101,31.22919z" fill="#e1e2db" stroke="#3a2f41" stroke-width="2" stroke-linecap="butt"/><g data-paper-data="{&quot;index&quot;:null}" stroke-linecap="butt"><path d="M209.81602,19.32582c2.7452,-6.16306 9.86006,-14.63212 20.7519,-17.65023c13.94313,-3.8636 35.25186,-6.93339 43.51958,-3.2507c7.39916,3.29581 10.84925,22.06361 20.75476,38.41369c9.80891,16.19064 35.38731,20.73386 35.38731,20.73386c0,0 -44.03681,35.07775 -79.85669,18.48343c-14.62756,-6.77651 -42.06554,-53.34305 -40.55686,-56.73006z" fill="#3a2f41" stroke="#3a2f41" stroke-width="2"/><path d="M217.93835,18.95032c1.70776,-13.31393 -41.49032,-4.89504 -33.39109,-14.23522c18.90388,-21.80029 54.72326,-33.20942 83.81752,-26.18692c17.11112,4.13012 28.95258,18.88731 41.54606,30.26266c14.0478,12.68901 25.75909,5.39676 25.75909,5.39676c0,0 0.00672,22.78221 -12.69242,36.22082c-10.58276,11.199 -32.12802,13.77046 -49.89072,11.22452c-15.95791,-2.28725 -55.62019,-39.00494 -55.14846,-42.68265z" fill="#3a2f41" stroke="#3a2f41" stroke-width="2"/><g data-paper-data="{&quot;index&quot;:null}"><path d="M283.62781,55.38794c-0.65506,9.22702 -1.97651,17.41211 -9.64441,22.90979c-7.45396,5.34429 -21.03084,8.14106 -37.18232,7.43325c-32.3389,-1.41714 -43.41084,-17.77274 -42.11899,-35.96929c1.29181,-18.19655 16.46383,-40.45423 53.71442,-37.08996c24.50368,2.21305 36.52311,24.51966 35.23128,42.71622z" fill="#7c7984" stroke="none" stroke-width="0"/><path d="M283.62781,55.38795c-1.29184,18.19655 -18.62873,5.60465 -38.78051,4.47497c-20.14777,-1.12945 -51.45706,8.09532 -50.16521,-10.10123c1.29181,-18.19655 16.46383,-40.45423 53.71442,-37.08996c24.50368,2.21305 36.52311,24.51966 35.23128,42.71622z" fill="#626171" stroke="none" stroke-width="0"/><path d="M233.09716,13.18083c44.72522,-2.7376 51.66544,26.22262 50.50136,42.61978h-0.00001c-0.61276,8.63137 -2.69101,16.65621 -9.3777,22.10082c-7.41008,6.03366 -20.22501,8.99702 -37.44902,8.24221c-32.33889,-1.41715 -43.41085,-17.77273 -42.119,-35.96928c0.45116,-6.35499 2.59529,-13.20532 6.7816,-19.28658" fill="none" stroke="#3a2f41" stroke-width="2"/><path d="M210.53594,21.55409c5.71839,-4.16634 13.11647,-7.22054 22.42113,-8.34116" fill="none" stroke="#3a2f41" stroke-width="2"/></g><path d="M230.65171,28.86001c0.53679,-4.18487 -1.00624,-22.4647 5.18041,-26.2035c7.91981,-4.7862 24.91442,1.53838 30.74122,2.28577c5.21463,0.66888 10.90748,11.32293 20.14802,19.38355c9.15041,7.98202 27.1056,7.2083 27.1056,7.2083c0,0 -3.38958,12.33638 -15.94548,19.73607c-7.29321,4.29818 -19.88779,6.93072 -30.94266,4.51244c-10.35833,-1.47895 -36.58213,-24.6228 -36.28713,-26.92266z" fill="#3a2f41" stroke="#3a2f41" stroke-width="2"/><path d="M224.98892,-2.73589c7.21478,-0.44753 13.13643,3.16656 15.95984,6.30176c1.09708,1.21823 6.44736,7.24558 -1.00095,19.41492c-3.08624,5.04243 -8.62429,15.65694 -17.16917,20.25446c-22.56399,12.14041 -45.85622,9.57921 -45.85622,9.57921c0,0 12.36574,-9.28953 15.34561,-21.06081c3.00922,-11.88722 1.62536,-23.8873 5.53205,-27.40551c4.36526,-3.9312 17.95287,-6.51112 27.18883,-7.08404z" data-paper-data="{&quot;index&quot;:null}" fill="#7c7984" stroke="#3a2f41" stroke-width="2"/><path d="M226.04597,1.29082c0.5196,-4.0508 11.05152,-6.03772 23.5237,-4.43794c5.41069,0.69401 9.81292,-2.44371 15.99608,2.90734c8.06964,6.98366 39.55404,22.1752 51.17089,30.67908c0.43023,0.42228 -3.03063,10.73099 -3.22803,18.544c-0.12197,4.82776 10.15055,8.63339 10.15055,8.63339c0,0 -19.58952,17.9955 -43.60822,21.22055c-5.07859,0.68191 2.91681,-7.89996 2.02582,-9.1187c-0.30868,-0.42224 4.74254,-17.21775 2.47606,-24.03964c-3.22738,-9.71409 -12.08053,-19.50936 -14.88683,-20.83512c-8.04409,-3.8002 -17.18562,-12.707 -21.9779,-13.32169c-12.47218,-1.59978 -22.16168,-6.1805 -21.64209,-10.2313z" fill="#3a2f41" stroke="none" stroke-width="0"/><path d="M214.14223,-4.18884c3.52332,-2.3211 10.16538,-4.32367 17.03365,-2.06972c8.79237,2.88539 21.28895,8.81111 24.52075,13.71677c2.89227,4.39031 -1.47543,15.65265 -1.56377,27.91451c-0.08747,12.14228 9.5334,24.25201 9.5334,24.25201c0,0 -23.18459,-3.40032 -41.95405,-20.84252c-7.10793,-6.60528 -9.78777,-18.27389 -11.50146,-23.932c-4.13584,-13.65522 2.56246,-18.13714 3.93149,-19.03903z" data-paper-data="{&quot;index&quot;:null}" fill="#3a2f41" stroke="#3a2f41" stroke-width="2"/><path d="M268.08658,53.80213c0,0 -10.31487,-2.5475 -14.21387,-4.8235c-4.8531,-2.83295 -12.67398,-10.87202 -12.67398,-10.87202c0,0 -10.60359,-0.14384 -16.54663,2.98938c-5.78099,3.04779 -14.66353,9.90947 -28.7051,10.56038c-2.95911,0.13718 -1.08854,23.63189 25.63418,31.72184c-18.97399,8.387 -43.21111,-12.34443 -43.44011,-12.62754c-0.39547,-0.48891 -9.59006,-5.10291 -11.40071,-7.22031c-0.39898,-0.46658 -0.46115,-1.25757 0.05181,-1.29855c1.98958,-0.15895 3.62039,-1.73558 3.62039,-1.73558c0,0 -1.11718,-2.58456 -1.76436,-4.30189c-0.73561,-1.952 -1.27324,-4.18101 -1.23359,-6.38331c0.17104,-9.50212 10.09392,-17.89256 11.54644,-23.82864c1.60975,-6.57861 1.19392,-12.99008 4.81883,-18.60403c8.575,-13.28022 24.73266,-19.14009 27.59525,-20.83157c4.9331,-2.91493 48.00973,11.25533 51.71147,11.25533c10.03317,0 18.16666,9.77512 18.16666,21.83333c0,12.05821 -3.13349,34.16666 -13.16666,34.16666z" fill="#3a2f41" stroke="none" stroke-width="0"/></g><path d="M238.42957,58.41598c0,7.14929 -6.48602,10.19068 -16.52543,10.19068c-10.03942,0 -15.97458,-2.49054 -15.97458,-9.63983c0,-7.14929 5.93516,-16.25 15.97458,-16.25c10.03942,0 16.52543,8.54986 16.52543,15.69915z" data-paper-data="{&quot;index&quot;:null}" fill="#e1e2db" stroke="#3a2f41" stroke-width="1" stroke-linecap="butt"/><path d="M277.92955,57.66598c0,7.14929 -5.83741,10.19068 -14.87288,10.19068c-9.03548,0 -14.37712,-2.49054 -14.37712,-9.63983c0,-7.14929 5.34165,-16.25 14.37712,-16.25c9.03547,0 14.87288,8.54986 14.87288,15.69915z" data-paper-data="{&quot;index&quot;:null}" fill="#e1e2db" stroke="#3a2f41" stroke-width="1" stroke-linecap="butt"/><path d="M259.18419,10.29078c5.82107,-2.89617 9,13 9,13" data-paper-data="{&quot;index&quot;:null}" fill="none" stroke="#8c9ca0" stroke-width="5.5" stroke-linecap="round"/><path d="M218.18419,24.62412c0,0 3.17893,-15.89617 9,-13" data-paper-data="{&quot;index&quot;:null}" fill="none" stroke="#8c9ca0" stroke-width="5.5" stroke-linecap="round"/><path d="M175.24132,-4.03654c26.49311,-29.27559 57.40359,-29.62219 70.23313,-28.62392c8.61459,0.67031 32.47683,13.04876 32.47683,13.04876c0,0 -27.23911,-5.09346 -33.39592,-4.04898c-35.80594,6.07437 -54.73822,39.57178 -55,74.5c-0.06072,8.10207 3.83198,19.84874 8.78343,26.4089c8.53528,11.30838 20.21657,14.0911 20.21657,14.0911c0,0 0.18835,1.04563 -2.70121,0.5969c-8.47819,-1.31662 -28.23587,-5.98694 -36.73925,-12.52125c-25.36551,-19.49175 -27.69252,-57.13095 -3.87358,-83.45151z" fill="#e1e2db" stroke="#3a2f41" stroke-width="2" stroke-linecap="butt"/><path d="M204.80535,49.03954l3,1.2c4.43121,-5.84778 11.21074,-7.93147 16.17657,-7.23337c6.78447,0.95376 10.82343,6.03337 10.82343,6.03337" fill="none" stroke="#e1e2db" stroke-width="1" stroke-linecap="round"/><path d="M210.00535,48.03954l-3,-2.8" fill="none" stroke="#e1e2db" stroke-width="1" stroke-linecap="round"/><path d="M212.47897,46.63443c3.38736,-1.0581 6.07637,2.49146 6.82621,7.19033c0.74984,4.69886 -1.84958,10.99897 -5.23694,12.05706c-3.38736,1.05809 -6.74122,-1.89334 -7.49106,-6.59221c-0.34942,-2.18958 -0.02721,-5.05673 0.9729,-7.38798c1.14615,-2.67165 3.11997,-4.70217 4.92889,-5.26721z" data-paper-data="{&quot;index&quot;:null}" fill="#3a2f41" stroke="#3a2f41" stroke-width="2" stroke-linecap="butt"/><path d="M252.00535,48.23954c0,0 3.50043,-5.07961 9.3803,-6.03337c4.30372,-0.69809 10.17931,1.38559 14.0197,7.23337l2.6,-1.2" data-paper-data="{&quot;index&quot;:null}" fill="none" stroke="#e1e2db" stroke-width="1" stroke-linecap="round"/><path d="M256.12934,46.32042c3.21589,-0.47218 5.30559,3.41839 5.49693,8.10748c0.19135,4.68908 -2.8556,10.38438 -6.0715,10.85655c-3.21589,0.47217 -5.97799,-2.94631 -6.16934,-7.6354c-0.14247,-3.49135 1.48307,-7.80223 3.85459,-9.97161c0.81357,-0.74423 2.06786,-1.23643 2.88931,-1.35703z" data-paper-data="{&quot;index&quot;:null}" fill="#3a2f41" stroke="#3a2f41" stroke-width="2" stroke-linecap="butt"/><path d="M275.40535,44.63954l-1.8,2" fill="none" stroke="#e1e2db" stroke-width="1" stroke-linecap="round"/><path d="M198.05535,71.83954l23.5,2l-9.5,9z" fill="#3a2f41" stroke="none" stroke-width="0" stroke-linecap="butt"/><path d="M250.50535,75.83954c0,0 -8.89451,2.87485 -16.8,-3.2" fill="none" stroke="#3a2f41" stroke-width="1" stroke-linecap="round"/></g><path d="M150.05534,87.33954l9,-8" fill="none" stroke="#3a2f41" stroke-width="2" stroke-linecap="round"/><path d="M168.05535,88.83954l-8.5,8" fill="none" stroke="#3a2f41" stroke-width="2" stroke-linecap="round"/></g><g stroke-linecap="butt"><g><path d="M255.3048,329.81626l-0.00239,-78.37016l26.88791,0.53247l0.00239,78.37016z" fill="#7c7984" stroke="none" stroke-width="0"/><path d="M255.78122,276.31356l-0.00053,-17.2302l26.88792,0.53247l-0.21038,17.44729z" fill="#626171" stroke="none" stroke-width="0"/><path d="M258.53925,329.83312l-2.75619,-0.05458l-0.00239,-78.37016l26.88792,0.53248l0.0024,78.37016l-4.89342,-0.09691" fill="none" stroke="#3a2f41" stroke-width="2.5"/></g><path d="M245.44495,374.39835l2.48643,-66.38506l44.92392,-4.67828l3.1067,37.6599c0,0 17.87124,1.33201 29.60206,13.50034c3.81142,3.95358 10.58685,22.34186 2.25172,28.16316c-7.5505,5.27332 -49.93185,1.97622 -49.93185,1.97622z" fill="#9aac9c" stroke="#3a2f41" stroke-width="2.5"/><path d="M295.96199,340.99491c0,0 17.87124,1.33201 29.60206,13.50034c3.81142,3.95358 10.58685,22.34186 2.25172,28.16316c-7.5505,5.27332 -49.93185,1.97622 -49.93185,1.97622l-18.97897,-5.68662z" fill="#e1e2db" stroke="#3a2f41" stroke-width="2.5"/><path d="M257.33934,355.96304c0,4.25968 -1.70355,7.71284 -3.805,7.71284c-2.10145,0 -3.805,-3.45316 -3.805,-7.71284c0,-4.25968 1.70355,-7.71283 3.805,-7.71283c2.10145,0 3.805,3.45315 3.805,7.71283z" fill="#e1e2db" stroke="#3a2f41" stroke-width="2.5"/><path d="M247.9261,318.30219l-0.27509,-11.22202l45.38158,-3.2806l0.77509,10.72202z" fill="#e1e2db" stroke="#3a2f41" stroke-width="2.5"/></g><g data-paper-data="{&quot;index&quot;:null}" stroke="#8c9ca0" stroke-width="2"><path d="M243.81637,304.84022l2.06326,-110.26229l37.25033,-2.30319l13.34694,106.16819z" data-paper-data="{&quot;index&quot;:null}" fill="#3a2f41" stroke-linecap="butt"/><path d="M287.24243,223.96246l-14.39595,-2.52315l-2.27865,-24.33545" fill="none" stroke-linecap="round"/><path d="M286.4811,219.19756l-10.92927,-1.75158l-1.60637,-17.80324" fill="none" stroke-linecap="round"/></g><g stroke-linecap="butt"><g><path d="M192.79263,329.20952l14.22285,-77.06876l26.53819,4.35525l-14.22285,77.06876z" fill="#7c7984" stroke="none" stroke-width="0"/><path d="M203.59299,269.21274l2.95897,-17.19583l26.5382,4.35527l-3.12699,16.94407z" fill="#626171" stroke="none" stroke-width="0"/><path d="M196.70097,329.80312l-4.37184,-0.71747l14.22285,-77.06875l26.53819,4.35525l-14.22285,77.06875l-2.47347,-0.40593" fill="none" stroke="#3a2f41" stroke-width="2.5"/></g><path d="M202.32216,390.74041c0,0 -37.47928,5.8973 -50.15485,-1.6829c-9.84029,-5.88466 -10.17658,-20.63638 -2.34211,-32.69419c10.17455,-15.65937 29.50427,-16.51625 29.50427,-16.51625l7.49994,-36.63195l44.48623,6.78578l-7.92231,65.59508z" fill="#9aac9c" stroke="#3a2f41" stroke-width="2.5"/><path d="M185.10983,315.07445l1.7764,-11.61494l44.46264,6.56782l-1.5264,12.11494z" fill="#e1e2db" stroke="#3a2f41" stroke-width="2.5"/><path d="M202.32216,390.74042c0,0 -37.47928,5.8973 -50.15485,-1.6829c-9.84029,-5.88466 -10.17658,-20.63638 -2.34211,-32.69419c10.17455,-15.65937 29.50427,-16.51625 29.50427,-16.51625l34.06386,43.49891z" fill="#e1e2db" stroke="#3a2f41" stroke-width="2.5"/><path d="M220.63238,357.67633c-1.01232,4.51324 -3.58041,7.78001 -5.73598,7.29652c-2.15558,-0.4835 -3.08238,-4.53416 -2.07006,-9.04741c1.01232,-4.51324 3.58041,-7.78001 5.73599,-7.29651c2.15558,0.4835 3.08238,4.53416 2.07006,9.0474z" fill="#e1e2db" stroke="#3a2f41" stroke-width="2.5"/></g><g data-paper-data="{&quot;index&quot;:null}" stroke="#8c9ca0" stroke-width="2"><path d="M188.92924,295.14335l19.16016,-101.46857l37.06322,4.34041l-4.00001,106.2889z" data-paper-data="{&quot;index&quot;:null}" fill="#3a2f41" stroke-linecap="butt"/><path d="M220.36572,199.04055l-3.6124,23.30272l-14.51123,1.60919" fill="none" stroke-linecap="round"/><path d="M216.85404,201.29276l-2.58221,17.05117l-11.00777,1.0638" fill="none" stroke-linecap="round"/></g><g data-paper-data="{&quot;index&quot;:null}" stroke-linecap="butt"><path d="M231.18619,212.96794l1.6964,-20.24369l25.20913,2.1125l1.23334,17.41208z" fill="#8c9ca0" stroke="#8c9ca0" stroke-width="2"/><path d="M230.99629,210.64419l1.6964,-20.24367l25.20913,2.11249l1.23334,17.41208z" fill="#3a2f41" stroke="#3a2f41" stroke-width="3.5"/></g><g><g><g data-paper-data="{&quot;index&quot;:null}"><path d="M209.48941,136.47628c-2.72956,-8.56391 -4.6039,-18.27471 -1.35749,-27.01221c1.33718,-3.59894 21.01846,-11.41735 29.81159,-11.75063c9.64724,-0.36564 19.82745,-0.16443 27.83599,6.57908c10.32565,8.6946 8.15687,17.91904 7.02866,29.37491c-2.07298,0.06566 -4.1259,0.13422 -6.14837,0.20714c-16.82176,0.60645 -34.97816,1.01517 -51.83837,2.22114c-1.46455,0.10475 -3.38112,0.16948 -5.33203,0.38054z" fill="#8c9ca0" stroke="#3a2f41" stroke-width="2" stroke-linecap="butt"/><g><path d="M251.40238,111.09412l-10.11417,-7.48794c0,0 6.64433,-6.15709 9.53805,-8.25673c0.63364,-0.45976 0.91157,-0.119 1.08914,-0.06606c0.44302,0.30879 3.30448,4.34491 2.85571,4.64093z" data-paper-data="{&quot;index&quot;:null}" fill="#8c9ca0" stroke="#3a2f41" stroke-width="4.5" stroke-linecap="round"/><path d="M233.29921,111.93446c0,0 -9.78706,-8.11756 -10.75305,-10.65433c0.00988,-1.26968 1.78946,-6.80586 2.77371,-5.28512c0.96963,0.4037 16.46002,-3.34035 20.47952,-1.39379c3.37829,1.63604 -4.53732,9.04397 -4.53732,9.04397z" fill="#3a2f41" stroke="#3a2f41" stroke-width="4.5" stroke-linecap="round"/><path d="M224.48781,100.78843c-0.0159,-1.2233 0.09202,-4.22816 0.61312,-4.49364c0.94826,-0.88515 10.32048,-5.3265 12.6457,-5.76265c1.47104,-0.27592 12.34013,4.20722 12.93277,4.72667c1.00477,0.40452 2.18053,3.89669 2.1988,4.33487" fill="none" stroke="#3a2f41" stroke-width="6.5" stroke-linecap="butt"/><g><path d="M251.40238,111.09412l-10.11417,-7.48794c0,0 6.64434,-6.15709 9.53805,-8.25673c0.63366,-0.45976 0.91157,-0.119 1.08914,-0.06606c0.44302,0.30879 3.30448,4.34491 2.85571,4.64093z" data-paper-data="{&quot;index&quot;:null}" fill="#8c9ca0" stroke="#12161a" stroke-width="0" stroke-linecap="round"/><path d="M233.29922,111.93444c0,0 -9.78706,-8.11758 -10.75306,-10.65433c0.00988,-1.26967 1.78947,-6.80586 2.77372,-5.28513c1.78456,0.74301 15.94219,7.65018 15.94219,7.65018z" fill="#8c9ca0" stroke="#12161a" stroke-width="0" stroke-linecap="round"/><path d="M224.48781,100.78834c-0.0159,-1.2233 0.09202,-4.22816 0.61312,-4.49364c0.94826,-0.88515 10.32048,-5.3265 12.6457,-5.76265c1.47104,-0.27592 12.34013,4.20722 12.93277,4.72667c1.00477,0.40452 2.18053,3.89669 2.1988,4.33487" fill="none" stroke="#8c9ca0" stroke-width="2" stroke-linecap="butt"/></g></g></g><path d="M205.67227,201.3877l1.68186,-111.88706l10.82115,2.22404l31.20774,41.72443c0,0 14.69869,-33.34186 18.71634,-39.70005c1.45072,-2.29586 6.96183,-0.93729 6.96183,-0.93729l3.95361,68.77491l10.65901,15.13315l-5.93754,14.84663l1.59113,7.28788z" fill="#e1e2db" stroke="none" stroke-width="0" stroke-linecap="butt"/><path d="M283.7317,192.44384l-77.59207,2.90482" fill="none" stroke="#3a2f41" stroke-width="2" stroke-linecap="round"/><path d="M275.06118,90.56176l2.72229,49.60551c-8.02776,-3.7438 -16.90148,-8.08959 -25.93619,-12.44041c4.47326,-10.33094 16.50207,-34.47782 16.50207,-34.47782z" fill="#8c9ca0" stroke="none" stroke-width="0" stroke-linecap="butt"/><path d="M207.35413,90.25063l10.82115,1.47404l23.18683,31.00055c-8.10458,-3.81731 -16.12655,-7.45429 -23.57509,-10.48319c-2.21316,-0.89997 -6.22808,-2.8854 -10.70717,-4.49408z" fill="#8c9ca0" stroke="none" stroke-width="0" stroke-linecap="butt"/><path d="M205.67227,201.38769l1.43186,-110.88706l11.07115,1.22404l31.20774,41.72443l18.96634,-40.70005l6.71183,-1.18729l3.95361,70.02491l10.65901,15.13315l-5.93754,14.84663l1.59113,7.28788z" fill="none" stroke="#3a2f41" stroke-width="2" stroke-linecap="butt"/></g><path d="M249.05535,132.83933l10.73618,43.95605l-6.73618,23.04395" fill="none" stroke="#3a2f41" stroke-width="2" stroke-linecap="round"/></g><path d="M164.34205,138.12402c12.92064,-19.27181 22.98588,-40.26937 22.98588,-40.26937l21.29185,-7.09541l6.35106,23.17923l-16.19232,37.73184c0,0 21.6014,3.64602 20.2719,7.74712c-0.24367,0.41728 -13.92058,56.01406 -13.92058,56.01406l-18.95719,5.23519l-40.67465,-52.89342z" fill="#e1e2db" stroke="#3a2f41" stroke-width="2" stroke-linecap="butt"/><g stroke="#3a2f41" stroke-width="2"><path d="M213.72142,213.85033c-0.30594,0.99175 -12.55746,0.38187 -16.54073,-1.49572c-3.6895,-1.73911 -0.38134,-34.05768 -0.38134,-34.05768c0,0 13.19125,-20.17281 17.74839,-20.21019c4.75446,-0.039 16.42299,14.22219 16.42299,14.22219c0,0 -12.63261,26.57558 -17.2493,41.54139z" fill="#7c7984" stroke-linecap="butt"/><path d="M225.14127,181.74076l-21.99829,-11.42847" fill="none" stroke-linecap="round"/></g></g></g></svg>