<svg version="1.1" xmlns="http://www.w3.org/2000/svg" xmlns:xlink="http://www.w3.org/1999/xlink" width="224.67994" height="471.49661" viewBox="0,0,224.67994,471.49661"><g transform="translate(-127.66003,55.50331)"><g data-paper-data="{&quot;isPaintingLayer&quot;:true}" fill-rule="nonzero" stroke-linejoin="miter" stroke-miterlimit="10" stroke-dasharray="" stroke-dashoffset="0" style="mix-blend-mode: normal"><path d="M280.8712,138.71922l-22,-12l-19.5,15.5l-19,-14.5l-22.5,12.5l6.5,-63l83,-5.5z" fill="#3a2f41" stroke="#3a2f41" stroke-width="2.5" stroke-linecap="round"/><g stroke-linecap="butt"><path d="M239.46375,-33.95705l-0.07529,0.10914l0.05354,0.01105l-0.50101,2.42768c-0.01772,0.09152 -0.04074,0.18298 -0.06923,0.27405c-0.37716,1.20566 -1.58324,1.92271 -2.79497,1.72023c-0.04973,0.34368 -0.10642,0.68402 -0.17099,1.02049c0,0 -0.50529,2.44841 -2.95369,1.94312c-2.4484,-0.50529 -1.94312,-2.95369 -1.94312,-2.95369c1.40393,-6.17501 -0.80895,-12.90786 1.52969,-19.16622c0.48699,-1.30323 0.54063,-2.99395 1.64973,-3.83389c1.79253,-1.35752 4.30012,-0.8175 6.34503,-0.37452c0.23332,-0.0584 0.49466,-0.08075 0.78644,-0.05195c0.48183,-0.00474 1.02987,0.12393 1.51183,0.56946c0.52423,0.39492 0.74845,0.9113 0.82958,1.38627c0.19864,0.69755 0.05606,1.26749 -0.19601,1.7055c-1.58745,5.02102 -3.44333,9.95663 -4.00152,15.21329z" fill="#e1e2db" stroke="none" stroke-width="0.5"/><path d="M240.61852,-10.64074c0,0 -4.3678,-5.56931 -5.45031,-7.89771c-1.5586,-3.35246 -4.51149,-10.49892 -4.51149,-10.49892l9.09858,-3.96431c0,0 -0.501,8.83092 0.51646,12.84894c0.92717,3.66146 5.34264,10.28903 5.34264,10.28903z" fill="#8c9ca0" stroke="none" stroke-width="0"/><path d="M240.70337,-11.74931c-19.198,-18.70403 -6.40014,-42.34207 -6.40014,-42.34207l9.84246,2.03124c0,0 -11.93743,25.93212 1.38959,40.77461c2.4979,2.78194 -3.81243,1.85904 -4.83191,-0.46379z" fill="none" stroke="#3a2f41" stroke-width="2.5"/></g><g><path d="M240.49225,-13.08877l7.32119,-22.85607l37.29742,-1.70363l-19.08406,24.33847z" fill="#e1e2db" stroke="none" stroke-width="0" stroke-linecap="round"/><path d="M239.38725,-12.91769l7.7211,-22.46547l15.25598,6.46182l-1.87126,15.67636z" fill="#8c9ca0" stroke="none" stroke-width="0" stroke-linecap="butt"/><path d="M241.86784,-13.69577c0,0 8.09883,-7.46232 18.12795,-11.51912" fill="none" stroke="#536b6b" stroke-width="1" stroke-linecap="round"/><path d="M240.41598,-12.85068l7.32119,-22.85607l37.29742,-1.70363l-17.9792,24.16735z" fill="none" stroke="#3a2f41" stroke-width="2.5" stroke-linecap="round"/></g><g stroke-width="2.5"><path d="M271.99897,7.46922c0,12.84062 -55.74161,7.07283 -55.75,28.75c-0.00979,25.29774 -2.90908,50.62161 -6.66063,70.32431c-4.62716,24.30133 -10.2902,40.31196 -10.2902,40.31196l-13.49122,-21.40993l-23.91332,7.17823c0,0 8.98187,-23.89412 12.42475,-45.33501c2.90045,-18.0629 4.5635,-31.73955 2.68817,-31.87455c-13.82658,-0.99534 -39.18301,-10.06132 -39.18301,-10.06132l33.70045,-22.48823l-16.525,-10.39546c0,0 13.0362,-1.25985 31.65621,-9.39235c20.49862,-8.953 34.7347,-18.85765 46.09379,-18.85765c21.67718,0 39.25,10.40938 39.25,23.25z" fill="#3a2f41" stroke="#3a2f41" stroke-linecap="butt"/><path d="M212.99898,83.21692c-3.77181,29.24734 -10,52.5 -10,52.5" fill="none" stroke="#8c9ca0" stroke-linecap="round"/></g><g data-paper-data="{&quot;index&quot;:null}" stroke-linecap="butt"><path d="M194.70539,60.29141c-1.04449,-17.77891 10.89596,-39.43233 34.73681,-41.33858c36.24297,-2.89787 50.73054,18.99003 51.77502,36.76893c1.0445,17.7789 -9.90604,33.63211 -41.35275,34.67997c-15.70586,0.52337 -28.86885,-2.34809 -36.05139,-7.64315c-7.38868,-5.44705 -8.57809,-13.45196 -9.10771,-22.46719z" fill="#e1e2db" stroke="none" stroke-width="0"/><path d="M194.70539,60.43089c-1.04449,-17.77891 10.89596,-39.43233 34.73681,-41.33858c36.24297,-2.89787 50.73054,18.99003 51.77502,36.76893c1.0445,17.7789 -29.2781,8.44765 -48.87286,9.34118c-19.59868,0.89372 -36.59449,13.00737 -37.63899,-4.77153z" fill="#b8c1c0" stroke="none" stroke-width="0"/><path d="M244.44156,19.78097c25.34077,3.34126 35.91278,21.3926 36.79935,36.48348c1.0445,17.7789 -9.90606,33.63209 -41.35276,34.67996c-16.74882,0.55812 -29.16931,-2.46807 -36.3012,-8.43571c-6.43567,-5.38505 -8.36245,-13.24136 -8.85788,-21.67462h-0.00001c-0.94119,-16.02081 6.13992,-44.22294 49.57672,-41.08591" fill="none" stroke="#3a2f41" stroke-width="2"/></g><path d="M215.42597,-2.91919c3.86088,-1.70141 10.74381,-2.56895 17.14035,0.79819c8.18848,4.31044 19.52265,12.23604 21.89163,17.61173c2.12009,4.81095 -4.06359,15.1878 -6.19435,27.26344c-2.10999,11.95787 0.85802,21.00171 0.85802,21.00171c0,0 -17.79359,-2.71689 -33.39347,-23.0434c-5.90762,-7.69756 -6.6052,-19.64961 -7.3519,-25.51419c-1.80209,-14.15354 5.5495,-17.45637 7.0497,-18.11748z" data-paper-data="{&quot;index&quot;:null}" fill="#3a2f41" stroke="#3a2f41" stroke-width="2.5" stroke-linecap="butt"/><path d="M224.10137,11.48287c6.11813,6.18321 0.73463,21.43005 -12.02439,34.05476c-12.75901,12.62471 -28.06196,17.84657 -34.18009,11.66336c-6.11813,-6.18321 -0.73463,-21.43005 12.02439,-34.05476c12.75901,-12.62471 28.06196,-17.84657 34.18009,-11.66336z" fill="#3a2f41" stroke="#3a2f41" stroke-width="2.5" stroke-linecap="butt"/><path d="M248.57352,-12.78078c11.3591,0 25.59518,9.90465 46.09379,18.85765c18.62001,8.1325 31.65621,9.39235 31.65621,9.39235l-16.52499,10.39546l21.70045,26.48823c0,0 -9.35643,2.56599 -23.18301,3.56132c15.7251,11.84764 13.14626,21.31062 13.14626,21.31062l-16.63427,-8.09827c0,0 -39.7495,-17.15422 -39.75444,-29.90736c-0.00839,-21.67717 -55.75,-15.90938 -55.75,-28.75c0,-12.84062 17.57283,-23.25 39.25,-23.25z" data-paper-data="{&quot;index&quot;:null}" fill="#3a2f41" stroke="#3a2f41" stroke-width="2.5" stroke-linecap="butt"/><path d="M304.77835,49.08515c9.85006,35.15202 7.9068,97.24188 7.9068,97.24188l-20.5902,-12.58149l-17.98348,11.82558c0,0 3.16104,-47.37169 1.96797,-89.18031" fill="#3a2f41" stroke="#3a2f41" stroke-width="2.5" stroke-linecap="round"/><path d="M275.54233,79.72783c0.29056,15.41866 0.4166,37.06186 -0.54322,54.99139" fill="none" stroke="#8c9ca0" stroke-width="2.5" stroke-linecap="round"/><path d="M295.66924,54.45284c-4.082,7.76736 -22.39434,6.17938 -40.90176,-3.54686c-18.50742,-9.72624 -30.20154,-23.90761 -26.11954,-31.67497c4.082,-7.76736 22.39434,-6.17938 40.90176,3.54686c18.50742,9.72624 30.20154,23.90761 26.11954,31.67497z" fill="#3a2f41" stroke="#3a2f41" stroke-width="2.5" stroke-linecap="butt"/><g data-paper-data="{&quot;index&quot;:null}" fill="#e1e2db"><path d="M240.91191,72.64528c0,0 -0.67725,-17.04406 0,-16.66544c11.37631,6.36009 35.18506,8.72951 35.18506,8.72951l-1.135,8.46499z" stroke="#3a2f41" stroke-width="1.5" stroke-linecap="butt"/><path d="M273.51925,72.20937l0.16214,10.43007c0,0 3.54406,0.31756 3.24286,3.62785c-0.13842,1.52124 -1.95293,3.34765 -6.00851,3.31101c-4.16222,-0.03761 -5.70133,-1.97481 -5.82794,-3.15985c-0.31765,-2.97329 3.08072,-3.93017 3.08072,-3.93017v-10.58123" stroke="#3a2f41" stroke-width="1.5" stroke-linecap="round"/><path d="M263.79066,72.20937v-2.72089h10.70145l-0.16214,2.86559z" stroke="none" stroke-width="0" stroke-linecap="butt"/></g><g data-paper-data="{&quot;index&quot;:null}" fill="#e1e2db"><path d="M196.84211,72.88356l-1.05355,-8.35703c0,0 22.10024,-2.33921 32.66019,-8.61819c0.62864,-0.3738 0,17.16719 0,17.16719z" stroke="#3a2f41" stroke-width="1.5" stroke-linecap="butt"/><path d="M203.14806,71.63241v10.44629c0,0 3.1545,0.94468 2.85965,3.88005c-0.11752,1.16993 -1.5462,3.08241 -5.40974,3.11955c-3.76454,0.03618 -5.44885,-1.76694 -5.57734,-3.26878c-0.27959,-3.26807 3.01016,-3.58159 3.01016,-3.58159l0.15051,-10.29705" stroke="#3a2f41" stroke-width="1.5" stroke-linecap="round"/><path d="M197.42875,72.07374l-0.15051,-2.82904h9.93352v2.9719z" stroke="none" stroke-width="0" stroke-linecap="butt"/></g><path d="M225.87693,68.6992l0.14285,-7" fill="none" stroke="#3a2f41" stroke-width="6.5" stroke-linecap="round"/><path d="M243.38421,61.94847l-0.01458,7.00144" fill="none" stroke="#3a2f41" stroke-width="6.5" stroke-linecap="round"/><path d="M226.30549,86.91348c0,0 1.51515,-0.72487 3.56446,-0.7078c1.15399,0.00962 2.02175,0.12532 4.24702,0.26847c3.87749,0.24943 7.13358,-2.904 9.58138,0.58219" fill="none" stroke="#3a2f41" stroke-width="1.5" stroke-linecap="round"/><g data-paper-data="{&quot;index&quot;:null}"><g stroke-linecap="butt"><g data-paper-data="{&quot;index&quot;:null}" stroke="none"><g fill="#e1e2db" stroke-width="0"><path d="M195.69016,137.64753l17.35179,11.5169l-23.73549,78.21921l21.53504,24.19718l-17.49912,-1.71323l-43.14822,36.71873l4.50351,-25.80043l-24.31835,-4.77419l20.25946,-12.33832l-17.35812,-10.25081l30.23676,-8.76503z"/></g><g fill="none" stroke-width="1" font-family="sans-serif" font-weight="normal" font-size="12" text-anchor="start"/></g><g data-paper-data="{&quot;index&quot;:null}" stroke="none"><g fill="#8c9ca0" stroke-width="0"><path d="M203.461,180.738c-2.29301,0.91441 -18.33377,-0.61924 -20.30183,-9.20086l12.53099,-33.8896l17.35179,11.5169z"/></g><g fill="none" stroke-width="1" font-family="sans-serif" font-weight="normal" font-size="12" text-anchor="start"/></g><g data-paper-data="{&quot;index&quot;:null}" fill="none"><g stroke="#3a2f41" stroke-width="2"><path d="M195.69016,137.64753l17.35179,11.5169l-23.73549,78.21921l21.53504,24.19718l-17.49912,-1.71323l-43.14822,36.71873l4.50351,-25.80043l-24.31835,-4.77419l20.25946,-12.33832l-17.35812,-10.25081l30.23676,-8.76503z"/></g><g stroke="none" stroke-width="1" font-family="sans-serif" font-weight="normal" font-size="12" text-anchor="start"/></g></g><g data-paper-data="{&quot;index&quot;:null}" stroke="#3a2f41" stroke-width="2.5"><path d="M197.49307,164.12642c-8.50123,-2.36774 -16.33895,-7.99539 -16.52263,-9.74439c0,0 11.74341,-25.56989 19.71236,-38.93352c2.62309,-4.04699 10.15385,-5.68308 14.88842,-3.00918c5.36424,3.02949 7.7995,10.84325 7.52925,13.2535c-3.09203,24.33654 -6.14679,30.81739 -8.70246,37.48163c-0.48094,2.24506 -9.04229,3.14185 -16.90494,0.95196z" fill="#8c9ca0" stroke-linecap="butt"/><path d="M215.78635,156.183c0,0 -4.19079,0.21966 -8.5969,0.13884c-2.92394,-0.05363 -5.9427,-0.23959 -7.8945,-0.70986c-5.55577,-1.33863 -15.10817,-7.0427 -15.10817,-7.0427" fill="none" stroke-linecap="round"/></g></g><g data-paper-data="{&quot;index&quot;:null}"><g stroke-linecap="butt"><path d="M189.53146,360.11161l11.97429,-97.42674l25.53644,2.28735l-1.40867,92.49196z" fill="#e1e2db" stroke="none" stroke-width="0"/><path d="M199.8271,281.14599l1.18436,-18.5444l27.30446,2.24235l-0.69051,17.91547z" fill="#8c9ca0" stroke="none" stroke-width="0"/><path d="M190.34172,358.76538l10.66976,-96.16377l27.01468,2.0327l-2.22046,93.67005z" fill="none" stroke="#3a2f41" stroke-width="2.5"/></g><path d="M178.97456,414.09139l12.92874,-68.57549l34.49106,-1.52903l-0.66321,53.58322z" fill="#3a2f41" stroke="#3a2f41" stroke-width="2.5" stroke-linecap="butt"/><path d="M225.04823,336.17246l-31.73755,1.31427" fill="none" stroke="#3a2f41" stroke-width="2.5" stroke-linecap="round"/></g><g data-paper-data="{&quot;index&quot;:null}" stroke="#3a2f41" stroke-width="2"><g data-paper-data="{&quot;index&quot;:null}"><path d="M234.23583,263.84823c0,0 -7.82602,3.81782 -20.91152,3.30158c-11.94798,-0.47137 -17.48788,-6.38467 -17.48788,-6.38467l9.99411,-67.81605l31.70054,1.88762l-3.29524,69.01152z" data-paper-data="{&quot;index&quot;:null}" fill="#e1e2db" stroke-linecap="butt"/><path d="M215.0589,196.92459l-3.49945,23.11103l-8.70211,2.19741" fill="none" stroke-linecap="round"/><path d="M211.03939,196.36072l-2.59375,20.05326l-5.0197,1.41468" fill="none" stroke-linecap="round"/></g><path d="M234.1707,253.72188c0,0 -8.23602,6.98935 -19.88804,4.62824c-13.69904,-2.77592 -16.96346,-8.92327 -16.96346,-8.92327" data-paper-data="{&quot;index&quot;:null}" fill="none" stroke-linecap="round"/></g><g data-paper-data="{&quot;index&quot;:null}"><g stroke-linecap="butt"><path d="M243.15697,356.46418l-1.40867,-92.49196l25.53643,-2.28735l11.97429,97.42674z" fill="#e1e2db" stroke="none" stroke-width="0"/><path d="M241.16507,281.75937l-0.69051,-17.91547l27.30446,-2.24235l1.18436,18.5444z" fill="#8c9ca0" stroke="none" stroke-width="0"/><path d="M242.98479,357.30436l-2.22046,-93.67005l27.01468,-2.0327l10.66976,96.16377z" fill="none" stroke="#3a2f41" stroke-width="2.5"/></g><path d="M243.05933,396.5701l-0.66321,-53.58322l34.49106,1.52903l12.92874,68.57549z" fill="#3a2f41" stroke="#3a2f41" stroke-width="2.5" stroke-linecap="butt"/><path d="M243.74225,335.17246l31.73755,1.31427" fill="none" stroke="#3a2f41" stroke-width="2.5" stroke-linecap="round"/></g><g stroke="#3a2f41" stroke-width="2"><g data-paper-data="{&quot;index&quot;:null}"><path d="M255.80642,273.54366c-13.19585,1.40543 -19.90069,-7.30605 -19.90069,-7.30605l-3.23299,-65.74648l31.94492,-4.77713l12.30112,66.46272c0,0 -5.21789,9.6741 -21.11236,11.36695z" data-paper-data="{&quot;index&quot;:null}" fill="#e1e2db" stroke-linecap="butt"/><path d="M269.00347,224.56988l-12.43741,-1.29363l-2.61235,-22.22344" fill="none" stroke-linecap="round"/><path d="M268.69972,220.53488l-8.19172,-0.73409l-2.82681,-19.92991" fill="none" stroke-linecap="round"/></g><path d="M274.73976,251.75211c0,0 -3.02017,6.34412 -17.25221,9.99325c-12.10537,3.10385 -21.24779,-3.34269 -21.24779,-3.34269" data-paper-data="{&quot;index&quot;:null}" fill="none" stroke-linecap="round"/></g><g data-paper-data="{&quot;index&quot;:null}" stroke-linecap="butt"><path d="M224.41396,219.89508l1.8476,-19.58817h17.42024v23.07052z" fill="#8c9ca0" stroke="#3a2f41" stroke-width="2"/><path d="M224.67789,217.28333l1.8476,-19.58818h17.42024v23.07052z" fill="#e1e2db" stroke="#e1e2db" stroke-width="3.5"/></g><path d="M233.36478,221.5225l-1.4,-8.7992l-0.9,-14.36869" data-paper-data="{&quot;index&quot;:null}" fill="none" stroke="#3a2f41" stroke-width="2" stroke-linecap="round"/><path d="M231.96478,212.7233l-4.6,-2.66023l-1.4,-13.09649" data-paper-data="{&quot;index&quot;:null}" fill="none" stroke="#3a2f41" stroke-width="2" stroke-linecap="round"/><g><g><g fill="none" stroke="none" stroke-width="1" stroke-linecap="butt" font-family="sans-serif" font-weight="normal" font-size="12" text-anchor="start"><g><g><g/></g></g><g><g><g/></g></g></g><g fill="none" stroke="none" stroke-width="1" stroke-linecap="butt" font-family="sans-serif" font-weight="normal" font-size="12" text-anchor="start"><g><g><g/></g></g><g><g><g/></g></g></g><path d="M208.22291,112.52144c0,0 22.11322,-8.93357 31.89132,-8.98098c8.91239,-0.0432 29.15918,8.98008 30.66428,13.54902c-2.4742,22.13935 -6.39438,42.9591 -6.25808,59.95354c0.09017,11.24298 2.49683,18.39436 2.49683,18.39436c0,0 -26.40245,10.86306 -44.03152,10.02665c-9.14957,-0.43409 -19.24764,-11.53067 -19.24764,-11.53067c-0.09789,-0.13045 3.25617,-11.54897 4.15642,-24.97721c1.51228,-22.55751 0.62522,-55.33423 0.62522,-55.33423" fill="#3a2f41" stroke="#3a2f41" stroke-width="2" stroke-linecap="round"/><g fill="none" stroke="none" stroke-width="1" stroke-linecap="butt" font-family="sans-serif" font-weight="normal" font-size="12" text-anchor="start"><g/></g></g><path d="M231.08238,155.05255c-16.03627,-15.26878 -20,-43.66667 -20,-43.66667l24.66666,-10.33333c0,0 13.88655,3.89171 18.62596,5.864c4.11718,1.71336 11.54072,5.46932 11.54072,5.46932c0,0 -5.64388,15.09605 -13.38032,24.42081c-11.35284,13.68363 -21.24142,18.40031 -21.45302,18.24586z" fill="#e1e2db" stroke="none" stroke-width="0" stroke-linecap="butt"/><path d="M211.08239,111.38589l24.66666,-10.33333c0,0 13.88655,3.89171 18.62596,5.864c4.11718,1.71336 11.54072,5.46932 11.54072,5.46932c0,0 -1.57632,4.21627 -4.20476,9.56871c-8.00833,3.12867 -16.16185,6.48238 -25.54317,10.38254c-6.0666,2.52211 -11.10444,4.61222 -16.26788,6.97369c-6.83469,-13.71901 -8.81753,-27.92494 -8.81753,-27.92494z" fill="#8c9ca0" stroke="none" stroke-width="0" stroke-linecap="butt"/><path d="M231.49898,151.38589c0,0 -6.52371,-7.29797 -8,-11.83333c-0.25111,-0.77146 2.27892,-5.21759 4.25573,-8.51328c1.22906,-2.04905 2.24427,-3.65339 2.24427,-3.65339l8.90649,-0.06206c0,0 6.83906,12.61382 6.59351,12.8954c-5.39218,6.08539 -14,11.16667 -14,11.16667z" fill="#3a2f41" stroke="#3a2f41" stroke-width="2" stroke-linecap="butt"/><path d="M231.08238,155.05255c-16.03627,-15.26878 -20,-43.66667 -20,-43.66667l24.66666,-10.33333c0,0 13.88655,3.89171 18.62596,5.864c4.11718,1.71336 11.54072,5.46932 11.54072,5.46932c0,0 -5.64388,15.09605 -13.38032,24.42081c-11.35284,13.68363 -21.24142,18.40031 -21.45302,18.24586z" fill="none" stroke="#3a2f41" stroke-width="2" stroke-linecap="butt"/><path d="M230.33231,124.05255v-9.66667h8.16667v9.66667z" fill="#3a2f41" stroke="#3a2f41" stroke-width="2" stroke-linecap="butt"/><g><path d="M220.40327,107.63967c-0.46664,-0.31431 2.2587,-5.02433 2.694,-5.39524c0.17745,-0.0684 0.44432,-0.46778 1.10496,0.02339c3.01697,2.24302 10.00069,8.90762 10.00069,8.90762l-8.08578,8.46534z" data-paper-data="{&quot;index&quot;:null}" fill="#8c9ca0" stroke="#3a2f41" stroke-width="4.5" stroke-linecap="round"/><path d="M234.23099,111.21831c0,0 -8.32301,-8.02224 -4.97335,-10.03631c3.98542,-2.39634 19.81919,1.11497 20.78337,0.61156c0.93182,-1.77021 2.9664,4.42062 3.02998,5.85925c-0.87047,2.92094 -10.43199,12.58446 -10.43199,12.58446z" fill="#3a2f41" stroke="#3a2f41" stroke-width="4.5" stroke-linecap="round"/><path d="M222.30486,107.17537c0,-0.49751 1.04241,-4.51128 2.04214,-5.01727c0.57782,-0.61679 11.38769,-6.21204 12.88798,-5.96884c2.37145,0.38442 12.04326,4.97536 13.04024,5.93378c0.53854,0.27628 0.77459,3.67702 0.81013,5.06431" fill="none" stroke="#3a2f41" stroke-width="6.5" stroke-linecap="butt"/><g><path d="M220.2366,107.63967c-0.46664,-0.31431 2.2587,-5.02433 2.694,-5.39524c0.17745,-0.0684 0.44432,-0.46778 1.10496,0.02339c3.01696,2.24302 10.00069,8.90762 10.00069,8.90762l-7.91911,8.29868z" data-paper-data="{&quot;index&quot;:null}" fill="#8c9ca0" stroke="#12161a" stroke-width="0" stroke-linecap="round"/><path d="M234.23099,111.21831c0,0 14.03546,-8.49823 15.81001,-9.42475c0.93182,-1.7702 2.9664,4.42063 3.02998,5.85926c-0.87048,2.92094 -10.432,12.58446 -10.432,12.58446z" fill="#8c9ca0" stroke="#12161a" stroke-width="0" stroke-linecap="round"/><path d="M222.30486,107.17533c0,-0.49751 1.04241,-4.51128 2.04214,-5.01727c0.57782,-0.61679 11.38769,-6.21204 12.88798,-5.96884c2.37145,0.38443 12.04326,4.97536 13.04024,5.93378c0.53854,0.27628 0.77459,3.67702 0.81013,5.06431" fill="none" stroke="#8c9ca0" stroke-width="2" stroke-linecap="butt"/></g></g></g><g><g stroke-linecap="butt"><g data-paper-data="{&quot;index&quot;:null}" stroke="none"><g fill="#e1e2db" stroke-width="0"><path d="M316.48258,226.65754l30.23676,8.76503l-17.35812,10.25081l20.25946,12.33832l-24.31835,4.77419l4.50351,25.80043l-43.14822,-36.71873l-17.49912,1.71323l21.53504,-24.19718l-23.73549,-78.21921l17.35179,-11.5169z"/></g><g fill="none" stroke-width="1" font-family="sans-serif" font-weight="normal" font-size="12" text-anchor="start"/></g><g data-paper-data="{&quot;index&quot;:null}" stroke="none"><g fill="#8c9ca0" stroke-width="0"><path d="M266.95806,151.16444l17.35179,-11.5169l12.53099,33.8896c-1.96806,8.58162 -18.00882,10.11527 -20.30183,9.20086z"/></g><g fill="none" stroke-width="1" font-family="sans-serif" font-weight="normal" font-size="12" text-anchor="start"/></g><g data-paper-data="{&quot;index&quot;:null}" fill="none"><g stroke="#3a2f41" stroke-width="2"><path d="M316.48258,226.65754l30.23676,8.76503l-17.35812,10.25081l20.25946,12.33832l-24.31835,4.77419l4.50351,25.80043l-43.14822,-36.71873l-17.49912,1.71323l21.53504,-24.19718l-23.73549,-78.21921l17.35179,-11.5169z"/></g><g stroke="none" stroke-width="1" font-family="sans-serif" font-weight="normal" font-size="12" text-anchor="start"/></g></g><g data-paper-data="{&quot;index&quot;:null}" stroke="#3a2f41" stroke-width="2.5"><path d="M265.602,165.17446c-2.55567,-6.66424 -5.61043,-13.14509 -8.70246,-37.48163c-0.27025,-2.41025 2.16501,-10.22401 7.52925,-13.2535c4.73457,-2.6739 12.26533,-1.03781 14.88842,3.00918c7.96895,13.36363 19.71236,38.93352 19.71236,38.93352c-0.18368,1.749 -8.0214,7.37665 -16.52263,9.74439c-7.86265,2.18989 -16.424,1.2931 -16.90494,-0.95196z" fill="#e1e2db" stroke-linecap="butt"/><path d="M295.81323,150.56928c0,0 -9.5524,5.70407 -15.10817,7.0427c-1.9518,0.47027 -4.97056,0.65623 -7.8945,0.70986c-4.40611,0.08082 -8.5969,-0.13884 -8.5969,-0.13884" fill="none" stroke-linecap="round"/></g></g><path d="M225.49898,296.71921h-27.5" fill="none" stroke="#3a2f41" stroke-width="2.5" stroke-linecap="round"/><path d="M241.49898,295.71921l28.5,-0.5" fill="none" stroke="#3a2f41" stroke-width="2.5" stroke-linecap="round"/></g></g></svg>