<svg version="1.1" xmlns="http://www.w3.org/2000/svg" xmlns:xlink="http://www.w3.org/1999/xlink" width="64.5" height="64.5" viewBox="0,0,64.5,64.5"><defs><linearGradient x1="212" y1="151" x2="212" y2="215.5" gradientUnits="userSpaceOnUse" id="color-1"><stop offset="0" stop-color="#ffffff"/><stop offset="1" stop-color="#e5e5e5"/></linearGradient></defs><g transform="translate(-212,-151)"><g data-paper-data="{&quot;isPaintingLayer&quot;:true}" fill-rule="nonzero" stroke-linejoin="miter" stroke-miterlimit="10" stroke-dasharray="" stroke-dashoffset="0" style="mix-blend-mode: normal"><path d="M244.25,151c8.898,0 16.96,3.614 22.798,9.452c5.838,5.838 9.452,13.9 9.452,22.798c0,8.898 -3.614,16.96 -9.452,22.798c-5.838,5.838 -13.9,9.452 -22.798,9.452c-8.898,0 -16.96,-3.614 -22.798,-9.452c-5.838,-5.838 -9.452,-13.9 -9.452,-22.798c0,-8.898 3.614,-16.96 9.452,-22.798c5.838,-5.838 13.9,-9.452 22.798,-9.452z" fill="url(#color-1)" stroke="none" stroke-width="1" stroke-linecap="butt"/><g data-paper-data="{&quot;index&quot;:null}" stroke="#3a2f41"><g><path d="M240.07907,198.89754l-9.44699,-8.58793l31.79557,-31.00602l-0.49963,18.01406z" fill="#e1e2db" stroke-width="0" stroke-linecap="butt"/><path d="M240.07907,198.89754l-9.44699,-8.58793l13.34141,-13.17708l2.48625,15.46293z" fill="#8c9ca0" stroke-width="0" stroke-linecap="butt"/><path d="M246.2364,192.39237l-4.93788,-12.55721" fill="none" stroke-width="1" stroke-linecap="round"/><path d="M252.23037,186.47224l-4.13349,-13.10956" fill="none" stroke-width="1" stroke-linecap="round"/><path d="M254.60895,166.44652l3.64637,14.3171" fill="none" stroke-width="1" stroke-linecap="round"/><path d="M233.3335,192.76535l-2.7014,-2.45574l31.51664,-31.12849l-0.2207,18.13655l-21.84895,21.57987l-1.23141,-1.11942" fill="none" stroke-width="1.5" stroke-linecap="butt"/></g><path d="M232.39204,209.87991l-13.02152,-11.83742l15.08156,-14.89584l13.02152,11.83741z" fill="#e1e2db" stroke-width="0" stroke-linecap="butt"/><path d="M232.39204,209.87992l-13.02153,-11.83742l8.70092,-8.59375l7.02757,17.75756z" fill="#8c9ca0" stroke-width="0" stroke-linecap="butt"/><path d="M231.80086,205.14402l-7.65972,-6.96319l9.76436,-9.64409l7.65973,6.96318z" fill="none" stroke-width="1" stroke-linecap="butt"/><path d="M231.93567,205.06414l-2.92256,-11.64201" fill="none" stroke-width="1" stroke-linecap="round"/><path d="M233.91872,188.82123l2.91648,11.16157" fill="none" stroke-width="1" stroke-linecap="round"/><path d="M223.52154,201.76362l-4.05289,-3.80243l15.08157,-14.89584l13.02152,11.83741l-15.08158,14.89584l-9.31392,-8.39038" fill="none" stroke-width="1.5" stroke-linecap="butt"/></g><g data-paper-data="{&quot;index&quot;:null}" stroke="#3a2f41"><g><path d="M227.12833,177.58932l-0.96514,-17.99512l32.58648,30.17371l-9.22183,8.82927z" fill="#e1e2db" stroke-width="0" stroke-linecap="butt"/><path d="M242.98639,192.46216l2.08569,-15.52203l13.67759,12.82779l-9.22183,8.82927z" fill="#8c9ca0" stroke-width="0" stroke-linecap="butt"/><path d="M243.2044,192.25336l4.61161,-12.68066" fill="none" stroke-width="1" stroke-linecap="round"/><path d="M237.05939,186.49016l3.79321,-13.21203" fill="none" stroke-width="1" stroke-linecap="round"/><path d="M230.88889,180.9392l3.27504,-14.40658" fill="none" stroke-width="1" stroke-linecap="round"/><path d="M250.72988,197.4463l-1.20206,1.15088l-22.39951,-21.00784l-0.68947,-18.12478l32.31081,30.30335l-2.63701,2.52475" fill="none" stroke-width="1.5" stroke-linecap="butt"/></g><path d="M242.03461,194.87617l12.71116,-12.17007l15.46159,14.50099l-12.71116,12.17008z" fill="#e1e2db" stroke-width="0" stroke-linecap="butt"/><path d="M254.72103,206.77444l6.56617,-17.93329l8.92017,8.36595l-12.71117,12.17008z" fill="#8c9ca0" stroke-width="0" stroke-linecap="butt"/><path d="M247.95434,195.23912l7.47717,-7.15886l10.01041,9.38845l-7.47716,7.15887z" fill="none" stroke-width="1" stroke-linecap="butt"/><path d="M257.82793,204.55121l2.62063,-11.71367" fill="none" stroke-width="1" stroke-linecap="round"/><path d="M252.79868,199.59822l2.62697,-11.23323" fill="none" stroke-width="1" stroke-linecap="round"/><path d="M266.48992,200.67007l-9.09391,8.62835l-15.46161,-14.50099l12.71116,-12.17007l15.4616,14.50099l-3.95324,3.90593" fill="none" stroke-width="1.5" stroke-linecap="butt"/></g></g></g></svg>