<svg version="1.1" xmlns="http://www.w3.org/2000/svg" xmlns:xlink="http://www.w3.org/1999/xlink" width="347.80835" height="348.32436" viewBox="0,0,347.80835,348.32436"><g transform="translate(8.57142,-52.34295)"><g data-paper-data="{&quot;isPaintingLayer&quot;:true}" fill-rule="nonzero" stroke-linejoin="miter" stroke-miterlimit="10" stroke-dasharray="" stroke-dashoffset="0" style="mix-blend-mode: normal"><g fill="#3a2f41" stroke="#3a2f41" stroke-linecap="butt"><path d="M275.11886,193.77443c0.48257,46.75103 43.01658,83.19095 42.25821,83.35017c-3.3614,1.56441 -36.86541,-22.4696 -52.02546,-44.38098c-6.1354,-8.86769 -37.47484,-30.70739 -44.65954,-47.07566c-5.8784,-13.39225 10.54802,-22.11825 18.86672,-25.47286c7.78958,-3.14123 35.30099,8.47871 35.56009,33.57933z" data-paper-data="{&quot;index&quot;:null}" stroke-width="1.5"/><path d="M267.45706,152.97314c-1.26913,11.97756 -19.98743,15.90716 -38.23312,14.80785c-1.51181,-0.09108 -1.01195,-24.01279 -2.4879,-24.16917c-4.00951,-0.42485 -10.02505,22.67105 -13.85918,21.71034c-14.61085,-3.66098 -26.58124,-11.09125 -25.49263,-21.36518c1.57241,-14.83981 16.94929,-26.0656 29.639,-31.67603c7.11644,-3.14635 15.1456,-4.01087 15.1456,-4.01087c0,0 6.41288,2.16274 11.73689,5.87628c11.03171,7.69473 25.29977,22.09448 23.61068,38.03547z" stroke-width="2"/><path d="M223.76228,125.95055c2.329,5.89303 -15.92445,17.59195 -30.53425,23.36593c-14.60981,5.77399 -32.16178,-6.52475 -32.58658,-12.86456c-0.30264,-0.47804 19.82441,3.32771 35.02168,-10.44447c15.19727,-13.77218 25.77015,-5.94993 28.09916,-0.05692z" stroke-width="1.5"/><path d="M225.90276,126.59936c13.09869,14.25121 -7.98094,24.96088 -24.46136,35.11312c-22.39698,13.79692 -56.28505,8.24537 -59.4297,1.21379c-0.59832,-0.45134 32.26249,-6.885 46.69955,-27.41651c14.43706,-20.53151 31.67203,-14.91554 37.19153,-8.91039z" stroke-width="1.5"/><path d="M263.34387,132.1127c11.97364,16.65118 32.45132,17.14787 32.05522,17.55187c-1.74397,6.11001 -21.48359,14.45738 -34.55896,5.7499c-13.07536,-8.70747 -28.47179,-23.97191 -24.95953,-29.24601c3.51226,-5.2741 15.48963,-10.70694 27.46328,5.94426z" data-paper-data="{&quot;index&quot;:null}" stroke-width="1.5"/><path d="M268.69993,142.55917c9.8138,23.10112 40.59665,36.27841 39.91702,36.59433c-4.5484,6.21643 -38.8474,4.54296 -57.85568,-13.64124c-13.98693,-13.38054 -32.3541,-28.26994 -16.5597,-39.45967c6.65541,-4.71511 24.68459,-6.59454 34.49838,16.50657z" data-paper-data="{&quot;index&quot;:null}" stroke-width="1.5"/><path d="M228.58799,141.92496c5.89442,6.41306 16.65966,20.98783 5.93894,30.78978c-13.10305,11.98013 -49.64796,19.1719 -58.71218,24.75562c-22.39698,13.79692 -61.75122,22.10911 -64.04615,19.32779c-0.59833,-0.45134 51.82809,-16.39462 71.69374,-58.71217c10.66587,-22.72028 39.60613,-22.16618 45.12563,-16.16103z" stroke-width="1.5"/><path d="M269.34957,165.02322c10.55626,45.54102 58.47737,72.11703 57.79774,72.43295c-2.82684,2.23862 -49.96886,-4.42211 -70.96531,-24.25917c-7.69279,-7.35928 -29.52732,-30.11115 -39.82879,-44.5712c-8.4285,-11.83097 5.15206,-23.82611 12.25955,-28.8615c6.65541,-4.71511 35.06915,0.80795 40.73681,25.25893z" data-paper-data="{&quot;index&quot;:null}" stroke-width="1.5"/><path d="M219.21068,154.84321c6.85425,5.12308 19.83766,17.13436 10.8598,27.72598c-10.97291,12.94528 -33.34814,41.82994 -41.3782,48.27737c-36.16207,22.61213 -73.63864,7.58507 -76.35351,5.32662c-0.66332,-0.33487 25.70086,-12.02734 37.2833,-36.60373c34.56418,-18.95038 63.17033,-49.52342 69.58861,-44.72621z" data-paper-data="{&quot;index&quot;:null}" stroke-width="1.5"/><path d="M280.12621,222.33675c2.85354,62.30728 59.31649,108.75266 58.34842,109.00309c-4.24995,2.25479 -35.91693,-6.98879 -56.46771,-35.44018c-8.31705,-11.51451 -62.26611,-60.17231 -72.29138,-81.6343c-8.20251,-17.55983 12.5144,-30.01988 23.05675,-34.91075c9.87178,-4.57978 45.82187,9.52937 47.35395,42.98215z" data-paper-data="{&quot;index&quot;:null}" stroke-width="1.5"/><path d="M170.05133,299.36551c-1.52695,0.14074 -7.10618,-4.11607 -8.60891,-3.50951c-26.21927,10.58323 -62.23484,19.90037 -62.31808,19.20422c34.96009,-35.11568 26.25016,-55.38296 53.83317,-80.51352c8.80202,-5.34563 48.03974,-44.8846 63.95395,-50.77722c13.02075,-4.82125 18.08651,48.79093 20.56097,56.98263c2.31706,7.67065 -37.8066,32.59837 -67.42107,58.6134zM125.38973,285.62102c0.20699,0.02193 4.24443,-3.84521 8.45208,-11.05521c3.18835,-5.46339 6.14466,-13.5976 9.49929,-19.10019c4.85319,-7.96068 9.14806,-13.495 9.1721,-13.72192c0,0 -5.95794,4.2742 -11.4741,12.41935c-3.46948,5.12303 -5.88345,11.81207 -8.78764,17.93254c-3.4242,7.21632 -7.04653,13.50586 -6.86173,13.52544z" data-paper-data="{&quot;index&quot;:null}" stroke-width="1.5"/><path d="M294.58706,302.63782c3.97241,33.90019 -23.99114,78.26236 -28.05344,81.31791c-4.48397,3.3727 -0.47933,-41.09711 -29.37823,-71.84628c-23.11937,-24.5996 -7.17336,-68.75591 6.19982,-70.44645c13.3732,-1.69054 47.25945,27.07463 51.23185,60.97484zM276.3386,365.05331c5.39203,-9.2837 16.41268,-42.96911 15.3401,-56.30293c0,0 -2.50516,12.51048 -6.15125,25.81712c-4.08186,14.89698 -9.34645,30.75713 -9.18885,30.48579z" stroke-width="1.5"/><path d="M253.77043,335.89656c-17.24492,34.52496 -70.59486,63.60706 -76.96252,64.01732c-7.0286,0.45285 14.59621,-43.97862 2.69369,-90.75448c-9.52212,-37.42109 41.64262,-68.87862 57.28039,-62.30596c15.63775,6.57268 34.23339,54.51815 16.98846,89.04312z" stroke-width="1.5"/><path d="M203.77705,317.61089c-22.87809,29.96943 -72.59659,51.88631 -78.40004,50.91472c-1.48971,0.16958 23.1174,-42.98126 22.45886,-91.18303c-0.52684,-38.56183 47.14873,-60.04955 59.77626,-50.2678c12.62753,9.78176 19.04301,60.56669 -3.83508,90.53612z" stroke-width="1.5"/><path d="M192.26333,113.25118c2.56285,-8.22949 6.80381,-18.27595 11.10411,-27.61985c1.40568,-0.04839 3.67771,-0.12661 4.92906,-0.16969l-0.05551,-1.61249c-0.88234,0.03038 -3.31745,0.11421 -4.19979,0.14459c0.15171,-0.32527 0.64318,-1.19926 0.79465,-1.52217c1.18235,-0.04071 2.51388,-0.08655 3.50303,-0.12062l-0.05552,-1.61248c-0.58971,0.0203 -1.89611,0.06528 -2.4858,0.08558c6.27704,-13.21865 20.28432,-32.36395 19.60575,-27.43998c-0.67857,4.92396 -3.39805,72.00554 -3.39805,72.00554c0,0 -35.96001,21.62545 -36.87588,10.28265z" data-paper-data="{&quot;index&quot;:null}" stroke-width="0.5"/><path d="M270.08543,143.47228c-3.27258,10.899 -33.90215,-17.78222 -33.90215,-17.78222c0,0 11.39886,-66.16192 11.76725,-71.11875c0.36839,-4.95685 17.23198,36.63254 19.85804,65.48274z" data-paper-data="{&quot;index&quot;:null}" stroke-width="0.5"/></g><g><path d="M265.46432,146.34607c-1.1462,10.81737 -18.05138,14.36634 -34.52973,13.37352c-1.36537,-0.08227 -0.91393,-21.68681 -2.2469,-21.82806c-3.62113,-0.38369 -9.05399,20.47504 -12.51672,19.60741c-13.1956,-3.30635 -24.00648,-10.0169 -23.02331,-19.29568c1.42011,-13.40238 15.30752,-23.5408 26.76806,-28.60778c6.42712,-2.84159 13.67855,-3.62236 13.67855,-3.62236c0,0 5.79172,1.95324 10.60001,5.30708c9.96315,6.94939 22.84916,19.95433 21.32368,34.35121z" fill="#3a2f41" stroke="none" stroke-width="0" stroke-linecap="butt"/><path d="M261.62228,149.08551c-2.52907,19.04863 -14.5632,25.75982 -14.5632,25.75982c0,0 3.91377,-16.47846 3.83178,-30.91528" data-paper-data="{&quot;index&quot;:null}" fill="#3a2f41" stroke="#b8c1c0" stroke-width="2" stroke-linecap="round"/><path d="M255.30409,163.68863c-2.03575,2.60028 6.68993,-24.5669 7.23865,-24.59549c0.69819,-0.03639 1.52513,3.5753 1.84704,8.06692c0.32189,4.49162 -6.83064,16.81029 -6.63102,16.22602c2.72904,-5.06326 4.41967,-11.18838 4.09778,-15.68c-0.06892,-0.96158 -1.94623,10.09907 -6.55243,15.98257z" data-paper-data="{&quot;index&quot;:null}" fill="#3a2f41" stroke="none" stroke-width="0" stroke-linecap="butt"/><path d="M210.16016,138.61146c-2.56832,11.97522 -3.82656,31.37024 -3.82656,31.37024c0,0 -10.73515,-8.07775 -10.48397,-29.68122" fill="#3a2f41" stroke="#b8c1c0" stroke-width="2" stroke-linecap="round"/><path d="M195.6636,140.68568c-0.46666,4.40411 0.56837,10.44761 1.40902,15.59371c0.09424,0.57688 -3.49025,-11.36067 -3.02359,-15.76478c0.46666,-4.40411 1.20638,-7.93606 1.65224,-7.88882c0.3504,0.03713 4.2946,26.44355 3.13905,23.85726c-2.61459,-5.85184 -3.07682,-16.74019 -3.17673,-15.79735z" fill="#3a2f41" stroke="none" stroke-width="0" stroke-linecap="butt"/><g stroke-linecap="butt"><path d="M254.23255,147.79293c-0.55739,5.26042 -1.44397,9.91218 -5.94873,12.86856c-4.37904,2.87388 -11.82369,3.23737 -21.07024,2.43775c-9.20317,-0.79586 -16.8684,-3.73127 -20.55859,-7.59876c-3.73325,-3.91259 -3.86169,-7.88233 -3.3089,-13.09943c1.09922,-10.37408 10.23673,-22.73118 31.52819,-19.89664c14.00564,1.86457 20.4575,14.91443 19.35827,25.28852z" fill="#e1e2db" stroke="none" stroke-width="0"/><path d="M254.83854,149.75663c-1.13869,6.13676 -11.37452,0.5712 -22.90635,-0.56746c-11.52953,-1.13843 -29.66256,3.3713 -28.56334,-7.00277c1.09922,-10.37408 10.23673,-22.73119 31.52819,-19.89665c14.00564,1.86457 21.27958,14.83873 20.18035,25.21282z" fill="#b8c1c0" stroke="none" stroke-width="0"/><path d="M239.02227,123.39503c9.81483,3.09166 15.52624,9.32032 15.7754,18.7833c0.06325,2.40223 0.01371,7.36504 -0.61896,9.89952c-0.91748,3.67549 -1.19662,5.63652 -4.29247,7.95382c-4.36748,3.26917 -12.26932,3.97779 -22.1299,3.12507c-6.81214,-0.5891 -14.42681,-2.73871 -18.12468,-5.13787c-6.35202,-4.12114 -6.73152,-9.36018 -6.03675,-15.91711c0.93303,-8.80561 7.62333,-18.71791 22.65606,-19.87786" fill="none" stroke="#3a2f41" stroke-width="2"/></g><path d="M264.02966,142.39732c-2.67124,1.2501 -4.47409,3.93234 -7.58682,3.73363c-7.79238,-0.49749 -15.59862,-4.46843 -19.47596,-9.814c-5.5269,-6.98453 -3.01942,-18.24313 -0.5085,-20.30745c2.54971,-2.09622 10.47759,1.53984 16.27301,8.58903z" data-paper-data="{&quot;index&quot;:null}" fill="#3a2f41" stroke="none" stroke-width="0" stroke-linecap="butt"/><path d="M237.2686,118.35538c2.10491,4.58849 -5.78563,14.78649 -15.53617,19.25941c-3.84865,1.76551 -11.6961,3.21035 -12.79101,3.75909c-0.91124,0.4567 -6.6851,1.3989 -6.34465,2.7809c0.94908,3.85258 -2.25397,-4.96273 -3.27857,-7.19627c-2.10491,-4.58848 4.0931,-11.93421 13.84364,-16.40713c9.75054,-4.4729 22.00185,-6.78448 24.10676,-2.19599z" fill="#3a2f41" stroke="none" stroke-width="0" stroke-linecap="butt"/><path d="M241.06868,132.90124c-3.29349,9.95156 -15.21141,17.32241 -26.2602,15.96098c-0.24212,-0.04367 9.74974,-7.18187 10.91273,-18.15778c0.77061,-7.27278 6.06818,-12.10277 9.57584,-11.7311c3.45268,0.36584 6.4052,5.98379 5.73851,13.10821c-0.01063,0.11347 0.06912,0.71089 0.0331,0.81974z" data-paper-data="{&quot;index&quot;:null}" fill="#3a2f41" stroke="none" stroke-width="0" stroke-linecap="butt"/><path d="M230.99074,132.0176c-8.24768,10.0499 -22.58492,11.71761 -25.82577,11.93203c-3.24086,0.21442 -2.22469,-2.82873 -2.27996,-3.66399c-0.05526,-0.83527 3.21916,-9.75353 6.46001,-9.96794c3.24086,-0.21441 21.59047,0.86466 21.64573,1.69992z" fill="#3a2f41" stroke="none" stroke-width="0" stroke-linecap="butt"/><g stroke="#3a2f41" stroke-linecap="butt"><path d="M215.63857,144.1691c6.24604,1.07065 9.19606,5.96089 9.19606,5.96089c0,0 -4.22139,-0.66811 -9.88361,-1.78123c-5.03148,-0.98912 -9.15806,-2.0391 -9.15806,-2.0391c0,0 3.95035,-3.15108 9.84561,-2.14056z" fill="#e1e2db" stroke-width="1"/><g fill="#3a2f41" stroke-width="0.5"><path d="M219.59005,148.21477l0.52749,-2.2923l0.36027,0.11549l-0.56942,2.34132z"/></g></g><path d="M259.56402,145.31065c0,0 -5.64925,5.81282 -16.47554,0.39892c-5.77946,-2.89013 -7.76827,-11.29943 -7.38454,-14.92099c0,0 1.81829,10.05831 10.08331,13.59722c6.2579,2.67951 11.51998,1.05545 13.17756,0.63648c0.34981,-0.08843 0.5992,0.28836 0.5992,0.28836z" fill="#3a2f41" stroke="none" stroke-width="0" stroke-linecap="butt"/></g><path d="M217.93133,150.59049c0,0.5 -0.5,0.5 -0.5,0.5h-0.38462c-3.12117,0 -7.06017,-0.15069 -9.73889,-1.93013c0,0 -0.41603,-0.27735 -0.13868,-0.69338c0.27735,-0.41603 0.69338,-0.13868 0.69338,-0.13868c2.49348,1.66898 6.27779,1.76218 9.18419,1.76218h0.38462c0,0 0.5,0 0.5,0.5z" fill="#3a2f41" stroke="none" stroke-width="0.5" stroke-linecap="butt"/><path d="M227.20583,149.25114c0.4932,0.0822 0.411,0.5754 0.411,0.5754l-0.11055,0.5763c-0.51184,1.1685 -1.20353,1.75974 -2.48674,1.91594c0,0 -0.49752,0.04975 -0.54727,-0.44777c-0.04975,-0.49752 0.44777,-0.54727 0.44777,-0.54727c0.90718,-0.06255 1.32709,-0.49855 1.6671,-1.31483l0.0433,-0.34678c0,0 0.0822,-0.4932 0.5754,-0.411z" fill="#3a2f41" stroke="none" stroke-width="0.5" stroke-linecap="butt"/><g stroke="#3b3045" stroke-width="0.5" stroke-linecap="butt"><path d="M222.98228,160.95316c-5.29543,-0.56584 -12.85883,-0.13369 -12.85883,-0.13369c0,0 -0.2999,-5.31702 4.13642,-7.74907c2.07129,-1.13552 6.92139,-0.66531 10.14189,-0.50713c4.61813,0.22684 10.49465,1.0178 13.34456,2.63443c6.22838,3.53312 6.3666,9.25377 6.3666,9.25377c0,0 -15.17418,-2.86176 -21.13064,-3.49822z" fill="#3b3045"/><path d="M218.1758,152.66386l0.05961,3.94546l-5.52243,-2.13539z" data-paper-data="{&quot;index&quot;:null}" fill="#e0dedc"/><path d="M221.18375,156.64246l-2.71064,-4.07494l6.28749,0.25984z" data-paper-data="{&quot;index&quot;:null}" fill="#e0dedc"/><path d="M226.2998,156.51553l-1.73914,-3.6693l6.29273,0.49906z" data-paper-data="{&quot;index&quot;:null}" fill="#e0dedc"/><path d="M230.90101,156.83783l-0.47224,-3.31106l5.86138,1.26165z" data-paper-data="{&quot;index&quot;:null}" fill="#e0dedc"/><path d="M234.52287,157.75452l1.62039,-2.89058l4.28998,2.61999z" data-paper-data="{&quot;index&quot;:null}" fill="#e0dedc"/></g><path d="M245.79367,202.57378c-2.08162,6.96107 -9.67121,17.53168 -9.67121,17.53168l-31.93934,-5.06888c0,0 -7.94333,-18.33937 -3.58539,-30.58532c1.71077,-4.80731 14.71979,-9.80525 20.76476,-8.91531c3.75337,0.55256 10.55683,0.60747 15.98795,3.35667c0,0 7.961,4.44841 9.49857,8.6655c2.40088,6.58489 -1.05535,15.01566 -1.05535,15.01566z" fill="#3a2f41" stroke="#8c9ca0" stroke-width="2" stroke-linecap="round"/><g><g><g stroke-linecap="butt"><path d="M120.77269,189.63001l48.11368,-8.73882l1.20798,14.78619l-42.81586,8.08543c0,0 -7.1264,-2.98994 -7.31738,-4.84988z" data-paper-data="{&quot;index&quot;:null}" fill="#e1e2db" stroke="none" stroke-width="0"/><path d="M156.93986,190.6479c-0.50906,-3.34696 2.71968,-8.32414 2.71968,-8.32414l9.00341,-1.60395l1.5059,15.36124c0,0 -5.32842,0.92547 -8.21312,1.34042c0,0 -4.50681,-3.42664 -5.01586,-6.77358z" data-paper-data="{&quot;index&quot;:null}" fill="#8c9ca0" stroke="none" stroke-width="0"/><path d="M168.60676,181.06343l1.20797,14.7862l-45.4231,8.68728c0,0 -3.72452,-3.39515 -3.9647,-5.73424c-0.21443,-2.08838 0.92569,-9.23163 0.92569,-9.23163z" data-paper-data="{&quot;index&quot;:null}" fill="none" stroke="#3a2f41" stroke-width="2.5"/></g><g stroke="#8c9ca0" stroke-width="2" stroke-linecap="round"><path d="M193.36208,197.21125l-21.1909,5.16192c0,0 -6.58394,-3.8719 -8.17497,-11.46873c-1.59105,-7.59682 3.18549,-12.62577 3.18549,-12.62577c0,0 15.60107,-2.65841 26.58061,-2.46161c9.11016,0.1633 14.02251,8.83955 14.02251,8.83955" fill="#3a2f41"/><path d="M177.69049,200.50129c0,0 -6.24595,-3.54857 -7.69981,-10.40056c-1.50958,-7.1145 2.46429,-12.01262 2.46429,-12.01262" fill="none"/></g></g><g data-paper-data="{&quot;index&quot;:null}" fill="#3a2f41"><path d="M30.76052,205.05013l-21.11156,-23.35707l38.76158,20.71259z" stroke-opacity="0.07705" stroke="#ffffff" stroke-width="2" stroke-linecap="round"/><path d="M23.94571,208.31906l-19.20227,-23.0867l35.63374,15.69444z" stroke-opacity="0.08512" stroke="#ffffff" stroke-width="2" stroke-linecap="round"/><path d="M136.57052,201.57009l-81.13887,15.88304l-26.43369,-2.05093l-7.18486,-9.17007l15.86484,4.95278l-20.51018,-5.09523l-22.21085,-22.00546l28.39937,12.99979l31.16113,-8.81779l-2.71263,-12.17356l-19.22682,-11.40823l31.78502,4.39416l13.11737,20.6103c0,0 3.87163,0.2582 9.52504,0.3844c8.8194,0.19686 42.6736,-2.44152 42.6736,-2.44152l-4.98075,3.71304l17.20456,-0.64357l-20.33123,6.73775l10.73188,2.7789l-12.87093,2.46176z" stroke-opacity="0.08254" stroke="#ffffff" stroke-width="1.5" stroke-linecap="butt"/></g></g><g data-paper-data="{&quot;index&quot;:null}"><g stroke-linecap="butt"><path d="M256.10814,268.5338c-1.81683,0.44148 -7.01616,-5.27625 -7.01616,-5.27625l-6.68586,-43.05662l14.33997,-3.80213l7.84023,48.26825z" data-paper-data="{&quot;index&quot;:null}" fill="#e1e2db" stroke="none" stroke-width="0"/><path d="M251.54203,230.9188c-3.32466,0.63858 -8.06027,-2.46422 -8.06027,-2.46422c-0.57279,-2.85753 -1.48098,-8.18894 -1.48098,-8.18894l14.9815,-3.71347l1.49667,9.02186c0,0 -3.61227,4.70621 -6.93692,5.3448z" data-paper-data="{&quot;index&quot;:null}" fill="#8c9ca0" stroke="none" stroke-width="0"/><path d="M264.44811,264.10076c0,0 -6.35168,3.46144 -8.3917,3.95715c-2.2849,0.55522 -6.72941,-1.82076 -6.72941,-1.82076l-6.9898,-45.71511l14.33998,-3.80213z" data-paper-data="{&quot;index&quot;:null}" fill="none" stroke="#3a2f41" stroke-width="2.5"/></g><g stroke="#8c9ca0" stroke-width="2" stroke-linecap="round"><path d="M240.19963,180.99433c0,0 9.81899,1.73091 13.01698,10.26289c3.85419,10.2827 6.56154,25.87535 6.56154,25.87535c0,0 -3.14387,6.18237 -10.83568,7.22119c-7.69181,1.03881 -13.54115,-3.87293 -13.54115,-3.87293l-2.21553,-21.69771" fill="#3a2f41"/><path d="M258.19566,212.0987c0,0 -3.28873,5.38212 -10.49874,6.33656c-6.94395,0.91922 -12.37559,-3.78198 -12.37559,-3.78198" fill="none"/></g></g><g><path d="M230.09221,175.65937c-0.30879,1.77801 -5.48205,4.2766 -7.43626,3.93721c-1.95421,-0.33939 -5.9265,-4.06778 -5.61771,-5.84579c0.30879,-1.77801 5.13709,-1.94626 7.0913,-1.60686c1.95421,0.33939 6.27146,1.73744 5.96266,3.51545z" fill="#3a2f41" stroke="none" stroke-width="0" stroke-linecap="butt"/><g fill="#8c9ca0" stroke="#8c9ca0" stroke-width="1.5" stroke-linecap="butt"><path d="M206.12992,184.18545c-0.55727,-0.77388 10.51912,-11.30879 10.51912,-11.30879l5.82323,6.23134l8.08054,-4.42036c0,0 6.95115,13.72801 6.30902,14.30327c-0.35505,0.31808 -3.24823,-1.91871 -7.00246,-3.81594c-3.45352,-1.74527 -7.80633,-3.15197 -7.80633,-3.15197c0,0 -4.93354,0.3862 -9.02663,1.02967c-3.74254,0.58836 -6.66414,1.45546 -6.8965,1.13278z"/></g><path d="M216.40033,174.32719l0.73099,-1.59403l6.69201,-0.82169l6.35334,2.57341l0.3999,1.82629" fill="none" stroke="#8c9ca0" stroke-width="1.5" stroke-linecap="round"/></g><g fill="#3a2f41"><path d="M231.8788,220.25921l-1.42011,7.95768c0,0 1.03021,3.43332 1.88088,8.31483c0.83665,4.80097 0.77649,8.3557 0.77649,8.3557c0,0 -3.23395,1.8377 -7.11476,3.28286c-3.98813,1.48512 -8.66167,2.57368 -11.38156,2.18514c-2.33553,-0.33364 -6.27365,-2.30737 -9.52918,-4.3207c-3.92262,-2.4259 -6.9994,-4.92755 -6.9994,-4.92755c0,0 0.66993,-3.90552 2.81932,-9.11767c1.70826,-4.14243 2.9689,-6.89165 2.9689,-6.89165c0,0 1.17551,-8.82527 1.16413,-8.83321" stroke="#8c9ca0" stroke-width="1.5" stroke-linecap="round"/><path d="M241.17501,191.5299c6.40331,9.87293 7.54714,20.90379 7.54714,20.90379c0,0 -7.92272,8.38697 -18.01676,13.00209l-26.09149,-3.41487c-12.62064,-8.87154 -14.22789,-16.55776 -14.22789,-16.55776c0,0 3.76618,-9.52006 12.11743,-17.76018" stroke="#8c9ca0" stroke-width="1.5" stroke-linecap="round"/><path d="M204.21056,226.2513l1.19696,-9.50984l25.70226,3.23503l-1.19696,9.50984z" stroke="none" stroke-width="0" stroke-linecap="butt"/></g><path d="M222.97892,197.92881c-1.40162,1.6251 -3.88271,1.78259 -5.54167,0.35176c-1.65895,-1.43082 -1.86757,-3.90814 -0.46595,-5.53324c1.40162,-1.6251 3.88272,-1.78259 5.54168,-0.35177c1.65895,1.43082 1.86757,3.90814 0.46594,5.53325z" fill="#8c9ca0" stroke="#3a2f41" stroke-width="1" stroke-linecap="butt"/><path d="M223.15001,207.49939c-0.88585,1.95467 -3.22157,2.80616 -5.21697,1.90185c-1.9954,-0.90431 -2.89487,-3.22198 -2.00901,-5.17665c0.88585,-1.95467 3.22158,-2.80617 5.21698,-1.90186c1.9954,0.90431 2.89486,3.22199 2.00901,5.17666z" fill="#8c9ca0" stroke="#3a2f41" stroke-width="1" stroke-linecap="butt"/></g></g></svg>