<svg version="1.1" xmlns="http://www.w3.org/2000/svg" xmlns:xlink="http://www.w3.org/1999/xlink" width="330.02816" height="459.44664" viewBox="0,0,330.02816,459.44664"><defs><linearGradient x1="223.49285" y1="41.14306" x2="236.24691" y2="136.75594" gradientUnits="userSpaceOnUse" id="color-1"><stop offset="0" stop-color="#cedee0" stop-opacity="0"/><stop offset="1" stop-color="#cedee0" stop-opacity="0.19676"/></linearGradient></defs><g transform="translate(-75.67701,49.09832)"><g data-paper-data="{&quot;isPaintingLayer&quot;:true}" fill-rule="nonzero" stroke-linejoin="miter" stroke-miterlimit="10" stroke-dasharray="" stroke-dashoffset="0" style="mix-blend-mode: normal"><path d="M274.80399,199.29349c-12.62381,-17.24162 -27.63891,-32.55356 -27.63891,-32.55356l0.54811,-20.66243l22.06247,1.7856l27.57692,25.87485c0,0 15.94444,-12.05503 19.07707,-9.61533c0.28467,0.34208 31.61807,17.15315 31.61807,17.15315l-5.4249,21.55672l-38.57246,27.09163z" fill="#e1e2db" stroke="#3a2f41" stroke-width="2" stroke-linecap="butt"/><g stroke-linecap="butt"><path d="M242.98133,339.11129l-0.43922,-65.59261l22.50706,0.29565l0.43921,65.59262z" fill="#7c7984" stroke="none" stroke-width="0"/><path d="M243.08157,294.32908l1.02355,-20.27767l20.72204,0.10605l0.58618,20.65016z" fill="#626171" stroke="none" stroke-width="0"/><path d="M243.38142,339.07706l-0.43922,-65.59261l22.50706,0.29566l0.43923,65.59262z" fill="none" stroke="#3a2f41" stroke-width="2.5"/></g><g data-paper-data="{&quot;index&quot;:null}" stroke-linecap="butt"><path d="M185.57446,337.31676l12.98954,-64.29507l22.14729,4.01904l-12.98954,64.29507z" fill="#7c7984" stroke="none" stroke-width="0"/><path d="M195.68801,286.81574l2.71877,-14.34875l22.14731,4.01905l-2.85585,14.13569z" fill="#626171" stroke="none" stroke-width="0"/><path d="M185.41727,336.76206l12.98954,-64.29508l22.1473,4.01905l-12.98953,64.29507z" fill="none" stroke="#3a2f41" stroke-width="2.5"/></g><path d="M179.29463,334.97093l34.14315,2.34716l-4.15077,42.11803c0,0 -31.8976,32.32075 -77.24987,29.48607c-3.34328,-0.20897 2.0397,-35.72672 39.09923,-54.03051c0.28479,-0.14066 8.15827,-19.92076 8.15827,-19.92076z" data-paper-data="{&quot;index&quot;:null}" fill="#3a2f41" stroke="#3a2f41" stroke-width="2.5" stroke-linecap="butt"/><g data-paper-data="{&quot;index&quot;:null}" stroke="#3a2f41" stroke-width="2"><g data-paper-data="{&quot;index&quot;:null}"><path d="M234.63259,280.09909l4.10402,-62.99185l31.1559,2.1439l2.56428,62.72241c0,0 -8.6114,5.51908 -20.32862,4.4933c-12.83278,-1.12345 -17.49554,-6.36776 -17.49554,-6.36776z" data-paper-data="{&quot;index&quot;:null}" fill="#e1e2db" stroke-linecap="butt"/><path d="M269.68894,246.17229l-8.26449,-3.05146l-0.96523,-21.38655" fill="none" stroke-linecap="round"/><path d="M269.601,242.10852l-4.75165,-1.89364l-0.40524,-18.50309" fill="none" stroke-linecap="round"/></g><path d="M272.2118,271.50976c0,0 -3.83992,5.17836 -17.51156,6.02974c-11.62873,0.72415 -18.92966,-6.61673 -18.92966,-6.61673" data-paper-data="{&quot;index&quot;:null}" fill="none" stroke-linecap="round"/></g><g data-paper-data="{&quot;index&quot;:null}" stroke="#3a2f41" stroke-width="2"><g data-paper-data="{&quot;index&quot;:null}"><path d="M208.40506,286.27444c-15.32059,-3.48933 -19.41353,-13.24987 -19.41353,-13.24987l18.81807,-61.33152l30.65032,8.31184l-9.90457,61.73304c0,0 -7.43088,7.4334 -20.15028,4.53649z" data-paper-data="{&quot;index&quot;:null}" fill="#e1e2db" stroke-linecap="butt"/><path d="M217.65684,218.00514l-4.82922,20.68615l-12.25727,-0.25662" fill="none" stroke-linecap="round"/><path d="M214.14456,216.44523l-4.80273,18.49371l-8.06096,-0.28047" fill="none" stroke-linecap="round"/></g><path d="M229.03446,274.29572c0,0 -9.57448,5.00364 -21.05641,0.63173c-13.49907,-5.13997 -15.79161,-11.49302 -15.79161,-11.49302" data-paper-data="{&quot;index&quot;:null}" fill="none" stroke-linecap="round"/></g><g data-paper-data="{&quot;index&quot;:null}"><g data-paper-data="{&quot;index&quot;:null}" stroke-linecap="butt"><path d="M228.57325,240.20473l3.63106,-22.37995l16.8988,2.74176l-1.29068,19.29262z" fill="#8c9ca0" stroke="#3a2f41" stroke-width="2"/><path d="M228.72828,237.62961l3.63106,-22.37995l16.8988,2.74177l-1.29068,19.29263z" fill="#e1e2db" stroke="#e1e2db" stroke-width="3.5"/></g><path d="M244.75094,217.91671l-3.13455,13.79694l-2.743,8.31546" data-paper-data="{&quot;index&quot;:null}" fill="none" stroke="#3a2f41" stroke-width="2" stroke-linecap="round"/><path d="M249.91673,217.37293l-3.41934,12.48411l-4.881,1.85661" data-paper-data="{&quot;index&quot;:null}" fill="none" stroke="#3a2f41" stroke-width="2" stroke-linecap="round"/></g><path d="M271.60165,218.01944l-21.92451,7.25142l-44.43595,-9.26635l6.50008,-16.35933c0,0 -11.9607,-33.52358 -7.0103,-49.40588c1.26083,-4.04507 15.70813,-12.54063 24.28535,-12.90706c6.83476,-0.29199 13.99461,0.75137 20.40225,3.70529c2.41467,1.11316 4.68214,1.64061 6.84392,3.71782c16.25563,15.61959 7.80348,51.79165 7.80348,51.79165z" data-paper-data="{&quot;index&quot;:null}" fill="#3a2f41" stroke="#8c9ca0" stroke-width="2" stroke-linecap="round"/><g stroke-linecap="butt"><g fill="none" stroke="none" stroke-width="1" font-family="sans-serif" font-weight="normal" font-size="12" text-anchor="start"><g><g/></g></g><g><g><g fill="none" stroke="none" stroke-width="1" font-family="sans-serif" font-weight="normal" font-size="12" text-anchor="start"/><path d="M245.54354,158.07041c0.58618,2.42301 -0.97302,4.87936 -3.48256,5.48646c-2.50952,0.60709 -5.01909,-0.86496 -5.60526,-3.28794c-0.58618,-2.42301 0.97303,-4.87937 3.48256,-5.48647c2.50952,-0.60709 5.01909,0.86497 5.60526,3.28795z" fill="#8c9ca0" stroke="#3a2f41" stroke-width="2"/><path d="M249.57097,175.64755c0.58618,2.42301 -1.06839,4.90242 -3.69557,5.53799c-2.62716,0.63557 -5.23206,-0.81344 -5.81823,-3.23642c-0.58618,-2.42301 1.06838,-4.90241 3.69554,-5.53798c2.62716,-0.63557 5.23209,0.81342 5.81826,3.2364z" fill="#8c9ca0" stroke="#3a2f41" stroke-width="2"/></g></g></g><g data-paper-data="{&quot;index&quot;:null}"><path d="M245.15826,150.58233l-8.57143,-6.6378c0,0 2.8129,-6.78603 5.52872,-9.32802c0.5947,-0.55664 0.90762,-0.21195 1.09172,-0.17059c0.47631,0.29496 3.74881,4.4167 3.32478,4.7788z" data-paper-data="{&quot;index&quot;:null}" fill="#8c9ca0" stroke="#3a2f41" stroke-width="4.5" stroke-linecap="round"/><path d="M230.74221,154.14374c0,0 -15.35151,-7.8558 -16.56901,-10.52193c-0.11197,-1.37921 1.1506,-7.55066 2.28893,-5.98914c1.01634,0.35022 16.27417,-5.12038 20.51352,-3.37214c3.56308,1.46935 -3.70605,10.22973 -3.70605,10.22973z" fill="#3a2f41" stroke="#3a2f41" stroke-width="4.5" stroke-linecap="round"/><path d="M216.08355,142.91181c-0.13351,-1.32653 -0.31324,-4.5983 0.18664,-4.93381c0.87106,-1.04695 9.89358,-6.71915 12.19598,-7.40369c1.4566,-0.43308 12.84524,3.447 13.49263,3.95711c1.05186,0.34791 2.57259,4.03217 2.6331,4.50617" fill="none" stroke="#3a2f41" stroke-width="6.5" stroke-linecap="butt"/><g><path d="M245.08348,150.25748l-7.83773,-6.41315c0,0 2.15398,-6.68583 4.86979,-9.22782c0.5947,-0.55664 0.90762,-0.21195 1.09172,-0.17059c0.47631,0.29496 3.74881,4.4167 3.32478,4.7788z" data-paper-data="{&quot;index&quot;:null}" fill="#8c9ca0" stroke="#12161a" stroke-width="0" stroke-linecap="round"/><path d="M230.36663,153.87706c0,0 -14.97592,-7.58912 -16.19343,-10.25526c-0.11197,-1.37921 1.15059,-7.55067 2.28892,-5.98914c1.87054,0.64458 19.77264,6.40662 19.77264,6.40662z" fill="#8c9ca0" stroke="#12161a" stroke-width="0" stroke-linecap="round"/><path d="M216.08355,142.9118c-0.13351,-1.32653 -0.31324,-4.5983 0.18664,-4.93381c0.87106,-1.04695 9.89359,-6.71915 12.19598,-7.4037c1.4566,-0.43308 12.84524,3.44702 13.49263,3.95712c1.05186,0.34791 2.57258,4.03216 2.63309,4.50617" fill="none" stroke="#8c9ca0" stroke-width="2" stroke-linecap="butt"/></g></g><path d="" fill="none" stroke="#e1e2db" stroke-width="1" stroke-linecap="round"/><path d="M277.04989,357.76081c43.30058,8.56311 46.41917,30.48115 43.07776,30.24428c-45.32703,-3.21314 -84.14996,-9.48359 -84.14996,-9.48359l1.4792,-42.29621l34.15244,2.20779c0,0 5.17697,19.1505 5.44056,19.32773z" data-paper-data="{&quot;index&quot;:null}" fill="#3a2f41" stroke="#3a2f41" stroke-width="2.5" stroke-linecap="butt"/><g><path d="M277.89942,123.06933l-13.33965,0.8473l-0.66472,-13.02754l-1.7165,12.8225l-55.24934,0.15759c0,0 -18.64213,-7.2163 -20.38645,-20.2928c-1.21896,-9.13808 -2.56869,-27.33149 8.46859,-43.11092c8.90161,-12.72619 26.70054,-18.68649 30.46922,-19.34595c3.01346,-0.52731 16.43922,2.46369 24.97709,8.59585c14.21199,10.20752 27.65706,20.85417 28.96957,39.10109c1.40895,19.58761 -1.52781,34.25288 -1.52781,34.25288z" fill="#3a2f41" stroke="none" stroke-width="0" stroke-linecap="butt"/><g stroke-linecap="butt"><path d="M269.6279,93.30586c1.91281,14.33968 -5.32255,26.79504 -29.59605,30.54134c-13.77329,2.12574 -29.13815,-1.27801 -34.99635,-6.73069c-4.33129,-4.03147 -4.86138,-10.31985 -5.67447,-16.41528c-1.91281,-14.33968 9.82676,-32.46657 37.6943,-35.37904c18.33144,-1.91584 30.65974,13.64397 32.57255,27.98367z" fill="#e1e2db" stroke="none" stroke-width="0"/><path d="M270.14704,93.18355c1.91281,14.33968 -12.79064,7.12228 -27.75786,9.23459c-14.96424,2.1119 -40.86285,14.27559 -42.77566,-0.06409c-0.68467,-5.1328 -0.01737,-18.31214 2.23465,-23.77927c4.03954,-9.80661 17.83378,-11.50494 35.72632,-13.3749c18.33143,-1.91584 30.65974,13.64398 32.57255,27.98367z" fill="#b8c1c0" stroke="none" stroke-width="0"/><path d="M220.52377,66.53933c4.89466,-0.57527 10.53413,-0.96534 16.77962,-1.61806c18.33144,-1.91584 30.65974,13.64398 32.57255,27.98367v0.00001c1.91281,14.33968 -5.32255,26.79504 -29.59604,30.54133c-13.82521,2.13376 -27.6053,-0.30684 -33.45885,-5.80043c-4.28964,-4.02585 -5.219,-9.16292 -6.02795,-15.22728c-0.55543,-4.16387 -1.49823,-20.47082 -0.18192,-24.97927c0.54829,-1.8779 1.40109,-3.41927 2.5366,-4.69451" fill="none" stroke="#3a2f41" stroke-width="2"/></g><path d="M206.32731,103.65509c0,0 4.12758,-7.7001 16.87804,-5.31685c12.27671,1.48942 13.77319,9.27248 13.77319,9.27248z" fill="#e1e2db" stroke="#3a2f41" stroke-width="1" stroke-linecap="butt"/><path d="M188.32962,126.74614l-7.53894,-1.98051c0,0 -23.76209,-70.38435 30.84374,-85.40942c24.30048,-6.68639 46.01914,2.67213 58.61156,13.45464c10.46872,8.96406 13.90922,19.22115 13.90922,19.22115l-6.86212,-0.51518c0,0 2.33128,9.90498 2.16322,18.05477c-23.98073,-2.76258 -41.73912,-1.27494 -60.28114,1.89446c-0.49463,0.08454 -2.51453,-6.33798 -2.51453,-6.33798c0,0 0.00127,7.03475 -0.36918,7.09072c-4.37881,0.6615 -9.66084,1.61306 -13.08132,2.37495c-0.43804,0.09758 -1.81996,-3.70448 -2.48291,-6.20396c1.30136,8.67751 8.32343,38.122 8.16511,38.16189c-2.46275,0.62061 -18.89142,1.69966 -19.08013,0.01457c-0.2726,-2.4343 -3.39189,-18.79245 -3.39189,-18.79245z" fill="#3a2f41" stroke="url(#color-1)" stroke-width="0.5" stroke-linecap="butt"/><path d="M211.01117,103.94274c-1.13574,-0.0391 -1.09524,-3.01191 -1.09524,-3.01191l1.90476,-1.38095c0,0 0.6273,4.44233 -0.80953,4.39286z" fill="#e1e2db" stroke="#3a2f41" stroke-width="1" stroke-linecap="butt"/><path d="M274.60895,102.52038c0.71925,1.70891 -1.35047,4.21076 -4.62285,5.58804c-3.27238,1.37728 -6.50823,1.10845 -7.22747,-0.60046c-0.71925,-1.70891 1.35047,-4.21076 4.62285,-5.58804c3.27238,-1.37728 6.50823,-1.10845 7.22747,0.60046z" fill="#3a2f41" stroke="#b8c1c0" stroke-width="0.5" stroke-linecap="butt"/><path d="M236.72393,102.03262c0,0 0.85155,1.62577 -1.82652,0.4947c-4.6584,-1.96744 -23.64219,-11.25125 -23.64219,-11.25125" fill="none" stroke="#3a2f41" stroke-width="1" stroke-linecap="round"/><path d="M213.58264,106.59624l-7.9,-1.66666" fill="none" stroke="#3a2f41" stroke-width="0.5" stroke-linecap="round"/><path d="M250.20075,119.09832c4.10975,-2.27096 5.33333,-1.66667 5.33333,-1.66667" fill="none" stroke="#3a2f41" stroke-width="1" stroke-linecap="round"/><path d="M195.07272,70.28772c-5.18012,9.8598 -21.9866,-16.04424 -85.10886,-12.52037c-45.03757,2.51427 -42.56555,-40.5916 -10.80445,-41.07091c50.1614,-0.75699 101.09343,43.73148 95.91331,53.59128z" fill="#3a2f41" stroke="none" stroke-width="0.5" stroke-linecap="butt"/><path d="M222.89824,59.06639c-10.23738,4.38696 -6.94975,-26.31595 -58.16619,-63.37958c-36.5428,-26.44481 -7.44564,-58.34437 17.50909,-38.69093c39.41188,31.03938 50.89448,97.68355 40.6571,102.07051z" fill="#3a2f41" stroke="none" stroke-width="0.5" stroke-linecap="butt"/></g><path d="M168.09179,183.46363c13.33677,-16.69624 24.18528,-35.1954 24.18528,-35.1954l20.08568,-4.87873l4.05079,21.76079l-17.75558,33.38763c0,0 19.54578,5.00335 18.01098,8.6653c-0.25565,0.36428 -17.07307,50.34108 -17.07307,50.34108l-17.80026,3.35054l-33.27309,-51.66511z" fill="#e1e2db" stroke="#3a2f41" stroke-width="2" stroke-linecap="butt"/><g stroke="#3a2f41" stroke-width="2"><path d="M205.26957,257.01931c-0.35687,0.88675 -11.55436,-0.61283 -15.06612,-2.64162c-3.25276,-1.87916 2.26264,-31.28694 2.26264,-31.28694c0,0 13.65425,-17.50241 17.8396,-17.18713c4.36657,0.32893 13.98179,14.31278 13.98179,14.31278c0,0 -13.63271,23.42164 -19.0179,36.80291z" fill="#e1e2db" stroke-linecap="butt"/><path d="M198.9007,216.2492l19.31304,12.17643" fill="none" stroke-linecap="round"/></g><g stroke="#3a2f41" stroke-width="2"><g><path d="M303.57852,193.83849l83.93026,-130.31006l16.8142,10.82971l-83.93026,130.31006z" fill="#e1e2db" stroke-linecap="butt"/><g fill="none" stroke-linecap="round"><path d="M310.0603,184.92911l3.57302,2.30131"/><path d="M319.04818,178.82333l-3.7832,-2.43669"/><path d="M327.60146,171.54552l-6.65087,-3.98634"/></g><g fill="none" stroke-linecap="round"><path d="M329.53234,162.08392l-3.57302,-2.30131"/><path d="M331.164,151.24014l3.7832,2.43669"/><path d="M343.50047,146.39902l-6.65087,-3.98634"/></g><g fill="none" stroke-linecap="round"><path d="M342.14332,135.11704l3.57302,2.30131"/><path d="M347.348,126.57457l3.7832,2.43669"/><path d="M353.0336,117.74711l6.65087,3.98634"/></g><g fill="none" stroke-linecap="round"><path d="M358.61231,110.93238l3.57302,2.30131"/><path d="M363.81699,102.38991l3.7832,2.43669"/><path d="M376.15346,97.54879l-6.65087,-3.98634"/></g><g fill="none" stroke-linecap="round"><path d="M375.11338,84.38945l3.57302,2.30131"/><path d="M384.10126,78.28367l-3.7832,-2.43669"/><path d="M392.65453,71.00586l-6.65087,-3.98634"/></g></g><g data-paper-data="{&quot;index&quot;:null}"><path d="M311.66573,192.64321c9.12082,-11.1745 23.05498,-34.41805 23.05498,-34.41805c0,0 16.88796,1.67256 19.2834,5.33821c2.29603,3.51351 -6.44347,23.91925 -6.44347,23.91925c0,0 -23.09454,19.02312 -26.3102,17.08115c-3.4717,-2.0966 -10.18913,-11.18003 -9.58471,-11.92055z" fill="#e1e2db" stroke-linecap="butt"/><path d="M330.46204,167.50662l19.98524,11.03853" fill="none" stroke-linecap="round"/></g><path d="M322.63212,179.67428l-9.31454,-24.27425l17.27206,-6.62765l9.31454,24.27425z" fill="#e1e2db" stroke-linecap="butt"/></g></g></g></svg>