<svg version="1.1" xmlns="http://www.w3.org/2000/svg" xmlns:xlink="http://www.w3.org/1999/xlink" width="286.38818" height="225.22225" viewBox="0,0,286.38818,225.22225"><defs><linearGradient x1="1077.66315" y1="216.06024" x2="1077.66315" y2="354.07604" gradientUnits="userSpaceOnUse" id="color-1"><stop offset="0" stop-color="#ffffff" stop-opacity="0.26046"/><stop offset="1" stop-color="#ffffff" stop-opacity="0"/></linearGradient><linearGradient x1="1077.66315" y1="216.06024" x2="1077.66315" y2="354.07604" gradientUnits="userSpaceOnUse" id="color-2"><stop offset="0" stop-color="#ffffff" stop-opacity="0.26046"/><stop offset="1" stop-color="#ffffff" stop-opacity="0"/></linearGradient><linearGradient x1="1077.66315" y1="216.06024" x2="1077.66315" y2="354.07604" gradientUnits="userSpaceOnUse" id="color-3"><stop offset="0" stop-color="#ffffff" stop-opacity="0.26046"/><stop offset="1" stop-color="#ffffff" stop-opacity="0"/></linearGradient><linearGradient x1="1036.02754" y1="220.12052" x2="1036.02754" y2="358.1363" gradientUnits="userSpaceOnUse" id="color-4"><stop offset="0" stop-color="#ffffff" stop-opacity="0.26046"/><stop offset="1" stop-color="#ffffff" stop-opacity="0"/></linearGradient><linearGradient x1="1036.02754" y1="220.12052" x2="1036.02754" y2="358.1363" gradientUnits="userSpaceOnUse" id="color-5"><stop offset="0" stop-color="#ffffff" stop-opacity="0.26046"/><stop offset="1" stop-color="#ffffff" stop-opacity="0"/></linearGradient><linearGradient x1="1036.02754" y1="220.12052" x2="1036.02754" y2="358.1363" gradientUnits="userSpaceOnUse" id="color-6"><stop offset="0" stop-color="#ffffff" stop-opacity="0.26046"/><stop offset="1" stop-color="#ffffff" stop-opacity="0"/></linearGradient><linearGradient x1="175.02347" y1="113.45147" x2="202.21106" y2="188.89036" gradientUnits="userSpaceOnUse" id="color-7"><stop offset="0" stop-color="#cedee0" stop-opacity="0"/><stop offset="1" stop-color="#cedee0" stop-opacity="0.19676"/></linearGradient></defs><g transform="translate(-115.45803,-65.46206)"><g data-paper-data="{&quot;isPaintingLayer&quot;:true}" fill-rule="nonzero" stroke-linejoin="miter" stroke-miterlimit="10" stroke-dasharray="" stroke-dashoffset="0" style="mix-blend-mode: normal"><path d="" fill="#3a2f41" stroke="none" stroke-width="0" stroke-linecap="butt"/><path d="" fill="#3a2f41" stroke="url(#color-1)" stroke-width="0.5" stroke-linecap="butt"/><path d="" fill="#3a2f41" stroke="url(#color-2)" stroke-width="0.5" stroke-linecap="butt"/><path d="" fill="#3a2f41" stroke="url(#color-3)" stroke-width="0.5" stroke-linecap="butt"/><path d="" data-paper-data="{&quot;index&quot;:null}" fill="#3a2f41" stroke="url(#color-4)" stroke-width="0.5" stroke-linecap="butt"/><path d="" data-paper-data="{&quot;index&quot;:null}" fill="#3a2f41" stroke="url(#color-5)" stroke-width="0.5" stroke-linecap="butt"/><path d="" data-paper-data="{&quot;index&quot;:null}" fill="#3a2f41" stroke="url(#color-6)" stroke-width="0.5" stroke-linecap="butt"/><g><path d="M206.89842,251.048l46.55234,-11.82538c0,0 7.89727,10.4027 12.9056,16.89953c1.49897,1.9445 2.73916,3.53911 3.43137,4.40024c1.49189,2.74848 3.46441,6.61865 5.72001,11.16915c-23.72829,5.79311 -47.42418,11.71347 -70.82358,17.51791c0.79708,-18.83587 2.21431,-38.16145 2.21431,-38.16145z" fill="#e1e2db" stroke="none" stroke-width="0" stroke-linecap="round"/><path d="M201.0463,278.21714c-0.18912,-14.67228 7.96017,-32.64797 7.96017,-32.64797l41.46209,-10.80231c0,0 8.04059,9.22216 10.77977,12.8579c1.89927,2.52093 4.07913,6.86442 4.07913,6.86442l-20.21147,24.274c-14.5715,3.60852 -29.08801,7.22599 -43.48776,10.7956c-0.32482,-4.80309 -0.55036,-8.89194 -0.58194,-11.34162z" fill="#8c9ca0" stroke="none" stroke-width="0" stroke-linecap="butt"/><path d="M202.76935,289.68431c-0.26234,-4.7289 -0.43552,-9.06475 -0.48304,-12.75029c-0.17012,-13.19204 6.82681,-30.96631 6.82681,-30.96631l41.22307,-10.27927c0,0 8.59441,7.10933 18.09681,23.82119c1.57761,2.77454 3.84872,7.103 6.50533,12.32091" fill="none" stroke="#3a2f41" stroke-width="2" stroke-linecap="round"/><path d="M255.56653,241.52395l-17.74485,15.28724l-30.71021,-2.74807" fill="none" stroke="#3a2f41" stroke-width="1.5" stroke-linecap="round"/></g><path d="M236.56484,250.88974c-8.28311,4.04566 -26.12982,1.71524 -26.12982,1.71524c0,0 -1.13359,-5.16781 -1.48197,-8.0926c-0.31737,-2.66438 -0.99166,-8.52138 -0.99166,-8.52138c0,0 -1.20699,-3.78192 -5.06444,-6.5237c-2.41677,-1.71778 -14.11132,-7.73701 -14.28326,-8.05671c-0.03306,-0.06146 -0.75011,-3.86859 -0.96008,-8.19368c-0.24371,-5.02028 3.0136,-14.89446 5.20211,-17.90651c2.38428,-3.28148 6.37173,-6.18178 9.76235,-7.71508c5.18179,-2.34331 10.95451,-3.91822 16.80007,-3.65265c2.20285,0.10007 6.60497,1.11183 6.60497,1.11183c0,0 8.77414,4.40493 15.17343,11.86361c1.10301,10.78049 -4.58822,18.21128 -4.58822,18.21128l2.09967,6.68386c0,0 4.06375,3.69933 5.90393,5.63473c1.834,1.92889 5.11875,5.95818 5.11875,5.95818c0,0 -4.88268,13.43797 -13.1658,17.48364z" fill="#3a2f41" stroke="#8c9ca0" stroke-width="1.5" stroke-linecap="round"/><g data-paper-data="{&quot;index&quot;:null}" stroke="#3a2f41" stroke-linecap="butt"><g data-paper-data="{&quot;index&quot;:null}"><g stroke-width="0"><path d="" fill="#e1e2db"/><path d="" fill="#e1e2db"/><path d="" fill="#8c9ca0"/></g><path d="M257.43318,276.86147l36.06325,-9.60207l1.69566,6.41059c-12.18968,2.48861 -24.39894,5.03382 -36.59164,7.60447z" fill="#e1e2db" stroke-width="0"/><path d="M257.43316,276.86147l36.06327,-9.60207l1.69564,6.41061c-12.18968,2.48861 -24.39893,5.03382 -36.59164,7.60447z" fill="#8c9ca0" stroke-width="0"/><path d="M283.63802,270.17002l9.95184,-2.64972l1.62541,6.145" fill="none" stroke-width="2"/><path d="M258.62356,281.26961l-1.09699,-4.14726l11.72526,-3.12191" fill="none" stroke-width="2"/></g><g data-paper-data="{&quot;index&quot;:null}"><path d="M253.3097,243.35979l-23.88364,-35.38861l2.40869,-16.29841c0,0 10.09955,7.97584 15.84656,13.32956c10.43534,9.72124 41.59704,40.18305 41.59704,40.18305l7.56706,28.14742c-12.77238,2.60256 -25.5681,5.26879 -38.34548,7.96289z" fill="#3a2f41" stroke-width="1.5"/><path d="" fill="#8ea8ab" stroke-width="2"/></g></g><g fill="#8c9ca0" stroke="#3a2f41" stroke-width="1.5" stroke-linecap="butt"><path d="M215.38386,202.23424c0.70844,1.70818 -0.16437,3.69309 -1.94948,4.43342c-1.78511,0.74033 -3.80651,-0.04423 -4.51496,-1.75241c-0.70844,-1.70818 0.16437,-3.69311 1.94949,-4.43345c1.78511,-0.74033 3.80651,0.04425 4.51496,1.75242z"/><path d="M219.82162,211.24335c0.73306,1.76753 -0.18539,3.82778 -2.0514,4.60168c-1.86601,0.77388 -3.97294,-0.03163 -4.70601,-1.79917c-0.73306,-1.76753 0.18538,-3.82776 2.05138,-4.60167c1.86601,-0.77388 3.97297,0.03162 4.70602,1.79915z"/></g><g><path d="M210.66325,183.27299c0.89188,1.84101 -2.21752,7.56313 -4.24096,8.5434c-2.02344,0.98027 -8.14638,0.17576 -9.03826,-1.66523c-0.89188,-1.84101 3.44148,-5.18974 5.46491,-6.17001c2.02343,-0.98027 6.92244,-2.54916 7.81433,-0.70814z" fill="#3a2f41" stroke="none" stroke-width="0" stroke-linecap="butt"/><g fill="#8c9ca0" stroke="#8c9ca0" stroke-width="1.5" stroke-linecap="butt"><path d="M194.2449,206.97247c-1.02489,-0.34377 2.20263,-17.36852 2.20263,-17.36852l9.48251,1.88418l4.51445,-9.41433c0,0 15.47979,8.03907 15.26922,8.99339c-0.11644,0.52767 -4.25936,0.38242 -8.97029,1.11934c-4.33359,0.67787 -9.27106,2.2623 -9.27106,2.2623c0,0 -4.28606,3.61901 -7.62826,6.91891c-3.05596,3.01726 -5.17184,5.74807 -5.59918,5.60475z"/></g><path d="M197.17807,191.10373l-0.38151,-1.95092l5.61672,-5.18311l7.5508,-1.83374l1.57621,1.41665" fill="none" stroke="#8c9ca0" stroke-width="2" stroke-linecap="round"/></g><path d="" fill="#3a2f41" stroke="#8c9ca0" stroke-width="2" stroke-linecap="butt"/><path d="" fill="#3a2f41" stroke="#8c9ca0" stroke-width="2" stroke-linecap="butt"/><g><g data-paper-data="{&quot;index&quot;:null}" stroke="#3a2f41" stroke-linecap="butt"><path d="M116.84369,145.02169l-0.59017,-13.22535l8.9958,2.52933l-8.4012,-6.60982l9.65215,-21.89044c0,0 7.86373,15.5368 18.88698,28.37162c3.40393,2.54787 -3.33642,10.88668 -3.33642,10.88668z" fill="#3a2f41" stroke-width="1.5"/><path d="M146.53155,140.60578c-2.37689,-0.78718 -4.39204,-19.86255 -2.64049,-24.71341c0.70848,-1.96206 18.29938,8.03551 17.3987,10.52989c-1.75155,4.85085 -11.23366,15.35075 -13.61054,14.56359z" data-paper-data="{&quot;index&quot;:null}" fill="#8c9ca0" stroke-width="2"/><path d="M147.32623,140.5242c2.16388,1.17003 -1.24083,16.55441 -4.01158,20.59137c-1.42477,2.07587 -19.71945,-6.88772 -18.59874,-8.5206c2.77073,-4.03694 19.40161,-13.80573 21.56549,-12.63569z" fill="#e1e2db" stroke-width="1.5"/><path d="M150.17559,135.71105c2.36919,1.99237 2.76194,5.42431 0.87724,7.66545c-1.88466,2.24112 -5.33314,2.44276 -7.70232,0.45035c-2.36919,-1.99237 -2.76194,-5.42431 -0.87724,-7.66544c1.88466,-2.24112 5.33315,-2.44275 7.70233,-0.45037z" fill="#e1e2db" stroke-width="2"/></g><path d="M241.73002,169.13826l-18.49966,4.43637l-3.50239,-9.59988c0,0 2.34498,10.18579 1.91244,10.21938c-5.17857,1.41089 -10.27755,2.88315 -15.13607,4.34098c-20.41062,6.12443 -36.57784,11.9948 -36.57784,11.9948c0,0 -10.16372,-8.78192 -13.88204,-19.0993c-2.59844,-7.20997 -6.89658,-21.75417 -0.70578,-36.51687c4.9929,-11.90619 18.40526,-19.8809 21.35119,-21.07989c2.35556,-0.95873 13.79003,-0.89114 21.80593,2.58866c13.34314,5.79245 32.12678,22.91636 32.12678,22.91636z" fill="#3a2f41" stroke="none" stroke-width="0" stroke-linecap="butt"/><g stroke-linecap="butt"><path d="M221.20022,145.72343c2.3022,6.38807 5.81841,11.5601 2.7406,17.32835c-2.99192,5.6073 -12.44825,10.5788 -22.53055,14.45677c-10.035,3.8598 -21.01168,5.22938 -26.98047,2.66341c-6.03843,-2.59588 -6.97554,-7.92058 -9.25879,-14.25607c-4.54018,-12.5979 -1.78362,-31.67187 21.97676,-39.44994c15.62971,-5.11648 29.5123,6.65951 34.05248,19.25745z" fill="#e1e2db" stroke="none" stroke-width="0"/><path d="M221.20022,145.72343c4.5402,12.5979 -9.74786,8.79531 -22.39955,13.46781c-12.64913,4.67158 -29.08952,19.32258 -33.6297,6.72468c-4.54018,-12.5979 -1.78362,-31.67187 21.97676,-39.44994c15.62971,-5.11648 29.5123,6.65953 34.05248,19.25745z" fill="#b8c1c0" stroke="none" stroke-width="0"/><path d="M191.72587,125.4281c13.70583,-1.74162 26.16453,8.09121 30.25576,19.44338l0.18192,0.50478c2.1536,5.97571 4.43766,11.50426 1.94426,16.97223c-2.76317,6.05954 -11.58442,10.89436 -22.33625,15.02988c-7.42785,2.857 -16.97559,4.77055 -22.14753,3.91082c-8.88409,-1.47681 -11.58338,-7.41077 -14.45299,-15.37328c-3.85376,-10.6932 -2.45037,-26.05226 12.59269,-35.20879" fill="none" stroke="#3a2f41" stroke-width="2"/></g><path d="M158.04511,191.22222l-11.00408,-3.58358c0,0 -10.066,-21.47634 -5.56421,-39.41515c5.8066,-23.13818 25.28186,-38.32656 49.00691,-40.81938c5.08244,-0.53402 18.27293,-0.84037 28.03905,4.60838c11.7319,6.54551 18.9631,17.64279 18.9631,17.64279l-4.89634,0.94235l4.34206,9.26651c0,0 -2.78106,0.26767 -2.87101,0.06995c-2.01502,-4.43019 -4.59267,-8.62035 -4.59267,-8.62035c0,0 2.04553,3.44719 3.56088,9.08554c-2.83653,0.46086 -18.19004,4.23361 -18.19004,4.23361l-3.49445,-3.38879l1.03218,3.98098l-13.2758,3.44712l-6.592,-13.99767l4.88498,14.17847c0,0 -11.53611,4.03658 -17.02285,6.24455c-0.387,0.15575 -4.07369,-5.408 -4.07369,-5.408c0,0 2.15434,6.41636 1.8632,6.52704c-3.44128,1.308 -7.98919,3.65195 -7.98919,3.65195c0,0 11.65755,32.14768 11.53592,32.20794c-1.89173,0.93761 -20.85785,0.84518 -21.3077,-0.49068c-0.64985,-1.92985 -5.74069,-12.27304 -5.74069,-12.27304z" fill="#3a2f41" stroke="url(#color-7)" stroke-width="0.5" stroke-linecap="butt"/><path d="M185.95603,120.89301c2.87918,-33.77207 25.18798,-53.92845 25.18798,-53.92845l7.97324,56.16452" fill="#3a2f41" stroke="#3a2f41" stroke-width="1.5" stroke-linecap="round"/><path d="M141.11034,159.12297c-5.03186,-47.692 15.21759,-85.17092 15.21759,-85.17092l22.38132,45.55329" fill="#3a2f41" stroke="#3a2f41" stroke-width="1.5" stroke-linecap="round"/><path d="M172.22142,170.11629c0,0 2.94322,-4.78857 10.11905,-7.32671c7.6028,-2.68914 12.93935,0.11859 12.93935,0.11859c0,0 -4.95317,1.34625 -11.93383,3.6257c-6.20305,2.02553 -11.12455,3.58242 -11.12455,3.58242z" fill="#e1e2db" stroke="#3a2f41" stroke-width="1" stroke-linecap="butt"/><path d="M190.37439,163.73939l-0.73501,-2.11004l0.08054,-0.02775l0.72742,2.11838z" data-paper-data="{&quot;index&quot;:null}" fill="#3a2f41" stroke="#3a2f41" stroke-width="0.5" stroke-linecap="butt"/><path d="M196.20798,160.85655c0.39288,-0.30926 0.70214,0.08364 0.70214,0.08364l0.17788,0.22738c0.80972,0.93934 1.23933,2.14138 0.28408,3.10017c0,0 -0.37404,0.33178 -0.70584,-0.04226c-0.3318,-0.37405 0.04226,-0.70584 0.04226,-0.70584c0.57681,-0.38321 0.0095,-1.27917 -0.36859,-1.68846l-0.21557,-0.27247c0,0 -0.30925,-0.39289 0.08363,-0.70214z" fill="#3a2f41" stroke="none" stroke-width="0.5" stroke-linecap="butt"/><path d="M184.89424,167.43454c0.3617,0.34519 0.01652,0.70691 0.01652,0.70691l-0.21978,0.21958c-2.1251,1.56764 -5.69159,2.95499 -8.30145,2.15225c0,0 -0.47791,-0.14699 -0.33091,-0.62489c0.14699,-0.47791 0.62489,-0.33091 0.62489,-0.33091c2.30215,0.70811 5.55132,-0.62178 7.41306,-2.00059l0.09077,-0.10582c0,0 0.34519,-0.36172 0.70691,-0.01652z" fill="#3a2f41" stroke="none" stroke-width="0.5" stroke-linecap="butt"/><path d="M195.8943,163.82306c0.45233,0.21309 0.23921,0.66541 0.23921,0.66541l-0.24602,0.38198c-2.54393,1.88019 -6.90204,3.47644 -10.06879,3.10494c0,0 -0.49649,-0.05911 -0.43736,-0.55562c0.05912,-0.49649 0.55563,-0.43736 0.55563,-0.43736c2.92357,0.35406 7.01493,-1.18523 9.35609,-2.91612l-0.06416,-0.00404c0,0 0.21309,-0.45233 0.66541,-0.23921z" fill="#3a2f41" stroke="none" stroke-width="0.5" stroke-linecap="butt"/><path d="M195.33454,160.92807c-0.21309,0.45233 -0.66541,0.23921 -0.66541,0.23921l0.00177,-0.00472c-0.53931,-0.18046 -1.05169,-0.07841 -1.62493,-0.18691c0,0 -0.49048,-0.09704 -0.39345,-0.58752c0.09704,-0.49047 0.58753,-0.39345 0.58753,-0.39345c0.61244,0.12793 1.11571,0.03563 1.72485,0.21208l0.13043,0.05591c0,0 0.45233,0.21308 0.23921,0.66541z" fill="#3a2f41" stroke="none" stroke-width="0.5" stroke-linecap="butt"/><path d="M175.76783,170.41441c0.22358,0.44722 -0.22365,0.67081 -0.22365,0.67081l-0.3968,0.17936c-0.68681,0.13757 -1.14828,0.14556 -1.83046,-0.00599c0,0 -0.4876,-0.11068 -0.37691,-0.59827c0.11068,-0.4876 0.59828,-0.37692 0.59828,-0.37692c0.55671,0.12967 0.84446,0.12022 1.40835,0.00152l0.15039,-0.09419c0,0 0.44722,-0.22358 0.67081,0.22364z" fill="#3a2f41" stroke="none" stroke-width="0.5" stroke-linecap="butt"/></g><g data-paper-data="{&quot;index&quot;:null}"><g><g fill="none" stroke="#8c9ca0" stroke-width="2" stroke-linecap="round"><path d="M297.56196,164.40404l-12.3551,-13.74923l-16.78628,13.7944l-9.87466,-13.85983l-18.02983,14.85328l-17.00029,-15.29821"/><path d="M223.15683,164.96239l18.03069,-15.10419l16.38015,15.32577l14.92836,-14.46405l12.35597,13.49819l12.13708,-14.08875"/></g><g stroke="none" stroke-width="0.78636"><path d="M195.58487,139.08668c6.65491,-0.11929 12.58977,1.96395 16.80058,5.42672c4.21183,3.46203 6.69959,8.30368 6.46246,13.69945c-0.23713,5.39575 -3.15463,10.33425 -7.67769,13.95281c-4.52209,3.61935 -10.64951,5.91875 -17.30443,6.03804c-6.65491,0.11929 -12.58977,-1.96395 -16.80056,-5.42673c-4.21181,-3.46202 -6.6997,-8.30357 -6.46258,-13.69932c0.23711,-5.39584 3.15476,-10.33425 7.67783,-13.95292c4.52209,-3.61935 10.64951,-5.91876 17.30442,-6.03805z" fill="#3a2f41" stroke-linecap="butt"/><path d="M215.21061,137.76482c2.58772,-0.04643 4.83114,2.24671 6.36308,5.98964c1.53207,3.74301 2.35479,8.93421 2.10199,14.68485c-0.25268,5.75052 -1.53333,10.97954 -3.39698,14.78334c-1.86378,3.80382 -4.31234,6.18104 -6.90007,6.22749c-2.58773,0.04634 -4.83105,-2.24681 -6.36309,-5.98974c-1.53194,-3.74302 -2.35466,-8.93421 -2.10198,-14.68485c0.25281,-5.75055 1.53345,-10.97945 3.39709,-14.78336c1.86364,-3.8038 4.31234,-6.18104 6.89994,-6.22738z" fill="#3a2f41" stroke-linecap="butt"/><path d="M202.05165,151.82122c2.15102,-0.03857 4.0361,1.38766 5.34363,3.72279c1.30865,2.33509 1.95725,6.01185 1.88056,9.17641c-0.07941,3.29179 -0.35747,6.91555 -2.38348,9.91301c-1.0763,1.60016 -3.74268,2.01901 -5.71701,2.66874c-1.86811,0.48984 -4.87056,1.95391 -5.63035,0.69307c-2.28565,-3.88102 -2.02038,-8.7846 -1.86359,-12.99526c0.11793,-3.15038 1.17456,-6.87258 2.69059,-9.25838c1.51501,-2.38575 3.52859,-3.88183 5.67967,-3.9204z" fill="#8c9ca0" stroke-linecap="round"/></g></g><path d="M376.31704,200.43602l-24.41523,1.67707l-2.76942,-59.98l24.41513,-1.67695z" fill="#3a2f41" stroke="none" stroke-width="0.78636" stroke-linecap="butt"/><path d="M356.31309,163.1652l-63.5247,4.36327l-0.98975,-21.43551l63.5247,-4.36327z" fill="#3a2f41" stroke="none" stroke-width="0.78636" stroke-linecap="butt"/><path d="M356.35015,202.28084l-8.59063,0.59001l-2.13376,-46.21403l8.59049,-0.59011z" fill="#8c9ca0" stroke="none" stroke-width="0.78636" stroke-linecap="butt"/><path d="M349.88243,163.99068l-56.96883,3.91291l-0.36322,-7.8662l56.96882,-3.91301z" fill="#8c9ca0" stroke="none" stroke-width="0.84105" stroke-linecap="butt"/></g><g stroke="#3a2f41" stroke-width="2"><g fill="#e1e2db"><path d="M367.1144,201.13582l3.82004,-26.7491l10.30688,24.68947z" stroke-linecap="round"/><path d="M372.40139,199.32578l1.48054,-24.0273l12.65962,25.69348z" stroke-linecap="round"/><path d="M307.23015,220.61899l2.19519,-4.22088l-12.4499,-0.08005l7.92646,-4.99532l-3.28053,-2.82101c0,0 22.42326,-5.46615 29.1778,-7.59885c4.32983,-1.36708 7.26059,-2.42821 7.26059,-2.42821l5.97271,-17.93971l27.85146,-5.85761c0,0 -19.68612,12.69446 -15.11753,15.69705c1.11973,0.73594 24.47062,1.26525 24.47062,1.26525l-8.61387,-17.40832l22.32545,25.24444c0,0 -13.39377,4.43503 -22.06055,6.19945c-8.66679,1.76442 20.73023,-5.68781 22.07952,-6.09928l-16.8298,10.5802c0,0 -13.4358,2.0266 -17.99911,3.00499c-13.31427,2.85457 -52.90854,7.4578 -52.90854,7.4578z" stroke-linecap="butt"/></g><g stroke-linecap="butt"><path d="M344.94237,223.03325l-39.40206,8.73998c0,0 -98.48794,-5.93844 -111.87828,-10.51323c-7.37439,-2.51946 -2.26503,-13.33805 -2.26503,-13.33805l96.09906,-6.36794l49.51247,-17.62163z" fill="#3a2f41"/><path d="M338.098,224.50673l-2.21523,0.32072l-9.41514,-37.00661l2.09167,-0.56466z" fill="#8ea8ab"/></g></g></g></g></svg>