<svg version="1.1" xmlns="http://www.w3.org/2000/svg" xmlns:xlink="http://www.w3.org/1999/xlink" width="88" height="118.0307" viewBox="0,0,88,118.0307"><g transform="translate(-190.25,-120.25)"><g data-paper-data="{&quot;isPaintingLayer&quot;:true}" fill-rule="nonzero" stroke-linejoin="miter" stroke-miterlimit="10" stroke-dasharray="" stroke-dashoffset="0" style="mix-blend-mode: normal"><path d="M244.5,236.75l-19,0.75l0.75,-46l18.5,-2z" fill="#3a2f41" stroke="#8c9ca0" stroke-width="1.5" stroke-linecap="round"/><path d="M191,173.5h86.5v40h-86.5z" fill="#3a2f41" stroke="#8c9ca0" stroke-width="1.5" stroke-linecap="butt"/><path d="M213.5,126.5l18,10.5l0.5,60l-1.5,-53l-33,2.5" fill="none" stroke="#3a2f41" stroke-width="2" stroke-linecap="round"/><path d="M231,198.5l1.5,-60.5l17,-10.5" fill="none" stroke="#3a2f41" stroke-width="2" stroke-linecap="round"/><path d="M230.5,199.5l2,-55l21.5,-2" fill="none" stroke="#3a2f41" stroke-width="2" stroke-linecap="round"/><path d="M257,138.5c1.242,0 2.367,0.504 3.181,1.319c0.815,0.814 1.319,1.939 1.319,3.181c0,1.242 -0.504,2.367 -1.319,3.181c-0.814,0.815 -1.939,1.319 -3.181,1.319c-1.242,0 -2.367,-0.504 -3.181,-1.319c-0.815,-0.814 -1.319,-1.939 -1.319,-3.181c0,-1.242 0.504,-2.367 1.319,-3.181c0.814,-0.815 1.939,-1.319 3.181,-1.319z" fill="#3a2f41" stroke="none" stroke-width="1" stroke-linecap="butt"/><path d="M251.5,122.25c1.242,0 2.367,0.504 3.181,1.319c0.815,0.814 1.319,1.939 1.319,3.181c0,1.242 -0.504,2.367 -1.319,3.181c-0.814,0.815 -1.939,1.319 -3.181,1.319c-1.242,0 -2.367,-0.504 -3.181,-1.319c-0.815,-0.814 -1.319,-1.939 -1.319,-3.181c0,-1.242 0.504,-2.367 1.319,-3.181c0.814,-0.815 1.939,-1.319 3.181,-1.319z" fill="#3a2f41" stroke="none" stroke-width="1" stroke-linecap="butt"/><path d="M212.5,120.25c1.242,0 2.367,0.504 3.181,1.319c0.815,0.814 1.319,1.939 1.319,3.181c0,1.242 -0.504,2.367 -1.319,3.181c-0.814,0.815 -1.939,1.319 -3.181,1.319c-1.242,0 -2.367,-0.504 -3.181,-1.319c-0.815,-0.814 -1.319,-1.939 -1.319,-3.181c0,-1.242 0.504,-2.367 1.319,-3.181c0.814,-0.815 1.939,-1.319 3.181,-1.319z" fill="#3a2f41" stroke="none" stroke-width="1" stroke-linecap="butt"/><path d="M195.5,140.25c1.242,0 2.367,0.504 3.181,1.319c0.815,0.814 1.319,1.939 1.319,3.181c0,1.242 -0.504,2.367 -1.319,3.181c-0.814,0.815 -1.939,1.319 -3.181,1.319c-1.242,0 -2.367,-0.504 -3.181,-1.319c-0.815,-0.814 -1.319,-1.939 -1.319,-3.181c0,-1.242 0.504,-2.367 1.319,-3.181c0.814,-0.815 1.939,-1.319 3.181,-1.319z" fill="#3a2f41" stroke="none" stroke-width="1" stroke-linecap="butt"/></g></g></svg>