<svg version="1.1" xmlns="http://www.w3.org/2000/svg" xmlns:xlink="http://www.w3.org/1999/xlink" width="435.61313" height="367.93513" viewBox="0,0,435.61313,367.93513"><defs><radialGradient cx="53.63696" cy="121.74504" r="62.07209" gradientUnits="userSpaceOnUse" id="color-1"><stop offset="0" stop-color="#b8c1c0"/><stop offset="1" stop-color="#b8c1c0" stop-opacity="0"/></radialGradient><linearGradient x1="-93.70527" y1="38.15513" x2="-11.32057" y2="38.15513" gradientUnits="userSpaceOnUse" id="color-2"><stop offset="0" stop-color="#e5e5e5"/><stop offset="1" stop-color="#e5e5e5" stop-opacity="0"/></linearGradient><linearGradient x1="-23.33026" y1="71.80003" x2="26.96013" y2="71.80003" gradientUnits="userSpaceOnUse" id="color-3"><stop offset="0" stop-color="#e5e5e5"/><stop offset="1" stop-color="#e5e5e5" stop-opacity="0"/></linearGradient><linearGradient x1="22.74273" y1="92.59793" x2="52.67844" y2="92.59793" gradientUnits="userSpaceOnUse" id="color-4"><stop offset="0" stop-color="#e5e5e5"/><stop offset="1" stop-color="#e5e5e5" stop-opacity="0"/></linearGradient></defs><g transform="translate(97.89432,-33.96607)"><g data-paper-data="{&quot;isPaintingLayer&quot;:true}" fill-rule="nonzero" stroke-miterlimit="10" stroke-dasharray="" stroke-dashoffset="0" style="mix-blend-mode: normal"><path d="M276.25516,196.93698c-0.41577,46.75165 41.41026,84.00208 40.64898,84.1467c-3.39084,1.49955 -36.42689,-23.17376 -51.16316,-45.37237c-5.96388,-8.98394 -36.87794,-31.42174 -43.74682,-47.92503c-5.62001,-13.50272 10.97103,-21.91151 19.35265,-25.10567c7.8485,-2.99099 35.13157,9.15539 34.90836,34.25636z" data-paper-data="{&quot;index&quot;:null}" fill="#3a2f41" stroke="#3a2f41" stroke-width="1.5" stroke-linecap="butt" stroke-linejoin="miter"/><path d="M269.37872,155.99602c-1.49903,11.95097 -20.28937,15.52021 -38.51057,14.07053c-1.50978,-0.12012 -0.55041,-24.0278 -2.02308,-24.21252c-4.00061,-0.5018 -10.45878,22.47424 -14.27375,21.44006c-14.53782,-3.94101 -26.36324,-11.59992 -25.07743,-21.85104c1.85724,-14.80687 17.44695,-25.73514 30.24211,-31.10072c7.17557,-3.00904 15.21986,-3.71914 15.21986,-3.71914c0,0 6.37014,2.28555 11.62183,6.10069c10.88183,7.90526 24.8706,22.57651 22.87553,38.4821z" fill="#3a2f41" stroke="#3a2f41" stroke-width="2" stroke-linecap="butt" stroke-linejoin="miter"/><path d="M226.21128,128.13889c2.21534,5.93668 -16.25951,17.28275 -30.97755,22.77497c-14.71805,5.49222 -32.03049,-7.14149 -32.33341,-13.48828c-0.2934,-0.48376 19.75681,3.70799 35.21589,-9.76967c15.45908,-13.47765 25.87971,-5.45371 28.09505,0.48296z" fill="#3a2f41" stroke="#3a2f41" stroke-width="1.5" stroke-linecap="butt" stroke-linejoin="miter"/><path d="M228.33887,128.82869c12.82245,14.50025 -8.45904,24.80293 -25.13149,34.63666c-22.65793,13.36406 -56.4331,7.16244 -59.44204,0.07173c-0.58954,-0.46274 32.38881,-6.26385 47.21768,-26.5142c14.82888,-20.25034 31.95275,-14.30426 37.35587,-8.19418z" fill="#3a2f41" stroke="#3a2f41" stroke-width="1.5" stroke-linecap="butt" stroke-linejoin="miter"/><path d="M265.66715,135.0604c11.65151,16.87817 32.11587,17.76821 31.71207,18.16453c-1.86105,6.07537 -21.7574,14.04194 -34.66306,5.08484c-12.90564,-8.95708 -28.00597,-24.51452 -24.39302,-29.72015c3.61294,-5.20564 15.69248,-10.40737 27.344,6.47082z" data-paper-data="{&quot;index&quot;:null}" fill="#3a2f41" stroke="#3a2f41" stroke-width="1.5" stroke-linecap="butt" stroke-linejoin="miter"/><path d="M270.82421,145.46498c9.36814,23.28542 39.89213,37.05171 39.20655,37.35452c-4.667,6.12789 -38.92752,3.79573 -57.58291,-14.75033c-13.72726,-13.6468 -31.80498,-28.88636 -15.79849,-39.77055c6.74477,-4.58637 24.80674,-6.11905 34.17489,17.16636z" data-paper-data="{&quot;index&quot;:null}" fill="#3a2f41" stroke="#3a2f41" stroke-width="1.5" stroke-linecap="butt" stroke-linejoin="miter"/><path d="M230.72916,144.20309c5.77011,6.52514 16.25334,21.30405 5.34627,30.8982c-13.3308,11.72617 -50.00716,18.21445 -59.17699,23.62298c-22.65793,13.36406 -62.1646,20.91858 -64.40568,18.09368c-0.58954,-0.46274 52.13352,-15.39579 72.80856,-57.32387c11.10044,-22.51116 40.02471,-21.40113 45.42781,-15.29103z" fill="#3a2f41" stroke="#3a2f41" stroke-width="1.5" stroke-linecap="butt" stroke-linejoin="miter"/><path d="M271.03934,168.08022c9.67932,45.73544 57.08098,73.22725 56.3954,73.53007c-2.86933,2.18389 -49.87468,-5.38137 -70.48612,-25.61817c-7.54999,-7.50572 -28.94333,-30.6729 -38.96507,-45.32822c-8.19964,-11.99073 5.60888,-23.72273 12.81181,-28.62062c6.74477,-4.58637 35.04716,1.4816 40.24398,26.03696z" data-paper-data="{&quot;index&quot;:null}" fill="#3a2f41" stroke="#3a2f41" stroke-width="1.5" stroke-linecap="butt" stroke-linejoin="miter"/><path d="M221.10537,156.93877c6.75455,5.25382 19.50479,17.51233 10.32508,27.92951c-11.21962,12.73207 -34.14566,41.18148 -42.29812,47.47344c-36.58984,21.91316 -73.77078,6.16883 -76.44174,3.85864c-0.65677,-0.34756 25.92719,-11.53133 37.97969,-35.88063c34.9219,-18.28278 64.11017,-48.30057 70.4351,-43.38094z" data-paper-data="{&quot;index&quot;:null}" fill="#3a2f41" stroke="#3a2f41" stroke-width="1.5" stroke-linecap="butt" stroke-linejoin="miter"/><path d="M280.71285,225.59024c1.65589,62.3506 57.21605,109.87226 56.24333,110.10405c-4.29247,2.17272 -35.77603,-7.67758 -55.77636,-36.51857c-8.09428,-11.67218 -61.09852,-61.35754 -70.70957,-83.00819c-7.86361,-17.71419 13.08886,-29.7739 23.72324,-34.46131c9.95796,-4.38926 45.63033,10.408 46.51939,43.88404z" data-paper-data="{&quot;index&quot;:null}" fill="#3a2f41" stroke="#3a2f41" stroke-width="1.5" stroke-linecap="butt" stroke-linejoin="miter"/><path d="M169.17837,300.48985c-1.52937,0.11138 -7.02579,-4.25184 -8.5399,-3.67425c-26.41777,10.07751 -62.60572,18.70097 -62.67556,18.00334c35.62833,-34.4375 27.3094,-54.86839 55.37016,-79.46434c8.9031,-5.17554 48.89326,-43.95331 64.91774,-49.53908c13.11098,-4.57019 17.14575,49.12943 19.46236,57.36715c2.16924,7.71374 -38.42595,31.86596 -68.53479,57.3072zM124.78902,285.88982c0.20653,0.0259 4.31752,-3.76295 8.66293,-10.89078c3.29273,-5.40113 6.40477,-13.47703 9.86451,-18.91414c5.00525,-7.86596 9.40567,-13.31674 9.43406,-13.54315c0,0 -6.03897,4.15894 -11.7106,12.19659c-3.56727,5.05544 -6.10931,11.69685 -9.13057,17.76039c-3.56221,7.14919 -7.30473,13.36799 -7.12035,13.39111z" data-paper-data="{&quot;index&quot;:null}" fill="#3a2f41" stroke="#3a2f41" stroke-width="1.5" stroke-linecap="butt" stroke-linejoin="miter"/><path d="M293.62818,306.15432c3.32035,33.97027 -25.49038,77.78696 -29.61064,80.76389c-4.54794,3.28592 0.31036,-41.09874 -27.9924,-72.39747c-22.64247,-25.03926 -5.85102,-68.88103 7.55219,-70.31432c13.40321,-1.43328 46.73052,27.97764 50.05085,61.9479zM274.18388,368.20768c5.56941,-9.17838 17.23523,-42.64584 16.41904,-55.99779c0,0 -2.74507,12.46003 -6.64615,25.69417c-4.36733,14.81581 -9.93567,30.57188 -9.77289,30.30362z" fill="#3a2f41" stroke="#3a2f41" stroke-width="1.5" stroke-linecap="butt" stroke-linejoin="miter"/><path d="M252.18004,338.62269c-17.90508,34.18725 -71.80393,62.23897 -78.17831,62.52681c-7.036,0.31771 15.43849,-43.69006 4.43689,-90.68598c-8.80138,-37.59713 42.95832,-68.06582 58.46692,-61.19392c15.50859,6.87191 33.17959,55.16581 15.27451,89.35309z" fill="#3a2f41" stroke="#3a2f41" stroke-width="1.5" stroke-linecap="butt" stroke-linejoin="miter"/><path d="M202.54729,319.37989c-23.44969,29.52434 -73.5801,50.48192 -79.36381,49.399c-1.49268,0.14092 23.93894,-42.52916 24.20663,-90.7347c0.21417,-38.56484 48.29377,-59.13258 60.73104,-49.11001c12.43726,10.02257 17.87582,60.92139 -5.57385,90.44572z" fill="#3a2f41" stroke="#3a2f41" stroke-width="1.5" stroke-linecap="butt" stroke-linejoin="miter"/><path d="M197.15167,113.96719c2.77705,-8.15971 7.27913,-18.09189 11.82215,-27.32021c1.40647,-0.01163 3.67976,-0.03045 4.93183,-0.04082l-0.01334,-1.61339c-0.88284,0.0073 -3.31931,0.02747 -4.20215,0.03479c0.16017,-0.32118 0.67431,-1.18203 0.83417,-1.50089c1.18302,-0.00978 2.51529,-0.02083 3.50498,-0.02902l-0.01335,-1.61339c-0.59004,0.00487 -1.89716,0.01571 -2.48719,0.02059c6.62037,-13.05008 21.12323,-31.82277 20.31621,-26.91822c-0.80703,4.90454 -5.27877,71.89213 -5.27877,71.89213c0,0 -36.51291,20.67827 -37.13201,9.31539z" data-paper-data="{&quot;index&quot;:null}" fill="#3a2f41" stroke="#3a2f41" stroke-width="0.5" stroke-linecap="butt" stroke-linejoin="miter"/><path d="M268.24372,148.06601c-4.88581,10.2775 -30.81727,-22.71254 -30.81727,-22.71254c0,0 21.28957,-63.67171 22.40458,-68.51554c1.115,-4.84385 11.48401,38.82012 9.70951,67.73519z" data-paper-data="{&quot;index&quot;:null}" fill="#3a2f41" stroke="#3a2f41" stroke-width="0.5" stroke-linecap="butt" stroke-linejoin="miter"/><path d="M247.09822,204.36285c-1.96533,6.99479 -9.37768,17.69042 -9.37768,17.69042l-32.01938,-4.53587c0,0 -8.24788,-18.20443 -4.09463,-30.52131c1.6304,-4.83515 14.55433,-10.04921 20.61327,-9.26013c3.76206,0.48993 10.5655,0.43144 16.04168,3.08974c0,0 8.03403,4.31511 9.64167,8.506c2.51029,6.54397 -0.80495,15.03116 -0.80495,15.03116z" fill="#3a2f41" stroke="#8c9ca0" stroke-width="2" stroke-linecap="round" stroke-linejoin="miter"/><g data-paper-data="{&quot;index&quot;:null}" stroke-linejoin="miter"><g stroke-linecap="butt"><path d="M132.62934,175.42796c0.33781,-1.83893 7.67877,-4.25462 7.67877,-4.25462l42.04027,11.45381l-2.3762,14.64393l-47.26961,-12.52508z" data-paper-data="{&quot;index&quot;:null}" fill="#e1e2db" stroke="none" stroke-width="0"/><path d="M174.37361,180.24343c2.84272,0.64229 8.08104,1.9872 8.08104,1.9872l-2.71878,15.19354l-8.84795,-2.31256c0,0 -2.82403,-5.21743 -2.0513,-8.51351c0.77273,-3.29607 5.53699,-6.35469 5.53699,-6.35469z" data-paper-data="{&quot;index&quot;:null}" fill="#8c9ca0" stroke="none" stroke-width="0"/><path d="M133.27597,184.85078c0,0 -0.57032,-7.21112 -0.19104,-9.27596c0.42483,-2.31269 4.40673,-5.40194 4.40673,-5.40194l44.59161,12.2604l-2.3762,14.64393z" data-paper-data="{&quot;index&quot;:null}" fill="none" stroke="#3a2f41" stroke-width="2.5"/></g><g stroke="#8c9ca0" stroke-width="2" stroke-linecap="round"><path d="M219.04666,196.60084c0,0 -5.58463,8.25959 -14.67908,7.70024c-10.96058,-0.67413 -26.30183,-4.56079 -26.30183,-4.56079c0,0 -4.36289,-5.39173 -2.17469,-12.83854c2.18822,-7.44681 9.05833,-10.78466 9.05833,-10.78466l20.71506,6.8254" fill="#3a2f41"/><path d="M183.30733,200.34821c0,0 -3.57313,-5.19767 -1.50435,-12.17013c1.99243,-6.71518 8.49999,-9.75751 8.49999,-9.75751" fill="none"/></g></g><path d="M70.46844,163.98671l23.59471,-20.66565l-11.13154,22.84966z" fill="#3a2f41" stroke-opacity="0.07705" stroke="#ffffff" stroke-width="2" stroke-linecap="round" stroke-linejoin="miter"/><g data-paper-data="{&quot;index&quot;:null}" stroke-linejoin="miter"><g stroke-linecap="butt"><path d="M262.26666,270.55688c-1.79654,0.51789 -7.23296,-4.97489 -7.23296,-4.97489l-8.50029,-42.73543l14.16639,-4.40502l9.87398,47.8936z" data-paper-data="{&quot;index&quot;:null}" fill="#e1e2db" stroke="none" stroke-width="0"/><path d="M256.11427,233.16858c-3.29469,0.77858 -8.15725,-2.12123 -8.15725,-2.12123c-0.69309,-2.83076 -1.82588,-8.11901 -1.82588,-8.11901l14.81111,-4.34358l1.87677,8.95052c0,0 -3.41006,4.85473 -6.70476,5.6333z" data-paper-data="{&quot;index&quot;:null}" fill="#8c9ca0" stroke="none" stroke-width="0"/><path d="M270.41177,265.77518c0,0 -6.19966,3.72688 -8.21689,4.3084c-2.25939,0.65133 -6.80039,-1.53463 -6.80039,-1.53463l-8.91637,-45.37872l14.1664,-4.40503z" data-paper-data="{&quot;index&quot;:null}" fill="none" stroke="#3a2f41" stroke-width="2.5"/></g><g stroke="#8c9ca0" stroke-width="2" stroke-linecap="round"><path d="M242.67125,183.76829c0,0 9.88341,1.31422 13.43925,9.70336c4.2855,10.11055 7.64967,25.57481 7.64967,25.57481c0,0 -2.87967,6.30976 -10.52069,7.67286c-7.64101,1.36309 -13.69279,-3.29695 -13.69279,-3.29695l-3.1309,-21.58464" fill="#3a2f41"/><path d="M261.96626,214.08397c0,0 -3.05823,5.51635 -10.22145,6.77478c-6.89888,1.21198 -12.52442,-3.25535 -12.52442,-3.25535" fill="none"/></g></g><g stroke-linejoin="miter"><path d="M234.21394,176.71351c-0.2246,1.79061 -5.27426,4.53037 -7.24229,4.28353c-1.96804,-0.24685 -6.11175,-3.78375 -5.88715,-5.57435c0.2246,-1.79061 5.0396,-2.18636 7.00763,-1.93951c1.96804,0.24685 6.34642,1.43974 6.12181,3.23032z" fill="#3a2f41" stroke="none" stroke-width="0" stroke-linecap="butt"/><g fill="#8c9ca0" stroke="#8c9ca0" stroke-width="1.5" stroke-linecap="butt"><path d="M210.68044,186.3602c-0.59315,-0.74673 9.97407,-11.79231 9.97407,-11.79231l6.11063,5.94977l7.86308,-4.79652c0,0 7.59085,13.38491 6.97656,13.98981c-0.33966,0.33447 -3.33511,-1.76339 -7.17464,-3.48146c-3.53198,-1.58045 -7.9463,-2.78031 -7.9463,-2.78031c0,0 -4.90984,0.61843 -8.96802,1.45424c-3.71064,0.76422 -6.58809,1.76813 -6.8354,1.45677z"/></g><path d="M220.47448,176.02853l0.65499,-1.62673l6.64581,-1.13637l6.46763,2.27091l0.48559,1.8054" fill="none" stroke="#8c9ca0" stroke-width="1.5" stroke-linecap="round"/></g><g><path d="M92.72549,126.60839l-8.00259,-0.37919l2.71317,-8.05394l-8.4228,-2.46159l-21.8037,0.73266l-4.72411,5.36139l-2.76202,-9.001l4.52421,-11.20218l4.88998,6.61468l44.08289,4.60933l4.46935,-5.33112l4.71071,1.03803l2.99603,8.70652l-3.34674,6.53002l-6.92127,0.29179l-2.98217,-5.24264l-9.53137,-0.19686z" fill="#3a2f41" stroke="url(#color-1)" stroke-width="1.5" stroke-linecap="round" stroke-linejoin="round"/><path d="M81.76939,124.73964l12.73355,0.71708l-3.44125,40.88149l-12.73356,-0.71708z" fill="#3a2f41" stroke="#8c9ca0" stroke-width="1.5" stroke-linecap="butt" stroke-linejoin="miter"/><g fill="none" stroke="none" stroke-width="1" stroke-linecap="butt" stroke-linejoin="miter" font-family="sans-serif" font-weight="normal" font-size="12" text-anchor="start"><g/><g/><g/><g/></g></g><g fill="#3a2f41" stroke-linejoin="miter"><path d="M235.34722,221.49345l-1.41671,7.95829c0,0 1.03167,3.43287 1.88444,8.31401c0.83869,4.80062 0.78006,8.35536 0.78006,8.35536c0,0 -3.23316,1.83908 -7.11336,3.28589c-3.98749,1.48683 -8.66056,2.57738 -11.38061,2.19001c-2.33567,-0.33265 -6.27463,-2.30468 -9.53101,-4.31662c-3.92366,-2.42423 -7.00151,-4.92456 -7.00151,-4.92456c0,0 0.66825,-3.9058 2.81542,-9.11887c1.70649,-4.14316 2.96595,-6.89292 2.96595,-6.89292c0,0 1.17175,-8.82578 1.16035,-8.8337" stroke="#8c9ca0" stroke-width="1.5" stroke-linecap="round"/><path d="M244.63115,192.76017c6.40754,9.87019 7.55608,20.90056 7.55608,20.90056c0,0 -7.91913,8.39035 -18.0112,13.00979l-26.09294,-3.40371c-12.62444,-8.86615 -14.23497,-16.55169 -14.23497,-16.55169c0,0 3.76212,-9.52166 12.10983,-17.76534" stroke="#8c9ca0" stroke-width="1.5" stroke-linecap="round"/><path d="M207.68156,227.49738l1.19288,-9.51035l25.70364,3.22403l-1.19289,9.51035z" stroke="none" stroke-width="0" stroke-linecap="butt"/></g><path d="M228.98614,197.5068c-0.26709,2.12935 -2.24575,3.63452 -4.41948,3.36186c-2.17371,-0.27266 -3.71936,-2.21987 -3.45227,-4.34922c0.26709,-2.12935 2.24576,-3.63452 4.41948,-3.36187c2.17371,0.27266 3.71935,2.21986 3.45226,4.34922z" fill="#8c9ca0" stroke="#3a2f41" stroke-width="1" stroke-linecap="butt" stroke-linejoin="miter"/><path d="M227.837,207.96906c-0.26709,2.12935 -2.24576,3.63451 -4.41948,3.36186c-2.17371,-0.27266 -3.71936,-2.21987 -3.45227,-4.34922c0.26709,-2.12935 2.24576,-3.63452 4.41949,-3.36187c2.17371,0.27266 3.71934,2.21988 3.45226,4.34923z" fill="#8c9ca0" stroke="#3a2f41" stroke-width="1" stroke-linecap="butt" stroke-linejoin="miter"/><path d="M267.51372,149.33186c-1.35383,10.79335 -18.32408,14.01686 -34.78032,12.70763c-1.36354,-0.10849 -0.49707,-21.70038 -1.8271,-21.86721c-3.6131,-0.4532 -9.44571,20.2973 -12.89114,19.36329c-13.12964,-3.55928 -23.80959,-10.47629 -22.64833,-19.73447c1.67735,-13.37263 15.75698,-23.24236 27.31276,-28.08819c6.48054,-2.71758 13.74562,-3.35888 13.74562,-3.35888c0,0 5.75313,2.06416 10.49608,5.50976c9.82779,7.13953 22.46154,20.38965 20.65974,34.75457z" fill="#3a2f41" stroke="none" stroke-width="0" stroke-linecap="butt" stroke-linejoin="miter"/><path d="M263.61974,151.997c-2.89459,18.99652 -15.05545,25.47526 -15.05545,25.47526c0,0 4.22966,-16.40021 4.42505,-30.83595" data-paper-data="{&quot;index&quot;:null}" fill="#3a2f41" stroke="#b8c1c0" stroke-width="2" stroke-linecap="round" stroke-linejoin="miter"/><path d="M257.02216,166.476c-2.08533,2.56068 7.1607,-24.43382 7.70987,-24.45187c0.69877,-0.02298 1.45616,3.60393 1.69172,8.10091c0.23554,4.49697 -7.15237,16.67595 -6.94157,16.09562c2.82582,-5.0099 4.63383,-11.10141 4.39829,-15.59838c-0.05043,-0.96272 -2.13991,10.05981 -6.85829,15.85373z" data-paper-data="{&quot;index&quot;:null}" fill="#3a2f41" stroke="none" stroke-width="0" stroke-linecap="butt" stroke-linejoin="miter"/><path d="M212.36839,140.53613c-2.79793,11.92367 -4.42858,31.29094 -4.42858,31.29094c0,0 -10.57797,-8.28252 -9.91176,-29.87717" fill="#3a2f41" stroke="#b8c1c0" stroke-width="2" stroke-linecap="round" stroke-linejoin="miter"/><path d="M197.83466,142.33144c-0.55119,4.39434 0.36754,10.45661 1.10916,15.6179c0.08314,0.57858 -3.27132,-11.42563 -2.72015,-15.81997c0.55119,-4.39434 1.35863,-7.91143 1.8035,-7.85563c0.34963,0.04385 3.78574,26.52118 2.6801,23.91317c-2.50168,-5.901 -2.75463,-16.79622 -2.87263,-15.85547z" fill="#3a2f41" stroke="none" stroke-width="0" stroke-linecap="butt" stroke-linejoin="miter"/><g stroke-linecap="butt" stroke-linejoin="miter"><path d="M256.25622,150.56268c-0.65836,5.24876 -1.63415,9.8826 -6.19487,12.75189c-4.43345,2.78922 -11.88371,3.0096 -21.11319,2.03247c-9.18618,-0.97255 -16.7936,-4.05467 -20.4088,-7.99236c-3.65738,-3.9836 -3.70952,-7.95506 -3.0566,-13.16058c1.29834,-10.35103 10.67157,-22.53031 31.90465,-19.28721c13.96723,2.13332 20.16717,15.30473 18.86882,25.65579z" fill="#e1e2db" stroke="none" stroke-width="0"/><path d="M256.82439,152.53766c-1.25638,6.11376 -11.38339,0.35256 -22.89121,-1.00747c-11.50552,-1.35974 -29.72187,2.80077 -28.42353,-7.55028c1.29834,-10.35103 10.67157,-22.53031 31.90465,-19.28721c13.96723,2.13332 20.99055,15.24483 19.69222,25.59588z" fill="#b8c1c0" stroke="none" stroke-width="0"/><path d="M241.51752,125.87702c9.75362,3.27966 15.34431,9.61691 15.4116,19.08293c0.01708,2.403 -0.1278,7.36394 -0.80904,9.8858c-0.98793,3.65718 -1.30469,5.61249 -4.4445,7.86988c-4.42949,3.18465 -12.34347,3.74131 -22.18585,2.6993c-6.79957,-0.71987 -14.37154,-3.0154 -18.02262,-5.48516c-6.27167,-4.24241 -6.55045,-9.48778 -5.72982,-16.03014c1.10205,-8.78605 7.98155,-18.568 23.03379,-19.43891" fill="none" stroke="#3a2f41" stroke-width="2"/></g><path d="M266.15518,145.3563c-2.69478,1.19855 -4.5488,3.84565 -7.65716,3.58717c-7.78139,-0.64712 -15.50987,-4.76731 -19.2838,-10.18638c-5.39168,-7.08943 -2.66836,-18.29777 -0.11824,-20.31347c2.58951,-2.04684 10.44606,1.74086 16.10499,8.9001z" data-paper-data="{&quot;index&quot;:null}" fill="#3a2f41" stroke="none" stroke-width="0" stroke-linecap="butt" stroke-linejoin="miter"/><path d="M239.86101,120.80462c2.01636,4.62809 -6.06867,14.6726 -15.90335,18.95736c-3.88186,1.69124 -11.75562,2.98502 -12.86087,3.51263c-0.91984,0.43912 -6.71076,1.27021 -6.3969,2.65848c0.87488,3.8701 -2.1582,-5.00512 -3.13971,-7.25793c-2.01636,-4.62809 4.32165,-11.85336 14.15632,-16.13813c9.83468,-4.28473 22.12813,-6.36051 24.14451,-1.73241z" fill="#3a2f41" stroke="none" stroke-width="0" stroke-linecap="butt" stroke-linejoin="miter"/><path d="M243.38091,135.42083c-3.48409,9.88645 -15.54143,17.02695 -26.56202,15.45349c-0.24124,-0.0483 9.88592,-6.99323 11.25959,-17.94476c0.91021,-7.25663 6.29959,-11.98395 9.79947,-11.54496c3.44502,0.43211 6.28906,6.10575 5.4856,13.21604c-0.01281,0.11325 0.05544,0.71208 0.01735,0.82022z" data-paper-data="{&quot;index&quot;:null}" fill="#3a2f41" stroke="none" stroke-width="0" stroke-linecap="butt" stroke-linejoin="miter"/><path d="M233.32183,134.34372c-8.43926,9.88958 -22.80588,11.28151 -26.05025,11.43361c-3.24437,0.15212 -2.16993,-2.87096 -2.20914,-3.70712c-0.03922,-0.83618 3.40596,-9.68987 6.65033,-9.84198c3.24437,-0.15211 21.56988,1.27933 21.60908,2.1155z" fill="#3a2f41" stroke="none" stroke-width="0" stroke-linecap="butt" stroke-linejoin="miter"/><g stroke="#3a2f41" stroke-linecap="butt" stroke-linejoin="miter"><path d="M208.01676,147.69044c0,0 3.84747,-2.61608 9.72223,-1.49247c6.22431,1.19046 8.7796,5.74601 8.7796,5.74601c0,0 -3.89423,-1.05082 -9.53403,-2.27252c-5.01154,-1.08561 -8.9678,-1.981 -8.9678,-1.981z" fill="#e1e2db" stroke-width="1"/><g fill="#3a2f41" stroke-width="0.5"><path d="M211.76941,148.47123l0.48403,-2.46528l0.63067,0.12764l-0.44043,2.74596z"/></g></g><path d="M261.63442,148.18328c0,0 -5.7599,5.70321 -16.48017,0.0823c-5.72288,-3.00065 -7.54974,-11.4466 -7.09649,-15.06011c0,0 1.6247,10.09139 9.82021,13.78844c6.20526,2.79926 11.49759,1.2766 13.1629,0.88955c0.35145,-0.08169 0.59355,0.29983 0.59355,0.29983z" fill="#3a2f41" stroke="none" stroke-width="0" stroke-linecap="butt" stroke-linejoin="miter"/><path d="M244.76163,157.50725c0,0 -0.1192,2.15698 -0.40562,2.66704c-0.15175,0.27023 -0.31372,0.50567 -0.45399,0.59334c-0.42896,0.26818 -0.96335,0.56421 -1.34541,0.6459c-0.5741,0.12281 -1.1959,0.23386 -1.59596,0.24132c-1.00589,0.01883 -2.12922,-0.01842 -2.60303,-0.11627c-1.22794,-0.25362 -2.76879,-0.6216 -3.23854,-0.76062c-1.05384,-0.31187 -2.34557,-0.6977 -2.73327,-0.82886c-0.83543,-0.28252 -2.36799,-1.37561 -2.64405,-1.33499c-0.42638,0.06266 -1.69871,0.6971 -2.04752,0.7545c-1.25085,0.20588 -2.83961,0.46402 -3.33247,0.52905c-0.89064,0.1175 -1.9633,0.32942 -2.53653,0.23532c-1.12539,-0.18474 -2.75524,-0.44694 -4.00869,-0.7368c-0.91514,-0.21159 -1.62727,-0.5764 -1.72296,-0.70442c-0.16424,-0.21987 -0.80498,-0.76725 -0.96092,-1.29278c-0.25145,-0.84742 0.21429,-2.94027 0.21429,-2.94027" fill="none" stroke="#3b3045" stroke-width="1" stroke-linecap="round" stroke-linejoin="miter"/><path d="M228.85783,151.76977l-16.17922,-9.57016" fill="none" stroke="#3a2f41" stroke-width="1" stroke-linecap="round" stroke-linejoin="miter"/><path d="M68.40949,161.13617l13.43819,-25.09014l-1.48547,24.8147z" fill="#3a2f41" stroke-opacity="0.08512" stroke="#ffffff" stroke-width="2" stroke-linecap="round" stroke-linejoin="miter"/><path d="M140.68746,187.7803l-57.60009,-9.70559l-16.09592,-8.99191l-6.44653,-14.86223l13.74283,13.58081l-14.45883,-13.69481l21.21005,-20.1684l-8.34464,18.18054l19.63482,0.24263l0.91625,-7.47514l0.85628,-14.08713l5.712,10.2287l8.81862,19.0298c0,0 2.37487,1.28051 5.94577,2.93313c5.57069,2.57813 29.13664,7.39965 29.13664,7.39965l-4.58047,2.50298l3.08146,4.59091l-7.24133,-0.26063l6.70822,5.73248l-7.33223,-1.06801z" fill="#3a2f41" stroke-opacity="0.08254" stroke="#ffffff" stroke-width="1.5" stroke-linecap="butt" stroke-linejoin="miter"/><g fill="none" stroke-linecap="round" stroke-linejoin="round"><path d="M-52.51297,38.15513c11.3649,0 21.663,9.9351 29.1195,25.9875c7.4565,16.0511 12.0729,38.2181 12.0729,62.6808c0,24.4626 -4.6164,46.6297 -12.0729,62.6808c-7.4565,16.0524 -17.7546,25.9874 -29.1195,25.9874c-11.3649,0 -21.663,-9.935 -29.1195,-25.9874c-7.4565,-16.0511 -12.0728,-38.2182 -12.0728,-62.6808c0,-24.4627 4.6163,-46.6297 12.0728,-62.6808c7.4565,-16.0524 17.7546,-25.9875 29.1195,-25.9875z" stroke="url(#color-2)" stroke-width="8.37811"/><path d="M1.81493,71.80003c6.9375,0 13.2238,6.0647 17.7756,15.8636c4.5517,9.7981 7.3696,23.3297 7.3696,38.2625c0,14.9329 -2.8179,28.4645 -7.3696,38.2626c-4.5518,9.7989 -10.8381,15.8636 -17.7756,15.8636c-6.9375,0 -13.2238,-6.0647 -17.7755,-15.8636c-4.5518,-9.7981 -7.36969,-23.3297 -7.36969,-38.2626c0,-14.9328 2.8179,-28.4644 7.36969,-38.2625c4.5517,-9.7989 10.838,-15.8636 17.7755,-15.8636z" stroke="url(#color-3)" stroke-width="5.11429"/><path d="M37.71053,92.59793c4.1296,0 7.8716,3.6101 10.581,9.443c2.7095,5.8324 4.3869,13.8871 4.3869,22.776c0,8.8889 -1.67741,16.9436 -4.3869,22.776c-2.7094,5.8329 -6.4514,9.443 -10.581,9.443c-4.1296,0 -7.87159,-3.6101 -10.58099,-9.443c-2.7094,-5.8324 -4.38681,-13.8871 -4.38681,-22.776c0,-8.8889 1.67741,-16.9436 4.38681,-22.776c2.7094,-5.8329 6.45139,-9.443 10.58099,-9.443z" stroke="url(#color-4)" stroke-width="3.04432"/></g></g></g></svg>