<svg version="1.1" xmlns="http://www.w3.org/2000/svg" xmlns:xlink="http://www.w3.org/1999/xlink" width="64.5" height="64.5" viewBox="0,0,64.5,64.5"><defs><linearGradient x1="212" y1="151" x2="212" y2="215.5" gradientUnits="userSpaceOnUse" id="color-1"><stop offset="0" stop-color="#ffffff"/><stop offset="1" stop-color="#e5e5e5"/></linearGradient><linearGradient x1="258.53865" y1="195.4421" x2="267.60215" y2="203.53826" gradientUnits="userSpaceOnUse" id="color-2"><stop offset="0" stop-color="#8c9ca0"/><stop offset="1" stop-color="#3a2f41"/></linearGradient></defs><g transform="translate(-212,-151)"><g data-paper-data="{&quot;isPaintingLayer&quot;:true}" fill-rule="nonzero" stroke-linejoin="miter" stroke-miterlimit="10" stroke-dasharray="" stroke-dashoffset="0" style="mix-blend-mode: normal"><path d="M244.25,151c8.898,0 16.96,3.614 22.798,9.452c5.838,5.838 9.452,13.9 9.452,22.798c0,8.898 -3.614,16.96 -9.452,22.798c-5.838,5.838 -13.9,9.452 -22.798,9.452c-8.898,0 -16.96,-3.614 -22.798,-9.452c-5.838,-5.838 -9.452,-13.9 -9.452,-22.798c0,-8.898 3.614,-16.96 9.452,-22.798c5.838,-5.838 13.9,-9.452 22.798,-9.452z" fill="url(#color-1)" stroke="none" stroke-width="1" stroke-linecap="butt"/><g><g stroke-linecap="butt"><path d="M258.92064,197.49998l-1.64831,2.18878l-19.27329,-15.59524l2.57484,-2.74564z" fill="#e1e2db" stroke="none" stroke-width="0"/><path d="M248.69617,192.79875l-10.69711,-8.70523l2.57483,-2.74564l6.11983,5.38777z" fill="#8c9ca0" stroke="none" stroke-width="0"/><path d="M258.8688,197.38305l-1.64831,2.18879l-19.27329,-15.59525l2.57484,-2.74565z" fill="none" stroke="#3a2f41" stroke-width="0.5"/></g><g stroke="#3a2f41" stroke-width="0.5"><path d="M249.46797,191.81687c-0.69989,2.46499 -3.07789,2.70183 -3.07789,2.70183l-24.54937,-20.88376l-4.30919,-5.82511l6.98023,2.90237c0,0 24.99777,20.95829 24.95621,21.10468z" fill="#e1e2db" stroke-linecap="butt"/><path d="M220.02294,168.99038l0.40152,1.09265l-1.14433,0.02797l-1.35586,-1.9528z" fill="#3a2f41" stroke-linecap="round"/><path d="M246.17237,189.18411c0,0 -0.84921,1.89713 -3.14481,2.51972" fill="none" stroke-linecap="round"/><path d="M245.51441,188.5618c0,0 -0.84921,1.89713 -3.14481,2.51972" fill="none" stroke-linecap="round"/><path d="M222.26822,173.85641l-0.10003,-0.83618l1.63997,-0.16965l0.1087,-1.59745l1.1874,0.00867" fill="none" stroke-linecap="round"/></g><path d="M243.98694,183.86151l-2.96087,6.6063l-4.66206,-3.88426l3.20543,-6.49768z" fill="#3a2f41" stroke="#3a2f41" stroke-width="0.5" stroke-linecap="butt"/><g><g><path d="M236.04782,167.28995l-1.06325,1.00847l-6.44355,-7.6704z" fill="#e1e2db" stroke="#3a2f41" stroke-width="0.5" stroke-linecap="butt"/><path d="M228.39759,160.75936l-1.51712,-1.80074l1.80606,1.52298z" fill="#16121a" stroke="#16121a" stroke-width="0" stroke-linecap="round"/></g><path d="M262.25949,193.17863l-2.12651,2.01695l-25.93985,-26.72254l0.28562,-1.57782l2.82226,-0.65709z" fill="#e1e2db" stroke="#3a2f41" stroke-width="0.5" stroke-linecap="butt"/><path d="M236.06947,170.50699l0.48014,-1.24747l2.57961,-0.70415" fill="none" stroke="#3a2f41" stroke-width="0.5" stroke-linecap="round"/><path d="M239.43322,173.96994l1.74353,0.16805l14.03096,15.12713l-0.18182,0.7269" fill="none" stroke="#3a2f41" stroke-width="0.5" stroke-linecap="round"/></g><g stroke-linecap="butt"><path d="M255.26292,199.10926l6.55148,-7.33428l8.21128,9.05019l-5.21988,5.84357z" fill="#3a2f41" stroke="url(#color-2)" stroke-width="0.5"/><path d="M260.08601,197.88324c-0.22898,-0.49628 -0.01229,-1.08421 0.48398,-1.3132c0.49628,-0.22898 1.08421,-0.0123 1.31319,0.48398c0.22898,0.49628 0.01229,1.08421 -0.48398,1.3132c-0.49628,0.22898 -1.08421,0.01229 -1.3132,-0.48398z" fill="#8c9ca0" stroke="none" stroke-width="0"/></g></g></g></g></svg>