<svg version="1.1" xmlns="http://www.w3.org/2000/svg" xmlns:xlink="http://www.w3.org/1999/xlink" width="185.59276" height="220.0669" viewBox="0,0,185.59276,220.0669"><defs><linearGradient x1="243.82208" y1="110.1114" x2="250.53137" y2="167.28596" gradientUnits="userSpaceOnUse" id="color-1"><stop offset="0" stop-color="#cedee0" stop-opacity="0"/><stop offset="1" stop-color="#cedee0" stop-opacity="0.19676"/></linearGradient><linearGradient x1="1077.66312" y1="216.06021" x2="1077.66312" y2="354.07601" gradientUnits="userSpaceOnUse" id="color-2"><stop offset="0" stop-color="#ffffff" stop-opacity="0.26046"/><stop offset="1" stop-color="#ffffff" stop-opacity="0"/></linearGradient><linearGradient x1="1077.66312" y1="216.06021" x2="1077.66312" y2="354.07601" gradientUnits="userSpaceOnUse" id="color-3"><stop offset="0" stop-color="#ffffff" stop-opacity="0.26046"/><stop offset="1" stop-color="#ffffff" stop-opacity="0"/></linearGradient><linearGradient x1="1077.66312" y1="216.06021" x2="1077.66312" y2="354.07601" gradientUnits="userSpaceOnUse" id="color-4"><stop offset="0" stop-color="#ffffff" stop-opacity="0.26046"/><stop offset="1" stop-color="#ffffff" stop-opacity="0"/></linearGradient><linearGradient x1="1036.02754" y1="220.12049" x2="1036.02754" y2="358.13627" gradientUnits="userSpaceOnUse" id="color-5"><stop offset="0" stop-color="#ffffff" stop-opacity="0.26046"/><stop offset="1" stop-color="#ffffff" stop-opacity="0"/></linearGradient><linearGradient x1="1036.02754" y1="220.12049" x2="1036.02754" y2="358.13627" gradientUnits="userSpaceOnUse" id="color-6"><stop offset="0" stop-color="#ffffff" stop-opacity="0.26046"/><stop offset="1" stop-color="#ffffff" stop-opacity="0"/></linearGradient><linearGradient x1="1036.02754" y1="220.12049" x2="1036.02754" y2="358.13627" gradientUnits="userSpaceOnUse" id="color-7"><stop offset="0" stop-color="#ffffff" stop-opacity="0.26046"/><stop offset="1" stop-color="#ffffff" stop-opacity="0"/></linearGradient></defs><g transform="translate(-135.20134,-66.44175)"><g data-paper-data="{&quot;isPaintingLayer&quot;:true}" fill-rule="nonzero" stroke-linejoin="miter" stroke-miterlimit="10" stroke-dasharray="" stroke-dashoffset="0" style="mix-blend-mode: normal"><g data-paper-data="{&quot;index&quot;:null}" stroke="#3a2f41" stroke-linecap="butt"><path d="M179.15787,118.33999l2.8216,-9.49437l8.02839,3.16796l-6.40868,-5.97908l14.92248,-14.097c0,0 3.60147,12.24522 10.94321,23.05002c2.63001,2.32994 -6.00938,7.23364 -6.00938,7.23364z" fill="#3a2f41" stroke-width="1.5"/><path d="M208.92547,119.71898c-2.0908,-0.92158 0.85623,-14.7928 3.78939,-17.97561c1.18642,-1.28739 15.59043,8.4996 14.08215,10.13625c-2.93317,3.1828 -14.77121,9.20588 -16.86201,8.28433z" data-paper-data="{&quot;index&quot;:null}" fill="#8c9ca0" stroke-width="2"/><path d="M209.7129,119.78192c1.7872,1.16139 -5.44124,11.58294 -9.14881,14.03183c-1.9065,1.25927 -17.25444,-7.89957 -15.7548,-8.8901c3.70754,-2.44891 22.25349,-6.86389 24.04067,-5.7025z" fill="#e1e2db" stroke-width="1.5"/><path d="M213.69529,116.79302c1.77437,1.77742 1.27329,4.27765 -1.11921,5.58442c-2.39246,1.30677 -5.77038,0.92522 -7.54475,-0.8522c-1.77437,-1.77742 -1.27329,-4.27765 1.11921,-5.58442c2.39246,-1.30677 5.77038,-0.92522 7.54474,0.85219z" fill="#e1e2db" stroke-width="2"/></g><path d="M294.07131,163.05345l-18.98398,0.31991l-0.9322,-7.68788c0,0 -0.33414,7.93677 -0.76012,7.8922c-5.35726,0.21499 -10.65333,0.48834 -15.71368,0.78962c-21.25856,1.2657 -38.35731,3.02473 -38.35731,3.02473c0,0 -7.56919,-8.15125 -8.52681,-16.40639c-0.66922,-5.76883 -1.10866,-17.25432 8.62979,-27.21644c7.85411,-8.0345 22.83087,-11.79807 25.97951,-12.21457c2.51766,-0.33303 13.5351,1.55457 20.38347,5.42542c11.39967,6.44334 25.16038,22.17124 25.16038,22.17124z" fill="#3a2f41" stroke="none" stroke-width="0" stroke-linecap="butt"/><g stroke-linecap="butt"><path d="M280.28614,143.88615c0.61076,5.41664 2.70107,10.08842 -1.72797,14.086c-4.30547,3.88604 -14.69407,6.1526 -25.4112,7.45174c-10.66682,1.29307 -21.6145,0.46693 -26.73164,-2.5828c-5.17685,-3.0853 -4.73758,-7.43014 -5.34332,-12.80218c-1.20447,-10.68213 6.27367,-25.18681 31.18649,-27.17943c16.3878,-1.31078 26.82318,10.34449 28.02766,21.02664z" fill="#e1e2db" stroke="none" stroke-width="0"/><path d="M280.28614,143.88615c1.20449,10.68212 -11.63562,5.21957 -25.03497,6.69761c-13.39667,1.47775 -32.97468,10.13732 -34.17916,-0.54485c-1.20447,-10.68213 6.27367,-25.18681 31.18649,-27.17943c16.3878,-1.31078 26.82318,10.34449 28.02766,21.02664z" fill="#b8c1c0" stroke="none" stroke-width="0"/><path d="M256.94233,122.83749c13.67752,1.00677 23.22825,10.889 24.31362,20.51482l0.04826,0.428c0.57134,5.06698 1.38158,9.80532 -2.40721,13.6683c-4.19871,4.2809 -13.93941,6.55014 -25.36822,7.93557c-7.89553,0.95711 -17.60037,0.80586 -22.37865,-0.76557c-8.20786,-2.69933 -9.31681,-7.82808 -10.07808,-14.57971c-1.02238,-9.06709 4.21089,-20.88822 21.05205,-25.47404" fill="none" stroke="#3a2f41" stroke-width="2"/></g><path d="M207.35881,162.38291l-9.68032,-4.15545c0,0 -4.15207,-16.6215 4.823,-28.59182c11.57642,-15.43977 34.27304,-23.25325 57.78496,-21.49314c5.0368,0.37705 17.82977,2.11619 25.83485,7.40215c9.61638,6.34994 13.71837,15.23948 13.71837,15.23948l-4.96293,-0.0618l1.79039,7.1716c0,0 -2.74974,-0.22361 -2.78533,-0.37622c-0.7973,-3.41961 -2.19892,-6.75354 -2.19892,-6.75354c0,0 1.08074,2.73164 1.0842,6.92833c-2.85312,-0.09574 -18.62678,0.28656 -18.62678,0.28656l-2.4924,-2.90523l-0.03394,2.9575l-13.68689,0.46082l-2.73634,-10.83806l1.04428,10.71244c0,0 -12.16242,1.13393 -18.02148,1.87621c-0.41328,0.05236 -2.52889,-4.41358 -2.52889,-4.41358c0,0 0.4183,4.83948 0.10908,4.8743c-3.65495,0.41145 -8.64426,1.38866 -8.64426,1.38866c0,0 2.92828,24.37511 2.79547,24.39955c-2.06567,0.38016 -20.32253,-2.49591 -20.41088,-3.50368c-0.12764,-1.45585 -2.3615,-9.49694 -2.3615,-9.49694z" fill="#3a2f41" stroke="url(#color-1)" stroke-width="0.5" stroke-linecap="butt"/><path d="M253.00887,109.74109c11.06391,-25.35624 37.59238,-37.17081 37.59238,-37.17081l-6.05066,44.22565" fill="#3a2f41" stroke="#3a2f41" stroke-width="1.5" stroke-linecap="round"/><path d="M201.70491,133.22563c7.06268,-39.04505 36.01174,-65.38763 36.01174,-65.38763l10.24466,40.44633" fill="#3a2f41" stroke="#3a2f41" stroke-width="1.5" stroke-linecap="round"/><g stroke="#3a2f41" stroke-linecap="butt"><path d="M226.43266,149.55908c0,0 3.79343,-4.05653 11.3649,-4.83566c8.02198,-0.82548 12.72896,3.13822 12.72896,3.13822c0,0 -5.12529,0.1927 -12.44365,0.78934c-6.50312,0.53015 -11.65022,0.90813 -11.65022,0.90813z" fill="#e1e2db" stroke-width="1"/><g fill="#3a2f41" stroke-width="0.5"><path d="M236.53391,148.90111l-0.34667,-3.89828l2.97145,-0.31759l0.24611,3.94577z"/></g></g><path d="M268.61875,161.78962c0,0 -7.79374,1.59135 -16.58449,2.60668c-8.79075,1.01531 -16.79488,0.52488 -16.79488,0.52488c0,0 7.0713,-10.63008 15.86205,-11.64538c3.00909,-0.34755 5.54085,-0.83708 8.19434,0.41797c5.09842,2.41145 9.32298,8.09585 9.32298,8.09585z" data-paper-data="{&quot;index&quot;:null}" fill="#000000" stroke="none" stroke-width="0.85" stroke-linecap="butt"/><path d="" fill="#3a2f41" stroke="none" stroke-width="0" stroke-linecap="butt"/><path d="" fill="#3a2f41" stroke="url(#color-2)" stroke-width="0.5" stroke-linecap="butt"/><path d="" fill="#3a2f41" stroke="url(#color-3)" stroke-width="0.5" stroke-linecap="butt"/><path d="" fill="#3a2f41" stroke="url(#color-4)" stroke-width="0.5" stroke-linecap="butt"/><path d="" data-paper-data="{&quot;index&quot;:null}" fill="#3a2f41" stroke="url(#color-5)" stroke-width="0.5" stroke-linecap="butt"/><path d="" data-paper-data="{&quot;index&quot;:null}" fill="#3a2f41" stroke="url(#color-6)" stroke-width="0.5" stroke-linecap="butt"/><path d="" data-paper-data="{&quot;index&quot;:null}" fill="#3a2f41" stroke="url(#color-7)" stroke-width="0.5" stroke-linecap="butt"/><g><path d="M221.41065,244.62371l47.92301,3.21626c0,0 4.27623,12.34087 7.0193,20.07183c0.82099,2.31388 1.50464,4.21478 1.8952,5.24828c0.56456,3.07589 1.23767,7.36729 1.96858,12.39327c-24.35413,-1.86221 -48.717,-3.59341 -72.76204,-5.34269c6.60719,-17.65701 13.95596,-35.58693 13.95596,-35.58693z" fill="#e1e2db" stroke="none" stroke-width="0" stroke-linecap="round"/><path d="M207.41044,268.63212c4.37674,-14.00555 17.70551,-28.5617 17.70551,-28.5617l42.76673,2.60797c0,0 4.77908,11.26319 6.25374,15.56985c1.0225,2.98611 1.74568,7.79179 1.74568,7.79179l-26.7505,16.79707c-14.97168,-1.09512 -29.89384,-2.16464 -44.69016,-3.2434c1.18285,-4.66649 2.23826,-8.62321 2.969,-10.96158z" fill="#8c9ca0" stroke="none" stroke-width="0" stroke-linecap="butt"/><path d="M205.48713,280.06741c1.2192,-4.57656 2.4011,-8.7518 3.50049,-12.26988c3.93511,-12.5926 16.10594,-27.31514 16.10594,-27.31514l42.3771,3.0309c0,0 5.96165,9.42684 9.8043,28.26339c0.63796,3.12729 1.45256,7.94703 2.35738,13.73197" fill="none" stroke="#3a2f41" stroke-width="2" stroke-linecap="round"/><path d="M270.63016,250.68459l-21.61497,9.02067l-28.33837,-12.14933" fill="none" stroke="#3a2f41" stroke-width="1.5" stroke-linecap="round"/></g><path d="M248.29711,251.85189c-9.20957,-0.40153 -23.77632,-10.97248 -23.77632,-10.97248c0,0 1.47217,-5.08173 2.56295,-7.81778c0.99365,-2.49244 3.19851,-7.96032 3.19851,-7.96032c0,0 0.74578,-3.89918 -1.33382,-8.15035c-1.30292,-2.66344 -8.70277,-13.53707 -8.70115,-13.90008c0.00031,-0.06979 1.18859,-3.7571 3.06975,-7.65733c2.18354,-4.52711 9.76121,-11.64671 13.12251,-13.24781c3.66198,-1.74433 8.55046,-2.38808 12.2617,-2.11586c5.67177,0.41601 11.49574,1.78935 16.50471,4.81446c1.88759,1.13998 5.27199,4.13133 5.27199,4.13133c0,0 5.60501,8.06057 7.66508,17.66987c-4.17963,9.99831 -12.72872,13.80876 -12.72872,13.80876l-1.34745,6.87509c0,0 1.80355,5.19099 2.49596,7.77024c0.6901,2.5706 1.65163,7.67943 1.65163,7.67943c0,0 -10.70773,9.47439 -19.91731,9.07286z" fill="#3a2f41" stroke="#8c9ca0" stroke-width="1.5" stroke-linecap="round"/><g data-paper-data="{&quot;index&quot;:null}" stroke="#3a2f41" stroke-width="2"><g fill="#e1e2db"><path d="M142.98115,103.83264l22.47253,-15.87288l-14.10453,27.02128z" stroke-linecap="round"/><path d="M137.9346,101.54123l17.47084,-21.25399l-6.45091,29.79049z" stroke-linecap="round"/><path d="M179.19454,169.80323c0,0 -24.28285,-30.42354 -31.52159,-41.5732c-2.481,-3.82144 -10.39157,-14.47208 -10.39157,-14.47208l0.14716,-10.99686c0.6469,1.21585 11.46217,18.64093 6.6837,11.44912c-4.77847,-7.19179 -7.83855,-13.18725 -7.83855,-13.18725l7.26753,-24.49916l4.71773,22.08048c0,0 17.48448,17.47585 18.78554,17.72695c5.30839,1.02454 5.9048,-23.49207 5.9048,-23.49207l9.07156,23.49792l-8.56916,16.72083c0,0 1.28645,2.7587 3.32925,6.69325c3.18679,6.13794 14.91075,25.37895 14.91075,25.37895l-4.28341,-0.26793l1.97169,8.95632l-8.7189,-8.49177l-1.46656,4.47643z" stroke-linecap="butt"/></g><g stroke-linecap="butt"><path d="M184.43056,123.36137l21.9495,46.39138l26.91475,20.84146l4.12114,15.31372c0,0 -7.6147,1.15662 -14.53253,-2.13427c-12.56132,-5.97555 -50.49239,-25.1519 -50.49239,-25.1519l-21.21493,-33.20163z" fill="#3a2f41"/><path d="M188.01904,131.68906l1.05479,1.83335l-32.79963,19.56847l-1.31379,-1.7466z" fill="#8ea8ab"/></g></g><g><path d="M257.63409,180.06533c-0.09566,2.04343 -5.56037,5.58573 -7.80629,5.4806c-2.24593,-0.10514 -7.2412,-3.73624 -7.14554,-5.77966c0.09566,-2.04343 5.50221,-2.91597 7.74813,-2.81083c2.24592,0.10514 7.29938,1.06649 7.20372,3.10992z" fill="#3a2f41" stroke="none" stroke-width="0" stroke-linecap="butt"/><g fill="#8c9ca0" stroke="#8c9ca0" stroke-width="1.5" stroke-linecap="butt"><path d="M231.89051,193.0459c-0.73627,-0.79151 10.23029,-14.20767 10.23029,-14.20767l7.43126,6.18419l8.46255,-6.11516c0,0 9.76082,14.45604 9.12003,15.1939c-0.35432,0.408 -3.92482,-1.69825 -8.41571,-3.30073c-4.13116,-1.47413 -9.22581,-2.44019 -9.22581,-2.44019c0,0 -5.49406,1.13259 -10.00647,2.4356c-4.12594,1.1914 -7.28914,2.5801 -7.59614,2.25009z"/></g><path d="M242.04637,180.50482l0.59656,-1.89625l7.41018,-1.87125l7.50978,1.99513l0.70824,1.99741" fill="none" stroke="#8c9ca0" stroke-width="2" stroke-linecap="round"/></g><g fill="#8c9ca0" stroke="#3a2f41" stroke-width="1.5" stroke-linecap="butt"><path d="M252.92551,198.98821c-0.19339,1.83912 -1.90821,3.16616 -3.83017,2.96406c-1.92194,-0.20211 -3.32321,-1.85683 -3.12981,-3.69595c0.19339,-1.83912 1.90822,-3.16617 3.83018,-2.96406c1.92194,0.20211 3.3232,1.85685 3.1298,3.69596z"/><path d="M252.52173,209.02288c-0.20012,1.90303 -1.991,3.27448 -4.00005,3.06321c-2.00905,-0.21128 -3.47544,-1.92525 -3.27532,-3.82828c0.20012,-1.90303 1.99099,-3.27447 4.00003,-3.06321c2.00905,0.21128 3.47547,1.92525 3.27535,3.82828z"/></g><path d="" fill="#3a2f41" stroke="#8c9ca0" stroke-width="2" stroke-linecap="butt"/><path d="" fill="#3a2f41" stroke="#8c9ca0" stroke-width="2" stroke-linecap="butt"/><g data-paper-data="{&quot;index&quot;:null}" stroke="#3a2f41" stroke-linecap="butt"><g data-paper-data="{&quot;index&quot;:null}"><g stroke-width="0"><path d="" fill="#e1e2db"/><path d="" fill="#e1e2db"/><path d="" fill="#8c9ca0"/></g><path d="M280.50811,279.40771l37.14549,-3.60139l0.62913,6.60115c-12.43222,0.47044 -24.89298,0.99353 -37.34154,1.54442z" fill="#e1e2db" stroke-width="0"/><path d="M280.50811,279.40771l37.14551,-3.60139l0.62911,6.60116c-12.43222,0.47044 -24.89297,0.99353 -37.34154,1.54442z" fill="#8c9ca0" stroke-width="0"/><path d="M307.45281,277.07273l10.2505,-0.99381l0.60306,6.32766" fill="none" stroke-width="2"/><path d="M280.96481,283.95085l-0.40701,-4.27053l12.07713,-1.17091" fill="none" stroke-width="2"/></g><g data-paper-data="{&quot;index&quot;:null}"><path d="M281.89507,245.6817l-17.80221,-38.80546l5.03055,-15.68864c0,0 8.66595,9.51399 13.46447,15.73208c8.71307,11.29077 34.49846,46.42036 34.49846,46.42036l2.88255,29.00395c-13.02571,0.48796 -26.08479,1.03497 -39.13034,1.61245z" fill="#3a2f41" stroke-width="1.5"/><path d="" fill="#8ea8ab" stroke-width="2"/></g></g></g></g></svg>