<svg version="1.1" xmlns="http://www.w3.org/2000/svg" xmlns:xlink="http://www.w3.org/1999/xlink" width="512.61904" height="492.03735" viewBox="0,0,512.61904,492.03735"><defs><linearGradient x1="208.23622" y1="65.43373" x2="222.25934" y2="100.75908" gradientUnits="userSpaceOnUse" id="color-1"><stop offset="0" stop-color="#8c9ca0"/><stop offset="1" stop-color="#3a2f41"/></linearGradient></defs><g transform="translate(-23.73949,80.90212)"><g data-paper-data="{&quot;isPaintingLayer&quot;:true}" fill-rule="nonzero" stroke-linejoin="miter" stroke-miterlimit="10" stroke-dasharray="" stroke-dashoffset="0" style="mix-blend-mode: normal"><g fill="#3a2f41" stroke="#3a2f41" stroke-linecap="butt"><path d="M250.11435,133.12187c40.79686,22.83654 93.56625,4.06419 93.32714,4.80128c-0.31491,3.69422 -37.83034,20.80402 -64.3796,23.05617c-10.74469,0.91147 -45.27982,17.23501 -63.05325,15.32578c-14.54193,-1.56209 -13.94087,-20.15267 -12.71308,-29.03786c1.1497,-8.32004 24.91496,-26.4063 46.81879,-14.14537z" data-paper-data="{&quot;index&quot;:null}" stroke-width="1.5"/><path d="M210.9078,119.47292c9.75931,7.05893 3.8573,25.25186 -6.17224,40.53329c-0.83103,1.2662 -21.33462,-11.0667 -22.20446,-9.8641c-2.36299,3.26695 14.68056,19.97396 11.93994,22.82222c-10.44374,10.85395 -22.84393,17.54232 -31.21512,11.48742c-12.09148,-8.74579 -14.18106,-27.66933 -12.73595,-41.4685c0.81043,-7.73864 4.05436,-15.13402 4.05436,-15.13402c0,0 5.06613,-4.48741 10.93594,-7.25881c12.16269,-5.74252 31.75187,-10.95735 44.74059,-1.56258z" stroke-width="2"/><path d="M165.7306,143.93669c6.27075,0.91092 7.3399,22.56526 5.08157,38.11148c-2.25833,15.54623 -21.65837,24.65497 -27.36951,21.8699c-0.56524,0.02475 12.74799,-15.54251 8.36005,-35.57689c-4.38794,-20.03438 7.65713,-25.31543 13.92788,-24.40452z" stroke-width="1.5"/><path d="M167.35817,142.40254c18.87865,-4.27427 17.6838,19.3397 18.29314,38.68657c0.82808,26.29247 -20.84473,52.92912 -28.5089,52.15942c-0.68916,0.29454 10.07542,-31.41269 -0.55443,-54.14984c-10.62984,-22.73715 2.81516,-34.89506 10.77021,-36.69615z" stroke-width="1.5"/><path d="M190.76521,112.66461c20.40102,-2.10448 31.01802,-19.62192 31.17147,-19.07734c4.43297,4.55219 1.85537,25.82863 -12.20246,32.84026c-14.05781,7.01164 -34.95839,12.77522 -37.78662,7.10484c-2.82823,-5.67038 -1.58339,-18.76327 18.81763,-20.86775z" data-paper-data="{&quot;index&quot;:null}" stroke-width="1.5"/><path d="M202.36791,113.14348c24.92201,2.97756 51.66558,-17.17203 51.60158,-16.4253c3.1303,7.03799 -15.38267,35.96016 -40.61279,43.40466c-18.56517,5.47792 -40.61812,14.00519 -42.46874,-5.26262c-0.77982,-8.11903 6.55795,-24.69432 31.47995,-21.71676z" data-paper-data="{&quot;index&quot;:null}" stroke-width="1.5"/><path d="M181.98895,147.69645c8.49541,-1.92342 26.49402,-4.01246 29.66452,10.16357c3.87505,17.32621 -8.06445,52.60652 -7.72931,63.24728c0.82808,26.29247 -11.53687,64.56722 -15.09124,65.17458c-0.68916,0.29455 11.55821,-53.11631 -15.27085,-91.39975c-14.40451,-20.55437 0.47182,-45.3846 8.42687,-47.18569z" stroke-width="1.5"/><path d="M222.3027,123.82517c44.75809,13.49567 91.65015,-14.85662 91.58615,-14.10988c0.53587,3.56585 -28.69202,41.14864 -56.34498,49.49573c-10.21082,3.01285 -40.80927,10.63707 -58.47768,12.38085c-14.456,1.42675 -18.10653,-16.32117 -18.93931,-24.9917c-0.77982,-8.11903 18.14522,-30.02082 42.17583,-22.775z" data-paper-data="{&quot;index&quot;:null}" stroke-width="1.5"/><path d="M188.5311,162.25721c7.85378,-3.39775 24.73193,-8.68623 29.45441,4.37067c5.7719,15.95839 19.69951,49.73703 21.29833,59.91028c1.62822,42.61869 -30.04967,67.655 -33.35935,68.88676c-0.62045,0.40886 2.35048,-28.27837 -13.20829,-50.55115c0.75355,-39.41106 -11.53932,-79.43491 -4.18509,-82.61654z" data-paper-data="{&quot;index&quot;:null}" stroke-width="1.5"/><path d="M277.38311,142.98562c55.47139,28.5178 123.8492,2.63896 123.58491,3.60334c-0.15799,4.80845 -23.92883,27.68175 -58.8331,31.35723c-14.12603,1.48748 -83.17265,24.08498 -106.77789,22.10622c-19.31341,-1.61899 -19.81745,-25.78899 -18.81628,-37.36739c0.9375,-10.84193 31.05978,-35.01061 60.84238,-19.69941z" data-paper-data="{&quot;index&quot;:null}" stroke-width="1.5"/><path d="M289.45196,276.79239c-0.63745,1.39465 -7.10552,4.11721 -7.32682,5.72256c-3.86113,28.00975 -13.69353,63.88808 -14.33885,63.61401c-13.07301,-47.79556 -34.98756,-50.3211 -43.06798,-86.75013c-0.25902,-10.29487 -15.04146,-64.00154 -12.2372,-80.73836c2.2944,-13.69379 51.32315,8.57971 59.66035,10.50787c7.8069,1.80552 9.47331,49.01273 17.3105,87.64404zM255.3127,308.69974c0.12199,-0.16866 -1.22446,-5.59478 -5.38619,-12.83139c-3.15356,-5.48355 -8.73949,-12.09433 -11.84434,-17.74162c-4.49184,-8.17003 -7.15651,-14.64877 -7.34141,-14.7825c0,0 0.74426,7.29465 5.06635,16.13156c2.71845,5.55813 7.32047,10.97956 11.18539,16.54345c4.55692,6.5601 8.21129,12.83107 8.3202,12.6805z" data-paper-data="{&quot;index&quot;:null}" stroke-width="1.5"/><path d="M354.23803,170.38457c31.38461,13.41675 55.95928,59.7422 56.58929,64.78618c0.69539,5.56753 -35.89044,-20.02695 -76.94061,-10.25241c-32.84049,7.81973 -63.2144,-27.97804 -58.02878,-40.42029c5.18563,-12.44225 46.99548,-27.53024 78.3801,-14.11348zM399.30661,217.26231c-5.37153,-9.29558 -29.11189,-35.61205 -41.21258,-41.31417c0,0 9.60679,8.39627 19.33672,18.17835c10.89281,10.95119 22.03285,23.4075 21.87586,23.13581z" stroke-width="1.5"/><path d="M362.78694,222.33702c21.37255,32.13369 20.06381,92.8813 17.25227,98.60937c-3.10336,6.32261 -30.8912,-34.53842 -77.39019,-47.48043c-37.19958,-10.35372 -39.03852,-70.38727 -25.55806,-80.68371c13.48046,-10.29644 64.32342,-2.57893 85.69599,29.55477z" stroke-width="1.5"/><path d="M322.056,256.61084c14.61852,34.75446 8.90028,88.78761 5.17063,93.33885c-0.59391,1.37669 -25.78732,-41.43449 -67.93025,-64.84001c-33.7147,-18.72463 -28.64037,-70.77203 -13.87337,-76.8608c14.767,-6.08876 62.01449,13.60751 76.633,48.36198z" stroke-width="1.5"/><path d="M139.04542,164.94523c-5.86431,-6.31686 -12.47012,-14.99328 -18.43693,-23.37171c0.65724,-1.2435 1.71955,-3.25341 2.30464,-4.3604l-1.42645,-0.75393c-0.41255,0.78055 -1.55111,2.93472 -1.96366,3.71527c-0.2067,-0.29341 -0.72042,-1.15451 -0.92521,-1.44654c0.55282,-1.04594 1.17539,-2.22386 1.63786,-3.09889l-1.42646,-0.75393c-0.27573,0.52167 -0.88654,1.67736 -1.16227,2.19902c-8.3449,-12.02067 -17.98598,-33.69546 -14.05195,-30.65748c3.93403,3.03797 60.77499,38.76527 60.77499,38.76527c0,0 0.87278,41.9526 -9.42275,37.10491z" data-paper-data="{&quot;index&quot;:null}" stroke-width="0.5"/><path d="M203.97316,112.46681c7.82709,8.26044 -32.29,20.56499 -32.29,20.56499c0,0 -51.7258,-42.79924 -55.84263,-45.58448c-4.11685,-2.78525 40.3506,3.27312 66.6846,15.34584z" data-paper-data="{&quot;index&quot;:null}" stroke-width="0.5"/></g><path d="M242.61131,162.25916c5.1891,5.08555 11.00526,16.72651 11.00526,16.72651l-19.36817,25.89766c0,0 -19.92801,-1.51767 -28.7324,-11.07997c-3.45628,-3.7538 -1.81641,-17.59306 1.78787,-22.5269c2.23791,-3.06347 5.45681,-9.05753 10.42011,-12.58186c0,0 7.64562,-4.97094 12.09337,-4.36626c6.94504,0.94419 12.79396,7.93083 12.79396,7.93083z" fill="#3a2f41" stroke="#8c9ca0" stroke-width="2" stroke-linecap="round"/><g data-paper-data="{&quot;index&quot;:null}"><g stroke-linecap="butt"><path d="M133.37079,186.11277c0.17646,-1.86136 7.27932,-4.90682 7.27932,-4.90682l42.87765,7.75113l-1.09257,14.79518l-48.18041,-8.36317z" data-paper-data="{&quot;index&quot;:null}" fill="#e1e2db" stroke="none" stroke-width="0"/><path d="M175.37579,187.27651c2.88783,0.39242 8.22333,1.27629 8.22333,1.27629l-1.38601,15.37252l-9.01564,-1.53364c0,0 -3.26744,-4.95184 -2.78453,-8.30265c0.4829,-3.35082 4.96286,-6.81252 4.96286,-6.81252z" data-paper-data="{&quot;index&quot;:null}" fill="#8c9ca0" stroke="none" stroke-width="0"/><path d="M134.83515,195.44354c0,0 -1.19581,-7.13411 -0.99768,-9.22412c0.22192,-2.34089 3.91982,-5.76499 3.91982,-5.76499l45.48952,8.3326l-1.09258,14.79519z" data-paper-data="{&quot;index&quot;:null}" fill="none" stroke="#3a2f41" stroke-width="2.5"/></g><g stroke="#8c9ca0" stroke-width="2" stroke-linecap="round"><path d="M221.30307,199.68348c0,0 -4.84451,8.71432 -13.95313,8.94869c-10.97765,0.28245 -26.59898,-2.25415 -26.59898,-2.25415c0,0 -4.81562,-4.99154 -3.28391,-12.60054c1.53173,-7.609 8.08526,-11.53217 8.08526,-11.53217l21.23053,4.99644" fill="#3a2f41"/><path d="M186.02555,206.52741c0,0 -4.01196,-4.86694 -2.55794,-11.99302c1.40038,-6.86311 7.61843,-10.46032 7.61843,-10.46032" fill="none"/></g></g><g data-paper-data="{&quot;index&quot;:null}"><g data-paper-data="{&quot;index&quot;:null}" stroke-linecap="butt"><path d="M412.67768,275.66191l-36.84807,-19.81181l13.29219,-18.77531l34.99531,18.03075z" fill="#e1e2db" stroke="#3a2f41" stroke-width="2"/><g><path d="M400.53329,282.37132l12.74593,-42.16667l55.77049,32.70231l67.30882,6.03472l-51.96005,40.07852c0,0 -0.4694,-0.2323 -1.06818,-0.52862c-3.16347,-1.56555 -29.81484,-14.75485 -29.81484,-14.75485z" fill="#3a2f41" stroke="none" stroke-width="0"/><path d="M432.28085,300.39274l-7.81287,-3.72002l13.47064,-10.97125l7.81287,3.72002z" fill="#3a2f41" stroke="#3a2f41" stroke-width="2"/><path d="M440.37398,305.34716l-6.74549,-3.21179l11.63029,-9.47238l6.7455,3.21179z" fill="#3a2f41" stroke="#3a2f41" stroke-width="2.5"/><path d="M443.66689,286.19832l-4.54236,-2.16281c0,0 4.66543,-3.94707 7.30408,-9.48881c2.35222,-4.94021 1.77968,-9.58913 1.77968,-9.58913l4.17411,2.93623c0,0 0.84033,3.50141 -1.88404,9.22318c-2.74448,5.76402 -6.83147,9.08134 -6.83147,9.08134z" fill="#8c9ca0" stroke="#3a2f41" stroke-width="1.5"/><path d="M451.21182,288.95853l-4.54237,-2.16281c0,0 4.55143,-3.7076 7.06442,-8.98546c2.24021,-4.70495 1.58679,-9.18402 1.58679,-9.18402l4.19163,2.8994c0,0 0.89763,3.38101 -1.69699,8.83033c-2.61379,5.48953 -6.60348,8.60254 -6.60348,8.60254z" fill="#8c9ca0" stroke="#3a2f41" stroke-width="1.5"/><path d="M459.04526,292.10282l-4.54237,-2.16282c0,0 4.49442,-3.58789 6.94459,-8.73381c2.18421,-4.58735 1.49033,-8.98145 1.49033,-8.98145l4.20042,2.88098c0,0 0.92631,3.32082 -1.60347,8.6339c-2.54844,5.35231 -6.4895,8.36316 -6.4895,8.36316z" fill="#8c9ca0" stroke="#3a2f41" stroke-width="1.5"/></g></g><g data-paper-data="{&quot;index&quot;:null}"><g><path d="M261.37122,200.76363c0,0 5.24226,-7.98423 6.87085,-8.77974c3.34554,-1.63416 9.64958,-4.01842 16.94912,-3.33823c8.51103,0.79306 38.6982,15.65234 56.05968,22.82011c19.57286,8.08074 46.21065,13.79037 46.21065,13.79037l4.94784,9.52147l-12.94749,30.38799l-11.57453,0.96609c0,0 -22.53226,-15.91154 -35.15429,-23.2955c-13.18355,-7.71244 -40.78263,-21.23455 -40.78263,-21.23455" fill="#e1e2db" stroke="#3a2f41" stroke-width="2" stroke-linecap="round"/><path d="M288.29918,189.96869l-3.39789,8.42746l-15.67253,-4.00111" fill="none" stroke="#3a2f41" stroke-width="2" stroke-linecap="round"/><path d="M291.15308,190.55339l-4.43005,11.23971l-22.29092,-5.24384" fill="none" stroke="#3a2f41" stroke-width="2" stroke-linecap="round"/><path d="M347.08612,228.16594l8.4901,-10.54768l8.87524,2.62366z" fill="#8c9ca0" stroke="none" stroke-width="0" stroke-linecap="butt"/></g><path d="M381.63644,248.5953c3.94804,-7.91546 13.14055,-22.71023 13.14055,-22.71023l7.05895,11.52918l6.72995,-2.13231l-4.81764,23.30014l-15.94211,19.81564l-2.03333,-6.77359l-13.86639,0.11431c0,0 6.07758,-15.82032 9.73002,-23.14314z" fill="#e1e2db" stroke="#3a2f41" stroke-width="2" stroke-linecap="butt"/></g></g><g><g data-paper-data="{&quot;index&quot;:null}" stroke-linecap="butt"><path d="M383.3732,324.89511l-32.84361,-21.7043l9.87466,-20.77705l35.30331,22.44918z" fill="#e1e2db" stroke="#3a2f41" stroke-width="2"/><g><path d="M440.16943,326.75038l28.43598,19.46124l-9.54247,64.92361l-38.18563,-55.75618l-55.80193,-32.64863l30.5442,-31.74175z" fill="#3a2f41" stroke="none" stroke-width="0"/><path d="M423.79658,326.6383l-7.06608,-4.99497l2.98055,-17.11556l7.06609,4.99498z" fill="#3a2f41" stroke="#3a2f41" stroke-width="2"/><path d="M432.536,329.83553l-6.10073,-4.31258l2.57336,-14.77727l6.10073,4.31259z" fill="#3a2f41" stroke="#3a2f41" stroke-width="2"/><path d="M415.13346,337.2284c-3.65808,5.17487 -7.12309,6.15454 -7.12309,6.15454l-4.60268,-2.20456c0,0 4.33492,-1.7745 7.49333,-6.24251c3.54299,-5.01204 4.70373,-11.0119 4.70373,-11.0119l4.10821,2.90405c0,0 -0.89441,5.1873 -4.57951,10.40037z" fill="#8c9ca0" stroke="#3a2f41" stroke-width="1.5"/><path d="M426.15287,331.96943c0,0 -0.76377,5.00251 -4.27338,9.96734c-3.4839,4.92845 -6.87193,5.79923 -6.87193,5.79923l-4.57911,-2.23787c0,0 4.22632,-1.62086 7.23433,-5.8761c3.37428,-4.77337 4.38192,-10.55668 4.38192,-10.55668l4.1082,2.90407z" fill="#8c9ca0" stroke="#3a2f41" stroke-width="1.5"/><path d="M432.72687,337.26395c0,0 -0.69847,4.91011 -4.12034,9.75082c-3.3968,4.80525 -6.74634,5.62159 -6.74634,5.62159l-4.56736,-2.25453c0,0 4.172,-1.54403 7.10482,-5.69289c3.28994,-4.65405 4.22105,-10.32906 4.22105,-10.32906l4.10819,2.90407z" fill="#8c9ca0" stroke="#3a2f41" stroke-width="1.5"/></g></g><g data-paper-data="{&quot;index&quot;:null}"><g><path d="M289.50525,226.0045c0,0 25.29347,17.45846 38.46871,25.18507c12.6141,7.39752 37.51339,19.26789 37.51339,19.26789l4.81867,10.56803l-20.17205,26.15638l-10.72487,0.34155c0,0 -18.00908,-20.44123 -34.6307,-33.56057c-14.74368,-11.63708 -42.46933,-30.69887 -47.32397,-37.73443c-4.16362,-6.03409 -5.16747,-12.69877 -5.37849,-16.41612c-0.10273,-1.80957 4.29717,-10.2872 4.29717,-10.2872" fill="#e1e2db" stroke="#3a2f41" stroke-width="2" stroke-linecap="round"/><path d="M254.66159,219.49356l11.15556,11.71282l-5.68859,7.08574" fill="none" stroke="#3a2f41" stroke-width="2" stroke-linecap="round"/><path d="M253.81535,214.90335l15.85573,16.2305l-7.63662,9.36153" fill="none" stroke="#3a2f41" stroke-width="2" stroke-linecap="round"/><path d="M323.78093,289.9062l-6.62944,-6.45784l5.04719,-12.56428z" fill="#8c9ca0" stroke="none" stroke-width="0" stroke-linecap="butt"/></g><path d="M356.91676,291.02704c4.60061,-6.76746 15.42669,-19.80644 15.42669,-19.80644l6.68262,12.15041l6.90257,-1.5396l-9.48592,23.59719l-17.96637,15.59856l-1.43192,-6.91292l-13.50862,-0.51777c0,0 8.40801,-15.25427 13.38095,-22.56943z" fill="#e1e2db" stroke="#3a2f41" stroke-width="2" stroke-linecap="butt"/></g></g><g><path d="M288.49162,231.67547c-5.96314,2.09775 -33.60899,-17.11832 -33.60899,-17.11832c0,0 2.81837,-5.89014 4.47661,-8.765c1.6194,-2.8075 5.35907,-8.28685 5.35907,-8.28685c0,0 14.16319,6.89099 20.17772,10.87584c5.23867,3.4708 11.69478,9.5414 11.69478,9.5414c0,0 -0.28269,11.00319 -8.09918,13.75293z" fill="#e1e2db" stroke="none" stroke-width="0" stroke-linecap="butt"/><path d="M296.55126,218.23154c0,0 0.22518,2.6779 -2.35355,7.55707c-1.99822,3.78081 -5.38163,5.98545 -5.38163,5.98545" fill="none" stroke="#3a2f41" stroke-width="2" stroke-linecap="round"/></g><g data-paper-data="{&quot;index&quot;:null}"><g stroke-linecap="butt"><path d="M224.45692,87.32575l17.88704,45.51207l-14.27271,4.04733l-16.22049,-40.44093c0,0 1.55392,-7.57038 3.3417,-8.11778z" data-paper-data="{&quot;index&quot;:null}" fill="#e1e2db" stroke="none" stroke-width="0"/><path d="M230.45925,123.0059c3.18511,-1.14728 8.69314,1.05691 8.69314,1.05691l3.31641,8.52264l-14.7792,4.45094c0,0 -1.9394,-5.0485 -2.90489,-7.79831c0,0 2.48942,-5.08489 5.67454,-6.23217z" data-paper-data="{&quot;index&quot;:null}" fill="#8c9ca0" stroke="none" stroke-width="0"/><path d="M242.12085,132.59683l-14.27271,4.04734l-17.31563,-42.88237c0,0 2.60997,-4.31127 4.85832,-4.99968c2.00739,-0.61463 9.2362,-0.87881 9.2362,-0.87881z" data-paper-data="{&quot;index&quot;:null}" fill="none" stroke="#3a2f41" stroke-width="2.5"/></g><g stroke="#8c9ca0" stroke-width="2" stroke-linecap="round"><path d="M231.07041,160.0097l-9.16627,-19.79088c0,0 2.52422,-7.2089 9.66936,-10.2404c7.14516,-3.03149 13.00359,0.68124 13.00359,0.68124c0,0 5.62807,14.79138 7.56034,25.60134c1.60328,8.96947 -5.95798,15.4684 -5.95798,15.4684" fill="#3a2f41"/><path d="M224.809,145.27137c0,0 2.27243,-6.8147 8.71337,-9.56744c6.68774,-2.85821 12.26242,0.09236 12.26242,0.09236" fill="none"/></g></g><g><path d="M212.17247,160.26728c1.46222,1.05763 1.43755,6.80262 0.27511,8.40974c-1.16243,1.60712 -6.2557,3.54069 -7.71793,2.48306c-1.46222,-1.05763 0.50514,-5.47015 1.66757,-7.07727c1.16243,-1.60712 4.31302,-4.87316 5.77524,-3.81554z" fill="#3a2f41" stroke="none" stroke-width="0" stroke-linecap="butt"/><g fill="#8c9ca0" stroke="#8c9ca0" stroke-width="1.5" stroke-linecap="butt"><path d="M209.3199,185.54075c-0.93992,0.1612 -5.5465,-14.41447 -5.5465,-14.41447l8.15455,-2.49857l-0.42657,-9.20069c0,0 15.38594,-0.22276 15.62112,0.60667c0.13003,0.45862 -3.14939,2.07696 -6.50151,4.61804c-3.08361,2.33754 -6.25759,5.63174 -6.25759,5.63174c0,0 -1.81769,4.60272 -3.0354,8.56309c-1.11344,3.6212 -1.61619,6.627 -2.0081,6.69421z"/></g><path d="M204.9677,171.98623l-1.11165,-1.35629l2.19792,-6.37395l5.10015,-4.57995l1.81656,0.44199" fill="none" stroke="#8c9ca0" stroke-width="1.5" stroke-linecap="round"/></g><g fill="#3a2f41"><path d="M251.9849,180.79774l6.29769,5.0676c0,0 3.50619,0.74538 8.19638,2.3438c4.61281,1.57204 7.7018,3.33211 7.7018,3.33211c0,0 0.05863,3.71916 -0.53773,7.81715c-0.61286,4.21132 -1.90273,8.83334 -3.54986,11.03237c-1.41438,1.88826 -5.03699,4.39446 -8.36651,6.28293c-4.01178,2.27543 -7.68375,3.77257 -7.68375,3.77257c0,0 -3.10379,-2.46338 -6.64309,-6.85198c-2.8129,-3.48791 -4.61879,-5.91406 -4.61879,-5.91406c0,0 -7.17613,-5.26975 -7.18857,-5.26358" stroke="#8c9ca0" stroke-width="1.5" stroke-linecap="round"/><path d="M231.25105,158.84551c11.73508,-0.87452 21.95972,3.42025 21.95972,3.42025c0,0 3.55107,10.97727 2.75095,22.04745l-15.52673,21.24495c-13.84291,6.80875 -21.3565,4.52685 -21.3565,4.52685c0,0 -6.54125,-7.87575 -9.7577,-19.15837" stroke="#8c9ca0" stroke-width="1.5" stroke-linecap="round"/><path d="M243.95178,207.94375l-7.76627,-5.61736l15.18205,-20.98992l7.76627,5.61736z" stroke="none" stroke-width="0" stroke-linecap="butt"/></g><path d="M227.89335,174.84623c1.73886,1.25772 2.10766,3.7163 0.82373,5.49139c-1.28393,1.77508 -3.73438,2.1945 -5.47324,0.93678c-1.73886,-1.25772 -2.10766,-3.71631 -0.82374,-5.49139c1.28393,-1.77508 3.73438,-2.1945 5.47324,-0.93678z" fill="#8c9ca0" stroke="#3a2f41" stroke-width="1" stroke-linecap="butt"/><path d="M236.51539,180.88276c1.73886,1.25772 2.10765,3.7163 0.82373,5.49139c-1.28393,1.77508 -3.73437,2.19449 -5.47323,0.93677c-1.73886,-1.25772 -2.10767,-3.71631 -0.82374,-5.49139c1.28393,-1.77508 3.73439,-2.19449 5.47325,-0.93677z" fill="#8c9ca0" stroke="#3a2f41" stroke-width="1" stroke-linecap="butt"/><g><path d="M204.16752,117.90516c8.814,6.37518 3.48367,22.80588 -5.57437,36.6071c-0.75054,1.14355 -19.26806,-9.99474 -20.05364,-8.90864c-2.1341,2.95049 13.25854,18.03921 10.7834,20.61157c-9.43212,9.8026 -20.63118,15.84311 -28.19152,10.3747c-10.92025,-7.89864 -12.80744,-24.98918 -11.50231,-37.45172c0.73192,-6.98905 3.66165,-13.66808 3.66165,-13.66808c0,0 4.5754,-4.05276 9.87664,-6.55569c10.98458,-5.18629 28.67627,-9.89599 40.40685,-1.41124z" fill="#3a2f41" stroke="none" stroke-width="0" stroke-linecap="butt"/><path d="M204.63288,122.60082c15.26679,11.66927 15.10269,25.44727 15.10269,25.44727c0,0 -12.34836,-11.59203 -24.91317,-18.70215" data-paper-data="{&quot;index&quot;:null}" fill="#3a2f41" stroke="#b8c1c0" stroke-width="2" stroke-linecap="round"/><path d="M214.15834,135.34587c1.24312,3.05947 -17.9842,-18.02376 -17.73605,-18.514c0.31572,-0.62379 3.86023,0.45538 7.91687,2.41037c4.05663,1.95501 11.1853,14.2875 10.77774,13.8237c-3.03492,-4.88606 -7.50753,-9.39949 -11.56417,-11.35449c-0.86845,-0.41853 7.79291,6.7119 10.60564,13.63442z" data-paper-data="{&quot;index&quot;:null}" fill="#3a2f41" stroke="none" stroke-width="0" stroke-linecap="butt"/><path d="M169.94797,162.03448c9.11103,8.18482 25.31045,18.92394 25.31045,18.92394c0,0 -12.34744,5.29474 -30.96365,-5.66929" fill="#3a2f41" stroke="#b8c1c0" stroke-width="2" stroke-linecap="round"/><path d="M164.5364,175.64211c3.58847,2.59555 9.34609,4.70385 14.22852,6.53438c0.54733,0.20521 -11.59159,-2.62328 -15.18006,-5.21883c-3.58847,-2.59555 -6.28449,-4.99415 -6.02174,-5.35743c0.2065,-0.28551 25.07619,9.42811 22.25777,9.14407c-6.37707,-0.64269 -16.05272,-5.65783 -15.28449,-5.10217z" fill="#3a2f41" stroke="none" stroke-width="0" stroke-linecap="butt"/><g stroke-linecap="butt"><path d="M199.83571,128.3685c4.28619,3.10021 7.88061,6.18322 8.20451,11.56171c0.31486,5.2284 -3.07297,11.86748 -8.36612,19.49117c-5.2683,7.58792 -11.62768,12.77741 -16.81835,14.05488c-5.25121,1.29239 -8.75888,-0.57082 -13.00977,-3.6455c-8.4528,-6.11392 -14.62743,-20.1875 -1.57752,-37.24801c8.58429,-11.22249 23.11445,-10.32819 31.56725,-4.21426z" fill="#e1e2db" stroke="none" stroke-width="0"/><path d="M201.84067,128.8196c4.75727,4.0404 -5.16246,10.15159 -11.88649,19.58914c-6.72269,9.43565 -11.83031,27.40944 -20.28311,21.29551c-8.4528,-6.11392 -14.62743,-20.1875 -1.57752,-37.24801c8.58429,-11.22249 23.45771,-11.07901 31.91051,-4.96509z" fill="#b8c1c0" stroke="none" stroke-width="0"/><path d="M171.10438,129.42736c7.56419,-6.97656 15.80859,-8.83294 24.14173,-4.34195c2.11542,1.14007 6.39604,3.65167 8.28001,5.46123c2.73213,2.6242 4.29448,3.84182 4.7648,7.68018c0.66352,5.41499 -2.65232,12.62237 -8.29697,20.75232c-3.89958,5.61654 -9.55212,11.15305 -13.47282,13.16758c-6.73478,3.46045 -11.46845,1.18364 -16.81103,-2.68066c-7.1748,-5.18955 -12.44587,-15.92406 -5.97447,-29.54204" fill="none" stroke="#3a2f41" stroke-width="2"/></g><path d="M200.02832,117.18553c-0.24427,2.93915 1.1858,5.83735 -0.53494,8.43883c-4.3077,6.51248 -11.63554,11.30918 -18.20155,12.01377c-8.80836,1.32034 -17.32797,-6.45523 -17.86978,-9.66032c-0.55019,-3.2546 6.54763,-8.32343 15.54565,-9.84454z" data-paper-data="{&quot;index&quot;:null}" fill="#3a2f41" stroke="none" stroke-width="0" stroke-linecap="butt"/><path d="M165.86014,128.44183c5.02758,0.45641 9.94944,12.37425 8.97956,23.05786c-0.38282,4.21694 -3.03296,11.74335 -3.10155,12.96615c-0.05707,1.01768 -2.11178,6.49523 -0.74354,6.88732c3.81423,1.09304 -5.42638,-0.51326 -7.87366,-0.73543c-5.02758,-0.45641 -8.31698,-9.48718 -7.3471,-20.17078c0.9699,-10.68359 5.05872,-22.46152 10.0863,-22.00512z" fill="#3a2f41" stroke="none" stroke-width="0" stroke-linecap="butt"/><path d="M180.36903,132.38073c6.99478,7.8073 7.46074,21.81261 0.78374,30.72029c-0.15832,0.18832 -1.38054,-12.0304 -10.32371,-18.49901c-5.92586,-4.28619 -7.48077,-11.28442 -5.41354,-14.14246c2.03483,-2.81324 8.3771,-2.58007 14.22595,1.54217c0.09315,0.06566 0.65107,0.29364 0.72758,0.37904z" data-paper-data="{&quot;index&quot;:null}" fill="#3a2f41" stroke="none" stroke-width="0" stroke-linecap="butt"/><path d="M174.58943,140.68386c4.61575,12.154 -1.06923,25.42121 -2.49531,28.33933c-1.42607,2.91812 -3.56056,0.52285 -4.31265,0.15532c-0.75209,-0.36755 -6.85996,-7.64431 -5.43387,-10.56242c1.42609,-2.91811 11.48976,-18.29977 12.24184,-17.93222z" fill="#3a2f41" stroke="none" stroke-width="0" stroke-linecap="butt"/><g stroke="#3a2f41" stroke-linecap="butt"><path d="M174.12997,169.28928c0,0 -0.44469,-4.63133 3.36439,-9.24283c4.03573,-4.88591 9.25875,-4.93695 9.25875,-4.93695c0,0 -2.7933,2.90977 -6.57547,7.26809c-3.36085,3.87283 -6.04767,6.9117 -6.04767,6.9117z" fill="#e1e2db" stroke-width="1"/><g fill="#3a2f41" stroke-width="0.5"><path d="M177.50428,164.89437l-1.92915,-1.60942l0.41506,-0.49169l2.19624,1.70611z"/></g></g><path d="M200.33432,122.50867c0,0 2.23257,7.79221 -7.8493,14.49107c-5.38207,3.57609 -13.66647,1.1184 -16.61731,-1.01595c0,0 9.63011,3.42589 16.81138,-1.98372c5.43733,-4.09591 6.64596,-9.46865 7.10702,-11.11502c0.0973,-0.34745 0.54821,-0.37637 0.54821,-0.37637z" fill="#3a2f41" stroke="none" stroke-width="0" stroke-linecap="butt"/></g><g><g stroke-linecap="butt"><path d="M206.42548,71.72401l-7.67258,3.81584l-32.08774,-70.5845l11.04314,-4.07706z" fill="#e1e2db" stroke="none" stroke-width="0"/><path d="M184.40533,44.26987l-17.74014,-39.31449l11.04315,-4.07707l9.57903,23.6316z" fill="#8c9ca0" stroke="none" stroke-width="0"/><path d="M206.44407,71.32443l-7.67258,3.81584l-32.08774,-70.5845l11.04316,-4.07708z" fill="none" stroke="#3a2f41" stroke-width="1.5"/></g><g stroke="#3a2f41" stroke-width="1.5"><path d="M187.93778,42.60338c-5.40631,5.91529 -12.38886,3.25071 -12.38886,3.25071l-39.44571,-92.75803l-3.90283,-22.32157l15.46284,17.88379c0,0 40.59559,93.59383 40.27454,93.94512z" fill="#e1e2db" stroke-linecap="butt"/><path d="M137.51709,-62.43787l-0.40567,3.61786l-3.23979,-1.52279l-1.06016,-7.3589z" fill="#3a2f41" stroke-linecap="round"/><path d="M182.40356,30.62879c0,0 -5.02947,4.11809 -12.32125,2.64773" fill="none" stroke-linecap="round"/><path d="M181.43391,27.96765c0,0 -5.02947,4.1181 -12.32125,2.64771" fill="none" stroke-linecap="round"/><path d="M136.9891,-45.68635l0.89009,-2.47872l4.82431,1.81994l2.53902,-4.31595l3.309,1.68552" fill="none" stroke-linecap="round"/></g><path d="M183.73772,12.68402l-17.52426,14.33512l-7.60523,-17.3868l18.05632,-13.68917z" fill="#3a2f41" stroke="#3a2f41" stroke-width="1.5" stroke-linecap="butt"/><g><g><path d="M184.7173,-44.7737l-4.38482,1.33309l-7.29088,-30.46898z" fill="#e1e2db" stroke="#3a2f41" stroke-width="1.5" stroke-linecap="butt"/><path d="M172.4567,-73.74291l-1.72396,-7.15921l2.92071,6.78658z" fill="#16121a" stroke="#16121a" stroke-width="0" stroke-linecap="round"/></g><path d="M221.8101,64.30865l-8.76968,2.66617l-35.16586,-111.03429l3.00638,-4.0135l8.8131,2.11072z" fill="#e1e2db" stroke="#3a2f41" stroke-width="1.5" stroke-linecap="butt"/><path d="M180.27694,-35.74543l3.08825,-2.81738l8.20026,1.6396" fill="none" stroke="#3a2f41" stroke-width="1" stroke-linecap="round"/><path d="M184.84027,-21.35348l4.64148,2.90939l18.08002,61.94071l-1.52554,1.77873" fill="none" stroke="#3a2f41" stroke-width="1" stroke-linecap="round"/></g><g stroke-linecap="butt"><path d="M193.9434,71.10762l28.58562,-11.34767l10.30468,36.80142l-22.77552,9.04125z" fill="#3a2f41" stroke="url(#color-1)" stroke-width="0.5"/><path d="M209.14877,74.42641c0.05388,-1.70844 1.48253,-3.04972 3.19096,-2.99583c1.70844,0.05388 3.04971,1.48251 2.99584,3.19095c-0.05388,1.70844 -1.48252,3.04972 -3.19095,2.99584c-1.70844,-0.05388 -3.04973,-1.48253 -2.99585,-3.19095z" fill="#8c9ca0" stroke="none" stroke-width="0"/></g></g><g data-paper-data="{&quot;index&quot;:null}" fill="#3a2f41"><path d="M52.97987,172.42444l-12.30366,-28.28415l29.91774,30.49879z" stroke-opacity="0.07705" stroke="#ffffff" stroke-width="2" stroke-linecap="round"/><path d="M45.64362,173.66083l-12.48396,-30.09301l30.05615,27.5674z" stroke-opacity="0.08512" stroke="#ffffff" stroke-width="2" stroke-linecap="round"/><path d="M154.30963,198.30088l-80.54294,-7.80146l-24.94826,-8.91002l-4.81903,-8.99575l14.17597,7.37102l-18.52317,-10.17348l-13.38199,-26.79895l21.48179,20.05904l32.08579,0.04965l0.28883,-12.04513l-15.78477,-15.70734l29.53971,12.50767l7.71427,22.65092c0,0 3.66413,1.26576 9.07425,2.88065c8.43988,2.51925 41.64551,9.03174 41.64551,9.03174l-5.67714,2.13541l16.70893,3.95836l-21.169,0.88366l9.66531,5.42822l-13.27104,-0.59875z" stroke-opacity="0.08254" stroke="#ffffff" stroke-width="1.5" stroke-linecap="butt"/></g><g stroke-width="0.5" stroke-linecap="round"><path d="M201.4025,140.54884c0,0 1.84441,15.21672 -2.91948,21.24386c-3.4375,4.34904 -10.75549,5.43427 -14.56404,5.70148c-1.46957,0.10308 -2.4166,0.08438 -2.4166,0.08438c4.10781,-2.00094 8.0054,-12.01305 9.83987,-14.55861c1.36098,-1.88854 6.22989,-6.29469 7.82704,-8.59624c3.23543,-4.66231 3.03972,-7.06659 3.03972,-7.06659" fill="#3a2f41" stroke="none"/><path d="M201.4025,140.54884c0,0 1.84441,15.21672 -2.91948,21.24386c-3.4375,4.34904 -10.75549,5.43426 -14.56403,5.70147c-1.46957,0.10308 -2.4166,0.08439 -2.4166,0.08439c4.10781,-2.00094 8.0054,-12.01305 9.83987,-14.55861c1.36098,-1.88854 6.2299,-6.29469 7.82705,-8.59624c3.23543,-4.66231 3.03972,-7.06659 3.03972,-7.06659" fill="none" stroke="#3a2f41"/><path d="M201.03996,145.01225l-1.87066,-0.58857c0.83274,-1.20003 1.4382,-2.25044 1.87818,-3.14877z" fill="#e1e2db" stroke="#3a2f41"/><path d="M186.13595,166.05971l-4.12155,1.24954c0.18985,-0.05384 0.74601,-0.44388 1.33008,-1.05054c0.52517,-0.54545 1.06084,-1.27168 1.57907,-1.98912z" fill="#e1e2db" stroke="#3a2f41"/></g></g></g></svg>