<svg version="1.1" xmlns="http://www.w3.org/2000/svg" xmlns:xlink="http://www.w3.org/1999/xlink" width="529.31027" height="546.12696" viewBox="0,0,529.31027,546.12696"><defs><linearGradient x1="375.89008" y1="257.73867" x2="343.95651" y2="180.52938" gradientUnits="userSpaceOnUse" id="color-1"><stop offset="0" stop-color="#8c9ca0"/><stop offset="1" stop-color="#3a2f41"/></linearGradient><linearGradient x1="122.20383" y1="261.68701" x2="146.56801" y2="181.76571" gradientUnits="userSpaceOnUse" id="color-2"><stop offset="0" stop-color="#8c9ca0"/><stop offset="1" stop-color="#3a2f41"/></linearGradient></defs><g transform="translate(18.40658,93.56348)"><g data-paper-data="{&quot;isPaintingLayer&quot;:true}" fill-rule="nonzero" stroke-linejoin="miter" stroke-miterlimit="10" stroke-dasharray="" stroke-dashoffset="0" style="mix-blend-mode: normal"><path d="M68.63576,333.75649c0,0 18.76761,-8.76741 64.11573,-95.8622c37.62733,-72.26637 71.88427,-194.1378 71.88427,-194.1378c0,0 38.47657,-20 54,-20c13.04229,0 33,20 33,20c0,0 97.07576,219.97013 86,303c-6.74676,50.57733 -171.24833,43.93654 -257.89004,34.3585c-42.24738,-4.67035 -51.10996,-47.3585 -51.10996,-47.3585z" fill="#8c9ca0" stroke="#3a2f41" stroke-width="2" stroke-linecap="butt"/><g><g fill="#3a2f41" stroke-opacity="0.14516" stroke="#ffffff" stroke-width="1"><path d="M397.8976,242.16579c5.67631,10.85413 9.88715,18.13421 9.88715,18.13421l28.17826,-1.29509l49.06537,28.08635l-42.15516,-0.45994l-10.31866,16.94418l20.94065,53.07437l15.82554,2.358l40.38189,-29.17105l-28.97371,65.70413l-50.91097,-1.16372l-35.97844,-11.61857l-29.98848,-42.46198l-24.79876,-102.21198c2.73261,-1.62842 5.63928,-2.99877 8.45747,-4.4671c3.10396,-1.61723 6.20792,-3.23445 9.31189,-4.85168c3.10396,-1.61723 6.20792,-3.23445 9.31189,-4.85168c3.10396,-1.61723 6.20792,-3.23445 9.31189,-4.85168c2.4139,-1.25769 4.82779,-2.51537 7.24169,-3.77306c7.00749,12.17542 13.25311,23.13337 15.21051,26.87627z" data-paper-data="{&quot;index&quot;:null}" stroke-linecap="butt"/><path d="M420.55556,352.67327l18.80438,6.1439l40.22652,-42.23244l-15.38227,73.02481l-32.24624,5.91947" data-paper-data="{&quot;index&quot;:null}" stroke-linecap="round"/><path d="M383.34571,339.80717l18.80437,6.14391l40.22652,-42.23244l-15.38227,73.02482l-32.24624,5.91947" data-paper-data="{&quot;index&quot;:null}" stroke-linecap="round"/></g><g><g data-paper-data="{&quot;index&quot;:null}"><g stroke-linecap="butt"><path d="M326.70685,189.12044c-9.8938,-26.48149 -35.28766,-94.96362 -35.28766,-94.96362l38.73017,-14.47006c0,0 26.26848,70.30954 36.19277,96.87266c9.9243,26.56311 -29.74148,39.04252 -39.63529,12.56103z" fill="#e1e2db" stroke="#3a2f41" stroke-width="2"/><path d="M320.54147,172.76542l-30.28626,-78.45193l38.8131,-14.23891l30.28624,78.45192z" fill="#8c9ca0" stroke="#3a2f41" stroke-width="2"/><path d="M366.95923,175.04916c0,0 -26.75001,-6.63942 -43.83431,5.35492c-2.32183,1.63009 -9.9614,-22.05824 -7.25725,-23.6295c22.97956,-13.35243 43.14113,-3.88607 43.14113,-3.88607l7.95046,22.16064z" fill="#3a2f41" stroke="none" stroke-width="0"/><path d="M306.14301,136.47058c-2.32185,1.63009 -9.96141,-22.05822 -7.25726,-23.62948c22.97956,-13.35242 43.14114,-3.88609 43.14114,-3.88609l7.95046,22.16067c0,0 -26.75003,-6.63943 -43.83433,5.35491z" fill="#3a2f41" stroke="none" stroke-width="0"/></g><g><g fill="#e1e2db" stroke="none" stroke-width="0" stroke-linecap="round"><path d="M354.74714,128.44315l6.43993,10.50421l-48.47046,22.13121l-3.98239,-9.3435c0,0 -9.3434,0.3861 -11.90651,-3.7579c-2.56311,-4.14401 -1.69289,-16.65314 -4.66644,-23.03704c-1.74556,-3.74753 -7.23489,-19.78949 -11.16192,-26.06002c-8.77005,-14.00366 8.08303,-49.40154 18.85708,-52.14566c9.94173,-2.53211 23.59203,7.62027 32.67295,20.57783c8.88052,12.67159 13.30341,28.12742 13.30341,28.12742c0,0 11.79073,2.69156 12.73362,5.12284c1.04314,2.68975 -3.8193,27.8806 -3.8193,27.8806z"/></g><path d="M299.60292,45.42072c15.35022,-0.39025 29.54161,18.02354 29.54161,18.02354l-51.26755,21.32799c0,0 6.37572,-38.96128 21.72593,-39.35153z" fill="#8c9ca0" stroke="none" stroke-width="0" stroke-linecap="butt"/><g fill="none" stroke="#3a2f41" stroke-linecap="round"><path d="M354.74718,128.44317l6.43993,10.5042l-48.47044,22.13121l-3.98239,-9.34348c0,0 -9.34338,0.3861 -11.90651,-3.75791c-2.56311,-4.144 -1.6929,-16.65313 -4.66645,-23.03701c-1.74556,-3.74753 -7.23491,-19.7895 -11.16192,-26.06001c-8.77004,-14.00368 5.41901,-50.07875 16.19308,-52.82285c6.69034,-1.704 19.1266,3.15302 26.4649,10.71929c14.2302,14.67228 22.17546,38.66314 22.17546,38.66314c0,0 11.79073,2.69154 12.73361,5.12284z" stroke-width="2"/><path d="M354.74374,130.16209l-43.87529,21.39943" stroke-width="2"/><path d="M319.14863,101.0473l0.30638,-5.03765l27.74106,-0.53758z" stroke-width="1.5"/></g></g></g><g data-paper-data="{&quot;index&quot;:null}" stroke-linecap="butt"><path d="M407.12934,244.81817l-62.47852,25.84098l-23.80627,-80.57064l49.77963,-20.58874z" fill="#3a2f41" stroke="url(#color-1)" stroke-width="0.5"/><path d="M373.60174,238.00025c-0.0648,3.75705 -3.16303,6.75022 -6.92007,6.68539c-3.75705,-0.06479 -6.75019,-3.16302 -6.68539,-6.92007c0.0648,-3.75705 3.16304,-6.7502 6.92006,-6.68541c3.75705,0.0648 6.75019,3.16303 6.6854,6.92006z" fill="#8c9ca0" stroke="none" stroke-width="0"/></g></g></g><path d="M272.34441,433.9289l-1.19009,-231.04915l30.5429,-24.45406l8.82943,208.06581l36.04041,52.36824l-60.66739,-4.00883c0,0 -3.26698,-8.30533 -4.26199,-8.36653c-0.99547,-0.06123 -2.95547,7.81973 -2.95547,7.81973z" fill="#3a2f41" stroke="none" stroke-width="0" stroke-linecap="butt"/><path d="M214.45113,435.65564c0,0 -0.75098,-8.66467 -1.74793,-8.69293c-0.9965,-0.02826 -4.54572,10.17568 -4.54572,10.17568l-58.7858,15.42509l29.99523,-69.28158l25.99839,-212.64876l29.31413,39.85558l-13.79265,223.8635z" fill="#3a2f41" stroke="none" stroke-width="0" stroke-linecap="butt"/><g><g><g stroke-linecap="butt"><path d="M336.49318,143.46971c0,55.97481 -35.40289,89.34985 -84.32461,89.34985c-48.92172,0 -86.89161,-31.87354 -86.89161,-87.84835c0,-30.9648 3.7726,-69.74071 22.57466,-92.84806c15.18627,-18.66362 42.95832,-25.01981 64.81695,-25.01981c23.88203,0 51.42325,12.3918 66.19414,33.63597c15.4869,22.27396 17.63047,54.08071 17.63047,82.7304z" fill="#e1e2db" stroke="none" stroke-width="0"/><path d="M252.66859,27.10334c26.6313,0 54.44167,11.56273 69.39557,36.90036c8.48281,14.37314 12.8781,40.1409 13.23757,56.06158c-19.70404,-5.40642 -156.68576,-50.54004 -156.78094,-50.56229c1.39877,-5.66523 5.1115,-10.98511 8.22945,-15.356c14.53956,-20.38223 43.80579,-27.04366 65.91835,-27.04366z" fill="#8c9ca0" stroke="none" stroke-width="0"/><path d="M251.66857,241.81954c-19.10066,0 -54.40185,-12.41491 -69.49821,-29.92337c-19.84137,-23.01162 -15.84568,-51.13968 -15.84568,-51.13968h169.02597c0,0 2.79539,30.25129 -17.59656,53.93179c-13.8674,16.10375 -46.87377,26.13125 -64.58551,26.13125z" fill="#3a2f41" stroke="none" stroke-width="0"/><path d="M336.49318,143.46971c0,23.72275 -0.67931,43.77219 -11.52428,60.72948c-14.74419,23.05414 -44.11218,36.62037 -72.30033,36.62037c-36.15484,0 -69.60118,-18.4546 -83.02981,-50.41933c-4.74188,-11.28729 -4.3618,-30.82152 -4.3618,-45.42902c0,-38.83531 5.51779,-80.51941 33.19629,-102.40564c12.21558,-9.65923 39.21547,-15.46223 54.19532,-15.46223c18.86768,0 45.65017,8.98276 59.14944,23.23052c21.5028,22.69504 24.67517,58.74889 24.67517,93.13585z" fill="none" stroke="#3a2f41" stroke-width="2"/></g><path d="M286.9491,35.0866l22.49078,12.49194l9.65211,119.5782l-24.40576,-3.61591z" fill="#3a2f41" stroke="#3a2f41" stroke-width="1.5" stroke-linecap="butt"/><g><path d="M277.10055,76.5591l-18.81738,-29.60423l-0.07199,-9.95554c0,0 10.67717,-6.80054 15.28971,-9.08931c1.01003,-0.50119 1.41804,-0.09366 1.68933,-0.02387c0.6655,0.37848 9.49886,5.85124 8.78543,6.17196c0,0 -3.37421,20.85896 -4.64158,28.6937c-0.87915,5.43482 -2.23351,13.8073 -2.23351,13.8073z" data-paper-data="{&quot;index&quot;:null}" fill="#8c9ca0" stroke="#3a2f41" stroke-width="4.5" stroke-linecap="round"/><path d="M235.4914,77.16778c0,0 -13.46277,-40.11573 -14.7936,-43.09625c0.0972,-1.46797 11.87447,-8.45175 13.29911,-6.64543c1.47411,0.51368 25.68181,-3.06925 31.77498,-0.62403c5.12119,2.05515 -7.60358,10.24102 -7.60358,10.24102l-0.99421,8.78581z" fill="#3a2f41" stroke="#3a2f41" stroke-width="4.5" stroke-linecap="round"/><path d="M232.40023,32.92988c0.05435,-1.41559 0.41522,-4.88569 1.23858,-5.16761c1.52424,-0.97797 16.31114,-5.66255 19.93678,-6.05481c2.29374,-0.24816 18.82057,5.46122 19.70399,6.09059c1.52844,0.51631 3.12216,4.61195 3.12216,5.11961" fill="none" stroke="#3a2f41" stroke-width="6.5" stroke-linecap="butt"/><g><path d="M277.43388,76.40262l-20.33496,-31.71757l1.11225,-7.68574c0,0 10.67719,-6.80054 15.28971,-9.08931c1.01003,-0.50119 1.41804,-0.09366 1.68933,-0.02387c0.6655,0.37848 9.16552,6.18457 8.45209,6.50529z" data-paper-data="{&quot;index&quot;:null}" fill="#8c9ca0" stroke="#12161a" stroke-width="0" stroke-linecap="round"/><path d="M235.58915,76.16778c0,0 -13.22721,-39.11573 -14.55806,-42.09625c0.0972,-1.46797 11.54113,-8.45175 12.96577,-6.64544c2.71305,0.94542 24.17138,9.61699 24.17138,9.61699l-0.12864,7.84366z" fill="#8c9ca0" stroke="#12161a" stroke-width="0" stroke-linecap="round"/><path d="M232.40023,32.92988c0.05435,-1.41559 0.41522,-4.88569 1.23858,-5.16761c1.52424,-0.97797 16.31114,-5.66254 19.93678,-6.05481c2.29374,-0.24816 18.82057,5.46122 19.70399,6.09059c1.52844,0.51631 3.12216,4.61195 3.12216,5.11961" fill="none" stroke="#8c9ca0" stroke-width="2" stroke-linecap="butt"/></g></g><g stroke="#3a2f41" stroke-linecap="butt"><path d="M199.91889,170.55912l-5.56952,-124.2963l23.05503,-13.01563l10.48668,137.4121z" fill="#3a2f41" stroke-width="1.5"/><path d="M195.34335,115.00639l0.20726,-5.02747l35.07282,1.44587l-0.20726,5.02747z" fill="#e1e2db" stroke-width="1"/><path d="M194.91,125.51841l0.20726,-5.02747l35.07281,1.44586l-0.20726,5.02747z" fill="#e1e2db" stroke-width="1"/></g><path d="M162.26049,171.7451v-16h175.6498v16z" fill="#3a2f41" stroke="#8c9ca0" stroke-width="1" stroke-linecap="butt"/><g stroke-width="1.5" stroke-linecap="butt"><path d="M249.44161,175.36488c-0.36594,-0.53255 0.79369,-16.03752 -0.51987,-19.50826c-1.24206,-3.28183 34.29066,-3.71588 37.1715,-1.44061c3.48151,2.74968 3.72539,17.80247 0.77981,20.94887c-2.01555,2.15298 -35.98617,2.10325 -37.43145,0z" fill="#e1e2db" stroke="none"/><path d="M248.92171,155.85662c-1.24206,-3.28183 34.29066,-3.71588 37.1715,-1.44061c1.59546,1.26007 2.51098,5.10385 2.75124,9.20148c-15.15872,1.62811 -23.95175,1.05733 -39.27824,0.61465c0.01453,-3.57074 -0.11097,-6.9658 -0.6445,-8.3755z" fill="#8c9ca0" stroke="none"/><path d="M249.44161,175.36488c-0.36594,-0.53255 0.79369,-16.03752 -0.51988,-19.50826c-1.24206,-3.28183 34.29066,-3.71588 37.1715,-1.44061c3.48152,2.74968 3.72539,17.80247 0.77984,20.94887c-2.01555,2.15298 -35.98617,2.10325 -37.43146,0z" fill="none" stroke="#3a2f41"/><path d="M256.46015,171.2551c-0.23098,-0.33611 0.50095,-10.12232 -0.32814,-12.31292c-0.78394,-2.07137 21.64304,-2.34533 23.46135,-0.90927c2.1974,1.7355 2.35134,11.23629 0.4922,13.22219c-1.27215,1.35888 -22.7132,1.32749 -23.62539,0z" fill="#3a2f41" stroke="#3a2f41"/></g></g><path d="M239.6358,190.82493c0,6.35127 -3.80558,11.5 -8.5,11.5c-4.69442,0 -8.5,-5.14873 -8.5,-11.5c0,-6.35127 3.80558,-11.5 8.5,-11.5c4.69442,0 8.5,5.14873 8.5,11.5z" fill="#e1e2db" stroke="#3a2f41" stroke-width="1" stroke-linecap="butt"/><path d="M297.63579,190.32494c0,6.35127 -3.80558,11.5 -8.5,11.5c-4.69442,0 -8.5,-5.14873 -8.5,-11.5c0,-6.35127 3.80558,-11.5 8.5,-11.5c4.69442,0 8.5,5.14873 8.5,11.5z" fill="#e1e2db" stroke="#3a2f41" stroke-width="1" stroke-linecap="butt"/></g><g><g stroke="#3a2f41" stroke-linecap="butt"><path d="M291.88577,6.00649c0,10.12522 -17.68475,18.33334 -39.5,18.33334c-21.81525,0 -39.5,-8.20812 -39.5,-18.33334c0,-3.61126 -2.75038,-20.97865 1.13389,-23.81675c7.00643,-5.11935 25.99815,0.81676 40.03277,0.81676c15.89415,0 29.92905,-6.64289 36.19591,-0.36174c2.33461,2.33994 1.63743,20.61355 1.63743,23.36175z" fill="#3a2f41" stroke-width="2"/><path d="M290.27457,7.50649c2.55077,6.44737 -1.02672,10.11729 -4.59886,13.09237c-6.2966,5.24416 -17.87607,6.80759 -29.65114,6.74097c-15.8491,-0.08968 -26.78963,-5.23471 -32.61223,-12.06278c-4.99869,-5.86189 -5.9916,-13.43175 -5.74888,-14.77055c1.83334,-10.11218 5.4056,20.66667 39.69445,20.16667c6.89755,-0.10058 20.92896,-0.83019 25.34008,-4.52222c2.93871,-2.45965 2.63337,-5.73801 3.34996,-7.83164c1.08549,-3.17145 2.8582,-4.27169 4.22663,-0.81281z" fill="#8c9ca0" stroke-width="1.5"/><path d="M281.05244,10.17316c-2.40543,4.76615 -8.06598,8.33333 -22.33333,8.33333c-14.26736,0 -30.83334,-6.49458 -30.83334,-11.83333c0,-5.33875 18.27522,-16.26269 30.5,-2.33333c0.3553,0.40484 0.32251,-0.66164 -0.58321,-1.60868c-1.28284,-1.34135 -4.81177,-3.44611 -4.06204,-3.96891c10.81436,-7.54105 31.64525,2.82479 27.31192,11.41093z" fill="#e1e2db" stroke-width="1.5"/><path d="M224.88569,0.71384c0,2.01562 -1.68986,5.18154 -2.99629,5.18154c-1.30642,0 -2.72594,-1.99444 -2.72594,-4.01006c0,-2.01562 0.87884,-4.73097 2.00503,-4.73097c1.30642,0 3.71719,1.54388 3.71719,3.5595z" fill="#e1e2db" stroke-width="1.5"/><path d="M228.21902,5.06205c0,2.48528 -2.08362,6.38889 -3.69445,6.38889c-1.61083,0 -3.36111,-2.45917 -3.36111,-4.94444c0,-2.48528 1.08361,-5.83333 2.47222,-5.83333c1.61083,0 4.58333,1.90361 4.58333,4.38889z" fill="#e1e2db" stroke-width="1.5"/><path d="M287.10287,0.59879c1.12619,0 2.00503,2.71536 2.00503,4.73098c0,2.01562 -1.41952,4.01006 -2.72594,4.01006c-1.30642,0 -2.99629,-3.16592 -2.99629,-5.18154c0,-2.01562 2.41078,-3.55949 3.7172,-3.55949z" data-paper-data="{&quot;index&quot;:null}" fill="#e1e2db" stroke-width="1.5"/><path d="M233.44124,9.91332c0,2.75925 -2.3133,7.09318 -4.1017,7.09318c-1.7884,0 -3.73163,-2.73025 -3.73163,-5.4895c0,-2.75925 1.20306,-6.47637 2.74475,-6.47637c1.7884,0 5.08858,2.11345 5.08858,4.8727z" fill="#e1e2db" stroke-width="1.5"/><path d="M239.70032,12.95115c0.37187,2.73407 -1.44734,6.89579 -3.21943,7.13681c-1.77209,0.24103 -4.28777,-0.53576 -4.65964,-3.26983c-0.37187,-2.73408 0.65259,-7.80165 2.18021,-8.00943c1.77209,-0.24103 5.32699,1.40837 5.69886,4.14245z" fill="#e1e2db" stroke-width="1.5"/><path d="M285.85789,4.45094c1.38861,0 2.47222,3.34805 2.47222,5.83333c0,2.48528 -1.75028,4.94445 -3.36111,4.94445c-1.61083,0 -3.69444,-3.90361 -3.69444,-6.38889c0,-2.48528 2.9725,-4.38888 4.58333,-4.38888z" data-paper-data="{&quot;index&quot;:null}" fill="#e1e2db" stroke-width="1.5"/><path d="M245.9342,13.48526c0.91653,2.60258 -0.49385,7.90891 -2.22392,8.36193c-1.73007,0.45303 -4.32108,-0.01462 -5.02004,-2.68388c-0.69896,-2.66925 -0.29326,-7.82341 1.19814,-8.21394c1.73007,-0.45303 5.45798,0.86663 6.04582,2.53588z" fill="#e1e2db" stroke-width="1.5"/><path d="M252.90234,13.95601c1.48433,2.10377 -0.34914,8.03624 -1.1531,8.53747c-1.51761,0.94617 -4.97788,1.22392 -5.94327,-1.36094c-0.62095,-1.66261 -0.5219,-7.51872 0.18784,-8.16009c0.91908,-0.83055 5.9565,-0.5083 6.90853,0.98355z" data-paper-data="{&quot;index&quot;:null}" fill="#e1e2db" stroke-width="1.5"/><path d="M282.88982,8.28272c1.40712,0.39053 1.78988,5.54468 1.13043,8.21393c-0.65945,2.66926 -3.10405,3.13691 -4.73635,2.68388c-1.6323,-0.45303 -2.96297,-5.75936 -2.09824,-8.36194c0.55462,-1.66925 4.07187,-2.98891 5.70416,-2.53588z" data-paper-data="{&quot;index&quot;:null}" fill="#e1e2db" stroke-width="1.5"/><path d="M278.35889,10.72716c1.4914,0.39053 1.89709,5.54468 1.19814,8.21393c-0.69896,2.66926 -3.28997,3.13691 -5.02004,2.68388c-1.73007,-0.45303 -3.14045,-5.75936 -2.22392,-8.36194c0.58784,-1.66925 4.31575,-2.9889 6.04582,-2.53588z" data-paper-data="{&quot;index&quot;:null}" fill="#e1e2db" stroke-width="1.5"/><path d="M272.13667,11.50494c1.4914,0.39053 1.8971,5.54468 1.19814,8.21393c-0.69896,2.66926 -3.28997,3.13691 -5.02004,2.68388c-1.73007,-0.45303 -3.14044,-5.75935 -2.22392,-8.36194c0.58784,-1.66925 4.31575,-2.98891 6.04582,-2.53588z" data-paper-data="{&quot;index&quot;:null}" fill="#e1e2db" stroke-width="1.5"/><path d="M266.28164,13.74521c1.68356,1.948 0.44096,8.03173 -0.30994,8.60941c-1.41746,1.09049 -4.83379,1.70638 -6.04811,-0.77129c-0.78107,-1.59367 -1.25702,-7.43124 -0.61363,-8.13915c0.83317,-0.91671 5.87789,-1.09022 6.97169,0.30103z" data-paper-data="{&quot;index&quot;:null}" fill="#e1e2db" stroke-width="1.5"/><path d="M292.78981,-18.07685c0,0.52169 -1.69897,1.19341 -0.67773,5.74414c1.27877,5.69832 3.29883,14.38087 3.0562,20.73106c-0.21092,5.52026 -4.36493,12.26332 -6.09541,13.82657c-7.17453,6.4812 -27.13849,8.61491 -33.76094,8.61491c-7.36831,0 -30.44605,-1.03294 -38.79304,-11.95299c-11.65625,-15.24942 -7.87752,-34.41337 -7.87752,-35.96368c0,-1.61136 4.93423,-10.02692 5.3864,0.84883c0.57715,35.72578 18.35073,39.2345 41.77404,39.2345c4.63279,0 18.53678,0.60265 27.22849,-4.49129c10.20362,-5.98 7.96068,-17.35592 6.83368,-29.12895c-0.8972,-9.37246 2.92583,-8.63498 2.92583,-7.46309z" fill="#e1e2db" stroke-width="2"/></g><g><path d="M277.9355,-4.0946c-0.66674,-0.68597 -0.38653,-6.5362 0.34073,-8.15514c1.13067,-2.51695 4.56571,-2.01581 6.01889,-0.9734c0.76983,0.55222 2.21546,6.59093 0.59808,8.59421c-1.04659,1.42711 -6.0943,1.42262 -6.9577,0.53433z" data-paper-data="{&quot;index&quot;:null}" fill="#e1e2db" stroke="#3a2f41" stroke-width="1.5" stroke-linecap="butt"/><path d="M265.93551,-2.5946c-0.66674,-0.68596 -0.38654,-6.5362 0.34072,-8.15514c1.13067,-2.51695 4.56571,-2.01581 6.01889,-0.9734c0.76982,0.55222 2.21546,6.59093 0.59808,8.59421c-1.04659,1.42711 -6.0943,1.42262 -6.9577,0.53433z" data-paper-data="{&quot;index&quot;:null}" fill="#e1e2db" stroke="#3a2f41" stroke-width="1.5" stroke-linecap="butt"/><path d="M238.68551,-2.8446c-0.66674,-0.68596 -0.38654,-6.5362 0.34072,-8.15514c1.13067,-2.51695 4.56571,-2.01581 6.01889,-0.9734c0.76982,0.55222 2.21546,6.59093 0.59808,8.59421c-1.04659,1.42711 -6.0943,1.42262 -6.9577,0.53433z" data-paper-data="{&quot;index&quot;:null}" fill="#e1e2db" stroke="#3a2f41" stroke-width="1.5" stroke-linecap="butt"/><path d="M245.29273,-2.87893c-1.61738,-2.00328 -0.17174,-8.04199 0.59808,-8.5942c1.45318,-1.04241 4.88822,-1.54355 6.01889,0.9734c0.72726,1.61893 1.00746,7.46917 0.34072,8.15514c-0.86339,0.88829 -5.91111,0.89278 -6.9577,-0.53433z" data-paper-data="{&quot;index&quot;:null}" fill="#e1e2db" stroke="#3a2f41" stroke-width="1.5" stroke-linecap="butt"/><path d="M252.54273,-2.62893c-1.61738,-2.00328 -0.17174,-8.04199 0.59808,-8.5942c1.45318,-1.04241 4.88822,-1.54355 6.01889,0.9734c0.72726,1.61893 1.00746,7.46917 0.34072,8.15514c-0.86339,0.88829 -5.91111,0.89278 -6.9577,-0.53433z" data-paper-data="{&quot;index&quot;:null}" fill="#e1e2db" stroke="#3a2f41" stroke-width="1.5" stroke-linecap="butt"/><path d="M259.43551,-2.0946c-0.66674,-0.68596 -0.38654,-6.5362 0.34072,-8.15514c1.13067,-2.51695 4.56571,-2.01581 6.01889,-0.9734c0.76982,0.55222 2.21546,6.59093 0.59808,8.59421c-1.04659,1.42711 -6.0943,1.42262 -6.9577,0.53433z" data-paper-data="{&quot;index&quot;:null}" fill="#e1e2db" stroke="#3a2f41" stroke-width="1.5" stroke-linecap="butt"/><g stroke-linecap="butt"><path d="M265.80045,-80.6454c22.80806,5.33457 35.26207,30.17884 35.26207,51.57576h-0.00001c0,7.14342 -0.68556,15.9201 -1.45994,17.45186c-0.56565,1.11889 -0.71227,-4.3393 -2.98678,-3.67723c-1.9957,0.58092 -4.42832,5.04607 -8.71812,5.23388c-12.68651,0.55543 -42.65978,1.82214 -55.47028,1.82214c0,0 -9.32082,0.9471 -13.01915,0.35898c-1.32779,-0.21115 -4.94458,-6.17099 -5.71219,-6.35457c-1.76684,-0.42257 -2.86677,0.83394 -3.60878,2.79171c-0.9154,2.41525 -4.53753,-1.79567 -6.14304,-1.58794c-1.27283,0.16469 -0.53521,5.26606 -1.42668,3.3881c-2.05068,-4.31989 -2.19085,-14.68204 -2.19085,-19.42694c0,-20.15493 11.5411,-60.25822 64.72917,-51.69201" fill="#e1e2db" stroke="none" stroke-width="0"/><path d="M257.92039,-81.66645c27.80479,0.86137 43.14213,28.85183 43.14213,52.59681c0,23.74496 -20.55508,8.81166 -43.36647,9.00007c-22.80682,0.18837 -57.36936,14.7449 -57.36936,-9.00007c0,-23.74496 15.32473,-53.90628 57.5937,-52.59681z" fill="#b8c1c0" stroke="none" stroke-width="0"/><path d="M265.80046,-80.4454c22.80806,5.33457 35.26207,30.17885 35.26207,51.57576h-0.00001c0,7.14343 -0.68555,15.9201 -1.45994,17.45186c-0.56565,1.11889 -0.71227,-4.33931 -2.98678,-3.67723c-1.99571,0.58092 -4.42833,5.04607 -8.71812,5.23388c-12.68651,0.55544 -42.65978,1.82214 -55.47029,1.82214c0,0 -9.32082,0.94711 -13.01916,0.35898c-1.32778,-0.21115 -4.94458,-6.17098 -5.71219,-6.35457c-1.76685,-0.42256 -2.86676,0.83393 -3.60878,2.79171c-0.9154,2.41525 -4.53754,-1.79568 -6.14304,-1.58794c-1.27283,0.16469 -0.53521,5.26606 -1.42669,3.38811c-2.05067,-4.31989 -2.19085,-14.68204 -2.19085,-19.42693c0,-20.15493 11.5411,-60.25821 64.72917,-51.69201" fill="none" stroke="#3a2f41" stroke-width="2"/></g><path d="M255.42605,-23.71666c4.40087,0.11453 3.90996,8.6534 -1.35314,11.19906c-84.09148,40.67357 -115.49015,93.39848 -115.49015,93.39848l1.43891,-34.31781l-36.57736,10.17685l26.97361,-44.38313l-26.861,-18.10478c0,0 34.79703,-21.01541 151.86914,-17.96867z" fill="#3a2f41" stroke="#3a2f41" stroke-width="2" stroke-linecap="round"/><path d="M270.2994,-23.46198c101.53936,-23.43973 134.12114,-8.9191 134.12114,-8.9191l-21.39033,22.43957l28.33403,38.79306l-32.94358,-3.58532l5.0117,33.38784c0,0 -33.09847,-46.19682 -110.72861,-71.37482c-4.85871,-1.57584 -6.22134,-9.86009 -2.40436,-10.74122z" data-paper-data="{&quot;index&quot;:null}" fill="#3a2f41" stroke="#3a2f41" stroke-width="2" stroke-linecap="round"/><path d="M201.97775,-46.8123l0.93572,-13.42006l6.39975,-11.96969l6.01933,7.82933z" data-paper-data="{&quot;index&quot;:null}" fill="#7c7984" stroke="#3a2f41" stroke-width="2" stroke-linecap="butt"/><path d="M246.268,-72.3796l1.25582,-7.94957l19.00625,0.76069l-1.25581,7.94956z" fill="#7c7984" stroke="#3a2f41" stroke-width="2" stroke-linecap="butt"/><g stroke-width="2" stroke-linecap="butt"><path d="M208.1226,-77.54027c0.15081,-0.69847 2.93712,-10.32535 16.71442,-13.86813c13.72582,-3.52952 21.53289,1.8119 23.38518,5.54268c2.55898,5.15412 -3.01125,14.24488 -3.01125,14.24488c0,0 8.60811,5.04884 -14.1684,9.68294c-17.28021,4.20837 -18.83058,-1.46785 -18.83058,-1.46785c0,0 -5.56566,-7.29681 -4.08937,-14.1345z" data-paper-data="{&quot;index&quot;:null}" fill="#4b4960" stroke="#3a2f41"/><g><path d="M211.99919,-70.29754c-1.28195,-6.08802 5.35005,-12.93306 14.81293,-15.28885c9.46288,-2.35579 18.17331,0.66979 19.45525,6.7578c1.28195,6.08803 -5.35007,12.93306 -14.81295,15.28885c-9.46288,2.35578 -18.1733,-0.66979 -19.45524,-6.7578z" fill="#e1e2db" stroke="#b8c1c0"/><path d="M230.38287,-78.32851c6.58644,-4.2401 13.36384,-5.11356 15.13773,-1.95091c1.77392,3.16266 -0.81084,9.07276 -7.39727,13.31289c-6.58643,4.24013 -14.6804,5.20457 -16.45428,2.04192c-1.77392,-3.16265 2.12738,-9.16377 8.71382,-13.4039z" fill="#8c9ca0" stroke="none"/><path d="M218.61151,-77.80688c-0.34964,-0.66519 0.63861,-1.97269 2.20731,-2.92042c1.56871,-0.94774 3.12382,-1.17681 3.47346,-0.51161c0.34964,0.66518 -0.63861,1.97271 -2.20731,2.92044c-1.56871,0.94774 -3.12382,1.1768 -3.47346,0.5116z" fill="#ffffff" stroke="none"/><path d="M216.85989,-76.48561c1.69396,-0.42172 3.39595,0.79759 3.80146,2.72338c0.40551,1.9258 -0.63901,3.82882 -2.33297,4.25054c-1.69396,0.42172 -3.39595,-0.79759 -3.80146,-2.72338c-0.40551,-1.9258 0.63901,-3.82881 2.33297,-4.25054z" fill="#ffffff" stroke="none"/></g><path d="M250.1583,-73.7483c-0.15082,0.69847 -2.98121,12.23039 -16.75851,15.77317c-13.72583,3.52954 -21.72237,-2.71173 -23.57467,-6.44252c-2.55899,-5.15414 -1.33292,-10.55907 -1.33292,-10.55907c0,0 6.13709,12.11511 22.5897,8.1083c17.28023,-4.20835 17.24773,-18.73608 17.24773,-18.73608c0,0 3.30493,5.0185 1.82865,11.85619z" fill="#7c7984" stroke="#3a2f41"/></g><path d="M296.72324,-50.39742l-6.50518,-12.9182l6.00796,-3.65091l3.28753,10.33706z" data-paper-data="{&quot;index&quot;:null}" fill="#7c7984" stroke="#3a2f41" stroke-width="2" stroke-linecap="butt"/><g stroke-width="2" stroke-linecap="butt"><path d="M266.70669,-88.57114c0.51456,-0.42375 8.13841,-5.82807 20.52805,0.04081c12.34337,5.84697 15.1428,14.60889 14.39196,18.51003c-1.03729,5.38948 -10.44551,8.68178 -10.44551,8.68178c0,0 3.56956,9.03908 -16.21052,-1.56784c-15.40467,-7.53505 -13.30945,-12.68923 -13.30945,-12.68923c0,0 0.00833,-8.82721 5.04546,-12.97553z" data-paper-data="{&quot;index&quot;:null}" fill="#4b4960" stroke="#3a2f41"/><g><path d="M285.37497,-83.00657c8.46526,4.08841 13.27386,11.69386 10.74035,16.98725c-2.53351,5.29338 -11.44975,6.27023 -19.915,2.18181c-8.46526,-4.08841 -13.27386,-11.69386 -10.74035,-16.98725c2.5335,-5.29338 11.44975,-6.27023 19.915,-2.18181z" fill="#e1e2db" stroke="#b8c1c0"/><path d="M269.64141,-70.89161c0.48342,-3.43257 6.86262,-5.46777 14.24835,-4.54573c7.38573,0.92204 12.98114,4.45215 12.49772,7.88473c-0.48342,3.43258 -5.82084,6.21172 -13.20657,5.28969c-7.38573,-0.92204 -14.02292,-5.1961 -13.5395,-8.62867z" fill="#8c9ca0" stroke="none"/><path d="M278.07965,-83.10521c1.72338,0.26558 3.02372,1.0544 2.90443,1.76191c-0.11929,0.7075 -1.61309,1.06575 -3.33648,0.80017c-1.72338,-0.26558 -3.02372,-1.05438 -2.90443,-1.76189c0.11931,-0.70751 1.61309,-1.06577 3.33648,-0.80019z" fill="#ffffff" stroke="none"/><path d="M272.66745,-82.40709c1.51538,0.73188 2.09416,2.68256 1.29275,4.357c-0.80144,1.67444 -2.67958,2.43855 -4.19495,1.70667c-1.51538,-0.73188 -2.09416,-2.68257 -1.29275,-4.35701c0.80144,-1.67444 2.67958,-2.43854 4.19495,-1.70666z" fill="#ffffff" stroke="none"/></g><path d="M296.12169,-59.8637c-0.51455,0.42375 -9.26581,7.21011 -21.65545,1.34123c-12.34334,-5.84698 -14.76831,-15.3913 -14.01747,-19.29244c1.0373,-5.38947 5.0634,-8.63215 5.0634,-8.63215c0,0 -2.3465,12.74356 12.32038,19.91771c15.40467,7.53504 23.72505,-3.23153 23.72505,-3.23153c0,0 -0.39875,5.74884 -5.43588,9.89717z" fill="#7c7984" stroke="#3a2f41"/></g><path d="M254.14085,-32.06909c2.22591,8.63175 -4.23096,14.56824 -13.11201,16.60986c-8.32981,1.9149 -16.34955,-1.59627 -18.66577,-7.92401c-0.15328,-0.41875 -8.48158,-2.04983 -8.58335,-2.49249c-0.0613,-0.26664 2.66121,-1.76887 2.66121,-1.76887c0,0 -1.35651,-1.95291 -3.94744,-3.29206c-0.94902,-0.4905 -5.62479,1.64072 -6.94608,5.09127c-0.94006,2.45495 -4.50732,2.6933 -4.98454,2.64705c-0.10148,-0.00983 -1.23631,-0.89089 -1.33454,-1.90601c-0.07588,-0.78414 0.72721,-1.90637 0.72721,-1.90637c0,0 -1.95234,-0.23966 -2.35496,-3.13787c-0.55603,-4.00248 3.54277,-4.46485 3.54277,-4.46485c0,0 2.62608,1.86828 3.84303,1.36301c1.11938,-0.46475 3.20898,-1.63638 4.3109,-2.43065c0.44031,-0.31737 0.72292,-0.81459 0.72292,-0.81459c0,0 -0.71882,-3.88694 2.31992,-3.38981c5.70801,0.9338 9.24724,7.80954 9.71131,6.45211c0.51314,-1.50095 3.57856,-4.50955 3.57856,-4.50955c0,0 -0.28727,-1.46368 1.16888,-2.43601c1.41771,-0.94667 3.00928,-0.09764 3.26468,-0.26125c0.31641,-0.2027 -1.58668,-4.29197 -1.29576,-4.91561c0.38038,-0.81542 4.65283,2.2906 4.59204,1.13056c-0.05651,-1.07829 -2.84605,-2.67491 -3.3297,-4.29781c-0.90458,-3.03532 -1.67172,-7.4959 -1.67172,-7.4959l4.39802,-0.78417c0,0 -1.39859,3.32518 -0.20553,6.671c0.90965,2.55103 4.44235,4.25363 4.66945,4.68092c0.85764,1.61368 -1.03877,3.89563 -0.30872,3.84922c6.15848,-0.39149 14.60262,-0.45275 17.22923,9.73288z" fill="#8c9ca0" stroke="#3a2f41" stroke-width="2" stroke-linecap="butt"/><path d="M204.546,-33.10098c-6.36598,1.04933 -9.48571,-3.77143 -9.48571,-3.77143c0,0 3.94335,-0.81965 5.32227,-1.48994c1.43585,-0.69797 1.71308,-4.2187 2.07773,-5.71005" fill="#b8c1c0" stroke="#3a2f41" stroke-width="2" stroke-linecap="round"/><path d="M222.26029,-32.87242c0,0 -1.15136,-2.7635 1,-4.6c1.10147,-0.94026 3.01794,-0.5134 3.01794,-0.5134c0,0 1.09938,0.38634 1.96192,1.91594c0.74731,1.32525 1.21922,3.20421 1.21922,3.20421c0,0 0.36953,-0.89303 0.66576,-2.03416c0.22994,-0.88578 1.93515,0.02741 1.93515,0.02741" fill="#8c9ca0" stroke="#3a2f41" stroke-width="1.5" stroke-linecap="round"/><path d="M242.77457,-16.27242c0,0 -2.87327,0.96708 -3.00798,-0.54878c-0.18556,-2.08807 2.02151,-1.72119 3.06007,-3.11085c1.49437,-1.99956 -0.64597,-2.49711 -3.2457,-2.15808c-1.32877,0.17328 0.1936,-2.03943 0.1936,-2.03943" fill="none" stroke="#3a2f41" stroke-width="1.5" stroke-linecap="round"/><path d="M224.63172,-19.70098c0,0 -1.78197,-2.2234 1.28571,-3.14286c1.8904,-1.20966 5,0.42857 5,0.42857c0,0 -3.62647,-5.42817 2.42857,-6.57142" fill="none" stroke="#3a2f41" stroke-width="1.5" stroke-linecap="round"/><path d="M236.63171,-24.9867c-1.67019,-7.2424 4.28572,-5.71428 4.28572,-5.71428" fill="none" stroke="#3a2f41" stroke-width="1.5" stroke-linecap="round"/><path d="M241.91743,-25.70098c-0.28075,-6.22783 5.85291,-4.19451 5.85291,-4.19451c0,0 -2.48834,-5.36123 0.65923,-6.50425c3.24376,-1.17796 5.05928,3.84162 5.05928,3.84162" fill="none" stroke="#3a2f41" stroke-width="1.5" stroke-linecap="round"/><path d="M236.34601,-33.41526c0,0 -2.50473,-1.5283 -0.8096,-4.30219c1.67284,-2.73741 4.51998,-0.91475 4.51998,-0.91475c0,0 -1.93877,-3.00383 2.86104,-3.06878" fill="none" stroke="#3a2f41" stroke-width="1.5" stroke-linecap="round"/><path d="M214.63172,-38.84384c0,0 9.75878,5.63933 7.28571,10.28572c0,0 4.94535,-4.14365 6.57143,1.71429" fill="none" stroke="#3a2f41" stroke-width="1.5" stroke-linecap="round"/><path d="M219.06029,-29.84385c-4.87974,1.78054 -5.91947,-5.76686 -5.91947,-5.76686c0,0 -2.03835,2.42866 -2.65196,-0.94742" fill="none" stroke="#3a2f41" stroke-width="1.5" stroke-linecap="round"/><g data-paper-data="{&quot;index&quot;:null}" stroke-linecap="butt"><path d="M278.64324,-45.60259c8.9616,0.80453 15.65094,7.86686 14.94106,15.77415c-0.70988,7.9073 -8.55016,13.66522 -17.51176,12.86069c-8.9616,-0.80453 -15.65094,-7.86686 -14.94106,-15.77415c0.70988,-7.90729 8.55016,-13.66522 17.51176,-12.86069z" fill="#e1e2db" stroke="#3a2f41" stroke-width="2"/><path d="M282.32959,-37.22661c6.27504,4.13303 8.28084,11.19061 4.4801,15.76353c-3.80075,4.57292 -11.9688,4.92951 -18.24383,0.79648c-6.27504,-4.13303 -8.28084,-11.19061 -4.48009,-15.76353c3.80075,-4.57292 11.96879,-4.92952 18.24383,-0.79648z" fill="#8c9ca0" stroke="none" stroke-width="0"/><path d="M281.96515,-43.64764c2.1542,0.73708 3.58203,2.10011 3.18917,3.04442c-0.39286,0.94431 -2.45767,1.1123 -4.61186,0.37522c-2.1542,-0.73708 -3.58203,-2.10012 -3.18917,-3.04442c0.39286,-0.9443 2.45767,-1.11229 4.61186,-0.37521z" fill="#ffffff" stroke="none" stroke-width="0"/><path d="M286.97132,-39.08181c1.50658,0.13526 2.62784,1.3597 2.50438,2.73488c-0.12346,1.37518 -1.44488,2.38034 -2.95146,2.24509c-1.50658,-0.13526 -2.62784,-1.35971 -2.50438,-2.73489c0.12346,-1.37518 1.44488,-2.38034 2.95146,-2.24508z" fill="#ffffff" stroke="none" stroke-width="0"/></g><path d="M280.38577,-14.9704c0,12.40552 -28.5,5.40552 -28.5,-1c0,-2.89949 6.13401,-9.25 10,-9.25c3.86599,0 18.5,7.3505 18.5,10.25z" fill="#e1e2db" stroke="#3a2f41" stroke-width="2" stroke-linecap="butt"/><path d="M255.02457,-28.91017l5.66667,-0.33334" fill="none" stroke="#3a2f41" stroke-width="2" stroke-linecap="round"/><path d="M300.19124,-37.24351l-6.33334,5.5" fill="none" stroke="#3a2f41" stroke-width="2" stroke-linecap="round"/><path d="M271.63577,-45.24351l1.0813,-6.39838c0,0 -3.04014,-2.19478 -3.60851,-4.07767c-0.58165,-1.92687 1.19387,-4.85728 1.19387,-4.85728l5.66667,3.33333c0,0 -1.08957,2.07199 -0.97611,3.03641c0.10325,0.87759 1.62913,2.51422 1.62913,2.51422l-0.31968,5.78271z" fill="#8c9ca0" stroke="#3a2f41" stroke-width="2" stroke-linecap="round"/></g></g><g><g stroke-linecap="butt"><path d="M125.79086,177.55941c9.9243,-26.56312 36.19277,-96.87266 36.19277,-96.87266l38.73017,14.47006c0,0 -25.39386,68.48213 -35.28766,94.96363c-9.8938,26.48149 -49.55958,14.00209 -39.63528,-12.56103z" fill="#e1e2db" stroke="#3a2f41" stroke-width="2"/><path d="M132.77844,159.52649l30.28624,-78.45192l38.8131,14.23891l-30.28626,78.45194z" fill="#8c9ca0" stroke="#3a2f41" stroke-width="2"/><path d="M125.17374,176.04916l7.95046,-22.16064c0,0 20.16158,-9.46636 43.14113,3.88607c2.70415,1.57126 -4.93542,25.25958 -7.25725,23.6295c-17.0843,-11.99434 -43.83431,-5.35492 -43.83431,-5.35492z" fill="#3a2f41" stroke="none" stroke-width="0"/><path d="M142.15565,132.11568l7.95046,-22.16067c0,0 20.16158,-9.46633 43.14113,3.88609c2.70415,1.57126 -4.93541,25.25957 -7.25726,23.62948c-17.0843,-11.99434 -43.83433,-5.35491 -43.83433,-5.35491z" fill="#3a2f41" stroke="none" stroke-width="0"/></g><g><g fill="#e1e2db" stroke="none" stroke-width="0" stroke-linecap="round"><path d="M137.38588,129.44313c0,0 -4.86244,-25.19085 -3.81929,-27.8806c0.94289,-2.43128 12.73362,-5.12284 12.73362,-5.12284c0,0 4.42289,-15.45583 13.30341,-28.12742c9.08092,-12.95756 22.73121,-23.10994 32.67295,-20.57783c10.77406,2.74412 27.62713,38.142 18.85709,52.14566c-3.92703,6.27053 -9.41636,22.31249 -11.16192,26.06002c-2.97355,6.3839 -2.10333,18.89303 -4.66644,23.03704c-2.56311,4.14401 -11.90651,3.7579 -11.90651,3.7579l-3.98239,9.3435l-48.47046,-22.13121l6.43993,-10.50421z"/></g><path d="M214.25601,85.77225l-51.26755,-21.32798c0,0 14.19139,-18.41379 29.54161,-18.02354c15.35022,0.39025 21.72594,39.35153 21.72594,39.35153z" fill="#8c9ca0" stroke="none" stroke-width="0" stroke-linecap="butt"/><g fill="none" stroke="#3a2f41" stroke-linecap="round"><path d="M133.56655,101.56259c0.94289,-2.4313 12.73361,-5.12284 12.73361,-5.12284c0,0 7.94526,-23.99085 22.17546,-38.66314c7.3383,-7.56627 19.77456,-12.42329 26.4649,-10.71929c10.77407,2.7441 24.96312,38.81917 16.19307,52.82285c-3.92701,6.27051 -9.41635,22.31248 -11.16191,26.06001c-2.97355,6.38388 -2.10334,18.89302 -4.66645,23.03701c-2.56313,4.14401 -11.90651,3.75791 -11.90651,3.75791l-3.98238,9.34348l-48.47044,-22.13121l6.43993,-10.5042z" stroke-width="2"/><path d="M181.26454,152.56152l-43.87529,-21.39943" stroke-width="2"/><path d="M144.93693,96.47207l27.74106,0.53758l0.30638,5.03765z" stroke-width="1.5"/></g></g></g><g><g><g fill="none" stroke-linecap="round"><path d="M132.33334,224.72975l-15.94841,34.75307l-64.71826,42.9136" stroke="#3a2f41" stroke-width="15.5"/><path d="M132.33333,224.72975l-15.94841,34.75307l-64.71826,42.9136" stroke="#8c9ca0" stroke-width="9.5"/></g><g fill="#8c9ca0" stroke="#3a2f41" stroke-width="2" stroke-linecap="butt"><path d="M115.83333,294.33333c0,2.38826 5.49982,-6.91264 5.17708,-4.57909c-0.55256,3.99516 -2.27232,14.40353 -3.75912,18.46196c-2.41821,6.60091 6.94835,-9.39422 4.86959,-2.18695c-5.44535,15.50022 -11.60281,18.86247 -13.32952,20.334c-1.04439,1.54024 13.6179,-6.63751 9.1256,-0.85842c-3.43764,4.42233 -13.94479,12.21925 -17.98832,15.46947c-1.41299,1.75609 12.47087,-4.34987 7.32656,1.06824c-4.83902,5.09659 -15.65911,10.31433 -21.94065,11.63467c-1.36107,0.28609 13.90631,0.43232 8.78935,2.5013c-5.24379,2.12026 -23.41381,1.88125 -23.41381,1.88125c0,0 5.89256,6.06759 4.64323,6.1069c-9.1592,0.28822 -24.47628,-4.74438 -24.47628,-4.74438c0,0 5.28555,6.86052 1.76654,6.69817c-9.41496,-0.43437 -19.07634,-8.81018 -19.07634,-8.81018c0,0 7.80296,8.11557 5.79276,7.74716c-5.42698,-0.9946 -14.4397,-7.59553 -18.34546,-10.56997c-3.82081,-2.90974 5.97951,8.95037 -0.62486,4.30764c-6.78991,-4.77314 -12.83344,-9.98822 -15.53393,-15.63047c-0.98203,-2.05181 1.18196,8.81274 -0.34859,6.73304c-7.17763,-9.75291 -9.06813,-18.86309 -9.06813,-18.86309c0,0 -3.97679,10.35591 -4.28822,8.00994c-1.182,-8.90362 -3.14463,-18.33063 -0.49379,-26.31403c-0.01418,-2.85096 -6.47035,7.59117 -6.47035,7.2695c0,-5.83674 3.22615,-18.59969 5.3917,-25.61249c1.67517,-5.42478 -8.32292,8.41883 -6.80811,3.01166c1.84007,-6.56823 5.21455,-14.58583 10.64603,-21.62082c2.90661,-3.76471 -9.14725,6.70872 -7.40841,2.2724c2.88177,-7.3523 9.92949,-14.18414 17.99744,-19.50429c1.58007,-1.04193 -9.2027,0.91532 -5.72613,-1.9618c6.24914,-5.17164 24.30864,-9.98582 25.96417,-10.7138c4.49336,-1.97584 -9.05351,-2.11774 -4.05302,-3.01717c3.72428,-0.66988 27.90061,-4.35369 32.49634,-1.02036c6.32535,4.58785 -12.47929,-8.24249 -5.16942,-7.75247c7.8763,0.52799 19.58185,-0.04061 31.35468,10.51259c3.70182,3.31831 -6.10197,-9.81396 -2.30392,-7.19172c7.79724,5.38337 22.82833,20.23538 23.00432,25.12999c0.17599,4.89461 -2.02722,-14.43056 -0.42152,-11.95828c4.08123,6.28384 11.58587,17.74089 11.82886,27.96222c0.10851,4.56435 2.12817,-13.45004 3.52464,-9.13259c3.11522,9.6313 1.34904,24.28912 1.34904,24.93026z"/><path d="M87.66667,303.85975c0,19.81045 -17.08462,35.87 -38.15957,35.87c-21.07495,0 -38.15957,-16.05955 -38.15957,-35.87c0,-19.81045 17.08462,-35.87 38.15957,-35.87c21.07495,0 38.15957,16.05955 38.15957,35.87z"/><path d="M54.33333,303.72975c0,2.57733 -2.21596,4.66667 -4.94949,4.66667c-2.73353,0 -4.94949,-2.08934 -4.94949,-4.66667c0,-2.57733 2.21596,-4.66667 4.94949,-4.66667c2.73353,0 4.94949,2.08934 4.94949,4.66667z"/></g></g><g data-paper-data="{&quot;index&quot;:null}"><g fill="none" stroke-linecap="round"><path d="M131.4815,371.92589l-20.36706,-74.93472l10.92159,-36.64487" stroke="#3a2f41" stroke-width="15.5"/><path d="M131.4815,371.92589l-20.36706,-74.93472l10.92158,-36.64487" stroke="#8c9ca0" stroke-width="9.5"/></g><g fill="#8c9ca0" stroke="#3a2f41" stroke-width="2" stroke-linecap="butt"><path d="M88.55209,323.5581c0.42271,-0.48206 8.75871,-12.66738 17.45092,-17.85506c3.89648,-2.32549 -6.46193,12.55068 -3.37106,9.19039c6.92166,-7.52498 20.1179,-11.19143 27.32944,-13.22533c2.83727,-0.80021 -11.56043,12.27736 -8.20107,8.71324c3.35936,-3.56411 24.45287,-4.82094 33.86471,-3.72782c4.58452,0.53247 -11.44488,3.94264 -6.47379,3.8883c15.80948,-0.17284 24.23573,7.97219 30.50584,12.76808c5.81919,4.45099 -16.77867,1.69986 -8.998,2.42068c5.6531,0.52373 21.40197,19.23304 23.76052,22.19214c3.16675,3.9731 -7.11238,-4.85171 -5.0366,-0.40363c0.76479,1.63885 11.16931,17.16521 12.45821,25.17373c0.71706,4.45536 -6.09984,-4.12538 -5.59877,-2.30023c2.55851,9.31933 3.35327,19.10262 0.67261,26.5306c-1.61749,4.48199 -3.77534,-11.33989 -4.07201,-6.59296c-0.55439,8.87044 -3.30323,17.12349 -6.25018,23.27516c-2.42602,5.06425 -0.81621,-11.93622 -3.13326,-6.75301c-2.99534,6.70052 -8.98433,18.42369 -12.83251,22.8122c-0.21208,0.24186 1.81821,-11.86592 -0.0721,-9.73169c-3.27038,7.75024 -10.9613,13.54422 -17.72021,19.45935c-1.78086,1.55855 2.05677,-8.84973 2.05677,-8.84973c0,0 -7.4278,5.60332 -19.25462,8.20407c-2.52194,0.55458 6.26815,-6.1875 4.17702,-5.29224c-5.75039,2.46183 -13.7327,2.39841 -21.98483,1.51061c-8.02664,-0.86352 7.16141,-3.31948 2.37023,-3.65079c-4.89771,-0.33867 -16.02618,-1.3177 -20.76235,-4.14791c-1.75432,-1.04833 9.46317,-2.00572 9.46317,-2.00572c0,0 -12.78637,-0.07221 -20.15164,-5.95293c-2.7529,-2.19803 5.74435,-3.87151 5.74435,-3.87151c0,0 -14.83457,-6.31471 -21.53113,-12.57011c-0.91342,-0.85324 7.51744,-1.53034 7.51744,-1.53034c0,0 -13.8192,-11.79985 -16.36398,-16.85128c-2.48324,-4.92925 9.09236,5.02664 8.25762,3.91418c-3.85244,-5.13418 -8.54774,-16.191 -8.82588,-23.21339c-0.29571,-7.46541 6.11756,6.2792 6.21296,4.02724c-0.89735,-5.10968 -3.6569,-17.8994 -3.32592,-23.4909c0.43252,-7.30695 6.06513,8.50861 6.29537,6.66197c-0.32809,-2.24484 -2.741,-8.83247 3.38412,-24.07686c3.18881,-6.78951 -0.31434,11.41226 2.21947,4.85486c1.55785,-4.03169 7.12708,-12.99135 9.34564,-16.35952c1.29586,-1.96733 -0.70107,8.65186 0.87352,6.85618z"/><path d="M155.78967,347.48013c15.84577,13.89479 18.10317,37.23355 5.04207,52.12856c-13.0611,14.89502 -36.49475,15.70587 -52.34052,1.81108c-15.84577,-13.89479 -18.10317,-37.23355 -5.04207,-52.12856c13.0611,-14.89502 36.49475,-15.70587 52.34052,-1.81108z"/><path d="M135.39559,370.92471c2.05528,1.80223 2.3439,4.83414 0.64465,6.77198c-1.69924,1.93783 -4.74288,2.04777 -6.79816,0.24554c-2.05528,-1.80223 -2.3439,-4.83414 -0.64465,-6.77198c1.69924,-1.93783 4.74288,-2.04777 6.79816,-0.24554z"/></g></g><g stroke-linecap="butt"><path d="M118.96364,173.35052l51.52816,15.70848l-15.95141,82.48587l-64.67311,-19.71575z" fill="#3a2f41" stroke="url(#color-2)" stroke-width="0.5"/><path d="M122.58428,241.82c-0.42563,-3.7334 2.25585,-7.10499 5.98927,-7.53063c3.73339,-0.42563 7.10499,2.25586 7.53063,5.98928c0.42564,3.73342 -2.25584,7.10501 -5.98926,7.53064c-3.73341,0.42567 -7.105,-2.25584 -7.53064,-5.98926z" fill="#8c9ca0" stroke="none" stroke-width="0"/></g></g></g></g></svg>