<svg version="1.1" xmlns="http://www.w3.org/2000/svg" xmlns:xlink="http://www.w3.org/1999/xlink" width="50.65528" height="101.3896" viewBox="0,0,50.65528,101.3896"><g transform="translate(-219.15043,-158.20039)"><g data-paper-data="{&quot;isPaintingLayer&quot;:true}" fill-rule="nonzero" stroke-linejoin="miter" stroke-miterlimit="10" stroke-dasharray="" stroke-dashoffset="0" style="mix-blend-mode: normal"><g fill="none" stroke="#8c9ca0" stroke-width="2" stroke-linecap="round"><path d="M237.2872,201.9135l18.8658,9.4415l-10.0491,17.4718l15.7688,4.2905l-9.3226,16.2585l16.2556,6.2303"/><path d="M254.8626,258.59l10.7205,-12.743l-16.0132,-6.2912l10.4152,-14.9862l-18.7441,-8.9565l10.2916,-17.5327"/></g><g stroke="none" stroke-width="0.78636"><path d="M219.9056,183.023c-1.4779,-5.1618 -0.7209,-10.44 1.697,-14.7967c2.4169,-4.3572 6.4947,-7.7929 11.6566,-9.2708c5.1618,-1.4778 10.44,-0.7208 14.7967,1.6971c4.3572,2.4169 7.7929,6.4947 9.2708,11.6565c1.4778,5.1619 0.7208,10.4401 -1.697,14.7968c-2.417,4.3572 -6.4948,7.7928 -11.6566,9.2707c-5.1619,1.4779 -10.4401,0.7209 -14.7967,-1.697c-4.3573,-2.4169 -7.7929,-6.4947 -9.2708,-11.6566z" fill="#3a2f41" stroke-linecap="butt"/><path d="M223.3257,198.4784c-0.5747,-2.0071 1.1382,-4.4663 4.371,-6.8167c3.2328,-2.3505 7.9834,-4.5932 13.4847,-6.1682c5.5013,-1.5751 10.719,-2.1864 14.7059,-1.903c3.9868,0.2834 6.7417,1.4635 7.3164,3.4706c0.5746,2.0072 -1.1383,4.4664 -4.3711,6.8168c-3.2328,2.3504 -7.9834,4.5932 -13.4847,6.1682c-5.5013,1.5751 -10.719,2.1864 -14.7058,1.9029c-3.9869,-0.2834 -6.7418,-1.4634 -7.3164,-3.4706z" fill="#3a2f41" stroke-linecap="butt"/><path d="M233.7702,184.9549c-0.4777,-1.6685 0.4872,-3.5806 2.4319,-5.3218c1.9445,-1.7419 5.2916,-3.4503 8.3102,-4.2974c4.0349,-1.1315 8.714,-2.5128 13.0148,-1.6813c1.4013,0.2834 0.7042,2.9508 0.6776,4.5092c-0.1557,1.6789 0.0775,3.8361 -1.2124,5.0504c-2.414,2.282 -5.8522,3.3662 -9.0169,4.2174c-3.0423,0.8187 -6.7536,1.2008 -9.3253,0.7519c-2.5715,-0.4482 -4.4022,-1.56 -4.8799,-3.2284z" fill="#8c9ca0" stroke-linecap="round"/></g></g></g></svg>