<svg version="1.1" xmlns="http://www.w3.org/2000/svg" xmlns:xlink="http://www.w3.org/1999/xlink" width="184.5119" height="450.20105" viewBox="0,0,184.5119,450.20105"><g transform="translate(-152.04544,43.51166)"><g data-paper-data="{&quot;isPaintingLayer&quot;:true}" fill-rule="nonzero" stroke-linejoin="miter" stroke-miterlimit="10" stroke-dasharray="" stroke-dashoffset="0" style="mix-blend-mode: normal"><g><g><path d="M209.48013,100.24107l-1.66526,-57.97609l69.47135,-1.99544l1.66526,57.97609c0,0 -14.37877,2.74731 -33.40211,3.29371c-21.44456,0.61596 -36.06924,-1.29828 -36.06924,-1.29828z" fill="#8c9ca0" stroke="#3a2f41" stroke-width="2" stroke-linecap="butt"/><path d="M270.47436,10.92149l27.5641,15.5c6.00381,30.80065 26.46154,55 26.46154,55l-20.39744,15l-7.16667,-15.5l1.10256,18l-30.03846,2l-4.39744,-68.5z" data-paper-data="{&quot;index&quot;:null}" fill="#e1e2db" stroke="#3a2f41" stroke-width="2" stroke-linecap="round"/><path d="M216.89744,33.42149l1.10256,69h-13.78205l-3.30769,-6.5l-2.75641,6.5l-18.19231,-2.5l1.10256,-18l-7.16667,15.5l-20.39744,-15c0,0 20.45773,-24.19936 26.46154,-55l27.5641,-15.5z" fill="#e1e2db" stroke="#3a2f41" stroke-width="2" stroke-linecap="round"/><path d="M216.95638,100.08816l-0.5,-26.66667l2.33333,0.16667l0.33333,26.66667z" fill="#546f75" stroke="none" stroke-width="0" stroke-linecap="butt"/><path d="M266.53528,99.06691l-1.41774,-26.64416l2.2296,-0.47754l1.52405,26.83521z" data-paper-data="{&quot;index&quot;:null}" fill="#546f75" stroke="none" stroke-width="0" stroke-linecap="butt"/></g><path d="M253.37052,-10.54231c-14.36861,-4.4899 -20.51781,-9.13254 -20.51781,-9.13254c0,0 6.79017,-16.8131 25.54409,-22.88544c1.42557,-0.46158 7.91736,7.91405 10.43394,17.63278c2.31445,8.93813 0.96261,17.22581 0.96261,17.22581c0,0 -9.10237,-0.55311 -16.42282,-2.84062z" data-paper-data="{&quot;index&quot;:null}" fill="#b7c3c6" stroke="#3a2f41" stroke-width="2" stroke-linecap="butt"/><path d="M216.14619,-5.47429c-6.65479,3.81255 -15.42363,6.31585 -15.42363,6.31585c0,0 -3.10751,-7.80105 -2.77533,-17.02799c0.3612,-10.03278 4.89374,-19.61144 6.38531,-19.46818c19.62222,1.88456 29.87884,16.83743 29.87884,16.83743c0,0 -5.00315,5.85964 -18.06519,13.34291z" data-paper-data="{&quot;index&quot;:null}" fill="#e1e2db" stroke="#3a2f41" stroke-width="2" stroke-linecap="butt"/><g data-paper-data="{&quot;index&quot;:null}" stroke-linecap="butt"><path d="M279.53925,71.52277c-7.01309,5.76634 -20.06174,9.14576 -35.74462,9.02282c-31.40065,-0.24613 -43.77998,-12.62659 -43.24859,-31.35963c0.53137,-18.73304 15.35531,-46.15514 51.59376,-44.09329c23.83787,1.35628 36.37128,23.81201 35.8399,42.54507c-0.26945,9.49907 -1.22607,17.95316 -8.44044,23.88503z" fill="#e1e2db" stroke="none" stroke-width="0"/><path d="M237.33105,6.18746c43.24155,-4.48322 51.11545,24.99453 50.63662,41.87514h-0.00001c-0.25205,8.88585 -1.94854,17.2037 -8.21398,23.04438c-6.94326,6.47258 -19.24677,9.99456 -35.97108,9.86346c-31.40065,-0.24613 -44.02998,-12.62658 -43.49859,-31.35962c0.45104,-15.90077 11.72906,-39.17988 36.91253,-43.38518" fill="none" stroke="#3a2f41" stroke-width="2"/></g><g><path d="M167.51568,29.97187c0,0 5.82149,-4.93937 10.38042,-11.59946c4.62872,-6.76205 9.37153,-14.95428 15.06274,-20.51018c7.06291,-6.89495 16.53905,-15.12592 38.73576,-17.79427c12.69644,-1.52629 31.13717,1.20261 44.08053,7.53233c13.22001,6.46502 21.41329,17.55011 28.40713,28.50688c3.8572,6.04281 12.1768,9.23721 12.1768,9.23721l-8.3428,10.03973l-11.03777,-12.42243l11.06238,22.86791l-17.52414,-0.92299l-6.16911,-8.6822l2.37563,8.84178c0,0 -18.37547,-0.61228 -38.19076,-0.0768c-17.99864,0.48639 -35.41019,2.20757 -35.41019,2.20757l-0.40002,-19.81798l-5.39046,20.20527c0,0 -5.48581,0.17671 -12.065,1.55387c-7.35523,1.53961 -14.46982,3.62248 -14.46982,3.62248c0,0 2.57045,-9.36515 3.58227,-13.60091c0.88706,-3.71346 2.4971,-9.45352 2.4971,-9.45352l-8.12392,13.79008z" fill="#e1e2db" stroke="none" stroke-width="0" stroke-linecap="round"/><path d="M288.89579,10.42868l11.18012,17.35876" fill="none" stroke="#8c9ca0" stroke-width="2" stroke-linecap="round"/><path d="M186.23146,31.77337l5.1796,-12.69649" fill="none" stroke="#8c9ca0" stroke-width="2" stroke-linecap="round"/><path d="M167.51568,29.97187c0,0 5.82149,-4.93937 10.38042,-11.59946c4.62872,-6.76204 9.37153,-14.95427 15.06274,-20.51017c7.06291,-6.89495 16.53905,-15.12592 38.73576,-17.79427c12.69644,-1.52629 31.13717,1.20261 44.08053,7.53233c13.22002,6.46502 21.4133,17.55011 28.40714,28.50688c3.85719,6.0428 12.17679,9.23721 12.17679,9.23721l-8.3428,10.03973c0,0 -7.71875,-8.49933 -9.62852,-10.64868c-0.8734,-0.98296 -1.40925,-1.77376 -1.40925,-1.77376l11.06239,22.86791l-17.52414,-0.92299l-6.16911,-8.6822l2.37563,8.84178c0,0 -18.37546,-0.61228 -38.19076,-0.0768c-17.99864,0.48639 -35.41019,2.20757 -35.41019,2.20757l-0.40002,-19.81798l-5.39046,20.20527c0,0 -5.48581,0.17671 -12.065,1.55387c-7.35523,1.53961 -14.46981,3.62248 -14.46981,3.62248c0,0 3.5567,-14.57468 4.55585,-18.34797c0.48983,-1.84983 1.09494,-2.99218 1.09494,-2.99218l-7.69534,12.0758z" fill="none" stroke="#3a2f41" stroke-width="2" stroke-linecap="round"/><path d="M182.08853,51.35108c0,0 3.22657,-13.28491 4.806,-19.19471c1.3744,-5.14261 4.14127,-14.28359 4.14127,-14.28359c0,0 -3.90768,10.44041 -5.7512,13.84657c-1.493,2.75853 -6.8786,10.07617 -6.8786,10.07617l19.25396,-40.44444l-2.42857,30.28572z" fill="#e1e2db" stroke="none" stroke-width="0" stroke-linecap="butt"/><path d="M284.81055,13.22083l-0.125,-10.5c0,0 7.95906,6.1881 11.69601,11.25696c3.0622,4.15361 9.10722,16.96086 9.10722,16.96086c0,0 -6.61741,-6.78896 -8.64185,-9.39908c-2.35971,-3.0424 -6.04034,-8.00801 -6.04034,-8.00801l5.37896,10.18928l3.125,6.25z" fill="#e1e2db" stroke="none" stroke-width="0" stroke-linecap="butt"/></g><path d="M252.66389,74.45539c-3.91359,2.03233 -5.11471,-1.51978 -5.11471,-1.51978" data-paper-data="{&quot;index&quot;:null}" fill="none" stroke="#3a2f41" stroke-width="1" stroke-linecap="round"/><g data-paper-data="{&quot;index&quot;:null}" stroke="#3a2f41" stroke-linecap="butt"><path d="M221.97253,65.42679c-10.79834,-0.21963 -16.72463,-10.37965 -16.72463,-10.37965c0,0 2.73188,-12.03761 16.03222,-12.07641c12.4431,-0.06087 18.90861,13.63132 18.90861,13.63132c0,0 -5.63116,9.13156 -18.2162,8.82474z" fill="#e1e2db" stroke-width="1"/><path d="M215.1904,63.43552c-2.41003,-1.08347 -3.70491,-2.45868 -5.04146,-3.52794c-3.72187,-2.97755 -4.38966,-5.27121 -4.38966,-5.27121c0,0 5.30554,-13.42637 19.92674,-10.25927z" fill="#3a2f41" stroke-width="1.5"/></g><path d="M207.96393,39.28113c0,0 15.03957,-19.90574 21.5,-15.5" fill="none" stroke="#3a2f41" stroke-width="1.5" stroke-linecap="round"/></g><g stroke-linecap="butt"><path d="M332.78146,166.19322l-33.2731,51.66511l-17.80026,-3.35054c0,0 -16.81742,-49.9768 -17.07307,-50.34108c-1.53481,-3.66195 18.01098,-8.6653 18.01098,-8.6653l-17.75558,-33.38763l4.05079,-21.76079l20.08568,4.87873c0,0 10.84851,18.49917 24.18528,35.19541z" data-paper-data="{&quot;index&quot;:null}" fill="#e1e2db" stroke="none" stroke-width="0"/><path d="M332.78146,166.19321l-0.1453,0.22562c-21.04755,-8.77206 -54.84913,-20.05427 -54.84913,-20.05427l-12.89659,-24.25078l4.05079,-21.76079l20.08568,4.87873c0,0 10.84851,18.49917 24.18528,35.1954z" data-paper-data="{&quot;index&quot;:null}" fill="#8c9ca0" stroke="none" stroke-width="0"/><path d="M332.78146,166.19321l-33.2731,51.66511l-17.80026,-3.35054c0,0 -16.81742,-49.9768 -17.07307,-50.34108c-1.53481,-3.66195 18.01098,-8.6653 18.01098,-8.6653l-17.75558,-33.38763l4.05079,-21.76079l20.08568,4.87873c0,0 10.84851,18.49917 24.18528,35.1954z" data-paper-data="{&quot;index&quot;:null}" fill="none" stroke="#3a2f41" stroke-width="2"/></g><g data-paper-data="{&quot;index&quot;:null}" stroke="#3a2f41" stroke-width="2"><path d="M258.01648,175.84657c0,0 9.61522,-13.98386 13.98179,-14.31279c4.18535,-0.31528 17.83959,17.18714 17.83959,17.18714c0,0 5.5154,29.40778 2.26265,31.28694c-3.51177,2.0288 -14.70925,3.52838 -15.06612,2.64163c-5.38519,-13.38127 -19.0179,-36.80291 -19.0179,-36.80291z" fill="#e1e2db" stroke-linecap="butt"/><path d="M264.09022,184.0558l19.31304,-12.17643" fill="none" stroke-linecap="round"/></g><path d="" fill="#7c7984" stroke="none" stroke-width="0.5" stroke-linecap="butt"/><path d="" fill="#626171" stroke="none" stroke-width="0.5" stroke-linecap="butt"/><path d="" data-paper-data="{&quot;index&quot;:null}" fill="#e1e2db" stroke="#3a2f41" stroke-width="1" stroke-linecap="butt"/><g data-paper-data="{&quot;index&quot;:null}"><g stroke-linecap="butt"><path d="M277.04612,345.34226l-17.08988,-90.9103l24.77747,-6.58928l28.33988,93.97981z" fill="#e1e2db" stroke="none" stroke-width="0"/><path d="M262.40107,272.05996l-3.72186,-17.5382l26.52748,-6.84507l4.31531,18.07417z" fill="#8c9ca0" stroke="none" stroke-width="0"/><path d="M277.01907,346.19948l-18.08988,-91.93348l26.27748,-6.58927l26.83988,92.95663z" fill="none" stroke="#3a2f41" stroke-width="2.5"/></g><path d="M283.75837,384.88262l-9.75,-52.69288l34.25,-4.34845l26.25,76.22564z" fill="#3a2f41" stroke="#3a2f41" stroke-width="2.5" stroke-linecap="butt"/><path d="M274.00837,324.26023l31.5,-4.09265" fill="none" stroke="#3a2f41" stroke-width="2.5" stroke-linecap="round"/></g><g><g stroke-linecap="butt"><path d="M178.11399,342.33407l28.33988,-93.9798l24.77747,6.58928l-17.08988,90.91031z" fill="#e1e2db" stroke="none" stroke-width="0"/><path d="M201.66558,266.26246l4.31531,-18.07417l26.52748,6.84508l-3.72186,17.5382z" fill="#8c9ca0" stroke="none" stroke-width="0"/><path d="M179.14103,341.14494l26.83988,-92.95663l26.27748,6.58927l-18.08988,91.93349z" fill="none" stroke="#3a2f41" stroke-width="2.5"/></g><path d="M156.67921,404.57852l26.25,-76.22563l34.25,4.34844l-9.75,52.69289z" fill="#3a2f41" stroke="#3a2f41" stroke-width="2.5" stroke-linecap="butt"/><path d="M185.67921,320.67915l31.5,4.09265" fill="none" stroke="#3a2f41" stroke-width="2.5" stroke-linecap="round"/></g><g stroke="#3a2f41" stroke-width="2"><g data-paper-data="{&quot;index&quot;:null}"><path d="M253.11391,256.13268l-7.71623,-68.6579l31.51412,-3.91764l14.3246,67.0351c0,0 -5.14909,6.25656 -17.04221,7.49354c-13.02542,1.35474 -21.08027,-1.9531 -21.08027,-1.9531z" data-paper-data="{&quot;index&quot;:null}" fill="#e1e2db" stroke-linecap="butt"/><path d="M281.75773,212.58997l-12.32517,-1.63455l-2.97504,-22.33889" fill="none" stroke-linecap="round"/><path d="M280.90772,208.23116l-8.60012,-1.0897l-2.37502,-16.34553" fill="none" stroke-linecap="round"/></g><path d="M289.02922,239.37245c0,0 -2.86328,6.34413 -16.35599,9.99326c-11.47652,3.10384 -20.14401,-3.34269 -20.14401,-3.34269" data-paper-data="{&quot;index&quot;:null}" fill="none" stroke-linecap="round"/></g><g data-paper-data="{&quot;index&quot;:null}" stroke="#3a2f41" stroke-width="2"><path d="M199.15915,249.02041l17.43183,-65.30499l31.47675,7.24662l-8.33547,65.29603c0,0 -7.36192,8.16376 -20.40854,5.73651c-15.71471,-2.92363 -20.16457,-12.97417 -20.16457,-12.97417z" data-paper-data="{&quot;index&quot;:null}" fill="#e1e2db" stroke-linecap="butt"/><path d="M226.80752,189.86727l-4.33248,21.95303l-12.50034,0.32261" fill="none" stroke-linecap="round"/><path d="M223.18322,188.39908l-4.36794,19.64976l-8.224,0.0949" fill="none" stroke-linecap="round"/></g><g data-paper-data="{&quot;index&quot;:null}" stroke-linecap="butt"><path d="M237.9872,212.54409v-23.07052h17.42024l1.8476,19.58817z" fill="#8c9ca0" stroke="#3a2f41" stroke-width="2"/><path d="M237.72326,209.93233v-23.07052h17.42024l1.8476,19.58818z" fill="#e1e2db" stroke="#e1e2db" stroke-width="3.5"/></g><path d="M240.42922,249.56933c0,0 -9.14242,6.44654 -21.24779,3.34269c-14.23204,-3.64913 -17.25221,-9.99325 -17.25221,-9.99325" fill="none" stroke="#3a2f41" stroke-width="2" stroke-linecap="round"/><path d="M246.10422,190.02127v9.61773l3.6,2.25096l-1.4,8.7992" fill="none" stroke="#3a2f41" stroke-width="2" stroke-linecap="round"/><path d="M255.70421,186.13324l-1.4,13.09649l-4.6,2.66023" fill="none" stroke="#3a2f41" stroke-width="2" stroke-linecap="round"/><g><g><path d="M277.64928,179.78863c0,0 0.37731,2.96185 0.11497,3.31144l-26.24764,11.78067l-36.69819,-9.60998l-1.39813,-5.76466c0,0 7.68006,-10.09801 7.80154,-10.80109c0.55252,-3.19811 -1.67101,-23.87676 -1.67101,-23.87676c0,0 -13.86134,-23.28953 -8.82698,-38.57207c1.5051,-4.56894 21.75189,-13.59222 30.66428,-13.54902c9.7781,0.04741 20.07161,0.85443 27.89132,9.98098c9.43825,11.0156 11.83555,32.8618 11.83555,32.8618l-9.37208,17.07525l-0.88204,13.8238z" fill="#e1e2db" stroke="none" stroke-width="0" stroke-linecap="round"/><g stroke="none"><g fill="#e1e2db" stroke-width="0" stroke-linecap="round" font-family="&quot;Helvetica Neue&quot;, Helvetica, Arial, sans-serif" font-weight="400" font-size="16" text-anchor="start"><g><g/></g></g><g stroke-linecap="butt"><g><g fill="none" stroke-width="1" font-family="sans-serif" font-weight="normal" font-size="12" text-anchor="start"/><path d="M219.53457,112.60372c0,0.39965 -3.62666,3.8348 -2.51007,1.56508c1.03097,-2.0957 5.9935,-9.54422 5.9935,-9.54422c0,0 -2.86416,2.67578 -5.89282,6.09263c-0.49533,0.55881 7.37224,-10.94815 9.37624,-10.94815c2.00401,0 -6.96687,12.06608 -6.96687,12.8347z" fill="#ffffff" stroke-width="0"/></g></g></g><path d="M211.22386,106.25619c1.5051,-4.56894 21.75189,-13.59222 30.66428,-13.54902c9.7781,0.04741 20.07161,0.85443 27.89132,9.98098c0.75942,0.88633 13.56229,24.50636 13.56229,24.50636l-4.08493,18.03222c0,0 -69.72299,-29.27416 -69.88079,-30.36581c0.33605,-2.93354 0.92963,-5.81745 1.84781,-8.60473z" fill="#8c9ca0" stroke="none" stroke-width="0" stroke-linecap="butt"/><g stroke="none"><g fill="#8c9ca0" stroke-width="0" stroke-linecap="round"><g><g><path d="M271.09135,104.55637l13.80826,22.7097l-8.34347,17.47178l-61.93666,-27.93019l4.77947,-7.43514"/></g></g></g><g fill="none" stroke-width="1" stroke-linecap="butt" font-family="sans-serif" font-weight="normal" font-size="12" text-anchor="start"><g><g/></g></g></g><path d="M272.30028,151.44292c-0.33429,6.76669 -1.27277,15.00605 -1.27277,15.00605l7.12175,13.33961c0,0 0.37731,2.96185 0.11497,3.31144l-27.24764,11.53067l-36.03152,-10.02665l-1.0648,-5.09799c0,0 7.68006,-10.76468 7.80154,-11.46776c0.65999,-3.82018 -1.53594,-21.53206 -1.53594,-21.53206c0,0 -10.47795,-29.54141 -5.96205,-43.2501c1.5051,-4.56894 18.75189,-10.59222 27.66428,-10.54902c9.7781,0.04741 20.07161,0.85443 27.89132,9.98098c0.29241,0.34128 0.57416,0.68256 0.8456,1.02393" fill="none" stroke="#3a2f41" stroke-width="2" stroke-linecap="round"/><g fill="none" stroke="none" stroke-width="1" stroke-linecap="butt" font-family="sans-serif" font-weight="normal" font-size="12" text-anchor="start"><g/></g></g><path d="M256.51858,117.43706c0,2.34721 -1.95875,4.25 -4.375,4.25c-2.41625,0 -4.375,-1.90279 -4.375,-4.25c0,-2.34721 1.95875,-4.25 4.375,-4.25c2.41625,0 4.375,1.90279 4.375,4.25z" fill="#8c9ca0" stroke="#3a2f41" stroke-width="1.5" stroke-linecap="butt"/><path d="M259.93523,136.85373c0,2.34721 -1.95875,4.25 -4.375,4.25c-2.41625,0 -4.375,-1.90279 -4.375,-4.25c0,-2.34721 1.95875,-4.25 4.375,-4.25c2.41625,0 4.375,1.90279 4.375,4.25z" fill="none" stroke="#3a2f41" stroke-width="1.5" stroke-linecap="butt"/><g><path d="M258.05186,109.30744l-9.91911,-8.96534c0,0 6.98372,-6.6646 10.00069,-8.90762c0.66064,-0.49117 0.92751,-0.09179 1.10496,-0.02339c0.4353,0.37091 3.16064,5.08093 2.694,5.39524z" data-paper-data="{&quot;index&quot;:null}" fill="#8c9ca0" stroke="#3a2f41" stroke-width="4.5" stroke-linecap="round"/><path d="M239.69667,109.40396c0,0 -9.56152,-9.66352 -10.43199,-12.58446c0.06358,-1.43863 2.09816,-7.62946 3.02998,-5.85925c0.96418,0.50341 16.79795,-3.0079 20.78337,-0.61156c3.34966,2.01407 -4.97335,10.03631 -4.97335,10.03631z" fill="#3a2f41" stroke="#3a2f41" stroke-width="4.5" stroke-linecap="round"/><path d="M231.25031,96.35401c0.03554,-1.38729 0.27159,-4.78803 0.81013,-5.06431c0.99698,-0.95842 10.66879,-5.54936 13.04024,-5.93378c1.50029,-0.2432 12.31016,5.35205 12.88798,5.96884c0.99973,0.50599 2.04214,4.51976 2.04214,5.01727" fill="none" stroke="#3a2f41" stroke-width="6.5" stroke-linecap="butt"/><g><path d="M258.05186,109.30744l-9.91911,-8.96534c0,0 6.98373,-6.6646 10.00069,-8.90762c0.66064,-0.49117 0.92751,-0.09179 1.10496,-0.02339c0.4353,0.37091 3.16064,5.08093 2.694,5.39524z" data-paper-data="{&quot;index&quot;:null}" fill="#8c9ca0" stroke="#12161a" stroke-width="0" stroke-linecap="round"/><path d="M239.69668,109.40396c0,0 -9.56152,-9.66352 -10.432,-12.58446c0.06358,-1.43863 2.09816,-7.62946 3.02998,-5.85926c1.77455,0.92652 15.81001,9.42475 15.81001,9.42475z" fill="#8c9ca0" stroke="#12161a" stroke-width="0" stroke-linecap="round"/><path d="M231.25031,96.354c0.03554,-1.38729 0.27159,-4.78803 0.81013,-5.06431c0.99698,-0.95842 10.66879,-5.54935 13.04024,-5.93378c1.50029,-0.2432 12.31016,5.35205 12.88798,5.96884c0.99973,0.50599 2.04214,4.51976 2.04214,5.01727" fill="none" stroke="#8c9ca0" stroke-width="2" stroke-linecap="butt"/></g></g><g fill="none"><g stroke="none" stroke-width="1" stroke-linecap="butt" font-family="sans-serif" font-weight="normal" font-size="12" text-anchor="start"><g><g/></g></g><g stroke="#3a2f41" stroke-width="2" stroke-linecap="round"><g><g><path d="M270.13205,102.89645l14.78873,24.99783l-12.67948,24.52434"/></g></g></g></g></g><path d="M173.58576,138.76046c13.33677,-16.69624 24.18528,-35.1954 24.18528,-35.1954l20.08568,-4.87873l4.05079,21.76079l-17.75558,33.38763c0,0 19.54578,5.00335 18.01098,8.6653c-0.25565,0.36428 -17.07307,50.34108 -17.07307,50.34108l-17.80026,3.35054l-33.27309,-51.66511z" fill="#e1e2db" stroke="#3a2f41" stroke-width="2" stroke-linecap="butt"/><g stroke="#3a2f41" stroke-width="2"><path d="M210.76354,212.31615c-0.35687,0.88675 -11.55436,-0.61283 -15.06612,-2.64162c-3.25276,-1.87916 2.26264,-31.28694 2.26264,-31.28694c0,0 13.65425,-17.50241 17.8396,-17.18713c4.36657,0.32893 13.98179,14.31278 13.98179,14.31278c0,0 -13.63271,23.42164 -19.0179,36.80291z" fill="#e1e2db" stroke-linecap="butt"/><path d="M223.70771,183.72246l-19.31304,-12.17643" fill="none" stroke-linecap="round"/></g></g></g></svg>