<svg version="1.1" xmlns="http://www.w3.org/2000/svg" xmlns:xlink="http://www.w3.org/1999/xlink" width="240.37625" height="403.93924" viewBox="0,0,240.37625,403.93924"><g transform="translate(-119.03592,21.84462)"><g data-paper-data="{&quot;isPaintingLayer&quot;:true}" fill-rule="nonzero" stroke-linejoin="miter" stroke-miterlimit="10" stroke-dasharray="" stroke-dashoffset="0" style="mix-blend-mode: normal"><g data-paper-data="{&quot;index&quot;:null}" stroke-linecap="butt"><g fill="#e1e2db" stroke="#3a2f41" stroke-width="2"><path d="M157.51629,203.16922l-17.11623,8.54875l1.14657,-16.48275l-19.9588,-1.57807l16.26015,-13.35029l-15.39562,-14.34064l41.94109,4.09379l13.87695,-11.08302l-0.05884,25.94052l16.72454,14.2571l15.40526,-16.83978l11.24551,13.05963l-25.62544,34.15878z"/></g><g fill="none" stroke="none" stroke-width="1" font-family="sans-serif" font-weight="normal" font-size="12" text-anchor="start"/></g><g data-paper-data="{&quot;index&quot;:null}" stroke="#8c9ca0" stroke-width="2" stroke-linecap="round"><path d="M229.42774,190.96556l-9.38598,13.48193l-14.16261,-3.91913l-7.45273,-12.8171l23.01794,-19.11677l8.0144,-2.04387" fill="#3a2f41"/><path d="M222.55421,199.13218l-13.427,-3.3882l-5.70281,-11.79896" fill="none"/></g><g stroke-linecap="butt"><g><path d="M211.74759,333.87485l6.18064,-80.00874l23.87353,2.13674l-6.18065,80.00875z" fill="#e1e2db" stroke="none" stroke-width="0"/><path d="M215.71316,279.44847l1.18904,-17.8331l23.87354,2.13675l-1.35886,17.59045z" fill="#8c9ca0" stroke="none" stroke-width="0"/><path d="M211.32663,333.78866l6.18065,-80.00874l23.87354,2.13673l-6.18065,80.00874z" fill="none" stroke="#3a2f41" stroke-width="2.5"/></g><path d="M217.782,373.97359c0,0 -30.32176,2.35892 -35.72376,-1.41388c-5.96337,-4.16485 -1.11588,-17.32076 1.61099,-20.14935c8.39282,-8.70584 20.17881,-10.65883 20.17881,-10.65883l-1.07002,-13.06569l39.29535,2.98935l-1.08288,34.97484z" fill="#e1e2db" stroke="#3a2f41" stroke-width="2.5"/></g><g stroke-linecap="butt"><g data-paper-data="{&quot;index&quot;:null}"><path d="M256.61396,337.30459l-4.43666,-82.57264l23.91441,-1.66568l4.43665,82.57263z" fill="#e1e2db" stroke="none" stroke-width="0"/><path d="M254.00974,280.89328l-0.97543,-18.15415l23.91441,-1.66567l0.80036,18.40033z" fill="#8c9ca0" stroke="none" stroke-width="0"/><path d="M257.03668,337.22523l-4.43666,-82.57263l23.91441,-1.66567l4.43666,82.57263z" fill="none" stroke="#3a2f41" stroke-width="2.5"/></g><path d="M251.46475,367.48337l-1.08288,-34.97484l39.29535,-2.98935l-1.07002,13.06568c0,0 11.78599,3.953 20.17881,12.65883c2.72688,2.82858 6.57437,19.48449 0.61099,23.64934c-5.402,3.7728 -36.22376,0.91388 -36.22376,0.91388z" data-paper-data="{&quot;index&quot;:null}" fill="#e1e2db" stroke="#3a2f41" stroke-width="2.5"/></g><path d="M262.79409,89.42694c-26.99829,-2.22178 -26.39612,-85.97846 -7.66647,-102.39372c18.43907,-16.16058 40.70252,-5.44024 48.01889,13.93507c4.21547,11.16349 -12.61718,37.56798 -18.85671,56.61734c-5.61075,17.12971 -11.08919,32.69771 -21.4957,31.84132z" data-paper-data="{&quot;index&quot;:null}" fill="#e1e2db" stroke="#3a2f41" stroke-width="2" stroke-linecap="butt"/><path d="M283.14626,97.78036c-23.27964,-13.85291 14.04478,-88.83579 38.08066,-95.35782c23.66298,-6.42084 38.9565,12.98779 37.02049,33.60778c-1.11547,11.88062 -27.83406,28.21013 -41.80558,42.58393c-12.56357,12.92532 -24.32243,24.50571 -33.29558,19.1661z" data-paper-data="{&quot;index&quot;:null}" fill="#e1e2db" stroke="#3a2f41" stroke-width="2" stroke-linecap="butt"/><path d="M198.65812,109.71782c0,0 19.41766,-27.65509 35.05504,-39.03248c9.3942,-6.83496 24.21162,-10.23158 27.54557,-9.66925c4.16951,0.70325 23.8807,7.16968 33.8048,21.17388c12.30506,17.36406 10.93675,37.47998 9.65158,47.58736c-1.83907,14.46354 -12.48586,28.79989 -12.48586,28.79989c0,0 -22.67688,-2.9387 -50.93333,-4.97906c-6.72613,-0.48569 -13.76845,-0.92046 -20.89629,-1.2526c-0.57096,0.08157 -0.4758,-13.81379 -0.4758,-13.81379l-1.76654,13.47005l-25.28835,-0.40301z" data-paper-data="{&quot;index&quot;:null}" fill="#e1e2db" stroke="#3a2f41" stroke-width="2" stroke-linecap="butt"/><g data-paper-data="{&quot;index&quot;:null}" stroke-linecap="butt"><path d="M212.7469,114.9425c2.24556,-17.66051 16.85137,-36.95807 38.61262,-34.84208c33.08156,3.21674 42.17809,27.16877 39.93252,44.82928c-1.12928,8.88145 -0.80434,16.06181 -7.88843,21.17757c-7.00238,5.05679 -28.18977,5.15883 -42.32781,3.05443c-14.20472,-2.11429 -21.36556,-4.53134 -26.87045,-10.94136c-5.6629,-6.59403 -2.5971,-14.32262 -1.45844,-23.2778z" fill="#e1e2db" stroke="none" stroke-width="0"/><path d="M251.34447,80.43343c33.08156,3.21673 42.17809,27.16877 39.93252,44.82928c-2.24557,17.6605 -27.81786,3.40736 -45.58283,1.00614c-17.76854,-2.4017 -35.20788,6.66717 -32.96231,-10.99333c2.24556,-17.66051 16.85138,-36.95807 38.61263,-34.84207z" fill="#b8c1c0" stroke="none" stroke-width="0"/><path d="M264.74823,83.221c22.1691,7.52803 28.43477,27.05132 26.5287,42.04171c-1.41929,11.1623 0.04636,18.58905 -11.05399,23.0762c-3.57669,1.44583 -25.62982,2.627 -43.78886,-0.25035c-13.36744,-2.10173 -20.28003,-7.24573 -22.66395,-10.39949c-4.81771,-6.3735 -3.45384,-14.20815 -2.38868,-22.58524l0.08996,-0.70763c2.02351,-15.91414 15.34406,-32.27823 33.6323,-33.9846" fill="none" stroke="#3a2f41" stroke-width="2"/></g><path d="M308.79423,139.60395c0,0 -3.61256,14.89422 -3.89733,17.58638c-0.19712,1.86358 -24.78022,7.472 -27.50619,6.80281c-0.17524,-0.04301 5.6482,-45.13034 5.6482,-45.13034c0,0 -6.5795,-1.72535 -11.42331,-2.42672c-0.4098,-0.05934 -0.77845,-6.66514 -0.77845,-6.66514c0,0 -1.86641,5.9429 -2.41364,5.85281c-7.75836,-1.2772 -23.89536,-3.17659 -23.89536,-3.17659l-0.43227,-9.52127l-1.83503,9.78061l-18.22379,-0.63107l-0.4573,-4.49242l-2.90905,4.43656c0,0 -21.01396,-0.45234 -24.82792,-0.22951c0.3346,-7.75467 0.39379,-8.48734 0.39379,-8.48734c0,0 -1.37902,2.81354 -2.71164,9.14513c-0.05948,0.28258 -2.90117,-0.22276 -2.90117,-0.22276l2.95253,-13.28045l-6.62604,0.19416c0,0 6.17161,-16.49205 19.5004,-28.38032c11.09543,-9.89629 28.29963,-13.31587 35.04899,-14.09372c31.50624,-3.63102 61.17198,10.44111 75.40226,38.78413c11.03258,21.97408 4.18615,52.75403 4.18615,52.75403l-13.24152,7.83434z" data-paper-data="{&quot;index&quot;:null}" fill="#e1e2db" stroke="#3a2f41" stroke-width="2" stroke-linecap="butt"/><g fill="#e1e2db" stroke="#3a2f41" stroke-width="2" stroke-linecap="butt"><path d="M305.73024,94.96397c0,0 13.87001,-14.49387 17.8712,-14.72214c1.61841,-0.09233 -3.22107,28.85669 -5.27855,28.97407c-2.05748,0.11738 -12.59264,-14.25193 -12.59264,-14.25193z" data-paper-data="{&quot;index&quot;:null}"/><path d="M290.65319,105.6309c-1.88813,-0.65513 -0.21661,-30.53204 1.26858,-30.01671c3.67181,1.27402 14.02029,19.47254 14.02029,19.47254c0,0 -13.40075,11.1993 -15.28887,10.54417z"/></g><path d="M268.3457,112.70916c10.01217,0.73924 15.2611,10.25227 14.73466,17.38216c-0.52644,7.12988 -6.62888,9.17663 -16.64104,8.43738c-10.01216,-0.73924 -16.25662,-4.24997 -15.73018,-11.37985c0.52644,-7.12988 7.62439,-15.17893 17.63656,-14.43969z" data-paper-data="{&quot;index&quot;:null}" fill="#e1e2db" stroke="#3a2f41" stroke-width="1" stroke-linecap="butt"/><path d="M230.08369,108.12947c9.01094,0.66532 13.66797,10.13466 13.14153,17.26454c-0.52644,7.12988 -6.03697,9.22033 -15.04792,8.55501c-9.01094,-0.66532 -14.60855,-4.12829 -14.08211,-11.25817c0.52644,-7.12988 6.97756,-15.2267 15.9885,-14.56138z" data-paper-data="{&quot;index&quot;:null}" fill="#e1e2db" stroke="#3a2f41" stroke-width="1" stroke-linecap="butt"/><path d="M229.4718,135.12417c-0.02798,0.61831 -1.1688,1.06895 -2.5481,1.00654c-1.3793,-0.06241 -2.47476,-0.61424 -2.44679,-1.23255c0.02798,-0.61831 1.1688,-1.06895 2.5481,-1.00654c1.3793,0.06241 2.47476,0.61424 2.44679,1.23255z" fill="#3a2f41" stroke="none" stroke-width="0" stroke-linecap="butt"/><path d="M226.95042,89.61723c0,0 6.61425,-14.80018 11.6511,-10.68886" fill="none" stroke="#3a2f41" stroke-width="5.5" stroke-linecap="round"/><path d="M278.35408,113.6598l-1.47993,1.73488" fill="none" stroke="#3a2f41" stroke-width="1" stroke-linecap="round"/><path d="M275.62927,111.93487l-1.08938,1.95275" fill="none" stroke="#3a2f41" stroke-width="1" stroke-linecap="round"/><path d="M280.63411,116.36564l-2.06124,1.30816" fill="none" stroke="#3a2f41" stroke-width="1" stroke-linecap="round"/><path d="M217.28987,113.69957l-1.54412,-1.2711" fill="none" stroke="#3a2f41" stroke-width="1" stroke-linecap="round"/><path d="M219.38727,111.59223l-0.92665,-1.64357" fill="none" stroke="#3a2f41" stroke-width="1" stroke-linecap="round"/><path d="M221.64831,110.29309l-0.10939,-2.007" fill="none" stroke="#3a2f41" stroke-width="1" stroke-linecap="round"/><path d="M272.59669,109.47997c0,0 -17.48577,4.7481 -16.14666,-1.59726" data-paper-data="{&quot;index&quot;:null}" fill="none" stroke="#3a2f41" stroke-width="5.5" stroke-linecap="round"/><path d="M241.96344,117.49135c1.97753,5.03819 0.78834,10.21845 -2.65613,11.57043c-3.44447,1.35198 -7.83988,-1.63628 -9.81741,-6.67447c-1.97753,-5.03819 -0.78834,-10.21844 2.65613,-11.57043c3.44447,-1.35198 7.83988,1.63627 9.81741,6.67446z" fill="#3a2f41" stroke="none" stroke-width="0" stroke-linecap="butt"/><path d="M281.23276,121.27029c1.97753,5.03819 0.78834,10.21845 -2.65613,11.57043c-3.44447,1.35198 -7.83988,-1.63628 -9.81741,-6.67447c-1.97753,-5.03819 -0.78834,-10.21844 2.65613,-11.57043c3.44447,-1.35198 7.83988,1.63627 9.81741,6.67446z" fill="#3a2f41" stroke="none" stroke-width="0" stroke-linecap="butt"/><path d="M248.1732,143.52607c-2.54914,4.4259 -6.4477,0.90948 -6.4477,0.90948" fill="none" stroke="#3a2f41" stroke-width="1" stroke-linecap="round"/><g><path d="M202.88871,263.97055l17.62258,-38.56756l2.26895,-22.86173l-2.51309,-15.1285l6.87972,-20.2742c0,0 14.01747,-4.23117 21.26568,-3.82979c7.75077,0.42921 23.83241,6.32715 23.83241,6.32715l-0.31083,55.427l16.44974,44.42404l-44.38534,4.48335z" fill="#3a2f41" stroke="#8c9ca0" stroke-width="2" stroke-linecap="butt"/><g data-paper-data="{&quot;index&quot;:null}"><g><path d="M233.17415,162.38375c-0.43745,-0.36865 2.57777,-4.81571 3.03254,-5.14148c0.17958,-0.04929 0.4705,-0.42241 1.08656,0.14608c2.81349,2.59615 9.22263,10.09045 9.22263,10.09045l-10.39916,7.94025z" data-paper-data="{&quot;index&quot;:null}" fill="#8c9ca0" stroke="#3a2f41" stroke-width="4.5" stroke-linecap="round"/><path d="M246.54052,167.52522c0,0 -7.63266,-9.01171 -4.19216,-10.6712c4.09352,-1.97446 19.44024,3.32148 20.4252,2.92077c1.04218,-1.68163 2.61054,4.78626 2.572,6.24393c-1.06268,2.84877 -11.15875,11.53265 -11.15875,11.53265z" fill="#3a2f41" stroke="#3a2f41" stroke-width="4.5" stroke-linecap="round"/><path d="M235.07955,162.12645c0.03498,-0.50165 1.34385,-4.43326 2.36398,-4.83263c0.61242,-0.55786 11.65186,-5.00125 13.11229,-4.5897c2.30845,0.65052 11.51077,6.35191 12.42523,7.42885c0.51094,0.33827 0.50426,3.79349 0.44172,5.19627" fill="none" stroke="#3a2f41" stroke-width="6.5" stroke-linecap="butt"/><g><path d="M233.17415,162.38375c-0.43745,-0.36865 2.57777,-4.81571 3.03254,-5.14148c0.17958,-0.04929 0.47047,-0.4224 1.08656,0.14608c2.81347,2.59615 9.22263,10.09045 9.22263,10.09045l-10.39916,7.94025z" data-paper-data="{&quot;index&quot;:null}" fill="#8c9ca0" stroke="#12161a" stroke-width="0" stroke-linecap="round"/><path d="M246.54052,167.52519c0,0 14.42024,-7.01292 16.23304,-7.75042c1.04218,-1.68161 2.61055,4.78629 2.57201,6.24394c-1.06269,2.84875 -11.15876,11.53264 -11.15876,11.53264z" fill="#8c9ca0" stroke="#12161a" stroke-width="0" stroke-linecap="round"/><path d="M235.07956,162.12636c0.03498,-0.50165 1.34385,-4.43326 2.36398,-4.83263c0.61242,-0.55786 11.65186,-5.00125 13.11229,-4.5897c2.30845,0.65052 11.51077,6.35191 12.42523,7.42885c0.51094,0.33827 0.50426,3.79349 0.44172,5.19627" fill="none" stroke="#8c9ca0" stroke-width="2" stroke-linecap="butt"/></g></g></g><path d="M241.48121,181.29064c0.05265,-1.58444 1.21457,-2.79667 2.5952,-2.7076c1.38062,0.08908 2.45718,1.44575 2.40452,3.03019c-0.05265,1.58444 -1.21457,2.79668 -2.5952,2.7076c-1.38062,-0.08908 -2.45718,-1.44575 -2.40452,-3.03019z" fill="#8c9ca0" stroke="none" stroke-width="0.5" stroke-linecap="butt"/><path d="M239.00462,195.50604c0.05265,-1.58444 1.21457,-2.79667 2.5952,-2.7076c1.38062,0.08908 2.45718,1.44574 2.40453,3.03018c-0.05265,1.58444 -1.21457,2.79668 -2.5952,2.7076c-1.38062,-0.08908 -2.45718,-1.44575 -2.40452,-3.03019z" fill="#8c9ca0" stroke="none" stroke-width="0.5" stroke-linecap="butt"/></g><g stroke-linecap="butt"><path d="M285.36372,253.8614c0,0 -12.25296,-29.99082 -14.15469,-28.38762c-1.97566,1.66553 16.92041,-11.69321 16.92041,-11.69321l-8.88388,-12.12763l12.63877,-11.04323l25.97941,32.25171z" data-paper-data="{&quot;index&quot;:null}" fill="#e1e2db" stroke="none" stroke-width="0"/><path d="M284.07749,207.99252c-1.87369,-2.08514 -3.18417,-4.71301 -3.18417,-4.71301l12.63877,-11.04323l4.26188,5.12678l-4.19034,9.23685z" data-paper-data="{&quot;index&quot;:null}" fill="#8c9ca0" stroke="none" stroke-width="0"/><path d="M318.19074,223.1687c0,0 -29.93142,28.15084 -31.74996,29.68392c-2.03684,1.71712 -8.56404,-32.1712 -8.56404,-32.1712l9.80746,-6.55571l-8.36163,-12.16548l12.63877,-11.04323z" data-paper-data="{&quot;index&quot;:null}" fill="none" stroke="#3a2f41" stroke-width="2.5"/></g><g stroke="#8c9ca0" stroke-width="2" stroke-linecap="round"><path d="M267.92642,168.05062l8.01439,2.04387l23.01794,19.11678l-7.45273,12.8171l-14.16261,3.91913l-9.38598,-13.48193" fill="#3a2f41"/><path d="M293.96078,185.44501l-5.70281,11.79896l-13.427,3.38821" fill="none"/></g><path d="M220.43926,225.23931l49.5,1" fill="none" stroke="#8c9ca0" stroke-width="2" stroke-linecap="round"/><g data-paper-data="{&quot;index&quot;:null}" stroke="#3a2f41" stroke-width="2"><path d="M260.61798,226.27231c0,0 8.14832,-11.59632 11.79763,-11.83395c3.49786,-0.22778 14.75198,14.50434 14.75198,14.50434c0,0 4.35637,24.60522 1.62406,26.1469c-2.94989,1.66445 -12.31361,2.82173 -12.60412,2.07818c-4.38362,-11.22038 -15.56954,-30.89545 -15.56954,-30.89545z" fill="#e1e2db" stroke-linecap="butt"/><path d="M265.64029,233.66053l16.23162,-10.00464" fill="none" stroke-linecap="round"/></g></g></g></svg>