<svg version="1.1" xmlns="http://www.w3.org/2000/svg" xmlns:xlink="http://www.w3.org/1999/xlink" width="49.04675" height="49.04231" viewBox="0,0,49.04675,49.04231"><defs><linearGradient x1="219.28187" y1="171.32534" x2="261.74759" y2="171.32534" gradientUnits="userSpaceOnUse" id="color-1"><stop offset="0" stop-color="#d93025"/><stop offset="1" stop-color="#ea4335"/></linearGradient><linearGradient x1="237.16627" y1="204.71349" x2="258.39918" y2="167.93708" gradientUnits="userSpaceOnUse" id="color-2"><stop offset="0" stop-color="#fcc934"/><stop offset="1" stop-color="#fbbc04"/></linearGradient><linearGradient x1="243.16997" y1="203.51034" x2="221.93705" y2="166.73383" gradientUnits="userSpaceOnUse" id="color-3"><stop offset="0" stop-color="#1e8e3e"/><stop offset="1" stop-color="#34a853"/></linearGradient></defs><g transform="translate(-215.99068,-155.99978)"><g data-paper-data="{&quot;isPaintingLayer&quot;:true}" fill-rule="nonzero" stroke="none" stroke-width="1" stroke-linecap="butt" stroke-linejoin="miter" stroke-miterlimit="10" stroke-dasharray="" stroke-dashoffset="0" style="mix-blend-mode: normal"><path d="M228.25513,180.5152c0,-6.77121 5.48915,-12.26037 12.26037,-12.26037c6.77121,0 12.26037,5.48915 12.26037,12.26037c0,6.77121 -5.48915,12.26037 -12.26037,12.26037c-6.77121,0 -12.26037,-5.48915 -12.26037,-12.26037z" fill="#ffffff"/><path d="M228.25513,159.28504c8.58899,-4.95886 19.3194,-4.25556 27.18765,1.78196c7.86825,6.03752 11.32483,16.22027 8.75794,25.80004c-2.56689,9.57978 -10.65175,16.67001 -20.48462,17.96453c-9.83287,1.29452 -19.47733,-3.4616 -24.43618,-12.05059c-6.77121,-11.72808 -2.75288,-26.72472 8.9752,-33.49594zM234.38531,169.90283c-4.2945,2.47943 -6.67256,7.30166 -6.0253,12.21809c0.64726,4.91643 4.19238,8.95886 8.98226,10.24231c4.78989,1.28345 9.88126,-0.44484 12.90002,-4.37897c3.01876,-3.93413 3.37041,-9.29933 0.89098,-13.59383c-3.38561,-5.86404 -10.88393,-7.87321 -16.74797,-4.4876z" fill="none"/><path d="M229.89363,174.38645c-2.18956,3.79539 -2.1843,8.47144 0.01378,12.2619l-0.0095,0.00245l-10.61605,-18.38759c4.37786,-7.58774 12.4719,-12.26277 21.23201,-12.26338c8.7601,-0.00061 16.8548,4.67329 21.23372,12.26041h-21.2321c-4.38168,-0.0054 -8.43231,2.33082 -10.62186,6.1262z" fill="url(#color-1)"/><path d="M230.80937,180.52061c0,-5.36054 4.34558,-9.70613 9.70613,-9.70613c5.36054,0 9.70613,4.34558 9.70613,9.70613c0,5.36054 -4.34558,9.70613 -9.70613,9.70613c-5.36054,0 -9.70613,-4.34558 -9.70613,-9.70613z" fill="#1a73e8"/><path d="M251.13789,174.39184c-2.19213,-3.79392 -6.24438,-6.12738 -10.62607,-6.11893l0.00255,-0.0095h21.232c4.38219,7.5852 4.38386,16.93231 0.00438,24.51908c-4.37948,7.58676 -12.47447,12.26006 -21.23454,12.25886l10.61605,-18.38759c2.19561,-3.79191 2.19776,-8.468 0.00563,-12.26192z" fill="url(#color-2)"/><path d="M240.51501,192.7897c4.38169,-0.00148 8.42865,-2.34406 10.61224,-6.14289l0.00685,0.00695l-10.61605,18.38759c-8.7601,0.00249 -16.8558,-4.66965 -21.23638,-12.25582c-4.38058,-7.58617 -4.38023,-16.93332 0.00091,-24.51916l10.61605,18.38759c2.18615,3.79736 6.23469,6.13721 10.61638,6.13574z" fill="url(#color-3)"/></g></g></svg>